<svg version="1.1" id="Frame_27" xmlns="http://www.w3.org/2000/svg" xmlns:xlink="http://www.w3.org/1999/xlink" width="480px" height="720px">
<g id="main_bone">
<g id="right_arm">
<path class="path-0" d="M174.126,270.172C175.458,267.511,178.075,262.017,181.778,260.525C188.182,257.943,193.652,263.933,194.431,268.509C196.093,276.447,190.936,287.396,188.470,295.289C182.390,314.329,175.637,333.084,171.132,352.015C170.600,355.317,165.808,376.634,165.808,373.973C165.476,380.626,172.130,386.283,174.459,391.939C177.454,399.590,174.791,406.910,172.795,413.897C168.138,428.535,168.471,433.858,167.804,448.165C167.804,450.492,167.473,458.146,163.812,458.146C160.487,458.146,160.153,452.157,159.488,449.828C159.155,447.167,156.825,441.510,157.492,439.182C157.823,435.190,162.483,436.188,157.492,427.870C151.170,417.555,139.526,409.240,136.532,395.931C134.536,385.285,140.191,375.969,143.186,365.988C149.508,344.695,156.494,323.404,163.812,302.111C167.805,291.132,168.802,281.484,174.126,270.172M193.754,262.188C193.755,253.538,190.761,245.885,180.115,249.546C163.481,255.200,158.822,281.484,154.165,296.122C147.512,316.084,141.855,336.046,136.199,356.007C133.870,364.657,130.544,368.982,129.212,373.973C127.549,379.628,127.881,388.280,128.214,393.935C128.214,411.567,133.869,412.234,140.856,425.874C144.517,433.859,140.525,438.849,142.852,445.835C144.517,450.492,148.176,453.820,150.837,457.813C153.166,461.805,153.499,464.135,155.162,467.793C157.158,472.119,163.481,481.767,169.136,479.771C173.793,478.108,173.793,469.790,174.126,465.797C174.459,459.809,178.119,436.853,179.450,429.866C181.778,418.554,187.435,406.245,185.770,393.935C184.440,384.619,176.122,377.965,176.456,367.985C176.787,362.661,180.115,354.011,181.113,348.023C182.776,338.375,182.776,328.061,184.772,318.081C188.099,300.448,194.421,280.487,193.754,262.188Z"/>
<path class="path-1" d="M181.778,260.525C188.182,257.943,193.652,263.933,194.431,268.509"/>
<path class="path-1" d="M194.431,268.509C196.093,276.447,190.936,287.396,188.470,295.289"/>
<path class="path-1" d="M188.470,295.289C182.390,314.329,175.637,333.084,171.132,352.015"/>
<path class="path-1" d="M171.132,352.015C170.600,355.317,165.808,376.634,165.808,373.973"/>
<path class="path-1" d="M165.808,373.973C165.476,380.626,172.130,386.283,174.459,391.939"/>
<path class="path-1" d="M174.459,391.939C177.454,399.590,174.791,406.910,172.795,413.897"/>
<path class="path-1" d="M172.795,413.897C168.138,428.535,168.471,433.858,167.804,448.165"/>
<path class="path-1" d="M167.804,448.165C167.804,450.492,167.473,458.146,163.812,458.146"/>
<path class="path-1" d="M163.812,458.146C160.487,458.146,160.153,452.157,159.488,449.828"/>
<path class="path-1" d="M159.488,449.828C159.155,447.167,156.825,441.510,157.492,439.182"/>
<path class="path-1" d="M157.492,439.182C157.823,435.190,162.483,436.188,157.492,427.870"/>
<path class="path-1" d="M157.492,427.870C151.170,417.555,139.526,409.240,136.532,395.931"/>
<path class="path-1" d="M136.532,395.931C134.536,385.285,140.191,375.969,143.186,365.988"/>
<path class="path-1" d="M143.186,365.988C149.508,344.695,156.494,323.404,163.812,302.111"/>
<path class="path-1" d="M163.812,302.111C167.805,291.132,168.802,281.484,174.126,270.172"/>
<path class="path-1" d="M174.126,270.172C175.458,267.511,178.075,262.017,181.778,260.525"/>
<path class="path-2" d="M181.778,260.525C188.182,257.943,193.652,263.933,194.431,268.509C196.093,276.447,190.936,287.396,188.470,295.289C182.390,314.329,175.637,333.084,171.132,352.015C170.600,355.317,165.808,376.634,165.808,373.973C165.476,380.626,172.130,386.283,174.459,391.939C177.454,399.590,174.791,406.910,172.795,413.897C168.138,428.535,168.471,433.858,167.804,448.165C167.804,450.492,167.473,458.146,163.812,458.146C160.487,458.146,160.153,452.157,159.488,449.828C159.155,447.167,156.825,441.510,157.492,439.182C157.823,435.190,162.483,436.188,157.492,427.870C151.170,417.555,139.526,409.240,136.532,395.931C134.536,385.285,140.191,375.969,143.186,365.988C149.508,344.695,156.494,323.404,163.812,302.111C167.805,291.132,168.802,281.484,174.126,270.172C175.458,267.511,178.075,262.017,181.778,260.525Z"/>
</g>
<g id="layer_left_leg">
<g id="left_heel">
<path class="path-0" d="M241.518,540.379C233.533,530.065,248.838,508.107,259.817,506.445C273.790,504.115,278.447,528.403,276.784,533.393C274.455,539.715,265.472,543.374,259.817,544.372C255.160,545.037,244.181,544.038,241.518,540.379M282.440,505.780C276.785,498.460,261.813,498.127,253.828,500.790C224.219,509.773,220.227,565.666,261.813,554.020C269.133,552.023,284.104,546.368,287.430,539.381C290.757,533.726,288.761,527.404,287.430,521.416C286.100,516.759,285.434,509.772,282.440,505.780Z"/>
<path class="path-3" d="M259.817,506.445C273.790,504.115,278.447,528.403,276.784,533.393"/>
<path class="path-3" d="M276.784,533.393C274.455,539.715,265.472,543.374,259.817,544.372"/>
<path class="path-3" d="M259.817,544.372C255.160,545.037,244.181,544.038,241.518,540.379"/>
<path class="path-3" d="M241.518,540.379C233.533,530.065,248.838,508.107,259.817,506.445"/>
<path class="path-4" d="M259.817,506.445C273.790,504.115,278.447,528.403,276.784,533.393C274.455,539.715,265.472,543.374,259.817,544.372C255.160,545.037,244.181,544.038,241.518,540.379C233.533,530.065,248.838,508.107,259.817,506.445Z"/>
</g>
<g id="left_sole">
<path class="path-0" d="M257.321,566.838C248.680,566.033,241.880,550.932,245.082,558.290C246.931,562.539,253.949,564.902,257.250,566.534C257.831,566.851,270.873,570.725,272.306,570.948C277.344,572.394,292.816,571.082,293.332,569.811C293.436,569.553,282.542,570.133,279.084,570.525C272.587,571.796,264.143,570.423,257.250,566.534M249.757,553.059C252.290,553.611,258.468,557.547,260.053,559.500C264.905,565.476,278.513,566.435,286.350,563.950C287.355,563.659,287.531,561.303,293.292,560.004C296.468,559.288,277.887,565.891,273.807,564.263C265.158,562.479,246.570,552.364,249.757,553.059M289.502,550.438C287.774,549.716,275.130,539.923,265.197,540.532C257.155,541.074,237.685,546.780,236.375,557.272C235.876,561.345,242.071,571.889,245.323,574.256C256.684,583.176,286.528,577.070,292.166,574.584C294.152,573.708,302.742,555.972,289.502,550.438Z"/>
<path class="path-5" d="M245.082,558.290C246.931,562.539,253.949,564.902,257.250,566.534"/>
<path class="path-5" d="M257.250,566.534C264.143,570.423,272.587,571.796,279.084,570.525"/>
<path class="path-5" d="M279.084,570.525C282.542,570.133,293.436,569.553,293.332,569.811"/>
<path class="path-5" d="M293.332,569.811C292.816,571.082,277.344,572.394,272.306,570.948"/>
<path class="path-5" d="M272.306,570.948C270.873,570.725,257.831,566.851,257.321,566.838"/>
<path class="path-5" d="M257.321,566.838C248.680,566.033,241.880,550.932,245.082,558.290"/>
<path class="path-6" d="M245.082,558.290C246.931,562.539,253.949,564.902,257.250,566.534C264.143,570.423,272.587,571.796,279.084,570.525C282.542,570.133,293.436,569.553,293.332,569.811C292.816,571.082,277.344,572.394,272.306,570.948C270.873,570.725,257.831,566.851,257.321,566.838C248.680,566.033,241.880,550.932,245.082,558.290Z"/>
<path class="path-5" d="M260.053,559.500C264.905,565.476,278.513,566.435,286.350,563.950"/>
<path class="path-5" d="M286.350,563.950C287.355,563.659,287.531,561.303,293.292,560.004"/>
<path class="path-5" d="M293.292,560.004C296.468,559.288,277.887,565.891,273.807,564.263"/>
<path class="path-5" d="M273.807,564.263C265.158,562.479,246.570,552.364,249.757,553.059"/>
<path class="path-5" d="M249.757,553.059C252.290,553.611,258.468,557.547,260.053,559.500"/>
<path class="path-6" d="M260.053,559.500C264.905,565.476,278.513,566.435,286.350,563.950C287.355,563.659,287.531,561.303,293.292,560.004C296.468,559.288,277.887,565.891,273.807,564.263C265.158,562.479,246.570,552.364,249.757,553.059C252.290,553.611,258.468,557.547,260.053,559.500Z"/>
</g>
<g id="left_toe">
<path class="path-0" d="M258.126,584.295C226.852,581.301,240.161,534.725,268.107,537.052C281.747,538.384,284.741,550.361,286.072,561.339C287.070,566.330,288.402,570.655,286.072,575.312C281.415,582.964,266.111,584.960,258.126,584.295M289.400,537.718C282.744,530.732,265.112,528.402,256.129,530.398C231.842,536.054,231.511,553.355,232.176,573.317C232.176,578.307,232.175,582.964,235.169,586.956C241.823,595.275,266.110,596.606,276.091,594.610C283.411,592.613,292.394,588.621,296.053,581.301C300.710,572.319,296.053,545.036,289.400,537.718Z"/>
<path class="path-3" d="M268.107,537.052C281.747,538.384,284.741,550.361,286.072,561.339"/>
<path class="path-3" d="M286.072,561.339C287.070,566.330,288.402,570.655,286.072,575.312"/>
<path class="path-3" d="M286.072,575.312C281.415,582.964,266.111,584.960,258.126,584.295"/>
<path class="path-3" d="M258.126,584.295C226.852,581.301,240.161,534.725,268.107,537.052"/>
<path class="path-4" d="M268.107,537.052C281.747,538.384,284.741,550.361,286.072,561.339C287.070,566.330,288.402,570.655,286.072,575.312C281.415,582.964,266.111,584.960,258.126,584.295C226.852,581.301,240.161,534.725,268.107,537.052Z"/>
</g>
<g id="left_leg">
<path class="path-0" d="M235.675,412.234C234.345,405.912,248.958,405.447,253.973,404.581C258.830,403.982,269.813,404.158,273.735,407.244C287.676,417.477,289.133,465.739,288.678,482.369C287.911,496.046,288.722,508.965,287.451,522.132C286.756,527.885,285.914,533.832,284.532,539.343C283.512,544.277,277.990,550.688,281.309,554.086C282.723,556.157,286.003,554.805,288.318,555.016C292.344,555.638,292.369,552.247,295.152,553.055C305.260,556.328,285.946,578.034,276.701,580.793C269.430,583.230,254.064,580.633,248.421,575.594C246.693,574.051,244.672,572.271,243.430,570.368C226.079,542.307,242.298,492.494,246.474,465.369C248.001,455.453,254.050,476.681,259.886,473.927C268.827,469.654,250.854,434.267,245.324,425.874C242.570,422.345,236.341,416.558,235.675,412.234M283.383,396.777C277.489,392.180,260.813,393.743,253.973,394.933C247.340,396.061,224.695,395.598,221.701,400.589C216.711,408.907,230.949,422.443,233.678,429.866C234.868,433.914,231.905,454.142,231.530,459.809C231.438,472.396,230.470,483.160,230.019,495.740C228.781,521.000,218.103,545.517,224.600,569.599C229.627,587.721,243.394,598.758,265.798,595.556C287.560,592.788,296.037,590.767,304.647,568.684C309.881,555.743,309.808,553.287,306.331,541.804C305.001,537.470,300.161,534.592,298.658,529.972C292.079,511.891,300.191,491.531,298.811,472.228C297.539,454.210,298.392,408.539,283.383,396.777Z"/>
<path class="path-7" d="M253.973,404.581C258.830,403.982,269.813,404.158,273.735,407.244"/>
<path class="path-7" d="M273.735,407.244C287.676,417.477,289.133,465.739,288.678,482.369"/>
<path class="path-7" d="M288.678,482.369C287.911,496.046,288.722,508.965,287.451,522.132"/>
<path class="path-7" d="M287.451,522.132C286.756,527.885,285.914,533.832,284.532,539.343"/>
<path class="path-7" d="M284.532,539.343C283.512,544.277,277.990,550.688,281.309,554.086"/>
<path class="path-7" d="M281.309,554.086C282.723,556.157,286.003,554.805,288.318,555.016"/>
<path class="path-7" d="M288.318,555.016C292.344,555.638,292.369,552.247,295.152,553.055"/>
<path class="path-7" d="M295.152,553.055C305.260,556.328,285.946,578.034,276.701,580.793"/>
<path class="path-7" d="M276.701,580.793C269.430,583.230,254.064,580.633,248.421,575.594"/>
<path class="path-7" d="M248.421,575.594C246.693,574.051,244.672,572.271,243.430,570.368"/>
<path class="path-7" d="M243.430,570.368C226.079,542.307,242.298,492.494,246.474,465.369"/>
<path class="path-7" d="M246.474,465.369C248.001,455.453,254.050,476.681,259.886,473.927"/>
<path class="path-7" d="M259.886,473.927C268.827,469.654,250.854,434.267,245.324,425.874"/>
<path class="path-7" d="M245.324,425.874C242.570,422.345,236.341,416.558,235.675,412.234"/>
<path class="path-7" d="M235.675,412.234C234.345,405.912,248.958,405.447,253.973,404.581"/>
<path class="path-8" d="M253.973,404.581C258.830,403.982,269.813,404.158,273.735,407.244C287.676,417.477,289.133,465.739,288.678,482.369C287.911,496.046,288.722,508.965,287.451,522.132C286.756,527.885,285.914,533.832,284.532,539.343C283.512,544.277,277.990,550.688,281.309,554.086C282.723,556.157,286.003,554.805,288.318,555.016C292.344,555.638,292.369,552.247,295.152,553.055C305.260,556.328,285.946,578.034,276.701,580.793C269.430,583.230,254.064,580.633,248.421,575.594C246.693,574.051,244.672,572.271,243.430,570.368C226.079,542.307,242.298,492.494,246.474,465.369C248.001,455.453,254.050,476.681,259.886,473.927C268.827,469.654,250.854,434.267,245.324,425.874C242.570,422.345,236.341,416.558,235.675,412.234C234.345,405.912,248.958,405.447,253.973,404.581Z"/>
</g>
</g>
<g id="layer_right_leg">
<g id="right_heel">
<path class="path-0" d="M186.437,651.442C188.764,632.478,188.764,617.507,212.053,614.179C222.368,612.516,241.996,615.844,247.651,625.824C250.645,630.815,249.648,638.133,249.981,643.457C250.646,652.773,256.634,670.072,243.659,673.066C242.661,673.399,214.715,675.729,206.065,677.059C200.741,678.390,195.086,680.386,190.761,677.059C185.105,671.737,185.439,658.428,186.437,651.442M258.630,623.829C253.973,611.852,237.671,604.865,226.027,606.528C210.722,608.524,195.086,603.533,185.105,617.840C175.124,632.144,175.458,658.762,178.783,675.396C179.782,681.384,183.442,692.364,188.433,695.691C192.092,698.018,197.747,697.353,202.073,697.353C223.032,697.686,259.629,704.674,259.962,673.399C259.962,662.421,261.958,632.478,258.630,623.829Z"/>
<path class="path-3" d="M212.053,614.179C222.368,612.516,241.996,615.844,247.651,625.824"/>
<path class="path-3" d="M247.651,625.824C250.645,630.815,249.648,638.133,249.981,643.457"/>
<path class="path-3" d="M249.981,643.457C250.646,652.773,256.634,670.072,243.659,673.066"/>
<path class="path-3" d="M243.659,673.066C242.661,673.399,214.715,675.729,206.065,677.059"/>
<path class="path-3" d="M206.065,677.059C200.741,678.390,195.086,680.386,190.761,677.059"/>
<path class="path-3" d="M190.761,677.059C185.105,671.737,185.439,658.428,186.437,651.442"/>
<path class="path-3" d="M186.437,651.442C188.764,632.478,188.764,617.507,212.053,614.179"/>
<path class="path-4" d="M212.053,614.179C222.368,612.516,241.996,615.844,247.651,625.824C250.645,630.815,249.648,638.133,249.981,643.457C250.646,652.773,256.634,670.072,243.659,673.066C242.661,673.399,214.715,675.729,206.065,677.059C200.741,678.390,195.086,680.386,190.761,677.059C185.105,671.737,185.439,658.428,186.437,651.442C188.764,632.478,188.764,617.507,212.053,614.179Z"/>
</g>
<g id="right_leg">
<path class="path-0" d="M182.775,404.914C180.114,398.592,188.153,392.314,194.088,391.274C200.394,390.035,209.968,392.834,216.429,394.927C219.889,396.047,224.379,398.086,227.360,400.168C230.211,402.159,234.168,405.044,235.675,408.242C238.907,415.768,238.707,419.408,238.752,424.318C238.802,429.656,236.104,435.690,235.675,441.843C235.371,458.528,238.004,475.778,240.665,491.747C242.329,502.393,246.653,517.698,246.986,527.678C246.987,536.661,240.000,536.995,240.333,542.317C240.333,545.978,251.643,561.280,253.973,565.606C261.293,578.581,266.948,594.550,266.948,609.522C266.948,622.497,247.985,639.465,236.007,641.461C222.368,643.457,184.441,628.819,172.130,621.833C166.475,618.838,156.825,614.179,155.162,607.525C153.831,603.200,159.155,583.905,161.485,579.580C164.810,573.924,167.473,572.926,169.801,565.606C172.795,554.960,171.797,542.983,172.130,531.671C172.130,516.700,175.789,478.107,180.115,463.801C182.776,454.153,192.092,421.217,189.763,412.234C188.433,406.910,184.440,408.242,182.775,404.914M208.062,381.294C202.406,379.297,198.080,373.973,192.092,375.969C189.762,376.967,185.770,379.962,184.107,381.625C168.803,394.600,168.138,407.244,168.138,425.874C167.804,433.859,167.473,442.177,168.138,449.828C168.471,454.818,169.801,459.144,169.136,463.801C168.802,468.127,166.806,472.450,166.141,477.774C165.477,484.428,167.139,492.412,166.141,503.725C164.479,514.039,162.149,523.687,161.816,533.667C161.816,538.991,162.814,551.633,161.816,555.625C159.820,560.616,155.163,565.273,152.502,569.599C147.843,578.248,146.180,588.229,146.179,597.545C145.846,603.867,145.515,612.183,148.176,617.506C152.168,625.491,160.818,630.815,168.138,635.138C180.115,642.125,192.757,644.122,206.065,648.447C210.057,649.779,213.716,652.106,218.042,652.773C219.705,652.773,233.346,651.442,236.007,651.108C248.649,648.781,269.609,638.133,274.600,625.491C275.931,621.499,275.598,615.844,275.598,611.518C275.595,607.527,275.595,603.535,275.598,599.541C275.266,574.589,264.952,564.608,258.964,543.648C256.968,536.662,256.303,521.690,255.305,513.706C252.975,497.736,247.984,482.431,247.651,465.797C247.651,462.469,246.987,457.812,249.316,454.818C251.312,452.157,255.305,452.157,256.634,449.163C258.630,443.839,251.977,425.874,250.646,419.885C249.981,416.226,250.314,411.567,248.983,407.908C245.324,398.592,231.351,388.280,222.034,385.285C217.377,383.621,212.387,383.290,208.062,381.294Z"/>
<path class="path-7" d="M194.088,391.274C200.394,390.035,209.968,392.834,216.429,394.927"/>
<path class="path-7" d="M216.429,394.927C219.889,396.047,224.379,398.086,227.360,400.168"/>
<path class="path-7" d="M227.360,400.168C230.211,402.159,234.168,405.044,235.675,408.242"/>
<path class="path-7" d="M235.675,408.242C238.907,415.768,238.707,419.408,238.752,424.318"/>
<path class="path-7" d="M238.752,424.318C238.802,429.656,236.104,435.690,235.675,441.843"/>
<path class="path-7" d="M235.675,441.843C235.371,458.528,238.004,475.778,240.665,491.747"/>
<path class="path-7" d="M240.665,491.747C242.329,502.393,246.653,517.698,246.986,527.678"/>
<path class="path-7" d="M246.986,527.678C246.987,536.661,240.000,536.995,240.333,542.317"/>
<path class="path-7" d="M240.333,542.317C240.333,545.978,251.643,561.280,253.973,565.606"/>
<path class="path-7" d="M253.973,565.606C261.293,578.581,266.948,594.550,266.948,609.522"/>
<path class="path-7" d="M266.948,609.522C266.948,622.497,247.985,639.465,236.007,641.461"/>
<path class="path-7" d="M236.007,641.461C222.368,643.457,184.441,628.819,172.130,621.833"/>
<path class="path-7" d="M172.130,621.833C166.475,618.838,156.825,614.179,155.162,607.525"/>
<path class="path-7" d="M155.162,607.525C153.831,603.200,159.155,583.905,161.485,579.580"/>
<path class="path-7" d="M161.485,579.580C164.810,573.924,167.473,572.926,169.801,565.606"/>
<path class="path-7" d="M169.801,565.606C172.795,554.960,171.797,542.983,172.130,531.671"/>
<path class="path-7" d="M172.130,531.671C172.130,516.700,175.789,478.107,180.115,463.801"/>
<path class="path-7" d="M180.115,463.801C182.776,454.153,192.092,421.217,189.763,412.234"/>
<path class="path-7" d="M189.763,412.234C188.433,406.910,184.440,408.242,182.775,404.914"/>
<path class="path-7" d="M182.775,404.914C180.114,398.592,188.153,392.314,194.088,391.274"/>
<path class="path-8" d="M194.088,391.274C200.394,390.035,209.968,392.834,216.429,394.927C219.889,396.047,224.379,398.086,227.360,400.168C230.211,402.159,234.168,405.044,235.675,408.242C238.907,415.768,238.707,419.408,238.752,424.318C238.802,429.656,236.104,435.690,235.675,441.843C235.371,458.528,238.004,475.778,240.665,491.747C242.329,502.393,246.653,517.698,246.986,527.678C246.987,536.661,240.000,536.995,240.333,542.317C240.333,545.978,251.643,561.280,253.973,565.606C261.293,578.581,266.948,594.550,266.948,609.522C266.948,622.497,247.985,639.465,236.007,641.461C222.368,643.457,184.441,628.819,172.130,621.833C166.475,618.838,156.825,614.179,155.162,607.525C153.831,603.200,159.155,583.905,161.485,579.580C164.810,573.924,167.473,572.926,169.801,565.606C172.795,554.960,171.797,542.983,172.130,531.671C172.130,516.700,175.789,478.107,180.115,463.801C182.776,454.153,192.092,421.217,189.763,412.234C188.433,406.910,184.440,408.242,182.775,404.914C180.114,398.592,188.153,392.314,194.088,391.274Z"/>
</g>
<g id="right_toe">
<path class="path-0" d="M153.831,633.476C155.163,615.177,160.153,591.223,182.111,586.566C187.101,585.235,194.421,586.900,200.076,587.898C230.684,593.220,240.000,602.202,241.996,633.476C242.330,641.128,244.326,650.110,239.667,657.097C234.011,665.415,202.072,671.403,192.092,671.403C176.787,671.736,164.810,670.072,156.160,655.434C151.170,646.784,153.167,642.792,153.831,633.476M249.648,603.867C240.665,585.901,198.745,574.256,180.115,578.581C152.169,585.235,147.843,609.522,145.847,633.476C145.182,640.796,142.521,648.781,145.847,655.434C147.843,659.426,152.833,664.417,156.160,667.411C171.465,682.383,182.111,679.721,202.073,679.388C214.050,679.388,234.012,678.723,243.659,670.738C250.979,664.083,251.644,656.765,251.977,647.449C251.977,638.466,253.309,610.520,249.648,603.867Z"/>
<path class="path-3" d="M182.111,586.566C187.101,585.235,194.421,586.900,200.076,587.898"/>
<path class="path-3" d="M200.076,587.898C230.684,593.220,240.000,602.202,241.996,633.476"/>
<path class="path-3" d="M241.996,633.476C242.330,641.128,244.326,650.110,239.667,657.097"/>
<path class="path-3" d="M239.667,657.097C234.011,665.415,202.072,671.403,192.092,671.403"/>
<path class="path-3" d="M192.092,671.403C176.787,671.736,164.810,670.072,156.160,655.434"/>
<path class="path-3" d="M156.160,655.434C151.170,646.784,153.167,642.792,153.831,633.476"/>
<path class="path-3" d="M153.831,633.476C155.163,615.177,160.153,591.223,182.111,586.566"/>
<path class="path-4" d="M182.111,586.566C187.101,585.235,194.421,586.900,200.076,587.898C230.684,593.220,240.000,602.202,241.996,633.476C242.330,641.128,244.326,650.110,239.667,657.097C234.011,665.415,202.072,671.403,192.092,671.403C176.787,671.736,164.810,670.072,156.160,655.434C151.170,646.784,153.167,642.792,153.831,633.476C155.163,615.177,160.153,591.223,182.111,586.566Z"/>
</g>
<g id="right_sole">
<path class="path-0" d="M182.775,670.405C187.671,670.817,198.802,669.557,204.069,670.405C209.332,671.549,214.496,672.321,218.910,673.225C221.944,674.106,232.740,677.014,228.687,681.717C226.919,683.918,220.705,683.697,218.042,683.380C215.051,683.399,187.146,680.704,186.103,680.833C180.439,681.143,177.856,679.365,177.371,676.479C176.966,674.073,178.422,670.020,182.775,670.405M236.596,663.625C237.999,665.591,241.830,669.709,238.668,671.403C234.814,673.489,217.922,667.360,212.705,664.576C208.370,663.169,203.313,662.477,199.212,662.243C191.847,661.823,181.951,662.996,174.682,663.992C172.395,663.907,170.879,664.840,169.980,663.972C169.521,663.528,169.308,659.649,170.864,657.680C176.686,650.314,193.007,652.864,202.629,653.143C210.387,653.368,220.416,655.696,228.023,658.095C229.286,658.529,234.817,661.134,236.596,663.625M241.663,658.428C224.994,647.721,211.565,642.999,192.092,644.455C183.648,645.136,165.013,648.728,159.707,657.797C158.250,660.288,158.661,664.464,159.452,667.411C159.928,669.171,160.746,673.411,162.282,675.458C166.077,680.518,176.001,685.098,180.115,686.708C195.403,693.340,217.500,689.245,234.012,690.700C242.178,691.316,241.940,685.196,243.429,681.549C246.059,675.108,253.283,665.684,241.663,658.428Z"/>
<path class="path-5" d="M182.775,670.405C187.671,670.817,198.802,669.557,204.069,670.405"/>
<path class="path-5" d="M204.069,670.405C209.332,671.549,214.496,672.321,218.910,673.225"/>
<path class="path-5" d="M218.910,673.225C221.944,674.106,232.740,677.014,228.687,681.717"/>
<path class="path-5" d="M228.687,681.717C226.919,683.918,220.705,683.697,218.042,683.380"/>
<path class="path-5" d="M218.042,683.380C215.051,683.399,187.146,680.704,186.103,680.833"/>
<path class="path-5" d="M186.103,680.833C180.439,681.143,177.856,679.365,177.371,676.479"/>
<path class="path-5" d="M177.371,676.479C176.966,674.073,178.422,670.020,182.775,670.405"/>
<path class="path-6" d="M182.775,670.405C187.671,670.817,198.802,669.557,204.069,670.405C209.332,671.549,214.496,672.321,218.910,673.225C221.944,674.106,232.740,677.014,228.687,681.717C226.919,683.918,220.705,683.697,218.042,683.380C215.051,683.399,187.146,680.704,186.103,680.833C180.439,681.143,177.856,679.365,177.371,676.479C176.966,674.073,178.422,670.020,182.775,670.405Z"/>
<path class="path-5" d="M170.864,657.680C176.686,650.314,193.007,652.864,202.629,653.143"/>
<path class="path-5" d="M202.629,653.143C210.387,653.368,220.416,655.696,228.023,658.095"/>
<path class="path-5" d="M228.023,658.095C229.286,658.529,234.817,661.134,236.596,663.625"/>
<path class="path-5" d="M236.596,663.625C237.999,665.591,241.830,669.709,238.668,671.403"/>
<path class="path-5" d="M238.668,671.403C234.814,673.489,217.922,667.360,212.705,664.576"/>
<path class="path-5" d="M212.705,664.576C208.370,663.169,203.313,662.477,199.212,662.243"/>
<path class="path-5" d="M199.212,662.243C191.847,661.823,181.951,662.996,174.682,663.992"/>
<path class="path-5" d="M174.682,663.992C172.395,663.907,170.879,664.840,169.980,663.972"/>
<path class="path-5" d="M169.980,663.972C169.521,663.528,169.308,659.649,170.864,657.680"/>
<path class="path-6" d="M170.864,657.680C176.686,650.314,193.007,652.864,202.629,653.143C210.387,653.368,220.416,655.696,228.023,658.095C229.286,658.529,234.817,661.134,236.596,663.625C237.999,665.591,241.830,669.709,238.668,671.403C234.814,673.489,217.922,667.360,212.705,664.576C208.370,663.169,203.313,662.477,199.212,662.243C191.847,661.823,181.951,662.996,174.682,663.992C172.395,663.907,170.879,664.840,169.980,663.972C169.521,663.528,169.308,659.649,170.864,657.680Z"/>
</g>
</g>
<g id="hat_brim">
<path class="path-0" d="M291.493,137.289C295.152,131.301,304.135,114.998,312.119,114.998C317.443,114.998,328.422,124.647,334.077,127.642C339.068,130.636,344.391,133.297,350.047,135.958C353.259,137.628,356.475,139.291,359.694,140.948C374.001,148.269,370.008,154.591,361.690,153.259C343.060,149.931,340.066,151.263,322.100,141.946C319.771,140.948,313.782,137.623,312.784,141.946C311.455,146.937,320.438,151.263,324.097,152.926C330.750,156.586,338.070,160.579,346.054,161.244C348.384,161.577,356.369,160.910,357.698,163.239C359.694,166.567,350.047,175.217,348.051,177.213C344.723,180.207,341.397,183.201,338.070,185.531C333.079,188.856,327.755,191.851,322.100,192.849C311.455,194.180,278.185,178.876,277.186,167.232C276.522,160.579,287.500,143.611,291.493,137.289M324.097,110.674C319.106,106.348,315.447,100.026,308.127,103.354C302.803,105.684,297.148,113.335,293.489,117.328C279.847,133.962,267.539,153.592,268.204,175.216C268.537,188.856,273.194,188.525,284.173,193.847C300.807,202.165,322.100,204.826,340.066,196.510C351.710,191.186,372.005,173.221,377.329,161.244C378.991,157.251,381.985,148.268,379.656,143.611C376.995,137.954,354.704,128.307,348.051,124.648C340.066,120.322,331.083,116.329,324.097,110.674Z"/>
<path class="path-9" d="M312.119,114.998C317.443,114.998,328.422,124.647,334.077,127.642"/>
<path class="path-9" d="M334.077,127.642C339.068,130.636,344.391,133.297,350.047,135.958"/>
<path class="path-9" d="M350.047,135.958C353.259,137.628,356.475,139.291,359.694,140.948"/>
<path class="path-9" d="M359.694,140.948C374.001,148.269,370.008,154.591,361.690,153.259"/>
<path class="path-9" d="M361.690,153.259C343.060,149.931,340.066,151.263,322.100,141.946"/>
<path class="path-9" d="M322.100,141.946C319.771,140.948,313.782,137.623,312.784,141.946"/>
<path class="path-9" d="M312.784,141.946C311.455,146.937,320.438,151.263,324.097,152.926"/>
<path class="path-9" d="M324.097,152.926C330.750,156.586,338.070,160.579,346.054,161.244"/>
<path class="path-9" d="M346.054,161.244C348.384,161.577,356.369,160.910,357.698,163.239"/>
<path class="path-9" d="M357.698,163.239C359.694,166.567,350.047,175.217,348.051,177.213"/>
<path class="path-9" d="M348.051,177.213C344.723,180.207,341.397,183.201,338.070,185.531"/>
<path class="path-9" d="M338.070,185.531C333.079,188.856,327.755,191.851,322.100,192.849"/>
<path class="path-9" d="M322.100,192.849C311.455,194.180,278.185,178.876,277.186,167.232"/>
<path class="path-9" d="M277.186,167.232C276.522,160.579,287.500,143.611,291.493,137.289"/>
<path class="path-9" d="M291.493,137.289C295.152,131.301,304.135,114.998,312.119,114.998"/>
<path class="path-10" d="M312.119,114.998C317.443,114.998,328.422,124.647,334.077,127.642C339.068,130.636,344.391,133.297,350.047,135.958C353.259,137.628,356.475,139.291,359.694,140.948C374.001,148.269,370.008,154.591,361.690,153.259C343.060,149.931,340.066,151.263,322.100,141.946C319.771,140.948,313.782,137.623,312.784,141.946C311.455,146.937,320.438,151.263,324.097,152.926C330.750,156.586,338.070,160.579,346.054,161.244C348.384,161.577,356.369,160.910,357.698,163.239C359.694,166.567,350.047,175.217,348.051,177.213C344.723,180.207,341.397,183.201,338.070,185.531C333.079,188.856,327.755,191.851,322.100,192.849C311.455,194.180,278.185,178.876,277.186,167.232C276.522,160.579,287.500,143.611,291.493,137.289C295.152,131.301,304.135,114.998,312.119,114.998Z"/>
</g>
<g id="hair">
<path class="path-0" d="M183.357,136.483C200.954,124.749,220.906,123.806,241.996,123.120C251.452,122.794,257.886,129.270,265.069,135.626C270.964,141.195,277.299,147.468,283.560,153.313C292.986,162.051,296.930,166.431,300.440,170.614C303.444,173.825,308.105,179.813,311.862,182.674C316.396,186.124,325.422,203.315,327.445,205.266C320.793,207.453,310.356,209.024,305.541,212.830C307.149,218.669,307.424,227.700,307.413,230.409C301.202,230.790,294.008,227.926,282.567,225.752C280.180,232.918,280.142,239.647,275.384,246.902C267.697,244.496,262.345,242.563,252.411,238.043C245.798,243.193,244.261,242.773,233.517,249.212C226.455,244.820,220.838,240.151,213.943,237.253C207.148,240.091,196.403,241.027,192.739,243.925C188.987,236.858,185.547,229.060,182.318,225.662C172.710,227.554,168.576,230.148,161.781,232.559C157.606,227.012,160.654,222.489,156.037,214.349C151.717,213.146,145.049,210.476,139.490,210.322C143.367,205.864,146.319,191.142,152.833,189.327C160.871,187.088,155.875,177.911,160.872,169.755C162.110,167.631,174.016,151.399,175.093,148.739C177.132,144.153,179.361,139.287,183.357,136.483M269.783,123.041C257.623,113.516,232.973,108.192,219.067,111.311C206.306,114.023,193.787,117.926,182.663,125.006C176.433,128.911,169.531,134.686,165.362,140.754C157.036,152.537,144.935,178.372,138.142,190.325C132.704,200.241,127.646,206.923,122.452,212.283C140.007,218.879,145.124,221.586,150.363,222.441C150.613,230.199,157.711,236.027,156.388,244.572C165.209,243.354,170.475,241.177,178.326,239.302C182.258,243.995,184.942,250.348,188.681,256.586C196.418,254.568,204.305,254.940,212.000,249.563C217.496,252.632,226.229,257.403,235.200,262.448C243.544,258.115,245.325,257.880,253.165,252.908C262.619,255.342,272.515,261.315,282.074,260.399C281.484,252.206,287.600,246.647,286.947,241.388C294.168,239.536,316.196,242.966,319.967,242.683C319.803,236.635,316.595,225.026,318.237,217.838C325.064,216.098,330.837,214.510,341.526,209.520C338.121,202.790,331.974,194.414,326.560,189.403C321.990,185.214,318.291,179.689,313.719,175.326C298.212,160.768,292.275,140.745,269.783,123.041Z"/>
<path class="path-11" d="M241.996,123.120C251.452,122.794,257.886,129.270,265.069,135.626"/>
<path class="path-11" d="M265.069,135.626C270.964,141.195,277.299,147.468,283.560,153.313"/>
<path class="path-11" d="M283.560,153.313C292.986,162.051,296.930,166.431,300.440,170.614"/>
<path class="path-11" d="M300.440,170.614C303.444,173.825,308.105,179.813,311.862,182.674"/>
<path class="path-11" d="M311.862,182.674C316.396,186.124,325.422,203.315,327.445,205.266"/>
<path class="path-11" d="M327.445,205.266C320.793,207.453,310.356,209.024,305.541,212.830"/>
<path class="path-11" d="M305.541,212.830C307.149,218.669,307.424,227.700,307.413,230.409"/>
<path class="path-11" d="M307.413,230.409C301.202,230.790,294.008,227.926,282.567,225.752"/>
<path class="path-11" d="M282.567,225.752C280.180,232.918,280.142,239.647,275.384,246.902"/>
<path class="path-11" d="M275.384,246.902C267.697,244.496,262.345,242.563,252.411,238.043"/>
<path class="path-11" d="M252.411,238.043C245.798,243.193,244.261,242.773,233.517,249.212"/>
<path class="path-11" d="M233.517,249.212C226.455,244.820,220.838,240.151,213.943,237.253"/>
<path class="path-11" d="M213.943,237.253C207.148,240.091,196.403,241.027,192.739,243.925"/>
<path class="path-11" d="M192.739,243.925C188.987,236.858,185.547,229.060,182.318,225.662"/>
<path class="path-11" d="M182.318,225.662C172.710,227.554,168.576,230.148,161.781,232.559"/>
<path class="path-11" d="M161.781,232.559C157.606,227.012,160.654,222.489,156.037,214.349"/>
<path class="path-11" d="M156.037,214.349C151.717,213.146,145.049,210.476,139.490,210.322"/>
<path class="path-11" d="M139.490,210.322C143.367,205.864,146.319,191.142,152.833,189.327"/>
<path class="path-11" d="M152.833,189.327C160.871,187.088,155.875,177.911,160.872,169.755"/>
<path class="path-11" d="M160.872,169.755C162.110,167.631,174.016,151.399,175.093,148.739"/>
<path class="path-11" d="M175.093,148.739C177.132,144.153,179.361,139.287,183.357,136.483"/>
<path class="path-11" d="M183.357,136.483C200.954,124.749,220.906,123.806,241.996,123.120"/>
<path class="path-12" d="M241.996,123.120C251.452,122.794,257.886,129.270,265.069,135.626C270.964,141.195,277.299,147.468,283.560,153.313C292.986,162.051,296.930,166.431,300.440,170.614C303.444,173.825,308.105,179.813,311.862,182.674C316.396,186.124,325.422,203.315,327.445,205.266C320.793,207.453,310.356,209.024,305.541,212.830C307.149,218.669,307.424,227.700,307.413,230.409C301.202,230.790,294.008,227.926,282.567,225.752C280.180,232.918,280.142,239.647,275.384,246.902C267.697,244.496,262.345,242.563,252.411,238.043C245.798,243.193,244.261,242.773,233.517,249.212C226.455,244.820,220.838,240.151,213.943,237.253C207.148,240.091,196.403,241.027,192.739,243.925C188.987,236.858,185.547,229.060,182.318,225.662C172.710,227.554,168.576,230.148,161.781,232.559C157.606,227.012,160.654,222.489,156.037,214.349C151.717,213.146,145.049,210.476,139.490,210.322C143.367,205.864,146.319,191.142,152.833,189.327C160.871,187.088,155.875,177.911,160.872,169.755C162.110,167.631,174.016,151.399,175.093,148.739C177.132,144.153,179.361,139.287,183.357,136.483C200.954,124.749,220.906,123.806,241.996,123.120Z"/>
</g>
<g id="clothes">
<path class="path-0" d="M243.659,369.981C238.998,367.902,221.050,359.678,218.175,364.126C215.742,368.150,220.371,369.050,224.430,369.581C228.025,370.051,246.182,378.217,248.649,376.634C253.207,373.634,245.912,370.870,243.659,369.981M191.093,266.179C194.088,253.538,221.037,240.563,234.012,241.561C242.994,242.226,271.274,256.199,275.266,264.517C278.592,271.170,279.590,295.789,279.924,304.107C280.257,319.412,281.070,334.757,282.253,350.019C283.832,362.560,286.813,374.879,289.573,387.214C290.133,393.516,293.674,410.308,287.710,413.897C279.992,419.055,261.399,405.487,253.973,401.253C227.586,387.148,229.712,385.028,201.674,383.887C198.243,383.617,187.111,386.612,184.772,385.285C180.778,382.368,182.444,376.634,183.442,371.977C186.436,360.333,189.762,352.680,191.427,340.038C193.423,324.069,194.088,306.768,194.088,290.134C193.755,284.145,190.429,269.839,191.093,266.179M269.943,247.549C253.640,237.899,237.670,229.915,218.042,235.573C212.718,236.902,186.103,249.877,183.773,253.205C180.115,258.529,183.773,278.821,183.773,286.141C184.107,294.791,184.440,303.773,183.773,312.092C183.442,318.413,182.111,324.069,182.111,330.057C181.777,336.710,182.444,344.030,180.780,350.019C177.454,361.663,163.299,383.737,176.456,393.270C181.696,397.096,190.237,395.263,197.016,396.264C207.914,397.660,219.533,399.978,230.019,403.783C240.343,407.855,247.896,417.735,258.698,420.816C266.969,423.176,294.615,428.220,300.484,421.283C304.448,416.807,299.865,390.408,298.688,383.754C295.718,370.645,293.004,357.395,291.567,344.031C290.618,332.087,289.239,320.410,289.904,308.100C290.237,298.119,291.900,288.471,291.900,278.157C291.567,273.831,292.234,268.510,289.904,264.184C285.912,256.199,277.263,251.873,269.943,247.549Z"/>
<path class="path-13" d="M243.659,369.981C238.998,367.902,221.050,359.678,218.175,364.126"/>
<path class="path-13" d="M218.175,364.126C215.742,368.150,220.371,369.050,224.430,369.581"/>
<path class="path-13" d="M224.430,369.581C228.025,370.051,246.182,378.217,248.649,376.634"/>
<path class="path-13" d="M248.649,376.634C253.207,373.634,245.912,370.870,243.659,369.981"/>
<path class="path-13" d="M191.093,266.179C194.088,253.538,221.037,240.563,234.012,241.561"/>
<path class="path-13" d="M234.012,241.561C242.994,242.226,271.274,256.199,275.266,264.517"/>
<path class="path-13" d="M275.266,264.517C278.592,271.170,279.590,295.789,279.924,304.107"/>
<path class="path-13" d="M279.924,304.107C280.257,319.412,281.070,334.757,282.253,350.019"/>
<path class="path-13" d="M282.253,350.019C283.832,362.560,286.813,374.879,289.573,387.214"/>
<path class="path-13" d="M289.573,387.214C290.133,393.516,293.674,410.308,287.710,413.897"/>
<path class="path-13" d="M287.710,413.897C279.992,419.055,261.399,405.487,253.973,401.253"/>
<path class="path-13" d="M253.973,401.253C227.586,387.148,229.712,385.028,201.674,383.887"/>
<path class="path-13" d="M201.674,383.887C198.243,383.617,187.111,386.612,184.772,385.285"/>
<path class="path-13" d="M184.772,385.285C180.778,382.368,182.444,376.634,183.442,371.977"/>
<path class="path-13" d="M183.442,371.977C186.436,360.333,189.762,352.680,191.427,340.038"/>
<path class="path-13" d="M191.427,340.038C193.423,324.069,194.088,306.768,194.088,290.134"/>
<path class="path-13" d="M194.088,290.134C193.755,284.145,190.429,269.839,191.093,266.179"/>
<path class="path-14" d="M243.659,369.981C238.998,367.902,221.050,359.678,218.175,364.126C215.742,368.150,220.371,369.050,224.430,369.581C228.025,370.051,246.182,378.217,248.649,376.634C253.207,373.634,245.912,370.870,243.659,369.981M191.093,266.179C194.088,253.538,221.037,240.563,234.012,241.561C242.994,242.226,271.274,256.199,275.266,264.517C278.592,271.170,279.590,295.789,279.924,304.107C280.257,319.412,281.070,334.757,282.253,350.019C283.832,362.560,286.813,374.879,289.573,387.214C290.133,393.516,293.674,410.308,287.710,413.897C279.992,419.055,261.399,405.487,253.973,401.253C227.586,387.148,229.712,385.028,201.674,383.887C198.243,383.617,187.111,386.612,184.772,385.285C180.778,382.368,182.444,376.634,183.442,371.977C186.436,360.333,189.762,352.680,191.427,340.038C193.423,324.069,194.088,306.768,194.088,290.134C193.755,284.145,190.429,269.839,191.093,266.179Z"/>
</g>
<g id="neck">
<path class="path-0" d="M229.021,222.597C229.354,219.269,230.353,216.275,234.012,215.942C245.656,213.946,244.657,251.542,234.012,251.542C224.031,251.542,228.356,228.917,229.021,222.597M234.012,206.628C231.351,206.295,228.357,206.959,226.027,208.291C216.711,212.948,218.042,221.599,218.042,230.248C217.708,234.574,218.042,238.567,216.046,242.226C214.383,245.553,209.724,248.879,209.724,252.540C210.057,262.521,237.006,262.521,243.993,262.188C246.653,262.187,255.636,263.185,256.634,259.526C256.634,258.528,249.981,246.883,248.983,242.226C245.989,228.252,255.305,207.626,234.012,206.628Z"/>
<path class="path-15" d="M234.012,215.942C245.656,213.946,244.657,251.542,234.012,251.542"/>
<path class="path-15" d="M234.012,251.542C224.031,251.542,228.356,228.917,229.021,222.597"/>
<path class="path-15" d="M229.021,222.597C229.354,219.269,230.353,216.275,234.012,215.942"/>
<path class="path-16" d="M234.012,215.942C245.656,213.946,244.657,251.542,234.012,251.542C224.031,251.542,228.356,228.917,229.021,222.597C229.354,219.269,230.353,216.275,234.012,215.942Z"/>
</g>
<g id="layer_head">
<g id="right_ear">
<path class="path-0" d="M145.530,194.366C135.249,196.403,119.720,160.229,134.227,163.625C139.424,164.828,142.271,174.004,143.402,177.908C145.097,183.367,152.685,192.995,145.530,194.366M140.771,151.563C137.382,149.685,133.278,148.741,129.809,150.465C120.349,153.414,117.555,165.412,119.177,175.238C121.346,187.540,132.092,203.125,143.311,206.115C146.527,206.990,153.193,209.261,156.381,207.768C162.876,204.223,158.209,194.099,156.491,188.553C154.541,181.737,146.073,155.816,140.771,151.563Z"/>
<path class="path-15" d="M134.227,163.625C139.424,164.828,142.271,174.004,143.402,177.908"/>
<path class="path-15" d="M143.402,177.908C145.097,183.367,152.685,192.995,145.530,194.366"/>
<path class="path-15" d="M145.530,194.366C135.249,196.403,119.720,160.229,134.227,163.625"/>
<path class="path-16" d="M134.227,163.625C139.424,164.828,142.271,174.004,143.402,177.908C145.097,183.367,152.685,192.995,145.530,194.366C135.249,196.403,119.720,160.229,134.227,163.625Z"/>
</g>
<g id="face_Mask">
<g id="face">
<path class="path-0" d="M157.670,105.321C166.156,94.872,198.925,87.687,212.565,85.691C227.870,83.695,243.506,86.024,258.477,90.681C263.801,92.346,271.582,94.183,276.109,98.001C283.507,104.289,286.950,115.719,289.500,124.692C291.494,131.078,295.395,139.320,294.226,145.533C289.147,172.530,283.177,184.644,278.145,192.349C271.641,202.307,259.536,206.717,248.984,211.984C231.813,220.251,214.000,224.925,204.642,224.345C192.537,223.594,166.787,215.166,158.664,206.873C151.566,199.353,151.669,189.057,149.678,179.356C147.574,170.496,144.945,156.969,143.976,148.099C142.932,136.917,150.685,113.843,157.670,105.321M280.127,90.326C266.611,77.994,230.242,75.294,212.608,77.938C204.288,78.928,196.302,79.587,188.649,81.578C182.989,83.240,177.994,85.898,172.667,87.561C161.021,91.885,156.209,90.447,148.379,101.211C142.756,108.746,134.913,138.386,134.941,147.630C135.084,154.660,138.145,171.361,139.404,179.451C140.780,188.652,142.498,201.250,147.160,208.920C151.077,215.158,156.302,219.801,165.542,224.395C177.698,230.439,191.935,234.396,205.839,235.853C214.702,237.334,232.141,232.743,255.305,220.761C266.755,214.655,278.172,207.721,285.641,196.056C293.605,183.617,301.030,166.552,305.828,145.276C310.417,124.921,288.393,97.705,280.127,90.326Z"/>
<path class="path-15" d="M212.565,85.691C227.870,83.695,243.506,86.024,258.477,90.681"/>
<path class="path-15" d="M258.477,90.681C263.801,92.346,271.582,94.183,276.109,98.001"/>
<path class="path-15" d="M276.109,98.001C283.507,104.289,286.950,115.719,289.500,124.692"/>
<path class="path-15" d="M289.500,124.692C291.494,131.078,295.395,139.320,294.226,145.533"/>
<path class="path-15" d="M294.226,145.533C289.147,172.530,283.177,184.644,278.145,192.349"/>
<path class="path-15" d="M278.145,192.349C271.641,202.307,259.536,206.717,248.984,211.984"/>
<path class="path-15" d="M248.984,211.984C231.813,220.251,214.000,224.925,204.642,224.345"/>
<path class="path-15" d="M204.642,224.345C192.537,223.594,166.787,215.166,158.664,206.873"/>
<path class="path-15" d="M158.664,206.873C151.566,199.353,151.669,189.057,149.678,179.356"/>
<path class="path-15" d="M149.678,179.356C147.574,170.496,144.945,156.969,143.976,148.099"/>
<path class="path-15" d="M143.976,148.099C142.932,136.917,150.685,113.843,157.670,105.321"/>
<path class="path-15" d="M157.670,105.321C166.156,94.872,198.925,87.687,212.565,85.691"/>
<path class="path-16" d="M212.565,85.691C227.870,83.695,243.506,86.024,258.477,90.681C263.801,92.346,271.582,94.183,276.109,98.001C283.507,104.289,286.950,115.719,289.500,124.692C291.494,131.078,295.395,139.320,294.226,145.533C289.147,172.530,283.177,184.644,278.145,192.349C271.641,202.307,259.536,206.717,248.984,211.984C231.813,220.251,214.000,224.925,204.642,224.345C192.537,223.594,166.787,215.166,158.664,206.873C151.566,199.353,151.669,189.057,149.678,179.356C147.574,170.496,144.945,156.969,143.976,148.099C142.932,136.917,150.685,113.843,157.670,105.321C166.156,94.872,198.925,87.687,212.565,85.691Z"/>
</g>
</g>
<mask id="mask_target" style="mask-type:alpha;">
<use xlink:href="#face_Mask"/>
</mask>
<g id="mouse">
<path class="path-0" d="M207.054,214.522C212.258,215.626,212.342,220.379,211.868,220.886C211.601,221.172,210.478,220.221,207.518,219.734C201.912,218.813,199.207,219.985,199.009,219.271C198.793,218.488,200.962,213.230,207.054,214.522Z"/>
</g>
<g id="layer_eyes_Mtarget" mask="url(#mask_target)">
<g id="eyes">
<mask style="mask-type:alpha;" id="f3906406-f197-4bf1-91d8-744c09cca836">
<use xlink:href="#cmn_f3906406-f197-4bf1-91d8-744c09cca836"/>
</mask>
<g id="cmn_f3906406-f197-4bf1-91d8-744c09cca836">
<path class="path-0" d="M174.811,175.459C177.274,184.340,171.651,192.028,165.908,192.079C160.713,192.048,157.447,186.028,155.880,180.729C154.753,177.413,151.201,161.683,155.390,164.294C157.764,165.774,174.092,172.868,174.811,175.459M182.458,178.805C182.972,177.224,183.623,174.841,183.021,173.292C182.459,171.845,180.752,169.940,179.181,169.823C175.101,169.429,162.149,161.270,157.112,159.101C153.627,157.649,143.826,151.583,140.849,154.435C136.003,158.965,142.708,162.742,145.008,171.701C148.266,184.396,160.597,200.079,169.131,198.727C178.628,197.223,180.232,185.642,182.458,178.805M225.910,189.988C218.503,189.774,208.428,184.157,208.830,172.618C208.943,169.379,222.262,164.781,228.240,161.847C234.544,158.754,246.534,152.508,249.750,152.622C253.243,153.166,251.731,156.203,251.813,165.861C251.891,174.928,238.908,190.365,225.910,189.988M258.867,172.180C262.780,160.398,262.345,144.064,260.033,142.952C254.800,140.435,241.000,149.876,232.985,153.202C223.295,157.224,207.799,165.889,201.137,167.648C198.958,168.308,196.968,168.769,196.603,170.303C195.931,173.128,201.116,175.360,202.961,177.602C205.970,181.260,207.686,187.342,212.609,190.101C223.074,196.401,230.677,195.188,242.698,191.032C249.847,188.577,256.659,178.828,258.867,172.180Z"/>
<path class="path-17" d="M249.750,152.622C253.243,153.166,251.731,156.203,251.813,165.861"/>
<path class="path-17" d="M251.813,165.861C251.891,174.928,238.908,190.365,225.910,189.988"/>
<path class="path-17" d="M225.910,189.988C218.503,189.774,208.428,184.157,208.830,172.618"/>
<path class="path-17" d="M208.830,172.618C208.943,169.379,222.262,164.781,228.240,161.847"/>
<path class="path-17" d="M228.240,161.847C234.544,158.754,246.534,152.508,249.750,152.622"/>
<path class="path-18" d="M249.750,152.622C253.243,153.166,251.731,156.203,251.813,165.861C251.891,174.928,238.908,190.365,225.910,189.988C218.503,189.774,208.428,184.157,208.830,172.618C208.943,169.379,222.262,164.781,228.240,161.847C234.544,158.754,246.534,152.508,249.750,152.622Z"/>
<path class="path-17" d="M155.390,164.294C157.764,165.774,174.092,172.868,174.811,175.459"/>
<path class="path-17" d="M174.811,175.459C177.274,184.340,171.651,192.028,165.908,192.079"/>
<path class="path-17" d="M165.908,192.079C160.713,192.048,157.447,186.028,155.880,180.729"/>
<path class="path-17" d="M155.880,180.729C154.753,177.413,151.201,161.683,155.390,164.294"/>
<path class="path-18" d="M155.390,164.294C157.764,165.774,174.092,172.868,174.811,175.459C177.274,184.340,171.651,192.028,165.908,192.079C160.713,192.048,157.447,186.028,155.880,180.729C154.753,177.413,151.201,161.683,155.390,164.294Z"/>
</g>
</g>
<g id="pupil">
<path class="path-0" d="M212.684,166.063C215.086,165.498,217.798,169.230,218.446,178.108C218.851,183.672,217.768,185.930,216.242,186.181C214.355,186.491,212.697,183.807,211.414,177.030C210.044,169.798,210.698,166.530,212.684,166.063Z" mask="url(#f3906406-f197-4bf1-91d8-744c09cca836)"/>
<path class="path-0" d="M170.224,168.875C172.565,168.320,174.397,172.307,175.631,181.186C176.311,186.081,176.110,188.176,174.840,188.557C173.318,189.014,171.598,186.854,169.891,181.186C167.524,173.324,168.080,169.383,170.224,168.875Z" mask="url(#f3906406-f197-4bf1-91d8-744c09cca836)"/>
</g>
</g>
<g id="hat">
<path class="path-0" d="M295.320,127.877C297.506,128.867,300.234,131.527,300.673,134.174C302.313,140.671,291.171,140.983,287.726,141.395C281.528,141.514,275.055,141.006,269.139,140.722C263.059,140.980,256.971,140.608,250.885,140.619C235.844,139.474,220.874,137.703,205.829,136.657C193.070,136.271,180.882,135.403,167.590,135.035C165.849,135.025,140.434,137.623,135.762,135.630C124.218,130.829,134.823,121.275,134.125,115.802C133.982,112.973,128.057,112.234,129.488,107.310C130.752,103.202,144.666,99.013,148.934,97.943C159.826,95.153,171.231,92.302,182.915,91.085C197.828,89.598,212.287,90.688,227.355,90.369C246.015,90.059,284.677,94.661,299.574,112.221C306.733,120.532,288.374,113.410,286.412,113.097C278.298,110.281,247.445,99.154,261.150,111.497C268.130,118.880,287.147,123.431,295.320,127.877M180.793,83.571C169.506,84.524,159.177,84.958,148.579,87.198C144.361,88.078,139.403,89.673,135.426,89.177C126.838,88.205,138.350,66.012,142.200,61.135C157.145,42.677,186.969,33.012,211.920,33.790C258.438,35.241,276.384,45.059,290.373,61.946C294.799,66.900,309.027,90.620,299.793,96.589C296.507,98.420,290.653,94.976,287.807,93.565C277.901,88.912,221.159,80.165,180.793,83.571M259.066,31.384C244.688,27.380,236.618,22.370,219.060,22.780C188.197,23.761,150.361,29.797,131.446,58.146C125.528,67.235,124.238,77.455,121.543,87.180C119.568,94.181,114.956,99.299,115.185,106.486C115.617,113.818,119.261,115.578,120.804,121.425C122.641,127.691,119.868,130.243,120.865,134.323C122.542,145.905,133.237,147.005,142.908,147.553C147.549,147.817,164.706,147.469,174.048,147.464C185.070,147.458,199.769,147.361,210.791,147.531C221.057,147.689,234.736,148.349,245.003,148.516C254.515,148.671,267.210,149.055,276.715,148.640C286.044,148.232,306.589,146.891,307.714,145.809C309.568,144.057,314.051,126.558,314.339,123.248C314.671,119.432,313.023,115.466,313.678,109.343C314.729,96.827,315.750,85.507,310.629,72.865C301.300,50.399,278.883,37.199,259.066,31.384Z"/>
<path class="path-19" d="M227.355,90.369C246.015,90.059,284.677,94.661,299.574,112.221"/>
<path class="path-19" d="M299.574,112.221C306.733,120.532,288.374,113.410,286.412,113.097"/>
<path class="path-19" d="M286.412,113.097C278.298,110.281,247.445,99.154,261.150,111.497"/>
<path class="path-19" d="M261.150,111.497C268.130,118.880,287.147,123.431,295.320,127.877"/>
<path class="path-19" d="M295.320,127.877C297.506,128.867,300.234,131.527,300.673,134.174"/>
<path class="path-19" d="M300.673,134.174C302.313,140.671,291.171,140.983,287.726,141.395"/>
<path class="path-19" d="M287.726,141.395C281.528,141.514,275.055,141.006,269.139,140.722"/>
<path class="path-19" d="M269.139,140.722C263.059,140.980,256.971,140.608,250.885,140.619"/>
<path class="path-19" d="M250.885,140.619C235.844,139.474,220.874,137.703,205.829,136.657"/>
<path class="path-19" d="M205.829,136.657C193.070,136.271,180.882,135.403,167.590,135.035"/>
<path class="path-19" d="M167.590,135.035C165.849,135.025,140.434,137.623,135.762,135.630"/>
<path class="path-19" d="M135.762,135.630C124.218,130.829,134.823,121.275,134.125,115.802"/>
<path class="path-19" d="M134.125,115.802C133.982,112.973,128.057,112.234,129.488,107.310"/>
<path class="path-19" d="M129.488,107.310C130.752,103.202,144.666,99.013,148.934,97.943"/>
<path class="path-19" d="M148.934,97.943C159.826,95.153,171.231,92.302,182.915,91.085"/>
<path class="path-19" d="M182.915,91.085C197.828,89.598,212.287,90.688,227.355,90.369"/>
<path class="path-20" d="M227.355,90.369C246.015,90.059,284.677,94.661,299.574,112.221C306.733,120.532,288.374,113.410,286.412,113.097C278.298,110.281,247.445,99.154,261.150,111.497C268.130,118.880,287.147,123.431,295.320,127.877C297.506,128.867,300.234,131.527,300.673,134.174C302.313,140.671,291.171,140.983,287.726,141.395C281.528,141.514,275.055,141.006,269.139,140.722C263.059,140.980,256.971,140.608,250.885,140.619C235.844,139.474,220.874,137.703,205.829,136.657C193.070,136.271,180.882,135.403,167.590,135.035C165.849,135.025,140.434,137.623,135.762,135.630C124.218,130.829,134.823,121.275,134.125,115.802C133.982,112.973,128.057,112.234,129.488,107.310C130.752,103.202,144.666,99.013,148.934,97.943C159.826,95.153,171.231,92.302,182.915,91.085C197.828,89.598,212.287,90.688,227.355,90.369Z"/>
<path class="path-9" d="M211.920,33.790C258.438,35.241,276.384,45.059,290.373,61.946"/>
<path class="path-9" d="M290.373,61.946C294.799,66.900,309.027,90.620,299.793,96.589"/>
<path class="path-9" d="M299.793,96.589C296.507,98.420,290.653,94.976,287.807,93.565"/>
<path class="path-9" d="M287.807,93.565C277.901,88.912,221.159,80.165,180.793,83.571"/>
<path class="path-9" d="M180.793,83.571C169.506,84.524,159.177,84.958,148.579,87.198"/>
<path class="path-9" d="M148.579,87.198C144.361,88.078,139.403,89.673,135.426,89.177"/>
<path class="path-9" d="M135.426,89.177C126.838,88.205,138.350,66.012,142.200,61.135"/>
<path class="path-9" d="M142.200,61.135C157.145,42.677,186.969,33.012,211.920,33.790"/>
<path class="path-10" d="M211.920,33.790C258.438,35.241,276.384,45.059,290.373,61.946C294.799,66.900,309.027,90.620,299.793,96.589C296.507,98.420,290.653,94.976,287.807,93.565C277.901,88.912,221.159,80.165,180.793,83.571C169.506,84.524,159.177,84.958,148.579,87.198C144.361,88.078,139.403,89.673,135.426,89.177C126.838,88.205,138.350,66.012,142.200,61.135C157.145,42.677,186.969,33.012,211.920,33.790Z"/>
</g>
<g id="left_ear">
<path class="path-0" d="M279.049,184.887C277.552,179.802,279.330,154.131,281.868,149.967C287.943,139.604,306.028,147.938,310.125,156.384C314.558,166.024,305.430,182.296,297.263,189.069C289.087,195.644,281.741,193.573,279.049,184.887M324.159,159.475C321.860,144.877,303.643,130.581,290.866,137.770C274.920,146.742,281.724,170.340,280.056,185.394C279.760,188.903,277.655,192.655,278.626,195.861C281.763,206.866,293.866,206.976,302.645,197.465C311.304,187.889,325.882,173.085,324.159,159.475Z"/>
<path class="path-15" d="M281.868,149.967C287.943,139.604,306.028,147.938,310.125,156.384"/>
<path class="path-15" d="M310.125,156.384C314.558,166.024,305.430,182.296,297.263,189.069"/>
<path class="path-15" d="M297.263,189.069C289.087,195.644,281.741,193.573,279.049,184.887"/>
<path class="path-15" d="M279.049,184.887C277.552,179.802,279.330,154.131,281.868,149.967"/>
<path class="path-16" d="M281.868,149.967C287.943,139.604,306.028,147.938,310.125,156.384C314.558,166.024,305.430,182.296,297.263,189.069C289.087,195.644,281.741,193.573,279.049,184.887C277.552,179.802,279.330,154.131,281.868,149.967Z"/>
</g>
<g id="earrings">
<path class="path-0" d="M301.672,206.351C292.899,210.391,291.049,191.880,294.538,192.176C299.445,193.799,307.270,202.560,301.672,206.351M311.249,197.891C304.609,198.398,301.416,189.395,300.832,185.590C308.370,187.134,317.903,192.579,311.249,197.891M321.751,194.322C319.152,186.180,306.918,181.634,299.046,178.352C296.074,177.113,287.931,187.621,287.621,190.994C286.620,195.057,289.435,216.961,303.178,214.010C308.879,212.521,323.840,200.868,321.751,194.322Z"/>
<path class="path-21" d="M300.832,185.590C308.370,187.134,317.903,192.579,311.249,197.891"/>
<path class="path-21" d="M311.249,197.891C304.609,198.398,301.416,189.395,300.832,185.590"/>
<path class="path-22" d="M300.832,185.590C308.370,187.134,317.903,192.579,311.249,197.891C304.609,198.398,301.416,189.395,300.832,185.590Z"/>
<path class="path-21" d="M294.538,192.176C299.445,193.799,307.270,202.560,301.672,206.351"/>
<path class="path-21" d="M301.672,206.351C292.899,210.391,291.049,191.880,294.538,192.176"/>
<path class="path-22" d="M294.538,192.176C299.445,193.799,307.270,202.560,301.672,206.351C292.899,210.391,291.049,191.880,294.538,192.176Z"/>
</g>
</g>
<g id="jacket">
<path class="path-0" d="M202.406,270.837C205.067,275.163,202.406,285.477,202.406,290.134C200.410,307.101,197.434,323.354,197.747,340.038C197.941,344.002,196.702,350.935,194.788,355.134C193.407,358.164,190.876,362.780,188.100,363.993C184.682,365.424,183.260,358.690,182.335,355.842C181.055,351.902,182.193,344.657,182.444,342.034C183.272,336.825,185.842,326.728,185.696,320.076C185.603,313.545,182.090,307.285,181.406,300.115C180.460,294.759,179.024,288.443,177.893,282.483C177.924,279.336,178.455,277.386,178.523,275.162C178.186,269.677,180.854,268.284,186.103,267.842C190.946,267.780,200.741,265.515,202.406,270.837M258.630,280.487C260.295,276.825,286.209,259.286,289.571,257.530C297.900,253.674,302.055,262.954,301.990,268.356C301.998,277.059,287.239,305.737,288.907,311.758C289.484,314.441,291.567,315.751,293.232,317.416C306.207,331.721,300.219,323.071,313.859,329.392C320.181,332.387,332.072,341.144,337.479,345.362C340.816,348.301,348.479,354.753,350.343,358.483C351.437,361.257,352.451,366.397,348.235,367.577C346.754,368.194,330.582,367.236,327.832,367.320C315.507,367.027,302.215,367.651,291.900,359.335C288.573,356.341,285.912,352.015,283.251,348.023C273.602,334.049,266.949,318.413,261.958,302.111C259.962,296.456,256.634,286.475,258.630,280.487M275.230,255.283C272.183,258.419,266.125,263.498,263.954,264.517C256.051,267.722,254.494,258.172,253.973,252.207C253.708,247.057,256.679,239.764,259.756,235.414C262.467,231.581,266.838,226.324,271.938,225.592C278.373,224.434,289.284,231.254,287.908,238.566C287.494,241.924,279.616,250.769,275.230,255.283M193.136,233.676C198.052,237.591,201.611,242.294,200.791,246.769C200.019,250.988,196.955,253.371,189.763,255.866C178.455,259.789,169.485,242.438,172.988,235.284C175.654,229.838,186.815,228.642,193.136,233.676M364.535,364.392C360.620,358.218,358.703,353.558,353.448,348.023C345.428,339.739,335.816,330.391,325.835,324.734C315.854,319.412,307.900,321.012,301.217,310.096C295.344,300.868,299.587,290.545,301.064,280.153C301.429,276.460,302.038,257.588,302.107,254.203C301.656,250.792,302.060,247.348,301.548,244.222C301.042,240.362,301.548,236.237,300.218,232.578C298.222,225.923,291.236,222.929,285.912,219.603C278.592,215.611,272.268,213.715,263.954,215.611C254.842,217.700,251.739,227.853,249.173,234.602C245.263,244.887,247.348,260.257,247.762,271.253C247.999,277.547,249.081,286.270,249.981,292.130C253.108,314.875,276.596,362.995,297.889,371.977C302.546,374.307,333.950,378.532,343.801,378.630C349.928,378.722,353.052,378.574,358.620,380.696C361.340,381.855,368.082,385.306,370.710,382.580C374.644,378.758,366.685,367.784,364.535,364.392M207.065,233.565C203.773,227.822,198.342,218.282,191.571,217.851C185.171,217.649,175.443,218.962,169.647,222.351C166.155,224.393,160.863,228.165,160.487,232.245C159.787,238.326,162.371,245.593,165.457,250.281C167.228,252.972,171.520,254.876,173.609,257.269C174.707,258.596,178.824,265.900,179.562,267.903C183.619,278.046,179.189,290.113,178.598,299.612C178.106,307.515,176.787,318.000,176.153,325.893C175.428,334.919,174.821,346.159,174.126,356.007C173.842,358.279,173.775,363.345,174.012,366.477C174.260,369.758,174.119,375.887,175.789,377.301C176.633,378.016,186.815,379.404,190.981,377.555C195.190,375.686,198.563,375.559,201.074,365.988C203.959,353.823,205.732,342.699,206.065,330.057C206.065,308.433,212.464,279.358,211.720,266.179C211.381,260.167,212.437,256.170,211.191,247.783C210.571,244.324,209.273,237.419,207.065,233.565Z"/>
<path class="path-1" d="M289.571,257.530C297.900,253.674,302.055,262.954,301.990,268.356"/>
<path class="path-1" d="M301.990,268.356C301.998,277.059,287.239,305.737,288.907,311.758"/>
<path class="path-1" d="M288.907,311.758C289.484,314.441,291.567,315.751,293.232,317.416"/>
<path class="path-1" d="M293.232,317.416C306.207,331.721,300.219,323.071,313.859,329.392"/>
<path class="path-1" d="M313.859,329.392C320.181,332.387,332.072,341.144,337.479,345.362"/>
<path class="path-1" d="M337.479,345.362C340.816,348.301,348.479,354.753,350.343,358.483"/>
<path class="path-1" d="M350.343,358.483C351.437,361.257,352.451,366.397,348.235,367.577"/>
<path class="path-1" d="M348.235,367.577C346.754,368.194,330.582,367.236,327.832,367.320"/>
<path class="path-1" d="M327.832,367.320C315.507,367.027,302.215,367.651,291.900,359.335"/>
<path class="path-1" d="M291.900,359.335C288.573,356.341,285.912,352.015,283.251,348.023"/>
<path class="path-1" d="M283.251,348.023C273.602,334.049,266.949,318.413,261.958,302.111"/>
<path class="path-1" d="M261.958,302.111C259.962,296.456,256.634,286.475,258.630,280.487"/>
<path class="path-1" d="M258.630,280.487C260.295,276.825,286.209,259.286,289.571,257.530"/>
<path class="path-2" d="M289.571,257.530C297.900,253.674,302.055,262.954,301.990,268.356C301.998,277.059,287.239,305.737,288.907,311.758C289.484,314.441,291.567,315.751,293.232,317.416C306.207,331.721,300.219,323.071,313.859,329.392C320.181,332.387,332.072,341.144,337.479,345.362C340.816,348.301,348.479,354.753,350.343,358.483C351.437,361.257,352.451,366.397,348.235,367.577C346.754,368.194,330.582,367.236,327.832,367.320C315.507,367.027,302.215,367.651,291.900,359.335C288.573,356.341,285.912,352.015,283.251,348.023C273.602,334.049,266.949,318.413,261.958,302.111C259.962,296.456,256.634,286.475,258.630,280.487C260.295,276.825,286.209,259.286,289.571,257.530Z"/>
<path class="path-1" d="M186.103,267.842C190.946,267.780,200.741,265.515,202.406,270.837"/>
<path class="path-1" d="M202.406,270.837C205.067,275.163,202.406,285.477,202.406,290.134"/>
<path class="path-1" d="M202.406,290.134C200.410,307.101,197.434,323.354,197.747,340.038"/>
<path class="path-1" d="M197.747,340.038C197.941,344.002,196.702,350.935,194.788,355.134"/>
<path class="path-1" d="M194.788,355.134C193.407,358.164,190.876,362.780,188.100,363.993"/>
<path class="path-1" d="M188.100,363.993C184.682,365.424,183.260,358.690,182.335,355.842"/>
<path class="path-1" d="M182.335,355.842C181.055,351.902,182.193,344.657,182.444,342.034"/>
<path class="path-1" d="M182.444,342.034C183.272,336.825,185.842,326.728,185.696,320.076"/>
<path class="path-1" d="M185.696,320.076C185.603,313.545,182.090,307.285,181.406,300.115"/>
<path class="path-1" d="M181.406,300.115C180.460,294.759,179.024,288.443,177.893,282.483"/>
<path class="path-1" d="M177.893,282.483C177.924,279.336,178.455,277.386,178.523,275.162"/>
<path class="path-1" d="M178.523,275.162C178.186,269.677,180.854,268.284,186.103,267.842"/>
<path class="path-2" d="M186.103,267.842C190.946,267.780,200.741,265.515,202.406,270.837C205.067,275.163,202.406,285.477,202.406,290.134C200.410,307.101,197.434,323.354,197.747,340.038C197.941,344.002,196.702,350.935,194.788,355.134C193.407,358.164,190.876,362.780,188.100,363.993C184.682,365.424,183.260,358.690,182.335,355.842C181.055,351.902,182.193,344.657,182.444,342.034C183.272,336.825,185.842,326.728,185.696,320.076C185.603,313.545,182.090,307.285,181.406,300.115C180.460,294.759,179.024,288.443,177.893,282.483C177.924,279.336,178.455,277.386,178.523,275.162C178.186,269.677,180.854,268.284,186.103,267.842Z"/>
<path class="path-1" d="M271.938,225.592C278.373,224.434,289.284,231.254,287.908,238.566"/>
<path class="path-1" d="M287.908,238.566C287.494,241.924,279.616,250.769,275.230,255.283"/>
<path class="path-1" d="M275.230,255.283C272.183,258.419,266.125,263.498,263.954,264.517"/>
<path class="path-1" d="M263.954,264.517C256.051,267.722,254.494,258.172,253.973,252.207"/>
<path class="path-1" d="M253.973,252.207C253.708,247.057,256.679,239.764,259.756,235.414"/>
<path class="path-1" d="M259.756,235.414C262.467,231.581,266.838,226.324,271.938,225.592"/>
<path class="path-2" d="M271.938,225.592C278.373,224.434,289.284,231.254,287.908,238.566C287.494,241.924,279.616,250.769,275.230,255.283C272.183,258.419,266.125,263.498,263.954,264.517C256.051,267.722,254.494,258.172,253.973,252.207C253.708,247.057,256.679,239.764,259.756,235.414C262.467,231.581,266.838,226.324,271.938,225.592Z"/>
<path class="path-1" d="M193.136,233.676C198.052,237.591,201.611,242.294,200.791,246.769"/>
<path class="path-1" d="M200.791,246.769C200.019,250.988,196.955,253.371,189.763,255.866"/>
<path class="path-1" d="M189.763,255.866C178.455,259.789,169.485,242.438,172.988,235.284"/>
<path class="path-1" d="M172.988,235.284C175.654,229.838,186.815,228.642,193.136,233.676"/>
<path class="path-2" d="M193.136,233.676C198.052,237.591,201.611,242.294,200.791,246.769C200.019,250.988,196.955,253.371,189.763,255.866C178.455,259.789,169.485,242.438,172.988,235.284C175.654,229.838,186.815,228.642,193.136,233.676Z"/>
</g>
<g id="left_arm">
<path class="path-0" d="M290.902,459.809C287.575,454.485,286.245,445.502,293.897,443.175C299.221,441.510,323.174,446.834,327.167,450.826C334.153,457.148,330.161,471.786,321.510,475.113C311.529,478.439,296.226,468.127,290.902,459.809M279.516,276.423C280.393,273.226,288.864,263.064,293.897,264.184C296.819,264.834,298.222,269.839,299.220,272.502C301.881,280.818,304.543,289.469,306.872,298.119C313.194,320.741,317.518,343.366,322.177,365.988C323.839,375.305,323.839,387.613,327.167,395.931C331.159,405.579,337.479,402.253,340.474,408.573C341.805,411.567,341.140,417.224,343.136,421.881C346.130,429.201,351.785,433.194,354.446,437.851C356.111,440.512,356.776,443.506,353.117,444.173C351.121,445.171,345.797,444.173,343.801,444.173C337.144,442.402,330.490,440.627,323.840,438.849C314.857,436.852,287.575,435.521,282.918,429.533C275.931,420.218,286.910,409.240,288.242,399.924C288.907,396.930,292.189,352.967,291.567,350.019C290.899,343.164,287.387,337.131,285.841,330.057C284.214,320.430,282.539,310.147,281.179,300.115C280.223,291.877,276.733,285.067,279.516,276.423M305.541,254.536C303.213,249.877,295.893,241.561,289.904,242.890C284.914,244.222,284.249,250.210,283.582,254.203C281.920,264.184,279.924,272.502,279.924,282.149C279.590,289.136,280.257,295.458,280.921,302.111C281.586,311.427,279.590,329.392,279.924,340.038C279.924,349.686,282.253,359.667,281.586,367.985C279.590,387.613,271.273,406.246,271.938,425.874C271.939,435.855,274.600,435.855,276.929,443.840C278.592,449.828,277.263,456.150,279.590,461.805C285.579,476.776,302.880,490.416,319.847,487.091C335.483,484.096,336.150,467.129,344.466,458.146C351.786,450.161,366.424,454.154,368.420,445.835C370.416,438.849,360.769,431.198,357.110,425.874C349.790,415.893,355.445,413.563,351.786,405.912C349.125,400.257,341.471,395.267,337.813,387.947C335.816,384.619,334.819,378.299,333.487,373.973C330.826,363.992,327.831,352.680,326.169,342.034C324.504,329.724,324.173,318.745,320.845,306.103C318.184,295.458,310.200,262.852,305.541,254.536Z"/>
<path class="path-1" d="M293.897,264.184C296.819,264.834,298.222,269.839,299.220,272.502"/>
<path class="path-1" d="M299.220,272.502C301.881,280.818,304.543,289.469,306.872,298.119"/>
<path class="path-1" d="M306.872,298.119C313.194,320.741,317.518,343.366,322.177,365.988"/>
<path class="path-1" d="M322.177,365.988C323.839,375.305,323.839,387.613,327.167,395.931"/>
<path class="path-1" d="M327.167,395.931C331.159,405.579,337.479,402.253,340.474,408.573"/>
<path class="path-1" d="M340.474,408.573C341.805,411.567,341.140,417.224,343.136,421.881"/>
<path class="path-1" d="M343.136,421.881C346.130,429.201,351.785,433.194,354.446,437.851"/>
<path class="path-1" d="M354.446,437.851C356.111,440.512,356.776,443.506,353.117,444.173"/>
<path class="path-1" d="M353.117,444.173C351.121,445.171,345.797,444.173,343.801,444.173"/>
<path class="path-1" d="M343.801,444.173C337.144,442.402,330.490,440.627,323.840,438.849"/>
<path class="path-1" d="M323.840,438.849C314.857,436.852,287.575,435.521,282.918,429.533"/>
<path class="path-1" d="M282.918,429.533C275.931,420.218,286.910,409.240,288.242,399.924"/>
<path class="path-1" d="M288.242,399.924C288.907,396.930,292.189,352.967,291.567,350.019"/>
<path class="path-1" d="M291.567,350.019C290.899,343.164,287.387,337.131,285.841,330.057"/>
<path class="path-1" d="M285.841,330.057C284.214,320.430,282.539,310.147,281.179,300.115"/>
<path class="path-1" d="M281.179,300.115C280.223,291.877,276.733,285.067,279.516,276.423"/>
<path class="path-1" d="M279.516,276.423C280.393,273.226,288.864,263.064,293.897,264.184"/>
<path class="path-2" d="M293.897,264.184C296.819,264.834,298.222,269.839,299.220,272.502C301.881,280.818,304.543,289.469,306.872,298.119C313.194,320.741,317.518,343.366,322.177,365.988C323.839,375.305,323.839,387.613,327.167,395.931C331.159,405.579,337.479,402.253,340.474,408.573C341.805,411.567,341.140,417.224,343.136,421.881C346.130,429.201,351.785,433.194,354.446,437.851C356.111,440.512,356.776,443.506,353.117,444.173C351.121,445.171,345.797,444.173,343.801,444.173C337.144,442.402,330.490,440.627,323.840,438.849C314.857,436.852,287.575,435.521,282.918,429.533C275.931,420.218,286.910,409.240,288.242,399.924C288.907,396.930,292.189,352.967,291.567,350.019C290.899,343.164,287.387,337.131,285.841,330.057C284.214,320.430,282.539,310.147,281.179,300.115C280.223,291.877,276.733,285.067,279.516,276.423C280.393,273.226,288.864,263.064,293.897,264.184Z"/>
<path class="path-15" d="M293.897,443.175C299.221,441.510,323.174,446.834,327.167,450.826"/>
<path class="path-15" d="M327.167,450.826C334.153,457.148,330.161,471.786,321.510,475.113"/>
<path class="path-15" d="M321.510,475.113C311.529,478.439,296.226,468.127,290.902,459.809"/>
<path class="path-15" d="M290.902,459.809C287.575,454.485,286.245,445.502,293.897,443.175"/>
<path class="path-16" d="M293.897,443.175C299.221,441.510,323.174,446.834,327.167,450.826C334.153,457.148,330.161,471.786,321.510,475.113C311.529,478.439,296.226,468.127,290.902,459.809C287.575,454.485,286.245,445.502,293.897,443.175Z"/>
</g>
<g id="bone">
<g id="bone1_clothes">
<path class="path-23" d="M233.970,386.544C233.971,386.538,239.535,327.812,239.536,327.806C239.536,327.812,245.102,386.538,245.102,386.544C245.101,386.544,233.971,386.544,233.970,386.544"/>
</g>
<g id="bone2_clothes">
<path class="path-23" d="M232.621,327.525C232.621,327.518,234.398,255.014,234.398,255.006C234.400,255.013,246.355,326.547,246.356,326.555C246.355,326.555,232.623,327.525,232.621,327.525"/>
</g>
<g id="bone3_neck">
<path class="path-23" d="M237.795,254.058C237.794,254.054,236.380,212.378,236.380,212.374C236.380,212.378,231.205,253.756,231.204,253.760C231.205,253.760,237.794,254.058,237.795,254.058"/>
</g>
<g id="bone4_head">
<path class="path-23" d="M230.484,213.354C230.483,213.346,223.440,135.601,223.439,135.593C223.441,135.600,242.767,211.234,242.769,211.241C242.768,211.242,230.485,213.354,230.484,213.354"/>
</g>
<g id="bone5_left_arm">
<path class="path-23" d="M298.384,256.673C298.385,256.682,306.170,348.821,306.171,348.830C306.168,348.821,282.838,259.346,282.836,259.337C282.837,259.336,298.382,256.673,298.384,256.673"/>
</g>
<g id="bone6_left_arm">
<path class="path-23" d="M300.946,349.637C300.947,349.644,313.356,412.161,313.357,412.167C313.357,412.161,311.320,348.457,311.320,348.450C311.319,348.450,300.947,349.637,300.946,349.637"/>
</g>
<g id="bone7_right_arm">
<path class="path-23" d="M169.070,269.906C169.069,269.918,152.611,384.239,152.609,384.250C152.612,384.239,186.902,273.947,186.905,273.936C186.903,273.936,169.072,269.907,169.070,269.906"/>
</g>
<g id="bone8_right_arm">
<path class="path-23" d="M157.570,380.715C157.572,380.721,171.382,438.619,171.383,438.625C171.380,438.620,146.221,384.676,146.219,384.670C146.220,384.670,157.569,380.715,157.570,380.715"/>
</g>
<g id="bone9_left_leg">
<path class="path-23" d="M272.120,386.228C272.120,386.238,271.625,487.902,271.625,487.912C271.623,487.902,253.833,387.806,253.831,387.796C253.833,387.796,272.118,386.228,272.120,386.228"/>
</g>
<g id="bone10_right_leg">
<path class="path-23" d="M209.482,385.056C209.481,385.066,204.099,488.681,204.098,488.692C204.100,488.682,224.862,387.025,224.864,387.014C224.863,387.014,209.483,385.056,209.482,385.056"/>
</g>
<g id="bone11_hair">
<path class="path-23" d="M234.615,157.251C234.616,157.259,239.846,237.273,239.846,237.281C239.844,237.273,220.059,159.568,220.057,159.560C220.059,159.560,234.614,157.252,234.615,157.251"/>
</g>
<g id="bone12_left_leg_S">
<path class="path-23" d="M442.356,216.721C442.355,216.714,436.392,144.616,436.391,144.609C436.390,144.616,430.427,216.714,430.426,216.721C430.428,216.721,442.354,216.721,442.356,216.721"/>
</g>
<g id="bone13_right_leg_S">
<path class="path-23" d="M501.544,216.706C501.544,216.699,495.580,144.601,495.580,144.594C495.579,144.601,489.616,216.699,489.615,216.706C489.616,216.706,501.543,216.706,501.544,216.706"/>
</g>
<g id="bone14_left_arm_S">
<path class="path-23" d="M557.459,215.989C557.458,215.981,551.495,143.884,551.494,143.876C551.494,143.884,545.530,215.981,545.530,215.989C545.531,215.989,557.458,215.989,557.459,215.989"/>
</g>
<g id="bone15_jacket_S">
<path class="path-23" d="M610.611,215.989C610.611,215.981,604.647,143.884,604.647,143.876C604.646,143.884,598.683,215.981,598.682,215.989C598.683,215.989,610.610,215.989,610.611,215.989"/>
</g>
<g id="bone16_pupils_S">
<path class="path-23" d="M442.232,337.358C442.231,337.351,436.268,265.253,436.267,265.246C436.267,265.253,430.303,337.351,430.303,337.358C430.304,337.358,442.231,337.358,442.232,337.358"/>
</g>
<g id="bone17_eyelids_S">
<path class="path-23" d="M502.309,337.358C502.308,337.351,496.345,265.253,496.344,265.246C496.344,265.253,490.380,337.351,490.380,337.358C490.381,337.358,502.308,337.358,502.309,337.358"/>
</g>
<g id="bone18_face_S">
<path class="path-23" d="M556.227,342.887C556.231,342.882,600.770,285.873,600.774,285.867C600.769,285.872,547.469,334.788,547.464,334.793C547.465,334.794,556.226,342.887,556.227,342.887"/>
</g>
</g>
</g>
<style>
.path-0{fill:#000000;fill-rule:evenodd;stroke:none;}
.path-1{fill:none;stroke:#a60d3f;stroke-width:1;stroke-linecap:butt;stroke-linejoin:round;}
.path-2{fill:#a60d3f;fill-rule:evenodd;stroke:none;}
.path-3{fill:none;stroke:#d88e4b;stroke-width:1;stroke-linecap:butt;stroke-linejoin:round;}
.path-4{fill:#d88e4b;fill-rule:evenodd;stroke:none;}
.path-5{fill:none;stroke:#6e2353;stroke-width:1;stroke-linecap:butt;stroke-linejoin:round;}
.path-6{fill:#6e2353;fill-rule:evenodd;stroke:none;}
.path-7{fill:none;stroke:#392966;stroke-width:1;stroke-linecap:butt;stroke-linejoin:round;}
.path-8{fill:#392966;fill-rule:evenodd;stroke:none;}
.path-9{fill:none;stroke:#cc9bc5;stroke-width:1;stroke-linecap:butt;stroke-linejoin:round;}
.path-10{fill:#cc9bc5;fill-rule:evenodd;stroke:none;}
.path-11{fill:none;stroke:#620527;stroke-width:1;stroke-linecap:butt;stroke-linejoin:round;}
.path-12{fill:#620527;fill-rule:evenodd;stroke:none;}
.path-13{fill:none;stroke:#6a3661;stroke-width:1;stroke-linecap:butt;stroke-linejoin:round;}
.path-14{fill:#6a3661;fill-rule:evenodd;stroke:none;}
.path-15{fill:none;stroke:#f8a087;stroke-width:1;stroke-linecap:butt;stroke-linejoin:round;}
.path-16{fill:#f8a087;fill-rule:evenodd;stroke:none;}
.path-17{fill:none;stroke:#ffffff;stroke-width:1;stroke-linecap:butt;stroke-linejoin:round;}
.path-18{fill:#ffffff;fill-rule:evenodd;stroke:none;}
.path-19{fill:none;stroke:#d89f4a;stroke-width:1;stroke-linecap:butt;stroke-linejoin:round;}
.path-20{fill:#d89f4a;fill-rule:evenodd;stroke:none;}
.path-21{fill:none;stroke:#fafd5b;stroke-width:1;stroke-linecap:butt;stroke-linejoin:round;}
.path-22{fill:#fafd5b;fill-rule:evenodd;stroke:none;}
.path-23{fill:none;stroke:#00ff42;stroke-width:8;stroke-linecap:round;stroke-linejoin:round;}
</style>
</svg>
