<svg version="1.1" id="Frame_40" xmlns="http://www.w3.org/2000/svg" xmlns:xlink="http://www.w3.org/1999/xlink" width="480px" height="720px">
<g id="main_bone">
<g id="right_arm">
<path class="path-0" d="M174.126,270.172C175.458,267.511,178.075,262.017,181.778,260.525C188.182,257.943,193.652,263.933,194.431,268.509C196.093,276.447,190.936,287.396,188.470,295.289C182.390,314.329,175.637,333.084,171.132,352.015C170.600,355.317,165.808,376.634,165.808,373.973C165.476,380.626,172.130,386.283,174.459,391.939C177.454,399.590,174.791,406.910,172.795,413.897C168.138,428.535,168.471,433.858,167.804,448.165C167.804,450.492,167.473,458.146,163.812,458.146C160.487,458.146,160.153,452.157,159.488,449.828C159.155,447.167,156.825,441.510,157.492,439.182C157.823,435.190,162.483,436.188,157.492,427.870C151.170,417.555,139.526,409.240,136.532,395.931C134.536,385.285,140.191,375.969,143.186,365.988C149.508,344.695,156.494,323.404,163.812,302.111C167.805,291.132,168.802,281.484,174.126,270.172M193.754,262.188C193.755,253.538,190.761,245.885,180.115,249.546C163.481,255.200,158.822,281.484,154.165,296.122C147.512,316.084,141.855,336.046,136.199,356.007C133.870,364.657,130.544,368.982,129.212,373.973C127.549,379.628,127.881,388.280,128.214,393.935C128.214,411.567,133.869,412.234,140.856,425.874C144.517,433.858,140.525,438.849,142.852,445.835C144.517,450.492,148.176,453.820,150.837,457.813C153.166,461.805,153.499,464.135,155.162,467.793C157.158,472.119,163.481,481.767,169.136,479.771C173.793,478.108,173.793,469.790,174.126,465.797C174.459,459.809,178.119,436.853,179.450,429.866C181.778,418.554,187.435,406.245,185.770,393.935C184.440,384.619,176.122,377.965,176.456,367.985C176.787,362.661,180.115,354.011,181.113,348.023C182.776,338.375,182.776,328.061,184.772,318.081C188.099,300.448,194.421,280.487,193.754,262.188Z"/>
<path class="path-1" d="M181.778,260.525C188.182,257.943,193.652,263.933,194.431,268.509"/>
<path class="path-1" d="M194.431,268.509C196.093,276.447,190.936,287.396,188.470,295.289"/>
<path class="path-1" d="M188.470,295.289C182.390,314.329,175.637,333.084,171.132,352.015"/>
<path class="path-1" d="M171.132,352.015C170.600,355.317,165.808,376.634,165.808,373.973"/>
<path class="path-1" d="M165.808,373.973C165.476,380.626,172.130,386.283,174.459,391.939"/>
<path class="path-1" d="M174.459,391.939C177.454,399.590,174.791,406.910,172.795,413.897"/>
<path class="path-1" d="M172.795,413.897C168.138,428.535,168.471,433.858,167.804,448.165"/>
<path class="path-1" d="M167.804,448.165C167.804,450.492,167.473,458.146,163.812,458.146"/>
<path class="path-1" d="M163.812,458.146C160.487,458.146,160.153,452.157,159.488,449.828"/>
<path class="path-1" d="M159.488,449.828C159.155,447.167,156.825,441.510,157.492,439.182"/>
<path class="path-1" d="M157.492,439.182C157.823,435.190,162.483,436.188,157.492,427.870"/>
<path class="path-1" d="M157.492,427.870C151.170,417.555,139.526,409.240,136.532,395.931"/>
<path class="path-1" d="M136.532,395.931C134.536,385.285,140.191,375.969,143.186,365.988"/>
<path class="path-1" d="M143.186,365.988C149.508,344.695,156.494,323.404,163.812,302.111"/>
<path class="path-1" d="M163.812,302.111C167.805,291.132,168.802,281.484,174.126,270.172"/>
<path class="path-1" d="M174.126,270.172C175.458,267.511,178.075,262.017,181.778,260.525"/>
<path class="path-2" d="M181.778,260.525C188.182,257.943,193.652,263.933,194.431,268.509C196.093,276.447,190.936,287.396,188.470,295.289C182.390,314.329,175.637,333.084,171.132,352.015C170.600,355.317,165.808,376.634,165.808,373.973C165.476,380.626,172.130,386.283,174.459,391.939C177.454,399.590,174.791,406.910,172.795,413.897C168.138,428.535,168.471,433.858,167.804,448.165C167.804,450.492,167.473,458.146,163.812,458.146C160.487,458.146,160.153,452.157,159.488,449.828C159.155,447.167,156.825,441.510,157.492,439.182C157.823,435.190,162.483,436.188,157.492,427.870C151.170,417.555,139.526,409.240,136.532,395.931C134.536,385.285,140.191,375.969,143.186,365.988C149.508,344.695,156.494,323.404,163.812,302.111C167.805,291.132,168.802,281.484,174.126,270.172C175.458,267.511,178.075,262.017,181.778,260.525Z"/>
</g>
<g id="layer_left_leg">
<g id="left_heel">
<path class="path-0" d="M241.518,540.379C233.533,530.065,248.838,508.107,259.817,506.445C273.790,504.115,278.447,528.403,276.784,533.393C274.455,539.715,265.472,543.374,259.817,544.372C255.160,545.037,244.181,544.038,241.518,540.379M282.440,505.780C276.785,498.460,261.813,498.127,253.828,500.790C224.219,509.773,220.227,565.666,261.813,554.020C269.133,552.023,284.104,546.368,287.430,539.381C290.757,533.726,288.761,527.404,287.430,521.416C286.100,516.759,285.434,509.772,282.440,505.780Z"/>
<path class="path-3" d="M259.817,506.445C273.790,504.115,278.447,528.403,276.784,533.393"/>
<path class="path-3" d="M276.784,533.393C274.455,539.715,265.472,543.374,259.817,544.372"/>
<path class="path-3" d="M259.817,544.372C255.160,545.037,244.181,544.038,241.518,540.379"/>
<path class="path-3" d="M241.518,540.379C233.533,530.065,248.838,508.107,259.817,506.445"/>
<path class="path-4" d="M259.817,506.445C273.790,504.115,278.447,528.403,276.784,533.393C274.455,539.715,265.472,543.374,259.817,544.372C255.160,545.037,244.181,544.038,241.518,540.379C233.533,530.065,248.838,508.107,259.817,506.445Z"/>
</g>
<g id="left_sole">
<path class="path-0" d="M257.321,566.838C248.680,566.033,241.880,550.932,245.082,558.290C246.931,562.539,253.949,564.902,257.250,566.534C257.831,566.851,270.873,570.725,272.306,570.948C277.344,572.394,292.816,571.082,293.332,569.811C293.436,569.553,282.542,570.133,279.084,570.525C272.587,571.796,264.143,570.423,257.250,566.534M249.757,553.059C252.290,553.611,258.468,557.547,260.053,559.500C264.905,565.476,278.513,566.435,286.350,563.950C287.355,563.659,287.531,561.303,293.292,560.004C296.468,559.288,277.887,565.891,273.807,564.263C265.158,562.479,246.570,552.364,249.757,553.059M289.502,550.438C287.774,549.716,275.130,539.923,265.197,540.532C257.155,541.074,237.685,546.780,236.375,557.272C235.876,561.345,242.071,571.889,245.323,574.256C256.684,583.176,286.528,577.070,292.166,574.584C294.152,573.708,302.742,555.972,289.502,550.438Z"/>
<path class="path-5" d="M245.082,558.290C246.931,562.539,253.949,564.902,257.250,566.534"/>
<path class="path-5" d="M257.250,566.534C264.143,570.423,272.587,571.796,279.084,570.525"/>
<path class="path-5" d="M279.084,570.525C282.542,570.133,293.436,569.553,293.332,569.811"/>
<path class="path-5" d="M293.332,569.811C292.816,571.082,277.344,572.394,272.306,570.948"/>
<path class="path-5" d="M272.306,570.948C270.873,570.725,257.831,566.851,257.321,566.838"/>
<path class="path-5" d="M257.321,566.838C248.680,566.033,241.880,550.932,245.082,558.290"/>
<path class="path-6" d="M245.082,558.290C246.931,562.539,253.949,564.902,257.250,566.534C264.143,570.423,272.587,571.796,279.084,570.525C282.542,570.133,293.436,569.553,293.332,569.811C292.816,571.082,277.344,572.394,272.306,570.948C270.873,570.725,257.831,566.851,257.321,566.838C248.680,566.033,241.880,550.932,245.082,558.290Z"/>
<path class="path-5" d="M260.053,559.500C264.905,565.476,278.513,566.435,286.350,563.950"/>
<path class="path-5" d="M286.350,563.950C287.355,563.659,287.531,561.303,293.292,560.004"/>
<path class="path-5" d="M293.292,560.004C296.468,559.288,277.887,565.891,273.807,564.263"/>
<path class="path-5" d="M273.807,564.263C265.158,562.479,246.570,552.364,249.757,553.059"/>
<path class="path-5" d="M249.757,553.059C252.290,553.611,258.468,557.547,260.053,559.500"/>
<path class="path-6" d="M260.053,559.500C264.905,565.476,278.513,566.435,286.350,563.950C287.355,563.659,287.531,561.303,293.292,560.004C296.468,559.288,277.887,565.891,273.807,564.263C265.158,562.479,246.570,552.364,249.757,553.059C252.290,553.611,258.468,557.547,260.053,559.500Z"/>
</g>
<g id="left_toe">
<path class="path-0" d="M258.126,584.295C226.852,581.301,240.161,534.725,268.107,537.052C281.747,538.384,284.741,550.361,286.072,561.339C287.070,566.330,288.402,570.655,286.072,575.312C281.415,582.964,266.111,584.960,258.126,584.295M289.400,537.718C282.744,530.732,265.112,528.402,256.129,530.398C231.842,536.054,231.511,553.355,232.176,573.317C232.176,578.307,232.175,582.964,235.169,586.956C241.823,595.275,266.110,596.606,276.091,594.610C283.411,592.613,292.394,588.621,296.053,581.301C300.710,572.319,296.053,545.036,289.400,537.718Z"/>
<path class="path-3" d="M268.107,537.052C281.747,538.384,284.741,550.361,286.072,561.339"/>
<path class="path-3" d="M286.072,561.339C287.070,566.330,288.402,570.655,286.072,575.312"/>
<path class="path-3" d="M286.072,575.312C281.415,582.964,266.111,584.960,258.126,584.295"/>
<path class="path-3" d="M258.126,584.295C226.852,581.301,240.161,534.725,268.107,537.052"/>
<path class="path-4" d="M268.107,537.052C281.747,538.384,284.741,550.361,286.072,561.339C287.070,566.330,288.402,570.655,286.072,575.312C281.415,582.964,266.111,584.960,258.126,584.295C226.852,581.301,240.161,534.725,268.107,537.052Z"/>
</g>
<g id="left_leg">
<path class="path-0" d="M235.675,412.234C234.345,405.912,248.958,405.447,253.973,404.581C258.830,403.982,269.813,404.158,273.735,407.244C287.676,417.477,289.133,465.739,288.678,482.369C287.911,496.046,288.722,508.965,287.451,522.132C286.756,527.885,285.914,533.832,284.532,539.343C283.512,544.277,277.990,550.688,281.309,554.086C282.723,556.157,286.003,554.805,288.318,555.016C292.344,555.638,292.369,552.247,295.152,553.055C305.260,556.328,285.946,578.034,276.701,580.793C269.430,583.230,254.064,580.633,248.421,575.594C246.693,574.051,244.672,572.271,243.430,570.368C226.079,542.307,242.298,492.494,246.474,465.369C248.001,455.453,254.050,476.681,259.886,473.927C268.827,469.654,250.854,434.267,245.324,425.874C242.570,422.345,236.341,416.558,235.675,412.234M283.383,396.777C277.489,392.180,260.813,393.743,253.973,394.933C247.340,396.061,224.695,395.598,221.701,400.589C216.711,408.907,230.949,422.443,233.678,429.866C234.868,433.914,231.905,454.142,231.530,459.809C231.438,472.396,230.470,483.160,230.019,495.740C228.781,521.000,218.103,545.517,224.600,569.599C229.627,587.721,243.394,598.758,265.798,595.556C287.560,592.788,296.037,590.767,304.647,568.684C309.881,555.743,309.808,553.287,306.331,541.804C305.001,537.470,300.161,534.592,298.658,529.972C292.079,511.891,300.191,491.531,298.811,472.228C297.539,454.210,298.392,408.539,283.383,396.777Z"/>
<path class="path-7" d="M253.973,404.581C258.830,403.982,269.813,404.158,273.735,407.244"/>
<path class="path-7" d="M273.735,407.244C287.676,417.477,289.133,465.739,288.678,482.369"/>
<path class="path-7" d="M288.678,482.369C287.911,496.046,288.722,508.965,287.451,522.132"/>
<path class="path-7" d="M287.451,522.132C286.756,527.885,285.914,533.832,284.532,539.343"/>
<path class="path-7" d="M284.532,539.343C283.512,544.277,277.990,550.688,281.309,554.086"/>
<path class="path-7" d="M281.309,554.086C282.723,556.157,286.003,554.805,288.318,555.016"/>
<path class="path-7" d="M288.318,555.016C292.344,555.638,292.369,552.247,295.152,553.055"/>
<path class="path-7" d="M295.152,553.055C305.260,556.328,285.946,578.034,276.701,580.793"/>
<path class="path-7" d="M276.701,580.793C269.430,583.230,254.064,580.633,248.421,575.594"/>
<path class="path-7" d="M248.421,575.594C246.693,574.051,244.672,572.271,243.430,570.368"/>
<path class="path-7" d="M243.430,570.368C226.079,542.307,242.298,492.494,246.474,465.369"/>
<path class="path-7" d="M246.474,465.369C248.001,455.453,254.050,476.681,259.886,473.927"/>
<path class="path-7" d="M259.886,473.927C268.827,469.654,250.854,434.267,245.324,425.874"/>
<path class="path-7" d="M245.324,425.874C242.570,422.345,236.341,416.558,235.675,412.234"/>
<path class="path-7" d="M235.675,412.234C234.345,405.912,248.958,405.447,253.973,404.581"/>
<path class="path-8" d="M253.973,404.581C258.830,403.982,269.813,404.158,273.735,407.244C287.676,417.477,289.133,465.739,288.678,482.369C287.911,496.046,288.722,508.965,287.451,522.132C286.756,527.885,285.914,533.832,284.532,539.343C283.512,544.277,277.990,550.688,281.309,554.086C282.723,556.157,286.003,554.805,288.318,555.016C292.344,555.638,292.369,552.247,295.152,553.055C305.260,556.328,285.946,578.034,276.701,580.793C269.430,583.230,254.064,580.633,248.421,575.594C246.693,574.051,244.672,572.271,243.430,570.368C226.079,542.307,242.298,492.494,246.474,465.369C248.001,455.453,254.050,476.681,259.886,473.927C268.827,469.654,250.854,434.267,245.324,425.874C242.570,422.345,236.341,416.558,235.675,412.234C234.345,405.912,248.958,405.447,253.973,404.581Z"/>
</g>
</g>
<g id="layer_right_leg">
<g id="right_heel">
<path class="path-0" d="M186.437,651.442C188.764,632.478,188.764,617.507,212.053,614.179C222.368,612.516,241.996,615.844,247.651,625.824C250.645,630.815,249.648,638.133,249.981,643.457C250.646,652.773,256.634,670.072,243.659,673.066C242.661,673.399,214.715,675.729,206.065,677.059C200.741,678.390,195.086,680.386,190.761,677.059C185.105,671.737,185.439,658.428,186.437,651.442M258.630,623.829C253.973,611.852,237.671,604.865,226.027,606.528C210.722,608.524,195.086,603.533,185.105,617.840C175.124,632.144,175.458,658.762,178.783,675.396C179.782,681.384,183.442,692.364,188.433,695.691C192.092,698.018,197.747,697.353,202.073,697.353C223.032,697.686,259.629,704.674,259.962,673.399C259.962,662.421,261.958,632.478,258.630,623.829Z"/>
<path class="path-3" d="M212.053,614.179C222.368,612.516,241.996,615.844,247.651,625.824"/>
<path class="path-3" d="M247.651,625.824C250.645,630.815,249.648,638.133,249.981,643.457"/>
<path class="path-3" d="M249.981,643.457C250.646,652.773,256.634,670.072,243.659,673.066"/>
<path class="path-3" d="M243.659,673.066C242.661,673.399,214.715,675.729,206.065,677.059"/>
<path class="path-3" d="M206.065,677.059C200.741,678.390,195.086,680.386,190.761,677.059"/>
<path class="path-3" d="M190.761,677.059C185.105,671.737,185.439,658.428,186.437,651.442"/>
<path class="path-3" d="M186.437,651.442C188.764,632.478,188.764,617.507,212.053,614.179"/>
<path class="path-4" d="M212.053,614.179C222.368,612.516,241.996,615.844,247.651,625.824C250.645,630.815,249.648,638.133,249.981,643.457C250.646,652.773,256.634,670.072,243.659,673.066C242.661,673.399,214.715,675.729,206.065,677.059C200.741,678.390,195.086,680.386,190.761,677.059C185.105,671.737,185.439,658.428,186.437,651.442C188.764,632.478,188.764,617.507,212.053,614.179Z"/>
</g>
<g id="right_leg">
<path class="path-0" d="M182.775,404.914C180.114,398.592,188.153,392.314,194.088,391.274C200.394,390.035,209.968,392.834,216.429,394.927C219.889,396.047,224.379,398.086,227.360,400.168C230.211,402.159,234.168,405.044,235.675,408.242C238.907,415.768,238.707,419.408,238.752,424.318C238.802,429.656,236.104,435.690,235.675,441.843C235.371,458.528,238.004,475.778,240.665,491.747C242.329,502.393,246.653,517.698,246.986,527.678C246.987,536.661,240.000,536.995,240.333,542.317C240.333,545.978,251.643,561.280,253.973,565.606C261.293,578.581,266.948,594.550,266.948,609.522C266.948,622.497,247.985,639.465,236.007,641.461C222.368,643.457,184.441,628.819,172.130,621.833C166.475,618.838,156.825,614.179,155.162,607.525C153.831,603.200,159.155,583.905,161.485,579.580C164.810,573.924,167.473,572.926,169.801,565.606C172.795,554.960,171.797,542.983,172.130,531.671C172.130,516.700,175.789,478.107,180.115,463.801C182.776,454.153,192.092,421.217,189.763,412.234C188.433,406.910,184.440,408.242,182.775,404.914M208.062,381.294C202.406,379.297,198.080,373.973,192.092,375.969C189.762,376.967,185.770,379.962,184.107,381.625C168.803,394.600,168.138,407.244,168.138,425.874C167.804,433.859,167.473,442.177,168.138,449.828C168.471,454.818,169.801,459.144,169.136,463.801C168.802,468.127,166.806,472.450,166.141,477.774C165.477,484.428,167.139,492.412,166.141,503.725C164.479,514.039,162.149,523.687,161.816,533.667C161.816,538.991,162.814,551.633,161.816,555.625C159.820,560.616,155.163,565.273,152.502,569.599C147.843,578.248,146.180,588.229,146.179,597.545C145.846,603.867,145.515,612.183,148.176,617.506C152.168,625.491,160.818,630.815,168.138,635.138C180.115,642.125,192.757,644.122,206.065,648.447C210.057,649.779,213.716,652.106,218.042,652.773C219.705,652.773,233.346,651.442,236.007,651.108C248.649,648.781,269.609,638.133,274.600,625.491C275.931,621.499,275.598,615.844,275.598,611.518C275.595,607.527,275.595,603.535,275.598,599.541C275.266,574.589,264.952,564.608,258.964,543.648C256.968,536.662,256.303,521.690,255.305,513.706C252.975,497.736,247.984,482.431,247.651,465.797C247.651,462.469,246.987,457.812,249.316,454.818C251.312,452.157,255.305,452.157,256.634,449.163C258.630,443.839,251.977,425.874,250.646,419.885C249.981,416.226,250.314,411.567,248.983,407.908C245.324,398.592,231.351,388.280,222.034,385.285C217.377,383.621,212.387,383.290,208.062,381.294Z"/>
<path class="path-7" d="M194.088,391.274C200.394,390.035,209.968,392.834,216.429,394.927"/>
<path class="path-7" d="M216.429,394.927C219.889,396.047,224.379,398.086,227.360,400.168"/>
<path class="path-7" d="M227.360,400.168C230.211,402.159,234.168,405.044,235.675,408.242"/>
<path class="path-7" d="M235.675,408.242C238.907,415.768,238.707,419.408,238.752,424.318"/>
<path class="path-7" d="M238.752,424.318C238.802,429.656,236.104,435.690,235.675,441.843"/>
<path class="path-7" d="M235.675,441.843C235.371,458.528,238.004,475.778,240.665,491.747"/>
<path class="path-7" d="M240.665,491.747C242.329,502.393,246.653,517.698,246.986,527.678"/>
<path class="path-7" d="M246.986,527.678C246.987,536.661,240.000,536.995,240.333,542.317"/>
<path class="path-7" d="M240.333,542.317C240.333,545.978,251.643,561.280,253.973,565.606"/>
<path class="path-7" d="M253.973,565.606C261.293,578.581,266.948,594.550,266.948,609.522"/>
<path class="path-7" d="M266.948,609.522C266.948,622.497,247.985,639.465,236.007,641.461"/>
<path class="path-7" d="M236.007,641.461C222.368,643.457,184.441,628.819,172.130,621.833"/>
<path class="path-7" d="M172.130,621.833C166.475,618.838,156.825,614.179,155.162,607.525"/>
<path class="path-7" d="M155.162,607.525C153.831,603.200,159.155,583.905,161.485,579.580"/>
<path class="path-7" d="M161.485,579.580C164.810,573.924,167.473,572.926,169.801,565.606"/>
<path class="path-7" d="M169.801,565.606C172.795,554.960,171.797,542.983,172.130,531.671"/>
<path class="path-7" d="M172.130,531.671C172.130,516.700,175.789,478.107,180.115,463.801"/>
<path class="path-7" d="M180.115,463.801C182.776,454.153,192.092,421.217,189.763,412.234"/>
<path class="path-7" d="M189.763,412.234C188.433,406.910,184.440,408.242,182.775,404.914"/>
<path class="path-7" d="M182.775,404.914C180.114,398.592,188.153,392.314,194.088,391.274"/>
<path class="path-8" d="M194.088,391.274C200.394,390.035,209.968,392.834,216.429,394.927C219.889,396.047,224.379,398.086,227.360,400.168C230.211,402.159,234.168,405.044,235.675,408.242C238.907,415.768,238.707,419.408,238.752,424.318C238.802,429.656,236.104,435.690,235.675,441.843C235.371,458.528,238.004,475.778,240.665,491.747C242.329,502.393,246.653,517.698,246.986,527.678C246.987,536.661,240.000,536.995,240.333,542.317C240.333,545.978,251.643,561.280,253.973,565.606C261.293,578.581,266.948,594.550,266.948,609.522C266.948,622.497,247.985,639.465,236.007,641.461C222.368,643.457,184.441,628.819,172.130,621.833C166.475,618.838,156.825,614.179,155.162,607.525C153.831,603.200,159.155,583.905,161.485,579.580C164.810,573.924,167.473,572.926,169.801,565.606C172.795,554.960,171.797,542.983,172.130,531.671C172.130,516.700,175.789,478.107,180.115,463.801C182.776,454.153,192.092,421.217,189.763,412.234C188.433,406.910,184.440,408.242,182.775,404.914C180.114,398.592,188.153,392.314,194.088,391.274Z"/>
</g>
<g id="right_toe">
<path class="path-0" d="M153.831,633.476C155.163,615.177,160.153,591.223,182.111,586.566C187.101,585.235,194.421,586.900,200.076,587.898C230.684,593.220,240.000,602.202,241.996,633.476C242.330,641.128,244.326,650.110,239.667,657.097C234.011,665.415,202.072,671.403,192.092,671.403C176.787,671.736,164.810,670.072,156.160,655.434C151.170,646.784,153.167,642.792,153.831,633.476M249.648,603.867C240.665,585.901,198.745,574.256,180.115,578.581C152.169,585.235,147.843,609.522,145.847,633.476C145.182,640.796,142.521,648.781,145.847,655.434C147.843,659.426,152.833,664.417,156.160,667.411C171.465,682.383,182.111,679.721,202.073,679.388C214.050,679.388,234.012,678.723,243.659,670.738C250.979,664.083,251.644,656.765,251.977,647.449C251.977,638.466,253.309,610.520,249.648,603.867Z"/>
<path class="path-3" d="M182.111,586.566C187.101,585.235,194.421,586.900,200.076,587.898"/>
<path class="path-3" d="M200.076,587.898C230.684,593.220,240.000,602.202,241.996,633.476"/>
<path class="path-3" d="M241.996,633.476C242.330,641.128,244.326,650.110,239.667,657.097"/>
<path class="path-3" d="M239.667,657.097C234.011,665.415,202.072,671.403,192.092,671.403"/>
<path class="path-3" d="M192.092,671.403C176.787,671.736,164.810,670.072,156.160,655.434"/>
<path class="path-3" d="M156.160,655.434C151.170,646.784,153.167,642.792,153.831,633.476"/>
<path class="path-3" d="M153.831,633.476C155.163,615.177,160.153,591.223,182.111,586.566"/>
<path class="path-4" d="M182.111,586.566C187.101,585.235,194.421,586.900,200.076,587.898C230.684,593.220,240.000,602.202,241.996,633.476C242.330,641.128,244.326,650.110,239.667,657.097C234.011,665.415,202.072,671.403,192.092,671.403C176.787,671.736,164.810,670.072,156.160,655.434C151.170,646.784,153.167,642.792,153.831,633.476C155.163,615.177,160.153,591.223,182.111,586.566Z"/>
</g>
<g id="right_sole">
<path class="path-0" d="M182.775,670.405C187.671,670.817,198.802,669.557,204.069,670.405C209.332,671.549,214.496,672.321,218.910,673.225C221.944,674.106,232.740,677.014,228.687,681.717C226.919,683.918,220.705,683.697,218.042,683.380C215.051,683.399,187.146,680.704,186.103,680.833C180.439,681.143,177.856,679.365,177.371,676.479C176.966,674.073,178.422,670.020,182.775,670.405M236.596,663.625C237.999,665.591,241.830,669.709,238.668,671.403C234.814,673.489,217.922,667.360,212.705,664.576C208.370,663.169,203.313,662.477,199.212,662.243C191.847,661.823,181.951,662.996,174.682,663.992C172.395,663.907,170.879,664.840,169.980,663.972C169.521,663.528,169.308,659.649,170.864,657.680C176.686,650.314,193.007,652.864,202.629,653.143C210.387,653.368,220.416,655.696,228.023,658.095C229.286,658.529,234.817,661.134,236.596,663.625M241.663,658.428C224.994,647.721,211.565,642.999,192.092,644.455C183.648,645.136,165.013,648.728,159.707,657.797C158.250,660.288,158.661,664.464,159.452,667.411C159.928,669.171,160.746,673.411,162.282,675.458C166.077,680.518,176.001,685.098,180.115,686.708C195.403,693.340,217.500,689.245,234.012,690.700C242.178,691.316,241.940,685.196,243.429,681.549C246.059,675.108,253.283,665.684,241.663,658.428Z"/>
<path class="path-5" d="M182.775,670.405C187.671,670.817,198.802,669.557,204.069,670.405"/>
<path class="path-5" d="M204.069,670.405C209.332,671.549,214.496,672.321,218.910,673.225"/>
<path class="path-5" d="M218.910,673.225C221.944,674.106,232.740,677.014,228.687,681.717"/>
<path class="path-5" d="M228.687,681.717C226.919,683.918,220.705,683.697,218.042,683.380"/>
<path class="path-5" d="M218.042,683.380C215.051,683.399,187.146,680.704,186.103,680.833"/>
<path class="path-5" d="M186.103,680.833C180.439,681.143,177.856,679.365,177.371,676.479"/>
<path class="path-5" d="M177.371,676.479C176.966,674.073,178.422,670.020,182.775,670.405"/>
<path class="path-6" d="M182.775,670.405C187.671,670.817,198.802,669.557,204.069,670.405C209.332,671.549,214.496,672.321,218.910,673.225C221.944,674.106,232.740,677.014,228.687,681.717C226.919,683.918,220.705,683.697,218.042,683.380C215.051,683.399,187.146,680.704,186.103,680.833C180.439,681.143,177.856,679.365,177.371,676.479C176.966,674.073,178.422,670.020,182.775,670.405Z"/>
<path class="path-5" d="M170.864,657.680C176.686,650.314,193.007,652.864,202.629,653.143"/>
<path class="path-5" d="M202.629,653.143C210.387,653.368,220.416,655.696,228.023,658.095"/>
<path class="path-5" d="M228.023,658.095C229.286,658.529,234.817,661.134,236.596,663.625"/>
<path class="path-5" d="M236.596,663.625C237.999,665.591,241.830,669.709,238.668,671.403"/>
<path class="path-5" d="M238.668,671.403C234.814,673.489,217.922,667.360,212.705,664.576"/>
<path class="path-5" d="M212.705,664.576C208.370,663.169,203.313,662.477,199.212,662.243"/>
<path class="path-5" d="M199.212,662.243C191.847,661.823,181.951,662.996,174.682,663.992"/>
<path class="path-5" d="M174.682,663.992C172.395,663.907,170.879,664.840,169.980,663.972"/>
<path class="path-5" d="M169.980,663.972C169.521,663.528,169.308,659.649,170.864,657.680"/>
<path class="path-6" d="M170.864,657.680C176.686,650.314,193.007,652.864,202.629,653.143C210.387,653.368,220.416,655.696,228.023,658.095C229.286,658.529,234.817,661.134,236.596,663.625C237.999,665.591,241.830,669.709,238.668,671.403C234.814,673.489,217.922,667.360,212.705,664.576C208.370,663.169,203.313,662.477,199.212,662.243C191.847,661.823,181.951,662.996,174.682,663.992C172.395,663.907,170.879,664.840,169.980,663.972C169.521,663.528,169.308,659.649,170.864,657.680Z"/>
</g>
</g>
<g id="hat_brim">
<path class="path-0" d="M286.204,145.915C289.863,139.927,298.846,123.624,306.831,123.624C312.155,123.624,323.134,133.274,328.789,136.268C333.779,139.262,339.103,141.924,344.759,144.585C347.971,146.254,351.187,147.917,354.406,149.575C368.713,156.895,364.720,163.217,356.402,161.885C337.772,158.557,334.777,159.889,316.812,150.573C314.482,149.575,308.494,146.249,307.496,150.573C306.166,155.563,315.149,159.889,318.808,161.552C325.461,165.213,332.781,169.205,340.766,169.870C343.095,170.203,351.080,169.536,352.410,171.866C354.406,175.193,344.758,183.843,342.762,185.839C339.435,188.834,336.109,191.828,332.781,194.157C327.791,197.483,322.467,200.477,316.812,201.475C306.166,202.806,272.896,187.502,271.898,175.858C271.233,169.205,282.212,152.237,286.204,145.915M318.808,119.301C313.818,114.975,310.158,108.653,302.838,111.981C297.515,114.310,291.860,121.962,288.201,125.954C274.559,142.588,262.251,162.218,262.915,183.843C263.249,197.483,267.906,197.151,278.884,202.473C295.519,210.791,316.812,213.452,334.778,205.136C346.421,199.813,366.717,181.847,372.040,169.870C373.703,165.878,376.697,156.895,374.367,152.238C371.706,146.581,349.415,136.933,342.762,133.274C334.778,128.948,325.795,124.956,318.808,119.301Z"/>
<path class="path-9" d="M306.831,123.624C312.155,123.624,323.134,133.274,328.789,136.268"/>
<path class="path-9" d="M328.789,136.268C333.779,139.262,339.103,141.924,344.759,144.585"/>
<path class="path-9" d="M344.759,144.585C347.971,146.254,351.187,147.917,354.406,149.575"/>
<path class="path-9" d="M354.406,149.575C368.713,156.895,364.720,163.217,356.402,161.885"/>
<path class="path-9" d="M356.402,161.885C337.772,158.557,334.777,159.889,316.812,150.573"/>
<path class="path-9" d="M316.812,150.573C314.482,149.575,308.494,146.249,307.496,150.573"/>
<path class="path-9" d="M307.496,150.573C306.166,155.563,315.149,159.889,318.808,161.552"/>
<path class="path-9" d="M318.808,161.552C325.461,165.213,332.781,169.205,340.766,169.870"/>
<path class="path-9" d="M340.766,169.870C343.095,170.203,351.080,169.536,352.410,171.866"/>
<path class="path-9" d="M352.410,171.866C354.406,175.193,344.758,183.843,342.762,185.839"/>
<path class="path-9" d="M342.762,185.839C339.435,188.834,336.109,191.828,332.781,194.157"/>
<path class="path-9" d="M332.781,194.157C327.791,197.483,322.467,200.477,316.812,201.475"/>
<path class="path-9" d="M316.812,201.475C306.166,202.806,272.896,187.502,271.898,175.858"/>
<path class="path-9" d="M271.898,175.858C271.233,169.205,282.212,152.237,286.204,145.915"/>
<path class="path-9" d="M286.204,145.915C289.863,139.927,298.846,123.624,306.831,123.624"/>
<path class="path-10" d="M306.831,123.624C312.155,123.624,323.134,133.274,328.789,136.268C333.779,139.262,339.103,141.924,344.759,144.585C347.971,146.254,351.187,147.917,354.406,149.575C368.713,156.895,364.720,163.217,356.402,161.885C337.772,158.557,334.777,159.889,316.812,150.573C314.482,149.575,308.494,146.249,307.496,150.573C306.166,155.563,315.149,159.889,318.808,161.552C325.461,165.213,332.781,169.205,340.766,169.870C343.095,170.203,351.080,169.536,352.410,171.866C354.406,175.193,344.758,183.843,342.762,185.839C339.435,188.834,336.109,191.828,332.781,194.157C327.791,197.483,322.467,200.477,316.812,201.475C306.166,202.806,272.896,187.502,271.898,175.858C271.233,169.205,282.212,152.237,286.204,145.915C289.863,139.927,298.846,123.624,306.831,123.624Z"/>
</g>
<g id="hair">
<path class="path-0" d="M183.357,136.483C200.954,124.749,220.906,123.806,241.996,123.120C251.452,122.794,257.886,129.270,265.069,135.626C270.964,141.195,277.299,147.468,283.560,153.313C292.986,162.051,296.930,166.431,300.440,170.614C303.444,173.825,308.105,179.813,311.862,182.674C316.396,186.124,325.422,203.315,327.445,205.266C320.793,207.453,310.356,209.024,305.541,212.830C307.149,218.669,307.424,227.700,307.413,230.409C301.202,230.790,294.008,227.926,282.567,225.752C280.180,232.918,280.142,239.647,275.384,246.902C267.697,244.496,262.345,242.563,252.411,238.043C245.798,243.193,244.261,242.773,233.517,249.212C226.455,244.820,220.838,240.151,213.943,237.253C207.148,240.091,196.403,241.027,192.739,243.925C188.987,236.858,185.547,229.060,182.318,225.662C172.710,227.554,168.576,230.148,161.781,232.559C157.606,227.012,160.654,222.489,156.037,214.349C151.717,213.146,145.049,210.476,139.490,210.322C143.367,205.864,146.319,191.142,152.833,189.327C160.871,187.088,155.875,177.911,160.872,169.755C162.110,167.631,174.016,151.399,175.093,148.739C177.132,144.153,179.361,139.287,183.357,136.483M269.783,123.041C257.623,113.516,232.973,108.192,219.067,111.311C206.306,114.023,193.787,117.926,182.663,125.006C176.433,128.911,169.531,134.686,165.362,140.754C157.036,152.537,144.935,178.372,138.142,190.325C132.704,200.241,127.646,206.923,122.452,212.283C140.007,218.879,145.124,221.586,150.363,222.441C150.613,230.199,157.711,236.027,156.388,244.572C165.209,243.354,170.475,241.177,178.326,239.302C182.258,243.995,184.942,250.348,188.681,256.586C196.418,254.568,204.305,254.940,212.000,249.563C217.496,252.632,226.229,257.403,235.200,262.448C243.544,258.115,245.325,257.880,253.165,252.908C262.619,255.342,272.515,261.315,282.074,260.399C281.484,252.206,287.600,246.647,286.947,241.388C294.168,239.536,316.196,242.966,319.967,242.683C319.803,236.635,316.595,225.026,318.237,217.838C325.064,216.098,330.837,214.510,341.526,209.520C338.121,202.790,331.974,194.414,326.560,189.403C321.990,185.214,318.291,179.689,313.719,175.326C298.212,160.768,292.275,140.745,269.783,123.041Z"/>
<path class="path-11" d="M241.996,123.120C251.452,122.794,257.886,129.270,265.069,135.626"/>
<path class="path-11" d="M265.069,135.626C270.964,141.195,277.299,147.468,283.560,153.313"/>
<path class="path-11" d="M283.560,153.313C292.986,162.051,296.930,166.431,300.440,170.614"/>
<path class="path-11" d="M300.440,170.614C303.444,173.825,308.105,179.813,311.862,182.674"/>
<path class="path-11" d="M311.862,182.674C316.396,186.124,325.422,203.315,327.445,205.266"/>
<path class="path-11" d="M327.445,205.266C320.793,207.453,310.356,209.024,305.541,212.830"/>
<path class="path-11" d="M305.541,212.830C307.149,218.669,307.424,227.700,307.413,230.409"/>
<path class="path-11" d="M307.413,230.409C301.202,230.790,294.008,227.926,282.567,225.752"/>
<path class="path-11" d="M282.567,225.752C280.180,232.918,280.142,239.647,275.384,246.902"/>
<path class="path-11" d="M275.384,246.902C267.697,244.496,262.345,242.563,252.411,238.043"/>
<path class="path-11" d="M252.411,238.043C245.798,243.193,244.261,242.773,233.517,249.212"/>
<path class="path-11" d="M233.517,249.212C226.455,244.820,220.838,240.151,213.943,237.253"/>
<path class="path-11" d="M213.943,237.253C207.148,240.091,196.403,241.027,192.739,243.925"/>
<path class="path-11" d="M192.739,243.925C188.987,236.858,185.547,229.060,182.318,225.662"/>
<path class="path-11" d="M182.318,225.662C172.710,227.554,168.576,230.148,161.781,232.559"/>
<path class="path-11" d="M161.781,232.559C157.606,227.012,160.654,222.489,156.037,214.349"/>
<path class="path-11" d="M156.037,214.349C151.717,213.146,145.049,210.476,139.490,210.322"/>
<path class="path-11" d="M139.490,210.322C143.367,205.864,146.319,191.142,152.833,189.327"/>
<path class="path-11" d="M152.833,189.327C160.871,187.088,155.875,177.911,160.872,169.755"/>
<path class="path-11" d="M160.872,169.755C162.110,167.631,174.016,151.399,175.093,148.739"/>
<path class="path-11" d="M175.093,148.739C177.132,144.153,179.361,139.287,183.357,136.483"/>
<path class="path-11" d="M183.357,136.483C200.954,124.749,220.906,123.806,241.996,123.120"/>
<path class="path-12" d="M241.996,123.120C251.452,122.794,257.886,129.270,265.069,135.626C270.964,141.195,277.299,147.468,283.560,153.313C292.986,162.051,296.930,166.431,300.440,170.614C303.444,173.825,308.105,179.813,311.862,182.674C316.396,186.124,325.422,203.315,327.445,205.266C320.793,207.453,310.356,209.024,305.541,212.830C307.149,218.669,307.424,227.700,307.413,230.409C301.202,230.790,294.008,227.926,282.567,225.752C280.180,232.918,280.142,239.647,275.384,246.902C267.697,244.496,262.345,242.563,252.411,238.043C245.798,243.193,244.261,242.773,233.517,249.212C226.455,244.820,220.838,240.151,213.943,237.253C207.148,240.091,196.403,241.027,192.739,243.925C188.987,236.858,185.547,229.060,182.318,225.662C172.710,227.554,168.576,230.148,161.781,232.559C157.606,227.012,160.654,222.489,156.037,214.349C151.717,213.146,145.049,210.476,139.490,210.322C143.367,205.864,146.319,191.142,152.833,189.327C160.871,187.088,155.875,177.911,160.872,169.755C162.110,167.631,174.016,151.399,175.093,148.739C177.132,144.153,179.361,139.287,183.357,136.483C200.954,124.749,220.906,123.806,241.996,123.120Z"/>
</g>
<g id="clothes">
<path class="path-0" d="M243.659,369.981C238.998,367.902,221.050,359.678,218.175,364.126C215.742,368.150,220.371,369.050,224.430,369.581C228.025,370.051,246.182,378.217,248.649,376.634C253.207,373.634,245.912,370.870,243.659,369.981M191.093,266.179C194.088,253.538,221.037,240.563,234.012,241.561C242.994,242.226,271.274,256.199,275.266,264.517C278.592,271.170,279.590,295.789,279.924,304.107C280.257,319.412,281.070,334.757,282.253,350.019C283.832,362.560,286.813,374.879,289.573,387.214C290.133,393.516,293.674,410.308,287.710,413.897C279.992,419.055,261.399,405.487,253.973,401.253C227.586,387.148,229.712,385.028,201.674,383.887C198.243,383.617,187.111,386.612,184.772,385.285C180.778,382.368,182.444,376.634,183.442,371.977C186.436,360.333,189.762,352.680,191.427,340.038C193.423,324.069,194.088,306.768,194.088,290.134C193.755,284.145,190.429,269.839,191.093,266.179M269.943,247.549C253.640,237.899,237.670,229.915,218.042,235.573C212.718,236.902,186.103,249.877,183.773,253.205C180.115,258.529,183.773,278.821,183.773,286.141C184.107,294.791,184.440,303.774,183.773,312.092C183.442,318.413,182.111,324.069,182.111,330.057C181.777,336.710,182.444,344.030,180.780,350.019C177.454,361.663,163.299,383.737,176.456,393.270C181.696,397.096,190.237,395.263,197.016,396.264C207.914,397.660,219.533,399.978,230.019,403.783C240.343,407.855,247.896,417.735,258.698,420.816C266.969,423.176,294.615,428.220,300.484,421.283C304.448,416.807,299.865,390.408,298.688,383.754C295.718,370.645,293.004,357.395,291.567,344.031C290.618,332.087,289.239,320.410,289.904,308.100C290.237,298.119,291.900,288.471,291.900,278.157C291.567,273.831,292.234,268.510,289.904,264.184C285.912,256.199,277.263,251.873,269.943,247.549Z"/>
<path class="path-13" d="M243.659,369.981C238.998,367.902,221.050,359.678,218.175,364.126"/>
<path class="path-13" d="M218.175,364.126C215.742,368.150,220.371,369.050,224.430,369.581"/>
<path class="path-13" d="M224.430,369.581C228.025,370.051,246.182,378.217,248.649,376.634"/>
<path class="path-13" d="M248.649,376.634C253.207,373.634,245.912,370.870,243.659,369.981"/>
<path class="path-13" d="M191.093,266.179C194.088,253.538,221.037,240.563,234.012,241.561"/>
<path class="path-13" d="M234.012,241.561C242.994,242.226,271.274,256.199,275.266,264.517"/>
<path class="path-13" d="M275.266,264.517C278.592,271.170,279.590,295.789,279.924,304.107"/>
<path class="path-13" d="M279.924,304.107C280.257,319.412,281.070,334.757,282.253,350.019"/>
<path class="path-13" d="M282.253,350.019C283.832,362.560,286.813,374.879,289.573,387.214"/>
<path class="path-13" d="M289.573,387.214C290.133,393.516,293.674,410.308,287.710,413.897"/>
<path class="path-13" d="M287.710,413.897C279.992,419.055,261.399,405.487,253.973,401.253"/>
<path class="path-13" d="M253.973,401.253C227.586,387.148,229.712,385.028,201.674,383.887"/>
<path class="path-13" d="M201.674,383.887C198.243,383.617,187.111,386.612,184.772,385.285"/>
<path class="path-13" d="M184.772,385.285C180.778,382.368,182.444,376.634,183.442,371.977"/>
<path class="path-13" d="M183.442,371.977C186.436,360.333,189.762,352.680,191.427,340.038"/>
<path class="path-13" d="M191.427,340.038C193.423,324.069,194.088,306.768,194.088,290.134"/>
<path class="path-13" d="M194.088,290.134C193.755,284.145,190.429,269.839,191.093,266.179"/>
<path class="path-14" d="M243.659,369.981C238.998,367.902,221.050,359.678,218.175,364.126C215.742,368.150,220.371,369.050,224.430,369.581C228.025,370.051,246.182,378.217,248.649,376.634C253.207,373.634,245.912,370.870,243.659,369.981M191.093,266.179C194.088,253.538,221.037,240.563,234.012,241.561C242.994,242.226,271.274,256.199,275.266,264.517C278.592,271.170,279.590,295.789,279.924,304.107C280.257,319.412,281.070,334.757,282.253,350.019C283.832,362.560,286.813,374.879,289.573,387.214C290.133,393.516,293.674,410.308,287.710,413.897C279.992,419.055,261.399,405.487,253.973,401.253C227.586,387.148,229.712,385.028,201.674,383.887C198.243,383.617,187.111,386.612,184.772,385.285C180.778,382.368,182.444,376.634,183.442,371.977C186.436,360.333,189.762,352.680,191.427,340.038C193.423,324.069,194.088,306.768,194.088,290.134C193.755,284.145,190.429,269.839,191.093,266.179Z"/>
</g>
<g id="neck">
<path class="path-0" d="M229.021,222.597C229.354,219.269,230.353,216.275,234.012,215.942C245.656,213.946,244.657,251.542,234.012,251.542C224.031,251.542,228.356,228.917,229.021,222.597M234.012,206.628C231.351,206.295,228.357,206.959,226.027,208.291C216.711,212.948,218.042,221.599,218.042,230.248C217.708,234.574,218.042,238.567,216.046,242.226C214.383,245.553,209.724,248.879,209.724,252.540C210.057,262.521,237.006,262.521,243.993,262.188C246.653,262.187,255.636,263.185,256.634,259.526C256.634,258.528,249.981,246.883,248.983,242.226C245.989,228.252,255.305,207.626,234.012,206.628Z"/>
<path class="path-15" d="M234.012,215.942C245.656,213.946,244.657,251.542,234.012,251.542"/>
<path class="path-15" d="M234.012,251.542C224.031,251.542,228.356,228.917,229.021,222.597"/>
<path class="path-15" d="M229.021,222.597C229.354,219.269,230.353,216.275,234.012,215.942"/>
<path class="path-16" d="M234.012,215.942C245.656,213.946,244.657,251.542,234.012,251.542C224.031,251.542,228.356,228.917,229.021,222.597C229.354,219.269,230.353,216.275,234.012,215.942Z"/>
</g>
<g id="layer_head">
<g id="right_ear">
<path class="path-0" d="M148.318,193.814C134.903,195.263,120.108,159.052,139.727,162.012C143.653,162.602,146.311,169.425,146.943,172.384C148.776,180.785,157.698,192.817,148.318,193.814M145.292,150.319C141.950,148.359,137.871,147.650,134.330,149.222C123.763,152.016,118.451,164.579,120.253,175.416C122.471,187.917,135.895,202.085,147.440,204.526C150.495,205.189,156.788,207.337,159.728,205.834C166.360,201.908,160.169,191.613,158.268,185.872C156.307,179.490,150.185,154.446,145.292,150.319Z"/>
<path class="path-15" d="M139.727,162.012C143.653,162.602,146.311,169.425,146.943,172.384"/>
<path class="path-15" d="M146.943,172.384C148.776,180.785,157.698,192.817,148.318,193.814"/>
<path class="path-15" d="M148.318,193.814C134.903,195.263,120.108,159.052,139.727,162.012"/>
<path class="path-16" d="M139.727,162.012C143.653,162.602,146.311,169.425,146.943,172.384C148.776,180.785,157.698,192.817,148.318,193.814C134.903,195.263,120.108,159.052,139.727,162.012Z"/>
</g>
<g id="face_Mask">
<g id="face">
<path class="path-0" d="M163.367,104.941C171.853,94.492,204.622,87.307,218.262,85.311C233.566,83.315,249.202,85.644,264.174,90.301C269.498,91.966,277.181,93.921,281.806,97.621C289.633,103.932,294.289,115.258,297.096,124.502C299.316,131.187,303.445,140.078,301.753,146.516C294.262,175.022,289.515,187.953,283.918,195.964C276.884,206.033,264.064,209.939,252.937,214.888C239.804,220.505,226.424,223.310,219.403,223.003C206.830,222.453,179.848,215.397,170.789,207.455C161.249,198.772,160.310,185.999,156.863,174.134C154.442,166.670,150.877,155.312,149.673,147.719C148.089,136.601,156.382,113.463,163.367,104.941M285.824,89.946C272.236,77.693,235.939,74.914,218.305,77.558C209.985,78.548,201.999,79.207,194.346,81.198C188.686,82.860,183.691,85.518,178.364,87.181C166.717,91.506,161.906,90.067,154.076,100.831C148.452,108.367,139.972,138.030,140.637,147.250C141.256,154.138,147.051,169.911,149.100,177.697C151.647,187.614,154.009,201.578,160.047,209.395C166.226,217.162,174.642,221.608,187.826,226.028C199.635,229.987,212.839,232.268,225.653,232.848C231.606,233.483,242.800,229.981,258.587,222.726C270.387,217.124,283.027,211.812,291.019,200.386C300.150,187.332,305.135,167.100,312.480,145.492C318.922,126.541,294.263,97.391,285.824,89.946Z"/>
<path class="path-15" d="M218.262,85.311C233.566,83.315,249.202,85.644,264.174,90.301"/>
<path class="path-15" d="M264.174,90.301C269.498,91.966,277.181,93.921,281.806,97.621"/>
<path class="path-15" d="M281.806,97.621C289.633,103.932,294.289,115.258,297.096,124.502"/>
<path class="path-15" d="M297.096,124.502C299.316,131.187,303.445,140.078,301.753,146.516"/>
<path class="path-15" d="M301.753,146.516C294.262,175.022,289.515,187.953,283.918,195.964"/>
<path class="path-15" d="M283.918,195.964C276.884,206.033,264.064,209.939,252.937,214.888"/>
<path class="path-15" d="M252.937,214.888C239.804,220.505,226.424,223.310,219.403,223.003"/>
<path class="path-15" d="M219.403,223.003C206.830,222.453,179.848,215.397,170.789,207.455"/>
<path class="path-15" d="M170.789,207.455C161.249,198.772,160.310,185.999,156.863,174.134"/>
<path class="path-15" d="M156.863,174.134C154.442,166.670,150.877,155.312,149.673,147.719"/>
<path class="path-15" d="M149.673,147.719C148.089,136.601,156.382,113.463,163.367,104.941"/>
<path class="path-15" d="M163.367,104.941C171.853,94.492,204.622,87.307,218.262,85.311"/>
<path class="path-16" d="M218.262,85.311C233.566,83.315,249.202,85.644,264.174,90.301C269.498,91.966,277.181,93.921,281.806,97.621C289.633,103.932,294.289,115.258,297.096,124.502C299.316,131.187,303.445,140.078,301.753,146.516C294.262,175.022,289.515,187.953,283.918,195.964C276.884,206.033,264.064,209.939,252.937,214.888C239.804,220.505,226.424,223.310,219.403,223.003C206.830,222.453,179.848,215.397,170.789,207.455C161.249,198.772,160.310,185.999,156.863,174.134C154.442,166.670,150.877,155.312,149.673,147.719C148.089,136.601,156.382,113.463,163.367,104.941C171.853,94.492,204.622,87.307,218.262,85.311Z"/>
</g>
</g>
<mask id="mask_target" style="mask-type:alpha;">
<use xlink:href="#face_Mask"/>
</mask>
<g id="mouse">
<path class="path-0" d="M224.616,214.142C229.820,215.246,229.904,219.999,229.430,220.507C229.163,220.793,228.040,219.841,225.080,219.355C219.474,218.433,216.768,219.605,216.571,218.891C216.354,218.108,218.523,212.850,224.616,214.142Z"/>
</g>
<g id="layer_eyes_Mtarget" mask="url(#mask_target)">
<g id="eyes">
<mask style="mask-type:alpha;" id="f3906406-f197-4bf1-91d8-744c09cca836">
<use xlink:href="#cmn_f3906406-f197-4bf1-91d8-744c09cca836"/>
</mask>
<g id="cmn_f3906406-f197-4bf1-91d8-744c09cca836">
<path class="path-0" d="M199.811,174.318C201.747,186.012,193.970,194.054,183.120,191.910C176.204,190.368,172.795,184.742,170.456,178.405C169.009,174.920,162.622,158.756,167.969,160.868C171.984,162.453,199.134,170.224,199.811,174.318M206.644,177.469C207.432,175.944,208.519,173.639,208.178,171.957C207.814,170.156,206.190,167.396,204.338,167.187C199.352,166.510,182.153,159.768,175.860,157.377C170.055,155.298,157.854,148.017,153.576,153.487C151.081,156.552,155.809,158.082,157.346,163.373C162.373,180.677,170.679,197.917,187.782,197.879C203.240,197.844,202.817,184.876,206.644,177.469M250.053,187.666C242.861,187.513,233.258,182.087,233.395,170.878C233.435,167.562,246.915,162.480,252.959,159.331C258.997,156.184,270.494,149.827,273.613,149.920C277.101,150.446,275.430,153.521,275.489,163.160C275.567,175.807,263.024,187.942,250.053,187.666M281.883,169.478C285.163,157.511,285.288,141.325,282.955,140.260C277.894,137.948,264.872,147.307,257.275,150.686C247.495,155.035,231.919,164.249,225.194,166.297C223.192,166.986,221.378,167.514,221.093,168.952C220.537,171.758,225.834,173.663,227.662,175.863C230.798,179.635,232.039,186.357,237.159,189.175C247.249,195.142,254.800,193.292,266.042,188.534C274.263,185.089,279.727,177.349,281.883,169.478Z"/>
<path class="path-17" d="M273.613,149.920C277.101,150.446,275.430,153.521,275.489,163.160"/>
<path class="path-17" d="M275.489,163.160C275.567,175.807,263.024,187.942,250.053,187.666"/>
<path class="path-17" d="M250.053,187.666C242.861,187.513,233.258,182.087,233.395,170.878"/>
<path class="path-17" d="M233.395,170.878C233.435,167.562,246.915,162.480,252.959,159.331"/>
<path class="path-17" d="M252.959,159.331C258.997,156.184,270.494,149.827,273.613,149.920"/>
<path class="path-18" d="M273.613,149.920C277.101,150.446,275.430,153.521,275.489,163.160C275.567,175.807,263.024,187.942,250.053,187.666C242.861,187.513,233.258,182.087,233.395,170.878C233.435,167.562,246.915,162.480,252.959,159.331C258.997,156.184,270.494,149.827,273.613,149.920Z"/>
<path class="path-17" d="M167.969,160.868C171.984,162.453,199.134,170.224,199.811,174.318"/>
<path class="path-17" d="M199.811,174.318C201.747,186.012,193.970,194.054,183.120,191.910"/>
<path class="path-17" d="M183.120,191.910C176.204,190.368,172.795,184.742,170.456,178.405"/>
<path class="path-17" d="M170.456,178.405C169.009,174.920,162.622,158.756,167.969,160.868"/>
<path class="path-18" d="M167.969,160.868C171.984,162.453,199.134,170.224,199.811,174.318C201.747,186.012,193.970,194.054,183.120,191.910C176.204,190.368,172.795,184.742,170.456,178.405C169.009,174.920,162.622,158.756,167.969,160.868Z"/>
</g>
</g>
<g id="pupil">
<path class="path-0" d="M238.353,164.141C240.670,163.575,243.717,166.925,244.494,175.495C245.045,181.562,243.585,184.040,241.911,184.259C240.015,184.507,238.365,181.886,237.082,175.109C235.713,167.877,236.370,164.626,238.353,164.141Z" mask="url(#f3906406-f197-4bf1-91d8-744c09cca836)"/>
<path class="path-0" d="M192.447,166.967C194.786,166.592,196.507,170.490,197.315,179.279C197.770,184.237,197.396,186.302,196.106,186.649C194.563,187.064,192.577,185.036,191.070,179.279C188.979,171.289,190.259,167.319,192.447,166.967Z" mask="url(#f3906406-f197-4bf1-91d8-744c09cca836)"/>
</g>
</g>
<g id="hat">
<path class="path-0" d="M301.589,123.744C303.661,124.954,306.561,127.401,306.920,130.060C308.323,136.419,297.305,135.988,293.952,136.341C287.407,136.375,280.570,136.120,274.317,136.181C269.000,136.717,263.670,137.084,258.340,137.467C248.494,137.409,238.675,136.743,228.834,136.483C214.638,136.665,200.601,136.222,186.268,136.097C184.792,136.138,148.648,140.217,142.436,137.000C133.110,132.275,142.465,124.962,142.047,120.367C141.998,116.903,134.513,115.966,136.379,109.979C138.202,104.441,157.741,100.395,163.573,99.129C175.553,96.462,187.892,92.974,200.562,91.158C218.071,88.780,235.942,89.368,253.733,87.945C267.530,86.942,298.928,93.957,305.898,108.103C311.090,118.320,294.102,108.918,292.118,108.311C289.375,106.499,279.444,102.172,282.309,107.931C284.478,114.255,296.677,120.181,301.589,123.744M184.841,86.076C174.268,88.279,164.477,89.710,154.358,92.010C150.058,92.976,144.898,95.361,140.835,93.495C131.780,89.538,142.040,66.684,146.249,60.961C160.679,41.839,191.407,33.270,216.587,33.410C261.882,33.663,279.586,41.155,294.327,56.589C298.929,61.061,314.981,83.190,306.204,89.170C302.886,91.127,296.930,87.266,293.971,85.915C283.766,81.517,238.849,74.822,184.841,86.076M247.576,24.724C238.455,23.668,235.763,21.359,225.892,21.918C194.651,24.116,153.509,27.128,134.815,56.953C128.847,66.718,128.528,77.773,126.375,88.202C124.631,96.458,119.749,102.748,120.552,111.051C121.429,118.120,124.561,119.795,126.707,125.254C129.164,131.036,127.501,133.698,129.004,137.450C132.195,148.339,142.099,148.139,151.489,148.203C156.292,148.237,174.009,148.046,183.659,147.909C195.363,147.743,210.966,147.389,222.669,147.151C232.067,146.960,244.601,146.803,253.996,146.488C262.649,146.198,274.193,145.843,282.824,145.169C292.869,144.385,315.030,142.656,316.202,141.448C318.269,139.353,322.262,118.866,322.342,115.036C322.414,111.592,320.779,108.115,320.917,102.600C320.949,88.470,320.913,75.385,313.345,61.974C299.480,37.896,272.926,28.241,247.576,24.724Z"/>
<path class="path-19" d="M253.733,87.945C267.530,86.942,298.928,93.957,305.898,108.103"/>
<path class="path-19" d="M305.898,108.103C311.090,118.320,294.102,108.918,292.118,108.311"/>
<path class="path-19" d="M292.118,108.311C289.375,106.499,279.444,102.172,282.309,107.931"/>
<path class="path-19" d="M282.309,107.931C284.478,114.255,296.677,120.181,301.589,123.744"/>
<path class="path-19" d="M301.589,123.744C303.661,124.954,306.561,127.401,306.920,130.060"/>
<path class="path-19" d="M306.920,130.060C308.323,136.419,297.305,135.988,293.952,136.341"/>
<path class="path-19" d="M293.952,136.341C287.407,136.375,280.570,136.120,274.317,136.181"/>
<path class="path-19" d="M274.317,136.181C269.000,136.717,263.670,137.084,258.340,137.467"/>
<path class="path-19" d="M258.340,137.467C248.494,137.409,238.675,136.743,228.834,136.483"/>
<path class="path-19" d="M228.834,136.483C214.638,136.665,200.601,136.222,186.268,136.097"/>
<path class="path-19" d="M186.268,136.097C184.792,136.138,148.648,140.217,142.436,137.000"/>
<path class="path-19" d="M142.436,137.000C133.110,132.275,142.465,124.962,142.047,120.367"/>
<path class="path-19" d="M142.047,120.367C141.998,116.903,134.513,115.966,136.379,109.979"/>
<path class="path-19" d="M136.379,109.979C138.202,104.441,157.741,100.395,163.573,99.129"/>
<path class="path-19" d="M163.573,99.129C175.553,96.462,187.892,92.974,200.562,91.158"/>
<path class="path-19" d="M200.562,91.158C218.071,88.780,235.942,89.368,253.733,87.945"/>
<path class="path-20" d="M253.733,87.945C267.530,86.942,298.928,93.957,305.898,108.103C311.090,118.320,294.102,108.918,292.118,108.311C289.375,106.499,279.444,102.172,282.309,107.931C284.478,114.255,296.677,120.181,301.589,123.744C303.661,124.954,306.561,127.401,306.920,130.060C308.323,136.419,297.305,135.988,293.952,136.341C287.407,136.375,280.570,136.120,274.317,136.181C269.000,136.717,263.670,137.084,258.340,137.467C248.494,137.409,238.675,136.743,228.834,136.483C214.638,136.665,200.601,136.222,186.268,136.097C184.792,136.138,148.648,140.217,142.436,137.000C133.110,132.275,142.465,124.962,142.047,120.367C141.998,116.903,134.513,115.966,136.379,109.979C138.202,104.441,157.741,100.395,163.573,99.129C175.553,96.462,187.892,92.974,200.562,91.158C218.071,88.780,235.942,89.368,253.733,87.945Z"/>
<path class="path-9" d="M216.587,33.410C261.882,33.663,279.586,41.155,294.327,56.589"/>
<path class="path-9" d="M294.327,56.589C298.929,61.061,314.981,83.190,306.204,89.170"/>
<path class="path-9" d="M306.204,89.170C302.886,91.127,296.930,87.266,293.971,85.915"/>
<path class="path-9" d="M293.971,85.915C283.766,81.517,238.849,74.822,184.841,86.076"/>
<path class="path-9" d="M184.841,86.076C174.268,88.279,164.477,89.710,154.358,92.010"/>
<path class="path-9" d="M154.358,92.010C150.058,92.976,144.898,95.361,140.835,93.495"/>
<path class="path-9" d="M140.835,93.495C131.780,89.538,142.040,66.684,146.249,60.961"/>
<path class="path-9" d="M146.249,60.961C160.679,41.839,191.407,33.270,216.587,33.410"/>
<path class="path-10" d="M216.587,33.410C261.882,33.663,279.586,41.155,294.327,56.589C298.929,61.061,314.981,83.190,306.204,89.170C302.886,91.127,296.930,87.266,293.971,85.915C283.766,81.517,238.849,74.822,184.841,86.076C174.268,88.279,164.477,89.710,154.358,92.010C150.058,92.976,144.898,95.361,140.835,93.495C131.780,89.538,142.040,66.684,146.249,60.961C160.679,41.839,191.407,33.270,216.587,33.410Z"/>
</g>
<g id="left_ear">
<path class="path-0" d="M297.174,186.637C295.947,182.449,303.188,157.051,304.964,154.292C310.042,146.336,323.880,156.322,325.814,163.441C327.942,171.965,317.043,182.517,310.123,187.930C304.301,192.343,298.975,192.708,297.174,186.637M335.933,167.115C336.481,153.755,322.808,137.492,310.295,141.896C296.335,146.811,298.191,166.459,294.794,178.230C293.661,182.585,290.751,186.864,290.852,191.145C290.914,199.452,296.948,204.493,305.521,200.646C317.677,195.040,334.919,181.303,335.933,167.115Z"/>
<path class="path-15" d="M304.964,154.292C310.042,146.336,323.880,156.322,325.814,163.441"/>
<path class="path-15" d="M325.814,163.441C327.942,171.965,317.043,182.517,310.123,187.930"/>
<path class="path-15" d="M310.123,187.930C304.301,192.343,298.975,192.708,297.174,186.637"/>
<path class="path-15" d="M297.174,186.637C295.947,182.449,303.188,157.051,304.964,154.292"/>
<path class="path-16" d="M304.964,154.292C310.042,146.336,323.880,156.322,325.814,163.441C327.942,171.965,317.043,182.517,310.123,187.930C304.301,192.343,298.975,192.708,297.174,186.637C295.947,182.449,303.188,157.051,304.964,154.292Z"/>
</g>
<g id="earrings">
<path class="path-0" d="M318.269,205.258C309.417,208.537,307.765,189.126,311.483,189.652C316.639,191.685,321.433,201.169,318.269,205.258M327.134,197.511C320.263,196.837,317.729,188.064,317.423,184.127C325.016,186.286,334.349,192.588,327.134,197.511M335.868,192.858C333.487,185.017,322.200,179.851,314.577,176.888C312.096,175.924,305.995,184.988,305.626,187.763C304.490,191.680,304.468,213.945,318.003,211.840C323.566,210.721,337.791,199.191,335.868,192.858Z"/>
<path class="path-21" d="M317.423,184.127C325.016,186.286,334.349,192.588,327.134,197.511"/>
<path class="path-21" d="M327.134,197.511C320.263,196.837,317.729,188.064,317.423,184.127"/>
<path class="path-22" d="M317.423,184.127C325.016,186.286,334.349,192.588,327.134,197.511C320.263,196.837,317.729,188.064,317.423,184.127Z"/>
<path class="path-21" d="M311.483,189.652C316.639,191.685,321.433,201.169,318.269,205.258"/>
<path class="path-21" d="M318.269,205.258C309.417,208.537,307.765,189.126,311.483,189.652"/>
<path class="path-22" d="M311.483,189.652C316.639,191.685,321.433,201.169,318.269,205.258C309.417,208.537,307.765,189.126,311.483,189.652Z"/>
</g>
</g>
<g id="jacket">
<path class="path-0" d="M202.406,270.837C205.067,275.163,202.406,285.477,202.406,290.134C200.410,307.101,197.434,323.354,197.747,340.038C197.941,344.002,196.702,350.935,194.788,355.134C193.407,358.164,190.876,362.780,188.100,363.993C184.682,365.424,183.260,358.690,182.335,355.842C181.055,351.902,182.193,344.657,182.444,342.034C183.272,336.825,185.842,326.728,185.696,320.076C185.603,313.545,182.090,307.285,181.406,300.115C180.460,294.759,179.024,288.443,177.893,282.483C177.924,279.336,178.455,277.386,178.523,275.162C178.186,269.677,180.854,268.284,186.103,267.842C190.946,267.780,200.741,265.515,202.406,270.837M258.630,280.487C260.295,276.825,286.209,259.286,289.571,257.530C297.900,253.674,302.055,262.954,301.990,268.356C301.998,277.059,287.239,305.737,288.907,311.758C289.484,314.441,291.567,315.751,293.232,317.416C306.207,331.721,300.219,323.071,313.859,329.392C320.181,332.387,332.072,341.144,337.479,345.362C340.816,348.301,348.479,354.753,350.343,358.483C351.437,361.257,352.451,366.397,348.235,367.577C346.754,368.194,330.582,367.236,327.832,367.320C315.507,367.027,302.215,367.651,291.900,359.335C288.573,356.341,285.912,352.015,283.251,348.023C273.602,334.049,266.949,318.413,261.958,302.111C259.962,296.456,256.634,286.475,258.630,280.487M275.230,255.283C272.183,258.419,266.125,263.498,263.954,264.517C256.051,267.722,254.494,258.172,253.973,252.207C253.708,247.057,256.679,239.764,259.756,235.414C262.467,231.581,266.838,226.324,271.938,225.592C278.373,224.434,289.284,231.254,287.908,238.566C287.494,241.924,279.616,250.769,275.230,255.283M193.136,233.676C198.052,237.591,201.611,242.294,200.791,246.769C200.019,250.988,196.955,253.371,189.763,255.866C178.455,259.789,169.485,242.438,172.988,235.284C175.654,229.838,186.815,228.642,193.136,233.676M364.535,364.392C360.620,358.218,358.703,353.558,353.448,348.023C345.428,339.739,335.816,330.391,325.835,324.734C315.854,319.412,307.900,321.012,301.217,310.096C295.344,300.868,299.587,290.545,301.064,280.153C301.429,276.460,302.038,257.588,302.107,254.203C301.656,250.792,302.060,247.348,301.548,244.222C301.042,240.362,301.548,236.237,300.218,232.578C298.222,225.923,291.236,222.929,285.912,219.603C278.592,215.611,272.268,213.715,263.954,215.611C254.842,217.700,251.739,227.853,249.173,234.602C245.263,244.887,247.348,260.257,247.762,271.253C247.999,277.547,249.081,286.270,249.981,292.130C253.108,314.875,276.596,362.995,297.889,371.977C302.546,374.307,333.950,378.532,343.801,378.630C349.928,378.722,353.052,378.574,358.620,380.696C361.340,381.855,368.082,385.306,370.710,382.580C374.644,378.758,366.685,367.784,364.535,364.392M207.065,233.565C203.773,227.822,198.342,218.282,191.571,217.851C185.171,217.649,175.443,218.962,169.647,222.351C166.155,224.393,160.863,228.165,160.487,232.245C159.787,238.326,162.371,245.593,165.457,250.281C167.228,252.972,171.520,254.876,173.609,257.269C174.707,258.596,178.824,265.900,179.562,267.903C183.619,278.046,179.189,290.113,178.598,299.612C178.106,307.515,176.787,318.000,176.153,325.893C175.428,334.919,174.821,346.159,174.126,356.007C173.842,358.279,173.775,363.345,174.012,366.477C174.260,369.758,174.119,375.887,175.789,377.301C176.633,378.016,186.815,379.404,190.981,377.555C195.190,375.686,198.563,375.559,201.074,365.988C203.959,353.823,205.732,342.699,206.065,330.057C206.065,308.433,212.464,279.358,211.720,266.179C211.381,260.167,212.437,256.170,211.191,247.783C210.571,244.324,209.273,237.419,207.065,233.565Z"/>
<path class="path-1" d="M289.571,257.530C297.900,253.674,302.055,262.954,301.990,268.356"/>
<path class="path-1" d="M301.990,268.356C301.998,277.059,287.239,305.737,288.907,311.758"/>
<path class="path-1" d="M288.907,311.758C289.484,314.441,291.567,315.751,293.232,317.416"/>
<path class="path-1" d="M293.232,317.416C306.207,331.721,300.219,323.071,313.859,329.392"/>
<path class="path-1" d="M313.859,329.392C320.181,332.387,332.072,341.144,337.479,345.362"/>
<path class="path-1" d="M337.479,345.362C340.816,348.301,348.479,354.753,350.343,358.483"/>
<path class="path-1" d="M350.343,358.483C351.437,361.257,352.451,366.397,348.235,367.577"/>
<path class="path-1" d="M348.235,367.577C346.754,368.194,330.582,367.236,327.832,367.320"/>
<path class="path-1" d="M327.832,367.320C315.507,367.027,302.215,367.651,291.900,359.335"/>
<path class="path-1" d="M291.900,359.335C288.573,356.341,285.912,352.015,283.251,348.023"/>
<path class="path-1" d="M283.251,348.023C273.602,334.049,266.949,318.413,261.958,302.111"/>
<path class="path-1" d="M261.958,302.111C259.962,296.456,256.634,286.475,258.630,280.487"/>
<path class="path-1" d="M258.630,280.487C260.295,276.825,286.209,259.286,289.571,257.530"/>
<path class="path-2" d="M289.571,257.530C297.900,253.674,302.055,262.954,301.990,268.356C301.998,277.059,287.239,305.737,288.907,311.758C289.484,314.441,291.567,315.751,293.232,317.416C306.207,331.721,300.219,323.071,313.859,329.392C320.181,332.387,332.072,341.144,337.479,345.362C340.816,348.301,348.479,354.753,350.343,358.483C351.437,361.257,352.451,366.397,348.235,367.577C346.754,368.194,330.582,367.236,327.832,367.320C315.507,367.027,302.215,367.651,291.900,359.335C288.573,356.341,285.912,352.015,283.251,348.023C273.602,334.049,266.949,318.413,261.958,302.111C259.962,296.456,256.634,286.475,258.630,280.487C260.295,276.825,286.209,259.286,289.571,257.530Z"/>
<path class="path-1" d="M186.103,267.842C190.946,267.780,200.741,265.515,202.406,270.837"/>
<path class="path-1" d="M202.406,270.837C205.067,275.163,202.406,285.477,202.406,290.134"/>
<path class="path-1" d="M202.406,290.134C200.410,307.101,197.434,323.354,197.747,340.038"/>
<path class="path-1" d="M197.747,340.038C197.941,344.002,196.702,350.935,194.788,355.134"/>
<path class="path-1" d="M194.788,355.134C193.407,358.164,190.876,362.780,188.100,363.993"/>
<path class="path-1" d="M188.100,363.993C184.682,365.424,183.260,358.690,182.335,355.842"/>
<path class="path-1" d="M182.335,355.842C181.055,351.902,182.193,344.657,182.444,342.034"/>
<path class="path-1" d="M182.444,342.034C183.272,336.825,185.842,326.728,185.696,320.076"/>
<path class="path-1" d="M185.696,320.076C185.603,313.545,182.090,307.285,181.406,300.115"/>
<path class="path-1" d="M181.406,300.115C180.460,294.759,179.024,288.443,177.893,282.483"/>
<path class="path-1" d="M177.893,282.483C177.924,279.336,178.455,277.386,178.523,275.162"/>
<path class="path-1" d="M178.523,275.162C178.186,269.677,180.854,268.284,186.103,267.842"/>
<path class="path-2" d="M186.103,267.842C190.946,267.780,200.741,265.515,202.406,270.837C205.067,275.163,202.406,285.477,202.406,290.134C200.410,307.101,197.434,323.354,197.747,340.038C197.941,344.002,196.702,350.935,194.788,355.134C193.407,358.164,190.876,362.780,188.100,363.993C184.682,365.424,183.260,358.690,182.335,355.842C181.055,351.902,182.193,344.657,182.444,342.034C183.272,336.825,185.842,326.728,185.696,320.076C185.603,313.545,182.090,307.285,181.406,300.115C180.460,294.759,179.024,288.443,177.893,282.483C177.924,279.336,178.455,277.386,178.523,275.162C178.186,269.677,180.854,268.284,186.103,267.842Z"/>
<path class="path-1" d="M271.938,225.592C278.373,224.434,289.284,231.254,287.908,238.566"/>
<path class="path-1" d="M287.908,238.566C287.494,241.924,279.616,250.769,275.230,255.283"/>
<path class="path-1" d="M275.230,255.283C272.183,258.419,266.125,263.498,263.954,264.517"/>
<path class="path-1" d="M263.954,264.517C256.051,267.722,254.494,258.172,253.973,252.207"/>
<path class="path-1" d="M253.973,252.207C253.708,247.057,256.679,239.764,259.756,235.414"/>
<path class="path-1" d="M259.756,235.414C262.467,231.581,266.838,226.324,271.938,225.592"/>
<path class="path-2" d="M271.938,225.592C278.373,224.434,289.284,231.254,287.908,238.566C287.494,241.924,279.616,250.769,275.230,255.283C272.183,258.419,266.125,263.498,263.954,264.517C256.051,267.722,254.494,258.172,253.973,252.207C253.708,247.057,256.679,239.764,259.756,235.414C262.467,231.581,266.838,226.324,271.938,225.592Z"/>
<path class="path-1" d="M193.136,233.676C198.052,237.591,201.611,242.294,200.791,246.769"/>
<path class="path-1" d="M200.791,246.769C200.019,250.988,196.955,253.371,189.763,255.866"/>
<path class="path-1" d="M189.763,255.866C178.455,259.789,169.485,242.438,172.988,235.284"/>
<path class="path-1" d="M172.988,235.284C175.654,229.838,186.815,228.642,193.136,233.676"/>
<path class="path-2" d="M193.136,233.676C198.052,237.591,201.611,242.294,200.791,246.769C200.019,250.988,196.955,253.371,189.763,255.866C178.455,259.789,169.485,242.438,172.988,235.284C175.654,229.838,186.815,228.642,193.136,233.676Z"/>
</g>
<g id="left_arm">
<path class="path-0" d="M290.902,459.809C287.575,454.485,286.245,445.502,293.897,443.175C299.221,441.510,323.174,446.834,327.167,450.826C334.153,457.148,330.161,471.786,321.510,475.113C311.529,478.439,296.226,468.127,290.902,459.809M279.516,276.423C280.393,273.226,288.864,263.064,293.897,264.184C296.819,264.834,298.222,269.839,299.220,272.502C301.881,280.818,304.543,289.469,306.872,298.119C313.194,320.741,317.518,343.366,322.177,365.988C323.839,375.305,323.839,387.613,327.167,395.931C331.159,405.579,337.479,402.253,340.474,408.573C341.805,411.567,341.140,417.224,343.136,421.881C346.130,429.201,351.785,433.194,354.446,437.851C356.111,440.512,356.776,443.506,353.117,444.173C351.121,445.171,345.797,444.173,343.801,444.173C337.144,442.402,330.490,440.627,323.840,438.849C314.857,436.852,287.575,435.521,282.918,429.533C275.931,420.218,286.910,409.240,288.242,399.924C288.907,396.930,292.189,352.967,291.567,350.019C290.899,343.164,287.387,337.131,285.841,330.057C284.214,320.430,282.539,310.147,281.179,300.115C280.223,291.877,276.733,285.067,279.516,276.423M305.541,254.536C303.213,249.877,295.893,241.561,289.904,242.890C284.914,244.222,284.249,250.210,283.582,254.203C281.920,264.184,279.924,272.502,279.924,282.149C279.590,289.136,280.257,295.458,280.921,302.111C281.586,311.427,279.590,329.392,279.924,340.038C279.924,349.686,282.253,359.667,281.586,367.985C279.590,387.613,271.273,406.246,271.938,425.874C271.939,435.855,274.600,435.855,276.929,443.840C278.592,449.828,277.263,456.150,279.590,461.805C285.579,476.776,302.880,490.416,319.847,487.091C335.483,484.096,336.150,467.129,344.466,458.146C351.786,450.161,366.424,454.154,368.420,445.835C370.416,438.849,360.769,431.198,357.110,425.874C349.790,415.893,355.445,413.563,351.786,405.912C349.125,400.257,341.471,395.267,337.813,387.947C335.816,384.619,334.819,378.299,333.487,373.973C330.826,363.992,327.831,352.680,326.169,342.034C324.504,329.724,324.173,318.745,320.845,306.103C318.184,295.458,310.200,262.852,305.541,254.536Z"/>
<path class="path-1" d="M293.897,264.184C296.819,264.834,298.222,269.839,299.220,272.502"/>
<path class="path-1" d="M299.220,272.502C301.881,280.818,304.543,289.469,306.872,298.119"/>
<path class="path-1" d="M306.872,298.119C313.194,320.741,317.518,343.366,322.177,365.988"/>
<path class="path-1" d="M322.177,365.988C323.839,375.305,323.839,387.613,327.167,395.931"/>
<path class="path-1" d="M327.167,395.931C331.159,405.579,337.479,402.253,340.474,408.573"/>
<path class="path-1" d="M340.474,408.573C341.805,411.567,341.140,417.224,343.136,421.881"/>
<path class="path-1" d="M343.136,421.881C346.130,429.201,351.785,433.194,354.446,437.851"/>
<path class="path-1" d="M354.446,437.851C356.111,440.512,356.776,443.506,353.117,444.173"/>
<path class="path-1" d="M353.117,444.173C351.121,445.171,345.797,444.173,343.801,444.173"/>
<path class="path-1" d="M343.801,444.173C337.144,442.402,330.490,440.627,323.840,438.849"/>
<path class="path-1" d="M323.840,438.849C314.857,436.852,287.575,435.521,282.918,429.533"/>
<path class="path-1" d="M282.918,429.533C275.931,420.218,286.910,409.240,288.242,399.924"/>
<path class="path-1" d="M288.242,399.924C288.907,396.930,292.189,352.967,291.567,350.019"/>
<path class="path-1" d="M291.567,350.019C290.899,343.164,287.387,337.131,285.841,330.057"/>
<path class="path-1" d="M285.841,330.057C284.214,320.430,282.539,310.147,281.179,300.115"/>
<path class="path-1" d="M281.179,300.115C280.223,291.877,276.733,285.067,279.516,276.423"/>
<path class="path-1" d="M279.516,276.423C280.393,273.226,288.864,263.064,293.897,264.184"/>
<path class="path-2" d="M293.897,264.184C296.819,264.834,298.222,269.839,299.220,272.502C301.881,280.818,304.543,289.469,306.872,298.119C313.194,320.741,317.518,343.366,322.177,365.988C323.839,375.305,323.839,387.613,327.167,395.931C331.159,405.579,337.479,402.253,340.474,408.573C341.805,411.567,341.140,417.224,343.136,421.881C346.130,429.201,351.785,433.194,354.446,437.851C356.111,440.512,356.776,443.506,353.117,444.173C351.121,445.171,345.797,444.173,343.801,444.173C337.144,442.402,330.490,440.627,323.840,438.849C314.857,436.852,287.575,435.521,282.918,429.533C275.931,420.218,286.910,409.240,288.242,399.924C288.907,396.930,292.189,352.967,291.567,350.019C290.899,343.164,287.387,337.131,285.841,330.057C284.214,320.430,282.539,310.147,281.179,300.115C280.223,291.877,276.733,285.067,279.516,276.423C280.393,273.226,288.864,263.064,293.897,264.184Z"/>
<path class="path-15" d="M293.897,443.175C299.221,441.510,323.174,446.834,327.167,450.826"/>
<path class="path-15" d="M327.167,450.826C334.153,457.148,330.161,471.786,321.510,475.113"/>
<path class="path-15" d="M321.510,475.113C311.529,478.439,296.226,468.127,290.902,459.809"/>
<path class="path-15" d="M290.902,459.809C287.575,454.485,286.245,445.502,293.897,443.175"/>
<path class="path-16" d="M293.897,443.175C299.221,441.510,323.174,446.834,327.167,450.826C334.153,457.148,330.161,471.786,321.510,475.113C311.529,478.439,296.226,468.127,290.902,459.809C287.575,454.485,286.245,445.502,293.897,443.175Z"/>
</g>
<g id="bone">
<g id="bone_B20">
<path class="path-23" d="M223.076,133.323C221.083,121.513,219.089,109.703,217.095,97.893"/>
</g>
<g id="bone_">
<path class="path-23" d="M552.381,338.786C560.225,316.123,568.068,293.460,575.912,270.798"/>
</g>
<g id="bone_">
<path class="path-23" d="M496.479,337.308C496.479,313.696,496.479,290.084,496.479,266.472"/>
</g>
<g id="bone_">
<path class="path-23" d="M436.410,337.308C436.410,313.696,436.410,290.084,436.410,266.472"/>
</g>
<g id="bone_">
<path class="path-23" d="M604.616,215.385C604.616,191.773,604.616,168.161,604.616,144.549"/>
</g>
<g id="bone_">
<path class="path-23" d="M436.410,216.411C436.410,192.799,436.410,169.186,436.410,145.574"/>
</g>
<g id="bone_">
<path class="path-23" d="M551.282,215.385C551.282,191.773,551.282,168.161,551.282,144.549"/>
</g>
<g id="bone_">
<path class="path-23" d="M495.897,216.411C495.897,192.799,495.897,169.186,495.897,145.574"/>
</g>
<g id="bone_B18">
<path class="path-23" d="M216.923,386.667C212.820,418.803,208.718,450.940,204.615,483.077"/>
</g>
<g id="bone_B17">
<path class="path-23" d="M263.077,386.667C265.762,419.933,268.447,453.200,271.131,486.467"/>
</g>
<g id="bone_B16">
<path class="path-23" d="M227.342,158.587C231.497,183.199,235.652,207.810,239.807,232.421"/>
</g>
<g id="bone_B14">
<path class="path-23" d="M152.308,382.564C158.462,400.684,164.615,418.804,170.769,436.924"/>
</g>
<g id="bone_B13">
<path class="path-23" d="M177.948,271.795C169.402,308.718,160.855,345.641,152.308,382.564"/>
</g>
<g id="bone_B11">
<path class="path-23" d="M306.154,348.718C308.547,370.599,310.940,392.479,313.333,414.360"/>
</g>
<g id="bone_B9">
<path class="path-23" d="M290.769,257.436C295.897,287.863,301.025,318.291,306.154,348.718"/>
</g>
<g id="bone_B5">
<path class="path-23" d="M236.410,212.299C231.965,185.974,227.521,159.648,223.076,133.323"/>
</g>
<g id="bone_B4">
<path class="path-23" d="M234.359,254.350C235.042,240.333,235.726,226.316,236.410,212.299"/>
</g>
<g id="bone_B3">
<path class="path-23" d="M239.487,327.170C237.778,302.897,236.068,278.623,234.359,254.350"/>
</g>
<g id="bone_B2">
<path class="path-23" d="M239.487,386.667C239.487,366.835,239.487,347.003,239.487,327.170"/>
</g>
<g id="bone_B1">
<path class="path-23" d="M239.487,386.667C251.464,386.667,263.441,386.667,275.418,386.667"/>
</g>
</g>
</g>
<style>
.path-0{fill:#000000;fill-rule:evenodd;stroke:none;}
.path-1{fill:none;stroke:#a60d3f;stroke-width:1;stroke-linecap:butt;stroke-linejoin:round;}
.path-2{fill:#a60d3f;fill-rule:evenodd;stroke:none;}
.path-3{fill:none;stroke:#d88e4b;stroke-width:1;stroke-linecap:butt;stroke-linejoin:round;}
.path-4{fill:#d88e4b;fill-rule:evenodd;stroke:none;}
.path-5{fill:none;stroke:#6e2353;stroke-width:1;stroke-linecap:butt;stroke-linejoin:round;}
.path-6{fill:#6e2353;fill-rule:evenodd;stroke:none;}
.path-7{fill:none;stroke:#392966;stroke-width:1;stroke-linecap:butt;stroke-linejoin:round;}
.path-8{fill:#392966;fill-rule:evenodd;stroke:none;}
.path-9{fill:none;stroke:#cc9bc5;stroke-width:1;stroke-linecap:butt;stroke-linejoin:round;}
.path-10{fill:#cc9bc5;fill-rule:evenodd;stroke:none;}
.path-11{fill:none;stroke:#620527;stroke-width:1;stroke-linecap:butt;stroke-linejoin:round;}
.path-12{fill:#620527;fill-rule:evenodd;stroke:none;}
.path-13{fill:none;stroke:#6a3661;stroke-width:1;stroke-linecap:butt;stroke-linejoin:round;}
.path-14{fill:#6a3661;fill-rule:evenodd;stroke:none;}
.path-15{fill:none;stroke:#f8a087;stroke-width:1;stroke-linecap:butt;stroke-linejoin:round;}
.path-16{fill:#f8a087;fill-rule:evenodd;stroke:none;}
.path-17{fill:none;stroke:#ffffff;stroke-width:1;stroke-linecap:butt;stroke-linejoin:round;}
.path-18{fill:#ffffff;fill-rule:evenodd;stroke:none;}
.path-19{fill:none;stroke:#d89f4a;stroke-width:1;stroke-linecap:butt;stroke-linejoin:round;}
.path-20{fill:#d89f4a;fill-rule:evenodd;stroke:none;}
.path-21{fill:none;stroke:#fafd5b;stroke-width:1;stroke-linecap:butt;stroke-linejoin:round;}
.path-22{fill:#fafd5b;fill-rule:evenodd;stroke:none;}
.path-23{fill:none;stroke:#00ff00;stroke-width:8;stroke-linecap:round;stroke-linejoin:round;}
.path-24{fill:none;stroke:#fafafa;stroke-width:1;stroke-linecap:butt;stroke-linejoin:round;}
.path-25{fill:#fafafa;fill-rule:evenodd;stroke:none;}
.path-26{fill:none;stroke:#ececec;stroke-width:1;stroke-linecap:butt;stroke-linejoin:round;}
.path-27{fill:#ececec;fill-rule:evenodd;stroke:none;}
.path-28{fill:none;stroke:#d7d7d7;stroke-width:1;stroke-linecap:butt;stroke-linejoin:round;}
.path-29{fill:#d7d7d7;fill-rule:evenodd;stroke:none;}
.path-30{fill:none;stroke:#bdbdbd;stroke-width:1;stroke-linecap:butt;stroke-linejoin:round;}
.path-31{fill:#bdbdbd;fill-rule:evenodd;stroke:none;}
.path-32{fill:none;stroke:#9f9f9f;stroke-width:1;stroke-linecap:butt;stroke-linejoin:round;}
.path-33{fill:#9f9f9f;fill-rule:evenodd;stroke:none;}
.path-34{fill:none;stroke:#808080;stroke-width:1;stroke-linecap:butt;stroke-linejoin:round;}
.path-35{fill:#808080;fill-rule:evenodd;stroke:none;}
.path-36{fill:none;stroke:#606060;stroke-width:1;stroke-linecap:butt;stroke-linejoin:round;}
.path-37{fill:#606060;fill-rule:evenodd;stroke:none;}
.path-38{fill:none;stroke:#424242;stroke-width:1;stroke-linecap:butt;stroke-linejoin:round;}
.path-39{fill:#424242;fill-rule:evenodd;stroke:none;}
.path-40{fill:none;stroke:#282828;stroke-width:1;stroke-linecap:butt;stroke-linejoin:round;}
.path-41{fill:#282828;fill-rule:evenodd;stroke:none;}
.path-42{fill:none;stroke:#131313;stroke-width:1;stroke-linecap:butt;stroke-linejoin:round;}
.path-43{fill:#131313;fill-rule:evenodd;stroke:none;}
.path-44{fill:none;stroke:#050505;stroke-width:1;stroke-linecap:butt;stroke-linejoin:round;}
.path-45{fill:#050505;fill-rule:evenodd;stroke:none;}
.path-46{fill:none;stroke:#000000;stroke-width:1;stroke-linecap:butt;stroke-linejoin:round;}
</style>
</svg>
