<svg version="1.1" id="Frame_37" xmlns="http://www.w3.org/2000/svg" xmlns:xlink="http://www.w3.org/1999/xlink" width="480px" height="720px">
<g id="main_bone">
<g id="right_arm">
<path class="path-0" d="M174.126,270.172C175.458,267.511,178.075,262.017,181.778,260.525C188.182,257.943,193.652,263.933,194.431,268.509C196.093,276.447,190.936,287.396,188.470,295.289C182.390,314.329,175.637,333.084,171.132,352.015C170.600,355.317,165.808,376.634,165.808,373.973C165.476,380.626,172.130,386.283,174.459,391.939C177.454,399.590,174.791,406.910,172.795,413.897C168.138,428.535,168.471,433.858,167.804,448.165C167.804,450.492,167.473,458.146,163.812,458.146C160.487,458.146,160.153,452.157,159.488,449.828C159.155,447.167,156.825,441.510,157.492,439.182C157.823,435.190,162.483,436.188,157.492,427.870C151.170,417.555,139.526,409.240,136.532,395.931C134.536,385.285,140.191,375.969,143.186,365.988C149.508,344.695,156.494,323.404,163.812,302.111C167.805,291.132,168.802,281.484,174.126,270.172M193.754,262.188C193.755,253.538,190.761,245.885,180.115,249.546C163.481,255.200,158.822,281.484,154.165,296.122C147.512,316.084,141.855,336.046,136.199,356.007C133.870,364.657,130.544,368.982,129.212,373.973C127.549,379.628,127.881,388.280,128.214,393.935C128.214,411.567,133.869,412.234,140.856,425.874C144.517,433.858,140.525,438.849,142.852,445.835C144.517,450.492,148.176,453.820,150.837,457.813C153.166,461.805,153.499,464.135,155.162,467.793C157.158,472.119,163.481,481.767,169.136,479.771C173.793,478.108,173.793,469.790,174.126,465.797C174.459,459.809,178.119,436.853,179.450,429.866C181.778,418.554,187.435,406.245,185.770,393.935C184.440,384.619,176.122,377.965,176.456,367.985C176.787,362.661,180.115,354.011,181.113,348.023C182.776,338.375,182.776,328.061,184.772,318.081C188.099,300.448,194.421,280.487,193.754,262.188Z"/>
<path class="path-1" d="M181.778,260.525C188.182,257.943,193.652,263.933,194.431,268.509"/>
<path class="path-1" d="M194.431,268.509C196.093,276.447,190.936,287.396,188.470,295.289"/>
<path class="path-1" d="M188.470,295.289C182.390,314.329,175.637,333.084,171.132,352.015"/>
<path class="path-1" d="M171.132,352.015C170.600,355.317,165.808,376.634,165.808,373.973"/>
<path class="path-1" d="M165.808,373.973C165.476,380.626,172.130,386.283,174.459,391.939"/>
<path class="path-1" d="M174.459,391.939C177.454,399.590,174.791,406.910,172.795,413.897"/>
<path class="path-1" d="M172.795,413.897C168.138,428.535,168.471,433.858,167.804,448.165"/>
<path class="path-1" d="M167.804,448.165C167.804,450.492,167.473,458.146,163.812,458.146"/>
<path class="path-1" d="M163.812,458.146C160.487,458.146,160.153,452.157,159.488,449.828"/>
<path class="path-1" d="M159.488,449.828C159.155,447.167,156.825,441.510,157.492,439.182"/>
<path class="path-1" d="M157.492,439.182C157.823,435.190,162.483,436.188,157.492,427.870"/>
<path class="path-1" d="M157.492,427.870C151.170,417.555,139.526,409.240,136.532,395.931"/>
<path class="path-1" d="M136.532,395.931C134.536,385.285,140.191,375.969,143.186,365.988"/>
<path class="path-1" d="M143.186,365.988C149.508,344.695,156.494,323.404,163.812,302.111"/>
<path class="path-1" d="M163.812,302.111C167.805,291.132,168.802,281.484,174.126,270.172"/>
<path class="path-1" d="M174.126,270.172C175.458,267.511,178.075,262.017,181.778,260.525"/>
<path class="path-2" d="M181.778,260.525C188.182,257.943,193.652,263.933,194.431,268.509C196.093,276.447,190.936,287.396,188.470,295.289C182.390,314.329,175.637,333.084,171.132,352.015C170.600,355.317,165.808,376.634,165.808,373.973C165.476,380.626,172.130,386.283,174.459,391.939C177.454,399.590,174.791,406.910,172.795,413.897C168.138,428.535,168.471,433.858,167.804,448.165C167.804,450.492,167.473,458.146,163.812,458.146C160.487,458.146,160.153,452.157,159.488,449.828C159.155,447.167,156.825,441.510,157.492,439.182C157.823,435.190,162.483,436.188,157.492,427.870C151.170,417.555,139.526,409.240,136.532,395.931C134.536,385.285,140.191,375.969,143.186,365.988C149.508,344.695,156.494,323.404,163.812,302.111C167.805,291.132,168.802,281.484,174.126,270.172C175.458,267.511,178.075,262.017,181.778,260.525Z"/>
</g>
<g id="layer_left_leg">
<g id="left_heel">
<path class="path-0" d="M241.518,540.379C233.533,530.065,248.838,508.107,259.817,506.445C273.790,504.115,278.447,528.403,276.784,533.393C274.455,539.715,265.472,543.374,259.817,544.372C255.160,545.037,244.181,544.038,241.518,540.379M282.440,505.780C276.785,498.460,261.813,498.127,253.828,500.790C224.219,509.773,220.227,565.666,261.813,554.020C269.133,552.023,284.104,546.368,287.430,539.381C290.757,533.726,288.761,527.404,287.430,521.416C286.100,516.759,285.434,509.772,282.440,505.780Z"/>
<path class="path-3" d="M259.817,506.445C273.790,504.115,278.447,528.403,276.784,533.393"/>
<path class="path-3" d="M276.784,533.393C274.455,539.715,265.472,543.374,259.817,544.372"/>
<path class="path-3" d="M259.817,544.372C255.160,545.037,244.181,544.038,241.518,540.379"/>
<path class="path-3" d="M241.518,540.379C233.533,530.065,248.838,508.107,259.817,506.445"/>
<path class="path-4" d="M259.817,506.445C273.790,504.115,278.447,528.403,276.784,533.393C274.455,539.715,265.472,543.374,259.817,544.372C255.160,545.037,244.181,544.038,241.518,540.379C233.533,530.065,248.838,508.107,259.817,506.445Z"/>
</g>
<g id="left_sole">
<path class="path-0" d="M257.321,566.838C248.680,566.033,241.880,550.932,245.082,558.290C246.931,562.539,253.949,564.902,257.250,566.534C257.831,566.851,270.873,570.725,272.306,570.948C277.344,572.394,292.816,571.082,293.332,569.811C293.436,569.553,282.542,570.133,279.084,570.525C272.587,571.796,264.143,570.423,257.250,566.534M249.757,553.059C252.290,553.611,258.468,557.547,260.053,559.500C264.905,565.476,278.513,566.435,286.350,563.950C287.355,563.659,287.531,561.303,293.292,560.004C296.468,559.288,277.887,565.891,273.807,564.263C265.158,562.479,246.570,552.364,249.757,553.059M289.502,550.438C287.774,549.716,275.130,539.923,265.197,540.532C257.155,541.074,237.685,546.780,236.375,557.272C235.876,561.345,242.071,571.889,245.323,574.256C256.684,583.176,286.528,577.070,292.166,574.584C294.152,573.708,302.742,555.972,289.502,550.438Z"/>
<path class="path-5" d="M245.082,558.290C246.931,562.539,253.949,564.902,257.250,566.534"/>
<path class="path-5" d="M257.250,566.534C264.143,570.423,272.587,571.796,279.084,570.525"/>
<path class="path-5" d="M279.084,570.525C282.542,570.133,293.436,569.553,293.332,569.811"/>
<path class="path-5" d="M293.332,569.811C292.816,571.082,277.344,572.394,272.306,570.948"/>
<path class="path-5" d="M272.306,570.948C270.873,570.725,257.831,566.851,257.321,566.838"/>
<path class="path-5" d="M257.321,566.838C248.680,566.033,241.880,550.932,245.082,558.290"/>
<path class="path-6" d="M245.082,558.290C246.931,562.539,253.949,564.902,257.250,566.534C264.143,570.423,272.587,571.796,279.084,570.525C282.542,570.133,293.436,569.553,293.332,569.811C292.816,571.082,277.344,572.394,272.306,570.948C270.873,570.725,257.831,566.851,257.321,566.838C248.680,566.033,241.880,550.932,245.082,558.290Z"/>
<path class="path-5" d="M260.053,559.500C264.905,565.476,278.513,566.435,286.350,563.950"/>
<path class="path-5" d="M286.350,563.950C287.355,563.659,287.531,561.303,293.292,560.004"/>
<path class="path-5" d="M293.292,560.004C296.468,559.288,277.887,565.891,273.807,564.263"/>
<path class="path-5" d="M273.807,564.263C265.158,562.479,246.570,552.364,249.757,553.059"/>
<path class="path-5" d="M249.757,553.059C252.290,553.611,258.468,557.547,260.053,559.500"/>
<path class="path-6" d="M260.053,559.500C264.905,565.476,278.513,566.435,286.350,563.950C287.355,563.659,287.531,561.303,293.292,560.004C296.468,559.288,277.887,565.891,273.807,564.263C265.158,562.479,246.570,552.364,249.757,553.059C252.290,553.611,258.468,557.547,260.053,559.500Z"/>
</g>
<g id="left_toe">
<path class="path-0" d="M258.126,584.295C226.852,581.301,240.161,534.725,268.107,537.052C281.747,538.384,284.741,550.361,286.072,561.339C287.070,566.330,288.402,570.655,286.072,575.312C281.415,582.964,266.111,584.960,258.126,584.295M289.400,537.718C282.744,530.732,265.112,528.402,256.129,530.398C231.842,536.054,231.511,553.355,232.176,573.317C232.176,578.307,232.175,582.964,235.169,586.956C241.823,595.275,266.110,596.606,276.091,594.610C283.411,592.613,292.394,588.621,296.053,581.301C300.710,572.319,296.053,545.036,289.400,537.718Z"/>
<path class="path-3" d="M268.107,537.052C281.747,538.384,284.741,550.361,286.072,561.339"/>
<path class="path-3" d="M286.072,561.339C287.070,566.330,288.402,570.655,286.072,575.312"/>
<path class="path-3" d="M286.072,575.312C281.415,582.964,266.111,584.960,258.126,584.295"/>
<path class="path-3" d="M258.126,584.295C226.852,581.301,240.161,534.725,268.107,537.052"/>
<path class="path-4" d="M268.107,537.052C281.747,538.384,284.741,550.361,286.072,561.339C287.070,566.330,288.402,570.655,286.072,575.312C281.415,582.964,266.111,584.960,258.126,584.295C226.852,581.301,240.161,534.725,268.107,537.052Z"/>
</g>
<g id="left_leg">
<path class="path-0" d="M235.675,412.234C234.345,405.912,248.958,405.447,253.973,404.581C258.830,403.982,269.813,404.158,273.735,407.244C287.676,417.477,289.133,465.739,288.678,482.369C287.911,496.046,288.722,508.965,287.451,522.132C286.756,527.885,285.914,533.832,284.532,539.343C283.512,544.277,277.990,550.688,281.309,554.086C282.723,556.157,286.003,554.805,288.318,555.016C292.344,555.638,292.369,552.247,295.152,553.055C305.260,556.328,285.946,578.034,276.701,580.793C269.430,583.230,254.064,580.633,248.421,575.594C246.693,574.051,244.672,572.271,243.430,570.368C226.079,542.307,242.298,492.494,246.474,465.369C248.001,455.453,254.050,476.681,259.886,473.927C268.827,469.654,250.854,434.267,245.324,425.874C242.570,422.345,236.341,416.558,235.675,412.234M283.383,396.777C277.489,392.180,260.813,393.743,253.973,394.933C247.340,396.061,224.695,395.598,221.701,400.589C216.711,408.907,230.949,422.443,233.678,429.866C234.868,433.914,231.905,454.142,231.530,459.809C231.438,472.396,230.470,483.160,230.019,495.740C228.781,521.000,218.103,545.517,224.600,569.599C229.627,587.721,243.394,598.758,265.798,595.556C287.560,592.788,296.037,590.767,304.647,568.684C309.881,555.743,309.808,553.287,306.331,541.804C305.001,537.470,300.161,534.592,298.658,529.972C292.079,511.891,300.191,491.531,298.811,472.228C297.539,454.210,298.392,408.539,283.383,396.777Z"/>
<path class="path-7" d="M253.973,404.581C258.830,403.982,269.813,404.158,273.735,407.244"/>
<path class="path-7" d="M273.735,407.244C287.676,417.477,289.133,465.739,288.678,482.369"/>
<path class="path-7" d="M288.678,482.369C287.911,496.046,288.722,508.965,287.451,522.132"/>
<path class="path-7" d="M287.451,522.132C286.756,527.885,285.914,533.832,284.532,539.343"/>
<path class="path-7" d="M284.532,539.343C283.512,544.277,277.990,550.688,281.309,554.086"/>
<path class="path-7" d="M281.309,554.086C282.723,556.157,286.003,554.805,288.318,555.016"/>
<path class="path-7" d="M288.318,555.016C292.344,555.638,292.369,552.247,295.152,553.055"/>
<path class="path-7" d="M295.152,553.055C305.260,556.328,285.946,578.034,276.701,580.793"/>
<path class="path-7" d="M276.701,580.793C269.430,583.230,254.064,580.633,248.421,575.594"/>
<path class="path-7" d="M248.421,575.594C246.693,574.051,244.672,572.271,243.430,570.368"/>
<path class="path-7" d="M243.430,570.368C226.079,542.307,242.298,492.494,246.474,465.369"/>
<path class="path-7" d="M246.474,465.369C248.001,455.453,254.050,476.681,259.886,473.927"/>
<path class="path-7" d="M259.886,473.927C268.827,469.654,250.854,434.267,245.324,425.874"/>
<path class="path-7" d="M245.324,425.874C242.570,422.345,236.341,416.558,235.675,412.234"/>
<path class="path-7" d="M235.675,412.234C234.345,405.912,248.958,405.447,253.973,404.581"/>
<path class="path-8" d="M253.973,404.581C258.830,403.982,269.813,404.158,273.735,407.244C287.676,417.477,289.133,465.739,288.678,482.369C287.911,496.046,288.722,508.965,287.451,522.132C286.756,527.885,285.914,533.832,284.532,539.343C283.512,544.277,277.990,550.688,281.309,554.086C282.723,556.157,286.003,554.805,288.318,555.016C292.344,555.638,292.369,552.247,295.152,553.055C305.260,556.328,285.946,578.034,276.701,580.793C269.430,583.230,254.064,580.633,248.421,575.594C246.693,574.051,244.672,572.271,243.430,570.368C226.079,542.307,242.298,492.494,246.474,465.369C248.001,455.453,254.050,476.681,259.886,473.927C268.827,469.654,250.854,434.267,245.324,425.874C242.570,422.345,236.341,416.558,235.675,412.234C234.345,405.912,248.958,405.447,253.973,404.581Z"/>
</g>
</g>
<g id="layer_right_leg">
<g id="right_heel">
<path class="path-0" d="M186.437,651.442C188.764,632.478,188.764,617.507,212.053,614.179C222.368,612.516,241.996,615.844,247.651,625.824C250.645,630.815,249.648,638.133,249.981,643.457C250.646,652.773,256.634,670.072,243.659,673.066C242.661,673.399,214.715,675.729,206.065,677.059C200.741,678.390,195.086,680.386,190.761,677.059C185.105,671.737,185.439,658.428,186.437,651.442M258.630,623.829C253.973,611.852,237.671,604.865,226.027,606.528C210.722,608.524,195.086,603.533,185.105,617.840C175.124,632.144,175.458,658.762,178.783,675.396C179.782,681.384,183.442,692.364,188.433,695.691C192.092,698.018,197.747,697.353,202.073,697.353C223.032,697.686,259.629,704.674,259.962,673.399C259.962,662.421,261.958,632.478,258.630,623.829Z"/>
<path class="path-3" d="M212.053,614.179C222.368,612.516,241.996,615.844,247.651,625.824"/>
<path class="path-3" d="M247.651,625.824C250.645,630.815,249.648,638.133,249.981,643.457"/>
<path class="path-3" d="M249.981,643.457C250.646,652.773,256.634,670.072,243.659,673.066"/>
<path class="path-3" d="M243.659,673.066C242.661,673.399,214.715,675.729,206.065,677.059"/>
<path class="path-3" d="M206.065,677.059C200.741,678.390,195.086,680.386,190.761,677.059"/>
<path class="path-3" d="M190.761,677.059C185.105,671.737,185.439,658.428,186.437,651.442"/>
<path class="path-3" d="M186.437,651.442C188.764,632.478,188.764,617.507,212.053,614.179"/>
<path class="path-4" d="M212.053,614.179C222.368,612.516,241.996,615.844,247.651,625.824C250.645,630.815,249.648,638.133,249.981,643.457C250.646,652.773,256.634,670.072,243.659,673.066C242.661,673.399,214.715,675.729,206.065,677.059C200.741,678.390,195.086,680.386,190.761,677.059C185.105,671.737,185.439,658.428,186.437,651.442C188.764,632.478,188.764,617.507,212.053,614.179Z"/>
</g>
<g id="right_leg">
<path class="path-0" d="M182.775,404.914C180.114,398.592,188.153,392.314,194.088,391.274C200.394,390.035,209.968,392.834,216.429,394.927C219.889,396.047,224.379,398.086,227.360,400.168C230.211,402.159,234.168,405.044,235.675,408.242C238.907,415.768,238.707,419.408,238.752,424.318C238.802,429.656,236.104,435.690,235.675,441.843C235.371,458.528,238.004,475.778,240.665,491.747C242.329,502.393,246.653,517.698,246.986,527.678C246.987,536.661,240.000,536.995,240.333,542.317C240.333,545.978,251.643,561.280,253.973,565.606C261.293,578.581,266.948,594.550,266.948,609.522C266.948,622.497,247.985,639.465,236.007,641.461C222.368,643.457,184.441,628.819,172.130,621.833C166.475,618.838,156.825,614.179,155.162,607.525C153.831,603.200,159.155,583.905,161.485,579.580C164.810,573.924,167.473,572.926,169.801,565.606C172.795,554.960,171.797,542.983,172.130,531.671C172.130,516.700,175.789,478.107,180.115,463.801C182.776,454.153,192.092,421.217,189.763,412.234C188.433,406.910,184.440,408.242,182.775,404.914M208.062,381.294C202.406,379.297,198.080,373.973,192.092,375.969C189.762,376.967,185.770,379.962,184.107,381.625C168.803,394.600,168.138,407.244,168.138,425.874C167.804,433.859,167.473,442.177,168.138,449.828C168.471,454.818,169.801,459.144,169.136,463.801C168.802,468.127,166.806,472.450,166.141,477.774C165.477,484.428,167.139,492.412,166.141,503.725C164.479,514.039,162.149,523.687,161.816,533.667C161.816,538.991,162.814,551.633,161.816,555.625C159.820,560.616,155.163,565.273,152.502,569.599C147.843,578.248,146.180,588.229,146.179,597.545C145.846,603.867,145.515,612.183,148.176,617.506C152.168,625.491,160.818,630.815,168.138,635.138C180.115,642.125,192.757,644.122,206.065,648.447C210.057,649.779,213.716,652.106,218.042,652.773C219.705,652.773,233.346,651.442,236.007,651.108C248.649,648.781,269.609,638.133,274.600,625.491C275.931,621.499,275.598,615.844,275.598,611.518C275.595,607.527,275.595,603.535,275.598,599.541C275.266,574.589,264.952,564.608,258.964,543.648C256.968,536.662,256.303,521.690,255.305,513.706C252.975,497.736,247.984,482.431,247.651,465.797C247.651,462.469,246.987,457.812,249.316,454.818C251.312,452.157,255.305,452.157,256.634,449.163C258.630,443.839,251.977,425.874,250.646,419.885C249.981,416.226,250.314,411.567,248.983,407.908C245.324,398.592,231.351,388.280,222.034,385.285C217.377,383.621,212.387,383.290,208.062,381.294Z"/>
<path class="path-7" d="M194.088,391.274C200.394,390.035,209.968,392.834,216.429,394.927"/>
<path class="path-7" d="M216.429,394.927C219.889,396.047,224.379,398.086,227.360,400.168"/>
<path class="path-7" d="M227.360,400.168C230.211,402.159,234.168,405.044,235.675,408.242"/>
<path class="path-7" d="M235.675,408.242C238.907,415.768,238.707,419.408,238.752,424.318"/>
<path class="path-7" d="M238.752,424.318C238.802,429.656,236.104,435.690,235.675,441.843"/>
<path class="path-7" d="M235.675,441.843C235.371,458.528,238.004,475.778,240.665,491.747"/>
<path class="path-7" d="M240.665,491.747C242.329,502.393,246.653,517.698,246.986,527.678"/>
<path class="path-7" d="M246.986,527.678C246.987,536.661,240.000,536.995,240.333,542.317"/>
<path class="path-7" d="M240.333,542.317C240.333,545.978,251.643,561.280,253.973,565.606"/>
<path class="path-7" d="M253.973,565.606C261.293,578.581,266.948,594.550,266.948,609.522"/>
<path class="path-7" d="M266.948,609.522C266.948,622.497,247.985,639.465,236.007,641.461"/>
<path class="path-7" d="M236.007,641.461C222.368,643.457,184.441,628.819,172.130,621.833"/>
<path class="path-7" d="M172.130,621.833C166.475,618.838,156.825,614.179,155.162,607.525"/>
<path class="path-7" d="M155.162,607.525C153.831,603.200,159.155,583.905,161.485,579.580"/>
<path class="path-7" d="M161.485,579.580C164.810,573.924,167.473,572.926,169.801,565.606"/>
<path class="path-7" d="M169.801,565.606C172.795,554.960,171.797,542.983,172.130,531.671"/>
<path class="path-7" d="M172.130,531.671C172.130,516.700,175.789,478.107,180.115,463.801"/>
<path class="path-7" d="M180.115,463.801C182.776,454.153,192.092,421.217,189.763,412.234"/>
<path class="path-7" d="M189.763,412.234C188.433,406.910,184.440,408.242,182.775,404.914"/>
<path class="path-7" d="M182.775,404.914C180.114,398.592,188.153,392.314,194.088,391.274"/>
<path class="path-8" d="M194.088,391.274C200.394,390.035,209.968,392.834,216.429,394.927C219.889,396.047,224.379,398.086,227.360,400.168C230.211,402.159,234.168,405.044,235.675,408.242C238.907,415.768,238.707,419.408,238.752,424.318C238.802,429.656,236.104,435.690,235.675,441.843C235.371,458.528,238.004,475.778,240.665,491.747C242.329,502.393,246.653,517.698,246.986,527.678C246.987,536.661,240.000,536.995,240.333,542.317C240.333,545.978,251.643,561.280,253.973,565.606C261.293,578.581,266.948,594.550,266.948,609.522C266.948,622.497,247.985,639.465,236.007,641.461C222.368,643.457,184.441,628.819,172.130,621.833C166.475,618.838,156.825,614.179,155.162,607.525C153.831,603.200,159.155,583.905,161.485,579.580C164.810,573.924,167.473,572.926,169.801,565.606C172.795,554.960,171.797,542.983,172.130,531.671C172.130,516.700,175.789,478.107,180.115,463.801C182.776,454.153,192.092,421.217,189.763,412.234C188.433,406.910,184.440,408.242,182.775,404.914C180.114,398.592,188.153,392.314,194.088,391.274Z"/>
</g>
<g id="right_toe">
<path class="path-0" d="M153.831,633.476C155.163,615.177,160.153,591.223,182.111,586.566C187.101,585.235,194.421,586.900,200.076,587.898C230.684,593.220,240.000,602.202,241.996,633.476C242.330,641.128,244.326,650.110,239.667,657.097C234.011,665.415,202.072,671.403,192.092,671.403C176.787,671.736,164.810,670.072,156.160,655.434C151.170,646.784,153.167,642.792,153.831,633.476M249.648,603.867C240.665,585.901,198.745,574.256,180.115,578.581C152.169,585.235,147.843,609.522,145.847,633.476C145.182,640.796,142.521,648.781,145.847,655.434C147.843,659.426,152.833,664.417,156.160,667.411C171.465,682.383,182.111,679.721,202.073,679.388C214.050,679.388,234.012,678.723,243.659,670.738C250.979,664.083,251.644,656.765,251.977,647.449C251.977,638.466,253.309,610.520,249.648,603.867Z"/>
<path class="path-3" d="M182.111,586.566C187.101,585.235,194.421,586.900,200.076,587.898"/>
<path class="path-3" d="M200.076,587.898C230.684,593.220,240.000,602.202,241.996,633.476"/>
<path class="path-3" d="M241.996,633.476C242.330,641.128,244.326,650.110,239.667,657.097"/>
<path class="path-3" d="M239.667,657.097C234.011,665.415,202.072,671.403,192.092,671.403"/>
<path class="path-3" d="M192.092,671.403C176.787,671.736,164.810,670.072,156.160,655.434"/>
<path class="path-3" d="M156.160,655.434C151.170,646.784,153.167,642.792,153.831,633.476"/>
<path class="path-3" d="M153.831,633.476C155.163,615.177,160.153,591.223,182.111,586.566"/>
<path class="path-4" d="M182.111,586.566C187.101,585.235,194.421,586.900,200.076,587.898C230.684,593.220,240.000,602.202,241.996,633.476C242.330,641.128,244.326,650.110,239.667,657.097C234.011,665.415,202.072,671.403,192.092,671.403C176.787,671.736,164.810,670.072,156.160,655.434C151.170,646.784,153.167,642.792,153.831,633.476C155.163,615.177,160.153,591.223,182.111,586.566Z"/>
</g>
<g id="right_sole">
<path class="path-0" d="M182.775,670.405C187.671,670.817,198.802,669.557,204.069,670.405C209.332,671.549,214.496,672.321,218.910,673.225C221.944,674.106,232.740,677.014,228.687,681.717C226.919,683.918,220.705,683.697,218.042,683.380C215.051,683.399,187.146,680.704,186.103,680.833C180.439,681.143,177.856,679.365,177.371,676.479C176.966,674.073,178.422,670.020,182.775,670.405M236.596,663.625C237.999,665.591,241.830,669.709,238.668,671.403C234.814,673.489,217.922,667.360,212.705,664.576C208.370,663.169,203.313,662.477,199.212,662.243C191.847,661.823,181.951,662.996,174.682,663.992C172.395,663.907,170.879,664.840,169.980,663.972C169.521,663.528,169.308,659.649,170.864,657.680C176.686,650.314,193.007,652.864,202.629,653.143C210.387,653.368,220.416,655.696,228.023,658.095C229.286,658.529,234.817,661.134,236.596,663.625M241.663,658.428C224.994,647.721,211.565,642.999,192.092,644.455C183.648,645.136,165.013,648.728,159.707,657.797C158.250,660.288,158.661,664.464,159.452,667.411C159.928,669.171,160.746,673.411,162.282,675.458C166.077,680.518,176.001,685.098,180.115,686.708C195.403,693.340,217.500,689.245,234.012,690.700C242.178,691.316,241.940,685.196,243.429,681.549C246.059,675.108,253.283,665.684,241.663,658.428Z"/>
<path class="path-5" d="M182.775,670.405C187.671,670.817,198.802,669.557,204.069,670.405"/>
<path class="path-5" d="M204.069,670.405C209.332,671.549,214.496,672.321,218.910,673.225"/>
<path class="path-5" d="M218.910,673.225C221.944,674.106,232.740,677.014,228.687,681.717"/>
<path class="path-5" d="M228.687,681.717C226.919,683.918,220.705,683.697,218.042,683.380"/>
<path class="path-5" d="M218.042,683.380C215.051,683.399,187.146,680.704,186.103,680.833"/>
<path class="path-5" d="M186.103,680.833C180.439,681.143,177.856,679.365,177.371,676.479"/>
<path class="path-5" d="M177.371,676.479C176.966,674.073,178.422,670.020,182.775,670.405"/>
<path class="path-6" d="M182.775,670.405C187.671,670.817,198.802,669.557,204.069,670.405C209.332,671.549,214.496,672.321,218.910,673.225C221.944,674.106,232.740,677.014,228.687,681.717C226.919,683.918,220.705,683.697,218.042,683.380C215.051,683.399,187.146,680.704,186.103,680.833C180.439,681.143,177.856,679.365,177.371,676.479C176.966,674.073,178.422,670.020,182.775,670.405Z"/>
<path class="path-5" d="M170.864,657.680C176.686,650.314,193.007,652.864,202.629,653.143"/>
<path class="path-5" d="M202.629,653.143C210.387,653.368,220.416,655.696,228.023,658.095"/>
<path class="path-5" d="M228.023,658.095C229.286,658.529,234.817,661.134,236.596,663.625"/>
<path class="path-5" d="M236.596,663.625C237.999,665.591,241.830,669.709,238.668,671.403"/>
<path class="path-5" d="M238.668,671.403C234.814,673.489,217.922,667.360,212.705,664.576"/>
<path class="path-5" d="M212.705,664.576C208.370,663.169,203.313,662.477,199.212,662.243"/>
<path class="path-5" d="M199.212,662.243C191.847,661.823,181.951,662.996,174.682,663.992"/>
<path class="path-5" d="M174.682,663.992C172.395,663.907,170.879,664.840,169.980,663.972"/>
<path class="path-5" d="M169.980,663.972C169.521,663.528,169.308,659.649,170.864,657.680"/>
<path class="path-6" d="M170.864,657.680C176.686,650.314,193.007,652.864,202.629,653.143C210.387,653.368,220.416,655.696,228.023,658.095C229.286,658.529,234.817,661.134,236.596,663.625C237.999,665.591,241.830,669.709,238.668,671.403C234.814,673.489,217.922,667.360,212.705,664.576C208.370,663.169,203.313,662.477,199.212,662.243C191.847,661.823,181.951,662.996,174.682,663.992C172.395,663.907,170.879,664.840,169.980,663.972C169.521,663.528,169.308,659.649,170.864,657.680Z"/>
</g>
</g>
<g id="hat_brim">
<path class="path-0" d="M287.698,143.603C291.357,137.614,300.340,121.312,308.325,121.312C313.648,121.312,324.627,130.961,330.282,133.955C335.273,136.950,340.597,139.611,346.252,142.272C349.464,143.942,352.680,145.605,355.900,147.262C370.206,154.583,366.213,160.905,357.895,159.573C339.265,156.245,336.271,157.576,318.306,148.260C315.976,147.262,309.987,143.937,308.989,148.260C307.660,153.251,316.643,157.577,320.302,159.239C326.955,162.900,334.275,166.893,342.259,167.558C344.589,167.891,352.574,167.224,353.903,169.553C355.900,172.881,346.252,181.531,344.256,183.527C340.928,186.521,337.602,189.515,334.275,191.845C329.284,195.170,323.961,198.165,318.306,199.163C307.660,200.494,274.390,185.189,273.392,173.546C272.727,166.893,283.706,149.925,287.698,143.603M320.302,116.988C315.311,112.662,311.652,106.340,304.332,109.668C299.008,111.998,293.353,119.649,289.694,123.642C276.053,140.276,263.744,159.906,264.409,181.530C264.742,195.170,269.399,194.839,280.378,200.161C297.012,208.479,318.305,211.140,336.271,202.824C347.915,197.500,368.210,179.535,373.534,167.558C375.197,163.565,378.190,154.582,375.861,149.925C373.200,144.268,350.909,134.621,344.256,130.962C336.271,126.636,327.289,122.643,320.302,116.988Z"/>
<path class="path-9" d="M308.325,121.312C313.648,121.312,324.627,130.961,330.282,133.955"/>
<path class="path-9" d="M330.282,133.955C335.273,136.950,340.597,139.611,346.252,142.272"/>
<path class="path-9" d="M346.252,142.272C349.464,143.942,352.680,145.605,355.900,147.262"/>
<path class="path-9" d="M355.900,147.262C370.206,154.583,366.213,160.905,357.895,159.573"/>
<path class="path-9" d="M357.895,159.573C339.265,156.245,336.271,157.576,318.306,148.260"/>
<path class="path-9" d="M318.306,148.260C315.976,147.262,309.987,143.937,308.989,148.260"/>
<path class="path-9" d="M308.989,148.260C307.660,153.251,316.643,157.577,320.302,159.239"/>
<path class="path-9" d="M320.302,159.239C326.955,162.900,334.275,166.893,342.259,167.558"/>
<path class="path-9" d="M342.259,167.558C344.589,167.891,352.574,167.224,353.903,169.553"/>
<path class="path-9" d="M353.903,169.553C355.900,172.881,346.252,181.531,344.256,183.527"/>
<path class="path-9" d="M344.256,183.527C340.928,186.521,337.602,189.515,334.275,191.845"/>
<path class="path-9" d="M334.275,191.845C329.284,195.170,323.961,198.165,318.306,199.163"/>
<path class="path-9" d="M318.306,199.163C307.660,200.494,274.390,185.189,273.392,173.546"/>
<path class="path-9" d="M273.392,173.546C272.727,166.893,283.706,149.925,287.698,143.603"/>
<path class="path-9" d="M287.698,143.603C291.357,137.614,300.340,121.312,308.325,121.312"/>
<path class="path-10" d="M308.325,121.312C313.648,121.312,324.627,130.961,330.282,133.955C335.273,136.950,340.597,139.611,346.252,142.272C349.464,143.942,352.680,145.605,355.900,147.262C370.206,154.583,366.213,160.905,357.895,159.573C339.265,156.245,336.271,157.576,318.306,148.260C315.976,147.262,309.987,143.937,308.989,148.260C307.660,153.251,316.643,157.577,320.302,159.239C326.955,162.900,334.275,166.893,342.259,167.558C344.589,167.891,352.574,167.224,353.903,169.553C355.900,172.881,346.252,181.531,344.256,183.527C340.928,186.521,337.602,189.515,334.275,191.845C329.284,195.170,323.961,198.165,318.306,199.163C307.660,200.494,274.390,185.189,273.392,173.546C272.727,166.893,283.706,149.925,287.698,143.603C291.357,137.614,300.340,121.312,308.325,121.312Z"/>
</g>
<g id="hair">
<path class="path-0" d="M183.357,136.483C200.954,124.749,220.906,123.806,241.996,123.120C251.452,122.794,257.886,129.270,265.069,135.626C270.964,141.195,277.299,147.468,283.560,153.313C292.986,162.051,296.930,166.431,300.440,170.614C303.444,173.825,308.105,179.813,311.862,182.674C316.396,186.124,325.422,203.315,327.445,205.266C320.793,207.453,310.356,209.024,305.541,212.830C307.149,218.669,307.424,227.700,307.413,230.409C301.202,230.790,294.008,227.926,282.567,225.752C280.180,232.918,280.142,239.647,275.384,246.902C267.697,244.496,262.345,242.563,252.411,238.043C245.798,243.193,244.261,242.773,233.517,249.212C226.455,244.820,220.838,240.151,213.943,237.253C207.148,240.091,196.403,241.027,192.739,243.925C188.987,236.858,185.547,229.060,182.318,225.662C172.710,227.554,168.576,230.148,161.781,232.559C157.606,227.012,160.654,222.489,156.037,214.349C151.717,213.146,145.049,210.476,139.490,210.322C143.367,205.864,146.319,191.142,152.833,189.327C160.871,187.088,155.875,177.911,160.872,169.755C162.110,167.631,174.016,151.399,175.093,148.739C177.132,144.153,179.361,139.287,183.357,136.483M269.783,123.041C257.623,113.516,232.973,108.192,219.067,111.311C206.306,114.023,193.787,117.926,182.663,125.006C176.433,128.911,169.531,134.686,165.362,140.754C157.036,152.537,144.935,178.372,138.142,190.325C132.704,200.241,127.646,206.923,122.452,212.283C140.007,218.879,145.124,221.586,150.363,222.441C150.613,230.199,157.711,236.027,156.388,244.572C165.209,243.354,170.475,241.177,178.326,239.302C182.258,243.995,184.942,250.348,188.681,256.586C196.418,254.568,204.305,254.940,212.000,249.563C217.496,252.632,226.229,257.403,235.200,262.448C243.544,258.115,245.325,257.880,253.165,252.908C262.619,255.342,272.515,261.315,282.074,260.399C281.484,252.206,287.600,246.647,286.947,241.388C294.168,239.536,316.196,242.966,319.967,242.683C319.803,236.635,316.595,225.026,318.237,217.838C325.064,216.098,330.837,214.510,341.526,209.520C338.121,202.790,331.974,194.414,326.560,189.403C321.990,185.214,318.291,179.689,313.719,175.326C298.212,160.768,292.275,140.745,269.783,123.041Z"/>
<path class="path-11" d="M241.996,123.120C251.452,122.794,257.886,129.270,265.069,135.626"/>
<path class="path-11" d="M265.069,135.626C270.964,141.195,277.299,147.468,283.560,153.313"/>
<path class="path-11" d="M283.560,153.313C292.986,162.051,296.930,166.431,300.440,170.614"/>
<path class="path-11" d="M300.440,170.614C303.444,173.825,308.105,179.813,311.862,182.674"/>
<path class="path-11" d="M311.862,182.674C316.396,186.124,325.422,203.315,327.445,205.266"/>
<path class="path-11" d="M327.445,205.266C320.793,207.453,310.356,209.024,305.541,212.830"/>
<path class="path-11" d="M305.541,212.830C307.149,218.669,307.424,227.700,307.413,230.409"/>
<path class="path-11" d="M307.413,230.409C301.202,230.790,294.008,227.926,282.567,225.752"/>
<path class="path-11" d="M282.567,225.752C280.180,232.918,280.142,239.647,275.384,246.902"/>
<path class="path-11" d="M275.384,246.902C267.697,244.496,262.345,242.563,252.411,238.043"/>
<path class="path-11" d="M252.411,238.043C245.798,243.193,244.261,242.773,233.517,249.212"/>
<path class="path-11" d="M233.517,249.212C226.455,244.820,220.838,240.151,213.943,237.253"/>
<path class="path-11" d="M213.943,237.253C207.148,240.091,196.403,241.027,192.739,243.925"/>
<path class="path-11" d="M192.739,243.925C188.987,236.858,185.547,229.060,182.318,225.662"/>
<path class="path-11" d="M182.318,225.662C172.710,227.554,168.576,230.148,161.781,232.559"/>
<path class="path-11" d="M161.781,232.559C157.606,227.012,160.654,222.489,156.037,214.349"/>
<path class="path-11" d="M156.037,214.349C151.717,213.146,145.049,210.476,139.490,210.322"/>
<path class="path-11" d="M139.490,210.322C143.367,205.864,146.319,191.142,152.833,189.327"/>
<path class="path-11" d="M152.833,189.327C160.871,187.088,155.875,177.911,160.872,169.755"/>
<path class="path-11" d="M160.872,169.755C162.110,167.631,174.016,151.399,175.093,148.739"/>
<path class="path-11" d="M175.093,148.739C177.132,144.153,179.361,139.287,183.357,136.483"/>
<path class="path-11" d="M183.357,136.483C200.954,124.749,220.906,123.806,241.996,123.120"/>
<path class="path-12" d="M241.996,123.120C251.452,122.794,257.886,129.270,265.069,135.626C270.964,141.195,277.299,147.468,283.560,153.313C292.986,162.051,296.930,166.431,300.440,170.614C303.444,173.825,308.105,179.813,311.862,182.674C316.396,186.124,325.422,203.315,327.445,205.266C320.793,207.453,310.356,209.024,305.541,212.830C307.149,218.669,307.424,227.700,307.413,230.409C301.202,230.790,294.008,227.926,282.567,225.752C280.180,232.918,280.142,239.647,275.384,246.902C267.697,244.496,262.345,242.563,252.411,238.043C245.798,243.193,244.261,242.773,233.517,249.212C226.455,244.820,220.838,240.151,213.943,237.253C207.148,240.091,196.403,241.027,192.739,243.925C188.987,236.858,185.547,229.060,182.318,225.662C172.710,227.554,168.576,230.148,161.781,232.559C157.606,227.012,160.654,222.489,156.037,214.349C151.717,213.146,145.049,210.476,139.490,210.322C143.367,205.864,146.319,191.142,152.833,189.327C160.871,187.088,155.875,177.911,160.872,169.755C162.110,167.631,174.016,151.399,175.093,148.739C177.132,144.153,179.361,139.287,183.357,136.483C200.954,124.749,220.906,123.806,241.996,123.120Z"/>
</g>
<g id="clothes">
<path class="path-0" d="M243.659,369.981C238.998,367.902,221.050,359.678,218.175,364.126C215.742,368.150,220.371,369.050,224.430,369.581C228.025,370.051,246.182,378.217,248.649,376.634C253.207,373.634,245.912,370.870,243.659,369.981M191.093,266.179C194.088,253.538,221.037,240.563,234.012,241.561C242.994,242.226,271.274,256.199,275.266,264.517C278.592,271.170,279.590,295.789,279.924,304.107C280.257,319.412,281.070,334.757,282.253,350.019C283.832,362.560,286.813,374.879,289.573,387.214C290.133,393.516,293.674,410.308,287.710,413.897C279.992,419.055,261.399,405.487,253.973,401.253C227.586,387.148,229.712,385.028,201.674,383.887C198.243,383.617,187.111,386.612,184.772,385.285C180.778,382.368,182.444,376.634,183.442,371.977C186.436,360.333,189.762,352.680,191.427,340.038C193.423,324.069,194.088,306.768,194.088,290.134C193.755,284.145,190.429,269.839,191.093,266.179M269.943,247.549C253.640,237.899,237.670,229.915,218.042,235.573C212.718,236.902,186.103,249.877,183.773,253.205C180.115,258.529,183.773,278.821,183.773,286.141C184.107,294.791,184.440,303.774,183.773,312.092C183.442,318.413,182.111,324.069,182.111,330.057C181.777,336.710,182.444,344.030,180.780,350.019C177.454,361.663,163.299,383.737,176.456,393.270C181.696,397.096,190.237,395.263,197.016,396.264C207.914,397.660,219.533,399.978,230.019,403.783C240.343,407.855,247.896,417.735,258.698,420.816C266.969,423.176,294.615,428.220,300.484,421.283C304.448,416.807,299.865,390.408,298.688,383.754C295.718,370.645,293.004,357.395,291.567,344.031C290.618,332.087,289.239,320.410,289.904,308.100C290.237,298.119,291.900,288.471,291.900,278.157C291.567,273.831,292.234,268.510,289.904,264.184C285.912,256.199,277.263,251.873,269.943,247.549Z"/>
<path class="path-13" d="M243.659,369.981C238.998,367.902,221.050,359.678,218.175,364.126"/>
<path class="path-13" d="M218.175,364.126C215.742,368.150,220.371,369.050,224.430,369.581"/>
<path class="path-13" d="M224.430,369.581C228.025,370.051,246.182,378.217,248.649,376.634"/>
<path class="path-13" d="M248.649,376.634C253.207,373.634,245.912,370.870,243.659,369.981"/>
<path class="path-13" d="M191.093,266.179C194.088,253.538,221.037,240.563,234.012,241.561"/>
<path class="path-13" d="M234.012,241.561C242.994,242.226,271.274,256.199,275.266,264.517"/>
<path class="path-13" d="M275.266,264.517C278.592,271.170,279.590,295.789,279.924,304.107"/>
<path class="path-13" d="M279.924,304.107C280.257,319.412,281.070,334.757,282.253,350.019"/>
<path class="path-13" d="M282.253,350.019C283.832,362.560,286.813,374.879,289.573,387.214"/>
<path class="path-13" d="M289.573,387.214C290.133,393.516,293.674,410.308,287.710,413.897"/>
<path class="path-13" d="M287.710,413.897C279.992,419.055,261.399,405.487,253.973,401.253"/>
<path class="path-13" d="M253.973,401.253C227.586,387.148,229.712,385.028,201.674,383.887"/>
<path class="path-13" d="M201.674,383.887C198.243,383.617,187.111,386.612,184.772,385.285"/>
<path class="path-13" d="M184.772,385.285C180.778,382.368,182.444,376.634,183.442,371.977"/>
<path class="path-13" d="M183.442,371.977C186.436,360.333,189.762,352.680,191.427,340.038"/>
<path class="path-13" d="M191.427,340.038C193.423,324.069,194.088,306.768,194.088,290.134"/>
<path class="path-13" d="M194.088,290.134C193.755,284.145,190.429,269.839,191.093,266.179"/>
<path class="path-14" d="M243.659,369.981C238.998,367.902,221.050,359.678,218.175,364.126C215.742,368.150,220.371,369.050,224.430,369.581C228.025,370.051,246.182,378.217,248.649,376.634C253.207,373.634,245.912,370.870,243.659,369.981M191.093,266.179C194.088,253.538,221.037,240.563,234.012,241.561C242.994,242.226,271.274,256.199,275.266,264.517C278.592,271.170,279.590,295.789,279.924,304.107C280.257,319.412,281.070,334.757,282.253,350.019C283.832,362.560,286.813,374.879,289.573,387.214C290.133,393.516,293.674,410.308,287.710,413.897C279.992,419.055,261.399,405.487,253.973,401.253C227.586,387.148,229.712,385.028,201.674,383.887C198.243,383.617,187.111,386.612,184.772,385.285C180.778,382.368,182.444,376.634,183.442,371.977C186.436,360.333,189.762,352.680,191.427,340.038C193.423,324.069,194.088,306.768,194.088,290.134C193.755,284.145,190.429,269.839,191.093,266.179Z"/>
</g>
<g id="neck">
<path class="path-0" d="M229.021,222.597C229.354,219.269,230.353,216.275,234.012,215.942C245.656,213.946,244.657,251.542,234.012,251.542C224.031,251.542,228.356,228.917,229.021,222.597M234.012,206.628C231.351,206.295,228.357,206.959,226.027,208.291C216.711,212.948,218.042,221.599,218.042,230.248C217.708,234.574,218.042,238.567,216.046,242.226C214.383,245.553,209.724,248.879,209.724,252.540C210.057,262.521,237.006,262.521,243.993,262.188C246.653,262.187,255.636,263.185,256.634,259.526C256.634,258.528,249.981,246.883,248.983,242.226C245.989,228.252,255.305,207.626,234.012,206.628Z"/>
<path class="path-15" d="M234.012,215.942C245.656,213.946,244.657,251.542,234.012,251.542"/>
<path class="path-15" d="M234.012,251.542C224.031,251.542,228.356,228.917,229.021,222.597"/>
<path class="path-15" d="M229.021,222.597C229.354,219.269,230.353,216.275,234.012,215.942"/>
<path class="path-16" d="M234.012,215.942C245.656,213.946,244.657,251.542,234.012,251.542C224.031,251.542,228.356,228.917,229.021,222.597C229.354,219.269,230.353,216.275,234.012,215.942Z"/>
</g>
<g id="layer_head">
<g id="right_ear">
<path class="path-0" d="M147.588,193.935C134.828,195.648,120.166,158.852,138.664,162.398C142.842,163.194,145.410,170.543,146.090,173.711C147.805,181.428,156.419,192.774,147.588,193.935M144.334,150.635C140.982,148.692,136.906,147.950,133.372,149.538C123.006,152.333,118.046,164.737,119.773,175.389C121.941,187.908,134.998,202.371,146.524,204.940C149.596,205.642,155.918,207.827,158.899,206.345C165.524,202.525,159.709,192.221,157.859,186.512C155.914,180.035,149.312,154.791,144.334,150.635Z"/>
<path class="path-15" d="M138.664,162.398C142.842,163.194,145.410,170.543,146.090,173.711"/>
<path class="path-15" d="M146.090,173.711C147.805,181.428,156.419,192.774,147.588,193.935"/>
<path class="path-15" d="M147.588,193.935C134.828,195.648,120.166,158.852,138.664,162.398"/>
<path class="path-16" d="M138.664,162.398C142.842,163.194,145.410,170.543,146.090,173.711C147.805,181.428,156.419,192.774,147.588,193.935C134.828,195.648,120.166,158.852,138.664,162.398Z"/>
</g>
<g id="face_Mask">
<g id="face">
<path class="path-0" d="M162.283,105.013C170.769,94.565,203.538,87.380,217.178,85.384C232.483,83.387,248.119,85.717,263.090,90.374C268.414,92.038,276.116,93.971,280.722,97.694C288.465,103.999,292.878,115.350,295.642,124.537C297.824,131.165,301.943,139.924,300.351,146.323C293.374,174.368,288.274,186.999,282.826,194.905C275.921,204.924,263.298,208.932,252.355,214.015C238.420,220.248,224.187,223.657,216.682,223.352C204.060,222.838,177.014,215.363,168.046,207.251C159.142,198.888,158.384,186.797,155.351,175.498C152.989,167.673,149.724,155.720,148.589,147.792C147.172,136.651,155.298,113.535,162.283,105.013M284.740,90.018C271.167,77.748,234.855,74.987,217.221,77.630C208.901,78.620,200.915,79.279,193.262,81.270C187.602,82.932,182.607,85.590,177.280,87.253C165.634,91.578,160.822,90.139,152.992,100.904C147.369,108.439,139.068,138.091,139.554,147.322C140.038,154.227,145.027,170.249,146.878,178.092C149.122,187.847,151.427,201.453,157.162,209.222C162.749,216.565,170.339,221.035,182.457,225.541C194.474,230.010,208.005,232.857,221.185,233.642C227.871,234.453,240.562,230.553,258.198,222.123C269.883,216.358,282.179,210.584,290.027,199.103C298.818,186.240,304.388,166.887,311.212,145.497C317.352,126.254,293.151,97.457,284.740,90.018Z"/>
<path class="path-15" d="M217.178,85.384C232.483,83.387,248.119,85.717,263.090,90.374"/>
<path class="path-15" d="M263.090,90.374C268.414,92.038,276.116,93.971,280.722,97.694"/>
<path class="path-15" d="M280.722,97.694C288.465,103.999,292.878,115.350,295.642,124.537"/>
<path class="path-15" d="M295.642,124.537C297.824,131.165,301.943,139.924,300.351,146.323"/>
<path class="path-15" d="M300.351,146.323C293.374,174.368,288.274,186.999,282.826,194.905"/>
<path class="path-15" d="M282.826,194.905C275.921,204.924,263.298,208.932,252.355,214.015"/>
<path class="path-15" d="M252.355,214.015C238.420,220.248,224.187,223.657,216.682,223.352"/>
<path class="path-15" d="M216.682,223.352C204.060,222.838,177.014,215.363,168.046,207.251"/>
<path class="path-15" d="M168.046,207.251C159.142,198.888,158.384,186.797,155.351,175.498"/>
<path class="path-15" d="M155.351,175.498C152.989,167.673,149.724,155.720,148.589,147.792"/>
<path class="path-15" d="M148.589,147.792C147.172,136.651,155.298,113.535,162.283,105.013"/>
<path class="path-15" d="M162.283,105.013C170.769,94.565,203.538,87.380,217.178,85.384"/>
<path class="path-16" d="M217.178,85.384C232.483,83.387,248.119,85.717,263.090,90.374C268.414,92.038,276.116,93.971,280.722,97.694C288.465,103.999,292.878,115.350,295.642,124.537C297.824,131.165,301.943,139.924,300.351,146.323C293.374,174.368,288.274,186.999,282.826,194.905C275.921,204.924,263.298,208.932,252.355,214.015C238.420,220.248,224.187,223.657,216.682,223.352C204.060,222.838,177.014,215.363,168.046,207.251C159.142,198.888,158.384,186.797,155.351,175.498C152.989,167.673,149.724,155.720,148.589,147.792C147.172,136.651,155.298,113.535,162.283,105.013C170.769,94.565,203.538,87.380,217.178,85.384Z"/>
</g>
</g>
<mask id="mask_target" style="mask-type:alpha;">
<use xlink:href="#face_Mask"/>
</mask>
<g id="mouse">
<path class="path-0" d="M220.804,214.215C226.008,215.318,226.092,220.072,225.618,220.579C225.351,220.865,224.228,219.914,221.268,219.427C215.662,218.505,212.956,219.678,212.759,218.963C212.542,218.180,214.711,212.923,220.804,214.215Z"/>
</g>
<g id="layer_eyes_Mtarget" mask="url(#mask_target)">
<g id="eyes">
<mask style="mask-type:alpha;" id="f3906406-f197-4bf1-91d8-744c09cca836">
<use xlink:href="#cmn_f3906406-f197-4bf1-91d8-744c09cca836"/>
</mask>
<g id="cmn_f3906406-f197-4bf1-91d8-744c09cca836">
<path class="path-0" d="M194.552,174.543C196.609,185.576,189.236,193.447,179.545,191.923C172.976,190.738,169.567,185.037,167.406,178.915C166.028,175.458,160.314,159.315,165.435,161.556C169.082,163.153,193.850,170.780,194.552,174.543M201.510,177.737C202.240,176.201,203.227,173.878,202.832,172.224C202.420,170.501,200.778,167.928,198.991,167.740C194.209,167.129,177.934,160.064,171.922,157.730C166.648,155.790,155.043,148.876,150.960,153.670C147.958,157.066,153.148,159.080,154.816,165.177C159.282,181.505,168.680,198.533,183.865,198.040C198.025,197.580,198.048,185.026,201.510,177.737M245.195,188.165C237.949,187.999,228.220,182.542,228.413,171.249C228.470,167.945,241.944,162.974,247.987,159.873C254.089,156.741,265.705,150.418,268.846,150.516C272.336,151.045,270.710,154.111,270.775,163.755C270.855,175.496,258.180,188.463,245.195,188.165M277.328,170.074C280.788,158.161,280.766,141.945,278.440,140.867C273.340,138.502,260.124,147.868,252.424,151.228C242.623,155.504,226.993,164.599,220.255,166.583C218.214,167.264,216.361,167.779,216.059,169.237C215.478,172.055,220.776,174.024,222.618,176.234C225.726,179.965,227.091,186.515,232.154,189.316C242.346,195.376,249.931,193.732,261.376,189.098C269.422,185.871,275.141,177.607,277.328,170.074Z"/>
<path class="path-17" d="M268.846,150.516C272.336,151.045,270.710,154.111,270.775,163.755"/>
<path class="path-17" d="M270.775,163.755C270.855,175.496,258.180,188.463,245.195,188.165"/>
<path class="path-17" d="M245.195,188.165C237.949,187.999,228.220,182.542,228.413,171.249"/>
<path class="path-17" d="M228.413,171.249C228.470,167.945,241.944,162.974,247.987,159.873"/>
<path class="path-17" d="M247.987,159.873C254.089,156.741,265.705,150.418,268.846,150.516"/>
<path class="path-18" d="M268.846,150.516C272.336,151.045,270.710,154.111,270.775,163.755C270.855,175.496,258.180,188.463,245.195,188.165C237.949,187.999,228.220,182.542,228.413,171.249C228.470,167.945,241.944,162.974,247.987,159.873C254.089,156.741,265.705,150.418,268.846,150.516Z"/>
<path class="path-17" d="M165.435,161.556C169.082,163.153,193.850,170.780,194.552,174.543"/>
<path class="path-17" d="M194.552,174.543C196.609,185.576,189.236,193.447,179.545,191.923"/>
<path class="path-17" d="M179.545,191.923C172.976,190.738,169.567,185.037,167.406,178.915"/>
<path class="path-17" d="M167.406,178.915C166.028,175.458,160.314,159.315,165.435,161.556"/>
<path class="path-18" d="M165.435,161.556C169.082,163.153,193.850,170.780,194.552,174.543C196.609,185.576,189.236,193.447,179.545,191.923C172.976,190.738,169.567,185.037,167.406,178.915C166.028,175.458,160.314,159.315,165.435,161.556Z"/>
</g>
</g>
<g id="pupil">
<path class="path-0" d="M233.083,164.552C235.424,163.987,238.379,167.446,239.117,176.101C239.622,182.026,238.273,184.442,236.640,184.670C234.747,184.935,233.095,182.297,231.812,175.520C230.443,168.288,231.099,165.031,233.083,164.552Z" mask="url(#f3906406-f197-4bf1-91d8-744c09cca836)"/>
<path class="path-0" d="M187.770,167.360C190.108,166.938,191.821,170.866,192.757,179.672C193.282,184.608,192.982,186.683,191.699,187.043C190.163,187.473,188.251,185.404,186.688,179.672C184.520,171.723,185.594,167.753,187.770,167.360Z" mask="url(#f3906406-f197-4bf1-91d8-744c09cca836)"/>
</g>
</g>
<g id="hat">
<path class="path-0" d="M300.397,124.530C302.501,125.683,305.357,128.185,305.731,130.843C307.179,137.227,296.137,136.938,292.767,137.303C286.289,137.356,279.522,137.058,273.332,137.045C267.872,137.529,262.395,137.761,256.922,138.067C246.085,137.829,235.287,136.911,224.457,136.516C210.533,136.554,196.856,136.066,182.714,135.895C181.149,135.929,147.098,139.703,141.166,136.739C131.425,131.982,141.011,124.260,140.540,119.498C140.466,116.155,133.282,115.256,135.068,109.471C136.785,104.207,155.254,100.130,160.788,98.904C172.565,96.227,184.721,92.849,197.205,91.144C214.227,88.938,231.436,89.647,248.714,88.406C263.428,87.449,296.535,93.891,304.695,108.887C310.240,118.806,293.014,109.777,291.032,109.222C287.355,107.022,273.866,101.298,278.283,108.610C281.276,115.274,294.895,120.809,300.397,124.530M184.071,85.600C173.356,87.573,163.464,88.810,153.259,91.095C148.975,92.043,143.888,94.264,139.806,92.674C130.763,89.328,141.340,66.555,145.478,60.994C159.993,41.985,190.561,33.216,215.699,33.482C261.218,33.964,278.976,41.895,293.575,57.608C298.143,62.171,313.843,84.605,304.984,90.582C301.672,92.514,295.736,88.733,292.798,87.371C282.656,82.927,235.516,76.122,184.071,85.600M249.762,25.991C239.448,24.447,235.987,21.573,224.592,22.082C193.406,23.873,152.907,27.633,134.174,57.180C128.217,66.814,127.707,77.711,125.455,88.007C123.664,96.024,118.843,102.092,119.531,110.183C120.330,117.302,123.551,118.988,125.584,124.525C127.920,130.390,126.051,133.045,127.456,136.855C130.359,147.886,140.417,147.923,149.856,148.079C154.629,148.159,172.239,147.936,181.831,147.824C193.405,147.689,208.835,147.376,220.409,147.223C229.972,147.097,242.724,147.097,252.285,146.874C261.101,146.668,272.865,146.456,281.661,145.829C291.571,145.124,313.425,143.463,314.587,142.278C316.613,140.249,320.695,120.330,320.820,116.598C320.937,113.083,319.313,109.515,319.540,103.883C319.782,90.063,319.937,77.315,312.828,64.046C299.836,40.291,273.979,30.137,249.762,25.991Z"/>
<path class="path-19" d="M248.714,88.406C263.428,87.449,296.535,93.891,304.695,108.887"/>
<path class="path-19" d="M304.695,108.887C310.240,118.806,293.014,109.777,291.032,109.222"/>
<path class="path-19" d="M291.032,109.222C287.355,107.022,273.866,101.298,278.283,108.610"/>
<path class="path-19" d="M278.283,108.610C281.276,115.274,294.895,120.809,300.397,124.530"/>
<path class="path-19" d="M300.397,124.530C302.501,125.683,305.357,128.185,305.731,130.843"/>
<path class="path-19" d="M305.731,130.843C307.179,137.227,296.137,136.938,292.767,137.303"/>
<path class="path-19" d="M292.767,137.303C286.289,137.356,279.522,137.058,273.332,137.045"/>
<path class="path-19" d="M273.332,137.045C267.872,137.529,262.395,137.761,256.922,138.067"/>
<path class="path-19" d="M256.922,138.067C246.085,137.829,235.287,136.911,224.457,136.516"/>
<path class="path-19" d="M224.457,136.516C210.533,136.554,196.856,136.066,182.714,135.895"/>
<path class="path-19" d="M182.714,135.895C181.149,135.929,147.098,139.703,141.166,136.739"/>
<path class="path-19" d="M141.166,136.739C131.425,131.982,141.011,124.260,140.540,119.498"/>
<path class="path-19" d="M140.540,119.498C140.466,116.155,133.282,115.256,135.068,109.471"/>
<path class="path-19" d="M135.068,109.471C136.785,104.207,155.254,100.130,160.788,98.904"/>
<path class="path-19" d="M160.788,98.904C172.565,96.227,184.721,92.849,197.205,91.144"/>
<path class="path-19" d="M197.205,91.144C214.227,88.938,231.436,89.647,248.714,88.406"/>
<path class="path-20" d="M248.714,88.406C263.428,87.449,296.535,93.891,304.695,108.887C310.240,118.806,293.014,109.777,291.032,109.222C287.355,107.022,273.866,101.298,278.283,108.610C281.276,115.274,294.895,120.809,300.397,124.530C302.501,125.683,305.357,128.185,305.731,130.843C307.179,137.227,296.137,136.938,292.767,137.303C286.289,137.356,279.522,137.058,273.332,137.045C267.872,137.529,262.395,137.761,256.922,138.067C246.085,137.829,235.287,136.911,224.457,136.516C210.533,136.554,196.856,136.066,182.714,135.895C181.149,135.929,147.098,139.703,141.166,136.739C131.425,131.982,141.011,124.260,140.540,119.498C140.466,116.155,133.282,115.256,135.068,109.471C136.785,104.207,155.254,100.130,160.788,98.904C172.565,96.227,184.721,92.849,197.205,91.144C214.227,88.938,231.436,89.647,248.714,88.406Z"/>
<path class="path-9" d="M215.699,33.482C261.218,33.964,278.976,41.895,293.575,57.608"/>
<path class="path-9" d="M293.575,57.608C298.143,62.171,313.843,84.605,304.984,90.582"/>
<path class="path-9" d="M304.984,90.582C301.672,92.514,295.736,88.733,292.798,87.371"/>
<path class="path-9" d="M292.798,87.371C282.656,82.927,235.516,76.122,184.071,85.600"/>
<path class="path-9" d="M184.071,85.600C173.356,87.573,163.464,88.810,153.259,91.095"/>
<path class="path-9" d="M153.259,91.095C148.975,92.043,143.888,94.264,139.806,92.674"/>
<path class="path-9" d="M139.806,92.674C130.763,89.328,141.340,66.555,145.478,60.994"/>
<path class="path-9" d="M145.478,60.994C159.993,41.985,190.561,33.216,215.699,33.482"/>
<path class="path-10" d="M215.699,33.482C261.218,33.964,278.976,41.895,293.575,57.608C298.143,62.171,313.843,84.605,304.984,90.582C301.672,92.514,295.736,88.733,292.798,87.371C282.656,82.927,235.516,76.122,184.071,85.600C173.356,87.573,163.464,88.810,153.259,91.095C148.975,92.043,143.888,94.264,139.806,92.674C130.763,89.328,141.340,66.555,145.478,60.994C159.993,41.985,190.561,33.216,215.699,33.482Z"/>
</g>
<g id="left_ear">
<path class="path-0" d="M293.574,186.326C292.273,181.936,298.193,156.104,300.085,153.035C305.294,144.458,320.270,154.170,322.716,161.620C325.397,170.391,314.967,182.318,307.836,188.084C301.486,193.060,295.598,193.019,293.574,186.326M333.798,165.133C333.716,151.398,318.696,135.506,306.096,140.695C291.628,146.653,295.037,167.413,291.986,180.001C291.092,184.169,288.190,188.308,288.622,192.340C289.403,200.944,296.826,204.690,305.234,199.712C316.577,192.839,333.455,179.222,333.798,165.133Z"/>
<path class="path-15" d="M300.085,153.035C305.294,144.458,320.270,154.170,322.716,161.620"/>
<path class="path-15" d="M322.716,161.620C325.397,170.391,314.967,182.318,307.836,188.084"/>
<path class="path-15" d="M307.836,188.084C301.486,193.060,295.598,193.019,293.574,186.326"/>
<path class="path-15" d="M293.574,186.326C292.273,181.936,298.193,156.104,300.085,153.035"/>
<path class="path-16" d="M300.085,153.035C305.294,144.458,320.270,154.170,322.716,161.620C325.397,170.391,314.967,182.318,307.836,188.084C301.486,193.060,295.598,193.019,293.574,186.326C292.273,181.936,298.193,156.104,300.085,153.035Z"/>
</g>
<g id="earrings">
<path class="path-0" d="M314.896,205.499C306.078,208.937,304.349,189.755,308.016,190.225C313.117,192.159,318.481,201.364,314.896,205.499M323.932,197.584C317.093,197.222,314.415,188.347,314.044,184.435C321.633,186.453,331.024,192.564,323.932,197.584M333.106,193.166C330.671,185.251,319.144,180.247,311.462,177.197C308.860,176.163,302.255,185.589,301.895,188.512C300.790,192.460,301.492,214.635,315.064,212.324C320.664,211.115,335.071,199.553,333.106,193.166Z"/>
<path class="path-21" d="M314.044,184.435C321.633,186.453,331.024,192.564,323.932,197.584"/>
<path class="path-21" d="M323.932,197.584C317.093,197.222,314.415,188.347,314.044,184.435"/>
<path class="path-22" d="M314.044,184.435C321.633,186.453,331.024,192.564,323.932,197.584C317.093,197.222,314.415,188.347,314.044,184.435Z"/>
<path class="path-21" d="M308.016,190.225C313.117,192.159,318.481,201.364,314.896,205.499"/>
<path class="path-21" d="M314.896,205.499C306.078,208.937,304.349,189.755,308.016,190.225"/>
<path class="path-22" d="M308.016,190.225C313.117,192.159,318.481,201.364,314.896,205.499C306.078,208.937,304.349,189.755,308.016,190.225Z"/>
</g>
</g>
<g id="jacket">
<path class="path-0" d="M202.406,270.837C205.067,275.163,202.406,285.477,202.406,290.134C200.410,307.101,197.434,323.354,197.747,340.038C197.941,344.002,196.702,350.935,194.788,355.134C193.407,358.164,190.876,362.780,188.100,363.993C184.682,365.424,183.260,358.690,182.335,355.842C181.055,351.902,182.193,344.657,182.444,342.034C183.272,336.825,185.842,326.728,185.696,320.076C185.603,313.545,182.090,307.285,181.406,300.115C180.460,294.759,179.024,288.443,177.893,282.483C177.924,279.336,178.455,277.386,178.523,275.162C178.186,269.677,180.854,268.284,186.103,267.842C190.946,267.780,200.741,265.515,202.406,270.837M258.630,280.487C260.295,276.825,286.209,259.286,289.571,257.530C297.900,253.674,302.055,262.954,301.990,268.356C301.998,277.059,287.239,305.737,288.907,311.758C289.484,314.441,291.567,315.751,293.232,317.416C306.207,331.721,300.219,323.071,313.859,329.392C320.181,332.387,332.072,341.144,337.479,345.362C340.816,348.301,348.479,354.753,350.343,358.483C351.437,361.257,352.451,366.397,348.235,367.577C346.754,368.194,330.582,367.236,327.832,367.320C315.507,367.027,302.215,367.651,291.900,359.335C288.573,356.341,285.912,352.015,283.251,348.023C273.602,334.049,266.949,318.413,261.958,302.111C259.962,296.456,256.634,286.475,258.630,280.487M275.230,255.283C272.183,258.419,266.125,263.498,263.954,264.517C256.051,267.722,254.494,258.172,253.973,252.207C253.708,247.057,256.679,239.764,259.756,235.414C262.467,231.581,266.838,226.324,271.938,225.592C278.373,224.434,289.284,231.254,287.908,238.566C287.494,241.924,279.616,250.769,275.230,255.283M193.136,233.676C198.052,237.591,201.611,242.294,200.791,246.769C200.019,250.988,196.955,253.371,189.763,255.866C178.455,259.789,169.485,242.438,172.988,235.284C175.654,229.838,186.815,228.642,193.136,233.676M364.535,364.392C360.620,358.218,358.703,353.558,353.448,348.023C345.428,339.739,335.816,330.391,325.835,324.734C315.854,319.412,307.900,321.012,301.217,310.096C295.344,300.868,299.587,290.545,301.064,280.153C301.429,276.460,302.038,257.588,302.107,254.203C301.656,250.792,302.060,247.348,301.548,244.222C301.042,240.362,301.548,236.237,300.218,232.578C298.222,225.923,291.236,222.929,285.912,219.603C278.592,215.611,272.268,213.715,263.954,215.611C254.842,217.700,251.739,227.853,249.173,234.602C245.263,244.887,247.348,260.257,247.762,271.253C247.999,277.547,249.081,286.270,249.981,292.130C253.108,314.875,276.596,362.995,297.889,371.977C302.546,374.307,333.950,378.532,343.801,378.630C349.928,378.722,353.052,378.574,358.620,380.696C361.340,381.855,368.082,385.306,370.710,382.580C374.644,378.758,366.685,367.784,364.535,364.392M207.065,233.565C203.773,227.822,198.342,218.282,191.571,217.851C185.171,217.649,175.443,218.962,169.647,222.351C166.155,224.393,160.863,228.165,160.487,232.245C159.787,238.326,162.371,245.593,165.457,250.281C167.228,252.972,171.520,254.876,173.609,257.269C174.707,258.596,178.824,265.900,179.562,267.903C183.619,278.046,179.189,290.113,178.598,299.612C178.106,307.515,176.787,318.000,176.153,325.893C175.428,334.919,174.821,346.159,174.126,356.007C173.842,358.279,173.775,363.345,174.012,366.477C174.260,369.758,174.119,375.887,175.789,377.301C176.633,378.016,186.815,379.404,190.981,377.555C195.190,375.686,198.563,375.559,201.074,365.988C203.959,353.823,205.732,342.699,206.065,330.057C206.065,308.433,212.464,279.358,211.720,266.179C211.381,260.167,212.437,256.170,211.191,247.783C210.571,244.324,209.273,237.419,207.065,233.565Z"/>
<path class="path-1" d="M289.571,257.530C297.900,253.674,302.055,262.954,301.990,268.356"/>
<path class="path-1" d="M301.990,268.356C301.998,277.059,287.239,305.737,288.907,311.758"/>
<path class="path-1" d="M288.907,311.758C289.484,314.441,291.567,315.751,293.232,317.416"/>
<path class="path-1" d="M293.232,317.416C306.207,331.721,300.219,323.071,313.859,329.392"/>
<path class="path-1" d="M313.859,329.392C320.181,332.387,332.072,341.144,337.479,345.362"/>
<path class="path-1" d="M337.479,345.362C340.816,348.301,348.479,354.753,350.343,358.483"/>
<path class="path-1" d="M350.343,358.483C351.437,361.257,352.451,366.397,348.235,367.577"/>
<path class="path-1" d="M348.235,367.577C346.754,368.194,330.582,367.236,327.832,367.320"/>
<path class="path-1" d="M327.832,367.320C315.507,367.027,302.215,367.651,291.900,359.335"/>
<path class="path-1" d="M291.900,359.335C288.573,356.341,285.912,352.015,283.251,348.023"/>
<path class="path-1" d="M283.251,348.023C273.602,334.049,266.949,318.413,261.958,302.111"/>
<path class="path-1" d="M261.958,302.111C259.962,296.456,256.634,286.475,258.630,280.487"/>
<path class="path-1" d="M258.630,280.487C260.295,276.825,286.209,259.286,289.571,257.530"/>
<path class="path-2" d="M289.571,257.530C297.900,253.674,302.055,262.954,301.990,268.356C301.998,277.059,287.239,305.737,288.907,311.758C289.484,314.441,291.567,315.751,293.232,317.416C306.207,331.721,300.219,323.071,313.859,329.392C320.181,332.387,332.072,341.144,337.479,345.362C340.816,348.301,348.479,354.753,350.343,358.483C351.437,361.257,352.451,366.397,348.235,367.577C346.754,368.194,330.582,367.236,327.832,367.320C315.507,367.027,302.215,367.651,291.900,359.335C288.573,356.341,285.912,352.015,283.251,348.023C273.602,334.049,266.949,318.413,261.958,302.111C259.962,296.456,256.634,286.475,258.630,280.487C260.295,276.825,286.209,259.286,289.571,257.530Z"/>
<path class="path-1" d="M186.103,267.842C190.946,267.780,200.741,265.515,202.406,270.837"/>
<path class="path-1" d="M202.406,270.837C205.067,275.163,202.406,285.477,202.406,290.134"/>
<path class="path-1" d="M202.406,290.134C200.410,307.101,197.434,323.354,197.747,340.038"/>
<path class="path-1" d="M197.747,340.038C197.941,344.002,196.702,350.935,194.788,355.134"/>
<path class="path-1" d="M194.788,355.134C193.407,358.164,190.876,362.780,188.100,363.993"/>
<path class="path-1" d="M188.100,363.993C184.682,365.424,183.260,358.690,182.335,355.842"/>
<path class="path-1" d="M182.335,355.842C181.055,351.902,182.193,344.657,182.444,342.034"/>
<path class="path-1" d="M182.444,342.034C183.272,336.825,185.842,326.728,185.696,320.076"/>
<path class="path-1" d="M185.696,320.076C185.603,313.545,182.090,307.285,181.406,300.115"/>
<path class="path-1" d="M181.406,300.115C180.460,294.759,179.024,288.443,177.893,282.483"/>
<path class="path-1" d="M177.893,282.483C177.924,279.336,178.455,277.386,178.523,275.162"/>
<path class="path-1" d="M178.523,275.162C178.186,269.677,180.854,268.284,186.103,267.842"/>
<path class="path-2" d="M186.103,267.842C190.946,267.780,200.741,265.515,202.406,270.837C205.067,275.163,202.406,285.477,202.406,290.134C200.410,307.101,197.434,323.354,197.747,340.038C197.941,344.002,196.702,350.935,194.788,355.134C193.407,358.164,190.876,362.780,188.100,363.993C184.682,365.424,183.260,358.690,182.335,355.842C181.055,351.902,182.193,344.657,182.444,342.034C183.272,336.825,185.842,326.728,185.696,320.076C185.603,313.545,182.090,307.285,181.406,300.115C180.460,294.759,179.024,288.443,177.893,282.483C177.924,279.336,178.455,277.386,178.523,275.162C178.186,269.677,180.854,268.284,186.103,267.842Z"/>
<path class="path-1" d="M271.938,225.592C278.373,224.434,289.284,231.254,287.908,238.566"/>
<path class="path-1" d="M287.908,238.566C287.494,241.924,279.616,250.769,275.230,255.283"/>
<path class="path-1" d="M275.230,255.283C272.183,258.419,266.125,263.498,263.954,264.517"/>
<path class="path-1" d="M263.954,264.517C256.051,267.722,254.494,258.172,253.973,252.207"/>
<path class="path-1" d="M253.973,252.207C253.708,247.057,256.679,239.764,259.756,235.414"/>
<path class="path-1" d="M259.756,235.414C262.467,231.581,266.838,226.324,271.938,225.592"/>
<path class="path-2" d="M271.938,225.592C278.373,224.434,289.284,231.254,287.908,238.566C287.494,241.924,279.616,250.769,275.230,255.283C272.183,258.419,266.125,263.498,263.954,264.517C256.051,267.722,254.494,258.172,253.973,252.207C253.708,247.057,256.679,239.764,259.756,235.414C262.467,231.581,266.838,226.324,271.938,225.592Z"/>
<path class="path-1" d="M193.136,233.676C198.052,237.591,201.611,242.294,200.791,246.769"/>
<path class="path-1" d="M200.791,246.769C200.019,250.988,196.955,253.371,189.763,255.866"/>
<path class="path-1" d="M189.763,255.866C178.455,259.789,169.485,242.438,172.988,235.284"/>
<path class="path-1" d="M172.988,235.284C175.654,229.838,186.815,228.642,193.136,233.676"/>
<path class="path-2" d="M193.136,233.676C198.052,237.591,201.611,242.294,200.791,246.769C200.019,250.988,196.955,253.371,189.763,255.866C178.455,259.789,169.485,242.438,172.988,235.284C175.654,229.838,186.815,228.642,193.136,233.676Z"/>
</g>
<g id="left_arm">
<path class="path-0" d="M290.902,459.809C287.575,454.485,286.245,445.502,293.897,443.175C299.221,441.510,323.174,446.834,327.167,450.826C334.153,457.148,330.161,471.786,321.510,475.113C311.529,478.439,296.226,468.127,290.902,459.809M279.516,276.423C280.393,273.226,288.864,263.064,293.897,264.184C296.819,264.834,298.222,269.839,299.220,272.502C301.881,280.818,304.543,289.469,306.872,298.119C313.194,320.741,317.518,343.366,322.177,365.988C323.839,375.305,323.839,387.613,327.167,395.931C331.159,405.579,337.479,402.253,340.474,408.573C341.805,411.567,341.140,417.224,343.136,421.881C346.130,429.201,351.785,433.194,354.446,437.851C356.111,440.512,356.776,443.506,353.117,444.173C351.121,445.171,345.797,444.173,343.801,444.173C337.144,442.402,330.490,440.627,323.840,438.849C314.857,436.852,287.575,435.521,282.918,429.533C275.931,420.218,286.910,409.240,288.242,399.924C288.907,396.930,292.189,352.967,291.567,350.019C290.899,343.164,287.387,337.131,285.841,330.057C284.214,320.430,282.539,310.147,281.179,300.115C280.223,291.877,276.733,285.067,279.516,276.423M305.541,254.536C303.213,249.877,295.893,241.561,289.904,242.890C284.914,244.222,284.249,250.210,283.582,254.203C281.920,264.184,279.924,272.502,279.924,282.149C279.590,289.136,280.257,295.458,280.921,302.111C281.586,311.427,279.590,329.392,279.924,340.038C279.924,349.686,282.253,359.667,281.586,367.985C279.590,387.613,271.273,406.246,271.938,425.874C271.939,435.855,274.600,435.855,276.929,443.840C278.592,449.828,277.263,456.150,279.590,461.805C285.579,476.776,302.880,490.416,319.847,487.091C335.483,484.096,336.150,467.129,344.466,458.146C351.786,450.161,366.424,454.154,368.420,445.835C370.416,438.849,360.769,431.198,357.110,425.874C349.790,415.893,355.445,413.563,351.786,405.912C349.125,400.257,341.471,395.267,337.813,387.947C335.816,384.619,334.819,378.299,333.487,373.973C330.826,363.992,327.831,352.680,326.169,342.034C324.504,329.724,324.173,318.745,320.845,306.103C318.184,295.458,310.200,262.852,305.541,254.536Z"/>
<path class="path-1" d="M293.897,264.184C296.819,264.834,298.222,269.839,299.220,272.502"/>
<path class="path-1" d="M299.220,272.502C301.881,280.818,304.543,289.469,306.872,298.119"/>
<path class="path-1" d="M306.872,298.119C313.194,320.741,317.518,343.366,322.177,365.988"/>
<path class="path-1" d="M322.177,365.988C323.839,375.305,323.839,387.613,327.167,395.931"/>
<path class="path-1" d="M327.167,395.931C331.159,405.579,337.479,402.253,340.474,408.573"/>
<path class="path-1" d="M340.474,408.573C341.805,411.567,341.140,417.224,343.136,421.881"/>
<path class="path-1" d="M343.136,421.881C346.130,429.201,351.785,433.194,354.446,437.851"/>
<path class="path-1" d="M354.446,437.851C356.111,440.512,356.776,443.506,353.117,444.173"/>
<path class="path-1" d="M353.117,444.173C351.121,445.171,345.797,444.173,343.801,444.173"/>
<path class="path-1" d="M343.801,444.173C337.144,442.402,330.490,440.627,323.840,438.849"/>
<path class="path-1" d="M323.840,438.849C314.857,436.852,287.575,435.521,282.918,429.533"/>
<path class="path-1" d="M282.918,429.533C275.931,420.218,286.910,409.240,288.242,399.924"/>
<path class="path-1" d="M288.242,399.924C288.907,396.930,292.189,352.967,291.567,350.019"/>
<path class="path-1" d="M291.567,350.019C290.899,343.164,287.387,337.131,285.841,330.057"/>
<path class="path-1" d="M285.841,330.057C284.214,320.430,282.539,310.147,281.179,300.115"/>
<path class="path-1" d="M281.179,300.115C280.223,291.877,276.733,285.067,279.516,276.423"/>
<path class="path-1" d="M279.516,276.423C280.393,273.226,288.864,263.064,293.897,264.184"/>
<path class="path-2" d="M293.897,264.184C296.819,264.834,298.222,269.839,299.220,272.502C301.881,280.818,304.543,289.469,306.872,298.119C313.194,320.741,317.518,343.366,322.177,365.988C323.839,375.305,323.839,387.613,327.167,395.931C331.159,405.579,337.479,402.253,340.474,408.573C341.805,411.567,341.140,417.224,343.136,421.881C346.130,429.201,351.785,433.194,354.446,437.851C356.111,440.512,356.776,443.506,353.117,444.173C351.121,445.171,345.797,444.173,343.801,444.173C337.144,442.402,330.490,440.627,323.840,438.849C314.857,436.852,287.575,435.521,282.918,429.533C275.931,420.218,286.910,409.240,288.242,399.924C288.907,396.930,292.189,352.967,291.567,350.019C290.899,343.164,287.387,337.131,285.841,330.057C284.214,320.430,282.539,310.147,281.179,300.115C280.223,291.877,276.733,285.067,279.516,276.423C280.393,273.226,288.864,263.064,293.897,264.184Z"/>
<path class="path-15" d="M293.897,443.175C299.221,441.510,323.174,446.834,327.167,450.826"/>
<path class="path-15" d="M327.167,450.826C334.153,457.148,330.161,471.786,321.510,475.113"/>
<path class="path-15" d="M321.510,475.113C311.529,478.439,296.226,468.127,290.902,459.809"/>
<path class="path-15" d="M290.902,459.809C287.575,454.485,286.245,445.502,293.897,443.175"/>
<path class="path-16" d="M293.897,443.175C299.221,441.510,323.174,446.834,327.167,450.826C334.153,457.148,330.161,471.786,321.510,475.113C311.529,478.439,296.226,468.127,290.902,459.809C287.575,454.485,286.245,445.502,293.897,443.175Z"/>
</g>
<g id="bone">
<g id="bone_B20">
<path class="path-23" d="M223.076,133.323C221.083,121.513,219.089,109.703,217.095,97.893"/>
</g>
<g id="bone_">
<path class="path-23" d="M552.381,338.786C562.343,316.971,572.306,295.157,582.268,273.342"/>
</g>
<g id="bone_">
<path class="path-23" d="M496.479,337.308C496.479,313.696,496.479,290.084,496.479,266.472"/>
</g>
<g id="bone_">
<path class="path-23" d="M436.410,337.308C436.410,313.696,436.410,290.084,436.410,266.472"/>
</g>
<g id="bone_">
<path class="path-23" d="M604.616,215.385C604.616,191.773,604.616,168.161,604.616,144.549"/>
</g>
<g id="bone_">
<path class="path-23" d="M436.410,216.411C436.410,192.799,436.410,169.186,436.410,145.574"/>
</g>
<g id="bone_">
<path class="path-23" d="M551.282,215.385C551.282,191.773,551.282,168.161,551.282,144.549"/>
</g>
<g id="bone_">
<path class="path-23" d="M495.897,216.411C495.897,192.799,495.897,169.186,495.897,145.574"/>
</g>
<g id="bone_B18">
<path class="path-23" d="M216.923,386.667C212.820,418.803,208.718,450.940,204.615,483.077"/>
</g>
<g id="bone_B17">
<path class="path-23" d="M263.077,386.667C265.762,419.933,268.447,453.200,271.131,486.467"/>
</g>
<g id="bone_B16">
<path class="path-23" d="M227.342,158.587C231.497,183.199,235.652,207.810,239.807,232.421"/>
</g>
<g id="bone_B14">
<path class="path-23" d="M152.308,382.564C158.462,400.684,164.615,418.804,170.769,436.924"/>
</g>
<g id="bone_B13">
<path class="path-23" d="M177.948,271.795C169.402,308.718,160.855,345.641,152.308,382.564"/>
</g>
<g id="bone_B11">
<path class="path-23" d="M306.154,348.718C308.547,370.599,310.940,392.479,313.333,414.360"/>
</g>
<g id="bone_B9">
<path class="path-23" d="M290.769,257.436C295.897,287.863,301.025,318.291,306.154,348.718"/>
</g>
<g id="bone_B5">
<path class="path-23" d="M236.410,212.299C231.965,185.974,227.521,159.648,223.076,133.323"/>
</g>
<g id="bone_B4">
<path class="path-23" d="M234.359,254.350C235.042,240.333,235.726,226.316,236.410,212.299"/>
</g>
<g id="bone_B3">
<path class="path-23" d="M239.487,327.170C237.778,302.897,236.068,278.623,234.359,254.350"/>
</g>
<g id="bone_B2">
<path class="path-23" d="M239.487,386.667C239.487,366.835,239.487,347.003,239.487,327.170"/>
</g>
<g id="bone_B1">
<path class="path-23" d="M239.487,386.667C251.464,386.667,263.441,386.667,275.418,386.667"/>
</g>
</g>
</g>
<style>
.path-0{fill:#000000;fill-rule:evenodd;stroke:none;}
.path-1{fill:none;stroke:#a60d3f;stroke-width:1;stroke-linecap:butt;stroke-linejoin:round;}
.path-2{fill:#a60d3f;fill-rule:evenodd;stroke:none;}
.path-3{fill:none;stroke:#d88e4b;stroke-width:1;stroke-linecap:butt;stroke-linejoin:round;}
.path-4{fill:#d88e4b;fill-rule:evenodd;stroke:none;}
.path-5{fill:none;stroke:#6e2353;stroke-width:1;stroke-linecap:butt;stroke-linejoin:round;}
.path-6{fill:#6e2353;fill-rule:evenodd;stroke:none;}
.path-7{fill:none;stroke:#392966;stroke-width:1;stroke-linecap:butt;stroke-linejoin:round;}
.path-8{fill:#392966;fill-rule:evenodd;stroke:none;}
.path-9{fill:none;stroke:#cc9bc5;stroke-width:1;stroke-linecap:butt;stroke-linejoin:round;}
.path-10{fill:#cc9bc5;fill-rule:evenodd;stroke:none;}
.path-11{fill:none;stroke:#620527;stroke-width:1;stroke-linecap:butt;stroke-linejoin:round;}
.path-12{fill:#620527;fill-rule:evenodd;stroke:none;}
.path-13{fill:none;stroke:#6a3661;stroke-width:1;stroke-linecap:butt;stroke-linejoin:round;}
.path-14{fill:#6a3661;fill-rule:evenodd;stroke:none;}
.path-15{fill:none;stroke:#f8a087;stroke-width:1;stroke-linecap:butt;stroke-linejoin:round;}
.path-16{fill:#f8a087;fill-rule:evenodd;stroke:none;}
.path-17{fill:none;stroke:#ffffff;stroke-width:1;stroke-linecap:butt;stroke-linejoin:round;}
.path-18{fill:#ffffff;fill-rule:evenodd;stroke:none;}
.path-19{fill:none;stroke:#d89f4a;stroke-width:1;stroke-linecap:butt;stroke-linejoin:round;}
.path-20{fill:#d89f4a;fill-rule:evenodd;stroke:none;}
.path-21{fill:none;stroke:#fafd5b;stroke-width:1;stroke-linecap:butt;stroke-linejoin:round;}
.path-22{fill:#fafd5b;fill-rule:evenodd;stroke:none;}
.path-23{fill:none;stroke:#00ff00;stroke-width:8;stroke-linecap:round;stroke-linejoin:round;}
.path-24{fill:none;stroke:#000000;stroke-width:1;stroke-linecap:butt;stroke-linejoin:round;}
</style>
</svg>
