<svg version="1.1" id="Frame_137" xmlns="http://www.w3.org/2000/svg" xmlns:xlink="http://www.w3.org/1999/xlink" width="480px" height="720px">
<g id="main_bone">
<g id="right_arm">
<path class="path-0" d="M172.150,270.113C173.703,267.499,176.735,262.104,180.596,260.783C187.045,258.577,192.289,264.541,192.803,269.093C194.015,277.078,187.631,287.491,184.684,295.180C177.468,313.667,169.746,331.981,165.220,350.765C164.683,354.043,160.633,375.359,160.552,372.717C160.424,379.335,167.213,384.746,169.724,390.280C172.951,397.745,170.410,405.029,168.903,412.062C165.349,426.528,166.077,431.781,167.374,445.610C167.680,447.780,168.671,454.829,165.292,455.519C161.900,456.212,160.364,450.110,159.268,447.838C158.482,445.258,155.249,439.987,155.609,437.579C155.420,433.623,159.999,434.277,154.450,426.456C147.362,416.664,135.640,408.647,132.157,395.469C129.781,384.963,134.972,375.460,137.819,365.496C143.885,344.043,150.748,322.570,159.096,301.569C163.670,290.633,165.933,281.172,172.150,270.113M192.565,262.831C193.059,254.331,190.343,246.818,179.679,249.829C162.356,254.654,155.319,280.800,149.895,295.557C142.279,315.435,136.123,335.543,130.578,355.786C128.334,364.419,125.349,368.875,124.181,373.884C122.707,379.557,123.295,388.149,123.831,393.757C124.475,411.386,129.756,412.102,137.792,425.159C142.119,432.928,138.808,438.302,142.043,445.018C144.410,449.671,148.707,452.650,152.202,456.315C155.342,460.027,156.323,462.237,158.762,465.689C161.719,469.821,170.209,479.023,175.659,475.675C179.639,473.210,177.923,465.521,177.514,461.750C176.742,456.103,176.240,433.979,176.759,427.240C177.790,415.993,183.194,403.779,181.048,391.822C179.334,382.657,170.896,376.333,170.952,366.439C171.133,361.161,174.145,352.508,175.126,346.578C176.747,337.113,176.919,326.976,179.348,317.293C183.482,300.017,192.174,280.954,192.565,262.831Z"/>
<path class="path-1" d="M180.596,260.783C187.045,258.577,192.289,264.541,192.803,269.093"/>
<path class="path-1" d="M192.803,269.093C194.015,277.078,187.631,287.491,184.684,295.180"/>
<path class="path-1" d="M184.684,295.180C177.468,313.667,169.746,331.981,165.220,350.765"/>
<path class="path-1" d="M165.220,350.765C164.683,354.043,160.633,375.359,160.552,372.717"/>
<path class="path-1" d="M160.552,372.717C160.424,379.335,167.213,384.746,169.724,390.280"/>
<path class="path-1" d="M169.724,390.280C172.951,397.745,170.410,405.029,168.903,412.062"/>
<path class="path-1" d="M168.903,412.062C165.349,426.528,166.077,431.781,167.374,445.610"/>
<path class="path-1" d="M167.374,445.610C167.680,447.780,168.671,454.829,165.292,455.519"/>
<path class="path-1" d="M165.292,455.519C161.900,456.212,160.364,450.110,159.268,447.838"/>
<path class="path-1" d="M159.268,447.838C158.482,445.258,155.249,439.987,155.609,437.579"/>
<path class="path-1" d="M155.609,437.579C155.420,433.623,159.999,434.277,154.450,426.456"/>
<path class="path-1" d="M154.450,426.456C147.362,416.664,135.640,408.647,132.157,395.469"/>
<path class="path-1" d="M132.157,395.469C129.781,384.963,134.972,375.460,137.819,365.496"/>
<path class="path-1" d="M137.819,365.496C143.885,344.043,150.748,322.570,159.096,301.569"/>
<path class="path-1" d="M159.096,301.569C163.670,290.633,165.933,281.172,172.150,270.113"/>
<path class="path-1" d="M172.150,270.113C173.703,267.499,176.735,262.104,180.596,260.783"/>
<path class="path-2" d="M180.596,260.783C187.045,258.577,192.289,264.541,192.803,269.093C194.015,277.078,187.631,287.491,184.684,295.180C177.468,313.667,169.746,331.981,165.220,350.765C164.683,354.043,160.633,375.359,160.552,372.717C160.424,379.335,167.213,384.746,169.724,390.280C172.951,397.745,170.410,405.029,168.903,412.062C165.349,426.528,166.077,431.781,167.374,445.610C167.680,447.780,168.671,454.829,165.292,455.519C161.900,456.212,160.364,450.110,159.268,447.838C158.482,445.258,155.249,439.987,155.609,437.579C155.420,433.623,159.999,434.277,154.450,426.456C147.362,416.664,135.640,408.647,132.157,395.469C129.781,384.963,134.972,375.460,137.819,365.496C143.885,344.043,150.748,322.570,159.096,301.569C163.670,290.633,165.933,281.172,172.150,270.113C173.703,267.499,176.735,262.104,180.596,260.783Z"/>
</g>
<g id="layer_left_leg">
<g id="left_heel">
<path class="path-0" d="M238.488,543.623C230.684,533.154,246.300,511.517,257.310,509.986C271.413,507.812,275.954,532.264,274.192,537.261C271.720,543.628,262.458,547.050,256.704,547.933C252.035,548.492,241.083,547.327,238.488,543.623M280.113,509.670C274.441,502.171,259.218,501.686,251.077,504.321C221.480,513.023,216.436,568.157,258.147,557.694C265.645,555.867,281.084,550.591,284.643,543.601C288.144,537.995,286.243,531.559,284.990,525.508C283.717,520.787,283.095,513.732,280.113,509.670Z"/>
<path class="path-3" d="M257.310,509.986C271.413,507.812,275.954,532.264,274.192,537.261"/>
<path class="path-3" d="M274.192,537.261C271.720,543.628,262.458,547.050,256.704,547.933"/>
<path class="path-3" d="M256.704,547.933C252.035,548.492,241.083,547.327,238.488,543.623"/>
<path class="path-3" d="M238.488,543.623C230.684,533.154,246.300,511.517,257.310,509.986"/>
<path class="path-4" d="M257.310,509.986C271.413,507.812,275.954,532.264,274.192,537.261C271.720,543.628,262.458,547.050,256.704,547.933C252.035,548.492,241.083,547.327,238.488,543.623C230.684,533.154,246.300,511.517,257.310,509.986Z"/>
</g>
<g id="left_sole">
<path class="path-0" d="M253.267,574.905C244.651,574.157,238.051,559.273,240.935,566.606C242.616,570.880,249.841,573.120,253.178,574.700C253.777,574.913,266.840,578.788,268.289,578.990C273.377,580.359,288.898,578.615,289.390,577.212C289.479,576.960,278.995,577.831,275.670,578.298C269.040,579.777,260.286,578.548,253.178,574.700M245.174,561.155C247.606,562.029,253.612,565.791,255.165,567.720C260.236,574.019,274.330,574.805,282.342,572.158C283.375,571.845,283.539,569.492,289.339,568.014C292.598,567.184,273.567,574.397,269.291,572.713C260.495,570.922,242.073,560.040,245.174,561.155M286.294,558.887C284.580,558.198,271.729,550.339,261.994,550.857C254.084,551.325,234.121,554.554,232.333,564.796C231.668,568.658,237.438,578.896,240.507,581.205C251.917,590.444,282.702,584.466,288.448,581.921C290.373,581.068,298.842,563.930,286.294,558.887Z"/>
<path class="path-5" d="M240.935,566.606C242.616,570.880,249.841,573.120,253.178,574.700"/>
<path class="path-5" d="M253.178,574.700C260.286,578.548,269.040,579.777,275.670,578.298"/>
<path class="path-5" d="M275.670,578.298C278.995,577.831,289.479,576.960,289.390,577.212"/>
<path class="path-5" d="M289.390,577.212C288.898,578.615,273.377,580.359,268.289,578.990"/>
<path class="path-5" d="M268.289,578.990C266.840,578.788,253.777,574.913,253.267,574.905"/>
<path class="path-5" d="M253.267,574.905C244.651,574.157,238.051,559.273,240.935,566.606"/>
<path class="path-6" d="M240.935,566.606C242.616,570.880,249.841,573.120,253.178,574.700C260.286,578.548,269.040,579.777,275.670,578.298C278.995,577.831,289.479,576.960,289.390,577.212C288.898,578.615,273.377,580.359,268.289,578.990C266.840,578.788,253.777,574.913,253.267,574.905C244.651,574.157,238.051,559.273,240.935,566.606Z"/>
<path class="path-5" d="M255.165,567.720C260.236,574.019,274.330,574.805,282.342,572.158"/>
<path class="path-5" d="M282.342,572.158C283.375,571.845,283.539,569.492,289.339,568.014"/>
<path class="path-5" d="M289.339,568.014C292.598,567.184,273.567,574.397,269.291,572.713"/>
<path class="path-5" d="M269.291,572.713C260.495,570.922,242.073,560.040,245.174,561.155"/>
<path class="path-5" d="M245.174,561.155C247.606,562.029,253.612,565.791,255.165,567.720"/>
<path class="path-6" d="M255.165,567.720C260.236,574.019,274.330,574.805,282.342,572.158C283.375,571.845,283.539,569.492,289.339,568.014C292.598,567.184,273.567,574.397,269.291,572.713C260.495,570.922,242.073,560.040,245.174,561.155C247.606,562.029,253.612,565.791,255.165,567.720Z"/>
</g>
<g id="left_toe">
<path class="path-0" d="M253.823,589.084C222.849,585.464,236.252,540.167,263.953,542.113C277.833,543.284,281.305,555.349,282.702,566.450C283.735,571.493,285.013,575.907,282.589,580.584C277.719,588.333,261.966,589.935,253.823,589.084M286.956,543.626C280.588,536.418,263.398,533.296,254.398,534.842C229.909,539.301,228.235,556.391,228.031,576.384C227.792,581.866,227.680,587.019,230.890,591.470C237.419,599.955,261.821,601.621,271.892,599.824C279.335,597.959,288.526,594.177,292.403,586.865C297.218,578.098,293.260,551.098,286.956,543.626Z"/>
<path class="path-3" d="M263.953,542.113C277.833,543.284,281.305,555.349,282.702,566.450"/>
<path class="path-3" d="M282.702,566.450C283.735,571.493,285.013,575.907,282.589,580.584"/>
<path class="path-3" d="M282.589,580.584C277.719,588.333,261.966,589.935,253.823,589.084"/>
<path class="path-3" d="M253.823,589.084C222.849,585.464,236.252,540.167,263.953,542.113"/>
<path class="path-4" d="M263.953,542.113C277.833,543.284,281.305,555.349,282.702,566.450C283.735,571.493,285.013,575.907,282.589,580.584C277.719,588.333,261.966,589.935,253.823,589.084C222.849,585.464,236.252,540.167,263.953,542.113Z"/>
</g>
<g id="left_leg">
<path class="path-0" d="M237.451,406.220C239.229,401.626,248.663,405.253,252.543,405.247C257.462,405.477,268.482,405.032,272.392,408.182C285.868,418.314,287.022,465.298,286.518,481.509C285.567,497.417,286.682,512.482,284.852,527.762C284.095,533.016,283.165,538.453,281.626,543.425C280.406,548.042,274.342,553.976,277.549,557.138C279.209,559.474,283.005,556.803,285.629,557.224C288.581,557.888,289.017,556.089,290.909,557.116C299.800,562.304,279.771,580.142,270.666,582.257C263.535,584.167,248.707,581.573,243.622,576.360C241.895,574.589,239.861,572.492,238.884,570.272C228.551,546.789,238.274,498.268,243.168,464.115C244.405,455.486,250.961,471.993,256.692,470.264C267.419,466.978,236.974,428.901,235.104,417.676C234.344,414.637,236.192,409.012,237.451,406.220M282.103,397.912C276.244,393.256,259.559,394.516,252.693,395.600C246.124,396.612,223.955,395.931,220.726,400.689C215.036,409.073,228.084,424.353,230.673,432.198C231.815,436.628,229.174,458.546,228.780,464.691C228.712,478.027,227.400,489.419,226.821,502.743C225.506,525.973,215.758,548.446,221.487,570.667C226.191,588.395,240.398,596.090,261.403,596.395C270.958,596.534,290.423,587.419,300.816,570.996C306.107,562.634,304.224,549.187,303.005,546.064C301.330,541.771,297.262,538.346,295.959,533.583C290.310,515.421,298.746,495.631,297.722,476.528C296.733,457.755,297.613,410.295,282.103,397.912Z"/>
<path class="path-7" d="M252.543,405.247C257.462,405.477,268.482,405.032,272.392,408.182"/>
<path class="path-7" d="M272.392,408.182C285.868,418.314,287.022,465.298,286.518,481.509"/>
<path class="path-7" d="M286.518,481.509C285.567,497.417,286.682,512.482,284.852,527.762"/>
<path class="path-7" d="M284.852,527.762C284.095,533.016,283.165,538.453,281.626,543.425"/>
<path class="path-7" d="M281.626,543.425C280.406,548.042,274.342,553.976,277.549,557.138"/>
<path class="path-7" d="M277.549,557.138C279.209,559.474,283.005,556.803,285.629,557.224"/>
<path class="path-7" d="M285.629,557.224C288.581,557.888,289.017,556.089,290.909,557.116"/>
<path class="path-7" d="M290.909,557.116C299.800,562.304,279.771,580.142,270.666,582.257"/>
<path class="path-7" d="M270.666,582.257C263.535,584.167,248.707,581.573,243.622,576.360"/>
<path class="path-7" d="M243.622,576.360C241.895,574.589,239.861,572.492,238.884,570.272"/>
<path class="path-7" d="M238.884,570.272C228.551,546.789,238.274,498.268,243.168,464.115"/>
<path class="path-7" d="M243.168,464.115C244.405,455.486,250.961,471.993,256.692,470.264"/>
<path class="path-7" d="M256.692,470.264C267.419,466.978,236.974,428.901,235.104,417.676"/>
<path class="path-7" d="M235.104,417.676C234.344,414.637,236.192,409.012,237.451,406.220"/>
<path class="path-7" d="M237.451,406.220C239.229,401.626,248.663,405.253,252.543,405.247"/>
<path class="path-8" d="M252.543,405.247C257.462,405.477,268.482,405.032,272.392,408.182C285.868,418.314,287.022,465.298,286.518,481.509C285.567,497.417,286.682,512.482,284.852,527.762C284.095,533.016,283.165,538.453,281.626,543.425C280.406,548.042,274.342,553.976,277.549,557.138C279.209,559.474,283.005,556.803,285.629,557.224C288.581,557.888,289.017,556.089,290.909,557.116C299.800,562.304,279.771,580.142,270.666,582.257C263.535,584.167,248.707,581.573,243.622,576.360C241.895,574.589,239.861,572.492,238.884,570.272C228.551,546.789,238.274,498.268,243.168,464.115C244.405,455.486,250.961,471.993,256.692,470.264C267.419,466.978,236.974,428.901,235.104,417.676C234.344,414.637,236.192,409.012,237.451,406.220C239.229,401.626,248.663,405.253,252.543,405.247Z"/>
</g>
</g>
<g id="layer_right_leg">
<g id="right_heel">
<path class="path-0" d="M185.815,626.823C188.028,608.596,188.123,594.230,210.508,591.067C220.509,589.470,239.548,592.737,244.992,602.434C247.856,607.249,246.864,614.291,247.157,619.417C247.744,628.320,253.366,644.929,240.942,647.666C240.003,647.969,213.778,649.947,205.638,651.010C200.112,652.260,194.222,654.038,189.847,650.489C184.749,645.438,184.901,633.280,185.815,626.823M255.569,600.562C251.104,588.930,235.264,582.171,223.972,583.764C209.291,585.653,194.310,580.787,184.688,594.472C175.262,607.875,175.375,632.851,178.387,648.499C179.305,654.264,182.756,664.850,187.537,668.077C191.029,670.325,196.448,669.713,200.590,669.736C220.832,670.173,256.236,677.140,256.639,646.935C256.666,636.665,258.647,608.666,255.569,600.562Z"/>
<path class="path-3" d="M210.508,591.067C220.509,589.470,239.548,592.737,244.992,602.434"/>
<path class="path-3" d="M244.992,602.434C247.856,607.249,246.864,614.291,247.157,619.417"/>
<path class="path-3" d="M247.157,619.417C247.744,628.320,253.366,644.929,240.942,647.666"/>
<path class="path-3" d="M240.942,647.666C240.003,647.969,213.778,649.947,205.638,651.010"/>
<path class="path-3" d="M205.638,651.010C200.112,652.260,194.222,654.038,189.847,650.489"/>
<path class="path-3" d="M189.847,650.489C184.749,645.438,184.901,633.280,185.815,626.823"/>
<path class="path-3" d="M185.815,626.823C188.028,608.596,188.123,594.230,210.508,591.067"/>
<path class="path-4" d="M210.508,591.067C220.509,589.470,239.548,592.737,244.992,602.434C247.856,607.249,246.864,614.291,247.157,619.417C247.744,628.320,253.366,644.929,240.942,647.666C240.003,647.969,213.778,649.947,205.638,651.010C200.112,652.260,194.222,654.038,189.847,650.489C184.749,645.438,184.901,633.280,185.815,626.823C188.028,608.596,188.123,594.230,210.508,591.067Z"/>
</g>
<g id="right_leg">
<path class="path-0" d="M181.535,406.318C183.077,398.752,188.937,392.951,195.685,392.256C201.785,391.502,211.069,393.565,216.954,396.316C220.386,397.920,225.374,400.608,226.924,404.064C227.605,405.582,226.367,408.030,226.972,409.611C230.180,418.798,236.152,420.613,237.900,426.349C239.336,431.059,238.220,437.068,238.304,442.757C239.370,458.858,239.014,475.621,240.522,491.202C241.354,500.795,245.105,514.891,243.499,523.670C242.001,530.555,235.334,528.798,234.973,532.965C234.444,536.486,247.526,550.404,249.946,554.524C256.884,565.816,263.946,580.584,261.321,593.642C259.469,602.855,241.042,607.784,232.252,607.509C220.893,606.928,190.886,594.114,180.061,589.730C175.117,587.894,166.099,586.995,163.492,581.980C162.141,579.692,162.228,567.923,163.073,565.166C164.770,560.288,166.554,559.226,168.018,553.359C169.701,545.492,171.509,536.888,170.402,528.730C168.129,514.722,168.193,478.570,171.298,464.975C173.087,456.154,175.623,426.232,178.241,418.307C180.413,411.924,180.918,410.848,181.535,406.318M206.934,382.063C201.288,380.041,196.840,374.295,190.989,376.666C188.787,377.779,185.520,381.415,183.927,383.059C168.977,396.139,165.467,406.358,162.920,424.626C161.500,432.422,159.649,440.493,159.294,448.100C158.898,454.054,159.099,459.210,158.593,464.800C158.471,469.547,158.604,474.570,158.675,480.443C158.888,486.242,160.154,493.097,159.695,502.942C158.704,511.269,157.320,519.078,157.152,527.091C157.202,531.104,157.398,540.575,156.942,543.643C155.490,548.631,152.634,554.114,150.682,558.617C147.734,566.654,146.553,575.259,147.254,583.346C147.398,587.619,147.237,593.484,149.682,596.675C154.135,602.484,163.219,602.896,169.841,605.072C180.540,608.522,190.616,609.619,201.461,612.947C206.948,614.676,211.710,618.211,217.505,619.699C219.078,619.855,232.075,620.644,234.613,620.875C243.329,621.164,258.460,618.570,264.694,611.775C267.225,608.696,269.620,603.912,270.766,599.979C272.205,595.025,272.858,589.840,273.184,584.688C274.211,563.772,262.616,555.911,257.092,538.472C254.827,531.319,253.826,515.861,253.020,507.591C251.595,495.539,249.977,483.770,249.658,471.262C249.631,466.435,248.742,460.139,251.229,455.229C252.289,453.041,254.257,451.824,254.803,449.493C255.745,444.026,250.590,426.704,249.341,420.849C248.708,417.185,249.048,412.530,247.733,408.865C244.117,399.532,230.191,389.156,220.889,386.119C216.239,384.433,211.251,384.079,206.934,382.063Z"/>
<path class="path-7" d="M195.685,392.256C201.785,391.502,211.069,393.565,216.954,396.316"/>
<path class="path-7" d="M216.954,396.316C220.386,397.920,225.374,400.608,226.924,404.064"/>
<path class="path-7" d="M226.924,404.064C227.605,405.582,226.367,408.030,226.972,409.611"/>
<path class="path-7" d="M226.972,409.611C230.180,418.798,236.152,420.613,237.900,426.349"/>
<path class="path-7" d="M237.900,426.349C239.336,431.059,238.220,437.068,238.304,442.757"/>
<path class="path-7" d="M238.304,442.757C239.370,458.858,239.014,475.621,240.522,491.202"/>
<path class="path-7" d="M240.522,491.202C241.354,500.795,245.105,514.891,243.499,523.670"/>
<path class="path-7" d="M243.499,523.670C242.001,530.555,235.334,528.798,234.973,532.965"/>
<path class="path-7" d="M234.973,532.965C234.444,536.486,247.526,550.404,249.946,554.524"/>
<path class="path-7" d="M249.946,554.524C256.884,565.816,263.946,580.584,261.321,593.642"/>
<path class="path-7" d="M261.321,593.642C259.469,602.855,241.042,607.784,232.252,607.509"/>
<path class="path-7" d="M232.252,607.509C220.893,606.928,190.886,594.114,180.061,589.730"/>
<path class="path-7" d="M180.061,589.730C175.117,587.894,166.099,586.995,163.492,581.980"/>
<path class="path-7" d="M163.492,581.980C162.141,579.692,162.228,567.923,163.073,565.166"/>
<path class="path-7" d="M163.073,565.166C164.770,560.288,166.554,559.226,168.018,553.359"/>
<path class="path-7" d="M168.018,553.359C169.701,545.492,171.509,536.888,170.402,528.730"/>
<path class="path-7" d="M170.402,528.730C168.129,514.722,168.193,478.570,171.298,464.975"/>
<path class="path-7" d="M171.298,464.975C173.087,456.154,175.623,426.232,178.241,418.307"/>
<path class="path-7" d="M178.241,418.307C180.413,411.924,180.918,410.848,181.535,406.318"/>
<path class="path-7" d="M181.535,406.318C183.077,398.752,188.937,392.951,195.685,392.256"/>
<path class="path-8" d="M195.685,392.256C201.785,391.502,211.069,393.565,216.954,396.316C220.386,397.920,225.374,400.608,226.924,404.064C227.605,405.582,226.367,408.030,226.972,409.611C230.180,418.798,236.152,420.613,237.900,426.349C239.336,431.059,238.220,437.068,238.304,442.757C239.370,458.858,239.014,475.621,240.522,491.202C241.354,500.795,245.105,514.891,243.499,523.670C242.001,530.555,235.334,528.798,234.973,532.965C234.444,536.486,247.526,550.404,249.946,554.524C256.884,565.816,263.946,580.584,261.321,593.642C259.469,602.855,241.042,607.784,232.252,607.509C220.893,606.928,190.886,594.114,180.061,589.730C175.117,587.894,166.099,586.995,163.492,581.980C162.141,579.692,162.228,567.923,163.073,565.166C164.770,560.288,166.554,559.226,168.018,553.359C169.701,545.492,171.509,536.888,170.402,528.730C168.129,514.722,168.193,478.570,171.298,464.975C173.087,456.154,175.623,426.232,178.241,418.307C180.413,411.924,180.918,410.848,181.535,406.318C183.077,398.752,188.937,392.951,195.685,392.256Z"/>
</g>
<g id="right_toe">
<path class="path-0" d="M155.610,614.712C157.082,599.907,162.702,582.095,180.405,577.859C185.572,576.336,193.242,577.345,199.192,578.033C228.611,581.358,240.707,589.193,241.627,619.043C241.690,624.963,242.025,631.835,238.176,637.063C232.396,644.769,201.947,650.030,192.388,649.997C177.697,650.267,166.092,649.016,157.760,634.983C153.136,627.008,154.769,623.293,155.610,614.712M248.001,590.773C240.203,573.879,202.606,560.868,185.095,563.562C157.615,567.946,150.307,590.644,147.557,613.765C146.664,620.831,144.402,628.605,147.643,635.043C149.548,638.825,154.282,643.554,157.433,646.402C172.232,660.940,182.529,658.498,201.872,658.194C213.423,658.205,232.637,657.448,241.963,649.774C248.961,643.448,249.752,636.516,250.076,627.633C250.081,620.035,250.920,596.495,248.001,590.773Z"/>
<path class="path-3" d="M180.405,577.859C185.572,576.336,193.242,577.345,199.192,578.033"/>
<path class="path-3" d="M199.192,578.033C228.611,581.358,240.707,589.193,241.627,619.043"/>
<path class="path-3" d="M241.627,619.043C241.690,624.963,242.025,631.835,238.176,637.063"/>
<path class="path-3" d="M238.176,637.063C232.396,644.769,201.947,650.030,192.388,649.997"/>
<path class="path-3" d="M192.388,649.997C177.697,650.267,166.092,649.016,157.760,634.983"/>
<path class="path-3" d="M157.760,634.983C153.136,627.008,154.769,623.293,155.610,614.712"/>
<path class="path-3" d="M155.610,614.712C157.082,599.907,162.702,582.095,180.405,577.859"/>
<path class="path-4" d="M180.405,577.859C185.572,576.336,193.242,577.345,199.192,578.033C228.611,581.358,240.707,589.193,241.627,619.043C241.690,624.963,242.025,631.835,238.176,637.063C232.396,644.769,201.947,650.030,192.388,649.997C177.697,650.267,166.092,649.016,157.760,634.983C153.136,627.008,154.769,623.293,155.610,614.712C157.082,599.907,162.702,582.095,180.405,577.859Z"/>
</g>
<g id="right_sole">
<path class="path-0" d="M185.346,651.907C188.614,652.884,196.504,651.489,200.114,651.933C203.881,652.598,207.782,652.963,210.972,653.253C212.913,653.583,218.850,653.784,218.049,657.470C217.959,659.475,212.084,658.748,210.200,658.550C208.184,658.581,188.919,657.529,188.221,657.650C183.492,658.084,180.236,656.750,180.369,654.224C180.680,652.607,182.552,651.059,185.346,651.907M233.973,645.327C234.080,646.674,235.620,649.627,233.492,650.337C229.912,651.550,215.256,649.091,210.569,647.079C206.024,646.019,200.831,645.822,196.638,645.492C190.183,644.983,181.397,645.833,175.074,644.616C171.560,643.280,169.137,642.211,168.334,640.846C168.431,640.360,171.204,640.013,173.125,639.711C181.019,638.469,192.251,638.699,200.430,639.175C207.920,639.611,217.574,641.485,225.213,642.530C226.402,642.723,231.682,644.085,233.973,645.327M237.536,641.143C218.718,630.958,201.753,633.609,182.969,630.349C176.940,629.326,163.207,632.464,159.168,638.886C157.799,641.062,158.013,644.883,158.904,647.452C159.462,649.047,160.993,652.696,162.599,654.441C166.663,658.857,176.021,662.960,179.972,664.362C194.486,670.110,214.725,667.109,230.519,667.221C239.845,667.216,239.273,660.375,240.458,656.049C241.663,651.654,245.482,645.313,237.536,641.143Z"/>
<path class="path-5" d="M185.346,651.907C188.614,652.884,196.504,651.489,200.114,651.933"/>
<path class="path-5" d="M200.114,651.933C203.881,652.598,207.782,652.963,210.972,653.253"/>
<path class="path-5" d="M210.972,653.253C212.913,653.583,218.850,653.784,218.049,657.470"/>
<path class="path-5" d="M218.049,657.470C217.959,659.475,212.084,658.748,210.200,658.550"/>
<path class="path-5" d="M210.200,658.550C208.184,658.581,188.919,657.529,188.221,657.650"/>
<path class="path-5" d="M188.221,657.650C183.492,658.084,180.236,656.750,180.369,654.224"/>
<path class="path-5" d="M180.369,654.224C180.680,652.607,182.552,651.059,185.346,651.907"/>
<path class="path-6" d="M185.346,651.907C188.614,652.884,196.504,651.489,200.114,651.933C203.881,652.598,207.782,652.963,210.972,653.253C212.913,653.583,218.850,653.784,218.049,657.470C217.959,659.475,212.084,658.748,210.200,658.550C208.184,658.581,188.919,657.529,188.221,657.650C183.492,658.084,180.236,656.750,180.369,654.224C180.680,652.607,182.552,651.059,185.346,651.907Z"/>
<path class="path-5" d="M173.125,639.711C181.019,638.469,192.251,638.699,200.430,639.175"/>
<path class="path-5" d="M200.430,639.175C207.920,639.611,217.574,641.485,225.213,642.530"/>
<path class="path-5" d="M225.213,642.530C226.402,642.723,231.682,644.085,233.973,645.327"/>
<path class="path-5" d="M233.973,645.327C234.080,646.674,235.620,649.627,233.492,650.337"/>
<path class="path-5" d="M233.492,650.337C229.912,651.550,215.256,649.091,210.569,647.079"/>
<path class="path-5" d="M210.569,647.079C206.024,646.019,200.831,645.822,196.638,645.492"/>
<path class="path-5" d="M196.638,645.492C190.183,644.983,181.397,645.833,175.074,644.616"/>
<path class="path-5" d="M175.074,644.616C171.560,643.280,169.137,642.211,168.334,640.846"/>
<path class="path-5" d="M168.334,640.846C168.431,640.360,171.204,640.013,173.125,639.711"/>
<path class="path-6" d="M173.125,639.711C181.019,638.469,192.251,638.699,200.430,639.175C207.920,639.611,217.574,641.485,225.213,642.530C226.402,642.723,231.682,644.085,233.973,645.327C234.080,646.674,235.620,649.627,233.492,650.337C229.912,651.550,215.256,649.091,210.569,647.079C206.024,646.019,200.831,645.822,196.638,645.492C190.183,644.983,181.397,645.833,175.074,644.616C171.560,643.280,169.137,642.211,168.334,640.846C168.431,640.360,171.204,640.013,173.125,639.711Z"/>
</g>
</g>
<g id="hat_brim">
<path class="path-0" d="M287.960,141.316C291.696,135.376,300.891,119.192,308.875,119.296C314.199,119.366,325.051,129.157,330.666,132.225C335.617,135.284,340.906,138.015,346.526,140.749C349.716,142.461,352.910,144.166,356.108,145.865C370.318,153.371,366.242,159.641,357.942,158.201C339.357,154.630,336.346,155.922,318.504,146.373C316.187,145.344,310.243,141.941,309.188,146.251C307.794,151.224,316.720,155.666,320.357,157.377C326.961,161.124,334.228,165.212,342.204,165.981C344.529,166.344,352.522,165.781,353.820,168.128C355.773,171.481,346.014,180.005,343.991,181.975C340.625,184.925,337.261,187.876,333.903,190.162C328.869,193.422,323.507,196.346,317.839,197.270C307.177,198.463,274.110,182.725,273.264,171.070C272.686,164.408,283.885,147.585,287.960,141.316M320.908,115.129C315.974,110.738,312.398,104.369,305.035,107.601C299.681,109.861,293.927,117.438,290.216,121.383C276.359,137.837,263.795,157.305,264.177,178.936C264.333,192.579,268.994,192.309,279.902,197.773C296.426,206.308,317.683,209.247,335.756,201.166C347.468,195.995,367.996,178.296,373.476,166.389C375.190,162.419,378.301,153.476,376.032,148.789C373.445,143.097,351.282,133.160,344.677,129.414C336.750,124.984,327.820,120.875,320.908,115.129Z"/>
<path class="path-9" d="M308.875,119.296C314.199,119.366,325.051,129.157,330.666,132.225"/>
<path class="path-9" d="M330.666,132.225C335.617,135.284,340.906,138.015,346.526,140.749"/>
<path class="path-9" d="M346.526,140.749C349.716,142.461,352.910,144.166,356.108,145.865"/>
<path class="path-9" d="M356.108,145.865C370.318,153.371,366.242,159.641,357.942,158.201"/>
<path class="path-9" d="M357.942,158.201C339.357,154.630,336.346,155.922,318.504,146.373"/>
<path class="path-9" d="M318.504,146.373C316.187,145.344,310.243,141.941,309.188,146.251"/>
<path class="path-9" d="M309.188,146.251C307.794,151.224,316.720,155.666,320.357,157.377"/>
<path class="path-9" d="M320.357,157.377C326.961,161.124,334.228,165.212,342.204,165.981"/>
<path class="path-9" d="M342.204,165.981C344.529,166.344,352.522,165.781,353.820,168.128"/>
<path class="path-9" d="M353.820,168.128C355.773,171.481,346.014,180.005,343.991,181.975"/>
<path class="path-9" d="M343.991,181.975C340.625,184.925,337.261,187.876,333.903,190.162"/>
<path class="path-9" d="M333.903,190.162C328.869,193.422,323.507,196.346,317.839,197.270"/>
<path class="path-9" d="M317.839,197.270C307.177,198.463,274.110,182.725,273.264,171.070"/>
<path class="path-9" d="M273.264,171.070C272.686,164.408,283.885,147.585,287.960,141.316"/>
<path class="path-9" d="M287.960,141.316C291.696,135.376,300.891,119.192,308.875,119.296"/>
<path class="path-10" d="M308.875,119.296C314.199,119.366,325.051,129.157,330.666,132.225C335.617,135.284,340.906,138.015,346.526,140.749C349.716,142.461,352.910,144.166,356.108,145.865C370.318,153.371,366.242,159.641,357.942,158.201C339.357,154.630,336.346,155.922,318.504,146.373C316.187,145.344,310.243,141.941,309.188,146.251C307.794,151.224,316.720,155.666,320.357,157.377C326.961,161.124,334.228,165.212,342.204,165.981C344.529,166.344,352.522,165.781,353.820,168.128C355.773,171.481,346.014,180.005,343.991,181.975C340.625,184.925,337.261,187.876,333.903,190.162C328.869,193.422,323.507,196.346,317.839,197.270C307.177,198.463,274.110,182.725,273.264,171.070C272.686,164.408,283.885,147.585,287.960,141.316C291.696,135.376,300.891,119.192,308.875,119.296Z"/>
</g>
<g id="hair">
<path class="path-0" d="M180.412,138.406C197.659,126.163,217.575,124.636,238.635,123.333C248.077,122.731,254.698,129.016,262.064,135.159C268.119,140.554,274.635,146.639,281.065,152.298C290.742,160.757,294.813,165.020,298.443,169.098C301.540,172.220,306.374,178.069,310.214,180.819C314.846,184.135,324.371,201.055,326.450,202.945C319.865,205.326,309.479,207.201,304.777,211.146C306.555,216.936,307.094,225.955,307.162,228.664C300.965,229.226,293.690,226.573,282.191,224.735C280.015,231.968,280.173,238.695,275.630,246.086C267.875,243.906,262.469,242.130,252.408,237.903C245.947,243.244,244.399,242.869,233.848,249.620C226.661,245.436,220.909,240.933,213.932,238.238C207.223,241.275,196.510,242.523,192.933,245.528C188.975,238.574,185.309,230.880,181.982,227.578C172.433,229.750,168.377,232.464,161.656,235.072C157.320,229.650,160.234,225.040,155.381,217.039C151.028,215.962,144.285,213.488,138.723,213.497C142.469,208.928,144.989,194.125,151.447,192.120C159.416,189.647,154.154,180.621,158.910,172.321C160.085,170.163,171.511,153.589,172.510,150.898C174.414,146.255,176.499,141.326,180.412,138.406M266.408,122.442C253.975,113.276,229.179,108.676,215.371,112.201C202.695,115.284,190.295,119.552,179.382,126.954C173.270,131.040,166.539,137.014,162.549,143.202C154.572,155.224,143.232,181.401,136.791,193.548C131.646,203.618,126.786,210.445,121.750,215.955C139.491,222.035,144.684,224.591,149.946,225.293C150.423,233.040,157.689,238.658,156.616,247.238C165.397,245.763,170.597,243.432,178.390,241.328C182.458,245.904,185.327,252.176,189.247,258.302C196.921,256.059,204.816,256.200,212.350,250.600C217.934,253.507,226.802,258.020,235.917,262.801C244.132,258.226,245.904,257.939,253.596,252.739C263.117,254.896,273.184,260.577,282.711,259.382C281.882,251.210,287.832,245.474,287.026,240.237C294.190,238.174,316.309,240.958,320.070,240.565C319.729,234.524,316.183,223.014,317.614,215.781C324.387,213.842,330.111,212.086,340.649,206.785C337.049,200.158,330.660,191.965,325.102,187.115C320.411,183.062,316.552,177.647,311.855,173.420C295.929,159.321,289.408,139.480,266.408,122.442Z"/>
<path class="path-11" d="M238.635,123.333C248.077,122.731,254.698,129.016,262.064,135.159"/>
<path class="path-11" d="M262.064,135.159C268.119,140.554,274.635,146.639,281.065,152.298"/>
<path class="path-11" d="M281.065,152.298C290.742,160.757,294.813,165.020,298.443,169.098"/>
<path class="path-11" d="M298.443,169.098C301.540,172.220,306.374,178.069,310.214,180.819"/>
<path class="path-11" d="M310.214,180.819C314.846,184.135,324.371,201.055,326.450,202.945"/>
<path class="path-11" d="M326.450,202.945C319.865,205.326,309.479,207.201,304.777,211.146"/>
<path class="path-11" d="M304.777,211.146C306.555,216.936,307.094,225.955,307.162,228.664"/>
<path class="path-11" d="M307.162,228.664C300.965,229.226,293.690,226.573,282.191,224.735"/>
<path class="path-11" d="M282.191,224.735C280.015,231.968,280.173,238.695,275.630,246.086"/>
<path class="path-11" d="M275.630,246.086C267.875,243.906,262.469,242.130,252.408,237.903"/>
<path class="path-11" d="M252.408,237.903C245.947,243.244,244.399,242.869,233.848,249.620"/>
<path class="path-11" d="M233.848,249.620C226.661,245.436,220.909,240.933,213.932,238.238"/>
<path class="path-11" d="M213.932,238.238C207.223,241.275,196.510,242.523,192.933,245.528"/>
<path class="path-11" d="M192.933,245.528C188.975,238.574,185.309,230.880,181.982,227.578"/>
<path class="path-11" d="M181.982,227.578C172.433,229.750,168.377,232.464,161.656,235.072"/>
<path class="path-11" d="M161.656,235.072C157.320,229.650,160.234,225.040,155.381,217.039"/>
<path class="path-11" d="M155.381,217.039C151.028,215.962,144.285,213.488,138.723,213.497"/>
<path class="path-11" d="M138.723,213.497C142.469,208.928,144.989,194.125,151.447,192.120"/>
<path class="path-11" d="M151.447,192.120C159.416,189.647,154.154,180.621,158.910,172.321"/>
<path class="path-11" d="M158.910,172.321C160.085,170.163,171.511,153.589,172.510,150.898"/>
<path class="path-11" d="M172.510,150.898C174.414,146.255,176.499,141.326,180.412,138.406"/>
<path class="path-11" d="M180.412,138.406C197.659,126.163,217.575,124.636,238.635,123.333"/>
<path class="path-12" d="M238.635,123.333C248.077,122.731,254.698,129.016,262.064,135.159C268.119,140.554,274.635,146.639,281.065,152.298C290.742,160.757,294.813,165.020,298.443,169.098C301.540,172.220,306.374,178.069,310.214,180.819C314.846,184.135,324.371,201.055,326.450,202.945C319.865,205.326,309.479,207.201,304.777,211.146C306.555,216.936,307.094,225.955,307.162,228.664C300.965,229.226,293.690,226.573,282.191,224.735C280.015,231.968,280.173,238.695,275.630,246.086C267.875,243.906,262.469,242.130,252.408,237.903C245.947,243.244,244.399,242.869,233.848,249.620C226.661,245.436,220.909,240.933,213.932,238.238C207.223,241.275,196.510,242.523,192.933,245.528C188.975,238.574,185.309,230.880,181.982,227.578C172.433,229.750,168.377,232.464,161.656,235.072C157.320,229.650,160.234,225.040,155.381,217.039C151.028,215.962,144.285,213.488,138.723,213.497C142.469,208.928,144.989,194.125,151.447,192.120C159.416,189.647,154.154,180.621,158.910,172.321C160.085,170.163,171.511,153.589,172.510,150.898C174.414,146.255,176.499,141.326,180.412,138.406C197.659,126.163,217.575,124.636,238.635,123.333Z"/>
</g>
<g id="clothes">
<path class="path-0" d="M242.818,370.739C238.168,368.633,220.253,360.507,217.323,364.919C214.851,368.895,219.454,369.865,223.492,370.416C227.085,370.906,245.242,378.996,247.726,377.439C252.307,374.490,245.063,371.640,242.818,370.739M191.179,266.565C194.281,253.953,221.338,241.220,234.300,242.331C243.281,243.074,271.449,257.300,275.369,265.656C278.637,272.340,279.419,296.975,279.677,305.298C279.871,320.606,280.548,335.957,281.578,351.232C283.031,363.791,285.966,376.127,288.501,388.514C288.940,394.735,291.945,411.314,286.013,414.762C278.306,419.747,260.041,406.320,252.712,402.111C226.574,388.031,228.657,386.180,200.848,384.787C197.406,384.483,186.188,387.292,183.854,385.934C179.835,382.927,181.586,377.132,182.639,372.414C185.741,360.752,189.083,353.081,190.850,340.404C192.967,324.452,193.825,307.164,193.971,290.532C193.691,284.544,190.484,270.217,191.179,266.565M270.179,248.633C253.956,238.839,238.051,230.716,218.369,236.206C213.035,237.490,186.312,250.233,183.955,253.541C180.255,258.830,183.752,279.137,183.689,286.451C183.949,295.100,184.198,304.083,183.456,312.392C183.067,318.710,181.683,324.352,181.627,330.340C181.232,336.989,181.813,344.310,180.111,350.288C176.681,362.019,162.395,384.242,175.627,393.931C180.828,397.768,189.336,396.053,196.082,397.091C206.937,398.548,218.497,400.914,228.955,404.690C239.214,408.719,246.825,418.337,257.546,421.422C265.764,423.788,293.167,429.194,299.083,422.367C303.061,417.981,298.878,391.785,297.781,385.184C294.940,372.019,292.275,358.732,290.949,345.328C290.101,333.376,288.843,321.686,289.619,309.382C290.043,299.401,291.794,289.765,291.883,279.447C291.586,275.116,292.296,269.797,290.002,265.449C286.077,257.427,277.464,253.022,270.179,248.633Z"/>
<path class="path-13" d="M242.818,370.739C238.168,368.633,220.253,360.507,217.323,364.919"/>
<path class="path-13" d="M217.323,364.919C214.851,368.895,219.454,369.865,223.492,370.416"/>
<path class="path-13" d="M223.492,370.416C227.085,370.906,245.242,378.996,247.726,377.439"/>
<path class="path-13" d="M247.726,377.439C252.307,374.490,245.063,371.640,242.818,370.739"/>
<path class="path-13" d="M191.179,266.565C194.281,253.953,221.338,241.220,234.300,242.331"/>
<path class="path-13" d="M234.300,242.331C243.281,243.074,271.449,257.300,275.369,265.656"/>
<path class="path-13" d="M275.369,265.656C278.637,272.340,279.419,296.975,279.677,305.298"/>
<path class="path-13" d="M279.677,305.298C279.871,320.606,280.548,335.957,281.578,351.232"/>
<path class="path-13" d="M281.578,351.232C283.031,363.791,285.966,376.127,288.501,388.514"/>
<path class="path-13" d="M288.501,388.514C288.940,394.735,291.945,411.314,286.013,414.762"/>
<path class="path-13" d="M286.013,414.762C278.306,419.747,260.041,406.320,252.712,402.111"/>
<path class="path-13" d="M252.712,402.111C226.574,388.031,228.657,386.180,200.848,384.787"/>
<path class="path-13" d="M200.848,384.787C197.406,384.483,186.188,387.292,183.854,385.934"/>
<path class="path-13" d="M183.854,385.934C179.835,382.927,181.586,377.132,182.639,372.414"/>
<path class="path-13" d="M182.639,372.414C185.741,360.752,189.083,353.081,190.850,340.404"/>
<path class="path-13" d="M190.850,340.404C192.967,324.452,193.825,307.164,193.971,290.532"/>
<path class="path-13" d="M193.971,290.532C193.691,284.544,190.484,270.217,191.179,266.565"/>
<path class="path-14" d="M242.818,370.739C238.168,368.633,220.253,360.507,217.323,364.919C214.851,368.895,219.454,369.865,223.492,370.416C227.085,370.906,245.242,378.996,247.726,377.439C252.307,374.490,245.063,371.640,242.818,370.739M191.179,266.565C194.281,253.953,221.338,241.220,234.300,242.331C243.281,243.074,271.449,257.300,275.369,265.656C278.637,272.340,279.419,296.975,279.677,305.298C279.871,320.606,280.548,335.957,281.578,351.232C283.031,363.791,285.966,376.127,288.501,388.514C288.940,394.735,291.945,411.314,286.013,414.762C278.306,419.747,260.041,406.320,252.712,402.111C226.574,388.031,228.657,386.180,200.848,384.787C197.406,384.483,186.188,387.292,183.854,385.934C179.835,382.927,181.586,377.132,182.639,372.414C185.741,360.752,189.083,353.081,190.850,340.404C192.967,324.452,193.825,307.164,193.971,290.532C193.691,284.544,190.484,270.217,191.179,266.565Z"/>
</g>
<g id="neck">
<path class="path-0" d="M226.781,223.855C226.868,220.512,227.643,217.452,231.268,216.850C242.733,214.001,244.509,251.568,233.892,252.353C223.938,253.089,226.584,230.207,226.781,223.855M230.581,207.561C227.903,207.425,224.966,208.309,222.741,209.808C213.794,215.139,215.758,223.669,216.396,232.294C216.382,236.633,217.010,240.590,215.288,244.386C213.875,247.827,209.474,251.487,209.743,255.139C210.811,265.068,237.687,263.081,244.630,262.234C247.284,262.038,256.315,262.371,257.041,258.648C256.968,257.653,249.474,246.529,248.136,241.958C244.120,228.244,251.890,206.987,230.581,207.561Z"/>
<path class="path-15" d="M231.268,216.850C242.733,214.001,244.509,251.568,233.892,252.353"/>
<path class="path-15" d="M233.892,252.353C223.938,253.089,226.584,230.207,226.781,223.855"/>
<path class="path-15" d="M226.781,223.855C226.868,220.512,227.643,217.452,231.268,216.850"/>
<path class="path-16" d="M231.268,216.850C242.733,214.001,244.509,251.568,233.892,252.353C223.938,253.089,226.584,230.207,226.781,223.855C226.868,220.512,227.643,217.452,231.268,216.850Z"/>
</g>
<g id="layer_head">
<g id="right_ear">
<path class="path-0" d="M143.618,193.724C132.068,195.599,117.784,158.380,134.190,162.507C138.837,163.667,141.289,171.984,142.085,175.546C143.635,182.087,151.530,192.476,143.618,193.724M140.334,150.683C136.989,148.728,132.919,147.851,129.387,149.443C119.402,152.146,115.155,164.252,116.653,174.540C118.611,187.047,130.548,202.224,141.940,205.167C145.054,205.988,151.461,208.313,154.550,206.890C161.183,203.321,156.141,192.991,154.445,187.329C152.602,180.652,145.417,154.957,140.334,150.683Z"/>
<path class="path-15" d="M134.190,162.507C138.837,163.667,141.289,171.984,142.085,175.546"/>
<path class="path-15" d="M142.085,175.546C143.635,182.087,151.530,192.476,143.618,193.724"/>
<path class="path-15" d="M143.618,193.724C132.068,195.599,117.784,158.380,134.190,162.507"/>
<path class="path-16" d="M134.190,162.507C138.837,163.667,141.289,171.984,142.085,175.546C143.635,182.087,151.530,192.476,143.618,193.724C132.068,195.599,117.784,158.380,134.190,162.507Z"/>
</g>
<g id="face_Mask">
<g id="face">
<path class="path-0" d="M158.499,104.913C167.121,94.575,199.980,87.819,213.645,86.001C228.975,84.205,244.579,86.738,259.488,91.590C264.790,93.324,272.503,95.312,277.023,99.139C284.518,105.533,288.316,116.978,290.868,126.093C292.883,132.634,296.825,141.195,295.349,147.492C288.955,174.770,283.165,186.926,277.856,194.616C271.040,204.489,258.679,208.545,247.930,213.640C232.350,220.753,216.377,224.817,207.965,224.332C195.440,223.610,168.767,215.188,160.217,206.756C152.446,198.802,152.245,187.768,149.963,177.366C147.834,168.917,145.169,155.996,144.247,147.508C143.211,136.326,151.403,113.342,158.499,104.913M281.141,91.516C267.758,79.040,231.456,75.835,213.789,78.249C205.458,79.130,197.464,79.685,189.785,81.576C184.104,83.163,179.075,85.756,173.726,87.350C162.024,91.522,157.232,90.020,149.262,100.682C143.541,108.143,135.134,137.678,135.219,146.921C135.405,153.883,138.958,170.339,140.377,178.321C142.007,187.804,143.946,200.855,149.020,208.628C153.562,215.371,159.729,220.012,170.098,224.726C182.252,230.251,196.218,234.034,209.904,235.362C217.791,236.617,233.127,232.409,253.957,222.242C265.561,216.398,277.396,210.064,285.171,198.582C293.614,186.116,300.402,168.215,306.526,147.135C312.255,127.416,289.392,99.043,281.141,91.516Z"/>
<path class="path-15" d="M213.645,86.001C228.975,84.205,244.579,86.738,259.488,91.590"/>
<path class="path-15" d="M259.488,91.590C264.790,93.324,272.503,95.312,277.023,99.139"/>
<path class="path-15" d="M277.023,99.139C284.518,105.533,288.316,116.978,290.868,126.093"/>
<path class="path-15" d="M290.868,126.093C292.883,132.634,296.825,141.195,295.349,147.492"/>
<path class="path-15" d="M295.349,147.492C288.955,174.770,283.165,186.926,277.856,194.616"/>
<path class="path-15" d="M277.856,194.616C271.040,204.489,258.679,208.545,247.930,213.640"/>
<path class="path-15" d="M247.930,213.640C232.350,220.753,216.377,224.817,207.965,224.332"/>
<path class="path-15" d="M207.965,224.332C195.440,223.610,168.767,215.188,160.217,206.756"/>
<path class="path-15" d="M160.217,206.756C152.446,198.802,152.245,187.768,149.963,177.366"/>
<path class="path-15" d="M149.963,177.366C147.834,168.917,145.169,155.996,144.247,147.508"/>
<path class="path-15" d="M144.247,147.508C143.211,136.326,151.403,113.342,158.499,104.913"/>
<path class="path-15" d="M158.499,104.913C167.121,94.575,199.980,87.819,213.645,86.001"/>
<path class="path-16" d="M213.645,86.001C228.975,84.205,244.579,86.738,259.488,91.590C264.790,93.324,272.503,95.312,277.023,99.139C284.518,105.533,288.316,116.978,290.868,126.093C292.883,132.634,296.825,141.195,295.349,147.492C288.955,174.770,283.165,186.926,277.856,194.616C271.040,204.489,258.679,208.545,247.930,213.640C232.350,220.753,216.377,224.817,207.965,224.332C195.440,223.610,168.767,215.188,160.217,206.756C152.446,198.802,152.245,187.768,149.963,177.366C147.834,168.917,145.169,155.996,144.247,147.508C143.211,136.326,151.403,113.342,158.499,104.913C167.121,94.575,199.980,87.819,213.645,86.001Z"/>
</g>
</g>
<mask id="mask_target" style="mask-type:alpha;">
<use xlink:href="#face_Mask"/>
</mask>
<g id="mouse">
<path class="path-0" d="M210.756,214.805C215.945,215.977,215.967,220.731,215.487,221.232C215.216,221.514,214.106,220.548,211.152,220.023C205.559,219.028,202.838,220.165,202.650,219.448C202.444,218.663,204.681,213.434,210.756,214.805Z"/>
</g>
<g id="layer_eyes_Mtarget" mask="url(#mask_target)">
<g id="eyes">
<mask style="mask-type:alpha;" id="f3906406-f197-4bf1-91d8-744c09cca836">
<use xlink:href="#cmn_f3906406-f197-4bf1-91d8-744c09cca836"/>
</mask>
<g id="cmn_f3906406-f197-4bf1-91d8-744c09cca836">
<path class="path-0" d="M182.165,175.052C184.307,184.964,177.676,192.574,170.040,191.887C164.151,191.244,160.854,185.350,159.080,179.614C157.872,176.201,153.538,160.125,158.181,162.641C161.146,164.248,181.480,171.883,182.165,175.052M189.371,178.418C190.013,176.868,190.853,174.526,190.375,172.918C189.904,171.331,188.258,169.078,186.587,168.905C182.177,168.352,167.700,160.526,162.222,158.211C157.906,156.462,147.351,149.919,143.731,153.597C139.738,157.533,145.696,160.519,147.553,168.112C151.107,182.646,161.910,199.259,173.681,198.322C185.497,197.383,186.464,185.444,189.371,178.418M233.106,189.823C225.772,189.537,215.912,183.881,216.360,172.454C216.488,169.178,229.980,164.580,236.044,161.644C242.295,158.618,254.197,152.501,257.376,152.648C260.861,153.231,259.266,156.260,259.215,165.912C259.161,176.137,246.101,190.331,233.106,189.823M265.959,172.320C269.852,160.543,269.804,144.264,267.502,143.135C262.365,140.616,248.701,149.831,240.783,153.060C230.937,157.077,215.176,165.747,208.422,167.528C206.302,168.169,204.371,168.632,204.019,170.125C203.355,172.947,208.597,175.109,210.423,177.361C213.433,181.076,214.919,187.369,219.857,190.208C230.134,196.548,237.767,195.302,249.603,191.060C257.293,188.327,263.655,179.288,265.959,172.320Z"/>
<path class="path-17" d="M257.376,152.648C260.861,153.231,259.266,156.260,259.215,165.912"/>
<path class="path-17" d="M259.215,165.912C259.161,176.137,246.101,190.331,233.106,189.823"/>
<path class="path-17" d="M233.106,189.823C225.772,189.537,215.912,183.881,216.360,172.454"/>
<path class="path-17" d="M216.360,172.454C216.488,169.178,229.980,164.580,236.044,161.644"/>
<path class="path-17" d="M236.044,161.644C242.295,158.618,254.197,152.501,257.376,152.648"/>
<path class="path-18" d="M257.376,152.648C260.861,153.231,259.266,156.260,259.215,165.912C259.161,176.137,246.101,190.331,233.106,189.823C225.772,189.537,215.912,183.881,216.360,172.454C216.488,169.178,229.980,164.580,236.044,161.644C242.295,158.618,254.197,152.501,257.376,152.648Z"/>
<path class="path-17" d="M158.181,162.641C161.146,164.248,181.480,171.883,182.165,175.052"/>
<path class="path-17" d="M182.165,175.052C184.307,184.964,177.676,192.574,170.040,191.887"/>
<path class="path-17" d="M170.040,191.887C164.151,191.244,160.854,185.350,159.080,179.614"/>
<path class="path-17" d="M159.080,179.614C157.872,176.201,153.538,160.125,158.181,162.641"/>
<path class="path-18" d="M158.181,162.641C161.146,164.248,181.480,171.883,182.165,175.052C184.307,184.964,177.676,192.574,170.040,191.887C164.151,191.244,160.854,185.350,159.080,179.614C157.872,176.201,153.538,160.125,158.181,162.641Z"/>
</g>
</g>
<g id="pupil">
<path class="path-0" d="M217.336,166.923C219.722,166.390,222.482,170.054,223.047,178.854C223.414,184.562,222.201,186.864,220.632,187.086C218.738,187.354,217.117,184.667,215.923,177.874C214.648,170.624,215.345,167.369,217.336,166.923Z" mask="url(#f3906406-f197-4bf1-91d8-744c09cca836)"/>
<path class="path-0" d="M160.863,166.709C162.982,166.353,164.583,169.740,165.807,177.651C166.713,183.508,166.453,186.117,164.908,186.495C163.363,186.873,161.600,184.776,160.032,179.060C157.850,171.101,158.679,167.076,160.863,166.709Z" mask="url(#f3906406-f197-4bf1-91d8-744c09cca836)"/>
</g>
</g>
<g id="hat">
<path class="path-0" d="M296.109,127.657C298.247,128.747,301.000,131.373,301.370,134.032C302.823,140.487,291.735,140.336,288.326,140.680C281.979,140.684,275.357,140.206,269.297,139.978C263.543,140.283,257.776,140.159,252.014,140.245C239.206,139.440,226.468,137.911,213.665,137.059C200.292,136.696,187.332,135.887,173.588,135.444C171.899,135.437,141.925,138.244,136.606,135.689C126.088,130.752,136.257,122.320,135.745,117.218C135.673,114.115,129.096,113.205,130.788,107.848C132.354,103.149,148.734,99.229,153.685,98.143C165.086,95.579,176.922,92.588,189.049,91.268C205.109,89.612,220.997,90.725,237.252,90.111C253.825,89.579,289.816,95.463,300.590,112.065C306.764,121.381,289.126,112.947,287.157,112.479C281.506,109.698,260.371,101.025,268.537,111.159C273.230,118.383,289.433,123.511,296.109,127.657M181.180,84.694C170.172,86.053,160.065,86.775,149.651,88.899C145.387,89.757,140.372,91.603,136.318,90.493C127.441,88.199,138.831,65.793,142.899,60.608C157.845,42.036,188.193,33.251,213.236,34.090C259.200,35.629,276.937,44.675,291.037,61.129C295.475,65.933,310.176,89.170,301.069,95.022C297.745,96.863,291.895,93.165,289.019,91.741C279.055,87.071,227.521,78.974,181.180,84.694M253.517,29.516C241.116,26.727,235.816,22.725,221.450,22.979C190.392,23.862,151.091,28.298,131.899,57.038C125.841,66.335,124.818,76.901,122.233,86.898C120.253,94.410,115.467,99.971,115.833,107.641C116.374,114.869,119.762,116.628,121.490,122.340C123.510,128.411,121.186,131.000,122.346,134.949C124.524,146.279,134.880,146.941,144.417,147.406C149.127,147.637,166.524,147.580,175.999,147.641C187.313,147.714,202.401,147.693,213.714,147.847C223.606,147.981,236.791,148.466,246.683,148.555C255.826,148.638,268.027,148.868,277.162,148.458C286.806,148.026,308.061,146.786,309.220,145.664C311.190,143.791,315.700,125.067,315.953,121.537C316.215,117.883,314.643,114.109,315.138,108.250C315.949,95.058,316.658,82.992,310.649,69.932C299.693,46.657,275.510,34.871,253.517,29.516Z"/>
<path class="path-19" d="M237.252,90.111C253.825,89.579,289.816,95.463,300.590,112.065"/>
<path class="path-19" d="M300.590,112.065C306.764,121.381,289.126,112.947,287.157,112.479"/>
<path class="path-19" d="M287.157,112.479C281.506,109.698,260.371,101.025,268.537,111.159"/>
<path class="path-19" d="M268.537,111.159C273.230,118.383,289.433,123.511,296.109,127.657"/>
<path class="path-19" d="M296.109,127.657C298.247,128.747,301.000,131.373,301.370,134.032"/>
<path class="path-19" d="M301.370,134.032C302.823,140.487,291.735,140.336,288.326,140.680"/>
<path class="path-19" d="M288.326,140.680C281.979,140.684,275.357,140.206,269.297,139.978"/>
<path class="path-19" d="M269.297,139.978C263.543,140.283,257.776,140.159,252.014,140.245"/>
<path class="path-19" d="M252.014,140.245C239.206,139.440,226.468,137.911,213.665,137.059"/>
<path class="path-19" d="M213.665,137.059C200.292,136.696,187.332,135.887,173.588,135.444"/>
<path class="path-19" d="M173.588,135.444C171.899,135.437,141.925,138.244,136.606,135.689"/>
<path class="path-19" d="M136.606,135.689C126.088,130.752,136.257,122.320,135.745,117.218"/>
<path class="path-19" d="M135.745,117.218C135.673,114.115,129.096,113.205,130.788,107.848"/>
<path class="path-19" d="M130.788,107.848C132.354,103.149,148.734,99.229,153.685,98.143"/>
<path class="path-19" d="M153.685,98.143C165.086,95.579,176.922,92.588,189.049,91.268"/>
<path class="path-19" d="M189.049,91.268C205.109,89.612,220.997,90.725,237.252,90.111"/>
<path class="path-20" d="M237.252,90.111C253.825,89.579,289.816,95.463,300.590,112.065C306.764,121.381,289.126,112.947,287.157,112.479C281.506,109.698,260.371,101.025,268.537,111.159C273.230,118.383,289.433,123.511,296.109,127.657C298.247,128.747,301.000,131.373,301.370,134.032C302.823,140.487,291.735,140.336,288.326,140.680C281.979,140.684,275.357,140.206,269.297,139.978C263.543,140.283,257.776,140.159,252.014,140.245C239.206,139.440,226.468,137.911,213.665,137.059C200.292,136.696,187.332,135.887,173.588,135.444C171.899,135.437,141.925,138.244,136.606,135.689C126.088,130.752,136.257,122.320,135.745,117.218C135.673,114.115,129.096,113.205,130.788,107.848C132.354,103.149,148.734,99.229,153.685,98.143C165.086,95.579,176.922,92.588,189.049,91.268C205.109,89.612,220.997,90.725,237.252,90.111Z"/>
<path class="path-9" d="M213.236,34.090C259.200,35.629,276.937,44.675,291.037,61.129"/>
<path class="path-9" d="M291.037,61.129C295.475,65.933,310.176,89.170,301.069,95.022"/>
<path class="path-9" d="M301.069,95.022C297.745,96.863,291.895,93.165,289.019,91.741"/>
<path class="path-9" d="M289.019,91.741C279.055,87.071,227.521,78.974,181.180,84.694"/>
<path class="path-9" d="M181.180,84.694C170.172,86.053,160.065,86.775,149.651,88.899"/>
<path class="path-9" d="M149.651,88.899C145.387,89.757,140.372,91.603,136.318,90.493"/>
<path class="path-9" d="M136.318,90.493C127.441,88.199,138.831,65.793,142.899,60.608"/>
<path class="path-9" d="M142.899,60.608C157.845,42.036,188.193,33.251,213.236,34.090"/>
<path class="path-10" d="M213.236,34.090C259.200,35.629,276.937,44.675,291.037,61.129C295.475,65.933,310.176,89.170,301.069,95.022C297.745,96.863,291.895,93.165,289.019,91.741C279.055,87.071,227.521,78.974,181.180,84.694C170.172,86.053,160.065,86.775,149.651,88.899C145.387,89.757,140.372,91.603,136.318,90.493C127.441,88.199,138.831,65.793,142.899,60.608C157.845,42.036,188.193,33.251,213.236,34.090Z"/>
</g>
<g id="left_ear">
<path class="path-0" d="M283.893,187.071C282.523,182.292,286.525,156.174,288.739,152.556C294.424,143.021,311.102,152.358,314.340,160.406C317.851,169.679,308.014,183.823,300.330,190.088C292.970,195.905,286.209,194.867,283.893,187.071M327.015,163.829C325.965,149.502,309.108,134.166,296.294,140.401C280.879,147.902,286.274,170.437,283.729,184.398C283.138,188.209,280.473,192.111,281.240,195.699C283.137,205.337,292.934,207.021,301.471,199.909C311.428,191.440,327.609,177.707,327.015,163.829Z"/>
<path class="path-15" d="M288.739,152.556C294.424,143.021,311.102,152.358,314.340,160.406"/>
<path class="path-15" d="M314.340,160.406C317.851,169.679,308.014,183.823,300.330,190.088"/>
<path class="path-15" d="M300.330,190.088C292.970,195.905,286.209,194.867,283.893,187.071"/>
<path class="path-15" d="M283.893,187.071C282.523,182.292,286.525,156.174,288.739,152.556"/>
<path class="path-16" d="M288.739,152.556C294.424,143.021,311.102,152.358,314.340,160.406C317.851,169.679,308.014,183.823,300.330,190.088C292.970,195.905,286.209,194.867,283.893,187.071C282.523,182.292,286.525,156.174,288.739,152.556Z"/>
</g>
<g id="earrings">
<path class="path-0" d="M305.488,207.619C296.668,211.242,295.080,192.418,298.649,192.840C303.627,194.669,310.031,203.586,305.488,207.619M314.924,199.532C308.174,199.590,305.341,190.551,304.907,186.684C312.456,188.552,321.860,194.439,314.924,199.532M324.893,195.678C322.472,187.604,310.609,182.706,302.865,179.419C300.072,178.233,292.479,188.169,292.101,191.338C291.000,195.332,292.610,217.378,306.302,214.892C311.977,213.601,326.843,202.180,324.893,195.678Z"/>
<path class="path-21" d="M304.907,186.684C312.456,188.552,321.860,194.439,314.924,199.532"/>
<path class="path-21" d="M314.924,199.532C308.174,199.590,305.341,190.551,304.907,186.684"/>
<path class="path-22" d="M304.907,186.684C312.456,188.552,321.860,194.439,314.924,199.532C308.174,199.590,305.341,190.551,304.907,186.684Z"/>
<path class="path-21" d="M298.649,192.840C303.627,194.669,310.031,203.586,305.488,207.619"/>
<path class="path-21" d="M305.488,207.619C296.668,211.242,295.080,192.418,298.649,192.840"/>
<path class="path-22" d="M298.649,192.840C303.627,194.669,310.031,203.586,305.488,207.619C296.668,211.242,295.080,192.418,298.649,192.840Z"/>
</g>
</g>
<g id="jacket">
<path class="path-0" d="M202.459,271.317C205.074,275.669,202.287,285.951,202.234,290.607C200.044,307.575,197.263,323.820,197.030,340.530C197.088,344.139,195.828,350.517,193.660,354.112C191.793,357.207,187.763,360.941,184.744,362.216C181.103,363.692,178.775,357.298,177.596,354.371C176.190,350.879,177.156,344.096,177.427,341.692C178.332,336.553,181.330,326.753,181.937,320.199C182.565,313.936,181.096,307.482,181.085,300.541C180.642,295.109,178.936,288.799,177.917,282.806C178.009,279.629,178.596,277.671,178.689,275.426C178.411,269.986,181.000,268.590,186.205,268.174C191.042,268.133,200.852,265.985,202.459,271.317M258.715,281.339C260.293,277.680,286.254,260.627,289.589,258.896C297.984,255.034,302.191,264.339,302.109,269.778C302.091,278.423,287.295,306.776,288.796,312.798C289.303,315.494,291.283,316.903,292.897,318.615C305.904,333.842,300.233,324.149,314.067,331.402C319.679,334.403,330.331,342.773,334.414,347.490C336.989,350.849,341.608,359.188,342.319,363.093C342.482,364.855,342.475,367.952,339.880,368.065C338.522,368.293,325.482,363.275,323.152,362.888C312.040,360.418,299.761,360.837,290.784,352.526C287.298,348.929,284.797,343.819,281.881,339.312C274.438,328.213,268.032,316.622,263.423,304.022C260.991,298.156,256.725,287.720,258.715,281.339M275.446,256.417C272.383,259.504,266.277,264.457,264.107,265.446C256.240,268.533,254.787,259.083,254.315,253.168C254.090,248.029,257.107,240.772,260.217,236.462C262.951,232.673,267.362,227.498,272.445,226.817C278.847,225.726,289.627,232.568,288.213,239.822C287.776,243.170,279.870,251.958,275.446,256.417M193.647,234.265C198.546,238.290,202.152,243.028,201.166,247.481C200.240,251.661,197.148,253.910,189.928,256.249C178.562,259.930,169.837,242.577,173.445,235.491C176.200,230.081,187.373,229.113,193.647,234.265M349.978,375.483C349.229,366.808,353.449,360.287,349.857,351.936C345.648,342.408,335.917,334.108,327.292,328.360C316.820,321.765,307.917,323.551,300.930,311.413C295.318,302.042,299.523,291.881,301.048,281.511C301.431,277.836,302.001,259.044,302.110,255.675C301.697,252.238,302.225,248.777,301.762,245.624C301.320,241.754,301.859,237.635,300.569,233.960C298.653,227.311,291.726,224.253,286.454,220.893C279.201,216.850,272.916,214.934,264.617,216.743C255.489,218.744,252.275,228.850,249.641,235.569C245.627,245.804,247.585,261.182,247.856,272.173C248.011,278.458,248.871,287.190,249.749,293.043C252.511,313.643,275.108,355.488,293.779,364.928C297.505,367.125,323.147,372.755,330.761,375.753C335.829,377.778,337.358,380.407,341.057,384.210C342.592,385.917,346.859,389.976,349.468,388.623C352.856,387.004,350.214,378.223,349.978,375.483M207.439,234.095C204.147,228.316,198.711,218.724,191.910,218.274C185.551,218.059,175.875,219.313,170.106,222.666C166.609,224.698,161.331,228.469,160.935,232.546C160.207,238.609,162.704,245.871,165.730,250.582C167.495,253.330,171.841,255.300,173.912,257.768C174.982,259.117,178.872,266.542,179.568,268.559C183.386,278.704,179.740,290.687,178.238,300.011C176.945,308.033,172.459,318.110,170.914,326.088C169.315,334.347,167.916,344.792,167.886,353.964C167.746,356.399,168.836,361.725,169.526,365.001C170.194,368.169,170.664,374.106,172.376,375.411C173.371,376.170,184.780,377.390,189.559,375.458C193.642,373.807,197.317,374.310,200.215,365.359C203.730,353.564,205.132,342.502,205.634,330.064C205.941,308.769,212.523,279.836,211.909,266.756C211.627,260.749,212.736,256.762,211.540,248.378C210.938,244.902,209.646,237.968,207.439,234.095Z"/>
<path class="path-1" d="M289.589,258.896C297.984,255.034,302.191,264.339,302.109,269.778"/>
<path class="path-1" d="M302.109,269.778C302.091,278.423,287.295,306.776,288.796,312.798"/>
<path class="path-1" d="M288.796,312.798C289.303,315.494,291.283,316.903,292.897,318.615"/>
<path class="path-1" d="M292.897,318.615C305.904,333.842,300.233,324.149,314.067,331.402"/>
<path class="path-1" d="M314.067,331.402C319.679,334.403,330.331,342.773,334.414,347.490"/>
<path class="path-1" d="M334.414,347.490C336.989,350.849,341.608,359.188,342.319,363.093"/>
<path class="path-1" d="M342.319,363.093C342.482,364.855,342.475,367.952,339.880,368.065"/>
<path class="path-1" d="M339.880,368.065C338.522,368.293,325.482,363.275,323.152,362.888"/>
<path class="path-1" d="M323.152,362.888C312.040,360.418,299.761,360.837,290.784,352.526"/>
<path class="path-1" d="M290.784,352.526C287.298,348.929,284.797,343.819,281.881,339.312"/>
<path class="path-1" d="M281.881,339.312C274.438,328.213,268.032,316.622,263.423,304.022"/>
<path class="path-1" d="M263.423,304.022C260.991,298.156,256.725,287.720,258.715,281.339"/>
<path class="path-1" d="M258.715,281.339C260.293,277.680,286.254,260.627,289.589,258.896"/>
<path class="path-2" d="M289.589,258.896C297.984,255.034,302.191,264.339,302.109,269.778C302.091,278.423,287.295,306.776,288.796,312.798C289.303,315.494,291.283,316.903,292.897,318.615C305.904,333.842,300.233,324.149,314.067,331.402C319.679,334.403,330.331,342.773,334.414,347.490C336.989,350.849,341.608,359.188,342.319,363.093C342.482,364.855,342.475,367.952,339.880,368.065C338.522,368.293,325.482,363.275,323.152,362.888C312.040,360.418,299.761,360.837,290.784,352.526C287.298,348.929,284.797,343.819,281.881,339.312C274.438,328.213,268.032,316.622,263.423,304.022C260.991,298.156,256.725,287.720,258.715,281.339C260.293,277.680,286.254,260.627,289.589,258.896Z"/>
<path class="path-1" d="M186.205,268.174C191.042,268.133,200.852,265.985,202.459,271.317"/>
<path class="path-1" d="M202.459,271.317C205.074,275.669,202.287,285.951,202.234,290.607"/>
<path class="path-1" d="M202.234,290.607C200.044,307.575,197.263,323.820,197.030,340.530"/>
<path class="path-1" d="M197.030,340.530C197.088,344.139,195.828,350.517,193.660,354.112"/>
<path class="path-1" d="M193.660,354.112C191.793,357.207,187.763,360.941,184.744,362.216"/>
<path class="path-1" d="M184.744,362.216C181.103,363.692,178.775,357.298,177.596,354.371"/>
<path class="path-1" d="M177.596,354.371C176.190,350.879,177.156,344.096,177.427,341.692"/>
<path class="path-1" d="M177.427,341.692C178.332,336.553,181.330,326.753,181.937,320.199"/>
<path class="path-1" d="M181.937,320.199C182.565,313.936,181.096,307.482,181.085,300.541"/>
<path class="path-1" d="M181.085,300.541C180.642,295.109,178.936,288.799,177.917,282.806"/>
<path class="path-1" d="M177.917,282.806C178.009,279.629,178.596,277.671,178.689,275.426"/>
<path class="path-1" d="M178.689,275.426C178.411,269.986,181.000,268.590,186.205,268.174"/>
<path class="path-2" d="M186.205,268.174C191.042,268.133,200.852,265.985,202.459,271.317C205.074,275.669,202.287,285.951,202.234,290.607C200.044,307.575,197.263,323.820,197.030,340.530C197.088,344.139,195.828,350.517,193.660,354.112C191.793,357.207,187.763,360.941,184.744,362.216C181.103,363.692,178.775,357.298,177.596,354.371C176.190,350.879,177.156,344.096,177.427,341.692C178.332,336.553,181.330,326.753,181.937,320.199C182.565,313.936,181.096,307.482,181.085,300.541C180.642,295.109,178.936,288.799,177.917,282.806C178.009,279.629,178.596,277.671,178.689,275.426C178.411,269.986,181.000,268.590,186.205,268.174Z"/>
<path class="path-1" d="M272.445,226.817C278.847,225.726,289.627,232.568,288.213,239.822"/>
<path class="path-1" d="M288.213,239.822C287.776,243.170,279.870,251.958,275.446,256.417"/>
<path class="path-1" d="M275.446,256.417C272.383,259.504,266.277,264.457,264.107,265.446"/>
<path class="path-1" d="M264.107,265.446C256.240,268.533,254.787,259.083,254.315,253.168"/>
<path class="path-1" d="M254.315,253.168C254.090,248.029,257.107,240.772,260.217,236.462"/>
<path class="path-1" d="M260.217,236.462C262.951,232.673,267.362,227.498,272.445,226.817"/>
<path class="path-2" d="M272.445,226.817C278.847,225.726,289.627,232.568,288.213,239.822C287.776,243.170,279.870,251.958,275.446,256.417C272.383,259.504,266.277,264.457,264.107,265.446C256.240,268.533,254.787,259.083,254.315,253.168C254.090,248.029,257.107,240.772,260.217,236.462C262.951,232.673,267.362,227.498,272.445,226.817Z"/>
<path class="path-1" d="M193.647,234.265C198.546,238.290,202.152,243.028,201.166,247.481"/>
<path class="path-1" d="M201.166,247.481C200.240,251.661,197.148,253.910,189.928,256.249"/>
<path class="path-1" d="M189.928,256.249C178.562,259.930,169.837,242.577,173.445,235.491"/>
<path class="path-1" d="M173.445,235.491C176.200,230.081,187.373,229.113,193.647,234.265"/>
<path class="path-2" d="M193.647,234.265C198.546,238.290,202.152,243.028,201.166,247.481C200.240,251.661,197.148,253.910,189.928,256.249C178.562,259.930,169.837,242.577,173.445,235.491C176.200,230.081,187.373,229.113,193.647,234.265Z"/>
</g>
<g id="left_arm">
<path class="path-0" d="M323.744,454.631C320.132,449.653,318.376,441.001,325.689,438.188C330.825,436.166,354.871,439.322,359.136,442.931C366.547,448.593,363.766,463.351,355.506,467.346C345.839,471.489,329.628,462.560,323.744,454.631M284.958,279.912C284.965,276.596,290.470,264.567,295.620,264.326C298.611,264.186,301.279,268.647,302.941,270.954C307.693,278.280,312.724,285.820,317.051,293.663C328.909,314.683,338.992,336.226,347.055,358.546C350.035,367.533,350.592,379.946,354.603,387.961C359.371,397.216,365.351,393.420,368.845,399.454C370.418,402.328,370.232,408.019,372.610,412.493C376.205,419.538,382.174,423.043,385.215,427.462C387.096,429.974,388.003,432.882,384.418,433.873C382.515,435.048,377.117,434.578,375.125,434.764C368.319,433.619,361.516,432.468,354.726,431.263C345.614,430.043,318.362,430.820,313.230,425.242C305.475,416.513,315.484,404.623,316.036,395.201C316.441,392.223,316.429,348.923,315.297,346.197C313.446,339.827,308.066,335.333,304.815,329.163C300.803,320.581,296.620,311.378,292.784,302.336C289.692,294.640,284.542,288.983,284.958,279.912M304.322,251.959C300.853,248.075,291.606,241.972,286.176,244.828C281.711,247.423,282.642,253.376,283.047,257.404C284.064,267.471,284.322,276.021,286.855,285.330C288.368,292.159,290.697,298.074,293.059,304.329C295.931,312.639,298.876,329.351,301.234,339.096C303.178,348.391,306.848,357.798,307.178,366.006C307.542,385.269,299.866,404.047,302.126,423.092C302.935,432.677,305.564,432.434,308.469,439.905C310.646,445.727,309.830,452.145,312.621,457.586C319.840,472.004,338.219,484.151,354.850,479.420C370.181,475.130,369.428,458.166,376.964,448.520C383.592,439.952,398.512,442.707,399.807,434.251C401.212,427.122,390.953,420.309,386.868,415.305C378.764,405.975,384.216,403.188,379.953,395.871C376.846,390.459,368.840,386.106,364.583,379.131C362.308,375.976,360.785,369.745,359.048,365.554C355.207,355.182,351.582,343.221,347.759,332.336C343.727,320.054,339.423,309.483,332.631,297.698C327.270,288.123,311.001,258.760,304.322,251.959Z"/>
<path class="path-1" d="M295.620,264.326C298.611,264.186,301.279,268.647,302.941,270.954"/>
<path class="path-1" d="M302.941,270.954C307.693,278.280,312.724,285.820,317.051,293.663"/>
<path class="path-1" d="M317.051,293.663C328.909,314.683,338.992,336.226,347.055,358.546"/>
<path class="path-1" d="M347.055,358.546C350.035,367.533,350.592,379.946,354.603,387.961"/>
<path class="path-1" d="M354.603,387.961C359.371,397.216,365.351,393.420,368.845,399.454"/>
<path class="path-1" d="M368.845,399.454C370.418,402.328,370.232,408.019,372.610,412.493"/>
<path class="path-1" d="M372.610,412.493C376.205,419.538,382.174,423.043,385.215,427.462"/>
<path class="path-1" d="M385.215,427.462C387.096,429.974,388.003,432.882,384.418,433.873"/>
<path class="path-1" d="M384.418,433.873C382.515,435.048,377.117,434.578,375.125,434.764"/>
<path class="path-1" d="M375.125,434.764C368.319,433.619,361.516,432.468,354.726,431.263"/>
<path class="path-1" d="M354.726,431.263C345.614,430.043,318.362,430.820,313.230,425.242"/>
<path class="path-1" d="M313.230,425.242C305.475,416.513,315.484,404.623,316.036,395.201"/>
<path class="path-1" d="M316.036,395.201C316.441,392.223,316.429,348.923,315.297,346.197"/>
<path class="path-1" d="M315.297,346.197C313.446,339.827,308.066,335.333,304.815,329.163"/>
<path class="path-1" d="M304.815,329.163C300.803,320.581,296.620,311.378,292.784,302.336"/>
<path class="path-1" d="M292.784,302.336C289.692,294.640,284.542,288.983,284.958,279.912"/>
<path class="path-1" d="M284.958,279.912C284.965,276.596,290.470,264.567,295.620,264.326"/>
<path class="path-2" d="M295.620,264.326C298.611,264.186,301.279,268.647,302.941,270.954C307.693,278.280,312.724,285.820,317.051,293.663C328.909,314.683,338.992,336.226,347.055,358.546C350.035,367.533,350.592,379.946,354.603,387.961C359.371,397.216,365.351,393.420,368.845,399.454C370.418,402.328,370.232,408.019,372.610,412.493C376.205,419.538,382.174,423.043,385.215,427.462C387.096,429.974,388.003,432.882,384.418,433.873C382.515,435.048,377.117,434.578,375.125,434.764C368.319,433.619,361.516,432.468,354.726,431.263C345.614,430.043,318.362,430.820,313.230,425.242C305.475,416.513,315.484,404.623,316.036,395.201C316.441,392.223,316.429,348.923,315.297,346.197C313.446,339.827,308.066,335.333,304.815,329.163C300.803,320.581,296.620,311.378,292.784,302.336C289.692,294.640,284.542,288.983,284.958,279.912C284.965,276.596,290.470,264.567,295.620,264.326Z"/>
<path class="path-15" d="M325.689,438.188C330.825,436.166,354.871,439.322,359.136,442.931"/>
<path class="path-15" d="M359.136,442.931C366.547,448.593,363.766,463.351,355.506,467.346"/>
<path class="path-15" d="M355.506,467.346C345.839,471.489,329.628,462.560,323.744,454.631"/>
<path class="path-15" d="M323.744,454.631C320.132,449.653,318.376,441.001,325.689,438.188"/>
<path class="path-16" d="M325.689,438.188C330.825,436.166,354.871,439.322,359.136,442.931C366.547,448.593,363.766,463.351,355.506,467.346C345.839,471.489,329.628,462.560,323.744,454.631C320.132,449.653,318.376,441.001,325.689,438.188Z"/>
</g>
<g id="bone">
<g id="bone_B20">
<path class="path-23" d="M221.089,133.897C219.250,122.062,217.411,110.227,215.571,98.392"/>
</g>
<g id="bone_">
<path class="path-23" d="M552.381,338.786C565.937,319.003,579.493,299.220,593.048,279.437"/>
</g>
<g id="bone_">
<path class="path-23" d="M496.479,337.308C496.479,313.696,496.479,290.084,496.479,266.472"/>
</g>
<g id="bone_">
<path class="path-23" d="M436.410,337.308C455.037,322.797,473.664,308.286,492.291,293.775"/>
</g>
<g id="bone_">
<path class="path-23" d="M604.616,215.385C610.095,192.418,615.574,169.450,621.054,146.483"/>
</g>
<g id="bone_">
<path class="path-23" d="M436.410,216.411C441.675,193.393,446.939,170.375,452.204,147.357"/>
</g>
<g id="bone_">
<path class="path-23" d="M551.282,215.385C548.233,191.971,545.185,168.556,542.136,145.142"/>
</g>
<g id="bone_">
<path class="path-23" d="M495.897,216.411C512.413,199.536,528.929,182.661,545.444,165.786"/>
</g>
<g id="bone_B18">
<path class="path-23" d="M215.771,387.477C211.521,419.595,207.271,451.712,203.022,483.830"/>
</g>
<g id="bone_B17">
<path class="path-23" d="M261.925,387.477C264.092,420.781,266.259,454.086,268.425,487.390"/>
</g>
<g id="bone_B16">
<path class="path-23" d="M225.025,159.214C229.898,183.694,234.771,208.173,239.645,232.652"/>
</g>
<g id="bone_B14">
<path class="path-23" d="M147.408,381.681C156.751,398.381,166.095,415.082,175.438,431.782"/>
</g>
<g id="bone_B13">
<path class="path-23" d="M177.905,272.150C167.740,308.660,157.574,345.171,147.408,381.681"/>
</g>
<g id="bone_B11">
<path class="path-23" d="M329.645,342.675C333.858,364.279,338.070,385.883,342.283,407.487"/>
</g>
<g id="bone_B9">
<path class="path-23" d="M290.831,258.636C303.769,286.649,316.707,314.662,329.645,342.675"/>
</g>
<g id="bone_B5">
<path class="path-23" d="M233.391,213.040C229.290,186.659,225.190,160.278,221.089,133.897"/>
</g>
<g id="bone_B4">
<path class="path-23" d="M234.445,255.127C234.094,241.098,233.742,227.069,233.391,213.040"/>
</g>
<g id="bone_B3">
<path class="path-23" d="M239.028,327.985C237.500,303.699,235.973,279.413,234.445,255.127"/>
</g>
<g id="bone_B2">
<path class="path-23" d="M238.335,387.477C238.566,367.646,238.797,347.815,239.028,327.985"/>
</g>
<g id="bone_B1">
<path class="path-23" d="M238.335,387.477C250.312,387.477,262.289,387.477,274.266,387.477"/>
</g>
</g>
</g>
<style>
.path-0{fill:#000000;fill-rule:evenodd;stroke:none;}
.path-1{fill:none;stroke:#a60d3f;stroke-width:1;stroke-linecap:butt;stroke-linejoin:round;}
.path-2{fill:#a60d3f;fill-rule:evenodd;stroke:none;}
.path-3{fill:none;stroke:#d88e4b;stroke-width:1;stroke-linecap:butt;stroke-linejoin:round;}
.path-4{fill:#d88e4b;fill-rule:evenodd;stroke:none;}
.path-5{fill:none;stroke:#6e2353;stroke-width:1;stroke-linecap:butt;stroke-linejoin:round;}
.path-6{fill:#6e2353;fill-rule:evenodd;stroke:none;}
.path-7{fill:none;stroke:#392966;stroke-width:1;stroke-linecap:butt;stroke-linejoin:round;}
.path-8{fill:#392966;fill-rule:evenodd;stroke:none;}
.path-9{fill:none;stroke:#cc9bc5;stroke-width:1;stroke-linecap:butt;stroke-linejoin:round;}
.path-10{fill:#cc9bc5;fill-rule:evenodd;stroke:none;}
.path-11{fill:none;stroke:#620527;stroke-width:1;stroke-linecap:butt;stroke-linejoin:round;}
.path-12{fill:#620527;fill-rule:evenodd;stroke:none;}
.path-13{fill:none;stroke:#6a3661;stroke-width:1;stroke-linecap:butt;stroke-linejoin:round;}
.path-14{fill:#6a3661;fill-rule:evenodd;stroke:none;}
.path-15{fill:none;stroke:#f8a087;stroke-width:1;stroke-linecap:butt;stroke-linejoin:round;}
.path-16{fill:#f8a087;fill-rule:evenodd;stroke:none;}
.path-17{fill:none;stroke:#ffffff;stroke-width:1;stroke-linecap:butt;stroke-linejoin:round;}
.path-18{fill:#ffffff;fill-rule:evenodd;stroke:none;}
.path-19{fill:none;stroke:#d89f4a;stroke-width:1;stroke-linecap:butt;stroke-linejoin:round;}
.path-20{fill:#d89f4a;fill-rule:evenodd;stroke:none;}
.path-21{fill:none;stroke:#fafd5b;stroke-width:1;stroke-linecap:butt;stroke-linejoin:round;}
.path-22{fill:#fafd5b;fill-rule:evenodd;stroke:none;}
.path-23{fill:none;stroke:#00ff00;stroke-width:8;stroke-linecap:round;stroke-linejoin:round;}
.path-24{fill:none;stroke:#000000;stroke-width:1;stroke-linecap:butt;stroke-linejoin:round;}
</style>
</svg>
