<svg version="1.1" id="Frame_48" xmlns="http://www.w3.org/2000/svg" xmlns:xlink="http://www.w3.org/1999/xlink" width="480px" height="720px">
<g id="main_bone">
<g id="right_arm">
<path class="path-0" d="M181.472,268.036C183.090,265.471,186.259,260.172,190.145,258.965C196.664,256.939,201.726,263.083,202.114,267.655C203.102,275.671,196.506,285.926,193.352,293.533C185.633,311.834,177.396,329.929,172.226,348.563C171.575,351.826,166.700,372.999,166.720,370.352C166.339,376.970,172.924,382.644,175.222,388.280C178.164,395.878,175.356,403.078,173.547,410.053C169.363,424.416,169.865,429.701,170.448,443.638C170.643,445.838,171.236,452.994,167.797,453.488C164.386,453.979,163.205,447.837,162.240,445.519C161.597,442.901,158.653,437.470,159.133,435.084C159.143,431.116,163.709,431.969,158.497,423.897C151.838,413.797,140.404,405.340,137.436,392.026C135.469,381.422,141.042,372.122,144.252,362.255C151.089,341.037,158.704,319.830,167.660,299.083C172.540,288.309,174.981,278.903,181.472,268.036M202.040,261.381C202.769,252.882,200.283,245.263,189.518,247.980C172.120,252.306,164.456,278.213,158.616,292.759C150.424,312.380,143.634,332.252,137.378,352.263C134.824,360.820,131.645,365.156,130.285,370.122C128.592,375.742,128.852,384.361,129.170,389.993C129.128,407.643,134.427,408.535,141.887,421.941C145.866,429.885,142.285,435.100,145.182,441.962C147.303,446.698,151.422,449.869,154.691,453.696C157.606,457.551,158.434,459.813,160.662,463.375C163.361,467.636,171.270,477.184,176.868,474.191C181.015,471.954,179.769,464.129,179.578,460.317C179.132,454.598,179.889,432.347,180.737,425.598C182.313,414.376,188.166,402.340,186.491,390.267C185.139,381.025,176.935,374.371,177.366,364.469C177.747,359.193,181.096,350.646,182.284,344.742C184.236,335.316,184.736,325.167,187.449,315.532C192.081,298.370,201.149,279.499,202.040,261.381Z"/>
<path class="path-1" d="M190.145,258.965C196.664,256.939,201.726,263.083,202.114,267.655"/>
<path class="path-1" d="M202.114,267.655C203.102,275.671,196.506,285.926,193.352,293.533"/>
<path class="path-1" d="M193.352,293.533C185.633,311.834,177.396,329.929,172.226,348.563"/>
<path class="path-1" d="M172.226,348.563C171.575,351.826,166.700,372.999,166.720,370.352"/>
<path class="path-1" d="M166.720,370.352C166.339,376.970,172.924,382.644,175.222,388.280"/>
<path class="path-1" d="M175.222,388.280C178.164,395.878,175.356,403.078,173.547,410.053"/>
<path class="path-1" d="M173.547,410.053C169.363,424.416,169.865,429.701,170.448,443.638"/>
<path class="path-1" d="M170.448,443.638C170.643,445.838,171.236,452.994,167.797,453.488"/>
<path class="path-1" d="M167.797,453.488C164.386,453.979,163.205,447.837,162.240,445.519"/>
<path class="path-1" d="M162.240,445.519C161.597,442.901,158.653,437.470,159.133,435.084"/>
<path class="path-1" d="M159.133,435.084C159.143,431.116,163.709,431.969,158.497,423.897"/>
<path class="path-1" d="M158.497,423.897C151.838,413.797,140.404,405.340,137.436,392.026"/>
<path class="path-1" d="M137.436,392.026C135.469,381.422,141.042,372.122,144.252,362.255"/>
<path class="path-1" d="M144.252,362.255C151.089,341.037,158.704,319.830,167.660,299.083"/>
<path class="path-1" d="M167.660,299.083C172.540,288.309,174.981,278.903,181.472,268.036"/>
<path class="path-1" d="M181.472,268.036C183.090,265.471,186.259,260.172,190.145,258.965"/>
<path class="path-2" d="M190.145,258.965C196.664,256.939,201.726,263.083,202.114,267.655C203.102,275.671,196.506,285.926,193.352,293.533C185.633,311.834,177.396,329.929,172.226,348.563C171.575,351.826,166.700,372.999,166.720,370.352C166.339,376.970,172.924,382.644,175.222,388.280C178.164,395.878,175.356,403.078,173.547,410.053C169.363,424.416,169.865,429.701,170.448,443.638C170.643,445.838,171.236,452.994,167.797,453.488C164.386,453.979,163.205,447.837,162.240,445.519C161.597,442.901,158.653,437.470,159.133,435.084C159.143,431.116,163.709,431.969,158.497,423.897C151.838,413.797,140.404,405.340,137.436,392.026C135.469,381.422,141.042,372.122,144.252,362.255C151.089,341.037,158.704,319.830,167.660,299.083C172.540,288.309,174.981,278.903,181.472,268.036C183.090,265.471,186.259,260.172,190.145,258.965Z"/>
</g>
<g id="layer_right_leg">
<g id="right_heel">
<path class="path-0" d="M194.933,619.131C194.886,602.865,195.402,590.219,215.045,586.305C223.813,584.394,240.813,586.301,246.131,594.597C248.908,598.701,248.453,604.963,248.932,609.480C249.775,616.825,254.998,630.820,244.700,633.070C244.043,633.281,225.713,634.525,219.994,634.964C212.624,636.222,204.944,637.159,199.313,632.303C196.455,629.295,194.869,622.901,194.933,619.131M255.522,592.401C251.076,582.260,236.536,577.181,226.600,579.175C213.679,581.605,200.130,577.999,192.296,590.624C186.237,600.389,186.371,617.737,188.907,628.622C189.917,633.691,193.629,642.838,198.020,645.443C201.235,647.258,206.013,646.434,209.691,646.246C227.671,645.614,260.095,650.048,258.300,623.266C257.769,616.426,257.829,597.714,255.522,592.401Z"/>
<path class="path-3" d="M215.045,586.305C223.813,584.394,240.813,586.301,246.131,594.597"/>
<path class="path-3" d="M246.131,594.597C248.908,598.701,248.453,604.963,248.932,609.480"/>
<path class="path-3" d="M248.932,609.480C249.775,616.825,254.998,630.820,244.700,633.070"/>
<path class="path-3" d="M244.700,633.070C244.043,633.281,225.713,634.525,219.994,634.964"/>
<path class="path-3" d="M219.994,634.964C212.624,636.222,204.944,637.159,199.313,632.303"/>
<path class="path-3" d="M199.313,632.303C196.455,629.295,194.869,622.901,194.933,619.131"/>
<path class="path-3" d="M194.933,619.131C194.886,602.865,195.402,590.219,215.045,586.305"/>
<path class="path-4" d="M215.045,586.305C223.813,584.394,240.813,586.301,246.131,594.597C248.908,598.701,248.453,604.963,248.932,609.480C249.775,616.825,254.998,630.820,244.700,633.070C244.043,633.281,225.713,634.525,219.994,634.964C212.624,636.222,204.944,637.159,199.313,632.303C196.455,629.295,194.869,622.901,194.933,619.131C194.886,602.865,195.402,590.219,215.045,586.305Z"/>
</g>
<g id="right_leg">
<path class="path-0" d="M183.040,408.480C185.999,396.483,201.505,392.916,212.101,395.270C218.002,396.454,227.846,398.809,231.373,404.100C233.059,406.631,233.923,411.467,232.529,414.170C230.284,418.520,214.374,417.403,217.740,421.070C223.466,427.479,232.381,417.245,236.932,420.773C239.044,422.411,239.367,426.128,239.913,429.168C244.910,450.600,239.298,473.968,239.939,495.308C240.077,502.198,238.620,512.418,240.058,518.641C243.151,534.404,241.619,537.796,242.455,547.296C242.544,550.818,241.607,568.727,242.931,573.266C244.370,577.861,247.593,582.270,248.303,587.057C249.511,595.194,238.863,607.057,231.681,609.828C223.770,612.701,198.706,612.701,190.887,609.019C187.552,607.567,183.466,603.710,181.943,600.122C180.428,597.024,177.538,582.276,178.268,578.605C179.818,572.098,182.131,570.620,183.740,562.956C185.309,553.995,187.235,544.335,186.205,535.082C183.699,515.804,182.860,485.744,184.329,472.025C184.985,464.047,181.947,437.485,182.651,430.095C183.867,418.435,181.645,416.306,183.040,408.480M206.767,383.773C201.014,382.077,196.397,376.944,190.539,379.296C188.793,380.171,185.787,382.567,184.585,383.924C169.370,398.491,171.287,412.217,172.274,431.750C172.335,438.793,172.649,446.095,172.449,452.860C172.171,458.461,170.888,463.177,169.934,468.365C169.430,472.649,168.997,477.214,169.088,482.548C169.321,488.145,171.194,494.622,171.832,504.115C171.784,514.278,172.955,523.807,173.002,533.522C173.237,539.662,171.107,554.031,170.470,558.738C168.570,565.606,165.512,573.509,164.305,580.134C163.232,588.829,165.584,597.788,169.386,605.174C171.267,609.357,174.459,614.292,177.784,617.038C179.979,618.848,182.829,619.943,185.412,620.763C193.114,623.164,200.425,624.101,208.568,624.053C214.222,624.063,219.729,622.501,225.609,622.529C226.630,622.377,235.128,623.183,236.793,623.161C239.613,622.961,243.438,620.294,245.911,618.615C249.063,616.216,254.643,615.026,257.266,611.912C259.625,609.109,260.776,605.444,261.989,601.985C268.729,581.861,260.931,570.806,257.437,552.599C255.521,542.617,252.259,522.011,251.954,510.758C251.303,497.077,253.692,483.746,253.854,469.627C253.997,465.066,254.105,459.598,254.582,454.418C254.957,449.375,253.573,445.395,253.074,440.440C252.456,436.600,252.124,424.191,251.321,420.072C250.753,416.397,250.553,411.783,249.031,408.200C244.887,399.089,230.391,389.525,220.930,387.025C216.192,385.607,211.191,385.539,206.767,383.773Z"/>
<path class="path-7" d="M212.101,395.270C218.002,396.454,227.846,398.809,231.373,404.100"/>
<path class="path-7" d="M231.373,404.100C233.059,406.631,233.923,411.467,232.529,414.170"/>
<path class="path-7" d="M232.529,414.170C230.284,418.520,214.374,417.403,217.740,421.070"/>
<path class="path-7" d="M217.740,421.070C223.466,427.479,232.381,417.245,236.932,420.773"/>
<path class="path-7" d="M236.932,420.773C239.044,422.411,239.367,426.128,239.913,429.168"/>
<path class="path-7" d="M239.913,429.168C244.910,450.600,239.298,473.968,239.939,495.308"/>
<path class="path-7" d="M239.939,495.308C240.077,502.198,238.620,512.418,240.058,518.641"/>
<path class="path-7" d="M240.058,518.641C243.151,534.404,241.619,537.796,242.455,547.296"/>
<path class="path-7" d="M242.455,547.296C242.544,550.818,241.607,568.727,242.931,573.266"/>
<path class="path-7" d="M242.931,573.266C244.370,577.861,247.593,582.270,248.303,587.057"/>
<path class="path-7" d="M248.303,587.057C249.511,595.194,238.863,607.057,231.681,609.828"/>
<path class="path-7" d="M231.681,609.828C223.770,612.701,198.706,612.701,190.887,609.019"/>
<path class="path-7" d="M190.887,609.019C187.552,607.567,183.466,603.710,181.943,600.122"/>
<path class="path-7" d="M181.943,600.122C180.428,597.024,177.538,582.276,178.268,578.605"/>
<path class="path-7" d="M178.268,578.605C179.818,572.098,182.131,570.620,183.740,562.956"/>
<path class="path-7" d="M183.740,562.956C185.309,553.995,187.235,544.335,186.205,535.082"/>
<path class="path-7" d="M186.205,535.082C183.699,515.804,182.860,485.744,184.329,472.025"/>
<path class="path-7" d="M184.329,472.025C184.985,464.047,181.947,437.485,182.651,430.095"/>
<path class="path-7" d="M182.651,430.095C183.867,418.435,181.645,416.306,183.040,408.480"/>
<path class="path-7" d="M183.040,408.480C185.999,396.483,201.505,392.916,212.101,395.270"/>
<path class="path-8" d="M212.101,395.270C218.002,396.454,227.846,398.809,231.373,404.100C233.059,406.631,233.923,411.467,232.529,414.170C230.284,418.520,214.374,417.403,217.740,421.070C223.466,427.479,232.381,417.245,236.932,420.773C239.044,422.411,239.367,426.128,239.913,429.168C244.910,450.600,239.298,473.968,239.939,495.308C240.077,502.198,238.620,512.418,240.058,518.641C243.151,534.404,241.619,537.796,242.455,547.296C242.544,550.818,241.607,568.727,242.931,573.266C244.370,577.861,247.593,582.270,248.303,587.057C249.511,595.194,238.863,607.057,231.681,609.828C223.770,612.701,198.706,612.701,190.887,609.019C187.552,607.567,183.466,603.710,181.943,600.122C180.428,597.024,177.538,582.276,178.268,578.605C179.818,572.098,182.131,570.620,183.740,562.956C185.309,553.995,187.235,544.335,186.205,535.082C183.699,515.804,182.860,485.744,184.329,472.025C184.985,464.047,181.947,437.485,182.651,430.095C183.867,418.435,181.645,416.306,183.040,408.480C185.999,396.483,201.505,392.916,212.101,395.270Z"/>
</g>
<g id="right_toe">
<path class="path-0" d="M180.698,646.193C181.361,633.073,185.750,616.056,201.521,612.957C205.170,612.042,210.453,613.508,214.591,614.119C235.663,617.174,244.083,621.359,245.912,642.759C246.291,648.589,247.540,655.778,243.435,660.696C239.287,665.577,218.386,664.137,212.058,664.728C200.913,666.015,191.547,671.719,183.340,662.342C178.524,656.723,180.358,653.106,180.698,646.193M253.046,620.062C245.442,606.623,212.979,600.017,198.667,603.386C177.326,608.536,171.114,625.783,170.661,644.146C170.451,650.700,170.004,657.924,173.574,663.517C174.847,665.511,177.465,668.118,179.259,669.672C192.864,682.493,202.160,680.381,219.559,679.286C228.775,678.861,244.020,677.131,251.098,670.577C256.334,665.255,256.657,659.766,256.559,652.733C256.223,645.978,256.055,624.923,253.046,620.062Z"/>
<path class="path-3" d="M201.521,612.957C205.170,612.042,210.453,613.508,214.591,614.119"/>
<path class="path-3" d="M214.591,614.119C235.663,617.174,244.083,621.359,245.912,642.759"/>
<path class="path-3" d="M245.912,642.759C246.291,648.589,247.540,655.778,243.435,660.696"/>
<path class="path-3" d="M243.435,660.696C239.287,665.577,218.386,664.137,212.058,664.728"/>
<path class="path-3" d="M212.058,664.728C200.913,666.015,191.547,671.719,183.340,662.342"/>
<path class="path-3" d="M183.340,662.342C178.524,656.723,180.358,653.106,180.698,646.193"/>
<path class="path-3" d="M180.698,646.193C181.361,633.073,185.750,616.056,201.521,612.957"/>
<path class="path-4" d="M201.521,612.957C205.170,612.042,210.453,613.508,214.591,614.119C235.663,617.174,244.083,621.359,245.912,642.759C246.291,648.589,247.540,655.778,243.435,660.696C239.287,665.577,218.386,664.137,212.058,664.728C200.913,666.015,191.547,671.719,183.340,662.342C178.524,656.723,180.358,653.106,180.698,646.193C181.361,633.073,185.750,616.056,201.521,612.957Z"/>
</g>
<g id="right_sole">
<path class="path-0" d="M200.381,676.814C201.894,677.101,217.147,676.189,218.860,676.093C220.249,676.038,228.703,675.548,229.883,675.399C230.614,675.324,238.002,674.634,238.592,675.074C238.086,674.601,230.179,676.523,229.709,676.562C228.797,676.670,202.780,677.886,202.481,678.008C201.279,678.106,190.083,677.745,189.348,676.774C190.550,676.276,198.614,676.477,200.381,676.814M238.747,668.412C238.807,668.682,237.329,670.375,236.917,670.396C236.088,670.442,223.313,672.532,222.203,672.375C220.942,672.420,212.395,673.897,211.259,673.944C208.993,674.039,191.239,673.425,189.270,672.326C189.135,672.216,188.678,671.555,188.692,671.458C188.739,671.175,195.649,671.776,196.737,671.715C198.446,671.619,211.918,669.739,213.666,669.584C215.549,669.417,230.096,668.912,232.021,668.648C232.321,668.615,238.583,667.740,238.747,668.412M244.136,663.548C232.938,661.032,224.387,665.844,214.463,666.669C207.186,667.305,193.105,666.447,184.323,668.684C182.943,669.035,180.275,669.003,179.926,670.467C179.484,672.341,183.227,676.130,185.558,677.498C188.447,679.194,194.271,678.927,196.599,679.158C208.423,680.769,223.250,678.828,235.272,677.721C244.153,676.909,246.204,673.232,246.879,668.914C247.159,667.127,247.620,664.283,244.136,663.548Z"/>
<path class="path-5" d="M200.381,676.814C201.894,677.101,217.147,676.189,218.860,676.093"/>
<path class="path-5" d="M218.860,676.093C220.249,676.038,228.703,675.548,229.883,675.399"/>
<path class="path-5" d="M229.883,675.399C230.614,675.324,238.002,674.634,238.592,675.074"/>
<path class="path-5" d="M238.592,675.074C238.086,674.601,230.179,676.523,229.709,676.562"/>
<path class="path-5" d="M229.709,676.562C228.797,676.670,202.780,677.886,202.481,678.008"/>
<path class="path-5" d="M202.481,678.008C201.279,678.106,190.083,677.745,189.348,676.774"/>
<path class="path-5" d="M189.348,676.774C190.550,676.276,198.614,676.477,200.381,676.814"/>
<path class="path-6" d="M200.381,676.814C201.894,677.101,217.147,676.189,218.860,676.093C220.249,676.038,228.703,675.548,229.883,675.399C230.614,675.324,238.002,674.634,238.592,675.074C238.086,674.601,230.179,676.523,229.709,676.562C228.797,676.670,202.780,677.886,202.481,678.008C201.279,678.106,190.083,677.745,189.348,676.774C190.550,676.276,198.614,676.477,200.381,676.814Z"/>
<path class="path-5" d="M196.737,671.715C198.446,671.619,211.918,669.739,213.666,669.584"/>
<path class="path-5" d="M213.666,669.584C215.549,669.417,230.096,668.912,232.021,668.648"/>
<path class="path-5" d="M232.021,668.648C232.321,668.615,238.583,667.740,238.747,668.412"/>
<path class="path-5" d="M238.747,668.412C238.807,668.682,237.329,670.375,236.917,670.396"/>
<path class="path-5" d="M236.917,670.396C236.088,670.442,223.313,672.532,222.203,672.375"/>
<path class="path-5" d="M222.203,672.375C220.942,672.420,212.395,673.897,211.259,673.944"/>
<path class="path-5" d="M211.259,673.944C208.993,674.039,191.239,673.425,189.270,672.326"/>
<path class="path-5" d="M189.270,672.326C189.135,672.216,188.678,671.555,188.692,671.458"/>
<path class="path-5" d="M188.692,671.458C188.739,671.175,195.649,671.776,196.737,671.715"/>
<path class="path-6" d="M196.737,671.715C198.446,671.619,211.918,669.739,213.666,669.584C215.549,669.417,230.096,668.912,232.021,668.648C232.321,668.615,238.583,667.740,238.747,668.412C238.807,668.682,237.329,670.375,236.917,670.396C236.088,670.442,223.313,672.532,222.203,672.375C220.942,672.420,212.395,673.897,211.259,673.944C208.993,674.039,191.239,673.425,189.270,672.326C189.135,672.216,188.678,671.555,188.692,671.458C188.739,671.175,195.649,671.776,196.737,671.715Z"/>
</g>
</g>
<g id="layer_left_leg">
<g id="left_heel">
<path class="path-0" d="M280.887,636.708C275.714,625.389,287.649,613.045,298.084,611.035C314.751,607.807,334.315,616.829,334.279,623.133C333.802,635.961,310.083,637.690,299.230,639.079C294.605,639.517,282.736,640.776,280.887,636.708M323.589,600.701C306.053,594.298,276.441,600.118,266.483,613.927C258.883,624.427,263.984,655.809,275.691,655.679C293.155,655.494,334.496,645.648,341.977,640.897C350.983,635.254,348.025,620.057,342.493,611.802C338.580,606.651,329.817,603.077,323.589,600.701Z"/>
<path class="path-3" d="M298.084,611.035C314.751,607.807,334.315,616.829,334.279,623.133"/>
<path class="path-3" d="M334.279,623.133C333.802,635.961,310.083,637.690,299.230,639.079"/>
<path class="path-3" d="M299.230,639.079C294.605,639.517,282.736,640.776,280.887,636.708"/>
<path class="path-3" d="M280.887,636.708C275.714,625.389,287.649,613.045,298.084,611.035"/>
<path class="path-4" d="M298.084,611.035C314.751,607.807,334.315,616.829,334.279,623.133C333.802,635.961,310.083,637.690,299.230,639.079C294.605,639.517,282.736,640.776,280.887,636.708C275.714,625.389,287.649,613.045,298.084,611.035Z"/>
</g>
<g id="left_leg">
<path class="path-0" d="M241.369,411.531C241.841,406.628,252.259,408.731,256.037,407.846C262.628,406.635,277.129,401.080,283.117,404.371C289.694,407.704,293.970,427.593,295.930,434.410C300.421,451.902,308.450,467.103,314.429,483.484C319.259,497.768,324.159,512.542,328.847,526.564C331.605,533.797,335.331,541.069,338.368,547.706C340.941,557.604,350.295,567.125,345.913,575.533C334.552,594.355,328.253,589.948,315.025,598.290C304.583,604.436,287.433,597.412,277.429,592.834C272.361,590.717,261.789,587.923,259.263,583.129C245.850,557.675,247.980,522.558,245.415,494.455C244.258,481.790,249.495,455.431,247.742,441.840C247.302,438.429,248.875,436.919,249.547,433.379C249.991,431.005,244.230,425.146,243.136,422.954C241.537,420.302,240.917,414.523,241.369,411.531M289.730,395.959C281.978,391.442,262.439,395.990,254.441,398.331C249.976,399.620,235.048,400.945,232.558,404.101C225.596,412.929,235.778,431.445,237.751,440.397C238.743,446.938,233.063,478.308,232.826,487.211C233.717,514.868,231.945,539.282,239.067,566.022C242.747,580.607,246.394,595.185,255.517,606.884C269.308,624.314,287.723,623.533,312.498,614.931C332.855,608.073,355.690,607.028,358.879,577.197C361.264,555.327,351.375,534.451,346.872,525.698C342.178,516.588,337.162,507.189,332.514,497.238C326.211,484.879,320.649,472.207,315.479,459.247C309.555,444.357,304.329,404.508,289.730,395.959Z"/>
<path class="path-7" d="M256.037,407.846C262.628,406.635,277.129,401.080,283.117,404.371"/>
<path class="path-7" d="M283.117,404.371C289.694,407.704,293.970,427.593,295.930,434.410"/>
<path class="path-7" d="M295.930,434.410C300.421,451.902,308.450,467.103,314.429,483.484"/>
<path class="path-7" d="M314.429,483.484C319.259,497.768,324.159,512.542,328.847,526.564"/>
<path class="path-7" d="M328.847,526.564C331.605,533.797,335.331,541.069,338.368,547.706"/>
<path class="path-7" d="M338.368,547.706C340.941,557.604,350.295,567.125,345.913,575.533"/>
<path class="path-7" d="M345.913,575.533C334.552,594.355,328.253,589.948,315.025,598.290"/>
<path class="path-7" d="M315.025,598.290C304.583,604.436,287.433,597.412,277.429,592.834"/>
<path class="path-7" d="M277.429,592.834C272.361,590.717,261.789,587.923,259.263,583.129"/>
<path class="path-7" d="M259.263,583.129C245.850,557.675,247.980,522.558,245.415,494.455"/>
<path class="path-7" d="M245.415,494.455C244.258,481.790,249.495,455.431,247.742,441.840"/>
<path class="path-7" d="M247.742,441.840C247.302,438.429,248.875,436.919,249.547,433.379"/>
<path class="path-7" d="M249.547,433.379C249.991,431.005,244.230,425.146,243.136,422.954"/>
<path class="path-7" d="M243.136,422.954C241.537,420.302,240.917,414.523,241.369,411.531"/>
<path class="path-7" d="M241.369,411.531C241.841,406.628,252.259,408.731,256.037,407.846"/>
<path class="path-8" d="M256.037,407.846C262.628,406.635,277.129,401.080,283.117,404.371C289.694,407.704,293.970,427.593,295.930,434.410C300.421,451.902,308.450,467.103,314.429,483.484C319.259,497.768,324.159,512.542,328.847,526.564C331.605,533.797,335.331,541.069,338.368,547.706C340.941,557.604,350.295,567.125,345.913,575.533C334.552,594.355,328.253,589.948,315.025,598.290C304.583,604.436,287.433,597.412,277.429,592.834C272.361,590.717,261.789,587.923,259.263,583.129C245.850,557.675,247.980,522.558,245.415,494.455C244.258,481.790,249.495,455.431,247.742,441.840C247.302,438.429,248.875,436.919,249.547,433.379C249.991,431.005,244.230,425.146,243.136,422.954C241.537,420.302,240.917,414.523,241.369,411.531C241.841,406.628,252.259,408.731,256.037,407.846Z"/>
</g>
<g id="left_toe">
<path class="path-0" d="M299.447,644.180C263.567,642.289,265.223,592.917,281.841,586.450C310.823,575.171,332.596,586.985,343.129,595.015C352.869,602.488,354.278,616.425,349.620,628.090C342.442,642.476,313.808,644.948,299.447,644.180M343.953,572.306C326.446,566.516,302.491,559.305,282.373,569.488C265.349,578.104,251.261,594.813,253.203,617.591C253.980,632.591,258.428,646.517,269.966,656.134C281.617,665.247,314.144,660.126,327.779,656.400C340.736,651.880,358.782,646.625,364.232,632.865C369.831,619.319,357.555,576.804,343.953,572.306Z"/>
<path class="path-3" d="M281.841,586.450C310.823,575.171,332.596,586.985,343.129,595.015"/>
<path class="path-3" d="M343.129,595.015C352.869,602.488,354.278,616.425,349.620,628.090"/>
<path class="path-3" d="M349.620,628.090C342.442,642.476,313.808,644.948,299.447,644.180"/>
<path class="path-3" d="M299.447,644.180C263.567,642.289,265.223,592.917,281.841,586.450"/>
<path class="path-4" d="M281.841,586.450C310.823,575.171,332.596,586.985,343.129,595.015C352.869,602.488,354.278,616.425,349.620,628.090C342.442,642.476,313.808,644.948,299.447,644.180C263.567,642.289,265.223,592.917,281.841,586.450Z"/>
</g>
<g id="left_sole">
<path class="path-0" d="M295.680,657.959C285.118,655.941,277.706,654.179,279.589,653.842C283.652,653.114,289.499,651.008,295.442,649.493C301.734,647.920,324.555,650.296,335.947,646.154C340.067,645.020,353.226,643.983,353.362,644.295C355.403,648.958,338.561,649.501,333.945,650.900C326.461,653.406,296.873,657.506,295.680,657.959M277.849,648.165C275.390,646.230,285.277,640.918,287.403,640.286C310.870,633.311,339.046,629.589,350.122,630.260C351.606,630.346,357.631,632.520,356.774,634.503C355.070,638.445,342.506,635.445,331.942,637.200C311.470,640.453,281.757,651.240,277.849,648.165M360.520,624.830C350.857,623.585,332.546,624.799,311.247,628.491C291.948,631.832,268.555,633.174,267.799,648.304C267.550,653.518,277.947,666.446,282.965,667.444C297.568,670.440,359.652,655.591,363.168,648.258C365.904,642.551,366.551,625.607,360.520,624.830Z"/>
<path class="path-5" d="M279.589,653.842C283.652,653.114,289.499,651.008,295.442,649.493"/>
<path class="path-5" d="M295.442,649.493C301.734,647.920,324.555,650.296,335.947,646.154"/>
<path class="path-5" d="M335.947,646.154C340.067,645.020,353.226,643.983,353.362,644.295"/>
<path class="path-5" d="M353.362,644.295C355.403,648.958,338.561,649.501,333.945,650.900"/>
<path class="path-5" d="M333.945,650.900C326.461,653.406,296.873,657.506,295.680,657.959"/>
<path class="path-5" d="M295.680,657.959C285.118,655.941,277.706,654.179,279.589,653.842"/>
<path class="path-6" d="M279.589,653.842C283.652,653.114,289.499,651.008,295.442,649.493C301.734,647.920,324.555,650.296,335.947,646.154C340.067,645.020,353.226,643.983,353.362,644.295C355.403,648.958,338.561,649.501,333.945,650.900C326.461,653.406,296.873,657.506,295.680,657.959C285.118,655.941,277.706,654.179,279.589,653.842Z"/>
<path class="path-5" d="M287.403,640.286C310.870,633.311,339.046,629.589,350.122,630.260"/>
<path class="path-5" d="M350.122,630.260C351.606,630.346,357.631,632.520,356.774,634.503"/>
<path class="path-5" d="M356.774,634.503C355.070,638.445,342.506,635.445,331.942,637.200"/>
<path class="path-5" d="M331.942,637.200C311.470,640.453,281.757,651.240,277.849,648.165"/>
<path class="path-5" d="M277.849,648.165C275.390,646.230,285.277,640.918,287.403,640.286"/>
<path class="path-6" d="M287.403,640.286C310.870,633.311,339.046,629.589,350.122,630.260C351.606,630.346,357.631,632.520,356.774,634.503C355.070,638.445,342.506,635.445,331.942,637.200C311.470,640.453,281.757,651.240,277.849,648.165C275.390,646.230,285.277,640.918,287.403,640.286Z"/>
</g>
</g>
<g id="hat_brim">
<path class="path-0" d="M292.535,151.544C296.180,145.547,305.126,129.224,313.111,129.206C318.434,129.194,329.435,138.818,335.097,141.800C340.094,144.783,345.424,147.432,351.086,150.080C354.302,151.742,357.521,153.398,360.744,155.048C375.068,162.336,371.089,168.667,362.768,167.354C344.130,164.068,341.139,165.407,323.153,156.132C320.821,155.139,314.825,151.827,313.837,156.153C312.518,161.146,321.511,165.452,325.174,167.106C331.835,170.752,339.164,174.728,347.150,175.374C349.481,175.702,357.464,175.017,358.799,177.344C360.803,180.667,351.175,189.338,349.183,191.339C345.862,194.341,342.543,197.343,339.221,199.680C334.238,203.017,328.921,206.023,323.268,207.034C312.626,208.389,279.321,193.160,278.296,181.519C277.616,174.867,288.557,157.875,292.535,151.544M325.078,124.855C320.078,120.540,316.404,114.227,309.091,117.571C303.773,119.913,298.135,127.577,294.486,131.578C280.882,148.243,268.618,167.901,269.332,189.524C269.696,203.163,274.352,202.821,285.343,208.118C301.996,216.398,323.295,219.011,341.242,210.654C352.874,205.304,373.128,187.293,378.425,175.303C380.078,171.307,383.052,162.318,380.712,157.666C378.038,152.015,355.725,142.418,349.064,138.774C341.069,134.466,332.077,130.494,325.078,124.855Z"/>
<path class="path-9" d="M313.111,129.206C318.434,129.194,329.435,138.818,335.097,141.800"/>
<path class="path-9" d="M335.097,141.800C340.094,144.783,345.424,147.432,351.086,150.080"/>
<path class="path-9" d="M351.086,150.080C354.302,151.742,357.521,153.398,360.744,155.048"/>
<path class="path-9" d="M360.744,155.048C375.068,162.336,371.089,168.667,362.768,167.354"/>
<path class="path-9" d="M362.768,167.354C344.130,164.068,341.139,165.407,323.153,156.132"/>
<path class="path-9" d="M323.153,156.132C320.821,155.139,314.825,151.827,313.837,156.153"/>
<path class="path-9" d="M313.837,156.153C312.518,161.146,321.511,165.452,325.174,167.106"/>
<path class="path-9" d="M325.174,167.106C331.835,170.752,339.164,174.728,347.150,175.374"/>
<path class="path-9" d="M347.150,175.374C349.481,175.702,357.464,175.017,358.799,177.344"/>
<path class="path-9" d="M358.799,177.344C360.803,180.667,351.175,189.338,349.183,191.339"/>
<path class="path-9" d="M349.183,191.339C345.862,194.341,342.543,197.343,339.221,199.680"/>
<path class="path-9" d="M339.221,199.680C334.238,203.017,328.921,206.023,323.268,207.034"/>
<path class="path-9" d="M323.268,207.034C312.626,208.389,279.321,193.160,278.296,181.519"/>
<path class="path-9" d="M278.296,181.519C277.616,174.867,288.557,157.875,292.535,151.544"/>
<path class="path-9" d="M292.535,151.544C296.180,145.547,305.126,129.224,313.111,129.206"/>
<path class="path-10" d="M313.111,129.206C318.434,129.194,329.435,138.818,335.097,141.800C340.094,144.783,345.424,147.432,351.086,150.080C354.302,151.742,357.521,153.398,360.744,155.048C375.068,162.336,371.089,168.667,362.768,167.354C344.130,164.068,341.139,165.407,323.153,156.132C320.821,155.139,314.825,151.827,313.837,156.153C312.518,161.146,321.511,165.452,325.174,167.106C331.835,170.752,339.164,174.728,347.150,175.374C349.481,175.702,357.464,175.017,358.799,177.344C360.803,180.667,351.175,189.338,349.183,191.339C345.862,194.341,342.543,197.343,339.221,199.680C334.238,203.017,328.921,206.023,323.268,207.034C312.626,208.389,279.321,193.160,278.296,181.519C277.616,174.867,288.557,157.875,292.535,151.544C296.180,145.547,305.126,129.224,313.111,129.206Z"/>
</g>
<g id="hair">
<path class="path-0" d="M190.473,142.172C207.086,129.082,226.901,126.562,247.870,124.207C257.270,123.134,264.197,129.080,271.861,134.847C278.178,139.932,284.990,145.683,291.695,151.015C301.783,158.979,306.062,163.033,309.891,166.925C313.141,169.888,318.261,175.488,322.233,178.042C327.025,181.122,337.384,197.545,339.556,199.329C333.098,202.036,322.818,204.428,318.319,208.604C320.385,214.297,321.374,223.278,321.577,225.980C315.416,226.851,308.018,224.565,296.441,223.304C294.629,230.637,295.124,237.348,290.956,244.957C283.102,243.167,277.614,241.664,267.353,237.945C261.168,243.602,259.603,243.305,249.403,250.575C242.015,246.756,236.046,242.546,228.943,240.203C222.394,243.571,211.757,245.354,208.334,248.534C204.034,241.787,199.988,234.286,196.500,231.153C187.071,233.800,183.156,236.714,176.574,239.655C171.972,234.457,174.652,229.706,169.405,221.958C165.003,221.100,158.145,218.966,152.591,219.253C156.103,214.502,157.880,199.592,164.230,197.267C172.065,194.399,166.358,185.647,170.693,177.120C171.760,174.905,182.343,157.781,183.206,155.044C184.875,150.311,186.712,145.284,190.473,142.172M275.564,121.928C262.688,113.396,237.693,110.041,224.078,114.252C211.572,117.965,199.402,122.848,188.872,130.786C182.972,135.172,176.548,141.475,172.873,147.855C165.507,160.260,155.489,186.972,149.664,199.426C145.028,209.741,140.516,216.802,135.762,222.557C153.784,227.743,159.099,230.036,164.389,230.473C165.254,238.187,172.791,243.434,172.148,252.057C180.845,250.145,185.922,247.557,193.600,245.066C197.892,249.433,201.070,255.554,205.291,261.476C212.844,258.852,220.736,258.599,227.981,252.629C233.703,255.253,242.786,259.317,252.128,263.637C260.104,258.656,261.860,258.281,269.282,252.704C278.899,254.381,289.237,259.552,298.693,257.882C297.457,249.761,303.112,243.735,302.045,238.545C309.097,236.127,331.328,237.801,335.064,237.221C334.421,231.204,330.304,219.886,331.372,212.590C338.040,210.316,343.669,208.276,353.929,202.454C350.002,196.015,343.212,188.153,337.418,183.586C332.530,179.772,328.405,174.557,323.502,170.570C306.891,157.285,299.387,137.795,275.564,121.928Z"/>
<path class="path-11" d="M247.870,124.207C257.270,123.134,264.197,129.080,271.861,134.847"/>
<path class="path-11" d="M271.861,134.847C278.178,139.932,284.990,145.683,291.695,151.015"/>
<path class="path-11" d="M291.695,151.015C301.783,158.979,306.062,163.033,309.891,166.925"/>
<path class="path-11" d="M309.891,166.925C313.141,169.888,318.261,175.488,322.233,178.042"/>
<path class="path-11" d="M322.233,178.042C327.025,181.122,337.384,197.545,339.556,199.329"/>
<path class="path-11" d="M339.556,199.329C333.098,202.036,322.818,204.428,318.319,208.604"/>
<path class="path-11" d="M318.319,208.604C320.385,214.297,321.374,223.278,321.577,225.980"/>
<path class="path-11" d="M321.577,225.980C315.416,226.851,308.018,224.565,296.441,223.304"/>
<path class="path-11" d="M296.441,223.304C294.629,230.637,295.124,237.348,290.956,244.957"/>
<path class="path-11" d="M290.956,244.957C283.102,243.167,277.614,241.664,267.353,237.945"/>
<path class="path-11" d="M267.353,237.945C261.168,243.602,259.603,243.305,249.403,250.575"/>
<path class="path-11" d="M249.403,250.575C242.015,246.756,236.046,242.546,228.943,240.203"/>
<path class="path-11" d="M228.943,240.203C222.394,243.571,211.757,245.354,208.334,248.534"/>
<path class="path-11" d="M208.334,248.534C204.034,241.787,199.988,234.286,196.500,231.153"/>
<path class="path-11" d="M196.500,231.153C187.071,233.800,183.156,236.714,176.574,239.655"/>
<path class="path-11" d="M176.574,239.655C171.972,234.457,174.652,229.706,169.405,221.958"/>
<path class="path-11" d="M169.405,221.958C165.003,221.100,158.145,218.966,152.591,219.253"/>
<path class="path-11" d="M152.591,219.253C156.103,214.502,157.880,199.592,164.230,197.267"/>
<path class="path-11" d="M164.230,197.267C172.065,194.399,166.358,185.647,170.693,177.120"/>
<path class="path-11" d="M170.693,177.120C171.760,174.905,182.343,157.781,183.206,155.044"/>
<path class="path-11" d="M183.206,155.044C184.875,150.311,186.712,145.284,190.473,142.172"/>
<path class="path-11" d="M190.473,142.172C207.086,129.082,226.901,126.562,247.870,124.207"/>
<path class="path-12" d="M247.870,124.207C257.270,123.134,264.197,129.080,271.861,134.847C278.178,139.932,284.990,145.683,291.695,151.015C301.783,158.979,306.062,163.033,309.891,166.925C313.141,169.888,318.261,175.488,322.233,178.042C327.025,181.122,337.384,197.545,339.556,199.329C333.098,202.036,322.818,204.428,318.319,208.604C320.385,214.297,321.374,223.278,321.577,225.980C315.416,226.851,308.018,224.565,296.441,223.304C294.629,230.637,295.124,237.348,290.956,244.957C283.102,243.167,277.614,241.664,267.353,237.945C261.168,243.602,259.603,243.305,249.403,250.575C242.015,246.756,236.046,242.546,228.943,240.203C222.394,243.571,211.757,245.354,208.334,248.534C204.034,241.787,199.988,234.286,196.500,231.153C187.071,233.800,183.156,236.714,176.574,239.655C171.972,234.457,174.652,229.706,169.405,221.958C165.003,221.100,158.145,218.966,152.591,219.253C156.103,214.502,157.880,199.592,164.230,197.267C172.065,194.399,166.358,185.647,170.693,177.120C171.760,174.905,182.343,157.781,183.206,155.044C184.875,150.311,186.712,145.284,190.473,142.172C207.086,129.082,226.901,126.562,247.870,124.207Z"/>
</g>
<g id="clothes">
<path class="path-0" d="M246.112,369.694C241.157,367.595,221.972,365.580,218.545,369.988C216.148,373.271,219.779,374.994,223.299,375.362C227.113,375.761,247.246,378.214,249.947,376.692C254.477,374.068,248.290,370.506,246.112,369.694M201.293,264.898C205.223,252.552,233.045,241.753,245.870,243.744C254.807,245.104,282.028,261.283,285.372,269.919C288.177,276.831,287.251,301.526,286.911,309.868C286.009,325.152,285.366,340.512,285.427,355.822C286.025,367.329,293.707,379.231,289.865,390.095C288.344,393.080,281.261,396.290,277.763,397.452C271.314,399.938,257.851,403.936,251.541,403.107C226.943,400.556,229.515,399.014,206.417,396.921C202.514,396.417,189.695,395.776,187.257,393.902C182.040,388.838,185.259,381.009,187.054,374.241C191.039,361.356,193.399,352.457,195.764,338.350C198.317,322.480,201.209,305.456,202.500,288.893C202.633,282.925,200.358,268.479,201.293,264.898M281.240,252.496C265.686,241.595,250.323,232.400,230.270,236.561C224.870,237.482,197.381,248.372,194.819,251.515C190.810,256.521,193.046,276.883,192.498,284.129C192.180,292.749,191.772,301.698,190.438,309.906C189.597,316.176,187.799,321.698,187.306,327.661C186.427,334.260,186.052,341.463,184.335,347.432C179.838,362.658,165.596,392.398,183.189,404.409C187.922,407.667,195.182,407.422,201.209,408.124C211.285,409.104,221.980,410.951,232.256,411.077C244.744,411.577,257.168,410.823,269.818,410.779C276.946,410.756,299.566,416.672,304.447,410.939C307.033,408.036,305.499,390.834,304.707,386.513C301.899,374.466,296.529,362.909,295.213,350.610C294.269,338.663,294.866,326.876,296.521,314.657C297.662,304.703,300.094,295.186,300.884,284.868C300.882,280.502,301.933,275.213,299.924,270.695C296.534,262.400,288.233,257.388,281.240,252.496Z"/>
<path class="path-13" d="M246.112,369.694C241.157,367.595,221.972,365.580,218.545,369.988"/>
<path class="path-13" d="M218.545,369.988C216.148,373.271,219.779,374.994,223.299,375.362"/>
<path class="path-13" d="M223.299,375.362C227.113,375.761,247.246,378.214,249.947,376.692"/>
<path class="path-13" d="M249.947,376.692C254.477,374.068,248.290,370.506,246.112,369.694"/>
<path class="path-13" d="M201.293,264.898C205.223,252.552,233.045,241.753,245.870,243.744"/>
<path class="path-13" d="M245.870,243.744C254.807,245.104,282.028,261.283,285.372,269.919"/>
<path class="path-13" d="M285.372,269.919C288.177,276.831,287.251,301.526,286.911,309.868"/>
<path class="path-13" d="M286.911,309.868C286.009,325.152,285.366,340.512,285.427,355.822"/>
<path class="path-13" d="M285.427,355.822C286.025,367.329,293.707,379.231,289.865,390.095"/>
<path class="path-13" d="M289.865,390.095C288.344,393.080,281.261,396.290,277.763,397.452"/>
<path class="path-13" d="M277.763,397.452C271.314,399.938,257.851,403.936,251.541,403.107"/>
<path class="path-13" d="M251.541,403.107C226.943,400.556,229.515,399.014,206.417,396.921"/>
<path class="path-13" d="M206.417,396.921C202.514,396.417,189.695,395.776,187.257,393.902"/>
<path class="path-13" d="M187.257,393.902C182.040,388.838,185.259,381.009,187.054,374.241"/>
<path class="path-13" d="M187.054,374.241C191.039,361.356,193.399,352.457,195.764,338.350"/>
<path class="path-13" d="M195.764,338.350C198.317,322.480,201.209,305.456,202.500,288.893"/>
<path class="path-13" d="M202.500,288.893C202.633,282.925,200.358,268.479,201.293,264.898"/>
<path class="path-14" d="M246.112,369.694C241.157,367.595,221.972,365.580,218.545,369.988C216.148,373.271,219.779,374.994,223.299,375.362C227.113,375.761,247.246,378.214,249.947,376.692C254.477,374.068,248.290,370.506,246.112,369.694M201.293,264.898C205.223,252.552,233.045,241.753,245.870,243.744C254.807,245.104,282.028,261.283,285.372,269.919C288.177,276.831,287.251,301.526,286.911,309.868C286.009,325.152,285.366,340.512,285.427,355.822C286.025,367.329,293.707,379.231,289.865,390.095C288.344,393.080,281.261,396.290,277.763,397.452C271.314,399.938,257.851,403.936,251.541,403.107C226.943,400.556,229.515,399.014,206.417,396.921C202.514,396.417,189.695,395.776,187.257,393.902C182.040,388.838,185.259,381.009,187.054,374.241C191.039,361.356,193.399,352.457,195.764,338.350C198.317,322.480,201.209,305.456,202.500,288.893C202.633,282.925,200.358,268.479,201.293,264.898Z"/>
</g>
<g id="neck">
<path class="path-0" d="M238.155,224.910C238.397,221.575,239.314,218.555,242.962,218.122C254.548,215.810,254.573,253.418,243.932,253.709C233.954,253.981,237.662,231.246,238.155,224.910M242.709,208.811C240.040,208.550,237.065,209.297,234.773,210.691C225.587,215.600,227.152,224.211,227.388,232.858C227.172,237.191,227.615,241.173,225.719,244.885C224.147,248.257,219.580,251.708,219.680,255.368C220.285,265.336,247.224,264.602,254.199,264.079C256.858,264.006,265.865,264.759,266.763,261.074C266.736,260.077,259.768,248.616,258.643,243.988C255.270,230.102,264.021,209.229,242.709,208.811Z"/>
<path class="path-15" d="M242.962,218.122C254.548,215.810,254.573,253.418,243.932,253.709"/>
<path class="path-15" d="M243.932,253.709C233.954,253.981,237.662,231.246,238.155,224.910"/>
<path class="path-15" d="M238.155,224.910C238.397,221.575,239.314,218.555,242.962,218.122"/>
<path class="path-16" d="M242.962,218.122C254.548,215.810,254.573,253.418,243.932,253.709C233.954,253.981,237.662,231.246,238.155,224.910C238.397,221.575,239.314,218.555,242.962,218.122Z"/>
</g>
<g id="layer_head">
<g id="right_ear">
<path class="path-0" d="M158.261,195.952C143.926,196.950,128.704,162.266,149.912,163.765C153.484,164.018,156.374,170.043,156.983,172.703C159.147,182.113,168.465,195.244,158.261,195.952M155.367,152.153C152.035,150.176,147.947,149.516,144.403,151.080C133.582,153.920,127.913,166.753,129.873,177.825C132.212,190.253,146.063,203.976,157.605,206.199C160.651,206.802,166.937,208.877,169.825,207.324C176.446,203.215,169.655,192.983,167.661,187.202C165.658,180.964,160.150,156.226,155.367,152.153Z"/>
<path class="path-15" d="M149.912,163.765C153.484,164.018,156.374,170.043,156.983,172.703"/>
<path class="path-15" d="M156.983,172.703C159.147,182.113,168.465,195.244,158.261,195.952"/>
<path class="path-15" d="M158.261,195.952C143.926,196.950,128.704,162.266,149.912,163.765"/>
<path class="path-16" d="M149.912,163.765C153.484,164.018,156.374,170.043,156.983,172.703C159.147,182.113,168.465,195.244,158.261,195.952C143.926,196.950,128.704,162.266,149.912,163.765Z"/>
</g>
<g id="face_Mask">
<g id="face">
<path class="path-0" d="M173.439,107.122C181.901,96.654,214.654,89.395,228.289,87.368C243.589,85.337,259.230,87.631,274.212,92.254C279.540,93.906,287.203,95.876,291.861,99.533C299.824,105.834,304.855,117.109,307.738,126.430C310.022,133.192,314.160,142.265,312.342,148.760C304.138,178.069,300.030,191.552,294.209,199.760C286.991,209.938,273.867,213.765,262.419,218.454C250.451,223.157,238.288,224.924,231.971,224.586C219.579,223.923,192.900,217.687,183.778,210.078C173.177,200.896,172.025,186.965,167.806,174.213C165.292,167.334,161.179,156.982,159.842,149.931C157.924,138.866,166.473,115.660,173.439,107.122M295.861,91.849C282.223,79.652,245.942,76.931,228.315,79.614C219.997,80.623,212.013,81.300,204.364,83.309C198.708,84.983,193.719,87.653,188.395,89.328C176.759,93.679,171.944,92.251,164.138,103.034C158.532,110.582,149.821,140.292,150.806,149.483C151.665,156.364,158.854,171.690,161.237,179.403C164.309,189.551,166.736,204.094,173.237,211.991C180.404,220.444,190.145,224.911,205.106,229.065C216.507,232.231,229.147,233.426,241.330,233.680C246.105,234.072,254.983,231.307,267.762,225.827C279.767,220.500,292.947,215.916,301.158,204.554C310.841,191.155,314.831,169.439,322.904,147.391C329.691,128.852,304.354,99.279,295.861,91.849Z"/>
<path class="path-15" d="M228.289,87.368C243.589,85.337,259.230,87.631,274.212,92.254"/>
<path class="path-15" d="M274.212,92.254C279.540,93.906,287.203,95.876,291.861,99.533"/>
<path class="path-15" d="M291.861,99.533C299.824,105.834,304.855,117.109,307.738,126.430"/>
<path class="path-15" d="M307.738,126.430C310.022,133.192,314.160,142.265,312.342,148.760"/>
<path class="path-15" d="M312.342,148.760C304.138,178.069,300.030,191.552,294.209,199.760"/>
<path class="path-15" d="M294.209,199.760C286.991,209.938,273.867,213.765,262.419,218.454"/>
<path class="path-15" d="M262.419,218.454C250.451,223.157,238.288,224.924,231.971,224.586"/>
<path class="path-15" d="M231.971,224.586C219.579,223.923,192.900,217.687,183.778,210.078"/>
<path class="path-15" d="M183.778,210.078C173.177,200.896,172.025,186.965,167.806,174.213"/>
<path class="path-15" d="M167.806,174.213C165.292,167.334,161.179,156.982,159.842,149.931"/>
<path class="path-15" d="M159.842,149.931C157.924,138.866,166.473,115.660,173.439,107.122"/>
<path class="path-15" d="M173.439,107.122C181.901,96.654,214.654,89.395,228.289,87.368"/>
<path class="path-16" d="M228.289,87.368C243.589,85.337,259.230,87.631,274.212,92.254C279.540,93.906,287.203,95.876,291.861,99.533C299.824,105.834,304.855,117.109,307.738,126.430C310.022,133.192,314.160,142.265,312.342,148.760C304.138,178.069,300.030,191.552,294.209,199.760C286.991,209.938,273.867,213.765,262.419,218.454C250.451,223.157,238.288,224.924,231.971,224.586C219.579,223.923,192.900,217.687,183.778,210.078C173.177,200.896,172.025,186.965,167.806,174.213C165.292,167.334,161.179,156.982,159.842,149.931C157.924,138.866,166.473,115.660,173.439,107.122C181.901,96.654,214.654,89.395,228.289,87.368Z"/>
</g>
</g>
<mask id="mask_target" style="mask-type:alpha;">
<use xlink:href="#face_Mask"/>
</mask>
<g id="mouse">
<path class="path-0" d="M238.970,216.175C244.177,217.267,244.271,222.020,243.799,222.528C243.532,222.815,242.407,221.866,239.446,221.386C233.838,220.477,231.135,221.656,230.936,220.942C230.718,220.159,232.875,214.897,238.970,216.175Z"/>
</g>
<g id="layer_eyes_Mtarget" mask="url(#mask_target)">
<g id="eyes">
<mask style="mask-type:alpha;" id="f3906406-f197-4bf1-91d8-744c09cca836">
<use xlink:href="#cmn_f3906406-f197-4bf1-91d8-744c09cca836"/>
</mask>
<g id="cmn_f3906406-f197-4bf1-91d8-744c09cca836">
<path class="path-0" d="M216.056,176.191C217.836,188.867,209.555,197.277,196.979,194.133C189.579,192.071,186.179,186.554,183.556,179.921C181.999,176.403,174.567,160.276,180.232,162.173C184.788,163.698,215.414,171.617,216.056,176.191M222.746,179.265C223.614,177.752,224.845,175.471,224.578,173.748C224.280,171.835,222.675,168.809,220.726,168.572C215.440,167.810,196.889,161.589,190.184,159.123C183.581,156.851,170.293,148.907,165.973,155.536C164.209,158.117,168.245,158.930,169.636,163.061C175.895,181.653,182.235,199.151,202.168,199.877C219.518,200.508,218.397,186.843,222.746,179.265M265.608,189.019C258.497,188.901,249.077,183.535,249.111,172.455C249.121,169.125,262.576,163.849,268.606,160.615C274.542,157.432,285.845,150.991,288.931,151.072C292.418,151.583,290.682,154.677,290.753,164.307C290.857,178.342,278.556,189.234,265.608,189.019M296.922,170.612C299.886,158.553,300.203,142.406,297.856,141.367C292.848,139.148,280.143,148.533,272.709,151.961C262.998,156.439,247.567,165.860,240.883,168.016C238.939,168.721,237.184,169.272,236.925,170.679C236.411,173.465,241.693,175.273,243.503,177.452C246.687,181.287,247.747,188.279,252.968,191.108C262.916,196.903,270.393,194.697,281.309,189.741C289.731,185.956,294.856,179.018,296.922,170.612Z"/>
<path class="path-17" d="M288.931,151.072C292.418,151.583,290.682,154.677,290.753,164.307"/>
<path class="path-17" d="M290.753,164.307C290.857,178.342,278.556,189.234,265.608,189.019"/>
<path class="path-17" d="M265.608,189.019C258.497,188.901,249.077,183.535,249.111,172.455"/>
<path class="path-17" d="M249.111,172.455C249.121,169.125,262.576,163.849,268.606,160.615"/>
<path class="path-17" d="M268.606,160.615C274.542,157.432,285.845,150.991,288.931,151.072"/>
<path class="path-18" d="M288.931,151.072C292.418,151.583,290.682,154.677,290.753,164.307C290.857,178.342,278.556,189.234,265.608,189.019C258.497,188.901,249.077,183.535,249.111,172.455C249.121,169.125,262.576,163.849,268.606,160.615C274.542,157.432,285.845,150.991,288.931,151.072Z"/>
<path class="path-17" d="M180.232,162.173C184.788,163.698,215.414,171.617,216.056,176.191"/>
<path class="path-17" d="M216.056,176.191C217.836,188.867,209.555,197.277,196.979,194.133"/>
<path class="path-17" d="M196.979,194.133C189.579,192.071,186.179,186.554,183.556,179.921"/>
<path class="path-17" d="M183.556,179.921C181.999,176.403,174.567,160.276,180.232,162.173"/>
<path class="path-18" d="M180.232,162.173C184.788,163.698,215.414,171.617,216.056,176.191C217.836,188.867,209.555,197.277,196.979,194.133C189.579,192.071,186.179,186.554,183.556,179.921C181.999,176.403,174.567,160.276,180.232,162.173Z"/>
</g>
</g>
<g id="pupil">
<path class="path-0" d="M279.576,160.228C281.855,159.652,285.050,162.820,285.914,171.256C286.558,177.546,284.920,180.130,283.180,180.338C281.281,180.564,279.629,177.972,278.330,171.198C276.945,163.969,277.598,160.727,279.576,160.228Z" mask="url(#f3906406-f197-4bf1-91d8-744c09cca836)"/>
<path class="path-0" d="M210.108,170.645C212.321,170.112,214.905,173.563,215.870,181.991C216.442,186.981,215.640,189.046,214.330,189.366C212.775,189.746,210.848,187.751,209.240,182.006C207.192,174.691,208.125,171.122,210.108,170.645Z" mask="url(#f3906406-f197-4bf1-91d8-744c09cca836)"/>
</g>
</g>
<g id="hat">
<path class="path-0" d="M311.849,124.645C313.864,125.948,316.844,128.293,317.188,130.954C318.546,137.278,307.559,136.679,304.228,137.023C297.594,137.045,290.660,136.857,284.323,137.041C279.200,137.655,274.071,138.209,268.936,138.719C260.431,138.899,251.934,138.624,243.430,138.558C228.869,139.017,214.338,138.619,199.750,138.590C198.425,138.640,159.419,143.242,152.833,139.678C144.054,135.027,153.086,128.237,152.729,123.867C152.712,120.240,144.813,119.271,146.772,113.005C148.724,107.091,169.700,103.042,175.933,101.708C188.180,99.018,200.760,95.359,213.677,93.364C231.832,90.712,250.605,91.053,269.085,89.382C281.651,88.348,310.520,96.098,316.136,108.999C320.906,119.563,304.191,109.722,302.197,109.067C300.627,107.914,295.098,105.522,296.363,109.013C297.553,114.792,307.693,121.289,311.849,124.645M194.448,88.951C184.074,91.482,174.425,93.201,164.425,95.547C160.106,96.549,154.823,99.173,150.809,96.936C141.795,92.149,151.506,69.187,155.797,63.235C170.079,43.935,200.995,35.561,226.231,35.471C271.229,35.310,288.872,42.175,303.837,57.194C308.496,61.533,325.077,83.210,316.419,89.216C313.098,91.213,307.107,87.258,304.115,85.930C293.811,81.615,251.854,74.947,194.448,88.951M253.041,25.108C245.664,24.672,243.837,23.171,236.067,23.832C204.797,26.971,162.753,28.752,144.179,58.992C138.217,68.948,138.186,80.215,136.187,90.828C134.529,99.412,129.573,106.015,130.556,114.602C131.549,121.600,134.571,123.258,136.880,128.600C139.518,134.271,138.136,136.938,139.780,140.609C143.382,151.290,153.074,150.757,162.402,150.674C167.244,150.632,185.107,150.445,194.837,150.253C206.716,150.019,222.552,149.579,234.427,149.194C243.603,148.896,255.840,148.498,265.010,148.037C273.440,147.614,284.684,147.039,293.091,146.283C303.316,145.365,325.891,143.499,327.072,142.256C329.190,140.068,333.020,118.804,333.025,114.839C333.030,111.491,331.366,108.143,331.377,102.786C331.076,88.237,330.763,74.694,322.546,61.113C307.439,36.624,279.985,27.375,253.041,25.108Z"/>
<path class="path-19" d="M269.085,89.382C281.651,88.348,310.520,96.098,316.136,108.999"/>
<path class="path-19" d="M316.136,108.999C320.906,119.563,304.191,109.722,302.197,109.067"/>
<path class="path-19" d="M302.197,109.067C300.627,107.914,295.098,105.522,296.363,109.013"/>
<path class="path-19" d="M296.363,109.013C297.553,114.792,307.693,121.289,311.849,124.645"/>
<path class="path-19" d="M311.849,124.645C313.864,125.948,316.844,128.293,317.188,130.954"/>
<path class="path-19" d="M317.188,130.954C318.546,137.278,307.559,136.679,304.228,137.023"/>
<path class="path-19" d="M304.228,137.023C297.594,137.045,290.660,136.857,284.323,137.041"/>
<path class="path-19" d="M284.323,137.041C279.200,137.655,274.071,138.209,268.936,138.719"/>
<path class="path-19" d="M268.936,138.719C260.431,138.899,251.934,138.624,243.430,138.558"/>
<path class="path-19" d="M243.430,138.558C228.869,139.017,214.338,138.619,199.750,138.590"/>
<path class="path-19" d="M199.750,138.590C198.425,138.640,159.419,143.242,152.833,139.678"/>
<path class="path-19" d="M152.833,139.678C144.054,135.027,153.086,128.237,152.729,123.867"/>
<path class="path-19" d="M152.729,123.867C152.712,120.240,144.813,119.271,146.772,113.005"/>
<path class="path-19" d="M146.772,113.005C148.724,107.091,169.700,103.042,175.933,101.708"/>
<path class="path-19" d="M175.933,101.708C188.180,99.018,200.760,95.359,213.677,93.364"/>
<path class="path-19" d="M213.677,93.364C231.832,90.712,250.605,91.053,269.085,89.382"/>
<path class="path-20" d="M269.085,89.382C281.651,88.348,310.520,96.098,316.136,108.999C320.906,119.563,304.191,109.722,302.197,109.067C300.627,107.914,295.098,105.522,296.363,109.013C297.553,114.792,307.693,121.289,311.849,124.645C313.864,125.948,316.844,128.293,317.188,130.954C318.546,137.278,307.559,136.679,304.228,137.023C297.594,137.045,290.660,136.857,284.323,137.041C279.200,137.655,274.071,138.209,268.936,138.719C260.431,138.899,251.934,138.624,243.430,138.558C228.869,139.017,214.338,138.619,199.750,138.590C198.425,138.640,159.419,143.242,152.833,139.678C144.054,135.027,153.086,128.237,152.729,123.867C152.712,120.240,144.813,119.271,146.772,113.005C148.724,107.091,169.700,103.042,175.933,101.708C188.180,99.018,200.760,95.359,213.677,93.364C231.832,90.712,250.605,91.053,269.085,89.382Z"/>
<path class="path-9" d="M226.231,35.471C271.229,35.310,288.872,42.175,303.837,57.194"/>
<path class="path-9" d="M303.837,57.194C308.496,61.533,325.077,83.210,316.419,89.216"/>
<path class="path-9" d="M316.419,89.216C313.098,91.213,307.107,87.258,304.115,85.930"/>
<path class="path-9" d="M304.115,85.930C293.811,81.615,251.854,74.947,194.448,88.951"/>
<path class="path-9" d="M194.448,88.951C184.074,91.482,174.425,93.201,164.425,95.547"/>
<path class="path-9" d="M164.425,95.547C160.106,96.549,154.823,99.173,150.809,96.936"/>
<path class="path-9" d="M150.809,96.936C141.795,92.149,151.506,69.187,155.797,63.235"/>
<path class="path-9" d="M155.797,63.235C170.079,43.935,200.995,35.561,226.231,35.471"/>
<path class="path-10" d="M226.231,35.471C271.229,35.310,288.872,42.175,303.837,57.194C308.496,61.533,325.077,83.210,316.419,89.216C313.098,91.213,307.107,87.258,304.115,85.930C293.811,81.615,251.854,74.947,194.448,88.951C184.074,91.482,174.425,93.201,164.425,95.547C160.106,96.549,154.823,99.173,150.809,96.936C141.795,92.149,151.506,69.187,155.797,63.235C170.079,43.935,200.995,35.561,226.231,35.471Z"/>
</g>
<g id="left_ear">
<path class="path-0" d="M310.945,189.008C309.804,185.108,319.001,160.583,320.639,158.256C325.577,151.233,337.634,161.555,338.829,168.156C340.137,176.334,328.558,184.798,321.892,189.711C316.880,193.289,312.446,194.131,310.945,189.008M347.496,172.067C348.925,159.285,337.401,142.613,325.036,145.761C311.843,149.120,311.217,166.921,307.359,177.510C305.817,182.120,303.098,186.698,302.595,191.296C301.556,199.559,305.421,206.454,314.545,204.109C327.673,200.590,345.457,186.364,347.496,172.067Z"/>
<path class="path-15" d="M320.639,158.256C325.577,151.233,337.634,161.555,338.829,168.156"/>
<path class="path-15" d="M338.829,168.156C340.137,176.334,328.558,184.798,321.892,189.711"/>
<path class="path-15" d="M321.892,189.711C316.880,193.289,312.446,194.131,310.945,189.008"/>
<path class="path-15" d="M310.945,189.008C309.804,185.108,319.001,160.583,320.639,158.256"/>
<path class="path-16" d="M320.639,158.256C325.577,151.233,337.634,161.555,338.829,168.156C340.137,176.334,328.558,184.798,321.892,189.711C316.880,193.289,312.446,194.131,310.945,189.008C309.804,185.108,319.001,160.583,320.639,158.256Z"/>
</g>
<g id="earrings">
<path class="path-0" d="M331.821,206.827C322.919,209.902,321.352,190.141,325.147,190.744C330.387,192.912,334.442,202.860,331.821,206.827M340.414,199.313C333.521,198.164,331.158,189.582,330.941,185.609C338.538,187.958,347.794,194.521,340.414,199.313M348.463,194.301C346.148,186.578,335.219,181.175,327.674,178.378C325.376,177.526,320.056,186.047,319.689,188.598C318.518,192.478,317.420,214.884,330.910,213.053C336.412,212.057,350.336,200.547,348.463,194.301Z"/>
<path class="path-21" d="M330.941,185.609C338.538,187.958,347.794,194.521,340.414,199.313"/>
<path class="path-21" d="M340.414,199.313C333.521,198.164,331.158,189.582,330.941,185.609"/>
<path class="path-22" d="M330.941,185.609C338.538,187.958,347.794,194.521,340.414,199.313C333.521,198.164,331.158,189.582,330.941,185.609Z"/>
<path class="path-21" d="M325.147,190.744C330.387,192.912,334.442,202.860,331.821,206.827"/>
<path class="path-21" d="M331.821,206.827C322.919,209.902,321.352,190.141,325.147,190.744"/>
<path class="path-22" d="M325.147,190.744C330.387,192.912,334.442,202.860,331.821,206.827C322.919,209.902,321.352,190.141,325.147,190.744Z"/>
</g>
</g>
<g id="jacket">
<path class="path-0" d="M212.290,270.384C214.270,275.083,209.215,284.759,208.398,289.363C203.140,306.810,195.541,323.532,195.849,341.328C196.098,346.582,198.432,357.176,194.266,361.655C192.712,363.326,188.073,362.360,186.951,363.736C184.810,366.331,181.753,357.091,181.040,355.293C180.234,353.260,179.280,344.972,179.315,342.511C179.684,337.693,181.227,328.401,181.990,322.355C182.791,316.384,181.810,309.951,183.791,303.610C185.242,297.213,188.398,289.981,190.087,282.862C192.064,278.559,194.879,276.251,194.891,272.904C194.541,268.969,193.937,266.888,197.570,265.819C201.969,264.857,211.513,265.258,212.290,270.384M272.891,278.871C274.702,277.190,291.810,268.896,294.054,268.269C306.730,265.370,306.390,281.416,304.918,288.927C304.220,292.754,300.936,306.277,301.768,308.942C303.058,314.111,307.881,315.901,310.628,319.553C315.033,326.043,313.651,321.211,316.710,327.093C317.558,328.737,319.055,332.582,318.713,334.363C318.145,336.599,313.157,339.400,312.237,341.358C309.762,345.611,310.673,351.850,303.873,354.295C302.494,354.990,289.768,363.792,287.518,365.192C281.465,368.520,273.642,374.349,267.504,370.172C263.193,366.883,263.361,359.467,262.066,353.800C258.656,339.924,258.146,325.425,260.347,311.248C261.409,301.790,266.303,286.418,272.891,278.871M287.704,260.787C284.721,262.740,278.315,264.051,276.402,264.457C271.420,265.236,270.935,260.499,270.776,256.961C270.734,252.301,274.046,245.767,277.450,242.361C280.214,239.595,284.926,236.755,289.217,236.757C293.754,236.598,301.113,240.914,300.124,245.985C299.722,249.074,292.554,257.612,287.704,260.787M212.787,240.236C217.342,248.000,222.482,255.905,217.423,256.627C212.164,257.378,209.325,256.983,200.656,254.585C189.680,251.548,186.143,236.014,191.769,230.935C196.887,226.315,207.468,231.171,212.787,240.236M331.651,336.702C332.783,332.307,333.881,328.905,332.282,324.445C330.622,319.953,326.391,315.944,322.780,312.835C316.084,307.364,314.144,304.301,306.507,298.184C303.645,295.972,299.679,295.340,298.785,291.986C297.640,288.328,303.925,269.184,305.276,265.958C306.410,261.420,310.468,258.037,311.420,253.838C312.407,250.056,313.569,246.056,313.036,242.184C312.590,236.586,307.548,232.940,303.610,229.742C298.007,225.716,292.695,224.833,285.660,225.393C276.154,226.161,270.740,234.910,266.838,241.157C261.205,250.174,261.727,265.437,259.157,275.753C257.701,281.596,255.316,289.635,253.859,295.113C247.906,316.169,240.409,375.009,260.691,383.599C263.011,384.764,279.330,382.925,283.616,380.526C289.902,377.048,291.676,373.472,297.972,370.445C304.398,367.657,313.502,357.743,319.676,351.238C323.504,347.460,330.667,340.515,331.651,336.702M221.078,233.295C216.503,226.847,208.680,215.792,200.624,216.671C195.870,217.346,188.860,219.649,185.059,222.951C181.855,225.734,178.069,230.824,177.841,235.116C177.416,240.717,177.822,247.402,179.759,252.173C181.724,257.012,189.328,260.892,190.438,265.921C190.866,268.147,186.632,278.599,186.060,281.348C184.700,288.934,181.030,296.192,179.204,302.653C177.497,308.696,175.644,316.868,174.232,322.987C172.394,330.952,169.007,340.723,168.472,349.620C168.037,353.418,169.046,362.057,171.003,366.926C172.281,370.105,175.460,375.244,177.450,376.354C178.659,377.028,191.742,380.981,196.412,377.707C203.960,372.415,203.058,362.453,202.313,347.551C201.488,333.444,211.356,322.385,215.038,308.574C217.501,298.979,225.234,276.045,225.951,267.284C226.424,261.496,228.443,257.694,227.352,249.589C226.677,245.499,224.109,237.567,221.078,233.295Z"/>
<path class="path-1" d="M294.054,268.269C306.730,265.370,306.390,281.416,304.918,288.927"/>
<path class="path-1" d="M304.918,288.927C304.220,292.754,300.936,306.277,301.768,308.942"/>
<path class="path-1" d="M301.768,308.942C303.058,314.111,307.881,315.901,310.628,319.553"/>
<path class="path-1" d="M310.628,319.553C315.033,326.043,313.651,321.211,316.710,327.093"/>
<path class="path-1" d="M316.710,327.093C317.558,328.737,319.055,332.582,318.713,334.363"/>
<path class="path-1" d="M318.713,334.363C318.145,336.599,313.157,339.400,312.237,341.358"/>
<path class="path-1" d="M312.237,341.358C309.762,345.611,310.673,351.850,303.873,354.295"/>
<path class="path-1" d="M303.873,354.295C302.494,354.990,289.768,363.792,287.518,365.192"/>
<path class="path-1" d="M287.518,365.192C281.465,368.520,273.642,374.349,267.504,370.172"/>
<path class="path-1" d="M267.504,370.172C263.193,366.883,263.361,359.467,262.066,353.800"/>
<path class="path-1" d="M262.066,353.800C258.656,339.924,258.146,325.425,260.347,311.248"/>
<path class="path-1" d="M260.347,311.248C261.409,301.790,266.303,286.418,272.891,278.871"/>
<path class="path-1" d="M272.891,278.871C274.702,277.190,291.810,268.896,294.054,268.269"/>
<path class="path-2" d="M294.054,268.269C306.730,265.370,306.390,281.416,304.918,288.927C304.220,292.754,300.936,306.277,301.768,308.942C303.058,314.111,307.881,315.901,310.628,319.553C315.033,326.043,313.651,321.211,316.710,327.093C317.558,328.737,319.055,332.582,318.713,334.363C318.145,336.599,313.157,339.400,312.237,341.358C309.762,345.611,310.673,351.850,303.873,354.295C302.494,354.990,289.768,363.792,287.518,365.192C281.465,368.520,273.642,374.349,267.504,370.172C263.193,366.883,263.361,359.467,262.066,353.800C258.656,339.924,258.146,325.425,260.347,311.248C261.409,301.790,266.303,286.418,272.891,278.871C274.702,277.190,291.810,268.896,294.054,268.269Z"/>
<path class="path-1" d="M197.570,265.819C201.969,264.857,211.513,265.258,212.290,270.384"/>
<path class="path-1" d="M212.290,270.384C214.270,275.083,209.215,284.759,208.398,289.363"/>
<path class="path-1" d="M208.398,289.363C203.140,306.810,195.541,323.532,195.849,341.328"/>
<path class="path-1" d="M195.849,341.328C196.098,346.582,198.432,357.176,194.266,361.655"/>
<path class="path-1" d="M194.266,361.655C192.712,363.326,188.073,362.360,186.951,363.736"/>
<path class="path-1" d="M186.951,363.736C184.810,366.331,181.753,357.091,181.040,355.293"/>
<path class="path-1" d="M181.040,355.293C180.234,353.260,179.280,344.972,179.315,342.511"/>
<path class="path-1" d="M179.315,342.511C179.684,337.693,181.227,328.401,181.990,322.355"/>
<path class="path-1" d="M181.990,322.355C182.791,316.384,181.810,309.951,183.791,303.610"/>
<path class="path-1" d="M183.791,303.610C185.242,297.213,188.398,289.981,190.087,282.862"/>
<path class="path-1" d="M190.087,282.862C192.064,278.559,194.879,276.251,194.891,272.904"/>
<path class="path-1" d="M194.891,272.904C194.541,268.969,193.937,266.888,197.570,265.819"/>
<path class="path-2" d="M197.570,265.819C201.969,264.857,211.513,265.258,212.290,270.384C214.270,275.083,209.215,284.759,208.398,289.363C203.140,306.810,195.541,323.532,195.849,341.328C196.098,346.582,198.432,357.176,194.266,361.655C192.712,363.326,188.073,362.360,186.951,363.736C184.810,366.331,181.753,357.091,181.040,355.293C180.234,353.260,179.280,344.972,179.315,342.511C179.684,337.693,181.227,328.401,181.990,322.355C182.791,316.384,181.810,309.951,183.791,303.610C185.242,297.213,188.398,289.981,190.087,282.862C192.064,278.559,194.879,276.251,194.891,272.904C194.541,268.969,193.937,266.888,197.570,265.819Z"/>
<path class="path-1" d="M289.217,236.757C293.754,236.598,301.113,240.914,300.124,245.985"/>
<path class="path-1" d="M300.124,245.985C299.722,249.074,292.554,257.612,287.704,260.787"/>
<path class="path-1" d="M287.704,260.787C284.721,262.740,278.315,264.051,276.402,264.457"/>
<path class="path-1" d="M276.402,264.457C271.420,265.236,270.935,260.499,270.776,256.961"/>
<path class="path-1" d="M270.776,256.961C270.734,252.301,274.046,245.767,277.450,242.361"/>
<path class="path-1" d="M277.450,242.361C280.214,239.595,284.926,236.755,289.217,236.757"/>
<path class="path-2" d="M289.217,236.757C293.754,236.598,301.113,240.914,300.124,245.985C299.722,249.074,292.554,257.612,287.704,260.787C284.721,262.740,278.315,264.051,276.402,264.457C271.420,265.236,270.935,260.499,270.776,256.961C270.734,252.301,274.046,245.767,277.450,242.361C280.214,239.595,284.926,236.755,289.217,236.757Z"/>
<path class="path-1" d="M212.787,240.236C217.342,248.000,222.482,255.905,217.423,256.627"/>
<path class="path-1" d="M217.423,256.627C212.164,257.378,209.325,256.983,200.656,254.585"/>
<path class="path-1" d="M200.656,254.585C189.680,251.548,186.143,236.014,191.769,230.935"/>
<path class="path-1" d="M191.769,230.935C196.887,226.315,207.468,231.171,212.787,240.236"/>
<path class="path-2" d="M212.787,240.236C217.342,248.000,222.482,255.905,217.423,256.627C212.164,257.378,209.325,256.983,200.656,254.585C189.680,251.548,186.143,236.014,191.769,230.935C196.887,226.315,207.468,231.171,212.787,240.236Z"/>
</g>
<g id="left_arm">
<path class="path-0" d="M322.412,462.974C325.435,456.700,332.904,461.257,341.083,464.696C343.646,465.750,355.977,462.587,358.040,464.487C361.777,467.600,357.872,474.737,353.425,476.504C343.594,479.901,318.267,471.816,322.412,462.974M291.619,283.501C292.095,280.220,299.247,269.091,304.380,269.581C307.360,269.866,309.370,274.659,310.689,277.179C314.356,285.103,318.104,293.344,321.444,301.655C330.460,323.495,336.164,346.044,344.460,367.746C347.687,376.908,351.750,388.503,355.694,396.810C359.674,404.943,363.764,403.109,366.443,408.550C367.820,411.523,367.870,417.108,370.270,421.571C373.898,428.598,379.884,432.076,382.945,436.480C384.839,438.984,385.424,441.077,382.179,442.895C380.233,444.875,374.664,448.058,372.475,449.229C364.808,451.034,356.889,453.164,349.062,452.346C340.131,451.796,315.184,444.777,310.457,439.113C302.096,428.734,311.357,415.466,311.841,404.704C312.212,401.661,313.474,357.607,312.585,354.730C311.302,348.014,306.869,342.553,304.474,335.775C301.681,326.478,298.767,316.538,296.193,306.807C294.227,298.750,289.924,292.423,291.619,283.501M314.744,258.571C311.859,254.234,303.568,246.885,297.790,248.943C293.001,250.881,293.081,256.905,292.912,260.950C292.494,271.059,291.540,279.560,292.731,289.134C293.262,296.108,294.708,302.298,296.184,308.819C297.965,317.879,298.269,335.734,299.774,346.155C300.851,355.720,304.155,365.395,304.284,373.720C304.168,393.359,297.343,412.558,299.728,431.962C300.604,441.833,303.250,441.595,306.259,449.286C308.448,455.103,307.678,461.519,310.495,466.947C317.781,481.331,336.218,493.391,352.826,488.581C368.137,484.219,367.303,467.258,374.794,457.577C381.381,448.977,396.315,451.662,397.569,443.200C398.941,436.065,388.325,429.550,384.541,424.315C377.509,415.189,383.498,412.771,380.273,405.565C377.929,400.238,371.653,395.043,367.485,388.662C364.822,385.199,361.539,378.960,359.147,374.460C354.521,364.898,350.265,353.620,346.982,343.037C343.503,330.953,341.371,320.075,336.295,307.855C332.212,297.669,320.393,266.248,314.744,258.571Z"/>
<path class="path-1" d="M304.380,269.581C307.360,269.866,309.370,274.659,310.689,277.179"/>
<path class="path-1" d="M310.689,277.179C314.356,285.103,318.104,293.344,321.444,301.655"/>
<path class="path-1" d="M321.444,301.655C330.460,323.495,336.164,346.044,344.460,367.746"/>
<path class="path-1" d="M344.460,367.746C347.687,376.908,351.750,388.503,355.694,396.810"/>
<path class="path-1" d="M355.694,396.810C359.674,404.943,363.764,403.109,366.443,408.550"/>
<path class="path-1" d="M366.443,408.550C367.820,411.523,367.870,417.108,370.270,421.571"/>
<path class="path-1" d="M370.270,421.571C373.898,428.598,379.884,432.076,382.945,436.480"/>
<path class="path-1" d="M382.945,436.480C384.839,438.984,385.424,441.077,382.179,442.895"/>
<path class="path-1" d="M382.179,442.895C380.233,444.875,374.664,448.058,372.475,449.229"/>
<path class="path-1" d="M372.475,449.229C364.808,451.034,356.889,453.164,349.062,452.346"/>
<path class="path-1" d="M349.062,452.346C340.131,451.796,315.184,444.777,310.457,439.113"/>
<path class="path-1" d="M310.457,439.113C302.096,428.734,311.357,415.466,311.841,404.704"/>
<path class="path-1" d="M311.841,404.704C312.212,401.661,313.474,357.607,312.585,354.730"/>
<path class="path-1" d="M312.585,354.730C311.302,348.014,306.869,342.553,304.474,335.775"/>
<path class="path-1" d="M304.474,335.775C301.681,326.478,298.767,316.538,296.193,306.807"/>
<path class="path-1" d="M296.193,306.807C294.227,298.750,289.924,292.423,291.619,283.501"/>
<path class="path-1" d="M291.619,283.501C292.095,280.220,299.247,269.091,304.380,269.581"/>
<path class="path-2" d="M304.380,269.581C307.360,269.866,309.370,274.659,310.689,277.179C314.356,285.103,318.104,293.344,321.444,301.655C330.460,323.495,336.164,346.044,344.460,367.746C347.687,376.908,351.750,388.503,355.694,396.810C359.674,404.943,363.764,403.109,366.443,408.550C367.820,411.523,367.870,417.108,370.270,421.571C373.898,428.598,379.884,432.076,382.945,436.480C384.839,438.984,385.424,441.077,382.179,442.895C380.233,444.875,374.664,448.058,372.475,449.229C364.808,451.034,356.889,453.164,349.062,452.346C340.131,451.796,315.184,444.777,310.457,439.113C302.096,428.734,311.357,415.466,311.841,404.704C312.212,401.661,313.474,357.607,312.585,354.730C311.302,348.014,306.869,342.553,304.474,335.775C301.681,326.478,298.767,316.538,296.193,306.807C294.227,298.750,289.924,292.423,291.619,283.501C292.095,280.220,299.247,269.091,304.380,269.581Z"/>
<path class="path-15" d="M341.083,464.696C343.646,465.750,355.977,462.587,358.040,464.487"/>
<path class="path-15" d="M358.040,464.487C361.777,467.600,357.872,474.737,353.425,476.504"/>
<path class="path-15" d="M353.425,476.504C343.594,479.901,318.267,471.816,322.412,462.974"/>
<path class="path-15" d="M322.412,462.974C325.435,456.700,332.904,461.257,341.083,464.696"/>
<path class="path-16" d="M341.083,464.696C343.646,465.750,355.977,462.587,358.040,464.487C361.777,467.600,357.872,474.737,353.425,476.504C343.594,479.901,318.267,471.816,322.412,462.974C325.435,456.700,332.904,461.257,341.083,464.696Z"/>
</g>
<g id="bone">
<g id="bone_B20">
<path class="path-23" d="M231.748,135.470C229.727,123.664,227.707,111.859,225.686,100.053"/>
</g>
<g id="bone_">
<path class="path-23" d="M552.381,338.786C556.008,315.080,559.635,291.374,563.262,267.668"/>
</g>
<g id="bone_">
<path class="path-23" d="M496.479,337.308C496.479,313.696,496.479,290.084,496.479,266.472"/>
</g>
<g id="bone_">
<path class="path-23" d="M436.410,337.308C412.799,337.138,389.188,336.968,365.576,336.799"/>
</g>
<g id="bone_">
<path class="path-23" d="M604.616,215.385C581.187,218.324,557.759,221.264,534.331,224.203"/>
</g>
<g id="bone_">
<path class="path-23" d="M436.410,216.411C419.068,232.434,401.725,248.458,384.382,264.481"/>
</g>
<g id="bone_">
<path class="path-23" d="M551.282,215.385C528.927,207.785,506.572,200.185,484.216,192.584"/>
</g>
<g id="bone_">
<path class="path-23" d="M495.897,216.411C472.818,221.398,449.739,226.385,426.659,231.372"/>
</g>
<g id="bone_B18">
<path class="path-23" d="M215.898,388.673C213.491,420.981,211.084,453.289,208.677,485.597"/>
</g>
<g id="bone_B17">
<path class="path-23" d="M262.053,388.673C270.203,421.037,278.353,453.402,286.504,485.766"/>
</g>
<g id="bone_B16">
<path class="path-23" d="M236.071,160.724C242.162,184.929,248.253,209.134,254.344,233.339"/>
</g>
<g id="bone_B14">
<path class="path-23" d="M153.225,378.817C161.613,396.017,170.002,413.216,178.391,430.416"/>
</g>
<g id="bone_B13">
<path class="path-23" d="M186.925,270.228C175.692,306.425,164.458,342.621,153.225,378.817"/>
</g>
<g id="bone_B11">
<path class="path-23" d="M326.975,351.957C331.290,373.541,335.605,395.125,339.919,416.708"/>
</g>
<g id="bone_B9">
<path class="path-23" d="M300.443,263.271C309.287,292.833,318.131,322.395,326.975,351.957"/>
</g>
<g id="bone_B5">
<path class="path-23" d="M245.260,214.415C240.756,188.100,236.252,161.785,231.748,135.470"/>
</g>
<g id="bone_B4">
<path class="path-23" d="M244.355,256.506C244.657,242.475,244.959,228.445,245.260,214.415"/>
</g>
<g id="bone_B3">
<path class="path-23" d="M244.715,329.506C244.595,305.173,244.475,280.839,244.355,256.506"/>
</g>
<g id="bone_B2">
<path class="path-23" d="M238.462,388.673C240.546,368.951,242.630,349.228,244.715,329.506"/>
</g>
<g id="bone_B1">
<path class="path-23" d="M238.462,388.673C250.439,388.673,262.417,388.673,274.394,388.673"/>
</g>
</g>
</g>
<style>
.path-0{fill:#000000;fill-rule:evenodd;stroke:none;}
.path-1{fill:none;stroke:#a60d3f;stroke-width:1;stroke-linecap:butt;stroke-linejoin:round;}
.path-2{fill:#a60d3f;fill-rule:evenodd;stroke:none;}
.path-3{fill:none;stroke:#d88e4b;stroke-width:1;stroke-linecap:butt;stroke-linejoin:round;}
.path-4{fill:#d88e4b;fill-rule:evenodd;stroke:none;}
.path-5{fill:none;stroke:#6e2353;stroke-width:1;stroke-linecap:butt;stroke-linejoin:round;}
.path-6{fill:#6e2353;fill-rule:evenodd;stroke:none;}
.path-7{fill:none;stroke:#392966;stroke-width:1;stroke-linecap:butt;stroke-linejoin:round;}
.path-8{fill:#392966;fill-rule:evenodd;stroke:none;}
.path-9{fill:none;stroke:#cc9bc5;stroke-width:1;stroke-linecap:butt;stroke-linejoin:round;}
.path-10{fill:#cc9bc5;fill-rule:evenodd;stroke:none;}
.path-11{fill:none;stroke:#620527;stroke-width:1;stroke-linecap:butt;stroke-linejoin:round;}
.path-12{fill:#620527;fill-rule:evenodd;stroke:none;}
.path-13{fill:none;stroke:#6a3661;stroke-width:1;stroke-linecap:butt;stroke-linejoin:round;}
.path-14{fill:#6a3661;fill-rule:evenodd;stroke:none;}
.path-15{fill:none;stroke:#f8a087;stroke-width:1;stroke-linecap:butt;stroke-linejoin:round;}
.path-16{fill:#f8a087;fill-rule:evenodd;stroke:none;}
.path-17{fill:none;stroke:#ffffff;stroke-width:1;stroke-linecap:butt;stroke-linejoin:round;}
.path-18{fill:#ffffff;fill-rule:evenodd;stroke:none;}
.path-19{fill:none;stroke:#d89f4a;stroke-width:1;stroke-linecap:butt;stroke-linejoin:round;}
.path-20{fill:#d89f4a;fill-rule:evenodd;stroke:none;}
.path-21{fill:none;stroke:#fafd5b;stroke-width:1;stroke-linecap:butt;stroke-linejoin:round;}
.path-22{fill:#fafd5b;fill-rule:evenodd;stroke:none;}
.path-23{fill:none;stroke:#00ff00;stroke-width:8;stroke-linecap:round;stroke-linejoin:round;}
.path-24{fill:none;stroke:#000000;stroke-width:1;stroke-linecap:butt;stroke-linejoin:round;}
</style>
</svg>
