<svg version="1.1" id="Frame_128" xmlns="http://www.w3.org/2000/svg" xmlns:xlink="http://www.w3.org/1999/xlink" width="480px" height="720px">
<g id="main_bone">
<g id="right_arm">
<path class="path-0" d="M191.495,271.002C193.442,268.636,197.273,263.725,201.316,262.980C207.989,261.751,212.335,268.337,212.171,272.894C212.186,280.978,204.138,290.247,200.065,297.413C190.176,314.564,179.841,331.526,172.894,349.506C171.933,352.670,165.370,373.250,165.610,370.630C164.683,377.155,170.741,383.322,172.561,389.093C174.855,396.848,171.426,403.715,169.167,410.501C164.107,424.319,164.253,429.605,164.357,443.326C164.473,445.472,164.949,452.414,161.597,452.864C158.123,453.330,157.025,447.032,156.102,444.651C155.521,442.016,152.721,436.485,153.298,434.118C153.467,430.185,157.893,431.322,153.241,423.002C147.258,412.536,136.676,403.162,134.798,389.698C133.698,379.028,139.938,370.233,144.009,360.750C152.743,340.243,162.323,319.815,173.621,300.248C179.768,290.023,183.621,281.053,191.495,271.002M212.888,266.690C214.635,258.400,213.009,250.642,202.071,252.035C184.076,254.261,172.985,279.153,165.438,293.094C155.023,311.720,146.137,330.858,138.028,350.274C134.709,358.519,131.273,362.587,129.514,367.400C127.372,372.831,126.911,381.396,126.774,387.005C125.308,404.544,130.327,405.951,136.908,419.760C140.386,427.958,136.618,432.970,139.223,439.967C141.178,444.890,145.246,448.303,148.486,452.291C151.368,456.304,152.249,458.582,154.458,462.266C157.145,466.690,165.048,476.818,170.810,473.775C174.877,471.608,173.637,463.941,173.490,460.210C173.115,454.618,174.205,432.867,175.344,426.319C177.422,415.328,184.295,403.967,183.578,391.957C182.957,382.703,175.390,375.443,176.650,365.682C177.472,360.493,181.484,352.314,183.225,346.594C186.051,337.487,187.602,327.531,191.395,318.371C198.003,301.906,209.804,284.530,212.888,266.690Z"/>
<path class="path-1" d="M201.316,262.980C207.989,261.751,212.335,268.337,212.171,272.894"/>
<path class="path-1" d="M212.171,272.894C212.186,280.978,204.138,290.247,200.065,297.413"/>
<path class="path-1" d="M200.065,297.413C190.176,314.564,179.841,331.526,172.894,349.506"/>
<path class="path-1" d="M172.894,349.506C171.933,352.670,165.370,373.250,165.610,370.630"/>
<path class="path-1" d="M165.610,370.630C164.683,377.155,170.741,383.322,172.561,389.093"/>
<path class="path-1" d="M172.561,389.093C174.855,396.848,171.426,403.715,169.167,410.501"/>
<path class="path-1" d="M169.167,410.501C164.107,424.319,164.253,429.605,164.357,443.326"/>
<path class="path-1" d="M164.357,443.326C164.473,445.472,164.949,452.414,161.597,452.864"/>
<path class="path-1" d="M161.597,452.864C158.123,453.330,157.025,447.032,156.102,444.651"/>
<path class="path-1" d="M156.102,444.651C155.521,442.016,152.721,436.485,153.298,434.118"/>
<path class="path-1" d="M153.298,434.118C153.467,430.185,157.893,431.322,153.241,423.002"/>
<path class="path-1" d="M153.241,423.002C147.258,412.536,136.676,403.162,134.798,389.698"/>
<path class="path-1" d="M134.798,389.698C133.698,379.028,139.938,370.233,144.009,360.750"/>
<path class="path-1" d="M144.009,360.750C152.743,340.243,162.323,319.815,173.621,300.248"/>
<path class="path-1" d="M173.621,300.248C179.768,290.023,183.621,281.053,191.495,271.002"/>
<path class="path-1" d="M191.495,271.002C193.442,268.636,197.273,263.725,201.316,262.980"/>
<path class="path-2" d="M201.316,262.980C207.989,261.751,212.335,268.337,212.171,272.894C212.186,280.978,204.138,290.247,200.065,297.413C190.176,314.564,179.841,331.526,172.894,349.506C171.933,352.670,165.370,373.250,165.610,370.630C164.683,377.155,170.741,383.322,172.561,389.093C174.855,396.848,171.426,403.715,169.167,410.501C164.107,424.319,164.253,429.605,164.357,443.326C164.473,445.472,164.949,452.414,161.597,452.864C158.123,453.330,157.025,447.032,156.102,444.651C155.521,442.016,152.721,436.485,153.298,434.118C153.467,430.185,157.893,431.322,153.241,423.002C147.258,412.536,136.676,403.162,134.798,389.698C133.698,379.028,139.938,370.233,144.009,360.750C152.743,340.243,162.323,319.815,173.621,300.248C179.768,290.023,183.621,281.053,191.495,271.002C193.442,268.636,197.273,263.725,201.316,262.980Z"/>
</g>
<g id="layer_left_leg">
<g id="left_heel">
<path class="path-0" d="M260.102,665.776C254.082,653.650,267.198,636.347,278.586,634.451C297.329,631.184,312.898,656.159,310.582,662.833C306.510,673.471,287.266,672.150,277.570,671.649C272.958,671.258,262.022,669.794,260.102,665.776M308.204,633.124C296.693,622.690,271.199,624.765,259.426,632.621C240.299,645.003,236.050,683.816,263.665,685.186C276.984,685.894,307.034,684.592,315.124,678.703C322.870,673.578,321.770,662.161,319.793,653.706C317.807,647.025,313.456,638.023,308.204,633.124Z"/>
<path class="path-3" d="M278.586,634.451C297.329,631.184,312.898,656.159,310.582,662.833"/>
<path class="path-3" d="M310.582,662.833C306.510,673.471,287.266,672.150,277.570,671.649"/>
<path class="path-3" d="M277.570,671.649C272.958,671.258,262.022,669.794,260.102,665.776"/>
<path class="path-3" d="M260.102,665.776C254.082,653.650,267.198,636.347,278.586,634.451"/>
<path class="path-4" d="M278.586,634.451C297.329,631.184,312.898,656.159,310.582,662.833C306.510,673.471,287.266,672.150,277.570,671.649C272.958,671.258,262.022,669.794,260.102,665.776C254.082,653.650,267.198,636.347,278.586,634.451Z"/>
</g>
<g id="left_leg">
<path class="path-0" d="M248.133,411.129C249.911,406.535,259.350,410.349,263.226,410.155C269.587,410.147,284.178,407.256,289.111,411.467C295.808,416.808,294.394,440.807,294.324,449.047C293.253,477.879,296.455,504.938,297.995,532.756C298.365,544.521,297.125,556.935,299.746,568.174C301.777,575.491,307.845,581.558,310.576,588.177C312.044,594.847,316.750,602.183,312.992,607.279C304.008,617.991,299.245,612.426,291.238,618.326C282.024,624.690,265.659,628.193,256.537,623.699C250.176,620.825,240.486,611.016,238.968,604.299C234.566,584.811,236.807,561.619,236.532,542.025C236.223,520.005,250.036,474.426,245.447,451.270C242.805,437.935,246.924,436.301,252.133,426.879C252.863,425.555,246.557,423.911,245.787,422.585C244.002,420.010,246.875,413.920,248.133,411.129M295.435,403.622C289.145,398.407,270.957,400.174,263.376,400.509C259.344,400.672,246.713,397.614,243.755,399.466C228.831,408.809,235.346,441.982,235.791,456.331C235.561,462.799,228.381,492.939,227.173,501.567C224.919,529.612,219.859,553.721,221.945,581.780C222.802,595.801,222.575,609.834,228.399,622.405C237.300,641.269,254.699,643.929,278.715,642.023C293.245,640.907,322.137,639.409,329.745,612.479C334.277,596.389,325.113,575.777,322.299,570.864C319.367,565.746,314.653,561.236,312.717,555.219C306.429,537.765,311.985,518.194,310.709,499.578C309.172,476.841,313.922,419.019,295.435,403.622Z"/>
<path class="path-7" d="M263.226,410.155C269.587,410.147,284.178,407.256,289.111,411.467"/>
<path class="path-7" d="M289.111,411.467C295.808,416.808,294.394,440.807,294.324,449.047"/>
<path class="path-7" d="M294.324,449.047C293.253,477.879,296.455,504.938,297.995,532.756"/>
<path class="path-7" d="M297.995,532.756C298.365,544.521,297.125,556.935,299.746,568.174"/>
<path class="path-7" d="M299.746,568.174C301.777,575.491,307.845,581.558,310.576,588.177"/>
<path class="path-7" d="M310.576,588.177C312.044,594.847,316.750,602.183,312.992,607.279"/>
<path class="path-7" d="M312.992,607.279C304.008,617.991,299.245,612.426,291.238,618.326"/>
<path class="path-7" d="M291.238,618.326C282.024,624.690,265.659,628.193,256.537,623.699"/>
<path class="path-7" d="M256.537,623.699C250.176,620.825,240.486,611.016,238.968,604.299"/>
<path class="path-7" d="M238.968,604.299C234.566,584.811,236.807,561.619,236.532,542.025"/>
<path class="path-7" d="M236.532,542.025C236.223,520.005,250.036,474.426,245.447,451.270"/>
<path class="path-7" d="M245.447,451.270C242.805,437.935,246.924,436.301,252.133,426.879"/>
<path class="path-7" d="M252.133,426.879C252.863,425.555,246.557,423.911,245.787,422.585"/>
<path class="path-7" d="M245.787,422.585C244.002,420.010,246.875,413.920,248.133,411.129"/>
<path class="path-7" d="M248.133,411.129C249.911,406.535,259.350,410.349,263.226,410.155"/>
<path class="path-8" d="M263.226,410.155C269.587,410.147,284.178,407.256,289.111,411.467C295.808,416.808,294.394,440.807,294.324,449.047C293.253,477.879,296.455,504.938,297.995,532.756C298.365,544.521,297.125,556.935,299.746,568.174C301.777,575.491,307.845,581.558,310.576,588.177C312.044,594.847,316.750,602.183,312.992,607.279C304.008,617.991,299.245,612.426,291.238,618.326C282.024,624.690,265.659,628.193,256.537,623.699C250.176,620.825,240.486,611.016,238.968,604.299C234.566,584.811,236.807,561.619,236.532,542.025C236.223,520.005,250.036,474.426,245.447,451.270C242.805,437.935,246.924,436.301,252.133,426.879C252.863,425.555,246.557,423.911,245.787,422.585C244.002,420.010,246.875,413.920,248.133,411.129C249.911,406.535,259.350,410.349,263.226,410.155Z"/>
</g>
<g id="left_toe">
<path class="path-0" d="M252.647,673.288C224.716,664.492,237.706,625.298,258.168,620.514C281.091,615.199,303.487,624.646,309.275,636.144C314.781,645.944,315.280,657.295,309.117,667.006C298.646,680.824,267.454,677.901,252.647,673.288M324.594,637.274C318.648,616.988,299.182,603.580,281.726,602.419C255.544,600.705,234.188,610.689,227.462,635.658C222.934,650.482,225.254,666.159,234.742,678.416C242.777,688.153,270.834,689.880,282.881,689.245C293.999,687.889,307.983,685.806,316.039,676.804C322.331,669.980,327.136,645.984,324.594,637.274Z"/>
<path class="path-3" d="M258.168,620.514C281.091,615.199,303.487,624.646,309.275,636.144"/>
<path class="path-3" d="M309.275,636.144C314.781,645.944,315.280,657.295,309.117,667.006"/>
<path class="path-3" d="M309.117,667.006C298.646,680.824,267.454,677.901,252.647,673.288"/>
<path class="path-3" d="M252.647,673.288C224.716,664.492,237.706,625.298,258.168,620.514"/>
<path class="path-4" d="M258.168,620.514C281.091,615.199,303.487,624.646,309.275,636.144C314.781,645.944,315.280,657.295,309.117,667.006C298.646,680.824,267.454,677.901,252.647,673.288C224.716,664.492,237.706,625.298,258.168,620.514Z"/>
</g>
<g id="left_sole">
<path class="path-0" d="M257.755,691.021C249.292,689.536,247.155,682.393,245.405,684.541C243.792,686.521,251.966,690.024,255.718,691.138C264.518,694.003,283.269,694.678,293.429,689.838C295.440,689.072,301.651,687.108,301.822,687.124C306.613,687.589,292.549,691.045,289.376,691.362C284.821,692.187,258.781,690.867,257.755,691.021M244.610,681.713C248.145,679.147,258.115,678.852,261.690,679.031C282.331,680.066,289.882,678.751,296.765,679.403C299.134,679.638,306.128,677.052,306.700,681.823C307.698,690.156,276.528,693.073,257.846,687.891C250.740,686.270,243.019,682.868,244.610,681.713M314.873,679.702C312.486,673.966,292.343,667.885,270.059,668.034C260.998,668.109,237.579,668.800,234.226,680.342C233.635,682.392,234.960,688.862,236.710,690.007C248.128,697.572,306.882,696.835,312.467,691.396C314.187,689.721,315.845,682.040,314.873,679.702Z"/>
<path class="path-5" d="M245.405,684.541C243.792,686.521,251.966,690.024,255.718,691.138"/>
<path class="path-5" d="M255.718,691.138C264.518,694.003,283.269,694.678,293.429,689.838"/>
<path class="path-5" d="M293.429,689.838C295.440,689.072,301.651,687.108,301.822,687.124"/>
<path class="path-5" d="M301.822,687.124C306.613,687.589,292.549,691.045,289.376,691.362"/>
<path class="path-5" d="M289.376,691.362C284.821,692.187,258.781,690.867,257.755,691.021"/>
<path class="path-5" d="M257.755,691.021C249.292,689.536,247.155,682.393,245.405,684.541"/>
<path class="path-6" d="M245.405,684.541C243.792,686.521,251.966,690.024,255.718,691.138C264.518,694.003,283.269,694.678,293.429,689.838C295.440,689.072,301.651,687.108,301.822,687.124C306.613,687.589,292.549,691.045,289.376,691.362C284.821,692.187,258.781,690.867,257.755,691.021C249.292,689.536,247.155,682.393,245.405,684.541Z"/>
<path class="path-5" d="M261.690,679.031C282.331,680.066,289.882,678.751,296.765,679.403"/>
<path class="path-5" d="M296.765,679.403C299.134,679.638,306.128,677.052,306.700,681.823"/>
<path class="path-5" d="M306.700,681.823C307.698,690.156,276.528,693.073,257.846,687.891"/>
<path class="path-5" d="M257.846,687.891C250.740,686.270,243.019,682.868,244.610,681.713"/>
<path class="path-5" d="M244.610,681.713C248.145,679.147,258.115,678.852,261.690,679.031"/>
<path class="path-6" d="M261.690,679.031C282.331,680.066,289.882,678.751,296.765,679.403C299.134,679.638,306.128,677.052,306.700,681.823C307.698,690.156,276.528,693.073,257.846,687.891C250.740,686.270,243.019,682.868,244.610,681.713C248.145,679.147,258.115,678.852,261.690,679.031Z"/>
</g>
</g>
<g id="layer_right_leg">
<g id="right_sole">
<path class="path-0" d="M192.715,599.954C193.841,600.575,207.723,601.744,209.123,601.974C210.339,602.212,218.391,603.606,219.441,603.662C220.058,603.722,226.620,604.633,227.001,605.369C227.410,604.892,219.294,605.376,218.795,605.304C218.041,605.245,195.208,602.120,194.946,602.168C193.461,602.107,183.753,599.480,183.693,598.391C184.608,598.013,191.399,599.223,192.715,599.954M223.303,599.737C223.218,600.033,222.200,600.795,221.725,600.699C220.754,600.508,212.677,600.402,211.442,599.892C209.983,599.572,205.213,599.048,203.893,598.787C201.693,598.353,193.611,596.558,191.578,595.642C190.845,595.145,189.366,593.961,189.314,593.534C189.392,593.247,192.812,595.075,193.929,595.362C195.983,595.891,203.991,596.714,206.142,597.037C208.352,597.370,216.353,598.957,218.647,599.085C219.008,599.114,223.102,598.957,223.303,599.737M229.892,599.115C221.804,595.212,213.564,597.170,206.846,595.387C201.108,593.861,189.325,590.635,182.398,593.139C181.314,593.531,179.566,594.317,179.385,595.522C179.163,597.018,181.126,600.372,182.738,601.753C184.732,603.459,189.282,603.990,191.036,604.523C199.830,607.548,211.175,609.048,220.667,610.147C228.218,611.032,230.035,607.306,231.176,603.805C231.628,602.418,232.496,600.330,229.892,599.115Z"/>
<path class="path-5" d="M192.715,599.954C193.841,600.575,207.723,601.744,209.123,601.974"/>
<path class="path-5" d="M209.123,601.974C210.339,602.212,218.391,603.606,219.441,603.662"/>
<path class="path-5" d="M219.441,603.662C220.058,603.722,226.620,604.633,227.001,605.369"/>
<path class="path-5" d="M227.001,605.369C227.410,604.892,219.294,605.376,218.795,605.304"/>
<path class="path-5" d="M218.795,605.304C218.041,605.245,195.208,602.120,194.946,602.168"/>
<path class="path-5" d="M194.946,602.168C193.461,602.107,183.753,599.480,183.693,598.391"/>
<path class="path-5" d="M183.693,598.391C184.608,598.013,191.399,599.223,192.715,599.954"/>
<path class="path-6" d="M192.715,599.954C193.841,600.575,207.723,601.744,209.123,601.974C210.339,602.212,218.391,603.606,219.441,603.662C220.058,603.722,226.620,604.633,227.001,605.369C227.410,604.892,219.294,605.376,218.795,605.304C218.041,605.245,195.208,602.120,194.946,602.168C193.461,602.107,183.753,599.480,183.693,598.391C184.608,598.013,191.399,599.223,192.715,599.954Z"/>
<path class="path-5" d="M193.929,595.362C195.983,595.891,203.991,596.714,206.142,597.037"/>
<path class="path-5" d="M206.142,597.037C208.352,597.370,216.353,598.957,218.647,599.085"/>
<path class="path-5" d="M218.647,599.085C219.008,599.114,223.102,598.957,223.303,599.737"/>
<path class="path-5" d="M223.303,599.737C223.218,600.033,222.200,600.795,221.725,600.699"/>
<path class="path-5" d="M221.725,600.699C220.754,600.508,212.677,600.402,211.442,599.892"/>
<path class="path-5" d="M211.442,599.892C209.983,599.572,205.213,599.048,203.893,598.787"/>
<path class="path-5" d="M203.893,598.787C201.693,598.353,193.611,596.558,191.578,595.642"/>
<path class="path-5" d="M191.578,595.642C190.845,595.145,189.366,593.961,189.314,593.534"/>
<path class="path-5" d="M189.314,593.534C189.392,593.247,192.812,595.075,193.929,595.362"/>
<path class="path-6" d="M193.929,595.362C195.983,595.891,203.991,596.714,206.142,597.037C208.352,597.370,216.353,598.957,218.647,599.085C219.008,599.114,223.102,598.957,223.303,599.737C223.218,600.033,222.200,600.795,221.725,600.699C220.754,600.508,212.677,600.402,211.442,599.892C209.983,599.572,205.213,599.048,203.893,598.787C201.693,598.353,193.611,596.558,191.578,595.642C190.845,595.145,189.366,593.961,189.314,593.534C189.392,593.247,192.812,595.075,193.929,595.362Z"/>
</g>
<g id="right_heel">
<path class="path-0" d="M184.694,545.544C187.400,531.052,189.824,519.803,207.976,519.555C216.031,519.301,230.720,523.783,234.063,531.978C235.862,536.092,234.411,541.596,234.107,545.701C233.668,552.414,236.136,565.772,226.552,566.159C225.927,566.245,209.220,564.464,204.000,563.953C197.388,563.921,190.528,563.589,186.391,558.478C184.251,555.218,183.974,549.014,184.694,545.544M242.662,531.533C240.397,521.882,228.497,514.955,219.424,515.079C207.514,515.096,196.026,509.722,186.989,519.698C179.868,527.559,177.180,543.356,177.693,553.658C177.775,558.342,179.586,567.102,183.077,570.141C185.648,572.283,190.042,572.332,193.352,572.758C209.358,575.080,237.241,584.108,240.011,560.138C240.674,553.812,243.870,536.764,242.662,531.533Z"/>
<path class="path-3" d="M207.976,519.555C216.031,519.301,230.720,523.783,234.063,531.978"/>
<path class="path-3" d="M234.063,531.978C235.862,536.092,234.411,541.596,234.107,545.701"/>
<path class="path-3" d="M234.107,545.701C233.668,552.414,236.136,565.772,226.552,566.159"/>
<path class="path-3" d="M226.552,566.159C225.927,566.245,209.220,564.464,204.000,563.953"/>
<path class="path-3" d="M204.000,563.953C197.388,563.921,190.528,563.589,186.391,558.478"/>
<path class="path-3" d="M186.391,558.478C184.251,555.218,183.974,549.014,184.694,545.544"/>
<path class="path-3" d="M184.694,545.544C187.400,531.052,189.824,519.803,207.976,519.555"/>
<path class="path-4" d="M207.976,519.555C216.031,519.301,230.720,523.783,234.063,531.978C235.862,536.092,234.411,541.596,234.107,545.701C233.668,552.414,236.136,565.772,226.552,566.159C225.927,566.245,209.220,564.464,204.000,563.953C197.388,563.921,190.528,563.589,186.391,558.478C184.251,555.218,183.974,549.014,184.694,545.544C187.400,531.052,189.824,519.803,207.976,519.555Z"/>
</g>
<g id="right_toe">
<path class="path-0" d="M180.594,580.522C182.724,570.333,189.092,558.528,201.807,557.812C205.098,557.455,209.582,559.081,213.139,560.028C230.731,564.664,237.351,569.274,236.677,587.612C236.442,591.739,236.717,596.765,233.588,600.044C229.327,604.429,209.470,602.860,203.458,602.044C193.631,600.926,185.549,600.444,180.810,590.533C178.899,586.428,179.734,584.669,180.594,580.522M243.569,572.618C239.147,560.780,213.073,553.152,201.051,553.672C184.124,554.497,175.335,564.746,172.095,578.551C170.881,583.555,169.628,589.246,171.907,593.932C172.886,595.945,175.340,598.470,176.887,600.097C186.729,611.351,193.775,611.472,207.692,612.303C215.537,612.903,228.316,612.095,235.193,607.580C239.561,604.412,241.088,600.961,242.058,595.970C242.808,591.212,245.143,576.373,243.569,572.618Z"/>
<path class="path-3" d="M201.807,557.812C205.098,557.455,209.582,559.081,213.139,560.028"/>
<path class="path-3" d="M213.139,560.028C230.731,564.664,237.351,569.274,236.677,587.612"/>
<path class="path-3" d="M236.677,587.612C236.442,591.739,236.717,596.765,233.588,600.044"/>
<path class="path-3" d="M233.588,600.044C229.327,604.429,209.470,602.860,203.458,602.044"/>
<path class="path-3" d="M203.458,602.044C193.631,600.926,185.549,600.444,180.810,590.533"/>
<path class="path-3" d="M180.810,590.533C178.899,586.428,179.734,584.669,180.594,580.522"/>
<path class="path-3" d="M180.594,580.522C182.724,570.333,189.092,558.528,201.807,557.812"/>
<path class="path-4" d="M201.807,557.812C205.098,557.455,209.582,559.081,213.139,560.028C230.731,564.664,237.351,569.274,236.677,587.612C236.442,591.739,236.717,596.765,233.588,600.044C229.327,604.429,209.470,602.860,203.458,602.044C193.631,600.926,185.549,600.444,180.810,590.533C178.899,586.428,179.734,584.669,180.594,580.522C182.724,570.333,189.092,558.528,201.807,557.812Z"/>
</g>
<g id="right_leg">
<path class="path-0" d="M193.130,404.693C198.697,394.885,212.238,394.761,221.532,398.192C227.272,400.179,237.331,402.917,240.189,408.664C242.806,413.926,239.435,422.469,237.759,428.102C235.021,437.304,214.124,460.101,223.244,456.621C233.380,452.752,240.784,435.784,245.228,442.284C246.631,444.336,243.224,447.320,242.413,450.076C238.011,468.472,233.219,487.860,233.416,506.210C233.423,515.146,234.985,528.188,236.735,536.283C239.076,549.178,235.570,551.937,235.625,559.716C235.528,561.470,235.672,570.318,235.433,572.663C234.949,578.547,231.320,584.168,229.067,589.656C226.726,595.359,217.857,600.911,212.323,602.542C208.870,603.486,198.729,606.015,195.162,605.127C190.844,604.185,184.947,600.271,182.815,596.041C181.736,594.159,180.432,584.905,180.155,582.566C179.793,578.057,174.932,576.406,177.372,571.705C179.142,567.994,190.848,571.716,189.391,567.768C185.373,556.878,180.508,535.927,180.113,526.735C179.782,521.831,175.817,505.797,176.256,501.261C181.849,448.396,177.426,437.139,193.130,404.693M218.351,385.924C212.998,383.221,209.299,376.999,203.193,378.601C201.492,379.203,198.646,381.334,197.347,382.389C180.795,393.705,177.015,404.770,173.877,423.121C171.444,434.477,169.127,446.387,168.648,457.538C167.203,480.452,163.878,500.451,166.974,521.822C167.778,525.618,170.623,528.983,171.954,533.594C172.745,536.103,172.946,539.252,173.897,543.617C174.297,546.397,176.883,548.896,176.070,551.454C175.545,553.320,170.407,554.844,169.541,556.066C166.613,559.196,165.850,564.680,164.819,568.596C163.862,573.319,165.348,578.131,166.520,582.548C167.826,588.772,169.273,596.707,172.330,601.846C174.768,605.943,178.617,609.287,182.153,612.136C184.914,614.334,187.549,616.145,190.793,617.615C194.293,619.233,197.787,621.404,201.796,621.498C203.028,621.337,212.683,617.849,214.504,617.015C215.936,616.258,216.955,613.641,218.302,612.584C219.723,611.340,222.603,611.741,224.371,610.941C228.359,609.132,232.518,607.280,235.678,604.245C251.380,588.730,246.468,573.177,246.921,553.900C247.107,545.955,245.975,529.678,246.712,520.908C247.503,508.451,250.433,496.533,252.186,483.784C253.135,477.781,255.075,470.737,256.121,463.887C256.680,459.733,254.929,456.439,254.731,452.315C254.269,448.022,255.829,434.297,255.653,429.642C255.658,425.924,256.387,421.350,255.535,417.551C253.097,407.844,240.556,395.830,231.699,391.669C227.294,389.423,222.386,388.456,218.351,385.924Z"/>
<path class="path-7" d="M221.532,398.192C227.272,400.179,237.331,402.917,240.189,408.664"/>
<path class="path-7" d="M240.189,408.664C242.806,413.926,239.435,422.469,237.759,428.102"/>
<path class="path-7" d="M237.759,428.102C235.021,437.304,214.124,460.101,223.244,456.621"/>
<path class="path-7" d="M223.244,456.621C233.380,452.752,240.784,435.784,245.228,442.284"/>
<path class="path-7" d="M245.228,442.284C246.631,444.336,243.224,447.320,242.413,450.076"/>
<path class="path-7" d="M242.413,450.076C238.011,468.472,233.219,487.860,233.416,506.210"/>
<path class="path-7" d="M233.416,506.210C233.423,515.146,234.985,528.188,236.735,536.283"/>
<path class="path-7" d="M236.735,536.283C239.076,549.178,235.570,551.937,235.625,559.716"/>
<path class="path-7" d="M235.625,559.716C235.528,561.470,235.672,570.318,235.433,572.663"/>
<path class="path-7" d="M235.433,572.663C234.949,578.547,231.320,584.168,229.067,589.656"/>
<path class="path-7" d="M229.067,589.656C226.726,595.359,217.857,600.911,212.323,602.542"/>
<path class="path-7" d="M212.323,602.542C208.870,603.486,198.729,606.015,195.162,605.127"/>
<path class="path-7" d="M195.162,605.127C190.844,604.185,184.947,600.271,182.815,596.041"/>
<path class="path-7" d="M182.815,596.041C181.736,594.159,180.432,584.905,180.155,582.566"/>
<path class="path-7" d="M180.155,582.566C179.793,578.057,174.932,576.406,177.372,571.705"/>
<path class="path-7" d="M177.372,571.705C179.142,567.994,190.848,571.716,189.391,567.768"/>
<path class="path-7" d="M189.391,567.768C185.373,556.878,180.508,535.927,180.113,526.735"/>
<path class="path-7" d="M180.113,526.735C179.782,521.831,175.817,505.797,176.256,501.261"/>
<path class="path-7" d="M176.256,501.261C181.849,448.396,177.426,437.139,193.130,404.693"/>
<path class="path-7" d="M193.130,404.693C198.697,394.885,212.238,394.761,221.532,398.192"/>
<path class="path-8" d="M221.532,398.192C227.272,400.179,237.331,402.917,240.189,408.664C242.806,413.926,239.435,422.469,237.759,428.102C235.021,437.304,214.124,460.101,223.244,456.621C233.380,452.752,240.784,435.784,245.228,442.284C246.631,444.336,243.224,447.320,242.413,450.076C238.011,468.472,233.219,487.860,233.416,506.210C233.423,515.146,234.985,528.188,236.735,536.283C239.076,549.178,235.570,551.937,235.625,559.716C235.528,561.470,235.672,570.318,235.433,572.663C234.949,578.547,231.320,584.168,229.067,589.656C226.726,595.359,217.857,600.911,212.323,602.542C208.870,603.486,198.729,606.015,195.162,605.127C190.844,604.185,184.947,600.271,182.815,596.041C181.736,594.159,180.432,584.905,180.155,582.566C179.793,578.057,174.932,576.406,177.372,571.705C179.142,567.994,190.848,571.716,189.391,567.768C185.373,556.878,180.508,535.927,180.113,526.735C179.782,521.831,175.817,505.797,176.256,501.261C181.849,448.396,177.426,437.139,193.130,404.693C198.697,394.885,212.238,394.761,221.532,398.192Z"/>
</g>
</g>
<g id="hat_brim">
<path class="path-0" d="M301.503,155.042C305.074,149.001,313.819,132.569,321.803,132.453C327.126,132.376,338.244,141.864,343.942,144.776C348.976,147.697,354.338,150.281,360.032,152.859C363.268,154.481,366.508,156.098,369.751,157.708C384.163,164.819,380.262,171.199,371.925,169.988C353.249,166.932,350.274,168.307,332.175,159.253C329.831,158.289,323.795,155.051,322.860,159.389C321.603,164.398,330.648,168.593,334.331,170.202C341.037,173.766,348.414,177.652,356.407,178.200C358.742,178.499,366.716,177.716,368.079,180.026C370.124,183.324,360.603,192.113,358.636,194.138C355.352,197.181,352.071,200.223,348.777,202.601C343.836,205.999,338.556,209.070,332.916,210.150C322.291,211.636,288.802,196.818,287.634,185.190C286.872,178.547,297.603,161.421,301.503,155.042M333.716,127.955C328.663,123.703,324.912,117.435,317.641,120.869C312.352,123.276,306.809,131.009,303.209,135.054C289.811,151.885,277.789,171.692,278.768,193.304C279.300,206.938,283.952,206.539,295.007,211.700C311.761,219.775,333.090,222.126,350.933,213.550C362.498,208.057,382.530,189.798,387.679,177.745C389.283,173.728,392.146,164.703,389.749,160.080C387.006,154.463,364.577,145.141,357.871,141.579C349.824,137.370,340.784,133.508,333.716,127.955Z"/>
<path class="path-9" d="M321.803,132.453C327.126,132.376,338.244,141.864,343.942,144.776"/>
<path class="path-9" d="M343.942,144.776C348.976,147.697,354.338,150.281,360.032,152.859"/>
<path class="path-9" d="M360.032,152.859C363.268,154.481,366.508,156.098,369.751,157.708"/>
<path class="path-9" d="M369.751,157.708C384.163,164.819,380.262,171.199,371.925,169.988"/>
<path class="path-9" d="M371.925,169.988C353.249,166.932,350.274,168.307,332.175,159.253"/>
<path class="path-9" d="M332.175,159.253C329.831,158.289,323.795,155.051,322.860,159.389"/>
<path class="path-9" d="M322.860,159.389C321.603,164.398,330.648,168.593,334.331,170.202"/>
<path class="path-9" d="M334.331,170.202C341.037,173.766,348.414,177.652,356.407,178.200"/>
<path class="path-9" d="M356.407,178.200C358.742,178.499,366.716,177.716,368.079,180.026"/>
<path class="path-9" d="M368.079,180.026C370.124,183.324,360.603,192.113,358.636,194.138"/>
<path class="path-9" d="M358.636,194.138C355.352,197.181,352.071,200.223,348.777,202.601"/>
<path class="path-9" d="M348.777,202.601C343.836,205.999,338.556,209.070,332.916,210.150"/>
<path class="path-9" d="M332.916,210.150C322.291,211.636,288.802,196.818,287.634,185.190"/>
<path class="path-9" d="M287.634,185.190C286.872,178.547,297.603,161.421,301.503,155.042"/>
<path class="path-9" d="M301.503,155.042C305.074,149.001,313.819,132.569,321.803,132.453"/>
<path class="path-10" d="M321.803,132.453C327.126,132.376,338.244,141.864,343.942,144.776C348.976,147.697,354.338,150.281,360.032,152.859C363.268,154.481,366.508,156.098,369.751,157.708C384.163,164.819,380.262,171.199,371.925,169.988C353.249,166.932,350.274,168.307,332.175,159.253C329.831,158.289,323.795,155.051,322.860,159.389C321.603,164.398,330.648,168.593,334.331,170.202C341.037,173.766,348.414,177.652,356.407,178.200C358.742,178.499,366.716,177.716,368.079,180.026C370.124,183.324,360.603,192.113,358.636,194.138C355.352,197.181,352.071,200.223,348.777,202.601C343.836,205.999,338.556,209.070,332.916,210.150C322.291,211.636,288.802,196.818,287.634,185.190C286.872,178.547,297.603,161.421,301.503,155.042C305.074,149.001,313.819,132.569,321.803,132.453Z"/>
</g>
<g id="hair">
<path class="path-0" d="M199.624,146.422C216.114,133.177,235.904,130.472,256.851,127.921C266.240,126.760,273.222,132.641,280.940,138.336C287.304,143.362,294.169,149.049,300.924,154.318C311.086,162.188,315.403,166.201,319.268,170.057C322.545,172.989,327.717,178.541,331.713,181.058C336.534,184.094,347.047,200.419,349.234,202.183C342.802,204.949,332.545,207.438,328.085,211.655C330.204,217.329,331.277,226.300,331.506,229.000C325.354,229.929,317.934,227.713,306.346,226.560C304.603,233.909,305.160,240.615,301.063,248.263C293.193,246.546,287.691,245.095,277.396,241.472C271.264,247.187,269.696,246.904,259.565,254.269C252.142,250.520,246.133,246.366,239.009,244.089C232.492,247.518,221.871,249.401,218.479,252.612C214.116,245.905,209.999,238.442,206.482,235.343C197.079,238.078,193.191,241.028,186.637,244.030C181.987,238.875,184.622,234.101,179.303,226.401C174.893,225.585,168.016,223.515,162.464,223.854C165.932,219.070,167.569,204.145,173.897,201.760C181.705,198.818,175.917,190.120,180.172,181.553C181.217,179.329,191.640,162.107,192.478,159.361C194.102,154.613,195.892,149.569,199.624,146.422M284.522,125.383C271.566,116.972,246.541,113.850,232.966,118.189C220.495,122.019,208.371,127.015,197.917,135.052C192.057,139.492,185.693,145.856,182.077,152.269C174.828,164.743,165.061,191.548,159.352,204.055C154.813,214.413,150.366,221.516,145.667,227.315C163.737,232.332,169.073,234.575,174.367,234.963C175.303,242.669,182.889,247.845,182.327,256.474C191.006,254.480,196.058,251.845,203.713,249.283C208.045,253.609,211.281,259.700,215.557,265.582C223.085,262.888,230.975,262.560,238.163,256.523C243.910,259.094,253.030,263.073,262.412,267.305C270.341,262.250,272.093,261.858,279.463,256.212C289.095,257.799,299.481,262.874,308.921,261.115C307.609,253.006,313.208,246.927,312.092,241.748C319.121,239.264,341.367,240.730,345.097,240.115C344.398,234.104,340.176,222.825,341.175,215.520C347.822,213.183,353.431,211.090,363.636,205.173C359.649,198.771,352.786,190.972,346.949,186.460C342.026,182.692,337.853,177.516,332.913,173.575C316.178,160.446,308.492,141.027,284.522,125.383Z"/>
<path class="path-11" d="M256.851,127.921C266.240,126.760,273.222,132.641,280.940,138.336"/>
<path class="path-11" d="M280.940,138.336C287.304,143.362,294.169,149.049,300.924,154.318"/>
<path class="path-11" d="M300.924,154.318C311.086,162.188,315.403,166.201,319.268,170.057"/>
<path class="path-11" d="M319.268,170.057C322.545,172.989,327.717,178.541,331.713,181.058"/>
<path class="path-11" d="M331.713,181.058C336.534,184.094,347.047,200.419,349.234,202.183"/>
<path class="path-11" d="M349.234,202.183C342.802,204.949,332.545,207.438,328.085,211.655"/>
<path class="path-11" d="M328.085,211.655C330.204,217.329,331.277,226.300,331.506,229.000"/>
<path class="path-11" d="M331.506,229.000C325.354,229.929,317.934,227.713,306.346,226.560"/>
<path class="path-11" d="M306.346,226.560C304.603,233.909,305.160,240.615,301.063,248.263"/>
<path class="path-11" d="M301.063,248.263C293.193,246.546,287.691,245.095,277.396,241.472"/>
<path class="path-11" d="M277.396,241.472C271.264,247.187,269.696,246.904,259.565,254.269"/>
<path class="path-11" d="M259.565,254.269C252.142,250.520,246.133,246.366,239.009,244.089"/>
<path class="path-11" d="M239.009,244.089C232.492,247.518,221.871,249.401,218.479,252.612"/>
<path class="path-11" d="M218.479,252.612C214.116,245.905,209.999,238.442,206.482,235.343"/>
<path class="path-11" d="M206.482,235.343C197.079,238.078,193.191,241.028,186.637,244.030"/>
<path class="path-11" d="M186.637,244.030C181.987,238.875,184.622,234.101,179.303,226.401"/>
<path class="path-11" d="M179.303,226.401C174.893,225.585,168.016,223.515,162.464,223.854"/>
<path class="path-11" d="M162.464,223.854C165.932,219.070,167.569,204.145,173.897,201.760"/>
<path class="path-11" d="M173.897,201.760C181.705,198.818,175.917,190.120,180.172,181.553"/>
<path class="path-11" d="M180.172,181.553C181.217,179.329,191.640,162.107,192.478,159.361"/>
<path class="path-11" d="M192.478,159.361C194.102,154.613,195.892,149.569,199.624,146.422"/>
<path class="path-11" d="M199.624,146.422C216.114,133.177,235.904,130.472,256.851,127.921"/>
<path class="path-12" d="M256.851,127.921C266.240,126.760,273.222,132.641,280.940,138.336C287.304,143.362,294.169,149.049,300.924,154.318C311.086,162.188,315.403,166.201,319.268,170.057C322.545,172.989,327.717,178.541,331.713,181.058C336.534,184.094,347.047,200.419,349.234,202.183C342.802,204.949,332.545,207.438,328.085,211.655C330.204,217.329,331.277,226.300,331.506,229.000C325.354,229.929,317.934,227.713,306.346,226.560C304.603,233.909,305.160,240.615,301.063,248.263C293.193,246.546,287.691,245.095,277.396,241.472C271.264,247.187,269.696,246.904,259.565,254.269C252.142,250.520,246.133,246.366,239.009,244.089C232.492,247.518,221.871,249.401,218.479,252.612C214.116,245.905,209.999,238.442,206.482,235.343C197.079,238.078,193.191,241.028,186.637,244.030C181.987,238.875,184.622,234.101,179.303,226.401C174.893,225.585,168.016,223.515,162.464,223.854C165.932,219.070,167.569,204.145,173.897,201.760C181.705,198.818,175.917,190.120,180.172,181.553C181.217,179.329,191.640,162.107,192.478,159.361C194.102,154.613,195.892,149.569,199.624,146.422C216.114,133.177,235.904,130.472,256.851,127.921Z"/>
</g>
<g id="clothes">
<path class="path-0" d="M256.883,372.682C251.743,370.629,232.097,370.522,228.627,375.098C226.364,378.279,229.729,380.043,233.115,380.324C237.049,380.651,257.813,381.277,260.569,379.669C265.014,377.005,259.055,373.442,256.883,372.682M211.891,268.598C215.825,256.253,243.651,245.464,256.474,247.459C265.412,248.823,292.627,265.010,295.968,273.648C298.771,280.561,297.836,305.256,297.494,313.598C296.586,328.881,296.437,344.247,295.994,359.551C296.234,372.286,303.460,385.935,298.507,397.670C296.283,401.460,286.758,405.481,281.967,406.124C276.404,407.142,265.165,405.584,260.084,404.445C237.681,400.061,239.426,405.273,218.040,404.265C213.979,403.918,200.811,402.442,198.313,400.467C192.736,394.904,196.225,386.515,198.108,379.168C202.098,365.869,204.050,356.595,206.336,342.047C208.727,326.153,211.793,309.156,213.090,292.593C213.224,286.626,210.955,272.178,211.891,268.598M291.842,256.223C276.292,245.317,260.932,236.116,240.878,240.271C235.477,241.189,207.984,252.070,205.421,255.213C201.411,260.217,203.640,280.580,203.089,287.826C202.768,296.445,202.357,305.395,201.020,313.602C200.177,319.872,198.377,325.393,197.882,331.356C197.001,337.955,196.543,345.135,194.904,351.126C190.326,367.405,176.492,399.452,195.512,411.824C200.160,414.871,207.120,414.798,212.969,415.289C222.933,415.934,233.589,416.908,243.710,416.354C254.644,416.059,265.419,413.207,276.478,413.712C283.078,414.015,302.647,423.666,308.088,419.295C310.950,417.100,313.040,401.227,312.934,397.152C311.871,382.735,306.627,368.774,305.781,354.342C305.412,342.364,305.442,330.608,307.102,318.389C308.246,308.436,310.682,298.920,311.475,288.602C311.474,284.236,312.527,278.948,310.520,274.429C307.133,266.132,298.833,261.117,291.842,256.223Z"/>
<path class="path-13" d="M256.883,372.682C251.743,370.629,232.097,370.522,228.627,375.098"/>
<path class="path-13" d="M228.627,375.098C226.364,378.279,229.729,380.043,233.115,380.324"/>
<path class="path-13" d="M233.115,380.324C237.049,380.651,257.813,381.277,260.569,379.669"/>
<path class="path-13" d="M260.569,379.669C265.014,377.005,259.055,373.442,256.883,372.682"/>
<path class="path-13" d="M211.891,268.598C215.825,256.253,243.651,245.464,256.474,247.459"/>
<path class="path-13" d="M256.474,247.459C265.412,248.823,292.627,265.010,295.968,273.648"/>
<path class="path-13" d="M295.968,273.648C298.771,280.561,297.836,305.256,297.494,313.598"/>
<path class="path-13" d="M297.494,313.598C296.586,328.881,296.437,344.247,295.994,359.551"/>
<path class="path-13" d="M295.994,359.551C296.234,372.286,303.460,385.935,298.507,397.670"/>
<path class="path-13" d="M298.507,397.670C296.283,401.460,286.758,405.481,281.967,406.124"/>
<path class="path-13" d="M281.967,406.124C276.404,407.142,265.165,405.584,260.084,404.445"/>
<path class="path-13" d="M260.084,404.445C237.681,400.061,239.426,405.273,218.040,404.265"/>
<path class="path-13" d="M218.040,404.265C213.979,403.918,200.811,402.442,198.313,400.467"/>
<path class="path-13" d="M198.313,400.467C192.736,394.904,196.225,386.515,198.108,379.168"/>
<path class="path-13" d="M198.108,379.168C202.098,365.869,204.050,356.595,206.336,342.047"/>
<path class="path-13" d="M206.336,342.047C208.727,326.153,211.793,309.156,213.090,292.593"/>
<path class="path-13" d="M213.090,292.593C213.224,286.626,210.955,272.178,211.891,268.598"/>
<path class="path-14" d="M256.883,372.682C251.743,370.629,232.097,370.522,228.627,375.098C226.364,378.279,229.729,380.043,233.115,380.324C237.049,380.651,257.813,381.277,260.569,379.669C265.014,377.005,259.055,373.442,256.883,372.682M211.891,268.598C215.825,256.253,243.651,245.464,256.474,247.459C265.412,248.823,292.627,265.010,295.968,273.648C298.771,280.561,297.836,305.256,297.494,313.598C296.586,328.881,296.437,344.247,295.994,359.551C296.234,372.286,303.460,385.935,298.507,397.670C296.283,401.460,286.758,405.481,281.967,406.124C276.404,407.142,265.165,405.584,260.084,404.445C237.681,400.061,239.426,405.273,218.040,404.265C213.979,403.918,200.811,402.442,198.313,400.467C192.736,394.904,196.225,386.515,198.108,379.168C202.098,365.869,204.050,356.595,206.336,342.047C208.727,326.153,211.793,309.156,213.090,292.593C213.224,286.626,210.955,272.178,211.891,268.598Z"/>
</g>
<g id="neck">
<path class="path-0" d="M248.291,228.720C248.485,225.381,249.357,222.347,252.998,221.861C264.548,219.379,265.127,256.983,254.491,257.430C244.519,257.848,247.892,235.062,248.291,228.720M252.608,212.555C249.935,212.334,246.972,213.123,244.700,214.551C235.587,219.595,237.280,228.183,237.642,236.824C237.491,241.160,237.992,245.135,236.151,248.875C234.629,252.269,230.113,255.787,230.266,259.445C231.018,269.404,257.943,268.274,264.910,267.647C267.568,267.536,276.584,268.156,277.428,264.459C277.386,263.462,270.251,252.105,269.058,247.494C265.481,233.659,273.924,212.660,252.608,212.555Z"/>
<path class="path-15" d="M252.998,221.861C264.548,219.379,265.127,256.983,254.491,257.430"/>
<path class="path-15" d="M254.491,257.430C244.519,257.848,247.892,235.062,248.291,228.720"/>
<path class="path-15" d="M248.291,228.720C248.485,225.381,249.357,222.347,252.998,221.861"/>
<path class="path-16" d="M252.998,221.861C264.548,219.379,265.127,256.983,254.491,257.430C244.519,257.848,247.892,235.062,248.291,228.720C248.485,225.381,249.357,222.347,252.998,221.861Z"/>
</g>
<g id="layer_head">
<g id="right_ear">
<path class="path-0" d="M168.135,200.709C153.727,201.833,138.042,167.528,159.410,168.588C162.951,168.763,165.941,174.673,166.582,177.298C168.905,186.779,178.412,199.910,168.135,200.709M164.719,156.917C161.365,154.980,157.268,154.372,153.743,155.980C142.935,158.956,137.395,171.884,139.505,182.952C142.007,195.341,156.055,208.854,167.619,210.916C170.672,211.477,176.984,213.469,179.848,211.875C186.418,207.668,179.445,197.527,177.371,191.768C175.289,185.568,169.540,160.928,164.719,156.917Z"/>
<path class="path-15" d="M159.410,168.588C162.951,168.763,165.941,174.673,166.582,177.298"/>
<path class="path-15" d="M166.582,177.298C168.905,186.779,178.412,199.910,168.135,200.709"/>
<path class="path-15" d="M168.135,200.709C153.727,201.833,138.042,167.528,159.410,168.588"/>
<path class="path-16" d="M159.410,168.588C162.951,168.763,165.941,174.673,166.582,177.298C168.905,186.779,178.412,199.910,168.135,200.709C153.727,201.833,138.042,167.528,159.410,168.588Z"/>
</g>
<g id="face_Mask">
<g id="face">
<path class="path-0" d="M182.241,111.708C190.574,101.136,223.235,93.475,236.844,91.281C252.118,89.062,267.786,91.163,282.824,95.602C288.171,97.189,295.856,99.068,300.561,102.664C308.613,108.868,313.818,120.075,316.821,129.369C319.193,136.111,323.439,145.151,321.686,151.674C313.760,181.173,309.890,194.769,304.143,203.070C297.028,213.347,283.918,217.329,272.488,222.120C260.696,226.867,248.679,228.657,242.431,228.387C230.059,227.854,203.357,222.037,194.144,214.577C183.314,205.469,181.978,191.420,177.512,178.624C174.906,171.840,170.607,161.655,169.171,154.681C167.080,143.647,175.381,120.330,182.241,111.708M304.466,94.931C290.677,82.906,254.368,80.628,236.774,83.528C228.470,84.639,220.494,85.414,212.871,87.516C207.236,89.260,202.280,91.991,196.978,93.731C185.395,98.225,180.563,96.856,172.891,107.734C167.378,115.350,158.998,145.169,160.130,154.343C161.099,161.214,168.631,176.398,171.144,184.075C174.397,194.208,177.003,208.786,183.648,216.613C191.028,225.056,200.969,229.413,216.180,233.346C227.567,236.291,240.151,237.203,252.263,237.278C256.911,237.592,265.505,234.814,277.884,229.376C289.850,223.939,303.034,219.278,311.134,207.823C320.718,194.269,324.333,172.338,332.216,150.140C338.813,131.563,313.053,102.257,304.466,94.931Z"/>
<path class="path-15" d="M236.844,91.281C252.118,89.062,267.786,91.163,282.824,95.602"/>
<path class="path-15" d="M282.824,95.602C288.171,97.189,295.856,99.068,300.561,102.664"/>
<path class="path-15" d="M300.561,102.664C308.613,108.868,313.818,120.075,316.821,129.369"/>
<path class="path-15" d="M316.821,129.369C319.193,136.111,323.439,145.151,321.686,151.674"/>
<path class="path-15" d="M321.686,151.674C313.760,181.173,309.890,194.769,304.143,203.070"/>
<path class="path-15" d="M304.143,203.070C297.028,213.347,283.918,217.329,272.488,222.120"/>
<path class="path-15" d="M272.488,222.120C260.696,226.867,248.679,228.657,242.431,228.387"/>
<path class="path-15" d="M242.431,228.387C230.059,227.854,203.357,222.037,194.144,214.577"/>
<path class="path-15" d="M194.144,214.577C183.314,205.469,181.978,191.420,177.512,178.624"/>
<path class="path-15" d="M177.512,178.624C174.906,171.840,170.607,161.655,169.171,154.681"/>
<path class="path-15" d="M169.171,154.681C167.080,143.647,175.381,120.330,182.241,111.708"/>
<path class="path-15" d="M182.241,111.708C190.574,101.136,223.235,93.475,236.844,91.281"/>
<path class="path-16" d="M236.844,91.281C252.118,89.062,267.786,91.163,282.824,95.602C288.171,97.189,295.856,99.068,300.561,102.664C308.613,108.868,313.818,120.075,316.821,129.369C319.193,136.111,323.439,145.151,321.686,151.674C313.760,181.173,309.890,194.769,304.143,203.070C297.028,213.347,283.918,217.329,272.488,222.120C260.696,226.867,248.679,228.657,242.431,228.387C230.059,227.854,203.357,222.037,194.144,214.577C183.314,205.469,181.978,191.420,177.512,178.624C174.906,171.840,170.607,161.655,169.171,154.681C167.080,143.647,175.381,120.330,182.241,111.708C190.574,101.136,223.235,93.475,236.844,91.281Z"/>
</g>
</g>
<mask id="mask_target" style="mask-type:alpha;">
<use xlink:href="#face_Mask"/>
</mask>
<g id="mouse">
<path class="path-0" d="M249.499,219.941C254.719,220.969,254.872,225.721,254.405,226.235C254.142,226.525,253.006,225.590,250.039,225.146C244.420,224.306,241.732,225.518,241.524,224.807C241.296,224.027,243.388,218.738,249.499,219.941Z"/>
</g>
<g id="layer_eyes_Mtarget" mask="url(#mask_target)">
<g id="eyes">
<mask style="mask-type:alpha;" id="f3906406-f197-4bf1-91d8-744c09cca836">
<use xlink:href="#cmn_f3906406-f197-4bf1-91d8-744c09cca836"/>
</mask>
<g id="cmn_f3906406-f197-4bf1-91d8-744c09cca836">
<path class="path-0" d="M226.277,180.220C228.196,192.969,219.973,201.520,207.191,198.427C199.721,196.405,196.257,190.938,193.526,184.310C191.916,180.809,184.187,164.782,189.904,166.587C194.530,168.048,225.583,175.608,226.277,180.220M232.993,183.205C233.850,181.683,235.068,179.390,234.786,177.666C234.472,175.746,232.832,172.714,230.870,172.498C225.546,171.791,206.794,165.848,200.019,163.456C193.311,161.246,179.801,153.388,175.582,160.192C173.919,162.747,177.895,163.443,179.322,167.447C185.959,186.071,192.286,203.523,212.500,204.086C230.039,204.574,228.685,190.852,232.993,183.205M275.905,192.399C268.802,192.370,259.336,187.124,259.226,176.056C259.193,172.725,272.580,167.270,278.568,163.955C284.455,160.696,295.660,154.112,298.743,154.154C302.237,154.622,300.531,157.738,300.720,167.366C300.997,181.536,288.852,192.453,275.905,192.399M306.942,173.595C309.728,161.492,309.870,145.346,307.510,144.337C302.480,142.189,289.921,151.729,282.545,155.251C272.897,159.858,257.598,169.484,250.945,171.731C249.016,172.461,247.274,173.035,247.034,174.442C246.558,177.231,251.858,178.967,253.692,181.122C256.927,184.925,258.053,191.932,263.319,194.698C273.322,200.356,280.762,198.023,291.585,192.917C299.977,188.997,304.989,182.079,306.942,173.595Z"/>
<path class="path-17" d="M298.743,154.154C302.237,154.622,300.531,157.738,300.720,167.366"/>
<path class="path-17" d="M300.720,167.366C300.997,181.536,288.852,192.453,275.905,192.399"/>
<path class="path-17" d="M275.905,192.399C268.802,192.370,259.336,187.124,259.226,176.056"/>
<path class="path-17" d="M259.226,176.056C259.193,172.725,272.580,167.270,278.568,163.955"/>
<path class="path-17" d="M278.568,163.955C284.455,160.696,295.660,154.112,298.743,154.154"/>
<path class="path-18" d="M298.743,154.154C302.237,154.622,300.531,157.738,300.720,167.366C300.997,181.536,288.852,192.453,275.905,192.399C268.802,192.370,259.336,187.124,259.226,176.056C259.193,172.725,272.580,167.270,278.568,163.955C284.455,160.696,295.660,154.112,298.743,154.154Z"/>
<path class="path-17" d="M189.904,166.587C194.530,168.048,225.583,175.608,226.277,180.220"/>
<path class="path-17" d="M226.277,180.220C228.196,192.969,219.973,201.520,207.191,198.427"/>
<path class="path-17" d="M207.191,198.427C199.721,196.405,196.257,190.938,193.526,184.310"/>
<path class="path-17" d="M193.526,184.310C191.916,180.809,184.187,164.782,189.904,166.587"/>
<path class="path-18" d="M189.904,166.587C194.530,168.048,225.583,175.608,226.277,180.220C228.196,192.969,219.973,201.520,207.191,198.427C199.721,196.405,196.257,190.938,193.526,184.310C191.916,180.809,184.187,164.782,189.904,166.587Z"/>
</g>
</g>
<g id="pupil">
<path class="path-0" d="M261.063,170.418C263.331,169.814,266.579,172.925,267.553,181.336C268.283,187.640,266.658,190.254,264.913,190.482C263.017,190.730,261.334,188.161,259.952,181.403C258.478,174.192,259.091,170.943,261.063,170.418Z" mask="url(#f3906406-f197-4bf1-91d8-744c09cca836)"/>
<path class="path-0" d="M196.723,171.524C198.730,171.299,200.364,174.331,201.441,181.779C202.346,188.036,201.827,190.794,200.174,191.177C198.614,191.538,196.479,189.659,194.989,183.881C192.913,175.826,194.504,171.773,196.723,171.524Z" mask="url(#f3906406-f197-4bf1-91d8-744c09cca836)"/>
</g>
</g>
<g id="hat">
<path class="path-0" d="M320.868,127.440C322.892,128.729,325.909,131.027,326.283,133.684C327.714,139.988,316.723,139.506,313.398,139.890C306.757,139.990,299.812,139.892,293.471,140.164C288.373,140.848,283.270,141.479,278.160,142.063C269.780,142.364,261.401,142.228,253.018,142.280C238.431,142.944,223.852,142.723,209.241,142.879C207.933,142.945,168.722,148.071,162.060,144.554C153.275,140.017,162.196,133.166,161.792,128.820C161.734,125.180,153.786,124.304,155.677,117.989C157.569,112.017,178.625,107.712,184.878,106.296C197.116,103.457,209.673,99.630,222.587,97.463C240.768,94.566,259.625,94.654,278.146,92.739C290.587,91.555,319.305,99.026,324.963,111.743C329.825,122.279,313.015,112.600,311.012,111.967C309.531,110.899,304.351,108.745,305.540,112.009C306.721,117.719,316.738,124.151,320.868,127.440M202.987,93.348C192.664,96.033,183.049,97.894,173.089,100.366C168.781,101.424,163.517,104.133,159.482,101.911C150.417,97.156,159.796,74.070,164.023,68.046C178.057,48.560,208.887,39.830,234.125,39.414C279.090,38.672,296.808,45.266,311.974,60.065C316.689,64.335,333.579,85.768,325.005,91.881C321.708,93.922,315.665,90.030,312.656,88.741C302.291,84.558,260.524,78.384,202.987,93.348M260.424,28.580C253.210,28.284,251.435,26.880,243.868,27.643C212.641,31.273,170.533,33.423,152.337,63.922C146.496,73.967,146.628,85.253,144.772,95.905C143.226,104.539,138.344,111.229,139.447,119.829C140.535,126.809,143.566,128.429,145.955,133.732C148.678,139.360,147.353,142.043,149.054,145.687C152.822,156.304,162.487,155.624,171.808,155.415C176.653,155.308,194.525,154.905,204.259,154.590C216.150,154.206,232.001,153.567,243.886,153.024C253.038,152.607,265.241,152.039,274.384,151.455C282.788,150.918,293.997,150.188,302.374,149.323C312.602,148.268,335.191,146.117,336.358,144.857C338.454,142.635,342.011,121.255,341.962,117.279C341.920,113.940,340.212,110.624,340.148,105.281C339.640,90.700,339.137,77.120,330.698,63.624C315.182,39.283,287.539,30.376,260.424,28.580Z"/>
<path class="path-19" d="M278.146,92.739C290.587,91.555,319.305,99.026,324.963,111.743"/>
<path class="path-19" d="M324.963,111.743C329.825,122.279,313.015,112.600,311.012,111.967"/>
<path class="path-19" d="M311.012,111.967C309.531,110.899,304.351,108.745,305.540,112.009"/>
<path class="path-19" d="M305.540,112.009C306.721,117.719,316.738,124.151,320.868,127.440"/>
<path class="path-19" d="M320.868,127.440C322.892,128.729,325.909,131.027,326.283,133.684"/>
<path class="path-19" d="M326.283,133.684C327.714,139.988,316.723,139.506,313.398,139.890"/>
<path class="path-19" d="M313.398,139.890C306.757,139.990,299.812,139.892,293.471,140.164"/>
<path class="path-19" d="M293.471,140.164C288.373,140.848,283.270,141.479,278.160,142.063"/>
<path class="path-19" d="M278.160,142.063C269.780,142.364,261.401,142.228,253.018,142.280"/>
<path class="path-19" d="M253.018,142.280C238.431,142.944,223.852,142.723,209.241,142.879"/>
<path class="path-19" d="M209.241,142.879C207.933,142.945,168.722,148.071,162.060,144.554"/>
<path class="path-19" d="M162.060,144.554C153.275,140.017,162.196,133.166,161.792,128.820"/>
<path class="path-19" d="M161.792,128.820C161.734,125.180,153.786,124.304,155.677,117.989"/>
<path class="path-19" d="M155.677,117.989C157.569,112.017,178.625,107.712,184.878,106.296"/>
<path class="path-19" d="M184.878,106.296C197.116,103.457,209.673,99.630,222.587,97.463"/>
<path class="path-19" d="M222.587,97.463C240.768,94.566,259.625,94.654,278.146,92.739"/>
<path class="path-20" d="M278.146,92.739C290.587,91.555,319.305,99.026,324.963,111.743C329.825,122.279,313.015,112.600,311.012,111.967C309.531,110.899,304.351,108.745,305.540,112.009C306.721,117.719,316.738,124.151,320.868,127.440C322.892,128.729,325.909,131.027,326.283,133.684C327.714,139.988,316.723,139.506,313.398,139.890C306.757,139.990,299.812,139.892,293.471,140.164C288.373,140.848,283.270,141.479,278.160,142.063C269.780,142.364,261.401,142.228,253.018,142.280C238.431,142.944,223.852,142.723,209.241,142.879C207.933,142.945,168.722,148.071,162.060,144.554C153.275,140.017,162.196,133.166,161.792,128.820C161.734,125.180,153.786,124.304,155.677,117.989C157.569,112.017,178.625,107.712,184.878,106.296C197.116,103.457,209.673,99.630,222.587,97.463C240.768,94.566,259.625,94.654,278.146,92.739Z"/>
<path class="path-9" d="M234.125,39.414C279.090,38.672,296.808,45.266,311.974,60.065"/>
<path class="path-9" d="M311.974,60.065C316.689,64.335,333.579,85.768,325.005,91.881"/>
<path class="path-9" d="M325.005,91.881C321.708,93.922,315.665,90.030,312.656,88.741"/>
<path class="path-9" d="M312.656,88.741C302.291,84.558,260.524,78.384,202.987,93.348"/>
<path class="path-9" d="M202.987,93.348C192.664,96.033,183.049,97.894,173.089,100.366"/>
<path class="path-9" d="M173.089,100.366C168.781,101.424,163.517,104.133,159.482,101.911"/>
<path class="path-9" d="M159.482,101.911C150.417,97.156,159.796,74.070,164.023,68.046"/>
<path class="path-9" d="M164.023,68.046C178.057,48.560,208.887,39.830,234.125,39.414"/>
<path class="path-10" d="M234.125,39.414C279.090,38.672,296.808,45.266,311.974,60.065C316.689,64.335,333.579,85.768,325.005,91.881C321.708,93.922,315.665,90.030,312.656,88.741C302.291,84.558,260.524,78.384,202.987,93.348C192.664,96.033,183.049,97.894,173.089,100.366C168.781,101.424,163.517,104.133,159.482,101.911C150.417,97.156,159.796,74.070,164.023,68.046C178.057,48.560,208.887,39.830,234.125,39.414Z"/>
</g>
<g id="left_ear">
<path class="path-0" d="M321.071,191.938C319.891,188.078,328.987,163.543,330.587,161.237C335.431,154.247,347.431,164.455,348.634,170.992C349.958,179.121,338.413,187.517,331.827,192.462C326.938,196.017,322.605,196.949,321.071,191.938M357.204,174.824C358.565,162.082,347.061,145.516,334.748,148.681C321.668,152.044,321.001,169.661,317.225,180.184C315.693,184.835,313.060,189.482,312.549,194.112C311.497,202.410,315.228,209.437,324.400,207.118C337.563,203.648,355.233,189.153,357.204,174.824Z"/>
<path class="path-15" d="M330.587,161.237C335.431,154.247,347.431,164.455,348.634,170.992"/>
<path class="path-15" d="M348.634,170.992C349.958,179.121,338.413,187.517,331.827,192.462"/>
<path class="path-15" d="M331.827,192.462C326.938,196.017,322.605,196.949,321.071,191.938"/>
<path class="path-15" d="M321.071,191.938C319.891,188.078,328.987,163.543,330.587,161.237"/>
<path class="path-16" d="M330.587,161.237C335.431,154.247,347.431,164.455,348.634,170.992C349.958,179.121,338.413,187.517,331.827,192.462C326.938,196.017,322.605,196.949,321.071,191.938C319.891,188.078,328.987,163.543,330.587,161.237Z"/>
</g>
<g id="earrings">
<path class="path-0" d="M342.143,209.430C333.273,212.593,331.476,192.817,335.286,193.382C340.560,195.500,344.670,205.446,342.143,209.430M350.618,201.836C343.711,200.722,341.260,192.190,341.004,188.216C348.630,190.492,357.956,196.968,350.618,201.836M358.538,196.693C356.136,189.011,345.179,183.715,337.608,181.026C335.319,180.213,330.178,188.742,329.842,191.276C328.715,195.167,327.779,217.600,341.243,215.633C346.726,214.583,360.482,202.908,358.538,196.693Z"/>
<path class="path-21" d="M341.004,188.216C348.630,190.492,357.956,196.968,350.618,201.836"/>
<path class="path-21" d="M350.618,201.836C343.711,200.722,341.260,192.190,341.004,188.216"/>
<path class="path-22" d="M341.004,188.216C348.630,190.492,357.956,196.968,350.618,201.836C343.711,200.722,341.260,192.190,341.004,188.216Z"/>
<path class="path-21" d="M335.286,193.382C340.560,195.500,344.670,205.446,342.143,209.430"/>
<path class="path-21" d="M342.143,209.430C333.273,212.593,331.476,192.817,335.286,193.382"/>
<path class="path-22" d="M335.286,193.382C340.560,195.500,344.670,205.446,342.143,209.430C333.273,212.593,331.476,192.817,335.286,193.382Z"/>
</g>
</g>
<g id="left_arm">
<path class="path-0" d="M330.556,465.760C333.837,459.616,341.110,464.478,349.140,468.252C351.657,469.411,364.108,466.760,366.091,468.744C369.697,472.007,365.500,478.977,360.984,480.559C351.020,483.547,326.049,474.422,330.556,465.760M302.707,287.442C303.104,284.151,309.985,272.852,315.129,273.219C318.115,273.431,320.240,278.175,321.620,280.662C325.476,288.495,329.495,296.612,332.961,304.872C342.405,326.791,348.584,349.438,356.521,371.523C359.563,380.749,362.947,392.564,366.545,401.028C370.185,409.318,374.347,407.654,376.799,413.201C378.052,416.229,377.872,421.811,380.084,426.369C383.419,433.541,389.256,437.263,392.133,441.789C393.921,444.369,394.419,446.485,391.102,448.167C389.076,450.065,383.381,453.016,381.145,454.095C373.410,455.582,365.410,457.382,357.623,456.242C348.722,455.323,324.087,447.279,319.598,441.425C311.673,430.709,321.470,417.834,322.403,407.102C322.897,404.099,326.101,360.421,325.232,357.561C323.997,350.928,319.270,345.702,316.737,339.077C313.739,329.954,310.623,320.192,307.842,310.631C305.680,302.625,301.228,296.402,302.707,287.442M325.224,261.961C322.236,257.696,313.771,250.548,308.043,252.745C303.303,254.798,303.528,260.819,303.457,264.866C303.282,274.983,302.534,283.504,303.955,293.046C304.654,300.006,306.259,306.157,307.882,312.643C309.825,321.468,310.665,338.905,312.166,349.100C313.263,358.612,316.357,368.302,316.251,376.584C315.588,396.046,307.640,414.759,309.212,434.079C309.675,443.848,312.321,443.711,314.983,451.415C316.936,457.315,315.895,463.696,318.485,469.236C325.171,483.909,343.094,496.721,359.886,492.601C375.364,488.875,375.232,471.895,383.117,462.531C390.054,454.211,404.863,457.511,406.466,449.108C408.132,442.036,397.795,435.088,394.230,429.701C387.582,420.292,393.666,418.123,390.741,410.791C388.619,405.371,382.563,399.921,378.662,393.374C376.144,389.803,373.133,383.428,370.918,378.839C366.558,368.853,362.919,357.049,359.628,346.169C356.183,333.877,353.403,322.992,347.958,310.711C343.636,300.625,331.058,269.500,325.224,261.961Z"/>
<path class="path-1" d="M315.129,273.219C318.115,273.431,320.240,278.175,321.620,280.662"/>
<path class="path-1" d="M321.620,280.662C325.476,288.495,329.495,296.612,332.961,304.872"/>
<path class="path-1" d="M332.961,304.872C342.405,326.791,348.584,349.438,356.521,371.523"/>
<path class="path-1" d="M356.521,371.523C359.563,380.749,362.947,392.564,366.545,401.028"/>
<path class="path-1" d="M366.545,401.028C370.185,409.318,374.347,407.654,376.799,413.201"/>
<path class="path-1" d="M376.799,413.201C378.052,416.229,377.872,421.811,380.084,426.369"/>
<path class="path-1" d="M380.084,426.369C383.419,433.541,389.256,437.263,392.133,441.789"/>
<path class="path-1" d="M392.133,441.789C393.921,444.369,394.419,446.485,391.102,448.167"/>
<path class="path-1" d="M391.102,448.167C389.076,450.065,383.381,453.016,381.145,454.095"/>
<path class="path-1" d="M381.145,454.095C373.410,455.582,365.410,457.382,357.623,456.242"/>
<path class="path-1" d="M357.623,456.242C348.722,455.323,324.087,447.279,319.598,441.425"/>
<path class="path-1" d="M319.598,441.425C311.673,430.709,321.470,417.834,322.403,407.102"/>
<path class="path-1" d="M322.403,407.102C322.897,404.099,326.101,360.421,325.232,357.561"/>
<path class="path-1" d="M325.232,357.561C323.997,350.928,319.270,345.702,316.737,339.077"/>
<path class="path-1" d="M316.737,339.077C313.739,329.954,310.623,320.192,307.842,310.631"/>
<path class="path-1" d="M307.842,310.631C305.680,302.625,301.228,296.402,302.707,287.442"/>
<path class="path-1" d="M302.707,287.442C303.104,284.151,309.985,272.852,315.129,273.219"/>
<path class="path-2" d="M315.129,273.219C318.115,273.431,320.240,278.175,321.620,280.662C325.476,288.495,329.495,296.612,332.961,304.872C342.405,326.791,348.584,349.438,356.521,371.523C359.563,380.749,362.947,392.564,366.545,401.028C370.185,409.318,374.347,407.654,376.799,413.201C378.052,416.229,377.872,421.811,380.084,426.369C383.419,433.541,389.256,437.263,392.133,441.789C393.921,444.369,394.419,446.485,391.102,448.167C389.076,450.065,383.381,453.016,381.145,454.095C373.410,455.582,365.410,457.382,357.623,456.242C348.722,455.323,324.087,447.279,319.598,441.425C311.673,430.709,321.470,417.834,322.403,407.102C322.897,404.099,326.101,360.421,325.232,357.561C323.997,350.928,319.270,345.702,316.737,339.077C313.739,329.954,310.623,320.192,307.842,310.631C305.680,302.625,301.228,296.402,302.707,287.442C303.104,284.151,309.985,272.852,315.129,273.219Z"/>
<path class="path-15" d="M349.140,468.252C351.657,469.411,364.108,466.760,366.091,468.744"/>
<path class="path-15" d="M366.091,468.744C369.697,472.007,365.500,478.977,360.984,480.559"/>
<path class="path-15" d="M360.984,480.559C351.020,483.547,326.049,474.422,330.556,465.760"/>
<path class="path-15" d="M330.556,465.760C333.837,459.616,341.110,464.478,349.140,468.252"/>
<path class="path-16" d="M349.140,468.252C351.657,469.411,364.108,466.760,366.091,468.744C369.697,472.007,365.500,478.977,360.984,480.559C351.020,483.547,326.049,474.422,330.556,465.760C333.837,459.616,341.110,464.478,349.140,468.252Z"/>
</g>
<g id="bone">
<g id="bone_B20">
<path class="path-23" d="M240.760,139.348C238.595,127.568,236.429,115.788,234.264,104.008"/>
</g>
<g id="bone_">
<path class="path-23" d="M552.381,338.786C555.032,314.951,557.683,291.116,560.333,267.281"/>
</g>
<g id="bone_">
<path class="path-23" d="M496.479,337.308C496.479,313.696,496.479,290.084,496.479,266.472"/>
</g>
<g id="bone_">
<path class="path-23" d="M436.410,337.308C458.477,328.906,480.543,320.504,502.610,312.101"/>
</g>
<g id="bone_">
<path class="path-23" d="M604.616,215.385C626.277,224.783,647.938,234.182,669.599,243.580"/>
</g>
<g id="bone_">
<path class="path-23" d="M436.410,216.411C453.809,232.373,471.208,248.336,488.607,264.299"/>
</g>
<g id="bone_">
<path class="path-23" d="M551.282,215.385C528.927,207.785,506.572,200.184,484.216,192.584"/>
</g>
<g id="bone_">
<path class="path-23" d="M495.897,216.411C495.392,240.017,494.886,263.624,494.381,287.230"/>
</g>
<g id="bone_B18">
<path class="path-23" d="M226.453,392.385C218.276,423.734,210.099,455.083,201.922,486.432"/>
</g>
<g id="bone_B17">
<path class="path-23" d="M272.608,392.385C274.774,425.690,276.941,458.994,279.108,492.299"/>
</g>
<g id="bone_B16">
<path class="path-23" d="M245.393,164.547C251.710,188.694,258.027,212.841,264.344,236.988"/>
</g>
<g id="bone_B14">
<path class="path-23" d="M151.535,377.906C159.611,395.255,167.686,412.604,175.762,429.953"/>
</g>
<g id="bone_B13">
<path class="path-23" d="M197.521,273.923C182.193,308.584,166.864,343.245,151.535,377.906"/>
</g>
<g id="bone_B11">
<path class="path-23" d="M339.704,355.025C343.123,376.769,346.542,398.513,349.961,420.257"/>
</g>
<g id="bone_B9">
<path class="path-23" d="M311.041,267.005C320.596,296.345,330.150,325.685,339.704,355.025"/>
</g>
<g id="bone_B5">
<path class="path-23" d="M255.242,218.120C250.414,191.863,245.587,165.605,240.760,139.348"/>
</g>
<g id="bone_B4">
<path class="path-23" d="M254.956,260.220C255.051,246.187,255.146,232.154,255.242,218.120"/>
</g>
<g id="bone_B3">
<path class="path-23" d="M255.290,333.221C255.178,308.887,255.067,284.554,254.956,260.220"/>
</g>
<g id="bone_B2">
<path class="path-23" d="M249.017,392.385C251.108,372.664,253.199,352.942,255.290,333.221"/>
</g>
<g id="bone_B1">
<path class="path-23" d="M249.017,392.385C260.994,392.385,272.971,392.385,284.948,392.385"/>
</g>
</g>
<g id="jacket">
<path class="path-0" d="M222.886,274.088C224.877,278.778,219.885,288.469,219.085,293.073C213.902,310.492,206.781,327.174,206.673,344.926C206.780,349.422,208.366,358.679,204.525,362.228C202.160,364.413,195.521,361.596,193.869,363.502C191.350,366.376,186.469,357.446,185.460,355.450C184.585,353.718,183.916,346.559,183.989,344.441C184.446,339.745,185.787,330.599,187.491,324.896C189.294,319.028,191.708,313.194,194.589,307.068C196.876,300.990,198.947,293.509,200.549,286.444C202.453,282.185,205.160,279.897,205.208,276.600C204.899,272.627,204.430,270.553,208.110,269.532C212.538,268.636,222.092,268.947,222.886,274.088M283.269,282.827C285.024,281.001,302.880,273.109,304.895,271.827C315.687,265.660,324.028,275.185,324.495,282.486C324.958,288.491,316.612,308.360,315.396,312.509C313.942,316.576,312.280,319.497,312.016,323.193C309.976,340.138,314.797,329.389,317.947,343.420C318.702,346.834,319.880,354.121,319.813,357.547C319.490,361.615,317.631,370.618,315.632,373.881C313.603,376.622,309.150,380.676,305.499,377.248C304.917,376.821,300.863,370.695,299.814,370.037C293.685,365.710,284.456,366.628,279.750,360.082C276.380,354.815,274.993,347.694,273.823,341.096C272.245,332.973,273.378,324.687,274.388,316.440C275.144,306.940,277.117,290.749,283.269,282.827M298.233,264.511C295.244,266.499,288.830,267.947,286.907,268.368C281.789,269.205,281.299,264.281,281.145,260.643C281.113,255.963,284.426,249.410,287.829,245.973C290.599,243.175,295.313,240.247,299.635,240.237C304.254,240.061,311.733,244.511,310.708,249.670C310.293,252.768,303.076,261.290,298.233,264.511M223.093,243.639C227.666,251.249,232.814,258.983,227.816,259.915C222.681,260.874,219.838,260.491,211.257,258.284C200.220,255.446,196.533,239.859,202.107,234.716C207.136,230.077,217.750,234.747,223.093,243.639M317.701,389.562C324.732,379.779,331.484,373.462,333.448,361.037C334.384,354.714,333.995,346.990,331.608,341.095C327.433,331.504,321.917,329.209,319.220,317.684C316.815,308.152,321.048,300.288,321.429,290.862C321.423,287.720,315.727,272.345,316.176,269.514C316.202,264.900,321.181,261.630,322.079,257.479C323.026,253.689,324.164,249.686,323.609,245.819C323.125,240.170,318.008,236.529,314.025,233.309C308.364,229.261,303.020,228.320,295.928,228.903C286.437,229.695,281.088,238.492,277.223,244.749C271.628,253.805,272.171,269.070,269.685,279.420C268.278,285.276,266.077,293.367,264.618,298.845C259.654,316.370,256.949,358.586,268.768,372.602C270.265,374.629,282.698,383.546,286.800,385.975C292.467,389.371,293.435,393.482,299.226,396.261C302.301,397.886,309.306,395.147,313.270,393.116C314.737,392.424,317.008,390.526,317.701,389.562M231.618,237.020C227.111,230.590,219.417,219.602,211.408,220.386C206.590,221.015,199.456,223.228,195.569,226.524C192.344,229.258,188.488,234.289,188.243,238.564C187.795,244.181,188.271,250.890,190.234,255.668C192.188,260.422,199.636,264.229,200.788,269.165C201.234,271.346,197.316,281.698,196.797,284.408C195.540,292.132,192.846,299.889,190.077,306.119C187.237,312.507,180.886,319.706,178.158,326.142C175.350,332.764,172.215,341.450,171.896,349.285C171.518,353.273,173.614,362.247,176.203,367.096C177.901,370.274,181.980,375.090,184.152,376.101C185.601,376.776,200.701,380.948,206.072,377.141C212.859,372.330,213.151,363.933,212.995,350.291C212.718,336.786,221.952,326.338,225.463,313.134C228.008,303.163,235.682,279.899,236.385,270.960C236.841,265.162,238.842,261.357,237.765,253.240C237.102,249.176,234.605,241.281,231.618,237.020Z"/>
<path class="path-1" d="M304.895,271.827C315.687,265.660,324.028,275.185,324.495,282.486"/>
<path class="path-1" d="M324.495,282.486C324.958,288.491,316.612,308.360,315.396,312.509"/>
<path class="path-1" d="M315.396,312.509C313.942,316.576,312.280,319.497,312.016,323.193"/>
<path class="path-1" d="M312.016,323.193C309.976,340.138,314.797,329.389,317.947,343.420"/>
<path class="path-1" d="M317.947,343.420C318.702,346.834,319.880,354.121,319.813,357.547"/>
<path class="path-1" d="M319.813,357.547C319.490,361.615,317.631,370.618,315.632,373.881"/>
<path class="path-1" d="M315.632,373.881C313.603,376.622,309.150,380.676,305.499,377.248"/>
<path class="path-1" d="M305.499,377.248C304.917,376.821,300.863,370.695,299.814,370.037"/>
<path class="path-1" d="M299.814,370.037C293.685,365.710,284.456,366.628,279.750,360.082"/>
<path class="path-1" d="M279.750,360.082C276.380,354.815,274.993,347.694,273.823,341.096"/>
<path class="path-1" d="M273.823,341.096C272.245,332.973,273.378,324.687,274.388,316.440"/>
<path class="path-1" d="M274.388,316.440C275.144,306.940,277.117,290.749,283.269,282.827"/>
<path class="path-1" d="M283.269,282.827C285.024,281.001,302.880,273.109,304.895,271.827"/>
<path class="path-2" d="M304.895,271.827C315.687,265.660,324.028,275.185,324.495,282.486C324.958,288.491,316.612,308.360,315.396,312.509C313.942,316.576,312.280,319.497,312.016,323.193C309.976,340.138,314.797,329.389,317.947,343.420C318.702,346.834,319.880,354.121,319.813,357.547C319.490,361.615,317.631,370.618,315.632,373.881C313.603,376.622,309.150,380.676,305.499,377.248C304.917,376.821,300.863,370.695,299.814,370.037C293.685,365.710,284.456,366.628,279.750,360.082C276.380,354.815,274.993,347.694,273.823,341.096C272.245,332.973,273.378,324.687,274.388,316.440C275.144,306.940,277.117,290.749,283.269,282.827C285.024,281.001,302.880,273.109,304.895,271.827Z"/>
<path class="path-1" d="M208.110,269.532C212.538,268.636,222.092,268.947,222.886,274.088"/>
<path class="path-1" d="M222.886,274.088C224.877,278.778,219.885,288.469,219.085,293.073"/>
<path class="path-1" d="M219.085,293.073C213.902,310.492,206.781,327.174,206.673,344.926"/>
<path class="path-1" d="M206.673,344.926C206.780,349.422,208.366,358.679,204.525,362.228"/>
<path class="path-1" d="M204.525,362.228C202.160,364.413,195.521,361.596,193.869,363.502"/>
<path class="path-1" d="M193.869,363.502C191.350,366.376,186.469,357.446,185.460,355.450"/>
<path class="path-1" d="M185.460,355.450C184.585,353.718,183.916,346.559,183.989,344.441"/>
<path class="path-1" d="M183.989,344.441C184.446,339.745,185.787,330.599,187.491,324.896"/>
<path class="path-1" d="M187.491,324.896C189.294,319.028,191.708,313.194,194.589,307.068"/>
<path class="path-1" d="M194.589,307.068C196.876,300.990,198.947,293.509,200.549,286.444"/>
<path class="path-1" d="M200.549,286.444C202.453,282.185,205.160,279.897,205.208,276.600"/>
<path class="path-1" d="M205.208,276.600C204.899,272.627,204.430,270.553,208.110,269.532"/>
<path class="path-2" d="M208.110,269.532C212.538,268.636,222.092,268.947,222.886,274.088C224.877,278.778,219.885,288.469,219.085,293.073C213.902,310.492,206.781,327.174,206.673,344.926C206.780,349.422,208.366,358.679,204.525,362.228C202.160,364.413,195.521,361.596,193.869,363.502C191.350,366.376,186.469,357.446,185.460,355.450C184.585,353.718,183.916,346.559,183.989,344.441C184.446,339.745,185.787,330.599,187.491,324.896C189.294,319.028,191.708,313.194,194.589,307.068C196.876,300.990,198.947,293.509,200.549,286.444C202.453,282.185,205.160,279.897,205.208,276.600C204.899,272.627,204.430,270.553,208.110,269.532Z"/>
<path class="path-1" d="M299.635,240.237C304.254,240.061,311.733,244.511,310.708,249.670"/>
<path class="path-1" d="M310.708,249.670C310.293,252.768,303.076,261.290,298.233,264.511"/>
<path class="path-1" d="M298.233,264.511C295.244,266.499,288.830,267.947,286.907,268.368"/>
<path class="path-1" d="M286.907,268.368C281.789,269.205,281.299,264.281,281.145,260.643"/>
<path class="path-1" d="M281.145,260.643C281.113,255.963,284.426,249.410,287.829,245.973"/>
<path class="path-1" d="M287.829,245.973C290.599,243.175,295.313,240.247,299.635,240.237"/>
<path class="path-2" d="M299.635,240.237C304.254,240.061,311.733,244.511,310.708,249.670C310.293,252.768,303.076,261.290,298.233,264.511C295.244,266.499,288.830,267.947,286.907,268.368C281.789,269.205,281.299,264.281,281.145,260.643C281.113,255.963,284.426,249.410,287.829,245.973C290.599,243.175,295.313,240.247,299.635,240.237Z"/>
<path class="path-1" d="M223.093,243.639C227.666,251.249,232.814,258.983,227.816,259.915"/>
<path class="path-1" d="M227.816,259.915C222.681,260.874,219.838,260.491,211.257,258.284"/>
<path class="path-1" d="M211.257,258.284C200.220,255.446,196.533,239.859,202.107,234.716"/>
<path class="path-1" d="M202.107,234.716C207.136,230.077,217.750,234.747,223.093,243.639"/>
<path class="path-2" d="M223.093,243.639C227.666,251.249,232.814,258.983,227.816,259.915C222.681,260.874,219.838,260.491,211.257,258.284C200.220,255.446,196.533,239.859,202.107,234.716C207.136,230.077,217.750,234.747,223.093,243.639Z"/>
</g>
</g>
<style>
.path-0{fill:#000000;fill-rule:evenodd;stroke:none;}
.path-1{fill:none;stroke:#a60d3f;stroke-width:1;stroke-linecap:butt;stroke-linejoin:round;}
.path-2{fill:#a60d3f;fill-rule:evenodd;stroke:none;}
.path-3{fill:none;stroke:#d88e4b;stroke-width:1;stroke-linecap:butt;stroke-linejoin:round;}
.path-4{fill:#d88e4b;fill-rule:evenodd;stroke:none;}
.path-5{fill:none;stroke:#6e2353;stroke-width:1;stroke-linecap:butt;stroke-linejoin:round;}
.path-6{fill:#6e2353;fill-rule:evenodd;stroke:none;}
.path-7{fill:none;stroke:#392966;stroke-width:1;stroke-linecap:butt;stroke-linejoin:round;}
.path-8{fill:#392966;fill-rule:evenodd;stroke:none;}
.path-9{fill:none;stroke:#cc9bc5;stroke-width:1;stroke-linecap:butt;stroke-linejoin:round;}
.path-10{fill:#cc9bc5;fill-rule:evenodd;stroke:none;}
.path-11{fill:none;stroke:#620527;stroke-width:1;stroke-linecap:butt;stroke-linejoin:round;}
.path-12{fill:#620527;fill-rule:evenodd;stroke:none;}
.path-13{fill:none;stroke:#6a3661;stroke-width:1;stroke-linecap:butt;stroke-linejoin:round;}
.path-14{fill:#6a3661;fill-rule:evenodd;stroke:none;}
.path-15{fill:none;stroke:#f8a087;stroke-width:1;stroke-linecap:butt;stroke-linejoin:round;}
.path-16{fill:#f8a087;fill-rule:evenodd;stroke:none;}
.path-17{fill:none;stroke:#ffffff;stroke-width:1;stroke-linecap:butt;stroke-linejoin:round;}
.path-18{fill:#ffffff;fill-rule:evenodd;stroke:none;}
.path-19{fill:none;stroke:#d89f4a;stroke-width:1;stroke-linecap:butt;stroke-linejoin:round;}
.path-20{fill:#d89f4a;fill-rule:evenodd;stroke:none;}
.path-21{fill:none;stroke:#fafd5b;stroke-width:1;stroke-linecap:butt;stroke-linejoin:round;}
.path-22{fill:#fafd5b;fill-rule:evenodd;stroke:none;}
.path-23{fill:none;stroke:#00ff00;stroke-width:8;stroke-linecap:round;stroke-linejoin:round;}
.path-24{fill:none;stroke:#000000;stroke-width:1;stroke-linecap:butt;stroke-linejoin:round;}
</style>
</svg>
