<svg version="1.1" id="Frame_195" xmlns="http://www.w3.org/2000/svg" xmlns:xlink="http://www.w3.org/1999/xlink" width="480px" height="720px">
<g id="main_bone">
<g id="right_arm">
<path class="path-0" d="M181.076,269.625C182.703,267.074,185.897,261.803,189.783,260.625C196.324,258.641,201.335,264.847,201.694,269.427C202.629,277.450,196.025,287.682,192.826,295.271C184.994,313.539,176.633,331.582,171.246,350.169C170.558,353.426,165.365,374.546,165.424,371.898C164.946,378.515,171.453,384.291,173.668,389.965C176.500,397.617,173.596,404.788,171.660,411.739C167.204,426.071,167.609,431.368,167.845,445.361C167.986,447.577,168.373,454.796,164.902,455.188C161.490,455.574,160.492,449.428,159.595,447.093C159.023,444.460,156.227,438.957,156.763,436.584C156.867,432.612,161.432,433.550,156.365,425.370C149.896,415.142,138.566,406.521,135.798,393.158C133.990,382.516,139.717,373.297,143.057,363.465C150.167,342.339,158.042,321.238,167.150,300.561C172.102,289.840,174.539,280.441,181.076,269.625M201.653,263.145C202.437,254.638,200.014,246.978,189.216,249.628C171.830,253.830,164.077,279.665,158.137,294.131C149.800,313.670,142.823,333.452,136.322,353.365C133.659,361.895,130.398,366.183,128.964,371.132C127.187,376.731,127.322,385.360,127.556,391.001C127.247,408.655,132.571,409.605,139.778,423.154C143.602,431.165,139.896,436.305,142.629,443.227C144.630,447.989,148.653,451.240,151.802,455.138C154.596,459.053,155.339,461.337,157.453,464.945C160.014,469.256,167.608,478.937,173.265,476.136C177.501,474.021,176.506,466.122,176.428,462.287C176.151,456.530,177.555,434.205,178.557,427.444C180.386,416.232,186.404,404.255,184.914,392.127C183.707,382.854,175.590,376.072,176.163,366.165C176.621,360.888,180.099,352.379,181.359,346.483C183.425,337.062,184.028,326.901,186.815,317.268C191.573,300.128,200.647,281.270,201.653,263.145Z"/>
<path class="path-1" d="M189.783,260.625C196.324,258.641,201.335,264.847,201.694,269.427"/>
<path class="path-1" d="M201.694,269.427C202.629,277.450,196.025,287.682,192.826,295.271"/>
<path class="path-1" d="M192.826,295.271C184.994,313.539,176.633,331.582,171.246,350.169"/>
<path class="path-1" d="M171.246,350.169C170.558,353.426,165.365,374.546,165.424,371.898"/>
<path class="path-1" d="M165.424,371.898C164.946,378.515,171.453,384.291,173.668,389.965"/>
<path class="path-1" d="M173.668,389.965C176.500,397.617,173.596,404.788,171.660,411.739"/>
<path class="path-1" d="M171.660,411.739C167.204,426.071,167.609,431.368,167.845,445.361"/>
<path class="path-1" d="M167.845,445.361C167.986,447.577,168.373,454.796,164.902,455.188"/>
<path class="path-1" d="M164.902,455.188C161.490,455.574,160.492,449.428,159.595,447.093"/>
<path class="path-1" d="M159.595,447.093C159.023,444.460,156.227,438.957,156.763,436.584"/>
<path class="path-1" d="M156.763,436.584C156.867,432.612,161.432,433.550,156.365,425.370"/>
<path class="path-1" d="M156.365,425.370C149.896,415.142,138.566,406.521,135.798,393.158"/>
<path class="path-1" d="M135.798,393.158C133.990,382.516,139.717,373.297,143.057,363.465"/>
<path class="path-1" d="M143.057,363.465C150.167,342.339,158.042,321.238,167.150,300.561"/>
<path class="path-1" d="M167.150,300.561C172.102,289.840,174.539,280.441,181.076,269.625"/>
<path class="path-1" d="M181.076,269.625C182.703,267.074,185.897,261.803,189.783,260.625"/>
<path class="path-2" d="M189.783,260.625C196.324,258.641,201.335,264.847,201.694,269.427C202.629,277.450,196.025,287.682,192.826,295.271C184.994,313.539,176.633,331.582,171.246,350.169C170.558,353.426,165.365,374.546,165.424,371.898C164.946,378.515,171.453,384.291,173.668,389.965C176.500,397.617,173.596,404.788,171.660,411.739C167.204,426.071,167.609,431.368,167.845,445.361C167.986,447.577,168.373,454.796,164.902,455.188C161.490,455.574,160.492,449.428,159.595,447.093C159.023,444.460,156.227,438.957,156.763,436.584C156.867,432.612,161.432,433.550,156.365,425.370C149.896,415.142,138.566,406.521,135.798,393.158C133.990,382.516,139.717,373.297,143.057,363.465C150.167,342.339,158.042,321.238,167.150,300.561C172.102,289.840,174.539,280.441,181.076,269.625C182.703,267.074,185.897,261.803,189.783,260.625Z"/>
</g>
<g id="layer_left_leg">
<g id="left_heel">
<path class="path-0" d="M328.643,624.791C318.131,615.649,325.268,592.165,335.277,586.460C350.419,577.600,370.575,599.362,370.519,606.085C370.123,616.246,355.131,621.648,347.174,624.341C342.735,625.675,332.048,627.881,328.643,624.791M361.459,576.931C349.239,570.399,328.746,578.847,320.365,588.009C301.786,607.502,310.551,651.166,343.418,639.034C354.237,635.104,377.540,625.002,381.612,615.624C385.391,608.260,380.582,599.797,376.459,593.048C372.750,587.690,367.257,580.137,361.459,576.931Z"/>
<path class="path-3" d="M335.277,586.460C350.419,577.600,370.575,599.362,370.519,606.085"/>
<path class="path-3" d="M370.519,606.085C370.123,616.246,355.131,621.648,347.174,624.341"/>
<path class="path-3" d="M347.174,624.341C342.735,625.675,332.048,627.881,328.643,624.791"/>
<path class="path-3" d="M328.643,624.791C318.131,615.649,325.268,592.165,335.277,586.460"/>
<path class="path-4" d="M335.277,586.460C350.419,577.600,370.575,599.362,370.519,606.085C370.123,616.246,355.131,621.648,347.174,624.341C342.735,625.675,332.048,627.881,328.643,624.791C318.131,615.649,325.268,592.165,335.277,586.460Z"/>
</g>
<g id="left_leg">
<path class="path-0" d="M242.900,415.399C243.032,410.316,253.239,410.976,256.870,409.606C262.361,407.846,274.087,402.026,279.713,404.049C290.284,407.454,302.559,436.404,306.407,446.632C317.147,477.758,328.468,506.541,338.699,536.646C340.505,542.392,342.459,548.298,344.068,553.979C345.631,558.756,345.058,566.161,349.289,568.102C351.475,569.608,355.325,565.100,356.546,567.268C360.265,574.908,350.689,573.681,348.280,579.091C343.622,588.741,332.005,599.384,322.402,599.792C315.980,600.287,303.549,596.685,299.316,591.680C295.433,587.089,291.845,581.144,289.059,575.923C275.462,550.444,274.014,493.810,255.853,461.048C246.710,444.553,252.900,439.762,257.509,425.670C258.328,423.169,246.804,428.850,244.546,427.408C241.718,425.901,242.650,418.545,242.900,415.399M283.854,392.894C276.362,390.147,260.518,397.379,253.753,400.080C249.919,401.594,236.684,402.788,234.440,405.600C221.441,421.890,240.355,458.378,247.823,474.208C249.703,478.959,256.870,502.256,258.764,508.864C268.020,535.379,269.414,560.170,279.929,586.215C282.609,593.104,284.625,600.109,289.155,605.794C301.641,621.245,318.341,619.180,338.933,611.397C349.658,607.350,372.289,594.314,373.888,570.520C374.497,561.426,366.104,551.811,364.084,549.460C360.562,545.361,356.084,541.680,353.238,536.614C343.441,520.456,343.914,499.952,336.808,482.306C327.716,459.672,307.510,401.626,283.854,392.894Z"/>
<path class="path-7" d="M256.870,409.606C262.361,407.846,274.087,402.026,279.713,404.049"/>
<path class="path-7" d="M279.713,404.049C290.284,407.454,302.559,436.404,306.407,446.632"/>
<path class="path-7" d="M306.407,446.632C317.147,477.758,328.468,506.541,338.699,536.646"/>
<path class="path-7" d="M338.699,536.646C340.505,542.392,342.459,548.298,344.068,553.979"/>
<path class="path-7" d="M344.068,553.979C345.631,558.756,345.058,566.161,349.289,568.102"/>
<path class="path-7" d="M349.289,568.102C351.475,569.608,355.325,565.100,356.546,567.268"/>
<path class="path-7" d="M356.546,567.268C360.265,574.908,350.689,573.681,348.280,579.091"/>
<path class="path-7" d="M348.280,579.091C343.622,588.741,332.005,599.384,322.402,599.792"/>
<path class="path-7" d="M322.402,599.792C315.980,600.287,303.549,596.685,299.316,591.680"/>
<path class="path-7" d="M299.316,591.680C295.433,587.089,291.845,581.144,289.059,575.923"/>
<path class="path-7" d="M289.059,575.923C275.462,550.444,274.014,493.810,255.853,461.048"/>
<path class="path-7" d="M255.853,461.048C246.710,444.553,252.900,439.762,257.509,425.670"/>
<path class="path-7" d="M257.509,425.670C258.328,423.169,246.804,428.850,244.546,427.408"/>
<path class="path-7" d="M244.546,427.408C241.718,425.901,242.650,418.545,242.900,415.399"/>
<path class="path-7" d="M242.900,415.399C243.032,410.316,253.239,410.976,256.870,409.606"/>
<path class="path-8" d="M256.870,409.606C262.361,407.846,274.087,402.026,279.713,404.049C290.284,407.454,302.559,436.404,306.407,446.632C317.147,477.758,328.468,506.541,338.699,536.646C340.505,542.392,342.459,548.298,344.068,553.979C345.631,558.756,345.058,566.161,349.289,568.102C351.475,569.608,355.325,565.100,356.546,567.268C360.265,574.908,350.689,573.681,348.280,579.091C343.622,588.741,332.005,599.384,322.402,599.792C315.980,600.287,303.549,596.685,299.316,591.680C295.433,587.089,291.845,581.144,289.059,575.923C275.462,550.444,274.014,493.810,255.853,461.048C246.710,444.553,252.900,439.762,257.509,425.670C258.328,423.169,246.804,428.850,244.546,427.408C241.718,425.901,242.650,418.545,242.900,415.399C243.032,410.316,253.239,410.976,256.870,409.606Z"/>
</g>
<g id="left_toe">
<path class="path-0" d="M336.848,657.428C309.777,661.059,303.470,625.267,320.895,612.137C338.172,599.306,359.598,605.614,369.311,616.487C374.711,621.797,378.567,628.088,377.510,635.732C374.378,649.808,349.328,655.664,336.848,657.428M382.015,605.706C374.561,593.712,359.762,584.939,348.153,584.703C318.750,584.239,299.109,599.764,298.685,626.967C297.931,642.640,305.916,657.456,318.748,666.370C328.853,672.938,354.255,666.172,364.558,661.721C373.355,657.150,384.120,650.725,387.741,640.427C390.487,632.968,386.133,612.452,382.015,605.706Z"/>
<path class="path-3" d="M320.895,612.137C338.172,599.306,359.598,605.614,369.311,616.487"/>
<path class="path-3" d="M369.311,616.487C374.711,621.797,378.567,628.088,377.510,635.732"/>
<path class="path-3" d="M377.510,635.732C374.378,649.808,349.328,655.664,336.848,657.428"/>
<path class="path-3" d="M336.848,657.428C309.777,661.059,303.470,625.267,320.895,612.137"/>
<path class="path-4" d="M320.895,612.137C338.172,599.306,359.598,605.614,369.311,616.487C374.711,621.797,378.567,628.088,377.510,635.732C374.378,649.808,349.328,655.664,336.848,657.428C309.777,661.059,303.470,625.267,320.895,612.137Z"/>
</g>
<g id="left_sole">
<path class="path-0" d="M344.856,671.068C334.440,674.309,326.985,661.200,326.910,667.045C326.863,670.721,336.983,670.722,341.252,670.581C350.815,670.637,364.487,664.748,371.377,657.749C373.775,655.685,381.621,649.812,381.771,650.026C384.168,653.448,372.789,658.410,369.217,660.063C366.419,661.735,345.618,670.634,344.856,671.068M327.163,666.727C331.527,663.347,342.969,664.599,347.140,664.670C363.702,664.950,371.000,653.367,378.260,649.315C378.895,648.971,379.693,646.629,381.640,647.748C388.029,651.418,358.547,669.249,344.409,669.112C336.905,669.818,325.377,668.111,327.163,666.727M383.478,639.175C379.705,637.810,366.318,651.331,350.841,656.775C342.854,659.615,318.747,653.269,316.367,664.508C315.858,666.942,319.096,674.150,321.276,675.216C335.807,682.645,383.772,662.626,388.172,655.899C389.599,653.717,389.244,641.262,383.478,639.175Z"/>
<path class="path-5" d="M326.910,667.045C326.863,670.721,336.983,670.722,341.252,670.581"/>
<path class="path-5" d="M341.252,670.581C350.815,670.637,364.487,664.748,371.377,657.749"/>
<path class="path-5" d="M371.377,657.749C373.775,655.685,381.621,649.812,381.771,650.026"/>
<path class="path-5" d="M381.771,650.026C384.168,653.448,372.789,658.410,369.217,660.063"/>
<path class="path-5" d="M369.217,660.063C366.419,661.735,345.618,670.634,344.856,671.068"/>
<path class="path-5" d="M344.856,671.068C334.440,674.309,326.985,661.200,326.910,667.045"/>
<path class="path-6" d="M326.910,667.045C326.863,670.721,336.983,670.722,341.252,670.581C350.815,670.637,364.487,664.748,371.377,657.749C373.775,655.685,381.621,649.812,381.771,650.026C384.168,653.448,372.789,658.410,369.217,660.063C366.419,661.735,345.618,670.634,344.856,671.068C334.440,674.309,326.985,661.200,326.910,667.045Z"/>
<path class="path-5" d="M347.140,664.670C363.702,664.950,371.000,653.367,378.260,649.315"/>
<path class="path-5" d="M378.260,649.315C378.895,648.971,379.693,646.629,381.640,647.748"/>
<path class="path-5" d="M381.640,647.748C388.029,651.418,358.547,669.249,344.409,669.112"/>
<path class="path-5" d="M344.409,669.112C336.905,669.818,325.377,668.111,327.163,666.727"/>
<path class="path-5" d="M327.163,666.727C331.527,663.347,342.969,664.599,347.140,664.670"/>
<path class="path-6" d="M347.140,664.670C363.702,664.950,371.000,653.367,378.260,649.315C378.895,648.971,379.693,646.629,381.640,647.748C388.029,651.418,358.547,669.249,344.409,669.112C336.905,669.818,325.377,668.111,327.163,666.727C331.527,663.347,342.969,664.599,347.140,664.670Z"/>
</g>
</g>
<g id="layer_right_leg">
<g id="right_heel">
<path class="path-0" d="M194.218,621.752C194.086,605.527,194.454,592.895,214.254,588.880C223.064,586.930,240.182,588.739,245.596,596.957C248.430,601.035,248.011,607.285,248.533,611.787C249.449,619.120,254.874,633.052,244.485,635.391C243.822,635.608,225.253,637.024,219.460,637.516C212.107,638.826,204.430,639.837,198.760,635.080C195.804,632.055,194.173,625.570,194.218,621.752M255.006,594.710C250.461,584.663,235.829,579.662,225.853,581.693C212.830,584.184,199.129,580.692,191.325,593.333C185.243,603.186,185.555,620.626,188.230,631.547C189.295,636.596,193.112,645.697,197.566,648.268C200.826,650.058,205.642,649.207,209.353,648.994C227.447,648.241,260.081,652.400,258.073,625.771C257.479,618.886,257.397,600.046,255.006,594.710Z"/>
<path class="path-3" d="M214.254,588.880C223.064,586.930,240.182,588.739,245.596,596.957"/>
<path class="path-3" d="M245.596,596.957C248.430,601.035,248.011,607.285,248.533,611.787"/>
<path class="path-3" d="M248.533,611.787C249.449,619.120,254.874,633.052,244.485,635.391"/>
<path class="path-3" d="M244.485,635.391C243.822,635.608,225.253,637.024,219.460,637.516"/>
<path class="path-3" d="M219.460,637.516C212.107,638.826,204.430,639.837,198.760,635.080"/>
<path class="path-3" d="M198.760,635.080C195.804,632.055,194.173,625.570,194.218,621.752"/>
<path class="path-3" d="M194.218,621.752C194.086,605.527,194.454,592.895,214.254,588.880"/>
<path class="path-4" d="M214.254,588.880C223.064,586.930,240.182,588.739,245.596,596.957C248.430,601.035,248.011,607.285,248.533,611.787C249.449,619.120,254.874,633.052,244.485,635.391C243.822,635.608,225.253,637.024,219.460,637.516C212.107,638.826,204.430,639.837,198.760,635.080C195.804,632.055,194.173,625.570,194.218,621.752C194.086,605.527,194.454,592.895,214.254,588.880Z"/>
</g>
<g id="right_leg">
<path class="path-0" d="M180.722,409.055C183.666,397.114,199.169,393.405,209.857,395.682C215.771,396.817,225.686,399.071,229.200,404.319C230.704,406.565,231.504,410.858,230.227,413.232C227.984,417.402,212.626,415.476,215.538,419.329C220.629,426.282,230.255,416.422,234.742,420.006C236.737,421.600,237.123,425.066,237.678,427.943C242.990,449.414,237.389,472.937,238.496,494.347C238.784,501.270,237.727,511.561,239.298,517.795C242.628,533.195,240.907,536.565,241.802,545.870C241.915,549.349,241.108,567.066,242.522,571.527C244.109,576.208,247.801,580.587,248.524,585.495C249.745,593.774,237.944,605.302,230.480,607.911C221.942,610.708,195.210,610.300,186.882,606.330C183.667,604.910,179.638,601.279,178.208,597.828C176.670,594.618,174.275,579.315,175.140,575.560C176.910,569.026,179.361,567.592,181.073,559.855C182.765,550.746,184.392,540.897,183.444,531.462C181.217,513.019,180.547,483.368,182.011,470.004C182.647,462.475,179.580,437.403,180.252,430.429C181.470,418.900,179.349,416.796,180.722,409.055M204.431,384.357C198.665,382.717,194.010,377.682,188.169,380.036C186.393,380.928,183.345,383.362,182.130,384.738C167.019,399.251,169.072,412.821,170.217,432.140C170.335,439.075,170.827,446.267,170.548,452.927C170.203,458.467,168.617,463.073,167.562,468.187C166.980,472.385,166.542,476.872,166.600,482.112C166.786,487.264,168.478,493.237,169.062,501.974C169.005,511.760,170.213,520.936,170.271,530.290C170.525,536.662,168.210,551.563,167.585,556.452C165.699,563.420,162.925,571.515,161.677,578.219C160.554,587.076,162.454,596.302,166.336,603.855C168.157,607.914,171.331,612.699,174.653,615.278C176.820,616.959,179.649,617.848,182.171,618.558C190.500,620.856,198.335,621.731,207.055,621.500C212.929,621.388,218.617,619.412,224.725,619.597C225.738,619.474,234.077,620.896,235.723,620.937C238.680,620.842,242.692,618.019,245.293,616.305C248.736,613.759,255.024,612.712,257.690,609.228C259.845,606.406,260.274,602.622,261.263,599.221C266.790,579.169,260.512,568.640,256.975,550.812C255.008,540.898,251.439,520.476,250.938,509.302C250.051,495.781,251.951,482.554,251.935,468.586C252.019,464.184,252.101,458.904,252.575,453.906C252.959,448.901,251.664,444.936,251.165,440.016C250.550,436.228,250.105,423.997,249.273,419.939C248.677,416.311,248.438,411.754,246.888,408.223C242.671,399.247,228.099,389.890,218.619,387.480C213.870,386.109,208.869,386.073,204.431,384.357Z"/>
<path class="path-7" d="M209.857,395.682C215.771,396.817,225.686,399.071,229.200,404.319"/>
<path class="path-7" d="M229.200,404.319C230.704,406.565,231.504,410.858,230.227,413.232"/>
<path class="path-7" d="M230.227,413.232C227.984,417.402,212.626,415.476,215.538,419.329"/>
<path class="path-7" d="M215.538,419.329C220.629,426.282,230.255,416.422,234.742,420.006"/>
<path class="path-7" d="M234.742,420.006C236.737,421.600,237.123,425.066,237.678,427.943"/>
<path class="path-7" d="M237.678,427.943C242.990,449.414,237.389,472.937,238.496,494.347"/>
<path class="path-7" d="M238.496,494.347C238.784,501.270,237.727,511.561,239.298,517.795"/>
<path class="path-7" d="M239.298,517.795C242.628,533.195,240.907,536.565,241.802,545.870"/>
<path class="path-7" d="M241.802,545.870C241.915,549.349,241.108,567.066,242.522,571.527"/>
<path class="path-7" d="M242.522,571.527C244.109,576.208,247.801,580.587,248.524,585.495"/>
<path class="path-7" d="M248.524,585.495C249.745,593.774,237.944,605.302,230.480,607.911"/>
<path class="path-7" d="M230.480,607.911C221.942,610.708,195.210,610.300,186.882,606.330"/>
<path class="path-7" d="M186.882,606.330C183.667,604.910,179.638,601.279,178.208,597.828"/>
<path class="path-7" d="M178.208,597.828C176.670,594.618,174.275,579.315,175.140,575.560"/>
<path class="path-7" d="M175.140,575.560C176.910,569.026,179.361,567.592,181.073,559.855"/>
<path class="path-7" d="M181.073,559.855C182.765,550.746,184.392,540.897,183.444,531.462"/>
<path class="path-7" d="M183.444,531.462C181.217,513.019,180.547,483.368,182.011,470.004"/>
<path class="path-7" d="M182.011,470.004C182.647,462.475,179.580,437.403,180.252,430.429"/>
<path class="path-7" d="M180.252,430.429C181.470,418.900,179.349,416.796,180.722,409.055"/>
<path class="path-7" d="M180.722,409.055C183.666,397.114,199.169,393.405,209.857,395.682"/>
<path class="path-8" d="M209.857,395.682C215.771,396.817,225.686,399.071,229.200,404.319C230.704,406.565,231.504,410.858,230.227,413.232C227.984,417.402,212.626,415.476,215.538,419.329C220.629,426.282,230.255,416.422,234.742,420.006C236.737,421.600,237.123,425.066,237.678,427.943C242.990,449.414,237.389,472.937,238.496,494.347C238.784,501.270,237.727,511.561,239.298,517.795C242.628,533.195,240.907,536.565,241.802,545.870C241.915,549.349,241.108,567.066,242.522,571.527C244.109,576.208,247.801,580.587,248.524,585.495C249.745,593.774,237.944,605.302,230.480,607.911C221.942,610.708,195.210,610.300,186.882,606.330C183.667,604.910,179.638,601.279,178.208,597.828C176.670,594.618,174.275,579.315,175.140,575.560C176.910,569.026,179.361,567.592,181.073,559.855C182.765,550.746,184.392,540.897,183.444,531.462C181.217,513.019,180.547,483.368,182.011,470.004C182.647,462.475,179.580,437.403,180.252,430.429C181.470,418.900,179.349,416.796,180.722,409.055C183.666,397.114,199.169,393.405,209.857,395.682Z"/>
</g>
<g id="right_toe">
<path class="path-0" d="M178.477,645.125C179.055,631.824,183.322,614.490,199.473,611.254C203.181,610.311,208.571,611.765,212.787,612.366C234.340,615.386,242.906,619.640,244.892,641.247C245.315,647.189,246.665,654.515,242.456,659.543C238.266,664.457,217.024,663.071,210.601,663.721C199.266,665.114,189.792,671.057,181.325,661.705C176.250,655.982,178.179,652.230,178.477,645.125M252.072,618.071C244.192,604.588,211.012,598.190,196.454,601.714C174.735,607.100,168.677,624.569,168.359,643.087C168.195,649.695,167.765,656.969,171.419,662.606C172.727,664.624,175.401,667.273,177.242,668.843C191.157,681.745,200.667,679.485,218.408,678.338C227.798,677.886,243.362,676.191,250.532,669.556C255.889,664.114,256.116,658.499,255.946,651.341C255.533,644.461,255.222,623.001,252.072,618.071Z"/>
<path class="path-3" d="M199.473,611.254C203.181,610.311,208.571,611.765,212.787,612.366"/>
<path class="path-3" d="M212.787,612.366C234.340,615.386,242.906,619.640,244.892,641.247"/>
<path class="path-3" d="M244.892,641.247C245.315,647.189,246.665,654.515,242.456,659.543"/>
<path class="path-3" d="M242.456,659.543C238.266,664.457,217.024,663.071,210.601,663.721"/>
<path class="path-3" d="M210.601,663.721C199.266,665.114,189.792,671.057,181.325,661.705"/>
<path class="path-3" d="M181.325,661.705C176.250,655.982,178.179,652.230,178.477,645.125"/>
<path class="path-3" d="M178.477,645.125C179.055,631.824,183.322,614.490,199.473,611.254"/>
<path class="path-4" d="M199.473,611.254C203.181,610.311,208.571,611.765,212.787,612.366C234.340,615.386,242.906,619.640,244.892,641.247C245.315,647.189,246.665,654.515,242.456,659.543C238.266,664.457,217.024,663.071,210.601,663.721C199.266,665.114,189.792,671.057,181.325,661.705C176.250,655.982,178.179,652.230,178.477,645.125C179.055,631.824,183.322,614.490,199.473,611.254Z"/>
</g>
<g id="right_sole">
<path class="path-0" d="M198.938,676.243C200.487,676.501,215.872,675.363,217.620,675.258C219.020,675.195,227.459,674.787,228.648,674.639C229.392,674.564,236.832,673.795,237.430,674.214C236.871,673.797,228.965,675.708,228.495,675.750C227.567,675.866,201.307,677.244,201.004,677.370C199.816,677.470,188.523,677.225,187.745,676.279C188.974,675.775,197.132,675.941,198.938,676.243M238.223,668.156C238.292,668.428,236.784,670.208,236.363,670.235C235.525,670.293,222.336,672.525,221.214,672.355C219.959,672.386,211.209,673.565,210.079,673.620C207.833,673.729,189.803,674.067,187.812,673.058C187.587,672.890,186.804,671.815,186.830,671.660C186.878,671.378,193.965,671.283,195.056,671.185C196.767,671.031,210.667,669.666,212.423,669.530C214.326,669.384,229.352,668.702,231.293,668.426C231.597,668.391,238.048,667.486,238.223,668.156M243.637,662.728C232.160,660.234,223.552,665.206,213.300,666.135C205.877,666.839,191.508,666.103,182.548,668.366C181.113,668.729,178.326,668.678,177.969,670.185C177.524,672.082,181.395,675.894,183.793,677.262C186.764,678.959,192.726,678.651,195.111,678.870C207.230,680.423,222.414,678.400,234.695,677.165C243.756,676.259,245.809,672.545,246.477,668.181C246.755,666.363,247.226,663.461,243.637,662.728Z"/>
<path class="path-5" d="M198.938,676.243C200.487,676.501,215.872,675.363,217.620,675.258"/>
<path class="path-5" d="M217.620,675.258C219.020,675.195,227.459,674.787,228.648,674.639"/>
<path class="path-5" d="M228.648,674.639C229.392,674.564,236.832,673.795,237.430,674.214"/>
<path class="path-5" d="M237.430,674.214C236.871,673.797,228.965,675.708,228.495,675.750"/>
<path class="path-5" d="M228.495,675.750C227.567,675.866,201.307,677.244,201.004,677.370"/>
<path class="path-5" d="M201.004,677.370C199.816,677.470,188.523,677.225,187.745,676.279"/>
<path class="path-5" d="M187.745,676.279C188.974,675.775,197.132,675.941,198.938,676.243"/>
<path class="path-6" d="M198.938,676.243C200.487,676.501,215.872,675.363,217.620,675.258C219.020,675.195,227.459,674.787,228.648,674.639C229.392,674.564,236.832,673.795,237.430,674.214C236.871,673.797,228.965,675.708,228.495,675.750C227.567,675.866,201.307,677.244,201.004,677.370C199.816,677.470,188.523,677.225,187.745,676.279C188.974,675.775,197.132,675.941,198.938,676.243Z"/>
<path class="path-5" d="M195.056,671.185C196.767,671.031,210.667,669.666,212.423,669.530"/>
<path class="path-5" d="M212.423,669.530C214.326,669.384,229.352,668.702,231.293,668.426"/>
<path class="path-5" d="M231.293,668.426C231.597,668.391,238.048,667.486,238.223,668.156"/>
<path class="path-5" d="M238.223,668.156C238.292,668.428,236.784,670.208,236.363,670.235"/>
<path class="path-5" d="M236.363,670.235C235.525,670.293,222.336,672.525,221.214,672.355"/>
<path class="path-5" d="M221.214,672.355C219.959,672.386,211.209,673.565,210.079,673.620"/>
<path class="path-5" d="M210.079,673.620C207.833,673.729,189.803,674.067,187.812,673.058"/>
<path class="path-5" d="M187.812,673.058C187.587,672.890,186.804,671.815,186.830,671.660"/>
<path class="path-5" d="M186.830,671.660C186.878,671.378,193.965,671.283,195.056,671.185"/>
<path class="path-6" d="M195.056,671.185C196.767,671.031,210.667,669.666,212.423,669.530C214.326,669.384,229.352,668.702,231.293,668.426C231.597,668.391,238.048,667.486,238.223,668.156C238.292,668.428,236.784,670.208,236.363,670.235C235.525,670.293,222.336,672.525,221.214,672.355C219.959,672.386,211.209,673.565,210.079,673.620C207.833,673.729,189.803,674.067,187.812,673.058C187.587,672.890,186.804,671.815,186.830,671.660C186.878,671.378,193.965,671.283,195.056,671.185Z"/>
</g>
</g>
<g id="hat_brim">
<path class="path-0" d="M303.980,153.651C308.295,148.117,319.073,132.941,327.006,133.848C332.295,134.453,342.106,145.288,347.384,148.905C352.002,152.447,356.989,155.696,362.306,158.982C365.308,161.006,368.314,163.024,371.324,165.036C384.706,173.935,380.021,179.762,371.908,177.494C353.777,172.070,350.650,173.054,333.860,161.756C331.659,160.500,326.087,156.515,324.604,160.698C322.716,165.505,331.149,170.823,334.596,172.891C340.790,177.284,347.609,182.083,355.466,183.650C357.743,184.246,365.751,184.491,366.808,186.956C368.413,190.489,357.845,197.987,355.635,199.743C351.989,202.340,348.344,204.937,344.773,206.873C339.437,209.610,333.808,211.980,328.076,212.329C317.348,212.442,286.032,193.456,286.364,181.775C286.459,175.089,299.295,159.479,303.980,153.651M339.397,130.913C334.930,126.049,332.013,119.352,324.362,121.826C318.808,123.536,312.320,130.495,308.231,134.046C292.788,149.023,278.329,167.127,276.532,188.687C275.313,202.276,279.978,202.476,290.281,209.011C305.862,219.165,326.715,224.229,345.509,218.008C357.682,214.042,379.888,198.499,386.538,187.204C388.643,183.426,392.639,174.842,390.853,169.950C388.852,164.028,367.802,151.910,361.608,147.518C354.166,142.313,345.695,137.326,339.397,130.913Z"/>
<path class="path-9" d="M327.006,133.848C332.295,134.453,342.106,145.288,347.384,148.905"/>
<path class="path-9" d="M347.384,148.905C352.002,152.447,356.989,155.696,362.306,158.982"/>
<path class="path-9" d="M362.306,158.982C365.308,161.006,368.314,163.024,371.324,165.036"/>
<path class="path-9" d="M371.324,165.036C384.706,173.935,380.021,179.762,371.908,177.494"/>
<path class="path-9" d="M371.908,177.494C353.777,172.070,350.650,173.054,333.860,161.756"/>
<path class="path-9" d="M333.860,161.756C331.659,160.500,326.087,156.515,324.604,160.698"/>
<path class="path-9" d="M324.604,160.698C322.716,165.505,331.149,170.823,334.596,172.891"/>
<path class="path-9" d="M334.596,172.891C340.790,177.284,347.609,182.083,355.466,183.650"/>
<path class="path-9" d="M355.466,183.650C357.743,184.246,365.751,184.491,366.808,186.956"/>
<path class="path-9" d="M366.808,186.956C368.413,190.489,357.845,197.987,355.635,199.743"/>
<path class="path-9" d="M355.635,199.743C351.989,202.340,348.344,204.937,344.773,206.873"/>
<path class="path-9" d="M344.773,206.873C339.437,209.610,333.808,211.980,328.076,212.329"/>
<path class="path-9" d="M328.076,212.329C317.348,212.442,286.032,193.456,286.364,181.775"/>
<path class="path-9" d="M286.364,181.775C286.459,175.089,299.295,159.479,303.980,153.651"/>
<path class="path-9" d="M303.980,153.651C308.295,148.117,319.073,132.941,327.006,133.848"/>
<path class="path-10" d="M327.006,133.848C332.295,134.453,342.106,145.288,347.384,148.905C352.002,152.447,356.989,155.696,362.306,158.982C365.308,161.006,368.314,163.024,371.324,165.036C384.706,173.935,380.021,179.762,371.908,177.494C353.777,172.070,350.650,173.054,333.860,161.756C331.659,160.500,326.087,156.515,324.604,160.698C322.716,165.505,331.149,170.823,334.596,172.891C340.790,177.284,347.609,182.083,355.466,183.650C357.743,184.246,365.751,184.491,366.808,186.956C368.413,190.489,357.845,197.987,355.635,199.743C351.989,202.340,348.344,204.937,344.773,206.873C339.437,209.610,333.808,211.980,328.076,212.329C317.348,212.442,286.032,193.456,286.364,181.775C286.459,175.089,299.295,159.479,303.980,153.651C308.295,148.117,319.073,132.941,327.006,133.848Z"/>
</g>
<g id="hair">
<path class="path-0" d="M200.676,144.053C216.899,130.482,236.632,127.384,257.524,124.419C266.888,123.071,273.986,128.812,281.815,134.353C288.278,139.251,295.255,144.801,302.112,149.934C312.429,157.601,316.824,161.527,320.766,165.306C324.100,168.173,329.382,173.621,333.427,176.058C338.307,178.997,349.142,195.110,351.364,196.830C344.988,199.724,334.783,202.416,330.408,206.721C332.639,212.351,333.890,221.300,334.172,223.994C328.039,225.046,320.577,222.977,308.968,222.055C307.372,229.437,308.062,236.131,304.118,243.858C296.215,242.298,290.686,240.956,280.321,237.539C274.304,243.374,272.730,243.123,262.747,250.688C255.251,247.086,249.161,243.052,241.993,240.918C235.545,244.476,224.964,246.569,221.636,249.847C217.141,243.228,212.877,235.849,209.299,232.820C199.952,235.741,196.124,238.768,189.630,241.900C184.879,236.838,187.419,232.012,181.948,224.420C177.522,223.691,170.605,221.758,165.062,222.208C168.434,217.356,169.774,202.401,176.053,199.891C183.801,196.795,177.841,188.213,181.925,179.563C182.926,177.318,193.005,159.893,193.788,157.131C195.318,152.352,197.007,147.273,200.676,144.053M285.139,121.331C272.019,113.179,246.937,110.555,233.451,115.162C221.058,119.239,209.036,124.476,198.743,132.718C192.973,137.275,186.736,143.763,183.249,150.247C176.248,162.863,167.016,189.856,161.556,202.474C157.224,212.920,152.920,220.110,148.336,226.001C166.502,230.658,171.882,232.795,177.183,233.078C178.272,240.763,185.959,245.788,185.569,254.426C194.206,252.261,199.205,249.526,206.807,246.811C211.225,251.051,214.581,257.076,218.973,262.873C226.446,260.029,234.327,259.545,241.394,253.366C247.191,255.823,256.389,259.619,265.853,263.664C273.679,258.453,275.424,258.026,282.680,252.235C292.342,253.630,302.827,258.497,312.230,256.551C310.757,248.470,316.234,242.282,315.016,237.125C321.994,234.502,344.264,235.526,347.982,234.837C347.164,228.841,342.718,217.648,343.572,210.325C350.170,207.856,355.738,205.652,365.823,199.534C361.709,193.212,354.692,185.551,348.767,181.156C343.770,177.487,339.495,172.395,334.478,168.552C317.486,155.758,309.415,136.496,285.139,121.331Z"/>
<path class="path-11" d="M257.524,124.419C266.888,123.071,273.986,128.812,281.815,134.353"/>
<path class="path-11" d="M281.815,134.353C288.278,139.251,295.255,144.801,302.112,149.934"/>
<path class="path-11" d="M302.112,149.934C312.429,157.601,316.824,161.527,320.766,165.306"/>
<path class="path-11" d="M320.766,165.306C324.100,168.173,329.382,173.621,333.427,176.058"/>
<path class="path-11" d="M333.427,176.058C338.307,178.997,349.142,195.110,351.364,196.830"/>
<path class="path-11" d="M351.364,196.830C344.988,199.724,334.783,202.416,330.408,206.721"/>
<path class="path-11" d="M330.408,206.721C332.639,212.351,333.890,221.300,334.172,223.994"/>
<path class="path-11" d="M334.172,223.994C328.039,225.046,320.577,222.977,308.968,222.055"/>
<path class="path-11" d="M308.968,222.055C307.372,229.437,308.062,236.131,304.118,243.858"/>
<path class="path-11" d="M304.118,243.858C296.215,242.298,290.686,240.956,280.321,237.539"/>
<path class="path-11" d="M280.321,237.539C274.304,243.374,272.730,243.123,262.747,250.688"/>
<path class="path-11" d="M262.747,250.688C255.251,247.086,249.161,243.052,241.993,240.918"/>
<path class="path-11" d="M241.993,240.918C235.545,244.476,224.964,246.569,221.636,249.847"/>
<path class="path-11" d="M221.636,249.847C217.141,243.228,212.877,235.849,209.299,232.820"/>
<path class="path-11" d="M209.299,232.820C199.952,235.741,196.124,238.768,189.630,241.900"/>
<path class="path-11" d="M189.630,241.900C184.879,236.838,187.419,232.012,181.948,224.420"/>
<path class="path-11" d="M181.948,224.420C177.522,223.691,170.605,221.758,165.062,222.208"/>
<path class="path-11" d="M165.062,222.208C168.434,217.356,169.774,202.401,176.053,199.891"/>
<path class="path-11" d="M176.053,199.891C183.801,196.795,177.841,188.213,181.925,179.563"/>
<path class="path-11" d="M181.925,179.563C182.926,177.318,193.005,159.893,193.788,157.131"/>
<path class="path-11" d="M193.788,157.131C195.318,152.352,197.007,147.273,200.676,144.053"/>
<path class="path-11" d="M200.676,144.053C216.899,130.482,236.632,127.384,257.524,124.419"/>
<path class="path-12" d="M257.524,124.419C266.888,123.071,273.986,128.812,281.815,134.353C288.278,139.251,295.255,144.801,302.112,149.934C312.429,157.601,316.824,161.527,320.766,165.306C324.100,168.173,329.382,173.621,333.427,176.058C338.307,178.997,349.142,195.110,351.364,196.830C344.988,199.724,334.783,202.416,330.408,206.721C332.639,212.351,333.890,221.300,334.172,223.994C328.039,225.046,320.577,222.977,308.968,222.055C307.372,229.437,308.062,236.131,304.118,243.858C296.215,242.298,290.686,240.956,280.321,237.539C274.304,243.374,272.730,243.123,262.747,250.688C255.251,247.086,249.161,243.052,241.993,240.918C235.545,244.476,224.964,246.569,221.636,249.847C217.141,243.228,212.877,235.849,209.299,232.820C199.952,235.741,196.124,238.768,189.630,241.900C184.879,236.838,187.419,232.012,181.948,224.420C177.522,223.691,170.605,221.758,165.062,222.208C168.434,217.356,169.774,202.401,176.053,199.891C183.801,196.795,177.841,188.213,181.925,179.563C182.926,177.318,193.005,159.893,193.788,157.131C195.318,152.352,197.007,147.273,200.676,144.053C216.899,130.482,236.632,127.384,257.524,124.419Z"/>
</g>
<g id="clothes">
<path class="path-0" d="M246.173,369.462C240.987,367.359,221.188,367.751,217.650,372.354C215.406,375.464,218.645,377.274,221.970,377.565C225.945,377.913,246.909,378.086,249.706,376.480C254.144,373.859,248.329,370.228,246.173,369.462M201.909,265.515C205.824,253.227,233.593,242.591,246.353,244.608C255.330,245.999,282.635,262.340,285.960,271.030C288.747,277.979,287.720,302.760,287.313,311.129C286.291,326.398,285.738,341.744,285.325,357.041C285.576,369.044,294.264,382.585,288.179,392.935C285.710,396.099,276.006,396.041,271.650,396.763C265.856,398.008,254.758,402.502,249.309,402.222C226.463,401.669,228.614,403.442,207.219,402.174C203.117,401.774,189.862,399.874,187.375,397.828C181.773,392.019,185.495,383.513,187.501,376.005C191.663,362.633,193.550,353.257,195.953,338.600C198.443,322.760,201.808,305.851,203.153,289.333C203.305,283.409,200.980,269.070,201.909,265.515M281.691,253.467C266.114,242.495,250.704,233.256,230.584,237.411C225.198,238.323,197.763,249.143,195.218,252.286C191.269,257.250,193.674,277.394,193.132,284.561C192.814,293.132,192.315,302.028,190.922,310.178C190.030,316.430,188.171,321.922,187.618,327.871C186.673,334.449,186.123,341.607,184.445,347.577C179.667,364.124,165.593,396.681,184.889,409.398C189.423,412.410,196.218,412.503,201.946,412.996C211.855,413.657,222.486,414.640,232.530,413.770C244.888,413.044,256.862,408.965,269.389,408.686C275.845,408.543,295.635,416.223,300.628,411.575C303.093,409.382,304.277,394.830,303.979,391.113C302.276,377.841,296.262,365.253,295.171,351.917C294.527,339.955,295.107,328.195,296.857,315.994C298.079,306.010,300.580,296.467,301.392,286.109C301.397,281.705,302.429,276.373,300.406,271.814C297.005,263.476,288.706,258.398,281.691,253.467Z"/>
<path class="path-13" d="M246.173,369.462C240.987,367.359,221.188,367.751,217.650,372.354"/>
<path class="path-13" d="M217.650,372.354C215.406,375.464,218.645,377.274,221.970,377.565"/>
<path class="path-13" d="M221.970,377.565C225.945,377.913,246.909,378.086,249.706,376.480"/>
<path class="path-13" d="M249.706,376.480C254.144,373.859,248.329,370.228,246.173,369.462"/>
<path class="path-13" d="M201.909,265.515C205.824,253.227,233.593,242.591,246.353,244.608"/>
<path class="path-13" d="M246.353,244.608C255.330,245.999,282.635,262.340,285.960,271.030"/>
<path class="path-13" d="M285.960,271.030C288.747,277.979,287.720,302.760,287.313,311.129"/>
<path class="path-13" d="M287.313,311.129C286.291,326.398,285.738,341.744,285.325,357.041"/>
<path class="path-13" d="M285.325,357.041C285.576,369.044,294.264,382.585,288.179,392.935"/>
<path class="path-13" d="M288.179,392.935C285.710,396.099,276.006,396.041,271.650,396.763"/>
<path class="path-13" d="M271.650,396.763C265.856,398.008,254.758,402.502,249.309,402.222"/>
<path class="path-13" d="M249.309,402.222C226.463,401.669,228.614,403.442,207.219,402.174"/>
<path class="path-13" d="M207.219,402.174C203.117,401.774,189.862,399.874,187.375,397.828"/>
<path class="path-13" d="M187.375,397.828C181.773,392.019,185.495,383.513,187.501,376.005"/>
<path class="path-13" d="M187.501,376.005C191.663,362.633,193.550,353.257,195.953,338.600"/>
<path class="path-13" d="M195.953,338.600C198.443,322.760,201.808,305.851,203.153,289.333"/>
<path class="path-13" d="M203.153,289.333C203.305,283.409,200.980,269.070,201.909,265.515"/>
<path class="path-14" d="M246.173,369.462C240.987,367.359,221.188,367.751,217.650,372.354C215.406,375.464,218.645,377.274,221.970,377.565C225.945,377.913,246.909,378.086,249.706,376.480C254.144,373.859,248.329,370.228,246.173,369.462M201.909,265.515C205.824,253.227,233.593,242.591,246.353,244.608C255.330,245.999,282.635,262.340,285.960,271.030C288.747,277.979,287.720,302.760,287.313,311.129C286.291,326.398,285.738,341.744,285.325,357.041C285.576,369.044,294.264,382.585,288.179,392.935C285.710,396.099,276.006,396.041,271.650,396.763C265.856,398.008,254.758,402.502,249.309,402.222C226.463,401.669,228.614,403.442,207.219,402.174C203.117,401.774,189.862,399.874,187.375,397.828C181.773,392.019,185.495,383.513,187.501,376.005C191.663,362.633,193.550,353.257,195.953,338.600C198.443,322.760,201.808,305.851,203.153,289.333C203.305,283.409,200.980,269.070,201.909,265.515Z"/>
</g>
<g id="neck">
<path class="path-0" d="M241.343,225.186C241.999,221.907,243.285,219.024,246.959,219.050C258.743,218.201,254.078,255.519,243.483,254.480C233.550,253.505,240.064,231.411,241.343,225.186M247.869,209.780C245.253,209.189,242.209,209.558,239.760,210.656C230.034,214.381,230.513,223.120,229.669,231.729C228.915,236.001,228.857,240.007,226.513,243.454C224.533,246.603,219.571,249.458,219.214,253.102C218.571,263.067,245.391,265.699,252.377,266.049C255.025,266.309,263.867,268.179,265.218,264.635C265.315,263.642,259.831,251.402,259.293,246.670C257.677,232.471,268.963,212.853,247.869,209.780Z"/>
<path class="path-15" d="M246.959,219.050C258.743,218.201,254.078,255.519,243.483,254.480"/>
<path class="path-15" d="M243.483,254.480C233.550,253.505,240.064,231.411,241.343,225.186"/>
<path class="path-15" d="M241.343,225.186C241.999,221.907,243.285,219.024,246.959,219.050"/>
<path class="path-16" d="M246.959,219.050C258.743,218.201,254.078,255.519,243.483,254.480C233.550,253.505,240.064,231.411,241.343,225.186C241.999,221.907,243.285,219.024,246.959,219.050Z"/>
</g>
<g id="layer_head">
<g id="right_ear">
<path class="path-0" d="M171.730,182.972C167.597,182.610,158.929,155.698,163.617,157.238C169.377,159.131,170.911,170.123,172.020,174.608C172.612,176.627,175.386,183.291,171.730,182.972M166.858,143.209C165.333,141.894,163.515,140.328,161.599,140.946C152.206,142.392,154.307,156.836,156.122,166.215C158.386,177.280,164.442,191.572,173.298,197.208C174.632,198.066,176.909,200.743,178.577,200.590C184.598,199.660,180.266,189.440,179.193,184.781C177.639,177.292,171.521,148.870,166.858,143.209Z"/>
<path class="path-15" d="M163.617,157.238C169.377,159.131,170.911,170.123,172.020,174.608"/>
<path class="path-15" d="M172.020,174.608C172.612,176.627,175.386,183.291,171.730,182.972"/>
<path class="path-15" d="M171.730,182.972C167.597,182.610,158.929,155.698,163.617,157.238"/>
<path class="path-16" d="M163.617,157.238C169.377,159.131,170.911,170.123,172.020,174.608C172.612,176.627,175.386,183.291,171.730,182.972C167.597,182.610,158.929,155.698,163.617,157.238Z"/>
</g>
<g id="face_Mask">
<g id="face">
<path class="path-0" d="M174.635,100.001C184.254,90.584,217.626,87.169,231.405,86.736C246.837,86.492,262.107,90.582,276.453,96.910C281.553,99.169,289.265,101.706,293.139,106.186C299.153,113.195,300.451,124.734,300.555,133.607C300.756,138.953,300.527,145.826,298.910,150.616C288.418,181.690,280.034,196.400,272.299,204.450C259.049,218.239,237.757,221.917,218.814,222.724C200.298,223.249,192.055,219.351,175.840,210.265C172.990,208.674,166.720,205.291,164.978,202.696C158.684,192.933,164.050,181.312,162.948,170.242C161.829,161.697,156.845,149.364,156.169,140.946C155.446,129.739,166.727,107.674,174.635,100.001M298.003,99.017C286.022,85.188,250.149,78.415,232.329,79.038C223.950,79.076,215.941,78.823,208.111,79.932C202.299,80.940,197.034,83.013,191.553,84.060C179.491,87.033,174.873,85.057,165.871,94.862C159.428,101.710,147.505,130.213,147.245,139.453C147.165,147.054,153.776,164.722,153.757,173.571C153.681,183.132,147.208,196.149,150.595,204.728C153.761,212.417,161.315,216.461,171.657,221.824C179.601,225.944,188.506,229.746,197.584,231.335C202.276,232.157,207.671,234.100,217.914,233.107C238.230,230.880,259.558,226.144,275.540,211.296C290.147,197.726,309.934,179.427,315.183,149.091C318.551,129.624,304.414,106.256,298.003,99.017Z"/>
<path class="path-15" d="M231.405,86.736C246.837,86.492,262.107,90.582,276.453,96.910"/>
<path class="path-15" d="M276.453,96.910C281.553,99.169,289.265,101.706,293.139,106.186"/>
<path class="path-15" d="M293.139,106.186C299.153,113.195,300.451,124.734,300.555,133.607"/>
<path class="path-15" d="M300.555,133.607C300.756,138.953,300.527,145.826,298.910,150.616"/>
<path class="path-15" d="M298.910,150.616C288.418,181.690,280.034,196.400,272.299,204.450"/>
<path class="path-15" d="M272.299,204.450C259.049,218.239,237.757,221.917,218.814,222.724"/>
<path class="path-15" d="M218.814,222.724C200.298,223.249,192.055,219.351,175.840,210.265"/>
<path class="path-15" d="M175.840,210.265C172.990,208.674,166.720,205.291,164.978,202.696"/>
<path class="path-15" d="M164.978,202.696C158.684,192.933,164.050,181.312,162.948,170.242"/>
<path class="path-15" d="M162.948,170.242C161.829,161.697,156.845,149.364,156.169,140.946"/>
<path class="path-15" d="M156.169,140.946C155.446,129.739,166.727,107.674,174.635,100.001"/>
<path class="path-15" d="M174.635,100.001C184.254,90.584,217.626,87.169,231.405,86.736"/>
<path class="path-16" d="M231.405,86.736C246.837,86.492,262.107,90.582,276.453,96.910C281.553,99.169,289.265,101.706,293.139,106.186C299.153,113.195,300.451,124.734,300.555,133.607C300.756,138.953,300.527,145.826,298.910,150.616C288.418,181.690,280.034,196.400,272.299,204.450C259.049,218.239,237.757,221.917,218.814,222.724C200.298,223.249,192.055,219.351,175.840,210.265C172.990,208.674,166.720,205.291,164.978,202.696C158.684,192.933,164.050,181.312,162.948,170.242C161.829,161.697,156.845,149.364,156.169,140.946C155.446,129.739,166.727,107.674,174.635,100.001C184.254,90.584,217.626,87.169,231.405,86.736Z"/>
</g>
</g>
<mask id="mask_target" style="mask-type:alpha;">
<use xlink:href="#face_Mask"/>
</mask>
<g id="mouse">
<path class="path-0" d="M199.066,211.118C204.111,212.806,203.654,217.538,203.126,217.988C202.828,218.242,201.820,217.170,198.935,216.350C193.470,214.797,190.648,215.654,190.533,214.922C190.407,214.120,193.160,209.142,199.066,211.118Z"/>
</g>
<g id="layer_eyes_Mtarget" mask="url(#mask_target)">
<g id="eyes">
<mask style="mask-type:alpha;" id="f3906406-f197-4bf1-91d8-744c09cca836">
<use xlink:href="#cmn_f3906406-f197-4bf1-91d8-744c09cca836"/>
</mask>
<g id="cmn_f3906406-f197-4bf1-91d8-744c09cca836">
<path class="path-0" d="M150.099,174.668C150.598,178.425,152.886,184.055,153.273,183.995C151.932,184.215,150.377,180.396,149.954,178.306C149.661,177.036,151.659,172.094,150.060,172.187C149.768,172.204,150.066,174.414,150.099,174.668M160.370,179.223C160.339,177.778,160.809,174.281,159.430,172.986C158.589,172.196,156.795,172.241,155.633,172.381C152.770,172.663,144.695,164.077,143.089,160.579C142.794,159.936,143.176,156.392,143.042,155.705C140.889,144.679,138.172,170.982,143.309,185.778C144.166,188.246,154.111,191.218,153.476,191.568C153.764,191.409,160.449,182.831,160.370,179.223M188.532,190.342C183.049,189.176,175.178,184.762,176.752,176.171C177.250,173.450,190.740,172.374,195.038,171.219C199.722,169.961,213.034,165.883,215.320,166.280C217.097,166.741,216.991,170.716,216.238,175.401C215.275,181.402,197.588,192.267,188.532,190.342M223.014,181.291C226.425,175.051,227.439,159.797,225.790,158.666C221.292,155.581,207.032,161.881,199.109,163.798C192.530,165.390,181.887,170.170,177.442,170.099C174.487,170.159,171.953,169.525,170.703,171.144C169.260,173.012,170.979,176.704,171.718,178.945C172.998,182.833,174.545,188.022,178.602,190.727C186.324,196.114,197.668,194.224,206.847,192.795C209.757,192.338,220.014,186.779,223.014,181.291Z"/>
<path class="path-17" d="M215.320,166.280C217.097,166.741,216.991,170.716,216.238,175.401"/>
<path class="path-17" d="M216.238,175.401C215.275,181.402,197.588,192.267,188.532,190.342"/>
<path class="path-17" d="M188.532,190.342C183.049,189.176,175.178,184.762,176.752,176.171"/>
<path class="path-17" d="M176.752,176.171C177.250,173.450,190.740,172.374,195.038,171.219"/>
<path class="path-17" d="M195.038,171.219C199.722,169.961,213.034,165.883,215.320,166.280"/>
<path class="path-18" d="M215.320,166.280C217.097,166.741,216.991,170.716,216.238,175.401C215.275,181.402,197.588,192.267,188.532,190.342C183.049,189.176,175.178,184.762,176.752,176.171C177.250,173.450,190.740,172.374,195.038,171.219C199.722,169.961,213.034,165.883,215.320,166.280Z"/>
<path class="path-17" d="M150.060,172.187C149.768,172.204,150.066,174.414,150.099,174.668"/>
<path class="path-17" d="M150.099,174.668C150.598,178.425,152.886,184.055,153.273,183.995"/>
<path class="path-17" d="M153.273,183.995C151.932,184.215,150.377,180.396,149.954,178.306"/>
<path class="path-17" d="M149.954,178.306C149.661,177.036,151.659,172.094,150.060,172.187"/>
<path class="path-18" d="M150.060,172.187C149.768,172.204,150.066,174.414,150.099,174.668C150.598,178.425,152.886,184.055,153.273,183.995C151.932,184.215,150.377,180.396,149.954,178.306C149.661,177.036,151.659,172.094,150.060,172.187Z"/>
</g>
</g>
<g id="pupil">
<path class="path-0" d="M180.759,166.737C183.081,166.428,185.925,169.906,185.826,178.356C185.751,184.734,183.776,187.130,182.008,187.129C180.096,187.128,178.755,184.369,178.250,177.490C177.712,170.149,178.736,167.007,180.759,166.737Z" mask="url(#f3906406-f197-4bf1-91d8-744c09cca836)"/>
<path class="path-0" d="M151.632,166.084C154.087,165.914,157.281,169.879,156.355,179.001C155.817,184.306,153.919,185.983,152.488,186.002C150.886,186.024,149.001,184.026,148.275,178.101C147.263,169.845,149.405,166.239,151.632,166.084Z" mask="url(#f3906406-f197-4bf1-91d8-744c09cca836)"/>
</g>
</g>
<g id="hat">
<path class="path-0" d="M307.262,143.828C309.396,144.927,311.648,147.996,311.903,150.667C313.149,157.594,301.727,157.779,298.084,157.846C292.437,157.386,286.691,155.719,281.428,154.450C274.183,153.383,267.186,151.015,259.984,149.689C237.387,143.681,214.570,138.665,191.845,133.182C181.504,131.113,172.368,128.134,161.037,126.065C159.923,125.861,150.109,125.496,148.206,124.709C133.561,118.809,147.809,106.553,147.451,99.593C147.497,97.757,144.166,96.979,145.084,93.784C145.668,91.863,151.105,88.239,153.065,87.624C162.235,84.691,172.660,84.863,182.694,85.874C193.308,86.943,202.482,89.916,212.803,92.563C238.367,99.119,280.829,111.902,313.184,128.724C322.287,133.457,302.714,129.313,300.858,129.254C283.632,128.707,213.239,103.809,251.950,120.117C266.820,126.381,294.169,136.541,307.262,143.828M203.178,76.796C191.162,74.174,180.101,71.880,168.463,72.814C164.307,73.136,158.905,73.402,155.663,74.126C149.004,75.615,163.167,57.493,166.905,54.316C184.939,39.367,214.060,30.831,238.275,35.282C286.241,44.100,302.707,59.675,313.246,80.094C316.730,86.266,325.142,113.553,314.449,118.372C311.059,119.641,305.708,116.204,303.230,114.413C294.276,108.226,221.361,80.763,203.178,76.796M309.575,50.982C293.700,39.225,270.975,28.096,243.140,25.523C213.139,22.749,179.593,28.284,157.441,51.842C150.667,59.211,147.092,67.782,142.410,75.833C139.600,80.613,134.849,83.286,133.695,88.644C132.272,96.239,136.708,98.820,136.609,105.183C136.695,112.485,131.896,114.015,131.577,118.701C129.543,130.995,140.821,135.688,150.835,138.151C155.114,139.205,171.362,140.519,180.132,141.740C189.997,143.112,203.134,145.081,212.932,146.866C224.421,148.958,239.573,152.593,251.034,154.831C261.734,156.921,275.963,160.039,286.788,161.334C294.915,162.306,312.869,163.753,314.020,163.013C315.679,161.969,322.443,149.898,323.236,147.471C324.622,143.225,323.036,138.157,325.618,131.415C329.124,121.597,332.969,113.393,333.077,102.135C333.094,81.442,321.802,60.037,309.575,50.982Z"/>
<path class="path-19" d="M212.803,92.563C238.367,99.119,280.829,111.902,313.184,128.724"/>
<path class="path-19" d="M313.184,128.724C322.287,133.457,302.714,129.313,300.858,129.254"/>
<path class="path-19" d="M300.858,129.254C283.632,128.707,213.239,103.809,251.950,120.117"/>
<path class="path-19" d="M251.950,120.117C266.820,126.381,294.169,136.541,307.262,143.828"/>
<path class="path-19" d="M307.262,143.828C309.396,144.927,311.648,147.996,311.903,150.667"/>
<path class="path-19" d="M311.903,150.667C313.149,157.594,301.727,157.779,298.084,157.846"/>
<path class="path-19" d="M298.084,157.846C292.437,157.386,286.691,155.719,281.428,154.450"/>
<path class="path-19" d="M281.428,154.450C274.183,153.383,267.186,151.015,259.984,149.689"/>
<path class="path-19" d="M259.984,149.689C237.387,143.681,214.570,138.665,191.845,133.182"/>
<path class="path-19" d="M191.845,133.182C181.504,131.113,172.368,128.134,161.037,126.065"/>
<path class="path-19" d="M161.037,126.065C159.923,125.861,150.109,125.496,148.206,124.709"/>
<path class="path-19" d="M148.206,124.709C133.561,118.809,147.809,106.553,147.451,99.593"/>
<path class="path-19" d="M147.451,99.593C147.497,97.757,144.166,96.979,145.084,93.784"/>
<path class="path-19" d="M145.084,93.784C145.668,91.863,151.105,88.239,153.065,87.624"/>
<path class="path-19" d="M153.065,87.624C162.235,84.691,172.660,84.863,182.694,85.874"/>
<path class="path-19" d="M182.694,85.874C193.308,86.943,202.482,89.916,212.803,92.563"/>
<path class="path-20" d="M212.803,92.563C238.367,99.119,280.829,111.902,313.184,128.724C322.287,133.457,302.714,129.313,300.858,129.254C283.632,128.707,213.239,103.809,251.950,120.117C266.820,126.381,294.169,136.541,307.262,143.828C309.396,144.927,311.648,147.996,311.903,150.667C313.149,157.594,301.727,157.779,298.084,157.846C292.437,157.386,286.691,155.719,281.428,154.450C274.183,153.383,267.186,151.015,259.984,149.689C237.387,143.681,214.570,138.665,191.845,133.182C181.504,131.113,172.368,128.134,161.037,126.065C159.923,125.861,150.109,125.496,148.206,124.709C133.561,118.809,147.809,106.553,147.451,99.593C147.497,97.757,144.166,96.979,145.084,93.784C145.668,91.863,151.105,88.239,153.065,87.624C162.235,84.691,172.660,84.863,182.694,85.874C193.308,86.943,202.482,89.916,212.803,92.563Z"/>
<path class="path-9" d="M238.275,35.282C286.241,44.100,302.707,59.675,313.246,80.094"/>
<path class="path-9" d="M313.246,80.094C316.730,86.266,325.142,113.553,314.449,118.372"/>
<path class="path-9" d="M314.449,118.372C311.059,119.641,305.708,116.204,303.230,114.413"/>
<path class="path-9" d="M303.230,114.413C294.276,108.226,221.361,80.763,203.178,76.796"/>
<path class="path-9" d="M203.178,76.796C191.162,74.174,180.101,71.880,168.463,72.814"/>
<path class="path-9" d="M168.463,72.814C164.307,73.136,158.905,73.402,155.663,74.126"/>
<path class="path-9" d="M155.663,74.126C149.004,75.615,163.167,57.493,166.905,54.316"/>
<path class="path-9" d="M166.905,54.316C184.939,39.367,214.060,30.831,238.275,35.282"/>
<path class="path-10" d="M238.275,35.282C286.241,44.100,302.707,59.675,313.246,80.094C316.730,86.266,325.142,113.553,314.449,118.372C311.059,119.641,305.708,116.204,303.230,114.413C294.276,108.226,221.361,80.763,203.178,76.796C191.162,74.174,180.101,71.880,168.463,72.814C164.307,73.136,158.905,73.402,155.663,74.126C149.004,75.615,163.167,57.493,166.905,54.316C184.939,39.367,214.060,30.831,238.275,35.282Z"/>
</g>
<g id="left_ear">
<path class="path-0" d="M257.207,181.966C257.835,180.616,261.066,176.847,262.289,175.718C272.463,165.559,289.000,157.493,295.720,166.497C303.189,176.946,286.082,199.608,273.651,202.838C259.158,206.369,252.136,193.860,257.207,181.966M310.256,172.016C309.327,160.665,303.861,152.219,285.952,153.377C268.962,154.476,262.675,176.807,260.155,190.634C259.714,193.476,259.925,196.566,260.403,199.261C262.108,209.880,269.097,216.520,279.848,210.828C292.663,203.873,311.052,187.488,310.256,172.016Z"/>
<path class="path-15" d="M262.289,175.718C272.463,165.559,289.000,157.493,295.720,166.497"/>
<path class="path-15" d="M295.720,166.497C303.189,176.946,286.082,199.608,273.651,202.838"/>
<path class="path-15" d="M273.651,202.838C259.158,206.369,252.136,193.860,257.207,181.966"/>
<path class="path-15" d="M257.207,181.966C257.835,180.616,261.066,176.847,262.289,175.718"/>
<path class="path-16" d="M262.289,175.718C272.463,165.559,289.000,157.493,295.720,166.497C303.189,176.946,286.082,199.608,273.651,202.838C259.158,206.369,252.136,193.860,257.207,181.966C257.835,180.616,261.066,176.847,262.289,175.718Z"/>
</g>
<g id="earrings">
<path class="path-0" d="M284.079,214.735C274.698,218.389,275.631,200.657,278.784,201.222C283.114,203.115,293.178,217.402,284.079,214.735M294.849,208.580C288.224,208.405,286.003,199.139,285.823,195.310C293.125,197.628,301.993,204.017,294.849,208.580M305.815,206.386C304.156,198.035,292.425,192.107,284.957,187.926C282.108,186.331,272.642,195.944,271.953,199.309C270.506,203.247,271.041,225.325,285.062,223.887C290.909,223.026,307.149,213.098,305.815,206.386Z"/>
<path class="path-21" d="M285.823,195.310C293.125,197.628,301.993,204.017,294.849,208.580"/>
<path class="path-21" d="M294.849,208.580C288.224,208.405,286.003,199.139,285.823,195.310"/>
<path class="path-22" d="M285.823,195.310C293.125,197.628,301.993,204.017,294.849,208.580C288.224,208.405,286.003,199.139,285.823,195.310Z"/>
<path class="path-21" d="M278.784,201.222C283.114,203.115,293.178,217.402,284.079,214.735"/>
<path class="path-21" d="M284.079,214.735C274.698,218.389,275.631,200.657,278.784,201.222"/>
<path class="path-22" d="M278.784,201.222C283.114,203.115,293.178,217.402,284.079,214.735C274.698,218.389,275.631,200.657,278.784,201.222Z"/>
</g>
</g>
<g id="jacket">
<path class="path-0" d="M212.996,270.988C214.854,275.732,209.293,285.204,208.314,289.772C202.329,307.341,193.681,324.198,194.057,342.323C194.345,348.000,198.195,360.223,193.019,364.334C191.270,365.724,186.468,362.998,185.572,364.379C183.792,367.109,180.067,357.429,179.413,355.964C178.736,354.451,176.944,345.932,176.871,343.508C177.021,338.812,178.096,329.704,179.080,323.860C180.107,318.032,180.145,311.723,182.705,305.720C184.948,299.029,189.306,291.694,191.695,284.193C194.243,279.594,197.940,277.137,197.608,273.435C196.929,269.745,195.302,267.750,198.597,266.310C202.766,264.831,212.361,265.935,212.996,270.988M275.262,278.226C276.814,277.001,290.870,271.301,292.624,270.668C305.420,266.726,307.593,281.998,307.089,289.864C306.914,293.304,305.896,305.339,306.243,307.788C306.674,312.994,309.660,316.324,310.088,320.785C310.596,331.586,311.979,325.000,309.929,334.139C309.406,336.455,307.582,341.135,306.447,343.167C305.135,345.220,300.934,348.735,299.768,350.699C296.676,354.998,295.537,360.923,287.875,362.248C286.497,362.665,273.795,369.536,271.565,370.599C267.573,372.244,262.559,375.241,258.816,372.500C254.341,368.835,255.018,360.829,254.244,354.678C252.299,341.040,254.463,327.167,257.987,313.791C260.303,303.204,267.101,286.196,275.262,278.226M288.756,261.870C285.865,263.571,279.617,263.821,277.800,264.113C273.811,264.536,273.369,261.089,273.158,258.280C272.981,253.779,276.116,247.330,279.476,244.110C282.110,241.585,286.692,239.358,290.697,239.416C294.656,239.332,301.138,242.728,300.446,247.181C300.170,250.195,293.610,259.013,288.756,261.870M215.235,243.406C219.712,252.331,224.714,261.469,219.474,260.596C213.472,259.596,210.540,259.173,201.147,255.307C190.661,250.992,187.885,235.939,193.797,231.249C199.590,226.655,209.986,232.940,215.235,243.406M317.032,349.761C319.073,344.798,321.514,341.604,321.648,336.003C321.716,331.201,320.695,325.545,318.537,321.282C314.149,313.143,312.119,310.025,306.463,301.223C304.387,298.112,301.620,296.030,301.147,292.473C300.545,289.063,302.164,271.291,303.281,268.335C304.364,263.239,309.837,260.022,311.165,255.413C312.385,251.635,313.673,247.600,313.280,243.649C313.058,238.389,308.575,234.685,304.930,231.629C299.755,227.785,294.698,227.287,288.121,227.739C278.584,228.407,272.912,236.876,268.844,243.036C263.035,251.832,263.585,267.095,260.381,277.137C258.546,282.889,255.231,290.628,253.148,295.916C244.671,316.470,229.338,373.514,247.950,385.943C249.431,387.077,261.016,388.747,264.445,387.917C272.893,385.917,276.308,383.171,284.401,380.775C291.044,379.086,300.396,369.309,306.516,363.019C309.997,359.668,315.685,353.033,317.032,349.761M221.806,234.019C216.562,227.440,207.483,215.860,199.048,217.637C194.775,218.682,188.728,221.669,185.565,225.026C182.587,228.186,179.373,233.686,179.323,238.084C179.138,243.502,179.180,249.937,180.980,254.570C183.101,260.029,191.953,264.395,192.798,270.108C193.105,272.666,186.596,283.820,185.571,286.844C183.588,293.281,179.622,299.194,177.556,304.687C175.523,310.094,173.476,317.537,171.911,323.098C169.783,330.654,165.975,339.909,165.440,348.451C164.934,352.772,166.278,362.727,169.024,368.029C170.710,371.284,175.112,375.974,177.325,376.995C178.658,377.610,192.530,382.059,197.421,378.506C206.294,372.062,203.694,358.127,202.160,342.263C200.702,327.727,212.078,316.486,216.804,302.486C219.071,295.684,227.108,275.606,227.919,268.240C228.545,262.556,230.602,258.772,229.336,250.820C228.520,246.526,225.249,238.338,221.806,234.019Z"/>
<path class="path-1" d="M292.624,270.668C305.420,266.726,307.593,281.998,307.089,289.864"/>
<path class="path-1" d="M307.089,289.864C306.914,293.304,305.896,305.339,306.243,307.788"/>
<path class="path-1" d="M306.243,307.788C306.674,312.994,309.660,316.324,310.088,320.785"/>
<path class="path-1" d="M310.088,320.785C310.596,331.586,311.979,325.000,309.929,334.139"/>
<path class="path-1" d="M309.929,334.139C309.406,336.455,307.582,341.135,306.447,343.167"/>
<path class="path-1" d="M306.447,343.167C305.135,345.220,300.934,348.735,299.768,350.699"/>
<path class="path-1" d="M299.768,350.699C296.676,354.998,295.537,360.923,287.875,362.248"/>
<path class="path-1" d="M287.875,362.248C286.497,362.665,273.795,369.536,271.565,370.599"/>
<path class="path-1" d="M271.565,370.599C267.573,372.244,262.559,375.241,258.816,372.500"/>
<path class="path-1" d="M258.816,372.500C254.341,368.835,255.018,360.829,254.244,354.678"/>
<path class="path-1" d="M254.244,354.678C252.299,341.040,254.463,327.167,257.987,313.791"/>
<path class="path-1" d="M257.987,313.791C260.303,303.204,267.101,286.196,275.262,278.226"/>
<path class="path-1" d="M275.262,278.226C276.814,277.001,290.870,271.301,292.624,270.668"/>
<path class="path-2" d="M292.624,270.668C305.420,266.726,307.593,281.998,307.089,289.864C306.914,293.304,305.896,305.339,306.243,307.788C306.674,312.994,309.660,316.324,310.088,320.785C310.596,331.586,311.979,325.000,309.929,334.139C309.406,336.455,307.582,341.135,306.447,343.167C305.135,345.220,300.934,348.735,299.768,350.699C296.676,354.998,295.537,360.923,287.875,362.248C286.497,362.665,273.795,369.536,271.565,370.599C267.573,372.244,262.559,375.241,258.816,372.500C254.341,368.835,255.018,360.829,254.244,354.678C252.299,341.040,254.463,327.167,257.987,313.791C260.303,303.204,267.101,286.196,275.262,278.226C276.814,277.001,290.870,271.301,292.624,270.668Z"/>
<path class="path-1" d="M198.597,266.310C202.766,264.831,212.361,265.935,212.996,270.988"/>
<path class="path-1" d="M212.996,270.988C214.854,275.732,209.293,285.204,208.314,289.772"/>
<path class="path-1" d="M208.314,289.772C202.329,307.341,193.681,324.198,194.057,342.323"/>
<path class="path-1" d="M194.057,342.323C194.345,348.000,198.195,360.223,193.019,364.334"/>
<path class="path-1" d="M193.019,364.334C191.270,365.724,186.468,362.998,185.572,364.379"/>
<path class="path-1" d="M185.572,364.379C183.792,367.109,180.067,357.429,179.413,355.964"/>
<path class="path-1" d="M179.413,355.964C178.736,354.451,176.944,345.932,176.871,343.508"/>
<path class="path-1" d="M176.871,343.508C177.021,338.812,178.096,329.704,179.080,323.860"/>
<path class="path-1" d="M179.080,323.860C180.107,318.032,180.145,311.723,182.705,305.720"/>
<path class="path-1" d="M182.705,305.720C184.948,299.029,189.306,291.694,191.695,284.193"/>
<path class="path-1" d="M191.695,284.193C194.243,279.594,197.940,277.137,197.608,273.435"/>
<path class="path-1" d="M197.608,273.435C196.929,269.745,195.302,267.750,198.597,266.310"/>
<path class="path-2" d="M198.597,266.310C202.766,264.831,212.361,265.935,212.996,270.988C214.854,275.732,209.293,285.204,208.314,289.772C202.329,307.341,193.681,324.198,194.057,342.323C194.345,348.000,198.195,360.223,193.019,364.334C191.270,365.724,186.468,362.998,185.572,364.379C183.792,367.109,180.067,357.429,179.413,355.964C178.736,354.451,176.944,345.932,176.871,343.508C177.021,338.812,178.096,329.704,179.080,323.860C180.107,318.032,180.145,311.723,182.705,305.720C184.948,299.029,189.306,291.694,191.695,284.193C194.243,279.594,197.940,277.137,197.608,273.435C196.929,269.745,195.302,267.750,198.597,266.310Z"/>
<path class="path-1" d="M290.697,239.416C294.656,239.332,301.138,242.728,300.446,247.181"/>
<path class="path-1" d="M300.446,247.181C300.170,250.195,293.610,259.013,288.756,261.870"/>
<path class="path-1" d="M288.756,261.870C285.865,263.571,279.617,263.821,277.800,264.113"/>
<path class="path-1" d="M277.800,264.113C273.811,264.536,273.369,261.089,273.158,258.280"/>
<path class="path-1" d="M273.158,258.280C272.981,253.779,276.116,247.330,279.476,244.110"/>
<path class="path-1" d="M279.476,244.110C282.110,241.585,286.692,239.358,290.697,239.416"/>
<path class="path-2" d="M290.697,239.416C294.656,239.332,301.138,242.728,300.446,247.181C300.170,250.195,293.610,259.013,288.756,261.870C285.865,263.571,279.617,263.821,277.800,264.113C273.811,264.536,273.369,261.089,273.158,258.280C272.981,253.779,276.116,247.330,279.476,244.110C282.110,241.585,286.692,239.358,290.697,239.416Z"/>
<path class="path-1" d="M215.235,243.406C219.712,252.331,224.714,261.469,219.474,260.596"/>
<path class="path-1" d="M219.474,260.596C213.472,259.596,210.540,259.173,201.147,255.307"/>
<path class="path-1" d="M201.147,255.307C190.661,250.992,187.885,235.939,193.797,231.249"/>
<path class="path-1" d="M193.797,231.249C199.590,226.655,209.986,232.940,215.235,243.406"/>
<path class="path-2" d="M215.235,243.406C219.712,252.331,224.714,261.469,219.474,260.596C213.472,259.596,210.540,259.173,201.147,255.307C190.661,250.992,187.885,235.939,193.797,231.249C199.590,226.655,209.986,232.940,215.235,243.406Z"/>
</g>
<g id="left_arm">
<path class="path-0" d="M307.486,463.932C304.170,458.600,302.862,449.614,310.519,447.305C315.846,445.652,339.788,451.031,343.771,455.033C350.743,461.371,346.717,475.999,338.058,479.307C328.069,482.609,312.790,472.262,307.486,463.932M290.173,283.170C290.769,279.909,298.324,269.049,303.435,269.727C306.404,270.121,308.236,274.985,309.462,277.551C312.835,285.605,316.340,293.956,319.311,302.406C327.427,324.808,333.642,347.370,338.977,370.184C340.887,379.452,340.589,391.812,343.898,400.138C347.868,409.795,354.196,406.484,357.175,412.811C358.500,415.808,357.822,421.463,359.807,426.125C362.784,433.452,368.430,437.457,371.081,442.120C372.739,444.785,373.397,447.781,369.736,448.440C367.738,449.433,362.416,448.423,360.420,448.418C353.767,446.631,347.118,444.841,340.471,443.048C331.493,441.031,304.214,439.636,299.571,433.637C292.606,424.307,303.607,413.353,304.964,404.041C305.630,401.077,309.170,357.518,308.415,354.632C307.439,347.940,303.179,342.401,301.050,335.617C298.609,326.311,296.087,316.359,293.889,306.628C292.218,298.505,288.152,292.023,290.173,283.170M314.197,259.104C311.473,254.665,303.457,247.016,297.607,248.862C292.751,250.622,292.610,256.646,292.292,260.681C291.504,270.768,290.238,279.229,291.077,288.840C291.352,295.829,292.578,302.066,293.806,308.639C295.217,317.599,294.974,335.124,295.894,345.427C296.448,354.996,299.026,364.846,298.492,373.120C296.823,392.550,288.018,410.884,288.636,430.287C288.616,440.091,291.267,440.086,293.550,447.930C295.208,453.920,293.855,460.241,296.169,465.902C302.123,480.887,319.392,494.567,336.367,491.280C352.010,488.322,352.716,471.356,361.053,462.392C368.391,454.424,383.020,458.451,385.036,450.137C387.048,443.155,377.418,435.482,373.771,430.150C366.474,420.152,372.135,417.836,368.494,410.176C365.846,404.514,358.204,399.506,354.562,392.178C352.573,388.845,351.608,382.518,350.269,378.194C347.498,367.869,344.716,356.113,342.493,345.186C340.222,332.722,338.424,321.696,333.925,309.146C330.352,298.771,319.561,266.984,314.197,259.104Z"/>
<path class="path-1" d="M303.435,269.727C306.404,270.121,308.236,274.985,309.462,277.551"/>
<path class="path-1" d="M309.462,277.551C312.835,285.605,316.340,293.956,319.311,302.406"/>
<path class="path-1" d="M319.311,302.406C327.427,324.808,333.642,347.370,338.977,370.184"/>
<path class="path-1" d="M338.977,370.184C340.887,379.452,340.589,391.812,343.898,400.138"/>
<path class="path-1" d="M343.898,400.138C347.868,409.795,354.196,406.484,357.175,412.811"/>
<path class="path-1" d="M357.175,412.811C358.500,415.808,357.822,421.463,359.807,426.125"/>
<path class="path-1" d="M359.807,426.125C362.784,433.452,368.430,437.457,371.081,442.120"/>
<path class="path-1" d="M371.081,442.120C372.739,444.785,373.397,447.781,369.736,448.440"/>
<path class="path-1" d="M369.736,448.440C367.738,449.433,362.416,448.423,360.420,448.418"/>
<path class="path-1" d="M360.420,448.418C353.767,446.631,347.118,444.841,340.471,443.048"/>
<path class="path-1" d="M340.471,443.048C331.493,441.031,304.214,439.636,299.571,433.637"/>
<path class="path-1" d="M299.571,433.637C292.606,424.307,303.607,413.353,304.964,404.041"/>
<path class="path-1" d="M304.964,404.041C305.630,401.077,309.170,357.518,308.415,354.632"/>
<path class="path-1" d="M308.415,354.632C307.439,347.940,303.179,342.401,301.050,335.617"/>
<path class="path-1" d="M301.050,335.617C298.609,326.311,296.087,316.359,293.889,306.628"/>
<path class="path-1" d="M293.889,306.628C292.218,298.505,288.152,292.023,290.173,283.170"/>
<path class="path-1" d="M290.173,283.170C290.769,279.909,298.324,269.049,303.435,269.727"/>
<path class="path-2" d="M303.435,269.727C306.404,270.121,308.236,274.985,309.462,277.551C312.835,285.605,316.340,293.956,319.311,302.406C327.427,324.808,333.642,347.370,338.977,370.184C340.887,379.452,340.589,391.812,343.898,400.138C347.868,409.795,354.196,406.484,357.175,412.811C358.500,415.808,357.822,421.463,359.807,426.125C362.784,433.452,368.430,437.457,371.081,442.120C372.739,444.785,373.397,447.781,369.736,448.440C367.738,449.433,362.416,448.423,360.420,448.418C353.767,446.631,347.118,444.841,340.471,443.048C331.493,441.031,304.214,439.636,299.571,433.637C292.606,424.307,303.607,413.353,304.964,404.041C305.630,401.077,309.170,357.518,308.415,354.632C307.439,347.940,303.179,342.401,301.050,335.617C298.609,326.311,296.087,316.359,293.889,306.628C292.218,298.505,288.152,292.023,290.173,283.170C290.769,279.909,298.324,269.049,303.435,269.727Z"/>
<path class="path-15" d="M310.519,447.305C315.846,445.652,339.788,451.031,343.771,455.033"/>
<path class="path-15" d="M343.771,455.033C350.743,461.371,346.717,475.999,338.058,479.307"/>
<path class="path-15" d="M338.058,479.307C328.069,482.609,312.790,472.262,307.486,463.932"/>
<path class="path-15" d="M307.486,463.932C304.170,458.600,302.862,449.614,310.519,447.305"/>
<path class="path-16" d="M310.519,447.305C315.846,445.652,339.788,451.031,343.771,455.033C350.743,461.371,346.717,475.999,338.058,479.307C328.069,482.609,312.790,472.262,307.486,463.932C304.170,458.600,302.862,449.614,310.519,447.305Z"/>
</g>
<g id="bone">
<g id="bone_B20">
<path class="path-23" d="M245.428,135.679C244.790,123.719,244.151,111.759,243.512,99.799"/>
</g>
<g id="bone_">
<path class="path-23" d="M552.381,338.786C576.363,338.786,600.344,338.786,624.326,338.786"/>
</g>
<g id="bone_">
<path class="path-23" d="M496.479,337.308C483.250,317.750,470.022,298.191,456.794,278.632"/>
</g>
<g id="bone_">
<path class="path-23" d="M436.410,337.308C437.696,313.731,438.981,290.154,440.267,266.577"/>
</g>
<g id="bone_">
<path class="path-23" d="M604.616,215.385C584.493,227.738,564.370,240.092,544.248,252.445"/>
</g>
<g id="bone_">
<path class="path-23" d="M436.410,216.411C460.000,217.438,483.590,218.465,507.180,219.492"/>
</g>
<g id="bone_">
<path class="path-23" d="M551.282,215.385C551.282,191.773,551.282,168.161,551.282,144.549"/>
</g>
<g id="bone_">
<path class="path-23" d="M495.897,216.411C472.491,219.520,449.084,222.629,425.678,225.738"/>
</g>
<g id="bone_B18">
<path class="path-23" d="M213.601,389.140C211.454,421.077,209.306,453.014,207.159,484.950"/>
</g>
<g id="bone_B17">
<path class="path-23" d="M259.755,389.140C273.059,421.168,286.363,453.196,299.666,485.224"/>
</g>
<g id="bone_B16">
<path class="path-23" d="M246.796,161.264C253.591,185.281,260.387,209.298,267.182,233.315"/>
</g>
<g id="bone_B14">
<path class="path-23" d="M151.793,380.171C159.687,397.603,167.580,415.036,175.473,432.469"/>
</g>
<g id="bone_B13">
<path class="path-23" d="M186.325,271.844C174.815,307.953,163.304,344.062,151.793,380.171"/>
</g>
<g id="bone_B11">
<path class="path-23" d="M322.994,352.877C325.336,374.762,327.679,396.648,330.022,418.534"/>
</g>
<g id="bone_B9">
<path class="path-23" d="M299.733,263.277C307.487,293.143,315.240,323.010,322.994,352.877"/>
</g>
<g id="bone_B5">
<path class="path-23" d="M249.702,215.658C248.277,188.999,246.853,162.339,245.428,135.679"/>
</g>
<g id="bone_B4">
<path class="path-23" d="M243.555,257.308C245.604,243.425,247.653,229.541,249.702,215.658"/>
</g>
<g id="bone_B3">
<path class="path-23" d="M244.950,330.296C244.485,305.967,244.020,281.637,243.555,257.308"/>
</g>
<g id="bone_B2">
<path class="path-23" d="M236.165,389.140C239.093,369.525,242.021,349.911,244.950,330.296"/>
</g>
<g id="bone_B1">
<path class="path-23" d="M236.165,389.140C248.142,389.140,260.119,389.140,272.096,389.140"/>
</g>
</g>
</g>
<style>
.path-0{fill:#000000;fill-rule:evenodd;stroke:none;}
.path-1{fill:none;stroke:#a60d3f;stroke-width:1;stroke-linecap:butt;stroke-linejoin:round;}
.path-2{fill:#a60d3f;fill-rule:evenodd;stroke:none;}
.path-3{fill:none;stroke:#d88e4b;stroke-width:1;stroke-linecap:butt;stroke-linejoin:round;}
.path-4{fill:#d88e4b;fill-rule:evenodd;stroke:none;}
.path-5{fill:none;stroke:#6e2353;stroke-width:1;stroke-linecap:butt;stroke-linejoin:round;}
.path-6{fill:#6e2353;fill-rule:evenodd;stroke:none;}
.path-7{fill:none;stroke:#392966;stroke-width:1;stroke-linecap:butt;stroke-linejoin:round;}
.path-8{fill:#392966;fill-rule:evenodd;stroke:none;}
.path-9{fill:none;stroke:#cc9bc5;stroke-width:1;stroke-linecap:butt;stroke-linejoin:round;}
.path-10{fill:#cc9bc5;fill-rule:evenodd;stroke:none;}
.path-11{fill:none;stroke:#620527;stroke-width:1;stroke-linecap:butt;stroke-linejoin:round;}
.path-12{fill:#620527;fill-rule:evenodd;stroke:none;}
.path-13{fill:none;stroke:#6a3661;stroke-width:1;stroke-linecap:butt;stroke-linejoin:round;}
.path-14{fill:#6a3661;fill-rule:evenodd;stroke:none;}
.path-15{fill:none;stroke:#f8a087;stroke-width:1;stroke-linecap:butt;stroke-linejoin:round;}
.path-16{fill:#f8a087;fill-rule:evenodd;stroke:none;}
.path-17{fill:none;stroke:#ffffff;stroke-width:1;stroke-linecap:butt;stroke-linejoin:round;}
.path-18{fill:#ffffff;fill-rule:evenodd;stroke:none;}
.path-19{fill:none;stroke:#d89f4a;stroke-width:1;stroke-linecap:butt;stroke-linejoin:round;}
.path-20{fill:#d89f4a;fill-rule:evenodd;stroke:none;}
.path-21{fill:none;stroke:#fafd5b;stroke-width:1;stroke-linecap:butt;stroke-linejoin:round;}
.path-22{fill:#fafd5b;fill-rule:evenodd;stroke:none;}
.path-23{fill:none;stroke:#00ff00;stroke-width:8;stroke-linecap:round;stroke-linejoin:round;}
.path-24{fill:none;stroke:#000000;stroke-width:1;stroke-linecap:butt;stroke-linejoin:round;}
</style>
</svg>
