<svg version="1.1" id="Frame_144" xmlns="http://www.w3.org/2000/svg" xmlns:xlink="http://www.w3.org/1999/xlink" width="480px" height="720px">
<g id="main_bone">
<g id="right_arm">
<path class="path-0" d="M168.325,273.272C169.741,270.620,172.512,265.151,176.277,263.706C182.684,261.247,188.103,267.167,188.797,271.728C190.315,279.668,184.662,290.411,182.039,298.224C175.582,317.068,168.537,335.681,164.210,354.586C163.708,357.886,159.488,379.278,159.422,376.623C159.257,383.271,166.042,388.748,168.521,394.328C171.711,401.868,169.179,409.206,167.490,416.247C163.519,430.872,164.108,436.162,164.550,450.285C164.726,452.540,165.133,459.917,161.597,460.304C158.224,460.673,157.240,454.615,156.340,452.314C155.754,449.687,152.917,444.226,153.411,441.847C153.445,437.858,158.083,438.641,152.725,430.603C145.911,420.590,134.131,412.528,130.760,399.294C128.467,388.722,133.807,379.245,136.635,369.230C142.625,347.779,149.340,326.317,156.971,305.070C161.140,294.082,162.671,284.507,168.325,273.272M188.273,265.442C188.431,256.860,185.499,249.309,174.872,252.754C157.959,258.171,152.367,284.430,147.476,299.166C140.530,319.170,134.822,339.271,129.414,359.439C127.208,368.114,124.090,372.543,122.887,377.563C121.371,383.251,121.916,391.882,122.406,397.518C122.899,415.174,128.380,415.807,136.034,429.115C140.108,436.971,136.489,442.205,139.343,449.053C141.400,453.703,145.415,456.833,148.535,460.654C151.307,464.496,151.987,466.778,154.074,470.330C156.591,474.559,164.077,483.947,169.646,481.235C173.964,479.113,173.031,471.080,172.955,467.183C172.680,461.337,174.053,438.678,174.912,431.790C176.494,420.459,181.904,408.128,179.874,395.990C178.259,386.749,169.805,380.332,169.902,370.377C170.106,365.066,173.196,356.372,174.127,350.394C175.672,340.815,175.650,330.583,177.762,320.718C181.307,303.240,188.602,283.639,188.273,265.442Z"/>
<path class="path-1" d="M176.277,263.706C182.684,261.247,188.103,267.167,188.797,271.728"/>
<path class="path-1" d="M188.797,271.728C190.315,279.668,184.662,290.411,182.039,298.224"/>
<path class="path-1" d="M182.039,298.224C175.582,317.068,168.537,335.681,164.210,354.586"/>
<path class="path-1" d="M164.210,354.586C163.708,357.886,159.488,379.278,159.422,376.623"/>
<path class="path-1" d="M159.422,376.623C159.257,383.271,166.042,388.748,168.521,394.328"/>
<path class="path-1" d="M168.521,394.328C171.711,401.868,169.179,409.206,167.490,416.247"/>
<path class="path-1" d="M167.490,416.247C163.519,430.872,164.108,436.162,164.550,450.285"/>
<path class="path-1" d="M164.550,450.285C164.726,452.540,165.133,459.917,161.597,460.304"/>
<path class="path-1" d="M161.597,460.304C158.224,460.673,157.240,454.615,156.340,452.314"/>
<path class="path-1" d="M156.340,452.314C155.754,449.687,152.917,444.226,153.411,441.847"/>
<path class="path-1" d="M153.411,441.847C153.445,437.858,158.083,438.641,152.725,430.603"/>
<path class="path-1" d="M152.725,430.603C145.911,420.590,134.131,412.528,130.760,399.294"/>
<path class="path-1" d="M130.760,399.294C128.467,388.722,133.807,379.245,136.635,369.230"/>
<path class="path-1" d="M136.635,369.230C142.625,347.779,149.340,326.317,156.971,305.070"/>
<path class="path-1" d="M156.971,305.070C161.140,294.082,162.671,284.507,168.325,273.272"/>
<path class="path-1" d="M168.325,273.272C169.741,270.620,172.512,265.151,176.277,263.706"/>
<path class="path-2" d="M176.277,263.706C182.684,261.247,188.103,267.167,188.797,271.728C190.315,279.668,184.662,290.411,182.039,298.224C175.582,317.068,168.537,335.681,164.210,354.586C163.708,357.886,159.488,379.278,159.422,376.623C159.257,383.271,166.042,388.748,168.521,394.328C171.711,401.868,169.179,409.206,167.490,416.247C163.519,430.872,164.108,436.162,164.550,450.285C164.726,452.540,165.133,459.917,161.597,460.304C158.224,460.673,157.240,454.615,156.340,452.314C155.754,449.687,152.917,444.226,153.411,441.847C153.445,437.858,158.083,438.641,152.725,430.603C145.911,420.590,134.131,412.528,130.760,399.294C128.467,388.722,133.807,379.245,136.635,369.230C142.625,347.779,149.340,326.317,156.971,305.070C161.140,294.082,162.671,284.507,168.325,273.272C169.741,270.620,172.512,265.151,176.277,263.706Z"/>
</g>
<g id="layer_left_leg">
<g id="left_heel">
<path class="path-0" d="M251.504,549.399C242.892,539.852,253.488,516.767,264.108,514.103C277.968,510.422,284.540,534.844,283.284,540.019C281.511,546.435,273.142,551.100,267.620,552.402C263.583,553.214,254.075,552.412,251.504,549.399M286.502,511.743C280.387,505.014,265.659,505.562,258.093,508.914C230.206,520.429,232.044,576.914,270.707,561.805C277.719,559.116,291.641,551.551,294.376,544.702C297.244,538.938,294.644,532.886,292.850,527.141C291.109,522.545,289.853,515.539,286.502,511.743Z"/>
<path class="path-3" d="M264.108,514.103C277.968,510.422,284.540,534.844,283.284,540.019"/>
<path class="path-3" d="M283.284,540.019C281.511,546.435,273.142,551.100,267.620,552.402"/>
<path class="path-3" d="M267.620,552.402C263.583,553.214,254.075,552.412,251.504,549.399"/>
<path class="path-3" d="M251.504,549.399C242.892,539.852,253.488,516.767,264.108,514.103"/>
<path class="path-4" d="M264.108,514.103C277.968,510.422,284.540,534.844,283.284,540.019C281.511,546.435,273.142,551.100,267.620,552.402C263.583,553.214,254.075,552.412,251.504,549.399C242.892,539.852,253.488,516.767,264.108,514.103Z"/>
</g>
<g id="left_sole">
<path class="path-0" d="M266.153,580.166C257.531,580.437,258.139,575.381,253.458,572.725C250.262,570.911,260.496,577.883,263.332,578.915C272.466,582.778,284.128,581.266,292.241,578.343C294.797,577.647,303.079,576.508,302.974,576.692C302.354,577.775,288.573,580.311,283.892,580.500C281.066,580.807,266.729,580.088,266.153,580.166M258.621,569.849C261.551,567.293,266.063,571.913,267.547,573.174C273.709,578.414,288.719,577.087,296.517,573.307C297.433,572.889,298.924,569.967,302.816,568.893C305.822,568.063,291.126,575.474,285.233,575.252C276.221,575.840,256.106,572.043,258.621,569.849M300.147,559.812C297.332,559.119,277.471,558.098,263.671,554.309C257.900,552.745,246.162,565.067,247.289,572.829C247.833,576.515,255.726,584.208,259.070,585.674C271.423,591.623,298.914,582.333,303.428,578.917C306.054,576.930,311.185,562.529,300.147,559.812Z"/>
<path class="path-5" d="M253.458,572.725C250.262,570.911,260.496,577.883,263.332,578.915"/>
<path class="path-5" d="M263.332,578.915C272.466,582.778,284.128,581.266,292.241,578.343"/>
<path class="path-5" d="M292.241,578.343C294.797,577.647,303.079,576.508,302.974,576.692"/>
<path class="path-5" d="M302.974,576.692C302.354,577.775,288.573,580.311,283.892,580.500"/>
<path class="path-5" d="M283.892,580.500C281.066,580.807,266.729,580.088,266.153,580.166"/>
<path class="path-5" d="M266.153,580.166C257.531,580.437,258.139,575.381,253.458,572.725"/>
<path class="path-6" d="M253.458,572.725C250.262,570.911,260.496,577.883,263.332,578.915C272.466,582.778,284.128,581.266,292.241,578.343C294.797,577.647,303.079,576.508,302.974,576.692C302.354,577.775,288.573,580.311,283.892,580.500C281.066,580.807,266.729,580.088,266.153,580.166C257.531,580.437,258.139,575.381,253.458,572.725Z"/>
<path class="path-5" d="M267.547,573.174C273.709,578.414,288.719,577.087,296.517,573.307"/>
<path class="path-5" d="M296.517,573.307C297.433,572.889,298.924,569.967,302.816,568.893"/>
<path class="path-5" d="M302.816,568.893C305.822,568.063,291.126,575.474,285.233,575.252"/>
<path class="path-5" d="M285.233,575.252C276.221,575.840,256.106,572.043,258.621,569.849"/>
<path class="path-5" d="M258.621,569.849C261.551,567.293,266.063,571.913,267.547,573.174"/>
<path class="path-6" d="M267.547,573.174C273.709,578.414,288.719,577.087,296.517,573.307C297.433,572.889,298.924,569.967,302.816,568.893C305.822,568.063,291.126,575.474,285.233,575.252C276.221,575.840,256.106,572.043,258.621,569.849C261.551,567.293,266.063,571.913,267.547,573.174Z"/>
</g>
<g id="left_toe">
<path class="path-0" d="M270.350,587.785C242.994,586.441,251.461,547.241,269.015,549.131C280.549,550.477,289.857,555.613,295.796,562.771C299.172,566.462,298.724,571.716,296.820,576.467C292.888,584.322,278.201,588.111,270.350,587.785M297.180,545.351C287.683,542.163,271.841,542.564,262.052,542.662C241.408,542.993,242.309,562.636,243.921,579.093C244.241,584.063,244.761,588.682,248.083,592.393C255.363,600.034,279.471,599.410,289.129,596.506C296.067,593.887,304.501,589.101,307.210,581.575C310.251,573.503,305.134,548.151,297.180,545.351Z"/>
<path class="path-3" d="M269.015,549.131C280.549,550.477,289.857,555.613,295.796,562.771"/>
<path class="path-3" d="M295.796,562.771C299.172,566.462,298.724,571.716,296.820,576.467"/>
<path class="path-3" d="M296.820,576.467C292.888,584.322,278.201,588.111,270.350,587.785"/>
<path class="path-3" d="M270.350,587.785C242.994,586.441,251.461,547.241,269.015,549.131"/>
<path class="path-4" d="M269.015,549.131C280.549,550.477,289.857,555.613,295.796,562.771C299.172,566.462,298.724,571.716,296.820,576.467C292.888,584.322,278.201,588.111,270.350,587.785C242.994,586.441,251.461,547.241,269.015,549.131Z"/>
</g>
<g id="left_leg">
<path class="path-0" d="M232.129,418.217C229.669,412.244,244.792,410.367,249.696,409.008C255.196,407.766,267.756,406.684,272.661,409.684C284.086,416.157,292.372,451.190,294.283,463.676C296.266,479.684,300.931,494.529,300.542,510.101C300.159,517.950,297.850,525.845,296.303,533.393C295.483,538.453,290.746,545.556,294.469,548.638C295.809,550.212,298.622,547.990,300.290,548.935C302.128,550.134,302.495,549.903,303.393,551.181C308.158,558.421,294.239,570.524,286.642,572.584C278.534,575.078,260.486,573.137,255.426,566.469C253.276,563.634,252.164,559.582,250.984,556.297C242.024,530.296,243.717,483.630,248.223,458.458C249.435,451.684,258.735,463.888,262.204,459.384C266.553,453.680,248.994,433.076,243.660,428.129C240.461,425.606,233.443,421.975,232.129,418.217M281.441,399.292C274.470,394.853,256.298,397.499,248.860,399.397C242.335,401.034,219.750,402.595,217.199,407.826C212.948,416.545,228.202,428.848,231.668,435.956C233.258,439.857,232.913,460.227,232.992,465.897C233.909,478.487,232.480,489.349,233.025,501.961C233.663,523.291,227.799,544.964,235.915,564.384C244.412,584.318,263.690,594.695,287.991,585.261C305.768,578.673,311.382,574.867,315.252,554.677C316.996,546.149,315.037,545.227,314.487,537.829C313.942,530.861,313.795,523.589,313.075,516.133C310.308,495.100,308.616,473.898,303.429,453.200C300.123,439.951,293.585,407.060,281.441,399.292Z"/>
<path class="path-7" d="M249.696,409.008C255.196,407.766,267.756,406.684,272.661,409.684"/>
<path class="path-7" d="M272.661,409.684C284.086,416.157,292.372,451.190,294.283,463.676"/>
<path class="path-7" d="M294.283,463.676C296.266,479.684,300.931,494.529,300.542,510.101"/>
<path class="path-7" d="M300.542,510.101C300.159,517.950,297.850,525.845,296.303,533.393"/>
<path class="path-7" d="M296.303,533.393C295.483,538.453,290.746,545.556,294.469,548.638"/>
<path class="path-7" d="M294.469,548.638C295.809,550.212,298.622,547.990,300.290,548.935"/>
<path class="path-7" d="M300.290,548.935C302.128,550.134,302.495,549.903,303.393,551.181"/>
<path class="path-7" d="M303.393,551.181C308.158,558.421,294.239,570.524,286.642,572.584"/>
<path class="path-7" d="M286.642,572.584C278.534,575.078,260.486,573.137,255.426,566.469"/>
<path class="path-7" d="M255.426,566.469C253.276,563.634,252.164,559.582,250.984,556.297"/>
<path class="path-7" d="M250.984,556.297C242.024,530.296,243.717,483.630,248.223,458.458"/>
<path class="path-7" d="M248.223,458.458C249.435,451.684,258.735,463.888,262.204,459.384"/>
<path class="path-7" d="M262.204,459.384C266.553,453.680,248.994,433.076,243.660,428.129"/>
<path class="path-7" d="M243.660,428.129C240.461,425.606,233.443,421.975,232.129,418.217"/>
<path class="path-7" d="M232.129,418.217C229.669,412.244,244.792,410.367,249.696,409.008"/>
<path class="path-8" d="M249.696,409.008C255.196,407.766,267.756,406.684,272.661,409.684C284.086,416.157,292.372,451.190,294.283,463.676C296.266,479.684,300.931,494.529,300.542,510.101C300.159,517.950,297.850,525.845,296.303,533.393C295.483,538.453,290.746,545.556,294.469,548.638C295.809,550.212,298.622,547.990,300.290,548.935C302.128,550.134,302.495,549.903,303.393,551.181C308.158,558.421,294.239,570.524,286.642,572.584C278.534,575.078,260.486,573.137,255.426,566.469C253.276,563.634,252.164,559.582,250.984,556.297C242.024,530.296,243.717,483.630,248.223,458.458C249.435,451.684,258.735,463.888,262.204,459.384C266.553,453.680,248.994,433.076,243.660,428.129C240.461,425.606,233.443,421.975,232.129,418.217C229.669,412.244,244.792,410.367,249.696,409.008Z"/>
</g>
</g>
<g id="layer_right_leg">
<g id="right_heel">
<path class="path-0" d="M193.934,654.810C195.135,636.039,194.393,621.299,217.113,616.805C227.165,614.629,246.632,616.907,252.707,626.427C255.913,631.185,255.315,638.440,255.914,643.664C257.035,652.735,263.759,669.390,251.214,672.917C250.272,673.282,223.612,676.847,215.364,678.411C209.878,679.989,204.059,682.114,199.447,678.802C193.925,673.939,193.375,661.474,193.934,654.810M263.412,623.893C258.220,612.338,241.794,606.303,230.419,608.551C215.515,611.309,199.924,607.247,190.887,621.799C182.027,636.065,183.602,661.615,187.603,677.449C188.881,683.292,193.035,693.912,198.114,696.931C201.819,699.027,207.329,698.086,211.570,697.863C232.191,697.108,268.588,702.044,267.221,671.287C266.642,660.776,267.024,632.012,263.412,623.893Z"/>
<path class="path-3" d="M217.113,616.805C227.165,614.629,246.632,616.907,252.707,626.427"/>
<path class="path-3" d="M252.707,626.427C255.913,631.185,255.315,638.440,255.914,643.664"/>
<path class="path-3" d="M255.914,643.664C257.035,652.735,263.759,669.390,251.214,672.917"/>
<path class="path-3" d="M251.214,672.917C250.272,673.282,223.612,676.847,215.364,678.411"/>
<path class="path-3" d="M215.364,678.411C209.878,679.989,204.059,682.114,199.447,678.802"/>
<path class="path-3" d="M199.447,678.802C193.925,673.939,193.375,661.474,193.934,654.810"/>
<path class="path-3" d="M193.934,654.810C195.135,636.039,194.393,621.299,217.113,616.805"/>
<path class="path-4" d="M217.113,616.805C227.165,614.629,246.632,616.907,252.707,626.427C255.913,631.185,255.315,638.440,255.914,643.664C257.035,652.735,263.759,669.390,251.214,672.917C250.272,673.282,223.612,676.847,215.364,678.411C209.878,679.989,204.059,682.114,199.447,678.802C193.925,673.939,193.375,661.474,193.934,654.810C195.135,636.039,194.393,621.299,217.113,616.805Z"/>
</g>
<g id="right_leg">
<path class="path-0" d="M177.919,410.390C177.205,401.696,187.988,396.695,195.648,396.477C201.806,396.176,211.015,398.159,216.898,400.959C219.202,402.056,222.379,403.877,223.710,406.054C224.651,407.595,224.088,410.299,224.872,411.959C227.901,418.924,232.424,420.211,233.706,424.676C234.868,428.720,233.140,433.827,233.129,438.689C234.056,457.542,235.069,477.160,238.315,495.183C239.933,504.715,243.318,518.428,244.969,527.236C246.601,537.901,240.581,539.891,241.486,546.232C241.764,549.730,249.653,565.766,251.754,569.982C257.250,580.488,263.785,592.241,264.478,604.137C265.164,615.912,248.037,631.623,237.264,634.028C225.097,636.492,190.064,626.445,178.486,621.111C173.173,618.849,164.127,615.427,162.116,609.575C160.517,605.625,164.082,587.105,165.944,582.871C168.907,576.768,171.491,575.512,173.412,567.805C175.609,557.526,174.437,546.236,174.175,535.482C173.350,519.829,175.268,483.548,178.362,469.401C180.076,460.523,182.791,430.535,182.301,422.164C181.965,415.360,178.597,414.960,177.919,410.390M201.928,385.473C196.176,383.777,191.574,378.683,185.700,380.996C183.530,382.065,179.850,385.092,178.355,386.767C163.576,400.808,164.258,413.824,165.239,432.726C165.316,440.399,165.584,448.353,166.065,455.712C166.296,460.802,166.711,465.239,166.039,469.984C165.712,474.290,164.397,478.745,164.122,484.078C163.962,490.063,165.842,497.096,165.683,507.264C164.793,517.404,163.656,526.944,163.711,536.673C163.939,542.492,164.514,556.244,163.825,560.693C162.144,566.339,158.669,572.452,156.404,577.537C152.918,586.748,151.275,596.723,152.456,605.988C152.869,611.548,153.964,618.794,157.012,623.059C161.230,628.960,168.824,632.085,175.146,634.869C186.335,639.723,197.258,641.694,209.437,643.482C214.189,644.217,218.902,644.822,223.894,645.123C225.307,644.992,237.004,644.908,239.278,644.668C248.942,643.081,262.686,633.165,268.143,624.364C270.042,620.896,272.683,616.274,273.307,612.258C273.902,608.414,273.069,604.480,273.080,600.587C272.820,577.270,264.930,567.438,259.164,547.902C256.822,539.966,254.893,523.076,253.571,514.008C251.043,498.851,247.298,484.186,246.423,468.369C246.299,464.838,245.924,460.352,247.450,456.625C248.777,453.212,251.272,450.984,251.791,447.414C252.214,442.450,247.804,426.982,246.482,421.772C245.709,418.134,245.714,413.483,244.192,409.899C240.048,400.788,225.552,391.225,216.091,388.725C211.353,387.307,206.353,387.239,201.928,385.473Z"/>
<path class="path-7" d="M195.648,396.477C201.806,396.176,211.015,398.159,216.898,400.959"/>
<path class="path-7" d="M216.898,400.959C219.202,402.056,222.379,403.877,223.710,406.054"/>
<path class="path-7" d="M223.710,406.054C224.651,407.595,224.088,410.299,224.872,411.959"/>
<path class="path-7" d="M224.872,411.959C227.901,418.924,232.424,420.211,233.706,424.676"/>
<path class="path-7" d="M233.706,424.676C234.868,428.720,233.140,433.827,233.129,438.689"/>
<path class="path-7" d="M233.129,438.689C234.056,457.542,235.069,477.160,238.315,495.183"/>
<path class="path-7" d="M238.315,495.183C239.933,504.715,243.318,518.428,244.969,527.236"/>
<path class="path-7" d="M244.969,527.236C246.601,537.901,240.581,539.891,241.486,546.232"/>
<path class="path-7" d="M241.486,546.232C241.764,549.730,249.653,565.766,251.754,569.982"/>
<path class="path-7" d="M251.754,569.982C257.250,580.488,263.785,592.241,264.478,604.137"/>
<path class="path-7" d="M264.478,604.137C265.164,615.912,248.037,631.623,237.264,634.028"/>
<path class="path-7" d="M237.264,634.028C225.097,636.492,190.064,626.445,178.486,621.111"/>
<path class="path-7" d="M178.486,621.111C173.173,618.849,164.127,615.427,162.116,609.575"/>
<path class="path-7" d="M162.116,609.575C160.517,605.625,164.082,587.105,165.944,582.871"/>
<path class="path-7" d="M165.944,582.871C168.907,576.768,171.491,575.512,173.412,567.805"/>
<path class="path-7" d="M173.412,567.805C175.609,557.526,174.437,546.236,174.175,535.482"/>
<path class="path-7" d="M174.175,535.482C173.350,519.829,175.268,483.548,178.362,469.401"/>
<path class="path-7" d="M178.362,469.401C180.076,460.523,182.791,430.535,182.301,422.164"/>
<path class="path-7" d="M182.301,422.164C181.965,415.360,178.597,414.960,177.919,410.390"/>
<path class="path-7" d="M177.919,410.390C177.205,401.696,187.988,396.695,195.648,396.477"/>
<path class="path-8" d="M195.648,396.477C201.806,396.176,211.015,398.159,216.898,400.959C219.202,402.056,222.379,403.877,223.710,406.054C224.651,407.595,224.088,410.299,224.872,411.959C227.901,418.924,232.424,420.211,233.706,424.676C234.868,428.720,233.140,433.827,233.129,438.689C234.056,457.542,235.069,477.160,238.315,495.183C239.933,504.715,243.318,518.428,244.969,527.236C246.601,537.901,240.581,539.891,241.486,546.232C241.764,549.730,249.653,565.766,251.754,569.982C257.250,580.488,263.785,592.241,264.478,604.137C265.164,615.912,248.037,631.623,237.264,634.028C225.097,636.492,190.064,626.445,178.486,621.111C173.173,618.849,164.127,615.427,162.116,609.575C160.517,605.625,164.082,587.105,165.944,582.871C168.907,576.768,171.491,575.512,173.412,567.805C175.609,557.526,174.437,546.236,174.175,535.482C173.350,519.829,175.268,483.548,178.362,469.401C180.076,460.523,182.791,430.535,182.301,422.164C181.965,415.360,178.597,414.960,177.919,410.390C177.205,401.696,187.988,396.695,195.648,396.477Z"/>
</g>
<g id="right_toe">
<path class="path-0" d="M162.882,663.919C163.280,645.964,167.052,622.350,188.286,616.702C193.160,615.132,200.492,616.392,206.140,617.104C236.092,620.804,245.609,629.128,248.928,659.389C249.597,666.893,251.993,675.685,247.634,682.703C242.479,690.838,211.945,696.856,202.407,697.437C187.638,698.659,175.689,698.907,166.299,685.389C160.775,677.256,162.692,673.113,162.882,663.919M255.205,629.919C245.484,612.774,203.832,603.565,185.779,608.690C158.714,616.537,155.304,640.427,154.623,663.995C154.357,671.314,152.285,679.409,155.985,685.831C158.109,689.518,163.098,694.020,166.410,696.710C182.442,710.883,192.927,707.754,212.835,706.391C224.486,705.789,243.881,704.126,252.846,695.853C259.668,688.943,259.886,681.721,259.719,672.572C259.241,663.757,259.138,636.261,255.205,629.919Z"/>
<path class="path-3" d="M188.286,616.702C193.160,615.132,200.492,616.392,206.140,617.104"/>
<path class="path-3" d="M206.140,617.104C236.092,620.804,245.609,629.128,248.928,659.389"/>
<path class="path-3" d="M248.928,659.389C249.597,666.893,251.993,675.685,247.634,682.703"/>
<path class="path-3" d="M247.634,682.703C242.479,690.838,211.945,696.856,202.407,697.437"/>
<path class="path-3" d="M202.407,697.437C187.638,698.659,175.689,698.907,166.299,685.389"/>
<path class="path-3" d="M166.299,685.389C160.775,677.256,162.692,673.113,162.882,663.919"/>
<path class="path-3" d="M162.882,663.919C163.280,645.964,167.052,622.350,188.286,616.702"/>
<path class="path-4" d="M188.286,616.702C193.160,615.132,200.492,616.392,206.140,617.104C236.092,620.804,245.609,629.128,248.928,659.389C249.597,666.893,251.993,675.685,247.634,682.703C242.479,690.838,211.945,696.856,202.407,697.437C187.638,698.659,175.689,698.907,166.299,685.389C160.775,677.256,162.692,673.113,162.882,663.919C163.280,645.964,167.052,622.350,188.286,616.702Z"/>
</g>
<g id="right_sole">
<path class="path-0" d="M191.927,702.881C193.923,702.959,210.666,701.740,212.899,701.644C214.606,701.586,223.365,701.701,224.830,701.666C225.779,701.655,234.104,701.589,234.755,702.030C233.949,702.313,225.350,703.653,224.829,703.707C223.645,703.854,194.232,704.913,193.844,705.072C192.749,705.114,181.451,704.495,180.185,703.924C181.485,703.005,189.839,702.799,191.927,702.881M238.890,691.086C239.513,692.210,238.551,695.708,236.694,696.154C234.476,696.695,221.907,699.328,218.872,698.806C215.389,698.826,208.560,699.695,205.421,699.764C199.066,699.902,182.752,703.130,178.133,698.815C176.960,697.259,176.920,694.581,177.517,693.694C177.903,693.122,183.612,693.450,186.304,693.318C191.297,693.073,203.195,693.092,208.312,692.805C213.521,692.512,225.308,691.436,230.633,690.813C231.469,690.737,237.958,689.403,238.890,691.086M245.139,686.886C231.967,682.714,222.538,685.104,209.238,685.782C200.387,686.285,182.406,684.930,172.875,690.416C170.299,691.899,165.991,694.613,166.211,697.749C166.389,700.196,170.547,704.906,173.566,706.563C177.121,708.513,184.169,707.897,186.992,708.115C201.402,709.755,219.595,707.641,233.983,706.039C245.069,704.805,247.541,700.420,248.660,695.032C249.202,692.425,250.157,688.404,245.139,686.886Z"/>
<path class="path-5" d="M191.927,702.881C193.923,702.959,210.666,701.740,212.899,701.644"/>
<path class="path-5" d="M212.899,701.644C214.606,701.586,223.365,701.701,224.830,701.666"/>
<path class="path-5" d="M224.830,701.666C225.779,701.655,234.104,701.589,234.755,702.030"/>
<path class="path-5" d="M234.755,702.030C233.949,702.313,225.350,703.653,224.829,703.707"/>
<path class="path-5" d="M224.829,703.707C223.645,703.854,194.232,704.913,193.844,705.072"/>
<path class="path-5" d="M193.844,705.072C192.749,705.114,181.451,704.495,180.185,703.924"/>
<path class="path-5" d="M180.185,703.924C181.485,703.005,189.839,702.799,191.927,702.881"/>
<path class="path-6" d="M191.927,702.881C193.923,702.959,210.666,701.740,212.899,701.644C214.606,701.586,223.365,701.701,224.830,701.666C225.779,701.655,234.104,701.589,234.755,702.030C233.949,702.313,225.350,703.653,224.829,703.707C223.645,703.854,194.232,704.913,193.844,705.072C192.749,705.114,181.451,704.495,180.185,703.924C181.485,703.005,189.839,702.799,191.927,702.881Z"/>
<path class="path-5" d="M186.304,693.318C191.297,693.073,203.195,693.092,208.312,692.805"/>
<path class="path-5" d="M208.312,692.805C213.521,692.512,225.308,691.436,230.633,690.813"/>
<path class="path-5" d="M230.633,690.813C231.469,690.737,237.958,689.403,238.890,691.086"/>
<path class="path-5" d="M238.890,691.086C239.513,692.210,238.551,695.708,236.694,696.154"/>
<path class="path-5" d="M236.694,696.154C234.476,696.695,221.907,699.328,218.872,698.806"/>
<path class="path-5" d="M218.872,698.806C215.389,698.826,208.560,699.695,205.421,699.764"/>
<path class="path-5" d="M205.421,699.764C199.066,699.902,182.752,703.130,178.133,698.815"/>
<path class="path-5" d="M178.133,698.815C176.960,697.259,176.920,694.581,177.517,693.694"/>
<path class="path-5" d="M177.517,693.694C177.903,693.122,183.612,693.450,186.304,693.318"/>
<path class="path-6" d="M186.304,693.318C191.297,693.073,203.195,693.092,208.312,692.805C213.521,692.512,225.308,691.436,230.633,690.813C231.469,690.737,237.958,689.403,238.890,691.086C239.513,692.210,238.551,695.708,236.694,696.154C234.476,696.695,221.907,699.328,218.872,698.806C215.389,698.826,208.560,699.695,205.421,699.764C199.066,699.902,182.752,703.130,178.133,698.815C176.960,697.259,176.920,694.581,177.517,693.694C177.903,693.122,183.612,693.450,186.304,693.318Z"/>
</g>
</g>
<g id="hat_brim">
<path class="path-0" d="M283.080,143.352C286.792,137.396,295.920,121.175,303.904,121.246C309.228,121.293,320.120,131.040,325.748,134.085C330.712,137.123,336.012,139.832,341.644,142.543C344.841,144.241,348.042,145.933,351.246,147.619C365.487,155.066,361.438,161.353,353.132,159.947C334.532,156.453,331.526,157.758,313.645,148.282C311.324,147.263,305.366,143.884,304.329,148.199C302.955,153.178,311.899,157.583,315.543,159.279C322.163,162.999,329.447,167.056,337.426,167.792C339.752,168.146,347.743,167.550,349.051,169.891C351.018,173.237,341.294,181.800,339.280,183.778C335.925,186.743,332.573,189.707,329.225,192.007C324.205,195.288,318.855,198.235,313.191,199.182C302.534,200.419,269.402,184.818,268.507,173.166C267.902,166.507,279.031,149.638,283.080,143.352M315.920,117.029C310.968,112.659,307.365,106.304,300.016,109.567C294.671,111.849,288.948,119.450,285.254,123.410C271.465,139.922,258.982,159.441,259.454,181.071C259.665,194.713,264.325,194.423,275.256,199.842C291.816,208.308,313.084,211.159,331.123,203.004C342.814,197.784,363.269,180.000,368.699,168.071C370.397,164.093,373.471,155.138,371.183,150.460C368.572,144.779,346.368,134.934,339.748,131.215C331.802,126.819,322.856,122.746,315.920,117.029Z"/>
<path class="path-9" d="M303.904,121.246C309.228,121.293,320.120,131.040,325.748,134.085"/>
<path class="path-9" d="M325.748,134.085C330.712,137.123,336.012,139.832,341.644,142.543"/>
<path class="path-9" d="M341.644,142.543C344.841,144.241,348.042,145.933,351.246,147.619"/>
<path class="path-9" d="M351.246,147.619C365.487,155.066,361.438,161.353,353.132,159.947"/>
<path class="path-9" d="M353.132,159.947C334.532,156.453,331.526,157.758,313.645,148.282"/>
<path class="path-9" d="M313.645,148.282C311.324,147.263,305.366,143.884,304.329,148.199"/>
<path class="path-9" d="M304.329,148.199C302.955,153.178,311.899,157.583,315.543,159.279"/>
<path class="path-9" d="M315.543,159.279C322.163,162.999,329.447,167.056,337.426,167.792"/>
<path class="path-9" d="M337.426,167.792C339.752,168.146,347.743,167.550,349.051,169.891"/>
<path class="path-9" d="M349.051,169.891C351.018,173.237,341.294,181.800,339.280,183.778"/>
<path class="path-9" d="M339.280,183.778C335.925,186.743,332.573,189.707,329.225,192.007"/>
<path class="path-9" d="M329.225,192.007C324.205,195.288,318.855,198.235,313.191,199.182"/>
<path class="path-9" d="M313.191,199.182C302.534,200.419,269.402,184.818,268.507,173.166"/>
<path class="path-9" d="M268.507,173.166C267.902,166.507,279.031,149.638,283.080,143.352"/>
<path class="path-9" d="M283.080,143.352C286.792,137.396,295.920,121.175,303.904,121.246"/>
<path class="path-10" d="M303.904,121.246C309.228,121.293,320.120,131.040,325.748,134.085C330.712,137.123,336.012,139.832,341.644,142.543C344.841,144.241,348.042,145.933,351.246,147.619C365.487,155.066,361.438,161.353,353.132,159.947C334.532,156.453,331.526,157.758,313.645,148.282C311.324,147.263,305.366,143.884,304.329,148.199C302.955,153.178,311.899,157.583,315.543,159.279C322.163,162.999,329.447,167.056,337.426,167.792C339.752,168.146,347.743,167.550,349.051,169.891C351.018,173.237,341.294,181.800,339.280,183.778C335.925,186.743,332.573,189.707,329.225,192.007C324.205,195.288,318.855,198.235,313.191,199.182C302.534,200.419,269.402,184.818,268.507,173.166C267.902,166.507,279.031,149.638,283.080,143.352C286.792,137.396,295.920,121.175,303.904,121.246Z"/>
</g>
<g id="hair">
<path class="path-0" d="M175.372,141.009C192.710,128.895,212.637,127.519,233.708,126.375C243.153,125.844,249.727,132.179,257.046,138.378C263.060,143.818,269.530,149.951,275.917,155.660C285.530,164.191,289.569,168.484,293.168,172.590C296.242,175.735,301.031,181.621,304.850,184.399C309.457,187.750,318.854,204.741,320.919,206.648C314.316,208.978,303.916,210.775,299.184,214.685C300.919,220.488,301.390,229.511,301.437,232.220C295.237,232.735,287.982,230.027,276.496,228.103C274.266,235.319,274.374,242.047,269.775,249.403C262.037,247.165,256.645,245.349,246.615,241.046C240.115,246.338,238.569,245.951,227.968,252.622C220.812,248.384,215.094,243.838,208.138,241.091C201.406,244.076,190.684,245.244,187.084,248.222C183.179,241.238,179.571,233.517,176.270,230.189C166.704,232.289,162.628,234.973,155.887,237.530C151.592,232.076,154.541,227.488,149.749,219.450C145.403,218.340,138.680,215.816,133.118,215.783C136.898,211.242,139.530,196.459,146.003,194.503C153.990,192.089,148.796,183.024,153.614,174.760C154.806,172.611,166.357,156.124,167.376,153.441C169.315,148.812,171.437,143.899,175.372,141.009M261.486,125.693C249.122,116.435,224.362,111.647,210.527,115.067C197.828,118.055,185.397,122.230,174.429,129.549C168.286,133.588,161.510,139.512,157.474,145.669C149.406,157.631,137.869,183.722,131.336,195.820C126.115,205.851,121.204,212.641,116.127,218.113C133.821,224.326,138.995,226.922,144.251,227.663C144.670,235.414,151.893,241.086,150.755,249.657C159.548,248.249,164.765,245.957,172.574,243.912C176.607,248.519,179.429,254.812,183.302,260.968C190.993,258.782,198.887,258.983,206.463,253.440C212.025,256.390,220.859,260.969,229.937,265.819C238.186,261.305,239.961,261.032,247.691,255.891C257.196,258.119,267.219,263.876,276.756,262.752C275.988,254.574,281.982,248.883,281.215,243.640C288.394,241.632,310.492,244.583,314.255,244.218C313.960,238.175,310.501,226.638,311.987,219.416C318.774,217.529,324.511,215.816,335.089,210.594C331.539,203.940,325.212,195.700,319.690,190.808C315.030,186.719,311.212,181.275,306.547,177.013C290.728,162.794,284.357,142.905,261.486,125.693Z"/>
<path class="path-11" d="M233.708,126.375C243.153,125.844,249.727,132.179,257.046,138.378"/>
<path class="path-11" d="M257.046,138.378C263.060,143.818,269.530,149.951,275.917,155.660"/>
<path class="path-11" d="M275.917,155.660C285.530,164.191,289.569,168.484,293.168,172.590"/>
<path class="path-11" d="M293.168,172.590C296.242,175.735,301.031,181.621,304.850,184.399"/>
<path class="path-11" d="M304.850,184.399C309.457,187.750,318.854,204.741,320.919,206.648"/>
<path class="path-11" d="M320.919,206.648C314.316,208.978,303.916,210.775,299.184,214.685"/>
<path class="path-11" d="M299.184,214.685C300.919,220.488,301.390,229.511,301.437,232.220"/>
<path class="path-11" d="M301.437,232.220C295.237,232.735,287.982,230.027,276.496,228.103"/>
<path class="path-11" d="M276.496,228.103C274.266,235.319,274.374,242.047,269.775,249.403"/>
<path class="path-11" d="M269.775,249.403C262.037,247.165,256.645,245.349,246.615,241.046"/>
<path class="path-11" d="M246.615,241.046C240.115,246.338,238.569,245.951,227.968,252.622"/>
<path class="path-11" d="M227.968,252.622C220.812,248.384,215.094,243.838,208.138,241.091"/>
<path class="path-11" d="M208.138,241.091C201.406,244.076,190.684,245.244,187.084,248.222"/>
<path class="path-11" d="M187.084,248.222C183.179,241.238,179.571,233.517,176.270,230.189"/>
<path class="path-11" d="M176.270,230.189C166.704,232.289,162.628,234.973,155.887,237.530"/>
<path class="path-11" d="M155.887,237.530C151.592,232.076,154.541,227.488,149.749,219.450"/>
<path class="path-11" d="M149.749,219.450C145.403,218.340,138.680,215.816,133.118,215.783"/>
<path class="path-11" d="M133.118,215.783C136.898,211.242,139.530,196.459,146.003,194.503"/>
<path class="path-11" d="M146.003,194.503C153.990,192.089,148.796,183.024,153.614,174.760"/>
<path class="path-11" d="M153.614,174.760C154.806,172.611,166.357,156.124,167.376,153.441"/>
<path class="path-11" d="M167.376,153.441C169.315,148.812,171.437,143.899,175.372,141.009"/>
<path class="path-11" d="M175.372,141.009C192.710,128.895,212.637,127.519,233.708,126.375"/>
<path class="path-12" d="M233.708,126.375C243.153,125.844,249.727,132.179,257.046,138.378C263.060,143.818,269.530,149.951,275.917,155.660C285.530,164.191,289.569,168.484,293.168,172.590C296.242,175.735,301.031,181.621,304.850,184.399C309.457,187.750,318.854,204.741,320.919,206.648C314.316,208.978,303.916,210.775,299.184,214.685C300.919,220.488,301.390,229.511,301.437,232.220C295.237,232.735,287.982,230.027,276.496,228.103C274.266,235.319,274.374,242.047,269.775,249.403C262.037,247.165,256.645,245.349,246.615,241.046C240.115,246.338,238.569,245.951,227.968,252.622C220.812,248.384,215.094,243.838,208.138,241.091C201.406,244.076,190.684,245.244,187.084,248.222C183.179,241.238,179.571,233.517,176.270,230.189C166.704,232.289,162.628,234.973,155.887,237.530C151.592,232.076,154.541,227.488,149.749,219.450C145.403,218.340,138.680,215.816,133.118,215.783C136.898,211.242,139.530,196.459,146.003,194.503C153.990,192.089,148.796,183.024,153.614,174.760C154.806,172.611,166.357,156.124,167.376,153.441C169.315,148.812,171.437,143.899,175.372,141.009C192.710,128.895,212.637,127.519,233.708,126.375Z"/>
</g>
<g id="clothes">
<path class="path-0" d="M238.081,373.701C233.436,371.585,215.548,363.275,212.631,367.695C210.163,371.691,214.779,372.638,218.829,373.200C222.421,373.698,240.526,381.958,243.007,380.397C247.589,377.440,240.326,374.608,238.081,373.701M186.386,269.493C189.479,256.879,216.527,244.127,229.491,245.229C238.472,245.967,266.649,260.173,270.576,268.527C273.848,275.209,274.647,299.843,274.910,308.166C275.115,323.473,274.703,338.939,276.842,354.098C278.793,364.345,282.485,374.248,286.706,383.787C288.159,388.743,294.314,400.691,290.879,405.215C285.148,413.557,260.654,411.627,251.768,408.822C220.581,399.905,226.364,389.378,196.009,387.377C192.583,387.019,181.404,389.952,179.075,388.603C175.095,385.638,176.821,379.901,177.863,375.236C180.960,363.608,184.337,355.971,186.107,343.332C188.234,327.382,189.059,310.090,189.194,293.458C188.910,287.470,185.693,273.145,186.386,269.493M265.374,251.507C249.144,241.725,233.233,233.612,213.555,239.116C208.222,240.403,181.508,253.164,179.153,256.473C175.457,261.765,178.967,282.070,178.910,289.384C179.175,298.033,179.431,307.015,178.694,315.325C178.309,321.643,176.929,327.286,176.877,333.274C176.487,339.924,177.087,347.248,175.375,353.223C171.949,364.865,157.618,386.880,170.729,396.535C175.934,400.397,184.477,398.648,191.240,399.701C202.118,401.183,213.458,404.339,224.159,407.453C237.017,411.584,247.905,421.990,261.506,423.354C271.000,424.308,302.127,422.701,306.871,413.807C310.014,408.221,299.717,381.476,297.016,374.755C293.036,366.071,288.219,357.527,286.209,348.189C284.014,336.409,284.087,324.548,284.855,312.243C285.273,302.262,287.016,292.625,287.098,282.307C286.799,277.976,287.505,272.656,285.209,268.309C281.278,260.290,272.662,255.891,265.374,251.507Z"/>
<path class="path-13" d="M238.081,373.701C233.436,371.585,215.548,363.275,212.631,367.695"/>
<path class="path-13" d="M212.631,367.695C210.163,371.691,214.779,372.638,218.829,373.200"/>
<path class="path-13" d="M218.829,373.200C222.421,373.698,240.526,381.958,243.007,380.397"/>
<path class="path-13" d="M243.007,380.397C247.589,377.440,240.326,374.608,238.081,373.701"/>
<path class="path-13" d="M186.386,269.493C189.479,256.879,216.527,244.127,229.491,245.229"/>
<path class="path-13" d="M229.491,245.229C238.472,245.967,266.649,260.173,270.576,268.527"/>
<path class="path-13" d="M270.576,268.527C273.848,275.209,274.647,299.843,274.910,308.166"/>
<path class="path-13" d="M274.910,308.166C275.115,323.473,274.703,338.939,276.842,354.098"/>
<path class="path-13" d="M276.842,354.098C278.793,364.345,282.485,374.248,286.706,383.787"/>
<path class="path-13" d="M286.706,383.787C288.159,388.743,294.314,400.691,290.879,405.215"/>
<path class="path-13" d="M290.879,405.215C285.148,413.557,260.654,411.627,251.768,408.822"/>
<path class="path-13" d="M251.768,408.822C220.581,399.905,226.364,389.378,196.009,387.377"/>
<path class="path-13" d="M196.009,387.377C192.583,387.019,181.404,389.952,179.075,388.603"/>
<path class="path-13" d="M179.075,388.603C175.095,385.638,176.821,379.901,177.863,375.236"/>
<path class="path-13" d="M177.863,375.236C180.960,363.608,184.337,355.971,186.107,343.332"/>
<path class="path-13" d="M186.107,343.332C188.234,327.382,189.059,310.090,189.194,293.458"/>
<path class="path-13" d="M189.194,293.458C188.910,287.470,185.693,273.145,186.386,269.493"/>
<path class="path-14" d="M238.081,373.701C233.436,371.585,215.548,363.275,212.631,367.695C210.163,371.691,214.779,372.638,218.829,373.200C222.421,373.698,240.526,381.958,243.007,380.397C247.589,377.440,240.326,374.608,238.081,373.701M186.386,269.493C189.479,256.879,216.527,244.127,229.491,245.229C238.472,245.967,266.649,260.173,270.576,268.527C273.848,275.209,274.647,299.843,274.910,308.166C275.115,323.473,274.703,338.939,276.842,354.098C278.793,364.345,282.485,374.248,286.706,383.787C288.159,388.743,294.314,400.691,290.879,405.215C285.148,413.557,260.654,411.627,251.768,408.822C220.581,399.905,226.364,389.378,196.009,387.377C192.583,387.019,181.404,389.952,179.075,388.603C175.095,385.638,176.821,379.901,177.863,375.236C180.960,363.608,184.337,355.971,186.107,343.332C188.234,327.382,189.059,310.090,189.194,293.458C188.910,287.470,185.693,273.145,186.386,269.493Z"/>
</g>
<g id="neck">
<path class="path-0" d="M221.851,226.785C221.924,223.442,222.686,220.379,226.308,219.762C237.761,216.866,239.693,254.425,229.079,255.254C219.129,256.031,221.680,233.138,221.851,226.785M225.583,210.476C222.904,210.351,219.971,211.247,217.752,212.755C208.827,218.124,210.827,226.645,211.500,235.268C211.505,239.607,212.148,243.561,210.443,247.364C209.044,250.811,204.658,254.489,204.943,258.139C206.052,268.064,232.919,265.966,239.859,265.090C242.512,264.883,251.544,265.178,252.255,261.453C252.177,260.458,244.637,249.366,243.280,244.800C239.207,231.103,246.889,209.813,225.583,210.476Z"/>
<path class="path-15" d="M226.308,219.762C237.761,216.866,239.693,254.425,229.079,255.254"/>
<path class="path-15" d="M229.079,255.254C219.129,256.031,221.680,233.138,221.851,226.785"/>
<path class="path-15" d="M221.851,226.785C221.924,223.442,222.686,220.379,226.308,219.762"/>
<path class="path-16" d="M226.308,219.762C237.761,216.866,239.693,254.425,229.079,255.254C219.129,256.031,221.680,233.138,221.851,226.785C221.924,223.442,222.686,220.379,226.308,219.762Z"/>
</g>
<g id="layer_head">
<g id="right_ear">
<path class="path-0" d="M138.353,197.041C127.064,198.997,112.532,161.921,128.550,165.943C133.305,167.127,135.819,175.620,136.676,179.254C138.256,185.560,146.088,195.740,138.353,197.041M134.735,154.064C131.378,152.129,127.302,151.248,123.783,152.869C113.903,155.630,109.929,167.714,111.459,177.911C113.469,190.388,125.230,205.628,136.602,208.566C139.734,209.392,146.186,211.699,149.291,210.262C155.896,206.694,150.928,196.405,149.222,190.767C147.351,184.063,139.869,158.327,134.735,154.064Z"/>
<path class="path-15" d="M128.550,165.943C133.305,167.127,135.819,175.620,136.676,179.254"/>
<path class="path-15" d="M136.676,179.254C138.256,185.560,146.088,195.740,138.353,197.041"/>
<path class="path-15" d="M138.353,197.041C127.064,198.997,112.532,161.921,128.550,165.943"/>
<path class="path-16" d="M128.550,165.943C133.305,167.127,135.819,175.620,136.676,179.254C138.256,185.560,146.088,195.740,138.353,197.041C127.064,198.997,112.532,161.921,128.550,165.943Z"/>
</g>
<g id="face_Mask">
<g id="face">
<path class="path-0" d="M152.603,108.154C161.182,97.781,194.013,90.889,207.670,89.014C222.992,87.154,238.607,89.623,253.536,94.413C258.845,96.125,266.575,98.072,271.102,101.890C278.588,108.251,282.334,119.687,284.902,128.769C286.924,135.277,290.880,143.768,289.473,150.053C283.386,177.252,277.561,189.380,272.326,197.072C265.591,206.967,253.301,211.117,242.612,216.274C226.728,223.658,210.405,227.911,201.800,227.430C189.327,226.734,162.754,218.330,154.257,209.915C146.636,202.082,146.479,191.230,144.256,181.002C142.121,172.457,139.466,159.388,138.528,150.809C137.482,139.627,145.542,116.613,152.603,108.154M275.188,94.250C261.759,81.823,225.439,78.775,207.782,81.262C199.454,82.178,191.463,82.765,183.792,84.688C178.118,86.299,173.099,88.913,167.757,90.528C156.073,94.749,151.274,93.267,143.348,103.962C137.658,111.446,129.421,141.015,129.497,150.259C129.677,157.232,133.101,173.740,134.493,181.742C136.075,191.160,138.010,204.099,143.004,211.841C147.406,218.452,153.348,223.085,163.446,227.759C175.632,233.400,189.686,237.233,203.450,238.573C211.564,239.868,227.370,235.535,248.722,224.919C260.279,218.993,271.998,212.492,279.688,200.958C287.995,188.500,294.894,170.803,300.725,149.709C306.214,129.850,283.455,101.736,275.188,94.250Z"/>
<path class="path-15" d="M207.670,89.014C222.992,87.154,238.607,89.623,253.536,94.413"/>
<path class="path-15" d="M253.536,94.413C258.845,96.125,266.575,98.072,271.102,101.890"/>
<path class="path-15" d="M271.102,101.890C278.588,108.251,282.334,119.687,284.902,128.769"/>
<path class="path-15" d="M284.902,128.769C286.924,135.277,290.880,143.768,289.473,150.053"/>
<path class="path-15" d="M289.473,150.053C283.386,177.252,277.561,189.380,272.326,197.072"/>
<path class="path-15" d="M272.326,197.072C265.591,206.967,253.301,211.117,242.612,216.274"/>
<path class="path-15" d="M242.612,216.274C226.728,223.658,210.405,227.911,201.800,227.430"/>
<path class="path-15" d="M201.800,227.430C189.327,226.734,162.754,218.330,154.257,209.915"/>
<path class="path-15" d="M154.257,209.915C146.636,202.082,146.479,191.230,144.256,181.002"/>
<path class="path-15" d="M144.256,181.002C142.121,172.457,139.466,159.388,138.528,150.809"/>
<path class="path-15" d="M138.528,150.809C137.482,139.627,145.542,116.613,152.603,108.154"/>
<path class="path-15" d="M152.603,108.154C161.182,97.781,194.013,90.889,207.670,89.014"/>
<path class="path-16" d="M207.670,89.014C222.992,87.154,238.607,89.623,253.536,94.413C258.845,96.125,266.575,98.072,271.102,101.890C278.588,108.251,282.334,119.687,284.902,128.769C286.924,135.277,290.880,143.768,289.473,150.053C283.386,177.252,277.561,189.380,272.326,197.072C265.591,206.967,253.301,211.117,242.612,216.274C226.728,223.658,210.405,227.911,201.800,227.430C189.327,226.734,162.754,218.330,154.257,209.915C146.636,202.082,146.479,191.230,144.256,181.002C142.121,172.457,139.466,159.388,138.528,150.809C137.482,139.627,145.542,116.613,152.603,108.154C161.182,97.781,194.013,90.889,207.670,89.014Z"/>
</g>
</g>
<mask id="mask_target" style="mask-type:alpha;">
<use xlink:href="#face_Mask"/>
</mask>
<g id="mouse">
<path class="path-0" d="M204.379,217.821C209.573,218.971,209.614,223.725,209.136,224.228C208.866,224.511,207.752,223.550,204.796,223.037C199.199,222.065,196.483,223.214,196.292,222.498C196.082,221.713,198.298,216.475,204.379,217.821Z"/>
</g>
<g id="layer_eyes_Mtarget" mask="url(#mask_target)">
<g id="eyes">
<mask style="mask-type:alpha;" id="f3906406-f197-4bf1-91d8-744c09cca836">
<use xlink:href="#cmn_f3906406-f197-4bf1-91d8-744c09cca836"/>
</mask>
<g id="cmn_f3906406-f197-4bf1-91d8-744c09cca836">
<path class="path-0" d="M175.008,178.244C177.234,187.928,170.819,195.553,163.579,195.056C157.828,194.557,154.521,188.644,152.783,183.001C151.586,179.607,147.408,163.594,151.964,166.128C154.806,167.708,174.308,175.197,175.008,178.244M182.299,181.596C182.911,180.038,183.708,177.686,183.202,176.091C182.709,174.534,181.046,172.356,179.396,172.198C175.056,171.685,160.888,163.811,155.501,161.536C151.359,159.856,140.958,153.440,137.473,156.942C133.305,161.007,139.429,164.151,141.381,172.031C144.884,186.175,156.043,202.603,167.134,201.530C178.472,200.434,179.547,188.588,182.299,181.596M226.055,192.897C218.703,192.636,208.785,187.004,209.206,175.550C209.327,172.281,222.783,167.665,228.828,164.721C235.088,161.674,247.002,155.516,250.190,155.651C253.677,156.221,252.106,159.254,252.097,168.908C252.088,178.859,239.053,193.359,226.055,192.897M258.918,175.287C262.809,163.509,262.652,147.217,260.347,146.095C255.186,143.581,241.499,152.859,233.563,156.118C223.745,160.150,208.035,168.841,201.297,170.626C199.165,171.274,197.222,171.740,196.870,173.242C196.208,176.067,201.447,178.235,203.282,180.482C206.298,184.177,207.846,190.416,212.782,193.230C223.112,199.552,230.741,198.319,242.619,194.077C250.203,191.390,256.644,182.175,258.918,175.287Z"/>
<path class="path-17" d="M250.190,155.651C253.677,156.221,252.106,159.254,252.097,168.908"/>
<path class="path-17" d="M252.097,168.908C252.088,178.859,239.053,193.359,226.055,192.897"/>
<path class="path-17" d="M226.055,192.897C218.703,192.636,208.785,187.004,209.206,175.550"/>
<path class="path-17" d="M209.206,175.550C209.327,172.281,222.783,167.665,228.828,164.721"/>
<path class="path-17" d="M228.828,164.721C235.088,161.674,247.002,155.516,250.190,155.651"/>
<path class="path-18" d="M250.190,155.651C253.677,156.221,252.106,159.254,252.097,168.908C252.088,178.859,239.053,193.359,226.055,192.897C218.703,192.636,208.785,187.004,209.206,175.550C209.327,172.281,222.783,167.665,228.828,164.721C235.088,161.674,247.002,155.516,250.190,155.651Z"/>
<path class="path-17" d="M151.964,166.128C154.806,167.708,174.308,175.197,175.008,178.244"/>
<path class="path-17" d="M175.008,178.244C177.234,187.928,170.819,195.553,163.579,195.056"/>
<path class="path-17" d="M163.579,195.056C157.828,194.557,154.521,188.644,152.783,183.001"/>
<path class="path-17" d="M152.783,183.001C151.586,179.607,147.408,163.594,151.964,166.128"/>
<path class="path-18" d="M151.964,166.128C154.806,167.708,174.308,175.197,175.008,178.244C177.234,187.928,170.819,195.553,163.579,195.056C157.828,194.557,154.521,188.644,152.783,183.001C151.586,179.607,147.408,163.594,151.964,166.128Z"/>
</g>
</g>
<g id="pupil">
<path class="path-0" d="M210.119,170.013C212.509,169.470,215.258,173.150,215.851,181.971C216.232,187.640,215.056,189.931,213.498,190.162C211.606,190.442,209.974,187.757,208.751,180.969C207.446,173.725,208.129,170.466,210.119,170.013Z" mask="url(#f3906406-f197-4bf1-91d8-744c09cca836)"/>
<path class="path-0" d="M154.531,170.096C156.660,169.716,158.288,173.128,159.563,181.082C160.494,186.892,160.257,189.483,158.726,189.869C157.184,190.257,155.431,188.158,153.826,182.454C151.590,174.510,152.351,170.485,154.531,170.096Z" mask="url(#f3906406-f197-4bf1-91d8-744c09cca836)"/>
</g>
</g>
<g id="hat">
<path class="path-0" d="M290.256,130.640C292.406,131.705,295.157,134.336,295.544,136.991C297.044,143.452,285.944,143.409,282.529,143.772C276.211,143.809,269.617,143.337,263.585,143.107C257.769,143.412,251.940,143.249,246.115,143.328C232.873,142.479,219.702,140.912,206.463,140.042C193.209,139.693,180.398,138.899,166.740,138.494C165.034,138.489,135.958,141.308,130.757,138.875C120.034,133.975,130.274,125.314,129.719,120.141C129.626,117.091,123.175,116.225,124.807,110.949C126.306,106.363,142.202,102.359,147.019,101.268C158.318,98.644,170.064,95.658,182.103,94.337C197.939,92.686,213.549,93.768,229.573,93.181C246.549,92.652,283.129,98.200,294.668,115.028C301.049,124.154,283.256,115.989,281.287,115.554C275.166,112.732,252.208,103.575,261.378,114.198C266.513,121.479,283.287,126.444,290.256,130.640M175.339,87.603C164.279,88.902,154.131,89.584,143.686,91.746C139.432,92.615,134.438,94.417,130.389,93.436C121.550,91.422,132.940,69.030,136.957,63.898C151.869,45.322,182.106,36.319,207.132,37.106C253.204,38.556,270.995,47.721,285.100,64.237C289.543,69.063,304.187,92.369,295.066,98.258C291.752,100.103,285.896,96.463,283.023,95.047C273.064,90.397,220.512,82.298,175.339,87.603M248.731,32.899C235.907,29.903,230.116,25.702,215.119,26.000C184.099,26.936,145.089,31.763,125.998,60.459C119.982,69.725,118.924,80.225,116.335,90.174C114.369,97.590,109.628,103.073,109.979,110.649C110.512,117.895,113.952,119.648,115.653,125.384C117.645,131.488,115.240,134.076,116.374,138.046C118.472,149.423,128.895,150.151,138.458,150.617C143.155,150.848,160.506,150.706,169.955,150.739C181.213,150.778,196.224,150.715,207.482,150.855C217.446,150.978,230.727,151.477,240.691,151.566C249.906,151.649,262.203,151.890,271.409,151.465C280.991,151.022,302.106,149.726,303.257,148.610C305.201,146.757,309.672,128.264,309.927,124.776C310.196,121.090,308.607,117.282,309.121,111.371C309.959,98.310,310.706,86.388,304.846,73.419C294.169,50.326,270.295,38.323,248.731,32.899Z"/>
<path class="path-19" d="M229.573,93.181C246.549,92.652,283.129,98.200,294.668,115.028"/>
<path class="path-19" d="M294.668,115.028C301.049,124.154,283.256,115.989,281.287,115.554"/>
<path class="path-19" d="M281.287,115.554C275.166,112.732,252.208,103.575,261.378,114.198"/>
<path class="path-19" d="M261.378,114.198C266.513,121.479,283.287,126.444,290.256,130.640"/>
<path class="path-19" d="M290.256,130.640C292.406,131.705,295.157,134.336,295.544,136.991"/>
<path class="path-19" d="M295.544,136.991C297.044,143.452,285.944,143.409,282.529,143.772"/>
<path class="path-19" d="M282.529,143.772C276.211,143.809,269.617,143.337,263.585,143.107"/>
<path class="path-19" d="M263.585,143.107C257.769,143.412,251.940,143.249,246.115,143.328"/>
<path class="path-19" d="M246.115,143.328C232.873,142.479,219.702,140.912,206.463,140.042"/>
<path class="path-19" d="M206.463,140.042C193.209,139.693,180.398,138.899,166.740,138.494"/>
<path class="path-19" d="M166.740,138.494C165.034,138.489,135.958,141.308,130.757,138.875"/>
<path class="path-19" d="M130.757,138.875C120.034,133.975,130.274,125.314,129.719,120.141"/>
<path class="path-19" d="M129.719,120.141C129.626,117.091,123.175,116.225,124.807,110.949"/>
<path class="path-19" d="M124.807,110.949C126.306,106.363,142.202,102.359,147.019,101.268"/>
<path class="path-19" d="M147.019,101.268C158.318,98.644,170.064,95.658,182.103,94.337"/>
<path class="path-19" d="M182.103,94.337C197.939,92.686,213.549,93.768,229.573,93.181"/>
<path class="path-20" d="M229.573,93.181C246.549,92.652,283.129,98.200,294.668,115.028C301.049,124.154,283.256,115.989,281.287,115.554C275.166,112.732,252.208,103.575,261.378,114.198C266.513,121.479,283.287,126.444,290.256,130.640C292.406,131.705,295.157,134.336,295.544,136.991C297.044,143.452,285.944,143.409,282.529,143.772C276.211,143.809,269.617,143.337,263.585,143.107C257.769,143.412,251.940,143.249,246.115,143.328C232.873,142.479,219.702,140.912,206.463,140.042C193.209,139.693,180.398,138.899,166.740,138.494C165.034,138.489,135.958,141.308,130.757,138.875C120.034,133.975,130.274,125.314,129.719,120.141C129.626,117.091,123.175,116.225,124.807,110.949C126.306,106.363,142.202,102.359,147.019,101.268C158.318,98.644,170.064,95.658,182.103,94.337C197.939,92.686,213.549,93.768,229.573,93.181Z"/>
<path class="path-9" d="M207.132,37.106C253.204,38.556,270.995,47.721,285.100,64.237"/>
<path class="path-9" d="M285.100,64.237C289.543,69.063,304.187,92.369,295.066,98.258"/>
<path class="path-9" d="M295.066,98.258C291.752,100.103,285.896,96.463,283.023,95.047"/>
<path class="path-9" d="M283.023,95.047C273.064,90.397,220.512,82.298,175.339,87.603"/>
<path class="path-9" d="M175.339,87.603C164.279,88.902,154.131,89.584,143.686,91.746"/>
<path class="path-9" d="M143.686,91.746C139.432,92.615,134.438,94.417,130.389,93.436"/>
<path class="path-9" d="M130.389,93.436C121.550,91.422,132.940,69.030,136.957,63.898"/>
<path class="path-9" d="M136.957,63.898C151.869,45.322,182.106,36.319,207.132,37.106"/>
<path class="path-10" d="M207.132,37.106C253.204,38.556,270.995,47.721,285.100,64.237C289.543,69.063,304.187,92.369,295.066,98.258C291.752,100.103,285.896,96.463,283.023,95.047C273.064,90.397,220.512,82.298,175.339,87.603C164.279,88.902,154.131,89.584,143.686,91.746C139.432,92.615,134.438,94.417,130.389,93.436C121.550,91.422,132.940,69.030,136.957,63.898C151.869,45.322,182.106,36.319,207.132,37.106Z"/>
</g>
<g id="left_ear">
<path class="path-0" d="M277.321,189.605C275.910,184.759,279.380,158.642,281.648,154.900C287.386,145.160,304.418,154.291,307.859,162.428C311.586,171.777,301.939,186.405,294.172,192.807C286.649,198.817,279.738,197.594,277.321,189.605M320.850,165.758C319.513,151.344,302.268,136.241,289.459,142.732C273.921,150.606,279.748,173.407,277.405,187.634C276.889,191.380,274.333,195.255,275.162,198.755C277.337,208.649,287.618,209.918,296.175,202.299C305.825,193.530,321.711,179.585,320.850,165.758Z"/>
<path class="path-15" d="M281.648,154.900C287.386,145.160,304.418,154.291,307.859,162.428"/>
<path class="path-15" d="M307.859,162.428C311.586,171.777,301.939,186.405,294.172,192.807"/>
<path class="path-15" d="M294.172,192.807C286.649,198.817,279.738,197.594,277.321,189.605"/>
<path class="path-15" d="M277.321,189.605C275.910,184.759,279.380,158.642,281.648,154.900"/>
<path class="path-16" d="M281.648,154.900C287.386,145.160,304.418,154.291,307.859,162.428C311.586,171.777,301.939,186.405,294.172,192.807C286.649,198.817,279.738,197.594,277.321,189.605C275.910,184.759,279.380,158.642,281.648,154.900Z"/>
</g>
<g id="earrings">
<path class="path-0" d="M299.132,210.299C290.332,214.020,288.653,195.272,292.205,195.660C297.171,197.437,303.866,206.285,299.132,210.299M308.591,202.118C301.862,202.292,298.938,193.252,298.465,189.398C306.018,191.185,315.461,196.966,308.591,202.118M318.679,198.311C316.208,190.223,304.252,185.420,296.475,182.142C293.639,180.947,285.929,191.022,285.569,194.240C284.496,198.251,286.412,220.264,300.112,217.655C305.792,216.312,320.668,204.821,318.679,198.311Z"/>
<path class="path-21" d="M298.465,189.398C306.018,191.185,315.461,196.966,308.591,202.118"/>
<path class="path-21" d="M308.591,202.118C301.862,202.292,298.938,193.252,298.465,189.398"/>
<path class="path-22" d="M298.465,189.398C306.018,191.185,315.461,196.966,308.591,202.118C301.862,202.292,298.938,193.252,298.465,189.398Z"/>
<path class="path-21" d="M292.205,195.660C297.171,197.437,303.866,206.285,299.132,210.299"/>
<path class="path-21" d="M299.132,210.299C290.332,214.020,288.653,195.272,292.205,195.660"/>
<path class="path-22" d="M292.205,195.660C297.171,197.437,303.866,206.285,299.132,210.299C290.332,214.020,288.653,195.272,292.205,195.660Z"/>
</g>
</g>
<g id="jacket">
<path class="path-0" d="M197.669,274.238C200.292,278.585,197.535,288.872,197.492,293.527C195.340,310.484,192.187,326.717,192.373,343.412C192.538,347.387,191.268,354.336,189.310,358.528C187.907,361.534,185.310,366.074,182.544,367.273C179.126,368.694,177.746,361.923,176.845,359.078C175.601,355.148,176.779,347.901,177.049,345.283C177.914,340.084,180.554,330.016,180.468,323.368C180.433,316.844,176.987,310.556,176.385,303.387C175.498,298.018,174.146,291.681,173.086,285.705C173.155,282.548,173.715,280.598,173.803,278.368C173.514,272.899,176.160,271.519,181.393,271.112C186.236,271.080,196.050,268.902,197.669,274.238M253.862,284.308C255.564,280.681,281.504,263.401,284.873,261.690C293.279,257.913,297.317,267.319,297.181,272.742C297.078,281.357,282.104,309.655,283.836,315.593C284.454,318.288,286.654,319.513,288.362,321.158C301.359,334.962,295.220,326.703,308.654,332.843C314.911,335.766,326.798,344.205,332.115,348.397C335.363,351.286,342.624,357.809,344.461,361.449C345.635,364.393,346.838,369.857,342.366,371.151C340.919,371.769,325.040,371.050,322.342,371.166C309.964,371.027,296.522,371.916,286.176,363.552C282.847,360.549,280.262,356.153,277.642,352.125C268.166,338.069,261.662,322.400,256.889,306.063C254.957,300.361,251.786,290.296,253.862,284.308M270.621,259.287C267.556,262.391,261.459,267.394,259.285,268.392C251.379,271.519,249.907,261.994,249.430,256.044C249.202,250.898,252.215,243.631,255.320,239.308C258.053,235.504,262.458,230.297,267.552,229.605C273.981,228.499,284.814,235.381,283.393,242.667C282.957,246.019,275.039,254.813,270.621,259.287M188.719,237.092C193.613,241.068,197.177,245.795,196.276,250.260C195.428,254.460,192.339,256.772,185.128,259.177C173.781,262.961,164.966,245.582,168.537,238.467C171.260,233.043,182.434,231.986,188.719,237.092M358.933,366.558C355.039,360.380,352.935,355.833,347.608,350.378C339.639,342.376,330.104,333.365,320.286,327.899C310.577,322.817,302.915,324.337,296.392,313.791C290.595,304.773,294.626,294.626,296.101,284.444C296.478,280.746,297.305,261.848,297.412,258.457C296.998,255.031,297.454,251.581,296.973,248.441C296.506,244.573,297.040,240.451,295.739,236.778C293.800,230.114,286.848,227.064,281.557,223.701C274.280,219.657,267.979,217.723,259.664,219.551C250.541,221.569,247.362,231.692,244.745,238.416C240.755,248.668,242.732,264.049,243.042,275.045C243.220,281.337,244.201,290.065,245.035,295.932C247.905,318.687,270.680,367.287,291.953,376.258C296.631,378.597,328.239,382.553,338.133,382.446C344.142,382.411,347.125,382.357,352.717,384.050C355.445,384.992,362.227,387.377,364.646,384.584C368.314,380.621,361.040,369.904,358.933,366.558M202.600,237.020C199.328,231.249,193.927,221.669,187.145,221.203C180.760,220.971,171.045,222.217,165.244,225.568C161.743,227.590,156.441,231.337,156.041,235.413C155.306,241.482,157.832,248.753,160.876,253.460C162.635,256.179,166.941,258.124,169.015,260.553C170.097,261.892,174.100,269.256,174.813,271.267C178.735,281.424,174.237,293.399,173.564,302.860C173.002,310.743,171.597,321.195,170.894,329.066C170.089,338.077,169.360,349.300,168.596,359.134C168.295,361.415,168.201,366.507,168.424,369.656C168.656,372.934,168.491,379.050,170.149,380.474C170.991,381.196,181.189,382.691,185.371,380.853C189.611,378.990,192.962,378.806,195.508,369.210C198.431,357.039,200.393,345.940,200.851,333.288C201.066,311.792,207.693,282.806,207.058,269.663C206.767,263.652,207.860,259.664,206.666,251.276C206.066,247.808,204.794,240.889,202.600,237.020Z"/>
<path class="path-1" d="M284.873,261.690C293.279,257.913,297.317,267.319,297.181,272.742"/>
<path class="path-1" d="M297.181,272.742C297.078,281.357,282.104,309.655,283.836,315.593"/>
<path class="path-1" d="M283.836,315.593C284.454,318.288,286.654,319.513,288.362,321.158"/>
<path class="path-1" d="M288.362,321.158C301.359,334.962,295.220,326.703,308.654,332.843"/>
<path class="path-1" d="M308.654,332.843C314.911,335.766,326.798,344.205,332.115,348.397"/>
<path class="path-1" d="M332.115,348.397C335.363,351.286,342.624,357.809,344.461,361.449"/>
<path class="path-1" d="M344.461,361.449C345.635,364.393,346.838,369.857,342.366,371.151"/>
<path class="path-1" d="M342.366,371.151C340.919,371.769,325.040,371.050,322.342,371.166"/>
<path class="path-1" d="M322.342,371.166C309.964,371.027,296.522,371.916,286.176,363.552"/>
<path class="path-1" d="M286.176,363.552C282.847,360.549,280.262,356.153,277.642,352.125"/>
<path class="path-1" d="M277.642,352.125C268.166,338.069,261.662,322.400,256.889,306.063"/>
<path class="path-1" d="M256.889,306.063C254.957,300.361,251.786,290.296,253.862,284.308"/>
<path class="path-1" d="M253.862,284.308C255.564,280.681,281.504,263.401,284.873,261.690"/>
<path class="path-2" d="M284.873,261.690C293.279,257.913,297.317,267.319,297.181,272.742C297.078,281.357,282.104,309.655,283.836,315.593C284.454,318.288,286.654,319.513,288.362,321.158C301.359,334.962,295.220,326.703,308.654,332.843C314.911,335.766,326.798,344.205,332.115,348.397C335.363,351.286,342.624,357.809,344.461,361.449C345.635,364.393,346.838,369.857,342.366,371.151C340.919,371.769,325.040,371.050,322.342,371.166C309.964,371.027,296.522,371.916,286.176,363.552C282.847,360.549,280.262,356.153,277.642,352.125C268.166,338.069,261.662,322.400,256.889,306.063C254.957,300.361,251.786,290.296,253.862,284.308C255.564,280.681,281.504,263.401,284.873,261.690Z"/>
<path class="path-1" d="M181.393,271.112C186.236,271.080,196.050,268.902,197.669,274.238"/>
<path class="path-1" d="M197.669,274.238C200.292,278.585,197.535,288.872,197.492,293.527"/>
<path class="path-1" d="M197.492,293.527C195.340,310.484,192.187,326.717,192.373,343.412"/>
<path class="path-1" d="M192.373,343.412C192.538,347.387,191.268,354.336,189.310,358.528"/>
<path class="path-1" d="M189.310,358.528C187.907,361.534,185.310,366.074,182.544,367.273"/>
<path class="path-1" d="M182.544,367.273C179.126,368.694,177.746,361.923,176.845,359.078"/>
<path class="path-1" d="M176.845,359.078C175.601,355.148,176.779,347.901,177.049,345.283"/>
<path class="path-1" d="M177.049,345.283C177.914,340.084,180.554,330.016,180.468,323.368"/>
<path class="path-1" d="M180.468,323.368C180.433,316.844,176.987,310.556,176.385,303.387"/>
<path class="path-1" d="M176.385,303.387C175.498,298.018,174.146,291.681,173.086,285.705"/>
<path class="path-1" d="M173.086,285.705C173.155,282.548,173.715,280.598,173.803,278.368"/>
<path class="path-1" d="M173.803,278.368C173.514,272.899,176.160,271.519,181.393,271.112"/>
<path class="path-2" d="M181.393,271.112C186.236,271.080,196.050,268.902,197.669,274.238C200.292,278.585,197.535,288.872,197.492,293.527C195.340,310.484,192.187,326.717,192.373,343.412C192.538,347.387,191.268,354.336,189.310,358.528C187.907,361.534,185.310,366.074,182.544,367.273C179.126,368.694,177.746,361.923,176.845,359.078C175.601,355.148,176.779,347.901,177.049,345.283C177.914,340.084,180.554,330.016,180.468,323.368C180.433,316.844,176.987,310.556,176.385,303.387C175.498,298.018,174.146,291.681,173.086,285.705C173.155,282.548,173.715,280.598,173.803,278.368C173.514,272.899,176.160,271.519,181.393,271.112Z"/>
<path class="path-1" d="M267.552,229.605C273.981,228.499,284.814,235.381,283.393,242.667"/>
<path class="path-1" d="M283.393,242.667C282.957,246.019,275.039,254.813,270.621,259.287"/>
<path class="path-1" d="M270.621,259.287C267.556,262.391,261.459,267.394,259.285,268.392"/>
<path class="path-1" d="M259.285,268.392C251.379,271.519,249.907,261.994,249.430,256.044"/>
<path class="path-1" d="M249.430,256.044C249.202,250.898,252.215,243.631,255.320,239.308"/>
<path class="path-1" d="M255.320,239.308C258.053,235.504,262.458,230.297,267.552,229.605"/>
<path class="path-2" d="M267.552,229.605C273.981,228.499,284.814,235.381,283.393,242.667C282.957,246.019,275.039,254.813,270.621,259.287C267.556,262.391,261.459,267.394,259.285,268.392C251.379,271.519,249.907,261.994,249.430,256.044C249.202,250.898,252.215,243.631,255.320,239.308C258.053,235.504,262.458,230.297,267.552,229.605Z"/>
<path class="path-1" d="M188.719,237.092C193.613,241.068,197.177,245.795,196.276,250.260"/>
<path class="path-1" d="M196.276,250.260C195.428,254.460,192.339,256.772,185.128,259.177"/>
<path class="path-1" d="M185.128,259.177C173.781,262.961,164.966,245.582,168.537,238.467"/>
<path class="path-1" d="M168.537,238.467C171.260,233.043,182.434,231.986,188.719,237.092"/>
<path class="path-2" d="M188.719,237.092C193.613,241.068,197.177,245.795,196.276,250.260C195.428,254.460,192.339,256.772,185.128,259.177C173.781,262.961,164.966,245.582,168.537,238.467C171.260,233.043,182.434,231.986,188.719,237.092Z"/>
</g>
<g id="left_arm">
<path class="path-0" d="M296.353,459.790C293.350,454.422,292.622,445.623,300.214,443.688C305.552,442.283,329.062,448.239,332.874,452.324C339.569,458.816,335.075,473.147,326.403,476.144C316.316,479.124,301.266,468.354,296.353,459.790M277.851,281.995C278.224,278.701,285.020,267.351,290.166,267.679C293.154,267.870,295.314,272.597,296.712,275.074C300.627,282.878,304.806,290.923,308.235,299.198C317.691,321.427,325.333,343.984,330.779,367.105C332.705,376.374,331.781,388.772,334.823,397.202C338.472,406.952,344.857,403.884,347.618,410.287C348.843,413.326,347.990,418.956,349.827,423.678C352.570,431.095,358.086,435.277,360.588,440.022C362.161,442.738,362.721,445.733,359.044,446.296C357.016,447.239,351.710,446.139,349.711,446.090C343.086,444.154,336.465,442.212,329.863,440.218C320.957,437.937,293.802,435.511,289.361,429.370C282.684,419.790,294.019,409.158,295.673,399.866C296.424,396.958,301.502,353.990,300.686,351.155C299.571,344.627,294.701,339.580,292.153,333.100C289.113,324.140,285.973,314.543,283.159,305.145C280.934,297.156,276.439,290.966,277.851,281.995M300.177,256.346C297.157,252.103,288.638,245.020,282.927,247.260C278.203,249.347,278.473,255.366,278.432,259.414C278.333,269.532,277.648,278.059,279.140,287.590C279.892,294.544,281.556,300.679,283.214,307.157C285.146,315.711,286.242,332.602,287.485,342.526C288.370,351.974,290.932,361.732,290.309,369.916C288.439,389.073,278.578,406.798,278.588,425.958C278.268,435.558,280.906,435.624,282.912,443.373C284.391,449.409,282.826,455.687,284.960,461.418C290.437,476.584,307.264,490.805,324.334,488.058C340.063,485.597,341.306,468.662,349.922,459.967C357.510,452.235,372.004,456.723,374.282,448.477C376.514,441.563,367.126,433.592,363.656,428.143C356.703,417.927,362.444,415.799,359.070,408.032C356.619,402.293,349.180,397.030,345.771,389.604C343.882,386.204,343.102,379.837,341.868,375.471C339.259,364.694,337.081,352.352,334.511,341.075C331.894,328.396,328.736,317.407,323.275,304.925C319.002,294.818,306.067,263.842,300.177,256.346Z"/>
<path class="path-1" d="M290.166,267.679C293.154,267.870,295.314,272.597,296.712,275.074"/>
<path class="path-1" d="M296.712,275.074C300.627,282.878,304.806,290.923,308.235,299.198"/>
<path class="path-1" d="M308.235,299.198C317.691,321.427,325.333,343.984,330.779,367.105"/>
<path class="path-1" d="M330.779,367.105C332.705,376.374,331.781,388.772,334.823,397.202"/>
<path class="path-1" d="M334.823,397.202C338.472,406.952,344.857,403.884,347.618,410.287"/>
<path class="path-1" d="M347.618,410.287C348.843,413.326,347.990,418.956,349.827,423.678"/>
<path class="path-1" d="M349.827,423.678C352.570,431.095,358.086,435.277,360.588,440.022"/>
<path class="path-1" d="M360.588,440.022C362.161,442.738,362.721,445.733,359.044,446.296"/>
<path class="path-1" d="M359.044,446.296C357.016,447.239,351.710,446.139,349.711,446.090"/>
<path class="path-1" d="M349.711,446.090C343.086,444.154,336.465,442.212,329.863,440.218"/>
<path class="path-1" d="M329.863,440.218C320.957,437.937,293.802,435.511,289.361,429.370"/>
<path class="path-1" d="M289.361,429.370C282.684,419.790,294.019,409.158,295.673,399.866"/>
<path class="path-1" d="M295.673,399.866C296.424,396.958,301.502,353.990,300.686,351.155"/>
<path class="path-1" d="M300.686,351.155C299.571,344.627,294.701,339.580,292.153,333.100"/>
<path class="path-1" d="M292.153,333.100C289.113,324.140,285.973,314.543,283.159,305.145"/>
<path class="path-1" d="M283.159,305.145C280.934,297.156,276.439,290.966,277.851,281.995"/>
<path class="path-1" d="M277.851,281.995C278.224,278.701,285.020,267.351,290.166,267.679"/>
<path class="path-2" d="M290.166,267.679C293.154,267.870,295.314,272.597,296.712,275.074C300.627,282.878,304.806,290.923,308.235,299.198C317.691,321.427,325.333,343.984,330.779,367.105C332.705,376.374,331.781,388.772,334.823,397.202C338.472,406.952,344.857,403.884,347.618,410.287C348.843,413.326,347.990,418.956,349.827,423.678C352.570,431.095,358.086,435.277,360.588,440.022C362.161,442.738,362.721,445.733,359.044,446.296C357.016,447.239,351.710,446.139,349.711,446.090C343.086,444.154,336.465,442.212,329.863,440.218C320.957,437.937,293.802,435.511,289.361,429.370C282.684,419.790,294.019,409.158,295.673,399.866C296.424,396.958,301.502,353.990,300.686,351.155C299.571,344.627,294.701,339.580,292.153,333.100C289.113,324.140,285.973,314.543,283.159,305.145C280.934,297.156,276.439,290.966,277.851,281.995C278.224,278.701,285.020,267.351,290.166,267.679Z"/>
<path class="path-15" d="M300.214,443.688C305.552,442.283,329.062,448.239,332.874,452.324"/>
<path class="path-15" d="M332.874,452.324C339.569,458.816,335.075,473.147,326.403,476.144"/>
<path class="path-15" d="M326.403,476.144C316.316,479.124,301.266,468.354,296.353,459.790"/>
<path class="path-15" d="M296.353,459.790C293.350,454.422,292.622,445.623,300.214,443.688"/>
<path class="path-16" d="M300.214,443.688C305.552,442.283,329.062,448.239,332.874,452.324C339.569,458.816,335.075,473.147,326.403,476.144C316.316,479.124,301.266,468.354,296.353,459.790C293.350,454.422,292.622,445.623,300.214,443.688Z"/>
</g>
<g id="bone">
<g id="bone_B20">
<path class="path-23" d="M215.786,136.852C213.898,125.024,212.010,113.197,210.121,101.370"/>
</g>
<g id="bone_">
<path class="path-23" d="M552.381,338.786C566.537,319.428,580.694,300.070,594.850,280.713"/>
</g>
<g id="bone_">
<path class="path-23" d="M496.479,337.308C496.479,313.696,496.479,290.084,496.479,266.472"/>
</g>
<g id="bone_">
<path class="path-23" d="M436.410,337.308C454.678,322.348,472.946,307.387,491.214,292.426"/>
</g>
<g id="bone_">
<path class="path-23" d="M604.616,215.385C601.570,191.970,598.525,168.555,595.479,145.141"/>
</g>
<g id="bone_">
<path class="path-23" d="M436.410,216.411C430.408,193.574,424.406,170.738,418.404,147.901"/>
</g>
<g id="bone_">
<path class="path-23" d="M551.282,215.385C548.233,191.971,545.185,168.556,542.136,145.142"/>
</g>
<g id="bone_">
<path class="path-23" d="M495.897,216.411C481.257,197.885,466.617,179.360,451.977,160.834"/>
</g>
<g id="bone_B18">
<path class="path-23" d="M211.060,390.373C208.652,422.681,206.245,454.989,203.838,487.297"/>
</g>
<g id="bone_B17">
<path class="path-23" d="M257.214,390.373C262.770,423.282,268.327,456.191,273.883,489.100"/>
</g>
<g id="bone_B16">
<path class="path-23" d="M219.827,162.153C224.515,186.668,229.203,211.184,233.892,235.699"/>
</g>
<g id="bone_B14">
<path class="path-23" d="M146.164,385.544C154.095,402.960,162.025,420.375,169.956,437.791"/>
</g>
<g id="bone_B13">
<path class="path-23" d="M173.116,275.086C164.132,311.906,155.148,348.725,146.165,385.544"/>
</g>
<g id="bone_B11">
<path class="path-23" d="M315.353,349.300C317.001,371.249,318.649,393.198,320.297,415.147"/>
</g>
<g id="bone_B9">
<path class="path-23" d="M286.032,261.496C295.806,290.764,305.579,320.032,315.353,349.300"/>
</g>
<g id="bone_B5">
<path class="path-23" d="M228.415,215.943C224.206,189.579,219.996,163.215,215.786,136.852"/>
</g>
<g id="bone_B4">
<path class="path-23" d="M229.644,258.026C229.234,243.998,228.825,229.970,228.415,215.943"/>
</g>
<g id="bone_B3">
<path class="path-23" d="M234.276,330.880C232.732,306.595,231.188,282.310,229.644,258.026"/>
</g>
<g id="bone_B2">
<path class="path-23" d="M233.624,390.373C233.841,370.542,234.059,350.711,234.276,330.880"/>
</g>
<g id="bone_B1">
<path class="path-23" d="M233.624,390.373C245.601,390.373,257.578,390.373,269.555,390.373"/>
</g>
</g>
</g>
<style>
.path-0{fill:#000000;fill-rule:evenodd;stroke:none;}
.path-1{fill:none;stroke:#a60d3f;stroke-width:1;stroke-linecap:butt;stroke-linejoin:round;}
.path-2{fill:#a60d3f;fill-rule:evenodd;stroke:none;}
.path-3{fill:none;stroke:#d88e4b;stroke-width:1;stroke-linecap:butt;stroke-linejoin:round;}
.path-4{fill:#d88e4b;fill-rule:evenodd;stroke:none;}
.path-5{fill:none;stroke:#6e2353;stroke-width:1;stroke-linecap:butt;stroke-linejoin:round;}
.path-6{fill:#6e2353;fill-rule:evenodd;stroke:none;}
.path-7{fill:none;stroke:#392966;stroke-width:1;stroke-linecap:butt;stroke-linejoin:round;}
.path-8{fill:#392966;fill-rule:evenodd;stroke:none;}
.path-9{fill:none;stroke:#cc9bc5;stroke-width:1;stroke-linecap:butt;stroke-linejoin:round;}
.path-10{fill:#cc9bc5;fill-rule:evenodd;stroke:none;}
.path-11{fill:none;stroke:#620527;stroke-width:1;stroke-linecap:butt;stroke-linejoin:round;}
.path-12{fill:#620527;fill-rule:evenodd;stroke:none;}
.path-13{fill:none;stroke:#6a3661;stroke-width:1;stroke-linecap:butt;stroke-linejoin:round;}
.path-14{fill:#6a3661;fill-rule:evenodd;stroke:none;}
.path-15{fill:none;stroke:#f8a087;stroke-width:1;stroke-linecap:butt;stroke-linejoin:round;}
.path-16{fill:#f8a087;fill-rule:evenodd;stroke:none;}
.path-17{fill:none;stroke:#ffffff;stroke-width:1;stroke-linecap:butt;stroke-linejoin:round;}
.path-18{fill:#ffffff;fill-rule:evenodd;stroke:none;}
.path-19{fill:none;stroke:#d89f4a;stroke-width:1;stroke-linecap:butt;stroke-linejoin:round;}
.path-20{fill:#d89f4a;fill-rule:evenodd;stroke:none;}
.path-21{fill:none;stroke:#fafd5b;stroke-width:1;stroke-linecap:butt;stroke-linejoin:round;}
.path-22{fill:#fafd5b;fill-rule:evenodd;stroke:none;}
.path-23{fill:none;stroke:#00ff00;stroke-width:8;stroke-linecap:round;stroke-linejoin:round;}
.path-24{fill:none;stroke:#000000;stroke-width:1;stroke-linecap:butt;stroke-linejoin:round;}
</style>
</svg>
