<svg version="1.1" id="Frame_89" xmlns="http://www.w3.org/2000/svg" xmlns:xlink="http://www.w3.org/1999/xlink" width="480px" height="720px">
<g id="main_bone">
<g id="right_arm">
<path class="path-0" d="M190.804,265.642C192.361,263.081,195.428,257.790,199.260,256.572C205.812,254.488,210.858,260.762,211.287,265.364C212.340,273.385,206.162,283.818,203.094,291.473C195.562,309.937,187.435,328.113,181.862,346.710C181.142,349.973,175.399,371.027,175.522,368.372C174.884,374.997,181.267,380.947,183.341,386.695C185.986,394.456,182.954,401.612,180.729,408.513C175.629,422.855,175.805,428.179,175.013,442.349C174.991,444.630,174.704,452.094,171.116,452.139C167.744,452.182,167.342,446.101,166.661,443.741C166.319,441.074,163.989,435.389,164.684,433.063C165.061,429.086,169.645,430.226,164.921,421.783C158.908,411.271,147.706,402.400,145.296,388.958C143.769,378.242,149.794,369.173,153.303,359.368C160.743,338.391,168.887,317.453,177.763,296.711C182.567,286.012,184.546,276.522,190.804,265.642M211.118,259.045C211.774,250.467,209.310,242.714,198.476,245.541C181.335,249.949,174.362,275.819,168.616,290.187C160.499,309.704,153.541,329.363,146.791,349.082C144.000,357.593,140.545,361.782,138.988,366.705C137.069,372.275,137.000,380.928,137.084,386.589C136.306,404.231,141.788,405.223,148.378,419.085C151.820,427.219,147.765,432.136,150.019,439.190C151.658,443.960,155.357,447.394,158.089,451.454C160.477,455.505,160.907,457.838,162.635,461.543C164.721,465.949,171.241,475.859,176.994,473.724C181.535,472.020,181.398,463.868,181.694,459.949C181.976,454.059,185.476,431.463,186.914,424.619C189.438,413.422,195.694,401.468,194.551,389.176C193.613,379.830,185.626,372.819,186.426,362.883C187.006,357.593,190.714,349.127,192.043,343.217C194.231,333.736,194.865,323.498,197.567,313.749C202.151,296.484,210.390,277.259,211.118,259.045Z"/>
<path class="path-1" d="M199.260,256.572C205.812,254.488,210.858,260.762,211.287,265.364"/>
<path class="path-1" d="M211.287,265.364C212.340,273.385,206.162,283.818,203.094,291.473"/>
<path class="path-1" d="M203.094,291.473C195.562,309.937,187.435,328.113,181.862,346.710"/>
<path class="path-1" d="M181.862,346.710C181.142,349.973,175.399,371.027,175.522,368.372"/>
<path class="path-1" d="M175.522,368.372C174.884,374.997,181.267,380.947,183.341,386.695"/>
<path class="path-1" d="M183.341,386.695C185.986,394.456,182.954,401.612,180.729,408.513"/>
<path class="path-1" d="M180.729,408.513C175.629,422.855,175.805,428.179,175.013,442.349"/>
<path class="path-1" d="M175.013,442.349C174.991,444.630,174.704,452.094,171.116,452.139"/>
<path class="path-1" d="M171.116,452.139C167.744,452.182,167.342,446.101,166.661,443.741"/>
<path class="path-1" d="M166.661,443.741C166.319,441.074,163.989,435.389,164.684,433.063"/>
<path class="path-1" d="M164.684,433.063C165.061,429.086,169.645,430.226,164.921,421.783"/>
<path class="path-1" d="M164.921,421.783C158.908,411.271,147.706,402.400,145.296,388.958"/>
<path class="path-1" d="M145.296,388.958C143.769,378.242,149.794,369.173,153.303,359.368"/>
<path class="path-1" d="M153.303,359.368C160.743,338.391,168.887,317.453,177.763,296.711"/>
<path class="path-1" d="M177.763,296.711C182.567,286.012,184.546,276.522,190.804,265.642"/>
<path class="path-1" d="M190.804,265.642C192.361,263.081,195.428,257.790,199.260,256.572"/>
<path class="path-2" d="M199.260,256.572C205.812,254.488,210.858,260.762,211.287,265.364C212.340,273.385,206.162,283.818,203.094,291.473C195.562,309.937,187.435,328.113,181.862,346.710C181.142,349.973,175.399,371.027,175.522,368.372C174.884,374.997,181.267,380.947,183.341,386.695C185.986,394.456,182.954,401.612,180.729,408.513C175.629,422.855,175.805,428.179,175.013,442.349C174.991,444.630,174.704,452.094,171.116,452.139C167.744,452.182,167.342,446.101,166.661,443.741C166.319,441.074,163.989,435.389,164.684,433.063C165.061,429.086,169.645,430.226,164.921,421.783C158.908,411.271,147.706,402.400,145.296,388.958C143.769,378.242,149.794,369.173,153.303,359.368C160.743,338.391,168.887,317.453,177.763,296.711C182.567,286.012,184.546,276.522,190.804,265.642C192.361,263.081,195.428,257.790,199.260,256.572Z"/>
</g>
<g id="layer_right_leg">
<g id="right_sole">
<path class="path-0" d="M215.069,646.433C216.373,646.813,230.679,645.874,232.184,645.863C233.479,645.885,241.841,645.953,242.940,645.861C243.605,645.828,250.620,645.715,251.153,646.298C251.150,645.646,243.127,647.520,242.639,647.536C241.835,647.605,217.776,648.128,217.509,648.223C216.182,648.331,205.926,647.312,205.473,646.296C206.421,645.803,213.573,645.993,215.069,646.433M246.534,641.111C246.540,641.393,245.421,642.512,244.990,642.505C244.103,642.494,234.520,643.945,233.362,643.644C232.035,643.539,225.971,643.309,224.772,643.255C222.517,643.154,210.779,643.112,208.609,642.536C208.245,642.368,207.213,641.738,207.146,641.539C207.109,641.237,212.330,642.118,213.502,642.128C215.313,642.144,224.936,641.463,226.792,641.400C228.804,641.332,239.163,641.441,241.219,641.214C241.542,641.186,246.322,640.412,246.534,641.111M250.586,640.480C241.818,637.905,234.183,640.421,226.831,640.560C220.807,640.679,208.577,638.655,201.967,642.143C200.936,642.687,199.259,643.686,199.247,644.919C199.237,646.456,201.777,649.501,203.613,650.637C205.888,652.044,210.543,651.938,212.397,652.166C221.806,653.669,233.577,652.194,243.297,651.732C250.411,651.402,251.984,648.324,252.631,644.918C252.905,643.478,253.366,641.258,250.586,640.480Z"/>
<path class="path-5" d="M215.069,646.433C216.373,646.813,230.679,645.874,232.184,645.863"/>
<path class="path-5" d="M232.184,645.863C233.479,645.885,241.841,645.953,242.940,645.861"/>
<path class="path-5" d="M242.940,645.861C243.605,645.828,250.620,645.715,251.153,646.298"/>
<path class="path-5" d="M251.153,646.298C251.150,645.646,243.127,647.520,242.639,647.536"/>
<path class="path-5" d="M242.639,647.536C241.835,647.605,217.776,648.128,217.509,648.223"/>
<path class="path-5" d="M217.509,648.223C216.182,648.331,205.926,647.312,205.473,646.296"/>
<path class="path-5" d="M205.473,646.296C206.421,645.803,213.573,645.993,215.069,646.433"/>
<path class="path-6" d="M215.069,646.433C216.373,646.813,230.679,645.874,232.184,645.863C233.479,645.885,241.841,645.953,242.940,645.861C243.605,645.828,250.620,645.715,251.153,646.298C251.150,645.646,243.127,647.520,242.639,647.536C241.835,647.605,217.776,648.128,217.509,648.223C216.182,648.331,205.926,647.312,205.473,646.296C206.421,645.803,213.573,645.993,215.069,646.433Z"/>
<path class="path-5" d="M213.502,642.128C215.313,642.144,224.936,641.463,226.792,641.400"/>
<path class="path-5" d="M226.792,641.400C228.804,641.332,239.163,641.441,241.219,641.214"/>
<path class="path-5" d="M241.219,641.214C241.542,641.186,246.322,640.412,246.534,641.111"/>
<path class="path-5" d="M246.534,641.111C246.540,641.393,245.421,642.512,244.990,642.505"/>
<path class="path-5" d="M244.990,642.505C244.103,642.494,234.520,643.945,233.362,643.644"/>
<path class="path-5" d="M233.362,643.644C232.035,643.539,225.971,643.309,224.772,643.255"/>
<path class="path-5" d="M224.772,643.255C222.517,643.154,210.779,643.112,208.609,642.536"/>
<path class="path-5" d="M208.609,642.536C208.245,642.368,207.213,641.738,207.146,641.539"/>
<path class="path-5" d="M207.146,641.539C207.109,641.237,212.330,642.118,213.502,642.128"/>
<path class="path-6" d="M213.502,642.128C215.313,642.144,224.936,641.463,226.792,641.400C228.804,641.332,239.163,641.441,241.219,641.214C241.542,641.186,246.322,640.412,246.534,641.111C246.540,641.393,245.421,642.512,244.990,642.505C244.103,642.494,234.520,643.945,233.362,643.644C232.035,643.539,225.971,643.309,224.772,643.255C222.517,643.154,210.779,643.112,208.609,642.536C208.245,642.368,207.213,641.738,207.146,641.539C207.109,641.237,212.330,642.118,213.502,642.128Z"/>
</g>
<g id="right_heel">
<path class="path-0" d="M200.992,569.417C201.237,554.296,202.062,542.548,220.407,539.347C228.580,537.769,244.298,539.913,249.050,547.721C251.542,551.595,250.985,557.404,251.331,561.611C251.953,568.435,256.491,581.540,246.895,583.377C246.288,583.555,229.427,584.240,224.165,584.502C217.199,585.499,209.964,586.162,204.775,581.466C202.241,578.668,200.869,572.846,200.992,569.417M257.814,545.882C253.919,536.381,240.555,531.341,231.299,532.969C219.232,534.941,206.712,531.302,199.154,542.872C193.374,551.719,193.081,567.664,195.172,577.726C195.998,582.460,199.260,591.038,203.287,593.553C206.239,595.309,210.700,594.646,214.126,594.549C230.825,594.343,260.843,599.134,259.721,574.242C259.370,567.959,259.812,550.805,257.814,545.882Z"/>
<path class="path-3" d="M220.407,539.347C228.580,537.769,244.298,539.913,249.050,547.721"/>
<path class="path-3" d="M249.050,547.721C251.542,551.595,250.985,557.404,251.331,561.611"/>
<path class="path-3" d="M251.331,561.611C251.953,568.435,256.491,581.540,246.895,583.377"/>
<path class="path-3" d="M246.895,583.377C246.288,583.555,229.427,584.240,224.165,584.502"/>
<path class="path-3" d="M224.165,584.502C217.199,585.499,209.964,586.162,204.775,581.466"/>
<path class="path-3" d="M204.775,581.466C202.241,578.668,200.869,572.846,200.992,569.417"/>
<path class="path-3" d="M200.992,569.417C201.237,554.296,202.062,542.548,220.407,539.347"/>
<path class="path-4" d="M220.407,539.347C228.580,537.769,244.298,539.913,249.050,547.721C251.542,551.595,250.985,557.404,251.331,561.611C251.953,568.435,256.491,581.540,246.895,583.377C246.288,583.555,229.427,584.240,224.165,584.502C217.199,585.499,209.964,586.162,204.775,581.466C202.241,578.668,200.869,572.846,200.992,569.417C201.237,554.296,202.062,542.548,220.407,539.347Z"/>
</g>
<g id="right_toe">
<path class="path-0" d="M199.889,627.841C200.447,617.218,204.890,604.189,217.623,601.494C220.860,600.631,225.593,601.608,229.294,602.021C247.678,604.021,255.057,607.616,257.159,626.152C257.554,630.391,258.592,635.473,255.899,639.287C252.312,644.272,232.362,645.628,226.270,645.795C216.288,646.286,208.075,647.403,201.717,638.304C199.007,634.338,199.660,632.328,199.889,627.841M261.854,609.595C255.615,598.225,228.197,593.441,216.092,595.885C198.715,599.496,191.992,612.256,191.084,627.079C190.722,632.349,190.305,638.293,193.332,642.700C194.612,644.563,197.412,646.750,199.199,648.146C210.824,658.037,218.006,656.975,232.178,655.666C240.136,655.064,252.873,652.376,259.043,646.758C263.005,642.799,263.924,638.971,264.084,633.696C264.057,628.714,264.023,613.204,261.854,609.595Z"/>
<path class="path-3" d="M217.623,601.494C220.860,600.631,225.593,601.608,229.294,602.021"/>
<path class="path-3" d="M229.294,602.021C247.678,604.021,255.057,607.616,257.159,626.152"/>
<path class="path-3" d="M257.159,626.152C257.554,630.391,258.592,635.473,255.899,639.287"/>
<path class="path-3" d="M255.899,639.287C252.312,644.272,232.362,645.628,226.270,645.795"/>
<path class="path-3" d="M226.270,645.795C216.288,646.286,208.075,647.403,201.717,638.304"/>
<path class="path-3" d="M201.717,638.304C199.007,634.338,199.660,632.328,199.889,627.841"/>
<path class="path-3" d="M199.889,627.841C200.447,617.218,204.890,604.189,217.623,601.494"/>
<path class="path-4" d="M217.623,601.494C220.860,600.631,225.593,601.608,229.294,602.021C247.678,604.021,255.057,607.616,257.159,626.152C257.554,630.391,258.592,635.473,255.899,639.287C252.312,644.272,232.362,645.628,226.270,645.795C216.288,646.286,208.075,647.403,201.717,638.304C199.007,634.338,199.660,632.328,199.889,627.841C200.447,617.218,204.890,604.189,217.623,601.494Z"/>
</g>
<g id="right_leg">
<path class="path-0" d="M190.576,404.318C192.881,393.251,207.998,391.112,217.662,393.397C223.456,394.643,233.103,396.827,236.703,401.951C239.869,406.458,239.787,414.909,238.376,420.233C236.584,426.989,217.613,439.658,224.699,439.096C233.961,438.392,238.686,425.695,244.342,429.116C247.445,430.992,246.185,436.842,246.395,441.027C248.189,458.611,244.517,476.957,243.180,494.053C242.652,500.038,239.540,508.674,240.295,514.192C241.989,530.651,241.010,533.984,241.899,543.765C241.993,547.100,242.314,563.937,243.195,568.327C244.298,573.315,244.827,578.778,245.998,583.776C247.589,590.563,245.259,602.371,240.748,607.083C237.927,609.915,227.879,616.924,223.799,616.475C218.569,616.054,212.988,609.285,210.158,604.425C208.947,602.578,205.198,593.916,204.615,591.590C203.643,586.987,201.523,585.938,201.204,580.439C200.653,574.430,206.758,568.392,205.418,562.365C200.087,538.699,196.322,507.723,197.097,492.314C197.425,479.609,192.558,437.611,192.778,425.828C193.104,414.107,189.468,412.191,190.576,404.318M212.595,381.781C206.883,379.952,202.352,374.626,196.475,376.930C194.934,377.687,192.299,379.798,191.218,380.968C176.207,394.751,177.120,407.828,177.533,426.745C177.381,434.373,176.184,442.367,177.317,449.611C178.220,456.253,180.703,461.675,181.358,467.946C182.463,474.424,183.083,481.355,184.258,489.396C185.723,497.950,188.903,507.851,190.382,522.516C190.723,534.418,192.286,545.567,192.194,556.948C192.257,559.416,191.156,565.159,190.956,567.057C189.900,571.356,188.598,576.440,188.138,580.597C187.860,585.837,190.085,590.831,192.109,595.377C194.295,601.073,197.059,608.316,200.849,612.621C203.885,616.069,208.234,618.377,212.041,620.533C215.644,622.546,218.954,624.248,222.930,625.490C225.851,626.426,228.768,627.952,231.948,627.691C233.281,627.372,243.291,622.047,245.180,620.899C246.459,620.017,247.293,617.534,248.399,616.319C249.656,614.777,252.560,614.352,254.210,613.145C257.758,610.545,261.952,608.326,264.245,604.568C275.891,584.864,259.687,571.370,255.987,551.721C254.241,542.449,252.884,523.061,253.495,512.630C254.023,498.726,258.971,485.603,259.847,471.286C260.289,465.854,260.477,459.329,260.741,453.122C260.857,448.459,258.849,444.955,258.164,440.413C257.320,436.431,257.090,423.420,256.298,419.100C255.771,415.419,255.722,410.795,254.283,407.177C250.351,397.973,236.080,388.077,226.679,385.359C221.975,383.832,216.977,383.648,212.595,381.781Z"/>
<path class="path-7" d="M217.662,393.397C223.456,394.643,233.103,396.827,236.703,401.951"/>
<path class="path-7" d="M236.703,401.951C239.869,406.458,239.787,414.909,238.376,420.233"/>
<path class="path-7" d="M238.376,420.233C236.584,426.989,217.613,439.658,224.699,439.096"/>
<path class="path-7" d="M224.699,439.096C233.961,438.392,238.686,425.695,244.342,429.116"/>
<path class="path-7" d="M244.342,429.116C247.445,430.992,246.185,436.842,246.395,441.027"/>
<path class="path-7" d="M246.395,441.027C248.189,458.611,244.517,476.957,243.180,494.053"/>
<path class="path-7" d="M243.180,494.053C242.652,500.038,239.540,508.674,240.295,514.192"/>
<path class="path-7" d="M240.295,514.192C241.989,530.651,241.010,533.984,241.899,543.765"/>
<path class="path-7" d="M241.899,543.765C241.993,547.100,242.314,563.937,243.195,568.327"/>
<path class="path-7" d="M243.195,568.327C244.298,573.315,244.827,578.778,245.998,583.776"/>
<path class="path-7" d="M245.998,583.776C247.589,590.563,245.259,602.371,240.748,607.083"/>
<path class="path-7" d="M240.748,607.083C237.927,609.915,227.879,616.924,223.799,616.475"/>
<path class="path-7" d="M223.799,616.475C218.569,616.054,212.988,609.285,210.158,604.425"/>
<path class="path-7" d="M210.158,604.425C208.947,602.578,205.198,593.916,204.615,591.590"/>
<path class="path-7" d="M204.615,591.590C203.643,586.987,201.523,585.938,201.204,580.439"/>
<path class="path-7" d="M201.204,580.439C200.653,574.430,206.758,568.392,205.418,562.365"/>
<path class="path-7" d="M205.418,562.365C200.087,538.699,196.322,507.723,197.097,492.314"/>
<path class="path-7" d="M197.097,492.314C197.425,479.609,192.558,437.611,192.778,425.828"/>
<path class="path-7" d="M192.778,425.828C193.104,414.107,189.468,412.191,190.576,404.318"/>
<path class="path-7" d="M190.576,404.318C192.881,393.251,207.998,391.112,217.662,393.397"/>
<path class="path-8" d="M217.662,393.397C223.456,394.643,233.103,396.827,236.703,401.951C239.869,406.458,239.787,414.909,238.376,420.233C236.584,426.989,217.613,439.658,224.699,439.096C233.961,438.392,238.686,425.695,244.342,429.116C247.445,430.992,246.185,436.842,246.395,441.027C248.189,458.611,244.517,476.957,243.180,494.053C242.652,500.038,239.540,508.674,240.295,514.192C241.989,530.651,241.010,533.984,241.899,543.765C241.993,547.100,242.314,563.937,243.195,568.327C244.298,573.315,244.827,578.778,245.998,583.776C247.589,590.563,245.259,602.371,240.748,607.083C237.927,609.915,227.879,616.924,223.799,616.475C218.569,616.054,212.988,609.285,210.158,604.425C208.947,602.578,205.198,593.916,204.615,591.590C203.643,586.987,201.523,585.938,201.204,580.439C200.653,574.430,206.758,568.392,205.418,562.365C200.087,538.699,196.322,507.723,197.097,492.314C197.425,479.609,192.558,437.611,192.778,425.828C193.104,414.107,189.468,412.191,190.576,404.318C192.881,393.251,207.998,391.112,217.662,393.397Z"/>
</g>
</g>
<g id="layer_left_leg">
<g id="left_heel">
<path class="path-0" d="M248.263,678.357C243.770,665.748,256.009,651.348,267.381,650.241C287.310,648.241,306.341,668.977,304.233,676.109C300.087,688.669,276.702,685.587,265.473,684.584C260.911,684.024,249.723,682.532,248.263,678.357M299.016,647.471C284.143,635.805,252.749,637.850,239.689,649.092C226.788,660.075,225.040,696.291,242.152,698.661C258.962,701.013,299.241,699.649,308.073,695.324C317.442,690.937,316.188,676.799,313.466,667.518C311.003,660.655,304.861,652.192,299.016,647.471Z"/>
<path class="path-3" d="M267.381,650.241C287.310,648.241,306.341,668.977,304.233,676.109"/>
<path class="path-3" d="M304.233,676.109C300.087,688.669,276.702,685.587,265.473,684.584"/>
<path class="path-3" d="M265.473,684.584C260.911,684.024,249.723,682.532,248.263,678.357"/>
<path class="path-3" d="M248.263,678.357C243.770,665.748,256.009,651.348,267.381,650.241"/>
<path class="path-4" d="M267.381,650.241C287.310,648.241,306.341,668.977,304.233,676.109C300.087,688.669,276.702,685.587,265.473,684.584C260.911,684.024,249.723,682.532,248.263,678.357C243.770,665.748,256.009,651.348,267.381,650.241Z"/>
</g>
<g id="left_leg">
<path class="path-0" d="M243.291,405.633C245.034,401.026,254.509,404.880,258.383,404.660C265.080,404.605,280.670,400.991,285.653,405.660C290.797,410.168,288.052,429.294,287.919,435.873C286.802,458.736,291.616,480.096,294.011,502.070C295.545,520.135,294.753,539.358,299.904,556.373C303.058,565.413,311.712,572.328,315.104,580.694C317.749,593.074,323.896,607.424,316.293,616.365C301.404,631.803,296.059,625.481,282.601,632.667C271.908,637.962,254.140,635.145,245.393,628.750C239.475,624.720,230.422,614.256,229.266,607.288C223.152,570.415,227.934,527.273,230.528,490.705C231.466,477.483,243.943,450.916,241.377,436.899C240.639,432.867,240.146,431.185,242.094,427.953C243.201,426.108,241.253,419.272,241.114,417.094C240.667,414.000,242.057,408.427,243.291,405.633M292.595,398.733C286.081,392.979,266.580,394.373,258.533,395.014C254.202,395.342,240.355,393.245,237.386,395.548C228.307,402.593,233.537,423.479,233.741,432.846C233.346,441.698,219.723,482.057,217.679,493.808C214.537,521.387,210.361,545.277,212.577,572.947C213.931,593.206,213.494,613.850,222.977,631.488C233.488,650.713,251.623,652.049,277.041,648.675C296.332,646.245,324.282,649.563,331.244,619.462C336.572,596.441,326.440,567.770,322.353,560.628C318.452,553.813,311.978,548.016,309.106,540.105C302.194,522.939,305.090,503.395,303.456,484.853C301.686,464.572,308.673,412.997,292.595,398.733Z"/>
<path class="path-7" d="M258.383,404.660C265.080,404.605,280.670,400.991,285.653,405.660"/>
<path class="path-7" d="M285.653,405.660C290.797,410.168,288.052,429.294,287.919,435.873"/>
<path class="path-7" d="M287.919,435.873C286.802,458.736,291.616,480.096,294.011,502.070"/>
<path class="path-7" d="M294.011,502.070C295.545,520.135,294.753,539.358,299.904,556.373"/>
<path class="path-7" d="M299.904,556.373C303.058,565.413,311.712,572.328,315.104,580.694"/>
<path class="path-7" d="M315.104,580.694C317.749,593.074,323.896,607.424,316.293,616.365"/>
<path class="path-7" d="M316.293,616.365C301.404,631.803,296.059,625.481,282.601,632.667"/>
<path class="path-7" d="M282.601,632.667C271.908,637.962,254.140,635.145,245.393,628.750"/>
<path class="path-7" d="M245.393,628.750C239.475,624.720,230.422,614.256,229.266,607.288"/>
<path class="path-7" d="M229.266,607.288C223.152,570.415,227.934,527.273,230.528,490.705"/>
<path class="path-7" d="M230.528,490.705C231.466,477.483,243.943,450.916,241.377,436.899"/>
<path class="path-7" d="M241.377,436.899C240.639,432.867,240.146,431.185,242.094,427.953"/>
<path class="path-7" d="M242.094,427.953C243.201,426.108,241.253,419.272,241.114,417.094"/>
<path class="path-7" d="M241.114,417.094C240.667,414.000,242.057,408.427,243.291,405.633"/>
<path class="path-7" d="M243.291,405.633C245.034,401.026,254.509,404.880,258.383,404.660"/>
<path class="path-8" d="M258.383,404.660C265.080,404.605,280.670,400.991,285.653,405.660C290.797,410.168,288.052,429.294,287.919,435.873C286.802,458.736,291.616,480.096,294.011,502.070C295.545,520.135,294.753,539.358,299.904,556.373C303.058,565.413,311.712,572.328,315.104,580.694C317.749,593.074,323.896,607.424,316.293,616.365C301.404,631.803,296.059,625.481,282.601,632.667C271.908,637.962,254.140,635.145,245.393,628.750C239.475,624.720,230.422,614.256,229.266,607.288C223.152,570.415,227.934,527.273,230.528,490.705C231.466,477.483,243.943,450.916,241.377,436.899C240.639,432.867,240.146,431.185,242.094,427.953C243.201,426.108,241.253,419.272,241.114,417.094C240.667,414.000,242.057,408.427,243.291,405.633C245.034,401.026,254.509,404.880,258.383,404.660Z"/>
</g>
<g id="left_toe">
<path class="path-0" d="M246.931,665.409C208.876,649.479,241.911,586.168,265.761,591.531C298.832,598.968,306.279,618.307,309.824,629.465C313.352,640.673,312.883,651.916,305.548,661.441C293.472,674.691,261.721,671.607,246.931,665.409M314.366,603.742C303.656,593.127,287.478,576.608,269.807,578.338C244.044,580.859,221.923,597.395,217.251,625.786C213.798,643.138,215.737,660.586,226.847,674.356C235.845,684.825,266.396,686.362,279.575,685.787C292.353,684.345,309.674,683.476,317.952,672.347C327.548,659.837,325.311,614.592,314.366,603.742Z"/>
<path class="path-3" d="M265.761,591.531C298.832,598.968,306.279,618.307,309.824,629.465"/>
<path class="path-3" d="M309.824,629.465C313.352,640.673,312.883,651.916,305.548,661.441"/>
<path class="path-3" d="M305.548,661.441C293.472,674.691,261.721,671.607,246.931,665.409"/>
<path class="path-3" d="M246.931,665.409C208.876,649.479,241.911,586.168,265.761,591.531"/>
<path class="path-4" d="M265.761,591.531C298.832,598.968,306.279,618.307,309.824,629.465C313.352,640.673,312.883,651.916,305.548,661.441C293.472,674.691,261.721,671.607,246.931,665.409C208.876,649.479,241.911,586.168,265.761,591.531Z"/>
</g>
<g id="left_sole">
<path class="path-0" d="M250.413,682.757C243.289,680.814,239.444,679.846,239.641,678.528C240.269,674.316,252.347,671.582,259.991,670.003C266.313,668.779,283.584,672.438,293.608,673.499C296.373,674.018,303.300,679.479,303.330,679.701C304.151,685.734,292.127,681.572,288.600,681.881C281.648,682.818,251.637,682.487,250.413,682.757M235.193,665.906C233.582,662.093,245.534,654.353,249.175,653.146C281.975,642.277,296.642,653.024,304.778,658.409C307.540,660.233,314.491,666.963,311.322,670.114C307.413,674.002,294.479,661.637,280.798,660.270C257.334,657.781,237.500,671.366,235.193,665.906M319.240,662.890C315.624,653.317,293.979,638.465,264.397,639.086C252.837,639.327,229.362,649.070,226.047,663.023C224.743,668.565,227.958,686.221,232.932,688.748C244.453,694.609,310.206,692.399,315.107,686.218C318.793,681.571,320.343,665.810,319.240,662.890Z"/>
<path class="path-5" d="M239.641,678.528C240.269,674.316,252.347,671.582,259.991,670.003"/>
<path class="path-5" d="M259.991,670.003C266.313,668.779,283.584,672.438,293.608,673.499"/>
<path class="path-5" d="M293.608,673.499C296.373,674.018,303.300,679.479,303.330,679.701"/>
<path class="path-5" d="M303.330,679.701C304.151,685.734,292.127,681.572,288.600,681.881"/>
<path class="path-5" d="M288.600,681.881C281.648,682.818,251.637,682.487,250.413,682.757"/>
<path class="path-5" d="M250.413,682.757C243.289,680.814,239.444,679.846,239.641,678.528"/>
<path class="path-6" d="M239.641,678.528C240.269,674.316,252.347,671.582,259.991,670.003C266.313,668.779,283.584,672.438,293.608,673.499C296.373,674.018,303.300,679.479,303.330,679.701C304.151,685.734,292.127,681.572,288.600,681.881C281.648,682.818,251.637,682.487,250.413,682.757C243.289,680.814,239.444,679.846,239.641,678.528Z"/>
<path class="path-5" d="M249.175,653.146C281.975,642.277,296.642,653.024,304.778,658.409"/>
<path class="path-5" d="M304.778,658.409C307.540,660.233,314.491,666.963,311.322,670.114"/>
<path class="path-5" d="M311.322,670.114C307.413,674.002,294.479,661.637,280.798,660.270"/>
<path class="path-5" d="M280.798,660.270C257.334,657.781,237.500,671.366,235.193,665.906"/>
<path class="path-5" d="M235.193,665.906C233.582,662.093,245.534,654.353,249.175,653.146"/>
<path class="path-6" d="M249.175,653.146C281.975,642.277,296.642,653.024,304.778,658.409C307.540,660.233,314.491,666.963,311.322,670.114C307.413,674.002,294.479,661.637,280.798,660.270C257.334,657.781,237.500,671.366,235.193,665.906C233.582,662.093,245.534,654.353,249.175,653.146Z"/>
</g>
</g>
<g id="hat_brim">
<path class="path-0" d="M300.629,148.727C304.174,142.670,312.846,126.200,320.829,126.049C326.152,125.948,337.312,135.387,343.023,138.274C348.069,141.173,353.442,143.733,359.147,146.286C362.391,147.894,365.638,149.496,368.888,151.092C383.331,158.140,379.458,164.537,371.116,163.363C352.427,160.388,349.458,161.777,331.319,152.803C328.971,151.849,322.921,148.638,322.005,152.980C320.770,157.994,329.834,162.149,333.523,163.742C340.245,167.276,347.639,171.129,355.635,171.642C357.970,171.932,365.941,171.113,367.314,173.417C369.374,176.706,359.892,185.537,357.934,187.571C354.663,190.628,351.395,193.685,348.112,196.077C343.186,199.496,337.920,202.591,332.285,203.696C321.666,205.229,288.112,190.558,286.893,178.936C286.102,172.296,296.757,155.123,300.629,148.727M332.722,121.498C327.651,117.268,323.872,111.017,316.616,114.483C311.338,116.913,305.829,124.670,302.246,128.731C288.923,145.621,276.989,165.481,278.063,187.089C278.655,200.720,283.305,200.300,294.383,205.413C311.172,213.414,332.512,215.671,350.316,207.016C361.857,201.473,381.808,183.125,386.904,171.049C388.490,167.026,391.313,157.988,388.896,153.376C386.128,147.771,363.658,138.548,356.937,135.015C348.872,130.842,339.815,127.020,332.722,121.498Z"/>
<path class="path-9" d="M320.829,126.049C326.152,125.948,337.312,135.387,343.023,138.274"/>
<path class="path-9" d="M343.023,138.274C348.069,141.173,353.442,143.733,359.147,146.286"/>
<path class="path-9" d="M359.147,146.286C362.391,147.894,365.638,149.496,368.888,151.092"/>
<path class="path-9" d="M368.888,151.092C383.331,158.140,379.458,164.537,371.116,163.363"/>
<path class="path-9" d="M371.116,163.363C352.427,160.388,349.458,161.777,331.319,152.803"/>
<path class="path-9" d="M331.319,152.803C328.971,151.849,322.921,148.638,322.005,152.980"/>
<path class="path-9" d="M322.005,152.980C320.770,157.994,329.834,162.149,333.523,163.742"/>
<path class="path-9" d="M333.523,163.742C340.245,167.276,347.639,171.129,355.635,171.642"/>
<path class="path-9" d="M355.635,171.642C357.970,171.932,365.941,171.113,367.314,173.417"/>
<path class="path-9" d="M367.314,173.417C369.374,176.706,359.892,185.537,357.934,187.571"/>
<path class="path-9" d="M357.934,187.571C354.663,190.628,351.395,193.685,348.112,196.077"/>
<path class="path-9" d="M348.112,196.077C343.186,199.496,337.920,202.591,332.285,203.696"/>
<path class="path-9" d="M332.285,203.696C321.666,205.229,288.112,190.558,286.893,178.936"/>
<path class="path-9" d="M286.893,178.936C286.102,172.296,296.757,155.123,300.629,148.727"/>
<path class="path-9" d="M300.629,148.727C304.174,142.670,312.846,126.200,320.829,126.049"/>
<path class="path-10" d="M320.829,126.049C326.152,125.948,337.312,135.387,343.023,138.274C348.069,141.173,353.442,143.733,359.147,146.286C362.391,147.894,365.638,149.496,368.888,151.092C383.331,158.140,379.458,164.537,371.116,163.363C352.427,160.388,349.458,161.777,331.319,152.803C328.971,151.849,322.921,148.638,322.005,152.980C320.770,157.994,329.834,162.149,333.523,163.742C340.245,167.276,347.639,171.129,355.635,171.642C357.970,171.932,365.941,171.113,367.314,173.417C369.374,176.706,359.892,185.537,357.934,187.571C354.663,190.628,351.395,193.685,348.112,196.077C343.186,199.496,337.920,202.591,332.285,203.696C321.666,205.229,288.112,190.558,286.893,178.936C286.102,172.296,296.757,155.123,300.629,148.727C304.174,142.670,312.846,126.200,320.829,126.049Z"/>
</g>
<g id="hair">
<path class="path-0" d="M197.774,142.481C213.882,128.774,233.588,125.509,254.454,122.367C263.806,120.940,270.952,126.621,278.828,132.096C285.332,136.939,292.356,142.430,299.256,147.505C309.638,155.083,314.066,158.973,318.040,162.718C321.398,165.556,326.726,170.960,330.791,173.363C335.696,176.260,346.666,192.281,348.903,193.982C342.552,196.930,332.370,199.708,328.031,204.050C330.310,209.661,331.636,218.599,331.942,221.291C325.818,222.394,318.339,220.388,306.722,219.564C305.188,226.960,305.935,233.648,302.056,241.408C294.141,239.915,288.600,238.620,278.207,235.290C272.239,241.176,270.663,240.939,260.745,248.587C253.219,245.049,247.095,241.067,239.909,238.994C233.491,242.606,222.929,244.788,219.628,248.095C215.077,241.514,210.751,234.171,207.148,231.172C197.825,234.172,194.023,237.231,187.556,240.418C182.762,235.397,185.261,230.549,179.726,223.003C175.295,222.312,168.361,220.438,162.822,220.934C166.153,216.054,167.367,201.088,173.625,198.526C181.346,195.364,175.314,186.833,179.324,178.149C180.306,175.895,190.237,158.385,190.997,155.617C192.486,150.825,194.132,145.733,197.774,142.481M282.042,119.046C268.853,111.005,243.750,108.594,230.303,113.314C217.946,117.496,205.968,122.834,195.745,131.163C190.014,135.768,183.833,142.309,180.400,148.822C173.506,161.497,164.502,188.567,159.150,201.231C154.906,211.713,150.663,218.940,146.129,224.869C164.334,229.372,169.732,231.464,175.035,231.702C176.189,239.378,183.918,244.337,183.600,252.978C192.219,250.740,197.195,247.963,204.774,245.184C209.227,249.387,212.634,255.383,217.075,261.142C224.524,258.236,232.401,257.685,239.415,251.446C245.233,253.854,254.462,257.572,263.960,261.537C271.742,256.259,273.483,255.818,280.690,249.966C290.363,251.280,300.889,256.058,310.275,254.032C308.734,245.964,314.158,239.729,312.897,234.583C319.852,231.901,342.130,232.737,345.842,232.016C344.973,226.028,340.433,214.873,341.225,207.542C347.803,205.018,353.351,202.767,363.384,196.564C359.217,190.277,352.136,182.676,346.174,178.331C341.146,174.704,336.828,169.648,331.778,165.848C314.678,153.199,306.446,134.005,282.042,119.046Z"/>
<path class="path-11" d="M254.454,122.367C263.806,120.940,270.952,126.621,278.828,132.096"/>
<path class="path-11" d="M278.828,132.096C285.332,136.939,292.356,142.430,299.256,147.505"/>
<path class="path-11" d="M299.256,147.505C309.638,155.083,314.066,158.973,318.040,162.718"/>
<path class="path-11" d="M318.040,162.718C321.398,165.556,326.726,170.960,330.791,173.363"/>
<path class="path-11" d="M330.791,173.363C335.696,176.260,346.666,192.281,348.903,193.982"/>
<path class="path-11" d="M348.903,193.982C342.552,196.930,332.370,199.708,328.031,204.050"/>
<path class="path-11" d="M328.031,204.050C330.310,209.661,331.636,218.599,331.942,221.291"/>
<path class="path-11" d="M331.942,221.291C325.818,222.394,318.339,220.388,306.722,219.564"/>
<path class="path-11" d="M306.722,219.564C305.188,226.960,305.935,233.648,302.056,241.408"/>
<path class="path-11" d="M302.056,241.408C294.141,239.915,288.600,238.620,278.207,235.290"/>
<path class="path-11" d="M278.207,235.290C272.239,241.176,270.663,240.939,260.745,248.587"/>
<path class="path-11" d="M260.745,248.587C253.219,245.049,247.095,241.067,239.909,238.994"/>
<path class="path-11" d="M239.909,238.994C233.491,242.606,222.929,244.788,219.628,248.095"/>
<path class="path-11" d="M219.628,248.095C215.077,241.514,210.751,234.171,207.148,231.172"/>
<path class="path-11" d="M207.148,231.172C197.825,234.172,194.023,237.231,187.556,240.418"/>
<path class="path-11" d="M187.556,240.418C182.762,235.397,185.261,230.549,179.726,223.003"/>
<path class="path-11" d="M179.726,223.003C175.295,222.312,168.361,220.438,162.822,220.934"/>
<path class="path-11" d="M162.822,220.934C166.153,216.054,167.367,201.088,173.625,198.526"/>
<path class="path-11" d="M173.625,198.526C181.346,195.364,175.314,186.833,179.324,178.149"/>
<path class="path-11" d="M179.324,178.149C180.306,175.895,190.237,158.385,190.997,155.617"/>
<path class="path-11" d="M190.997,155.617C192.486,150.825,194.132,145.733,197.774,142.481"/>
<path class="path-11" d="M197.774,142.481C213.882,128.774,233.588,125.509,254.454,122.367"/>
<path class="path-12" d="M254.454,122.367C263.806,120.940,270.952,126.621,278.828,132.096C285.332,136.939,292.356,142.430,299.256,147.505C309.638,155.083,314.066,158.973,318.040,162.718C321.398,165.556,326.726,170.960,330.791,173.363C335.696,176.260,346.666,192.281,348.903,193.982C342.552,196.930,332.370,199.708,328.031,204.050C330.310,209.661,331.636,218.599,331.942,221.291C325.818,222.394,318.339,220.388,306.722,219.564C305.188,226.960,305.935,233.648,302.056,241.408C294.141,239.915,288.600,238.620,278.207,235.290C272.239,241.176,270.663,240.939,260.745,248.587C253.219,245.049,247.095,241.067,239.909,238.994C233.491,242.606,222.929,244.788,219.628,248.095C215.077,241.514,210.751,234.171,207.148,231.172C197.825,234.172,194.023,237.231,187.556,240.418C182.762,235.397,185.261,230.549,179.726,223.003C175.295,222.312,168.361,220.438,162.822,220.934C166.153,216.054,167.367,201.088,173.625,198.526C181.346,195.364,175.314,186.833,179.324,178.149C180.306,175.895,190.237,158.385,190.997,155.617C192.486,150.825,194.132,145.733,197.774,142.481C213.882,128.774,233.588,125.509,254.454,122.367Z"/>
</g>
<g id="clothes">
<path class="path-0" d="M253.220,365.939C247.685,363.807,227.141,367.105,223.449,372.029C221.388,374.955,224.195,376.812,227.302,377.032C231.524,377.331,253.524,374.721,256.461,372.968C260.792,370.315,255.358,366.656,253.220,365.939M209.863,262.459C214.023,250.199,242.037,239.957,254.810,242.194C263.728,243.729,290.653,260.449,293.830,269.156C296.501,276.127,295.090,300.816,294.581,309.155C293.368,324.417,293.037,339.783,292.139,355.067C292.001,367.848,301.228,383.450,293.188,393.386C289.494,396.890,277.263,392.582,271.670,392.872C266.967,393.340,258.296,397.366,253.952,397.609C232.588,399.389,235.375,405.373,215.270,405.522C210.902,405.389,197.102,401.977,194.525,399.738C188.393,393.026,192.614,383.627,194.824,375.157C199.109,361.101,200.434,351.124,202.870,335.731C205.278,319.845,209.009,302.971,210.623,286.442C210.871,280.486,208.861,266.017,209.863,262.459M290.004,251.633C274.655,240.426,259.460,230.934,239.319,234.715C233.904,235.531,206.223,245.887,203.604,248.982C199.512,253.904,201.393,274.268,200.709,281.489C200.227,290.092,199.634,299.023,198.135,307.195C197.167,313.445,195.254,318.926,194.638,324.877C193.622,331.455,192.888,338.585,191.257,344.577C186.136,362.891,172.346,399.293,194.004,412.782C198.385,415.532,204.778,415.873,210.237,416.076C220.055,416.254,230.670,416.061,240.414,413.959C252.768,411.649,263.835,403.391,276.548,402.953C282.166,402.760,298.196,411.878,303.239,408.742C305.445,407.439,309.742,397.020,310.015,394.138C310.713,379.233,302.844,364.955,302.032,350.056C301.713,338.076,302.184,326.321,304.087,314.138C305.430,304.202,308.054,294.728,309.043,284.420C309.125,280.047,310.272,274.771,308.347,270.208C305.113,261.843,296.907,256.663,290.004,251.633Z"/>
<path class="path-13" d="M253.220,365.939C247.685,363.807,227.141,367.105,223.449,372.029"/>
<path class="path-13" d="M223.449,372.029C221.388,374.955,224.195,376.812,227.302,377.032"/>
<path class="path-13" d="M227.302,377.032C231.524,377.331,253.524,374.721,256.461,372.968"/>
<path class="path-13" d="M256.461,372.968C260.792,370.315,255.358,366.656,253.220,365.939"/>
<path class="path-13" d="M209.863,262.459C214.023,250.199,242.037,239.957,254.810,242.194"/>
<path class="path-13" d="M254.810,242.194C263.728,243.729,290.653,260.449,293.830,269.156"/>
<path class="path-13" d="M293.830,269.156C296.501,276.127,295.090,300.816,294.581,309.155"/>
<path class="path-13" d="M294.581,309.155C293.368,324.417,293.037,339.783,292.139,355.067"/>
<path class="path-13" d="M292.139,355.067C292.001,367.848,301.228,383.450,293.188,393.386"/>
<path class="path-13" d="M293.188,393.386C289.494,396.890,277.263,392.582,271.670,392.872"/>
<path class="path-13" d="M271.670,392.872C266.967,393.340,258.296,397.366,253.952,397.609"/>
<path class="path-13" d="M253.952,397.609C232.588,399.389,235.375,405.373,215.270,405.522"/>
<path class="path-13" d="M215.270,405.522C210.902,405.389,197.102,401.977,194.525,399.738"/>
<path class="path-13" d="M194.525,399.738C188.393,393.026,192.614,383.627,194.824,375.157"/>
<path class="path-13" d="M194.824,375.157C199.109,361.101,200.434,351.124,202.870,335.731"/>
<path class="path-13" d="M202.870,335.731C205.278,319.845,209.009,302.971,210.623,286.442"/>
<path class="path-13" d="M210.623,286.442C210.871,280.486,208.861,266.017,209.863,262.459"/>
<path class="path-14" d="M253.220,365.939C247.685,363.807,227.141,367.105,223.449,372.029C221.388,374.955,224.195,376.812,227.302,377.032C231.524,377.331,253.524,374.721,256.461,372.968C260.792,370.315,255.358,366.656,253.220,365.939M209.863,262.459C214.023,250.199,242.037,239.957,254.810,242.194C263.728,243.729,290.653,260.449,293.830,269.156C296.501,276.127,295.090,300.816,294.581,309.155C293.368,324.417,293.037,339.783,292.139,355.067C292.001,367.848,301.228,383.450,293.188,393.386C289.494,396.890,277.263,392.582,271.670,392.872C266.967,393.340,258.296,397.366,253.952,397.609C232.588,399.389,235.375,405.373,215.270,405.522C210.902,405.389,197.102,401.977,194.525,399.738C188.393,393.026,192.614,383.627,194.824,375.157C199.109,361.101,200.434,351.124,202.870,335.731C205.278,319.845,209.009,302.971,210.623,286.442C210.871,280.486,208.861,266.017,209.863,262.459Z"/>
</g>
<g id="neck">
<path class="path-0" d="M246.920,223.262C247.194,219.929,248.138,216.917,251.790,216.518C263.396,214.313,263.075,251.920,252.431,252.112C242.452,252.292,246.369,229.593,246.920,223.262M251.623,207.205C248.956,206.920,245.974,207.639,243.669,209.012C234.438,213.836,235.925,222.461,236.081,231.109C235.825,235.441,236.231,239.426,234.301,243.121C232.698,246.478,228.099,249.887,228.165,253.547C228.678,263.521,255.623,263.035,262.603,262.576C265.263,262.528,274.262,263.364,275.194,259.688C275.176,258.690,268.314,247.166,267.232,242.528C263.987,228.611,272.930,207.820,251.623,207.205Z"/>
<path class="path-15" d="M251.790,216.518C263.396,214.313,263.075,251.920,252.431,252.112"/>
<path class="path-15" d="M252.431,252.112C242.452,252.292,246.369,229.593,246.920,223.262"/>
<path class="path-15" d="M246.920,223.262C247.194,219.929,248.138,216.917,251.790,216.518"/>
<path class="path-16" d="M251.790,216.518C263.396,214.313,263.075,251.920,252.431,252.112C242.452,252.292,246.369,229.593,246.920,223.262C247.194,219.929,248.138,216.917,251.790,216.518Z"/>
</g>
<g id="layer_head">
<g id="right_ear">
<path class="path-0" d="M166.687,195.847C152.480,197.147,136.726,162.497,157.776,163.855C161.394,164.087,164.355,170.161,165.010,172.845C167.280,182.098,176.777,194.929,166.687,195.847M163.042,152.142C159.676,150.224,155.579,149.628,152.062,151.253C141.319,154.268,135.902,167.160,138.029,178.172C140.563,190.570,154.603,204.109,166.184,206.163C169.240,206.721,175.559,208.698,178.426,207.103C184.980,202.905,178.089,192.778,176.008,187.037C173.906,180.816,167.906,156.140,163.042,152.142Z"/>
<path class="path-15" d="M157.776,163.855C161.394,164.087,164.355,170.161,165.010,172.845"/>
<path class="path-15" d="M165.010,172.845C167.280,182.098,176.777,194.929,166.687,195.847"/>
<path class="path-15" d="M166.687,195.847C152.480,197.147,136.726,162.497,157.776,163.855"/>
<path class="path-16" d="M157.776,163.855C161.394,164.087,164.355,170.161,165.010,172.845C167.280,182.098,176.777,194.929,166.687,195.847C152.480,197.147,136.726,162.497,157.776,163.855Z"/>
</g>
<g id="face_Mask">
<g id="face">
<path class="path-0" d="M180.352,106.768C188.639,96.160,221.266,88.355,234.865,86.100C250.129,83.814,265.807,85.847,280.864,90.219C286.218,91.783,293.916,93.620,298.631,97.203C306.684,103.370,311.858,114.565,314.890,123.826C317.282,130.539,321.573,139.518,319.880,146.036C312.264,175.371,308.298,188.847,302.646,197.126C295.626,207.409,282.608,211.464,271.286,216.385C259.259,221.410,246.981,223.528,240.572,223.305C228.141,222.874,201.305,216.980,192.056,209.481C181.442,200.543,180.075,186.790,175.750,174.223C173.129,167.312,168.912,156.896,167.472,149.798C165.413,138.758,173.530,115.420,180.352,106.768M302.503,89.453C288.665,77.482,252.342,75.370,234.761,78.348C226.462,79.495,218.490,80.305,210.876,82.441C205.249,84.210,200.305,86.963,195.010,88.726C183.448,93.271,178.609,91.924,170.985,102.835C165.506,110.475,157.330,140.322,158.429,149.500C159.373,156.365,166.637,171.631,169.107,179.312C172.281,189.378,174.949,203.802,181.525,211.577C188.703,219.818,198.345,224.113,213.141,228.059C224.654,231.130,237.392,232.261,249.663,232.346C254.598,232.682,263.722,229.657,276.796,223.727C288.679,218.158,301.708,213.258,309.695,201.750C319.075,188.236,322.830,166.651,330.437,144.533C336.868,125.831,311.114,96.740,302.503,89.453Z"/>
<path class="path-15" d="M234.865,86.100C250.129,83.814,265.807,85.847,280.864,90.219"/>
<path class="path-15" d="M280.864,90.219C286.218,91.783,293.916,93.620,298.631,97.203"/>
<path class="path-15" d="M298.631,97.203C306.684,103.370,311.858,114.565,314.890,123.826"/>
<path class="path-15" d="M314.890,123.826C317.282,130.539,321.573,139.518,319.880,146.036"/>
<path class="path-15" d="M319.880,146.036C312.264,175.371,308.298,188.847,302.646,197.126"/>
<path class="path-15" d="M302.646,197.126C295.626,207.409,282.608,211.464,271.286,216.385"/>
<path class="path-15" d="M271.286,216.385C259.259,221.410,246.981,223.528,240.572,223.305"/>
<path class="path-15" d="M240.572,223.305C228.141,222.874,201.305,216.980,192.056,209.481"/>
<path class="path-15" d="M192.056,209.481C181.442,200.543,180.075,186.790,175.750,174.223"/>
<path class="path-15" d="M175.750,174.223C173.129,167.312,168.912,156.896,167.472,149.798"/>
<path class="path-15" d="M167.472,149.798C165.413,138.758,173.530,115.420,180.352,106.768"/>
<path class="path-15" d="M180.352,106.768C188.639,96.160,221.266,88.355,234.865,86.100"/>
<path class="path-16" d="M234.865,86.100C250.129,83.814,265.807,85.847,280.864,90.219C286.218,91.783,293.916,93.620,298.631,97.203C306.684,103.370,311.858,114.565,314.890,123.826C317.282,130.539,321.573,139.518,319.880,146.036C312.264,175.371,308.298,188.847,302.646,197.126C295.626,207.409,282.608,211.464,271.286,216.385C259.259,221.410,246.981,223.528,240.572,223.305C228.141,222.874,201.305,216.980,192.056,209.481C181.442,200.543,180.075,186.790,175.750,174.223C173.129,167.312,168.912,156.896,167.472,149.798C165.413,138.758,173.530,115.420,180.352,106.768C188.639,96.160,221.266,88.355,234.865,86.100Z"/>
</g>
</g>
<mask id="mask_target" style="mask-type:alpha;">
<use xlink:href="#face_Mask"/>
</mask>
<g id="mouse">
<path class="path-0" d="M247.209,214.721C252.433,215.726,252.607,220.476,252.143,220.992C251.881,221.283,250.740,220.354,247.772,219.923C242.149,219.108,239.466,220.331,239.255,219.621C239.024,218.842,241.093,213.544,247.209,214.721Z"/>
</g>
<g id="layer_eyes_Mtarget" mask="url(#mask_target)">
<g id="eyes">
<mask style="mask-type:alpha;" id="f3906406-f197-4bf1-91d8-744c09cca836">
<use xlink:href="#cmn_f3906406-f197-4bf1-91d8-744c09cca836"/>
</mask>
<g id="cmn_f3906406-f197-4bf1-91d8-744c09cca836">
<path class="path-0" d="M223.402,175.154C225.413,187.679,217.332,196.177,204.915,193.370C197.538,191.495,194.043,186.024,191.343,179.471C189.740,175.983,182.161,159.975,187.822,161.802C192.338,163.260,222.679,170.649,223.402,175.154M230.159,178.122C230.991,176.594,232.166,174.290,231.861,172.577C231.523,170.683,229.865,167.716,227.924,167.515C222.662,166.852,204.168,160.882,197.471,158.538C190.928,156.399,177.658,148.771,173.432,155.321C171.627,157.992,175.762,158.821,177.241,163.065C183.631,181.409,190.536,198.758,210.137,199.052C227.268,199.309,226.001,185.752,230.159,178.122M273.257,187.200C266.135,187.199,256.603,181.987,256.460,170.892C256.417,167.563,269.785,162.084,275.762,158.758C281.656,155.478,292.871,148.857,295.962,148.887C299.458,149.341,297.783,152.461,298.016,162.090C298.351,175.951,286.210,187.203,273.257,187.200M304.318,168.290C307.117,156.193,307.136,140.039,304.774,139.037C299.722,136.892,287.139,146.488,279.744,150.036C270.100,154.663,254.811,164.320,248.158,166.576C246.219,167.312,244.467,167.890,244.229,169.306C243.757,172.102,249.072,173.832,250.921,175.982C254.164,179.754,255.364,186.694,260.620,189.433C270.683,195.080,278.132,192.792,289.003,187.674C297.339,183.787,302.381,176.664,304.318,168.290Z"/>
<path class="path-17" d="M295.962,148.887C299.458,149.341,297.783,152.461,298.016,162.090"/>
<path class="path-17" d="M298.016,162.090C298.351,175.951,286.210,187.203,273.257,187.200"/>
<path class="path-17" d="M273.257,187.200C266.135,187.199,256.603,181.987,256.460,170.892"/>
<path class="path-17" d="M256.460,170.892C256.417,167.563,269.785,162.084,275.762,158.758"/>
<path class="path-17" d="M275.762,158.758C281.656,155.478,292.871,148.857,295.962,148.887"/>
<path class="path-18" d="M295.962,148.887C299.458,149.341,297.783,152.461,298.016,162.090C298.351,175.951,286.210,187.203,273.257,187.200C266.135,187.199,256.603,181.987,256.460,170.892C256.417,167.563,269.785,162.084,275.762,158.758C281.656,155.478,292.871,148.857,295.962,148.887Z"/>
<path class="path-17" d="M187.822,161.802C192.338,163.260,222.679,170.649,223.402,175.154"/>
<path class="path-17" d="M223.402,175.154C225.413,187.679,217.332,196.177,204.915,193.370"/>
<path class="path-17" d="M204.915,193.370C197.538,191.495,194.043,186.024,191.343,179.471"/>
<path class="path-17" d="M191.343,179.471C189.740,175.983,182.161,159.975,187.822,161.802"/>
<path class="path-18" d="M187.822,161.802C192.338,163.260,222.679,170.649,223.402,175.154C225.413,187.679,217.332,196.177,204.915,193.370C197.538,191.495,194.043,186.024,191.343,179.471C189.740,175.983,182.161,159.975,187.822,161.802Z"/>
</g>
</g>
<g id="pupil">
<path class="path-0" d="M261.681,164.003C263.955,163.390,267.186,166.527,268.182,174.964C268.919,181.214,267.348,183.811,265.620,184.050C263.726,184.311,262.030,181.744,260.619,174.993C259.113,167.788,259.711,164.534,261.681,164.003Z" mask="url(#f3906406-f197-4bf1-91d8-744c09cca836)"/>
<path class="path-0" d="M215.167,167.742C217.498,167.385,219.321,171.209,220.112,179.962C220.563,184.947,220.117,187.005,218.821,187.358C217.276,187.779,215.151,185.847,213.612,180.085C211.473,172.072,212.966,168.079,215.167,167.742Z" mask="url(#f3906406-f197-4bf1-91d8-744c09cca836)"/>
</g>
</g>
<g id="hat">
<path class="path-0" d="M319.021,122.089C321.065,123.346,324.074,125.652,324.465,128.308C325.935,134.611,314.937,134.218,311.609,134.620C304.987,134.755,298.061,134.677,291.738,134.953C286.604,135.646,281.462,136.266,276.314,136.848C267.659,137.150,259.006,136.975,250.347,137.034C235.837,137.704,221.360,137.550,206.801,137.756C205.459,137.828,166.866,143.023,160.263,139.611C151.344,135.103,160.295,128.100,159.857,123.711C159.774,120.104,151.908,119.272,153.750,113.006C155.588,107.103,176.327,102.702,182.491,101.271C194.660,98.378,207.149,94.525,220.003,92.333C238.037,89.407,256.710,89.463,275.080,87.506C287.767,86.256,317.065,93.425,323.044,106.373C328.038,116.816,311.130,107.311,309.127,106.693C307.408,105.487,301.356,102.975,302.836,106.709C304.228,112.531,314.724,118.783,319.021,122.089M201.102,88.163C190.749,90.832,181.113,92.681,171.141,95.192C166.842,96.263,161.619,98.948,157.562,96.822C148.461,92.285,157.848,69.171,162.029,63.174C175.998,43.655,206.747,34.736,231.972,34.245C276.995,33.368,294.761,40.004,309.954,54.815C314.679,59.090,331.565,80.536,322.997,86.686C319.710,88.734,313.657,84.891,310.647,83.611C300.283,79.462,257.882,73.523,201.102,88.163M259.085,23.612C251.493,23.237,249.549,21.674,241.549,22.459C210.333,25.993,168.436,28.652,150.362,59.155C144.569,69.189,144.695,80.431,142.858,91.055C141.336,99.629,136.501,106.279,137.607,114.816C138.706,121.805,141.767,123.413,144.149,128.729C146.862,134.367,145.493,137.058,147.183,140.710C150.919,151.353,160.625,150.693,169.958,150.469C174.795,150.354,192.635,149.864,202.351,149.513C214.204,149.086,230.004,148.387,241.852,147.819C251.047,147.377,263.310,146.799,272.497,146.199C280.944,145.647,292.212,144.907,300.631,144.018C310.818,142.942,333.311,140.710,334.471,139.451C336.545,137.239,340.034,116.001,339.982,112.052C339.937,108.694,338.220,105.359,338.154,99.984C337.647,85.490,337.136,72.006,328.765,58.584C313.388,34.400,285.881,25.597,259.085,23.612Z"/>
<path class="path-19" d="M275.080,87.506C287.767,86.256,317.065,93.425,323.044,106.373"/>
<path class="path-19" d="M323.044,106.373C328.038,116.816,311.130,107.311,309.127,106.693"/>
<path class="path-19" d="M309.127,106.693C307.408,105.487,301.356,102.975,302.836,106.709"/>
<path class="path-19" d="M302.836,106.709C304.228,112.531,314.724,118.783,319.021,122.089"/>
<path class="path-19" d="M319.021,122.089C321.065,123.346,324.074,125.652,324.465,128.308"/>
<path class="path-19" d="M324.465,128.308C325.935,134.611,314.937,134.218,311.609,134.620"/>
<path class="path-19" d="M311.609,134.620C304.987,134.755,298.061,134.677,291.738,134.953"/>
<path class="path-19" d="M291.738,134.953C286.604,135.646,281.462,136.266,276.314,136.848"/>
<path class="path-19" d="M276.314,136.848C267.659,137.150,259.006,136.975,250.347,137.034"/>
<path class="path-19" d="M250.347,137.034C235.837,137.704,221.360,137.550,206.801,137.756"/>
<path class="path-19" d="M206.801,137.756C205.459,137.828,166.866,143.023,160.263,139.611"/>
<path class="path-19" d="M160.263,139.611C151.344,135.103,160.295,128.100,159.857,123.711"/>
<path class="path-19" d="M159.857,123.711C159.774,120.104,151.908,119.272,153.750,113.006"/>
<path class="path-19" d="M153.750,113.006C155.588,107.103,176.327,102.702,182.491,101.271"/>
<path class="path-19" d="M182.491,101.271C194.660,98.378,207.149,94.525,220.003,92.333"/>
<path class="path-19" d="M220.003,92.333C238.037,89.407,256.710,89.463,275.080,87.506"/>
<path class="path-20" d="M275.080,87.506C287.767,86.256,317.065,93.425,323.044,106.373C328.038,116.816,311.130,107.311,309.127,106.693C307.408,105.487,301.356,102.975,302.836,106.709C304.228,112.531,314.724,118.783,319.021,122.089C321.065,123.346,324.074,125.652,324.465,128.308C325.935,134.611,314.937,134.218,311.609,134.620C304.987,134.755,298.061,134.677,291.738,134.953C286.604,135.646,281.462,136.266,276.314,136.848C267.659,137.150,259.006,136.975,250.347,137.034C235.837,137.704,221.360,137.550,206.801,137.756C205.459,137.828,166.866,143.023,160.263,139.611C151.344,135.103,160.295,128.100,159.857,123.711C159.774,120.104,151.908,119.272,153.750,113.006C155.588,107.103,176.327,102.702,182.491,101.271C194.660,98.378,207.149,94.525,220.003,92.333C238.037,89.407,256.710,89.463,275.080,87.506Z"/>
<path class="path-9" d="M231.972,34.245C276.995,33.368,294.761,40.004,309.954,54.815"/>
<path class="path-9" d="M309.954,54.815C314.679,59.090,331.565,80.536,322.997,86.686"/>
<path class="path-9" d="M322.997,86.686C319.710,88.734,313.657,84.891,310.647,83.611"/>
<path class="path-9" d="M310.647,83.611C300.283,79.462,257.882,73.523,201.102,88.163"/>
<path class="path-9" d="M201.102,88.163C190.749,90.832,181.113,92.681,171.141,95.192"/>
<path class="path-9" d="M171.141,95.192C166.842,96.263,161.619,98.948,157.562,96.822"/>
<path class="path-9" d="M157.562,96.822C148.461,92.285,157.848,69.171,162.029,63.174"/>
<path class="path-9" d="M162.029,63.174C175.998,43.655,206.747,34.736,231.972,34.245"/>
<path class="path-10" d="M231.972,34.245C276.995,33.368,294.761,40.004,309.954,54.815C314.679,59.090,331.565,80.536,322.997,86.686C319.710,88.734,313.657,84.891,310.647,83.611C300.283,79.462,257.882,73.523,201.102,88.163C190.749,90.832,181.113,92.681,171.141,95.192C166.842,96.263,161.619,98.948,157.562,96.822C148.461,92.285,157.848,69.171,162.029,63.174C175.998,43.655,206.747,34.736,231.972,34.245Z"/>
</g>
<g id="left_ear">
<path class="path-0" d="M318.794,186.299C317.578,182.384,326.115,157.590,327.727,155.186C332.556,147.965,345.008,158.039,346.405,164.682C347.952,172.874,336.605,181.789,329.998,186.874C324.950,190.639,320.420,191.510,318.794,186.299M355.313,168.412C356.419,155.539,344.344,139.110,332.019,142.628C318.795,146.402,318.787,164.441,315.167,175.234C313.757,179.839,311.082,184.421,310.735,188.991C309.973,197.248,314.221,203.854,323.212,201.182C336.175,197.186,353.645,182.729,355.313,168.412Z"/>
<path class="path-15" d="M327.727,155.186C332.556,147.965,345.008,158.039,346.405,164.682"/>
<path class="path-15" d="M346.405,164.682C347.952,172.874,336.605,181.789,329.998,186.874"/>
<path class="path-15" d="M329.998,186.874C324.950,190.639,320.420,191.510,318.794,186.299"/>
<path class="path-15" d="M318.794,186.299C317.578,182.384,326.115,157.590,327.727,155.186"/>
<path class="path-16" d="M327.727,155.186C332.556,147.965,345.008,158.039,346.405,164.682C347.952,172.874,336.605,181.789,329.998,186.874C324.950,190.639,320.420,191.510,318.794,186.299C317.578,182.384,326.115,157.590,327.727,155.186Z"/>
</g>
<g id="earrings">
<path class="path-0" d="M339.993,203.853C331.152,207.103,329.239,187.414,333.034,187.943C338.300,190.006,342.607,199.823,339.993,203.853M348.490,196.166C341.580,195.192,339.052,186.627,338.757,182.663C346.393,184.860,355.768,191.233,348.490,196.166M356.538,191.058C354.083,183.362,343.020,178.176,335.420,175.486C333.085,174.660,327.817,183.338,327.493,185.923C326.392,189.826,325.807,212.228,339.267,210.134C344.759,209.031,358.523,197.283,356.538,191.058Z"/>
<path class="path-21" d="M338.757,182.663C346.393,184.860,355.768,191.233,348.490,196.166"/>
<path class="path-21" d="M348.490,196.166C341.580,195.192,339.052,186.627,338.757,182.663"/>
<path class="path-22" d="M338.757,182.663C346.393,184.860,355.768,191.233,348.490,196.166C341.580,195.192,339.052,186.627,338.757,182.663Z"/>
<path class="path-21" d="M333.034,187.943C338.300,190.006,342.607,199.823,339.993,203.853"/>
<path class="path-21" d="M339.993,203.853C331.152,207.103,329.239,187.414,333.034,187.943"/>
<path class="path-22" d="M333.034,187.943C338.300,190.006,342.607,199.823,339.993,203.853C331.152,207.103,329.239,187.414,333.034,187.943Z"/>
</g>
</g>
<g id="left_arm">
<path class="path-0" d="M308.024,462.512C313.015,456.388,319.612,464.068,328.142,469.409C330.204,470.678,341.378,468.684,342.916,470.593C345.790,473.816,340.942,479.349,336.788,480.243C326.544,481.963,301.944,470.137,308.024,462.512M298.248,281.985C299.008,278.758,307.100,268.292,312.171,269.228C315.116,269.771,316.701,274.720,317.796,277.345C320.760,285.558,323.833,294.077,326.381,302.664C333.367,325.426,336.844,348.605,342.692,371.275C344.878,380.783,347.595,392.801,350.336,401.620C353.076,410.084,357.106,409.015,358.924,414.689C359.848,417.833,359.174,423.363,360.945,428.110C363.584,435.565,369.041,439.824,371.476,444.604C373.011,447.342,373.273,449.415,369.844,450.855C367.605,452.670,361.599,455.512,359.219,456.503C351.245,457.584,342.915,459.077,335.095,457.200C326.321,455.484,303.015,444.214,299.158,437.934C292.272,426.269,303.147,414.214,305.119,403.445C305.896,400.495,313.436,357.260,312.874,354.318C312.348,347.569,308.259,341.825,306.473,334.937C304.504,325.512,302.484,315.437,300.778,305.600C299.518,297.403,295.784,290.725,298.248,281.985M323.454,259.160C320.957,254.589,313.337,246.546,307.401,248.095C302.463,249.608,302.018,255.617,301.498,259.631C300.202,269.666,298.512,278.052,298.866,287.693C298.788,294.687,299.698,300.978,300.594,307.604C301.555,316.638,300.418,334.157,300.835,344.509C300.920,354.097,303.031,364.062,302.112,372.304C299.537,391.648,289.926,409.576,289.657,428.999C289.189,438.800,291.837,438.917,293.760,446.865C295.143,452.925,293.503,459.178,295.556,464.938C300.819,480.179,317.445,494.634,334.552,492.126C350.314,489.886,351.794,472.970,360.532,464.397C368.227,456.772,382.657,461.463,385.050,453.250C387.379,446.367,377.696,438.497,374.710,432.769C369.122,422.804,375.453,421.294,373.375,413.746C371.877,408.174,366.594,402.102,363.351,395.278C361.145,391.429,358.528,384.775,356.679,379.941C353.189,369.666,350.591,357.635,348.397,346.530C346.188,333.995,344.695,322.896,340.637,310.132C337.443,299.634,328.414,267.300,323.454,259.160Z"/>
<path class="path-1" d="M312.171,269.228C315.116,269.771,316.701,274.720,317.796,277.345"/>
<path class="path-1" d="M317.796,277.345C320.760,285.558,323.833,294.077,326.381,302.664"/>
<path class="path-1" d="M326.381,302.664C333.367,325.426,336.844,348.605,342.692,371.275"/>
<path class="path-1" d="M342.692,371.275C344.878,380.783,347.595,392.801,350.336,401.620"/>
<path class="path-1" d="M350.336,401.620C353.076,410.084,357.106,409.015,358.924,414.689"/>
<path class="path-1" d="M358.924,414.689C359.848,417.833,359.174,423.363,360.945,428.110"/>
<path class="path-1" d="M360.945,428.110C363.584,435.565,369.041,439.824,371.476,444.604"/>
<path class="path-1" d="M371.476,444.604C373.011,447.342,373.273,449.415,369.844,450.855"/>
<path class="path-1" d="M369.844,450.855C367.605,452.670,361.599,455.512,359.219,456.503"/>
<path class="path-1" d="M359.219,456.503C351.245,457.584,342.915,459.077,335.095,457.200"/>
<path class="path-1" d="M335.095,457.200C326.321,455.484,303.015,444.214,299.158,437.934"/>
<path class="path-1" d="M299.158,437.934C292.272,426.269,303.147,414.214,305.119,403.445"/>
<path class="path-1" d="M305.119,403.445C305.896,400.495,313.436,357.260,312.874,354.318"/>
<path class="path-1" d="M312.874,354.318C312.348,347.569,308.259,341.825,306.473,334.937"/>
<path class="path-1" d="M306.473,334.937C304.504,325.512,302.484,315.437,300.778,305.600"/>
<path class="path-1" d="M300.778,305.600C299.518,297.403,295.784,290.725,298.248,281.985"/>
<path class="path-1" d="M298.248,281.985C299.008,278.758,307.100,268.292,312.171,269.228"/>
<path class="path-2" d="M312.171,269.228C315.116,269.771,316.701,274.720,317.796,277.345C320.760,285.558,323.833,294.077,326.381,302.664C333.367,325.426,336.844,348.605,342.692,371.275C344.878,380.783,347.595,392.801,350.336,401.620C353.076,410.084,357.106,409.015,358.924,414.689C359.848,417.833,359.174,423.363,360.945,428.110C363.584,435.565,369.041,439.824,371.476,444.604C373.011,447.342,373.273,449.415,369.844,450.855C367.605,452.670,361.599,455.512,359.219,456.503C351.245,457.584,342.915,459.077,335.095,457.200C326.321,455.484,303.015,444.214,299.158,437.934C292.272,426.269,303.147,414.214,305.119,403.445C305.896,400.495,313.436,357.260,312.874,354.318C312.348,347.569,308.259,341.825,306.473,334.937C304.504,325.512,302.484,315.437,300.778,305.600C299.518,297.403,295.784,290.725,298.248,281.985C299.008,278.758,307.100,268.292,312.171,269.228Z"/>
<path class="path-15" d="M328.142,469.409C330.204,470.678,341.378,468.684,342.916,470.593"/>
<path class="path-15" d="M342.916,470.593C345.790,473.816,340.942,479.349,336.788,480.243"/>
<path class="path-15" d="M336.788,480.243C326.544,481.963,301.944,470.137,308.024,462.512"/>
<path class="path-15" d="M308.024,462.512C313.015,456.388,319.612,464.068,328.142,469.409"/>
<path class="path-16" d="M328.142,469.409C330.204,470.678,341.378,468.684,342.916,470.593C345.790,473.816,340.942,479.349,336.788,480.243C326.544,481.963,301.944,470.137,308.024,462.512C313.015,456.388,319.612,464.068,328.142,469.409Z"/>
</g>
<g id="bone">
<g id="bone_B20">
<path class="path-23" d="M239.294,134.124C237.077,122.353,234.859,110.583,232.642,98.813"/>
</g>
<g id="bone_">
<path class="path-23" d="M552.381,338.786C556.909,315.235,561.436,291.685,565.963,268.134"/>
</g>
<g id="bone_">
<path class="path-23" d="M496.479,337.308C496.479,313.696,496.479,290.084,496.479,266.472"/>
</g>
<g id="bone_">
<path class="path-23" d="M436.410,337.308C436.800,313.699,437.189,290.090,437.578,266.482"/>
</g>
<g id="bone_">
<path class="path-23" d="M604.616,215.385C607.273,238.847,609.930,262.309,612.587,285.771"/>
</g>
<g id="bone_">
<path class="path-23" d="M436.410,216.411C431.400,239.485,426.389,262.559,421.378,285.633"/>
</g>
<g id="bone_">
<path class="path-23" d="M551.282,215.385C527.673,215.015,504.064,214.645,480.455,214.275"/>
</g>
<g id="bone_">
<path class="path-23" d="M495.897,216.411C482.652,235.958,469.406,255.505,456.161,275.052"/>
</g>
<g id="bone_B18">
<path class="path-23" d="M221.611,386.890C218.457,419.134,215.304,451.378,212.151,483.622"/>
</g>
<g id="bone_B17">
<path class="path-23" d="M267.765,386.890C269.932,420.195,272.098,453.499,274.265,486.804"/>
</g>
<g id="bone_B16">
<path class="path-23" d="M244.038,159.302C251.036,183.261,258.035,207.219,265.033,231.178"/>
</g>
<g id="bone_B14">
<path class="path-23" d="M161.653,376.332C167.920,394.413,174.188,412.494,180.456,430.574"/>
</g>
<g id="bone_B13">
<path class="path-23" d="M195.182,267.690C184.005,303.904,172.829,340.118,161.653,376.332"/>
</g>
<g id="bone_B11">
<path class="path-23" d="M327.516,353.256C328.857,375.226,330.197,397.196,331.537,419.166"/>
</g>
<g id="bone_B9">
<path class="path-23" d="M308.799,262.599C315.038,292.818,321.277,323.037,327.516,353.256"/>
</g>
<g id="bone_B5">
<path class="path-23" d="M254.122,212.832C249.180,186.596,244.237,160.360,239.294,134.124"/>
</g>
<g id="bone_B4">
<path class="path-23" d="M252.829,254.913C253.260,240.886,253.691,226.859,254.122,212.832"/>
</g>
<g id="bone_B3">
<path class="path-23" d="M251.989,327.909C252.269,303.577,252.549,279.245,252.829,254.913"/>
</g>
<g id="bone_B2">
<path class="path-23" d="M244.175,386.890C246.780,367.230,249.384,347.570,251.989,327.909"/>
</g>
<g id="bone_B1">
<path class="path-23" d="M244.175,386.890C256.152,386.890,268.129,386.890,280.106,386.890"/>
</g>
</g>
<g id="jacket">
<path class="path-0" d="M220.771,268.150C222.501,272.988,216.490,282.337,215.372,286.914C208.813,304.518,199.673,321.470,199.921,339.818C200.173,345.592,204.527,358.473,198.934,362.202C196.761,363.651,191.239,359.228,190.331,360.862C188.693,363.803,183.929,353.746,183.262,352.396C182.663,351.185,180.671,342.758,180.598,340.418C180.739,335.811,181.712,326.830,183.092,321.182C184.556,315.387,185.929,309.273,189.076,303.481C192.076,296.728,196.920,289.258,199.811,281.538C202.751,276.804,207.046,274.315,206.548,270.407C205.725,266.711,203.531,264.760,206.784,263.151C210.801,261.508,220.296,263.176,220.771,268.150M283.756,275.223C285.195,274.215,298.210,270.493,299.631,269.642C312.597,262.686,322.592,272.864,323.231,281.501C323.589,285.621,319.516,299.726,318.522,302.524C316.215,307.990,313.387,311.480,311.346,316.142C302.845,333.248,310.464,322.992,305.598,339.022C304.726,341.894,303.134,347.983,302.509,350.858C301.688,353.784,300.453,360.370,299.448,363.037C296.918,368.300,292.968,375.289,284.554,373.637C284.052,373.601,279.019,373.420,278.156,373.404C272.168,372.965,265.048,373.058,261.071,367.977C257.543,362.929,257.302,355.412,256.975,348.820C256.159,336.486,260.401,324.493,264.337,312.723C267.542,301.600,274.567,283.223,283.756,275.223M297.139,260.135C294.165,261.638,287.917,261.172,286.100,261.369C282.719,261.552,282.333,258.817,282.182,256.444C282.059,252.015,285.515,245.760,288.998,242.788C291.734,240.454,296.418,238.744,300.359,238.964C303.949,239.038,309.845,241.992,309.183,246.024C308.885,249.000,302.106,257.625,297.139,260.135M225.169,241.630C229.255,251.346,233.565,261.263,228.456,259.426C222.288,257.207,219.048,257.140,209.399,252.153C199.277,246.922,197.774,231.722,204.040,227.451C210.348,223.151,220.390,230.269,225.169,241.630M310.813,369.608C312.211,362.038,315.360,357.518,316.370,349.544C316.988,344.256,317.725,338.171,317.306,332.889C316.357,323.866,316.775,320.182,316.973,309.916C316.990,301.365,319.919,294.836,319.488,286.641C319.200,283.625,309.826,270.320,310.192,267.580C310.085,262.108,317.713,259.375,319.426,254.638C320.890,250.965,322.443,247.032,322.273,243.082C322.343,238.074,318.295,234.281,314.936,231.248C310.082,227.360,305.151,227.001,298.792,227.185C289.084,227.477,282.801,235.541,278.346,241.576C272.110,250.023,272.034,265.288,268.293,275.099C266.127,280.776,262.334,288.357,259.851,293.511C250.074,313.015,231.789,365.157,246.943,381.053C248.512,382.927,262.402,389.029,266.998,389.540C276.073,390.595,280.367,391.967,289.230,391.369C295.202,391.199,304.667,382.682,308.764,376.223C309.877,374.588,310.550,371.032,310.813,369.608M230.973,231.077C225.722,224.296,216.531,212.087,207.976,214.097C203.916,215.189,198.361,218.451,195.425,221.740C192.462,225.059,189.341,230.699,189.200,235.204C188.909,240.600,188.389,247.000,189.951,251.701C191.903,257.574,201.226,262.541,201.752,268.621C201.917,271.398,193.857,282.823,192.499,285.991C190.144,291.932,186.156,297.334,183.648,302.306C181.067,307.421,177.602,314.254,175.562,319.608C172.937,326.500,169.230,335.169,168.601,343.186C167.970,347.929,169.406,359.044,172.796,364.668C174.910,368.176,180.604,372.586,183.141,373.576C184.599,374.146,199.373,379.053,204.569,375.235C214.083,368.244,210.755,352.174,208.999,336.128C207.382,321.488,219.379,310.297,224.798,296.420C226.963,290.858,235.366,272.413,236.383,265.740C237.244,260.089,239.461,256.366,238.403,248.387C237.683,243.974,234.433,235.545,230.973,231.077Z"/>
<path class="path-1" d="M299.631,269.642C312.597,262.686,322.592,272.864,323.231,281.501"/>
<path class="path-1" d="M323.231,281.501C323.589,285.621,319.516,299.726,318.522,302.524"/>
<path class="path-1" d="M318.522,302.524C316.215,307.990,313.387,311.480,311.346,316.142"/>
<path class="path-1" d="M311.346,316.142C302.845,333.248,310.464,322.992,305.598,339.022"/>
<path class="path-1" d="M305.598,339.022C304.726,341.894,303.134,347.983,302.509,350.858"/>
<path class="path-1" d="M302.509,350.858C301.688,353.784,300.453,360.370,299.448,363.037"/>
<path class="path-1" d="M299.448,363.037C296.918,368.300,292.968,375.289,284.554,373.637"/>
<path class="path-1" d="M284.554,373.637C284.052,373.601,279.019,373.420,278.156,373.404"/>
<path class="path-1" d="M278.156,373.404C272.168,372.965,265.048,373.058,261.071,367.977"/>
<path class="path-1" d="M261.071,367.977C257.543,362.929,257.302,355.412,256.975,348.820"/>
<path class="path-1" d="M256.975,348.820C256.159,336.486,260.401,324.493,264.337,312.723"/>
<path class="path-1" d="M264.337,312.723C267.542,301.600,274.567,283.223,283.756,275.223"/>
<path class="path-1" d="M283.756,275.223C285.195,274.215,298.210,270.493,299.631,269.642"/>
<path class="path-2" d="M299.631,269.642C312.597,262.686,322.592,272.864,323.231,281.501C323.589,285.621,319.516,299.726,318.522,302.524C316.215,307.990,313.387,311.480,311.346,316.142C302.845,333.248,310.464,322.992,305.598,339.022C304.726,341.894,303.134,347.983,302.509,350.858C301.688,353.784,300.453,360.370,299.448,363.037C296.918,368.300,292.968,375.289,284.554,373.637C284.052,373.601,279.019,373.420,278.156,373.404C272.168,372.965,265.048,373.058,261.071,367.977C257.543,362.929,257.302,355.412,256.975,348.820C256.159,336.486,260.401,324.493,264.337,312.723C267.542,301.600,274.567,283.223,283.756,275.223C285.195,274.215,298.210,270.493,299.631,269.642Z"/>
<path class="path-1" d="M206.784,263.151C210.801,261.508,220.296,263.176,220.771,268.150"/>
<path class="path-1" d="M220.771,268.150C222.501,272.988,216.490,282.337,215.372,286.914"/>
<path class="path-1" d="M215.372,286.914C208.813,304.518,199.673,321.470,199.921,339.818"/>
<path class="path-1" d="M199.921,339.818C200.173,345.592,204.527,358.473,198.934,362.202"/>
<path class="path-1" d="M198.934,362.202C196.761,363.651,191.239,359.228,190.331,360.862"/>
<path class="path-1" d="M190.331,360.862C188.693,363.803,183.929,353.746,183.262,352.396"/>
<path class="path-1" d="M183.262,352.396C182.663,351.185,180.671,342.758,180.598,340.418"/>
<path class="path-1" d="M180.598,340.418C180.739,335.811,181.712,326.830,183.092,321.182"/>
<path class="path-1" d="M183.092,321.182C184.556,315.387,185.929,309.273,189.076,303.481"/>
<path class="path-1" d="M189.076,303.481C192.076,296.728,196.920,289.258,199.811,281.538"/>
<path class="path-1" d="M199.811,281.538C202.751,276.804,207.046,274.315,206.548,270.407"/>
<path class="path-1" d="M206.548,270.407C205.725,266.711,203.531,264.760,206.784,263.151"/>
<path class="path-2" d="M206.784,263.151C210.801,261.508,220.296,263.176,220.771,268.150C222.501,272.988,216.490,282.337,215.372,286.914C208.813,304.518,199.673,321.470,199.921,339.818C200.173,345.592,204.527,358.473,198.934,362.202C196.761,363.651,191.239,359.228,190.331,360.862C188.693,363.803,183.929,353.746,183.262,352.396C182.663,351.185,180.671,342.758,180.598,340.418C180.739,335.811,181.712,326.830,183.092,321.182C184.556,315.387,185.929,309.273,189.076,303.481C192.076,296.728,196.920,289.258,199.811,281.538C202.751,276.804,207.046,274.315,206.548,270.407C205.725,266.711,203.531,264.760,206.784,263.151Z"/>
<path class="path-1" d="M300.359,238.964C303.949,239.038,309.845,241.992,309.183,246.024"/>
<path class="path-1" d="M309.183,246.024C308.885,249.000,302.106,257.625,297.139,260.135"/>
<path class="path-1" d="M297.139,260.135C294.165,261.638,287.917,261.172,286.100,261.369"/>
<path class="path-1" d="M286.100,261.369C282.719,261.552,282.333,258.817,282.182,256.444"/>
<path class="path-1" d="M282.182,256.444C282.059,252.015,285.515,245.760,288.998,242.788"/>
<path class="path-1" d="M288.998,242.788C291.734,240.454,296.418,238.744,300.359,238.964"/>
<path class="path-2" d="M300.359,238.964C303.949,239.038,309.845,241.992,309.183,246.024C308.885,249.000,302.106,257.625,297.139,260.135C294.165,261.638,287.917,261.172,286.100,261.369C282.719,261.552,282.333,258.817,282.182,256.444C282.059,252.015,285.515,245.760,288.998,242.788C291.734,240.454,296.418,238.744,300.359,238.964Z"/>
<path class="path-1" d="M225.169,241.630C229.255,251.346,233.565,261.263,228.456,259.426"/>
<path class="path-1" d="M228.456,259.426C222.288,257.207,219.048,257.140,209.399,252.153"/>
<path class="path-1" d="M209.399,252.153C199.277,246.922,197.774,231.722,204.040,227.451"/>
<path class="path-1" d="M204.040,227.451C210.348,223.151,220.390,230.269,225.169,241.630"/>
<path class="path-2" d="M225.169,241.630C229.255,251.346,233.565,261.263,228.456,259.426C222.288,257.207,219.048,257.140,209.399,252.153C199.277,246.922,197.774,231.722,204.040,227.451C210.348,223.151,220.390,230.269,225.169,241.630Z"/>
</g>
</g>
<style>
.path-0{fill:#000000;fill-rule:evenodd;stroke:none;}
.path-1{fill:none;stroke:#a60d3f;stroke-width:1;stroke-linecap:butt;stroke-linejoin:round;}
.path-2{fill:#a60d3f;fill-rule:evenodd;stroke:none;}
.path-3{fill:none;stroke:#d88e4b;stroke-width:1;stroke-linecap:butt;stroke-linejoin:round;}
.path-4{fill:#d88e4b;fill-rule:evenodd;stroke:none;}
.path-5{fill:none;stroke:#6e2353;stroke-width:1;stroke-linecap:butt;stroke-linejoin:round;}
.path-6{fill:#6e2353;fill-rule:evenodd;stroke:none;}
.path-7{fill:none;stroke:#392966;stroke-width:1;stroke-linecap:butt;stroke-linejoin:round;}
.path-8{fill:#392966;fill-rule:evenodd;stroke:none;}
.path-9{fill:none;stroke:#cc9bc5;stroke-width:1;stroke-linecap:butt;stroke-linejoin:round;}
.path-10{fill:#cc9bc5;fill-rule:evenodd;stroke:none;}
.path-11{fill:none;stroke:#620527;stroke-width:1;stroke-linecap:butt;stroke-linejoin:round;}
.path-12{fill:#620527;fill-rule:evenodd;stroke:none;}
.path-13{fill:none;stroke:#6a3661;stroke-width:1;stroke-linecap:butt;stroke-linejoin:round;}
.path-14{fill:#6a3661;fill-rule:evenodd;stroke:none;}
.path-15{fill:none;stroke:#f8a087;stroke-width:1;stroke-linecap:butt;stroke-linejoin:round;}
.path-16{fill:#f8a087;fill-rule:evenodd;stroke:none;}
.path-17{fill:none;stroke:#ffffff;stroke-width:1;stroke-linecap:butt;stroke-linejoin:round;}
.path-18{fill:#ffffff;fill-rule:evenodd;stroke:none;}
.path-19{fill:none;stroke:#d89f4a;stroke-width:1;stroke-linecap:butt;stroke-linejoin:round;}
.path-20{fill:#d89f4a;fill-rule:evenodd;stroke:none;}
.path-21{fill:none;stroke:#fafd5b;stroke-width:1;stroke-linecap:butt;stroke-linejoin:round;}
.path-22{fill:#fafd5b;fill-rule:evenodd;stroke:none;}
.path-23{fill:none;stroke:#00ff00;stroke-width:8;stroke-linecap:round;stroke-linejoin:round;}
.path-24{fill:none;stroke:#000000;stroke-width:1;stroke-linecap:butt;stroke-linejoin:round;}
</style>
</svg>
