<svg version="1.1" id="Frame_172" xmlns="http://www.w3.org/2000/svg" xmlns:xlink="http://www.w3.org/1999/xlink" width="480px" height="720px">
<g id="main_bone">
<g id="right_arm">
<path class="path-0" d="M183.349,268.613C184.954,266.048,188.103,260.750,191.978,259.538C198.502,257.497,203.566,263.659,203.965,268.237C204.969,276.251,198.453,286.540,195.321,294.156C187.646,312.491,179.442,330.606,174.216,349.238C173.556,352.502,168.545,373.666,168.581,371.017C168.161,377.638,174.718,383.357,176.982,389.012C179.879,396.639,177.038,403.836,175.161,410.803C170.829,425.173,171.280,430.466,171.638,444.456C171.798,446.672,172.247,453.887,168.779,454.309C165.371,454.724,164.320,448.587,163.402,446.260C162.808,443.632,159.964,438.153,160.480,435.776C160.550,431.803,165.122,432.702,159.985,424.565C153.427,414.393,142.023,405.871,139.140,392.532C137.241,381.907,142.887,372.639,146.142,362.778C153.069,341.592,160.762,320.423,169.691,299.668C174.550,288.905,176.906,279.485,183.349,268.613M203.869,261.955C204.579,253.442,202.091,245.803,191.316,248.547C173.967,252.899,166.437,278.799,160.623,293.316C152.455,312.927,145.649,332.768,139.321,352.737C136.731,361.289,133.507,365.605,132.116,370.566C130.388,376.181,130.598,384.808,130.880,390.447C130.723,408.103,136.056,409.007,143.379,422.493C147.273,430.471,143.611,435.642,146.404,442.541C148.446,447.285,152.497,450.501,155.679,454.372C158.507,458.262,159.270,460.540,161.415,464.129C164.013,468.419,171.691,478.034,177.323,475.184C181.540,473.032,180.478,465.142,180.366,461.308C180.040,455.553,181.250,433.218,182.194,426.448C183.926,415.221,189.840,403.191,188.246,391.077C186.958,381.815,178.784,375.103,179.271,365.192C179.683,359.911,183.087,351.373,184.296,345.466C186.281,336.027,186.796,325.861,189.500,316.204C194.109,299.024,203.020,280.088,203.869,261.955Z"/>
<path class="path-1" d="M191.978,259.538C198.502,257.497,203.566,263.659,203.965,268.237"/>
<path class="path-1" d="M203.965,268.237C204.969,276.251,198.453,286.540,195.321,294.156"/>
<path class="path-1" d="M195.321,294.156C187.646,312.491,179.442,330.606,174.216,349.238"/>
<path class="path-1" d="M174.216,349.238C173.556,352.502,168.545,373.666,168.581,371.017"/>
<path class="path-1" d="M168.581,371.017C168.161,377.638,174.718,383.357,176.982,389.012"/>
<path class="path-1" d="M176.982,389.012C179.879,396.639,177.038,403.836,175.161,410.803"/>
<path class="path-1" d="M175.161,410.803C170.829,425.173,171.280,430.466,171.638,444.456"/>
<path class="path-1" d="M171.638,444.456C171.798,446.672,172.247,453.887,168.779,454.309"/>
<path class="path-1" d="M168.779,454.309C165.371,454.724,164.320,448.587,163.402,446.260"/>
<path class="path-1" d="M163.402,446.260C162.808,443.632,159.964,438.153,160.480,435.776"/>
<path class="path-1" d="M160.480,435.776C160.550,431.803,165.122,432.702,159.985,424.565"/>
<path class="path-1" d="M159.985,424.565C153.427,414.393,142.023,405.871,139.140,392.532"/>
<path class="path-1" d="M139.140,392.532C137.241,381.907,142.887,372.639,146.142,362.778"/>
<path class="path-1" d="M146.142,362.778C153.069,341.592,160.762,320.423,169.691,299.668"/>
<path class="path-1" d="M169.691,299.668C174.550,288.905,176.906,279.485,183.349,268.613"/>
<path class="path-1" d="M183.349,268.613C184.954,266.048,188.103,260.750,191.978,259.538"/>
<path class="path-2" d="M191.978,259.538C198.502,257.497,203.566,263.659,203.965,268.237C204.969,276.251,198.453,286.540,195.321,294.156C187.646,312.491,179.442,330.606,174.216,349.238C173.556,352.502,168.545,373.666,168.581,371.017C168.161,377.638,174.718,383.357,176.982,389.012C179.879,396.639,177.038,403.836,175.161,410.803C170.829,425.173,171.280,430.466,171.638,444.456C171.798,446.672,172.247,453.887,168.779,454.309C165.371,454.724,164.320,448.587,163.402,446.260C162.808,443.632,159.964,438.153,160.480,435.776C160.550,431.803,165.122,432.702,159.985,424.565C153.427,414.393,142.023,405.871,139.140,392.532C137.241,381.907,142.887,372.639,146.142,362.778C153.069,341.592,160.762,320.423,169.691,299.668C174.550,288.905,176.906,279.485,183.349,268.613C184.954,266.048,188.103,260.750,191.978,259.538Z"/>
</g>
<g id="layer_left_leg">
<g id="left_heel">
<path class="path-0" d="M317.889,632.314C308.070,622.432,316.586,599.827,326.983,594.770C342.936,586.798,362.253,609.429,361.772,616.221C360.717,626.593,344.750,630.919,336.381,633.091C331.862,634.101,321.049,635.625,317.889,632.314M354.109,586.708C342.023,579.441,320.596,586.809,311.617,595.751C292.616,613.952,298.742,657.171,331.301,647.811C342.631,644.615,367.204,635.927,372.102,627.001C376.593,619.889,372.259,610.876,368.493,603.793C365.059,598.146,359.825,590.256,354.109,586.708Z"/>
<path class="path-3" d="M326.983,594.770C342.936,586.798,362.253,609.429,361.772,616.221"/>
<path class="path-3" d="M361.772,616.221C360.717,626.593,344.750,630.919,336.381,633.091"/>
<path class="path-3" d="M336.381,633.091C331.862,634.101,321.049,635.625,317.889,632.314"/>
<path class="path-3" d="M317.889,632.314C308.070,622.432,316.586,599.827,326.983,594.770"/>
<path class="path-4" d="M326.983,594.770C342.936,586.798,362.253,609.429,361.772,616.221C360.717,626.593,344.750,630.919,336.381,633.091C331.862,634.101,321.049,635.625,317.889,632.314C308.070,622.432,316.586,599.827,326.983,594.770Z"/>
</g>
<g id="left_leg">
<path class="path-0" d="M243.438,412.555C243.894,407.511,254.037,408.797,257.742,407.643C263.431,406.180,275.712,400.834,281.283,403.266C291.169,407.191,300.661,435.741,303.672,445.731C312.169,477.039,321.643,506.002,330.289,536.114C332.051,542.832,333.777,549.792,335.665,556.336C337.376,561.478,337.870,568.393,342.018,571.270C343.732,572.961,347.900,570.912,348.445,573.092C350.065,581.779,341.354,578.824,338.300,584.186C332.701,593.346,320.743,603.668,311.089,603.379C304.473,603.410,292.102,598.497,288.208,593.034C284.438,587.744,281.142,581.013,278.578,575.162C267.037,548.836,267.250,486.996,253.436,458.847C244.649,440.941,252.994,437.904,256.448,423.045C257.007,420.641,246.382,425.992,244.315,424.590C241.540,423.013,242.989,415.666,243.438,412.555M285.935,392.676C278.603,389.434,262.234,395.780,255.241,397.987C251.422,399.175,238.509,399.220,236.122,401.758C221.627,417.172,238.823,455.376,245.109,471.936C246.562,476.657,251.272,499.743,252.588,506.257C259.817,533.842,260.040,558.925,268.815,586.064C271.185,593.724,272.710,601.518,277.225,607.986C289.053,624.684,306.557,623.620,328.254,616.640C339.682,612.975,363.788,601.227,366.168,576.565C367.128,566.578,358.428,555.688,356.300,553.030C352.875,548.752,348.425,544.885,345.755,539.632C336.676,523.155,338.134,502.759,332.115,484.799C324.452,461.861,308.840,402.866,285.935,392.676Z"/>
<path class="path-7" d="M257.742,407.643C263.431,406.180,275.712,400.834,281.283,403.266"/>
<path class="path-7" d="M281.283,403.266C291.169,407.191,300.661,435.741,303.672,445.731"/>
<path class="path-7" d="M303.672,445.731C312.169,477.039,321.643,506.002,330.289,536.114"/>
<path class="path-7" d="M330.289,536.114C332.051,542.832,333.777,549.792,335.665,556.336"/>
<path class="path-7" d="M335.665,556.336C337.376,561.478,337.870,568.393,342.018,571.270"/>
<path class="path-7" d="M342.018,571.270C343.732,572.961,347.900,570.912,348.445,573.092"/>
<path class="path-7" d="M348.445,573.092C350.065,581.779,341.354,578.824,338.300,584.186"/>
<path class="path-7" d="M338.300,584.186C332.701,593.346,320.743,603.668,311.089,603.379"/>
<path class="path-7" d="M311.089,603.379C304.473,603.410,292.102,598.497,288.208,593.034"/>
<path class="path-7" d="M288.208,593.034C284.438,587.744,281.142,581.013,278.578,575.162"/>
<path class="path-7" d="M278.578,575.162C267.037,548.836,267.250,486.996,253.436,458.847"/>
<path class="path-7" d="M253.436,458.847C244.649,440.941,252.994,437.904,256.448,423.045"/>
<path class="path-7" d="M256.448,423.045C257.007,420.641,246.382,425.992,244.315,424.590"/>
<path class="path-7" d="M244.315,424.590C241.540,423.013,242.989,415.666,243.438,412.555"/>
<path class="path-7" d="M243.438,412.555C243.894,407.511,254.037,408.797,257.742,407.643"/>
<path class="path-8" d="M257.742,407.643C263.431,406.180,275.712,400.834,281.283,403.266C291.169,407.191,300.661,435.741,303.672,445.731C312.169,477.039,321.643,506.002,330.289,536.114C332.051,542.832,333.777,549.792,335.665,556.336C337.376,561.478,337.870,568.393,342.018,571.270C343.732,572.961,347.900,570.912,348.445,573.092C350.065,581.779,341.354,578.824,338.300,584.186C332.701,593.346,320.743,603.668,311.089,603.379C304.473,603.410,292.102,598.497,288.208,593.034C284.438,587.744,281.142,581.013,278.578,575.162C267.037,548.836,267.250,486.996,253.436,458.847C244.649,440.941,252.994,437.904,256.448,423.045C257.007,420.641,246.382,425.992,244.315,424.590C241.540,423.013,242.989,415.666,243.438,412.555C243.894,407.511,254.037,408.797,257.742,407.643Z"/>
</g>
<g id="left_toe">
<path class="path-0" d="M321.867,663.031C294.685,664.631,290.886,628.482,308.692,616.638C327.240,604.459,349.320,611.540,358.458,622.838C363.843,628.706,367.354,635.676,365.653,643.614C361.338,657.913,334.939,662.178,321.867,663.031M372.768,614.207C365.970,600.883,351.402,590.857,339.198,589.885C309.680,587.648,287.745,601.383,285.395,629.004C283.511,644.966,290.920,660.592,303.521,670.474C313.312,677.677,339.350,672.423,350.061,668.648C359.373,664.602,370.810,658.870,375.346,648.691C378.635,641.592,376.255,621.151,372.768,614.207Z"/>
<path class="path-3" d="M308.692,616.638C327.240,604.459,349.320,611.540,358.458,622.838"/>
<path class="path-3" d="M358.458,622.838C363.843,628.706,367.354,635.676,365.653,643.614"/>
<path class="path-3" d="M365.653,643.614C361.338,657.913,334.939,662.178,321.867,663.031"/>
<path class="path-3" d="M321.867,663.031C294.685,664.631,290.886,628.482,308.692,616.638"/>
<path class="path-4" d="M308.692,616.638C327.240,604.459,349.320,611.540,358.458,622.838C363.843,628.706,367.354,635.676,365.653,643.614C361.338,657.913,334.939,662.178,321.867,663.031C294.685,664.631,290.886,628.482,308.692,616.638Z"/>
</g>
<g id="left_sole">
<path class="path-0" d="M329.536,677.142C318.804,679.442,311.969,666.252,311.943,671.741C311.927,675.258,321.441,676.150,325.707,676.306C335.189,677.000,349.747,671.863,357.362,665.323C359.916,663.471,368.325,658.392,368.412,658.637C369.830,662.632,359.351,665.700,355.921,667.036C352.753,668.655,330.373,676.743,329.536,677.142M312.338,671.997C317.108,668.720,328.865,670.179,333.209,670.281C350.510,670.688,357.483,659.025,365.159,656.624C365.907,656.399,368.045,654.073,369.014,656.137C372.350,663.246,343.470,676.308,328.072,675.214C320.925,675.373,310.610,673.185,312.338,671.997M371.790,647.691C367.941,645.651,352.728,657.436,335.992,661.989C327.830,664.237,304.332,657.815,301.377,668.877C300.760,671.207,303.353,678.397,305.411,679.535C319.276,687.485,370.318,670.885,375.012,664.322C376.576,662.135,376.700,650.293,371.790,647.691Z"/>
<path class="path-5" d="M311.943,671.741C311.927,675.258,321.441,676.150,325.707,676.306"/>
<path class="path-5" d="M325.707,676.306C335.189,677.000,349.747,671.863,357.362,665.323"/>
<path class="path-5" d="M357.362,665.323C359.916,663.471,368.325,658.392,368.412,658.637"/>
<path class="path-5" d="M368.412,658.637C369.830,662.632,359.351,665.700,355.921,667.036"/>
<path class="path-5" d="M355.921,667.036C352.753,668.655,330.373,676.743,329.536,677.142"/>
<path class="path-5" d="M329.536,677.142C318.804,679.442,311.969,666.252,311.943,671.741"/>
<path class="path-6" d="M311.943,671.741C311.927,675.258,321.441,676.150,325.707,676.306C335.189,677.000,349.747,671.863,357.362,665.323C359.916,663.471,368.325,658.392,368.412,658.637C369.830,662.632,359.351,665.700,355.921,667.036C352.753,668.655,330.373,676.743,329.536,677.142C318.804,679.442,311.969,666.252,311.943,671.741Z"/>
<path class="path-5" d="M333.209,670.281C350.510,670.688,357.483,659.025,365.159,656.624"/>
<path class="path-5" d="M365.159,656.624C365.907,656.399,368.045,654.073,369.014,656.137"/>
<path class="path-5" d="M369.014,656.137C372.350,663.246,343.470,676.308,328.072,675.214"/>
<path class="path-5" d="M328.072,675.214C320.925,675.373,310.610,673.185,312.338,671.997"/>
<path class="path-5" d="M312.338,671.997C317.108,668.720,328.865,670.179,333.209,670.281"/>
<path class="path-6" d="M333.209,670.281C350.510,670.688,357.483,659.025,365.159,656.624C365.907,656.399,368.045,654.073,369.014,656.137C372.350,663.246,343.470,676.308,328.072,675.214C320.925,675.373,310.610,673.185,312.338,671.997C317.108,668.720,328.865,670.179,333.209,670.281Z"/>
</g>
</g>
<g id="layer_right_leg">
<g id="right_heel">
<path class="path-0" d="M183.791,614.716C184.527,598.666,185.626,586.210,205.491,583.341C214.358,581.899,231.281,584.639,236.211,593.084C238.799,597.273,238.044,603.429,238.311,607.910C238.811,615.203,243.394,629.276,232.966,630.987C232.298,631.163,213.850,631.484,208.092,631.635C200.673,632.510,192.954,633.058,187.558,628.000C184.823,624.874,183.545,618.451,183.791,614.716M245.709,591.390C241.740,581.173,227.439,575.424,217.401,576.886C204.343,578.629,190.940,574.396,182.496,586.458C175.949,595.810,175.273,612.975,177.306,623.867C178.080,628.919,181.365,638.130,185.642,640.922C188.777,642.874,193.603,642.302,197.296,642.301C215.324,642.578,247.561,648.564,247.033,622.072C246.824,615.276,247.774,596.763,245.709,591.390Z"/>
<path class="path-3" d="M205.491,583.341C214.358,581.899,231.281,584.639,236.211,593.084"/>
<path class="path-3" d="M236.211,593.084C238.799,597.273,238.044,603.429,238.311,607.910"/>
<path class="path-3" d="M238.311,607.910C238.811,615.203,243.394,629.276,232.966,630.987"/>
<path class="path-3" d="M232.966,630.987C232.298,631.163,213.850,631.484,208.092,631.635"/>
<path class="path-3" d="M208.092,631.635C200.673,632.510,192.954,633.058,187.558,628.000"/>
<path class="path-3" d="M187.558,628.000C184.823,624.874,183.545,618.451,183.791,614.716"/>
<path class="path-3" d="M183.791,614.716C184.527,598.666,185.626,586.210,205.491,583.341"/>
<path class="path-4" d="M205.491,583.341C214.358,581.899,231.281,584.639,236.211,593.084C238.799,597.273,238.044,603.429,238.311,607.910C238.811,615.203,243.394,629.276,232.966,630.987C232.298,631.163,213.850,631.484,208.092,631.635C200.673,632.510,192.954,633.058,187.558,628.000C184.823,624.874,183.545,618.451,183.791,614.716C184.527,598.666,185.626,586.210,205.491,583.341Z"/>
</g>
<g id="right_leg">
<path class="path-0" d="M181.951,405.358C185.504,393.683,201.169,390.920,211.668,393.774C217.507,395.236,227.243,398.045,230.498,403.439C231.998,405.923,232.612,410.556,231.130,413.040C228.675,417.157,213.039,414.938,216.060,418.795C221.237,425.599,230.878,416.100,235.223,419.835C237.207,421.541,237.377,425.133,237.778,428.100C241.821,449.554,235.035,472.405,234.759,493.557C234.600,500.379,232.761,510.424,233.930,516.648C236.320,532.264,234.566,535.523,234.948,544.886C234.870,548.355,233.073,565.927,234.200,570.454C235.452,575.089,238.606,579.600,239.077,584.395C239.879,592.540,228.258,603.563,220.854,605.862C212.590,608.250,186.978,606.759,179.181,602.600C175.971,601.005,172.107,597.066,170.799,593.496C169.436,590.317,167.469,575.409,168.432,571.794C170.385,565.444,172.818,564.125,174.849,556.618C176.915,547.803,179.228,538.294,178.695,529.040C177.242,510.169,177.947,480.604,180.091,467.262C181.130,459.576,179.392,433.711,180.448,426.597C182.248,415.192,180.175,412.984,181.951,405.358M206.882,382.200C201.217,380.244,196.849,374.967,190.887,376.984C189.090,377.762,185.954,379.982,184.681,381.264C168.793,394.838,170.072,408.443,170.138,427.714C169.868,434.634,169.884,441.825,169.316,448.455C168.732,453.949,167.100,458.494,165.851,463.539C165.106,467.709,164.448,472.165,164.262,477.400C164.206,482.781,165.697,489.094,165.854,498.233C165.302,508.130,166.019,517.475,165.588,526.940C165.516,533.102,162.583,547.371,161.708,552.052C159.460,558.777,156.082,566.496,154.528,573.010C153.002,581.599,154.768,590.656,158.230,598.208C159.884,602.389,162.825,607.368,166.008,610.194C168.097,612.048,170.876,613.209,173.388,614.114C181.180,616.872,188.621,618.161,196.962,618.485C202.692,618.752,208.344,617.353,214.297,617.745C215.320,617.658,223.690,619.111,225.343,619.199C228.219,619.190,232.248,616.711,234.851,615.171C238.218,612.926,244.073,612.096,246.874,609.042C249.302,606.390,250.403,602.774,251.713,599.439C259.056,579.926,252.313,568.809,249.713,550.779C248.280,540.843,245.941,520.378,246.133,509.271C246.085,495.782,248.974,482.773,249.780,468.892C250.128,464.448,250.497,459.117,251.228,454.088C251.857,449.141,250.702,445.145,250.451,440.238C250.026,436.432,250.275,424.222,249.668,420.133C249.274,416.490,249.291,411.943,247.940,408.342C244.230,399.174,230.204,389.041,220.874,386.108C216.209,384.477,211.218,384.159,206.882,382.200Z"/>
<path class="path-7" d="M211.668,393.774C217.507,395.236,227.243,398.045,230.498,403.439"/>
<path class="path-7" d="M230.498,403.439C231.998,405.923,232.612,410.556,231.130,413.040"/>
<path class="path-7" d="M231.130,413.040C228.675,417.157,213.039,414.938,216.060,418.795"/>
<path class="path-7" d="M216.060,418.795C221.237,425.599,230.878,416.100,235.223,419.835"/>
<path class="path-7" d="M235.223,419.835C237.207,421.541,237.377,425.133,237.778,428.100"/>
<path class="path-7" d="M237.778,428.100C241.821,449.554,235.035,472.405,234.759,493.557"/>
<path class="path-7" d="M234.759,493.557C234.600,500.379,232.761,510.424,233.930,516.648"/>
<path class="path-7" d="M233.930,516.648C236.320,532.264,234.566,535.523,234.948,544.886"/>
<path class="path-7" d="M234.948,544.886C234.870,548.355,233.073,565.927,234.200,570.454"/>
<path class="path-7" d="M234.200,570.454C235.452,575.089,238.606,579.600,239.077,584.395"/>
<path class="path-7" d="M239.077,584.395C239.879,592.540,228.258,603.563,220.854,605.862"/>
<path class="path-7" d="M220.854,605.862C212.590,608.250,186.978,606.759,179.181,602.600"/>
<path class="path-7" d="M179.181,602.600C175.971,601.005,172.107,597.066,170.799,593.496"/>
<path class="path-7" d="M170.799,593.496C169.436,590.317,167.469,575.409,168.432,571.794"/>
<path class="path-7" d="M168.432,571.794C170.385,565.444,172.818,564.125,174.849,556.618"/>
<path class="path-7" d="M174.849,556.618C176.915,547.803,179.228,538.294,178.695,529.040"/>
<path class="path-7" d="M178.695,529.040C177.242,510.169,177.947,480.604,180.091,467.262"/>
<path class="path-7" d="M180.091,467.262C181.130,459.576,179.392,433.711,180.448,426.597"/>
<path class="path-7" d="M180.448,426.597C182.248,415.192,180.175,412.984,181.951,405.358"/>
<path class="path-7" d="M181.951,405.358C185.504,393.683,201.169,390.920,211.668,393.774"/>
<path class="path-8" d="M211.668,393.774C217.507,395.236,227.243,398.045,230.498,403.439C231.998,405.923,232.612,410.556,231.130,413.040C228.675,417.157,213.039,414.938,216.060,418.795C221.237,425.599,230.878,416.100,235.223,419.835C237.207,421.541,237.377,425.133,237.778,428.100C241.821,449.554,235.035,472.405,234.759,493.557C234.600,500.379,232.761,510.424,233.930,516.648C236.320,532.264,234.566,535.523,234.948,544.886C234.870,548.355,233.073,565.927,234.200,570.454C235.452,575.089,238.606,579.600,239.077,584.395C239.879,592.540,228.258,603.563,220.854,605.862C212.590,608.250,186.978,606.759,179.181,602.600C175.971,601.005,172.107,597.066,170.799,593.496C169.436,590.317,167.469,575.409,168.432,571.794C170.385,565.444,172.818,564.125,174.849,556.618C176.915,547.803,179.228,538.294,178.695,529.040C177.242,510.169,177.947,480.604,180.091,467.262C181.130,459.576,179.392,433.711,180.448,426.597C182.248,415.192,180.175,412.984,181.951,405.358C185.504,393.683,201.169,390.920,211.668,393.774Z"/>
</g>
<g id="right_toe">
<path class="path-0" d="M167.777,639.376C169.071,626.396,174.272,609.716,190.304,607.444C194.013,606.723,199.251,608.445,203.378,609.263C224.424,613.380,232.670,617.975,233.472,639.267C233.572,645.083,234.489,652.296,230.104,656.972C225.704,661.580,204.800,659.062,198.422,659.334C187.163,660.055,177.486,665.293,169.669,655.613C165.052,649.773,167.102,646.251,167.777,639.376M241.763,617.067C234.749,603.382,202.419,595.226,187.875,597.852C166.178,601.892,159.154,618.667,157.825,636.827C157.302,643.307,156.501,650.435,159.814,656.162C160.996,658.204,163.495,660.929,165.222,662.562C178.270,675.970,187.736,674.324,205.284,674.142C214.567,674.199,229.983,673.308,237.411,667.182C242.949,662.162,243.515,656.714,243.747,649.720C243.725,642.989,244.571,622.050,241.763,617.067Z"/>
<path class="path-3" d="M190.304,607.444C194.013,606.723,199.251,608.445,203.378,609.263"/>
<path class="path-3" d="M203.378,609.263C224.424,613.380,232.670,617.975,233.472,639.267"/>
<path class="path-3" d="M233.472,639.267C233.572,645.083,234.489,652.296,230.104,656.972"/>
<path class="path-3" d="M230.104,656.972C225.704,661.580,204.800,659.062,198.422,659.334"/>
<path class="path-3" d="M198.422,659.334C187.163,660.055,177.486,665.293,169.669,655.613"/>
<path class="path-3" d="M169.669,655.613C165.052,649.773,167.102,646.251,167.777,639.376"/>
<path class="path-3" d="M167.777,639.376C169.071,626.396,174.272,609.716,190.304,607.444"/>
<path class="path-4" d="M190.304,607.444C194.013,606.723,199.251,608.445,203.378,609.263C224.424,613.380,232.670,617.975,233.472,639.267C233.572,645.083,234.489,652.296,230.104,656.972C225.704,661.580,204.800,659.062,198.422,659.334C187.163,660.055,177.486,665.293,169.669,655.613C165.052,649.773,167.102,646.251,167.777,639.376C169.071,626.396,174.272,609.716,190.304,607.444Z"/>
</g>
<g id="right_sole">
<path class="path-0" d="M186.126,670.961C187.634,671.315,202.954,671.164,204.681,671.155C206.075,671.170,214.539,671.132,215.728,671.045C216.466,671.009,223.895,670.687,224.465,671.145C223.964,670.669,215.975,672.150,215.504,672.165C214.582,672.226,188.459,672.118,188.153,672.224C186.952,672.259,175.754,671.356,175.054,670.366C176.289,669.936,184.365,670.545,186.126,670.961M225.176,664.677C225.226,664.947,223.653,666.566,223.238,666.567C222.405,666.573,209.397,668.008,208.293,667.792C207.042,667.767,198.418,668.694,197.291,668.685C195.023,668.667,177.143,667.413,175.218,666.251C175.063,666.116,174.550,665.313,174.574,665.202C174.635,664.925,181.582,665.678,182.672,665.663C184.384,665.640,198.068,664.635,199.822,664.578C201.715,664.517,216.438,664.731,218.377,664.567C218.680,664.549,225.044,664.006,225.176,664.677M230.827,659.962C219.674,656.899,210.872,661.263,200.808,661.589C193.459,661.858,179.343,660.317,170.398,662.060C168.985,662.335,166.283,662.148,165.856,663.588C165.317,665.422,168.910,669.370,171.192,670.845C174.020,672.672,179.897,672.701,182.230,673.048C194.057,675.242,209.083,674.079,221.234,673.577C230.207,673.212,232.443,669.676,233.331,665.431C233.699,663.672,234.304,660.869,230.827,659.962Z"/>
<path class="path-5" d="M186.126,670.961C187.634,671.315,202.954,671.164,204.681,671.155"/>
<path class="path-5" d="M204.681,671.155C206.075,671.170,214.539,671.132,215.728,671.045"/>
<path class="path-5" d="M215.728,671.045C216.466,671.009,223.895,670.687,224.465,671.145"/>
<path class="path-5" d="M224.465,671.145C223.964,670.669,215.975,672.150,215.504,672.165"/>
<path class="path-5" d="M215.504,672.165C214.582,672.226,188.459,672.118,188.153,672.224"/>
<path class="path-5" d="M188.153,672.224C186.952,672.259,175.754,671.356,175.054,670.366"/>
<path class="path-5" d="M175.054,670.366C176.289,669.936,184.365,670.545,186.126,670.961"/>
<path class="path-6" d="M186.126,670.961C187.634,671.315,202.954,671.164,204.681,671.155C206.075,671.170,214.539,671.132,215.728,671.045C216.466,671.009,223.895,670.687,224.465,671.145C223.964,670.669,215.975,672.150,215.504,672.165C214.582,672.226,188.459,672.118,188.153,672.224C186.952,672.259,175.754,671.356,175.054,670.366C176.289,669.936,184.365,670.545,186.126,670.961Z"/>
<path class="path-5" d="M182.672,665.663C184.384,665.640,198.068,664.635,199.822,664.578"/>
<path class="path-5" d="M199.822,664.578C201.715,664.517,216.438,664.731,218.377,664.567"/>
<path class="path-5" d="M218.377,664.567C218.680,664.549,225.044,664.006,225.176,664.677"/>
<path class="path-5" d="M225.176,664.677C225.226,664.947,223.653,666.566,223.238,666.567"/>
<path class="path-5" d="M223.238,666.567C222.405,666.573,209.397,668.008,208.293,667.792"/>
<path class="path-5" d="M208.293,667.792C207.042,667.767,198.418,668.694,197.291,668.685"/>
<path class="path-5" d="M197.291,668.685C195.023,668.667,177.143,667.413,175.218,666.251"/>
<path class="path-5" d="M175.218,666.251C175.063,666.116,174.550,665.313,174.574,665.202"/>
<path class="path-5" d="M174.574,665.202C174.635,664.925,181.582,665.678,182.672,665.663"/>
<path class="path-6" d="M182.672,665.663C184.384,665.640,198.068,664.635,199.822,664.578C201.715,664.517,216.438,664.731,218.377,664.567C218.680,664.549,225.044,664.006,225.176,664.677C225.226,664.947,223.653,666.566,223.238,666.567C222.405,666.573,209.397,668.008,208.293,667.792C207.042,667.767,198.418,668.694,197.291,668.685C195.023,668.667,177.143,667.413,175.218,666.251C175.063,666.116,174.550,665.313,174.574,665.202C174.635,664.925,181.582,665.678,182.672,665.663Z"/>
</g>
</g>
<g id="hat_brim">
<path class="path-0" d="M296.400,149.619C300.781,144.136,311.736,129.088,319.658,130.088C324.939,130.755,334.622,141.704,339.858,145.384C344.434,148.980,349.382,152.287,354.659,155.636C357.637,157.695,360.619,159.748,363.605,161.796C376.882,170.851,372.128,176.623,364.043,174.260C345.977,168.623,342.839,169.569,326.183,158.075C323.997,156.793,318.472,152.743,316.940,156.907C314.996,161.692,323.366,167.109,326.787,169.218C332.929,173.684,339.691,178.562,347.529,180.222C349.799,180.844,357.804,181.183,358.831,183.661C360.395,187.213,349.739,194.585,347.509,196.315C343.832,198.869,340.157,201.423,336.564,203.317C331.196,205.991,325.539,208.294,319.804,208.576C309.075,208.563,277.985,189.210,278.454,177.533C278.628,170.848,291.647,155.390,296.400,149.619M332.082,127.299C327.673,122.382,324.835,115.652,317.156,118.036C311.582,119.680,305.013,126.563,300.882,130.065C285.264,144.858,270.592,162.791,268.542,184.328C267.163,197.902,271.825,198.157,282.050,204.813C297.511,215.150,318.303,220.459,337.169,214.460C349.388,210.637,371.775,195.357,378.557,184.141C380.707,180.389,384.803,171.852,383.076,166.940C381.145,160.994,360.238,148.629,354.096,144.165C346.717,138.872,338.305,133.785,332.082,127.299Z"/>
<path class="path-9" d="M319.658,130.088C324.939,130.755,334.622,141.704,339.858,145.384"/>
<path class="path-9" d="M339.858,145.384C344.434,148.980,349.382,152.287,354.659,155.636"/>
<path class="path-9" d="M354.659,155.636C357.637,157.695,360.619,159.748,363.605,161.796"/>
<path class="path-9" d="M363.605,161.796C376.882,170.851,372.128,176.623,364.043,174.260"/>
<path class="path-9" d="M364.043,174.260C345.977,168.623,342.839,169.569,326.183,158.075"/>
<path class="path-9" d="M326.183,158.075C323.997,156.793,318.472,152.743,316.940,156.907"/>
<path class="path-9" d="M316.940,156.907C314.996,161.692,323.366,167.109,326.787,169.218"/>
<path class="path-9" d="M326.787,169.218C332.929,173.684,339.691,178.562,347.529,180.222"/>
<path class="path-9" d="M347.529,180.222C349.799,180.844,357.804,181.183,358.831,183.661"/>
<path class="path-9" d="M358.831,183.661C360.395,187.213,349.739,194.585,347.509,196.315"/>
<path class="path-9" d="M347.509,196.315C343.832,198.869,340.157,201.423,336.564,203.317"/>
<path class="path-9" d="M336.564,203.317C331.196,205.991,325.539,208.294,319.804,208.576"/>
<path class="path-9" d="M319.804,208.576C309.075,208.563,277.985,189.210,278.454,177.533"/>
<path class="path-9" d="M278.454,177.533C278.628,170.848,291.647,155.390,296.400,149.619"/>
<path class="path-9" d="M296.400,149.619C300.781,144.136,311.736,129.088,319.658,130.088"/>
<path class="path-10" d="M319.658,130.088C324.939,130.755,334.622,141.704,339.858,145.384C344.434,148.980,349.382,152.287,354.659,155.636C357.637,157.695,360.619,159.748,363.605,161.796C376.882,170.851,372.128,176.623,364.043,174.260C345.977,168.623,342.839,169.569,326.183,158.075C323.997,156.793,318.472,152.743,316.940,156.907C314.996,161.692,323.366,167.109,326.787,169.218C332.929,173.684,339.691,178.562,347.529,180.222C349.799,180.844,357.804,181.183,358.831,183.661C360.395,187.213,349.739,194.585,347.509,196.315C343.832,198.869,340.157,201.423,336.564,203.317C331.196,205.991,325.539,208.294,319.804,208.576C309.075,208.563,277.985,189.210,278.454,177.533C278.628,170.848,291.647,155.390,296.400,149.619C300.781,144.136,311.736,129.088,319.658,130.088Z"/>
</g>
<g id="hair">
<path class="path-0" d="M189.261,142.613C205.544,129.114,225.290,126.103,246.195,123.229C255.565,121.922,262.638,127.695,270.442,133.270C276.883,138.197,283.836,143.777,290.671,148.941C300.954,156.652,305.332,160.598,309.257,164.394C312.578,167.275,317.836,172.747,321.870,175.202C326.738,178.162,337.501,194.323,339.716,196.053C333.327,198.918,323.110,201.565,318.716,205.851C320.923,211.491,322.134,220.445,322.405,223.141C316.267,224.165,308.814,222.063,297.209,221.090C295.580,228.465,296.241,235.162,292.263,242.872C284.367,241.278,278.844,239.911,268.494,236.448C262.451,242.257,260.879,241.999,250.863,249.520C243.383,245.885,237.310,241.825,230.152,239.659C223.688,243.188,213.098,245.235,209.756,248.498C205.290,241.860,201.058,234.461,197.494,231.417C188.134,234.297,184.292,237.307,177.785,240.410C173.056,235.327,175.617,230.512,170.179,222.896C165.758,222.148,158.849,220.185,153.304,220.610C156.697,215.773,158.103,200.824,164.393,198.342C172.155,195.280,166.233,186.672,170.355,178.040C171.366,175.800,181.521,158.419,182.316,155.660C183.867,150.888,185.578,145.817,189.261,142.613M273.823,120.263C260.740,112.053,235.669,109.319,222.163,113.867C209.753,117.889,197.707,123.073,187.378,131.270C181.588,135.801,175.323,142.261,171.807,148.730C164.751,161.315,155.400,188.267,149.885,200.861C145.507,211.288,141.171,218.459,136.562,224.330C154.707,229.067,160.077,231.227,165.377,231.534C166.432,239.224,174.097,244.282,173.668,252.919C182.315,250.791,187.326,248.078,194.940,245.397C199.339,249.657,202.668,255.696,207.035,261.512C214.520,258.702,222.404,258.252,229.498,252.104C235.284,254.586,244.465,258.423,253.911,262.510C261.761,257.333,263.507,256.914,270.788,251.154C280.444,252.592,290.907,257.506,300.319,255.601C298.881,247.514,304.386,241.349,303.190,236.187C310.180,233.595,332.445,234.717,336.166,234.044C335.374,228.045,330.978,216.832,331.864,209.513C338.473,207.073,344.050,204.894,354.163,198.820C350.077,192.480,343.094,184.789,337.188,180.367C332.207,176.676,327.954,171.565,322.954,167.701C306.018,154.832,298.033,135.535,273.823,120.263Z"/>
<path class="path-11" d="M246.195,123.229C255.565,121.922,262.638,127.695,270.442,133.270"/>
<path class="path-11" d="M270.442,133.270C276.883,138.197,283.836,143.777,290.671,148.941"/>
<path class="path-11" d="M290.671,148.941C300.954,156.652,305.332,160.598,309.257,164.394"/>
<path class="path-11" d="M309.257,164.394C312.578,167.275,317.836,172.747,321.870,175.202"/>
<path class="path-11" d="M321.870,175.202C326.738,178.162,337.501,194.323,339.716,196.053"/>
<path class="path-11" d="M339.716,196.053C333.327,198.918,323.110,201.565,318.716,205.851"/>
<path class="path-11" d="M318.716,205.851C320.923,211.491,322.134,220.445,322.405,223.141"/>
<path class="path-11" d="M322.405,223.141C316.267,224.165,308.814,222.063,297.209,221.090"/>
<path class="path-11" d="M297.209,221.090C295.580,228.465,296.241,235.162,292.263,242.872"/>
<path class="path-11" d="M292.263,242.872C284.367,241.278,278.844,239.911,268.494,236.448"/>
<path class="path-11" d="M268.494,236.448C262.451,242.257,260.879,241.999,250.863,249.520"/>
<path class="path-11" d="M250.863,249.520C243.383,245.885,237.310,241.825,230.152,239.659"/>
<path class="path-11" d="M230.152,239.659C223.688,243.188,213.098,245.235,209.756,248.498"/>
<path class="path-11" d="M209.756,248.498C205.290,241.860,201.058,234.461,197.494,231.417"/>
<path class="path-11" d="M197.494,231.417C188.134,234.297,184.292,237.307,177.785,240.410"/>
<path class="path-11" d="M177.785,240.410C173.056,235.327,175.617,230.512,170.179,222.896"/>
<path class="path-11" d="M170.179,222.896C165.758,222.148,158.849,220.185,153.304,220.610"/>
<path class="path-11" d="M153.304,220.610C156.697,215.773,158.103,200.824,164.393,198.342"/>
<path class="path-11" d="M164.393,198.342C172.155,195.280,166.233,186.672,170.355,178.040"/>
<path class="path-11" d="M170.355,178.040C171.366,175.800,181.521,158.419,182.316,155.660"/>
<path class="path-11" d="M182.316,155.660C183.867,150.888,185.578,145.817,189.261,142.613"/>
<path class="path-11" d="M189.261,142.613C205.544,129.114,225.290,126.103,246.195,123.229"/>
<path class="path-12" d="M246.195,123.229C255.565,121.922,262.638,127.695,270.442,133.270C276.883,138.197,283.836,143.777,290.671,148.941C300.954,156.652,305.332,160.598,309.257,164.394C312.578,167.275,317.836,172.747,321.870,175.202C326.738,178.162,337.501,194.323,339.716,196.053C333.327,198.918,323.110,201.565,318.716,205.851C320.923,211.491,322.134,220.445,322.405,223.141C316.267,224.165,308.814,222.063,297.209,221.090C295.580,228.465,296.241,235.162,292.263,242.872C284.367,241.278,278.844,239.911,268.494,236.448C262.451,242.257,260.879,241.999,250.863,249.520C243.383,245.885,237.310,241.825,230.152,239.659C223.688,243.188,213.098,245.235,209.756,248.498C205.290,241.860,201.058,234.461,197.494,231.417C188.134,234.297,184.292,237.307,177.785,240.410C173.056,235.327,175.617,230.512,170.179,222.896C165.758,222.148,158.849,220.185,153.304,220.610C156.697,215.773,158.103,200.824,164.393,198.342C172.155,195.280,166.233,186.672,170.355,178.040C171.366,175.800,181.521,158.419,182.316,155.660C183.867,150.888,185.578,145.817,189.261,142.613C205.544,129.114,225.290,126.103,246.195,123.229Z"/>
</g>
<g id="clothes">
<path class="path-0" d="M247.834,371.619C243.399,369.111,226.305,359.391,223.018,363.530C220.220,367.279,224.717,368.627,228.687,369.530C232.214,370.333,249.515,380.035,252.120,378.707C256.931,376.181,249.983,372.714,247.834,371.619M204.590,264.068C208.452,251.786,236.157,241.099,248.902,243.074C257.895,244.442,285.288,260.730,288.639,269.425C291.446,276.374,290.479,301.184,290.082,309.562C289.079,324.827,288.424,340.164,288.102,355.459C288.441,368.128,290.259,380.706,291.574,393.311C291.400,399.664,292.667,416.801,286.284,419.651C278.134,423.761,261.490,408.594,254.652,403.709C230.071,387.144,232.242,385.521,204.714,381.651C201.324,381.042,189.929,382.892,187.739,381.327C184.089,378.026,186.371,372.531,187.825,368.021C191.968,356.759,195.948,349.448,198.775,337.039C202.229,321.398,204.640,304.322,205.939,287.817C206.074,281.909,203.677,267.617,204.590,264.068M284.257,251.832C268.633,240.897,253.173,231.704,233.049,235.934C227.672,236.864,200.301,247.765,197.775,250.917C193.866,255.882,196.407,275.940,195.895,283.082C195.611,291.636,195.115,300.515,193.734,308.649C192.850,314.897,190.991,320.386,190.441,326.330C189.499,332.904,189.501,340.239,187.277,346.023C182.872,357.237,166.602,377.691,178.702,388.410C183.501,392.693,192.108,391.699,198.700,393.338C209.365,395.773,220.670,399.163,230.677,403.979C240.364,408.976,246.737,419.395,256.967,423.523C264.910,426.730,291.682,434.635,298.290,428.454C302.778,424.442,301.559,397.522,301.122,390.734C299.615,377.318,298.098,363.826,297.946,350.328C298.145,338.353,297.886,326.614,299.620,314.415C300.832,304.417,303.318,294.858,304.098,284.486C304.089,280.069,305.094,274.719,303.049,270.155C299.614,261.817,291.297,256.750,284.257,251.832Z"/>
<path class="path-13" d="M247.834,371.619C243.399,369.111,226.305,359.391,223.018,363.530"/>
<path class="path-13" d="M223.018,363.530C220.220,367.279,224.717,368.627,228.687,369.530"/>
<path class="path-13" d="M228.687,369.530C232.214,370.333,249.515,380.035,252.120,378.707"/>
<path class="path-13" d="M252.120,378.707C256.931,376.181,249.983,372.714,247.834,371.619"/>
<path class="path-13" d="M204.590,264.068C208.452,251.786,236.157,241.099,248.902,243.074"/>
<path class="path-13" d="M248.902,243.074C257.895,244.442,285.288,260.730,288.639,269.425"/>
<path class="path-13" d="M288.639,269.425C291.446,276.374,290.479,301.184,290.082,309.562"/>
<path class="path-13" d="M290.082,309.562C289.079,324.827,288.424,340.164,288.102,355.459"/>
<path class="path-13" d="M288.102,355.459C288.441,368.128,290.259,380.706,291.574,393.311"/>
<path class="path-13" d="M291.574,393.311C291.400,399.664,292.667,416.801,286.284,419.651"/>
<path class="path-13" d="M286.284,419.651C278.134,423.761,261.490,408.594,254.652,403.709"/>
<path class="path-13" d="M254.652,403.709C230.071,387.144,232.242,385.521,204.714,381.651"/>
<path class="path-13" d="M204.714,381.651C201.324,381.042,189.929,382.892,187.739,381.327"/>
<path class="path-13" d="M187.739,381.327C184.089,378.026,186.371,372.531,187.825,368.021"/>
<path class="path-13" d="M187.825,368.021C191.968,356.759,195.948,349.448,198.775,337.039"/>
<path class="path-13" d="M198.775,337.039C202.229,321.398,204.640,304.322,205.939,287.817"/>
<path class="path-13" d="M205.939,287.817C206.074,281.909,203.677,267.617,204.590,264.068"/>
<path class="path-14" d="M247.834,371.619C243.399,369.111,226.305,359.391,223.018,363.530C220.220,367.279,224.717,368.627,228.687,369.530C232.214,370.333,249.515,380.035,252.120,378.707C256.931,376.181,249.983,372.714,247.834,371.619M204.590,264.068C208.452,251.786,236.157,241.099,248.902,243.074C257.895,244.442,285.288,260.730,288.639,269.425C291.446,276.374,290.479,301.184,290.082,309.562C289.079,324.827,288.424,340.164,288.102,355.459C288.441,368.128,290.259,380.706,291.574,393.311C291.400,399.664,292.667,416.801,286.284,419.651C278.134,423.761,261.490,408.594,254.652,403.709C230.071,387.144,232.242,385.521,204.714,381.651C201.324,381.042,189.929,382.892,187.739,381.327C184.089,378.026,186.371,372.531,187.825,368.021C191.968,356.759,195.948,349.448,198.775,337.039C202.229,321.398,204.640,304.322,205.939,287.817C206.074,281.909,203.677,267.617,204.590,264.068Z"/>
</g>
<g id="neck">
<path class="path-0" d="M232.883,226.228C232.404,222.918,232.651,219.771,236.122,218.566C246.941,213.821,255.037,250.548,244.705,253.115C235.019,255.522,233.761,232.522,232.883,226.228M233.876,209.526C231.213,209.844,228.467,211.211,226.528,213.065C218.609,219.831,221.987,227.906,224.072,236.300C224.792,240.579,226.078,244.373,225.023,248.405C224.212,252.036,220.492,256.387,221.374,259.940C224.104,269.546,250.258,263.048,256.958,261.040C259.541,260.399,268.499,259.201,268.585,255.410C268.345,254.441,259.080,244.743,256.988,240.464C250.713,227.625,254.781,205.361,233.876,209.526Z"/>
<path class="path-15" d="M236.122,218.566C246.941,213.821,255.037,250.548,244.705,253.115"/>
<path class="path-15" d="M244.705,253.115C235.019,255.522,233.761,232.522,232.883,226.228"/>
<path class="path-15" d="M232.883,226.228C232.404,222.918,232.651,219.771,236.122,218.566"/>
<path class="path-16" d="M236.122,218.566C246.941,213.821,255.037,250.548,244.705,253.115C235.019,255.522,233.761,232.522,232.883,226.228C232.404,222.918,232.651,219.771,236.122,218.566Z"/>
</g>
<g id="layer_head">
<g id="right_ear">
<path class="path-0" d="M157.092,182.574C151.726,182.121,142.745,152.391,149.164,154.635C154.771,156.578,156.351,167.231,157.400,171.630C158.185,174.427,161.875,183.006,157.092,182.574M153.655,141.743C151.771,140.165,149.464,138.433,147.137,139.223C137.906,140.788,138.726,154.396,140.102,163.705C141.927,175.194,147.821,190.626,157.246,195.924C158.962,196.901,162.197,199.725,164.251,199.365C170.618,197.838,166.467,187.427,165.403,182.401C164.016,175.066,158.284,147.202,153.655,141.743Z"/>
<path class="path-15" d="M149.164,154.635C154.771,156.578,156.351,167.231,157.400,171.630"/>
<path class="path-15" d="M157.400,171.630C158.185,174.427,161.875,183.006,157.092,182.574"/>
<path class="path-15" d="M157.092,182.574C151.726,182.121,142.745,152.391,149.164,154.635"/>
<path class="path-16" d="M149.164,154.635C154.771,156.578,156.351,167.231,157.400,171.630C158.185,174.427,161.875,183.006,157.092,182.574C151.726,182.121,142.745,152.391,149.164,154.635Z"/>
</g>
<g id="face_Mask">
<g id="face">
<path class="path-0" d="M165.044,97.988C174.773,88.685,208.184,85.663,221.966,85.392C237.400,85.329,252.621,89.600,266.891,96.096C271.964,98.415,279.620,101.065,283.467,105.568C289.476,112.656,290.593,124.236,290.928,133.158C291.283,138.744,291.713,145.991,290.064,151.017C280.400,180.470,271.620,193.869,264.338,201.475C252.342,214.004,233.227,216.986,216.143,218.964C197.356,220.867,185.838,218.153,171.147,211.503C166.324,209.326,155.986,203.995,153.170,199.785C147.374,190.763,151.564,180.102,150.868,169.856C149.977,160.870,146.396,147.555,146.097,138.712C145.894,127.484,157.046,105.566,165.044,97.988M288.415,98.456C276.595,84.490,240.807,77.292,222.981,77.705C214.602,77.645,206.597,77.297,198.754,78.314C192.931,79.253,187.642,81.265,182.148,82.247C170.052,85.078,165.458,83.047,156.341,92.746C149.818,99.517,137.885,127.897,137.192,137.115C136.765,144.518,140.888,162.172,140.835,170.806C140.725,180.170,136.599,193.065,139.925,201.464C142.800,208.424,148.796,212.821,157.807,218.308C166.744,223.751,176.854,229.240,187.475,231.063C193.738,232.240,202.215,232.352,216.672,229.449C234.910,225.549,254.124,221.403,268.487,207.620C281.777,194.866,299.503,177.985,305.376,150.319C309.563,130.601,294.936,105.994,288.415,98.456Z"/>
<path class="path-15" d="M221.966,85.392C237.400,85.329,252.621,89.600,266.891,96.096"/>
<path class="path-15" d="M266.891,96.096C271.964,98.415,279.620,101.065,283.467,105.568"/>
<path class="path-15" d="M283.467,105.568C289.476,112.656,290.593,124.236,290.928,133.158"/>
<path class="path-15" d="M290.928,133.158C291.283,138.744,291.713,145.991,290.064,151.017"/>
<path class="path-15" d="M290.064,151.017C280.400,180.470,271.620,193.869,264.338,201.475"/>
<path class="path-15" d="M264.338,201.475C252.342,214.004,233.227,216.986,216.143,218.964"/>
<path class="path-15" d="M216.143,218.964C197.356,220.867,185.838,218.153,171.147,211.503"/>
<path class="path-15" d="M171.147,211.503C166.324,209.326,155.986,203.995,153.170,199.785"/>
<path class="path-15" d="M153.170,199.785C147.374,190.763,151.564,180.102,150.868,169.856"/>
<path class="path-15" d="M150.868,169.856C149.977,160.870,146.396,147.555,146.097,138.712"/>
<path class="path-15" d="M146.097,138.712C145.894,127.484,157.046,105.566,165.044,97.988"/>
<path class="path-15" d="M165.044,97.988C174.773,88.685,208.184,85.663,221.966,85.392"/>
<path class="path-16" d="M221.966,85.392C237.400,85.329,252.621,89.600,266.891,96.096C271.964,98.415,279.620,101.065,283.467,105.568C289.476,112.656,290.593,124.236,290.928,133.158C291.283,138.744,291.713,145.991,290.064,151.017C280.400,180.470,271.620,193.869,264.338,201.475C252.342,214.004,233.227,216.986,216.143,218.964C197.356,220.867,185.838,218.153,171.147,211.503C166.324,209.326,155.986,203.995,153.170,199.785C147.374,190.763,151.564,180.102,150.868,169.856C149.977,160.870,146.396,147.555,146.097,138.712C145.894,127.484,157.046,105.566,165.044,97.988C174.773,88.685,208.184,85.663,221.966,85.392Z"/>
</g>
</g>
<mask id="mask_target" style="mask-type:alpha;">
<use xlink:href="#face_Mask"/>
</mask>
<g id="mouse">
<path class="path-0" d="M189.924,210.020C194.949,211.767,194.436,216.493,193.903,216.937C193.602,217.187,192.607,216.103,189.732,215.249C184.285,213.632,181.454,214.456,181.348,213.723C181.231,212.919,184.042,207.974,189.924,210.020Z"/>
</g>
<g id="layer_eyes_Mtarget" mask="url(#mask_target)">
<g id="eyes">
<mask style="mask-type:alpha;" id="f3906406-f197-4bf1-91d8-744c09cca836">
<use xlink:href="#cmn_f3906406-f197-4bf1-91d8-744c09cca836"/>
</mask>
<g id="cmn_f3906406-f197-4bf1-91d8-744c09cca836">
<path class="path-0" d="M144.893,180.765C145.237,180.641,146.339,179.613,146.339,179.917C146.327,179.311,140.703,178.665,139.868,180.099C139.655,180.471,140.833,182.104,140.298,182.063C139.792,182.024,144.552,180.887,144.893,180.765M153.087,184.656C153.151,183.813,153.450,178.410,151.468,177.363C150.369,176.782,148.586,177.857,147.463,178.432C144.512,179.863,128.907,173.355,130.164,169.152C130.545,167.872,137.302,166.730,138.541,167.257C148.749,171.614,122.952,189.655,136.621,196.906C137.533,197.390,145.990,184.869,144.622,186.784C143.795,187.943,152.966,186.241,153.087,184.656M183.058,189.417C180.228,188.850,175.326,189.275,174.761,184.813C174.406,182.013,191.605,184.425,194.081,184.219C196.011,184.058,208.878,183.060,209.959,182.972C210.249,182.954,211.924,184.645,212.010,185.199C212.176,186.275,188.061,190.420,183.058,189.417M218.963,189.162C219.996,188.197,221.169,178.905,220.472,178.233C217.055,174.939,203.921,177.903,196.828,178.001C191.897,178.068,183.535,179.395,180.398,178.587C176.724,177.780,173.908,176.461,171.744,177.909C169.935,179.121,168.993,182.599,169.323,184.751C169.705,187.241,171.845,189.937,174.474,191.385C179.825,194.370,198.255,193.167,203.255,193.137C204.027,193.130,216.266,191.679,218.963,189.162Z"/>
<path class="path-17" d="M209.959,182.972C210.249,182.954,211.924,184.645,212.010,185.199"/>
<path class="path-17" d="M212.010,185.199C212.176,186.275,188.061,190.420,183.058,189.417"/>
<path class="path-17" d="M183.058,189.417C180.228,188.850,175.326,189.275,174.761,184.813"/>
<path class="path-17" d="M174.761,184.813C174.406,182.013,191.605,184.425,194.081,184.219"/>
<path class="path-17" d="M194.081,184.219C196.011,184.058,208.878,183.060,209.959,182.972"/>
<path class="path-18" d="M209.959,182.972C210.249,182.954,211.924,184.645,212.010,185.199C212.176,186.275,188.061,190.420,183.058,189.417C180.228,188.850,175.326,189.275,174.761,184.813C174.406,182.013,191.605,184.425,194.081,184.219C196.011,184.058,208.878,183.060,209.959,182.972Z"/>
<path class="path-17" d="M140.298,182.063C139.792,182.024,144.552,180.887,144.893,180.765"/>
<path class="path-17" d="M144.893,180.765C145.237,180.641,146.339,179.613,146.339,179.917"/>
<path class="path-17" d="M146.339,179.917C146.327,179.311,140.703,178.665,139.868,180.099"/>
<path class="path-17" d="M139.868,180.099C139.655,180.471,140.833,182.104,140.298,182.063"/>
<path class="path-18" d="M140.298,182.063C139.792,182.024,144.552,180.887,144.893,180.765C145.237,180.641,146.339,179.613,146.339,179.917C146.327,179.311,140.703,178.665,139.868,180.099C139.655,180.471,140.833,182.104,140.298,182.063Z"/>
</g>
</g>
<g id="pupil">
<path class="path-0" d="M177.312,169.209C179.670,168.935,182.326,172.590,182.050,181.149C181.852,187.313,180.030,189.615,178.321,189.614C176.408,189.614,175.101,186.815,174.677,179.931C174.225,172.584,175.285,169.445,177.312,169.209Z" mask="url(#f3906406-f197-4bf1-91d8-744c09cca836)"/>
<path class="path-0" d="M145.717,166.511C148.161,166.332,150.936,170.367,150.163,179.466C149.722,184.658,148.127,186.436,146.729,186.487C145.132,186.545,143.386,184.451,142.645,178.541C141.615,170.328,143.501,166.673,145.717,166.511Z" mask="url(#f3906406-f197-4bf1-91d8-744c09cca836)"/>
</g>
</g>
<g id="hat">
<path class="path-0" d="M297.360,142.622C299.474,143.757,301.706,146.843,301.914,149.519C303.032,156.420,291.652,156.322,288.032,156.342C282.323,155.802,276.512,154.127,271.190,152.827C264.111,151.764,257.267,149.483,250.233,148.156C228.708,142.334,207.039,137.184,185.391,131.858C174.780,129.685,165.310,126.696,153.754,124.519C152.492,124.285,140.719,123.769,138.481,122.765C124.412,116.607,138.434,105.101,138.194,98.327C138.275,96.362,134.604,95.452,135.733,92.076C136.492,89.921,143.141,86.483,145.407,85.907C154.929,83.433,165.445,83.358,175.698,84.357C186.877,85.452,196.659,88.474,207.573,91.115C232.236,97.097,274.205,109.178,303.470,127.593C312.233,133.095,292.897,127.967,291.029,127.826C275.020,126.244,210.837,101.467,245.357,118.761C258.999,125.775,285.093,135.428,297.360,142.622M193.447,75.667C181.534,73.216,170.605,70.990,159.075,71.792C154.900,72.071,149.568,72.332,146.198,72.843C139.231,73.911,153.657,55.504,157.511,52.214C175.547,37.201,205.005,29.361,229.232,33.996C276.830,43.102,293.164,58.371,303.653,78.653C307.109,84.767,315.591,111.886,304.959,116.585C301.543,117.836,296.225,114.253,293.744,112.440C284.826,106.212,214.435,79.985,193.447,75.667M297.204,48.835C281.326,37.652,261.239,27.047,234.666,24.252C204.597,21.123,170.375,25.779,147.964,49.403C141.089,56.816,137.538,65.524,132.893,73.705C130.026,78.701,125.200,81.575,124.046,87.150C122.693,94.706,126.947,97.265,126.893,103.586C127.028,110.763,122.439,112.349,122.177,116.959C120.298,129.165,131.442,133.667,141.359,136.139C145.665,137.214,162.005,138.755,170.828,140.057C180.817,141.531,194.125,143.597,204.049,145.460C215.343,147.579,230.240,151.209,241.508,153.462C252.018,155.564,265.995,158.684,276.630,160.016C284.901,161.053,303.179,162.650,304.350,161.896C306.071,160.809,312.938,148.188,313.748,145.664C315.088,141.492,313.654,136.550,316.126,129.918C319.624,119.836,323.354,111.295,323.112,99.764C322.489,78.769,310.069,57.930,297.204,48.835Z"/>
<path class="path-19" d="M207.573,91.115C232.236,97.097,274.205,109.178,303.470,127.593"/>
<path class="path-19" d="M303.470,127.593C312.233,133.095,292.897,127.967,291.029,127.826"/>
<path class="path-19" d="M291.029,127.826C275.020,126.244,210.837,101.467,245.357,118.761"/>
<path class="path-19" d="M245.357,118.761C258.999,125.775,285.093,135.428,297.360,142.622"/>
<path class="path-19" d="M297.360,142.622C299.474,143.757,301.706,146.843,301.914,149.519"/>
<path class="path-19" d="M301.914,149.519C303.032,156.420,291.652,156.322,288.032,156.342"/>
<path class="path-19" d="M288.032,156.342C282.323,155.802,276.512,154.127,271.190,152.827"/>
<path class="path-19" d="M271.190,152.827C264.111,151.764,257.267,149.483,250.233,148.156"/>
<path class="path-19" d="M250.233,148.156C228.708,142.334,207.039,137.184,185.391,131.858"/>
<path class="path-19" d="M185.391,131.858C174.780,129.685,165.310,126.696,153.754,124.519"/>
<path class="path-19" d="M153.754,124.519C152.492,124.285,140.719,123.769,138.481,122.765"/>
<path class="path-19" d="M138.481,122.765C124.412,116.607,138.434,105.101,138.194,98.327"/>
<path class="path-19" d="M138.194,98.327C138.275,96.362,134.604,95.452,135.733,92.076"/>
<path class="path-19" d="M135.733,92.076C136.492,89.921,143.141,86.483,145.407,85.907"/>
<path class="path-19" d="M145.407,85.907C154.929,83.433,165.445,83.358,175.698,84.357"/>
<path class="path-19" d="M175.698,84.357C186.877,85.452,196.659,88.474,207.573,91.115"/>
<path class="path-20" d="M207.573,91.115C232.236,97.097,274.205,109.178,303.470,127.593C312.233,133.095,292.897,127.967,291.029,127.826C275.020,126.244,210.837,101.467,245.357,118.761C258.999,125.775,285.093,135.428,297.360,142.622C299.474,143.757,301.706,146.843,301.914,149.519C303.032,156.420,291.652,156.322,288.032,156.342C282.323,155.802,276.512,154.127,271.190,152.827C264.111,151.764,257.267,149.483,250.233,148.156C228.708,142.334,207.039,137.184,185.391,131.858C174.780,129.685,165.310,126.696,153.754,124.519C152.492,124.285,140.719,123.769,138.481,122.765C124.412,116.607,138.434,105.101,138.194,98.327C138.275,96.362,134.604,95.452,135.733,92.076C136.492,89.921,143.141,86.483,145.407,85.907C154.929,83.433,165.445,83.358,175.698,84.357C186.877,85.452,196.659,88.474,207.573,91.115Z"/>
<path class="path-9" d="M229.232,33.996C276.830,43.102,293.164,58.371,303.653,78.653"/>
<path class="path-9" d="M303.653,78.653C307.109,84.767,315.591,111.886,304.959,116.585"/>
<path class="path-9" d="M304.959,116.585C301.543,117.836,296.225,114.253,293.744,112.440"/>
<path class="path-9" d="M293.744,112.440C284.826,106.212,214.435,79.985,193.447,75.667"/>
<path class="path-9" d="M193.447,75.667C181.534,73.216,170.605,70.990,159.075,71.792"/>
<path class="path-9" d="M159.075,71.792C154.900,72.071,149.568,72.332,146.198,72.843"/>
<path class="path-9" d="M146.198,72.843C139.231,73.911,153.657,55.504,157.511,52.214"/>
<path class="path-9" d="M157.511,52.214C175.547,37.201,205.005,29.361,229.232,33.996"/>
<path class="path-10" d="M229.232,33.996C276.830,43.102,293.164,58.371,303.653,78.653C307.109,84.767,315.591,111.886,304.959,116.585C301.543,117.836,296.225,114.253,293.744,112.440C284.826,106.212,214.435,79.985,193.447,75.667C181.534,73.216,170.605,70.990,159.075,71.792C154.900,72.071,149.568,72.332,146.198,72.843C139.231,73.911,153.657,55.504,157.511,52.214C175.547,37.201,205.005,29.361,229.232,33.996Z"/>
</g>
<g id="left_ear">
<path class="path-0" d="M251.899,183.871C252.381,181.205,255.468,172.106,257.346,169.816C265.639,158.924,284.180,156.282,290.047,165.228C296.748,175.920,280.862,197.356,268.850,201.222C255.825,205.197,250.147,195.544,251.899,183.871M304.649,170.393C303.650,158.150,295.235,147.530,278.645,150.019C261.176,152.639,257.397,176.149,254.628,190.476C254.096,193.682,253.574,197.201,254.241,200.221C256.524,211.426,266.128,216.104,276.746,208.719C288.172,200.596,305.410,185.270,304.649,170.393Z"/>
<path class="path-15" d="M257.346,169.816C265.639,158.924,284.180,156.282,290.047,165.228"/>
<path class="path-15" d="M290.047,165.228C296.748,175.920,280.862,197.356,268.850,201.222"/>
<path class="path-15" d="M268.850,201.222C255.825,205.197,250.147,195.544,251.899,183.871"/>
<path class="path-15" d="M251.899,183.871C252.381,181.205,255.468,172.106,257.346,169.816"/>
<path class="path-16" d="M257.346,169.816C265.639,158.924,284.180,156.282,290.047,165.228C296.748,175.920,280.862,197.356,268.850,201.222C255.825,205.197,250.147,195.544,251.899,183.871C252.381,181.205,255.468,172.106,257.346,169.816Z"/>
</g>
<g id="earrings">
<path class="path-0" d="M277.113,214.444C267.425,217.906,268.692,199.620,271.951,200.285C276.399,202.358,286.231,215.607,277.113,214.444M287.962,208.048C281.316,207.797,279.195,198.476,279.058,194.632C286.357,197.041,295.181,203.552,287.962,208.048M299.036,206.115C297.463,197.711,285.692,191.785,278.318,187.401C275.570,185.767,265.913,194.717,265.122,197.985C263.498,201.961,263.665,224.687,278.034,223.405C283.904,222.620,300.301,212.868,299.036,206.115Z"/>
<path class="path-21" d="M279.058,194.632C286.357,197.041,295.181,203.552,287.962,208.048"/>
<path class="path-21" d="M287.962,208.048C281.316,207.797,279.195,198.476,279.058,194.632"/>
<path class="path-22" d="M279.058,194.632C286.357,197.041,295.181,203.552,287.962,208.048C281.316,207.797,279.195,198.476,279.058,194.632Z"/>
<path class="path-21" d="M271.951,200.285C276.399,202.358,286.231,215.607,277.113,214.444"/>
<path class="path-21" d="M277.113,214.444C267.425,217.906,268.692,199.620,271.951,200.285"/>
<path class="path-22" d="M271.951,200.285C276.399,202.358,286.231,215.607,277.113,214.444C267.425,217.906,268.692,199.620,271.951,200.285Z"/>
</g>
</g>
<g id="jacket">
<path class="path-0" d="M215.727,269.493C218.030,273.957,214.624,283.930,214.232,288.519C210.809,305.209,206.449,321.061,204.969,337.637C204.749,341.369,202.929,347.813,200.511,351.427C198.572,354.325,194.757,358.081,191.745,359.059C188.120,360.178,186.717,353.599,185.901,350.655C184.863,346.907,186.521,340.103,187.001,337.662C188.327,332.601,192.019,322.988,192.886,316.446C193.763,310.192,192.086,303.673,192.339,296.714C192.107,291.359,190.932,285.059,190.276,279.116C190.546,276.029,191.204,274.152,191.437,271.974C191.517,266.543,194.259,265.401,199.465,265.339C204.361,265.628,214.452,263.993,215.727,269.493M271.122,283.997C272.976,280.496,299.581,264.906,303.003,263.406C311.669,260.092,315.180,269.808,314.713,275.249C314.077,283.983,297.319,311.668,298.424,317.857C298.747,320.571,300.610,322.111,302.096,323.926C313.770,339.683,308.761,330.065,321.912,337.851C327.527,341.238,338.010,350.359,342.255,355.187C344.874,358.547,350.069,366.587,350.980,370.477C351.305,372.745,351.388,376.762,348.034,377.017C346.600,377.305,332.440,372.999,329.960,372.624C318.468,370.241,305.788,369.718,297.031,360.640C293.895,357.015,291.785,351.991,289.374,347.454C282.247,334.563,276.978,320.910,273.421,306.555C271.673,300.591,268.683,290.068,271.122,283.997M289.134,260.065C285.998,263.006,279.716,267.599,277.522,268.463C269.358,271.179,268.587,261.375,268.391,255.336C268.408,250.213,271.482,243.059,274.698,238.852C277.479,235.214,281.942,230.219,286.946,229.745C293.506,228.887,303.993,236.561,302.235,243.883C301.658,247.190,293.690,255.793,289.134,260.065M208.010,232.506C212.786,236.684,216.483,241.444,215.357,245.881C214.314,249.986,210.978,251.859,203.747,253.899C192.193,257.157,183.674,239.775,187.528,232.777C190.493,227.394,201.834,227.104,208.010,232.506M360.512,381.015C359.002,373.257,361.308,367.233,357.659,359.831C352.813,350.241,343.594,341.270,334.942,334.989C325.168,328.272,316.628,329.325,310.677,317.296C305.609,307.487,310.804,297.525,312.996,287.159C313.621,283.428,315.207,264.244,315.457,260.802C315.176,257.269,315.789,253.747,315.413,250.506C315.081,246.525,315.728,242.330,314.558,238.510C312.883,231.664,306.072,228.173,300.891,224.471C293.865,220.053,287.683,217.629,279.327,219.128C270.305,220.759,267.033,230.774,264.250,237.285C259.916,247.422,261.381,262.873,261.026,273.893C260.824,280.186,261.003,288.965,261.400,294.879C262.505,316.447,281.148,362.704,300.018,373.498C303.917,376.076,331.343,383.214,339.814,385.750C345.121,387.367,347.348,389.130,351.556,392.504C353.468,394.162,358.450,398.259,361.208,396.560C365.066,394.354,361.132,384.209,360.512,381.015M222.042,233.187C218.832,227.246,213.538,217.479,206.656,216.759C200.265,216.299,190.474,216.929,184.496,219.995C180.957,221.811,175.514,225.230,174.976,229.222C174.038,235.158,176.455,242.367,179.338,247.063C181.046,249.844,185.348,251.897,187.369,254.402C188.402,255.756,192.160,263.154,192.772,265.174C196.149,275.299,191.373,286.884,189.543,296.001C187.974,303.821,183.820,313.728,181.969,321.487C179.966,329.879,177.942,340.443,176.856,349.787C176.460,352.099,176.637,357.306,176.848,360.518C177.058,363.708,176.716,369.612,178.253,371.080C179.113,371.902,189.847,374.075,194.518,372.593C198.775,371.242,202.324,371.874,205.910,363.006C210.270,351.452,212.804,340.574,214.310,328.174C216.325,306.951,225.310,278.742,225.448,265.676C225.510,259.731,226.760,255.829,225.834,247.509C225.341,244.026,224.155,237.097,222.042,233.187Z"/>
<path class="path-1" d="M303.003,263.406C311.669,260.092,315.180,269.808,314.713,275.249"/>
<path class="path-1" d="M314.713,275.249C314.077,283.983,297.319,311.668,298.424,317.857"/>
<path class="path-1" d="M298.424,317.857C298.747,320.571,300.610,322.111,302.096,323.926"/>
<path class="path-1" d="M302.096,323.926C313.770,339.683,308.761,330.065,321.912,337.851"/>
<path class="path-1" d="M321.912,337.851C327.527,341.238,338.010,350.359,342.255,355.187"/>
<path class="path-1" d="M342.255,355.187C344.874,358.547,350.069,366.587,350.980,370.477"/>
<path class="path-1" d="M350.980,370.477C351.305,372.745,351.388,376.762,348.034,377.017"/>
<path class="path-1" d="M348.034,377.017C346.600,377.305,332.440,372.999,329.960,372.624"/>
<path class="path-1" d="M329.960,372.624C318.468,370.241,305.788,369.718,297.031,360.640"/>
<path class="path-1" d="M297.031,360.640C293.895,357.015,291.785,351.991,289.374,347.454"/>
<path class="path-1" d="M289.374,347.454C282.247,334.563,276.978,320.910,273.421,306.555"/>
<path class="path-1" d="M273.421,306.555C271.673,300.591,268.683,290.068,271.122,283.997"/>
<path class="path-1" d="M271.122,283.997C272.976,280.496,299.581,264.906,303.003,263.406"/>
<path class="path-2" d="M303.003,263.406C311.669,260.092,315.180,269.808,314.713,275.249C314.077,283.983,297.319,311.668,298.424,317.857C298.747,320.571,300.610,322.111,302.096,323.926C313.770,339.683,308.761,330.065,321.912,337.851C327.527,341.238,338.010,350.359,342.255,355.187C344.874,358.547,350.069,366.587,350.980,370.477C351.305,372.745,351.388,376.762,348.034,377.017C346.600,377.305,332.440,372.999,329.960,372.624C318.468,370.241,305.788,369.718,297.031,360.640C293.895,357.015,291.785,351.991,289.374,347.454C282.247,334.563,276.978,320.910,273.421,306.555C271.673,300.591,268.683,290.068,271.122,283.997C272.976,280.496,299.581,264.906,303.003,263.406Z"/>
<path class="path-1" d="M199.465,265.339C204.361,265.628,214.452,263.993,215.727,269.493"/>
<path class="path-1" d="M215.727,269.493C218.030,273.957,214.624,283.930,214.232,288.519"/>
<path class="path-1" d="M214.232,288.519C210.809,305.209,206.449,321.061,204.969,337.637"/>
<path class="path-1" d="M204.969,337.637C204.749,341.369,202.929,347.813,200.511,351.427"/>
<path class="path-1" d="M200.511,351.427C198.572,354.325,194.757,358.081,191.745,359.059"/>
<path class="path-1" d="M191.745,359.059C188.120,360.178,186.717,353.599,185.901,350.655"/>
<path class="path-1" d="M185.901,350.655C184.863,346.907,186.521,340.103,187.001,337.662"/>
<path class="path-1" d="M187.001,337.662C188.327,332.601,192.019,322.988,192.886,316.446"/>
<path class="path-1" d="M192.886,316.446C193.763,310.192,192.086,303.673,192.339,296.714"/>
<path class="path-1" d="M192.339,296.714C192.107,291.359,190.932,285.059,190.276,279.116"/>
<path class="path-1" d="M190.276,279.116C190.546,276.029,191.204,274.152,191.437,271.974"/>
<path class="path-1" d="M191.437,271.974C191.517,266.543,194.259,265.401,199.465,265.339"/>
<path class="path-2" d="M199.465,265.339C204.361,265.628,214.452,263.993,215.727,269.493C218.030,273.957,214.624,283.930,214.232,288.519C210.809,305.209,206.449,321.061,204.969,337.637C204.749,341.369,202.929,347.813,200.511,351.427C198.572,354.325,194.757,358.081,191.745,359.059C188.120,360.178,186.717,353.599,185.901,350.655C184.863,346.907,186.521,340.103,187.001,337.662C188.327,332.601,192.019,322.988,192.886,316.446C193.763,310.192,192.086,303.673,192.339,296.714C192.107,291.359,190.932,285.059,190.276,279.116C190.546,276.029,191.204,274.152,191.437,271.974C191.517,266.543,194.259,265.401,199.465,265.339Z"/>
<path class="path-1" d="M286.946,229.745C293.506,228.887,303.993,236.561,302.235,243.883"/>
<path class="path-1" d="M302.235,243.883C301.658,247.190,293.690,255.793,289.134,260.065"/>
<path class="path-1" d="M289.134,260.065C285.998,263.006,279.716,267.599,277.522,268.463"/>
<path class="path-1" d="M277.522,268.463C269.358,271.179,268.587,261.375,268.391,255.336"/>
<path class="path-1" d="M268.391,255.336C268.408,250.213,271.482,243.059,274.698,238.852"/>
<path class="path-1" d="M274.698,238.852C277.479,235.214,281.942,230.219,286.946,229.745"/>
<path class="path-2" d="M286.946,229.745C293.506,228.887,303.993,236.561,302.235,243.883C301.658,247.190,293.690,255.793,289.134,260.065C285.998,263.006,279.716,267.599,277.522,268.463C269.358,271.179,268.587,261.375,268.391,255.336C268.408,250.213,271.482,243.059,274.698,238.852C277.479,235.214,281.942,230.219,286.946,229.745Z"/>
<path class="path-1" d="M208.010,232.506C212.786,236.684,216.483,241.444,215.357,245.881"/>
<path class="path-1" d="M215.357,245.881C214.314,249.986,210.978,251.859,203.747,253.899"/>
<path class="path-1" d="M203.747,253.899C192.193,257.157,183.674,239.775,187.528,232.777"/>
<path class="path-1" d="M187.528,232.777C190.493,227.394,201.834,227.104,208.010,232.506"/>
<path class="path-2" d="M208.010,232.506C212.786,236.684,216.483,241.444,215.357,245.881C214.314,249.986,210.978,251.859,203.747,253.899C192.193,257.157,183.674,239.775,187.528,232.777C190.493,227.394,201.834,227.104,208.010,232.506Z"/>
</g>
<g id="left_arm">
<path class="path-0" d="M327.969,458.268C324.533,453.166,323.082,444.458,330.489,441.903C335.693,440.062,359.614,444.059,363.750,447.816C370.958,453.734,367.660,468.386,359.266,472.088C349.459,475.890,333.571,466.398,327.969,458.268M295.332,282.296C295.455,278.983,301.378,267.154,306.534,267.094C309.528,267.059,312.038,271.610,313.618,273.975C318.110,281.462,322.874,289.174,326.924,297.164C338.037,318.587,347.358,340.471,354.634,363.060C357.297,372.145,357.419,384.570,361.146,392.721C365.587,402.137,371.697,398.553,374.977,404.706C376.448,407.634,376.062,413.315,378.282,417.869C381.628,425.035,387.471,428.748,390.355,433.270C392.147,435.848,392.951,438.785,389.334,439.650C387.391,440.757,382.012,440.098,380.015,440.215C373.253,438.831,366.495,437.442,359.751,436.000C350.687,434.461,323.425,434.283,318.492,428.529C311.047,419.532,321.467,408.001,322.349,398.604C322.858,395.642,324.365,352.369,323.329,349.604C321.702,343.174,316.483,338.493,313.450,332.214C309.742,323.496,305.884,314.152,302.367,304.981C299.547,297.182,294.599,291.347,295.332,282.296M315.664,255.040C312.333,251.036,303.306,244.613,297.780,247.277C293.226,249.714,293.948,255.696,294.211,259.735C294.874,269.832,294.833,278.386,297.038,287.778C298.311,294.656,300.431,300.648,302.573,306.982C305.151,315.388,307.508,332.193,309.523,342.014C311.140,351.373,314.478,360.902,314.520,369.116C314.209,388.380,305.879,406.878,307.470,425.990C307.943,435.598,310.578,435.447,313.220,443.016C315.191,448.910,314.150,455.296,316.750,460.831C323.458,475.494,341.400,488.278,358.186,484.132C373.659,480.382,373.501,463.402,381.371,454.026C388.294,445.696,403.109,448.973,404.699,440.567C406.354,433.492,396.340,426.323,392.433,421.179C384.661,411.570,390.207,408.976,386.204,401.515C383.288,395.997,375.440,391.366,371.430,384.246C369.267,381.013,367.963,374.732,366.375,370.483C362.899,359.983,359.696,347.902,356.257,336.890C352.657,324.474,348.727,313.759,342.352,301.743C337.330,291.986,322.101,262.071,315.664,255.040Z"/>
<path class="path-1" d="M306.534,267.094C309.528,267.059,312.038,271.610,313.618,273.975"/>
<path class="path-1" d="M313.618,273.975C318.110,281.462,322.874,289.174,326.924,297.164"/>
<path class="path-1" d="M326.924,297.164C338.037,318.587,347.358,340.471,354.634,363.060"/>
<path class="path-1" d="M354.634,363.060C357.297,372.145,357.419,384.570,361.146,392.721"/>
<path class="path-1" d="M361.146,392.721C365.587,402.137,371.697,398.553,374.977,404.706"/>
<path class="path-1" d="M374.977,404.706C376.448,407.634,376.062,413.315,378.282,417.869"/>
<path class="path-1" d="M378.282,417.869C381.628,425.035,387.471,428.748,390.355,433.270"/>
<path class="path-1" d="M390.355,433.270C392.147,435.848,392.951,438.785,389.334,439.650"/>
<path class="path-1" d="M389.334,439.650C387.391,440.757,382.012,440.098,380.015,440.215"/>
<path class="path-1" d="M380.015,440.215C373.253,438.831,366.495,437.442,359.751,436.000"/>
<path class="path-1" d="M359.751,436.000C350.687,434.461,323.425,434.283,318.492,428.529"/>
<path class="path-1" d="M318.492,428.529C311.047,419.532,321.467,408.001,322.349,398.604"/>
<path class="path-1" d="M322.349,398.604C322.858,395.642,324.365,352.369,323.329,349.604"/>
<path class="path-1" d="M323.329,349.604C321.702,343.174,316.483,338.493,313.450,332.214"/>
<path class="path-1" d="M313.450,332.214C309.742,323.496,305.884,314.152,302.367,304.981"/>
<path class="path-1" d="M302.367,304.981C299.547,297.182,294.599,291.347,295.332,282.296"/>
<path class="path-1" d="M295.332,282.296C295.455,278.983,301.378,267.154,306.534,267.094"/>
<path class="path-2" d="M306.534,267.094C309.528,267.059,312.038,271.610,313.618,273.975C318.110,281.462,322.874,289.174,326.924,297.164C338.037,318.587,347.358,340.471,354.634,363.060C357.297,372.145,357.419,384.570,361.146,392.721C365.587,402.137,371.697,398.553,374.977,404.706C376.448,407.634,376.062,413.315,378.282,417.869C381.628,425.035,387.471,428.748,390.355,433.270C392.147,435.848,392.951,438.785,389.334,439.650C387.391,440.757,382.012,440.098,380.015,440.215C373.253,438.831,366.495,437.442,359.751,436.000C350.687,434.461,323.425,434.283,318.492,428.529C311.047,419.532,321.467,408.001,322.349,398.604C322.858,395.642,324.365,352.369,323.329,349.604C321.702,343.174,316.483,338.493,313.450,332.214C309.742,323.496,305.884,314.152,302.367,304.981C299.547,297.182,294.599,291.347,295.332,282.296C295.455,278.983,301.378,267.154,306.534,267.094Z"/>
<path class="path-15" d="M330.489,441.903C335.693,440.062,359.614,444.059,363.750,447.816"/>
<path class="path-15" d="M363.750,447.816C370.958,453.734,367.660,468.386,359.266,472.088"/>
<path class="path-15" d="M359.266,472.088C349.459,475.890,333.571,466.398,327.969,458.268"/>
<path class="path-15" d="M327.969,458.268C324.533,453.166,323.082,444.458,330.489,441.903"/>
<path class="path-16" d="M330.489,441.903C335.693,440.062,359.614,444.059,363.750,447.816C370.958,453.734,367.660,468.386,359.266,472.088C349.459,475.890,333.571,466.398,327.969,458.268C324.533,453.166,323.082,444.458,330.489,441.903Z"/>
</g>
<g id="bone">
<g id="bone_B20">
<path class="path-23" d="M234.239,134.428C233.741,122.461,233.243,110.494,232.745,98.527"/>
</g>
<g id="bone_">
<path class="path-23" d="M552.381,338.786C575.653,332.995,598.925,327.205,622.197,321.415"/>
</g>
<g id="bone_">
<path class="path-23" d="M496.479,337.308C474.798,327.956,453.117,318.604,431.436,309.251"/>
</g>
<g id="bone_">
<path class="path-23" d="M436.410,337.308C437.696,313.731,438.981,290.154,440.267,266.577"/>
</g>
<g id="bone_">
<path class="path-23" d="M604.616,215.385C608.678,192.125,612.741,168.865,616.804,145.605"/>
</g>
<g id="bone_">
<path class="path-23" d="M436.410,216.411C459.776,219.812,483.142,223.213,506.508,226.614"/>
</g>
<g id="bone_">
<path class="path-23" d="M551.282,215.385C548.233,191.971,545.185,168.556,542.136,145.142"/>
</g>
<g id="bone_">
<path class="path-23" d="M495.897,216.411C472.700,220.818,449.503,225.226,426.306,229.633"/>
</g>
<g id="bone_B18">
<path class="path-23" d="M215.771,387.477C211.846,419.131,207.921,450.785,203.996,482.439"/>
</g>
<g id="bone_B17">
<path class="path-23" d="M261.925,387.477C273.153,420.116,284.381,452.755,295.609,485.393"/>
</g>
<g id="bone_B16">
<path class="path-23" d="M235.305,160.027C241.995,184.074,248.685,208.120,255.374,232.166"/>
</g>
<g id="bone_B14">
<path class="path-23" d="M155.023,379.408C163.066,396.771,171.110,414.135,179.154,431.499"/>
</g>
<g id="bone_B13">
<path class="path-23" d="M188.617,270.786C177.419,306.993,166.221,343.201,155.023,379.408"/>
</g>
<g id="bone_B11">
<path class="path-23" d="M337.791,346.588C341.244,368.326,344.697,390.065,348.149,411.803"/>
</g>
<g id="bone_B9">
<path class="path-23" d="M301.947,261.240C313.895,289.689,325.843,318.138,337.791,346.588"/>
</g>
<g id="bone_B5">
<path class="path-23" d="M237.570,214.451C236.460,187.777,235.350,161.102,234.239,134.428"/>
</g>
<g id="bone_B4">
<path class="path-23" d="M245.719,255.756C243.003,241.988,240.287,228.220,237.570,214.451"/>
</g>
<g id="bone_B3">
<path class="path-23" d="M247.745,328.729C247.069,304.405,246.394,280.081,245.719,255.756"/>
</g>
<g id="bone_B2">
<path class="path-23" d="M238.335,387.477C241.471,367.894,244.608,348.312,247.745,328.729"/>
</g>
<g id="bone_B1">
<path class="path-23" d="M238.335,387.477C250.312,387.477,262.289,387.477,274.266,387.477"/>
</g>
</g>
</g>
<style>
.path-0{fill:#000000;fill-rule:evenodd;stroke:none;}
.path-1{fill:none;stroke:#a60d3f;stroke-width:1;stroke-linecap:butt;stroke-linejoin:round;}
.path-2{fill:#a60d3f;fill-rule:evenodd;stroke:none;}
.path-3{fill:none;stroke:#d88e4b;stroke-width:1;stroke-linecap:butt;stroke-linejoin:round;}
.path-4{fill:#d88e4b;fill-rule:evenodd;stroke:none;}
.path-5{fill:none;stroke:#6e2353;stroke-width:1;stroke-linecap:butt;stroke-linejoin:round;}
.path-6{fill:#6e2353;fill-rule:evenodd;stroke:none;}
.path-7{fill:none;stroke:#392966;stroke-width:1;stroke-linecap:butt;stroke-linejoin:round;}
.path-8{fill:#392966;fill-rule:evenodd;stroke:none;}
.path-9{fill:none;stroke:#cc9bc5;stroke-width:1;stroke-linecap:butt;stroke-linejoin:round;}
.path-10{fill:#cc9bc5;fill-rule:evenodd;stroke:none;}
.path-11{fill:none;stroke:#620527;stroke-width:1;stroke-linecap:butt;stroke-linejoin:round;}
.path-12{fill:#620527;fill-rule:evenodd;stroke:none;}
.path-13{fill:none;stroke:#6a3661;stroke-width:1;stroke-linecap:butt;stroke-linejoin:round;}
.path-14{fill:#6a3661;fill-rule:evenodd;stroke:none;}
.path-15{fill:none;stroke:#f8a087;stroke-width:1;stroke-linecap:butt;stroke-linejoin:round;}
.path-16{fill:#f8a087;fill-rule:evenodd;stroke:none;}
.path-17{fill:none;stroke:#ffffff;stroke-width:1;stroke-linecap:butt;stroke-linejoin:round;}
.path-18{fill:#ffffff;fill-rule:evenodd;stroke:none;}
.path-19{fill:none;stroke:#d89f4a;stroke-width:1;stroke-linecap:butt;stroke-linejoin:round;}
.path-20{fill:#d89f4a;fill-rule:evenodd;stroke:none;}
.path-21{fill:none;stroke:#fafd5b;stroke-width:1;stroke-linecap:butt;stroke-linejoin:round;}
.path-22{fill:#fafd5b;fill-rule:evenodd;stroke:none;}
.path-23{fill:none;stroke:#00ff00;stroke-width:8;stroke-linecap:round;stroke-linejoin:round;}
.path-24{fill:none;stroke:#000000;stroke-width:1;stroke-linecap:butt;stroke-linejoin:round;}
</style>
</svg>
