<svg version="1.1" id="Frame_196" xmlns="http://www.w3.org/2000/svg" xmlns:xlink="http://www.w3.org/1999/xlink" width="480px" height="720px">
<g id="main_bone">
<g id="right_arm">
<path class="path-0" d="M180.951,269.743C182.579,267.193,185.775,261.923,189.661,260.745C196.202,258.763,201.211,264.970,201.569,269.551C202.502,277.574,195.895,287.804,192.695,295.392C184.857,313.658,176.492,331.699,171.100,350.284C170.411,353.542,165.212,374.660,165.272,372.012C164.792,378.629,171.298,384.406,173.511,390.081C176.341,397.734,173.435,404.905,171.497,411.854C167.037,426.186,167.441,431.483,167.674,445.475C167.814,447.692,168.199,454.911,164.727,455.302C161.315,455.687,160.320,449.541,159.423,447.206C158.852,444.572,156.057,439.069,156.594,436.696C156.699,432.723,161.263,433.663,156.199,425.481C149.732,415.252,138.404,406.628,135.640,393.264C133.835,382.622,139.564,373.405,142.907,363.573C150.022,342.449,157.903,321.350,167.017,300.675C171.972,289.956,174.412,280.557,180.951,269.743M201.530,263.269C202.316,254.762,199.896,247.102,189.097,249.749C171.710,253.946,163.949,279.778,158.006,294.243C149.664,313.780,142.681,333.560,136.175,353.471C133.510,362.001,130.247,366.287,128.812,371.236C127.034,376.835,127.167,385.464,127.399,391.105C127.085,408.759,132.409,409.710,139.612,423.261C143.434,431.273,139.727,436.412,142.458,443.335C144.458,448.097,148.480,451.350,151.628,455.248C154.421,459.164,155.163,461.448,157.277,465.057C159.836,469.369,167.427,479.052,173.085,476.253C177.321,474.138,176.329,466.239,176.252,462.404C175.977,456.647,177.386,434.323,178.390,427.562C180.222,416.350,186.243,404.374,184.757,392.246C183.552,382.973,175.437,376.189,176.012,366.282C176.472,361.005,179.952,352.497,181.213,346.602C183.283,337.181,183.888,327.020,186.678,317.388C191.440,300.249,200.519,281.393,201.530,263.269Z"/>
<path class="path-1" d="M189.661,260.745C196.202,258.763,201.211,264.970,201.569,269.551"/>
<path class="path-1" d="M201.569,269.551C202.502,277.574,195.895,287.804,192.695,295.392"/>
<path class="path-1" d="M192.695,295.392C184.857,313.658,176.492,331.699,171.100,350.284"/>
<path class="path-1" d="M171.100,350.284C170.411,353.542,165.212,374.660,165.272,372.012"/>
<path class="path-1" d="M165.272,372.012C164.792,378.629,171.298,384.406,173.511,390.081"/>
<path class="path-1" d="M173.511,390.081C176.341,397.734,173.435,404.905,171.497,411.854"/>
<path class="path-1" d="M171.497,411.854C167.037,426.186,167.441,431.483,167.674,445.475"/>
<path class="path-1" d="M167.674,445.475C167.814,447.692,168.199,454.911,164.727,455.302"/>
<path class="path-1" d="M164.727,455.302C161.315,455.687,160.320,449.541,159.423,447.206"/>
<path class="path-1" d="M159.423,447.206C158.852,444.572,156.057,439.069,156.594,436.696"/>
<path class="path-1" d="M156.594,436.696C156.699,432.723,161.263,433.663,156.199,425.481"/>
<path class="path-1" d="M156.199,425.481C149.732,415.252,138.404,406.628,135.640,393.264"/>
<path class="path-1" d="M135.640,393.264C133.835,382.622,139.564,373.405,142.907,363.573"/>
<path class="path-1" d="M142.907,363.573C150.022,342.449,157.903,321.350,167.017,300.675"/>
<path class="path-1" d="M167.017,300.675C171.972,289.956,174.412,280.557,180.951,269.743"/>
<path class="path-1" d="M180.951,269.743C182.579,267.193,185.775,261.923,189.661,260.745"/>
<path class="path-2" d="M189.661,260.745C196.202,258.763,201.211,264.970,201.569,269.551C202.502,277.574,195.895,287.804,192.695,295.392C184.857,313.658,176.492,331.699,171.100,350.284C170.411,353.542,165.212,374.660,165.272,372.012C164.792,378.629,171.298,384.406,173.511,390.081C176.341,397.734,173.435,404.905,171.497,411.854C167.037,426.186,167.441,431.483,167.674,445.475C167.814,447.692,168.199,454.911,164.727,455.302C161.315,455.687,160.320,449.541,159.423,447.206C158.852,444.572,156.057,439.069,156.594,436.696C156.699,432.723,161.263,433.663,156.199,425.481C149.732,415.252,138.404,406.628,135.640,393.264C133.835,382.622,139.564,373.405,142.907,363.573C150.022,342.449,157.903,321.350,167.017,300.675C171.972,289.956,174.412,280.557,180.951,269.743C182.579,267.193,185.775,261.923,189.661,260.745Z"/>
</g>
<g id="layer_left_leg">
<g id="left_heel">
<path class="path-0" d="M328.736,624.902C318.219,615.766,325.343,592.278,335.348,586.568C350.485,577.700,370.654,599.450,370.602,606.173C370.211,616.334,355.222,621.745,347.266,624.442C342.828,625.779,332.142,627.991,328.736,624.902M361.525,577.024C349.301,570.499,328.813,578.959,320.438,588.125C301.869,607.629,310.658,651.288,343.519,639.137C354.336,635.201,377.634,625.086,381.700,615.706C385.474,608.339,380.661,599.880,376.534,593.132C372.822,587.777,367.325,580.227,361.525,577.024Z"/>
<path class="path-3" d="M335.348,586.568C350.485,577.700,370.654,599.450,370.602,606.173"/>
<path class="path-3" d="M370.602,606.173C370.211,616.334,355.222,621.745,347.266,624.442"/>
<path class="path-3" d="M347.266,624.442C342.828,625.779,332.142,627.991,328.736,624.902"/>
<path class="path-3" d="M328.736,624.902C318.219,615.766,325.343,592.278,335.348,586.568"/>
<path class="path-4" d="M335.348,586.568C350.485,577.700,370.654,599.450,370.602,606.173C370.211,616.334,355.222,621.745,347.266,624.442C342.828,625.779,332.142,627.991,328.736,624.902C318.219,615.766,325.343,592.278,335.348,586.568Z"/>
</g>
<g id="left_leg">
<path class="path-0" d="M242.875,415.559C243.005,410.476,253.211,411.130,256.842,409.758C262.332,407.994,274.054,402.168,279.682,404.188C290.254,407.587,302.546,436.531,306.399,446.756C317.157,477.876,328.495,506.652,338.742,536.752C340.552,542.497,342.509,548.402,344.121,554.082C345.687,558.858,345.118,566.263,349.350,568.202C351.536,569.706,355.384,565.197,356.607,567.363C360.329,575.002,350.753,573.780,348.347,579.191C343.695,588.844,332.084,599.494,322.481,599.907C316.060,600.406,303.626,596.811,299.390,591.808C295.505,587.219,291.913,581.276,289.124,576.057C275.514,550.586,274.034,493.953,255.854,461.201C246.701,444.711,252.889,439.916,257.490,425.821C258.307,423.320,246.787,429.008,244.528,427.566C241.699,426.062,242.627,418.705,242.875,415.559M283.817,393.030C276.323,390.288,260.483,397.529,253.720,400.234C249.886,401.750,236.652,402.952,234.410,405.765C221.420,422.062,240.355,458.540,247.831,474.365C249.714,479.115,256.894,502.408,258.792,509.015C268.063,535.524,269.471,560.314,280.000,586.354C282.684,593.241,284.704,600.245,289.237,605.927C301.732,621.372,318.431,619.298,339.018,611.502C349.741,607.450,372.365,594.401,373.951,570.606C374.554,561.511,366.156,551.902,364.134,549.552C360.611,545.455,356.131,541.776,353.282,536.711C343.475,520.560,343.936,500.055,336.820,482.413C327.717,459.784,307.477,401.749,283.817,393.030Z"/>
<path class="path-7" d="M256.842,409.758C262.332,407.994,274.054,402.168,279.682,404.188"/>
<path class="path-7" d="M279.682,404.188C290.254,407.587,302.546,436.531,306.399,446.756"/>
<path class="path-7" d="M306.399,446.756C317.157,477.876,328.495,506.652,338.742,536.752"/>
<path class="path-7" d="M338.742,536.752C340.552,542.497,342.509,548.402,344.121,554.082"/>
<path class="path-7" d="M344.121,554.082C345.687,558.858,345.118,566.263,349.350,568.202"/>
<path class="path-7" d="M349.350,568.202C351.536,569.706,355.384,565.197,356.607,567.363"/>
<path class="path-7" d="M356.607,567.363C360.329,575.002,350.753,573.780,348.347,579.191"/>
<path class="path-7" d="M348.347,579.191C343.695,588.844,332.084,599.494,322.481,599.907"/>
<path class="path-7" d="M322.481,599.907C316.060,600.406,303.626,596.811,299.390,591.808"/>
<path class="path-7" d="M299.390,591.808C295.505,587.219,291.913,581.276,289.124,576.057"/>
<path class="path-7" d="M289.124,576.057C275.514,550.586,274.034,493.953,255.854,461.201"/>
<path class="path-7" d="M255.854,461.201C246.701,444.711,252.889,439.916,257.490,425.821"/>
<path class="path-7" d="M257.490,425.821C258.307,423.320,246.787,429.008,244.528,427.566"/>
<path class="path-7" d="M244.528,427.566C241.699,426.062,242.627,418.705,242.875,415.559"/>
<path class="path-7" d="M242.875,415.559C243.005,410.476,253.211,411.130,256.842,409.758"/>
<path class="path-8" d="M256.842,409.758C262.332,407.994,274.054,402.168,279.682,404.188C290.254,407.587,302.546,436.531,306.399,446.756C317.157,477.876,328.495,506.652,338.742,536.752C340.552,542.497,342.509,548.402,344.121,554.082C345.687,558.858,345.118,566.263,349.350,568.202C351.536,569.706,355.384,565.197,356.607,567.363C360.329,575.002,350.753,573.780,348.347,579.191C343.695,588.844,332.084,599.494,322.481,599.907C316.060,600.406,303.626,596.811,299.390,591.808C295.505,587.219,291.913,581.276,289.124,576.057C275.514,550.586,274.034,493.953,255.854,461.201C246.701,444.711,252.889,439.916,257.490,425.821C258.307,423.320,246.787,429.008,244.528,427.566C241.699,426.062,242.627,418.705,242.875,415.559C243.005,410.476,253.211,411.130,256.842,409.758Z"/>
</g>
<g id="left_toe">
<path class="path-0" d="M336.959,657.535C309.891,661.182,303.564,625.393,320.981,612.253C338.251,599.412,359.680,605.708,369.399,616.576C374.802,621.883,378.662,628.171,377.610,635.816C374.485,649.893,349.439,655.764,336.959,657.535M382.097,605.788C374.636,593.798,359.832,585.033,348.223,584.804C318.821,584.356,299.188,599.892,298.779,627.095C298.034,642.768,306.027,657.580,318.865,666.487C328.973,673.049,354.371,666.269,364.671,661.813C373.467,657.236,384.227,650.805,387.843,640.505C390.585,633.045,386.219,612.531,382.097,605.788Z"/>
<path class="path-3" d="M320.981,612.253C338.251,599.412,359.680,605.708,369.399,616.576"/>
<path class="path-3" d="M369.399,616.576C374.802,621.883,378.662,628.171,377.610,635.816"/>
<path class="path-3" d="M377.610,635.816C374.485,649.893,349.439,655.764,336.959,657.535"/>
<path class="path-3" d="M336.959,657.535C309.891,661.182,303.564,625.393,320.981,612.253"/>
<path class="path-4" d="M320.981,612.253C338.251,599.412,359.680,605.708,369.399,616.576C374.802,621.883,378.662,628.171,377.610,635.816C374.485,649.893,349.439,655.764,336.959,657.535C309.891,661.182,303.564,625.393,320.981,612.253Z"/>
</g>
<g id="left_sole">
<path class="path-0" d="M344.975,671.170C334.561,674.417,327.098,661.312,327.027,667.158C326.981,670.833,337.102,670.829,341.371,670.686C350.934,670.736,364.603,664.840,371.488,657.837C373.885,655.772,381.728,649.894,381.878,650.107C384.277,653.529,372.901,658.497,369.330,660.152C366.532,661.825,345.737,670.736,344.975,671.170M327.280,666.839C331.642,663.457,343.085,664.703,347.255,664.771C363.817,665.042,371.110,653.454,378.367,649.398C379.002,649.054,379.798,646.712,381.746,647.829C388.137,651.496,358.665,669.343,344.526,669.215C337.023,669.925,325.494,668.224,327.280,666.839M383.579,639.256C379.806,637.893,366.426,651.421,350.951,656.874C342.966,659.719,318.856,653.386,316.483,664.626C315.974,667.060,319.217,674.267,321.397,675.332C335.932,682.752,383.886,662.707,388.282,655.977C389.708,653.794,389.346,641.340,383.579,639.256Z"/>
<path class="path-5" d="M327.027,667.158C326.981,670.833,337.102,670.829,341.371,670.686"/>
<path class="path-5" d="M341.371,670.686C350.934,670.736,364.603,664.840,371.488,657.837"/>
<path class="path-5" d="M371.488,657.837C373.885,655.772,381.728,649.894,381.878,650.107"/>
<path class="path-5" d="M381.878,650.107C384.277,653.529,372.901,658.497,369.330,660.152"/>
<path class="path-5" d="M369.330,660.152C366.532,661.825,345.737,670.736,344.975,671.170"/>
<path class="path-5" d="M344.975,671.170C334.561,674.417,327.098,661.312,327.027,667.158"/>
<path class="path-6" d="M327.027,667.158C326.981,670.833,337.102,670.829,341.371,670.686C350.934,670.736,364.603,664.840,371.488,657.837C373.885,655.772,381.728,649.894,381.878,650.107C384.277,653.529,372.901,658.497,369.330,660.152C366.532,661.825,345.737,670.736,344.975,671.170C334.561,674.417,327.098,661.312,327.027,667.158Z"/>
<path class="path-5" d="M347.255,664.771C363.817,665.042,371.110,653.454,378.367,649.398"/>
<path class="path-5" d="M378.367,649.398C379.002,649.054,379.798,646.712,381.746,647.829"/>
<path class="path-5" d="M381.746,647.829C388.137,651.496,358.665,669.343,344.526,669.215"/>
<path class="path-5" d="M344.526,669.215C337.023,669.925,325.494,668.224,327.280,666.839"/>
<path class="path-5" d="M327.280,666.839C331.642,663.457,343.085,664.703,347.255,664.771"/>
<path class="path-6" d="M347.255,664.771C363.817,665.042,371.110,653.454,378.367,649.398C379.002,649.054,379.798,646.712,381.746,647.829C388.137,651.496,358.665,669.343,344.526,669.215C337.023,669.925,325.494,668.224,327.280,666.839C331.642,663.457,343.085,664.703,347.255,664.771Z"/>
</g>
</g>
<g id="layer_right_leg">
<g id="right_heel">
<path class="path-0" d="M194.295,621.729C194.154,605.517,194.516,592.894,214.313,588.875C223.122,586.923,240.242,588.723,245.659,596.934C248.496,601.007,248.080,607.252,248.604,611.750C249.523,619.077,254.956,632.996,244.568,635.338C243.905,635.555,225.336,636.977,219.544,637.471C212.192,638.783,204.516,639.796,198.843,635.045C195.885,632.023,194.251,625.544,194.295,621.729M255.069,594.685C250.519,584.646,235.884,579.655,225.909,581.689C212.887,584.183,199.185,580.699,191.388,593.334C185.310,603.182,185.631,620.607,188.311,631.519C189.378,636.564,193.200,645.656,197.655,648.223C200.916,650.010,205.732,649.159,209.443,648.944C227.536,648.185,260.173,652.327,258.151,625.719C257.553,618.841,257.462,600.015,255.069,594.685Z"/>
<path class="path-3" d="M214.313,588.875C223.122,586.923,240.242,588.723,245.659,596.934"/>
<path class="path-3" d="M245.659,596.934C248.496,601.007,248.080,607.252,248.604,611.750"/>
<path class="path-3" d="M248.604,611.750C249.523,619.077,254.956,632.996,244.568,635.338"/>
<path class="path-3" d="M244.568,635.338C243.905,635.555,225.336,636.977,219.544,637.471"/>
<path class="path-3" d="M219.544,637.471C212.192,638.783,204.516,639.796,198.843,635.045"/>
<path class="path-3" d="M198.843,635.045C195.885,632.023,194.251,625.544,194.295,621.729"/>
<path class="path-3" d="M194.295,621.729C194.154,605.517,194.516,592.894,214.313,588.875"/>
<path class="path-4" d="M214.313,588.875C223.122,586.923,240.242,588.723,245.659,596.934C248.496,601.007,248.080,607.252,248.604,611.750C249.523,619.077,254.956,632.996,244.568,635.338C243.905,635.555,225.336,636.977,219.544,637.471C212.192,638.783,204.516,639.796,198.843,635.045C195.885,632.023,194.251,625.544,194.295,621.729C194.154,605.517,194.516,592.894,214.313,588.875Z"/>
</g>
<g id="right_leg">
<path class="path-0" d="M180.692,409.203C183.630,397.270,199.132,393.557,209.821,395.828C215.735,396.961,225.652,399.209,229.168,404.452C230.673,406.695,231.475,410.984,230.200,413.357C227.959,417.525,212.599,415.606,215.513,419.455C220.608,426.401,230.229,416.545,234.717,420.124C236.714,421.716,237.101,425.179,237.657,428.054C242.980,449.506,237.391,473.012,238.509,494.406C238.800,501.324,237.749,511.607,239.322,517.836C242.660,533.222,240.941,536.590,241.840,545.887C241.955,549.364,241.157,567.068,242.573,571.524C244.162,576.201,247.857,580.576,248.582,585.479C249.807,593.751,238.012,605.274,230.549,607.884C222.013,610.683,195.280,610.286,186.951,606.322C183.735,604.904,179.705,601.278,178.273,597.830C176.733,594.623,174.330,579.333,175.193,575.580C176.960,569.050,179.410,567.618,181.118,559.886C182.806,550.783,184.428,540.941,183.475,531.513C181.239,513.086,180.554,483.458,182.011,470.104C182.644,462.581,179.565,437.529,180.233,430.560C181.445,419.040,179.324,416.939,180.692,409.203M204.389,384.514C198.623,382.879,193.965,377.849,188.125,380.203C186.350,381.095,183.302,383.529,182.089,384.904C166.984,399.412,169.045,412.970,170.199,432.274C170.320,439.203,170.816,446.390,170.540,453.044C170.198,458.580,168.614,463.183,167.562,468.294C166.982,472.489,166.546,476.972,166.607,482.209C166.796,487.357,168.490,493.324,169.079,502.054C169.026,511.833,170.239,521.001,170.301,530.348C170.559,536.715,168.251,551.604,167.629,556.490C165.746,563.454,162.977,571.544,161.732,578.243C160.614,587.094,162.517,596.311,166.403,603.858C168.226,607.913,171.403,612.692,174.726,615.268C176.894,616.947,179.723,617.834,182.246,618.543C190.576,620.836,198.411,621.707,207.131,621.472C213.005,621.358,218.693,619.382,224.800,619.564C225.813,619.441,234.152,620.858,235.799,620.898C238.756,620.802,242.766,617.980,245.366,616.266C248.808,613.721,255.095,612.672,257.759,609.190C259.913,606.370,260.340,602.588,261.328,599.189C266.845,579.150,260.562,568.633,257.016,550.820C255.044,540.914,251.464,520.510,250.958,509.345C250.064,495.834,251.958,482.616,251.935,468.660C252.017,464.260,252.096,458.985,252.567,453.991C252.949,448.989,251.652,445.028,251.150,440.112C250.534,436.327,250.083,424.105,249.249,420.051C248.651,416.427,248.410,411.873,246.857,408.345C242.636,399.378,228.060,390.034,218.579,387.629C213.829,386.262,208.828,386.228,204.389,384.514Z"/>
<path class="path-7" d="M209.821,395.828C215.735,396.961,225.652,399.209,229.168,404.452"/>
<path class="path-7" d="M229.168,404.452C230.673,406.695,231.475,410.984,230.200,413.357"/>
<path class="path-7" d="M230.200,413.357C227.959,417.525,212.599,415.606,215.513,419.455"/>
<path class="path-7" d="M215.513,419.455C220.608,426.401,230.229,416.545,234.717,420.124"/>
<path class="path-7" d="M234.717,420.124C236.714,421.716,237.101,425.179,237.657,428.054"/>
<path class="path-7" d="M237.657,428.054C242.980,449.506,237.391,473.012,238.509,494.406"/>
<path class="path-7" d="M238.509,494.406C238.800,501.324,237.749,511.607,239.322,517.836"/>
<path class="path-7" d="M239.322,517.836C242.660,533.222,240.941,536.590,241.840,545.887"/>
<path class="path-7" d="M241.840,545.887C241.955,549.364,241.157,567.068,242.573,571.524"/>
<path class="path-7" d="M242.573,571.524C244.162,576.201,247.857,580.576,248.582,585.479"/>
<path class="path-7" d="M248.582,585.479C249.807,593.751,238.012,605.274,230.549,607.884"/>
<path class="path-7" d="M230.549,607.884C222.013,610.683,195.280,610.286,186.951,606.322"/>
<path class="path-7" d="M186.951,606.322C183.735,604.904,179.705,601.278,178.273,597.830"/>
<path class="path-7" d="M178.273,597.830C176.733,594.623,174.330,579.333,175.193,575.580"/>
<path class="path-7" d="M175.193,575.580C176.960,569.050,179.410,567.618,181.118,559.886"/>
<path class="path-7" d="M181.118,559.886C182.806,550.783,184.428,540.941,183.475,531.513"/>
<path class="path-7" d="M183.475,531.513C181.239,513.086,180.554,483.458,182.011,470.104"/>
<path class="path-7" d="M182.011,470.104C182.644,462.581,179.565,437.529,180.233,430.560"/>
<path class="path-7" d="M180.233,430.560C181.445,419.040,179.324,416.939,180.692,409.203"/>
<path class="path-7" d="M180.692,409.203C183.630,397.270,199.132,393.557,209.821,395.828"/>
<path class="path-8" d="M209.821,395.828C215.735,396.961,225.652,399.209,229.168,404.452C230.673,406.695,231.475,410.984,230.200,413.357C227.959,417.525,212.599,415.606,215.513,419.455C220.608,426.401,230.229,416.545,234.717,420.124C236.714,421.716,237.101,425.179,237.657,428.054C242.980,449.506,237.391,473.012,238.509,494.406C238.800,501.324,237.749,511.607,239.322,517.836C242.660,533.222,240.941,536.590,241.840,545.887C241.955,549.364,241.157,567.068,242.573,571.524C244.162,576.201,247.857,580.576,248.582,585.479C249.807,593.751,238.012,605.274,230.549,607.884C222.013,610.683,195.280,610.286,186.951,606.322C183.735,604.904,179.705,601.278,178.273,597.830C176.733,594.623,174.330,579.333,175.193,575.580C176.960,569.050,179.410,567.618,181.118,559.886C182.806,550.783,184.428,540.941,183.475,531.513C181.239,513.086,180.554,483.458,182.011,470.104C182.644,462.581,179.565,437.529,180.233,430.560C181.445,419.040,179.324,416.939,180.692,409.203C183.630,397.270,199.132,393.557,209.821,395.828Z"/>
</g>
<g id="right_toe">
<path class="path-0" d="M178.565,645.090C179.136,631.800,183.395,614.477,199.544,611.237C203.251,610.293,208.642,611.744,212.859,612.343C234.413,615.352,242.981,619.600,244.977,641.189C245.404,647.126,246.757,654.446,242.550,659.472C238.364,664.384,217.120,663.008,210.698,663.659C199.364,665.055,189.893,670.997,181.421,661.657C176.343,655.940,178.270,652.190,178.565,645.090M252.147,618.028C244.259,604.558,211.076,598.178,196.520,601.706C174.804,607.096,168.755,624.555,168.446,643.057C168.286,649.660,167.859,656.929,171.515,662.561C172.825,664.576,175.500,667.222,177.342,668.790C191.263,681.677,200.772,679.415,218.512,678.261C227.902,677.806,243.465,676.107,250.632,669.474C255.986,664.034,256.211,658.423,256.037,651.271C255.620,644.396,255.299,622.953,252.147,618.028Z"/>
<path class="path-3" d="M199.544,611.237C203.251,610.293,208.642,611.744,212.859,612.343"/>
<path class="path-3" d="M212.859,612.343C234.413,615.352,242.981,619.600,244.977,641.189"/>
<path class="path-3" d="M244.977,641.189C245.404,647.126,246.757,654.446,242.550,659.472"/>
<path class="path-3" d="M242.550,659.472C238.364,664.384,217.120,663.008,210.698,663.659"/>
<path class="path-3" d="M210.698,663.659C199.364,665.055,189.893,670.997,181.421,661.657"/>
<path class="path-3" d="M181.421,661.657C176.343,655.940,178.270,652.190,178.565,645.090"/>
<path class="path-3" d="M178.565,645.090C179.136,631.800,183.395,614.477,199.544,611.237"/>
<path class="path-4" d="M199.544,611.237C203.251,610.293,208.642,611.744,212.859,612.343C234.413,615.352,242.981,619.600,244.977,641.189C245.404,647.126,246.757,654.446,242.550,659.472C238.364,664.384,217.120,663.008,210.698,663.659C199.364,665.055,189.893,670.997,181.421,661.657C176.343,655.940,178.270,652.190,178.565,645.090C179.136,631.800,183.395,614.477,199.544,611.237Z"/>
</g>
<g id="right_sole">
<path class="path-0" d="M199.041,676.176C200.591,676.433,215.975,675.290,217.723,675.184C219.123,675.121,227.562,674.710,228.751,674.562C229.494,674.486,236.934,673.715,237.532,674.134C236.973,673.717,229.068,675.629,228.598,675.672C227.671,675.788,201.411,677.176,201.108,677.302C199.920,677.401,188.627,677.161,187.848,676.216C189.077,675.712,197.236,675.875,199.041,676.176M238.322,668.080C238.391,668.352,236.884,670.130,236.464,670.158C235.625,670.216,222.437,672.451,221.315,672.283C220.060,672.314,211.311,673.495,210.181,673.550C207.935,673.660,189.906,674.005,187.914,672.998C187.689,672.830,186.905,671.756,186.931,671.601C186.979,671.320,194.066,671.222,195.156,671.123C196.867,670.969,210.767,669.599,212.523,669.463C214.425,669.316,229.451,668.628,231.392,668.353C231.696,668.317,238.147,667.411,238.322,668.080M243.733,662.654C232.255,660.166,223.650,665.138,213.398,666.070C205.976,666.777,191.606,666.047,182.647,668.312C181.213,668.674,178.425,668.625,178.069,670.131C177.626,672.027,181.498,675.834,183.897,677.201C186.869,678.895,192.831,678.584,195.216,678.802C207.336,680.349,222.518,678.322,234.799,677.083C243.859,676.174,245.910,672.462,246.576,668.101C246.853,666.285,247.323,663.384,243.733,662.654Z"/>
<path class="path-5" d="M199.041,676.176C200.591,676.433,215.975,675.290,217.723,675.184"/>
<path class="path-5" d="M217.723,675.184C219.123,675.121,227.562,674.710,228.751,674.562"/>
<path class="path-5" d="M228.751,674.562C229.494,674.486,236.934,673.715,237.532,674.134"/>
<path class="path-5" d="M237.532,674.134C236.973,673.717,229.068,675.629,228.598,675.672"/>
<path class="path-5" d="M228.598,675.672C227.671,675.788,201.411,677.176,201.108,677.302"/>
<path class="path-5" d="M201.108,677.302C199.920,677.401,188.627,677.161,187.848,676.216"/>
<path class="path-5" d="M187.848,676.216C189.077,675.712,197.236,675.875,199.041,676.176"/>
<path class="path-6" d="M199.041,676.176C200.591,676.433,215.975,675.290,217.723,675.184C219.123,675.121,227.562,674.710,228.751,674.562C229.494,674.486,236.934,673.715,237.532,674.134C236.973,673.717,229.068,675.629,228.598,675.672C227.671,675.788,201.411,677.176,201.108,677.302C199.920,677.401,188.627,677.161,187.848,676.216C189.077,675.712,197.236,675.875,199.041,676.176Z"/>
<path class="path-5" d="M195.156,671.123C196.867,670.969,210.767,669.599,212.523,669.463"/>
<path class="path-5" d="M212.523,669.463C214.425,669.316,229.451,668.628,231.392,668.353"/>
<path class="path-5" d="M231.392,668.353C231.696,668.317,238.147,667.411,238.322,668.080"/>
<path class="path-5" d="M238.322,668.080C238.391,668.352,236.884,670.130,236.464,670.158"/>
<path class="path-5" d="M236.464,670.158C235.625,670.216,222.437,672.451,221.315,672.283"/>
<path class="path-5" d="M221.315,672.283C220.060,672.314,211.311,673.495,210.181,673.550"/>
<path class="path-5" d="M210.181,673.550C207.935,673.660,189.906,674.005,187.914,672.998"/>
<path class="path-5" d="M187.914,672.998C187.689,672.830,186.905,671.756,186.931,671.601"/>
<path class="path-5" d="M186.931,671.601C186.979,671.320,194.066,671.222,195.156,671.123"/>
<path class="path-6" d="M195.156,671.123C196.867,670.969,210.767,669.599,212.523,669.463C214.425,669.316,229.451,668.628,231.392,668.353C231.696,668.317,238.147,667.411,238.322,668.080C238.391,668.352,236.884,670.130,236.464,670.158C235.625,670.216,222.437,672.451,221.315,672.283C220.060,672.314,211.311,673.495,210.181,673.550C207.935,673.660,189.906,674.005,187.914,672.998C187.689,672.830,186.905,671.756,186.931,671.601C186.979,671.320,194.066,671.222,195.156,671.123Z"/>
</g>
</g>
<g id="hat_brim">
<path class="path-0" d="M304.097,153.731C308.402,148.188,319.148,132.990,327.083,133.881C332.373,134.475,342.207,145.289,347.492,148.896C352.118,152.429,357.111,155.668,362.434,158.943C365.440,160.960,368.450,162.972,371.465,164.979C384.865,173.850,380.192,179.687,372.074,177.435C353.932,172.048,350.808,173.038,333.994,161.775C331.790,160.523,326.210,156.550,324.736,160.735C322.858,165.546,331.302,170.848,334.753,172.908C340.956,177.289,347.784,182.073,355.645,183.625C357.923,184.216,365.932,184.444,366.993,186.907C368.606,190.437,358.053,197.956,355.847,199.717C352.206,202.321,348.567,204.926,345.000,206.869C339.669,209.617,334.045,211.999,328.314,212.359C317.586,212.494,286.232,193.573,286.539,181.890C286.621,175.205,299.424,159.568,304.097,153.731M339.468,130.921C334.991,126.065,332.060,119.374,324.414,121.865C318.864,123.586,312.391,130.558,308.309,134.117C292.896,149.125,278.474,167.259,276.721,188.823C275.530,202.415,280.195,202.605,290.512,209.119C306.114,219.241,326.977,224.262,345.758,218.003C357.923,214.012,380.097,198.423,386.724,187.115C388.822,183.333,392.799,174.741,391.004,169.853C388.991,163.934,367.916,151.859,361.713,147.480C354.261,142.291,345.780,137.320,339.468,130.921Z"/>
<path class="path-9" d="M327.083,133.881C332.373,134.475,342.207,145.289,347.492,148.896"/>
<path class="path-9" d="M347.492,148.896C352.118,152.429,357.111,155.668,362.434,158.943"/>
<path class="path-9" d="M362.434,158.943C365.440,160.960,368.450,162.972,371.465,164.979"/>
<path class="path-9" d="M371.465,164.979C384.865,173.850,380.192,179.687,372.074,177.435"/>
<path class="path-9" d="M372.074,177.435C353.932,172.048,350.808,173.038,333.994,161.775"/>
<path class="path-9" d="M333.994,161.775C331.790,160.523,326.210,156.550,324.736,160.735"/>
<path class="path-9" d="M324.736,160.735C322.858,165.546,331.302,170.848,334.753,172.908"/>
<path class="path-9" d="M334.753,172.908C340.956,177.289,347.784,182.073,355.645,183.625"/>
<path class="path-9" d="M355.645,183.625C357.923,184.216,365.932,184.444,366.993,186.907"/>
<path class="path-9" d="M366.993,186.907C368.606,190.437,358.053,197.956,355.847,199.717"/>
<path class="path-9" d="M355.847,199.717C352.206,202.321,348.567,204.926,345.000,206.869"/>
<path class="path-9" d="M345.000,206.869C339.669,209.617,334.045,211.999,328.314,212.359"/>
<path class="path-9" d="M328.314,212.359C317.586,212.494,286.232,193.573,286.539,181.890"/>
<path class="path-9" d="M286.539,181.890C286.621,175.205,299.424,159.568,304.097,153.731"/>
<path class="path-9" d="M304.097,153.731C308.402,148.188,319.148,132.990,327.083,133.881"/>
<path class="path-10" d="M327.083,133.881C332.373,134.475,342.207,145.289,347.492,148.896C352.118,152.429,357.111,155.668,362.434,158.943C365.440,160.960,368.450,162.972,371.465,164.979C384.865,173.850,380.192,179.687,372.074,177.435C353.932,172.048,350.808,173.038,333.994,161.775C331.790,160.523,326.210,156.550,324.736,160.735C322.858,165.546,331.302,170.848,334.753,172.908C340.956,177.289,347.784,182.073,355.645,183.625C357.923,184.216,365.932,184.444,366.993,186.907C368.606,190.437,358.053,197.956,355.847,199.717C352.206,202.321,348.567,204.926,345.000,206.869C339.669,209.617,334.045,211.999,328.314,212.359C317.586,212.494,286.232,193.573,286.539,181.890C286.621,175.205,299.424,159.568,304.097,153.731C308.402,148.188,319.148,132.990,327.083,133.881Z"/>
</g>
<g id="hair">
<path class="path-0" d="M200.783,144.319C216.986,130.724,236.714,127.596,257.602,124.599C266.964,123.237,274.070,128.968,281.908,134.497C288.378,139.385,295.363,144.925,302.228,150.048C312.557,157.698,316.958,161.619,320.905,165.391C324.244,168.253,329.534,173.693,333.583,176.124C338.467,179.056,349.326,195.152,351.551,196.869C345.179,199.773,334.978,202.480,330.609,206.792C332.849,212.419,334.113,221.365,334.400,224.059C328.269,225.120,320.804,223.062,309.193,222.158C307.608,229.542,308.308,236.235,304.375,243.968C296.470,242.420,290.939,241.087,280.569,237.685C274.561,243.529,272.987,243.281,263.015,250.860C255.514,247.270,249.417,243.245,242.246,241.122C235.804,244.689,225.226,246.798,221.903,250.082C217.398,243.469,213.123,236.096,209.540,233.073C200.197,236.008,196.374,239.040,189.885,242.182C185.126,237.128,187.658,232.298,182.176,224.714C177.750,223.991,170.830,222.070,165.287,222.527C168.651,217.670,169.970,202.713,176.245,200.194C183.988,197.086,178.015,188.513,182.086,179.857C183.084,177.611,193.136,160.170,193.915,157.407C195.438,152.626,197.119,147.545,200.783,144.319M285.212,121.470C272.080,113.338,246.994,110.752,233.515,115.379C221.129,119.475,209.114,124.729,198.833,132.987C193.070,137.552,186.844,144.050,183.366,150.539C176.384,163.165,167.192,190.172,161.752,202.799C157.435,213.251,153.142,220.448,148.567,226.346C166.740,230.976,172.123,233.104,177.424,233.379C178.525,241.063,186.219,246.076,185.842,254.715C194.476,252.536,199.471,249.794,207.069,247.068C211.493,251.301,214.858,257.321,219.259,263.111C226.728,260.256,234.609,259.760,241.666,253.571C247.467,256.019,256.670,259.801,266.140,263.832C273.959,258.609,275.703,258.180,282.950,252.377C292.614,253.758,303.106,258.610,312.506,256.649C311.021,248.571,316.489,242.374,315.263,237.219C322.237,234.585,344.509,235.576,348.226,234.881C347.398,228.887,342.936,217.700,343.779,210.376C350.374,207.897,355.938,205.685,366.014,199.551C361.891,193.236,354.862,185.586,348.931,181.199C343.928,177.537,339.645,172.452,334.622,168.617C317.611,155.849,309.511,136.598,285.212,121.470Z"/>
<path class="path-11" d="M257.602,124.599C266.964,123.237,274.070,128.968,281.908,134.497"/>
<path class="path-11" d="M281.908,134.497C288.378,139.385,295.363,144.925,302.228,150.048"/>
<path class="path-11" d="M302.228,150.048C312.557,157.698,316.958,161.619,320.905,165.391"/>
<path class="path-11" d="M320.905,165.391C324.244,168.253,329.534,173.693,333.583,176.124"/>
<path class="path-11" d="M333.583,176.124C338.467,179.056,349.326,195.152,351.551,196.869"/>
<path class="path-11" d="M351.551,196.869C345.179,199.773,334.978,202.480,330.609,206.792"/>
<path class="path-11" d="M330.609,206.792C332.849,212.419,334.113,221.365,334.400,224.059"/>
<path class="path-11" d="M334.400,224.059C328.269,225.120,320.804,223.062,309.193,222.158"/>
<path class="path-11" d="M309.193,222.158C307.608,229.542,308.308,236.235,304.375,243.968"/>
<path class="path-11" d="M304.375,243.968C296.470,242.420,290.939,241.087,280.569,237.685"/>
<path class="path-11" d="M280.569,237.685C274.561,243.529,272.987,243.281,263.015,250.860"/>
<path class="path-11" d="M263.015,250.860C255.514,247.270,249.417,243.245,242.246,241.122"/>
<path class="path-11" d="M242.246,241.122C235.804,244.689,225.226,246.798,221.903,250.082"/>
<path class="path-11" d="M221.903,250.082C217.398,243.469,213.123,236.096,209.540,233.073"/>
<path class="path-11" d="M209.540,233.073C200.197,236.008,196.374,239.040,189.885,242.182"/>
<path class="path-11" d="M189.885,242.182C185.126,237.128,187.658,232.298,182.176,224.714"/>
<path class="path-11" d="M182.176,224.714C177.750,223.991,170.830,222.070,165.287,222.527"/>
<path class="path-11" d="M165.287,222.527C168.651,217.670,169.970,202.713,176.245,200.194"/>
<path class="path-11" d="M176.245,200.194C183.988,197.086,178.015,188.513,182.086,179.857"/>
<path class="path-11" d="M182.086,179.857C183.084,177.611,193.136,160.170,193.915,157.407"/>
<path class="path-11" d="M193.915,157.407C195.438,152.626,197.119,147.545,200.783,144.319"/>
<path class="path-11" d="M200.783,144.319C216.986,130.724,236.714,127.596,257.602,124.599"/>
<path class="path-12" d="M257.602,124.599C266.964,123.237,274.070,128.968,281.908,134.497C288.378,139.385,295.363,144.925,302.228,150.048C312.557,157.698,316.958,161.619,320.905,165.391C324.244,168.253,329.534,173.693,333.583,176.124C338.467,179.056,349.326,195.152,351.551,196.869C345.179,199.773,334.978,202.480,330.609,206.792C332.849,212.419,334.113,221.365,334.400,224.059C328.269,225.120,320.804,223.062,309.193,222.158C307.608,229.542,308.308,236.235,304.375,243.968C296.470,242.420,290.939,241.087,280.569,237.685C274.561,243.529,272.987,243.281,263.015,250.860C255.514,247.270,249.417,243.245,242.246,241.122C235.804,244.689,225.226,246.798,221.903,250.082C217.398,243.469,213.123,236.096,209.540,233.073C200.197,236.008,196.374,239.040,189.885,242.182C185.126,237.128,187.658,232.298,182.176,224.714C177.750,223.991,170.830,222.070,165.287,222.527C168.651,217.670,169.970,202.713,176.245,200.194C183.988,197.086,178.015,188.513,182.086,179.857C183.084,177.611,193.136,160.170,193.915,157.407C195.438,152.626,197.119,147.545,200.783,144.319C216.986,130.724,236.714,127.596,257.602,124.599Z"/>
</g>
<g id="clothes">
<path class="path-0" d="M246.057,369.598C240.869,367.499,221.070,367.902,217.535,372.508C215.292,375.620,218.533,377.428,221.859,377.717C225.834,378.062,246.799,378.223,249.595,376.614C254.032,373.991,248.214,370.363,246.057,369.598M201.739,265.666C205.653,253.375,233.421,242.727,246.184,244.739C255.160,246.127,282.467,262.457,285.794,271.144C288.583,278.091,287.565,302.870,287.163,311.238C286.148,326.508,285.605,341.855,285.203,357.153C285.462,369.155,294.161,382.690,288.084,393.043C285.618,396.207,275.918,396.156,271.565,396.881C265.771,398.130,254.672,402.634,249.221,402.357C226.371,401.820,228.524,403.590,207.125,402.338C203.022,401.940,189.765,400.050,187.277,398.005C181.669,392.200,185.385,383.689,187.386,376.179C191.539,362.803,193.420,353.425,195.815,338.765C198.296,322.923,201.648,306.009,202.987,289.489C203.137,283.564,200.811,269.222,201.739,265.666M281.525,253.586C265.947,242.620,250.536,233.387,230.419,237.546C225.032,238.460,197.598,249.289,195.053,252.432C191.103,257.399,193.507,277.550,192.966,284.720C192.650,293.292,192.156,302.191,190.767,310.343C189.879,316.596,188.022,322.090,187.473,328.039C186.531,334.619,185.986,341.777,184.311,347.749C179.543,364.302,165.491,396.874,184.798,409.580C189.336,412.589,196.134,412.677,201.864,413.166C211.774,413.820,222.406,414.796,232.450,413.918C244.811,413.182,256.784,409.094,269.314,408.805C275.771,408.657,295.571,416.324,300.559,411.670C303.021,409.474,304.183,394.927,303.882,391.212C302.165,377.943,296.145,365.359,295.045,352.023C294.393,340.061,294.966,328.301,296.710,316.098C297.927,306.114,300.423,296.572,301.232,286.215C301.236,281.812,302.267,276.482,300.244,271.924C296.842,263.589,288.541,258.515,281.525,253.586Z"/>
<path class="path-13" d="M246.057,369.598C240.869,367.499,221.070,367.902,217.535,372.508"/>
<path class="path-13" d="M217.535,372.508C215.292,375.620,218.533,377.428,221.859,377.717"/>
<path class="path-13" d="M221.859,377.717C225.834,378.062,246.799,378.223,249.595,376.614"/>
<path class="path-13" d="M249.595,376.614C254.032,373.991,248.214,370.363,246.057,369.598"/>
<path class="path-13" d="M201.739,265.666C205.653,253.375,233.421,242.727,246.184,244.739"/>
<path class="path-13" d="M246.184,244.739C255.160,246.127,282.467,262.457,285.794,271.144"/>
<path class="path-13" d="M285.794,271.144C288.583,278.091,287.565,302.870,287.163,311.238"/>
<path class="path-13" d="M287.163,311.238C286.148,326.508,285.605,341.855,285.203,357.153"/>
<path class="path-13" d="M285.203,357.153C285.462,369.155,294.161,382.690,288.084,393.043"/>
<path class="path-13" d="M288.084,393.043C285.618,396.207,275.918,396.156,271.565,396.881"/>
<path class="path-13" d="M271.565,396.881C265.771,398.130,254.672,402.634,249.221,402.357"/>
<path class="path-13" d="M249.221,402.357C226.371,401.820,228.524,403.590,207.125,402.338"/>
<path class="path-13" d="M207.125,402.338C203.022,401.940,189.765,400.050,187.277,398.005"/>
<path class="path-13" d="M187.277,398.005C181.669,392.200,185.385,383.689,187.386,376.179"/>
<path class="path-13" d="M187.386,376.179C191.539,362.803,193.420,353.425,195.815,338.765"/>
<path class="path-13" d="M195.815,338.765C198.296,322.923,201.648,306.009,202.987,289.489"/>
<path class="path-13" d="M202.987,289.489C203.137,283.564,200.811,269.222,201.739,265.666"/>
<path class="path-14" d="M246.057,369.598C240.869,367.499,221.070,367.902,217.535,372.508C215.292,375.620,218.533,377.428,221.859,377.717C225.834,378.062,246.799,378.223,249.595,376.614C254.032,373.991,248.214,370.363,246.057,369.598M201.739,265.666C205.653,253.375,233.421,242.727,246.184,244.739C255.160,246.127,282.467,262.457,285.794,271.144C288.583,278.091,287.565,302.870,287.163,311.238C286.148,326.508,285.605,341.855,285.203,357.153C285.462,369.155,294.161,382.690,288.084,393.043C285.618,396.207,275.918,396.156,271.565,396.881C265.771,398.130,254.672,402.634,249.221,402.357C226.371,401.820,228.524,403.590,207.125,402.338C203.022,401.940,189.765,400.050,187.277,398.005C181.669,392.200,185.385,383.689,187.386,376.179C191.539,362.803,193.420,353.425,195.815,338.765C198.296,322.923,201.648,306.009,202.987,289.489C203.137,283.564,200.811,269.222,201.739,265.666Z"/>
</g>
<g id="neck">
<path class="path-0" d="M241.504,225.303C242.189,222.029,243.500,219.158,247.174,219.216C258.964,218.471,253.972,255.746,243.387,254.614C233.462,253.553,240.170,231.516,241.504,225.303M248.165,209.955C245.555,209.341,242.507,209.683,240.049,210.759C230.290,214.398,230.693,223.142,229.773,231.742C228.981,236.008,228.888,240.013,226.514,243.439C224.507,246.571,219.520,249.382,219.130,253.023C218.400,262.982,245.196,265.850,252.178,266.261C254.824,266.544,263.649,268.492,265.031,264.960C265.137,263.968,259.761,251.680,259.264,246.944C257.773,232.731,269.231,213.213,248.165,209.955Z"/>
<path class="path-15" d="M247.174,219.216C258.964,218.471,253.972,255.746,243.387,254.614"/>
<path class="path-15" d="M243.387,254.614C233.462,253.553,240.170,231.516,241.504,225.303"/>
<path class="path-15" d="M241.504,225.303C242.189,222.029,243.500,219.158,247.174,219.216"/>
<path class="path-16" d="M247.174,219.216C258.964,218.471,253.972,255.746,243.387,254.614C233.462,253.553,240.170,231.516,241.504,225.303C242.189,222.029,243.500,219.158,247.174,219.216Z"/>
</g>
<g id="layer_head">
<g id="right_ear">
<path class="path-0" d="M171.908,183.321C167.774,182.968,159.051,156.074,163.742,157.605C169.506,159.486,171.063,170.475,172.181,174.958C172.776,176.975,175.565,183.634,171.908,183.321M166.955,143.569C165.427,142.257,163.606,140.695,161.691,141.317C152.301,142.782,154.432,157.222,156.265,166.596C158.553,177.657,164.638,191.936,173.505,197.554C174.841,198.410,177.123,201.082,178.791,200.925C184.810,199.983,180.457,189.772,179.375,185.116C177.806,177.630,171.629,149.220,166.955,143.569Z"/>
<path class="path-15" d="M163.742,157.605C169.506,159.486,171.063,170.475,172.181,174.958"/>
<path class="path-15" d="M172.181,174.958C172.776,176.975,175.565,183.634,171.908,183.321"/>
<path class="path-15" d="M171.908,183.321C167.774,182.968,159.051,156.074,163.742,157.605"/>
<path class="path-16" d="M163.742,157.605C169.506,159.486,171.063,170.475,172.181,174.958C172.776,176.975,175.565,183.634,171.908,183.321C167.774,182.968,159.051,156.074,163.742,157.605Z"/>
</g>
<g id="face_Mask">
<g id="face">
<path class="path-0" d="M174.643,100.345C184.243,90.909,217.609,87.426,231.386,86.964C246.818,86.688,262.096,90.748,276.454,97.047C281.559,99.295,289.277,101.816,293.160,106.288C299.188,113.285,300.510,124.821,300.632,133.693C300.843,139.039,300.629,145.913,299.022,150.706C288.593,181.802,280.239,196.529,272.520,204.595C259.299,218.410,238.014,222.132,219.073,222.978C200.558,223.540,192.307,219.660,176.073,210.607C173.220,209.021,166.943,205.651,165.196,203.060C158.883,193.310,164.225,181.678,163.099,170.610C161.963,162.067,156.954,149.744,156.261,141.328C155.516,130.122,166.751,108.034,174.643,100.345M298.009,99.109C286.000,85.305,250.113,78.605,232.294,79.264C223.916,79.320,215.906,79.083,208.079,80.207C202.269,81.227,197.008,83.312,191.529,84.370C179.472,87.368,174.851,85.401,165.869,95.224C159.440,102.085,147.575,130.613,147.334,139.853C147.269,147.454,153.917,165.108,153.916,173.957C153.860,183.519,147.412,196.549,150.817,205.121C153.999,212.804,161.561,216.832,171.914,222.174C179.867,226.278,188.780,230.061,197.861,231.632C202.554,232.444,207.954,234.377,218.194,233.363C238.506,231.094,259.824,226.315,275.776,211.434C290.355,197.834,310.105,179.495,315.291,149.148C318.620,129.674,304.435,106.335,298.009,99.109Z"/>
<path class="path-15" d="M231.386,86.964C246.818,86.688,262.096,90.748,276.454,97.047"/>
<path class="path-15" d="M276.454,97.047C281.559,99.295,289.277,101.816,293.160,106.288"/>
<path class="path-15" d="M293.160,106.288C299.188,113.285,300.510,124.821,300.632,133.693"/>
<path class="path-15" d="M300.632,133.693C300.843,139.039,300.629,145.913,299.022,150.706"/>
<path class="path-15" d="M299.022,150.706C288.593,181.802,280.239,196.529,272.520,204.595"/>
<path class="path-15" d="M272.520,204.595C259.299,218.410,238.014,222.132,219.073,222.978"/>
<path class="path-15" d="M219.073,222.978C200.558,223.540,192.307,219.660,176.073,210.607"/>
<path class="path-15" d="M176.073,210.607C173.220,209.021,166.943,205.651,165.196,203.060"/>
<path class="path-15" d="M165.196,203.060C158.883,193.310,164.225,181.678,163.099,170.610"/>
<path class="path-15" d="M163.099,170.610C161.963,162.067,156.954,149.744,156.261,141.328"/>
<path class="path-15" d="M156.261,141.328C155.516,130.122,166.751,108.034,174.643,100.345"/>
<path class="path-15" d="M174.643,100.345C184.243,90.909,217.609,87.426,231.386,86.964"/>
<path class="path-16" d="M231.386,86.964C246.818,86.688,262.096,90.748,276.454,97.047C281.559,99.295,289.277,101.816,293.160,106.288C299.188,113.285,300.510,124.821,300.632,133.693C300.843,139.039,300.629,145.913,299.022,150.706C288.593,181.802,280.239,196.529,272.520,204.595C259.299,218.410,238.014,222.132,219.073,222.978C200.558,223.540,192.307,219.660,176.073,210.607C173.220,209.021,166.943,205.651,165.196,203.060C158.883,193.310,164.225,181.678,163.099,170.610C161.963,162.067,156.954,149.744,156.261,141.328C155.516,130.122,166.751,108.034,174.643,100.345C184.243,90.909,217.609,87.426,231.386,86.964Z"/>
</g>
</g>
<mask id="mask_target" style="mask-type:alpha;">
<use xlink:href="#face_Mask"/>
</mask>
<g id="mouse">
<path class="path-0" d="M199.301,211.412C204.350,213.090,203.902,217.823,203.375,218.274C203.078,218.528,202.068,217.458,199.181,216.644C193.713,215.102,190.893,215.966,190.776,215.234C190.649,214.431,193.391,209.448,199.301,211.412Z"/>
</g>
<g id="layer_eyes_Mtarget" mask="url(#mask_target)">
<g id="eyes">
<mask style="mask-type:alpha;" id="f3906406-f197-4bf1-91d8-744c09cca836">
<use xlink:href="#cmn_f3906406-f197-4bf1-91d8-744c09cca836"/>
</mask>
<g id="cmn_f3906406-f197-4bf1-91d8-744c09cca836">
<path class="path-0" d="M150.153,177.131C151.040,179.534,152.952,184.164,153.497,183.844C152.662,184.348,150.206,181.416,149.679,179.794C149.412,179.029,150.430,175.255,149.762,175.993C149.670,176.095,150.113,177.023,150.153,177.131M160.109,181.506C160.032,180.188,160.464,176.213,158.893,174.997C157.978,174.289,156.180,174.666,155.036,174.931C152.195,175.524,142.178,167.693,141.657,163.845C141.562,163.148,143.529,159.965,144.175,159.701C154.713,155.401,135.833,176.566,144.001,190.171C144.884,191.642,153.927,190.679,153.214,191.272C152.911,191.523,160.273,184.328,160.109,181.506M188.038,190.784C183.305,189.702,175.993,186.560,177.177,179.089C177.607,176.376,191.777,176.070,195.584,175.200C199.475,174.311,212.799,170.785,214.734,171.101C215.990,171.393,216.462,175.266,215.946,178.437C215.171,183.197,195.872,192.575,188.038,190.784M222.796,183.797C225.618,179.380,226.531,165.155,225.129,164.130C220.885,161.027,206.941,166.529,199.235,168.067C193.207,169.270,183.363,173.239,179.335,172.956C176.178,172.847,173.550,171.982,172.073,173.595C170.538,175.271,171.528,178.977,172.125,181.170C173.097,184.742,174.870,189.310,178.588,191.683C185.711,196.404,198.771,194.463,206.869,193.404C209.074,193.111,219.808,188.473,222.796,183.797Z"/>
<path class="path-17" d="M214.734,171.101C215.990,171.393,216.462,175.266,215.946,178.437"/>
<path class="path-17" d="M215.946,178.437C215.171,183.197,195.872,192.575,188.038,190.784"/>
<path class="path-17" d="M188.038,190.784C183.305,189.702,175.993,186.560,177.177,179.089"/>
<path class="path-17" d="M177.177,179.089C177.607,176.376,191.777,176.070,195.584,175.200"/>
<path class="path-17" d="M195.584,175.200C199.475,174.311,212.799,170.785,214.734,171.101"/>
<path class="path-18" d="M214.734,171.101C215.990,171.393,216.462,175.266,215.946,178.437C215.171,183.197,195.872,192.575,188.038,190.784C183.305,189.702,175.993,186.560,177.177,179.089C177.607,176.376,191.777,176.070,195.584,175.200C199.475,174.311,212.799,170.785,214.734,171.101Z"/>
<path class="path-17" d="M149.762,175.993C149.670,176.095,150.113,177.023,150.153,177.131"/>
<path class="path-17" d="M150.153,177.131C151.040,179.534,152.952,184.164,153.497,183.844"/>
<path class="path-17" d="M153.497,183.844C152.662,184.348,150.206,181.416,149.679,179.794"/>
<path class="path-17" d="M149.679,179.794C149.412,179.029,150.430,175.255,149.762,175.993"/>
<path class="path-18" d="M149.762,175.993C149.670,176.095,150.113,177.023,150.153,177.131C151.040,179.534,152.952,184.164,153.497,183.844C152.662,184.348,150.206,181.416,149.679,179.794C149.412,179.029,150.430,175.255,149.762,175.993Z"/>
</g>
</g>
<g id="pupil">
<path class="path-0" d="M180.791,168.072C183.113,167.757,185.964,171.230,185.882,179.680C185.819,186.058,183.850,188.458,182.082,188.461C180.170,188.464,178.823,185.707,178.305,178.829C177.751,171.489,178.769,168.345,180.791,168.072Z" mask="url(#f3906406-f197-4bf1-91d8-744c09cca836)"/>
<path class="path-0" d="M151.698,167.164C154.152,166.989,157.355,170.947,156.448,180.071C155.920,185.377,154.026,187.058,152.595,187.081C150.993,187.105,149.104,185.112,148.366,179.188C147.337,170.934,149.471,167.324,151.698,167.164Z" mask="url(#f3906406-f197-4bf1-91d8-744c09cca836)"/>
</g>
</g>
<g id="hat">
<path class="path-0" d="M307.360,143.901C309.495,144.995,311.754,148.060,312.014,150.731C313.275,157.655,301.854,157.864,298.210,157.938C292.562,157.489,286.812,155.835,281.548,154.576C274.300,153.523,267.299,151.170,260.094,149.858C237.484,143.897,214.658,138.928,191.921,133.491C181.576,131.443,172.434,128.483,161.099,126.437C159.984,126.235,150.169,125.890,148.265,125.108C133.607,119.237,147.831,106.952,147.459,99.993C147.501,98.157,144.169,97.386,145.079,94.188C145.660,92.266,151.089,88.631,153.048,88.012C162.212,85.061,172.638,85.211,182.673,86.201C193.289,87.249,202.470,90.203,212.796,92.829C238.373,99.333,280.861,112.029,313.251,128.785C322.363,133.499,302.782,129.396,300.925,129.341C283.698,128.829,213.255,104.075,252.000,120.303C266.882,126.536,294.252,136.640,307.360,143.901M203.139,77.082C191.118,74.485,180.052,72.213,168.416,73.170C164.261,73.501,158.859,73.778,155.619,74.509C148.962,76.011,163.089,57.861,166.820,54.676C184.824,39.690,213.926,31.094,238.151,35.496C286.135,44.216,302.632,59.758,313.214,80.155C316.710,86.319,325.178,113.589,314.495,118.431C311.107,119.707,305.749,116.280,303.268,114.494C294.301,108.326,221.330,81.012,203.139,77.082M309.483,51.051C293.584,39.326,270.836,28.244,242.996,25.727C212.989,23.015,179.455,28.618,157.351,52.222C150.592,59.604,147.035,68.182,142.369,76.243C139.569,81.029,134.824,83.711,133.680,89.071C132.273,96.670,136.714,99.242,136.628,105.604C136.729,112.906,131.933,114.447,131.623,119.133C129.615,131.431,140.902,136.101,150.922,138.544C155.202,139.589,171.453,140.870,180.226,142.073C190.093,143.425,203.234,145.367,213.036,147.132C224.529,149.201,239.688,152.804,251.154,155.019C261.858,157.088,276.094,160.176,286.921,161.449C295.050,162.405,313.007,163.814,314.157,163.073C315.814,162.024,322.553,149.940,323.341,147.512C324.718,143.262,323.122,138.198,325.690,131.451C329.176,121.626,333.005,113.414,333.089,102.155C333.064,81.463,321.728,60.080,309.483,51.051Z"/>
<path class="path-19" d="M212.796,92.829C238.373,99.333,280.861,112.029,313.251,128.785"/>
<path class="path-19" d="M313.251,128.785C322.363,133.499,302.782,129.396,300.925,129.341"/>
<path class="path-19" d="M300.925,129.341C283.698,128.829,213.255,104.075,252.000,120.303"/>
<path class="path-19" d="M252.000,120.303C266.882,126.536,294.252,136.640,307.360,143.901"/>
<path class="path-19" d="M307.360,143.901C309.495,144.995,311.754,148.060,312.014,150.731"/>
<path class="path-19" d="M312.014,150.731C313.275,157.655,301.854,157.864,298.210,157.938"/>
<path class="path-19" d="M298.210,157.938C292.562,157.489,286.812,155.835,281.548,154.576"/>
<path class="path-19" d="M281.548,154.576C274.300,153.523,267.299,151.170,260.094,149.858"/>
<path class="path-19" d="M260.094,149.858C237.484,143.897,214.658,138.928,191.921,133.491"/>
<path class="path-19" d="M191.921,133.491C181.576,131.443,172.434,128.483,161.099,126.437"/>
<path class="path-19" d="M161.099,126.437C159.984,126.235,150.169,125.890,148.265,125.108"/>
<path class="path-19" d="M148.265,125.108C133.607,119.237,147.831,106.952,147.459,99.993"/>
<path class="path-19" d="M147.459,99.993C147.501,98.157,144.169,97.386,145.079,94.188"/>
<path class="path-19" d="M145.079,94.188C145.660,92.266,151.089,88.631,153.048,88.012"/>
<path class="path-19" d="M153.048,88.012C162.212,85.061,172.638,85.211,182.673,86.201"/>
<path class="path-19" d="M182.673,86.201C193.289,87.249,202.470,90.203,212.796,92.829"/>
<path class="path-20" d="M212.796,92.829C238.373,99.333,280.861,112.029,313.251,128.785C322.363,133.499,302.782,129.396,300.925,129.341C283.698,128.829,213.255,104.075,252.000,120.303C266.882,126.536,294.252,136.640,307.360,143.901C309.495,144.995,311.754,148.060,312.014,150.731C313.275,157.655,301.854,157.864,298.210,157.938C292.562,157.489,286.812,155.835,281.548,154.576C274.300,153.523,267.299,151.170,260.094,149.858C237.484,143.897,214.658,138.928,191.921,133.491C181.576,131.443,172.434,128.483,161.099,126.437C159.984,126.235,150.169,125.890,148.265,125.108C133.607,119.237,147.831,106.952,147.459,99.993C147.501,98.157,144.169,97.386,145.079,94.188C145.660,92.266,151.089,88.631,153.048,88.012C162.212,85.061,172.638,85.211,182.673,86.201C193.289,87.249,202.470,90.203,212.796,92.829Z"/>
<path class="path-9" d="M238.151,35.496C286.135,44.216,302.632,59.758,313.214,80.155"/>
<path class="path-9" d="M313.214,80.155C316.710,86.319,325.178,113.589,314.495,118.431"/>
<path class="path-9" d="M314.495,118.431C311.107,119.707,305.749,116.280,303.268,114.494"/>
<path class="path-9" d="M303.268,114.494C294.301,108.326,221.330,81.012,203.139,77.082"/>
<path class="path-9" d="M203.139,77.082C191.118,74.485,180.052,72.213,168.416,73.170"/>
<path class="path-9" d="M168.416,73.170C164.261,73.501,158.859,73.778,155.619,74.509"/>
<path class="path-9" d="M155.619,74.509C148.962,76.011,163.089,57.861,166.820,54.676"/>
<path class="path-9" d="M166.820,54.676C184.824,39.690,213.926,31.094,238.151,35.496"/>
<path class="path-10" d="M238.151,35.496C286.135,44.216,302.632,59.758,313.214,80.155C316.710,86.319,325.178,113.589,314.495,118.431C311.107,119.707,305.749,116.280,303.268,114.494C294.301,108.326,221.330,81.012,203.139,77.082C191.118,74.485,180.052,72.213,168.416,73.170C164.261,73.501,158.859,73.778,155.619,74.509C148.962,76.011,163.089,57.861,166.820,54.676C184.824,39.690,213.926,31.094,238.151,35.496Z"/>
</g>
<g id="left_ear">
<path class="path-0" d="M257.383,182.141C258.007,180.790,261.231,177.014,262.452,175.883C272.605,165.703,289.126,157.603,295.864,166.593C303.354,177.027,286.293,199.725,273.869,202.980C259.383,206.540,252.336,194.046,257.383,182.141M310.411,172.083C309.459,160.734,303.976,152.299,286.069,153.494C269.082,154.627,262.840,176.971,260.348,190.803C259.913,193.646,260.131,196.736,260.614,199.429C262.340,210.045,269.343,216.671,280.082,210.957C292.883,203.976,311.238,187.553,310.411,172.083Z"/>
<path class="path-15" d="M262.452,175.883C272.605,165.703,289.126,157.603,295.864,166.593"/>
<path class="path-15" d="M295.864,166.593C303.354,177.027,286.293,199.725,273.869,202.980"/>
<path class="path-15" d="M273.869,202.980C259.383,206.540,252.336,194.046,257.383,182.141"/>
<path class="path-15" d="M257.383,182.141C258.007,180.790,261.231,177.014,262.452,175.883"/>
<path class="path-16" d="M262.452,175.883C272.605,165.703,289.126,157.603,295.864,166.593C303.354,177.027,286.293,199.725,273.869,202.980C259.383,206.540,252.336,194.046,257.383,182.141C258.007,180.790,261.231,177.014,262.452,175.883Z"/>
</g>
<g id="earrings">
<path class="path-0" d="M284.322,214.855C274.948,218.528,275.845,200.794,278.999,201.353C283.333,203.238,293.426,217.504,284.322,214.855M295.079,208.678C288.453,208.517,286.214,199.255,286.026,195.427C293.332,197.730,302.213,204.100,295.079,208.678M306.041,206.462C304.364,198.114,292.622,192.210,285.145,188.045C282.292,186.455,272.846,196.087,272.164,199.454C270.725,203.395,271.305,225.472,285.323,224.006C291.168,223.132,307.388,213.171,306.041,206.462Z"/>
<path class="path-21" d="M286.026,195.427C293.332,197.730,302.213,204.100,295.079,208.678"/>
<path class="path-21" d="M295.079,208.678C288.453,208.517,286.214,199.255,286.026,195.427"/>
<path class="path-22" d="M286.026,195.427C293.332,197.730,302.213,204.100,295.079,208.678C288.453,208.517,286.214,199.255,286.026,195.427Z"/>
<path class="path-21" d="M278.999,201.353C283.333,203.238,293.426,217.504,284.322,214.855"/>
<path class="path-21" d="M284.322,214.855C274.948,218.528,275.845,200.794,278.999,201.353"/>
<path class="path-22" d="M278.999,201.353C283.333,203.238,293.426,217.504,284.322,214.855C274.948,218.528,275.845,200.794,278.999,201.353Z"/>
</g>
</g>
<g id="jacket">
<path class="path-0" d="M212.825,271.136C214.685,275.881,209.126,285.357,208.148,289.926C202.171,307.499,193.535,324.364,193.921,342.490C194.213,348.167,198.070,360.387,192.896,364.503C191.148,365.893,186.345,363.171,185.450,364.553C183.671,367.284,179.940,357.604,179.284,356.139C178.607,354.626,176.809,346.107,176.734,343.682C176.881,338.986,177.952,329.876,178.932,324.032C179.956,318.202,179.989,311.891,182.546,305.886C184.786,299.192,189.143,291.855,191.530,284.352C194.077,279.750,197.775,277.292,197.441,273.590C196.761,269.899,195.132,267.902,198.429,266.462C202.596,264.982,212.189,266.084,212.825,271.136M275.093,278.342C276.644,277.116,290.708,271.415,292.462,270.782C305.258,266.839,307.434,282.107,306.932,289.972C306.758,293.411,305.745,305.440,306.092,307.887C306.525,313.093,309.513,316.423,309.944,320.883C310.459,331.685,311.839,325.097,309.795,334.238C309.274,336.553,307.454,341.233,306.321,343.264C305.011,345.316,300.813,348.831,299.648,350.795C296.558,355.094,295.419,361.016,287.760,362.344C286.381,362.761,273.681,369.637,271.451,370.703C267.460,372.353,262.450,375.363,258.703,372.625C254.224,368.966,254.898,360.957,254.120,354.807C252.167,341.170,254.321,327.295,257.837,313.917C260.146,303.328,266.933,286.314,275.093,278.342M288.591,261.985C285.697,263.687,279.446,263.937,277.628,264.230C273.642,264.652,273.199,261.208,272.988,258.400C272.812,253.900,275.952,247.452,279.314,244.233C281.951,241.708,286.536,239.483,290.543,239.541C294.500,239.458,300.981,242.851,300.289,247.302C300.012,250.316,293.445,259.130,288.591,261.985M215.077,243.544C219.552,252.470,224.549,261.610,219.309,260.736C213.307,259.736,210.373,259.320,200.980,255.454C190.493,251.137,187.729,236.078,193.643,231.390C199.436,226.798,209.831,233.079,215.077,243.544M316.913,349.854C318.951,344.892,321.391,341.698,321.522,336.099C321.588,331.296,320.562,325.640,318.400,321.378C314.006,313.241,311.976,310.122,306.313,301.323C304.235,298.214,301.466,296.135,300.991,292.578C300.388,289.170,302.007,271.403,303.123,268.449C304.207,263.353,309.681,260.139,311.009,255.531C312.231,251.755,313.521,247.722,313.128,243.772C312.908,238.513,308.425,234.812,304.781,231.756C299.606,227.913,294.548,227.417,287.971,227.868C278.431,228.535,272.752,237.001,268.680,243.162C262.869,251.956,263.414,267.219,260.211,277.261C258.377,283.013,255.067,290.755,252.986,296.044C244.521,316.603,229.216,373.672,247.846,386.073C249.328,387.204,260.912,388.848,264.339,388.014C272.784,386.005,276.200,383.264,284.293,380.866C290.936,379.176,300.288,369.400,306.406,363.108C309.885,359.758,315.567,353.125,316.913,349.854M221.644,234.156C216.404,227.578,207.332,215.996,198.899,217.771C194.626,218.816,188.581,221.805,185.417,225.162C182.439,228.322,179.224,233.824,179.172,238.222C178.985,243.643,179.022,250.080,180.821,254.715C182.940,260.175,191.791,264.543,192.635,270.257C192.942,272.816,186.430,283.972,185.406,286.997C183.424,293.438,179.461,299.357,177.398,304.854C175.367,310.263,173.325,317.709,171.763,323.272C169.640,330.830,165.838,340.088,165.307,348.631C164.804,352.953,166.152,362.909,168.901,368.211C170.590,371.466,174.996,376.155,177.211,377.175C178.544,377.790,192.420,382.232,197.310,378.675C206.178,372.225,203.569,358.290,202.025,342.427C200.558,327.891,211.925,316.642,216.645,302.639C218.908,295.835,226.936,275.749,227.747,268.381C228.372,262.696,230.430,258.912,229.166,250.958C228.352,246.665,225.085,238.476,221.644,234.156Z"/>
<path class="path-1" d="M292.462,270.782C305.258,266.839,307.434,282.107,306.932,289.972"/>
<path class="path-1" d="M306.932,289.972C306.758,293.411,305.745,305.440,306.092,307.887"/>
<path class="path-1" d="M306.092,307.887C306.525,313.093,309.513,316.423,309.944,320.883"/>
<path class="path-1" d="M309.944,320.883C310.459,331.685,311.839,325.097,309.795,334.238"/>
<path class="path-1" d="M309.795,334.238C309.274,336.553,307.454,341.233,306.321,343.264"/>
<path class="path-1" d="M306.321,343.264C305.011,345.316,300.813,348.831,299.648,350.795"/>
<path class="path-1" d="M299.648,350.795C296.558,355.094,295.419,361.016,287.760,362.344"/>
<path class="path-1" d="M287.760,362.344C286.381,362.761,273.681,369.637,271.451,370.703"/>
<path class="path-1" d="M271.451,370.703C267.460,372.353,262.450,375.363,258.703,372.625"/>
<path class="path-1" d="M258.703,372.625C254.224,368.966,254.898,360.957,254.120,354.807"/>
<path class="path-1" d="M254.120,354.807C252.167,341.170,254.321,327.295,257.837,313.917"/>
<path class="path-1" d="M257.837,313.917C260.146,303.328,266.933,286.314,275.093,278.342"/>
<path class="path-1" d="M275.093,278.342C276.644,277.116,290.708,271.415,292.462,270.782"/>
<path class="path-2" d="M292.462,270.782C305.258,266.839,307.434,282.107,306.932,289.972C306.758,293.411,305.745,305.440,306.092,307.887C306.525,313.093,309.513,316.423,309.944,320.883C310.459,331.685,311.839,325.097,309.795,334.238C309.274,336.553,307.454,341.233,306.321,343.264C305.011,345.316,300.813,348.831,299.648,350.795C296.558,355.094,295.419,361.016,287.760,362.344C286.381,362.761,273.681,369.637,271.451,370.703C267.460,372.353,262.450,375.363,258.703,372.625C254.224,368.966,254.898,360.957,254.120,354.807C252.167,341.170,254.321,327.295,257.837,313.917C260.146,303.328,266.933,286.314,275.093,278.342C276.644,277.116,290.708,271.415,292.462,270.782Z"/>
<path class="path-1" d="M198.429,266.462C202.596,264.982,212.189,266.084,212.825,271.136"/>
<path class="path-1" d="M212.825,271.136C214.685,275.881,209.126,285.357,208.148,289.926"/>
<path class="path-1" d="M208.148,289.926C202.171,307.499,193.535,324.364,193.921,342.490"/>
<path class="path-1" d="M193.921,342.490C194.213,348.167,198.070,360.387,192.896,364.503"/>
<path class="path-1" d="M192.896,364.503C191.148,365.893,186.345,363.171,185.450,364.553"/>
<path class="path-1" d="M185.450,364.553C183.671,367.284,179.940,357.604,179.284,356.139"/>
<path class="path-1" d="M179.284,356.139C178.607,354.626,176.809,346.107,176.734,343.682"/>
<path class="path-1" d="M176.734,343.682C176.881,338.986,177.952,329.876,178.932,324.032"/>
<path class="path-1" d="M178.932,324.032C179.956,318.202,179.989,311.891,182.546,305.886"/>
<path class="path-1" d="M182.546,305.886C184.786,299.192,189.143,291.855,191.530,284.352"/>
<path class="path-1" d="M191.530,284.352C194.077,279.750,197.775,277.292,197.441,273.590"/>
<path class="path-1" d="M197.441,273.590C196.761,269.899,195.132,267.902,198.429,266.462"/>
<path class="path-2" d="M198.429,266.462C202.596,264.982,212.189,266.084,212.825,271.136C214.685,275.881,209.126,285.357,208.148,289.926C202.171,307.499,193.535,324.364,193.921,342.490C194.213,348.167,198.070,360.387,192.896,364.503C191.148,365.893,186.345,363.171,185.450,364.553C183.671,367.284,179.940,357.604,179.284,356.139C178.607,354.626,176.809,346.107,176.734,343.682C176.881,338.986,177.952,329.876,178.932,324.032C179.956,318.202,179.989,311.891,182.546,305.886C184.786,299.192,189.143,291.855,191.530,284.352C194.077,279.750,197.775,277.292,197.441,273.590C196.761,269.899,195.132,267.902,198.429,266.462Z"/>
<path class="path-1" d="M290.543,239.541C294.500,239.458,300.981,242.851,300.289,247.302"/>
<path class="path-1" d="M300.289,247.302C300.012,250.316,293.445,259.130,288.591,261.985"/>
<path class="path-1" d="M288.591,261.985C285.697,263.687,279.446,263.937,277.628,264.230"/>
<path class="path-1" d="M277.628,264.230C273.642,264.652,273.199,261.208,272.988,258.400"/>
<path class="path-1" d="M272.988,258.400C272.812,253.900,275.952,247.452,279.314,244.233"/>
<path class="path-1" d="M279.314,244.233C281.951,241.708,286.536,239.483,290.543,239.541"/>
<path class="path-2" d="M290.543,239.541C294.500,239.458,300.981,242.851,300.289,247.302C300.012,250.316,293.445,259.130,288.591,261.985C285.697,263.687,279.446,263.937,277.628,264.230C273.642,264.652,273.199,261.208,272.988,258.400C272.812,253.900,275.952,247.452,279.314,244.233C281.951,241.708,286.536,239.483,290.543,239.541Z"/>
<path class="path-1" d="M215.077,243.544C219.552,252.470,224.549,261.610,219.309,260.736"/>
<path class="path-1" d="M219.309,260.736C213.307,259.736,210.373,259.320,200.980,255.454"/>
<path class="path-1" d="M200.980,255.454C190.493,251.137,187.729,236.078,193.643,231.390"/>
<path class="path-1" d="M193.643,231.390C199.436,226.798,209.831,233.079,215.077,243.544"/>
<path class="path-2" d="M215.077,243.544C219.552,252.470,224.549,261.610,219.309,260.736C213.307,259.736,210.373,259.320,200.980,255.454C190.493,251.137,187.729,236.078,193.643,231.390C199.436,226.798,209.831,233.079,215.077,243.544Z"/>
</g>
<g id="left_arm">
<path class="path-0" d="M311.434,463.801C308.021,458.531,306.547,449.571,314.159,447.121C319.456,445.370,343.492,450.306,347.549,454.233C354.637,460.441,350.882,475.142,342.285,478.609C332.359,482.095,316.892,472.032,311.434,463.801M290.501,283.531C291.024,280.257,298.331,269.229,303.457,269.792C306.433,270.119,308.375,274.940,309.659,277.478C313.213,285.453,316.910,293.721,320.067,302.104C328.679,324.335,335.400,346.770,341.188,369.487C343.281,378.716,343.200,391.082,346.662,399.345C350.809,408.927,357.075,405.500,360.171,411.771C361.551,414.743,360.977,420.410,363.048,425.034C366.160,432.305,371.879,436.205,374.615,440.818C376.323,443.452,377.036,446.436,373.388,447.162C371.408,448.192,366.069,447.280,364.073,447.312C357.388,445.648,350.707,443.981,344.028,442.311C335.015,440.460,307.715,439.570,302.961,433.657C295.825,424.457,306.622,413.302,307.806,403.967C308.418,400.993,311.159,357.394,310.345,354.525C309.231,347.861,304.836,342.427,302.556,335.699C299.906,326.457,297.162,316.571,294.746,306.899C292.892,298.815,288.681,292.427,290.501,283.531M313.976,258.929C311.152,254.552,302.966,247.086,297.159,249.063C292.344,250.933,292.339,256.958,292.113,260.999C291.552,271.102,290.478,279.589,291.533,289.178C291.966,296.159,293.334,302.367,294.709,308.911C296.319,317.825,296.479,335.326,297.616,345.593C298.373,355.145,301.144,364.939,300.771,373.218C299.477,392.667,290.992,411.148,291.968,430.526C292.130,440.320,294.779,440.265,297.205,448.059C298.974,454.017,297.737,460.363,300.156,465.980C306.386,480.852,323.904,494.211,340.816,490.611C356.401,487.365,356.794,470.389,364.964,461.272C372.154,453.170,386.855,456.926,388.716,448.576C390.599,441.558,380.829,434.064,377.085,428.800C369.604,418.939,375.221,416.518,371.439,408.927C368.687,403.316,360.954,398.450,357.177,391.190C355.127,387.895,354.045,381.586,352.626,377.288C349.658,367.000,346.669,355.278,344.216,344.382C341.685,331.956,339.614,320.968,334.830,308.512C331.023,298.220,319.516,266.685,313.976,258.929Z"/>
<path class="path-1" d="M303.457,269.792C306.433,270.119,308.375,274.940,309.659,277.478"/>
<path class="path-1" d="M309.659,277.478C313.213,285.453,316.910,293.721,320.067,302.104"/>
<path class="path-1" d="M320.067,302.104C328.679,324.335,335.400,346.770,341.188,369.487"/>
<path class="path-1" d="M341.188,369.487C343.281,378.716,343.200,391.082,346.662,399.345"/>
<path class="path-1" d="M346.662,399.345C350.809,408.927,357.075,405.500,360.171,411.771"/>
<path class="path-1" d="M360.171,411.771C361.551,414.743,360.977,420.410,363.048,425.034"/>
<path class="path-1" d="M363.048,425.034C366.160,432.305,371.879,436.205,374.615,440.818"/>
<path class="path-1" d="M374.615,440.818C376.323,443.452,377.036,446.436,373.388,447.162"/>
<path class="path-1" d="M373.388,447.162C371.408,448.192,366.069,447.280,364.073,447.312"/>
<path class="path-1" d="M364.073,447.312C357.388,445.648,350.707,443.981,344.028,442.311"/>
<path class="path-1" d="M344.028,442.311C335.015,440.460,307.715,439.570,302.961,433.657"/>
<path class="path-1" d="M302.961,433.657C295.825,424.457,306.622,413.302,307.806,403.967"/>
<path class="path-1" d="M307.806,403.967C308.418,400.993,311.159,357.394,310.345,354.525"/>
<path class="path-1" d="M310.345,354.525C309.231,347.861,304.836,342.427,302.556,335.699"/>
<path class="path-1" d="M302.556,335.699C299.906,326.457,297.162,316.571,294.746,306.899"/>
<path class="path-1" d="M294.746,306.899C292.892,298.815,288.681,292.427,290.501,283.531"/>
<path class="path-1" d="M290.501,283.531C291.024,280.257,298.331,269.229,303.457,269.792"/>
<path class="path-2" d="M303.457,269.792C306.433,270.119,308.375,274.940,309.659,277.478C313.213,285.453,316.910,293.721,320.067,302.104C328.679,324.335,335.400,346.770,341.188,369.487C343.281,378.716,343.200,391.082,346.662,399.345C350.809,408.927,357.075,405.500,360.171,411.771C361.551,414.743,360.977,420.410,363.048,425.034C366.160,432.305,371.879,436.205,374.615,440.818C376.323,443.452,377.036,446.436,373.388,447.162C371.408,448.192,366.069,447.280,364.073,447.312C357.388,445.648,350.707,443.981,344.028,442.311C335.015,440.460,307.715,439.570,302.961,433.657C295.825,424.457,306.622,413.302,307.806,403.967C308.418,400.993,311.159,357.394,310.345,354.525C309.231,347.861,304.836,342.427,302.556,335.699C299.906,326.457,297.162,316.571,294.746,306.899C292.892,298.815,288.681,292.427,290.501,283.531C291.024,280.257,298.331,269.229,303.457,269.792Z"/>
<path class="path-15" d="M314.159,447.121C319.456,445.370,343.492,450.306,347.549,454.233"/>
<path class="path-15" d="M347.549,454.233C354.637,460.441,350.882,475.142,342.285,478.609"/>
<path class="path-15" d="M342.285,478.609C332.359,482.095,316.892,472.032,311.434,463.801"/>
<path class="path-15" d="M311.434,463.801C308.021,458.531,306.547,449.571,314.159,447.121"/>
<path class="path-16" d="M314.159,447.121C319.456,445.370,343.492,450.306,347.549,454.233C354.637,460.441,350.882,475.142,342.285,478.609C332.359,482.095,316.892,472.032,311.434,463.801C308.021,458.531,306.547,449.571,314.159,447.121Z"/>
</g>
<g id="bone">
<g id="bone_B20">
<path class="path-23" d="M245.510,135.879C244.846,123.920,244.183,111.961,243.520,100.002"/>
</g>
<g id="bone_">
<path class="path-23" d="M552.381,338.786C576.363,338.786,600.344,338.786,624.326,338.786"/>
</g>
<g id="bone_">
<path class="path-23" d="M496.479,337.308C480.499,319.925,464.520,302.541,448.540,285.158"/>
</g>
<g id="bone_">
<path class="path-23" d="M436.410,337.308C437.696,313.731,438.981,290.154,440.267,266.577"/>
</g>
<g id="bone_">
<path class="path-23" d="M604.616,215.385C584.493,227.738,564.370,240.092,544.248,252.445"/>
</g>
<g id="bone_">
<path class="path-23" d="M436.410,216.411C460.003,217.382,483.595,218.353,507.187,219.324"/>
</g>
<g id="bone_">
<path class="path-23" d="M551.282,215.385C551.282,191.773,551.282,168.161,551.282,144.549"/>
</g>
<g id="bone_">
<path class="path-23" d="M495.897,216.411C472.489,219.504,449.080,222.598,425.672,225.692"/>
</g>
<g id="bone_B18">
<path class="path-23" d="M213.562,389.290C211.430,421.203,209.298,453.116,207.167,485.029"/>
</g>
<g id="bone_B17">
<path class="path-23" d="M259.716,389.290C273.037,421.311,286.359,453.331,299.681,485.352"/>
</g>
<g id="bone_B16">
<path class="path-23" d="M246.929,161.461C253.761,185.467,260.592,209.474,267.424,233.481"/>
</g>
<g id="bone_B14">
<path class="path-23" d="M151.639,380.281C159.528,397.716,167.416,415.151,175.305,432.585"/>
</g>
<g id="bone_B13">
<path class="path-23" d="M186.200,271.963C174.680,308.069,163.159,344.175,151.639,380.281"/>
</g>
<g id="bone_B11">
<path class="path-23" d="M324.888,352.478C327.635,374.317,330.381,396.156,333.128,417.995"/>
</g>
<g id="bone_B9">
<path class="path-23" d="M299.610,263.427C308.036,293.111,316.462,322.795,324.888,352.478"/>
</g>
<g id="bone_B5">
<path class="path-23" d="M249.946,215.849C248.467,189.192,246.988,162.535,245.510,135.879"/>
</g>
<g id="bone_B4">
<path class="path-23" d="M243.433,257.443C245.604,243.578,247.775,229.713,249.946,215.849"/>
</g>
<g id="bone_B3">
<path class="path-23" d="M244.809,330.431C244.350,306.102,243.892,281.772,243.433,257.443"/>
</g>
<g id="bone_B2">
<path class="path-23" d="M236.126,389.290C239.020,369.671,241.914,350.051,244.809,330.431"/>
</g>
<g id="bone_B1">
<path class="path-23" d="M236.126,389.290C248.103,389.290,260.080,389.290,272.057,389.290"/>
</g>
</g>
</g>
<style>
.path-0{fill:#000000;fill-rule:evenodd;stroke:none;}
.path-1{fill:none;stroke:#a60d3f;stroke-width:1;stroke-linecap:butt;stroke-linejoin:round;}
.path-2{fill:#a60d3f;fill-rule:evenodd;stroke:none;}
.path-3{fill:none;stroke:#d88e4b;stroke-width:1;stroke-linecap:butt;stroke-linejoin:round;}
.path-4{fill:#d88e4b;fill-rule:evenodd;stroke:none;}
.path-5{fill:none;stroke:#6e2353;stroke-width:1;stroke-linecap:butt;stroke-linejoin:round;}
.path-6{fill:#6e2353;fill-rule:evenodd;stroke:none;}
.path-7{fill:none;stroke:#392966;stroke-width:1;stroke-linecap:butt;stroke-linejoin:round;}
.path-8{fill:#392966;fill-rule:evenodd;stroke:none;}
.path-9{fill:none;stroke:#cc9bc5;stroke-width:1;stroke-linecap:butt;stroke-linejoin:round;}
.path-10{fill:#cc9bc5;fill-rule:evenodd;stroke:none;}
.path-11{fill:none;stroke:#620527;stroke-width:1;stroke-linecap:butt;stroke-linejoin:round;}
.path-12{fill:#620527;fill-rule:evenodd;stroke:none;}
.path-13{fill:none;stroke:#6a3661;stroke-width:1;stroke-linecap:butt;stroke-linejoin:round;}
.path-14{fill:#6a3661;fill-rule:evenodd;stroke:none;}
.path-15{fill:none;stroke:#f8a087;stroke-width:1;stroke-linecap:butt;stroke-linejoin:round;}
.path-16{fill:#f8a087;fill-rule:evenodd;stroke:none;}
.path-17{fill:none;stroke:#ffffff;stroke-width:1;stroke-linecap:butt;stroke-linejoin:round;}
.path-18{fill:#ffffff;fill-rule:evenodd;stroke:none;}
.path-19{fill:none;stroke:#d89f4a;stroke-width:1;stroke-linecap:butt;stroke-linejoin:round;}
.path-20{fill:#d89f4a;fill-rule:evenodd;stroke:none;}
.path-21{fill:none;stroke:#fafd5b;stroke-width:1;stroke-linecap:butt;stroke-linejoin:round;}
.path-22{fill:#fafd5b;fill-rule:evenodd;stroke:none;}
.path-23{fill:none;stroke:#00ff00;stroke-width:8;stroke-linecap:round;stroke-linejoin:round;}
.path-24{fill:none;stroke:#000000;stroke-width:1;stroke-linecap:butt;stroke-linejoin:round;}
</style>
</svg>
