<svg version="1.1" id="Frame_170" xmlns="http://www.w3.org/2000/svg" xmlns:xlink="http://www.w3.org/1999/xlink" width="480px" height="720px">
<g id="main_bone">
<g id="right_arm">
<path class="path-0" d="M174.126,270.172C175.458,267.511,178.075,262.017,181.778,260.525C188.182,257.943,193.652,263.933,194.431,268.509C196.093,276.447,190.936,287.396,188.470,295.289C182.390,314.329,175.637,333.084,171.132,352.015C170.600,355.317,165.808,376.634,165.808,373.973C165.476,380.626,172.130,386.283,174.459,391.939C177.454,399.590,174.791,406.910,172.795,413.897C168.138,428.535,168.471,433.858,167.804,448.165C167.804,450.492,167.473,458.146,163.812,458.146C160.487,458.146,160.153,452.157,159.488,449.828C159.155,447.167,156.825,441.510,157.492,439.182C157.823,435.190,162.483,436.188,157.492,427.870C151.170,417.555,139.526,409.240,136.532,395.931C134.536,385.285,140.191,375.969,143.186,365.988C149.508,344.695,156.494,323.404,163.812,302.111C167.805,291.132,168.802,281.484,174.126,270.172M193.754,262.188C193.755,253.538,190.761,245.885,180.115,249.546C163.481,255.200,158.822,281.484,154.165,296.122C147.512,316.084,141.855,336.046,136.199,356.007C133.870,364.657,130.544,368.982,129.212,373.973C127.549,379.628,127.881,388.280,128.214,393.935C128.214,411.567,133.869,412.234,140.856,425.874C144.517,433.859,140.525,438.849,142.852,445.835C144.517,450.492,148.176,453.820,150.837,457.813C153.166,461.805,153.499,464.135,155.162,467.793C157.158,472.119,163.481,481.767,169.136,479.771C173.793,478.108,173.793,469.790,174.126,465.797C174.459,459.809,178.119,436.853,179.450,429.866C181.778,418.554,187.435,406.245,185.770,393.935C184.440,384.619,176.122,377.965,176.456,367.985C176.787,362.661,180.115,354.011,181.113,348.023C182.776,338.375,182.776,328.061,184.772,318.081C188.099,300.448,194.421,280.487,193.754,262.188Z"/>
<path class="path-1" d="M181.778,260.525C188.182,257.943,193.652,263.933,194.431,268.509"/>
<path class="path-1" d="M194.431,268.509C196.093,276.447,190.936,287.396,188.470,295.289"/>
<path class="path-1" d="M188.470,295.289C182.390,314.329,175.637,333.084,171.132,352.015"/>
<path class="path-1" d="M171.132,352.015C170.600,355.317,165.808,376.634,165.808,373.973"/>
<path class="path-1" d="M165.808,373.973C165.476,380.626,172.130,386.283,174.459,391.939"/>
<path class="path-1" d="M174.459,391.939C177.454,399.590,174.791,406.910,172.795,413.897"/>
<path class="path-1" d="M172.795,413.897C168.138,428.535,168.471,433.858,167.804,448.165"/>
<path class="path-1" d="M167.804,448.165C167.804,450.492,167.473,458.146,163.812,458.146"/>
<path class="path-1" d="M163.812,458.146C160.487,458.146,160.153,452.157,159.488,449.828"/>
<path class="path-1" d="M159.488,449.828C159.155,447.167,156.825,441.510,157.492,439.182"/>
<path class="path-1" d="M157.492,439.182C157.823,435.190,162.483,436.188,157.492,427.870"/>
<path class="path-1" d="M157.492,427.870C151.170,417.555,139.526,409.240,136.532,395.931"/>
<path class="path-1" d="M136.532,395.931C134.536,385.285,140.191,375.969,143.186,365.988"/>
<path class="path-1" d="M143.186,365.988C149.508,344.695,156.494,323.404,163.812,302.111"/>
<path class="path-1" d="M163.812,302.111C167.805,291.132,168.802,281.484,174.126,270.172"/>
<path class="path-1" d="M174.126,270.172C175.458,267.511,178.075,262.017,181.778,260.525"/>
<path class="path-2" d="M181.778,260.525C188.182,257.943,193.652,263.933,194.431,268.509C196.093,276.447,190.936,287.396,188.470,295.289C182.390,314.329,175.637,333.084,171.132,352.015C170.600,355.317,165.808,376.634,165.808,373.973C165.476,380.626,172.130,386.283,174.459,391.939C177.454,399.590,174.791,406.910,172.795,413.897C168.138,428.535,168.471,433.858,167.804,448.165C167.804,450.492,167.473,458.146,163.812,458.146C160.487,458.146,160.153,452.157,159.488,449.828C159.155,447.167,156.825,441.510,157.492,439.182C157.823,435.190,162.483,436.188,157.492,427.870C151.170,417.555,139.526,409.240,136.532,395.931C134.536,385.285,140.191,375.969,143.186,365.988C149.508,344.695,156.494,323.404,163.812,302.111C167.805,291.132,168.802,281.484,174.126,270.172C175.458,267.511,178.075,262.017,181.778,260.525Z"/>
</g>
<g id="layer_left_leg">
<g id="left_heel">
<path class="path-0" d="M255.863,629.503C248.837,617.906,262.746,598.734,274.076,596.462C291.516,592.777,304.538,618.582,302.370,624.835C298.748,634.308,282.210,634.573,273.566,634.622C268.939,634.496,258.092,633.358,255.863,629.503M302.352,595.345C292.476,585.663,269.891,587.482,258.958,593.734C236.005,606.285,231.100,648.260,264.958,647.217C276.725,646.910,302.686,644.600,309.665,637.394C315.794,631.793,313.859,622.314,311.990,614.779C310.083,608.669,306.995,600.029,302.352,595.345Z"/>
<path class="path-3" d="M274.076,596.462C291.516,592.777,304.538,618.582,302.370,624.835"/>
<path class="path-3" d="M302.370,624.835C298.748,634.308,282.210,634.573,273.566,634.622"/>
<path class="path-3" d="M273.566,634.622C268.939,634.496,258.092,633.358,255.863,629.503"/>
<path class="path-3" d="M255.863,629.503C248.837,617.906,262.746,598.734,274.076,596.462"/>
<path class="path-4" d="M274.076,596.462C291.516,592.777,304.538,618.582,302.370,624.835C298.748,634.308,282.210,634.573,273.566,634.622C268.939,634.496,258.092,633.358,255.863,629.503C248.837,617.906,262.746,598.734,274.076,596.462Z"/>
</g>
<g id="left_leg">
<path class="path-0" d="M238.898,405.789C240.604,401.168,250.098,404.782,253.973,404.581C259.846,404.560,273.072,402.463,277.855,406.066C286.438,412.094,288.468,441.114,288.878,451.196C289.253,482.567,291.161,511.970,291.981,542.254C292.003,548.971,291.927,555.907,292.115,562.490C292.482,567.717,291.226,574.318,294.519,578.000C295.754,579.993,300.303,579.061,300.283,581.235C299.673,589.763,291.983,584.925,287.683,589.227C279.968,596.485,265.807,603.323,256.535,600.760C250.125,599.217,239.383,591.674,236.984,585.628C234.661,579.773,233.158,572.679,232.143,566.585C227.573,539.163,243.283,481.235,236.969,451.564C232.953,432.690,241.791,431.824,248.859,418.713C250.003,416.592,238.379,419.085,236.730,417.280C234.439,415.143,237.683,408.599,238.898,405.789M285.012,397.243C278.729,392.462,261.295,394.525,253.973,394.933C249.979,395.140,237.470,392.116,234.523,393.929C216.631,404.938,223.696,444.839,225.629,461.859C225.851,466.629,224.622,489.393,224.263,495.811C224.344,523.391,218.272,546.960,219.962,574.488C220.334,582.232,219.857,589.902,222.605,597.038C229.867,615.502,247.075,618.660,269.824,617.268C281.803,616.546,308.080,611.256,316.566,588.699C319.998,579.564,314.308,567.288,312.915,564.291C310.673,559.466,307.335,554.784,306.068,549.225C301.411,531.621,307.936,512.846,306.613,494.578C304.946,471.253,304.626,412.235,285.012,397.243Z"/>
<path class="path-7" d="M253.973,404.581C259.846,404.560,273.072,402.463,277.855,406.066"/>
<path class="path-7" d="M277.855,406.066C286.438,412.094,288.468,441.114,288.878,451.196"/>
<path class="path-7" d="M288.878,451.196C289.253,482.567,291.161,511.970,291.981,542.254"/>
<path class="path-7" d="M291.981,542.254C292.003,548.971,291.927,555.907,292.115,562.490"/>
<path class="path-7" d="M292.115,562.490C292.482,567.717,291.226,574.318,294.519,578.000"/>
<path class="path-7" d="M294.519,578.000C295.754,579.993,300.303,579.061,300.283,581.235"/>
<path class="path-7" d="M300.283,581.235C299.673,589.763,291.983,584.925,287.683,589.227"/>
<path class="path-7" d="M287.683,589.227C279.968,596.485,265.807,603.323,256.535,600.760"/>
<path class="path-7" d="M256.535,600.760C250.125,599.217,239.383,591.674,236.984,585.628"/>
<path class="path-7" d="M236.984,585.628C234.661,579.773,233.158,572.679,232.143,566.585"/>
<path class="path-7" d="M232.143,566.585C227.573,539.163,243.283,481.235,236.969,451.564"/>
<path class="path-7" d="M236.969,451.564C232.953,432.690,241.791,431.824,248.859,418.713"/>
<path class="path-7" d="M248.859,418.713C250.003,416.592,238.379,419.085,236.730,417.280"/>
<path class="path-7" d="M236.730,417.280C234.439,415.143,237.683,408.599,238.898,405.789"/>
<path class="path-7" d="M238.898,405.789C240.604,401.168,250.098,404.782,253.973,404.581"/>
<path class="path-8" d="M253.973,404.581C259.846,404.560,273.072,402.463,277.855,406.066C286.438,412.094,288.468,441.114,288.878,451.196C289.253,482.567,291.161,511.970,291.981,542.254C292.003,548.971,291.927,555.907,292.115,562.490C292.482,567.717,291.226,574.318,294.519,578.000C295.754,579.993,300.303,579.061,300.283,581.235C299.673,589.763,291.983,584.925,287.683,589.227C279.968,596.485,265.807,603.323,256.535,600.760C250.125,599.217,239.383,591.674,236.984,585.628C234.661,579.773,233.158,572.679,232.143,566.585C227.573,539.163,243.283,481.235,236.969,451.564C232.953,432.690,241.791,431.824,248.859,418.713C250.003,416.592,238.379,419.085,236.730,417.280C234.439,415.143,237.683,408.599,238.898,405.789C240.604,401.168,250.098,404.782,253.973,404.581Z"/>
</g>
<g id="left_toe">
<path class="path-0" d="M252.012,659.246C225.303,654.292,230.689,619.498,250.891,612.621C271.897,605.608,291.492,617.490,297.503,630.252C301.244,637.032,302.895,644.400,299.258,651.439C291.498,663.820,264.878,661.550,252.012,659.246M313.517,625.558C310.278,611.451,298.691,598.593,287.123,594.783C259.115,585.677,234.442,593.346,225.243,618.683C219.419,633.201,222.671,649.611,232.390,661.868C240.061,670.946,266.579,672.202,277.892,671.207C287.919,669.624,300.425,666.967,307.367,658.500C312.330,652.626,315.151,632.896,313.517,625.558Z"/>
<path class="path-3" d="M250.891,612.621C271.897,605.608,291.492,617.490,297.503,630.252"/>
<path class="path-3" d="M297.503,630.252C301.244,637.032,302.895,644.400,299.258,651.439"/>
<path class="path-3" d="M299.258,651.439C291.498,663.820,264.878,661.550,252.012,659.246"/>
<path class="path-3" d="M252.012,659.246C225.303,654.292,230.689,619.498,250.891,612.621"/>
<path class="path-4" d="M250.891,612.621C271.897,605.608,291.492,617.490,297.503,630.252C301.244,637.032,302.895,644.400,299.258,651.439C291.498,663.820,264.878,661.550,252.012,659.246C225.303,654.292,230.689,619.498,250.891,612.621Z"/>
</g>
<g id="left_sole">
<path class="path-0" d="M255.898,674.297C244.934,673.905,241.625,659.915,240.224,665.056C239.327,668.348,248.312,671.444,252.401,672.604C261.404,675.506,276.782,674.146,285.791,669.823C288.728,668.693,298.140,665.928,298.163,666.178C298.533,670.261,287.623,670.649,283.968,671.087C280.496,671.853,256.808,674.121,255.898,674.297M240.542,665.390C245.981,663.450,256.994,667.609,261.172,668.736C277.815,673.226,287.488,663.947,295.519,663.519C296.299,663.486,298.952,661.813,299.372,663.978C300.818,671.435,269.592,676.824,254.964,672.141C248.007,670.594,238.572,666.092,240.542,665.390M304.176,656.718C300.962,653.891,283.284,661.328,265.945,661.623C257.482,661.792,236.349,650.192,230.715,659.861C229.534,661.899,230.242,669.256,231.948,670.812C243.374,681.557,296.937,678.115,303.126,673.075C305.188,671.396,308.276,660.324,304.176,656.718Z"/>
<path class="path-5" d="M240.224,665.056C239.327,668.348,248.312,671.444,252.401,672.604"/>
<path class="path-5" d="M252.401,672.604C261.404,675.506,276.782,674.146,285.791,669.823"/>
<path class="path-5" d="M285.791,669.823C288.728,668.693,298.140,665.928,298.163,666.178"/>
<path class="path-5" d="M298.163,666.178C298.533,670.261,287.623,670.649,283.968,671.087"/>
<path class="path-5" d="M283.968,671.087C280.496,671.853,256.808,674.121,255.898,674.297"/>
<path class="path-5" d="M255.898,674.297C244.934,673.905,241.625,659.915,240.224,665.056"/>
<path class="path-6" d="M240.224,665.056C239.327,668.348,248.312,671.444,252.401,672.604C261.404,675.506,276.782,674.146,285.791,669.823C288.728,668.693,298.140,665.928,298.163,666.178C298.533,670.261,287.623,670.649,283.968,671.087C280.496,671.853,256.808,674.121,255.898,674.297C244.934,673.905,241.625,659.915,240.224,665.056Z"/>
<path class="path-5" d="M261.172,668.736C277.815,673.226,287.488,663.947,295.519,663.519"/>
<path class="path-5" d="M295.519,663.519C296.299,663.486,298.952,661.813,299.372,663.978"/>
<path class="path-5" d="M299.372,663.978C300.818,671.435,269.592,676.824,254.964,672.141"/>
<path class="path-5" d="M254.964,672.141C248.007,670.594,238.572,666.092,240.542,665.390"/>
<path class="path-5" d="M240.542,665.390C245.981,663.450,256.994,667.609,261.172,668.736"/>
<path class="path-6" d="M261.172,668.736C277.815,673.226,287.488,663.947,295.519,663.519C296.299,663.486,298.952,661.813,299.372,663.978C300.818,671.435,269.592,676.824,254.964,672.141C248.007,670.594,238.572,666.092,240.542,665.390C245.981,663.450,256.994,667.609,261.172,668.736Z"/>
</g>
</g>
<g id="layer_right_leg">
<g id="right_heel">
<path class="path-0" d="M184.084,613.989C184.877,597.795,186.068,585.238,205.825,582.369C214.660,580.923,231.496,583.709,236.360,592.251C238.911,596.482,238.132,602.692,238.372,607.213C238.825,614.565,243.279,628.767,232.914,630.459C232.251,630.634,213.963,630.895,208.255,631.028C200.831,631.891,193.118,632.413,187.754,627.269C185.079,624.138,183.827,617.723,184.084,613.989M245.838,590.558C241.938,580.219,227.708,574.407,217.702,575.876C204.713,577.622,191.414,573.318,182.953,585.476C176.424,594.857,175.641,612.094,177.588,623.038C178.327,628.137,181.543,637.436,185.778,640.260C188.884,642.235,193.683,641.664,197.354,641.671C215.297,641.986,247.375,648.117,246.987,621.344C246.816,614.525,247.851,595.952,245.838,590.558Z"/>
<path class="path-3" d="M205.825,582.369C214.660,580.923,231.496,583.709,236.360,592.251"/>
<path class="path-3" d="M236.360,592.251C238.911,596.482,238.132,602.692,238.372,607.213"/>
<path class="path-3" d="M238.372,607.213C238.825,614.565,243.279,628.767,232.914,630.459"/>
<path class="path-3" d="M232.914,630.459C232.251,630.634,213.963,630.895,208.255,631.028"/>
<path class="path-3" d="M208.255,631.028C200.831,631.891,193.118,632.413,187.754,627.269"/>
<path class="path-3" d="M187.754,627.269C185.079,624.138,183.827,617.723,184.084,613.989"/>
<path class="path-3" d="M184.084,613.989C184.877,597.795,186.068,585.238,205.825,582.369"/>
<path class="path-4" d="M205.825,582.369C214.660,580.923,231.496,583.709,236.360,592.251C238.911,596.482,238.132,602.692,238.372,607.213C238.825,614.565,243.279,628.767,232.914,630.459C232.251,630.634,213.963,630.895,208.255,631.028C200.831,631.891,193.118,632.413,187.754,627.269C185.079,624.138,183.827,617.723,184.084,613.989C184.877,597.795,186.068,585.238,205.825,582.369Z"/>
</g>
<g id="right_leg">
<path class="path-0" d="M183.149,404.665C186.699,392.867,202.357,390.158,212.784,393.055C218.612,394.546,228.304,397.413,231.565,402.871C233.182,405.579,233.805,410.629,232.233,413.364C229.773,417.644,213.743,416.045,217.084,419.793C222.704,426.269,231.893,416.395,236.286,420.123C238.361,421.884,238.458,425.706,238.843,428.827C242.627,450.352,235.891,473.223,235.323,494.418C235.071,501.267,232.988,511.329,234.072,517.587C236.287,533.529,234.636,536.835,234.977,546.383C234.882,549.904,233.034,567.733,234.099,572.339C235.265,576.966,238.110,581.534,238.582,586.306C239.383,594.412,228.567,605.811,221.353,608.272C213.540,610.765,189.125,609.701,181.678,605.771C178.366,604.145,174.444,600.013,173.063,596.308C171.708,593.196,169.365,578.596,170.223,575.014C172.008,568.629,174.338,567.254,176.280,559.738C178.236,550.957,180.727,541.522,180.125,532.335C178.485,512.726,179.110,482.605,181.266,468.897C182.334,460.828,180.648,433.699,181.732,426.230C183.520,414.647,181.363,412.408,183.149,404.665M208.062,381.294C202.406,379.297,198.065,373.927,192.092,375.969C190.314,376.747,187.208,378.967,185.944,380.250C169.994,393.986,171.174,407.782,171.132,427.326C170.822,434.375,170.700,441.692,170.200,448.453C169.674,454.034,168.288,458.707,167.119,463.847C166.435,468.121,165.770,472.673,165.607,478.023C165.573,483.769,167.181,490.498,167.352,500.256C166.794,510.508,167.461,520.181,167.021,529.984C166.952,536.007,164.212,549.977,163.352,554.552C161.128,561.238,157.632,568.860,156.117,575.343C154.636,583.870,156.653,592.802,160.040,600.277C161.725,604.585,164.663,609.724,167.850,612.684C169.969,614.651,172.782,615.951,175.351,616.941C182.698,619.725,189.754,621.050,197.672,621.471C203.226,621.808,208.720,620.686,214.501,620.953C215.535,620.842,224.067,621.844,225.743,621.881C228.515,621.782,232.379,619.364,234.878,617.831C238.046,615.643,243.464,614.693,246.208,611.842C248.769,609.178,250.326,605.654,251.783,602.255C259.893,582.570,252.171,570.970,249.606,552.549C248.207,542.505,246.089,521.797,246.410,510.571C246.521,496.873,249.729,483.702,250.654,469.611C251.047,465.029,251.439,459.532,252.177,454.341C252.799,449.332,251.588,445.298,251.336,440.333C250.909,436.464,251.232,424.044,250.646,419.885C250.270,416.185,250.314,411.567,248.983,407.908C245.324,398.592,231.351,388.280,222.034,385.285C217.377,383.621,212.387,383.290,208.062,381.294Z"/>
<path class="path-7" d="M212.784,393.055C218.612,394.546,228.304,397.413,231.565,402.871"/>
<path class="path-7" d="M231.565,402.871C233.182,405.579,233.805,410.629,232.233,413.364"/>
<path class="path-7" d="M232.233,413.364C229.773,417.644,213.743,416.045,217.084,419.793"/>
<path class="path-7" d="M217.084,419.793C222.704,426.269,231.893,416.395,236.286,420.123"/>
<path class="path-7" d="M236.286,420.123C238.361,421.884,238.458,425.706,238.843,428.827"/>
<path class="path-7" d="M238.843,428.827C242.627,450.352,235.891,473.223,235.323,494.418"/>
<path class="path-7" d="M235.323,494.418C235.071,501.267,232.988,511.329,234.072,517.587"/>
<path class="path-7" d="M234.072,517.587C236.287,533.529,234.636,536.835,234.977,546.383"/>
<path class="path-7" d="M234.977,546.383C234.882,549.904,233.034,567.733,234.099,572.339"/>
<path class="path-7" d="M234.099,572.339C235.265,576.966,238.110,581.534,238.582,586.306"/>
<path class="path-7" d="M238.582,586.306C239.383,594.412,228.567,605.811,221.353,608.272"/>
<path class="path-7" d="M221.353,608.272C213.540,610.765,189.125,609.701,181.678,605.771"/>
<path class="path-7" d="M181.678,605.771C178.366,604.145,174.444,600.013,173.063,596.308"/>
<path class="path-7" d="M173.063,596.308C171.708,593.196,169.365,578.596,170.223,575.014"/>
<path class="path-7" d="M170.223,575.014C172.008,568.629,174.338,567.254,176.280,559.738"/>
<path class="path-7" d="M176.280,559.738C178.236,550.957,180.727,541.522,180.125,532.335"/>
<path class="path-7" d="M180.125,532.335C178.485,512.726,179.110,482.605,181.266,468.897"/>
<path class="path-7" d="M181.266,468.897C182.334,460.828,180.648,433.699,181.732,426.230"/>
<path class="path-7" d="M181.732,426.230C183.520,414.647,181.363,412.408,183.149,404.665"/>
<path class="path-7" d="M183.149,404.665C186.699,392.867,202.357,390.158,212.784,393.055"/>
<path class="path-8" d="M212.784,393.055C218.612,394.546,228.304,397.413,231.565,402.871C233.182,405.579,233.805,410.629,232.233,413.364C229.773,417.644,213.743,416.045,217.084,419.793C222.704,426.269,231.893,416.395,236.286,420.123C238.361,421.884,238.458,425.706,238.843,428.827C242.627,450.352,235.891,473.223,235.323,494.418C235.071,501.267,232.988,511.329,234.072,517.587C236.287,533.529,234.636,536.835,234.977,546.383C234.882,549.904,233.034,567.733,234.099,572.339C235.265,576.966,238.110,581.534,238.582,586.306C239.383,594.412,228.567,605.811,221.353,608.272C213.540,610.765,189.125,609.701,181.678,605.771C178.366,604.145,174.444,600.013,173.063,596.308C171.708,593.196,169.365,578.596,170.223,575.014C172.008,568.629,174.338,567.254,176.280,559.738C178.236,550.957,180.727,541.522,180.125,532.335C178.485,512.726,179.110,482.605,181.266,468.897C182.334,460.828,180.648,433.699,181.732,426.230C183.520,414.647,181.363,412.408,183.149,404.665C186.699,392.867,202.357,390.158,212.784,393.055Z"/>
</g>
<g id="right_toe">
<path class="path-0" d="M168.975,641.583C170.312,628.628,175.571,612.033,191.345,609.780C195.016,609.060,200.186,610.785,204.263,611.603C225.003,615.704,233.157,620.269,233.878,641.583C233.956,647.360,234.818,654.519,230.517,659.171C226.147,663.814,205.440,661.346,199.118,661.596C187.987,662.280,178.390,667.369,170.752,657.618C166.313,651.828,168.284,648.372,168.975,641.583M242.090,619.537C235.255,605.804,203.407,597.527,189.031,600.110C167.590,604.086,160.493,620.860,159.089,639.052C158.540,645.537,157.726,652.679,160.985,658.403C162.149,660.446,164.623,663.158,166.325,664.790C179.173,678.184,188.481,676.599,205.787,676.396C214.954,676.441,230.158,675.466,237.520,669.328C242.968,664.339,243.594,658.943,243.867,651.987C243.891,645.299,244.807,624.496,242.090,619.537Z"/>
<path class="path-3" d="M191.345,609.780C195.016,609.060,200.186,610.785,204.263,611.603"/>
<path class="path-3" d="M204.263,611.603C225.003,615.704,233.157,620.269,233.878,641.583"/>
<path class="path-3" d="M233.878,641.583C233.956,647.360,234.818,654.519,230.517,659.171"/>
<path class="path-3" d="M230.517,659.171C226.147,663.814,205.440,661.346,199.118,661.596"/>
<path class="path-3" d="M199.118,661.596C187.987,662.280,178.390,667.369,170.752,657.618"/>
<path class="path-3" d="M170.752,657.618C166.313,651.828,168.284,648.372,168.975,641.583"/>
<path class="path-3" d="M168.975,641.583C170.312,628.628,175.571,612.033,191.345,609.780"/>
<path class="path-4" d="M191.345,609.780C195.016,609.060,200.186,610.785,204.263,611.603C225.003,615.704,233.157,620.269,233.878,641.583C233.956,647.360,234.818,654.519,230.517,659.171C226.147,663.814,205.440,661.346,199.118,661.596C187.987,662.280,178.390,667.369,170.752,657.618C166.313,651.828,168.284,648.372,168.975,641.583C170.312,628.628,175.571,612.033,191.345,609.780Z"/>
</g>
<g id="right_sole">
<path class="path-0" d="M186.897,672.600C188.392,672.926,203.621,672.859,205.325,672.855C206.711,672.874,215.178,672.828,216.360,672.741C217.090,672.705,224.487,672.419,225.052,672.893C224.589,672.380,216.592,673.897,216.120,673.910C215.209,673.970,189.248,673.815,188.945,673.921C187.735,673.956,176.642,672.952,175.937,671.984C177.098,671.457,185.176,672.223,186.897,672.600M225.311,666.268C225.355,666.540,223.808,668.125,223.397,668.123C222.568,668.124,209.845,669.543,208.751,669.310C207.485,669.267,198.896,669.968,197.755,669.941C195.494,669.887,177.999,668.595,176.092,667.404C175.981,667.304,175.621,666.722,175.637,666.639C175.695,666.358,182.489,667.452,183.578,667.456C185.290,667.461,198.698,666.182,200.451,666.114C202.337,666.041,216.718,666.317,218.650,666.155C218.951,666.137,225.183,665.590,225.311,666.268M230.900,661.887C219.942,658.810,211.187,663.099,201.349,663.389C194.101,663.632,180.178,662.020,171.363,663.820C169.986,664.101,167.362,663.957,166.947,665.384C166.419,667.219,169.921,671.165,172.158,672.641C174.930,674.471,180.713,674.510,183.006,674.861C194.632,677.073,209.412,675.912,221.381,675.454C230.223,675.121,232.447,671.580,233.339,667.337C233.708,665.584,234.308,662.796,230.900,661.887Z"/>
<path class="path-24" d="M186.897,672.600C188.392,672.926,203.621,672.859,205.325,672.855"/>
<path class="path-24" d="M205.325,672.855C206.711,672.874,215.178,672.828,216.360,672.741"/>
<path class="path-24" d="M216.360,672.741C217.090,672.705,224.487,672.419,225.052,672.893"/>
<path class="path-24" d="M225.052,672.893C224.589,672.380,216.592,673.897,216.120,673.910"/>
<path class="path-24" d="M216.120,673.910C215.209,673.970,189.248,673.815,188.945,673.921"/>
<path class="path-24" d="M188.945,673.921C187.735,673.956,176.642,672.952,175.937,671.984"/>
<path class="path-24" d="M175.937,671.984C177.098,671.457,185.176,672.223,186.897,672.600"/>
<path class="path-0" d="M186.897,672.600C188.392,672.926,203.621,672.859,205.325,672.855C206.711,672.874,215.178,672.828,216.360,672.741C217.090,672.705,224.487,672.419,225.052,672.893C224.589,672.380,216.592,673.897,216.120,673.910C215.209,673.970,189.248,673.815,188.945,673.921C187.735,673.956,176.642,672.952,175.937,671.984C177.098,671.457,185.176,672.223,186.897,672.600Z"/>
<path class="path-24" d="M183.578,667.456C185.290,667.461,198.698,666.182,200.451,666.114"/>
<path class="path-24" d="M200.451,666.114C202.337,666.041,216.718,666.317,218.650,666.155"/>
<path class="path-24" d="M218.650,666.155C218.951,666.137,225.183,665.590,225.311,666.268"/>
<path class="path-24" d="M225.311,666.268C225.355,666.540,223.808,668.125,223.397,668.123"/>
<path class="path-24" d="M223.397,668.123C222.568,668.124,209.845,669.543,208.751,669.310"/>
<path class="path-24" d="M208.751,669.310C207.485,669.267,198.896,669.968,197.755,669.941"/>
<path class="path-24" d="M197.755,669.941C195.494,669.887,177.999,668.595,176.092,667.404"/>
<path class="path-24" d="M176.092,667.404C175.981,667.304,175.621,666.722,175.637,666.639"/>
<path class="path-24" d="M175.637,666.639C175.695,666.358,182.489,667.452,183.578,667.456"/>
<path class="path-0" d="M183.578,667.456C185.290,667.461,198.698,666.182,200.451,666.114C202.337,666.041,216.718,666.317,218.650,666.155C218.951,666.137,225.183,665.590,225.311,666.268C225.355,666.540,223.808,668.125,223.397,668.123C222.568,668.124,209.845,669.543,208.751,669.310C207.485,669.267,198.896,669.968,197.755,669.941C195.494,669.887,177.999,668.595,176.092,667.404C175.981,667.304,175.621,666.722,175.637,666.639C175.695,666.358,182.489,667.452,183.578,667.456Z"/>
</g>
</g>
<g id="hat_brim">
<path class="path-0" d="M287.577,139.789C291.236,133.800,300.219,117.498,308.203,117.498C313.527,117.498,324.506,127.147,330.161,130.141C335.151,133.136,340.475,135.797,346.131,138.458C349.343,140.127,352.559,141.791,355.778,143.448C370.085,150.768,366.092,157.090,357.774,155.759C339.144,152.430,336.150,153.762,318.184,144.446C315.855,143.448,309.866,140.122,308.868,144.446C307.538,149.437,316.521,153.762,320.180,155.425C326.834,159.086,334.153,163.079,342.138,163.743C344.468,164.077,352.452,163.409,353.782,165.739C355.778,169.066,346.131,177.716,344.134,179.713C340.807,182.707,337.481,185.701,334.153,188.031C329.163,191.356,323.839,194.350,318.184,195.348C307.539,196.680,274.268,181.375,273.270,169.732C272.605,163.078,283.584,146.111,287.577,139.789M320.180,113.174C315.190,108.848,311.531,102.526,304.211,105.854C298.887,108.184,293.232,115.835,289.573,119.827C275.931,136.462,263.623,156.092,264.287,177.716C264.621,191.356,269.278,191.025,280.257,196.346C296.891,204.665,318.184,207.326,336.150,199.010C347.793,193.686,368.089,175.721,373.412,163.743C375.075,159.751,378.069,150.768,375.739,146.111C373.078,140.454,350.788,130.806,344.134,127.147C336.150,122.822,327.167,118.829,320.180,113.174Z"/>
<path class="path-9" d="M308.203,117.498C313.527,117.498,324.506,127.147,330.161,130.141"/>
<path class="path-9" d="M330.161,130.141C335.151,133.136,340.475,135.797,346.131,138.458"/>
<path class="path-9" d="M346.131,138.458C349.343,140.127,352.559,141.791,355.778,143.448"/>
<path class="path-9" d="M355.778,143.448C370.085,150.768,366.092,157.090,357.774,155.759"/>
<path class="path-9" d="M357.774,155.759C339.144,152.430,336.150,153.762,318.184,144.446"/>
<path class="path-9" d="M318.184,144.446C315.855,143.448,309.866,140.122,308.868,144.446"/>
<path class="path-9" d="M308.868,144.446C307.538,149.437,316.521,153.762,320.180,155.425"/>
<path class="path-9" d="M320.180,155.425C326.834,159.086,334.153,163.079,342.138,163.743"/>
<path class="path-9" d="M342.138,163.743C344.468,164.077,352.452,163.409,353.782,165.739"/>
<path class="path-9" d="M353.782,165.739C355.778,169.066,346.131,177.716,344.134,179.713"/>
<path class="path-9" d="M344.134,179.713C340.807,182.707,337.481,185.701,334.153,188.031"/>
<path class="path-9" d="M334.153,188.031C329.163,191.356,323.839,194.350,318.184,195.348"/>
<path class="path-9" d="M318.184,195.348C307.539,196.680,274.268,181.375,273.270,169.732"/>
<path class="path-9" d="M273.270,169.732C272.605,163.078,283.584,146.111,287.577,139.789"/>
<path class="path-9" d="M287.577,139.789C291.236,133.800,300.219,117.498,308.203,117.498"/>
<path class="path-10" d="M308.203,117.498C313.527,117.498,324.506,127.147,330.161,130.141C335.151,133.136,340.475,135.797,346.131,138.458C349.343,140.127,352.559,141.791,355.778,143.448C370.085,150.768,366.092,157.090,357.774,155.759C339.144,152.430,336.150,153.762,318.184,144.446C315.855,143.448,309.866,140.122,308.868,144.446C307.538,149.437,316.521,153.762,320.180,155.425C326.834,159.086,334.153,163.079,342.138,163.743C344.468,164.077,352.452,163.409,353.782,165.739C355.778,169.066,346.131,177.716,344.134,179.713C340.807,182.707,337.481,185.701,334.153,188.031C329.163,191.356,323.839,194.350,318.184,195.348C307.539,196.680,274.268,181.375,273.270,169.732C272.605,163.078,283.584,146.111,287.577,139.789C291.236,133.800,300.219,117.498,308.203,117.498Z"/>
</g>
<g id="hair">
<path class="path-0" d="M183.357,136.483C200.954,124.749,220.906,123.806,241.996,123.120C251.452,122.794,257.886,129.270,265.069,135.626C270.964,141.195,277.299,147.468,283.560,153.313C292.986,162.051,296.930,166.431,300.440,170.614C303.444,173.825,308.105,179.813,311.862,182.674C316.396,186.124,325.422,203.315,327.445,205.266C320.793,207.453,310.356,209.024,305.541,212.830C307.149,218.669,307.424,227.700,307.413,230.409C301.202,230.790,294.008,227.926,282.567,225.752C280.180,232.918,280.142,239.647,275.384,246.902C267.697,244.496,262.345,242.563,252.411,238.043C245.798,243.193,244.261,242.773,233.517,249.212C226.455,244.820,220.838,240.151,213.943,237.253C207.148,240.091,196.403,241.027,192.739,243.925C188.987,236.858,185.547,229.060,182.318,225.662C172.710,227.554,168.576,230.148,161.781,232.559C157.606,227.012,160.654,222.489,156.037,214.349C151.717,213.146,145.049,210.476,139.490,210.322C143.367,205.864,146.319,191.142,152.833,189.327C160.871,187.088,155.875,177.911,160.872,169.755C162.110,167.631,174.016,151.399,175.093,148.739C177.132,144.153,179.361,139.287,183.357,136.483M269.783,123.041C257.623,113.516,232.973,108.192,219.067,111.311C206.306,114.023,193.787,117.926,182.663,125.006C176.433,128.911,169.531,134.686,165.362,140.754C157.036,152.537,144.935,178.372,138.142,190.325C132.704,200.241,127.646,206.923,122.452,212.283C140.007,218.879,145.124,221.586,150.363,222.441C150.613,230.199,157.711,236.027,156.388,244.572C165.209,243.354,170.475,241.177,178.326,239.302C182.258,243.995,184.942,250.348,188.681,256.586C196.418,254.568,204.305,254.940,212.000,249.563C217.496,252.632,226.229,257.403,235.200,262.448C243.544,258.115,245.325,257.880,253.165,252.908C262.619,255.342,272.515,261.315,282.074,260.399C281.484,252.206,287.600,246.647,286.947,241.388C294.168,239.536,316.196,242.966,319.967,242.683C319.803,236.635,316.595,225.026,318.237,217.838C325.064,216.098,330.837,214.510,341.526,209.520C338.121,202.790,331.974,194.414,326.560,189.403C321.990,185.214,318.291,179.689,313.719,175.326C298.212,160.768,292.275,140.745,269.783,123.041Z"/>
<path class="path-11" d="M241.996,123.120C251.452,122.794,257.886,129.270,265.069,135.626"/>
<path class="path-11" d="M265.069,135.626C270.964,141.195,277.299,147.468,283.560,153.313"/>
<path class="path-11" d="M283.560,153.313C292.986,162.051,296.930,166.431,300.440,170.614"/>
<path class="path-11" d="M300.440,170.614C303.444,173.825,308.105,179.813,311.862,182.674"/>
<path class="path-11" d="M311.862,182.674C316.396,186.124,325.422,203.315,327.445,205.266"/>
<path class="path-11" d="M327.445,205.266C320.793,207.453,310.356,209.024,305.541,212.830"/>
<path class="path-11" d="M305.541,212.830C307.149,218.669,307.424,227.700,307.413,230.409"/>
<path class="path-11" d="M307.413,230.409C301.202,230.790,294.008,227.926,282.567,225.752"/>
<path class="path-11" d="M282.567,225.752C280.180,232.918,280.142,239.647,275.384,246.902"/>
<path class="path-11" d="M275.384,246.902C267.697,244.496,262.345,242.563,252.411,238.043"/>
<path class="path-11" d="M252.411,238.043C245.798,243.193,244.261,242.773,233.517,249.212"/>
<path class="path-11" d="M233.517,249.212C226.455,244.820,220.838,240.151,213.943,237.253"/>
<path class="path-11" d="M213.943,237.253C207.148,240.091,196.403,241.027,192.739,243.925"/>
<path class="path-11" d="M192.739,243.925C188.987,236.858,185.547,229.060,182.318,225.662"/>
<path class="path-11" d="M182.318,225.662C172.710,227.554,168.576,230.148,161.781,232.559"/>
<path class="path-11" d="M161.781,232.559C157.606,227.012,160.654,222.489,156.037,214.349"/>
<path class="path-11" d="M156.037,214.349C151.717,213.146,145.049,210.476,139.490,210.322"/>
<path class="path-11" d="M139.490,210.322C143.367,205.864,146.319,191.142,152.833,189.327"/>
<path class="path-11" d="M152.833,189.327C160.871,187.088,155.875,177.911,160.872,169.755"/>
<path class="path-11" d="M160.872,169.755C162.110,167.631,174.016,151.399,175.093,148.739"/>
<path class="path-11" d="M175.093,148.739C177.132,144.153,179.361,139.287,183.357,136.483"/>
<path class="path-11" d="M183.357,136.483C200.954,124.749,220.906,123.806,241.996,123.120"/>
<path class="path-12" d="M241.996,123.120C251.452,122.794,257.886,129.270,265.069,135.626C270.964,141.195,277.299,147.468,283.560,153.313C292.986,162.051,296.930,166.431,300.440,170.614C303.444,173.825,308.105,179.813,311.862,182.674C316.396,186.124,325.422,203.315,327.445,205.266C320.793,207.453,310.356,209.024,305.541,212.830C307.149,218.669,307.424,227.700,307.413,230.409C301.202,230.790,294.008,227.926,282.567,225.752C280.180,232.918,280.142,239.647,275.384,246.902C267.697,244.496,262.345,242.563,252.411,238.043C245.798,243.193,244.261,242.773,233.517,249.212C226.455,244.820,220.838,240.151,213.943,237.253C207.148,240.091,196.403,241.027,192.739,243.925C188.987,236.858,185.547,229.060,182.318,225.662C172.710,227.554,168.576,230.148,161.781,232.559C157.606,227.012,160.654,222.489,156.037,214.349C151.717,213.146,145.049,210.476,139.490,210.322C143.367,205.864,146.319,191.142,152.833,189.327C160.871,187.088,155.875,177.911,160.872,169.755C162.110,167.631,174.016,151.399,175.093,148.739C177.132,144.153,179.361,139.287,183.357,136.483C200.954,124.749,220.906,123.806,241.996,123.120Z"/>
</g>
<g id="clothes">
<path class="path-0" d="M243.730,369.629C239.035,367.613,220.925,360.385,218.004,364.809C215.573,368.743,220.130,369.741,224.128,370.203C227.736,370.621,246.175,377.861,248.649,376.282C253.191,373.308,245.984,370.483,243.730,369.629M191.093,266.179C194.088,253.538,221.037,240.563,234.012,241.561C242.994,242.226,271.274,256.199,275.266,264.517C278.592,271.170,279.590,295.789,279.924,304.107C280.257,319.412,281.102,334.754,282.253,350.019C283.806,362.570,287.064,374.840,289.422,387.264C289.758,393.235,291.924,409.060,286.223,412.343C278.728,417.146,260.842,404.788,253.621,400.911C227.644,387.862,229.569,386.647,202.327,385.565C198.841,385.294,187.492,387.986,185.123,386.622C180.918,383.508,182.691,377.473,183.724,372.540C186.705,360.712,189.821,352.875,191.427,340.038C193.319,324.056,194.088,306.768,194.088,290.134C193.755,284.145,190.429,269.839,191.093,266.179M269.943,247.549C253.640,237.899,237.670,229.915,218.042,235.573C212.718,236.902,186.103,249.877,183.773,253.205C180.115,258.529,183.773,278.821,183.773,286.141C184.107,294.791,184.440,303.773,183.773,312.092C183.442,318.413,182.111,324.069,182.111,330.057C181.777,336.710,182.374,344.011,180.780,350.019C177.475,362.130,163.637,385.305,177.441,394.959C182.672,398.646,191.031,396.953,197.729,397.852C208.516,399.090,219.996,401.183,230.512,404.486C240.766,408.022,248.898,416.626,259.539,419.328C267.693,421.401,294.621,426.808,300.405,420.061C304.242,415.783,300.150,390.372,299.029,383.975C296.059,370.770,293.062,357.482,291.567,344.031C290.576,332.090,289.239,320.410,289.904,308.100C290.237,298.119,291.900,288.471,291.900,278.157C291.567,273.831,292.234,268.510,289.904,264.184C285.912,256.199,277.263,251.873,269.943,247.549Z"/>
<path class="path-13" d="M243.730,369.629C239.035,367.613,220.925,360.385,218.004,364.809"/>
<path class="path-13" d="M218.004,364.809C215.573,368.743,220.130,369.741,224.128,370.203"/>
<path class="path-13" d="M224.128,370.203C227.736,370.621,246.175,377.861,248.649,376.282"/>
<path class="path-13" d="M248.649,376.282C253.191,373.308,245.984,370.483,243.730,369.629"/>
<path class="path-13" d="M191.093,266.179C194.088,253.538,221.037,240.563,234.012,241.561"/>
<path class="path-13" d="M234.012,241.561C242.994,242.226,271.274,256.199,275.266,264.517"/>
<path class="path-13" d="M275.266,264.517C278.592,271.170,279.590,295.789,279.924,304.107"/>
<path class="path-13" d="M279.924,304.107C280.257,319.412,281.102,334.754,282.253,350.019"/>
<path class="path-13" d="M282.253,350.019C283.806,362.570,287.064,374.840,289.422,387.264"/>
<path class="path-13" d="M289.422,387.264C289.758,393.235,291.924,409.060,286.223,412.343"/>
<path class="path-13" d="M286.223,412.343C278.728,417.146,260.842,404.788,253.621,400.911"/>
<path class="path-13" d="M253.621,400.911C227.644,387.862,229.569,386.647,202.327,385.565"/>
<path class="path-13" d="M202.327,385.565C198.841,385.294,187.492,387.986,185.123,386.622"/>
<path class="path-13" d="M185.123,386.622C180.918,383.508,182.691,377.473,183.724,372.540"/>
<path class="path-13" d="M183.724,372.540C186.705,360.712,189.821,352.875,191.427,340.038"/>
<path class="path-13" d="M191.427,340.038C193.319,324.056,194.088,306.768,194.088,290.134"/>
<path class="path-13" d="M194.088,290.134C193.755,284.145,190.429,269.839,191.093,266.179"/>
<path class="path-14" d="M243.730,369.629C239.035,367.613,220.925,360.385,218.004,364.809C215.573,368.743,220.130,369.741,224.128,370.203C227.736,370.621,246.175,377.861,248.649,376.282C253.191,373.308,245.984,370.483,243.730,369.629M191.093,266.179C194.088,253.538,221.037,240.563,234.012,241.561C242.994,242.226,271.274,256.199,275.266,264.517C278.592,271.170,279.590,295.789,279.924,304.107C280.257,319.412,281.102,334.754,282.253,350.019C283.806,362.570,287.064,374.840,289.422,387.264C289.758,393.235,291.924,409.060,286.223,412.343C278.728,417.146,260.842,404.788,253.621,400.911C227.644,387.862,229.569,386.647,202.327,385.565C198.841,385.294,187.492,387.986,185.123,386.622C180.918,383.508,182.691,377.473,183.724,372.540C186.705,360.712,189.821,352.875,191.427,340.038C193.319,324.056,194.088,306.768,194.088,290.134C193.755,284.145,190.429,269.839,191.093,266.179Z"/>
</g>
<g id="neck">
<path class="path-0" d="M229.021,222.597C229.354,219.269,230.353,216.275,234.012,215.942C245.656,213.946,244.657,251.542,234.012,251.542C224.031,251.542,228.356,228.917,229.021,222.597M234.012,206.628C231.351,206.295,228.357,206.959,226.027,208.291C216.711,212.948,218.042,221.599,218.042,230.248C217.708,234.574,218.042,238.567,216.046,242.226C214.383,245.553,209.724,248.879,209.724,252.540C210.057,262.521,237.006,262.521,243.993,262.188C246.653,262.187,255.636,263.185,256.634,259.526C256.634,258.528,249.981,246.883,248.983,242.226C245.989,228.252,255.305,207.626,234.012,206.628Z"/>
<path class="path-15" d="M234.012,215.942C245.656,213.946,244.657,251.542,234.012,251.542"/>
<path class="path-15" d="M234.012,251.542C224.031,251.542,228.356,228.917,229.021,222.597"/>
<path class="path-15" d="M229.021,222.597C229.354,219.269,230.353,216.275,234.012,215.942"/>
<path class="path-16" d="M234.012,215.942C245.656,213.946,244.657,251.542,234.012,251.542C224.031,251.542,228.356,228.917,229.021,222.597C229.354,219.269,230.353,216.275,234.012,215.942Z"/>
</g>
<g id="layer_head">
<g id="right_ear">
<path class="path-0" d="M151.381,191.341C145.542,191.709,132.509,162.407,139.849,164.025C145.628,165.281,148.549,175.569,150.132,179.788C151.351,182.701,156.470,191.054,151.381,191.341M143.249,150.893C141.004,149.494,138.268,148.090,135.902,149.274C126.977,152.083,128.908,165.221,131.311,174.313C134.433,185.629,142.388,200.498,152.586,204.375C154.603,205.154,158.617,207.543,160.777,206.804C166.946,204.260,161.671,194.449,159.978,189.494C157.733,182.421,148.563,155.625,143.249,150.893Z"/>
<path class="path-15" d="M139.849,164.025C145.628,165.281,148.549,175.569,150.132,179.788"/>
<path class="path-15" d="M150.132,179.788C151.351,182.701,156.470,191.054,151.381,191.341"/>
<path class="path-15" d="M151.381,191.341C145.542,191.709,132.509,162.407,139.849,164.025"/>
<path class="path-16" d="M139.849,164.025C145.628,165.281,148.549,175.569,150.132,179.788C151.351,182.701,156.470,191.054,151.381,191.341C145.542,191.709,132.509,162.407,139.849,164.025Z"/>
</g>
<g id="face_Mask">
<g id="face">
<path class="path-0" d="M150.464,105.802C158.950,95.353,191.719,88.168,205.359,86.172C220.663,84.176,236.299,86.505,251.271,91.162C256.595,92.827,264.510,94.509,268.903,98.482C275.794,104.760,278.357,116.126,279.957,124.939C281.124,130.539,282.813,137.799,281.831,143.114C276.306,173.026,269.233,187.061,263.142,195.393C253.357,208.779,235.657,213.891,219.822,218.309C201.412,223.162,188.444,222.622,173.834,218.669C167.907,217.071,155.168,212.520,151.287,208.107C144.456,200.041,146.863,189.145,144.931,179.207C142.923,170.347,138.103,157.381,136.770,148.580C135.263,137.451,143.479,114.323,150.464,105.802M272.921,90.806C259.443,78.432,223.036,75.775,205.402,78.418C197.082,79.409,189.096,80.067,181.443,82.058C175.783,83.720,170.788,86.379,165.461,88.042C153.814,92.366,149.003,90.927,141.173,101.692C135.549,109.227,127.354,138.875,127.734,148.111C128.166,155.462,133.863,172.477,134.909,180.985C135.991,190.234,134.175,203.417,138.541,211.268C142.249,217.713,148.490,221.453,157.947,225.822C167.791,230.369,178.883,234.717,190.034,235.315C196.971,235.848,206.674,234.187,222.297,228.488C238.999,222.158,256.594,215.637,268.400,200.668C279.464,186.640,293.931,168.076,296.517,140.848C298.439,120.609,280.439,97.559,272.921,90.806Z"/>
<path class="path-15" d="M205.359,86.172C220.663,84.176,236.299,86.505,251.271,91.162"/>
<path class="path-15" d="M251.271,91.162C256.595,92.827,264.510,94.509,268.903,98.482"/>
<path class="path-15" d="M268.903,98.482C275.794,104.760,278.357,116.126,279.957,124.939"/>
<path class="path-15" d="M279.957,124.939C281.124,130.539,282.813,137.799,281.831,143.114"/>
<path class="path-15" d="M281.831,143.114C276.306,173.026,269.233,187.061,263.142,195.393"/>
<path class="path-15" d="M263.142,195.393C253.357,208.779,235.657,213.891,219.822,218.309"/>
<path class="path-15" d="M219.822,218.309C201.412,223.162,188.444,222.622,173.834,218.669"/>
<path class="path-15" d="M173.834,218.669C167.907,217.071,155.168,212.520,151.287,208.107"/>
<path class="path-15" d="M151.287,208.107C144.456,200.041,146.863,189.145,144.931,179.207"/>
<path class="path-15" d="M144.931,179.207C142.923,170.347,138.103,157.381,136.770,148.580"/>
<path class="path-15" d="M136.770,148.580C135.263,137.451,143.479,114.323,150.464,105.802"/>
<path class="path-15" d="M150.464,105.802C158.950,95.353,191.719,88.168,205.359,86.172"/>
<path class="path-16" d="M205.359,86.172C220.663,84.176,236.299,86.505,251.271,91.162C256.595,92.827,264.510,94.509,268.903,98.482C275.794,104.760,278.357,116.126,279.957,124.939C281.124,130.539,282.813,137.799,281.831,143.114C276.306,173.026,269.233,187.061,263.142,195.393C253.357,208.779,235.657,213.891,219.822,218.309C201.412,223.162,188.444,222.622,173.834,218.669C167.907,217.071,155.168,212.520,151.287,208.107C144.456,200.041,146.863,189.145,144.931,179.207C142.923,170.347,138.103,157.381,136.770,148.580C135.263,137.451,143.479,114.323,150.464,105.802C158.950,95.353,191.719,88.168,205.359,86.172Z"/>
</g>
</g>
<mask id="mask_target" style="mask-type:alpha;">
<use xlink:href="#face_Mask"/>
</mask>
<g id="mouse">
<path class="path-0" d="M190.100,214.017C195.304,215.121,195.388,219.874,194.914,220.382C194.647,220.668,193.524,219.716,190.564,219.230C184.958,218.308,182.252,219.480,182.055,218.766C181.838,217.983,184.007,212.725,190.100,214.017Z"/>
</g>
<g id="layer_eyes_Mtarget" mask="url(#mask_target)">
<g id="eyes">
<mask style="mask-type:alpha;" id="f3906406-f197-4bf1-91d8-744c09cca836">
<use xlink:href="#cmn_f3906406-f197-4bf1-91d8-744c09cca836"/>
</mask>
<g id="cmn_f3906406-f197-4bf1-91d8-744c09cca836">
<path class="path-0" d="M143.796,192.904C144.195,192.335,143.013,188.230,143.818,188.699C143.412,188.475,137.141,189.940,136.430,191.667C136.065,192.554,138.728,196.294,137.545,196.027C136.845,195.869,143.527,193.288,143.796,192.904M151.614,195.559C151.630,194.968,151.102,188.896,148.849,188.218C147.595,187.840,146.028,189.441,145.008,190.292C142.276,192.473,123.836,188.900,124.940,184.355C125.349,182.653,133.957,181.378,135.593,182.080C145.645,186.420,122.126,207.085,136.777,211.366C137.331,211.527,144.325,192.457,142.375,195.528C141.296,197.228,151.574,197.020,151.614,195.559M182.693,194.261C180.449,194.363,178.259,195.674,175.326,193.764C172.912,192.193,193.145,192.290,194.976,192.022C196.195,191.844,208.640,190.581,209.258,190.108C209.380,190.015,211.519,189.825,211.702,189.775C211.418,189.853,186.661,194.083,182.693,194.261M219.088,192.174C219.435,191.831,219.699,185.412,219.221,185.002C215.764,182.032,203.340,185.639,196.535,185.941C192.051,186.140,184.473,187.252,181.588,186.646C177.601,185.956,174.533,184.979,172.252,186.603C170.451,187.886,169.060,191.368,169.647,193.500C170.183,195.449,172.573,197.017,174.861,197.768C179.649,199.338,200.286,195.967,203.850,195.714C204.114,195.695,216.889,194.348,219.088,192.174Z"/>
<path class="path-29" d="M209.258,190.108C209.380,190.015,211.519,189.825,211.702,189.775"/>
<path class="path-29" d="M211.702,189.775C211.418,189.853,186.661,194.083,182.693,194.261"/>
<path class="path-29" d="M182.693,194.261C180.449,194.363,178.259,195.674,175.326,193.764"/>
<path class="path-29" d="M175.326,193.764C172.912,192.193,193.145,192.290,194.976,192.022"/>
<path class="path-29" d="M194.976,192.022C196.195,191.844,208.640,190.581,209.258,190.108"/>
<path class="path-30" d="M209.258,190.108C209.380,190.015,211.519,189.825,211.702,189.775C211.418,189.853,186.661,194.083,182.693,194.261C180.449,194.363,178.259,195.674,175.326,193.764C172.912,192.193,193.145,192.290,194.976,192.022C196.195,191.844,208.640,190.581,209.258,190.108Z"/>
<path class="path-29" d="M137.545,196.027C136.845,195.869,143.527,193.288,143.796,192.904"/>
<path class="path-29" d="M143.796,192.904C144.195,192.335,143.013,188.230,143.818,188.699"/>
<path class="path-29" d="M143.818,188.699C143.412,188.475,137.141,189.940,136.430,191.667"/>
<path class="path-29" d="M136.430,191.667C136.065,192.554,138.728,196.294,137.545,196.027"/>
<path class="path-30" d="M137.545,196.027C136.845,195.869,143.527,193.288,143.796,192.904C144.195,192.335,143.013,188.230,143.818,188.699C143.412,188.475,137.141,189.940,136.430,191.667C136.065,192.554,138.728,196.294,137.545,196.027Z"/>
</g>
</g>
<g id="pupil">
<path class="path-0" d="M174.715,176.131C177.036,175.564,180.070,178.929,180.842,187.511C181.386,193.558,179.942,196.028,178.273,196.248C176.377,196.498,174.728,193.875,173.445,187.098C172.075,179.866,172.733,176.614,174.715,176.131Z" mask="url(#f3906406-f197-4bf1-91d8-744c09cca836)"/>
<path class="path-0" d="M141.507,176.740C143.894,176.248,146.950,179.925,147.460,188.993C147.751,194.183,146.549,196.200,145.176,196.448C143.605,196.732,141.654,194.832,140.144,189.077C138.044,181.073,139.332,177.189,141.507,176.740Z" mask="url(#f3906406-f197-4bf1-91d8-744c09cca836)"/>
</g>
</g>
<g id="hat">
<path class="path-0" d="M287.390,133.105C289.628,133.972,292.237,136.748,292.771,139.378C294.719,146.068,283.428,147.318,279.851,147.788C274.084,147.965,268.070,147.066,262.590,146.466C255.518,146.334,248.517,145.007,241.454,144.605C219.911,141.690,198.329,139.305,176.730,136.877C165.779,136.079,155.826,134.376,143.964,133.691C142.612,133.619,129.852,134.696,127.319,133.898C112.841,129.484,125.161,116.623,124.104,110.027C123.936,108.000,120.003,107.534,120.770,103.933C121.314,101.563,128.083,97.311,130.416,96.443C139.719,92.925,150.185,91.364,160.592,90.991C172.109,90.589,182.519,92.294,193.988,93.437C218.720,95.923,261.628,102.149,291.575,117.430C300.839,122.140,281.076,119.086,279.196,119.150C263.698,119.133,199.943,102.771,234.385,116.009C248.237,121.586,274.710,127.586,287.390,133.105M175.671,80.403C163.603,79.617,152.547,78.874,141.268,81.110C137.152,81.916,131.934,82.873,128.585,83.715C121.640,85.479,133.637,65.187,137.079,61.355C152.991,44.076,181.374,32.765,206.017,34.271C254.232,37.216,272.344,50.060,285.372,68.722C289.585,74.301,301.582,99.982,291.683,105.973C288.445,107.654,282.710,104.724,280.010,103.242C270.366,98.214,198.503,81.890,175.671,80.403M273.601,39.809C256.469,31.108,236.482,23.336,210.417,23.871C180.142,24.543,146.428,33.242,127.183,59.655C121.291,67.936,118.938,77.106,115.431,85.889C113.229,91.332,108.794,94.921,108.396,100.711C108.077,108.354,112.539,110.335,113.337,116.582C114.432,123.615,110.200,125.804,110.571,130.367C110.387,142.659,121.944,145.572,132.052,146.730C136.478,147.238,152.940,146.732,161.889,146.902C172.055,147.096,185.613,147.437,195.765,148.011C207.143,148.655,222.257,150.309,233.626,151.082C244.226,151.803,258.363,153.075,268.988,153.030C277.400,152.995,295.905,152.237,296.976,151.327C298.569,149.997,303.740,136.296,304.215,133.637C304.978,129.365,302.987,124.708,304.520,117.872C306.643,107.280,309.143,98.157,307.192,86.641C303.473,65.785,287.894,47.118,273.601,39.809Z"/>
<path class="path-19" d="M193.988,93.437C218.720,95.923,261.628,102.149,291.575,117.430"/>
<path class="path-19" d="M291.575,117.430C300.839,122.140,281.076,119.086,279.196,119.150"/>
<path class="path-19" d="M279.196,119.150C263.698,119.133,199.943,102.771,234.385,116.009"/>
<path class="path-19" d="M234.385,116.009C248.237,121.586,274.710,127.586,287.390,133.105"/>
<path class="path-19" d="M287.390,133.105C289.628,133.972,292.237,136.748,292.771,139.378"/>
<path class="path-19" d="M292.771,139.378C294.719,146.068,283.428,147.318,279.851,147.788"/>
<path class="path-19" d="M279.851,147.788C274.084,147.965,268.070,147.066,262.590,146.466"/>
<path class="path-19" d="M262.590,146.466C255.518,146.334,248.517,145.007,241.454,144.605"/>
<path class="path-19" d="M241.454,144.605C219.911,141.690,198.329,139.305,176.730,136.877"/>
<path class="path-19" d="M176.730,136.877C165.779,136.079,155.826,134.376,143.964,133.691"/>
<path class="path-19" d="M143.964,133.691C142.612,133.619,129.852,134.696,127.319,133.898"/>
<path class="path-19" d="M127.319,133.898C112.841,129.484,125.161,116.623,124.104,110.027"/>
<path class="path-19" d="M124.104,110.027C123.936,108.000,120.003,107.534,120.770,103.933"/>
<path class="path-19" d="M120.770,103.933C121.314,101.563,128.083,97.311,130.416,96.443"/>
<path class="path-19" d="M130.416,96.443C139.719,92.925,150.185,91.364,160.592,90.991"/>
<path class="path-19" d="M160.592,90.991C172.109,90.589,182.519,92.294,193.988,93.437"/>
<path class="path-20" d="M193.988,93.437C218.720,95.923,261.628,102.149,291.575,117.430C300.839,122.140,281.076,119.086,279.196,119.150C263.698,119.133,199.943,102.771,234.385,116.009C248.237,121.586,274.710,127.586,287.390,133.105C289.628,133.972,292.237,136.748,292.771,139.378C294.719,146.068,283.428,147.318,279.851,147.788C274.084,147.965,268.070,147.066,262.590,146.466C255.518,146.334,248.517,145.007,241.454,144.605C219.911,141.690,198.329,139.305,176.730,136.877C165.779,136.079,155.826,134.376,143.964,133.691C142.612,133.619,129.852,134.696,127.319,133.898C112.841,129.484,125.161,116.623,124.104,110.027C123.936,108.000,120.003,107.534,120.770,103.933C121.314,101.563,128.083,97.311,130.416,96.443C139.719,92.925,150.185,91.364,160.592,90.991C172.109,90.589,182.519,92.294,193.988,93.437Z"/>
<path class="path-9" d="M206.017,34.271C254.232,37.216,272.344,50.060,285.372,68.722"/>
<path class="path-9" d="M285.372,68.722C289.585,74.301,301.582,99.982,291.683,105.973"/>
<path class="path-9" d="M291.683,105.973C288.445,107.654,282.710,104.724,280.010,103.242"/>
<path class="path-9" d="M280.010,103.242C270.366,98.214,198.503,81.890,175.671,80.403"/>
<path class="path-9" d="M175.671,80.403C163.603,79.617,152.547,78.874,141.268,81.110"/>
<path class="path-9" d="M141.268,81.110C137.152,81.916,131.934,82.873,128.585,83.715"/>
<path class="path-9" d="M128.585,83.715C121.640,85.479,133.637,65.187,137.079,61.355"/>
<path class="path-9" d="M137.079,61.355C152.991,44.076,181.374,32.765,206.017,34.271"/>
<path class="path-10" d="M206.017,34.271C254.232,37.216,272.344,50.060,285.372,68.722C289.585,74.301,301.582,99.982,291.683,105.973C288.445,107.654,282.710,104.724,280.010,103.242C270.366,98.214,198.503,81.890,175.671,80.403C163.603,79.617,152.547,78.874,141.268,81.110C137.152,81.916,131.934,82.873,128.585,83.715C121.640,85.479,133.637,65.187,137.079,61.355C152.991,44.076,181.374,32.765,206.017,34.271Z"/>
</g>
<g id="left_ear">
<path class="path-0" d="M250.057,180.782C250.034,177.621,251.619,166.193,253.402,163.276C260.005,151.593,278.523,148.496,285.092,156.671C292.659,166.499,280.230,188.934,269.151,194.509C257.269,200.264,250.464,192.219,250.057,180.782M300.236,159.892C297.643,147.457,286.655,137.185,270.954,142.296C254.026,147.807,254.338,171.681,253.397,186.363C253.273,189.660,252.968,193.292,254.040,196.243C257.836,207.246,268.538,210.072,278.064,200.984C287.956,191.351,302.793,174.338,300.236,159.892Z"/>
<path class="path-15" d="M253.402,163.276C260.005,151.593,278.523,148.496,285.092,156.671"/>
<path class="path-15" d="M285.092,156.671C292.659,166.499,280.230,188.934,269.151,194.509"/>
<path class="path-15" d="M269.151,194.509C257.269,200.264,250.464,192.219,250.057,180.782"/>
<path class="path-15" d="M250.057,180.782C250.034,177.621,251.619,166.193,253.402,163.276"/>
<path class="path-16" d="M253.402,163.276C260.005,151.593,278.523,148.496,285.092,156.671C292.659,166.499,280.230,188.934,269.151,194.509C257.269,200.264,250.464,192.219,250.057,180.782C250.034,177.621,251.619,166.193,253.402,163.276Z"/>
</g>
<g id="earrings">
<path class="path-0" d="M278.163,207.264C269.000,211.882,267.887,193.533,271.223,193.785C275.925,195.292,287.148,206.745,278.163,207.264M288.103,199.398C281.492,199.999,278.200,191.042,277.573,187.255C285.107,188.706,294.675,194.024,288.103,199.398M298.884,196.136C296.263,187.982,283.828,183.592,275.955,180.166C273.009,178.884,264.509,189.030,264.138,192.388C263.034,196.538,266.112,219.027,280.200,215.937C285.927,214.413,300.991,202.687,298.884,196.136Z"/>
<path class="path-21" d="M277.573,187.255C285.107,188.706,294.675,194.024,288.103,199.398"/>
<path class="path-21" d="M288.103,199.398C281.492,199.999,278.200,191.042,277.573,187.255"/>
<path class="path-22" d="M277.573,187.255C285.107,188.706,294.675,194.024,288.103,199.398C281.492,199.999,278.200,191.042,277.573,187.255Z"/>
<path class="path-21" d="M271.223,193.785C275.925,195.292,287.148,206.745,278.163,207.264"/>
<path class="path-21" d="M278.163,207.264C269.000,211.882,267.887,193.533,271.223,193.785"/>
<path class="path-22" d="M271.223,193.785C275.925,195.292,287.148,206.745,278.163,207.264C269.000,211.882,267.887,193.533,271.223,193.785Z"/>
</g>
</g>
<g id="jacket">
<path class="path-0" d="M202.406,270.837C205.038,275.181,202.232,285.477,202.192,290.134C200.037,307.182,198.063,323.537,197.217,340.300C197.156,343.343,195.807,348.758,193.613,351.536C190.985,354.863,184.869,357.068,181.421,358.686C177.427,360.493,173.576,354.505,171.909,351.473C170.384,348.701,170.699,342.624,170.910,340.540C171.746,335.454,175.134,325.949,176.790,319.663C178.421,313.655,180.030,307.460,180.983,300.662C181.310,295.175,179.101,288.772,178.194,282.709C178.354,279.439,179.043,277.435,179.126,275.122C178.829,269.813,181.153,268.315,186.224,267.802C191.032,267.658,200.788,265.540,202.406,270.837M259.053,279.947C260.459,276.325,285.862,259.717,289.070,257.947C297.519,253.799,302.171,263.017,302.220,268.557C302.405,277.025,288.446,304.908,289.689,310.860C290.094,313.583,291.832,315.189,293.370,316.981C306.377,333.719,301.684,321.707,315.630,330.761C320.031,333.668,328.171,341.789,330.249,346.525C331.864,350.897,334.140,363.334,330.520,365.785C329.578,366.308,328.210,365.802,327.431,364.424C326.661,363.381,318.494,353.123,316.573,351.999C308.251,346.508,297.105,346.666,289.941,338.697C286.278,334.148,284.079,327.817,280.391,322.758C275.731,316.580,269.932,311.373,266.283,304.514C262.726,298.462,257.117,287.077,259.053,279.947M275.383,255.283C272.359,258.327,266.264,263.123,264.122,264.098C256.472,267.093,254.992,258.004,254.483,252.258C254.215,247.152,257.180,239.912,260.266,235.624C262.967,231.870,267.360,226.794,272.389,226.104C278.652,225.016,289.267,231.553,287.960,238.668C287.561,242.005,279.789,250.848,275.383,255.283M193.833,234.281C198.796,238.474,202.628,243.240,201.310,247.639C200.083,251.731,197.008,253.745,189.763,255.866C178.354,259.205,169.865,242.053,173.562,235.059C176.406,229.679,187.558,228.981,193.833,234.281M328.364,388.023C337.609,377.260,346.415,368.146,344.921,353.408C343.950,344.685,337.289,335.609,330.708,329.868C319.880,320.904,309.000,323.746,301.284,309.835C295.853,300.431,299.827,290.443,301.153,280.106C301.462,276.480,301.359,257.958,301.479,254.640C301.074,251.152,301.852,247.646,301.440,244.441C301.068,240.572,301.589,236.465,300.306,232.797C298.425,226.238,291.578,223.225,286.362,219.939C279.168,215.980,272.935,214.223,264.734,216.030C255.593,218.057,252.322,228.119,249.674,234.848C245.660,245.051,247.695,260.392,247.915,271.355C248.041,277.607,248.660,286.320,249.607,292.130C252.118,309.231,274.187,340.344,288.205,350.650C290.623,352.680,307.239,362.466,311.031,367.080C315.835,372.986,314.223,377.915,314.710,385.301C314.765,387.371,315.259,392.280,317.692,393.331C320.771,394.784,326.740,389.914,328.364,388.023M207.210,233.514C203.774,227.739,198.082,218.148,191.201,217.844C184.954,217.770,175.471,219.175,169.885,222.599C166.431,224.717,161.305,228.652,160.970,232.741C160.336,238.787,162.771,245.988,165.763,250.690C167.586,253.553,172.138,255.587,174.215,258.211C175.250,259.594,178.707,267.260,179.349,269.302C182.815,279.353,180.541,291.239,178.012,300.149C175.595,308.662,166.551,317.559,163.671,325.927C161.260,332.933,158.961,342.259,159.701,350.303C159.807,353.120,162.866,358.762,164.462,362.285C165.812,365.265,167.540,370.893,169.411,372.002C170.682,372.755,183.976,373.455,189.674,371.328C193.654,369.841,197.710,371.010,200.875,362.661C204.885,351.320,205.726,340.331,206.252,328.175C206.627,307.774,212.744,279.012,212.079,266.221C211.767,260.225,212.905,256.231,211.614,247.876C210.965,244.370,209.515,237.387,207.210,233.514Z"/>
<path class="path-1" d="M289.070,257.947C297.519,253.799,302.171,263.017,302.220,268.557"/>
<path class="path-1" d="M302.220,268.557C302.405,277.025,288.446,304.908,289.689,310.860"/>
<path class="path-1" d="M289.689,310.860C290.094,313.583,291.832,315.189,293.370,316.981"/>
<path class="path-1" d="M293.370,316.981C306.377,333.719,301.684,321.707,315.630,330.761"/>
<path class="path-1" d="M315.630,330.761C320.031,333.668,328.171,341.789,330.249,346.525"/>
<path class="path-1" d="M330.249,346.525C331.864,350.897,334.140,363.334,330.520,365.785"/>
<path class="path-1" d="M330.520,365.785C329.578,366.308,328.210,365.802,327.431,364.424"/>
<path class="path-1" d="M327.431,364.424C326.661,363.381,318.494,353.123,316.573,351.999"/>
<path class="path-1" d="M316.573,351.999C308.251,346.508,297.105,346.666,289.941,338.697"/>
<path class="path-1" d="M289.941,338.697C286.278,334.148,284.079,327.817,280.391,322.758"/>
<path class="path-1" d="M280.391,322.758C275.731,316.580,269.932,311.373,266.283,304.514"/>
<path class="path-1" d="M266.283,304.514C262.726,298.462,257.117,287.077,259.053,279.947"/>
<path class="path-1" d="M259.053,279.947C260.459,276.325,285.862,259.717,289.070,257.947"/>
<path class="path-2" d="M289.070,257.947C297.519,253.799,302.171,263.017,302.220,268.557C302.405,277.025,288.446,304.908,289.689,310.860C290.094,313.583,291.832,315.189,293.370,316.981C306.377,333.719,301.684,321.707,315.630,330.761C320.031,333.668,328.171,341.789,330.249,346.525C331.864,350.897,334.140,363.334,330.520,365.785C329.578,366.308,328.210,365.802,327.431,364.424C326.661,363.381,318.494,353.123,316.573,351.999C308.251,346.508,297.105,346.666,289.941,338.697C286.278,334.148,284.079,327.817,280.391,322.758C275.731,316.580,269.932,311.373,266.283,304.514C262.726,298.462,257.117,287.077,259.053,279.947C260.459,276.325,285.862,259.717,289.070,257.947Z"/>
<path class="path-1" d="M186.224,267.802C191.032,267.658,200.788,265.540,202.406,270.837"/>
<path class="path-1" d="M202.406,270.837C205.038,275.181,202.232,285.477,202.192,290.134"/>
<path class="path-1" d="M202.192,290.134C200.037,307.182,198.063,323.537,197.217,340.300"/>
<path class="path-1" d="M197.217,340.300C197.156,343.343,195.807,348.758,193.613,351.536"/>
<path class="path-1" d="M193.613,351.536C190.985,354.863,184.869,357.068,181.421,358.686"/>
<path class="path-1" d="M181.421,358.686C177.427,360.493,173.576,354.505,171.909,351.473"/>
<path class="path-1" d="M171.909,351.473C170.384,348.701,170.699,342.624,170.910,340.540"/>
<path class="path-1" d="M170.910,340.540C171.746,335.454,175.134,325.949,176.790,319.663"/>
<path class="path-1" d="M176.790,319.663C178.421,313.655,180.030,307.460,180.983,300.662"/>
<path class="path-1" d="M180.983,300.662C181.310,295.175,179.101,288.772,178.194,282.709"/>
<path class="path-1" d="M178.194,282.709C178.354,279.439,179.043,277.435,179.126,275.122"/>
<path class="path-1" d="M179.126,275.122C178.829,269.813,181.153,268.315,186.224,267.802"/>
<path class="path-2" d="M186.224,267.802C191.032,267.658,200.788,265.540,202.406,270.837C205.038,275.181,202.232,285.477,202.192,290.134C200.037,307.182,198.063,323.537,197.217,340.300C197.156,343.343,195.807,348.758,193.613,351.536C190.985,354.863,184.869,357.068,181.421,358.686C177.427,360.493,173.576,354.505,171.909,351.473C170.384,348.701,170.699,342.624,170.910,340.540C171.746,335.454,175.134,325.949,176.790,319.663C178.421,313.655,180.030,307.460,180.983,300.662C181.310,295.175,179.101,288.772,178.194,282.709C178.354,279.439,179.043,277.435,179.126,275.122C178.829,269.813,181.153,268.315,186.224,267.802Z"/>
<path class="path-1" d="M272.389,226.104C278.652,225.016,289.267,231.553,287.960,238.668"/>
<path class="path-1" d="M287.960,238.668C287.561,242.005,279.789,250.848,275.383,255.283"/>
<path class="path-1" d="M275.383,255.283C272.359,258.327,266.264,263.123,264.122,264.098"/>
<path class="path-1" d="M264.122,264.098C256.472,267.093,254.992,258.004,254.483,252.258"/>
<path class="path-1" d="M254.483,252.258C254.215,247.152,257.180,239.912,260.266,235.624"/>
<path class="path-1" d="M260.266,235.624C262.967,231.870,267.360,226.794,272.389,226.104"/>
<path class="path-2" d="M272.389,226.104C278.652,225.016,289.267,231.553,287.960,238.668C287.561,242.005,279.789,250.848,275.383,255.283C272.359,258.327,266.264,263.123,264.122,264.098C256.472,267.093,254.992,258.004,254.483,252.258C254.215,247.152,257.180,239.912,260.266,235.624C262.967,231.870,267.360,226.794,272.389,226.104Z"/>
<path class="path-1" d="M193.833,234.281C198.796,238.474,202.628,243.240,201.310,247.639"/>
<path class="path-1" d="M201.310,247.639C200.083,251.731,197.008,253.745,189.763,255.866"/>
<path class="path-1" d="M189.763,255.866C178.354,259.205,169.865,242.053,173.562,235.059"/>
<path class="path-1" d="M173.562,235.059C176.406,229.679,187.558,228.981,193.833,234.281"/>
<path class="path-2" d="M193.833,234.281C198.796,238.474,202.628,243.240,201.310,247.639C200.083,251.731,197.008,253.745,189.763,255.866C178.354,259.205,169.865,242.053,173.562,235.059C176.406,229.679,187.558,228.981,193.833,234.281Z"/>
</g>
<g id="left_arm">
<path class="path-0" d="M291.019,459.692C288.572,454.719,289.096,447.115,295.997,445.625C301.085,444.486,323.448,448.715,327.167,452.460C333.688,458.402,329.619,472.021,321.510,475.113C311.535,478.405,295.466,468.494,291.019,459.692M279.516,276.423C280.393,273.226,288.864,263.064,293.897,264.184C296.819,264.834,298.222,269.839,299.220,272.502C301.881,280.818,304.543,289.469,306.872,298.119C313.194,320.741,317.333,343.405,322.177,365.988C323.920,375.315,324.311,387.586,327.634,395.931C331.538,405.409,337.584,402.345,340.474,408.573C341.781,411.578,341.140,417.224,343.136,421.881C346.130,429.201,351.785,433.194,354.446,437.851C356.111,440.512,356.750,443.375,353.117,444.173C351.128,445.259,345.707,444.752,343.684,444.873C336.848,443.486,330.011,442.086,323.256,440.366C314.301,438.487,287.399,436.096,282.801,430.116C275.738,420.592,286.668,409.414,288.008,399.924C288.669,396.928,292.183,352.969,291.567,350.019C290.913,343.163,287.387,337.131,285.841,330.057C284.214,320.430,282.539,310.147,281.179,300.115C280.223,291.877,276.733,285.067,279.516,276.423M305.541,254.536C303.213,249.877,295.893,241.561,289.904,242.890C284.914,244.222,284.249,250.210,283.582,254.203C281.920,264.184,279.924,272.502,279.924,282.149C279.590,289.136,280.257,295.458,280.921,302.111C281.586,311.427,279.590,329.392,279.924,340.038C279.924,349.686,282.253,359.667,281.586,367.985C279.590,387.613,271.273,406.246,271.938,425.874C271.939,435.855,274.600,435.855,276.929,443.840C278.592,449.828,277.263,456.150,279.590,461.805C285.579,476.776,302.880,490.416,319.847,487.091C335.483,484.096,336.150,467.129,344.466,458.146C351.786,450.161,366.424,454.154,368.420,445.835C370.416,438.849,360.727,431.226,357.110,425.874C349.938,415.934,355.656,413.655,352.136,406.029C349.577,400.391,342.174,395.296,338.513,388.063C336.470,384.696,335.250,378.344,333.837,373.973C331.032,364.014,328.005,352.689,326.285,342.034C324.557,329.727,324.195,318.746,320.845,306.103C318.167,295.462,310.200,262.852,305.541,254.536Z"/>
<path class="path-1" d="M293.897,264.184C296.819,264.834,298.222,269.839,299.220,272.502"/>
<path class="path-1" d="M299.220,272.502C301.881,280.818,304.543,289.469,306.872,298.119"/>
<path class="path-1" d="M306.872,298.119C313.194,320.741,317.333,343.405,322.177,365.988"/>
<path class="path-1" d="M322.177,365.988C323.920,375.315,324.311,387.586,327.634,395.931"/>
<path class="path-1" d="M327.634,395.931C331.538,405.409,337.584,402.345,340.474,408.573"/>
<path class="path-1" d="M340.474,408.573C341.781,411.578,341.140,417.224,343.136,421.881"/>
<path class="path-1" d="M343.136,421.881C346.130,429.201,351.785,433.194,354.446,437.851"/>
<path class="path-1" d="M354.446,437.851C356.111,440.512,356.750,443.375,353.117,444.173"/>
<path class="path-1" d="M353.117,444.173C351.128,445.259,345.707,444.752,343.684,444.873"/>
<path class="path-1" d="M343.684,444.873C336.848,443.486,330.011,442.086,323.256,440.366"/>
<path class="path-1" d="M323.256,440.366C314.301,438.487,287.399,436.096,282.801,430.116"/>
<path class="path-1" d="M282.801,430.116C275.738,420.592,286.668,409.414,288.008,399.924"/>
<path class="path-1" d="M288.008,399.924C288.669,396.928,292.183,352.969,291.567,350.019"/>
<path class="path-1" d="M291.567,350.019C290.913,343.163,287.387,337.131,285.841,330.057"/>
<path class="path-1" d="M285.841,330.057C284.214,320.430,282.539,310.147,281.179,300.115"/>
<path class="path-1" d="M281.179,300.115C280.223,291.877,276.733,285.067,279.516,276.423"/>
<path class="path-1" d="M279.516,276.423C280.393,273.226,288.864,263.064,293.897,264.184"/>
<path class="path-2" d="M293.897,264.184C296.819,264.834,298.222,269.839,299.220,272.502C301.881,280.818,304.543,289.469,306.872,298.119C313.194,320.741,317.333,343.405,322.177,365.988C323.920,375.315,324.311,387.586,327.634,395.931C331.538,405.409,337.584,402.345,340.474,408.573C341.781,411.578,341.140,417.224,343.136,421.881C346.130,429.201,351.785,433.194,354.446,437.851C356.111,440.512,356.750,443.375,353.117,444.173C351.128,445.259,345.707,444.752,343.684,444.873C336.848,443.486,330.011,442.086,323.256,440.366C314.301,438.487,287.399,436.096,282.801,430.116C275.738,420.592,286.668,409.414,288.008,399.924C288.669,396.928,292.183,352.969,291.567,350.019C290.913,343.163,287.387,337.131,285.841,330.057C284.214,320.430,282.539,310.147,281.179,300.115C280.223,291.877,276.733,285.067,279.516,276.423C280.393,273.226,288.864,263.064,293.897,264.184Z"/>
<path class="path-15" d="M295.997,445.625C301.085,444.486,323.448,448.715,327.167,452.460"/>
<path class="path-15" d="M327.167,452.460C333.688,458.402,329.619,472.021,321.510,475.113"/>
<path class="path-15" d="M321.510,475.113C311.535,478.405,295.466,468.494,291.019,459.692"/>
<path class="path-15" d="M291.019,459.692C288.572,454.719,289.096,447.115,295.997,445.625"/>
<path class="path-16" d="M295.997,445.625C301.085,444.486,323.448,448.715,327.167,452.460C333.688,458.402,329.619,472.021,321.510,475.113C311.535,478.405,295.466,468.494,291.019,459.692C288.572,454.719,289.096,447.115,295.997,445.625Z"/>
</g>
<g id="bone">
<g id="bone1_clothes">
<path class="path-23" d="M235.212,387.717C235.214,387.711,248.619,330.266,248.621,330.260C248.621,330.266,246.244,389.207,246.243,389.213C246.242,389.212,235.213,387.717,235.212,387.717"/>
</g>
<g id="bone2_clothes">
<path class="path-23" d="M232.689,328.194C232.688,328.187,227.376,255.855,227.375,255.848C227.377,255.855,246.261,325.880,246.263,325.887C246.262,325.887,232.690,328.194,232.689,328.194"/>
</g>
<g id="bone3_neck">
<path class="path-23" d="M237.642,253.295C237.641,253.291,226.909,212.995,226.908,212.991C226.908,212.995,231.152,254.479,231.152,254.483C231.153,254.483,237.641,253.295,237.642,253.295"/>
</g>
<g id="bone4_head">
<path class="path-23" d="M230.412,211.791C230.413,211.784,243.646,134.849,243.647,134.841C243.647,134.849,242.827,212.908,242.826,212.916C242.825,212.916,230.413,211.791,230.412,211.791"/>
</g>
<g id="bone5_left_arm">
<path class="path-23" d="M297.594,253.974C297.598,253.982,338.141,337.087,338.145,337.095C338.140,337.087,284.063,262.082,284.058,262.074C284.059,262.073,297.593,253.975,297.594,253.974"/>
</g>
<g id="bone6_left_arm">
<path class="path-23" d="M300.868,348.900C300.869,348.907,304.413,412.545,304.413,412.551C304.414,412.545,311.306,349.182,311.306,349.175C311.305,349.175,300.869,348.900,300.868,348.900"/>
</g>
<g id="bone7_right_arm">
<path class="path-23" d="M169.138,269.614C169.136,269.626,148.913,383.341,148.911,383.352C148.915,383.341,186.826,274.242,186.830,274.231C186.828,274.230,169.139,269.615,169.138,269.614"/>
</g>
<g id="bone8_right_arm">
<path class="path-23" d="M157.141,379.779C157.143,379.785,181.361,434.158,181.363,434.164C181.360,434.159,146.713,385.759,146.710,385.754C146.711,385.753,157.140,379.780,157.141,379.779"/>
</g>
<g id="bone9_left_leg">
<path class="path-23" d="M271.837,384.382C271.839,384.392,292.945,486.195,292.947,486.205C292.943,486.196,254.268,389.693,254.264,389.684C254.266,389.683,271.836,384.382,271.837,384.382"/>
</g>
<g id="bone10_right_leg">
<path class="path-23" d="M209.554,384.760C209.553,384.770,200.400,483.736,200.399,483.746C200.402,483.737,224.834,387.398,224.837,387.388C224.835,387.388,209.556,384.760,209.554,384.760"/>
</g>
<g id="bone11_hair">
<path class="path-23" d="M234.194,155.805C234.196,155.813,255.531,233.107,255.533,233.114C255.530,233.107,220.409,161.023,220.406,161.016C220.407,161.016,234.192,155.806,234.194,155.805"/>
</g>
<g id="bone12_left_leg_S">
<path class="path-23" d="M435.158,222.230C435.165,222.231,507.293,227.819,507.300,227.819C507.293,227.818,437.063,210.455,437.056,210.453C437.056,210.455,435.158,222.229,435.158,222.230"/>
</g>
<g id="bone13_right_leg_S">
<path class="path-23" d="M494.862,210.851C494.856,210.854,426.158,233.531,426.151,233.533C426.158,233.532,497.648,222.450,497.655,222.449C497.655,222.448,494.863,210.853,494.862,210.851"/>
</g>
<g id="bone14_left_arm_S">
<path class="path-23" d="M557.325,213.968C557.322,213.962,528.469,147.620,528.466,147.614C528.468,147.621,546.028,217.801,546.030,217.808C546.031,217.808,557.323,213.969,557.325,213.968"/>
</g>
<g id="bone15_jacket_S">
<path class="path-23" d="M609.573,218.811C609.576,218.804,639.196,152.802,639.199,152.795C639.195,152.801,599.133,213.040,599.129,213.046C599.130,213.047,609.572,218.810,609.573,218.811"/>
</g>
<g id="bone16_pupils_S">
<path class="path-23" d="M442.198,337.942C442.198,337.935,443.494,265.602,443.494,265.595C443.493,265.602,430.330,336.739,430.329,336.746C430.330,336.746,442.196,337.942,442.198,337.942"/>
</g>
<g id="bone17_eyelids_S">
<path class="path-23" d="M496.843,331.489C496.836,331.489,424.521,333.562,424.514,333.562C424.521,333.563,496.193,343.400,496.201,343.401C496.201,343.400,496.843,331.490,496.843,331.489"/>
</g>
<g id="bone18_face_S">
<path class="path-23" d="M553.735,344.243C553.742,344.240,620.440,316.222,620.447,316.219C620.440,316.221,550.045,332.899,550.038,332.901C550.038,332.902,553.735,344.242,553.735,344.243"/>
</g>
</g>
</g>
<style>
.path-0{fill:#000000;fill-rule:evenodd;stroke:none;}
.path-1{fill:none;stroke:#a60d3f;stroke-width:1;stroke-linecap:butt;stroke-linejoin:round;}
.path-2{fill:#a60d3f;fill-rule:evenodd;stroke:none;}
.path-3{fill:none;stroke:#d88e4b;stroke-width:1;stroke-linecap:butt;stroke-linejoin:round;}
.path-4{fill:#d88e4b;fill-rule:evenodd;stroke:none;}
.path-5{fill:none;stroke:#6e2353;stroke-width:1;stroke-linecap:butt;stroke-linejoin:round;}
.path-6{fill:#6e2353;fill-rule:evenodd;stroke:none;}
.path-7{fill:none;stroke:#392966;stroke-width:1;stroke-linecap:butt;stroke-linejoin:round;}
.path-8{fill:#392966;fill-rule:evenodd;stroke:none;}
.path-9{fill:none;stroke:#cc9bc5;stroke-width:1;stroke-linecap:butt;stroke-linejoin:round;}
.path-10{fill:#cc9bc5;fill-rule:evenodd;stroke:none;}
.path-11{fill:none;stroke:#620527;stroke-width:1;stroke-linecap:butt;stroke-linejoin:round;}
.path-12{fill:#620527;fill-rule:evenodd;stroke:none;}
.path-13{fill:none;stroke:#6a3661;stroke-width:1;stroke-linecap:butt;stroke-linejoin:round;}
.path-14{fill:#6a3661;fill-rule:evenodd;stroke:none;}
.path-15{fill:none;stroke:#f8a087;stroke-width:1;stroke-linecap:butt;stroke-linejoin:round;}
.path-16{fill:#f8a087;fill-rule:evenodd;stroke:none;}
.path-17{fill:none;stroke:#ffffff;stroke-width:1;stroke-linecap:butt;stroke-linejoin:round;}
.path-18{fill:#ffffff;fill-rule:evenodd;stroke:none;}
.path-19{fill:none;stroke:#d89f4a;stroke-width:1;stroke-linecap:butt;stroke-linejoin:round;}
.path-20{fill:#d89f4a;fill-rule:evenodd;stroke:none;}
.path-21{fill:none;stroke:#fafd5b;stroke-width:1;stroke-linecap:butt;stroke-linejoin:round;}
.path-22{fill:#fafd5b;fill-rule:evenodd;stroke:none;}
.path-23{fill:none;stroke:#00ff42;stroke-width:8;stroke-linecap:round;stroke-linejoin:round;}
.path-24{fill:none;stroke:#000000;stroke-width:1;stroke-linecap:butt;stroke-linejoin:round;}
.path-25{fill:none;stroke:#ececec;stroke-width:1;stroke-linecap:butt;stroke-linejoin:round;}
.path-26{fill:#ececec;fill-rule:evenodd;stroke:none;}
.path-27{fill:none;stroke:#808080;stroke-width:1;stroke-linecap:butt;stroke-linejoin:round;}
.path-28{fill:#808080;fill-rule:evenodd;stroke:none;}
.path-29{fill:none;stroke:#282828;stroke-width:1;stroke-linecap:butt;stroke-linejoin:round;}
.path-30{fill:#282828;fill-rule:evenodd;stroke:none;}
</style>
</svg>
