<svg version="1.1" id="Frame_167" xmlns="http://www.w3.org/2000/svg" xmlns:xlink="http://www.w3.org/1999/xlink" width="480px" height="720px">
<g id="main_bone">
<g id="right_arm">
<path class="path-0" d="M174.126,270.172C175.458,267.511,178.075,262.017,181.778,260.525C188.182,257.943,193.652,263.933,194.431,268.509C196.093,276.447,190.936,287.396,188.470,295.289C182.390,314.329,175.637,333.084,171.132,352.015C170.600,355.317,165.808,376.634,165.808,373.973C165.476,380.626,172.130,386.283,174.459,391.939C177.454,399.590,174.791,406.910,172.795,413.897C168.138,428.535,168.471,433.858,167.804,448.165C167.804,450.492,167.473,458.146,163.812,458.146C160.487,458.146,160.153,452.157,159.488,449.828C159.155,447.167,156.825,441.510,157.492,439.182C157.823,435.190,162.483,436.188,157.492,427.870C151.170,417.555,139.526,409.240,136.532,395.931C134.536,385.285,140.191,375.969,143.186,365.988C149.508,344.695,156.494,323.404,163.812,302.111C167.805,291.132,168.802,281.484,174.126,270.172M193.754,262.188C193.755,253.538,190.761,245.885,180.115,249.546C163.481,255.200,158.822,281.484,154.165,296.122C147.512,316.084,141.855,336.046,136.199,356.007C133.870,364.657,130.544,368.982,129.212,373.973C127.549,379.628,127.881,388.280,128.214,393.935C128.214,411.567,133.869,412.234,140.856,425.874C144.517,433.859,140.525,438.849,142.852,445.835C144.517,450.492,148.176,453.820,150.837,457.813C153.166,461.805,153.499,464.135,155.162,467.793C157.158,472.119,163.481,481.767,169.136,479.771C173.793,478.108,173.793,469.790,174.126,465.797C174.459,459.809,178.119,436.853,179.450,429.866C181.778,418.554,187.435,406.245,185.770,393.935C184.440,384.619,176.122,377.965,176.456,367.985C176.787,362.661,180.115,354.011,181.113,348.023C182.776,338.375,182.776,328.061,184.772,318.081C188.099,300.448,194.421,280.487,193.754,262.188Z"/>
<path class="path-1" d="M181.778,260.525C188.182,257.943,193.652,263.933,194.431,268.509"/>
<path class="path-1" d="M194.431,268.509C196.093,276.447,190.936,287.396,188.470,295.289"/>
<path class="path-1" d="M188.470,295.289C182.390,314.329,175.637,333.084,171.132,352.015"/>
<path class="path-1" d="M171.132,352.015C170.600,355.317,165.808,376.634,165.808,373.973"/>
<path class="path-1" d="M165.808,373.973C165.476,380.626,172.130,386.283,174.459,391.939"/>
<path class="path-1" d="M174.459,391.939C177.454,399.590,174.791,406.910,172.795,413.897"/>
<path class="path-1" d="M172.795,413.897C168.138,428.535,168.471,433.858,167.804,448.165"/>
<path class="path-1" d="M167.804,448.165C167.804,450.492,167.473,458.146,163.812,458.146"/>
<path class="path-1" d="M163.812,458.146C160.487,458.146,160.153,452.157,159.488,449.828"/>
<path class="path-1" d="M159.488,449.828C159.155,447.167,156.825,441.510,157.492,439.182"/>
<path class="path-1" d="M157.492,439.182C157.823,435.190,162.483,436.188,157.492,427.870"/>
<path class="path-1" d="M157.492,427.870C151.170,417.555,139.526,409.240,136.532,395.931"/>
<path class="path-1" d="M136.532,395.931C134.536,385.285,140.191,375.969,143.186,365.988"/>
<path class="path-1" d="M143.186,365.988C149.508,344.695,156.494,323.404,163.812,302.111"/>
<path class="path-1" d="M163.812,302.111C167.805,291.132,168.802,281.484,174.126,270.172"/>
<path class="path-1" d="M174.126,270.172C175.458,267.511,178.075,262.017,181.778,260.525"/>
<path class="path-2" d="M181.778,260.525C188.182,257.943,193.652,263.933,194.431,268.509C196.093,276.447,190.936,287.396,188.470,295.289C182.390,314.329,175.637,333.084,171.132,352.015C170.600,355.317,165.808,376.634,165.808,373.973C165.476,380.626,172.130,386.283,174.459,391.939C177.454,399.590,174.791,406.910,172.795,413.897C168.138,428.535,168.471,433.858,167.804,448.165C167.804,450.492,167.473,458.146,163.812,458.146C160.487,458.146,160.153,452.157,159.488,449.828C159.155,447.167,156.825,441.510,157.492,439.182C157.823,435.190,162.483,436.188,157.492,427.870C151.170,417.555,139.526,409.240,136.532,395.931C134.536,385.285,140.191,375.969,143.186,365.988C149.508,344.695,156.494,323.404,163.812,302.111C167.805,291.132,168.802,281.484,174.126,270.172C175.458,267.511,178.075,262.017,181.778,260.525Z"/>
</g>
<g id="layer_left_leg">
<g id="left_heel">
<path class="path-0" d="M255.956,632.467C248.992,620.807,262.813,601.768,274.166,599.510C291.746,595.830,305.070,621.580,302.892,627.883C299.232,637.486,282.406,637.617,273.647,637.628C269.021,637.482,258.162,636.335,255.956,632.467M302.546,598.353C292.536,588.665,269.794,590.503,258.832,596.888C236.264,609.480,231.524,651.190,264.786,650.328C276.650,650.075,302.851,647.771,309.916,640.708C316.185,635.143,314.339,625.503,312.449,617.897C310.522,611.726,307.266,603.054,302.546,598.353Z"/>
<path class="path-3" d="M274.166,599.510C291.746,595.830,305.070,621.580,302.892,627.883"/>
<path class="path-3" d="M302.892,627.883C299.232,637.486,282.406,637.617,273.647,637.628"/>
<path class="path-3" d="M273.647,637.628C269.021,637.482,258.162,636.335,255.956,632.467"/>
<path class="path-3" d="M255.956,632.467C248.992,620.807,262.813,601.768,274.166,599.510"/>
<path class="path-4" d="M274.166,599.510C291.746,595.830,305.070,621.580,302.892,627.883C299.232,637.486,282.406,637.617,273.647,637.628C269.021,637.482,258.162,636.335,255.956,632.467C248.992,620.807,262.813,601.768,274.166,599.510Z"/>
</g>
<g id="left_leg">
<path class="path-0" d="M238.898,405.789C240.604,401.168,250.098,404.789,253.973,404.581C259.900,404.550,273.266,402.348,278.080,406.002C286.463,411.935,288.165,440.400,288.539,450.273C288.827,481.451,290.840,510.669,291.846,540.761C291.916,547.965,291.770,555.411,292.192,562.462C292.746,567.895,292.396,574.392,295.535,578.473C296.646,580.604,301.039,580.578,300.758,582.788C299.081,591.554,292.000,586.448,287.444,590.868C279.596,598.029,265.367,604.819,256.099,602.143C249.654,600.514,238.911,592.753,236.600,586.615C234.156,580.122,232.842,572.235,231.841,565.504C227.783,538.217,243.171,480.271,236.944,451.378C232.899,432.608,241.857,431.897,248.422,418.629C249.452,416.547,238.328,419.011,236.730,417.280C234.427,415.155,237.683,408.599,238.898,405.789M285.117,397.272C278.824,392.459,261.320,394.531,253.973,394.933C249.988,395.136,237.509,392.100,234.569,393.908C216.732,404.878,223.988,444.650,225.784,461.628C225.971,466.433,224.303,489.329,223.886,495.788C223.729,523.538,217.712,547.256,219.503,574.948C219.923,583.104,219.505,591.185,222.455,598.680C229.913,617.239,247.178,620.425,270.116,618.935C282.333,618.154,308.897,613.054,317.222,589.996C320.710,580.321,314.690,567.443,313.188,564.300C310.868,559.450,307.405,554.773,306.067,549.169C301.227,531.608,307.585,512.772,306.233,494.501C304.533,471.227,304.651,412.285,285.117,397.272Z"/>
<path class="path-7" d="M253.973,404.581C259.900,404.550,273.266,402.348,278.080,406.002"/>
<path class="path-7" d="M278.080,406.002C286.463,411.935,288.165,440.400,288.539,450.273"/>
<path class="path-7" d="M288.539,450.273C288.827,481.451,290.840,510.669,291.846,540.761"/>
<path class="path-7" d="M291.846,540.761C291.916,547.965,291.770,555.411,292.192,562.462"/>
<path class="path-7" d="M292.192,562.462C292.746,567.895,292.396,574.392,295.535,578.473"/>
<path class="path-7" d="M295.535,578.473C296.646,580.604,301.039,580.578,300.758,582.788"/>
<path class="path-7" d="M300.758,582.788C299.081,591.554,292.000,586.448,287.444,590.868"/>
<path class="path-7" d="M287.444,590.868C279.596,598.029,265.367,604.819,256.099,602.143"/>
<path class="path-7" d="M256.099,602.143C249.654,600.514,238.911,592.753,236.600,586.615"/>
<path class="path-7" d="M236.600,586.615C234.156,580.122,232.842,572.235,231.841,565.504"/>
<path class="path-7" d="M231.841,565.504C227.783,538.217,243.171,480.271,236.944,451.378"/>
<path class="path-7" d="M236.944,451.378C232.899,432.608,241.857,431.897,248.422,418.629"/>
<path class="path-7" d="M248.422,418.629C249.452,416.547,238.328,419.011,236.730,417.280"/>
<path class="path-7" d="M236.730,417.280C234.427,415.155,237.683,408.599,238.898,405.789"/>
<path class="path-7" d="M238.898,405.789C240.604,401.168,250.098,404.789,253.973,404.581"/>
<path class="path-8" d="M253.973,404.581C259.900,404.550,273.266,402.348,278.080,406.002C286.463,411.935,288.165,440.400,288.539,450.273C288.827,481.451,290.840,510.669,291.846,540.761C291.916,547.965,291.770,555.411,292.192,562.462C292.746,567.895,292.396,574.392,295.535,578.473C296.646,580.604,301.039,580.578,300.758,582.788C299.081,591.554,292.000,586.448,287.444,590.868C279.596,598.029,265.367,604.819,256.099,602.143C249.654,600.514,238.911,592.753,236.600,586.615C234.156,580.122,232.842,572.235,231.841,565.504C227.783,538.217,243.171,480.271,236.944,451.378C232.899,432.608,241.857,431.897,248.422,418.629C249.452,416.547,238.328,419.011,236.730,417.280C234.427,415.155,237.683,408.599,238.898,405.789C240.604,401.168,250.098,404.789,253.973,404.581Z"/>
</g>
<g id="left_toe">
<path class="path-0" d="M251.571,660.853C224.649,655.617,230.509,620.262,250.765,613.486C271.998,606.509,292.006,618.144,298.042,630.801C302.004,637.925,303.614,645.743,299.720,653.118C291.706,665.656,264.652,663.318,251.571,660.853M314.196,626.881C310.892,612.281,298.984,599.239,287.013,595.466C258.911,586.712,233.991,594.380,224.840,619.944C219.052,634.562,222.351,651.022,232.132,663.330C239.857,672.453,266.514,673.709,277.896,672.738C288.039,671.164,300.690,668.544,307.758,660.023C312.792,654.133,315.823,634.278,314.196,626.881Z"/>
<path class="path-3" d="M250.765,613.486C271.998,606.509,292.006,618.144,298.042,630.801"/>
<path class="path-3" d="M298.042,630.801C302.004,637.925,303.614,645.743,299.720,653.118"/>
<path class="path-3" d="M299.720,653.118C291.706,665.656,264.652,663.318,251.571,660.853"/>
<path class="path-3" d="M251.571,660.853C224.649,655.617,230.509,620.262,250.765,613.486"/>
<path class="path-4" d="M250.765,613.486C271.998,606.509,292.006,618.144,298.042,630.801C302.004,637.925,303.614,645.743,299.720,653.118C291.706,665.656,264.652,663.318,251.571,660.853C224.649,655.617,230.509,620.262,250.765,613.486Z"/>
</g>
<g id="left_sole">
<path class="path-0" d="M255.666,676.149C244.794,675.613,241.338,661.963,240.179,666.950C239.426,670.192,248.100,673.278,252.167,674.436C261.143,677.331,276.812,676.040,285.949,671.717C288.852,670.619,298.155,667.975,298.182,668.221C298.634,672.377,287.809,672.528,284.227,672.957C280.636,673.742,256.592,675.974,255.666,676.149M240.390,667.298C245.833,665.330,256.958,668.929,261.177,669.947C278.289,674.076,287.663,665.130,295.566,665.087C296.434,665.091,299.555,663.533,299.726,665.892C300.285,673.610,269.664,678.644,254.494,673.859C247.609,672.324,238.464,667.994,240.390,667.298M304.786,658.833C301.595,655.742,283.528,661.998,265.766,662.252C257.304,662.398,235.875,652.003,230.486,661.814C229.386,663.827,230.153,670.972,231.839,672.460C243.302,682.871,297.471,679.811,303.590,674.702C305.622,673.005,308.439,662.370,304.786,658.833Z"/>
<path class="path-5" d="M240.179,666.950C239.426,670.192,248.100,673.278,252.167,674.436"/>
<path class="path-5" d="M252.167,674.436C261.143,677.331,276.812,676.040,285.949,671.717"/>
<path class="path-5" d="M285.949,671.717C288.852,670.619,298.155,667.975,298.182,668.221"/>
<path class="path-5" d="M298.182,668.221C298.634,672.377,287.809,672.528,284.227,672.957"/>
<path class="path-5" d="M284.227,672.957C280.636,673.742,256.592,675.974,255.666,676.149"/>
<path class="path-5" d="M255.666,676.149C244.794,675.613,241.338,661.963,240.179,666.950"/>
<path class="path-6" d="M240.179,666.950C239.426,670.192,248.100,673.278,252.167,674.436C261.143,677.331,276.812,676.040,285.949,671.717C288.852,670.619,298.155,667.975,298.182,668.221C298.634,672.377,287.809,672.528,284.227,672.957C280.636,673.742,256.592,675.974,255.666,676.149C244.794,675.613,241.338,661.963,240.179,666.950Z"/>
<path class="path-5" d="M261.177,669.947C278.289,674.076,287.663,665.130,295.566,665.087"/>
<path class="path-5" d="M295.566,665.087C296.434,665.091,299.555,663.533,299.726,665.892"/>
<path class="path-5" d="M299.726,665.892C300.285,673.610,269.664,678.644,254.494,673.859"/>
<path class="path-5" d="M254.494,673.859C247.609,672.324,238.464,667.994,240.390,667.298"/>
<path class="path-5" d="M240.390,667.298C245.833,665.330,256.958,668.929,261.177,669.947"/>
<path class="path-6" d="M261.177,669.947C278.289,674.076,287.663,665.130,295.566,665.087C296.434,665.091,299.555,663.533,299.726,665.892C300.285,673.610,269.664,678.644,254.494,673.859C247.609,672.324,238.464,667.994,240.390,667.298C245.833,665.330,256.958,668.929,261.177,669.947Z"/>
</g>
</g>
<g id="layer_right_leg">
<g id="right_sole">
<path class="path-0" d="M189.516,668.407C190.974,668.739,206.040,668.641,207.705,668.643C209.072,668.667,217.529,668.648,218.694,668.563C219.411,668.530,226.739,668.305,227.297,668.798C226.911,668.236,218.909,669.798,218.435,669.809C217.545,669.866,191.918,669.709,191.622,669.811C190.393,669.852,179.457,668.785,178.790,667.817C179.898,667.278,187.843,668.023,189.516,668.407M226.669,662.495C226.706,662.765,225.224,664.240,224.816,664.235C223.986,664.227,211.797,665.631,210.711,665.356C209.472,665.267,201.451,665.258,200.333,665.202C198.055,665.088,181.284,664.346,179.273,663.298C179.170,663.219,178.821,662.778,178.825,662.706C178.852,662.420,185.375,663.520,186.466,663.529C188.182,663.543,200.969,662.382,202.727,662.320C204.616,662.254,218.316,662.561,220.252,662.399C220.554,662.381,226.540,661.817,226.669,662.495M232.019,658.704C221.456,655.694,212.857,659.665,203.490,659.895C196.458,660.093,182.898,658.372,174.404,660.375C173.100,660.683,170.631,660.707,170.274,662.078C169.814,663.864,173.145,667.660,175.305,669.086C177.982,670.853,183.565,670.890,185.779,671.229C197.004,673.364,211.255,672.205,222.831,671.801C231.376,671.510,233.509,668.059,234.371,663.964C234.727,662.272,235.305,659.594,232.019,658.704Z"/>
<path class="path-24" d="M189.516,668.407C190.974,668.739,206.040,668.641,207.705,668.643"/>
<path class="path-24" d="M207.705,668.643C209.072,668.667,217.529,668.648,218.694,668.563"/>
<path class="path-24" d="M218.694,668.563C219.411,668.530,226.739,668.305,227.297,668.798"/>
<path class="path-24" d="M227.297,668.798C226.911,668.236,218.909,669.798,218.435,669.809"/>
<path class="path-24" d="M218.435,669.809C217.545,669.866,191.918,669.709,191.622,669.811"/>
<path class="path-24" d="M191.622,669.811C190.393,669.852,179.457,668.785,178.790,667.817"/>
<path class="path-24" d="M178.790,667.817C179.898,667.278,187.843,668.023,189.516,668.407"/>
<path class="path-0" d="M189.516,668.407C190.974,668.739,206.040,668.641,207.705,668.643C209.072,668.667,217.529,668.648,218.694,668.563C219.411,668.530,226.739,668.305,227.297,668.798C226.911,668.236,218.909,669.798,218.435,669.809C217.545,669.866,191.918,669.709,191.622,669.811C190.393,669.852,179.457,668.785,178.790,667.817C179.898,667.278,187.843,668.023,189.516,668.407Z"/>
<path class="path-24" d="M186.466,663.529C188.182,663.543,200.969,662.382,202.727,662.320"/>
<path class="path-24" d="M202.727,662.320C204.616,662.254,218.316,662.561,220.252,662.399"/>
<path class="path-24" d="M220.252,662.399C220.554,662.381,226.540,661.817,226.669,662.495"/>
<path class="path-24" d="M226.669,662.495C226.706,662.765,225.224,664.240,224.816,664.235"/>
<path class="path-24" d="M224.816,664.235C223.986,664.227,211.797,665.631,210.711,665.356"/>
<path class="path-24" d="M210.711,665.356C209.472,665.267,201.451,665.258,200.333,665.202"/>
<path class="path-24" d="M200.333,665.202C198.055,665.088,181.284,664.346,179.273,663.298"/>
<path class="path-24" d="M179.273,663.298C179.170,663.219,178.821,662.778,178.825,662.706"/>
<path class="path-24" d="M178.825,662.706C178.852,662.420,185.375,663.520,186.466,663.529"/>
<path class="path-0" d="M186.466,663.529C188.182,663.543,200.969,662.382,202.727,662.320C204.616,662.254,218.316,662.561,220.252,662.399C220.554,662.381,226.540,661.817,226.669,662.495C226.706,662.765,225.224,664.240,224.816,664.235C223.986,664.227,211.797,665.631,210.711,665.356C209.472,665.267,201.451,665.258,200.333,665.202C198.055,665.088,181.284,664.346,179.273,663.298C179.170,663.219,178.821,662.778,178.825,662.706C178.852,662.420,185.375,663.520,186.466,663.529Z"/>
</g>
<g id="right_heel">
<path class="path-0" d="M185.058,606.679C185.797,590.691,187.020,578.309,206.522,575.467C215.261,574.033,231.919,576.774,236.736,585.221C239.256,589.396,238.495,595.527,238.729,599.990C239.173,607.236,243.538,621.247,233.320,622.892C232.667,623.062,214.697,623.271,209.088,623.388C201.693,624.229,194.021,624.715,188.681,619.589C186.079,616.540,184.818,610.314,185.058,606.679M246.129,583.550C242.265,573.316,228.155,567.595,218.250,569.058C205.428,570.793,192.296,566.531,183.942,578.534C177.541,587.729,176.743,604.618,178.645,615.347C179.371,620.380,182.550,629.559,186.731,632.346C189.796,634.296,194.534,633.732,198.158,633.739C215.906,634.058,247.667,640.156,247.269,613.675C247.097,607.003,248.101,588.828,246.129,583.550Z"/>
<path class="path-3" d="M206.522,575.467C215.261,574.033,231.919,576.774,236.736,585.221"/>
<path class="path-3" d="M236.736,585.221C239.256,589.396,238.495,595.527,238.729,599.990"/>
<path class="path-3" d="M238.729,599.990C239.173,607.236,243.538,621.247,233.320,622.892"/>
<path class="path-3" d="M233.320,622.892C232.667,623.062,214.697,623.271,209.088,623.388"/>
<path class="path-3" d="M209.088,623.388C201.693,624.229,194.021,624.715,188.681,619.589"/>
<path class="path-3" d="M188.681,619.589C186.079,616.540,184.818,610.314,185.058,606.679"/>
<path class="path-3" d="M185.058,606.679C185.797,590.691,187.020,578.309,206.522,575.467"/>
<path class="path-4" d="M206.522,575.467C215.261,574.033,231.919,576.774,236.736,585.221C239.256,589.396,238.495,595.527,238.729,599.990C239.173,607.236,243.538,621.247,233.320,622.892C232.667,623.062,214.697,623.271,209.088,623.388C201.693,624.229,194.021,624.715,188.681,619.589C186.079,616.540,184.818,610.314,185.058,606.679C185.797,590.691,187.020,578.309,206.522,575.467Z"/>
</g>
<g id="right_toe">
<path class="path-0" d="M172.158,639.974C173.424,627.465,178.600,611.540,193.821,609.318C197.408,608.604,202.471,610.252,206.464,611.024C226.673,614.881,234.683,619.238,235.508,639.974C235.616,645.478,236.457,652.273,232.411,656.752C228.156,661.377,207.726,659.316,201.493,659.531C190.620,660.143,181.242,664.635,173.885,655.035C169.773,649.550,171.521,646.355,172.158,639.974M243.238,618.943C236.616,605.559,205.659,597.372,191.656,599.843C170.784,603.646,163.773,619.952,162.425,637.652C161.900,643.930,161.123,650.864,164.329,656.374C165.489,658.366,167.973,660.976,169.659,662.559C182.245,675.408,191.176,673.974,207.945,673.655C216.879,673.635,231.637,672.441,238.796,666.441C243.992,661.658,244.687,656.549,244.967,649.899C245.006,643.518,245.819,623.681,243.238,618.943Z"/>
<path class="path-3" d="M193.821,609.318C197.408,608.604,202.471,610.252,206.464,611.024"/>
<path class="path-3" d="M206.464,611.024C226.673,614.881,234.683,619.238,235.508,639.974"/>
<path class="path-3" d="M235.508,639.974C235.616,645.478,236.457,652.273,232.411,656.752"/>
<path class="path-3" d="M232.411,656.752C228.156,661.377,207.726,659.316,201.493,659.531"/>
<path class="path-3" d="M201.493,659.531C190.620,660.143,181.242,664.635,173.885,655.035"/>
<path class="path-3" d="M173.885,655.035C169.773,649.550,171.521,646.355,172.158,639.974"/>
<path class="path-3" d="M172.158,639.974C173.424,627.465,178.600,611.540,193.821,609.318"/>
<path class="path-4" d="M193.821,609.318C197.408,608.604,202.471,610.252,206.464,611.024C226.673,614.881,234.683,619.238,235.508,639.974C235.616,645.478,236.457,652.273,232.411,656.752C228.156,661.377,207.726,659.316,201.493,659.531C190.620,660.143,181.242,664.635,173.885,655.035C169.773,649.550,171.521,646.355,172.158,639.974C173.424,627.465,178.600,611.540,193.821,609.318Z"/>
</g>
<g id="right_leg">
<path class="path-0" d="M183.539,404.405C186.917,392.742,202.505,390.207,212.784,393.055C218.604,394.539,228.250,397.380,231.565,402.792C233.462,405.891,234.093,411.668,232.385,414.875C229.974,419.404,213.176,419.463,217.213,422.768C223.763,428.252,231.980,417.887,236.522,421.503C238.840,423.349,238.752,427.629,239.121,431.033C242.472,451.893,236.203,473.940,235.323,494.418C234.968,501.116,232.562,510.921,233.546,517.059C235.569,533.097,234.086,536.392,234.456,545.980C234.371,549.497,232.734,567.283,233.723,571.898C234.794,576.453,237.086,581.070,237.626,585.740C238.525,593.522,229.563,605.330,222.780,608.108C216.002,610.729,194.277,610.829,187.555,607.588C183.950,605.977,179.810,601.510,178.177,597.605C176.804,594.762,173.509,581.419,174.089,578.042C175.403,571.808,177.462,570.343,179.093,563.064C180.681,554.659,183.405,545.697,182.562,536.984C180.240,516.415,180.466,485.942,182.495,471.839C183.528,463.150,181.606,434.018,182.641,425.970C184.238,414.375,181.834,412.156,183.539,404.405M208.062,381.294C202.406,379.297,198.061,373.917,192.092,375.969C190.361,376.730,187.339,378.897,186.107,380.147C170.213,393.824,171.326,407.549,171.276,427.020C170.961,434.135,170.593,441.509,170.355,448.350C170.048,453.956,169.347,458.756,168.438,463.957C167.960,468.362,167.327,473.025,167.276,478.504C167.374,484.880,169.318,492.315,169.632,503.142C169.172,513.865,169.795,523.968,169.481,534.223C169.496,539.686,167.405,552.422,166.677,556.581C164.661,562.902,161.223,570.040,159.880,576.162C158.591,584.225,160.984,592.540,164.209,599.579C165.983,604.058,168.928,609.445,172.175,612.604C174.420,614.787,177.406,616.308,180.158,617.460C186.589,620.112,192.783,621.521,199.779,622.120C204.898,622.597,209.989,622.104,215.336,622.121C216.410,621.959,225.359,621.877,227.107,621.774C229.609,621.482,233.014,619.199,235.236,617.730C237.985,615.690,242.629,614.597,245.186,612.180C247.973,609.541,250.317,606.347,252.015,602.901C261.288,583.404,251.582,571.211,248.885,552.545C247.451,542.622,245.590,522.113,246.044,511.019C246.323,497.293,249.990,484.163,250.995,470.045C251.427,465.321,251.808,459.650,252.502,454.287C253.057,449.315,251.696,445.340,251.389,440.422C250.915,436.541,251.240,424.062,250.646,419.885C250.266,416.186,250.314,411.567,248.983,407.908C245.324,398.592,231.351,388.280,222.034,385.285C217.377,383.621,212.387,383.290,208.062,381.294Z"/>
<path class="path-7" d="M212.784,393.055C218.604,394.539,228.250,397.380,231.565,402.792"/>
<path class="path-7" d="M231.565,402.792C233.462,405.891,234.093,411.668,232.385,414.875"/>
<path class="path-7" d="M232.385,414.875C229.974,419.404,213.176,419.463,217.213,422.768"/>
<path class="path-7" d="M217.213,422.768C223.763,428.252,231.980,417.887,236.522,421.503"/>
<path class="path-7" d="M236.522,421.503C238.840,423.349,238.752,427.629,239.121,431.033"/>
<path class="path-7" d="M239.121,431.033C242.472,451.893,236.203,473.940,235.323,494.418"/>
<path class="path-7" d="M235.323,494.418C234.968,501.116,232.562,510.921,233.546,517.059"/>
<path class="path-7" d="M233.546,517.059C235.569,533.097,234.086,536.392,234.456,545.980"/>
<path class="path-7" d="M234.456,545.980C234.371,549.497,232.734,567.283,233.723,571.898"/>
<path class="path-7" d="M233.723,571.898C234.794,576.453,237.086,581.070,237.626,585.740"/>
<path class="path-7" d="M237.626,585.740C238.525,593.522,229.563,605.330,222.780,608.108"/>
<path class="path-7" d="M222.780,608.108C216.002,610.729,194.277,610.829,187.555,607.588"/>
<path class="path-7" d="M187.555,607.588C183.950,605.977,179.810,601.510,178.177,597.605"/>
<path class="path-7" d="M178.177,597.605C176.804,594.762,173.509,581.419,174.089,578.042"/>
<path class="path-7" d="M174.089,578.042C175.403,571.808,177.462,570.343,179.093,563.064"/>
<path class="path-7" d="M179.093,563.064C180.681,554.659,183.405,545.697,182.562,536.984"/>
<path class="path-7" d="M182.562,536.984C180.240,516.415,180.466,485.942,182.495,471.839"/>
<path class="path-7" d="M182.495,471.839C183.528,463.150,181.606,434.018,182.641,425.970"/>
<path class="path-7" d="M182.641,425.970C184.238,414.375,181.834,412.156,183.539,404.405"/>
<path class="path-7" d="M183.539,404.405C186.917,392.742,202.505,390.207,212.784,393.055"/>
<path class="path-8" d="M212.784,393.055C218.604,394.539,228.250,397.380,231.565,402.792C233.462,405.891,234.093,411.668,232.385,414.875C229.974,419.404,213.176,419.463,217.213,422.768C223.763,428.252,231.980,417.887,236.522,421.503C238.840,423.349,238.752,427.629,239.121,431.033C242.472,451.893,236.203,473.940,235.323,494.418C234.968,501.116,232.562,510.921,233.546,517.059C235.569,533.097,234.086,536.392,234.456,545.980C234.371,549.497,232.734,567.283,233.723,571.898C234.794,576.453,237.086,581.070,237.626,585.740C238.525,593.522,229.563,605.330,222.780,608.108C216.002,610.729,194.277,610.829,187.555,607.588C183.950,605.977,179.810,601.510,178.177,597.605C176.804,594.762,173.509,581.419,174.089,578.042C175.403,571.808,177.462,570.343,179.093,563.064C180.681,554.659,183.405,545.697,182.562,536.984C180.240,516.415,180.466,485.942,182.495,471.839C183.528,463.150,181.606,434.018,182.641,425.970C184.238,414.375,181.834,412.156,183.539,404.405C186.917,392.742,202.505,390.207,212.784,393.055Z"/>
</g>
</g>
<g id="hat_brim">
<path class="path-0" d="M288.907,138.722C292.566,132.734,301.549,116.431,309.533,116.431C314.857,116.431,325.836,126.080,331.491,129.075C336.482,132.069,341.806,134.730,347.461,137.391C350.673,139.061,353.889,140.724,357.108,142.381C371.415,149.702,367.422,156.024,359.104,154.692C340.474,151.364,337.480,152.696,319.514,143.379C317.185,142.381,311.196,139.056,310.198,143.379C308.869,148.370,317.852,152.696,321.511,154.359C328.164,158.019,335.484,162.012,343.468,162.677C345.798,163.010,353.783,162.343,355.112,164.672C357.108,168.000,347.461,176.650,345.465,178.646C342.137,181.640,338.811,184.634,335.484,186.964C330.493,190.289,325.169,193.284,319.514,194.282C308.869,195.613,275.599,180.309,274.600,168.665C273.936,162.012,284.914,145.044,288.907,138.722M321.511,112.107C316.520,107.781,312.861,101.459,305.541,104.787C300.217,107.117,294.562,114.768,290.903,118.761C277.262,135.395,264.953,155.025,265.618,176.650C265.951,190.289,270.608,189.958,281.587,195.280C298.221,203.598,319.514,206.259,337.480,197.943C349.124,192.619,369.419,174.654,374.743,162.677C376.405,158.684,379.399,149.701,377.070,145.044C374.409,139.387,352.118,129.740,345.465,126.081C337.480,121.755,328.497,117.762,321.511,112.107Z"/>
<path class="path-9" d="M309.533,116.431C314.857,116.431,325.836,126.080,331.491,129.075"/>
<path class="path-9" d="M331.491,129.075C336.482,132.069,341.806,134.730,347.461,137.391"/>
<path class="path-9" d="M347.461,137.391C350.673,139.061,353.889,140.724,357.108,142.381"/>
<path class="path-9" d="M357.108,142.381C371.415,149.702,367.422,156.024,359.104,154.692"/>
<path class="path-9" d="M359.104,154.692C340.474,151.364,337.480,152.696,319.514,143.379"/>
<path class="path-9" d="M319.514,143.379C317.185,142.381,311.196,139.056,310.198,143.379"/>
<path class="path-9" d="M310.198,143.379C308.869,148.370,317.852,152.696,321.511,154.359"/>
<path class="path-9" d="M321.511,154.359C328.164,158.019,335.484,162.012,343.468,162.677"/>
<path class="path-9" d="M343.468,162.677C345.798,163.010,353.783,162.343,355.112,164.672"/>
<path class="path-9" d="M355.112,164.672C357.108,168.000,347.461,176.650,345.465,178.646"/>
<path class="path-9" d="M345.465,178.646C342.137,181.640,338.811,184.634,335.484,186.964"/>
<path class="path-9" d="M335.484,186.964C330.493,190.289,325.169,193.284,319.514,194.282"/>
<path class="path-9" d="M319.514,194.282C308.869,195.613,275.599,180.309,274.600,168.665"/>
<path class="path-9" d="M274.600,168.665C273.936,162.012,284.914,145.044,288.907,138.722"/>
<path class="path-9" d="M288.907,138.722C292.566,132.734,301.549,116.431,309.533,116.431"/>
<path class="path-10" d="M309.533,116.431C314.857,116.431,325.836,126.080,331.491,129.075C336.482,132.069,341.806,134.730,347.461,137.391C350.673,139.061,353.889,140.724,357.108,142.381C371.415,149.702,367.422,156.024,359.104,154.692C340.474,151.364,337.480,152.696,319.514,143.379C317.185,142.381,311.196,139.056,310.198,143.379C308.869,148.370,317.852,152.696,321.511,154.359C328.164,158.019,335.484,162.012,343.468,162.677C345.798,163.010,353.783,162.343,355.112,164.672C357.108,168.000,347.461,176.650,345.465,178.646C342.137,181.640,338.811,184.634,335.484,186.964C330.493,190.289,325.169,193.284,319.514,194.282C308.869,195.613,275.599,180.309,274.600,168.665C273.936,162.012,284.914,145.044,288.907,138.722C292.566,132.734,301.549,116.431,309.533,116.431Z"/>
</g>
<g id="hair">
<path class="path-0" d="M183.357,136.483C200.954,124.749,220.906,123.806,241.996,123.120C251.452,122.794,257.886,129.270,265.069,135.626C270.964,141.195,277.299,147.468,283.560,153.313C292.986,162.051,296.930,166.431,300.440,170.614C303.444,173.825,308.105,179.813,311.862,182.674C316.396,186.124,325.422,203.315,327.445,205.266C320.793,207.453,310.356,209.024,305.541,212.830C307.149,218.669,307.424,227.700,307.413,230.409C301.202,230.790,294.008,227.926,282.567,225.752C280.180,232.918,280.142,239.647,275.384,246.902C267.697,244.496,262.345,242.563,252.411,238.043C245.798,243.193,244.261,242.773,233.517,249.212C226.455,244.820,220.838,240.151,213.943,237.253C207.148,240.091,196.403,241.027,192.739,243.925C188.987,236.858,185.547,229.060,182.318,225.662C172.710,227.554,168.576,230.148,161.781,232.559C157.606,227.012,160.654,222.489,156.037,214.349C151.717,213.146,145.049,210.476,139.490,210.322C143.367,205.864,146.319,191.142,152.833,189.327C160.871,187.088,155.875,177.911,160.872,169.755C162.110,167.631,174.016,151.399,175.093,148.739C177.132,144.153,179.361,139.287,183.357,136.483M269.783,123.041C257.623,113.516,232.973,108.192,219.067,111.311C206.306,114.023,193.787,117.926,182.663,125.006C176.433,128.911,169.531,134.686,165.362,140.754C157.036,152.537,144.935,178.372,138.142,190.325C132.704,200.241,127.646,206.923,122.452,212.283C140.007,218.879,145.124,221.586,150.363,222.441C150.613,230.199,157.711,236.027,156.388,244.572C165.209,243.354,170.475,241.177,178.326,239.302C182.258,243.995,184.942,250.348,188.681,256.586C196.418,254.568,204.305,254.940,212.000,249.563C217.496,252.632,226.229,257.403,235.200,262.448C243.544,258.115,245.325,257.880,253.165,252.908C262.619,255.342,272.515,261.315,282.074,260.399C281.484,252.206,287.600,246.647,286.947,241.388C294.168,239.536,316.196,242.966,319.967,242.683C319.803,236.635,316.595,225.026,318.237,217.838C325.064,216.098,330.837,214.510,341.526,209.520C338.121,202.790,331.974,194.414,326.560,189.403C321.990,185.214,318.291,179.689,313.719,175.326C298.212,160.768,292.275,140.745,269.783,123.041Z"/>
<path class="path-11" d="M241.996,123.120C251.452,122.794,257.886,129.270,265.069,135.626"/>
<path class="path-11" d="M265.069,135.626C270.964,141.195,277.299,147.468,283.560,153.313"/>
<path class="path-11" d="M283.560,153.313C292.986,162.051,296.930,166.431,300.440,170.614"/>
<path class="path-11" d="M300.440,170.614C303.444,173.825,308.105,179.813,311.862,182.674"/>
<path class="path-11" d="M311.862,182.674C316.396,186.124,325.422,203.315,327.445,205.266"/>
<path class="path-11" d="M327.445,205.266C320.793,207.453,310.356,209.024,305.541,212.830"/>
<path class="path-11" d="M305.541,212.830C307.149,218.669,307.424,227.700,307.413,230.409"/>
<path class="path-11" d="M307.413,230.409C301.202,230.790,294.008,227.926,282.567,225.752"/>
<path class="path-11" d="M282.567,225.752C280.180,232.918,280.142,239.647,275.384,246.902"/>
<path class="path-11" d="M275.384,246.902C267.697,244.496,262.345,242.563,252.411,238.043"/>
<path class="path-11" d="M252.411,238.043C245.798,243.193,244.261,242.773,233.517,249.212"/>
<path class="path-11" d="M233.517,249.212C226.455,244.820,220.838,240.151,213.943,237.253"/>
<path class="path-11" d="M213.943,237.253C207.148,240.091,196.403,241.027,192.739,243.925"/>
<path class="path-11" d="M192.739,243.925C188.987,236.858,185.547,229.060,182.318,225.662"/>
<path class="path-11" d="M182.318,225.662C172.710,227.554,168.576,230.148,161.781,232.559"/>
<path class="path-11" d="M161.781,232.559C157.606,227.012,160.654,222.489,156.037,214.349"/>
<path class="path-11" d="M156.037,214.349C151.717,213.146,145.049,210.476,139.490,210.322"/>
<path class="path-11" d="M139.490,210.322C143.367,205.864,146.319,191.142,152.833,189.327"/>
<path class="path-11" d="M152.833,189.327C160.871,187.088,155.875,177.911,160.872,169.755"/>
<path class="path-11" d="M160.872,169.755C162.110,167.631,174.016,151.399,175.093,148.739"/>
<path class="path-11" d="M175.093,148.739C177.132,144.153,179.361,139.287,183.357,136.483"/>
<path class="path-11" d="M183.357,136.483C200.954,124.749,220.906,123.806,241.996,123.120"/>
<path class="path-12" d="M241.996,123.120C251.452,122.794,257.886,129.270,265.069,135.626C270.964,141.195,277.299,147.468,283.560,153.313C292.986,162.051,296.930,166.431,300.440,170.614C303.444,173.825,308.105,179.813,311.862,182.674C316.396,186.124,325.422,203.315,327.445,205.266C320.793,207.453,310.356,209.024,305.541,212.830C307.149,218.669,307.424,227.700,307.413,230.409C301.202,230.790,294.008,227.926,282.567,225.752C280.180,232.918,280.142,239.647,275.384,246.902C267.697,244.496,262.345,242.563,252.411,238.043C245.798,243.193,244.261,242.773,233.517,249.212C226.455,244.820,220.838,240.151,213.943,237.253C207.148,240.091,196.403,241.027,192.739,243.925C188.987,236.858,185.547,229.060,182.318,225.662C172.710,227.554,168.576,230.148,161.781,232.559C157.606,227.012,160.654,222.489,156.037,214.349C151.717,213.146,145.049,210.476,139.490,210.322C143.367,205.864,146.319,191.142,152.833,189.327C160.871,187.088,155.875,177.911,160.872,169.755C162.110,167.631,174.016,151.399,175.093,148.739C177.132,144.153,179.361,139.287,183.357,136.483C200.954,124.749,220.906,123.806,241.996,123.120Z"/>
</g>
<g id="clothes">
<path class="path-0" d="M243.934,368.606C239.107,366.752,220.502,362.346,217.507,366.796C215.162,370.517,219.434,371.734,223.252,372.015C226.922,372.285,246.149,376.871,248.649,375.259C253.111,372.306,246.187,369.360,243.934,368.606M191.093,266.179C194.088,253.538,221.037,240.563,234.012,241.561C242.994,242.226,271.274,256.199,275.266,264.517C278.592,271.170,279.590,295.789,279.924,304.107C280.257,319.412,281.196,334.747,282.253,350.019C283.731,362.600,288.105,374.773,288.985,387.411C288.669,392.501,286.951,405.337,281.897,407.774C275.025,411.498,259.206,402.765,252.598,399.916C227.744,389.993,229.315,391.175,204.227,390.448C200.567,390.202,188.603,391.989,186.147,390.512C181.340,386.806,183.422,379.914,184.543,374.178C187.485,361.805,189.992,353.450,191.427,340.038C193.034,324.025,194.088,306.768,194.088,290.134C193.755,284.145,190.429,269.839,191.093,266.179M269.943,247.549C253.640,237.899,237.670,229.915,218.042,235.573C212.718,236.902,186.103,249.877,183.773,253.205C180.115,258.528,183.773,278.821,183.773,286.141C184.107,294.791,184.440,303.773,183.773,312.092C183.442,318.413,182.111,324.069,182.111,330.057C181.777,336.710,182.195,343.967,180.780,350.019C177.522,363.520,164.585,389.866,180.307,399.872C185.477,403.189,193.347,401.866,199.806,402.472C210.293,403.252,221.420,404.745,231.945,406.532C242.142,408.555,251.628,413.354,262.021,414.998C269.783,416.228,294.638,422.645,300.174,416.459C303.637,412.760,300.978,390.266,300.036,384.618C297.116,371.121,293.232,357.740,291.567,344.031C290.454,332.101,289.239,320.410,289.904,308.100C290.237,298.119,291.900,288.471,291.900,278.157C291.567,273.831,292.234,268.510,289.904,264.184C285.912,256.199,277.263,251.873,269.943,247.549Z"/>
<path class="path-13" d="M243.934,368.606C239.107,366.752,220.502,362.346,217.507,366.796"/>
<path class="path-13" d="M217.507,366.796C215.162,370.517,219.434,371.734,223.252,372.015"/>
<path class="path-13" d="M223.252,372.015C226.922,372.285,246.149,376.871,248.649,375.259"/>
<path class="path-13" d="M248.649,375.259C253.111,372.306,246.187,369.360,243.934,368.606"/>
<path class="path-13" d="M191.093,266.179C194.088,253.538,221.037,240.563,234.012,241.561"/>
<path class="path-13" d="M234.012,241.561C242.994,242.226,271.274,256.199,275.266,264.517"/>
<path class="path-13" d="M275.266,264.517C278.592,271.170,279.590,295.789,279.924,304.107"/>
<path class="path-13" d="M279.924,304.107C280.257,319.412,281.196,334.747,282.253,350.019"/>
<path class="path-13" d="M282.253,350.019C283.731,362.600,288.105,374.773,288.985,387.411"/>
<path class="path-13" d="M288.985,387.411C288.669,392.501,286.951,405.337,281.897,407.774"/>
<path class="path-13" d="M281.897,407.774C275.025,411.498,259.206,402.765,252.598,399.916"/>
<path class="path-13" d="M252.598,399.916C227.744,389.993,229.315,391.175,204.227,390.448"/>
<path class="path-13" d="M204.227,390.448C200.567,390.202,188.603,391.989,186.147,390.512"/>
<path class="path-13" d="M186.147,390.512C181.340,386.806,183.422,379.914,184.543,374.178"/>
<path class="path-13" d="M184.543,374.178C187.485,361.805,189.992,353.450,191.427,340.038"/>
<path class="path-13" d="M191.427,340.038C193.034,324.025,194.088,306.768,194.088,290.134"/>
<path class="path-13" d="M194.088,290.134C193.755,284.145,190.429,269.839,191.093,266.179"/>
<path class="path-14" d="M243.934,368.606C239.107,366.752,220.502,362.346,217.507,366.796C215.162,370.517,219.434,371.734,223.252,372.015C226.922,372.285,246.149,376.871,248.649,375.259C253.111,372.306,246.187,369.360,243.934,368.606M191.093,266.179C194.088,253.538,221.037,240.563,234.012,241.561C242.994,242.226,271.274,256.199,275.266,264.517C278.592,271.170,279.590,295.789,279.924,304.107C280.257,319.412,281.196,334.747,282.253,350.019C283.731,362.600,288.105,374.773,288.985,387.411C288.669,392.501,286.951,405.337,281.897,407.774C275.025,411.498,259.206,402.765,252.598,399.916C227.744,389.993,229.315,391.175,204.227,390.448C200.567,390.202,188.603,391.989,186.147,390.512C181.340,386.806,183.422,379.914,184.543,374.178C187.485,361.805,189.992,353.450,191.427,340.038C193.034,324.025,194.088,306.768,194.088,290.134C193.755,284.145,190.429,269.839,191.093,266.179Z"/>
</g>
<g id="neck">
<path class="path-0" d="M229.021,222.597C229.354,219.269,230.353,216.275,234.012,215.942C245.656,213.946,244.657,251.542,234.012,251.542C224.031,251.542,228.356,228.917,229.021,222.597M234.012,206.628C231.351,206.295,228.357,206.959,226.027,208.291C216.711,212.948,218.042,221.599,218.042,230.248C217.708,234.574,218.042,238.567,216.046,242.226C214.383,245.553,209.724,248.879,209.724,252.540C210.057,262.521,237.006,262.521,243.993,262.188C246.653,262.187,255.636,263.185,256.634,259.526C256.634,258.528,249.981,246.883,248.983,242.226C245.989,228.252,255.305,207.626,234.012,206.628Z"/>
<path class="path-15" d="M234.012,215.942C245.656,213.946,244.657,251.542,234.012,251.542"/>
<path class="path-15" d="M234.012,251.542C224.031,251.542,228.356,228.917,229.021,222.597"/>
<path class="path-15" d="M229.021,222.597C229.354,219.269,230.353,216.275,234.012,215.942"/>
<path class="path-16" d="M234.012,215.942C245.656,213.946,244.657,251.542,234.012,251.542C224.031,251.542,228.356,228.917,229.021,222.597C229.354,219.269,230.353,216.275,234.012,215.942Z"/>
</g>
<g id="layer_head">
<g id="right_ear">
<path class="path-0" d="M149.499,192.201C142.890,192.862,129.192,162.045,137.719,164.004C143.453,165.302,146.400,175.463,147.954,179.664C149.311,182.971,155.017,191.692,149.499,192.201M142.028,151.180C139.491,149.668,136.390,148.330,133.766,149.684C124.854,152.610,125.820,165.380,128.021,174.546C130.926,186.088,139.242,201.336,149.697,204.950C152.031,205.770,156.773,208.140,159.211,207.202C165.446,204.346,160.420,194.504,158.723,189.397C156.555,182.368,147.389,155.763,142.028,151.180Z"/>
<path class="path-15" d="M137.719,164.004C143.453,165.302,146.400,175.463,147.954,179.664"/>
<path class="path-15" d="M147.954,179.664C149.311,182.971,155.017,191.692,149.499,192.201"/>
<path class="path-15" d="M149.499,192.201C142.890,192.862,129.192,162.045,137.719,164.004"/>
<path class="path-16" d="M137.719,164.004C143.453,165.302,146.400,175.463,147.954,179.664C149.311,182.971,155.017,191.692,149.499,192.201C142.890,192.862,129.192,162.045,137.719,164.004Z"/>
</g>
<g id="face_Mask">
<g id="face">
<path class="path-0" d="M151.548,105.729C160.034,95.281,192.803,88.096,206.443,86.099C221.747,84.103,237.383,86.433,252.355,91.090C257.678,92.754,265.573,94.461,269.987,98.409C276.952,104.688,279.555,116.080,281.390,124.901C282.748,130.675,285.008,138.135,284.056,143.658C279.035,172.769,271.997,186.274,266.191,194.422C257.285,206.922,241.022,211.733,226.582,216.537C208.164,222.373,193.336,223.073,180.059,220.220C172.706,218.644,157.019,213.137,152.212,207.779C145.416,199.916,147.187,189.292,145.293,179.520C143.277,170.604,139.078,157.380,137.854,148.508C136.493,137.360,144.563,114.251,151.548,105.729M274.005,90.734C260.523,78.364,224.120,75.702,206.486,78.346C198.166,79.336,190.180,79.995,182.527,81.986C176.867,83.648,171.872,86.306,166.545,87.969C154.898,92.294,150.087,90.855,142.257,101.620C136.633,109.155,128.563,138.798,128.818,148.038C129.147,155.318,133.980,172.331,135.052,180.747C136.167,189.923,135.306,202.905,139.699,210.665C143.409,217.004,149.319,220.945,158.598,225.395C168.887,230.329,180.568,234.788,192.288,235.645C200.017,236.478,211.897,233.790,230.076,226.423C245.370,220.002,261.391,213.374,272.046,199.234C282.279,185.653,295.111,167.676,298.050,141.949C300.387,121.490,281.695,97.638,274.005,90.734Z"/>
<path class="path-15" d="M206.443,86.099C221.747,84.103,237.383,86.433,252.355,91.090"/>
<path class="path-15" d="M252.355,91.090C257.678,92.754,265.573,94.461,269.987,98.409"/>
<path class="path-15" d="M269.987,98.409C276.952,104.688,279.555,116.080,281.390,124.901"/>
<path class="path-15" d="M281.390,124.901C282.748,130.675,285.008,138.135,284.056,143.658"/>
<path class="path-15" d="M284.056,143.658C279.035,172.769,271.997,186.274,266.191,194.422"/>
<path class="path-15" d="M266.191,194.422C257.285,206.922,241.022,211.733,226.582,216.537"/>
<path class="path-15" d="M226.582,216.537C208.164,222.373,193.336,223.073,180.059,220.220"/>
<path class="path-15" d="M180.059,220.220C172.706,218.644,157.019,213.137,152.212,207.779"/>
<path class="path-15" d="M152.212,207.779C145.416,199.916,147.187,189.292,145.293,179.520"/>
<path class="path-15" d="M145.293,179.520C143.277,170.604,139.078,157.380,137.854,148.508"/>
<path class="path-15" d="M137.854,148.508C136.493,137.360,144.563,114.251,151.548,105.729"/>
<path class="path-15" d="M151.548,105.729C160.034,95.281,192.803,88.096,206.443,86.099"/>
<path class="path-16" d="M206.443,86.099C221.747,84.103,237.383,86.433,252.355,91.090C257.678,92.754,265.573,94.461,269.987,98.409C276.952,104.688,279.555,116.080,281.390,124.901C282.748,130.675,285.008,138.135,284.056,143.658C279.035,172.769,271.997,186.274,266.191,194.422C257.285,206.922,241.022,211.733,226.582,216.537C208.164,222.373,193.336,223.073,180.059,220.220C172.706,218.644,157.019,213.137,152.212,207.779C145.416,199.916,147.187,189.292,145.293,179.520C143.277,170.604,139.078,157.380,137.854,148.508C136.493,137.360,144.563,114.251,151.548,105.729C160.034,95.281,192.803,88.096,206.443,86.099Z"/>
</g>
</g>
<mask id="mask_target" style="mask-type:alpha;">
<use xlink:href="#face_Mask"/>
</mask>
<g id="mouse">
<path class="path-0" d="M192.782,214.239C197.986,215.343,198.070,220.096,197.596,220.603C197.329,220.889,196.206,219.938,193.246,219.451C187.640,218.530,184.934,219.702,184.737,218.988C184.520,218.205,186.689,212.947,192.782,214.239Z"/>
</g>
<g id="layer_eyes_Mtarget" mask="url(#mask_target)">
<g id="eyes">
<mask style="mask-type:alpha;" id="f3906406-f197-4bf1-91d8-744c09cca836">
<use xlink:href="#cmn_f3906406-f197-4bf1-91d8-744c09cca836"/>
</mask>
<g id="cmn_f3906406-f197-4bf1-91d8-744c09cca836">
<path class="path-0" d="M149.528,190.933C149.641,190.422,147.341,188.877,147.745,188.982C147.019,188.807,140.048,188.373,139.573,190.373C139.471,190.813,141.265,192.223,140.686,192.177C139.751,192.102,149.388,191.564,149.528,190.933M157.003,193.640C156.998,192.898,156.759,187.357,154.677,186.488C153.548,186.017,151.856,187.154,150.836,187.862C147.795,189.878,128.747,186.252,129.937,181.518C130.251,180.250,135.939,178.642,137.217,179.072C146.893,182.365,126.205,199.492,138.671,206.394C139.493,206.849,148.084,193.975,146.802,195.722C145.911,196.937,157.015,195.440,157.003,193.640M190.601,193.607C187.939,193.541,183.896,195.172,182.125,191.420C180.876,188.775,199.702,189.095,201.969,188.668C203.583,188.364,216.099,186.375,216.995,186.040C217.204,185.966,219.232,186.789,219.436,187.112C219.664,187.475,195.309,193.725,190.601,193.607M226.788,189.917C227.465,189.200,227.750,181.046,227.111,180.524C223.496,177.576,210.876,181.600,203.942,182.321C198.716,182.864,189.981,185.088,186.571,184.562C182.784,184.116,179.778,183.079,177.776,184.799C176.169,186.179,175.626,189.687,176.285,191.700C176.990,193.851,179.436,195.747,181.974,196.660C187.424,198.640,206.812,195.638,211.305,195.124C212.115,195.029,224.576,192.263,226.788,189.917Z"/>
<path class="path-17" d="M216.995,186.040C217.204,185.966,219.232,186.789,219.436,187.112"/>
<path class="path-17" d="M219.436,187.112C219.664,187.475,195.309,193.725,190.601,193.607"/>
<path class="path-17" d="M190.601,193.607C187.939,193.541,183.896,195.172,182.125,191.420"/>
<path class="path-17" d="M182.125,191.420C180.876,188.775,199.702,189.095,201.969,188.668"/>
<path class="path-17" d="M201.969,188.668C203.583,188.364,216.099,186.375,216.995,186.040"/>
<path class="path-18" d="M216.995,186.040C217.204,185.966,219.232,186.789,219.436,187.112C219.664,187.475,195.309,193.725,190.601,193.607C187.939,193.541,183.896,195.172,182.125,191.420C180.876,188.775,199.702,189.095,201.969,188.668C203.583,188.364,216.099,186.375,216.995,186.040Z"/>
<path class="path-17" d="M140.686,192.177C139.751,192.102,149.388,191.564,149.528,190.933"/>
<path class="path-17" d="M149.528,190.933C149.641,190.422,147.341,188.877,147.745,188.982"/>
<path class="path-17" d="M147.745,188.982C147.019,188.807,140.048,188.373,139.573,190.373"/>
<path class="path-17" d="M139.573,190.373C139.471,190.813,141.265,192.223,140.686,192.177"/>
<path class="path-18" d="M140.686,192.177C139.751,192.102,149.388,191.564,149.528,190.933C149.641,190.422,147.341,188.877,147.745,188.982C147.019,188.807,140.048,188.373,139.573,190.373C139.471,190.813,141.265,192.223,140.686,192.177Z"/>
</g>
</g>
<g id="pupil">
<path class="path-0" d="M180.792,175.253C183.137,174.689,186.075,178.167,186.806,186.838C187.304,192.737,185.975,195.141,184.350,195.371C182.456,195.639,180.804,192.998,179.521,186.221C178.152,178.989,178.808,175.731,180.792,175.253Z" mask="url(#f3906406-f197-4bf1-91d8-744c09cca836)"/>
<path class="path-0" d="M143.773,175.421C146.112,174.929,148.804,178.582,149.575,187.454C150.033,192.723,149.084,194.873,147.694,195.162C146.133,195.486,144.250,193.522,142.687,187.791C140.509,179.804,141.599,175.879,143.773,175.421Z" mask="url(#f3906406-f197-4bf1-91d8-744c09cca836)"/>
</g>
</g>
<g id="hat">
<path class="path-0" d="M288.583,132.318C290.815,133.199,293.440,135.963,293.960,138.596C295.860,145.255,284.591,146.364,281.035,146.826C275.204,146.998,269.121,146.162,263.575,145.602C256.653,145.532,249.787,144.347,242.873,144.006C222.302,141.378,201.724,139.026,181.106,136.844C169.885,136.099,159.602,134.529,147.517,133.893C146.056,133.827,131.455,135.111,128.588,134.159C114.562,129.639,126.613,117.322,125.611,110.895C125.443,108.749,121.197,108.238,122.081,104.441C122.735,101.820,130.584,97.562,133.201,96.669C142.781,93.343,153.348,91.515,163.949,91.005C175.984,90.444,186.985,92.037,199.006,92.975C222.853,94.872,265.316,100.360,292.778,116.647C301.801,121.969,282.178,118.231,280.281,118.239C265.856,117.494,207.441,101.568,238.411,115.330C251.238,121.427,276.600,126.950,288.583,132.318M176.442,80.880C164.481,80.366,153.539,79.794,142.368,82.026C138.237,82.840,133.083,83.861,129.614,84.537C122.376,85.973,134.350,65.309,137.850,61.322C153.588,43.833,182.214,32.797,206.905,34.198C254.854,36.921,272.951,49.303,286.124,67.703C290.369,73.187,302.696,98.577,292.902,104.561C289.657,106.264,283.905,103.258,281.183,101.786C271.508,96.818,201.911,81.974,176.442,80.880M271.415,38.542C254.404,30.572,236.591,23.209,211.717,23.707C181.350,24.397,147.017,32.719,127.824,59.428C121.932,67.827,119.724,77.151,116.351,86.083C114.178,91.757,109.727,95.582,109.417,101.580C109.230,109.179,113.553,111.118,114.460,117.311C115.665,124.218,111.654,126.476,112.119,130.962C112.208,143.157,123.648,145.787,133.685,146.854C138.144,147.329,154.709,146.843,163.718,146.987C174.013,147.151,187.742,147.419,198.025,147.939C209.235,148.506,224.134,150.014,235.337,150.696C245.774,151.331,259.695,152.474,270.150,152.370C278.700,152.284,297.513,151.434,298.591,150.497C300.222,149.105,305.287,134.830,305.738,132.074C306.426,127.869,304.516,123.325,305.897,116.589C307.869,105.721,310.137,96.271,307.709,84.569C303.149,63.511,286.436,45.661,271.415,38.542Z"/>
<path class="path-19" d="M199.006,92.975C222.853,94.872,265.316,100.360,292.778,116.647"/>
<path class="path-19" d="M292.778,116.647C301.801,121.969,282.178,118.231,280.281,118.239"/>
<path class="path-19" d="M280.281,118.239C265.856,117.494,207.441,101.568,238.411,115.330"/>
<path class="path-19" d="M238.411,115.330C251.238,121.427,276.600,126.950,288.583,132.318"/>
<path class="path-19" d="M288.583,132.318C290.815,133.199,293.440,135.963,293.960,138.596"/>
<path class="path-19" d="M293.960,138.596C295.860,145.255,284.591,146.364,281.035,146.826"/>
<path class="path-19" d="M281.035,146.826C275.204,146.998,269.121,146.162,263.575,145.602"/>
<path class="path-19" d="M263.575,145.602C256.653,145.532,249.787,144.347,242.873,144.006"/>
<path class="path-19" d="M242.873,144.006C222.302,141.378,201.724,139.026,181.106,136.844"/>
<path class="path-19" d="M181.106,136.844C169.885,136.099,159.602,134.529,147.517,133.893"/>
<path class="path-19" d="M147.517,133.893C146.056,133.827,131.455,135.111,128.588,134.159"/>
<path class="path-19" d="M128.588,134.159C114.562,129.639,126.613,117.322,125.611,110.895"/>
<path class="path-19" d="M125.611,110.895C125.443,108.749,121.197,108.238,122.081,104.441"/>
<path class="path-19" d="M122.081,104.441C122.735,101.820,130.584,97.562,133.201,96.669"/>
<path class="path-19" d="M133.201,96.669C142.781,93.343,153.348,91.515,163.949,91.005"/>
<path class="path-19" d="M163.949,91.005C175.984,90.444,186.985,92.037,199.006,92.975"/>
<path class="path-20" d="M199.006,92.975C222.853,94.872,265.316,100.360,292.778,116.647C301.801,121.969,282.178,118.231,280.281,118.239C265.856,117.494,207.441,101.568,238.411,115.330C251.238,121.427,276.600,126.950,288.583,132.318C290.815,133.199,293.440,135.963,293.960,138.596C295.860,145.255,284.591,146.364,281.035,146.826C275.204,146.998,269.121,146.162,263.575,145.602C256.653,145.532,249.787,144.347,242.873,144.006C222.302,141.378,201.724,139.026,181.106,136.844C169.885,136.099,159.602,134.529,147.517,133.893C146.056,133.827,131.455,135.111,128.588,134.159C114.562,129.639,126.613,117.322,125.611,110.895C125.443,108.749,121.197,108.238,122.081,104.441C122.735,101.820,130.584,97.562,133.201,96.669C142.781,93.343,153.348,91.515,163.949,91.005C175.984,90.444,186.985,92.037,199.006,92.975Z"/>
<path class="path-9" d="M206.905,34.198C254.854,36.921,272.951,49.303,286.124,67.703"/>
<path class="path-9" d="M286.124,67.703C290.369,73.187,302.696,98.577,292.902,104.561"/>
<path class="path-9" d="M292.902,104.561C289.657,106.264,283.905,103.258,281.183,101.786"/>
<path class="path-9" d="M281.183,101.786C271.508,96.818,201.911,81.974,176.442,80.880"/>
<path class="path-9" d="M176.442,80.880C164.481,80.366,153.539,79.794,142.368,82.026"/>
<path class="path-9" d="M142.368,82.026C138.237,82.840,133.083,83.861,129.614,84.537"/>
<path class="path-9" d="M129.614,84.537C122.376,85.973,134.350,65.309,137.850,61.322"/>
<path class="path-9" d="M137.850,61.322C153.588,43.833,182.214,32.797,206.905,34.198"/>
<path class="path-10" d="M206.905,34.198C254.854,36.921,272.951,49.303,286.124,67.703C290.369,73.187,302.696,98.577,292.902,104.561C289.657,106.264,283.905,103.258,281.183,101.786C271.508,96.818,201.911,81.974,176.442,80.880C164.481,80.366,153.539,79.794,142.368,82.026C138.237,82.840,133.083,83.861,129.614,84.537C122.376,85.973,134.350,65.309,137.850,61.322C153.588,43.833,182.214,32.797,206.905,34.198Z"/>
</g>
<g id="left_ear">
<path class="path-0" d="M255.608,181.715C255.272,177.877,256.385,163.167,258.510,159.682C264.954,148.323,283.865,148.144,289.842,156.416C296.681,166.305,285.283,187.344,274.824,193.275C263.780,199.319,256.843,192.558,255.608,181.715M304.967,159.558C302.292,146.462,289.169,134.989,274.232,140.915C257.487,147.557,259.543,171.457,258.601,186.320C258.477,189.669,257.807,193.377,258.903,196.370C262.819,207.637,274.333,209.585,283.743,199.918C293.050,190.160,307.408,173.677,304.967,159.558Z"/>
<path class="path-15" d="M258.510,159.682C264.954,148.323,283.865,148.144,289.842,156.416"/>
<path class="path-15" d="M289.842,156.416C296.681,166.305,285.283,187.344,274.824,193.275"/>
<path class="path-15" d="M274.824,193.275C263.780,199.319,256.843,192.558,255.608,181.715"/>
<path class="path-15" d="M255.608,181.715C255.272,177.877,256.385,163.167,258.510,159.682"/>
<path class="path-16" d="M258.510,159.682C264.954,148.323,283.865,148.144,289.842,156.416C296.681,166.305,285.283,187.344,274.824,193.275C263.780,199.319,256.843,192.558,255.608,181.715C255.272,177.877,256.385,163.167,258.510,159.682Z"/>
</g>
<g id="earrings">
<path class="path-0" d="M282.488,207.133C273.383,211.691,272.118,193.311,275.480,193.561C280.218,195.073,291.036,205.807,282.488,207.133M292.386,199.020C285.798,199.647,282.479,190.732,281.838,186.959C289.354,188.374,298.914,193.635,292.386,199.020M303.212,195.811C300.582,187.639,288.136,183.253,280.247,179.841C277.268,178.552,268.721,188.851,268.367,192.246C267.292,196.389,270.474,218.742,284.509,215.629C290.239,214.092,305.325,202.376,303.212,195.811Z"/>
<path class="path-21" d="M281.838,186.959C289.354,188.374,298.914,193.635,292.386,199.020"/>
<path class="path-21" d="M292.386,199.020C285.798,199.647,282.479,190.732,281.838,186.959"/>
<path class="path-22" d="M281.838,186.959C289.354,188.374,298.914,193.635,292.386,199.020C285.798,199.647,282.479,190.732,281.838,186.959Z"/>
<path class="path-21" d="M275.480,193.561C280.218,195.073,291.036,205.807,282.488,207.133"/>
<path class="path-21" d="M282.488,207.133C273.383,211.691,272.118,193.311,275.480,193.561"/>
<path class="path-22" d="M275.480,193.561C280.218,195.073,291.036,205.807,282.488,207.133C273.383,211.691,272.118,193.311,275.480,193.561Z"/>
</g>
</g>
<g id="jacket">
<path class="path-0" d="M202.406,270.837C204.953,275.237,201.716,285.475,201.557,290.134C198.924,307.416,195.895,324.006,195.644,341.079C195.695,344.327,195.112,350.402,192.722,353.326C190.174,356.443,183.373,356.917,180.517,358.899C176.933,361.325,172.246,354.508,170.639,351.784C169.277,349.474,169.152,343.309,169.252,341.292C169.803,336.361,171.894,326.890,173.602,320.869C175.356,314.860,178.013,308.973,179.725,302.286C180.699,296.647,179.366,289.758,179.086,283.381C179.648,279.750,180.827,277.597,180.918,275.002C180.642,270.183,182.014,268.415,186.583,267.682C191.279,267.267,200.925,265.615,202.406,270.837M260.309,278.344C261.868,275.233,284.805,260.935,287.581,259.187C296.464,254.169,302.531,263.224,302.902,269.218C303.482,276.954,291.872,302.578,292.046,308.145C291.966,311.123,292.662,313.394,293.830,315.667C301.984,333.641,301.260,320.208,312.436,331.415C315.454,334.480,320.459,342.354,321.447,346.454C322.282,351.115,321.973,362.962,318.564,365.807C317.128,366.806,314.542,366.734,313.241,364.519C312.526,363.585,306.950,353.015,305.325,351.818C298.562,346.253,288.443,346.387,282.473,339.110C278.843,334.161,276.731,327.493,273.388,321.828C270.240,316.689,266.610,311.892,264.499,306.222C261.498,299.101,257.449,285.957,260.309,278.344M275.838,255.283C272.875,258.059,266.681,262.008,264.620,262.852C257.739,265.248,256.473,257.504,255.999,252.409C255.715,247.434,258.668,240.348,261.782,236.247C264.454,232.727,268.909,228.195,273.726,227.626C279.479,226.739,289.219,232.440,288.111,238.972C287.766,242.245,280.307,251.096,275.838,255.283M195.901,236.079C200.964,241.145,205.584,246.366,202.850,250.222C200.335,253.769,197.282,254.841,189.763,255.866C178.191,257.443,171.035,240.912,175.267,234.392C178.648,229.183,189.754,229.929,195.901,236.079M315.505,388.542C326.736,378.270,335.297,368.535,335.650,352.648C335.745,345.016,332.423,335.939,327.476,330.177C318.591,320.353,308.203,322.373,301.486,308.972C296.574,299.584,300.565,290.098,301.418,279.966C301.561,276.526,299.387,259.070,299.613,255.936C299.313,252.179,301.232,248.558,301.120,245.091C301.120,241.218,301.709,237.147,300.565,233.447C299.014,227.180,292.596,224.104,287.699,220.936C280.882,217.076,274.910,215.716,267.051,217.276C257.819,219.121,254.056,228.908,251.163,235.579C246.844,245.539,248.731,260.808,248.370,271.658C248.165,277.797,248.144,286.359,248.495,292.130C249.226,308.312,265.274,339.980,276.981,351.329C278.790,353.326,291.212,363.891,294.324,367.929C298.957,374.005,296.265,379.094,299.083,385.968C299.832,388.019,303.452,391.041,306.205,391.528C308.935,392.103,313.997,389.920,315.505,388.542M207.642,233.363C203.775,227.493,197.306,217.716,190.103,217.826C184.310,218.101,175.565,219.834,170.593,223.336C167.253,225.689,162.622,230.085,162.404,234.217C161.957,240.153,163.928,247.185,166.673,251.902C168.641,255.286,174.049,257.689,176.016,261.011C176.890,262.584,178.353,271.256,178.716,273.457C180.574,283.056,178.871,293.634,176.271,301.746C173.683,309.820,164.824,318.120,161.887,326.074C159.405,332.795,156.958,341.790,157.622,349.573C157.722,352.753,161.103,359.178,163.150,363.033C164.699,365.951,167.242,371.231,169.196,372.235C170.587,372.951,185.050,374.567,190.662,371.397C195.040,368.924,198.458,367.333,200.209,357.622C202.168,345.491,205.760,334.969,206.807,322.585C207.892,305.627,213.582,277.986,213.144,266.346C212.920,260.397,214.280,256.416,212.870,248.152C212.135,244.502,210.231,237.292,207.642,233.363Z"/>
<path class="path-1" d="M287.581,259.187C296.464,254.169,302.531,263.224,302.902,269.218"/>
<path class="path-1" d="M302.902,269.218C303.482,276.954,291.872,302.578,292.046,308.145"/>
<path class="path-1" d="M292.046,308.145C291.966,311.123,292.662,313.394,293.830,315.667"/>
<path class="path-1" d="M293.830,315.667C301.984,333.641,301.260,320.208,312.436,331.415"/>
<path class="path-1" d="M312.436,331.415C315.454,334.480,320.459,342.354,321.447,346.454"/>
<path class="path-1" d="M321.447,346.454C322.282,351.115,321.973,362.962,318.564,365.807"/>
<path class="path-1" d="M318.564,365.807C317.128,366.806,314.542,366.734,313.241,364.519"/>
<path class="path-1" d="M313.241,364.519C312.526,363.585,306.950,353.015,305.325,351.818"/>
<path class="path-1" d="M305.325,351.818C298.562,346.253,288.443,346.387,282.473,339.110"/>
<path class="path-1" d="M282.473,339.110C278.843,334.161,276.731,327.493,273.388,321.828"/>
<path class="path-1" d="M273.388,321.828C270.240,316.689,266.610,311.892,264.499,306.222"/>
<path class="path-1" d="M264.499,306.222C261.498,299.101,257.449,285.957,260.309,278.344"/>
<path class="path-1" d="M260.309,278.344C261.868,275.233,284.805,260.935,287.581,259.187"/>
<path class="path-2" d="M287.581,259.187C296.464,254.169,302.531,263.224,302.902,269.218C303.482,276.954,291.872,302.578,292.046,308.145C291.966,311.123,292.662,313.394,293.830,315.667C301.984,333.641,301.260,320.208,312.436,331.415C315.454,334.480,320.459,342.354,321.447,346.454C322.282,351.115,321.973,362.962,318.564,365.807C317.128,366.806,314.542,366.734,313.241,364.519C312.526,363.585,306.950,353.015,305.325,351.818C298.562,346.253,288.443,346.387,282.473,339.110C278.843,334.161,276.731,327.493,273.388,321.828C270.240,316.689,266.610,311.892,264.499,306.222C261.498,299.101,257.449,285.957,260.309,278.344C261.868,275.233,284.805,260.935,287.581,259.187Z"/>
<path class="path-1" d="M186.583,267.682C191.279,267.267,200.925,265.615,202.406,270.837"/>
<path class="path-1" d="M202.406,270.837C204.953,275.237,201.716,285.475,201.557,290.134"/>
<path class="path-1" d="M201.557,290.134C198.924,307.416,195.895,324.006,195.644,341.079"/>
<path class="path-1" d="M195.644,341.079C195.695,344.327,195.112,350.402,192.722,353.326"/>
<path class="path-1" d="M192.722,353.326C190.174,356.443,183.373,356.917,180.517,358.899"/>
<path class="path-1" d="M180.517,358.899C176.933,361.325,172.246,354.508,170.639,351.784"/>
<path class="path-1" d="M170.639,351.784C169.277,349.474,169.152,343.309,169.252,341.292"/>
<path class="path-1" d="M169.252,341.292C169.803,336.361,171.894,326.890,173.602,320.869"/>
<path class="path-1" d="M173.602,320.869C175.356,314.860,178.013,308.973,179.725,302.286"/>
<path class="path-1" d="M179.725,302.286C180.699,296.647,179.366,289.758,179.086,283.381"/>
<path class="path-1" d="M179.086,283.381C179.648,279.750,180.827,277.597,180.918,275.002"/>
<path class="path-1" d="M180.918,275.002C180.642,270.183,182.014,268.415,186.583,267.682"/>
<path class="path-2" d="M186.583,267.682C191.279,267.267,200.925,265.615,202.406,270.837C204.953,275.237,201.716,285.475,201.557,290.134C198.924,307.416,195.895,324.006,195.644,341.079C195.695,344.327,195.112,350.402,192.722,353.326C190.174,356.443,183.373,356.917,180.517,358.899C176.933,361.325,172.246,354.508,170.639,351.784C169.277,349.474,169.152,343.309,169.252,341.292C169.803,336.361,171.894,326.890,173.602,320.869C175.356,314.860,178.013,308.973,179.725,302.286C180.699,296.647,179.366,289.758,179.086,283.381C179.648,279.750,180.827,277.597,180.918,275.002C180.642,270.183,182.014,268.415,186.583,267.682Z"/>
<path class="path-1" d="M273.726,227.626C279.479,226.739,289.219,232.440,288.111,238.972"/>
<path class="path-1" d="M288.111,238.972C287.766,242.245,280.307,251.096,275.838,255.283"/>
<path class="path-1" d="M275.838,255.283C272.875,258.059,266.681,262.008,264.620,262.852"/>
<path class="path-1" d="M264.620,262.852C257.739,265.248,256.473,257.504,255.999,252.409"/>
<path class="path-1" d="M255.999,252.409C255.715,247.434,258.668,240.348,261.782,236.247"/>
<path class="path-1" d="M261.782,236.247C264.454,232.727,268.909,228.195,273.726,227.626"/>
<path class="path-2" d="M273.726,227.626C279.479,226.739,289.219,232.440,288.111,238.972C287.766,242.245,280.307,251.096,275.838,255.283C272.875,258.059,266.681,262.008,264.620,262.852C257.739,265.248,256.473,257.504,255.999,252.409C255.715,247.434,258.668,240.348,261.782,236.247C264.454,232.727,268.909,228.195,273.726,227.626Z"/>
<path class="path-1" d="M195.901,236.079C200.964,241.145,205.584,246.366,202.850,250.222"/>
<path class="path-1" d="M202.850,250.222C200.335,253.769,197.282,254.841,189.763,255.866"/>
<path class="path-1" d="M189.763,255.866C178.191,257.443,171.035,240.912,175.267,234.392"/>
<path class="path-1" d="M175.267,234.392C178.648,229.183,189.754,229.929,195.901,236.079"/>
<path class="path-2" d="M195.901,236.079C200.964,241.145,205.584,246.366,202.850,250.222C200.335,253.769,197.282,254.841,189.763,255.866C178.191,257.443,171.035,240.912,175.267,234.392C178.648,229.183,189.754,229.929,195.901,236.079Z"/>
</g>
<g id="left_arm">
<path class="path-0" d="M291.354,459.357C291.233,454.679,296.119,451.820,302.022,452.655C306.159,453.207,324.230,454.110,327.167,457.146C332.364,462.008,328.090,472.719,321.510,475.113C311.528,478.238,291.712,469.170,291.354,459.357M279.516,276.423C280.393,273.226,288.864,263.064,293.897,264.184C296.819,264.834,298.222,269.839,299.220,272.502C301.881,280.818,304.543,289.469,306.872,298.119C313.194,320.741,316.812,343.523,322.177,365.988C324.153,375.354,325.682,387.488,328.972,395.931C332.610,404.947,337.883,402.599,340.474,408.573C341.705,411.610,341.140,417.224,343.136,421.881C346.130,429.201,351.785,433.194,354.446,437.851C356.111,440.512,356.656,443.028,353.117,444.173C351.108,445.537,345.469,446.408,343.349,446.881C336.061,446.588,328.696,446.308,321.583,444.717C312.692,443.122,286.897,437.775,282.466,431.790C275.219,421.634,285.966,409.914,287.339,399.924C287.988,396.922,292.166,352.976,291.567,350.019C290.955,343.159,287.387,337.131,285.841,330.057C284.214,320.430,282.539,310.147,281.179,300.115C280.223,291.877,276.733,285.067,279.516,276.423M305.541,254.536C303.213,249.877,295.893,241.561,289.904,242.890C284.914,244.222,284.249,250.210,283.582,254.203C281.920,264.184,279.924,272.502,279.924,282.149C279.590,289.136,280.257,295.458,280.921,302.111C281.586,311.427,279.590,329.392,279.924,340.038C279.924,349.686,282.253,359.667,281.586,367.985C279.590,387.613,271.273,406.246,271.938,425.874C271.939,435.855,274.600,435.855,276.929,443.840C278.592,449.828,277.263,456.150,279.590,461.805C285.579,476.776,302.880,490.416,319.847,487.091C335.483,484.096,336.150,467.129,344.466,458.146C351.786,450.161,366.424,454.154,368.420,445.835C370.416,438.849,360.603,431.308,357.110,425.874C350.355,416.042,356.261,413.918,353.140,406.363C350.874,400.777,344.169,395.398,340.521,388.398C338.346,384.907,336.491,378.477,334.841,373.973C331.641,364.081,328.503,352.715,326.620,342.034C324.711,329.736,324.260,318.747,320.845,306.103C318.116,295.475,310.200,262.852,305.541,254.536Z"/>
<path class="path-1" d="M293.897,264.184C296.819,264.834,298.222,269.839,299.220,272.502"/>
<path class="path-1" d="M299.220,272.502C301.881,280.818,304.543,289.469,306.872,298.119"/>
<path class="path-1" d="M306.872,298.119C313.194,320.741,316.812,343.523,322.177,365.988"/>
<path class="path-1" d="M322.177,365.988C324.153,375.354,325.682,387.488,328.972,395.931"/>
<path class="path-1" d="M328.972,395.931C332.610,404.947,337.883,402.599,340.474,408.573"/>
<path class="path-1" d="M340.474,408.573C341.705,411.610,341.140,417.224,343.136,421.881"/>
<path class="path-1" d="M343.136,421.881C346.130,429.201,351.785,433.194,354.446,437.851"/>
<path class="path-1" d="M354.446,437.851C356.111,440.512,356.656,443.028,353.117,444.173"/>
<path class="path-1" d="M353.117,444.173C351.108,445.537,345.469,446.408,343.349,446.881"/>
<path class="path-1" d="M343.349,446.881C336.061,446.588,328.696,446.308,321.583,444.717"/>
<path class="path-1" d="M321.583,444.717C312.692,443.122,286.897,437.775,282.466,431.790"/>
<path class="path-1" d="M282.466,431.790C275.219,421.634,285.966,409.914,287.339,399.924"/>
<path class="path-1" d="M287.339,399.924C287.988,396.922,292.166,352.976,291.567,350.019"/>
<path class="path-1" d="M291.567,350.019C290.955,343.159,287.387,337.131,285.841,330.057"/>
<path class="path-1" d="M285.841,330.057C284.214,320.430,282.539,310.147,281.179,300.115"/>
<path class="path-1" d="M281.179,300.115C280.223,291.877,276.733,285.067,279.516,276.423"/>
<path class="path-1" d="M279.516,276.423C280.393,273.226,288.864,263.064,293.897,264.184"/>
<path class="path-2" d="M293.897,264.184C296.819,264.834,298.222,269.839,299.220,272.502C301.881,280.818,304.543,289.469,306.872,298.119C313.194,320.741,316.812,343.523,322.177,365.988C324.153,375.354,325.682,387.488,328.972,395.931C332.610,404.947,337.883,402.599,340.474,408.573C341.705,411.610,341.140,417.224,343.136,421.881C346.130,429.201,351.785,433.194,354.446,437.851C356.111,440.512,356.656,443.028,353.117,444.173C351.108,445.537,345.469,446.408,343.349,446.881C336.061,446.588,328.696,446.308,321.583,444.717C312.692,443.122,286.897,437.775,282.466,431.790C275.219,421.634,285.966,409.914,287.339,399.924C287.988,396.922,292.166,352.976,291.567,350.019C290.955,343.159,287.387,337.131,285.841,330.057C284.214,320.430,282.539,310.147,281.179,300.115C280.223,291.877,276.733,285.067,279.516,276.423C280.393,273.226,288.864,263.064,293.897,264.184Z"/>
<path class="path-15" d="M302.022,452.655C306.159,453.207,324.230,454.110,327.167,457.146"/>
<path class="path-15" d="M327.167,457.146C332.364,462.008,328.090,472.719,321.510,475.113"/>
<path class="path-15" d="M321.510,475.113C311.528,478.238,291.712,469.170,291.354,459.357"/>
<path class="path-15" d="M291.354,459.357C291.233,454.679,296.119,451.820,302.022,452.655"/>
<path class="path-16" d="M302.022,452.655C306.159,453.207,324.230,454.110,327.167,457.146C332.364,462.008,328.090,472.719,321.510,475.113C311.528,478.238,291.712,469.170,291.354,459.357C291.233,454.679,296.119,451.820,302.022,452.655Z"/>
</g>
<g id="bone">
<g id="bone1_clothes">
<path class="path-23" d="M239.391,389.913C239.392,389.907,250.575,331.988,250.576,331.982C250.576,331.988,250.472,390.977,250.472,390.983C250.471,390.983,239.392,389.913,239.391,389.913"/>
</g>
<g id="bone2_clothes">
<path class="path-23" d="M232.661,327.992C232.661,327.985,229.498,255.527,229.498,255.520C229.499,255.527,246.297,326.081,246.298,326.088C246.297,326.089,232.663,327.992,232.661,327.992"/>
</g>
<g id="bone3_neck">
<path class="path-23" d="M237.727,253.611C237.726,253.607,230.869,212.475,230.869,212.471C230.869,212.475,231.154,254.174,231.154,254.178C231.155,254.178,237.726,253.611,237.727,253.611"/>
</g>
<g id="bone4_head">
<path class="path-23" d="M230.413,212.818C230.413,212.810,230.377,134.746,230.377,134.738C230.378,134.746,242.837,211.809,242.838,211.817C242.837,211.817,230.414,212.818,230.413,212.818"/>
</g>
<g id="bone5_left_arm">
<path class="path-23" d="M297.726,254.247C297.729,254.255,334.948,338.901,334.951,338.910C334.946,338.902,283.885,261.812,283.879,261.805C283.881,261.804,297.724,254.248,297.726,254.247"/>
</g>
<g id="bone6_left_arm">
<path class="path-23" d="M300.874,349.017C300.874,349.023,305.826,412.567,305.827,412.574C305.827,412.567,311.315,349.068,311.315,349.061C311.314,349.061,300.875,349.017,300.874,349.017"/>
</g>
<g id="bone7_right_arm">
<path class="path-23" d="M169.165,269.507C169.163,269.518,147.552,382.978,147.550,382.989C147.554,382.978,186.795,274.350,186.799,274.339C186.798,274.339,169.167,269.507,169.165,269.507"/>
</g>
<g id="bone8_right_arm">
<path class="path-23" d="M157.074,379.666C157.076,379.671,182.572,433.457,182.575,433.462C182.571,433.457,146.790,385.890,146.787,385.885C146.788,385.885,157.073,379.666,157.074,379.666"/>
</g>
<g id="bone9_left_leg">
<path class="path-23" d="M271.987,385.063C271.988,385.073,284.751,486.437,284.752,486.447C284.749,486.437,254.058,388.993,254.055,388.984C254.057,388.983,271.985,385.064,271.987,385.063"/>
</g>
<g id="bone10_right_leg">
<path class="path-23" d="M209.723,384.198C209.721,384.208,192.966,482.216,192.964,482.225C192.967,482.216,224.755,388.004,224.758,387.995C224.756,387.995,209.724,384.198,209.723,384.198"/>
</g>
<g id="bone11_hair">
<path class="path-23" d="M234.321,156.143C234.323,156.151,251.858,234.394,251.859,234.402C251.856,234.395,220.299,160.682,220.295,160.675C220.297,160.674,234.320,156.144,234.321,156.143"/>
</g>
<g id="bone12_left_leg_S">
<path class="path-23" d="M434.756,222.129C434.763,222.130,506.327,232.724,506.334,232.726C506.327,232.723,437.476,210.515,437.469,210.513C437.469,210.514,434.756,222.128,434.756,222.129"/>
</g>
<g id="bone13_right_leg_S">
<path class="path-23" d="M494.135,211.038C494.128,211.041,429.042,242.623,429.035,242.626C429.042,242.624,498.433,222.165,498.440,222.163C498.440,222.162,494.135,211.039,494.135,211.038"/>
</g>
<g id="bone14_left_arm_S">
<path class="path-23" d="M556.338,211.785C556.333,211.780,504.501,161.310,504.496,161.305C504.501,161.311,547.335,219.611,547.339,219.617C547.340,219.616,556.337,211.786,556.338,211.785"/>
</g>
<g id="bone15_jacket_S">
<path class="path-23" d="M607.058,220.894C607.064,220.890,666.765,180.031,666.771,180.027C666.765,180.030,601.161,210.524,601.155,210.527C601.156,210.528,607.057,220.893,607.058,220.894"/>
</g>
<g id="bone16_pupils_S">
<path class="path-23" d="M441.963,339.057C441.965,339.050,457.326,268.355,457.327,268.348C457.325,268.355,430.557,335.565,430.555,335.572C430.556,335.572,441.962,339.057,441.963,339.057"/>
</g>
<g id="bone17_eyelids_S">
<path class="path-23" d="M498.313,331.774C498.306,331.772,427.849,315.358,427.841,315.356C427.848,315.359,494.651,343.126,494.658,343.129C494.658,343.128,498.313,331.775,498.313,331.774"/>
</g>
<g id="bone18_face_S">
<path class="path-23" d="M554.340,344.056C554.346,344.053,617.477,308.724,617.483,308.720C617.477,308.723,549.399,333.199,549.392,333.201C549.392,333.202,554.339,344.055,554.340,344.056"/>
</g>
</g>
</g>
<style>
.path-0{fill:#000000;fill-rule:evenodd;stroke:none;}
.path-1{fill:none;stroke:#a60d3f;stroke-width:1;stroke-linecap:butt;stroke-linejoin:round;}
.path-2{fill:#a60d3f;fill-rule:evenodd;stroke:none;}
.path-3{fill:none;stroke:#d88e4b;stroke-width:1;stroke-linecap:butt;stroke-linejoin:round;}
.path-4{fill:#d88e4b;fill-rule:evenodd;stroke:none;}
.path-5{fill:none;stroke:#6e2353;stroke-width:1;stroke-linecap:butt;stroke-linejoin:round;}
.path-6{fill:#6e2353;fill-rule:evenodd;stroke:none;}
.path-7{fill:none;stroke:#392966;stroke-width:1;stroke-linecap:butt;stroke-linejoin:round;}
.path-8{fill:#392966;fill-rule:evenodd;stroke:none;}
.path-9{fill:none;stroke:#cc9bc5;stroke-width:1;stroke-linecap:butt;stroke-linejoin:round;}
.path-10{fill:#cc9bc5;fill-rule:evenodd;stroke:none;}
.path-11{fill:none;stroke:#620527;stroke-width:1;stroke-linecap:butt;stroke-linejoin:round;}
.path-12{fill:#620527;fill-rule:evenodd;stroke:none;}
.path-13{fill:none;stroke:#6a3661;stroke-width:1;stroke-linecap:butt;stroke-linejoin:round;}
.path-14{fill:#6a3661;fill-rule:evenodd;stroke:none;}
.path-15{fill:none;stroke:#f8a087;stroke-width:1;stroke-linecap:butt;stroke-linejoin:round;}
.path-16{fill:#f8a087;fill-rule:evenodd;stroke:none;}
.path-17{fill:none;stroke:#ffffff;stroke-width:1;stroke-linecap:butt;stroke-linejoin:round;}
.path-18{fill:#ffffff;fill-rule:evenodd;stroke:none;}
.path-19{fill:none;stroke:#d89f4a;stroke-width:1;stroke-linecap:butt;stroke-linejoin:round;}
.path-20{fill:#d89f4a;fill-rule:evenodd;stroke:none;}
.path-21{fill:none;stroke:#fafd5b;stroke-width:1;stroke-linecap:butt;stroke-linejoin:round;}
.path-22{fill:#fafd5b;fill-rule:evenodd;stroke:none;}
.path-23{fill:none;stroke:#00ff42;stroke-width:8;stroke-linecap:round;stroke-linejoin:round;}
.path-24{fill:none;stroke:#000000;stroke-width:1;stroke-linecap:butt;stroke-linejoin:round;}
.path-25{fill:none;stroke:#ececec;stroke-width:1;stroke-linecap:butt;stroke-linejoin:round;}
.path-26{fill:#ececec;fill-rule:evenodd;stroke:none;}
</style>
</svg>
