<svg version="1.1" id="Frame_128" xmlns="http://www.w3.org/2000/svg" xmlns:xlink="http://www.w3.org/1999/xlink" width="480px" height="720px">
<g id="main_bone">
<g id="right_arm">
<path class="path-0" d="M174.126,270.172C175.458,267.511,178.075,262.017,181.778,260.525C188.182,257.943,193.652,263.933,194.431,268.509C196.093,276.447,190.936,287.396,188.470,295.289C182.390,314.329,175.637,333.084,171.132,352.015C170.600,355.317,165.808,376.634,165.808,373.973C165.476,380.626,172.130,386.283,174.459,391.939C177.454,399.590,174.791,406.910,172.795,413.897C168.138,428.535,168.471,433.858,167.804,448.165C167.804,450.492,167.473,458.146,163.812,458.146C160.487,458.146,160.153,452.157,159.488,449.828C159.155,447.167,156.825,441.510,157.492,439.182C157.823,435.190,162.483,436.188,157.492,427.870C151.170,417.555,139.526,409.240,136.532,395.931C134.536,385.285,140.191,375.969,143.186,365.988C149.508,344.695,156.494,323.404,163.812,302.111C167.805,291.132,168.802,281.484,174.126,270.172M193.754,262.188C193.755,253.538,190.761,245.885,180.115,249.546C163.481,255.200,158.822,281.484,154.165,296.122C147.512,316.084,141.855,336.046,136.199,356.007C133.870,364.657,130.544,368.982,129.212,373.973C127.549,379.628,127.881,388.280,128.214,393.935C128.214,411.567,133.869,412.234,140.856,425.874C144.517,433.859,140.525,438.849,142.852,445.835C144.517,450.492,148.176,453.820,150.837,457.813C153.166,461.805,153.499,464.135,155.162,467.793C157.158,472.119,163.481,481.767,169.136,479.771C173.793,478.108,173.793,469.790,174.126,465.797C174.459,459.809,178.119,436.853,179.450,429.866C181.778,418.554,187.435,406.245,185.770,393.935C184.440,384.619,176.122,377.965,176.456,367.985C176.787,362.661,180.115,354.011,181.113,348.023C182.776,338.375,182.776,328.061,184.772,318.081C188.099,300.448,194.421,280.487,193.754,262.188Z"/>
<path class="path-1" d="M181.778,260.525C188.182,257.943,193.652,263.933,194.431,268.509"/>
<path class="path-1" d="M194.431,268.509C196.093,276.447,190.936,287.396,188.470,295.289"/>
<path class="path-1" d="M188.470,295.289C182.390,314.329,175.637,333.084,171.132,352.015"/>
<path class="path-1" d="M171.132,352.015C170.600,355.317,165.808,376.634,165.808,373.973"/>
<path class="path-1" d="M165.808,373.973C165.476,380.626,172.130,386.283,174.459,391.939"/>
<path class="path-1" d="M174.459,391.939C177.454,399.590,174.791,406.910,172.795,413.897"/>
<path class="path-1" d="M172.795,413.897C168.138,428.535,168.471,433.858,167.804,448.165"/>
<path class="path-1" d="M167.804,448.165C167.804,450.492,167.473,458.146,163.812,458.146"/>
<path class="path-1" d="M163.812,458.146C160.487,458.146,160.153,452.157,159.488,449.828"/>
<path class="path-1" d="M159.488,449.828C159.155,447.167,156.825,441.510,157.492,439.182"/>
<path class="path-1" d="M157.492,439.182C157.823,435.190,162.483,436.188,157.492,427.870"/>
<path class="path-1" d="M157.492,427.870C151.170,417.555,139.526,409.240,136.532,395.931"/>
<path class="path-1" d="M136.532,395.931C134.536,385.285,140.191,375.969,143.186,365.988"/>
<path class="path-1" d="M143.186,365.988C149.508,344.695,156.494,323.404,163.812,302.111"/>
<path class="path-1" d="M163.812,302.111C167.805,291.132,168.802,281.484,174.126,270.172"/>
<path class="path-1" d="M174.126,270.172C175.458,267.511,178.075,262.017,181.778,260.525"/>
<path class="path-2" d="M181.778,260.525C188.182,257.943,193.652,263.933,194.431,268.509C196.093,276.447,190.936,287.396,188.470,295.289C182.390,314.329,175.637,333.084,171.132,352.015C170.600,355.317,165.808,376.634,165.808,373.973C165.476,380.626,172.130,386.283,174.459,391.939C177.454,399.590,174.791,406.910,172.795,413.897C168.138,428.535,168.471,433.858,167.804,448.165C167.804,450.492,167.473,458.146,163.812,458.146C160.487,458.146,160.153,452.157,159.488,449.828C159.155,447.167,156.825,441.510,157.492,439.182C157.823,435.190,162.483,436.188,157.492,427.870C151.170,417.555,139.526,409.240,136.532,395.931C134.536,385.285,140.191,375.969,143.186,365.988C149.508,344.695,156.494,323.404,163.812,302.111C167.805,291.132,168.802,281.484,174.126,270.172C175.458,267.511,178.075,262.017,181.778,260.525Z"/>
</g>
<g id="layer_left_leg">
<g id="left_heel">
<path class="path-0" d="M254.828,660.219C248.620,648.188,261.464,630.683,272.822,628.610C291.512,625.052,307.468,649.781,305.255,656.490C301.349,667.191,282.087,666.169,272.385,665.819C267.767,665.500,256.810,664.206,254.828,660.219M302.416,626.822C290.744,616.569,265.285,619.040,253.636,627.078C234.704,639.756,231.059,678.630,258.692,679.571C272.021,680.071,302.046,678.302,310.044,672.288C317.709,667.043,316.432,655.645,314.324,647.221C312.234,640.572,307.743,631.639,302.416,626.822Z"/>
<path class="path-3" d="M272.822,628.610C291.512,625.052,307.468,649.781,305.255,656.490"/>
<path class="path-3" d="M305.255,656.490C301.349,667.191,282.087,666.169,272.385,665.819"/>
<path class="path-3" d="M272.385,665.819C267.767,665.500,256.810,664.206,254.828,660.219"/>
<path class="path-3" d="M254.828,660.219C248.620,648.188,261.464,630.683,272.822,628.610"/>
<path class="path-4" d="M272.822,628.610C291.512,625.052,307.468,649.781,305.255,656.490C301.349,667.191,282.087,666.169,272.385,665.819C267.767,665.500,256.810,664.206,254.828,660.219C248.620,648.188,261.464,630.683,272.822,628.610Z"/>
</g>
<g id="left_leg">
<path class="path-0" d="M238.898,405.789C240.604,401.168,250.101,404.834,253.973,404.581C260.333,404.473,274.878,401.355,279.875,405.489C286.654,410.726,285.615,434.744,285.673,442.984C285.050,471.829,288.674,498.834,290.646,526.625C291.199,538.383,290.152,550.815,292.948,562.012C295.092,569.297,301.254,575.268,304.088,581.844C305.659,588.490,310.479,595.752,306.801,600.906C297.984,611.756,293.135,606.266,285.222,612.289C276.107,618.796,259.799,622.553,250.608,618.202C244.203,615.428,234.362,605.771,232.740,599.078C228.034,579.661,229.915,556.437,229.335,536.849C228.683,514.837,241.785,469.048,236.836,445.966C233.987,432.674,238.080,430.976,243.141,421.474C243.852,420.139,237.521,418.594,236.730,417.280C234.905,414.733,237.683,408.599,238.898,405.789M286.077,397.547C279.707,392.430,261.548,394.480,253.973,394.933C249.945,395.158,237.268,392.298,234.338,394.195C219.561,403.769,226.592,436.837,227.260,451.177C227.131,457.648,220.421,487.896,219.347,496.542C217.530,524.619,212.846,548.804,215.368,576.827C216.443,590.833,216.435,604.867,222.453,617.346C231.647,636.069,249.085,638.459,273.068,636.179C287.579,634.837,316.445,632.890,323.633,605.844C327.914,589.686,318.430,569.219,315.540,564.351C312.529,559.279,307.746,554.843,305.716,548.856C299.157,531.503,304.408,511.847,302.842,493.253C300.952,470.543,304.801,412.654,286.077,397.547Z"/>
<path class="path-7" d="M253.973,404.581C260.333,404.473,274.878,401.355,279.875,405.489"/>
<path class="path-7" d="M279.875,405.489C286.654,410.726,285.615,434.744,285.673,442.984"/>
<path class="path-7" d="M285.673,442.984C285.050,471.829,288.674,498.834,290.646,526.625"/>
<path class="path-7" d="M290.646,526.625C291.199,538.383,290.152,550.815,292.948,562.012"/>
<path class="path-7" d="M292.948,562.012C295.092,569.297,301.254,575.268,304.088,581.844"/>
<path class="path-7" d="M304.088,581.844C305.659,588.490,310.479,595.752,306.801,600.906"/>
<path class="path-7" d="M306.801,600.906C297.984,611.756,293.135,606.266,285.222,612.289"/>
<path class="path-7" d="M285.222,612.289C276.107,618.796,259.799,622.553,250.608,618.202"/>
<path class="path-7" d="M250.608,618.202C244.203,615.428,234.362,605.771,232.740,599.078"/>
<path class="path-7" d="M232.740,599.078C228.034,579.661,229.915,556.437,229.335,536.849"/>
<path class="path-7" d="M229.335,536.849C228.683,514.837,241.785,469.048,236.836,445.966"/>
<path class="path-7" d="M236.836,445.966C233.987,432.674,238.080,430.976,243.141,421.474"/>
<path class="path-7" d="M243.141,421.474C243.852,420.139,237.521,418.594,236.730,417.280"/>
<path class="path-7" d="M236.730,417.280C234.905,414.733,237.683,408.599,238.898,405.789"/>
<path class="path-7" d="M238.898,405.789C240.604,401.168,250.101,404.834,253.973,404.581"/>
<path class="path-8" d="M253.973,404.581C260.333,404.473,274.878,401.355,279.875,405.489C286.654,410.726,285.615,434.744,285.673,442.984C285.050,471.829,288.674,498.834,290.646,526.625C291.199,538.383,290.152,550.815,292.948,562.012C295.092,569.297,301.254,575.268,304.088,581.844C305.659,588.490,310.479,595.752,306.801,600.906C297.984,611.756,293.135,606.266,285.222,612.289C276.107,618.796,259.799,622.553,250.608,618.202C244.203,615.428,234.362,605.771,232.740,599.078C228.034,579.661,229.915,556.437,229.335,536.849C228.683,514.837,241.785,469.048,236.836,445.966C233.987,432.674,238.080,430.976,243.141,421.474C243.852,420.139,237.521,418.594,236.730,417.280C234.905,414.733,237.683,408.599,238.898,405.789C240.604,401.168,250.101,404.834,253.973,404.581Z"/>
</g>
<g id="left_toe">
<path class="path-0" d="M247.491,667.846C219.425,659.486,231.804,620.094,252.189,614.992C275.027,609.321,297.567,618.418,303.533,629.825C309.191,639.538,309.867,650.880,303.856,660.686C293.601,674.665,262.367,672.228,247.491,667.846M318.868,630.716C312.607,610.525,292.935,597.422,275.463,596.533C249.257,595.226,228.060,605.541,221.723,630.612C217.426,645.505,219.990,661.144,229.667,673.251C237.853,682.862,265.934,684.152,277.969,683.331C289.064,681.801,303.015,679.501,310.930,670.375C317.115,663.453,321.546,639.385,318.868,630.716Z"/>
<path class="path-3" d="M252.189,614.992C275.027,609.321,297.567,618.418,303.533,629.825"/>
<path class="path-3" d="M303.533,629.825C309.191,639.538,309.867,650.880,303.856,660.686"/>
<path class="path-3" d="M303.856,660.686C293.601,674.665,262.367,672.228,247.491,667.846"/>
<path class="path-3" d="M247.491,667.846C219.425,659.486,231.804,620.094,252.189,614.992"/>
<path class="path-4" d="M252.189,614.992C275.027,609.321,297.567,618.418,303.533,629.825C309.191,639.538,309.867,650.880,303.856,660.686C293.601,674.665,262.367,672.228,247.491,667.846C219.425,659.486,231.804,620.094,252.189,614.992Z"/>
</g>
<g id="left_sole">
<path class="path-0" d="M252.873,685.497C244.388,684.144,242.140,677.035,240.424,679.210C238.842,681.215,247.069,684.590,250.839,685.646C259.682,688.374,278.442,688.756,288.525,683.759C290.524,682.962,296.704,680.901,296.875,680.915C301.672,681.305,287.664,684.980,284.496,685.346C279.954,686.242,253.897,685.327,252.873,685.497M239.585,676.395C243.080,673.774,253.044,673.324,256.622,673.447C277.276,674.161,284.806,672.729,291.698,673.274C294.070,673.471,301.024,670.777,301.670,675.539C302.798,683.855,271.676,687.257,252.916,682.366C245.786,680.856,238.012,677.574,239.585,676.395M309.808,673.290C307.333,667.593,287.097,661.826,264.818,662.322C255.760,662.537,232.355,663.593,229.181,675.186C228.622,677.244,230.048,683.693,231.816,684.810C243.350,692.197,302.085,690.546,307.584,685.021C309.278,683.319,310.817,675.613,309.808,673.290Z"/>
<path class="path-5" d="M240.424,679.210C238.842,681.215,247.069,684.590,250.839,685.646"/>
<path class="path-5" d="M250.839,685.646C259.682,688.374,278.442,688.756,288.525,683.759"/>
<path class="path-5" d="M288.525,683.759C290.524,682.962,296.704,680.901,296.875,680.915"/>
<path class="path-5" d="M296.875,680.915C301.672,681.305,287.664,684.980,284.496,685.346"/>
<path class="path-5" d="M284.496,685.346C279.954,686.242,253.897,685.327,252.873,685.497"/>
<path class="path-5" d="M252.873,685.497C244.388,684.144,242.140,677.035,240.424,679.210"/>
<path class="path-6" d="M240.424,679.210C238.842,681.215,247.069,684.590,250.839,685.646C259.682,688.374,278.442,688.756,288.525,683.759C290.524,682.962,296.704,680.901,296.875,680.915C301.672,681.305,287.664,684.980,284.496,685.346C279.954,686.242,253.897,685.327,252.873,685.497C244.388,684.144,242.140,677.035,240.424,679.210Z"/>
<path class="path-5" d="M256.622,673.447C277.276,674.161,284.806,672.729,291.698,673.274"/>
<path class="path-5" d="M291.698,673.274C294.070,673.471,301.024,670.777,301.670,675.539"/>
<path class="path-5" d="M301.670,675.539C302.798,683.855,271.676,687.257,252.916,682.366"/>
<path class="path-5" d="M252.916,682.366C245.786,680.856,238.012,677.574,239.585,676.395"/>
<path class="path-5" d="M239.585,676.395C243.080,673.774,253.044,673.324,256.622,673.447"/>
<path class="path-6" d="M256.622,673.447C277.276,674.161,284.806,672.729,291.698,673.274C294.070,673.471,301.024,670.777,301.670,675.539C302.798,683.855,271.676,687.257,252.916,682.366C245.786,680.856,238.012,677.574,239.585,676.395C243.080,673.774,253.044,673.324,256.622,673.447Z"/>
</g>
</g>
<g id="layer_right_leg">
<g id="right_sole">
<path class="path-0" d="M209.997,596.845C211.215,597.257,225.110,596.702,226.528,596.751C227.765,596.832,235.929,597.185,236.977,597.106C237.597,597.087,244.221,597.151,244.693,597.833C245.038,597.308,237.051,598.825,236.546,598.817C235.791,598.856,212.746,598.674,212.492,598.755C211.012,598.885,201.121,597.481,200.849,596.448C201.611,595.851,208.606,596.372,209.997,596.845M240.305,592.719C240.259,593.024,239.347,593.910,238.864,593.876C237.876,593.810,229.852,594.737,228.562,594.389C227.074,594.259,222.276,594.349,220.933,594.259C218.696,594.109,210.451,593.362,208.318,592.714C207.527,592.314,205.908,591.329,205.802,590.912C205.843,590.618,209.469,591.993,210.614,592.136C212.718,592.397,220.766,592.190,222.940,592.236C225.175,592.283,233.313,592.835,235.604,592.668C235.966,592.651,240.006,591.972,240.305,592.719M246.761,591.260C238.241,588.423,230.318,591.419,223.428,590.509C217.542,589.729,205.443,588.036,198.893,591.405C197.868,591.933,196.235,592.935,196.209,594.154C196.180,595.666,198.556,598.742,200.332,599.905C202.527,601.342,207.108,601.287,208.915,601.591C218.023,603.468,229.468,603.505,239.022,603.382C246.624,603.294,247.950,599.366,248.634,595.748C248.905,594.315,249.499,592.132,246.761,591.260Z"/>
<path class="path-24" d="M209.997,596.845C211.215,597.257,225.110,596.702,226.528,596.751"/>
<path class="path-24" d="M226.528,596.751C227.765,596.832,235.929,597.185,236.977,597.106"/>
<path class="path-24" d="M236.977,597.106C237.597,597.087,244.221,597.151,244.693,597.833"/>
<path class="path-24" d="M244.693,597.833C245.038,597.308,237.051,598.825,236.546,598.817"/>
<path class="path-24" d="M236.546,598.817C235.791,598.856,212.746,598.674,212.492,598.755"/>
<path class="path-24" d="M212.492,598.755C211.012,598.885,201.121,597.481,200.849,596.448"/>
<path class="path-24" d="M200.849,596.448C201.611,595.851,208.606,596.372,209.997,596.845"/>
<path class="path-0" d="M209.997,596.845C211.215,597.257,225.110,596.702,226.528,596.751C227.765,596.832,235.929,597.185,236.977,597.106C237.597,597.087,244.221,597.151,244.693,597.833C245.038,597.308,237.051,598.825,236.546,598.817C235.791,598.856,212.746,598.674,212.492,598.755C211.012,598.885,201.121,597.481,200.849,596.448C201.611,595.851,208.606,596.372,209.997,596.845Z"/>
<path class="path-24" d="M210.614,592.136C212.718,592.397,220.766,592.190,222.940,592.236"/>
<path class="path-24" d="M222.940,592.236C225.175,592.283,233.313,592.835,235.604,592.668"/>
<path class="path-24" d="M235.604,592.668C235.966,592.651,240.006,591.972,240.305,592.719"/>
<path class="path-24" d="M240.305,592.719C240.259,593.024,239.347,593.910,238.864,593.876"/>
<path class="path-24" d="M238.864,593.876C237.876,593.810,229.852,594.737,228.562,594.389"/>
<path class="path-24" d="M228.562,594.389C227.074,594.259,222.276,594.349,220.933,594.259"/>
<path class="path-24" d="M220.933,594.259C218.696,594.109,210.451,593.362,208.318,592.714"/>
<path class="path-24" d="M208.318,592.714C207.527,592.314,205.908,591.329,205.802,590.912"/>
<path class="path-24" d="M205.802,590.912C205.843,590.618,209.469,591.993,210.614,592.136"/>
<path class="path-0" d="M210.614,592.136C212.718,592.397,220.766,592.190,222.940,592.236C225.175,592.283,233.313,592.835,235.604,592.668C235.966,592.651,240.006,591.972,240.305,592.719C240.259,593.024,239.347,593.910,238.864,593.876C237.876,593.810,229.852,594.737,228.562,594.389C227.074,594.259,222.276,594.349,220.933,594.259C218.696,594.109,210.451,593.362,208.318,592.714C207.527,592.314,205.908,591.329,205.802,590.912C205.843,590.618,209.469,591.993,210.614,592.136Z"/>
</g>
<g id="right_heel">
<path class="path-0" d="M195.085,543.907C195.917,529.188,196.883,517.722,214.854,515.155C222.811,513.873,237.953,516.441,242.315,524.141C244.626,527.991,243.891,533.636,244.113,537.746C244.536,544.460,248.691,557.393,239.235,559.002C238.626,559.167,221.830,559.536,216.587,559.697C210.025,560.510,203.179,561.059,198.422,556.518C195.883,553.559,194.815,547.440,195.085,543.907M250.787,522.601C247.307,513.318,234.619,507.970,225.636,509.252C213.826,510.791,201.746,506.930,194.058,517.980C188.000,526.686,187.354,542.697,189.179,552.849C189.860,557.484,192.775,565.941,196.626,568.508C199.450,570.305,203.814,569.791,207.152,569.791C223.323,570.048,252.132,575.437,251.815,551.309C251.663,544.951,252.654,527.634,250.787,522.601Z"/>
<path class="path-3" d="M214.854,515.155C222.811,513.873,237.953,516.441,242.315,524.141"/>
<path class="path-3" d="M242.315,524.141C244.626,527.991,243.891,533.636,244.113,537.746"/>
<path class="path-3" d="M244.113,537.746C244.536,544.460,248.691,557.393,239.235,559.002"/>
<path class="path-3" d="M239.235,559.002C238.626,559.167,221.830,559.536,216.587,559.697"/>
<path class="path-3" d="M216.587,559.697C210.025,560.510,203.179,561.059,198.422,556.518"/>
<path class="path-3" d="M198.422,556.518C195.883,553.559,194.815,547.440,195.085,543.907"/>
<path class="path-3" d="M195.085,543.907C195.917,529.188,196.883,517.722,214.854,515.155"/>
<path class="path-4" d="M214.854,515.155C222.811,513.873,237.953,516.441,242.315,524.141C244.626,527.991,243.891,533.636,244.113,537.746C244.536,544.460,248.691,557.393,239.235,559.002C238.626,559.167,221.830,559.536,216.587,559.697C210.025,560.510,203.179,561.059,198.422,556.518C195.883,553.559,194.815,547.440,195.085,543.907C195.917,529.188,196.883,517.722,214.854,515.155Z"/>
</g>
<g id="right_toe">
<path class="path-0" d="M195.491,579.122C196.300,568.744,201.108,556.222,213.626,553.887C216.845,553.112,221.500,554.151,225.149,554.636C243.189,556.985,250.344,560.711,252.020,578.984C252.315,583.107,253.230,588.058,250.545,591.709C246.880,596.603,226.985,597.586,220.919,597.544C211.029,597.692,202.952,598.247,196.985,589.024C194.565,585.196,195.168,583.345,195.491,579.122M256.939,563.232C251.040,552.057,224.204,547.825,212.348,549.877C195.665,552.860,188.258,564.148,186.810,578.254C186.246,583.372,185.730,589.177,188.590,593.533C189.818,595.403,192.575,597.595,194.316,599.010C205.517,608.914,212.520,608.134,226.429,607.178C234.287,606.770,246.857,604.336,253.100,598.978C257.028,595.278,258.101,591.660,258.426,586.586C258.561,581.771,258.980,566.755,256.939,563.232Z"/>
<path class="path-3" d="M213.626,553.887C216.845,553.112,221.500,554.151,225.149,554.636"/>
<path class="path-3" d="M225.149,554.636C243.189,556.985,250.344,560.711,252.020,578.984"/>
<path class="path-3" d="M252.020,578.984C252.315,583.107,253.230,588.058,250.545,591.709"/>
<path class="path-3" d="M250.545,591.709C246.880,596.603,226.985,597.586,220.919,597.544"/>
<path class="path-3" d="M220.919,597.544C211.029,597.692,202.952,598.247,196.985,589.024"/>
<path class="path-3" d="M196.985,589.024C194.565,585.196,195.168,583.345,195.491,579.122"/>
<path class="path-3" d="M195.491,579.122C196.300,568.744,201.108,556.222,213.626,553.887"/>
<path class="path-4" d="M213.626,553.887C216.845,553.112,221.500,554.151,225.149,554.636C243.189,556.985,250.344,560.711,252.020,578.984C252.315,583.107,253.230,588.058,250.545,591.709C246.880,596.603,226.985,597.586,220.919,597.544C211.029,597.692,202.952,598.247,196.985,589.024C194.565,585.196,195.168,583.345,195.491,579.122C196.300,568.744,201.108,556.222,213.626,553.887Z"/>
</g>
<g id="right_leg">
<path class="path-0" d="M185.446,403.133C189.714,392.694,203.128,390.840,212.784,393.055C218.731,394.291,229.057,395.721,232.627,401.056C235.896,405.940,233.644,414.844,232.702,420.645C231.163,430.121,213.352,455.403,221.952,450.785C231.510,445.653,236.684,427.877,241.923,433.756C243.576,435.611,240.579,439.007,240.126,441.843C238.113,460.652,235.838,480.493,238.380,498.668C239.529,507.529,242.745,520.264,245.516,528.069C249.486,540.559,246.361,543.743,247.410,551.452C247.538,553.204,248.813,561.961,248.875,564.318C249.147,570.214,246.266,576.253,244.734,581.984C243.141,587.940,235.055,594.580,229.775,596.905C226.470,598.283,216.736,602.088,213.085,601.663C208.681,601.281,202.333,598.153,199.677,594.230C198.366,592.501,195.890,583.490,195.317,581.206C194.381,576.780,189.349,575.763,191.168,570.789C192.450,566.882,204.535,569.078,202.585,565.348C197.208,555.061,189.704,534.904,188.138,525.838C187.183,521.016,181.200,505.621,181.055,501.066C179.845,447.920,174.019,437.321,185.446,403.133M208.062,381.294C202.406,379.297,197.942,373.599,192.092,375.969C190.481,376.783,187.931,379.260,186.777,380.473C171.808,393.812,169.473,405.269,168.707,423.871C167.746,435.445,166.971,447.553,167.921,458.674C169.417,481.585,168.676,501.845,174.478,522.645C175.761,526.307,179.013,529.281,180.922,533.683C182.028,536.071,182.630,539.168,184.131,543.376C184.883,546.082,187.767,548.230,187.288,550.871C187.005,552.789,182.105,554.957,181.402,556.280C178.899,559.758,178.842,565.295,178.321,569.310C177.975,574.117,180.064,578.699,181.792,582.930C183.882,588.937,186.332,596.622,190.020,601.327C192.963,605.080,197.207,607.904,201.079,610.277C204.098,612.105,206.943,613.563,210.348,614.607C214.026,615.764,217.769,617.471,221.757,617.051C222.958,616.735,232.089,612.041,233.788,610.981C235.111,610.047,235.787,607.321,236.988,606.101C238.239,604.685,241.146,604.715,242.798,603.695C246.521,601.391,250.409,599.023,253.155,595.608C266.745,578.213,259.885,563.416,257.870,544.239C257.039,536.336,253.836,520.337,253.446,511.545C252.637,499.089,254.020,486.894,254.129,474.026C254.302,467.950,255.326,460.716,255.488,453.789C255.512,449.597,253.353,446.554,252.630,442.490C251.623,438.291,251.415,424.479,250.646,419.885C250.175,416.196,250.314,411.567,248.983,407.908C245.324,398.592,231.351,388.280,222.034,385.285C217.377,383.621,212.387,383.290,208.062,381.294Z"/>
<path class="path-7" d="M212.784,393.055C218.731,394.291,229.057,395.721,232.627,401.056"/>
<path class="path-7" d="M232.627,401.056C235.896,405.940,233.644,414.844,232.702,420.645"/>
<path class="path-7" d="M232.702,420.645C231.163,430.121,213.352,455.403,221.952,450.785"/>
<path class="path-7" d="M221.952,450.785C231.510,445.653,236.684,427.877,241.923,433.756"/>
<path class="path-7" d="M241.923,433.756C243.576,435.611,240.579,439.007,240.126,441.843"/>
<path class="path-7" d="M240.126,441.843C238.113,460.652,235.838,480.493,238.380,498.668"/>
<path class="path-7" d="M238.380,498.668C239.529,507.529,242.745,520.264,245.516,528.069"/>
<path class="path-7" d="M245.516,528.069C249.486,540.559,246.361,543.743,247.410,551.452"/>
<path class="path-7" d="M247.410,551.452C247.538,553.204,248.813,561.961,248.875,564.318"/>
<path class="path-7" d="M248.875,564.318C249.147,570.214,246.266,576.253,244.734,581.984"/>
<path class="path-7" d="M244.734,581.984C243.141,587.940,235.055,594.580,229.775,596.905"/>
<path class="path-7" d="M229.775,596.905C226.470,598.283,216.736,602.088,213.085,601.663"/>
<path class="path-7" d="M213.085,601.663C208.681,601.281,202.333,598.153,199.677,594.230"/>
<path class="path-7" d="M199.677,594.230C198.366,592.501,195.890,583.490,195.317,581.206"/>
<path class="path-7" d="M195.317,581.206C194.381,576.780,189.349,575.763,191.168,570.789"/>
<path class="path-7" d="M191.168,570.789C192.450,566.882,204.535,569.078,202.585,565.348"/>
<path class="path-7" d="M202.585,565.348C197.208,555.061,189.704,534.904,188.138,525.838"/>
<path class="path-7" d="M188.138,525.838C187.183,521.016,181.200,505.621,181.055,501.066"/>
<path class="path-7" d="M181.055,501.066C179.845,447.920,174.019,437.321,185.446,403.133"/>
<path class="path-7" d="M185.446,403.133C189.714,392.694,203.128,390.840,212.784,393.055"/>
<path class="path-8" d="M212.784,393.055C218.731,394.291,229.057,395.721,232.627,401.056C235.896,405.940,233.644,414.844,232.702,420.645C231.163,430.121,213.352,455.403,221.952,450.785C231.510,445.653,236.684,427.877,241.923,433.756C243.576,435.611,240.579,439.007,240.126,441.843C238.113,460.652,235.838,480.493,238.380,498.668C239.529,507.529,242.745,520.264,245.516,528.069C249.486,540.559,246.361,543.743,247.410,551.452C247.538,553.204,248.813,561.961,248.875,564.318C249.147,570.214,246.266,576.253,244.734,581.984C243.141,587.940,235.055,594.580,229.775,596.905C226.470,598.283,216.736,602.088,213.085,601.663C208.681,601.281,202.333,598.153,199.677,594.230C198.366,592.501,195.890,583.490,195.317,581.206C194.381,576.780,189.349,575.763,191.168,570.789C192.450,566.882,204.535,569.078,202.585,565.348C197.208,555.061,189.704,534.904,188.138,525.838C187.183,521.016,181.200,505.621,181.055,501.066C179.845,447.920,174.019,437.321,185.446,403.133C189.714,392.694,203.128,390.840,212.784,393.055Z"/>
</g>
</g>
<g id="hat_brim">
<path class="path-0" d="M283.584,149.900C287.243,143.912,296.226,127.609,304.211,127.609C309.535,127.609,320.514,137.259,326.169,140.253C331.159,143.247,336.483,145.909,342.139,148.570C345.351,150.239,348.567,151.902,351.786,153.560C366.093,160.880,362.100,167.202,353.782,165.870C335.152,162.542,332.157,163.874,314.192,154.558C311.863,153.560,305.874,150.234,304.876,154.558C303.546,159.548,312.529,163.874,316.188,165.537C322.842,169.198,330.161,173.190,338.146,173.855C340.475,174.188,348.460,173.521,349.790,175.851C351.786,179.178,342.138,187.828,340.142,189.824C336.815,192.819,333.489,195.813,330.161,198.142C325.171,201.468,319.847,204.462,314.192,205.460C303.547,206.791,270.276,191.487,269.278,179.843C268.613,173.190,279.592,156.222,283.584,149.900M316.188,123.285C311.198,118.960,307.539,112.638,300.218,115.966C294.895,118.295,289.240,125.947,285.581,129.939C271.939,146.573,259.631,166.203,260.295,187.828C260.629,201.468,265.286,201.136,276.265,206.458C292.899,214.776,314.192,217.437,332.158,209.121C343.801,203.798,364.097,185.832,369.420,173.855C371.083,169.863,374.077,160.880,371.747,156.223C369.086,150.566,346.795,140.918,340.142,137.259C332.158,132.933,323.175,128.941,316.188,123.285Z"/>
<path class="path-9" d="M304.211,127.609C309.535,127.609,320.514,137.259,326.169,140.253"/>
<path class="path-9" d="M326.169,140.253C331.159,143.247,336.483,145.909,342.139,148.570"/>
<path class="path-9" d="M342.139,148.570C345.351,150.239,348.567,151.902,351.786,153.560"/>
<path class="path-9" d="M351.786,153.560C366.093,160.880,362.100,167.202,353.782,165.870"/>
<path class="path-9" d="M353.782,165.870C335.152,162.542,332.157,163.874,314.192,154.558"/>
<path class="path-9" d="M314.192,154.558C311.863,153.560,305.874,150.234,304.876,154.558"/>
<path class="path-9" d="M304.876,154.558C303.546,159.548,312.529,163.874,316.188,165.537"/>
<path class="path-9" d="M316.188,165.537C322.842,169.198,330.161,173.190,338.146,173.855"/>
<path class="path-9" d="M338.146,173.855C340.475,174.188,348.460,173.521,349.790,175.851"/>
<path class="path-9" d="M349.790,175.851C351.786,179.178,342.138,187.828,340.142,189.824"/>
<path class="path-9" d="M340.142,189.824C336.815,192.819,333.489,195.813,330.161,198.142"/>
<path class="path-9" d="M330.161,198.142C325.171,201.468,319.847,204.462,314.192,205.460"/>
<path class="path-9" d="M314.192,205.460C303.547,206.791,270.276,191.487,269.278,179.843"/>
<path class="path-9" d="M269.278,179.843C268.613,173.190,279.592,156.222,283.584,149.900"/>
<path class="path-9" d="M283.584,149.900C287.243,143.912,296.226,127.609,304.211,127.609"/>
<path class="path-10" d="M304.211,127.609C309.535,127.609,320.514,137.259,326.169,140.253C331.159,143.247,336.483,145.909,342.139,148.570C345.351,150.239,348.567,151.902,351.786,153.560C366.093,160.880,362.100,167.202,353.782,165.870C335.152,162.542,332.157,163.874,314.192,154.558C311.863,153.560,305.874,150.234,304.876,154.558C303.546,159.548,312.529,163.874,316.188,165.537C322.842,169.198,330.161,173.190,338.146,173.855C340.475,174.188,348.460,173.521,349.790,175.851C351.786,179.178,342.138,187.828,340.142,189.824C336.815,192.819,333.489,195.813,330.161,198.142C325.171,201.468,319.847,204.462,314.192,205.460C303.547,206.791,270.276,191.487,269.278,179.843C268.613,173.190,279.592,156.222,283.584,149.900C287.243,143.912,296.226,127.609,304.211,127.609Z"/>
</g>
<g id="hair">
<path class="path-0" d="M183.357,136.483C200.954,124.749,220.906,123.806,241.996,123.120C251.452,122.794,257.886,129.270,265.069,135.626C270.964,141.195,277.299,147.468,283.560,153.313C292.986,162.051,296.930,166.431,300.440,170.614C303.444,173.825,308.105,179.813,311.862,182.674C316.396,186.124,325.422,203.315,327.445,205.266C320.793,207.453,310.356,209.024,305.541,212.830C307.149,218.669,307.424,227.700,307.413,230.409C301.202,230.790,294.008,227.926,282.567,225.752C280.180,232.918,280.142,239.647,275.384,246.902C267.697,244.496,262.345,242.563,252.411,238.043C245.798,243.193,244.261,242.773,233.517,249.212C226.455,244.820,220.838,240.151,213.943,237.253C207.148,240.091,196.403,241.027,192.739,243.925C188.987,236.858,185.547,229.060,182.318,225.662C172.710,227.554,168.576,230.148,161.781,232.559C157.606,227.012,160.654,222.489,156.037,214.349C151.717,213.146,145.049,210.476,139.490,210.322C143.367,205.864,146.319,191.142,152.833,189.327C160.871,187.088,155.875,177.911,160.872,169.755C162.110,167.631,174.016,151.399,175.093,148.739C177.132,144.153,179.361,139.287,183.357,136.483M269.783,123.041C257.623,113.516,232.973,108.192,219.067,111.311C206.306,114.023,193.787,117.926,182.663,125.006C176.433,128.911,169.531,134.686,165.362,140.754C157.036,152.537,144.935,178.372,138.142,190.325C132.704,200.241,127.646,206.923,122.452,212.283C140.007,218.879,145.124,221.586,150.363,222.441C150.613,230.199,157.711,236.027,156.388,244.572C165.209,243.354,170.475,241.177,178.326,239.302C182.258,243.995,184.942,250.348,188.681,256.586C196.418,254.568,204.305,254.940,212.000,249.563C217.496,252.632,226.229,257.403,235.200,262.448C243.544,258.115,245.325,257.880,253.165,252.908C262.619,255.342,272.515,261.315,282.074,260.399C281.484,252.206,287.600,246.647,286.947,241.388C294.168,239.536,316.196,242.966,319.967,242.683C319.803,236.635,316.595,225.026,318.237,217.838C325.064,216.098,330.837,214.510,341.526,209.520C338.121,202.790,331.974,194.414,326.560,189.403C321.990,185.214,318.291,179.689,313.719,175.326C298.212,160.768,292.275,140.745,269.783,123.041Z"/>
<path class="path-11" d="M241.996,123.120C251.452,122.794,257.886,129.270,265.069,135.626"/>
<path class="path-11" d="M265.069,135.626C270.964,141.195,277.299,147.468,283.560,153.313"/>
<path class="path-11" d="M283.560,153.313C292.986,162.051,296.930,166.431,300.440,170.614"/>
<path class="path-11" d="M300.440,170.614C303.444,173.825,308.105,179.813,311.862,182.674"/>
<path class="path-11" d="M311.862,182.674C316.396,186.124,325.422,203.315,327.445,205.266"/>
<path class="path-11" d="M327.445,205.266C320.793,207.453,310.356,209.024,305.541,212.830"/>
<path class="path-11" d="M305.541,212.830C307.149,218.669,307.424,227.700,307.413,230.409"/>
<path class="path-11" d="M307.413,230.409C301.202,230.790,294.008,227.926,282.567,225.752"/>
<path class="path-11" d="M282.567,225.752C280.180,232.918,280.142,239.647,275.384,246.902"/>
<path class="path-11" d="M275.384,246.902C267.697,244.496,262.345,242.563,252.411,238.043"/>
<path class="path-11" d="M252.411,238.043C245.798,243.193,244.261,242.773,233.517,249.212"/>
<path class="path-11" d="M233.517,249.212C226.455,244.820,220.838,240.151,213.943,237.253"/>
<path class="path-11" d="M213.943,237.253C207.148,240.091,196.403,241.027,192.739,243.925"/>
<path class="path-11" d="M192.739,243.925C188.987,236.858,185.547,229.060,182.318,225.662"/>
<path class="path-11" d="M182.318,225.662C172.710,227.554,168.576,230.148,161.781,232.559"/>
<path class="path-11" d="M161.781,232.559C157.606,227.012,160.654,222.489,156.037,214.349"/>
<path class="path-11" d="M156.037,214.349C151.717,213.146,145.049,210.476,139.490,210.322"/>
<path class="path-11" d="M139.490,210.322C143.367,205.864,146.319,191.142,152.833,189.327"/>
<path class="path-11" d="M152.833,189.327C160.871,187.088,155.875,177.911,160.872,169.755"/>
<path class="path-11" d="M160.872,169.755C162.110,167.631,174.016,151.399,175.093,148.739"/>
<path class="path-11" d="M175.093,148.739C177.132,144.153,179.361,139.287,183.357,136.483"/>
<path class="path-11" d="M183.357,136.483C200.954,124.749,220.906,123.806,241.996,123.120"/>
<path class="path-12" d="M241.996,123.120C251.452,122.794,257.886,129.270,265.069,135.626C270.964,141.195,277.299,147.468,283.560,153.313C292.986,162.051,296.930,166.431,300.440,170.614C303.444,173.825,308.105,179.813,311.862,182.674C316.396,186.124,325.422,203.315,327.445,205.266C320.793,207.453,310.356,209.024,305.541,212.830C307.149,218.669,307.424,227.700,307.413,230.409C301.202,230.790,294.008,227.926,282.567,225.752C280.180,232.918,280.142,239.647,275.384,246.902C267.697,244.496,262.345,242.563,252.411,238.043C245.798,243.193,244.261,242.773,233.517,249.212C226.455,244.820,220.838,240.151,213.943,237.253C207.148,240.091,196.403,241.027,192.739,243.925C188.987,236.858,185.547,229.060,182.318,225.662C172.710,227.554,168.576,230.148,161.781,232.559C157.606,227.012,160.654,222.489,156.037,214.349C151.717,213.146,145.049,210.476,139.490,210.322C143.367,205.864,146.319,191.142,152.833,189.327C160.871,187.088,155.875,177.911,160.872,169.755C162.110,167.631,174.016,151.399,175.093,148.739C177.132,144.153,179.361,139.287,183.357,136.483C200.954,124.749,220.906,123.806,241.996,123.120Z"/>
</g>
<g id="clothes">
<path class="path-0" d="M244.382,366.368C239.085,364.756,219.495,366.289,216.421,371.141C214.431,374.503,217.936,375.979,221.336,375.975C225.285,375.971,246.038,374.857,248.649,373.021C252.856,369.989,246.611,366.942,244.382,366.368M191.093,266.179C194.088,253.538,221.037,240.563,234.012,241.561C242.994,242.226,271.274,256.199,275.266,264.517C278.592,271.170,279.590,295.789,279.924,304.107C280.257,319.412,281.400,334.735,282.253,350.019C283.569,362.671,291.952,375.630,288.029,387.730C286.157,391.656,277.108,396.429,272.440,397.480C266.955,398.990,255.552,398.438,250.360,397.739C227.623,395.306,229.811,400.309,208.380,401.121C204.301,401.120,191.046,400.769,188.384,399.014C182.335,393.938,185.079,385.259,186.333,377.758C189.178,364.153,190.356,354.741,191.427,340.038C192.490,323.980,194.088,306.768,194.088,290.134C193.755,284.145,190.429,269.839,191.093,266.179M269.943,247.549C253.640,237.899,237.670,229.915,218.042,235.573C212.718,236.902,186.103,249.877,183.773,253.205C180.115,258.529,183.773,278.821,183.773,286.141C184.107,294.791,184.440,303.773,183.773,312.092C183.442,318.413,182.111,324.069,182.111,330.057C181.777,336.710,181.911,343.907,180.780,350.019C177.575,366.671,166.507,399.884,186.572,410.612C191.487,413.263,198.449,412.584,204.346,412.571C214.333,412.359,225.037,412.428,235.077,411.005C246.000,409.765,256.540,405.969,267.658,405.508C274.266,405.235,294.655,413.168,299.669,408.303C302.287,405.875,302.803,390.031,302.331,386.024C299.963,371.780,293.621,358.323,291.567,344.031C290.193,332.128,289.239,320.410,289.904,308.100C290.237,298.119,291.900,288.471,291.900,278.157C291.567,273.831,292.234,268.510,289.904,264.184C285.912,256.199,277.263,251.873,269.943,247.549Z"/>
<path class="path-13" d="M244.382,366.368C239.085,364.756,219.495,366.289,216.421,371.141"/>
<path class="path-13" d="M216.421,371.141C214.431,374.503,217.936,375.979,221.336,375.975"/>
<path class="path-13" d="M221.336,375.975C225.285,375.971,246.038,374.857,248.649,373.021"/>
<path class="path-13" d="M248.649,373.021C252.856,369.989,246.611,366.942,244.382,366.368"/>
<path class="path-13" d="M191.093,266.179C194.088,253.538,221.037,240.563,234.012,241.561"/>
<path class="path-13" d="M234.012,241.561C242.994,242.226,271.274,256.199,275.266,264.517"/>
<path class="path-13" d="M275.266,264.517C278.592,271.170,279.590,295.789,279.924,304.107"/>
<path class="path-13" d="M279.924,304.107C280.257,319.412,281.400,334.735,282.253,350.019"/>
<path class="path-13" d="M282.253,350.019C283.569,362.671,291.952,375.630,288.029,387.730"/>
<path class="path-13" d="M288.029,387.730C286.157,391.656,277.108,396.429,272.440,397.480"/>
<path class="path-13" d="M272.440,397.480C266.955,398.990,255.552,398.438,250.360,397.739"/>
<path class="path-13" d="M250.360,397.739C227.623,395.306,229.811,400.309,208.380,401.121"/>
<path class="path-13" d="M208.380,401.121C204.301,401.120,191.046,400.769,188.384,399.014"/>
<path class="path-13" d="M188.384,399.014C182.335,393.938,185.079,385.259,186.333,377.758"/>
<path class="path-13" d="M186.333,377.758C189.178,364.153,190.356,354.741,191.427,340.038"/>
<path class="path-13" d="M191.427,340.038C192.490,323.980,194.088,306.768,194.088,290.134"/>
<path class="path-13" d="M194.088,290.134C193.755,284.145,190.429,269.839,191.093,266.179"/>
<path class="path-14" d="M244.382,366.368C239.085,364.756,219.495,366.289,216.421,371.141C214.431,374.503,217.936,375.979,221.336,375.975C225.285,375.971,246.038,374.857,248.649,373.021C252.856,369.989,246.611,366.942,244.382,366.368M191.093,266.179C194.088,253.538,221.037,240.563,234.012,241.561C242.994,242.226,271.274,256.199,275.266,264.517C278.592,271.170,279.590,295.789,279.924,304.107C280.257,319.412,281.400,334.735,282.253,350.019C283.569,362.671,291.952,375.630,288.029,387.730C286.157,391.656,277.108,396.429,272.440,397.480C266.955,398.990,255.552,398.438,250.360,397.739C227.623,395.306,229.811,400.309,208.380,401.121C204.301,401.120,191.046,400.769,188.384,399.014C182.335,393.938,185.079,385.259,186.333,377.758C189.178,364.153,190.356,354.741,191.427,340.038C192.490,323.980,194.088,306.768,194.088,290.134C193.755,284.145,190.429,269.839,191.093,266.179Z"/>
</g>
<g id="neck">
<path class="path-0" d="M229.021,222.597C229.354,219.269,230.353,216.275,234.012,215.942C245.656,213.946,244.657,251.542,234.012,251.542C224.031,251.542,228.356,228.917,229.021,222.597M234.012,206.628C231.351,206.295,228.357,206.959,226.027,208.291C216.711,212.948,218.042,221.599,218.042,230.248C217.708,234.574,218.042,238.567,216.046,242.226C214.383,245.553,209.724,248.879,209.724,252.540C210.057,262.521,237.006,262.521,243.993,262.188C246.653,262.187,255.636,263.185,256.634,259.526C256.634,258.528,249.981,246.883,248.983,242.226C245.989,228.252,255.305,207.626,234.012,206.628Z"/>
<path class="path-15" d="M234.012,215.942C245.656,213.946,244.657,251.542,234.012,251.542"/>
<path class="path-15" d="M234.012,251.542C224.031,251.542,228.356,228.917,229.021,222.597"/>
<path class="path-15" d="M229.021,222.597C229.354,219.269,230.353,216.275,234.012,215.942"/>
<path class="path-16" d="M234.012,215.942C245.656,213.946,244.657,251.542,234.012,251.542C224.031,251.542,228.356,228.917,229.021,222.597C229.354,219.269,230.353,216.275,234.012,215.942Z"/>
</g>
<g id="layer_head">
<g id="right_ear">
<path class="path-0" d="M149.566,193.621C135.143,194.535,119.959,160.005,141.309,161.376C144.847,161.603,147.751,167.556,148.354,170.190C150.538,179.703,159.853,192.972,149.566,193.621M146.788,149.784C143.462,147.798,139.374,147.131,135.826,148.687C124.976,151.505,119.248,164.352,121.198,175.449C123.519,187.874,137.368,201.589,148.902,203.820C151.946,204.425,158.228,206.508,161.116,204.956C167.745,200.845,160.921,190.605,158.931,184.816C156.939,178.586,151.550,153.864,146.788,149.784Z"/>
<path class="path-15" d="M141.309,161.376C144.847,161.603,147.751,167.556,148.354,170.190"/>
<path class="path-15" d="M148.354,170.190C150.538,179.703,159.853,192.972,149.566,193.621"/>
<path class="path-15" d="M149.566,193.621C135.143,194.535,119.959,160.005,141.309,161.376"/>
<path class="path-16" d="M141.309,161.376C144.847,161.603,147.751,167.556,148.354,170.190C150.538,179.703,159.853,192.972,149.566,193.621C135.143,194.535,119.959,160.005,141.309,161.376Z"/>
</g>
<g id="face_Mask">
<g id="face">
<path class="path-0" d="M164.966,104.835C173.452,94.386,206.221,87.201,219.861,85.205C235.165,83.209,250.801,85.538,265.773,90.195C271.097,91.860,278.753,93.850,283.405,97.515C291.366,103.835,296.407,115.116,299.274,124.453C301.548,131.229,305.662,140.330,303.815,146.826C295.460,176.207,291.392,189.745,285.525,197.962C278.262,208.134,265.095,211.925,253.596,216.549C241.737,221.123,229.695,222.738,223.452,222.378C211.088,221.665,184.474,215.459,175.371,207.867C164.674,198.602,163.542,184.534,159.263,171.675C156.757,164.854,152.606,154.607,151.272,147.613C149.341,136.549,157.981,113.356,164.966,104.835M287.423,89.839C273.809,77.614,237.538,74.808,219.904,77.451C211.584,78.442,203.598,79.100,195.945,81.091C190.285,82.753,185.290,85.412,179.963,87.074C168.316,91.399,163.505,89.960,155.675,100.725C150.051,108.260,141.239,137.954,142.236,147.144C143.106,154.028,150.415,169.320,152.817,177.033C155.922,187.212,158.315,201.827,164.845,209.749C172.102,218.298,181.978,222.800,197.131,226.954C208.473,230.064,221.043,231.159,233.153,231.411C237.796,231.792,246.430,229.140,258.886,223.882C270.930,218.621,284.181,214.152,292.446,202.816C302.226,189.403,306.160,167.527,314.365,145.446C321.232,126.967,295.902,97.289,287.423,89.839Z"/>
<path class="path-15" d="M219.861,85.205C235.165,83.209,250.801,85.538,265.773,90.195"/>
<path class="path-15" d="M265.773,90.195C271.097,91.860,278.753,93.850,283.405,97.515"/>
<path class="path-15" d="M283.405,97.515C291.366,103.835,296.407,115.116,299.274,124.453"/>
<path class="path-15" d="M299.274,124.453C301.548,131.229,305.662,140.330,303.815,146.826"/>
<path class="path-15" d="M303.815,146.826C295.460,176.207,291.392,189.745,285.525,197.962"/>
<path class="path-15" d="M285.525,197.962C278.262,208.134,265.095,211.925,253.596,216.549"/>
<path class="path-15" d="M253.596,216.549C241.737,221.123,229.695,222.738,223.452,222.378"/>
<path class="path-15" d="M223.452,222.378C211.088,221.665,184.474,215.459,175.371,207.867"/>
<path class="path-15" d="M175.371,207.867C164.674,198.602,163.542,184.534,159.263,171.675"/>
<path class="path-15" d="M159.263,171.675C156.757,164.854,152.606,154.607,151.272,147.613"/>
<path class="path-15" d="M151.272,147.613C149.341,136.549,157.981,113.356,164.966,104.835"/>
<path class="path-15" d="M164.966,104.835C173.452,94.386,206.221,87.201,219.861,85.205"/>
<path class="path-16" d="M219.861,85.205C235.165,83.209,250.801,85.538,265.773,90.195C271.097,91.860,278.753,93.850,283.405,97.515C291.366,103.835,296.407,115.116,299.274,124.453C301.548,131.229,305.662,140.330,303.815,146.826C295.460,176.207,291.392,189.745,285.525,197.962C278.262,208.134,265.095,211.925,253.596,216.549C241.737,221.123,229.695,222.738,223.452,222.378C211.088,221.665,184.474,215.459,175.371,207.867C164.674,198.602,163.542,184.534,159.263,171.675C156.757,164.854,152.606,154.607,151.272,147.613C149.341,136.549,157.981,113.356,164.966,104.835C173.452,94.386,206.221,87.201,219.861,85.205Z"/>
</g>
</g>
<mask id="mask_target" style="mask-type:alpha;">
<use xlink:href="#face_Mask"/>
</mask>
<g id="mouse">
<path class="path-0" d="M230.641,214.036C235.845,215.140,235.929,219.893,235.455,220.400C235.188,220.686,234.066,219.735,231.106,219.248C225.500,218.326,222.794,219.499,222.596,218.784C222.380,218.001,224.549,212.744,230.641,214.036Z"/>
</g>
<g id="layer_eyes_Mtarget" mask="url(#mask_target)">
<g id="eyes">
<mask style="mask-type:alpha;" id="f3906406-f197-4bf1-91d8-744c09cca836">
<use xlink:href="#cmn_f3906406-f197-4bf1-91d8-744c09cca836"/>
</mask>
<g id="cmn_f3906406-f197-4bf1-91d8-744c09cca836">
<path class="path-0" d="M208.000,173.980C209.734,186.757,201.386,195.187,188.651,191.908C181.211,189.777,177.827,184.261,175.193,177.594C173.634,174.069,166.139,157.931,171.830,159.820C176.434,161.348,207.373,169.359,208.000,173.980M214.672,177.063C215.551,175.554,216.802,173.278,216.545,171.551C216.259,169.627,214.663,166.571,212.705,166.326C207.392,165.542,188.728,159.326,181.989,156.836C175.314,154.528,161.920,146.475,157.602,153.217C155.902,155.748,159.868,156.501,161.236,160.525C167.601,179.244,173.673,196.786,193.877,197.643C211.407,198.387,210.253,184.647,214.672,177.063M257.445,186.881C250.343,186.748,240.955,181.365,241.006,170.297C241.021,166.966,254.486,161.706,260.522,158.478C266.456,155.306,277.756,148.885,280.838,148.972C284.324,149.491,282.574,152.582,282.622,162.212C282.693,176.384,270.391,187.123,257.445,186.881M288.753,168.530C291.715,156.469,292.092,140.327,289.746,139.284C284.748,137.063,272.052,146.419,264.625,149.833C254.911,154.299,239.474,163.702,232.789,165.851C230.849,166.553,229.099,167.102,228.838,168.506C228.322,171.288,233.597,173.100,235.399,175.281C238.578,179.131,239.602,186.154,244.827,188.997C254.747,194.799,262.220,192.575,273.116,187.627C281.564,183.830,286.677,176.985,288.753,168.530Z"/>
<path class="path-17" d="M280.838,148.972C284.324,149.491,282.574,152.582,282.622,162.212"/>
<path class="path-17" d="M282.622,162.212C282.693,176.384,270.391,187.123,257.445,186.881"/>
<path class="path-17" d="M257.445,186.881C250.343,186.748,240.955,181.365,241.006,170.297"/>
<path class="path-17" d="M241.006,170.297C241.021,166.966,254.486,161.706,260.522,158.478"/>
<path class="path-17" d="M260.522,158.478C266.456,155.306,277.756,148.885,280.838,148.972"/>
<path class="path-18" d="M280.838,148.972C284.324,149.491,282.574,152.582,282.622,162.212C282.693,176.384,270.391,187.123,257.445,186.881C250.343,186.748,240.955,181.365,241.006,170.297C241.021,166.966,254.486,161.706,260.522,158.478C266.456,155.306,277.756,148.885,280.838,148.972Z"/>
<path class="path-17" d="M171.830,159.820C176.434,161.348,207.373,169.359,208.000,173.980"/>
<path class="path-17" d="M208.000,173.980C209.734,186.757,201.386,195.187,188.651,191.908"/>
<path class="path-17" d="M188.651,191.908C181.211,189.777,177.827,184.261,175.193,177.594"/>
<path class="path-17" d="M175.193,177.594C173.634,174.069,166.139,157.931,171.830,159.820"/>
<path class="path-18" d="M171.830,159.820C176.434,161.348,207.373,169.359,208.000,173.980C209.734,186.757,201.386,195.187,188.651,191.908C181.211,189.777,177.827,184.261,175.193,177.594C173.634,174.069,166.139,157.931,171.830,159.820Z"/>
</g>
</g>
<g id="pupil">
<path class="path-0" d="M242.925,164.686C245.202,164.116,248.404,167.273,249.255,175.698C249.893,182.012,248.231,184.602,246.483,184.804C244.583,185.024,242.938,182.431,241.654,175.654C240.285,168.422,240.946,165.182,242.925,164.686Z" mask="url(#f3906406-f197-4bf1-91d8-744c09cca836)"/>
<path class="path-0" d="M178.575,164.856C180.585,164.659,182.176,167.715,183.144,175.178C183.957,181.447,183.399,184.198,181.740,184.556C180.175,184.894,178.068,182.985,176.662,177.185C174.703,169.101,176.353,165.072,178.575,164.856Z" mask="url(#f3906406-f197-4bf1-91d8-744c09cca836)"/>
</g>
</g>
<g id="hat">
<path class="path-0" d="M303.349,122.584C305.354,123.902,308.337,126.243,308.673,128.906C310.011,135.229,299.029,134.588,295.699,134.923C289.057,134.927,282.114,134.728,275.770,134.907C270.662,135.516,265.551,136.073,260.432,136.583C252.049,136.762,243.674,136.504,235.291,136.434C220.696,136.886,206.121,136.452,191.510,136.395C190.200,136.443,150.919,140.997,144.309,137.384C135.591,132.719,144.611,125.999,144.270,121.648C144.265,118.007,136.331,117.015,138.314,110.729C140.292,104.785,161.409,100.787,167.682,99.462C179.959,96.801,192.571,93.157,205.515,91.179C223.736,88.546,242.590,88.909,261.136,87.264C273.594,86.261,302.200,94.149,307.673,106.947C312.380,117.553,295.713,107.631,293.719,106.968C292.254,105.879,287.106,103.650,288.247,106.930C289.346,112.657,299.268,119.235,303.349,122.584M185.977,86.779C175.616,89.313,165.975,91.035,155.980,93.361C151.657,94.356,146.354,96.988,142.352,94.707C133.357,89.821,143.071,66.874,147.385,60.912C161.701,41.632,192.655,33.352,217.896,33.304C262.868,33.217,280.488,40.068,295.436,55.086C300.090,59.424,316.665,81.101,308.003,87.088C304.677,89.081,298.692,85.102,295.701,83.768C285.398,79.436,243.726,72.654,185.977,86.779M244.351,22.854C237.141,22.453,235.387,21.023,227.810,21.675C196.533,24.851,154.399,26.388,135.761,56.619C129.774,66.578,129.742,77.864,127.731,88.488C126.059,97.099,121.080,103.717,122.058,112.332C123.045,119.327,126.052,120.991,128.363,126.328C131.004,131.996,129.640,134.659,131.288,138.327C134.901,148.998,144.574,148.459,153.897,148.386C158.744,148.349,176.620,148.206,186.357,148.033C198.253,147.822,214.111,147.414,226.003,147.044C235.160,146.760,247.370,146.370,256.520,145.919C264.931,145.504,276.150,144.937,284.538,144.195C294.781,143.289,317.399,141.467,318.584,140.224C320.712,138.033,324.580,116.707,324.588,112.731C324.595,109.391,322.936,106.050,322.949,100.707C322.654,86.120,322.349,72.534,314.107,58.917C298.947,34.353,271.436,25.044,244.351,22.854Z"/>
<path class="path-19" d="M261.136,87.264C273.594,86.261,302.200,94.149,307.673,106.947"/>
<path class="path-19" d="M307.673,106.947C312.380,117.553,295.713,107.631,293.719,106.968"/>
<path class="path-19" d="M293.719,106.968C292.254,105.879,287.106,103.650,288.247,106.930"/>
<path class="path-19" d="M288.247,106.930C289.346,112.657,299.268,119.235,303.349,122.584"/>
<path class="path-19" d="M303.349,122.584C305.354,123.902,308.337,126.243,308.673,128.906"/>
<path class="path-19" d="M308.673,128.906C310.011,135.229,299.029,134.588,295.699,134.923"/>
<path class="path-19" d="M295.699,134.923C289.057,134.927,282.114,134.728,275.770,134.907"/>
<path class="path-19" d="M275.770,134.907C270.662,135.516,265.551,136.073,260.432,136.583"/>
<path class="path-19" d="M260.432,136.583C252.049,136.762,243.674,136.504,235.291,136.434"/>
<path class="path-19" d="M235.291,136.434C220.696,136.886,206.121,136.452,191.510,136.395"/>
<path class="path-19" d="M191.510,136.395C190.200,136.443,150.919,140.997,144.309,137.384"/>
<path class="path-19" d="M144.309,137.384C135.591,132.719,144.611,125.999,144.270,121.648"/>
<path class="path-19" d="M144.270,121.648C144.265,118.007,136.331,117.015,138.314,110.729"/>
<path class="path-19" d="M138.314,110.729C140.292,104.785,161.409,100.787,167.682,99.462"/>
<path class="path-19" d="M167.682,99.462C179.959,96.801,192.571,93.157,205.515,91.179"/>
<path class="path-19" d="M205.515,91.179C223.736,88.546,242.590,88.909,261.136,87.264"/>
<path class="path-20" d="M261.136,87.264C273.594,86.261,302.200,94.149,307.673,106.947C312.380,117.553,295.713,107.631,293.719,106.968C292.254,105.879,287.106,103.650,288.247,106.930C289.346,112.657,299.268,119.235,303.349,122.584C305.354,123.902,308.337,126.243,308.673,128.906C310.011,135.229,299.029,134.588,295.699,134.923C289.057,134.927,282.114,134.728,275.770,134.907C270.662,135.516,265.551,136.073,260.432,136.583C252.049,136.762,243.674,136.504,235.291,136.434C220.696,136.886,206.121,136.452,191.510,136.395C190.200,136.443,150.919,140.997,144.309,137.384C135.591,132.719,144.611,125.999,144.270,121.648C144.265,118.007,136.331,117.015,138.314,110.729C140.292,104.785,161.409,100.787,167.682,99.462C179.959,96.801,192.571,93.157,205.515,91.179C223.736,88.546,242.590,88.909,261.136,87.264Z"/>
<path class="path-9" d="M217.896,33.304C262.868,33.217,280.488,40.068,295.436,55.086"/>
<path class="path-9" d="M295.436,55.086C300.090,59.424,316.665,81.101,308.003,87.088"/>
<path class="path-9" d="M308.003,87.088C304.677,89.081,298.692,85.102,295.701,83.768"/>
<path class="path-9" d="M295.701,83.768C285.398,79.436,243.726,72.654,185.977,86.779"/>
<path class="path-9" d="M185.977,86.779C175.616,89.313,165.975,91.035,155.980,93.361"/>
<path class="path-9" d="M155.980,93.361C151.657,94.356,146.354,96.988,142.352,94.707"/>
<path class="path-9" d="M142.352,94.707C133.357,89.821,143.071,66.874,147.385,60.912"/>
<path class="path-9" d="M147.385,60.912C161.701,41.632,192.655,33.352,217.896,33.304"/>
<path class="path-10" d="M217.896,33.304C262.868,33.217,280.488,40.068,295.436,55.086C300.090,59.424,316.665,81.101,308.003,87.088C304.677,89.081,298.692,85.102,295.701,83.768C285.398,79.436,243.726,72.654,185.977,86.779C175.616,89.313,165.975,91.035,155.980,93.361C151.657,94.356,146.354,96.988,142.352,94.707C133.357,89.821,143.071,66.874,147.385,60.912C161.701,41.632,192.655,33.352,217.896,33.304Z"/>
</g>
<g id="left_ear">
<path class="path-0" d="M302.613,187.077C301.489,183.201,310.942,158.801,312.575,156.519C317.521,149.600,329.371,159.981,330.479,166.534C331.684,174.683,320.018,182.909,313.360,187.758C308.420,191.242,304.074,192.110,302.613,187.077M338.992,170.491C340.538,157.770,329.276,141.039,316.919,144.024C303.791,147.196,302.867,164.801,298.939,175.269C297.340,179.897,294.639,184.505,294.061,189.127C292.888,197.409,296.516,204.489,305.721,202.305C318.933,199.026,336.812,184.790,338.992,170.491Z"/>
<path class="path-15" d="M312.575,156.519C317.521,149.600,329.371,159.981,330.479,166.534"/>
<path class="path-15" d="M330.479,166.534C331.684,174.683,320.018,182.909,313.360,187.758"/>
<path class="path-15" d="M313.360,187.758C308.420,191.242,304.074,192.110,302.613,187.077"/>
<path class="path-15" d="M302.613,187.077C301.489,183.201,310.942,158.801,312.575,156.519"/>
<path class="path-16" d="M312.575,156.519C317.521,149.600,329.371,159.981,330.479,166.534C331.684,174.683,320.018,182.909,313.360,187.758C308.420,191.242,304.074,192.110,302.613,187.077C301.489,183.201,310.942,158.801,312.575,156.519Z"/>
</g>
<g id="earrings">
<path class="path-0" d="M323.428,204.875C314.514,207.908,313.005,188.108,316.806,188.728C322.048,190.922,326.013,200.928,323.428,204.875M332.013,197.405C325.123,196.190,322.796,187.623,322.598,183.646C330.190,186.033,339.421,192.644,332.013,197.405M340.007,192.378C337.718,184.661,326.838,179.206,319.308,176.408C317.030,175.561,311.766,184.014,311.393,186.543C310.210,190.417,308.947,212.834,322.438,211.063C327.936,210.093,341.860,198.620,340.007,192.378Z"/>
<path class="path-21" d="M322.598,183.646C330.190,186.033,339.421,192.644,332.013,197.405"/>
<path class="path-21" d="M332.013,197.405C325.123,196.190,322.796,187.623,322.598,183.646"/>
<path class="path-22" d="M322.598,183.646C330.190,186.033,339.421,192.644,332.013,197.405C325.123,196.190,322.796,187.623,322.598,183.646Z"/>
<path class="path-21" d="M316.806,188.728C322.048,190.922,326.013,200.928,323.428,204.875"/>
<path class="path-21" d="M323.428,204.875C314.514,207.908,313.005,188.108,316.806,188.728"/>
<path class="path-22" d="M316.806,188.728C322.048,190.922,326.013,200.928,323.428,204.875C314.514,207.908,313.005,188.108,316.806,188.728Z"/>
</g>
</g>
<g id="left_arm">
<path class="path-0" d="M291.811,458.900C295.377,452.917,302.414,458.115,310.258,462.263C312.717,463.539,325.279,461.477,327.167,463.551C330.615,466.981,326.095,473.746,321.510,475.113C311.417,477.630,286.902,467.342,291.811,458.900M279.516,276.423C280.393,273.226,288.864,263.064,293.897,264.184C296.819,264.834,298.222,269.839,299.220,272.502C301.881,280.818,304.543,289.469,306.872,298.119C313.194,320.741,316.122,343.699,322.177,365.988C324.474,375.427,327.607,387.308,330.803,395.931C334.049,404.383,338.285,402.917,340.474,408.573C341.582,411.657,341.140,417.224,343.136,421.881C346.130,429.201,351.785,433.194,354.446,437.851C356.111,440.512,356.510,442.648,353.117,444.173C351.004,445.974,345.176,448.653,342.892,449.626C335.096,450.747,327.020,452.170,319.295,450.665C310.448,449.329,286.217,440.135,282.009,434.077C274.596,423.000,284.994,410.601,286.424,399.924C287.064,396.915,292.142,352.986,291.567,350.019C291.012,343.154,287.387,337.131,285.841,330.057C284.214,320.430,282.539,310.147,281.179,300.115C280.223,291.877,276.733,285.067,279.516,276.423M305.541,254.536C303.213,249.877,295.893,241.561,289.904,242.890C284.914,244.222,284.249,250.210,283.582,254.203C281.920,264.184,279.924,272.502,279.924,282.149C279.590,289.136,280.257,295.458,280.921,302.111C281.586,311.427,279.590,329.392,279.924,340.038C279.924,349.686,282.253,359.667,281.586,367.985C279.590,387.613,271.273,406.246,271.938,425.874C271.939,435.855,274.600,435.855,276.929,443.840C278.592,449.828,277.263,456.150,279.590,461.805C285.579,476.776,302.880,490.416,319.847,487.091C335.483,484.096,336.150,467.129,344.466,458.146C351.786,450.161,366.424,454.154,368.420,445.835C370.416,438.849,360.417,431.423,357.110,425.874C350.911,416.163,357.090,414.283,354.513,406.821C352.648,401.307,346.855,395.579,343.266,388.855C340.919,385.170,338.194,378.668,336.214,373.973C332.515,364.176,329.184,352.753,327.077,342.034C324.924,329.750,324.348,318.751,320.845,306.103C318.048,295.493,310.200,262.852,305.541,254.536Z"/>
<path class="path-1" d="M293.897,264.184C296.819,264.834,298.222,269.839,299.220,272.502"/>
<path class="path-1" d="M299.220,272.502C301.881,280.818,304.543,289.469,306.872,298.119"/>
<path class="path-1" d="M306.872,298.119C313.194,320.741,316.122,343.699,322.177,365.988"/>
<path class="path-1" d="M322.177,365.988C324.474,375.427,327.607,387.308,330.803,395.931"/>
<path class="path-1" d="M330.803,395.931C334.049,404.383,338.285,402.917,340.474,408.573"/>
<path class="path-1" d="M340.474,408.573C341.582,411.657,341.140,417.224,343.136,421.881"/>
<path class="path-1" d="M343.136,421.881C346.130,429.201,351.785,433.194,354.446,437.851"/>
<path class="path-1" d="M354.446,437.851C356.111,440.512,356.510,442.648,353.117,444.173"/>
<path class="path-1" d="M353.117,444.173C351.004,445.974,345.176,448.653,342.892,449.626"/>
<path class="path-1" d="M342.892,449.626C335.096,450.747,327.020,452.170,319.295,450.665"/>
<path class="path-1" d="M319.295,450.665C310.448,449.329,286.217,440.135,282.009,434.077"/>
<path class="path-1" d="M282.009,434.077C274.596,423.000,284.994,410.601,286.424,399.924"/>
<path class="path-1" d="M286.424,399.924C287.064,396.915,292.142,352.986,291.567,350.019"/>
<path class="path-1" d="M291.567,350.019C291.012,343.154,287.387,337.131,285.841,330.057"/>
<path class="path-1" d="M285.841,330.057C284.214,320.430,282.539,310.147,281.179,300.115"/>
<path class="path-1" d="M281.179,300.115C280.223,291.877,276.733,285.067,279.516,276.423"/>
<path class="path-1" d="M279.516,276.423C280.393,273.226,288.864,263.064,293.897,264.184"/>
<path class="path-2" d="M293.897,264.184C296.819,264.834,298.222,269.839,299.220,272.502C301.881,280.818,304.543,289.469,306.872,298.119C313.194,320.741,316.122,343.699,322.177,365.988C324.474,375.427,327.607,387.308,330.803,395.931C334.049,404.383,338.285,402.917,340.474,408.573C341.582,411.657,341.140,417.224,343.136,421.881C346.130,429.201,351.785,433.194,354.446,437.851C356.111,440.512,356.510,442.648,353.117,444.173C351.004,445.974,345.176,448.653,342.892,449.626C335.096,450.747,327.020,452.170,319.295,450.665C310.448,449.329,286.217,440.135,282.009,434.077C274.596,423.000,284.994,410.601,286.424,399.924C287.064,396.915,292.142,352.986,291.567,350.019C291.012,343.154,287.387,337.131,285.841,330.057C284.214,320.430,282.539,310.147,281.179,300.115C280.223,291.877,276.733,285.067,279.516,276.423C280.393,273.226,288.864,263.064,293.897,264.184Z"/>
<path class="path-15" d="M310.258,462.263C312.717,463.539,325.279,461.477,327.167,463.551"/>
<path class="path-15" d="M327.167,463.551C330.615,466.981,326.095,473.746,321.510,475.113"/>
<path class="path-15" d="M321.510,475.113C311.417,477.630,286.902,467.342,291.811,458.900"/>
<path class="path-15" d="M291.811,458.900C295.377,452.917,302.414,458.115,310.258,462.263"/>
<path class="path-16" d="M310.258,462.263C312.717,463.539,325.279,461.477,327.167,463.551C330.615,466.981,326.095,473.746,321.510,475.113C311.417,477.630,286.902,467.342,291.811,458.900C295.377,452.917,302.414,458.115,310.258,462.263Z"/>
</g>
<g id="bone">
<g id="bone1_clothes">
<path class="path-23" d="M243.544,391.682C243.545,391.676,255.270,333.864,255.271,333.858C255.271,333.864,254.614,392.849,254.614,392.855C254.613,392.855,243.545,391.682,243.544,391.682"/>
</g>
<g id="bone2_clothes">
<path class="path-23" d="M232.641,327.799C232.641,327.792,231.524,255.274,231.524,255.267C231.525,255.274,246.325,326.274,246.326,326.281C246.325,326.281,232.642,327.799,232.641,327.799"/>
</g>
<g id="bone3_neck">
<path class="path-23" d="M237.743,253.691C237.743,253.687,231.859,212.404,231.858,212.400C231.858,212.404,231.159,254.098,231.159,254.103C231.160,254.103,237.743,253.691,237.743,253.691"/>
</g>
<g id="bone4_head">
<path class="path-23" d="M230.457,213.192C230.457,213.184,225.545,135.274,225.544,135.266C225.546,135.274,242.794,211.408,242.795,211.416C242.794,211.416,230.459,213.191,230.457,213.192"/>
</g>
<g id="bone5_left_arm">
<path class="path-23" d="M298.049,255.076C298.052,255.085,325.189,343.480,325.191,343.489C325.187,343.481,283.423,260.983,283.419,260.975C283.420,260.974,298.048,255.077,298.049,255.076"/>
</g>
<g id="bone6_left_arm">
<path class="path-23" d="M300.880,349.109C300.880,349.115,306.934,412.563,306.934,412.570C306.935,412.563,311.320,348.978,311.320,348.972C311.319,348.972,300.881,349.109,300.880,349.109"/>
</g>
<g id="bone7_right_arm">
<path class="path-23" d="M169.370,268.830C169.367,268.841,138.986,380.273,138.983,380.284C138.988,380.274,186.569,275.031,186.574,275.021C186.573,275.020,169.372,268.830,169.370,268.830"/>
</g>
<g id="bone8_right_arm">
<path class="path-23" d="M156.798,379.255C156.801,379.260,186.959,430.578,186.962,430.583C186.958,430.578,147.107,386.365,147.103,386.361C147.104,386.360,156.797,379.256,156.798,379.255"/>
</g>
<g id="bone9_left_leg">
<path class="path-23" d="M272.125,386.368C272.125,386.379,270.049,488.023,270.049,488.033C270.047,488.023,253.817,387.662,253.815,387.652C253.817,387.651,272.123,386.368,272.125,386.368"/>
</g>
<g id="bone10_right_leg">
<path class="path-23" d="M209.749,384.117C209.747,384.128,191.163,486.205,191.161,486.215C191.164,486.205,224.751,388.037,224.755,388.027C224.753,388.026,209.750,384.118,209.749,384.117"/>
</g>
<g id="bone11_hair">
<path class="path-23" d="M234.497,156.717C234.498,156.725,245.634,236.132,245.635,236.140C245.633,236.132,220.152,160.104,220.149,160.097C220.151,160.096,234.495,156.717,234.497,156.717"/>
</g>
<g id="bone12_left_leg_S">
<path class="path-23" d="M432.163,220.581C432.168,220.586,489.326,264.933,489.332,264.937C489.327,264.932,440.232,211.797,440.227,211.791C440.226,211.792,432.163,220.581,432.163,220.581"/>
</g>
<g id="bone13_right_leg_S">
<path class="path-23" d="M490.258,215.994C490.258,216.002,494.677,288.211,494.677,288.218C494.678,288.211,502.184,216.257,502.184,216.250C502.183,216.250,490.259,215.994,490.258,215.994"/>
</g>
<g id="bone14_left_arm_S">
<path class="path-23" d="M553.842,209.732C553.835,209.730,483.655,192.169,483.648,192.167C483.654,192.170,549.996,221.023,550.002,221.026C550.003,221.025,553.842,209.733,553.842,209.732"/>
</g>
<g id="bone15_jacket_S">
<path class="path-23" d="M601.676,220.645C601.682,220.647,670.197,243.874,670.203,243.876C670.197,243.873,606.430,209.705,606.424,209.701C606.423,209.703,601.676,220.644,601.676,220.645"/>
</g>
<g id="bone16_pupils_S">
<path class="path-23" d="M438.435,342.766C438.442,342.763,503.698,311.535,503.705,311.531C503.698,311.533,434.197,331.616,434.190,331.618C434.190,331.619,438.435,342.765,438.435,342.766"/>
</g>
<g id="bone17_eyelids_S">
<path class="path-23" d="M502.309,337.358C502.308,337.351,496.345,265.253,496.344,265.246C496.344,265.253,490.380,337.351,490.380,337.358C490.381,337.358,502.308,337.358,502.309,337.358"/>
</g>
<g id="bone18_face_S">
<path class="path-23" d="M557.910,339.807C557.910,339.800,559.953,267.484,559.953,267.477C559.951,267.484,546.056,338.481,546.054,338.488C546.055,338.488,557.909,339.807,557.910,339.807"/>
</g>
</g>
<g id="jacket">
<path class="path-0" d="M202.406,270.837C204.760,275.378,200.518,285.463,200.087,290.134C196.313,307.928,190.634,325.168,192.003,342.882C192.484,347.357,194.840,356.454,191.305,360.314C189.133,362.687,182.289,360.438,180.802,362.472C178.520,365.556,172.908,357.014,171.735,355.100C170.717,353.441,169.445,346.341,169.342,344.217C169.406,339.498,169.985,330.271,171.209,324.445C172.521,318.434,174.432,312.399,176.814,306.046C178.610,299.778,180.097,292.131,181.152,284.935C182.728,280.525,185.274,278.029,185.065,274.725C184.445,270.764,183.799,268.711,187.413,267.405C191.738,266.182,201.226,265.799,202.406,270.837M263.217,274.632C264.837,272.665,282.209,263.492,284.135,262.056C294.430,255.116,303.462,263.912,304.482,271.148C305.393,277.061,298.581,297.361,297.702,301.565C296.574,305.732,295.173,308.782,295.213,312.485C294.562,329.540,298.488,318.435,302.763,332.164C303.788,335.492,305.553,342.630,305.755,346.038C305.755,350.102,304.596,359.191,302.853,362.580C301.048,365.438,296.940,369.753,293.080,366.635C292.475,366.257,288.017,360.519,286.930,359.955C280.488,356.159,271.362,357.953,266.124,351.859C262.314,346.908,260.355,339.922,258.637,333.451C256.384,325.493,256.802,317.147,257.122,308.849C257.086,299.323,257.690,282.999,263.217,274.632M276.890,255.283C274.016,257.482,267.677,259.405,265.774,259.967C260.774,261.156,259.909,256.346,259.507,252.760C259.153,248.087,262.105,241.337,265.290,237.689C267.905,234.693,272.467,231.455,276.821,231.150C281.380,230.668,289.125,234.499,288.462,239.673C288.260,242.800,281.520,251.741,276.890,255.283M200.688,240.241C205.759,247.535,211.338,254.920,206.415,256.201C201.355,257.519,198.485,257.475,189.763,255.866C178.539,253.795,173.972,238.346,179.214,232.849C183.915,227.918,194.790,231.758,200.688,240.241M306.074,378.048C312.339,367.802,318.615,361.022,319.607,348.522C320.050,342.151,319.024,334.490,316.176,328.808C311.244,319.573,305.556,317.721,301.952,306.435C298.814,297.165,302.369,289.028,302.032,279.642C301.789,276.541,295.045,261.766,295.295,258.938C295.002,254.352,299.753,250.778,300.380,246.595C301.077,242.782,301.973,238.743,301.166,234.952C300.311,229.390,294.966,226.148,290.794,223.243C284.856,219.609,279.456,219.100,272.415,220.161C262.931,221.602,258.085,230.728,254.609,237.270C249.617,246.668,251.136,261.858,249.422,272.360C248.452,278.305,246.930,286.550,245.923,292.130C242.410,309.983,243.217,352.324,256.239,365.203C257.891,367.062,270.965,374.616,275.202,376.664C281.113,379.558,282.355,383.621,288.314,385.952C291.500,387.343,298.280,384.099,302.077,381.778C303.435,381.008,305.477,379.023,306.074,378.048M208.643,233.012C203.771,226.917,195.446,216.467,187.560,217.783C182.802,218.736,175.870,221.484,172.232,225.041C169.192,228.013,165.690,233.326,165.726,237.632C165.644,243.308,166.500,250.030,168.778,254.709C171.027,259.330,178.700,262.645,180.183,267.491C180.780,269.651,177.568,280.315,177.251,283.074C176.569,290.937,174.514,298.951,172.242,305.441C169.929,312.044,164.203,319.754,162.019,326.400C159.772,333.240,157.389,342.166,157.716,350.009C157.667,354.027,160.488,362.828,163.470,367.466C165.433,370.519,169.919,375.024,172.183,375.860C173.684,376.414,189.095,379.336,194.135,375.091C200.501,369.728,200.071,361.323,198.767,347.732C197.356,334.291,205.672,323.098,208.091,309.643C209.814,299.475,215.567,275.621,215.609,266.634C215.637,260.796,217.390,256.852,215.778,248.791C214.852,244.786,211.886,237.070,208.643,233.012Z"/>
<path class="path-1" d="M284.135,262.056C294.430,255.116,303.462,263.912,304.482,271.148"/>
<path class="path-1" d="M304.482,271.148C305.393,277.061,298.581,297.361,297.702,301.565"/>
<path class="path-1" d="M297.702,301.565C296.574,305.732,295.173,308.782,295.213,312.485"/>
<path class="path-1" d="M295.213,312.485C294.562,329.540,298.488,318.435,302.763,332.164"/>
<path class="path-1" d="M302.763,332.164C303.788,335.492,305.553,342.630,305.755,346.038"/>
<path class="path-1" d="M305.755,346.038C305.755,350.102,304.596,359.191,302.853,362.580"/>
<path class="path-1" d="M302.853,362.580C301.048,365.438,296.940,369.753,293.080,366.635"/>
<path class="path-1" d="M293.080,366.635C292.475,366.257,288.017,360.519,286.930,359.955"/>
<path class="path-1" d="M286.930,359.955C280.488,356.159,271.362,357.953,266.124,351.859"/>
<path class="path-1" d="M266.124,351.859C262.314,346.908,260.355,339.922,258.637,333.451"/>
<path class="path-1" d="M258.637,333.451C256.384,325.493,256.802,317.147,257.122,308.849"/>
<path class="path-1" d="M257.122,308.849C257.086,299.323,257.690,282.999,263.217,274.632"/>
<path class="path-1" d="M263.217,274.632C264.837,272.665,282.209,263.492,284.135,262.056"/>
<path class="path-2" d="M284.135,262.056C294.430,255.116,303.462,263.912,304.482,271.148C305.393,277.061,298.581,297.361,297.702,301.565C296.574,305.732,295.173,308.782,295.213,312.485C294.562,329.540,298.488,318.435,302.763,332.164C303.788,335.492,305.553,342.630,305.755,346.038C305.755,350.102,304.596,359.191,302.853,362.580C301.048,365.438,296.940,369.753,293.080,366.635C292.475,366.257,288.017,360.519,286.930,359.955C280.488,356.159,271.362,357.953,266.124,351.859C262.314,346.908,260.355,339.922,258.637,333.451C256.384,325.493,256.802,317.147,257.122,308.849C257.086,299.323,257.690,282.999,263.217,274.632C264.837,272.665,282.209,263.492,284.135,262.056Z"/>
<path class="path-1" d="M187.413,267.405C191.738,266.182,201.226,265.799,202.406,270.837"/>
<path class="path-1" d="M202.406,270.837C204.760,275.378,200.518,285.463,200.087,290.134"/>
<path class="path-1" d="M200.087,290.134C196.313,307.928,190.634,325.168,192.003,342.882"/>
<path class="path-1" d="M192.003,342.882C192.484,347.357,194.840,356.454,191.305,360.314"/>
<path class="path-1" d="M191.305,360.314C189.133,362.687,182.289,360.438,180.802,362.472"/>
<path class="path-1" d="M180.802,362.472C178.520,365.556,172.908,357.014,171.735,355.100"/>
<path class="path-1" d="M171.735,355.100C170.717,353.441,169.445,346.341,169.342,344.217"/>
<path class="path-1" d="M169.342,344.217C169.406,339.498,169.985,330.271,171.209,324.445"/>
<path class="path-1" d="M171.209,324.445C172.521,318.434,174.432,312.399,176.814,306.046"/>
<path class="path-1" d="M176.814,306.046C178.610,299.778,180.097,292.131,181.152,284.935"/>
<path class="path-1" d="M181.152,284.935C182.728,280.525,185.274,278.029,185.065,274.725"/>
<path class="path-1" d="M185.065,274.725C184.445,270.764,183.799,268.711,187.413,267.405"/>
<path class="path-2" d="M187.413,267.405C191.738,266.182,201.226,265.799,202.406,270.837C204.760,275.378,200.518,285.463,200.087,290.134C196.313,307.928,190.634,325.168,192.003,342.882C192.484,347.357,194.840,356.454,191.305,360.314C189.133,362.687,182.289,360.438,180.802,362.472C178.520,365.556,172.908,357.014,171.735,355.100C170.717,353.441,169.445,346.341,169.342,344.217C169.406,339.498,169.985,330.271,171.209,324.445C172.521,318.434,174.432,312.399,176.814,306.046C178.610,299.778,180.097,292.131,181.152,284.935C182.728,280.525,185.274,278.029,185.065,274.725C184.445,270.764,183.799,268.711,187.413,267.405Z"/>
<path class="path-1" d="M276.821,231.150C281.380,230.668,289.125,234.499,288.462,239.673"/>
<path class="path-1" d="M288.462,239.673C288.260,242.800,281.520,251.741,276.890,255.283"/>
<path class="path-1" d="M276.890,255.283C274.016,257.482,267.677,259.405,265.774,259.967"/>
<path class="path-1" d="M265.774,259.967C260.774,261.156,259.909,256.346,259.507,252.760"/>
<path class="path-1" d="M259.507,252.760C259.153,248.087,262.105,241.337,265.290,237.689"/>
<path class="path-1" d="M265.290,237.689C267.905,234.693,272.467,231.455,276.821,231.150"/>
<path class="path-2" d="M276.821,231.150C281.380,230.668,289.125,234.499,288.462,239.673C288.260,242.800,281.520,251.741,276.890,255.283C274.016,257.482,267.677,259.405,265.774,259.967C260.774,261.156,259.909,256.346,259.507,252.760C259.153,248.087,262.105,241.337,265.290,237.689C267.905,234.693,272.467,231.455,276.821,231.150Z"/>
<path class="path-1" d="M200.688,240.241C205.759,247.535,211.338,254.920,206.415,256.201"/>
<path class="path-1" d="M206.415,256.201C201.355,257.519,198.485,257.475,189.763,255.866"/>
<path class="path-1" d="M189.763,255.866C178.539,253.795,173.972,238.346,179.214,232.849"/>
<path class="path-1" d="M179.214,232.849C183.915,227.918,194.790,231.758,200.688,240.241"/>
<path class="path-2" d="M200.688,240.241C205.759,247.535,211.338,254.920,206.415,256.201C201.355,257.519,198.485,257.475,189.763,255.866C178.539,253.795,173.972,238.346,179.214,232.849C183.915,227.918,194.790,231.758,200.688,240.241Z"/>
</g>
</g>
<style>
.path-0{fill:#000000;fill-rule:evenodd;stroke:none;}
.path-1{fill:none;stroke:#a60d3f;stroke-width:1;stroke-linecap:butt;stroke-linejoin:round;}
.path-2{fill:#a60d3f;fill-rule:evenodd;stroke:none;}
.path-3{fill:none;stroke:#d88e4b;stroke-width:1;stroke-linecap:butt;stroke-linejoin:round;}
.path-4{fill:#d88e4b;fill-rule:evenodd;stroke:none;}
.path-5{fill:none;stroke:#6e2353;stroke-width:1;stroke-linecap:butt;stroke-linejoin:round;}
.path-6{fill:#6e2353;fill-rule:evenodd;stroke:none;}
.path-7{fill:none;stroke:#392966;stroke-width:1;stroke-linecap:butt;stroke-linejoin:round;}
.path-8{fill:#392966;fill-rule:evenodd;stroke:none;}
.path-9{fill:none;stroke:#cc9bc5;stroke-width:1;stroke-linecap:butt;stroke-linejoin:round;}
.path-10{fill:#cc9bc5;fill-rule:evenodd;stroke:none;}
.path-11{fill:none;stroke:#620527;stroke-width:1;stroke-linecap:butt;stroke-linejoin:round;}
.path-12{fill:#620527;fill-rule:evenodd;stroke:none;}
.path-13{fill:none;stroke:#6a3661;stroke-width:1;stroke-linecap:butt;stroke-linejoin:round;}
.path-14{fill:#6a3661;fill-rule:evenodd;stroke:none;}
.path-15{fill:none;stroke:#f8a087;stroke-width:1;stroke-linecap:butt;stroke-linejoin:round;}
.path-16{fill:#f8a087;fill-rule:evenodd;stroke:none;}
.path-17{fill:none;stroke:#ffffff;stroke-width:1;stroke-linecap:butt;stroke-linejoin:round;}
.path-18{fill:#ffffff;fill-rule:evenodd;stroke:none;}
.path-19{fill:none;stroke:#d89f4a;stroke-width:1;stroke-linecap:butt;stroke-linejoin:round;}
.path-20{fill:#d89f4a;fill-rule:evenodd;stroke:none;}
.path-21{fill:none;stroke:#fafd5b;stroke-width:1;stroke-linecap:butt;stroke-linejoin:round;}
.path-22{fill:#fafd5b;fill-rule:evenodd;stroke:none;}
.path-23{fill:none;stroke:#00ff42;stroke-width:8;stroke-linecap:round;stroke-linejoin:round;}
.path-24{fill:none;stroke:#000000;stroke-width:1;stroke-linecap:butt;stroke-linejoin:round;}
.path-25{fill:none;stroke:#ececec;stroke-width:1;stroke-linecap:butt;stroke-linejoin:round;}
.path-26{fill:#ececec;fill-rule:evenodd;stroke:none;}
</style>
</svg>
