<svg version="1.1" id="Frame_139" xmlns="http://www.w3.org/2000/svg" xmlns:xlink="http://www.w3.org/1999/xlink" width="480px" height="720px">
<g id="main_bone">
<g id="right_arm">
<path class="path-0" d="M171.305,270.163C172.656,267.500,175.306,262.003,179.025,260.510C185.418,257.944,190.899,263.880,191.668,268.446C193.314,276.375,188.022,287.270,185.535,295.143C179.405,314.140,172.634,332.875,168.293,351.819C167.789,355.124,163.322,376.500,163.284,373.841C163.049,380.496,169.784,386.053,172.200,391.669C175.310,399.266,172.733,406.608,170.890,413.629C166.569,428.292,167.029,433.603,166.861,447.855C166.941,450.156,166.935,457.711,163.317,457.881C159.970,458.038,159.357,452.019,158.590,449.702C158.145,447.053,155.590,441.478,156.179,439.126C156.376,435.129,161.035,436.021,155.858,427.832C149.292,417.660,137.551,409.498,134.344,396.228C132.180,385.617,137.669,376.207,140.550,366.195C146.639,344.805,153.416,323.411,160.751,302.095C164.755,291.095,165.911,281.470,171.305,270.163M191.018,262.142C191.035,253.518,188.027,245.920,177.406,249.551C160.695,255.198,155.805,281.491,151.130,296.188C144.461,316.202,138.883,336.247,133.421,356.318C131.181,364.992,127.956,369.376,126.699,374.386C125.120,380.064,125.577,388.709,125.999,394.357C126.277,412.006,131.869,412.630,139.184,426.114C143.046,434.035,139.219,439.143,141.786,446.070C143.625,450.720,147.440,453.956,150.300,457.875C152.820,461.801,153.300,464.115,155.145,467.728C157.364,472.012,164.183,481.537,169.805,479.238C174.327,477.370,173.924,469.154,174.079,465.193C174.148,459.251,176.810,436.368,177.924,429.410C179.910,418.070,185.410,405.722,183.542,393.481C182.055,384.197,173.648,377.674,173.840,367.698C174.096,362.376,177.290,353.690,178.232,347.699C179.802,338.068,179.740,327.785,181.731,317.837C185.052,300.251,191.647,280.395,191.018,262.142Z"/>
<path class="path-1" d="M179.025,260.510C185.418,257.944,190.899,263.880,191.668,268.446"/>
<path class="path-1" d="M191.668,268.446C193.314,276.375,188.022,287.270,185.535,295.143"/>
<path class="path-1" d="M185.535,295.143C179.405,314.140,172.634,332.875,168.293,351.819"/>
<path class="path-1" d="M168.293,351.819C167.789,355.124,163.322,376.500,163.284,373.841"/>
<path class="path-1" d="M163.284,373.841C163.049,380.496,169.784,386.053,172.200,391.669"/>
<path class="path-1" d="M172.200,391.669C175.310,399.266,172.733,406.608,170.890,413.629"/>
<path class="path-1" d="M170.890,413.629C166.569,428.292,167.029,433.603,166.861,447.855"/>
<path class="path-1" d="M166.861,447.855C166.941,450.156,166.935,457.711,163.317,457.881"/>
<path class="path-1" d="M163.317,457.881C159.970,458.038,159.357,452.019,158.590,449.702"/>
<path class="path-1" d="M158.590,449.702C158.145,447.053,155.590,441.478,156.179,439.126"/>
<path class="path-1" d="M156.179,439.126C156.376,435.129,161.035,436.021,155.858,427.832"/>
<path class="path-1" d="M155.858,427.832C149.292,417.660,137.551,409.498,134.344,396.228"/>
<path class="path-1" d="M134.344,396.228C132.180,385.617,137.669,376.207,140.550,366.195"/>
<path class="path-1" d="M140.550,366.195C146.639,344.805,153.416,323.411,160.751,302.095"/>
<path class="path-1" d="M160.751,302.095C164.755,291.095,165.911,281.470,171.305,270.163"/>
<path class="path-1" d="M171.305,270.163C172.656,267.500,175.306,262.003,179.025,260.510"/>
<path class="path-2" d="M179.025,260.510C185.418,257.944,190.899,263.880,191.668,268.446C193.314,276.375,188.022,287.270,185.535,295.143C179.405,314.140,172.634,332.875,168.293,351.819C167.789,355.124,163.322,376.500,163.284,373.841C163.049,380.496,169.784,386.053,172.200,391.669C175.310,399.266,172.733,406.608,170.890,413.629C166.569,428.292,167.029,433.603,166.861,447.855C166.941,450.156,166.935,457.711,163.317,457.881C159.970,458.038,159.357,452.019,158.590,449.702C158.145,447.053,155.590,441.478,156.179,439.126C156.376,435.129,161.035,436.021,155.858,427.832C149.292,417.660,137.551,409.498,134.344,396.228C132.180,385.617,137.669,376.207,140.550,366.195C146.639,344.805,153.416,323.411,160.751,302.095C164.755,291.095,165.911,281.470,171.305,270.163C172.656,267.500,175.306,262.003,179.025,260.510Z"/>
</g>
<g id="layer_left_leg">
<g id="left_heel">
<path class="path-0" d="M236.540,540.209C228.718,529.771,244.361,508.056,255.365,506.563C269.375,504.450,273.659,528.809,271.918,533.774C269.490,540.060,260.446,543.577,254.774,544.487C250.108,545.078,239.146,543.909,236.540,540.209M277.999,506.250C272.456,498.841,257.486,498.277,249.458,500.818C219.716,509.343,214.850,565.151,256.612,554.166C263.965,552.285,279.031,546.866,282.467,539.931C285.884,534.328,283.987,527.974,282.748,521.965C281.491,517.287,280.932,510.289,277.999,506.250Z"/>
<path class="path-3" d="M255.365,506.563C269.375,504.450,273.659,528.809,271.918,533.774"/>
<path class="path-3" d="M271.918,533.774C269.490,540.060,260.446,543.577,254.774,544.487"/>
<path class="path-3" d="M254.774,544.487C250.108,545.078,239.146,543.909,236.540,540.209"/>
<path class="path-3" d="M236.540,540.209C228.718,529.771,244.361,508.056,255.365,506.563"/>
<path class="path-4" d="M255.365,506.563C269.375,504.450,273.659,528.809,271.918,533.774C269.490,540.060,260.446,543.577,254.774,544.487C250.108,545.078,239.146,543.909,236.540,540.209C228.718,529.771,244.361,508.056,255.365,506.563Z"/>
</g>
<g id="left_sole">
<path class="path-0" d="M251.916,567.019C243.289,566.084,236.717,550.890,239.807,558.292C241.591,562.568,248.573,565.036,251.849,566.717C252.426,567.039,265.408,571.111,266.838,571.356C271.854,572.876,287.345,571.789,287.880,570.523C287.988,570.268,277.096,570.688,273.635,571.030C267.117,572.207,258.687,570.709,251.849,566.717M244.550,553.127C247.072,553.726,253.185,557.750,254.740,559.727C259.505,565.783,273.108,566.945,280.987,564.576C281.996,564.300,282.208,561.947,287.989,560.731C291.177,560.061,272.489,566.395,268.429,564.704C259.805,562.788,241.376,552.373,244.550,553.127M284.362,551.119C282.646,550.372,270.146,540.432,260.211,540.889C252.165,541.306,232.599,546.659,231.119,557.123C230.554,561.183,236.579,571.813,239.790,574.228C251.015,583.326,280.969,577.678,286.647,575.276C288.645,574.431,297.500,556.841,284.362,551.119Z"/>
<path class="path-5" d="M239.807,558.292C241.591,562.568,248.573,565.036,251.849,566.717"/>
<path class="path-5" d="M251.849,566.717C258.687,570.709,267.117,572.207,273.635,571.030"/>
<path class="path-5" d="M273.635,571.030C277.096,570.688,287.988,570.268,287.880,570.523"/>
<path class="path-5" d="M287.880,570.523C287.345,571.789,271.854,572.876,266.838,571.356"/>
<path class="path-5" d="M266.838,571.356C265.408,571.111,252.426,567.039,251.916,567.019"/>
<path class="path-5" d="M251.916,567.019C243.289,566.084,236.717,550.890,239.807,558.292"/>
<path class="path-6" d="M239.807,558.292C241.591,562.568,248.573,565.036,251.849,566.717C258.687,570.709,267.117,572.207,273.635,571.030C277.096,570.688,287.988,570.268,287.880,570.523C287.345,571.789,271.854,572.876,266.838,571.356C265.408,571.111,252.426,567.039,251.916,567.019C243.289,566.084,236.717,550.890,239.807,558.292Z"/>
<path class="path-5" d="M254.740,559.727C259.505,565.783,273.108,566.945,280.987,564.576"/>
<path class="path-5" d="M280.987,564.576C281.996,564.300,282.208,561.947,287.989,560.731"/>
<path class="path-5" d="M287.989,560.731C291.177,560.061,272.489,566.395,268.429,564.704"/>
<path class="path-5" d="M268.429,564.704C259.805,562.788,241.376,552.373,244.550,553.127"/>
<path class="path-5" d="M244.550,553.127C247.072,553.726,253.185,557.750,254.740,559.727"/>
<path class="path-6" d="M254.740,559.727C259.505,565.783,273.108,566.945,280.987,564.576C281.996,564.300,282.208,561.947,287.989,560.731C291.177,560.061,272.489,566.395,268.429,564.704C259.805,562.788,241.376,552.373,244.550,553.127C247.072,553.726,253.185,557.750,254.740,559.727Z"/>
</g>
<g id="left_toe">
<path class="path-0" d="M252.450,584.410C221.232,580.926,235.250,534.588,263.152,537.331C276.775,538.866,279.598,550.889,280.763,561.890C281.686,566.896,282.951,571.243,280.548,575.865C275.771,583.446,260.427,585.201,252.450,584.410M284.470,538.340C277.929,531.248,260.344,528.633,251.332,530.482C226.957,535.740,226.333,553.030,226.674,573.000C226.592,578.000,226.519,582.668,229.456,586.716C235.979,595.138,260.247,596.846,270.259,595.006C277.611,593.125,286.658,589.274,290.433,582.011C295.229,573.105,291.004,545.762,284.470,538.340Z"/>
<path class="path-3" d="M263.152,537.331C276.775,538.866,279.598,550.889,280.763,561.890"/>
<path class="path-3" d="M280.763,561.890C281.686,566.896,282.951,571.243,280.548,575.865"/>
<path class="path-3" d="M280.548,575.865C275.771,583.446,260.427,585.201,252.450,584.410"/>
<path class="path-3" d="M252.450,584.410C221.232,580.926,235.250,534.588,263.152,537.331"/>
<path class="path-4" d="M263.152,537.331C276.775,538.866,279.598,550.889,280.763,561.890C281.686,566.896,282.951,571.243,280.548,575.865C275.771,583.446,260.427,585.201,252.450,584.410C221.232,580.926,235.250,534.588,263.152,537.331Z"/>
</g>
<g id="left_leg">
<path class="path-0" d="M236.004,405.533C237.782,400.940,247.216,404.561,251.096,404.560C255.985,404.796,266.943,404.384,270.817,407.530C284.590,417.971,285.307,466.220,284.598,482.831C283.619,496.547,284.240,509.528,282.756,522.724C281.973,528.453,281.038,534.375,279.569,539.851C278.469,544.761,272.836,551.078,276.102,554.518C277.490,556.616,280.802,555.287,283.121,555.534C287.111,556.215,287.199,552.866,289.948,553.721C299.984,557.183,280.318,578.512,271.036,581.115C263.732,583.429,248.420,580.599,242.867,575.471C241.163,573.897,238.979,572.185,237.962,570.149C226.620,547.453,238.017,492.404,242.630,465.182C244.301,455.324,249.953,476.331,255.913,473.888C267.048,469.262,235.567,429.070,233.657,416.990C232.922,413.944,234.745,408.325,236.004,405.533M280.624,397.215C274.802,392.528,258.104,393.830,251.246,394.914C244.599,395.938,221.974,395.126,218.899,400.065C213.767,408.307,227.770,422.099,230.383,429.572C231.510,433.647,228.247,453.867,227.785,459.539C227.503,472.140,226.363,482.902,225.719,495.491C224.095,520.682,213.067,544.986,219.179,569.120C223.923,587.308,238.421,595.533,259.948,595.696C269.573,595.769,288.909,586.096,299.213,569.452C304.809,560.413,302.729,545.960,301.318,542.648C299.540,538.475,295.268,535.330,293.841,530.684C287.559,512.503,295.987,492.283,294.909,472.966C293.918,454.914,295.465,409.218,280.624,397.215Z"/>
<path class="path-7" d="M251.096,404.560C255.985,404.796,266.943,404.384,270.817,407.530"/>
<path class="path-7" d="M270.817,407.530C284.590,417.971,285.307,466.220,284.598,482.831"/>
<path class="path-7" d="M284.598,482.831C283.619,496.547,284.240,509.528,282.756,522.724"/>
<path class="path-7" d="M282.756,522.724C281.973,528.453,281.038,534.375,279.569,539.851"/>
<path class="path-7" d="M279.569,539.851C278.469,544.761,272.836,551.078,276.102,554.518"/>
<path class="path-7" d="M276.102,554.518C277.490,556.616,280.802,555.287,283.121,555.534"/>
<path class="path-7" d="M283.121,555.534C287.111,556.215,287.199,552.866,289.948,553.721"/>
<path class="path-7" d="M289.948,553.721C299.984,557.183,280.318,578.512,271.036,581.115"/>
<path class="path-7" d="M271.036,581.115C263.732,583.429,248.420,580.599,242.867,575.471"/>
<path class="path-7" d="M242.867,575.471C241.163,573.897,238.979,572.185,237.962,570.149"/>
<path class="path-7" d="M237.962,570.149C226.620,547.453,238.017,492.404,242.630,465.182"/>
<path class="path-7" d="M242.630,465.182C244.301,455.324,249.953,476.331,255.913,473.888"/>
<path class="path-7" d="M255.913,473.888C267.048,469.262,235.567,429.070,233.657,416.990"/>
<path class="path-7" d="M233.657,416.990C232.922,413.944,234.745,408.325,236.004,405.533"/>
<path class="path-7" d="M236.004,405.533C237.782,400.940,247.216,404.561,251.096,404.560"/>
<path class="path-8" d="M251.096,404.560C255.985,404.796,266.943,404.384,270.817,407.530C284.590,417.971,285.307,466.220,284.598,482.831C283.619,496.547,284.240,509.528,282.756,522.724C281.973,528.453,281.038,534.375,279.569,539.851C278.469,544.761,272.836,551.078,276.102,554.518C277.490,556.616,280.802,555.287,283.121,555.534C287.111,556.215,287.199,552.866,289.948,553.721C299.984,557.183,280.318,578.512,271.036,581.115C263.732,583.429,248.420,580.599,242.867,575.471C241.163,573.897,238.979,572.185,237.962,570.149C226.620,547.453,238.017,492.404,242.630,465.182C244.301,455.324,249.953,476.331,255.913,473.888C267.048,469.262,235.567,429.070,233.657,416.990C232.922,413.944,234.745,408.325,236.004,405.533C237.782,400.940,247.216,404.561,251.096,404.560Z"/>
</g>
</g>
<g id="layer_right_leg">
<g id="right_heel">
<path class="path-0" d="M195.785,652.200C197.255,633.164,196.582,618.219,219.682,613.849C229.905,611.724,249.653,614.163,255.748,623.874C258.962,628.721,258.294,636.072,258.867,641.372C259.949,650.641,266.704,667.641,253.886,671.212C252.905,671.589,225.122,675.168,216.550,676.881C211.288,678.449,205.725,680.695,201.252,677.561C195.373,672.504,195.104,659.215,195.785,652.200M266.619,621.388C261.431,609.639,244.838,603.398,233.287,605.582C218.099,608.263,202.266,603.984,192.946,618.714C183.629,633.437,185.156,659.983,189.221,676.434C190.487,682.367,194.634,693.164,199.766,696.261C203.523,698.420,209.138,697.502,213.456,697.308C234.397,696.698,271.249,702.030,270.175,670.792C269.682,659.837,270.328,629.869,266.619,621.388Z"/>
<path class="path-3" d="M219.682,613.849C229.905,611.724,249.653,614.163,255.748,623.874"/>
<path class="path-3" d="M255.748,623.874C258.962,628.721,258.294,636.072,258.867,641.372"/>
<path class="path-3" d="M258.867,641.372C259.949,650.641,266.704,667.641,253.886,671.212"/>
<path class="path-3" d="M253.886,671.212C252.905,671.589,225.122,675.168,216.550,676.881"/>
<path class="path-3" d="M216.550,676.881C211.288,678.449,205.725,680.695,201.252,677.561"/>
<path class="path-3" d="M201.252,677.561C195.373,672.504,195.104,659.215,195.785,652.200"/>
<path class="path-3" d="M195.785,652.200C197.255,633.164,196.582,618.219,219.682,613.849"/>
<path class="path-4" d="M219.682,613.849C229.905,611.724,249.653,614.163,255.748,623.874C258.962,628.721,258.294,636.072,258.867,641.372C259.949,650.641,266.704,667.641,253.886,671.212C252.905,671.589,225.122,675.168,216.550,676.881C211.288,678.449,205.725,680.695,201.252,677.561C195.373,672.504,195.104,659.215,195.785,652.200C197.255,633.164,196.582,618.219,219.682,613.849Z"/>
</g>
<g id="right_leg">
<path class="path-0" d="M181.032,406.569C178.147,400.330,185.871,393.724,191.768,392.422C198.009,390.910,207.692,393.259,214.231,395.072C217.738,396.044,222.311,397.898,225.374,399.862C228.264,401.713,232.243,404.427,233.884,407.507C237.493,414.882,237.537,418.525,237.834,423.441C238.155,428.759,235.758,434.908,235.616,441.064C236.090,457.733,239.440,474.839,242.796,490.666C244.921,501.206,249.914,516.274,250.661,526.211C251.034,535.141,244.073,535.754,244.632,541.030C244.789,544.686,256.809,559.434,259.333,563.646C267.225,576.247,273.612,591.919,274.244,606.847C274.789,619.731,256.597,637.309,244.788,639.795C231.289,642.358,192.895,629.462,180.310,623.084C174.543,620.370,164.702,616.222,162.727,609.683C161.201,605.462,165.560,586.096,167.665,581.702C170.706,575.920,173.304,574.802,175.286,567.414C177.776,556.700,176.303,544.847,176.095,533.592C175.379,518.654,177.224,479.982,180.878,465.509C183.085,455.765,190.778,422.524,188.145,413.642C186.646,408.413,182.796,409.809,181.032,406.569M205.230,381.821C199.490,380.081,194.926,374.949,189.036,377.220C186.757,378.324,182.918,381.508,181.333,383.244C166.637,396.895,166.483,409.512,167.273,428.120C167.278,436.108,167.293,444.430,168.280,452.043C168.826,457.030,170.327,461.307,169.876,466.004C169.741,470.344,167.986,474.766,167.576,480.120C167.231,486.784,169.242,494.668,168.763,505.991C167.578,516.330,165.703,526.036,165.821,535.983C166.061,541.275,167.607,553.796,166.801,557.811C165.043,562.885,160.635,567.764,158.185,572.207C153.953,581.047,152.745,591.065,153.174,600.349C153.134,606.638,153.174,614.913,156.069,620.069C160.421,627.819,169.314,632.657,176.802,636.604C189.060,642.979,201.730,644.381,215.171,648.091C219.248,649.250,223.031,651.433,227.412,651.917C229.072,651.845,242.630,649.946,245.272,649.503C257.722,646.669,278.066,635.242,282.529,622.500C283.701,618.467,283.168,612.843,282.997,608.530C282.836,604.520,282.670,600.509,282.499,596.497C281.088,571.661,270.293,562.200,263.377,541.600C261.062,534.707,259.718,519.772,258.363,511.835C255.337,496.064,249.740,481.064,248.654,464.544C248.501,461.190,247.612,456.531,249.815,453.401C251.671,450.666,255.620,450.462,256.799,447.427C258.540,442.017,251.105,424.378,249.506,418.458C248.678,414.833,248.801,410.164,247.306,406.568C243.232,397.426,228.809,387.752,219.368,385.180C214.641,383.727,209.641,383.620,205.230,381.821Z"/>
<path class="path-7" d="M191.768,392.422C198.009,390.910,207.692,393.259,214.231,395.072"/>
<path class="path-7" d="M214.231,395.072C217.738,396.044,222.311,397.898,225.374,399.862"/>
<path class="path-7" d="M225.374,399.862C228.264,401.713,232.243,404.427,233.884,407.507"/>
<path class="path-7" d="M233.884,407.507C237.493,414.882,237.537,418.525,237.834,423.441"/>
<path class="path-7" d="M237.834,423.441C238.155,428.759,235.758,434.908,235.616,441.064"/>
<path class="path-7" d="M235.616,441.064C236.090,457.733,239.440,474.839,242.796,490.666"/>
<path class="path-7" d="M242.796,490.666C244.921,501.206,249.914,516.274,250.661,526.211"/>
<path class="path-7" d="M250.661,526.211C251.034,535.141,244.073,535.754,244.632,541.030"/>
<path class="path-7" d="M244.632,541.030C244.789,544.686,256.809,559.434,259.333,563.646"/>
<path class="path-7" d="M259.333,563.646C267.225,576.247,273.612,591.919,274.244,606.847"/>
<path class="path-7" d="M274.244,606.847C274.789,619.731,256.597,637.309,244.788,639.795"/>
<path class="path-7" d="M244.788,639.795C231.289,642.358,192.895,629.462,180.310,623.084"/>
<path class="path-7" d="M180.310,623.084C174.543,620.370,164.702,616.222,162.727,609.683"/>
<path class="path-7" d="M162.727,609.683C161.201,605.462,165.560,586.096,167.665,581.702"/>
<path class="path-7" d="M167.665,581.702C170.706,575.920,173.304,574.802,175.286,567.414"/>
<path class="path-7" d="M175.286,567.414C177.776,556.700,176.303,544.847,176.095,533.592"/>
<path class="path-7" d="M176.095,533.592C175.379,518.654,177.224,479.982,180.878,465.509"/>
<path class="path-7" d="M180.878,465.509C183.085,455.765,190.778,422.524,188.145,413.642"/>
<path class="path-7" d="M188.145,413.642C186.646,408.413,182.796,409.809,181.032,406.569"/>
<path class="path-7" d="M181.032,406.569C178.147,400.330,185.871,393.724,191.768,392.422"/>
<path class="path-8" d="M191.768,392.422C198.009,390.910,207.692,393.259,214.231,395.072C217.738,396.044,222.311,397.898,225.374,399.862C228.264,401.713,232.243,404.427,233.884,407.507C237.493,414.882,237.537,418.525,237.834,423.441C238.155,428.759,235.758,434.908,235.616,441.064C236.090,457.733,239.440,474.839,242.796,490.666C244.921,501.206,249.914,516.274,250.661,526.211C251.034,535.141,244.073,535.754,244.632,541.030C244.789,544.686,256.809,559.434,259.333,563.646C267.225,576.247,273.612,591.919,274.244,606.847C274.789,619.731,256.597,637.309,244.788,639.795C231.289,642.358,192.895,629.462,180.310,623.084C174.543,620.370,164.702,616.222,162.727,609.683C161.201,605.462,165.560,586.096,167.665,581.702C170.706,575.920,173.304,574.802,175.286,567.414C177.776,556.700,176.303,544.847,176.095,533.592C175.379,518.654,177.224,479.982,180.878,465.509C183.085,455.765,190.778,422.524,188.145,413.642C186.646,408.413,182.796,409.809,181.032,406.569C178.147,400.330,185.871,393.724,191.768,392.422Z"/>
</g>
<g id="right_toe">
<path class="path-0" d="M162.446,635.820C162.958,617.546,166.885,593.512,188.530,587.878C193.458,586.319,200.851,587.639,206.551,588.375C237.345,592.273,247.105,600.806,250.493,631.934C251.164,639.529,253.527,648.374,249.202,655.529C243.925,664.084,212.312,671.490,202.349,671.939C187.085,672.960,175.052,671.844,165.758,657.621C160.390,649.217,162.198,645.144,162.446,635.820M256.778,602.033C247.019,584.509,204.697,574.732,186.298,579.859C158.684,587.722,155.398,612.156,154.467,636.161C154.129,643.500,151.837,651.592,155.458,658.085C157.630,661.980,162.835,666.737,166.291,669.576C182.246,683.836,192.755,680.701,212.671,679.470C224.629,678.931,244.528,677.366,253.801,668.961C260.809,661.988,261.145,654.654,261.059,645.340C260.655,636.392,260.720,608.498,256.778,602.033Z"/>
<path class="path-3" d="M188.530,587.878C193.458,586.319,200.851,587.639,206.551,588.375"/>
<path class="path-3" d="M206.551,588.375C237.345,592.273,247.105,600.806,250.493,631.934"/>
<path class="path-3" d="M250.493,631.934C251.164,639.529,253.527,648.374,249.202,655.529"/>
<path class="path-3" d="M249.202,655.529C243.925,664.084,212.312,671.490,202.349,671.939"/>
<path class="path-3" d="M202.349,671.939C187.085,672.960,175.052,671.844,165.758,657.621"/>
<path class="path-3" d="M165.758,657.621C160.390,649.217,162.198,645.144,162.446,635.820"/>
<path class="path-3" d="M162.446,635.820C162.958,617.546,166.885,593.512,188.530,587.878"/>
<path class="path-4" d="M188.530,587.878C193.458,586.319,200.851,587.639,206.551,588.375C237.345,592.273,247.105,600.806,250.493,631.934C251.164,639.529,253.527,648.374,249.202,655.529C243.925,664.084,212.312,671.490,202.349,671.939C187.085,672.960,175.052,671.844,165.758,657.621C160.390,649.217,162.198,645.144,162.446,635.820C162.958,617.546,166.885,593.512,188.530,587.878Z"/>
</g>
<g id="right_sole">
<path class="path-0" d="M193.078,671.361C197.948,671.562,208.923,669.808,214.181,670.409C219.453,671.305,224.610,671.834,229.030,672.526C232.074,673.256,242.852,675.594,239.107,680.467C237.481,682.750,231.273,682.785,228.617,682.591C225.653,682.743,197.866,681.344,196.838,681.519C191.232,682.083,188.576,680.439,187.971,677.593C187.475,675.227,188.751,671.164,193.078,671.361M246.415,662.190C247.867,664.085,251.837,667.998,248.779,669.810C245.029,672.054,227.923,666.764,222.597,664.234C218.199,663.030,213.113,662.578,209.004,662.528C201.646,662.438,191.846,664.079,184.635,665.320C182.322,665.314,180.825,666.264,179.885,665.431C179.422,665.006,179.113,661.205,180.576,659.214C186.120,651.674,202.423,653.492,212.018,653.342C219.774,653.221,229.890,655.084,237.600,657.111C238.879,657.482,244.503,659.816,246.415,662.190M251.210,656.827C234.039,646.884,220.357,642.925,200.964,645.165C192.598,646.181,174.237,650.605,169.367,659.854C168.025,662.402,168.620,666.550,169.545,669.451C170.101,671.184,171.123,675.371,172.750,677.341C176.775,682.214,186.885,686.334,191.065,687.753C206.622,693.674,228.479,688.616,245.028,689.296C253.237,689.530,252.712,683.410,254.032,679.686C256.340,673.173,263.073,663.493,251.210,656.827Z"/>
<path class="path-5" d="M193.078,671.361C197.948,671.562,208.923,669.808,214.181,670.409"/>
<path class="path-5" d="M214.181,670.409C219.453,671.305,224.610,671.834,229.030,672.526"/>
<path class="path-5" d="M229.030,672.526C232.074,673.256,242.852,675.594,239.107,680.467"/>
<path class="path-5" d="M239.107,680.467C237.481,682.750,231.273,682.785,228.617,682.591"/>
<path class="path-5" d="M228.617,682.591C225.653,682.743,197.866,681.344,196.838,681.519"/>
<path class="path-5" d="M196.838,681.519C191.232,682.083,188.576,680.439,187.971,677.593"/>
<path class="path-5" d="M187.971,677.593C187.475,675.227,188.751,671.164,193.078,671.361"/>
<path class="path-6" d="M193.078,671.361C197.948,671.562,208.923,669.808,214.181,670.409C219.453,671.305,224.610,671.834,229.030,672.526C232.074,673.256,242.852,675.594,239.107,680.467C237.481,682.750,231.273,682.785,228.617,682.591C225.653,682.743,197.866,681.344,196.838,681.519C191.232,682.083,188.576,680.439,187.971,677.593C187.475,675.227,188.751,671.164,193.078,671.361Z"/>
<path class="path-5" d="M180.576,659.214C186.120,651.674,202.423,653.492,212.018,653.342"/>
<path class="path-5" d="M212.018,653.342C219.774,653.221,229.890,655.084,237.600,657.111"/>
<path class="path-5" d="M237.600,657.111C238.879,657.482,244.503,659.816,246.415,662.190"/>
<path class="path-5" d="M246.415,662.190C247.867,664.085,251.837,667.998,248.779,669.810"/>
<path class="path-5" d="M248.779,669.810C245.029,672.054,227.923,666.764,222.597,664.234"/>
<path class="path-5" d="M222.597,664.234C218.199,663.030,213.113,662.578,209.004,662.528"/>
<path class="path-5" d="M209.004,662.528C201.646,662.438,191.846,664.079,184.635,665.320"/>
<path class="path-5" d="M184.635,665.320C182.322,665.314,180.825,666.264,179.885,665.431"/>
<path class="path-5" d="M179.885,665.431C179.422,665.006,179.113,661.205,180.576,659.214"/>
<path class="path-6" d="M180.576,659.214C186.120,651.674,202.423,653.492,212.018,653.342C219.774,653.221,229.890,655.084,237.600,657.111C238.879,657.482,244.503,659.816,246.415,662.190C247.867,664.085,251.837,667.998,248.779,669.810C245.029,672.054,227.923,666.764,222.597,664.234C218.199,663.030,213.113,662.578,209.004,662.528C201.646,662.438,191.846,664.079,184.635,665.320C182.322,665.314,180.825,666.264,179.885,665.431C179.422,665.006,179.113,661.205,180.576,659.214Z"/>
</g>
</g>
<g id="hat_brim">
<path class="path-0" d="M285.930,140.181C289.684,134.252,298.926,118.095,306.910,118.223C312.233,118.308,323.056,128.132,328.663,131.216C333.605,134.290,338.885,137.036,344.497,139.787C347.683,141.507,350.872,143.222,354.064,144.931C368.252,152.479,364.158,158.736,355.862,157.272C337.288,153.646,334.273,154.930,316.459,145.327C314.146,144.292,308.211,140.871,307.144,145.178C305.735,150.147,314.647,154.616,318.279,156.337C324.873,160.104,332.128,164.213,340.101,165.005C342.425,165.376,350.419,164.836,351.711,167.187C353.654,170.546,343.870,179.040,341.842,181.004C338.467,183.945,335.094,186.886,331.729,189.162C326.686,192.407,321.315,195.316,315.645,196.223C304.979,197.384,271.958,181.550,271.146,169.891C270.588,163.228,281.837,146.438,285.930,140.181M318.955,114.091C314.034,109.686,310.477,103.306,303.104,106.517C297.744,108.761,291.967,116.321,288.245,120.254C274.339,136.668,261.718,156.099,262.037,177.731C262.152,191.375,266.814,191.118,277.706,196.615C294.205,205.198,315.453,208.199,333.549,200.171C345.277,195.034,365.857,177.396,371.371,165.505C373.098,161.540,376.235,152.606,373.980,147.913C371.410,142.214,349.276,132.211,342.682,128.446C334.768,123.993,325.850,119.857,318.955,114.091Z"/>
<path class="path-9" d="M306.910,118.223C312.233,118.308,323.056,128.132,328.663,131.216"/>
<path class="path-9" d="M328.663,131.216C333.605,134.290,338.885,137.036,344.497,139.787"/>
<path class="path-9" d="M344.497,139.787C347.683,141.507,350.872,143.222,354.064,144.931"/>
<path class="path-9" d="M354.064,144.931C368.252,152.479,364.158,158.736,355.862,157.272"/>
<path class="path-9" d="M355.862,157.272C337.288,153.646,334.273,154.930,316.459,145.327"/>
<path class="path-9" d="M316.459,145.327C314.146,144.292,308.211,140.871,307.144,145.178"/>
<path class="path-9" d="M307.144,145.178C305.735,150.147,314.647,154.616,318.279,156.337"/>
<path class="path-9" d="M318.279,156.337C324.873,160.104,332.128,164.213,340.101,165.005"/>
<path class="path-9" d="M340.101,165.005C342.425,165.376,350.419,164.836,351.711,167.187"/>
<path class="path-9" d="M351.711,167.187C353.654,170.546,343.870,179.040,341.842,181.004"/>
<path class="path-9" d="M341.842,181.004C338.467,183.945,335.094,186.886,331.729,189.162"/>
<path class="path-9" d="M331.729,189.162C326.686,192.407,321.315,195.316,315.645,196.223"/>
<path class="path-9" d="M315.645,196.223C304.979,197.384,271.958,181.550,271.146,169.891"/>
<path class="path-9" d="M271.146,169.891C270.588,163.228,281.837,146.438,285.930,140.181"/>
<path class="path-9" d="M285.930,140.181C289.684,134.252,298.926,118.095,306.910,118.223"/>
<path class="path-10" d="M306.910,118.223C312.233,118.308,323.056,128.132,328.663,131.216C333.605,134.290,338.885,137.036,344.497,139.787C347.683,141.507,350.872,143.222,354.064,144.931C368.252,152.479,364.158,158.736,355.862,157.272C337.288,153.646,334.273,154.930,316.459,145.327C314.146,144.292,308.211,140.871,307.144,145.178C305.735,150.147,314.647,154.616,318.279,156.337C324.873,160.104,332.128,164.213,340.101,165.005C342.425,165.376,350.419,164.836,351.711,167.187C353.654,170.546,343.870,179.040,341.842,181.004C338.467,183.945,335.094,186.886,331.729,189.162C326.686,192.407,321.315,195.316,315.645,196.223C304.979,197.384,271.958,181.550,271.146,169.891C270.588,163.228,281.837,146.438,285.930,140.181C289.684,134.252,298.926,118.095,306.910,118.223Z"/>
</g>
<g id="hair">
<path class="path-0" d="M178.207,137.146C195.612,125.128,215.546,123.861,236.622,122.833C246.071,122.354,252.609,128.724,259.895,134.963C265.878,140.436,272.314,146.605,278.670,152.348C288.236,160.933,292.251,165.248,295.828,169.373C298.884,172.535,303.641,178.447,307.445,181.246C312.033,184.622,321.337,201.665,323.392,203.583C316.776,205.877,306.366,207.617,301.613,211.500C303.316,217.313,303.737,226.338,303.770,229.047C297.566,229.529,290.326,226.781,278.852,224.794C276.582,231.997,276.652,238.726,272.013,246.057C264.288,243.776,258.905,241.930,248.899,237.572C242.370,242.829,240.827,242.433,230.189,249.046C223.057,244.769,217.364,240.192,210.423,237.406C203.675,240.354,192.946,241.464,189.330,244.421C185.464,237.416,181.898,229.675,178.615,226.330C169.038,228.377,164.947,231.038,158.193,233.558C153.928,228.081,156.902,223.509,152.153,215.445C147.814,214.311,141.104,211.750,135.543,211.687C139.348,207.166,142.061,192.398,148.544,190.478C156.545,188.108,151.401,179.014,156.264,170.777C157.468,168.634,169.109,152.211,170.143,149.533C172.107,144.916,174.257,140.014,178.207,137.146M264.404,122.303C252.091,112.977,227.357,108.053,213.504,111.398C200.789,114.316,188.335,118.422,177.326,125.681C171.161,129.687,164.354,135.573,160.283,141.708C152.150,153.625,140.470,179.652,133.871,191.714C128.595,201.716,123.646,208.480,118.539,213.923C136.199,220.234,141.359,222.857,146.611,223.628C146.987,231.381,154.179,237.092,152.994,245.658C161.794,244.297,167.024,242.034,174.844,240.032C178.852,244.661,181.639,250.970,185.478,257.146C193.181,255.003,201.074,255.247,208.680,249.746C214.226,252.726,223.034,257.354,232.086,262.253C240.359,257.785,242.135,257.521,249.894,252.423C259.387,254.703,269.378,260.515,278.921,259.444C278.198,251.262,284.223,245.604,283.485,240.357C290.675,238.388,312.756,241.460,316.521,241.116C316.259,235.071,312.863,223.515,314.389,216.302C321.187,214.452,326.933,212.771,337.539,207.607C334.026,200.933,327.745,192.659,322.250,187.736C317.612,183.622,313.824,178.157,309.182,173.869C293.441,159.564,287.180,139.640,264.404,122.303Z"/>
<path class="path-11" d="M236.622,122.833C246.071,122.354,252.609,128.724,259.895,134.963"/>
<path class="path-11" d="M259.895,134.963C265.878,140.436,272.314,146.605,278.670,152.348"/>
<path class="path-11" d="M278.670,152.348C288.236,160.933,292.251,165.248,295.828,169.373"/>
<path class="path-11" d="M295.828,169.373C298.884,172.535,303.641,178.447,307.445,181.246"/>
<path class="path-11" d="M307.445,181.246C312.033,184.622,321.337,201.665,323.392,203.583"/>
<path class="path-11" d="M323.392,203.583C316.776,205.877,306.366,207.617,301.613,211.500"/>
<path class="path-11" d="M301.613,211.500C303.316,217.313,303.737,226.338,303.770,229.047"/>
<path class="path-11" d="M303.770,229.047C297.566,229.529,290.326,226.781,278.852,224.794"/>
<path class="path-11" d="M278.852,224.794C276.582,231.997,276.652,238.726,272.013,246.057"/>
<path class="path-11" d="M272.013,246.057C264.288,243.776,258.905,241.930,248.899,237.572"/>
<path class="path-11" d="M248.899,237.572C242.370,242.829,240.827,242.433,230.189,249.046"/>
<path class="path-11" d="M230.189,249.046C223.057,244.769,217.364,240.192,210.423,237.406"/>
<path class="path-11" d="M210.423,237.406C203.675,240.354,192.946,241.464,189.330,244.421"/>
<path class="path-11" d="M189.330,244.421C185.464,237.416,181.898,229.675,178.615,226.330"/>
<path class="path-11" d="M178.615,226.330C169.038,228.377,164.947,231.038,158.193,233.558"/>
<path class="path-11" d="M158.193,233.558C153.928,228.081,156.902,223.509,152.153,215.445"/>
<path class="path-11" d="M152.153,215.445C147.814,214.311,141.104,211.750,135.543,211.687"/>
<path class="path-11" d="M135.543,211.687C139.348,207.166,142.061,192.398,148.544,190.478"/>
<path class="path-11" d="M148.544,190.478C156.545,188.108,151.401,179.014,156.264,170.777"/>
<path class="path-11" d="M156.264,170.777C157.468,168.634,169.109,152.211,170.143,149.533"/>
<path class="path-11" d="M170.143,149.533C172.107,144.916,174.257,140.014,178.207,137.146"/>
<path class="path-11" d="M178.207,137.146C195.612,125.128,215.546,123.861,236.622,122.833"/>
<path class="path-12" d="M236.622,122.833C246.071,122.354,252.609,128.724,259.895,134.963C265.878,140.436,272.314,146.605,278.670,152.348C288.236,160.933,292.251,165.248,295.828,169.373C298.884,172.535,303.641,178.447,307.445,181.246C312.033,184.622,321.337,201.665,323.392,203.583C316.776,205.877,306.366,207.617,301.613,211.500C303.316,217.313,303.737,226.338,303.770,229.047C297.566,229.529,290.326,226.781,278.852,224.794C276.582,231.997,276.652,238.726,272.013,246.057C264.288,243.776,258.905,241.930,248.899,237.572C242.370,242.829,240.827,242.433,230.189,249.046C223.057,244.769,217.364,240.192,210.423,237.406C203.675,240.354,192.946,241.464,189.330,244.421C185.464,237.416,181.898,229.675,178.615,226.330C169.038,228.377,164.947,231.038,158.193,233.558C153.928,228.081,156.902,223.509,152.153,215.445C147.814,214.311,141.104,211.750,135.543,211.687C139.348,207.166,142.061,192.398,148.544,190.478C156.545,188.108,151.401,179.014,156.264,170.777C157.468,168.634,169.109,152.211,170.143,149.533C172.107,144.916,174.257,140.014,178.207,137.146C195.612,125.128,215.546,123.861,236.622,122.833Z"/>
</g>
<g id="clothes">
<path class="path-0" d="M241.100,370.104C236.441,368.019,218.501,359.789,215.619,364.232C213.180,368.252,217.807,369.159,221.864,369.695C225.459,370.169,243.610,378.343,246.080,376.764C250.641,373.770,243.352,370.996,241.100,370.104M188.669,266.240C191.679,253.603,218.644,240.663,231.618,241.677C240.600,242.354,268.863,256.364,272.845,264.687C276.162,271.345,277.129,295.966,277.452,304.285C277.765,319.590,278.557,334.936,279.719,350.200C281.281,362.743,284.250,375.066,286.986,387.407C287.533,393.704,291.025,410.485,285.061,414.060C277.339,419.201,258.778,405.628,251.362,401.391C225.003,387.267,227.127,385.167,199.105,383.988C195.674,383.713,184.534,386.687,182.196,385.358C178.202,382.432,179.879,376.695,180.884,372.035C183.894,360.392,187.226,352.740,188.907,340.097C190.923,324.130,191.613,306.831,191.634,290.197C191.309,284.209,188.000,269.898,188.669,266.240M267.541,247.711C251.250,238.041,235.290,230.036,215.654,235.669C210.328,236.992,183.697,249.933,181.364,253.258C177.699,258.577,181.334,278.872,181.325,286.192C181.647,294.841,181.968,303.824,181.291,312.141C180.951,318.462,179.612,324.116,179.604,330.104C179.262,336.757,179.918,344.077,178.246,350.064C174.906,361.711,160.725,383.784,173.880,393.337C179.114,397.167,187.655,395.348,194.430,396.356C205.325,397.765,216.939,400.094,227.420,403.905C237.736,407.983,245.284,417.851,256.079,420.940C264.344,423.307,291.971,428.396,297.849,421.471C301.817,417.004,297.281,390.613,296.114,383.962C293.162,370.846,290.461,357.592,289.042,344.224C288.108,332.279,286.746,320.600,287.427,308.290C287.773,298.309,289.449,288.664,289.462,278.349C289.134,274.022,289.807,268.701,287.482,264.372C283.500,256.382,274.856,252.045,267.541,247.711Z"/>
<path class="path-13" d="M241.100,370.104C236.441,368.019,218.501,359.789,215.619,364.232"/>
<path class="path-13" d="M215.619,364.232C213.180,368.252,217.807,369.159,221.864,369.695"/>
<path class="path-13" d="M221.864,369.695C225.459,370.169,243.610,378.343,246.080,376.764"/>
<path class="path-13" d="M246.080,376.764C250.641,373.770,243.352,370.996,241.100,370.104"/>
<path class="path-13" d="M188.669,266.240C191.679,253.603,218.644,240.663,231.618,241.677"/>
<path class="path-13" d="M231.618,241.677C240.600,242.354,268.863,256.364,272.845,264.687"/>
<path class="path-13" d="M272.845,264.687C276.162,271.345,277.129,295.966,277.452,304.285"/>
<path class="path-13" d="M277.452,304.285C277.765,319.590,278.557,334.936,279.719,350.200"/>
<path class="path-13" d="M279.719,350.200C281.281,362.743,284.250,375.066,286.986,387.407"/>
<path class="path-13" d="M286.986,387.407C287.533,393.704,291.025,410.485,285.061,414.060"/>
<path class="path-13" d="M285.061,414.060C277.339,419.201,258.778,405.628,251.362,401.391"/>
<path class="path-13" d="M251.362,401.391C225.003,387.267,227.127,385.167,199.105,383.988"/>
<path class="path-13" d="M199.105,383.988C195.674,383.713,184.534,386.687,182.196,385.358"/>
<path class="path-13" d="M182.196,385.358C178.202,382.432,179.879,376.695,180.884,372.035"/>
<path class="path-13" d="M180.884,372.035C183.894,360.392,187.226,352.740,188.907,340.097"/>
<path class="path-13" d="M188.907,340.097C190.923,324.130,191.613,306.831,191.634,290.197"/>
<path class="path-13" d="M191.634,290.197C191.309,284.209,188.000,269.898,188.669,266.240"/>
<path class="path-14" d="M241.100,370.104C236.441,368.019,218.501,359.789,215.619,364.232C213.180,368.252,217.807,369.159,221.864,369.695C225.459,370.169,243.610,378.343,246.080,376.764C250.641,373.770,243.352,370.996,241.100,370.104M188.669,266.240C191.679,253.603,218.644,240.663,231.618,241.677C240.600,242.354,268.863,256.364,272.845,264.687C276.162,271.345,277.129,295.966,277.452,304.285C277.765,319.590,278.557,334.936,279.719,350.200C281.281,362.743,284.250,375.066,286.986,387.407C287.533,393.704,291.025,410.485,285.061,414.060C277.339,419.201,258.778,405.628,251.362,401.391C225.003,387.267,227.127,385.167,199.105,383.988C195.674,383.713,184.534,386.687,182.196,385.358C178.202,382.432,179.879,376.695,180.884,372.035C183.894,360.392,187.226,352.740,188.907,340.097C190.923,324.130,191.613,306.831,191.634,290.197C191.309,284.209,188.000,269.898,188.669,266.240Z"/>
</g>
<g id="neck">
<path class="path-0" d="M224.176,223.219C224.253,219.875,225.019,216.813,228.641,216.200C240.097,213.316,241.990,250.876,231.376,251.695C221.424,252.461,223.999,229.571,224.176,223.219M227.926,206.913C225.247,206.785,222.313,207.678,220.093,209.185C211.162,214.543,213.153,223.067,213.817,231.691C213.817,236.029,214.457,239.984,212.748,243.786C211.345,247.231,206.955,250.905,207.236,254.555C208.335,264.481,235.204,262.411,242.145,261.542C244.798,261.338,253.830,261.643,254.545,257.918C254.468,256.923,246.940,245.822,245.587,241.256C241.528,227.554,249.233,206.273,227.926,206.913Z"/>
<path class="path-15" d="M228.641,216.200C240.097,213.316,241.990,250.876,231.376,251.695"/>
<path class="path-15" d="M231.376,251.695C221.424,252.461,223.999,229.571,224.176,223.219"/>
<path class="path-15" d="M224.176,223.219C224.253,219.875,225.019,216.813,228.641,216.200"/>
<path class="path-16" d="M228.641,216.200C240.097,213.316,241.990,250.876,231.376,251.695C221.424,252.461,223.999,229.571,224.176,223.219C224.253,219.875,225.019,216.813,228.641,216.200Z"/>
</g>
<g id="layer_head">
<g id="right_ear">
<path class="path-0" d="M140.826,192.844C129.524,194.720,115.255,157.542,131.244,161.677C135.991,162.895,138.443,171.405,139.275,175.046C140.811,181.362,148.570,191.597,140.826,192.844M137.512,149.842C134.169,147.884,130.100,146.974,126.569,148.570C116.670,151.261,112.610,163.317,114.068,173.524C115.990,186.014,127.643,201.337,138.994,204.356C142.120,205.205,148.556,207.557,151.670,206.143C158.300,202.621,153.405,192.297,151.739,186.647C149.916,179.930,142.616,154.142,137.512,149.842Z"/>
<path class="path-15" d="M131.244,161.677C135.991,162.895,138.443,171.405,139.275,175.046"/>
<path class="path-15" d="M139.275,175.046C140.811,181.362,148.570,191.597,140.826,192.844"/>
<path class="path-15" d="M140.826,192.844C129.524,194.720,115.255,157.542,131.244,161.677"/>
<path class="path-16" d="M131.244,161.677C135.991,162.895,138.443,171.405,139.275,175.046C140.811,181.362,148.570,191.597,140.826,192.844C129.524,194.720,115.255,157.542,131.244,161.677Z"/>
</g>
<g id="face_Mask">
<g id="face">
<path class="path-0" d="M155.705,104.060C164.357,93.748,197.236,87.088,210.906,85.311C226.241,83.559,241.838,86.138,256.733,91.034C262.029,92.784,269.745,94.785,274.246,98.635C281.687,105.049,285.351,116.511,287.855,125.612C289.831,132.133,293.726,140.652,292.275,146.927C285.996,174.083,280.085,186.168,274.795,193.823C267.991,203.671,255.671,207.734,244.946,212.814C229.011,220.086,212.657,224.223,204.057,223.682C191.588,222.897,165.075,214.306,156.638,205.830C149.073,197.943,148.993,187.091,146.843,176.847C144.768,168.287,142.206,155.200,141.328,146.614C140.362,135.425,148.584,112.469,155.705,104.060M278.386,91.025C265.045,78.503,228.748,75.198,211.074,77.559C202.739,78.416,194.744,78.947,187.060,80.815C181.374,82.386,176.337,84.965,170.984,86.542C159.270,90.680,154.482,89.164,146.481,99.802C140.738,107.247,132.291,136.756,132.302,146.000C132.432,152.975,135.740,169.507,137.075,177.518C138.590,186.947,140.433,199.900,145.372,207.677C149.727,214.318,155.637,218.994,165.701,223.739C177.847,229.466,191.874,233.398,205.627,234.836C213.732,236.188,229.569,231.967,250.995,221.503C262.593,215.659,274.358,209.241,282.130,197.762C290.525,185.362,297.549,167.715,303.529,146.663C309.159,126.843,286.600,98.569,278.386,91.025Z"/>
<path class="path-15" d="M210.906,85.311C226.241,83.559,241.838,86.138,256.733,91.034"/>
<path class="path-15" d="M256.733,91.034C262.029,92.784,269.745,94.785,274.246,98.635"/>
<path class="path-15" d="M274.246,98.635C281.687,105.049,285.351,116.511,287.855,125.612"/>
<path class="path-15" d="M287.855,125.612C289.831,132.133,293.726,140.652,292.275,146.927"/>
<path class="path-15" d="M292.275,146.927C285.996,174.083,280.085,186.168,274.795,193.823"/>
<path class="path-15" d="M274.795,193.823C267.991,203.671,255.671,207.734,244.946,212.814"/>
<path class="path-15" d="M244.946,212.814C229.011,220.086,212.657,224.223,204.057,223.682"/>
<path class="path-15" d="M204.057,223.682C191.588,222.897,165.075,214.306,156.638,205.830"/>
<path class="path-15" d="M156.638,205.830C149.073,197.943,148.993,187.091,146.843,176.847"/>
<path class="path-15" d="M146.843,176.847C144.768,168.287,142.206,155.200,141.328,146.614"/>
<path class="path-15" d="M141.328,146.614C140.362,135.425,148.584,112.469,155.705,104.060"/>
<path class="path-15" d="M155.705,104.060C164.357,93.748,197.236,87.088,210.906,85.311"/>
<path class="path-16" d="M210.906,85.311C226.241,83.559,241.838,86.138,256.733,91.034C262.029,92.784,269.745,94.785,274.246,98.635C281.687,105.049,285.351,116.511,287.855,125.612C289.831,132.133,293.726,140.652,292.275,146.927C285.996,174.083,280.085,186.168,274.795,193.823C267.991,203.671,255.671,207.734,244.946,212.814C229.011,220.086,212.657,224.223,204.057,223.682C191.588,222.897,165.075,214.306,156.638,205.830C149.073,197.943,148.993,187.091,146.843,176.847C144.768,168.287,142.206,155.200,141.328,146.614C140.362,135.425,148.584,112.469,155.705,104.060C164.357,93.748,197.236,87.088,210.906,85.311Z"/>
</g>
</g>
<mask id="mask_target" style="mask-type:alpha;">
<use xlink:href="#face_Mask"/>
</mask>
<g id="mouse">
<path class="path-0" d="M206.703,214.091C211.889,215.278,211.896,220.032,211.415,220.531C211.143,220.813,210.036,219.844,207.084,219.310C201.493,218.299,198.769,219.428,198.583,218.710C198.379,217.924,200.632,212.702,206.703,214.091Z"/>
</g>
<g id="layer_eyes_Mtarget" mask="url(#mask_target)">
<g id="eyes">
<mask style="mask-type:alpha;" id="f3906406-f197-4bf1-91d8-744c09cca836">
<use xlink:href="#cmn_f3906406-f197-4bf1-91d8-744c09cca836"/>
</mask>
<g id="cmn_f3906406-f197-4bf1-91d8-744c09cca836">
<path class="path-0" d="M177.613,174.307C179.770,184.006,173.301,191.586,166.065,191.038C160.318,190.497,157.053,184.561,155.355,178.906C154.183,175.504,150.117,159.462,154.656,162.028C157.486,163.628,176.935,171.256,177.613,174.307M184.880,177.710C185.504,176.157,186.317,173.811,185.823,172.212C185.340,170.652,183.693,168.462,182.044,168.292C177.707,167.749,163.596,159.775,158.225,157.462C154.095,155.752,143.740,149.263,140.230,152.739C136.034,156.776,142.135,159.963,144.031,167.856C147.434,182.025,158.476,198.531,169.575,197.537C180.920,196.521,182.079,184.683,184.880,177.710M228.555,189.321C221.206,189.008,211.327,183.306,211.830,171.856C211.974,168.587,225.462,164.066,231.528,161.166C237.809,158.162,249.766,152.089,252.953,152.247C256.436,152.841,254.844,155.863,254.766,165.517C254.687,175.468,241.549,189.875,228.555,189.321M261.543,171.945C265.516,160.194,265.474,143.902,263.178,142.763C258.035,140.212,244.283,149.394,236.324,152.596C226.478,156.558,210.706,165.138,203.956,166.876C201.819,167.508,199.873,167.960,199.510,169.459C198.828,172.280,204.052,174.485,205.871,176.745C208.861,180.461,210.364,186.711,215.280,189.560C225.566,195.955,233.203,194.776,245.110,190.618C252.714,187.985,259.219,178.816,261.543,171.945Z"/>
<path class="path-17" d="M252.953,152.247C256.436,152.841,254.844,155.863,254.766,165.517"/>
<path class="path-17" d="M254.766,165.517C254.687,175.468,241.549,189.875,228.555,189.321"/>
<path class="path-17" d="M228.555,189.321C221.206,189.008,211.327,183.306,211.830,171.856"/>
<path class="path-17" d="M211.830,171.856C211.974,168.587,225.462,164.066,231.528,161.166"/>
<path class="path-17" d="M231.528,161.166C237.809,158.162,249.766,152.089,252.953,152.247"/>
<path class="path-18" d="M252.953,152.247C256.436,152.841,254.844,155.863,254.766,165.517C254.687,175.468,241.549,189.875,228.555,189.321C221.206,189.008,211.327,183.306,211.830,171.856C211.974,168.587,225.462,164.066,231.528,161.166C237.809,158.162,249.766,152.089,252.953,152.247Z"/>
<path class="path-17" d="M154.656,162.028C157.486,163.628,176.935,171.256,177.613,174.307"/>
<path class="path-17" d="M177.613,174.307C179.770,184.006,173.301,191.586,166.065,191.038"/>
<path class="path-17" d="M166.065,191.038C160.318,190.497,157.053,184.561,155.355,178.906"/>
<path class="path-17" d="M155.355,178.906C154.183,175.504,150.117,159.462,154.656,162.028"/>
<path class="path-18" d="M154.656,162.028C157.486,163.628,176.935,171.256,177.613,174.307C179.770,184.006,173.301,191.586,166.065,191.038C160.318,190.497,157.053,184.561,155.355,178.906C154.183,175.504,150.117,159.462,154.656,162.028Z"/>
</g>
</g>
<g id="pupil">
<path class="path-0" d="M212.782,166.325C215.175,165.799,217.899,169.498,218.429,178.323C218.769,183.994,217.577,186.277,216.018,186.497C214.124,186.764,212.511,184.068,211.336,177.271C210.083,170.018,210.789,166.763,212.782,166.325Z" mask="url(#f3906406-f197-4bf1-91d8-744c09cca836)"/>
<path class="path-0" d="M157.195,166.014C159.326,165.650,160.930,169.073,162.148,177.036C163.038,182.852,162.783,185.442,161.249,185.816C159.705,186.193,157.967,184.082,156.402,178.367C154.222,170.408,155.012,166.387,157.195,166.014Z" mask="url(#f3906406-f197-4bf1-91d8-744c09cca836)"/>
</g>
</g>
<g id="hat">
<path class="path-0" d="M293.195,127.520C295.338,128.601,298.070,131.251,298.439,133.909C299.893,140.380,288.794,140.259,285.376,140.597C279.058,140.589,272.468,140.071,266.437,139.798C260.619,140.062,254.791,139.857,248.966,139.896C235.730,138.952,222.570,137.292,209.338,136.329C196.087,135.886,183.282,135.001,169.627,134.499C167.921,134.482,138.826,137.095,133.643,134.625C122.954,129.650,133.255,121.062,132.737,115.884C132.666,112.834,126.220,111.923,127.890,106.659C129.422,102.083,145.346,98.192,150.170,97.134C161.488,94.591,173.254,91.688,185.302,90.452C201.150,88.914,216.752,90.106,232.780,89.632C249.758,89.223,286.298,95.030,297.718,111.940C304.034,121.111,286.299,112.820,284.334,112.371C278.232,109.506,255.340,100.187,264.435,110.875C269.518,118.191,286.257,123.275,293.195,127.520M178.586,83.671C167.517,84.892,157.365,85.501,146.904,87.589C142.644,88.428,137.638,90.195,133.596,89.185C124.772,87.109,136.320,64.798,140.373,59.694C155.416,41.224,185.716,32.436,210.736,33.400C256.796,35.176,274.523,44.467,288.510,61.083C292.918,65.940,307.397,89.349,298.235,95.173C294.908,96.994,289.077,93.313,286.215,91.876C276.289,87.156,223.795,78.686,178.586,83.671M252.364,29.488C239.562,26.401,233.800,22.159,218.802,22.351C187.776,23.067,148.732,27.618,129.438,56.178C123.358,65.401,122.225,75.894,119.566,85.824C117.547,93.225,112.767,98.675,113.065,106.253C113.546,113.503,116.973,115.281,118.634,121.028C120.583,127.146,118.159,129.716,119.266,133.695C121.283,145.086,131.701,145.888,141.260,146.422C145.955,146.686,163.306,146.667,172.755,146.766C184.012,146.885,199.024,146.929,210.280,147.148C220.244,147.342,233.520,147.935,243.484,148.095C252.698,148.243,264.993,148.571,274.201,148.211C283.786,147.836,304.910,146.690,306.069,145.582C308.026,143.743,312.628,125.282,312.907,121.796C313.203,118.112,311.640,114.292,312.197,108.385C313.127,95.330,313.959,83.414,308.191,70.404C297.677,47.236,273.889,35.064,252.364,29.488Z"/>
<path class="path-19" d="M232.780,89.632C249.758,89.223,286.298,95.030,297.718,111.940"/>
<path class="path-19" d="M297.718,111.940C304.034,121.111,286.299,112.820,284.334,112.371"/>
<path class="path-19" d="M284.334,112.371C278.232,109.506,255.340,100.187,264.435,110.875"/>
<path class="path-19" d="M264.435,110.875C269.518,118.191,286.257,123.275,293.195,127.520"/>
<path class="path-19" d="M293.195,127.520C295.338,128.601,298.070,131.251,298.439,133.909"/>
<path class="path-19" d="M298.439,133.909C299.893,140.380,288.794,140.259,285.376,140.597"/>
<path class="path-19" d="M285.376,140.597C279.058,140.589,272.468,140.071,266.437,139.798"/>
<path class="path-19" d="M266.437,139.798C260.619,140.062,254.791,139.857,248.966,139.896"/>
<path class="path-19" d="M248.966,139.896C235.730,138.952,222.570,137.292,209.338,136.329"/>
<path class="path-19" d="M209.338,136.329C196.087,135.886,183.282,135.001,169.627,134.499"/>
<path class="path-19" d="M169.627,134.499C167.921,134.482,138.826,137.095,133.643,134.625"/>
<path class="path-19" d="M133.643,134.625C122.954,129.650,133.255,121.062,132.737,115.884"/>
<path class="path-19" d="M132.737,115.884C132.666,112.834,126.220,111.923,127.890,106.659"/>
<path class="path-19" d="M127.890,106.659C129.422,102.083,145.346,98.192,150.170,97.134"/>
<path class="path-19" d="M150.170,97.134C161.488,94.591,173.254,91.688,185.302,90.452"/>
<path class="path-19" d="M185.302,90.452C201.150,88.914,216.752,90.106,232.780,89.632"/>
<path class="path-20" d="M232.780,89.632C249.758,89.223,286.298,95.030,297.718,111.940C304.034,121.111,286.299,112.820,284.334,112.371C278.232,109.506,255.340,100.187,264.435,110.875C269.518,118.191,286.257,123.275,293.195,127.520C295.338,128.601,298.070,131.251,298.439,133.909C299.893,140.380,288.794,140.259,285.376,140.597C279.058,140.589,272.468,140.071,266.437,139.798C260.619,140.062,254.791,139.857,248.966,139.896C235.730,138.952,222.570,137.292,209.338,136.329C196.087,135.886,183.282,135.001,169.627,134.499C167.921,134.482,138.826,137.095,133.643,134.625C122.954,129.650,133.255,121.062,132.737,115.884C132.666,112.834,126.220,111.923,127.890,106.659C129.422,102.083,145.346,98.192,150.170,97.134C161.488,94.591,173.254,91.688,185.302,90.452C201.150,88.914,216.752,90.106,232.780,89.632Z"/>
<path class="path-9" d="M210.736,33.400C256.796,35.176,274.523,44.467,288.510,61.083"/>
<path class="path-9" d="M288.510,61.083C292.918,65.940,307.397,89.349,298.235,95.173"/>
<path class="path-9" d="M298.235,95.173C294.908,96.994,289.077,93.313,286.215,91.876"/>
<path class="path-9" d="M286.215,91.876C276.289,87.156,223.795,78.686,178.586,83.671"/>
<path class="path-9" d="M178.586,83.671C167.517,84.892,157.365,85.501,146.904,87.589"/>
<path class="path-9" d="M146.904,87.589C142.644,88.428,137.638,90.195,133.596,89.185"/>
<path class="path-9" d="M133.596,89.185C124.772,87.109,136.320,64.798,140.373,59.694"/>
<path class="path-9" d="M140.373,59.694C155.416,41.224,185.716,32.436,210.736,33.400"/>
<path class="path-10" d="M210.736,33.400C256.796,35.176,274.523,44.467,288.510,61.083C292.918,65.940,307.397,89.349,298.235,95.173C294.908,96.994,289.077,93.313,286.215,91.876C276.289,87.156,223.795,78.686,178.586,83.671C167.517,84.892,157.365,85.501,146.904,87.589C142.644,88.428,137.638,90.195,133.596,89.185C124.772,87.109,136.320,64.798,140.373,59.694C155.416,41.224,185.716,32.436,210.736,33.400Z"/>
</g>
<g id="left_ear">
<path class="path-0" d="M279.843,186.392C278.467,181.536,282.121,155.444,284.416,151.719C290.223,142.019,307.190,151.270,310.573,159.432C314.234,168.807,304.484,183.367,296.671,189.713C289.106,195.670,282.204,194.398,279.843,186.392M323.540,162.853C322.305,148.431,305.168,133.206,292.313,139.607C276.720,147.370,282.385,170.211,279.941,184.422C279.399,188.164,276.815,192.021,277.620,195.527C279.725,205.436,289.996,206.777,298.607,199.219C308.319,190.519,324.303,176.687,323.540,162.853Z"/>
<path class="path-15" d="M284.416,151.719C290.223,142.019,307.190,151.270,310.573,159.432"/>
<path class="path-15" d="M310.573,159.432C314.234,168.807,304.484,183.367,296.671,189.713"/>
<path class="path-15" d="M296.671,189.713C289.106,195.670,282.204,194.398,279.843,186.392"/>
<path class="path-15" d="M279.843,186.392C278.467,181.536,282.121,155.444,284.416,151.719"/>
<path class="path-16" d="M284.416,151.719C290.223,142.019,307.190,151.270,310.573,159.432C314.234,168.807,304.484,183.367,296.671,189.713C289.106,195.670,282.204,194.398,279.843,186.392C278.467,181.536,282.121,155.444,284.416,151.719Z"/>
</g>
<g id="earrings">
<path class="path-0" d="M301.507,207.240C292.681,210.899,291.135,192.139,294.684,192.553C299.637,194.365,306.270,203.260,301.507,207.240M311.024,199.126C304.294,199.253,301.434,190.192,300.989,186.335C308.528,188.176,317.930,194.023,311.024,199.126M321.139,195.390C318.725,187.286,306.804,182.398,299.050,179.065C296.222,177.849,288.441,187.870,288.058,191.085C286.956,195.088,288.717,217.115,302.435,214.603C308.125,213.300,323.082,201.915,321.139,195.390Z"/>
<path class="path-21" d="M300.989,186.335C308.528,188.176,317.930,194.023,311.024,199.126"/>
<path class="path-21" d="M311.024,199.126C304.294,199.253,301.434,190.192,300.989,186.335"/>
<path class="path-22" d="M300.989,186.335C308.528,188.176,317.930,194.023,311.024,199.126C304.294,199.253,301.434,190.192,300.989,186.335Z"/>
<path class="path-21" d="M294.684,192.553C299.637,194.365,306.270,203.260,301.507,207.240"/>
<path class="path-21" d="M301.507,207.240C292.681,210.899,291.135,192.139,294.684,192.553"/>
<path class="path-22" d="M294.684,192.553C299.637,194.365,306.270,203.260,301.507,207.240C292.681,210.899,291.135,192.139,294.684,192.553Z"/>
</g>
</g>
<g id="jacket">
<path class="path-0" d="M199.977,270.912C202.632,275.241,199.956,285.551,199.949,290.208C197.928,307.174,194.956,323.423,195.218,340.110C195.399,344.046,194.158,350.935,192.215,355.085C190.795,358.118,188.138,362.668,185.344,363.881C181.909,365.311,180.419,358.606,179.475,355.752C178.184,351.847,179.317,344.639,179.572,342.035C180.411,336.832,183.022,326.761,182.938,320.115C182.907,313.607,179.559,307.320,178.932,300.171C178.027,294.807,176.573,288.493,175.454,282.530C175.491,279.381,176.027,277.431,176.098,275.206C175.768,269.724,178.432,268.332,183.679,267.896C188.521,267.838,198.320,265.588,199.977,270.912M256.197,280.626C257.856,276.965,283.787,259.476,287.149,257.725C295.485,253.874,299.636,263.159,299.566,268.563C299.567,277.262,284.785,305.910,286.438,311.932C287.009,314.617,289.084,315.934,290.744,317.604C303.718,331.985,297.753,323.258,311.408,329.654C317.674,332.652,329.465,341.379,334.771,345.649C338.041,348.617,345.455,355.239,347.238,358.977C348.246,361.677,349.190,366.659,345.099,367.743C343.630,368.331,327.696,367.037,324.982,367.081C312.738,366.617,299.532,367.210,289.331,358.884C285.991,355.841,283.343,351.451,280.667,347.415C271.212,333.657,264.586,318.341,259.624,302.331C257.599,296.659,254.199,286.643,256.197,280.626M272.822,255.452C269.772,258.583,263.707,263.650,261.536,264.666C253.633,267.858,252.090,258.313,251.576,252.350C251.317,247.201,254.295,239.912,257.376,235.566C260.091,231.738,264.468,226.489,269.568,225.764C276.001,224.614,286.899,231.444,285.516,238.752C285.098,242.108,277.213,250.945,272.822,255.452M190.761,233.753C195.673,237.678,199.232,242.385,198.399,246.859C197.614,251.075,194.546,253.446,187.350,255.926C176.036,259.826,167.092,242.470,170.607,235.322C173.282,229.880,184.445,228.707,190.761,233.753M360.910,365.413C357.224,359.091,355.779,354.166,350.698,348.460C343.006,339.991,333.358,330.802,323.488,325.130C313.464,319.710,305.439,321.313,298.738,310.297C292.892,301.053,297.137,290.746,298.623,280.356C298.993,276.664,299.612,257.797,299.685,254.413C299.238,250.999,299.653,247.554,299.146,244.426C298.647,240.565,299.157,236.441,297.833,232.780C295.846,226.123,288.865,223.120,283.547,219.789C276.234,215.788,269.914,213.887,261.599,215.771C252.485,217.849,249.369,227.997,246.795,234.742C242.872,245.021,244.939,260.393,245.336,271.389C245.563,277.683,246.624,286.407,247.519,292.268C250.604,314.845,273.991,362.489,295.079,371.513C299.660,373.833,330.577,378.183,340.286,378.529C346.297,378.773,349.344,378.868,354.746,381.112C357.375,382.326,363.916,385.825,366.541,383.207C370.437,379.570,362.875,368.785,360.910,365.413M204.681,233.648C201.392,227.899,195.966,218.353,189.194,217.916C182.796,217.710,173.071,219.012,167.274,222.395C163.780,224.434,158.487,228.202,158.106,232.281C157.401,238.361,159.976,245.629,163.055,250.320C164.824,253.016,169.118,254.927,171.205,257.326C172.299,258.655,176.398,265.970,177.131,267.974C181.166,278.119,176.793,290.176,176.122,299.664C175.562,307.571,173.984,318.038,173.274,325.933C172.468,334.900,171.788,346.073,171.148,355.869C170.875,358.151,170.897,363.239,171.166,366.381C171.447,369.654,171.348,375.766,173.019,377.173C173.875,377.893,184.155,379.274,188.370,377.418C192.568,375.569,195.967,375.496,198.516,365.981C201.461,353.846,203.208,342.729,203.562,330.103C203.598,308.500,210.030,279.440,209.303,266.267C208.972,260.255,210.034,256.259,208.797,247.872C208.180,244.411,206.886,237.504,204.681,233.648Z"/>
<path class="path-1" d="M287.149,257.725C295.485,253.874,299.636,263.159,299.566,268.563"/>
<path class="path-1" d="M299.566,268.563C299.567,277.262,284.785,305.910,286.438,311.932"/>
<path class="path-1" d="M286.438,311.932C287.009,314.617,289.084,315.934,290.744,317.604"/>
<path class="path-1" d="M290.744,317.604C303.718,331.985,297.753,323.258,311.408,329.654"/>
<path class="path-1" d="M311.408,329.654C317.674,332.652,329.465,341.379,334.771,345.649"/>
<path class="path-1" d="M334.771,345.649C338.041,348.617,345.455,355.239,347.238,358.977"/>
<path class="path-1" d="M347.238,358.977C348.246,361.677,349.190,366.659,345.099,367.743"/>
<path class="path-1" d="M345.099,367.743C343.630,368.331,327.696,367.037,324.982,367.081"/>
<path class="path-1" d="M324.982,367.081C312.738,366.617,299.532,367.210,289.331,358.884"/>
<path class="path-1" d="M289.331,358.884C285.991,355.841,283.343,351.451,280.667,347.415"/>
<path class="path-1" d="M280.667,347.415C271.212,333.657,264.586,318.341,259.624,302.331"/>
<path class="path-1" d="M259.624,302.331C257.599,296.659,254.199,286.643,256.197,280.626"/>
<path class="path-1" d="M256.197,280.626C257.856,276.965,283.787,259.476,287.149,257.725"/>
<path class="path-2" d="M287.149,257.725C295.485,253.874,299.636,263.159,299.566,268.563C299.567,277.262,284.785,305.910,286.438,311.932C287.009,314.617,289.084,315.934,290.744,317.604C303.718,331.985,297.753,323.258,311.408,329.654C317.674,332.652,329.465,341.379,334.771,345.649C338.041,348.617,345.455,355.239,347.238,358.977C348.246,361.677,349.190,366.659,345.099,367.743C343.630,368.331,327.696,367.037,324.982,367.081C312.738,366.617,299.532,367.210,289.331,358.884C285.991,355.841,283.343,351.451,280.667,347.415C271.212,333.657,264.586,318.341,259.624,302.331C257.599,296.659,254.199,286.643,256.197,280.626C257.856,276.965,283.787,259.476,287.149,257.725Z"/>
<path class="path-1" d="M183.679,267.896C188.521,267.838,198.320,265.588,199.977,270.912"/>
<path class="path-1" d="M199.977,270.912C202.632,275.241,199.956,285.551,199.949,290.208"/>
<path class="path-1" d="M199.949,290.208C197.928,307.174,194.956,323.423,195.218,340.110"/>
<path class="path-1" d="M195.218,340.110C195.399,344.046,194.158,350.935,192.215,355.085"/>
<path class="path-1" d="M192.215,355.085C190.795,358.118,188.138,362.668,185.344,363.881"/>
<path class="path-1" d="M185.344,363.881C181.909,365.311,180.419,358.606,179.475,355.752"/>
<path class="path-1" d="M179.475,355.752C178.184,351.847,179.317,344.639,179.572,342.035"/>
<path class="path-1" d="M179.572,342.035C180.411,336.832,183.022,326.761,182.938,320.115"/>
<path class="path-1" d="M182.938,320.115C182.907,313.607,179.559,307.320,178.932,300.171"/>
<path class="path-1" d="M178.932,300.171C178.027,294.807,176.573,288.493,175.454,282.530"/>
<path class="path-1" d="M175.454,282.530C175.491,279.381,176.027,277.431,176.098,275.206"/>
<path class="path-1" d="M176.098,275.206C175.768,269.724,178.432,268.332,183.679,267.896"/>
<path class="path-2" d="M183.679,267.896C188.521,267.838,198.320,265.588,199.977,270.912C202.632,275.241,199.956,285.551,199.949,290.208C197.928,307.174,194.956,323.423,195.218,340.110C195.399,344.046,194.158,350.935,192.215,355.085C190.795,358.118,188.138,362.668,185.344,363.881C181.909,365.311,180.419,358.606,179.475,355.752C178.184,351.847,179.317,344.639,179.572,342.035C180.411,336.832,183.022,326.761,182.938,320.115C182.907,313.607,179.559,307.320,178.932,300.171C178.027,294.807,176.573,288.493,175.454,282.530C175.491,279.381,176.027,277.431,176.098,275.206C175.768,269.724,178.432,268.332,183.679,267.896Z"/>
<path class="path-1" d="M269.568,225.764C276.001,224.614,286.899,231.444,285.516,238.752"/>
<path class="path-1" d="M285.516,238.752C285.098,242.108,277.213,250.945,272.822,255.452"/>
<path class="path-1" d="M272.822,255.452C269.772,258.583,263.707,263.650,261.536,264.666"/>
<path class="path-1" d="M261.536,264.666C253.633,267.858,252.090,258.313,251.576,252.350"/>
<path class="path-1" d="M251.576,252.350C251.317,247.201,254.295,239.912,257.376,235.566"/>
<path class="path-1" d="M257.376,235.566C260.091,231.738,264.468,226.489,269.568,225.764"/>
<path class="path-2" d="M269.568,225.764C276.001,224.614,286.899,231.444,285.516,238.752C285.098,242.108,277.213,250.945,272.822,255.452C269.772,258.583,263.707,263.650,261.536,264.666C253.633,267.858,252.090,258.313,251.576,252.350C251.317,247.201,254.295,239.912,257.376,235.566C260.091,231.738,264.468,226.489,269.568,225.764Z"/>
<path class="path-1" d="M190.761,233.753C195.673,237.678,199.232,242.385,198.399,246.859"/>
<path class="path-1" d="M198.399,246.859C197.614,251.075,194.546,253.446,187.350,255.926"/>
<path class="path-1" d="M187.350,255.926C176.036,259.826,167.092,242.470,170.607,235.322"/>
<path class="path-1" d="M170.607,235.322C173.282,229.880,184.445,228.707,190.761,233.753"/>
<path class="path-2" d="M190.761,233.753C195.673,237.678,199.232,242.385,198.399,246.859C197.614,251.075,194.546,253.446,187.350,255.926C176.036,259.826,167.092,242.470,170.607,235.322C173.282,229.880,184.445,228.707,190.761,233.753Z"/>
</g>
<g id="left_arm">
<path class="path-0" d="M288.949,455.126C286.180,449.493,285.772,440.426,293.618,438.888C299.082,437.772,322.370,445.492,325.936,449.867C332.245,456.863,326.791,471.019,317.849,473.452C307.582,475.750,293.401,463.941,288.949,455.126M279.634,277.897C280.092,274.613,287.181,263.443,292.316,263.905C295.298,264.173,297.335,268.955,298.668,271.467C302.380,279.370,306.396,287.502,309.561,295.882C318.352,318.514,325.392,341.450,329.567,364.956C330.974,374.314,329.031,386.638,331.499,395.251C334.493,405.253,341.117,402.585,343.456,409.176C344.477,412.289,343.242,417.850,344.756,422.685C346.993,430.271,352.215,434.815,354.391,439.718C355.777,442.534,356.135,445.580,352.427,445.873C350.340,446.664,345.145,445.133,343.159,444.931C336.715,442.495,330.275,440.056,323.838,437.614C315.104,434.718,288.098,430.627,284.072,424.198C278.065,414.223,290.096,404.412,292.368,395.279C293.309,392.443,301.264,350.107,300.576,347.253C299.753,340.740,294.921,335.639,292.555,329.155C289.760,320.185,286.892,310.578,284.339,301.176C282.321,293.132,277.990,286.827,279.634,277.897M302.618,252.836C299.709,248.516,291.377,241.213,285.610,243.304C280.833,245.268,280.947,251.293,280.800,255.338C280.439,265.450,279.533,273.956,280.778,283.523C281.348,290.494,282.860,296.669,284.342,303.189C286.018,311.670,286.734,328.336,287.573,338.159C288.081,347.585,290.102,357.425,289.003,365.516C286.021,384.425,274.799,401.301,273.527,420.313C272.570,429.787,275.193,430.026,276.666,437.823C277.739,443.945,275.750,450.104,277.493,455.966C281.934,471.467,297.764,486.789,314.981,485.199C330.840,483.805,333.222,466.992,342.405,458.898C350.496,451.695,364.655,457.150,367.483,449.077C370.177,442.329,361.354,433.740,358.253,428.073C351.983,417.402,357.845,415.657,354.980,407.675C352.906,401.779,345.798,396.039,342.900,388.386C341.251,384.873,340.945,378.474,340.011,374.046C338.111,362.961,336.885,350.298,334.802,338.754C332.747,325.857,329.623,314.729,324.447,301.998C320.441,291.782,308.311,260.481,302.618,252.836Z"/>
<path class="path-1" d="M292.316,263.905C295.298,264.173,297.335,268.955,298.668,271.467"/>
<path class="path-1" d="M298.668,271.467C302.380,279.370,306.396,287.502,309.561,295.882"/>
<path class="path-1" d="M309.561,295.882C318.352,318.514,325.392,341.450,329.567,364.956"/>
<path class="path-1" d="M329.567,364.956C330.974,374.314,329.031,386.638,331.499,395.251"/>
<path class="path-1" d="M331.499,395.251C334.493,405.253,341.117,402.585,343.456,409.176"/>
<path class="path-1" d="M343.456,409.176C344.477,412.289,343.242,417.850,344.756,422.685"/>
<path class="path-1" d="M344.756,422.685C346.993,430.271,352.215,434.815,354.391,439.718"/>
<path class="path-1" d="M354.391,439.718C355.777,442.534,356.135,445.580,352.427,445.873"/>
<path class="path-1" d="M352.427,445.873C350.340,446.664,345.145,445.133,343.159,444.931"/>
<path class="path-1" d="M343.159,444.931C336.715,442.495,330.275,440.056,323.838,437.614"/>
<path class="path-1" d="M323.838,437.614C315.104,434.718,288.098,430.627,284.072,424.198"/>
<path class="path-1" d="M284.072,424.198C278.065,414.223,290.096,404.412,292.368,395.279"/>
<path class="path-1" d="M292.368,395.279C293.309,392.443,301.264,350.107,300.576,347.253"/>
<path class="path-1" d="M300.576,347.253C299.753,340.740,294.921,335.639,292.555,329.155"/>
<path class="path-1" d="M292.555,329.155C289.760,320.185,286.892,310.578,284.339,301.176"/>
<path class="path-1" d="M284.339,301.176C282.321,293.132,277.990,286.827,279.634,277.897"/>
<path class="path-1" d="M279.634,277.897C280.092,274.613,287.181,263.443,292.316,263.905"/>
<path class="path-2" d="M292.316,263.905C295.298,264.173,297.335,268.955,298.668,271.467C302.380,279.370,306.396,287.502,309.561,295.882C318.352,318.514,325.392,341.450,329.567,364.956C330.974,374.314,329.031,386.638,331.499,395.251C334.493,405.253,341.117,402.585,343.456,409.176C344.477,412.289,343.242,417.850,344.756,422.685C346.993,430.271,352.215,434.815,354.391,439.718C355.777,442.534,356.135,445.580,352.427,445.873C350.340,446.664,345.145,445.133,343.159,444.931C336.715,442.495,330.275,440.056,323.838,437.614C315.104,434.718,288.098,430.627,284.072,424.198C278.065,414.223,290.096,404.412,292.368,395.279C293.309,392.443,301.264,350.107,300.576,347.253C299.753,340.740,294.921,335.639,292.555,329.155C289.760,320.185,286.892,310.578,284.339,301.176C282.321,293.132,277.990,286.827,279.634,277.897C280.092,274.613,287.181,263.443,292.316,263.905Z"/>
<path class="path-15" d="M293.618,438.888C299.082,437.772,322.370,445.492,325.936,449.867"/>
<path class="path-15" d="M325.936,449.867C332.245,456.863,326.791,471.019,317.849,473.452"/>
<path class="path-15" d="M317.849,473.452C307.582,475.750,293.401,463.941,288.949,455.126"/>
<path class="path-15" d="M288.949,455.126C286.180,449.493,285.772,440.426,293.618,438.888"/>
<path class="path-16" d="M293.618,438.888C299.082,437.772,322.370,445.492,325.936,449.867C332.245,456.863,326.791,471.019,317.849,473.452C307.582,475.750,293.401,463.941,288.949,455.126C286.180,449.493,285.772,440.426,293.618,438.888Z"/>
</g>
<g id="bone">
<g id="bone1_clothes">
<path class="path-23" d="M231.371,386.658C231.372,386.652,237.031,327.936,237.032,327.930C237.032,327.936,242.503,386.670,242.503,386.676C242.502,386.676,231.372,386.658,231.371,386.658"/>
</g>
<g id="bone2_clothes">
<path class="path-23" d="M230.118,327.641C230.118,327.634,231.976,255.131,231.976,255.124C231.977,255.131,243.853,326.679,243.854,326.686C243.853,326.686,230.119,327.641,230.118,327.641"/>
</g>
<g id="bone3_neck">
<path class="path-23" d="M235.341,253.913C235.340,253.909,230.729,212.465,230.729,212.460C230.729,212.465,228.747,254.118,228.747,254.122C228.747,254.122,235.340,253.913,235.341,253.913"/>
</g>
<g id="bone4_head">
<path class="path-23" d="M224.810,213.344C224.810,213.336,219.011,135.487,219.010,135.480C219.012,135.487,237.126,211.420,237.128,211.428C237.126,211.428,224.812,213.344,224.810,213.344"/>
</g>
<g id="bone5_left_arm">
<path class="path-23" d="M295.797,255.878C295.799,255.887,315.405,346.251,315.407,346.260C315.404,346.252,280.726,260.534,280.722,260.525C280.724,260.525,295.795,255.878,295.797,255.878"/>
</g>
<g id="bone6_left_arm">
<path class="path-23" d="M310.101,346.539C310.102,346.545,316.114,409.998,316.114,410.004C316.115,409.997,320.542,346.415,320.542,346.409C320.541,346.409,310.103,346.539,310.101,346.539"/>
</g>
<g id="bone7_right_arm">
<path class="path-23" d="M166.629,269.965C166.627,269.976,150.219,384.304,150.217,384.316C150.221,384.305,184.462,273.998,184.465,273.987C184.464,273.987,166.631,269.965,166.629,269.965"/>
</g>
<g id="bone8_right_arm">
<path class="path-23" d="M155.092,380.554C155.094,380.560,171.405,437.804,171.407,437.810C171.404,437.805,143.926,385.004,143.924,384.998C143.925,384.998,155.091,380.554,155.092,380.554"/>
</g>
<g id="bone9_left_leg">
<path class="path-23" d="M269.526,386.492C269.526,386.502,267.449,488.146,267.449,488.156C267.448,488.146,251.217,387.785,251.216,387.775C251.217,387.775,269.524,386.492,269.526,386.492"/>
</g>
<g id="bone10_right_leg">
<path class="path-23" d="M206.817,385.515C206.817,385.526,206.101,489.278,206.101,489.289C206.102,489.278,222.271,386.791,222.273,386.780C222.271,386.780,206.819,385.515,206.817,385.515"/>
</g>
<g id="bone11_hair">
<path class="path-23" d="M229.795,157.080C229.796,157.088,236.323,237.006,236.324,237.014C236.322,237.006,215.279,159.632,215.277,159.624C215.278,159.624,229.794,157.080,229.795,157.080"/>
</g>
<g id="bone12_left_leg_S">
<path class="path-23" d="M442.343,216.901C442.343,216.894,438.573,144.648,438.572,144.641C438.572,144.648,430.421,216.532,430.420,216.539C430.421,216.539,442.342,216.901,442.343,216.901"/>
</g>
<g id="bone13_right_leg_S">
<path class="path-23" d="M501.487,217.266C501.487,217.259,502.722,144.925,502.722,144.918C502.721,144.925,489.618,216.073,489.617,216.080C489.618,216.080,501.486,217.266,501.487,217.266"/>
</g>
<g id="bone14_left_arm_S">
<path class="path-23" d="M557.468,215.892C557.467,215.885,550.375,143.889,550.374,143.882C550.374,143.889,545.540,216.072,545.540,216.079C545.541,216.079,557.466,215.892,557.468,215.892"/>
</g>
<g id="bone15_jacket_S">
<path class="path-23" d="M610.567,216.328C610.567,216.320,608.702,144.000,608.702,143.993C608.701,144.000,598.658,215.644,598.657,215.651C598.659,215.651,610.566,216.328,610.567,216.328"/>
</g>
<g id="bone16_pupils_S">
<path class="path-23" d="M440.060,341.844C440.065,341.839,492.066,291.544,492.072,291.539C492.066,291.543,432.508,332.611,432.502,332.615C432.503,332.616,440.059,341.843,440.060,341.844"/>
</g>
<g id="bone17_eyelids_S">
<path class="path-23" d="M502.309,337.358C502.308,337.351,496.345,265.253,496.344,265.246C496.344,265.253,490.380,337.351,490.380,337.358C490.381,337.358,502.308,337.358,502.309,337.358"/>
</g>
<g id="bone18_face_S">
<path class="path-23" d="M556.669,342.422C556.673,342.416,594.419,280.699,594.423,280.693C594.418,280.698,547.045,335.375,547.041,335.380C547.041,335.381,556.669,342.421,556.669,342.422"/>
</g>
</g>
</g>
<style>
.path-0{fill:#000000;fill-rule:evenodd;stroke:none;}
.path-1{fill:none;stroke:#a60d3f;stroke-width:1;stroke-linecap:butt;stroke-linejoin:round;}
.path-2{fill:#a60d3f;fill-rule:evenodd;stroke:none;}
.path-3{fill:none;stroke:#d88e4b;stroke-width:1;stroke-linecap:butt;stroke-linejoin:round;}
.path-4{fill:#d88e4b;fill-rule:evenodd;stroke:none;}
.path-5{fill:none;stroke:#6e2353;stroke-width:1;stroke-linecap:butt;stroke-linejoin:round;}
.path-6{fill:#6e2353;fill-rule:evenodd;stroke:none;}
.path-7{fill:none;stroke:#392966;stroke-width:1;stroke-linecap:butt;stroke-linejoin:round;}
.path-8{fill:#392966;fill-rule:evenodd;stroke:none;}
.path-9{fill:none;stroke:#cc9bc5;stroke-width:1;stroke-linecap:butt;stroke-linejoin:round;}
.path-10{fill:#cc9bc5;fill-rule:evenodd;stroke:none;}
.path-11{fill:none;stroke:#620527;stroke-width:1;stroke-linecap:butt;stroke-linejoin:round;}
.path-12{fill:#620527;fill-rule:evenodd;stroke:none;}
.path-13{fill:none;stroke:#6a3661;stroke-width:1;stroke-linecap:butt;stroke-linejoin:round;}
.path-14{fill:#6a3661;fill-rule:evenodd;stroke:none;}
.path-15{fill:none;stroke:#f8a087;stroke-width:1;stroke-linecap:butt;stroke-linejoin:round;}
.path-16{fill:#f8a087;fill-rule:evenodd;stroke:none;}
.path-17{fill:none;stroke:#ffffff;stroke-width:1;stroke-linecap:butt;stroke-linejoin:round;}
.path-18{fill:#ffffff;fill-rule:evenodd;stroke:none;}
.path-19{fill:none;stroke:#d89f4a;stroke-width:1;stroke-linecap:butt;stroke-linejoin:round;}
.path-20{fill:#d89f4a;fill-rule:evenodd;stroke:none;}
.path-21{fill:none;stroke:#fafd5b;stroke-width:1;stroke-linecap:butt;stroke-linejoin:round;}
.path-22{fill:#fafd5b;fill-rule:evenodd;stroke:none;}
.path-23{fill:none;stroke:#00ff42;stroke-width:8;stroke-linecap:round;stroke-linejoin:round;}
.path-24{fill:none;stroke:#000000;stroke-width:1;stroke-linecap:butt;stroke-linejoin:round;}
.path-25{fill:none;stroke:#ececec;stroke-width:1;stroke-linecap:butt;stroke-linejoin:round;}
.path-26{fill:#ececec;fill-rule:evenodd;stroke:none;}
</style>
</svg>
