<svg version="1.1" id="Frame_156" xmlns="http://www.w3.org/2000/svg" xmlns:xlink="http://www.w3.org/1999/xlink" width="480px" height="720px">
<g id="main_bone">
<g id="right_arm">
<path class="path-0" d="M174.126,270.172C175.458,267.511,178.075,262.017,181.778,260.525C188.182,257.943,193.652,263.933,194.431,268.509C196.093,276.447,190.936,287.396,188.470,295.289C182.390,314.329,175.637,333.084,171.132,352.015C170.600,355.317,165.808,376.634,165.808,373.973C165.476,380.626,172.130,386.283,174.459,391.939C177.454,399.590,174.791,406.910,172.795,413.897C168.138,428.535,168.471,433.858,167.804,448.165C167.804,450.492,167.473,458.146,163.812,458.146C160.487,458.146,160.153,452.157,159.488,449.828C159.155,447.167,156.825,441.510,157.492,439.182C157.823,435.190,162.483,436.188,157.492,427.870C151.170,417.555,139.526,409.240,136.532,395.931C134.536,385.285,140.191,375.969,143.186,365.988C149.508,344.695,156.494,323.404,163.812,302.111C167.805,291.132,168.802,281.484,174.126,270.172M193.754,262.188C193.755,253.538,190.761,245.885,180.115,249.546C163.481,255.200,158.822,281.484,154.165,296.122C147.512,316.084,141.855,336.046,136.199,356.007C133.870,364.657,130.544,368.982,129.212,373.973C127.549,379.628,127.881,388.280,128.214,393.935C128.214,411.567,133.869,412.234,140.856,425.874C144.517,433.859,140.525,438.849,142.852,445.835C144.517,450.492,148.176,453.820,150.837,457.813C153.166,461.805,153.499,464.135,155.162,467.793C157.158,472.119,163.481,481.767,169.136,479.771C173.793,478.108,173.793,469.790,174.126,465.797C174.459,459.809,178.119,436.853,179.450,429.866C181.778,418.554,187.435,406.245,185.770,393.935C184.440,384.619,176.122,377.965,176.456,367.985C176.787,362.661,180.115,354.011,181.113,348.023C182.776,338.375,182.776,328.061,184.772,318.081C188.099,300.448,194.421,280.487,193.754,262.188Z"/>
<path class="path-1" d="M181.778,260.525C188.182,257.943,193.652,263.933,194.431,268.509"/>
<path class="path-1" d="M194.431,268.509C196.093,276.447,190.936,287.396,188.470,295.289"/>
<path class="path-1" d="M188.470,295.289C182.390,314.329,175.637,333.084,171.132,352.015"/>
<path class="path-1" d="M171.132,352.015C170.600,355.317,165.808,376.634,165.808,373.973"/>
<path class="path-1" d="M165.808,373.973C165.476,380.626,172.130,386.283,174.459,391.939"/>
<path class="path-1" d="M174.459,391.939C177.454,399.590,174.791,406.910,172.795,413.897"/>
<path class="path-1" d="M172.795,413.897C168.138,428.535,168.471,433.858,167.804,448.165"/>
<path class="path-1" d="M167.804,448.165C167.804,450.492,167.473,458.146,163.812,458.146"/>
<path class="path-1" d="M163.812,458.146C160.487,458.146,160.153,452.157,159.488,449.828"/>
<path class="path-1" d="M159.488,449.828C159.155,447.167,156.825,441.510,157.492,439.182"/>
<path class="path-1" d="M157.492,439.182C157.823,435.190,162.483,436.188,157.492,427.870"/>
<path class="path-1" d="M157.492,427.870C151.170,417.555,139.526,409.240,136.532,395.931"/>
<path class="path-1" d="M136.532,395.931C134.536,385.285,140.191,375.969,143.186,365.988"/>
<path class="path-1" d="M143.186,365.988C149.508,344.695,156.494,323.404,163.812,302.111"/>
<path class="path-1" d="M163.812,302.111C167.805,291.132,168.802,281.484,174.126,270.172"/>
<path class="path-1" d="M174.126,270.172C175.458,267.511,178.075,262.017,181.778,260.525"/>
<path class="path-2" d="M181.778,260.525C188.182,257.943,193.652,263.933,194.431,268.509C196.093,276.447,190.936,287.396,188.470,295.289C182.390,314.329,175.637,333.084,171.132,352.015C170.600,355.317,165.808,376.634,165.808,373.973C165.476,380.626,172.130,386.283,174.459,391.939C177.454,399.590,174.791,406.910,172.795,413.897C168.138,428.535,168.471,433.858,167.804,448.165C167.804,450.492,167.473,458.146,163.812,458.146C160.487,458.146,160.153,452.157,159.488,449.828C159.155,447.167,156.825,441.510,157.492,439.182C157.823,435.190,162.483,436.188,157.492,427.870C151.170,417.555,139.526,409.240,136.532,395.931C134.536,385.285,140.191,375.969,143.186,365.988C149.508,344.695,156.494,323.404,163.812,302.111C167.805,291.132,168.802,281.484,174.126,270.172C175.458,267.511,178.075,262.017,181.778,260.525Z"/>
</g>
<g id="layer_right_leg">
<g id="right_sole">
<path class="path-0" d="M194.439,660.531C195.838,660.873,210.627,660.645,212.228,660.659C213.564,660.696,221.992,660.797,223.131,660.723C223.827,660.698,231.041,660.595,231.585,661.125C231.342,660.501,223.316,662.119,222.838,662.126C221.982,662.179,196.935,662.011,196.650,662.107C195.387,662.157,184.742,660.974,184.140,660.005C185.157,659.447,192.846,660.140,194.439,660.531M229.524,655.697C229.548,655.970,228.191,657.287,227.778,657.277C226.933,657.260,215.744,658.582,214.644,658.278C213.392,658.161,206.174,657.834,205.042,657.761C202.763,657.613,187.848,657.088,185.732,656.262C185.569,656.163,185.018,655.680,185.004,655.576C184.992,655.288,191.006,655.885,192.110,655.880C193.851,655.872,205.455,655.499,207.240,655.482C209.162,655.465,221.574,655.784,223.543,655.620C223.851,655.602,229.378,655.012,229.524,655.697M234.404,652.668C224.578,649.709,216.284,653.024,207.732,653.132C201.087,653.235,188.102,651.222,180.261,653.766C179.066,654.154,176.876,654.569,176.644,655.878C176.347,657.578,179.331,661.102,181.352,662.437C183.858,664.090,189.083,664.125,191.156,664.442C201.661,666.441,214.967,665.301,225.834,664.978C233.817,664.749,235.752,661.457,236.574,657.643C236.916,656.051,237.485,653.554,234.404,652.668Z"/>
<path class="path-24" d="M194.439,660.531C195.838,660.873,210.627,660.645,212.228,660.659"/>
<path class="path-24" d="M212.228,660.659C213.564,660.696,221.992,660.797,223.131,660.723"/>
<path class="path-24" d="M223.131,660.723C223.827,660.698,231.041,660.595,231.585,661.125"/>
<path class="path-24" d="M231.585,661.125C231.342,660.501,223.316,662.119,222.838,662.126"/>
<path class="path-24" d="M222.838,662.126C221.982,662.179,196.935,662.011,196.650,662.107"/>
<path class="path-24" d="M196.650,662.107C195.387,662.157,184.742,660.974,184.140,660.005"/>
<path class="path-24" d="M184.140,660.005C185.157,659.447,192.846,660.140,194.439,660.531"/>
<path class="path-0" d="M194.439,660.531C195.838,660.873,210.627,660.645,212.228,660.659C213.564,660.696,221.992,660.797,223.131,660.723C223.827,660.698,231.041,660.595,231.585,661.125C231.342,660.501,223.316,662.119,222.838,662.126C221.982,662.179,196.935,662.011,196.650,662.107C195.387,662.157,184.742,660.974,184.140,660.005C185.157,659.447,192.846,660.140,194.439,660.531Z"/>
<path class="path-24" d="M192.110,655.880C193.851,655.872,205.455,655.499,207.240,655.482"/>
<path class="path-24" d="M207.240,655.482C209.162,655.465,221.574,655.784,223.543,655.620"/>
<path class="path-24" d="M223.543,655.620C223.851,655.602,229.378,655.012,229.524,655.697"/>
<path class="path-24" d="M229.524,655.697C229.548,655.970,228.191,657.287,227.778,657.277"/>
<path class="path-24" d="M227.778,657.277C226.933,657.260,215.744,658.582,214.644,658.278"/>
<path class="path-24" d="M214.644,658.278C213.392,658.161,206.174,657.834,205.042,657.761"/>
<path class="path-24" d="M205.042,657.761C202.763,657.613,187.848,657.088,185.732,656.262"/>
<path class="path-24" d="M185.732,656.262C185.569,656.163,185.018,655.680,185.004,655.576"/>
<path class="path-24" d="M185.004,655.576C184.992,655.288,191.006,655.885,192.110,655.880"/>
<path class="path-0" d="M192.110,655.880C193.851,655.872,205.455,655.499,207.240,655.482C209.162,655.465,221.574,655.784,223.543,655.620C223.851,655.602,229.378,655.012,229.524,655.697C229.548,655.970,228.191,657.287,227.778,657.277C226.933,657.260,215.744,658.582,214.644,658.278C213.392,658.161,206.174,657.834,205.042,657.761C202.763,657.613,187.848,657.088,185.732,656.262C185.569,656.163,185.018,655.680,185.004,655.576C184.992,655.288,191.006,655.885,192.110,655.880Z"/>
</g>
<g id="right_heel">
<path class="path-0" d="M187.094,592.709C187.779,577.074,189.018,564.973,208.086,562.194C216.635,560.791,232.929,563.468,237.641,571.731C240.106,575.812,239.365,581.806,239.593,586.170C240.025,593.243,244.274,606.935,234.296,608.523C233.661,608.687,216.186,608.849,210.731,608.950C203.444,609.763,195.896,610.212,190.637,605.161C188.126,602.216,186.871,596.219,187.094,592.709M246.840,570.096C243.060,560.082,229.247,554.495,219.556,555.929C207.016,557.628,194.173,553.454,186.003,565.192C179.782,574.126,178.980,590.531,180.822,600.957C181.529,605.879,184.642,614.852,188.730,617.577C191.729,619.483,196.362,618.931,199.907,618.938C217.269,619.252,248.362,625.228,247.956,599.322C247.785,592.849,248.752,575.217,246.840,570.096Z"/>
<path class="path-3" d="M208.086,562.194C216.635,560.791,232.929,563.468,237.641,571.731"/>
<path class="path-3" d="M237.641,571.731C240.106,575.812,239.365,581.806,239.593,586.170"/>
<path class="path-3" d="M239.593,586.170C240.025,593.243,244.274,606.935,234.296,608.523"/>
<path class="path-3" d="M234.296,608.523C233.661,608.687,216.186,608.849,210.731,608.950"/>
<path class="path-3" d="M210.731,608.950C203.444,609.763,195.896,610.212,190.637,605.161"/>
<path class="path-3" d="M190.637,605.161C188.126,602.216,186.871,596.219,187.094,592.709"/>
<path class="path-3" d="M187.094,592.709C187.779,577.074,189.018,564.973,208.086,562.194"/>
<path class="path-4" d="M208.086,562.194C216.635,560.791,232.929,563.468,237.641,571.731C240.106,575.812,239.365,581.806,239.593,586.170C240.025,593.243,244.274,606.935,234.296,608.523C233.661,608.687,216.186,608.849,210.731,608.950C203.444,609.763,195.896,610.212,190.637,605.161C188.126,602.216,186.871,596.219,187.094,592.709C187.779,577.074,189.018,564.973,208.086,562.194Z"/>
</g>
<g id="right_toe">
<path class="path-0" d="M178.201,636.632C179.320,624.880,184.333,610.118,198.604,607.893C202.059,607.170,206.965,608.651,210.829,609.335C230.235,612.722,237.978,616.790,239.055,636.632C239.226,641.638,240.065,647.758,236.511,651.945C232.458,656.635,212.281,655.608,206.132,655.745C195.657,656.206,186.677,659.325,179.844,649.895C176.349,644.965,177.674,642.260,178.201,636.632M245.805,617.436C239.534,604.675,210.089,596.795,196.746,599.093C176.937,602.619,170.092,618.008,168.824,634.795C168.336,640.676,167.600,647.217,170.696,652.324C171.874,654.267,174.440,656.730,176.136,658.252C188.244,670.062,196.475,668.884,212.238,668.339C220.780,668.186,234.761,666.560,241.579,660.789C246.326,656.377,247.155,651.790,247.448,645.691C247.520,639.866,248.149,621.767,245.805,617.436Z"/>
<path class="path-3" d="M198.604,607.893C202.059,607.170,206.965,608.651,210.829,609.335"/>
<path class="path-3" d="M210.829,609.335C230.235,612.722,237.978,616.790,239.055,636.632"/>
<path class="path-3" d="M239.055,636.632C239.226,641.638,240.065,647.758,236.511,651.945"/>
<path class="path-3" d="M236.511,651.945C232.458,656.635,212.281,655.608,206.132,655.745"/>
<path class="path-3" d="M206.132,655.745C195.657,656.206,186.677,659.325,179.844,649.895"/>
<path class="path-3" d="M179.844,649.895C176.349,644.965,177.674,642.260,178.201,636.632"/>
<path class="path-3" d="M178.201,636.632C179.320,624.880,184.333,610.118,198.604,607.893"/>
<path class="path-4" d="M198.604,607.893C202.059,607.170,206.965,608.651,210.829,609.335C230.235,612.722,237.978,616.790,239.055,636.632C239.226,641.638,240.065,647.758,236.511,651.945C232.458,656.635,212.281,655.608,206.132,655.745C195.657,656.206,186.677,659.325,179.844,649.895C176.349,644.965,177.674,642.260,178.201,636.632C179.320,624.880,184.333,610.118,198.604,607.893Z"/>
</g>
<g id="right_leg">
<path class="path-0" d="M184.345,403.867C187.384,392.489,202.809,390.314,212.784,393.055C218.583,394.521,228.183,397.261,231.565,402.600C233.964,406.387,234.398,413.417,232.570,417.510C230.282,422.634,212.304,426.437,217.556,428.667C225.503,432.116,232.229,420.942,237.099,424.443C239.885,426.446,239.296,431.651,239.589,435.605C242.042,455.071,236.652,475.430,235.323,494.418C234.807,500.868,231.942,510.236,232.761,516.177C234.434,532.281,233.120,535.547,233.565,545.147C233.508,548.634,232.458,566.254,233.329,570.851C234.303,575.491,235.698,580.384,236.411,585.095C237.516,592.404,231.737,604.626,225.738,608.072C220.819,610.769,204.142,613.356,198.741,611.353C194.472,609.910,189.919,604.581,187.693,600.295C186.292,597.918,181.494,586.924,181.586,583.931C181.984,578.133,183.372,576.530,184.403,569.804C185.308,562.191,188.582,554.169,187.394,546.414C183.724,524.186,183.372,492.944,185.156,478.102C186.110,468.100,183.648,434.709,184.523,425.432C185.727,413.800,182.806,411.646,184.345,403.867M208.062,381.294C202.406,379.297,198.053,373.894,192.092,375.969C190.436,376.705,187.550,378.797,186.370,379.994C170.626,393.538,171.564,407.072,171.489,426.355C171.156,433.641,170.278,441.195,170.584,448.197C170.721,453.991,171.415,458.984,171.043,464.422C171.027,469.258,170.516,474.371,170.717,480.348C171.154,487.858,173.653,496.567,174.243,509.330C173.947,520.886,174.400,531.755,174.393,542.805C174.534,547.124,173.534,557.269,173.091,560.579C171.571,566.097,168.700,572.311,167.679,577.621C166.736,584.686,169.235,591.783,171.984,597.958C173.863,602.860,176.718,608.893,180.120,612.469C182.665,615.145,186.153,617.003,189.319,618.536C194.203,620.868,198.832,622.535,204.216,623.464C208.430,624.224,212.679,624.752,217.127,624.541C218.311,624.301,228.034,622.188,229.932,621.751C231.885,621.181,234.292,618.943,235.977,617.606C238.045,615.775,241.689,614.706,243.864,612.880C247.006,610.238,250.438,607.647,252.497,604.093C263.338,584.764,250.605,571.665,247.697,552.526C246.227,542.852,244.871,522.780,245.533,511.965C246.095,498.141,250.472,485.037,251.605,470.819C252.102,465.841,252.472,459.861,253.083,454.190C253.522,449.309,251.929,445.463,251.527,440.652C250.966,436.738,251.259,424.108,250.646,419.885C250.255,416.187,250.314,411.567,248.983,407.908C245.324,398.592,231.351,388.280,222.034,385.285C217.377,383.621,212.387,383.290,208.062,381.294Z"/>
<path class="path-7" d="M212.784,393.055C218.583,394.521,228.183,397.261,231.565,402.600"/>
<path class="path-7" d="M231.565,402.600C233.964,406.387,234.398,413.417,232.570,417.510"/>
<path class="path-7" d="M232.570,417.510C230.282,422.634,212.304,426.437,217.556,428.667"/>
<path class="path-7" d="M217.556,428.667C225.503,432.116,232.229,420.942,237.099,424.443"/>
<path class="path-7" d="M237.099,424.443C239.885,426.446,239.296,431.651,239.589,435.605"/>
<path class="path-7" d="M239.589,435.605C242.042,455.071,236.652,475.430,235.323,494.418"/>
<path class="path-7" d="M235.323,494.418C234.807,500.868,231.942,510.236,232.761,516.177"/>
<path class="path-7" d="M232.761,516.177C234.434,532.281,233.120,535.547,233.565,545.147"/>
<path class="path-7" d="M233.565,545.147C233.508,548.634,232.458,566.254,233.329,570.851"/>
<path class="path-7" d="M233.329,570.851C234.303,575.491,235.698,580.384,236.411,585.095"/>
<path class="path-7" d="M236.411,585.095C237.516,592.404,231.737,604.626,225.738,608.072"/>
<path class="path-7" d="M225.738,608.072C220.819,610.769,204.142,613.356,198.741,611.353"/>
<path class="path-7" d="M198.741,611.353C194.472,609.910,189.919,604.581,187.693,600.295"/>
<path class="path-7" d="M187.693,600.295C186.292,597.918,181.494,586.924,181.586,583.931"/>
<path class="path-7" d="M181.586,583.931C181.984,578.133,183.372,576.530,184.403,569.804"/>
<path class="path-7" d="M184.403,569.804C185.308,562.191,188.582,554.169,187.394,546.414"/>
<path class="path-7" d="M187.394,546.414C183.724,524.186,183.372,492.944,185.156,478.102"/>
<path class="path-7" d="M185.156,478.102C186.110,468.100,183.648,434.709,184.523,425.432"/>
<path class="path-7" d="M184.523,425.432C185.727,413.800,182.806,411.646,184.345,403.867"/>
<path class="path-7" d="M184.345,403.867C187.384,392.489,202.809,390.314,212.784,393.055"/>
<path class="path-8" d="M212.784,393.055C218.583,394.521,228.183,397.261,231.565,402.600C233.964,406.387,234.398,413.417,232.570,417.510C230.282,422.634,212.304,426.437,217.556,428.667C225.503,432.116,232.229,420.942,237.099,424.443C239.885,426.446,239.296,431.651,239.589,435.605C242.042,455.071,236.652,475.430,235.323,494.418C234.807,500.868,231.942,510.236,232.761,516.177C234.434,532.281,233.120,535.547,233.565,545.147C233.508,548.634,232.458,566.254,233.329,570.851C234.303,575.491,235.698,580.384,236.411,585.095C237.516,592.404,231.737,604.626,225.738,608.072C220.819,610.769,204.142,613.356,198.741,611.353C194.472,609.910,189.919,604.581,187.693,600.295C186.292,597.918,181.494,586.924,181.586,583.931C181.984,578.133,183.372,576.530,184.403,569.804C185.308,562.191,188.582,554.169,187.394,546.414C183.724,524.186,183.372,492.944,185.156,478.102C186.110,468.100,183.648,434.709,184.523,425.432C185.727,413.800,182.806,411.646,184.345,403.867C187.384,392.489,202.809,390.314,212.784,393.055Z"/>
</g>
</g>
<g id="layer_left_leg">
<g id="left_heel">
<path class="path-0" d="M249.059,682.452C244.163,669.866,256.025,654.760,267.462,653.325C287.630,650.727,307.065,672.212,304.964,679.464C300.887,692.043,277.571,689.318,266.334,688.460C261.767,687.959,250.634,686.581,249.059,682.452M299.496,650.390C284.649,638.790,253.337,641.475,240.386,652.757C227.053,664.229,225.632,700.956,243.782,703.083C260.500,705.069,300.259,703.211,309.094,698.557C318.284,693.944,316.713,680.044,313.975,670.828C311.454,663.881,305.429,655.164,299.496,650.390Z"/>
<path class="path-3" d="M267.462,653.325C287.630,650.727,307.065,672.212,304.964,679.464"/>
<path class="path-3" d="M304.964,679.464C300.887,692.043,277.571,689.318,266.334,688.460"/>
<path class="path-3" d="M266.334,688.460C261.767,687.959,250.634,686.581,249.059,682.452"/>
<path class="path-3" d="M249.059,682.452C244.163,669.866,256.025,654.760,267.462,653.325"/>
<path class="path-4" d="M267.462,653.325C287.630,650.727,307.065,672.212,304.964,679.464C300.887,692.043,277.571,689.318,266.334,688.460C261.767,687.959,250.634,686.581,249.059,682.452C244.163,669.866,256.025,654.760,267.462,653.325Z"/>
</g>
<g id="left_leg">
<path class="path-0" d="M238.898,405.789C240.592,401.163,250.103,404.863,253.973,404.581C260.668,404.417,276.228,400.499,281.255,405.121C286.417,409.558,283.698,428.631,283.596,435.179C282.550,458.769,287.646,480.780,290.329,503.423C292.042,521.573,291.228,541.003,296.911,557.950C300.394,567.058,309.797,573.575,313.501,581.990C316.554,594.463,322.780,608.994,315.175,618.153C300.578,633.648,295.098,627.259,281.953,634.777C271.381,640.401,253.386,638.732,244.472,632.503C238.333,628.512,229.236,617.651,228.010,610.532C221.552,573.023,225.404,529.091,227.342,491.810C228.037,478.432,240.210,451.282,237.158,437.212C236.245,433.000,235.541,431.258,237.633,427.971C238.767,426.183,236.918,419.423,236.786,417.280C236.346,414.181,237.691,408.600,238.898,405.789M287.908,398.070C281.337,392.453,261.969,394.202,253.973,394.933C249.686,395.309,235.953,393.315,233.025,395.615C223.946,402.746,229.280,423.702,229.614,433.109C229.334,442.206,216.307,483.954,214.449,496.064C211.857,523.726,208.114,547.702,210.787,575.357C212.504,595.958,212.322,616.998,222.276,634.792C233.086,653.802,251.207,654.751,276.501,651.086C295.377,648.471,324.017,651.293,330.342,621.000C335.193,597.771,324.198,568.844,319.842,561.999C315.791,555.634,308.968,550.588,305.943,543.089C298.200,525.656,301.828,505.249,300.024,486.147C298.082,465.386,304.610,412.412,287.908,398.070Z"/>
<path class="path-7" d="M253.973,404.581C260.668,404.417,276.228,400.499,281.255,405.121"/>
<path class="path-7" d="M281.255,405.121C286.417,409.558,283.698,428.631,283.596,435.179"/>
<path class="path-7" d="M283.596,435.179C282.550,458.769,287.646,480.780,290.329,503.423"/>
<path class="path-7" d="M290.329,503.423C292.042,521.573,291.228,541.003,296.911,557.950"/>
<path class="path-7" d="M296.911,557.950C300.394,567.058,309.797,573.575,313.501,581.990"/>
<path class="path-7" d="M313.501,581.990C316.554,594.463,322.780,608.994,315.175,618.153"/>
<path class="path-7" d="M315.175,618.153C300.578,633.648,295.098,627.259,281.953,634.777"/>
<path class="path-7" d="M281.953,634.777C271.381,640.401,253.386,638.732,244.472,632.503"/>
<path class="path-7" d="M244.472,632.503C238.333,628.512,229.236,617.651,228.010,610.532"/>
<path class="path-7" d="M228.010,610.532C221.552,573.023,225.404,529.091,227.342,491.810"/>
<path class="path-7" d="M227.342,491.810C228.037,478.432,240.210,451.282,237.158,437.212"/>
<path class="path-7" d="M237.158,437.212C236.245,433.000,235.541,431.258,237.633,427.971"/>
<path class="path-7" d="M237.633,427.971C238.767,426.183,236.918,419.423,236.786,417.280"/>
<path class="path-7" d="M236.786,417.280C236.346,414.181,237.691,408.600,238.898,405.789"/>
<path class="path-7" d="M238.898,405.789C240.592,401.163,250.103,404.863,253.973,404.581"/>
<path class="path-8" d="M253.973,404.581C260.668,404.417,276.228,400.499,281.255,405.121C286.417,409.558,283.698,428.631,283.596,435.179C282.550,458.769,287.646,480.780,290.329,503.423C292.042,521.573,291.228,541.003,296.911,557.950C300.394,567.058,309.797,573.575,313.501,581.990C316.554,594.463,322.780,608.994,315.175,618.153C300.578,633.648,295.098,627.259,281.953,634.777C271.381,640.401,253.386,638.732,244.472,632.503C238.333,628.512,229.236,617.651,228.010,610.532C221.552,573.023,225.404,529.091,227.342,491.810C228.037,478.432,240.210,451.282,237.158,437.212C236.245,433.000,235.541,431.258,237.633,427.971C238.767,426.183,236.918,419.423,236.786,417.280C236.346,414.181,237.691,408.600,238.898,405.789C240.592,401.163,250.103,404.863,253.973,404.581Z"/>
</g>
<g id="left_toe">
<path class="path-0" d="M245.159,668.261C206.371,652.142,241.134,586.610,265.827,592.719C299.114,600.954,305.726,620.542,308.906,631.752C312.089,643.047,311.854,654.134,304.570,663.679C292.379,677.168,260.176,674.506,245.159,668.261M313.015,606.160C302.843,595.363,287.217,578.323,269.949,579.742C243.199,581.940,220.762,599.385,216.283,628.510C213.003,645.953,215.292,663.436,226.637,677.086C235.711,687.337,266.006,688.479,279.068,687.761C291.694,686.192,308.798,685.160,316.905,674.088C326.315,661.626,323.482,617.269,313.015,606.160Z"/>
<path class="path-3" d="M265.827,592.719C299.114,600.954,305.726,620.542,308.906,631.752"/>
<path class="path-3" d="M308.906,631.752C312.089,643.047,311.854,654.134,304.570,663.679"/>
<path class="path-3" d="M304.570,663.679C292.379,677.168,260.176,674.506,245.159,668.261"/>
<path class="path-3" d="M245.159,668.261C206.371,652.142,241.134,586.610,265.827,592.719"/>
<path class="path-4" d="M265.827,592.719C299.114,600.954,305.726,620.542,308.906,631.752C312.089,643.047,311.854,654.134,304.570,663.679C292.379,677.168,260.176,674.506,245.159,668.261C206.371,652.142,241.134,586.610,265.827,592.719Z"/>
</g>
<g id="left_sole">
<path class="path-0" d="M250.180,686.134C243.397,684.532,239.894,683.665,239.883,682.404C239.848,678.180,252.654,674.735,260.353,672.962C266.698,671.592,283.586,674.435,293.377,675.797C295.967,676.372,302.072,682.083,302.097,682.294C302.780,688.198,291.506,684.300,288.155,684.634C281.375,685.651,251.391,685.838,250.180,686.134M234.805,669.160C233.377,665.167,245.201,656.887,248.998,655.530C281.698,643.839,295.350,655.054,303.274,660.328C306.218,662.286,313.632,669.081,310.269,672.547C306.271,676.668,292.677,663.741,278.411,662.530C255.360,660.481,236.784,674.694,234.805,669.160M318.424,665.570C315.505,655.746,293.130,639.126,262.636,640.506C251.617,641.004,228.596,652.355,225.659,666.365C224.534,671.793,227.546,688.978,232.408,691.404C243.841,697.111,309.508,694.089,314.354,687.904C317.815,683.487,319.220,668.248,318.424,665.570Z"/>
<path class="path-5" d="M239.883,682.404C239.848,678.180,252.654,674.735,260.353,672.962"/>
<path class="path-5" d="M260.353,672.962C266.698,671.592,283.586,674.435,293.377,675.797"/>
<path class="path-5" d="M293.377,675.797C295.967,676.372,302.072,682.083,302.097,682.294"/>
<path class="path-5" d="M302.097,682.294C302.780,688.198,291.506,684.300,288.155,684.634"/>
<path class="path-5" d="M288.155,684.634C281.375,685.651,251.391,685.838,250.180,686.134"/>
<path class="path-5" d="M250.180,686.134C243.397,684.532,239.894,683.665,239.883,682.404"/>
<path class="path-6" d="M239.883,682.404C239.848,678.180,252.654,674.735,260.353,672.962C266.698,671.592,283.586,674.435,293.377,675.797C295.967,676.372,302.072,682.083,302.097,682.294C302.780,688.198,291.506,684.300,288.155,684.634C281.375,685.651,251.391,685.838,250.180,686.134C243.397,684.532,239.894,683.665,239.883,682.404Z"/>
<path class="path-5" d="M248.998,655.530C281.698,643.839,295.350,655.054,303.274,660.328"/>
<path class="path-5" d="M303.274,660.328C306.218,662.286,313.632,669.081,310.269,672.547"/>
<path class="path-5" d="M310.269,672.547C306.271,676.668,292.677,663.741,278.411,662.530"/>
<path class="path-5" d="M278.411,662.530C255.360,660.481,236.784,674.694,234.805,669.160"/>
<path class="path-5" d="M234.805,669.160C233.377,665.167,245.201,656.887,248.998,655.530"/>
<path class="path-6" d="M248.998,655.530C281.698,643.839,295.350,655.054,303.274,660.328C306.218,662.286,313.632,669.081,310.269,672.547C306.271,676.668,292.677,663.741,278.411,662.530C255.360,660.481,236.784,674.694,234.805,669.160C233.377,665.167,245.201,656.887,248.998,655.530Z"/>
</g>
</g>
<g id="hat_brim">
<path class="path-0" d="M290.425,139.224C294.084,133.235,303.067,116.933,311.052,116.933C316.376,116.933,327.354,126.582,333.009,129.576C338.000,132.571,343.324,135.232,348.979,137.893C352.192,139.562,355.408,141.225,358.627,142.883C372.934,150.203,368.941,156.525,360.623,155.194C341.993,151.865,338.998,153.197,321.033,143.881C318.703,142.883,312.715,139.557,311.717,143.881C310.387,148.872,319.370,153.197,323.029,154.860C329.682,158.521,337.002,162.514,344.987,163.178C347.316,163.512,355.301,162.844,356.631,165.174C358.627,168.501,348.979,177.151,346.983,179.147C343.655,182.142,340.330,185.136,337.002,187.466C332.012,190.791,326.688,193.785,321.033,194.783C310.387,196.115,277.117,180.810,276.119,169.167C275.454,162.513,286.433,145.546,290.425,139.224M323.029,112.609C318.039,108.283,314.379,101.961,307.059,105.289C301.735,107.618,296.081,115.270,292.422,119.262C278.780,135.897,266.471,155.527,267.136,177.151C267.470,190.791,272.127,190.460,283.105,195.781C299.739,204.100,321.033,206.761,338.998,198.445C350.642,193.121,370.938,175.155,376.261,163.178C377.924,159.186,380.918,150.203,378.588,145.546C375.927,139.889,353.636,130.241,346.983,126.582C338.998,122.257,330.016,118.264,323.029,112.609Z"/>
<path class="path-9" d="M311.052,116.933C316.376,116.933,327.354,126.582,333.009,129.576"/>
<path class="path-9" d="M333.009,129.576C338.000,132.571,343.324,135.232,348.979,137.893"/>
<path class="path-9" d="M348.979,137.893C352.192,139.562,355.408,141.225,358.627,142.883"/>
<path class="path-9" d="M358.627,142.883C372.934,150.203,368.941,156.525,360.623,155.194"/>
<path class="path-9" d="M360.623,155.194C341.993,151.865,338.998,153.197,321.033,143.881"/>
<path class="path-9" d="M321.033,143.881C318.703,142.883,312.715,139.557,311.717,143.881"/>
<path class="path-9" d="M311.717,143.881C310.387,148.872,319.370,153.197,323.029,154.860"/>
<path class="path-9" d="M323.029,154.860C329.682,158.521,337.002,162.514,344.987,163.178"/>
<path class="path-9" d="M344.987,163.178C347.316,163.512,355.301,162.844,356.631,165.174"/>
<path class="path-9" d="M356.631,165.174C358.627,168.501,348.979,177.151,346.983,179.147"/>
<path class="path-9" d="M346.983,179.147C343.655,182.142,340.330,185.136,337.002,187.466"/>
<path class="path-9" d="M337.002,187.466C332.012,190.791,326.688,193.785,321.033,194.783"/>
<path class="path-9" d="M321.033,194.783C310.387,196.115,277.117,180.810,276.119,169.167"/>
<path class="path-9" d="M276.119,169.167C275.454,162.513,286.433,145.546,290.425,139.224"/>
<path class="path-9" d="M290.425,139.224C294.084,133.235,303.067,116.933,311.052,116.933"/>
<path class="path-10" d="M311.052,116.933C316.376,116.933,327.354,126.582,333.009,129.576C338.000,132.571,343.324,135.232,348.979,137.893C352.192,139.562,355.408,141.225,358.627,142.883C372.934,150.203,368.941,156.525,360.623,155.194C341.993,151.865,338.998,153.197,321.033,143.881C318.703,142.883,312.715,139.557,311.717,143.881C310.387,148.872,319.370,153.197,323.029,154.860C329.682,158.521,337.002,162.514,344.987,163.178C347.316,163.512,355.301,162.844,356.631,165.174C358.627,168.501,348.979,177.151,346.983,179.147C343.655,182.142,340.330,185.136,337.002,187.466C332.012,190.791,326.688,193.785,321.033,194.783C310.387,196.115,277.117,180.810,276.119,169.167C275.454,162.513,286.433,145.546,290.425,139.224C294.084,133.235,303.067,116.933,311.052,116.933Z"/>
</g>
<g id="hair">
<path class="path-0" d="M183.357,136.483C200.954,124.749,220.906,123.806,241.996,123.120C251.452,122.794,257.886,129.270,265.069,135.626C270.964,141.195,277.299,147.468,283.560,153.313C292.986,162.051,296.930,166.431,300.440,170.614C303.444,173.825,308.105,179.813,311.862,182.674C316.396,186.124,325.422,203.315,327.445,205.266C320.793,207.453,310.356,209.024,305.541,212.830C307.149,218.669,307.424,227.700,307.413,230.409C301.202,230.790,294.008,227.926,282.567,225.752C280.180,232.918,280.142,239.647,275.384,246.902C267.697,244.496,262.345,242.563,252.411,238.043C245.798,243.193,244.261,242.773,233.517,249.212C226.455,244.820,220.838,240.151,213.943,237.253C207.148,240.091,196.403,241.027,192.739,243.925C188.987,236.858,185.547,229.060,182.318,225.662C172.710,227.554,168.576,230.148,161.781,232.559C157.606,227.012,160.654,222.489,156.037,214.349C151.717,213.146,145.049,210.476,139.490,210.322C143.367,205.864,146.319,191.142,152.833,189.327C160.871,187.088,155.875,177.911,160.872,169.755C162.110,167.631,174.016,151.399,175.093,148.739C177.132,144.153,179.361,139.287,183.357,136.483M269.783,123.041C257.623,113.516,232.973,108.192,219.067,111.311C206.306,114.023,193.787,117.926,182.663,125.006C176.433,128.911,169.531,134.686,165.362,140.754C157.036,152.537,144.935,178.372,138.142,190.325C132.704,200.241,127.646,206.923,122.452,212.283C140.007,218.879,145.124,221.586,150.363,222.441C150.613,230.199,157.711,236.027,156.388,244.572C165.209,243.354,170.475,241.177,178.326,239.302C182.258,243.995,184.942,250.348,188.681,256.586C196.418,254.568,204.305,254.940,212.000,249.563C217.496,252.632,226.229,257.403,235.200,262.448C243.544,258.115,245.325,257.880,253.165,252.908C262.619,255.342,272.515,261.315,282.074,260.399C281.484,252.206,287.600,246.647,286.947,241.388C294.168,239.536,316.196,242.966,319.967,242.683C319.803,236.635,316.595,225.026,318.237,217.838C325.064,216.098,330.837,214.510,341.526,209.520C338.121,202.790,331.974,194.414,326.560,189.403C321.990,185.214,318.291,179.689,313.719,175.326C298.212,160.768,292.275,140.745,269.783,123.041Z"/>
<path class="path-11" d="M241.996,123.120C251.452,122.794,257.886,129.270,265.069,135.626"/>
<path class="path-11" d="M265.069,135.626C270.964,141.195,277.299,147.468,283.560,153.313"/>
<path class="path-11" d="M283.560,153.313C292.986,162.051,296.930,166.431,300.440,170.614"/>
<path class="path-11" d="M300.440,170.614C303.444,173.825,308.105,179.813,311.862,182.674"/>
<path class="path-11" d="M311.862,182.674C316.396,186.124,325.422,203.315,327.445,205.266"/>
<path class="path-11" d="M327.445,205.266C320.793,207.453,310.356,209.024,305.541,212.830"/>
<path class="path-11" d="M305.541,212.830C307.149,218.669,307.424,227.700,307.413,230.409"/>
<path class="path-11" d="M307.413,230.409C301.202,230.790,294.008,227.926,282.567,225.752"/>
<path class="path-11" d="M282.567,225.752C280.180,232.918,280.142,239.647,275.384,246.902"/>
<path class="path-11" d="M275.384,246.902C267.697,244.496,262.345,242.563,252.411,238.043"/>
<path class="path-11" d="M252.411,238.043C245.798,243.193,244.261,242.773,233.517,249.212"/>
<path class="path-11" d="M233.517,249.212C226.455,244.820,220.838,240.151,213.943,237.253"/>
<path class="path-11" d="M213.943,237.253C207.148,240.091,196.403,241.027,192.739,243.925"/>
<path class="path-11" d="M192.739,243.925C188.987,236.858,185.547,229.060,182.318,225.662"/>
<path class="path-11" d="M182.318,225.662C172.710,227.554,168.576,230.148,161.781,232.559"/>
<path class="path-11" d="M161.781,232.559C157.606,227.012,160.654,222.489,156.037,214.349"/>
<path class="path-11" d="M156.037,214.349C151.717,213.146,145.049,210.476,139.490,210.322"/>
<path class="path-11" d="M139.490,210.322C143.367,205.864,146.319,191.142,152.833,189.327"/>
<path class="path-11" d="M152.833,189.327C160.871,187.088,155.875,177.911,160.872,169.755"/>
<path class="path-11" d="M160.872,169.755C162.110,167.631,174.016,151.399,175.093,148.739"/>
<path class="path-11" d="M175.093,148.739C177.132,144.153,179.361,139.287,183.357,136.483"/>
<path class="path-11" d="M183.357,136.483C200.954,124.749,220.906,123.806,241.996,123.120"/>
<path class="path-12" d="M241.996,123.120C251.452,122.794,257.886,129.270,265.069,135.626C270.964,141.195,277.299,147.468,283.560,153.313C292.986,162.051,296.930,166.431,300.440,170.614C303.444,173.825,308.105,179.813,311.862,182.674C316.396,186.124,325.422,203.315,327.445,205.266C320.793,207.453,310.356,209.024,305.541,212.830C307.149,218.669,307.424,227.700,307.413,230.409C301.202,230.790,294.008,227.926,282.567,225.752C280.180,232.918,280.142,239.647,275.384,246.902C267.697,244.496,262.345,242.563,252.411,238.043C245.798,243.193,244.261,242.773,233.517,249.212C226.455,244.820,220.838,240.151,213.943,237.253C207.148,240.091,196.403,241.027,192.739,243.925C188.987,236.858,185.547,229.060,182.318,225.662C172.710,227.554,168.576,230.148,161.781,232.559C157.606,227.012,160.654,222.489,156.037,214.349C151.717,213.146,145.049,210.476,139.490,210.322C143.367,205.864,146.319,191.142,152.833,189.327C160.871,187.088,155.875,177.911,160.872,169.755C162.110,167.631,174.016,151.399,175.093,148.739C177.132,144.153,179.361,139.287,183.357,136.483C200.954,124.749,220.906,123.806,241.996,123.120Z"/>
</g>
<g id="clothes">
<path class="path-0" d="M244.558,365.488C239.015,363.928,219.112,367.754,215.994,372.850C214.151,376.076,217.349,377.605,220.582,377.533C224.689,377.441,245.968,374.101,248.649,372.141C252.750,369.069,246.772,366.009,244.558,365.488M191.093,266.179C194.088,253.538,221.037,240.563,234.012,241.561C242.994,242.226,271.274,256.199,275.266,264.517C278.592,271.170,279.590,295.789,279.924,304.107C280.257,319.412,281.331,334.739,282.253,350.019C283.578,362.233,294.151,375.679,288.137,386.391C285.496,389.916,274.592,388.911,269.849,389.906C264.565,391.280,255.050,396.923,250.051,397.459C228.097,400.419,230.737,403.826,210.014,405.318C205.764,405.462,192.010,404.229,189.264,402.358C182.749,396.720,185.749,387.362,187.036,379.166C189.841,365.064,190.496,355.259,191.427,340.038C192.303,323.968,194.088,306.768,194.088,290.134C193.755,284.145,190.429,269.839,191.093,266.179M269.943,247.549C253.640,237.899,237.670,229.915,218.042,235.573C212.718,236.902,186.103,249.877,183.773,253.205C180.115,258.529,183.773,278.821,183.773,286.141C184.107,294.791,184.440,303.773,183.773,312.092C183.442,318.413,182.111,324.069,182.111,330.057C181.777,336.710,181.828,343.892,180.780,350.019C177.583,367.939,167.217,403.859,189.035,414.835C193.820,417.264,200.471,416.781,206.132,416.543C215.986,415.939,226.606,415.271,236.309,412.764C248.576,409.955,259.585,402.595,272.199,400.829C278.248,399.983,297.348,406.565,301.852,401.946C303.901,399.938,304.669,387.292,304.243,384.079C301.744,370.313,293.940,357.819,291.567,344.031C289.864,332.171,289.239,320.410,289.904,308.100C290.237,298.119,291.900,288.471,291.900,278.157C291.567,273.831,292.234,268.510,289.904,264.184C285.912,256.199,277.263,251.873,269.943,247.549Z"/>
<path class="path-13" d="M244.558,365.488C239.015,363.928,219.112,367.754,215.994,372.850"/>
<path class="path-13" d="M215.994,372.850C214.151,376.076,217.349,377.605,220.582,377.533"/>
<path class="path-13" d="M220.582,377.533C224.689,377.441,245.968,374.101,248.649,372.141"/>
<path class="path-13" d="M248.649,372.141C252.750,369.069,246.772,366.009,244.558,365.488"/>
<path class="path-13" d="M191.093,266.179C194.088,253.538,221.037,240.563,234.012,241.561"/>
<path class="path-13" d="M234.012,241.561C242.994,242.226,271.274,256.199,275.266,264.517"/>
<path class="path-13" d="M275.266,264.517C278.592,271.170,279.590,295.789,279.924,304.107"/>
<path class="path-13" d="M279.924,304.107C280.257,319.412,281.331,334.739,282.253,350.019"/>
<path class="path-13" d="M282.253,350.019C283.578,362.233,294.151,375.679,288.137,386.391"/>
<path class="path-13" d="M288.137,386.391C285.496,389.916,274.592,388.911,269.849,389.906"/>
<path class="path-13" d="M269.849,389.906C264.565,391.280,255.050,396.923,250.051,397.459"/>
<path class="path-13" d="M250.051,397.459C228.097,400.419,230.737,403.826,210.014,405.318"/>
<path class="path-13" d="M210.014,405.318C205.764,405.462,192.010,404.229,189.264,402.358"/>
<path class="path-13" d="M189.264,402.358C182.749,396.720,185.749,387.362,187.036,379.166"/>
<path class="path-13" d="M187.036,379.166C189.841,365.064,190.496,355.259,191.427,340.038"/>
<path class="path-13" d="M191.427,340.038C192.303,323.968,194.088,306.768,194.088,290.134"/>
<path class="path-13" d="M194.088,290.134C193.755,284.145,190.429,269.839,191.093,266.179"/>
<path class="path-14" d="M244.558,365.488C239.015,363.928,219.112,367.754,215.994,372.850C214.151,376.076,217.349,377.605,220.582,377.533C224.689,377.441,245.968,374.101,248.649,372.141C252.750,369.069,246.772,366.009,244.558,365.488M191.093,266.179C194.088,253.538,221.037,240.563,234.012,241.561C242.994,242.226,271.274,256.199,275.266,264.517C278.592,271.170,279.590,295.789,279.924,304.107C280.257,319.412,281.331,334.739,282.253,350.019C283.578,362.233,294.151,375.679,288.137,386.391C285.496,389.916,274.592,388.911,269.849,389.906C264.565,391.280,255.050,396.923,250.051,397.459C228.097,400.419,230.737,403.826,210.014,405.318C205.764,405.462,192.010,404.229,189.264,402.358C182.749,396.720,185.749,387.362,187.036,379.166C189.841,365.064,190.496,355.259,191.427,340.038C192.303,323.968,194.088,306.768,194.088,290.134C193.755,284.145,190.429,269.839,191.093,266.179Z"/>
</g>
<g id="neck">
<path class="path-0" d="M229.021,222.597C229.354,219.269,230.353,216.275,234.012,215.942C245.656,213.946,244.657,251.542,234.012,251.542C224.031,251.542,228.356,228.917,229.021,222.597M234.012,206.628C231.351,206.295,228.357,206.959,226.027,208.291C216.711,212.948,218.042,221.599,218.042,230.248C217.708,234.574,218.042,238.567,216.046,242.226C214.383,245.553,209.724,248.879,209.724,252.540C210.057,262.521,237.006,262.521,243.993,262.188C246.653,262.187,255.636,263.185,256.634,259.526C256.634,258.528,249.981,246.883,248.983,242.226C245.989,228.252,255.305,207.626,234.012,206.628Z"/>
<path class="path-15" d="M234.012,215.942C245.656,213.946,244.657,251.542,234.012,251.542"/>
<path class="path-15" d="M234.012,251.542C224.031,251.542,228.356,228.917,229.021,222.597"/>
<path class="path-15" d="M229.021,222.597C229.354,219.269,230.353,216.275,234.012,215.942"/>
<path class="path-16" d="M234.012,215.942C245.656,213.946,244.657,251.542,234.012,251.542C224.031,251.542,228.356,228.917,229.021,222.597C229.354,219.269,230.353,216.275,234.012,215.942Z"/>
</g>
<g id="layer_head">
<g id="right_ear">
<path class="path-0" d="M146.182,194.200C134.911,196.257,120.050,159.311,136.103,163.191C140.869,164.332,143.457,172.802,144.347,176.429C145.983,182.720,153.906,192.830,146.182,194.200M142.181,151.257C138.808,149.353,134.724,148.508,131.219,150.160C121.364,153.009,117.498,165.128,119.119,175.311C121.241,187.769,133.137,202.903,144.535,205.740C147.674,206.539,154.146,208.788,157.238,207.324C163.811,203.697,158.752,193.452,156.995,187.829C155.064,181.142,147.353,155.475,142.181,151.257Z"/>
<path class="path-15" d="M136.103,163.191C140.869,164.332,143.457,172.802,144.347,176.429"/>
<path class="path-15" d="M144.347,176.429C145.983,182.720,153.906,192.830,146.182,194.200"/>
<path class="path-15" d="M146.182,194.200C134.911,196.257,120.050,159.311,136.103,163.191"/>
<path class="path-16" d="M136.103,163.191C140.869,164.332,143.457,172.802,144.347,176.429C145.983,182.720,153.906,192.830,146.182,194.200C134.911,196.257,120.050,159.311,136.103,163.191Z"/>
</g>
<g id="face_Mask">
<g id="face">
<path class="path-0" d="M159.639,105.190C168.126,94.741,200.894,87.556,214.534,85.560C229.839,83.564,245.475,85.893,260.446,90.550C265.770,92.215,273.517,94.092,278.079,97.870C285.621,104.164,289.468,115.566,292.117,124.625C294.198,131.115,298.229,139.570,296.878,145.867C291.034,173.120,285.316,185.298,280.150,193.037C273.504,202.992,261.251,207.252,250.608,212.503C234.792,220.028,218.507,224.427,209.898,224.023C197.419,223.437,170.772,215.271,162.200,206.932C154.510,199.167,154.256,188.317,151.942,178.110C149.731,169.583,146.960,156.539,145.945,147.968C144.800,136.796,152.654,113.711,159.639,105.190M282.096,90.194C268.557,77.887,232.211,75.163,214.577,77.807C206.258,78.797,198.272,79.455,190.618,81.446C184.959,83.108,179.964,85.767,174.636,87.430C162.990,91.754,158.178,90.315,150.348,101.080C144.725,108.615,136.751,138.256,136.910,147.499C137.152,154.471,140.723,170.947,142.186,178.936C143.852,188.339,145.902,201.261,150.965,208.958C155.426,215.529,161.409,220.110,171.548,224.694C183.784,230.225,197.872,233.933,211.647,235.151C219.772,236.373,235.539,231.899,256.796,221.094C268.299,215.065,279.960,208.459,287.547,196.858C295.743,184.326,302.483,166.569,308.126,145.423C313.438,125.516,290.430,97.606,282.096,90.194Z"/>
<path class="path-15" d="M214.534,85.560C229.839,83.564,245.475,85.893,260.446,90.550"/>
<path class="path-15" d="M260.446,90.550C265.770,92.215,273.517,94.092,278.079,97.870"/>
<path class="path-15" d="M278.079,97.870C285.621,104.164,289.468,115.566,292.117,124.625"/>
<path class="path-15" d="M292.117,124.625C294.198,131.115,298.229,139.570,296.878,145.867"/>
<path class="path-15" d="M296.878,145.867C291.034,173.120,285.316,185.298,280.150,193.037"/>
<path class="path-15" d="M280.150,193.037C273.504,202.992,261.251,207.252,250.608,212.503"/>
<path class="path-15" d="M250.608,212.503C234.792,220.028,218.507,224.427,209.898,224.023"/>
<path class="path-15" d="M209.898,224.023C197.419,223.437,170.772,215.271,162.200,206.932"/>
<path class="path-15" d="M162.200,206.932C154.510,199.167,154.256,188.317,151.942,178.110"/>
<path class="path-15" d="M151.942,178.110C149.731,169.583,146.960,156.539,145.945,147.968"/>
<path class="path-15" d="M145.945,147.968C144.800,136.796,152.654,113.711,159.639,105.190"/>
<path class="path-15" d="M159.639,105.190C168.126,94.741,200.894,87.556,214.534,85.560"/>
<path class="path-16" d="M214.534,85.560C229.839,83.564,245.475,85.893,260.446,90.550C265.770,92.215,273.517,94.092,278.079,97.870C285.621,104.164,289.468,115.566,292.117,124.625C294.198,131.115,298.229,139.570,296.878,145.867C291.034,173.120,285.316,185.298,280.150,193.037C273.504,202.992,261.251,207.252,250.608,212.503C234.792,220.028,218.507,224.427,209.898,224.023C197.419,223.437,170.772,215.271,162.200,206.932C154.510,199.167,154.256,188.317,151.942,178.110C149.731,169.583,146.960,156.539,145.945,147.968C144.800,136.796,152.654,113.711,159.639,105.190C168.126,94.741,200.894,87.556,214.534,85.560Z"/>
</g>
</g>
<mask id="mask_target" style="mask-type:alpha;">
<use xlink:href="#face_Mask"/>
</mask>
<g id="mouse">
<path class="path-0" d="M212.391,214.391C217.595,215.495,217.679,220.248,217.205,220.755C216.938,221.041,215.815,220.090,212.855,219.603C207.249,218.681,204.543,219.854,204.346,219.140C204.129,218.357,206.298,213.099,212.391,214.391Z"/>
</g>
<g id="layer_eyes_Mtarget" mask="url(#mask_target)">
<g id="eyes">
<mask style="mask-type:alpha;" id="f3906406-f197-4bf1-91d8-744c09cca836">
<use xlink:href="#cmn_f3906406-f197-4bf1-91d8-744c09cca836"/>
</mask>
<g id="cmn_f3906406-f197-4bf1-91d8-744c09cca836">
<path class="path-0" d="M182.668,175.077C184.981,184.741,178.634,192.423,171.390,191.991C165.634,191.542,162.275,185.659,160.487,180.032C159.260,176.649,154.939,160.674,159.518,163.167C162.373,164.722,181.941,172.037,182.668,175.077M189.989,178.364C190.588,176.801,191.363,174.442,190.843,172.851C190.336,171.299,188.654,169.136,187.003,168.993C182.658,168.519,168.421,160.771,163.013,158.544C158.857,156.901,148.399,150.578,144.945,154.110C140.814,158.213,146.965,161.302,148.987,169.164C152.617,183.277,163.921,199.604,175.003,198.433C186.330,197.236,187.300,185.380,189.989,178.364M233.844,189.275C226.490,189.079,216.522,183.536,216.842,172.079C216.933,168.808,230.347,164.072,236.366,161.075C242.598,157.972,254.457,151.708,257.646,151.815C261.138,152.354,259.594,155.400,259.671,165.054C259.751,175.005,246.845,189.621,233.844,189.275M266.549,171.373C270.335,159.560,270.032,143.271,267.717,142.169C262.534,139.701,248.931,149.101,241.024,152.430C231.243,156.549,215.611,165.380,208.889,167.226C206.763,167.892,204.824,168.375,204.485,169.880C203.849,172.711,209.107,174.832,210.962,177.063C214.011,180.731,215.614,186.956,220.574,189.726C230.961,195.956,238.579,194.655,250.418,190.307C257.978,187.553,264.336,178.280,266.549,171.373Z"/>
<path class="path-17" d="M257.646,151.815C261.138,152.354,259.594,155.400,259.671,165.054"/>
<path class="path-17" d="M259.671,165.054C259.751,175.005,246.845,189.621,233.844,189.275"/>
<path class="path-17" d="M233.844,189.275C226.490,189.079,216.522,183.536,216.842,172.079"/>
<path class="path-17" d="M216.842,172.079C216.933,168.808,230.347,164.072,236.366,161.075"/>
<path class="path-17" d="M236.366,161.075C242.598,157.972,254.457,151.708,257.646,151.815"/>
<path class="path-18" d="M257.646,151.815C261.138,152.354,259.594,155.400,259.671,165.054C259.751,175.005,246.845,189.621,233.844,189.275C226.490,189.079,216.522,183.536,216.842,172.079C216.933,168.808,230.347,164.072,236.366,161.075C242.598,157.972,254.457,151.708,257.646,151.815Z"/>
<path class="path-17" d="M159.518,163.167C162.373,164.722,181.941,172.037,182.668,175.077"/>
<path class="path-17" d="M182.668,175.077C184.981,184.741,178.634,192.423,171.390,191.991"/>
<path class="path-17" d="M171.390,191.991C165.634,191.542,162.275,185.659,160.487,180.032"/>
<path class="path-17" d="M160.487,180.032C159.260,176.649,154.939,160.674,159.518,163.167"/>
<path class="path-18" d="M159.518,163.167C162.373,164.722,181.941,172.037,182.668,175.077C184.981,184.741,178.634,192.423,171.390,191.991C165.634,191.542,162.275,185.659,160.487,180.032C159.260,176.649,154.939,160.674,159.518,163.167Z"/>
</g>
</g>
<g id="pupil">
<path class="path-0" d="M217.705,166.534C220.090,165.970,222.872,169.625,223.543,178.440C223.974,184.105,222.819,186.407,221.263,186.652C219.374,186.949,217.718,184.279,216.434,177.502C215.065,170.269,215.719,167.004,217.705,166.534Z" mask="url(#f3906406-f197-4bf1-91d8-744c09cca836)"/>
<path class="path-0" d="M162.120,167.112C164.245,166.713,165.904,170.110,167.249,178.053C168.232,183.855,168.019,186.448,166.491,186.847C164.952,187.248,163.181,185.165,161.525,179.476C159.218,171.553,159.943,167.520,162.120,167.112Z" mask="url(#f3906406-f197-4bf1-91d8-744c09cca836)"/>
</g>
</g>
<g id="hat">
<path class="path-0" d="M297.488,126.448C299.647,127.494,302.421,130.100,302.833,132.752C304.390,139.199,293.290,139.255,289.878,139.648C283.561,139.741,276.963,139.329,270.929,139.153C265.116,139.509,259.285,139.398,253.462,139.529C240.212,138.798,227.028,137.348,213.782,136.596C200.525,136.365,187.708,135.686,174.047,135.402C172.341,135.413,143.291,138.490,138.069,136.104C127.302,131.300,137.465,122.548,136.864,117.380C136.744,114.331,130.285,113.523,131.870,108.233C133.328,103.633,149.188,99.488,153.994,98.353C165.270,95.629,176.989,92.539,189.016,91.110C204.836,89.319,220.455,90.261,236.474,89.531C253.444,88.851,290.072,94.073,301.760,110.798C308.223,119.866,290.357,111.860,288.385,111.442C282.239,108.676,259.200,99.723,268.465,110.265C273.664,117.499,290.482,122.315,297.488,126.448M182.192,84.437C171.144,85.835,161.003,86.607,150.577,88.862C146.331,89.769,141.353,91.615,137.296,90.670C128.439,88.735,139.629,66.243,143.600,61.075C158.346,42.367,188.501,33.094,213.533,33.659C259.617,34.697,277.489,43.705,291.740,60.094C296.226,64.880,311.077,88.054,302.009,94.024C298.712,95.899,292.823,92.311,289.938,90.920C279.938,86.359,227.315,78.730,182.192,84.437M255.094,29.081C242.244,26.200,236.415,22.050,221.422,22.482C190.411,23.694,151.445,28.869,132.610,57.734C126.678,67.053,125.713,77.562,123.213,87.533C121.313,94.966,116.621,100.492,117.040,108.064C117.637,115.306,121.092,117.028,122.845,122.749C124.892,128.834,122.509,131.443,123.679,135.404C125.879,146.761,136.307,147.397,145.874,147.778C150.573,147.966,167.922,147.669,177.370,147.618C188.628,147.557,203.639,147.361,214.897,147.400C224.862,147.434,238.147,147.814,248.112,147.815C257.327,147.815,269.626,147.947,278.827,147.440C288.405,146.912,309.508,145.428,310.648,144.302C312.576,142.431,316.882,123.899,317.106,120.409C317.342,116.721,315.719,112.927,316.180,107.012C316.902,93.944,317.543,82.016,311.568,69.100C300.685,46.102,276.705,34.312,255.094,29.081Z"/>
<path class="path-19" d="M236.474,89.531C253.444,88.851,290.072,94.073,301.760,110.798"/>
<path class="path-19" d="M301.760,110.798C308.223,119.866,290.357,111.860,288.385,111.442"/>
<path class="path-19" d="M288.385,111.442C282.239,108.676,259.200,99.723,268.465,110.265"/>
<path class="path-19" d="M268.465,110.265C273.664,117.499,290.482,122.315,297.488,126.448"/>
<path class="path-19" d="M297.488,126.448C299.647,127.494,302.421,130.100,302.833,132.752"/>
<path class="path-19" d="M302.833,132.752C304.390,139.199,293.290,139.255,289.878,139.648"/>
<path class="path-19" d="M289.878,139.648C283.561,139.741,276.963,139.329,270.929,139.153"/>
<path class="path-19" d="M270.929,139.153C265.116,139.509,259.285,139.398,253.462,139.529"/>
<path class="path-19" d="M253.462,139.529C240.212,138.798,227.028,137.348,213.782,136.596"/>
<path class="path-19" d="M213.782,136.596C200.525,136.365,187.708,135.686,174.047,135.402"/>
<path class="path-19" d="M174.047,135.402C172.341,135.413,143.291,138.490,138.069,136.104"/>
<path class="path-19" d="M138.069,136.104C127.302,131.300,137.465,122.548,136.864,117.380"/>
<path class="path-19" d="M136.864,117.380C136.744,114.331,130.285,113.523,131.870,108.233"/>
<path class="path-19" d="M131.870,108.233C133.328,103.633,149.188,99.488,153.994,98.353"/>
<path class="path-19" d="M153.994,98.353C165.270,95.629,176.989,92.539,189.016,91.110"/>
<path class="path-19" d="M189.016,91.110C204.836,89.319,220.455,90.261,236.474,89.531"/>
<path class="path-20" d="M236.474,89.531C253.444,88.851,290.072,94.073,301.760,110.798C308.223,119.866,290.357,111.860,288.385,111.442C282.239,108.676,259.200,99.723,268.465,110.265C273.664,117.499,290.482,122.315,297.488,126.448C299.647,127.494,302.421,130.100,302.833,132.752C304.390,139.199,293.290,139.255,289.878,139.648C283.561,139.741,276.963,139.329,270.929,139.153C265.116,139.509,259.285,139.398,253.462,139.529C240.212,138.798,227.028,137.348,213.782,136.596C200.525,136.365,187.708,135.686,174.047,135.402C172.341,135.413,143.291,138.490,138.069,136.104C127.302,131.300,137.465,122.548,136.864,117.380C136.744,114.331,130.285,113.523,131.870,108.233C133.328,103.633,149.188,99.488,153.994,98.353C165.270,95.629,176.989,92.539,189.016,91.110C204.836,89.319,220.455,90.261,236.474,89.531Z"/>
<path class="path-9" d="M213.533,33.659C259.617,34.697,277.489,43.705,291.740,60.094"/>
<path class="path-9" d="M291.740,60.094C296.226,64.880,311.077,88.054,302.009,94.024"/>
<path class="path-9" d="M302.009,94.024C298.712,95.899,292.823,92.311,289.938,90.920"/>
<path class="path-9" d="M289.938,90.920C279.938,86.359,227.315,78.730,182.192,84.437"/>
<path class="path-9" d="M182.192,84.437C171.144,85.835,161.003,86.607,150.577,88.862"/>
<path class="path-9" d="M150.577,88.862C146.331,89.769,141.353,91.615,137.296,90.670"/>
<path class="path-9" d="M137.296,90.670C128.439,88.735,139.629,66.243,143.600,61.075"/>
<path class="path-9" d="M143.600,61.075C158.346,42.367,188.501,33.094,213.533,33.659"/>
<path class="path-10" d="M213.533,33.659C259.617,34.697,277.489,43.705,291.740,60.094C296.226,64.880,311.077,88.054,302.009,94.024C298.712,95.899,292.823,92.311,289.938,90.920C279.938,86.359,227.315,78.730,182.192,84.437C171.144,85.835,161.003,86.607,150.577,88.862C146.331,89.769,141.353,91.615,137.296,90.670C128.439,88.735,139.629,66.243,143.600,61.075C158.346,42.367,188.501,33.094,213.533,33.659Z"/>
</g>
<g id="left_ear">
<path class="path-0" d="M285.079,185.526C283.625,180.692,286.861,154.546,289.096,150.784C294.747,140.993,311.860,149.971,315.373,158.078C319.184,167.394,309.668,182.107,301.958,188.577C294.488,194.654,287.567,193.493,285.079,185.526M328.394,161.292C326.928,146.890,309.550,131.942,296.798,138.547C281.331,146.559,287.362,169.307,285.145,183.554C284.663,187.305,282.141,191.202,283.002,194.695C285.265,204.569,295.556,205.746,304.046,198.052C313.616,189.197,329.378,175.111,328.394,161.292Z"/>
<path class="path-15" d="M289.096,150.784C294.747,140.993,311.860,149.971,315.373,158.078"/>
<path class="path-15" d="M315.373,158.078C319.184,167.394,309.668,182.107,301.958,188.577"/>
<path class="path-15" d="M301.958,188.577C294.488,194.654,287.567,193.493,285.079,185.526"/>
<path class="path-15" d="M285.079,185.526C283.625,180.692,286.861,154.546,289.096,150.784"/>
<path class="path-16" d="M289.096,150.784C294.747,140.993,311.860,149.971,315.373,158.078C319.184,167.394,309.668,182.107,301.958,188.577C294.488,194.654,287.567,193.493,285.079,185.526C283.625,180.692,286.861,154.546,289.096,150.784Z"/>
</g>
<g id="earrings">
<path class="path-0" d="M307.073,206.025C298.306,209.825,296.461,191.092,300.016,191.448C304.997,193.181,311.771,201.969,307.073,206.025M316.459,197.760C309.732,197.994,306.727,188.981,306.220,185.131C313.788,186.851,323.283,192.547,316.459,197.760M326.513,193.863C323.969,185.798,311.972,181.101,304.166,177.893C301.319,176.722,293.699,186.867,293.368,190.087C292.330,194.107,294.442,216.103,308.119,213.372C313.787,211.978,328.560,200.355,326.513,193.863Z"/>
<path class="path-21" d="M306.220,185.131C313.788,186.851,323.283,192.547,316.459,197.760"/>
<path class="path-21" d="M316.459,197.760C309.732,197.994,306.727,188.981,306.220,185.131"/>
<path class="path-22" d="M306.220,185.131C313.788,186.851,323.283,192.547,316.459,197.760C309.732,197.994,306.727,188.981,306.220,185.131Z"/>
<path class="path-21" d="M300.016,191.448C304.997,193.181,311.771,201.969,307.073,206.025"/>
<path class="path-21" d="M307.073,206.025C298.306,209.825,296.461,191.092,300.016,191.448"/>
<path class="path-22" d="M300.016,191.448C304.997,193.181,311.771,201.969,307.073,206.025C298.306,209.825,296.461,191.092,300.016,191.448Z"/>
</g>
</g>
<g id="left_arm">
<path class="path-0" d="M291.923,458.788C296.570,452.446,303.535,459.716,312.272,464.613C314.405,465.787,325.529,463.276,327.167,465.118C330.209,468.213,325.634,474.011,321.510,475.113C311.362,477.337,286.244,466.716,291.923,458.788M279.516,276.423C280.393,273.226,288.864,263.064,293.897,264.184C296.819,264.834,298.222,269.839,299.220,272.502C301.881,280.818,304.543,289.469,306.872,298.119C313.194,320.741,315.957,343.744,322.177,365.988C324.553,375.448,328.088,387.256,331.250,395.931C334.398,404.258,338.382,402.990,340.474,408.573C341.549,411.669,341.140,417.224,343.136,421.881C346.130,429.201,351.785,433.194,354.446,437.851C356.111,440.512,356.475,442.573,353.117,444.173C350.969,446.089,345.108,449.198,342.780,450.298C334.871,451.747,326.629,453.620,318.735,452.120C309.889,450.825,286.053,440.724,281.897,434.637C274.459,423.325,284.754,410.770,286.200,399.924C286.838,396.913,292.137,352.988,291.567,350.019C291.026,343.153,287.387,337.131,285.841,330.057C284.214,320.430,282.539,310.147,281.179,300.115C280.223,291.877,276.733,285.067,279.516,276.423M305.541,254.536C303.213,249.877,295.893,241.561,289.904,242.890C284.914,244.222,284.249,250.210,283.582,254.203C281.920,264.184,279.924,272.502,279.924,282.149C279.590,289.136,280.257,295.458,280.921,302.111C281.586,311.427,279.590,329.392,279.924,340.038C279.924,349.686,282.253,359.667,281.586,367.985C279.590,387.613,271.273,406.246,271.938,425.874C271.939,435.855,274.600,435.855,276.929,443.840C278.592,449.828,277.263,456.150,279.590,461.805C285.579,476.776,302.880,490.416,319.847,487.091C335.483,484.096,336.150,467.129,344.466,458.146C351.786,450.161,366.424,454.154,368.420,445.835C370.416,438.849,360.369,431.451,357.110,425.874C351.044,416.188,357.293,414.373,354.849,406.933C353.082,401.438,347.505,395.630,343.937,388.967C341.550,385.230,338.612,378.716,336.550,373.973C332.735,364.199,329.351,352.763,327.189,342.034C324.976,329.754,324.370,318.753,320.845,306.103C318.031,295.497,310.200,262.852,305.541,254.536Z"/>
<path class="path-1" d="M293.897,264.184C296.819,264.834,298.222,269.839,299.220,272.502"/>
<path class="path-1" d="M299.220,272.502C301.881,280.818,304.543,289.469,306.872,298.119"/>
<path class="path-1" d="M306.872,298.119C313.194,320.741,315.957,343.744,322.177,365.988"/>
<path class="path-1" d="M322.177,365.988C324.553,375.448,328.088,387.256,331.250,395.931"/>
<path class="path-1" d="M331.250,395.931C334.398,404.258,338.382,402.990,340.474,408.573"/>
<path class="path-1" d="M340.474,408.573C341.549,411.669,341.140,417.224,343.136,421.881"/>
<path class="path-1" d="M343.136,421.881C346.130,429.201,351.785,433.194,354.446,437.851"/>
<path class="path-1" d="M354.446,437.851C356.111,440.512,356.475,442.573,353.117,444.173"/>
<path class="path-1" d="M353.117,444.173C350.969,446.089,345.108,449.198,342.780,450.298"/>
<path class="path-1" d="M342.780,450.298C334.871,451.747,326.629,453.620,318.735,452.120"/>
<path class="path-1" d="M318.735,452.120C309.889,450.825,286.053,440.724,281.897,434.637"/>
<path class="path-1" d="M281.897,434.637C274.459,423.325,284.754,410.770,286.200,399.924"/>
<path class="path-1" d="M286.200,399.924C286.838,396.913,292.137,352.988,291.567,350.019"/>
<path class="path-1" d="M291.567,350.019C291.026,343.153,287.387,337.131,285.841,330.057"/>
<path class="path-1" d="M285.841,330.057C284.214,320.430,282.539,310.147,281.179,300.115"/>
<path class="path-1" d="M281.179,300.115C280.223,291.877,276.733,285.067,279.516,276.423"/>
<path class="path-1" d="M279.516,276.423C280.393,273.226,288.864,263.064,293.897,264.184"/>
<path class="path-2" d="M293.897,264.184C296.819,264.834,298.222,269.839,299.220,272.502C301.881,280.818,304.543,289.469,306.872,298.119C313.194,320.741,315.957,343.744,322.177,365.988C324.553,375.448,328.088,387.256,331.250,395.931C334.398,404.258,338.382,402.990,340.474,408.573C341.549,411.669,341.140,417.224,343.136,421.881C346.130,429.201,351.785,433.194,354.446,437.851C356.111,440.512,356.475,442.573,353.117,444.173C350.969,446.089,345.108,449.198,342.780,450.298C334.871,451.747,326.629,453.620,318.735,452.120C309.889,450.825,286.053,440.724,281.897,434.637C274.459,423.325,284.754,410.770,286.200,399.924C286.838,396.913,292.137,352.988,291.567,350.019C291.026,343.153,287.387,337.131,285.841,330.057C284.214,320.430,282.539,310.147,281.179,300.115C280.223,291.877,276.733,285.067,279.516,276.423C280.393,273.226,288.864,263.064,293.897,264.184Z"/>
<path class="path-15" d="M312.272,464.613C314.405,465.787,325.529,463.276,327.167,465.118"/>
<path class="path-15" d="M327.167,465.118C330.209,468.213,325.634,474.011,321.510,475.113"/>
<path class="path-15" d="M321.510,475.113C311.362,477.337,286.244,466.716,291.923,458.788"/>
<path class="path-15" d="M291.923,458.788C296.570,452.446,303.535,459.716,312.272,464.613"/>
<path class="path-16" d="M312.272,464.613C314.405,465.787,325.529,463.276,327.167,465.118C330.209,468.213,325.634,474.011,321.510,475.113C311.362,477.337,286.244,466.716,291.923,458.788C296.570,452.446,303.535,459.716,312.272,464.613Z"/>
</g>
<g id="bone">
<g id="bone1_clothes">
<path class="path-23" d="M235.925,386.448C235.926,386.442,248.938,328.906,248.939,328.901C248.939,328.906,246.966,387.862,246.966,387.868C246.965,387.868,235.926,386.448,235.925,386.448"/>
</g>
<g id="bone2_clothes">
<path class="path-23" d="M232.646,327.858C232.646,327.851,230.907,255.345,230.907,255.338C230.908,255.345,246.317,326.215,246.318,326.222C246.317,326.223,232.648,327.858,232.646,327.858"/>
</g>
<g id="bone3_neck">
<path class="path-23" d="M237.752,253.735C237.751,253.731,232.408,212.375,232.408,212.371C232.408,212.375,231.163,254.057,231.163,254.061C231.163,254.061,237.751,253.735,237.752,253.735"/>
</g>
<g id="bone4_head">
<path class="path-23" d="M230.479,213.323C230.478,213.315,223.845,135.533,223.844,135.525C223.846,135.533,242.772,211.267,242.774,211.275C242.773,211.275,230.480,213.323,230.479,213.323"/>
</g>
<g id="bone5_left_arm">
<path class="path-23" d="M298.215,255.668C298.217,255.677,318.177,345.964,318.179,345.973C318.175,345.964,283.162,260.383,283.159,260.374C283.160,260.374,298.213,255.668,298.215,255.668"/>
</g>
<g id="bone6_left_arm">
<path class="path-23" d="M300.898,349.306C300.899,349.312,309.321,412.490,309.322,412.496C309.322,412.490,311.326,348.785,311.326,348.778C311.325,348.778,300.899,349.306,300.898,349.306"/>
</g>
<g id="bone7_right_arm">
<path class="path-23" d="M169.034,270.088C169.032,270.100,154.919,384.734,154.917,384.745C154.921,384.734,186.944,273.763,186.947,273.752C186.945,273.752,169.035,270.089,169.034,270.088"/>
</g>
<g id="bone8_right_arm">
<path class="path-23" d="M157.400,380.288C157.402,380.294,175.929,436.860,175.931,436.866C175.928,436.860,146.416,385.169,146.413,385.164C146.414,385.164,157.399,380.289,157.400,380.288"/>
</g>
<g id="bone9_left_leg">
<path class="path-23" d="M272.105,385.993C272.105,386.003,274.252,487.646,274.252,487.656C274.250,487.646,253.866,388.045,253.864,388.035C253.866,388.035,272.103,385.993,272.105,385.993"/>
</g>
<g id="bone10_right_leg">
<path class="path-23" d="M209.407,385.449C209.407,385.459,209.480,489.215,209.480,489.225C209.482,489.215,224.870,386.607,224.872,386.596C224.870,386.596,209.409,385.449,209.407,385.449"/>
</g>
<g id="bone11_hair">
<path class="path-23" d="M234.457,156.573C234.459,156.581,247.194,235.747,247.195,235.755C247.192,235.748,220.184,160.249,220.181,160.241C220.183,160.241,234.456,156.573,234.457,156.573"/>
</g>
<g id="bone12_left_leg_S">
<path class="path-23" d="M430.557,215.324C430.557,215.331,427.021,287.589,427.020,287.596C427.022,287.589,442.382,216.894,442.384,216.887C442.382,216.887,430.558,215.324,430.557,215.324"/>
</g>
<g id="bone13_right_leg_S">
<path class="path-23" d="M493.028,211.538C493.022,211.542,436.182,256.295,436.176,256.300C436.182,256.296,499.604,221.491,499.610,221.487C499.609,221.486,493.029,211.539,493.028,211.538"/>
</g>
<g id="bone14_left_arm_S">
<path class="path-23" d="M552.256,209.256C552.249,209.256,479.923,210.878,479.916,210.878C479.923,210.879,551.532,221.162,551.539,221.163C551.539,221.162,552.256,209.257,552.256,209.256"/>
</g>
<g id="bone15_jacket_S">
<path class="path-23" d="M600.363,211.116C600.359,211.122,559.248,270.650,559.244,270.656C559.249,270.651,609.581,218.686,609.586,218.681C609.585,218.680,600.364,211.117,600.363,211.116"/>
</g>
<g id="bone16_pupils_S">
<path class="path-23" d="M440.060,341.844C440.065,341.839,492.066,291.544,492.072,291.539C492.066,291.543,432.508,332.611,432.502,332.615C432.503,332.616,440.059,341.843,440.060,341.844"/>
</g>
<g id="bone17_eyelids_S">
<path class="path-23" d="M502.309,337.358C502.308,337.351,496.345,265.253,496.344,265.246C496.344,265.253,490.380,337.351,490.380,337.358C490.381,337.358,502.308,337.358,502.309,337.358"/>
</g>
<g id="bone18_face_S">
<path class="path-23" d="M556.669,342.422C556.673,342.416,594.419,280.699,594.423,280.693C594.418,280.698,547.045,335.375,547.041,335.380C547.041,335.381,556.669,342.421,556.669,342.422"/>
</g>
</g>
<g id="jacket">
<path class="path-0" d="M202.406,270.837C204.604,275.510,199.512,285.444,198.857,290.134C194.097,308.321,186.770,326.159,188.955,344.391C189.836,350.240,195.704,362.869,190.420,367.274C188.657,368.745,183.438,365.567,182.769,367.069C181.437,370.053,176.283,360.456,175.525,359.200C174.792,357.986,171.677,349.539,171.310,347.127C170.897,342.500,170.862,333.412,171.417,327.579C172.027,321.652,172.042,315.332,174.378,309.192C176.452,302.082,180.753,294.218,182.881,286.236C185.350,281.229,189.396,278.345,188.536,274.494C187.363,270.854,184.981,269.086,188.109,267.174C191.938,265.190,201.461,265.962,202.406,270.837M265.651,271.527C267.019,270.376,279.795,265.306,281.251,264.457C293.806,257.920,301.548,270.162,302.462,278.444C302.868,281.731,302.202,293.315,302.113,295.691C301.589,301.170,301.735,305.273,300.905,309.921C297.290,325.681,301.515,316.048,297.164,329.537C296.378,331.972,294.500,336.997,293.684,339.369C292.787,341.547,290.658,346.266,289.933,348.353C287.368,354.062,285.614,360.878,276.611,362.719C275.699,363.025,267.390,367.945,265.869,368.585C261.830,370.033,256.681,371.629,253.062,368.773C248.598,364.840,248.230,357.084,247.121,350.805C244.540,337.481,246.766,323.759,249.617,310.435C251.553,299.064,257.229,280.272,265.651,271.527M277.771,255.283C274.894,257.055,268.557,257.189,266.739,257.553C263.426,258.033,262.790,255.379,262.443,253.054C261.946,248.642,264.980,242.138,268.226,238.896C270.809,236.316,275.406,234.215,279.411,234.099C282.960,233.870,289.067,236.225,288.756,240.261C288.713,243.261,282.524,252.354,277.771,255.283M204.694,243.723C209.585,253.050,214.659,262.559,209.399,261.205C203.067,259.575,199.790,259.973,189.763,255.866C179.182,251.531,176.593,236.334,182.516,231.557C188.423,226.793,199.008,232.880,204.694,243.723M305.779,347.881C306.704,342.294,308.046,338.629,307.929,332.718C307.787,327.949,307.619,322.416,306.280,317.861C303.640,309.665,302.934,306.271,300.572,296.819C299.115,291.388,298.511,287.020,297.913,281.658C297.451,278.672,291.231,264.170,291.681,261.450C291.745,256.007,298.444,252.690,299.760,247.854C300.910,244.107,302.165,240.099,301.669,236.211C301.322,231.258,296.967,227.872,293.384,225.174C288.192,221.726,283.238,221.852,276.904,222.575C267.169,223.698,261.473,232.249,257.493,238.686C251.970,247.619,253.112,262.828,250.303,272.947C248.677,278.805,245.674,286.733,243.770,292.130C235.958,313.208,222.757,370.503,241.438,383.271C242.938,384.445,254.652,386.488,258.206,385.889C267.766,384.326,272.197,383.100,281.176,380.259C288.098,378.361,296.628,366.370,301.416,358.527C303.220,355.780,305.385,350.255,305.779,347.881M209.480,232.718C203.762,226.431,193.714,215.055,185.432,217.747C181.477,219.175,176.245,222.939,173.603,226.468C170.921,230.051,168.282,235.962,168.505,240.489C168.650,245.950,168.585,252.447,170.539,257.058C172.949,262.745,182.616,266.916,183.671,272.914C184.079,275.675,177.066,287.823,176.026,291.121C174.248,297.355,170.623,303.165,168.870,308.534C167.131,313.858,165.560,321.182,164.406,326.662C162.822,334.182,159.785,343.527,160.035,351.902C159.922,356.591,162.461,367.206,166.187,372.453C168.474,375.673,174.098,379.728,176.609,380.499C178.060,380.944,192.801,384.250,197.449,380.066C206.303,372.096,201.126,356.302,197.622,340.357C194.415,325.847,205.188,313.309,209.165,298.814C210.755,292.990,217.273,273.667,217.672,266.875C218.010,261.141,219.929,257.231,218.211,249.327C217.136,245.004,213.267,236.883,209.480,232.718Z"/>
<path class="path-1" d="M281.251,264.457C293.806,257.920,301.548,270.162,302.462,278.444"/>
<path class="path-1" d="M302.462,278.444C302.868,281.731,302.202,293.315,302.113,295.691"/>
<path class="path-1" d="M302.113,295.691C301.589,301.170,301.735,305.273,300.905,309.921"/>
<path class="path-1" d="M300.905,309.921C297.290,325.681,301.515,316.048,297.164,329.537"/>
<path class="path-1" d="M297.164,329.537C296.378,331.972,294.500,336.997,293.684,339.369"/>
<path class="path-1" d="M293.684,339.369C292.787,341.547,290.658,346.266,289.933,348.353"/>
<path class="path-1" d="M289.933,348.353C287.368,354.062,285.614,360.878,276.611,362.719"/>
<path class="path-1" d="M276.611,362.719C275.699,363.025,267.390,367.945,265.869,368.585"/>
<path class="path-1" d="M265.869,368.585C261.830,370.033,256.681,371.629,253.062,368.773"/>
<path class="path-1" d="M253.062,368.773C248.598,364.840,248.230,357.084,247.121,350.805"/>
<path class="path-1" d="M247.121,350.805C244.540,337.481,246.766,323.759,249.617,310.435"/>
<path class="path-1" d="M249.617,310.435C251.553,299.064,257.229,280.272,265.651,271.527"/>
<path class="path-1" d="M265.651,271.527C267.019,270.376,279.795,265.306,281.251,264.457"/>
<path class="path-2" d="M281.251,264.457C293.806,257.920,301.548,270.162,302.462,278.444C302.868,281.731,302.202,293.315,302.113,295.691C301.589,301.170,301.735,305.273,300.905,309.921C297.290,325.681,301.515,316.048,297.164,329.537C296.378,331.972,294.500,336.997,293.684,339.369C292.787,341.547,290.658,346.266,289.933,348.353C287.368,354.062,285.614,360.878,276.611,362.719C275.699,363.025,267.390,367.945,265.869,368.585C261.830,370.033,256.681,371.629,253.062,368.773C248.598,364.840,248.230,357.084,247.121,350.805C244.540,337.481,246.766,323.759,249.617,310.435C251.553,299.064,257.229,280.272,265.651,271.527C267.019,270.376,279.795,265.306,281.251,264.457Z"/>
<path class="path-1" d="M188.109,267.174C191.938,265.190,201.461,265.962,202.406,270.837"/>
<path class="path-1" d="M202.406,270.837C204.604,275.510,199.512,285.444,198.857,290.134"/>
<path class="path-1" d="M198.857,290.134C194.097,308.321,186.770,326.159,188.955,344.391"/>
<path class="path-1" d="M188.955,344.391C189.836,350.240,195.704,362.869,190.420,367.274"/>
<path class="path-1" d="M190.420,367.274C188.657,368.745,183.438,365.567,182.769,367.069"/>
<path class="path-1" d="M182.769,367.069C181.437,370.053,176.283,360.456,175.525,359.200"/>
<path class="path-1" d="M175.525,359.200C174.792,357.986,171.677,349.539,171.310,347.127"/>
<path class="path-1" d="M171.310,347.127C170.897,342.500,170.862,333.412,171.417,327.579"/>
<path class="path-1" d="M171.417,327.579C172.027,321.652,172.042,315.332,174.378,309.192"/>
<path class="path-1" d="M174.378,309.192C176.452,302.082,180.753,294.218,182.881,286.236"/>
<path class="path-1" d="M182.881,286.236C185.350,281.229,189.396,278.345,188.536,274.494"/>
<path class="path-1" d="M188.536,274.494C187.363,270.854,184.981,269.086,188.109,267.174"/>
<path class="path-2" d="M188.109,267.174C191.938,265.190,201.461,265.962,202.406,270.837C204.604,275.510,199.512,285.444,198.857,290.134C194.097,308.321,186.770,326.159,188.955,344.391C189.836,350.240,195.704,362.869,190.420,367.274C188.657,368.745,183.438,365.567,182.769,367.069C181.437,370.053,176.283,360.456,175.525,359.200C174.792,357.986,171.677,349.539,171.310,347.127C170.897,342.500,170.862,333.412,171.417,327.579C172.027,321.652,172.042,315.332,174.378,309.192C176.452,302.082,180.753,294.218,182.881,286.236C185.350,281.229,189.396,278.345,188.536,274.494C187.363,270.854,184.981,269.086,188.109,267.174Z"/>
<path class="path-1" d="M279.411,234.099C282.960,233.870,289.067,236.225,288.756,240.261"/>
<path class="path-1" d="M288.756,240.261C288.713,243.261,282.524,252.354,277.771,255.283"/>
<path class="path-1" d="M277.771,255.283C274.894,257.055,268.557,257.189,266.739,257.553"/>
<path class="path-1" d="M266.739,257.553C263.426,258.033,262.790,255.379,262.443,253.054"/>
<path class="path-1" d="M262.443,253.054C261.946,248.642,264.980,242.138,268.226,238.896"/>
<path class="path-1" d="M268.226,238.896C270.809,236.316,275.406,234.215,279.411,234.099"/>
<path class="path-2" d="M279.411,234.099C282.960,233.870,289.067,236.225,288.756,240.261C288.713,243.261,282.524,252.354,277.771,255.283C274.894,257.055,268.557,257.189,266.739,257.553C263.426,258.033,262.790,255.379,262.443,253.054C261.946,248.642,264.980,242.138,268.226,238.896C270.809,236.316,275.406,234.215,279.411,234.099Z"/>
<path class="path-1" d="M204.694,243.723C209.585,253.050,214.659,262.559,209.399,261.205"/>
<path class="path-1" d="M209.399,261.205C203.067,259.575,199.790,259.973,189.763,255.866"/>
<path class="path-1" d="M189.763,255.866C179.182,251.531,176.593,236.334,182.516,231.557"/>
<path class="path-1" d="M182.516,231.557C188.423,226.793,199.008,232.880,204.694,243.723"/>
<path class="path-2" d="M204.694,243.723C209.585,253.050,214.659,262.559,209.399,261.205C203.067,259.575,199.790,259.973,189.763,255.866C179.182,251.531,176.593,236.334,182.516,231.557C188.423,226.793,199.008,232.880,204.694,243.723Z"/>
</g>
</g>
<style>
.path-0{fill:#000000;fill-rule:evenodd;stroke:none;}
.path-1{fill:none;stroke:#a60d3f;stroke-width:1;stroke-linecap:butt;stroke-linejoin:round;}
.path-2{fill:#a60d3f;fill-rule:evenodd;stroke:none;}
.path-3{fill:none;stroke:#d88e4b;stroke-width:1;stroke-linecap:butt;stroke-linejoin:round;}
.path-4{fill:#d88e4b;fill-rule:evenodd;stroke:none;}
.path-5{fill:none;stroke:#6e2353;stroke-width:1;stroke-linecap:butt;stroke-linejoin:round;}
.path-6{fill:#6e2353;fill-rule:evenodd;stroke:none;}
.path-7{fill:none;stroke:#392966;stroke-width:1;stroke-linecap:butt;stroke-linejoin:round;}
.path-8{fill:#392966;fill-rule:evenodd;stroke:none;}
.path-9{fill:none;stroke:#cc9bc5;stroke-width:1;stroke-linecap:butt;stroke-linejoin:round;}
.path-10{fill:#cc9bc5;fill-rule:evenodd;stroke:none;}
.path-11{fill:none;stroke:#620527;stroke-width:1;stroke-linecap:butt;stroke-linejoin:round;}
.path-12{fill:#620527;fill-rule:evenodd;stroke:none;}
.path-13{fill:none;stroke:#6a3661;stroke-width:1;stroke-linecap:butt;stroke-linejoin:round;}
.path-14{fill:#6a3661;fill-rule:evenodd;stroke:none;}
.path-15{fill:none;stroke:#f8a087;stroke-width:1;stroke-linecap:butt;stroke-linejoin:round;}
.path-16{fill:#f8a087;fill-rule:evenodd;stroke:none;}
.path-17{fill:none;stroke:#ffffff;stroke-width:1;stroke-linecap:butt;stroke-linejoin:round;}
.path-18{fill:#ffffff;fill-rule:evenodd;stroke:none;}
.path-19{fill:none;stroke:#d89f4a;stroke-width:1;stroke-linecap:butt;stroke-linejoin:round;}
.path-20{fill:#d89f4a;fill-rule:evenodd;stroke:none;}
.path-21{fill:none;stroke:#fafd5b;stroke-width:1;stroke-linecap:butt;stroke-linejoin:round;}
.path-22{fill:#fafd5b;fill-rule:evenodd;stroke:none;}
.path-23{fill:none;stroke:#00ff42;stroke-width:8;stroke-linecap:round;stroke-linejoin:round;}
.path-24{fill:none;stroke:#000000;stroke-width:1;stroke-linecap:butt;stroke-linejoin:round;}
.path-25{fill:none;stroke:#ececec;stroke-width:1;stroke-linecap:butt;stroke-linejoin:round;}
.path-26{fill:#ececec;fill-rule:evenodd;stroke:none;}
</style>
</svg>
