<svg version="1.1" id="Frame_219" xmlns="http://www.w3.org/2000/svg" xmlns:xlink="http://www.w3.org/1999/xlink" width="480px" height="720px">
<g id="main_bone">
<g id="right_arm">
<path class="path-0" d="M174.126,270.172C175.458,267.511,178.075,262.017,181.778,260.525C188.182,257.943,193.652,263.933,194.431,268.509C196.093,276.447,190.936,287.396,188.470,295.289C182.390,314.329,175.637,333.084,171.132,352.015C170.600,355.317,165.808,376.634,165.808,373.973C165.476,380.626,172.130,386.283,174.459,391.939C177.454,399.590,174.791,406.910,172.795,413.897C168.138,428.535,168.471,433.858,167.804,448.165C167.804,450.492,167.473,458.146,163.812,458.146C160.487,458.146,160.153,452.157,159.488,449.828C159.155,447.167,156.825,441.510,157.492,439.182C157.823,435.190,162.483,436.188,157.492,427.870C151.170,417.555,139.526,409.240,136.532,395.931C134.536,385.285,140.191,375.969,143.186,365.988C149.508,344.695,156.494,323.404,163.812,302.111C167.805,291.132,168.802,281.484,174.126,270.172M193.754,262.188C193.755,253.538,190.761,245.885,180.115,249.546C163.481,255.200,158.822,281.484,154.165,296.122C147.512,316.084,141.855,336.046,136.199,356.007C133.870,364.657,130.544,368.982,129.212,373.973C127.549,379.628,127.881,388.280,128.214,393.935C128.214,411.567,133.869,412.234,140.856,425.874C144.517,433.859,140.525,438.849,142.852,445.835C144.517,450.492,148.176,453.820,150.837,457.813C153.166,461.805,153.499,464.135,155.162,467.793C157.158,472.119,163.481,481.767,169.136,479.771C173.793,478.108,173.793,469.790,174.126,465.797C174.459,459.809,178.119,436.853,179.450,429.866C181.778,418.554,187.435,406.245,185.770,393.935C184.440,384.619,176.122,377.965,176.456,367.985C176.787,362.661,180.115,354.011,181.113,348.023C182.776,338.375,182.776,328.061,184.772,318.081C188.099,300.448,194.421,280.487,193.754,262.188Z"/>
<path class="path-1" d="M181.778,260.525C188.182,257.943,193.652,263.933,194.431,268.509"/>
<path class="path-1" d="M194.431,268.509C196.093,276.447,190.936,287.396,188.470,295.289"/>
<path class="path-1" d="M188.470,295.289C182.390,314.329,175.637,333.084,171.132,352.015"/>
<path class="path-1" d="M171.132,352.015C170.600,355.317,165.808,376.634,165.808,373.973"/>
<path class="path-1" d="M165.808,373.973C165.476,380.626,172.130,386.283,174.459,391.939"/>
<path class="path-1" d="M174.459,391.939C177.454,399.590,174.791,406.910,172.795,413.897"/>
<path class="path-1" d="M172.795,413.897C168.138,428.535,168.471,433.858,167.804,448.165"/>
<path class="path-1" d="M167.804,448.165C167.804,450.492,167.473,458.146,163.812,458.146"/>
<path class="path-1" d="M163.812,458.146C160.487,458.146,160.153,452.157,159.488,449.828"/>
<path class="path-1" d="M159.488,449.828C159.155,447.167,156.825,441.510,157.492,439.182"/>
<path class="path-1" d="M157.492,439.182C157.823,435.190,162.483,436.188,157.492,427.870"/>
<path class="path-1" d="M157.492,427.870C151.170,417.555,139.526,409.240,136.532,395.931"/>
<path class="path-1" d="M136.532,395.931C134.536,385.285,140.191,375.969,143.186,365.988"/>
<path class="path-1" d="M143.186,365.988C149.508,344.695,156.494,323.404,163.812,302.111"/>
<path class="path-1" d="M163.812,302.111C167.805,291.132,168.802,281.484,174.126,270.172"/>
<path class="path-1" d="M174.126,270.172C175.458,267.511,178.075,262.017,181.778,260.525"/>
<path class="path-2" d="M181.778,260.525C188.182,257.943,193.652,263.933,194.431,268.509C196.093,276.447,190.936,287.396,188.470,295.289C182.390,314.329,175.637,333.084,171.132,352.015C170.600,355.317,165.808,376.634,165.808,373.973C165.476,380.626,172.130,386.283,174.459,391.939C177.454,399.590,174.791,406.910,172.795,413.897C168.138,428.535,168.471,433.858,167.804,448.165C167.804,450.492,167.473,458.146,163.812,458.146C160.487,458.146,160.153,452.157,159.488,449.828C159.155,447.167,156.825,441.510,157.492,439.182C157.823,435.190,162.483,436.188,157.492,427.870C151.170,417.555,139.526,409.240,136.532,395.931C134.536,385.285,140.191,375.969,143.186,365.988C149.508,344.695,156.494,323.404,163.812,302.111C167.805,291.132,168.802,281.484,174.126,270.172C175.458,267.511,178.075,262.017,181.778,260.525Z"/>
</g>
<g id="layer_left_leg">
<g id="left_heel">
<path class="path-0" d="M255.609,626.328C248.522,614.796,262.518,595.495,273.825,593.211C291.120,589.526,303.834,615.370,301.677,621.572C298.097,630.911,281.858,631.314,273.333,631.404C268.704,631.300,257.861,630.172,255.609,626.328M301.890,592.130C292.155,582.495,269.800,584.273,258.920,590.371C235.585,602.858,230.498,645.130,264.935,643.888C276.579,643.524,302.220,641.169,309.110,633.859C315.115,628.236,313.179,618.910,311.334,611.443C309.451,605.385,306.469,596.795,301.890,592.130Z"/>
<path class="path-3" d="M273.825,593.211C291.120,589.526,303.834,615.370,301.677,621.572"/>
<path class="path-3" d="M301.677,621.572C298.097,630.911,281.858,631.314,273.333,631.404"/>
<path class="path-3" d="M273.333,631.404C268.704,631.300,257.861,630.172,255.609,626.328"/>
<path class="path-3" d="M255.609,626.328C248.522,614.796,262.518,595.495,273.825,593.211"/>
<path class="path-4" d="M273.825,593.211C291.120,589.526,303.834,615.370,301.677,621.572C298.097,630.911,281.858,631.314,273.333,631.404C268.704,631.300,257.861,630.172,255.609,626.328C248.522,614.796,262.518,595.495,273.825,593.211Z"/>
</g>
<g id="left_leg">
<path class="path-0" d="M238.898,405.789C240.604,401.168,250.097,404.776,253.973,404.581C259.792,404.569,272.879,402.577,277.630,406.131C286.415,412.256,288.766,441.836,289.209,452.128C289.666,483.669,291.504,513.237,292.111,543.692C292.086,549.939,292.067,556.388,292.034,562.514C292.216,567.543,290.120,574.197,293.513,577.513C294.918,579.473,299.690,577.549,299.926,579.772C300.285,588.068,292.023,583.635,287.916,587.880C280.342,595.246,266.136,601.928,256.871,599.440C250.525,597.962,239.793,590.692,237.351,584.745C235.058,579.160,233.506,572.386,232.481,566.553C227.674,539.172,243.586,483.406,236.995,451.520C233.170,433.016,241.410,431.531,249.245,419.025C250.569,416.912,238.409,419.171,236.730,417.280C234.468,415.111,237.683,408.599,238.898,405.789M284.909,397.213C278.635,392.464,261.268,394.495,253.973,394.933C249.935,395.160,237.264,392.218,234.294,394.069C216.568,405.118,223.407,444.706,225.465,461.612C225.729,466.430,224.911,489.443,224.605,495.931C224.926,523.256,218.710,546.621,220.455,573.892C220.831,581.298,220.429,588.624,223.051,595.452C230.190,613.652,247.112,616.763,269.526,615.512C281.248,614.866,307.188,609.508,315.873,587.525C319.279,578.894,313.932,567.147,312.643,564.281C310.483,559.475,307.263,554.788,306.066,549.270C301.594,531.624,308.274,512.908,306.980,494.644C305.345,471.271,304.600,412.186,284.909,397.213Z"/>
<path class="path-7" d="M253.973,404.581C259.792,404.569,272.879,402.577,277.630,406.131"/>
<path class="path-7" d="M277.630,406.131C286.415,412.256,288.766,441.836,289.209,452.128"/>
<path class="path-7" d="M289.209,452.128C289.666,483.669,291.504,513.237,292.111,543.692"/>
<path class="path-7" d="M292.111,543.692C292.086,549.939,292.067,556.388,292.034,562.514"/>
<path class="path-7" d="M292.034,562.514C292.216,567.543,290.120,574.197,293.513,577.513"/>
<path class="path-7" d="M293.513,577.513C294.918,579.473,299.690,577.549,299.926,579.772"/>
<path class="path-7" d="M299.926,579.772C300.285,588.068,292.023,583.635,287.916,587.880"/>
<path class="path-7" d="M287.916,587.880C280.342,595.246,266.136,601.928,256.871,599.440"/>
<path class="path-7" d="M256.871,599.440C250.525,597.962,239.793,590.692,237.351,584.745"/>
<path class="path-7" d="M237.351,584.745C235.058,579.160,233.506,572.386,232.481,566.553"/>
<path class="path-7" d="M232.481,566.553C227.674,539.172,243.586,483.406,236.995,451.520"/>
<path class="path-7" d="M236.995,451.520C233.170,433.016,241.410,431.531,249.245,419.025"/>
<path class="path-7" d="M249.245,419.025C250.569,416.912,238.409,419.171,236.730,417.280"/>
<path class="path-7" d="M236.730,417.280C234.468,415.111,237.683,408.599,238.898,405.789"/>
<path class="path-7" d="M238.898,405.789C240.604,401.168,250.097,404.776,253.973,404.581"/>
<path class="path-8" d="M253.973,404.581C259.792,404.569,272.879,402.577,277.630,406.131C286.415,412.256,288.766,441.836,289.209,452.128C289.666,483.669,291.504,513.237,292.111,543.692C292.086,549.939,292.067,556.388,292.034,562.514C292.216,567.543,290.120,574.197,293.513,577.513C294.918,579.473,299.690,577.549,299.926,579.772C300.285,588.068,292.023,583.635,287.916,587.880C280.342,595.246,266.136,601.928,256.871,599.440C250.525,597.962,239.793,590.692,237.351,584.745C235.058,579.160,233.506,572.386,232.481,566.553C227.674,539.172,243.586,483.406,236.995,451.520C233.170,433.016,241.410,431.531,249.245,419.025C250.569,416.912,238.409,419.171,236.730,417.280C234.468,415.111,237.683,408.599,238.898,405.789C240.604,401.168,250.097,404.776,253.973,404.581Z"/>
</g>
<g id="left_toe">
<path class="path-0" d="M252.465,657.369C225.699,652.602,230.892,617.916,251.289,610.988C272.009,604.096,291.044,616.092,296.992,628.898C300.602,635.505,302.290,642.629,298.790,649.491C291.239,661.680,265.107,659.536,252.465,657.369M312.760,623.511C309.487,609.865,298.077,597.211,286.830,593.465C258.914,584.293,234.754,592.313,225.677,617.409C219.934,631.774,223.065,648.000,232.664,660.133C240.279,669.167,266.660,670.424,277.904,669.401C287.809,667.806,300.174,665.114,306.972,656.695C311.916,650.752,314.468,630.872,312.760,623.511Z"/>
<path class="path-3" d="M251.289,610.988C272.009,604.096,291.044,616.092,296.992,628.898"/>
<path class="path-3" d="M296.992,628.898C300.602,635.505,302.290,642.629,298.790,649.491"/>
<path class="path-3" d="M298.790,649.491C291.239,661.680,265.107,659.536,252.465,657.369"/>
<path class="path-3" d="M252.465,657.369C225.699,652.602,230.892,617.916,251.289,610.988"/>
<path class="path-4" d="M251.289,610.988C272.009,604.096,291.044,616.092,296.992,628.898C300.602,635.505,302.290,642.629,298.790,649.491C291.239,661.680,265.107,659.536,252.465,657.369C225.699,652.602,230.892,617.916,251.289,610.988Z"/>
</g>
<g id="left_sole">
<path class="path-0" d="M256.108,672.278C245.142,672.036,242.010,657.876,240.344,663.122C239.288,666.446,248.592,669.511,252.689,670.659C261.725,673.554,276.828,672.163,285.700,667.811C288.638,666.653,298.021,663.739,298.066,663.987C298.785,667.981,287.246,668.708,283.476,669.159C280.146,669.899,256.994,672.103,256.108,672.278M240.692,663.263C246.034,661.359,256.839,665.733,260.921,666.946C277.069,671.743,287.126,662.766,295.243,661.814C295.973,661.736,298.092,659.884,298.960,661.852C301.952,668.631,269.680,674.749,255.653,670.246C248.528,668.691,238.654,663.989,240.692,663.263M303.551,654.512C300.355,651.925,283.043,659.905,266.168,660.269C257.702,660.479,236.696,648.214,230.978,657.833C229.756,659.899,230.507,667.392,232.234,668.989C243.685,679.932,296.415,676.106,302.653,671.148C304.715,669.509,308.040,658.148,303.551,654.512Z"/>
<path class="path-5" d="M240.344,663.122C239.288,666.446,248.592,669.511,252.689,670.659"/>
<path class="path-5" d="M252.689,670.659C261.725,673.554,276.828,672.163,285.700,667.811"/>
<path class="path-5" d="M285.700,667.811C288.638,666.653,298.021,663.739,298.066,663.987"/>
<path class="path-5" d="M298.066,663.987C298.785,667.981,287.246,668.708,283.476,669.159"/>
<path class="path-5" d="M283.476,669.159C280.146,669.899,256.994,672.103,256.108,672.278"/>
<path class="path-5" d="M256.108,672.278C245.142,672.036,242.010,657.876,240.344,663.122"/>
<path class="path-6" d="M240.344,663.122C239.288,666.446,248.592,669.511,252.689,670.659C261.725,673.554,276.828,672.163,285.700,667.811C288.638,666.653,298.021,663.739,298.066,663.987C298.785,667.981,287.246,668.708,283.476,669.159C280.146,669.899,256.994,672.103,256.108,672.278C245.142,672.036,242.010,657.876,240.344,663.122Z"/>
<path class="path-5" d="M260.921,666.946C277.069,671.743,287.126,662.766,295.243,661.814"/>
<path class="path-5" d="M295.243,661.814C295.973,661.736,298.092,659.884,298.960,661.852"/>
<path class="path-5" d="M298.960,661.852C301.952,668.631,269.680,674.749,255.653,670.246"/>
<path class="path-5" d="M255.653,670.246C248.528,668.691,238.654,663.989,240.692,663.263"/>
<path class="path-5" d="M240.692,663.263C246.034,661.359,256.839,665.733,260.921,666.946"/>
<path class="path-6" d="M260.921,666.946C277.069,671.743,287.126,662.766,295.243,661.814C295.973,661.736,298.092,659.884,298.960,661.852C301.952,668.631,269.680,674.749,255.653,670.246C248.528,668.691,238.654,663.989,240.692,663.263C246.034,661.359,256.839,665.733,260.921,666.946Z"/>
</g>
</g>
<g id="layer_right_leg">
<g id="right_heel">
<path class="path-0" d="M183.148,621.996C184.031,605.547,185.158,592.761,205.234,589.869C214.166,588.419,231.174,591.270,236.081,599.910C238.667,604.210,237.859,610.518,238.106,615.111C238.573,622.602,243.165,637.044,232.612,638.811C231.933,638.993,213.222,639.349,207.382,639.512C199.967,640.409,192.243,640.990,186.876,635.856C184.085,632.597,182.862,625.884,183.148,621.996M245.622,598.189C241.698,587.755,227.388,581.812,217.290,583.273C204.095,585.019,190.591,580.677,182.000,593.026C175.283,602.679,174.533,620.423,176.549,631.680C177.306,636.860,180.567,646.309,184.869,649.178C188.024,651.184,192.899,650.608,196.628,650.611C214.773,650.914,247.147,657.033,246.779,629.959C246.609,622.923,247.694,603.758,245.622,598.189Z"/>
<path class="path-3" d="M205.234,589.869C214.166,588.419,231.174,591.270,236.081,599.910"/>
<path class="path-3" d="M236.081,599.910C238.667,604.210,237.859,610.518,238.106,615.111"/>
<path class="path-3" d="M238.106,615.111C238.573,622.602,243.165,637.044,232.612,638.811"/>
<path class="path-3" d="M232.612,638.811C231.933,638.993,213.222,639.349,207.382,639.512"/>
<path class="path-3" d="M207.382,639.512C199.967,640.409,192.243,640.990,186.876,635.856"/>
<path class="path-3" d="M186.876,635.856C184.085,632.597,182.862,625.884,183.148,621.996"/>
<path class="path-3" d="M183.148,621.996C184.031,605.547,185.158,592.761,205.234,589.869"/>
<path class="path-4" d="M205.234,589.869C214.166,588.419,231.174,591.270,236.081,599.910C238.667,604.210,237.859,610.518,238.106,615.111C238.573,622.602,243.165,637.044,232.612,638.811C231.933,638.993,213.222,639.349,207.382,639.512C199.967,640.409,192.243,640.990,186.876,635.856C184.085,632.597,182.862,625.884,183.148,621.996C184.031,605.547,185.158,592.761,205.234,589.869Z"/>
</g>
<g id="right_leg">
<path class="path-0" d="M182.834,404.875C186.525,392.971,202.237,390.118,212.784,393.055C218.619,394.551,228.401,397.405,231.565,402.929C232.870,405.209,233.373,409.442,231.989,411.675C229.488,415.711,214.482,412.615,216.993,416.738C221.409,424.252,231.886,414.974,236.112,418.907C237.974,420.640,238.145,424.124,238.517,427.040C242.499,449.128,235.435,472.645,235.323,494.418C235.217,501.473,233.645,511.877,234.856,518.303C237.271,533.992,235.256,537.291,235.576,546.708C235.475,550.230,233.605,568.085,234.760,572.670C236.096,577.563,239.659,582.248,240.069,587.328C240.757,595.842,227.898,606.682,220.197,608.820C211.317,611.097,184.192,608.916,175.988,604.300C172.893,602.675,169.100,598.810,167.911,595.257C166.576,591.880,165.324,576.086,166.467,572.314C168.712,565.793,171.288,564.503,173.517,556.741C175.820,547.567,177.970,537.618,177.656,527.943C176.676,509.363,177.981,479.350,180.293,465.985C181.397,458.522,179.900,433.350,180.997,426.440C182.941,414.866,180.980,412.614,182.834,404.875M208.062,381.294C202.406,379.297,198.068,373.937,192.092,375.969C190.252,376.770,187.037,379.065,185.732,380.393C169.755,394.167,170.977,407.999,170.934,427.586C170.626,434.595,170.705,441.891,169.986,448.596C169.275,454.170,167.333,458.708,165.929,463.803C165.060,468.001,164.329,472.503,164.043,477.796C163.892,482.902,165.157,488.914,165.178,497.590C164.496,507.407,165.121,516.688,164.593,526.080C164.444,532.613,161.141,547.711,160.216,552.677C157.909,559.642,154.756,567.734,153.069,574.458C151.363,583.410,152.465,592.941,155.856,600.889C157.391,605.084,160.241,610.099,163.399,612.868C165.458,614.674,168.241,615.678,170.711,616.520C179.065,619.320,186.978,620.690,195.867,620.945C201.794,621.161,207.650,619.396,213.787,620.007C214.806,619.953,223.000,622.079,224.639,622.236C227.627,622.350,231.853,619.681,234.589,618.095C238.288,615.674,244.885,615.072,247.780,611.569C250.045,608.825,250.465,604.972,251.594,601.595C257.970,581.594,252.884,570.730,250.476,552.551C249.132,542.406,246.787,521.544,246.939,510.211C246.841,496.487,249.418,483.208,250.238,469.083C250.582,464.674,250.991,459.386,251.780,454.407C252.489,449.369,251.481,445.278,251.298,440.271C250.928,436.408,251.227,424.031,250.646,419.885C250.274,416.185,250.314,411.567,248.983,407.908C245.324,398.592,231.351,388.280,222.034,385.285C217.377,383.621,212.387,383.290,208.062,381.294Z"/>
<path class="path-7" d="M212.784,393.055C218.619,394.551,228.401,397.405,231.565,402.929"/>
<path class="path-7" d="M231.565,402.929C232.870,405.209,233.373,409.442,231.989,411.675"/>
<path class="path-7" d="M231.989,411.675C229.488,415.711,214.482,412.615,216.993,416.738"/>
<path class="path-7" d="M216.993,416.738C221.409,424.252,231.886,414.974,236.112,418.907"/>
<path class="path-7" d="M236.112,418.907C237.974,420.640,238.145,424.124,238.517,427.040"/>
<path class="path-7" d="M238.517,427.040C242.499,449.128,235.435,472.645,235.323,494.418"/>
<path class="path-7" d="M235.323,494.418C235.217,501.473,233.645,511.877,234.856,518.303"/>
<path class="path-7" d="M234.856,518.303C237.271,533.992,235.256,537.291,235.576,546.708"/>
<path class="path-7" d="M235.576,546.708C235.475,550.230,233.605,568.085,234.760,572.670"/>
<path class="path-7" d="M234.760,572.670C236.096,577.563,239.659,582.248,240.069,587.328"/>
<path class="path-7" d="M240.069,587.328C240.757,595.842,227.898,606.682,220.197,608.820"/>
<path class="path-7" d="M220.197,608.820C211.317,611.097,184.192,608.916,175.988,604.300"/>
<path class="path-7" d="M175.988,604.300C172.893,602.675,169.100,598.810,167.911,595.257"/>
<path class="path-7" d="M167.911,595.257C166.576,591.880,165.324,576.086,166.467,572.314"/>
<path class="path-7" d="M166.467,572.314C168.712,565.793,171.288,564.503,173.517,556.741"/>
<path class="path-7" d="M173.517,556.741C175.820,547.567,177.970,537.618,177.656,527.943"/>
<path class="path-7" d="M177.656,527.943C176.676,509.363,177.981,479.350,180.293,465.985"/>
<path class="path-7" d="M180.293,465.985C181.397,458.522,179.900,433.350,180.997,426.440"/>
<path class="path-7" d="M180.997,426.440C182.941,414.866,180.980,412.614,182.834,404.875"/>
<path class="path-7" d="M182.834,404.875C186.525,392.971,202.237,390.118,212.784,393.055"/>
<path class="path-8" d="M212.784,393.055C218.619,394.551,228.401,397.405,231.565,402.929C232.870,405.209,233.373,409.442,231.989,411.675C229.488,415.711,214.482,412.615,216.993,416.738C221.409,424.252,231.886,414.974,236.112,418.907C237.974,420.640,238.145,424.124,238.517,427.040C242.499,449.128,235.435,472.645,235.323,494.418C235.217,501.473,233.645,511.877,234.856,518.303C237.271,533.992,235.256,537.291,235.576,546.708C235.475,550.230,233.605,568.085,234.760,572.670C236.096,577.563,239.659,582.248,240.069,587.328C240.757,595.842,227.898,606.682,220.197,608.820C211.317,611.097,184.192,608.916,175.988,604.300C172.893,602.675,169.100,598.810,167.911,595.257C166.576,591.880,165.324,576.086,166.467,572.314C168.712,565.793,171.288,564.503,173.517,556.741C175.820,547.567,177.970,537.618,177.656,527.943C176.676,509.363,177.981,479.350,180.293,465.985C181.397,458.522,179.900,433.350,180.997,426.440C182.941,414.866,180.980,412.614,182.834,404.875C186.525,392.971,202.237,390.118,212.784,393.055Z"/>
</g>
<g id="right_toe">
<path class="path-0" d="M165.528,643.625C166.931,630.111,172.265,612.686,188.723,610.348C192.506,609.609,197.831,611.408,202.028,612.273C223.518,616.646,231.842,621.513,232.490,643.625C232.545,649.710,233.455,657.263,228.901,662.140C224.390,666.886,203.138,664.229,196.647,664.512C185.177,665.261,175.296,670.747,167.366,660.744C162.592,654.593,164.786,650.870,165.528,643.625M241.154,620.416C234.064,606.239,201.116,597.763,186.273,600.495C164.114,604.702,157.004,622.139,155.541,640.954C154.969,647.659,154.072,655.023,157.383,660.975C158.572,663.112,161.096,665.979,162.852,667.692C176.014,681.646,185.717,679.892,203.604,679.797C213.064,679.905,228.813,679.149,236.427,672.833C242.164,667.606,242.724,661.886,242.993,654.578C242.999,647.537,244.024,625.631,241.154,620.416Z"/>
<path class="path-3" d="M188.723,610.348C192.506,609.609,197.831,611.408,202.028,612.273"/>
<path class="path-3" d="M202.028,612.273C223.518,616.646,231.842,621.513,232.490,643.625"/>
<path class="path-3" d="M232.490,643.625C232.545,649.710,233.455,657.263,228.901,662.140"/>
<path class="path-3" d="M228.901,662.140C224.390,666.886,203.138,664.229,196.647,664.512"/>
<path class="path-3" d="M196.647,664.512C185.177,665.261,175.296,670.747,167.366,660.744"/>
<path class="path-3" d="M167.366,660.744C162.592,654.593,164.786,650.870,165.528,643.625"/>
<path class="path-3" d="M165.528,643.625C166.931,630.111,172.265,612.686,188.723,610.348"/>
<path class="path-4" d="M188.723,610.348C192.506,609.609,197.831,611.408,202.028,612.273C223.518,616.646,231.842,621.513,232.490,643.625C232.545,649.710,233.455,657.263,228.901,662.140C224.390,666.886,203.138,664.229,196.647,664.512C185.177,665.261,175.296,670.747,167.366,660.744C162.592,654.593,164.786,650.870,165.528,643.625C166.931,630.111,172.265,612.686,188.723,610.348Z"/>
</g>
<g id="right_sole">
<path class="path-0" d="M184.265,676.396C185.817,676.703,201.293,676.428,203.057,676.427C204.463,676.447,212.904,676.603,214.103,676.529C214.854,676.499,222.351,676.155,222.924,676.611C222.375,676.172,214.358,677.622,213.887,677.638C212.947,677.701,186.559,677.541,186.247,677.652C185.060,677.681,173.804,676.737,173.043,675.777C174.262,675.253,182.484,676.041,184.265,676.396M224.248,670.836C224.303,671.118,222.676,672.869,222.250,672.873C221.406,672.886,207.983,674.381,206.871,674.135C205.607,674.084,196.678,674.630,195.538,674.618C193.300,674.594,175.260,674.161,173.337,673.042C173.092,672.836,172.277,671.539,172.318,671.363C172.386,671.081,179.522,671.180,180.621,671.135C182.344,671.064,196.431,670.729,198.199,670.707C200.115,670.682,215.295,670.855,217.257,670.692C217.564,670.674,224.111,670.147,224.248,670.836M230.006,665.517C218.626,662.279,209.693,666.833,199.292,667.173C191.790,667.453,177.395,665.849,168.254,667.628C166.779,667.915,163.960,667.703,163.508,669.226C162.947,671.131,166.601,675.239,168.928,676.775C171.812,678.678,177.827,678.719,180.212,679.084C192.305,681.384,207.707,680.242,220.129,679.700C229.286,679.306,231.570,675.654,232.516,671.257C232.912,669.420,233.579,666.484,230.006,665.517Z"/>
<path class="path-24" d="M184.265,676.396C185.817,676.703,201.293,676.428,203.057,676.427"/>
<path class="path-24" d="M203.057,676.427C204.463,676.447,212.904,676.603,214.103,676.529"/>
<path class="path-24" d="M214.103,676.529C214.854,676.499,222.351,676.155,222.924,676.611"/>
<path class="path-24" d="M222.924,676.611C222.375,676.172,214.358,677.622,213.887,677.638"/>
<path class="path-24" d="M213.887,677.638C212.947,677.701,186.559,677.541,186.247,677.652"/>
<path class="path-24" d="M186.247,677.652C185.060,677.681,173.804,676.737,173.043,675.777"/>
<path class="path-24" d="M173.043,675.777C174.262,675.253,182.484,676.041,184.265,676.396"/>
<path class="path-0" d="M184.265,676.396C185.817,676.703,201.293,676.428,203.057,676.427C204.463,676.447,212.904,676.603,214.103,676.529C214.854,676.499,222.351,676.155,222.924,676.611C222.375,676.172,214.358,677.622,213.887,677.638C212.947,677.701,186.559,677.541,186.247,677.652C185.060,677.681,173.804,676.737,173.043,675.777C174.262,675.253,182.484,676.041,184.265,676.396Z"/>
<path class="path-5" d="M180.621,671.135C182.344,671.064,196.431,670.729,198.199,670.707"/>
<path class="path-5" d="M198.199,670.707C200.115,670.682,215.295,670.855,217.257,670.692"/>
<path class="path-5" d="M217.257,670.692C217.564,670.674,224.111,670.147,224.248,670.836"/>
<path class="path-5" d="M224.248,670.836C224.303,671.118,222.676,672.869,222.250,672.873"/>
<path class="path-5" d="M222.250,672.873C221.406,672.886,207.983,674.381,206.871,674.135"/>
<path class="path-5" d="M206.871,674.135C205.607,674.084,196.678,674.630,195.538,674.618"/>
<path class="path-5" d="M195.538,674.618C193.300,674.594,175.260,674.161,173.337,673.042"/>
<path class="path-5" d="M173.337,673.042C173.092,672.836,172.277,671.539,172.318,671.363"/>
<path class="path-5" d="M172.318,671.363C172.386,671.081,179.522,671.180,180.621,671.135"/>
<path class="path-6" d="M180.621,671.135C182.344,671.064,196.431,670.729,198.199,670.707C200.115,670.682,215.295,670.855,217.257,670.692C217.564,670.674,224.111,670.147,224.248,670.836C224.303,671.118,222.676,672.869,222.250,672.873C221.406,672.886,207.983,674.381,206.871,674.135C205.607,674.084,196.678,674.630,195.538,674.618C193.300,674.594,175.260,674.161,173.337,673.042C173.092,672.836,172.277,671.539,172.318,671.363C172.386,671.081,179.522,671.180,180.621,671.135Z"/>
</g>
</g>
<g id="hat_brim">
<path class="path-0" d="M290.414,137.635C294.073,131.647,303.056,115.344,311.041,115.344C316.365,115.344,327.344,124.993,332.999,127.988C337.989,130.982,343.313,133.643,348.969,136.304C352.181,137.974,355.397,139.637,358.616,141.294C372.923,148.615,368.930,154.937,360.612,153.605C341.982,150.277,338.987,151.609,321.022,142.293C318.693,141.295,312.704,137.969,311.706,142.293C310.376,147.283,319.359,151.609,323.018,153.272C329.672,156.933,336.991,160.925,344.976,161.590C347.306,161.923,355.290,161.256,356.620,163.585C358.616,166.913,348.969,175.563,346.972,177.559C343.645,180.553,340.319,183.548,336.991,185.877C332.001,189.203,326.677,192.197,321.022,193.195C310.376,194.526,277.106,179.222,276.108,167.578C275.443,160.925,286.422,143.957,290.414,137.635M323.018,111.020C318.028,106.694,314.369,100.373,307.048,103.700C301.725,106.030,296.070,113.682,292.411,117.674C278.769,134.308,266.461,153.938,267.125,175.563C267.459,189.202,272.116,188.871,283.095,194.193C299.729,202.511,321.022,205.172,338.988,196.856C350.631,191.533,370.927,173.567,376.250,161.590C377.913,157.597,380.907,148.615,378.577,143.958C375.916,138.301,353.625,128.653,346.972,124.994C338.988,120.668,330.005,116.675,323.018,111.020Z"/>
<path class="path-9" d="M311.041,115.344C316.365,115.344,327.344,124.993,332.999,127.988"/>
<path class="path-9" d="M332.999,127.988C337.989,130.982,343.313,133.643,348.969,136.304"/>
<path class="path-9" d="M348.969,136.304C352.181,137.974,355.397,139.637,358.616,141.294"/>
<path class="path-9" d="M358.616,141.294C372.923,148.615,368.930,154.937,360.612,153.605"/>
<path class="path-9" d="M360.612,153.605C341.982,150.277,338.987,151.609,321.022,142.293"/>
<path class="path-9" d="M321.022,142.293C318.693,141.295,312.704,137.969,311.706,142.293"/>
<path class="path-9" d="M311.706,142.293C310.376,147.283,319.359,151.609,323.018,153.272"/>
<path class="path-9" d="M323.018,153.272C329.672,156.933,336.991,160.925,344.976,161.590"/>
<path class="path-9" d="M344.976,161.590C347.306,161.923,355.290,161.256,356.620,163.585"/>
<path class="path-9" d="M356.620,163.585C358.616,166.913,348.969,175.563,346.972,177.559"/>
<path class="path-9" d="M346.972,177.559C343.645,180.553,340.319,183.548,336.991,185.877"/>
<path class="path-9" d="M336.991,185.877C332.001,189.203,326.677,192.197,321.022,193.195"/>
<path class="path-9" d="M321.022,193.195C310.376,194.526,277.106,179.222,276.108,167.578"/>
<path class="path-9" d="M276.108,167.578C275.443,160.925,286.422,143.957,290.414,137.635"/>
<path class="path-9" d="M290.414,137.635C294.073,131.647,303.056,115.344,311.041,115.344"/>
<path class="path-10" d="M311.041,115.344C316.365,115.344,327.344,124.993,332.999,127.988C337.989,130.982,343.313,133.643,348.969,136.304C352.181,137.974,355.397,139.637,358.616,141.294C372.923,148.615,368.930,154.937,360.612,153.605C341.982,150.277,338.987,151.609,321.022,142.293C318.693,141.295,312.704,137.969,311.706,142.293C310.376,147.283,319.359,151.609,323.018,153.272C329.672,156.933,336.991,160.925,344.976,161.590C347.306,161.923,355.290,161.256,356.620,163.585C358.616,166.913,348.969,175.563,346.972,177.559C343.645,180.553,340.319,183.548,336.991,185.877C332.001,189.203,326.677,192.197,321.022,193.195C310.376,194.526,277.106,179.222,276.108,167.578C275.443,160.925,286.422,143.957,290.414,137.635C294.073,131.647,303.056,115.344,311.041,115.344Z"/>
</g>
<g id="hair">
<path class="path-0" d="M183.357,136.483C200.954,124.749,220.906,123.806,241.996,123.120C251.452,122.794,257.886,129.270,265.069,135.626C270.964,141.195,277.299,147.468,283.560,153.313C292.986,162.051,296.930,166.431,300.440,170.614C303.444,173.825,308.105,179.813,311.862,182.674C316.396,186.124,325.422,203.315,327.445,205.266C320.793,207.453,310.356,209.024,305.541,212.830C307.149,218.669,307.424,227.700,307.413,230.409C301.202,230.790,294.008,227.926,282.567,225.752C280.180,232.918,280.142,239.647,275.384,246.902C267.697,244.496,262.345,242.563,252.411,238.043C245.798,243.193,244.261,242.773,233.517,249.212C226.455,244.820,220.838,240.151,213.943,237.253C207.148,240.091,196.403,241.027,192.739,243.925C188.987,236.858,185.547,229.060,182.318,225.662C172.710,227.554,168.576,230.148,161.781,232.559C157.606,227.012,160.654,222.489,156.037,214.349C151.717,213.146,145.049,210.476,139.490,210.322C143.367,205.864,146.319,191.142,152.833,189.327C160.871,187.088,155.875,177.911,160.872,169.755C162.110,167.631,174.016,151.399,175.093,148.739C177.132,144.153,179.361,139.287,183.357,136.483M269.783,123.041C257.623,113.516,232.973,108.192,219.067,111.311C206.306,114.023,193.787,117.926,182.663,125.006C176.433,128.911,169.531,134.686,165.362,140.754C157.036,152.537,144.935,178.372,138.142,190.325C132.704,200.241,127.646,206.923,122.452,212.283C140.007,218.879,145.124,221.586,150.363,222.441C150.613,230.199,157.711,236.027,156.388,244.572C165.209,243.354,170.475,241.177,178.326,239.302C182.258,243.995,184.942,250.348,188.681,256.586C196.418,254.568,204.305,254.940,212.000,249.563C217.496,252.632,226.229,257.403,235.200,262.448C243.544,258.115,245.325,257.880,253.165,252.908C262.619,255.342,272.515,261.315,282.074,260.399C281.484,252.206,287.600,246.647,286.947,241.388C294.168,239.536,316.196,242.966,319.967,242.683C319.803,236.635,316.595,225.026,318.237,217.838C325.064,216.098,330.837,214.510,341.526,209.520C338.121,202.790,331.974,194.414,326.560,189.403C321.990,185.214,318.291,179.689,313.719,175.326C298.212,160.768,292.275,140.745,269.783,123.041Z"/>
<path class="path-11" d="M241.996,123.120C251.452,122.794,257.886,129.270,265.069,135.626"/>
<path class="path-11" d="M265.069,135.626C270.964,141.195,277.299,147.468,283.560,153.313"/>
<path class="path-11" d="M283.560,153.313C292.986,162.051,296.930,166.431,300.440,170.614"/>
<path class="path-11" d="M300.440,170.614C303.444,173.825,308.105,179.813,311.862,182.674"/>
<path class="path-11" d="M311.862,182.674C316.396,186.124,325.422,203.315,327.445,205.266"/>
<path class="path-11" d="M327.445,205.266C320.793,207.453,310.356,209.024,305.541,212.830"/>
<path class="path-11" d="M305.541,212.830C307.149,218.669,307.424,227.700,307.413,230.409"/>
<path class="path-11" d="M307.413,230.409C301.202,230.790,294.008,227.926,282.567,225.752"/>
<path class="path-11" d="M282.567,225.752C280.180,232.918,280.142,239.647,275.384,246.902"/>
<path class="path-11" d="M275.384,246.902C267.697,244.496,262.345,242.563,252.411,238.043"/>
<path class="path-11" d="M252.411,238.043C245.798,243.193,244.261,242.773,233.517,249.212"/>
<path class="path-11" d="M233.517,249.212C226.455,244.820,220.838,240.151,213.943,237.253"/>
<path class="path-11" d="M213.943,237.253C207.148,240.091,196.403,241.027,192.739,243.925"/>
<path class="path-11" d="M192.739,243.925C188.987,236.858,185.547,229.060,182.318,225.662"/>
<path class="path-11" d="M182.318,225.662C172.710,227.554,168.576,230.148,161.781,232.559"/>
<path class="path-11" d="M161.781,232.559C157.606,227.012,160.654,222.489,156.037,214.349"/>
<path class="path-11" d="M156.037,214.349C151.717,213.146,145.049,210.476,139.490,210.322"/>
<path class="path-11" d="M139.490,210.322C143.367,205.864,146.319,191.142,152.833,189.327"/>
<path class="path-11" d="M152.833,189.327C160.871,187.088,155.875,177.911,160.872,169.755"/>
<path class="path-11" d="M160.872,169.755C162.110,167.631,174.016,151.399,175.093,148.739"/>
<path class="path-11" d="M175.093,148.739C177.132,144.153,179.361,139.287,183.357,136.483"/>
<path class="path-11" d="M183.357,136.483C200.954,124.749,220.906,123.806,241.996,123.120"/>
<path class="path-12" d="M241.996,123.120C251.452,122.794,257.886,129.270,265.069,135.626C270.964,141.195,277.299,147.468,283.560,153.313C292.986,162.051,296.930,166.431,300.440,170.614C303.444,173.825,308.105,179.813,311.862,182.674C316.396,186.124,325.422,203.315,327.445,205.266C320.793,207.453,310.356,209.024,305.541,212.830C307.149,218.669,307.424,227.700,307.413,230.409C301.202,230.790,294.008,227.926,282.567,225.752C280.180,232.918,280.142,239.647,275.384,246.902C267.697,244.496,262.345,242.563,252.411,238.043C245.798,243.193,244.261,242.773,233.517,249.212C226.455,244.820,220.838,240.151,213.943,237.253C207.148,240.091,196.403,241.027,192.739,243.925C188.987,236.858,185.547,229.060,182.318,225.662C172.710,227.554,168.576,230.148,161.781,232.559C157.606,227.012,160.654,222.489,156.037,214.349C151.717,213.146,145.049,210.476,139.490,210.322C143.367,205.864,146.319,191.142,152.833,189.327C160.871,187.088,155.875,177.911,160.872,169.755C162.110,167.631,174.016,151.399,175.093,148.739C177.132,144.153,179.361,139.287,183.357,136.483C200.954,124.749,220.906,123.806,241.996,123.120Z"/>
</g>
<g id="clothes">
<path class="path-0" d="M244.666,364.946C238.958,363.406,218.885,368.641,215.731,373.903C213.974,377.043,216.988,378.596,220.118,378.493C224.335,378.354,245.918,373.641,248.649,371.599C252.687,368.505,246.870,365.439,244.666,364.946M191.093,266.179C194.088,253.538,221.037,240.563,234.012,241.561C242.994,242.226,271.274,256.199,275.266,264.517C278.592,271.170,279.590,295.789,279.924,304.107C280.257,319.412,281.488,334.730,282.253,350.019C283.487,362.592,294.377,376.897,287.561,387.533C284.382,391.296,272.161,388.455,266.819,389.364C262.011,390.418,253.584,395.796,249.113,396.531C227.917,400.611,231.148,405.750,211.020,407.904C206.669,408.203,192.606,406.363,189.807,404.418C183.010,398.430,186.167,388.659,187.470,380.033C190.249,365.622,190.582,355.581,191.427,340.038C192.194,323.963,194.088,306.768,194.088,290.134C193.755,284.145,190.429,269.839,191.093,266.179M269.943,247.549C253.640,237.899,237.670,229.915,218.042,235.573C212.718,236.902,186.103,249.877,183.773,253.205C180.115,258.529,183.773,278.821,183.773,286.141C184.107,294.791,184.440,303.774,183.773,312.092C183.442,318.413,182.111,324.069,182.111,330.057C181.777,336.710,181.783,343.885,180.780,350.019C177.585,368.727,167.643,406.322,190.554,417.438C195.251,419.738,201.720,419.361,207.232,418.990C217.023,418.143,227.571,416.904,237.068,413.848C249.254,410.297,259.602,401.124,272.311,399.247C277.971,398.412,295.396,405.601,299.999,401.684C301.978,400.074,304.399,389.108,304.262,386.227C302.865,371.617,293.946,358.514,291.567,344.031C289.955,332.158,289.239,320.410,289.904,308.100C290.237,298.119,291.900,288.471,291.900,278.157C291.567,273.831,292.234,268.510,289.904,264.184C285.912,256.199,277.263,251.873,269.943,247.549Z"/>
<path class="path-13" d="M244.666,364.946C238.958,363.406,218.885,368.641,215.731,373.903"/>
<path class="path-13" d="M215.731,373.903C213.974,377.043,216.988,378.596,220.118,378.493"/>
<path class="path-13" d="M220.118,378.493C224.335,378.354,245.918,373.641,248.649,371.599"/>
<path class="path-13" d="M248.649,371.599C252.687,368.505,246.870,365.439,244.666,364.946"/>
<path class="path-13" d="M191.093,266.179C194.088,253.538,221.037,240.563,234.012,241.561"/>
<path class="path-13" d="M234.012,241.561C242.994,242.226,271.274,256.199,275.266,264.517"/>
<path class="path-13" d="M275.266,264.517C278.592,271.170,279.590,295.789,279.924,304.107"/>
<path class="path-13" d="M279.924,304.107C280.257,319.412,281.488,334.730,282.253,350.019"/>
<path class="path-13" d="M282.253,350.019C283.487,362.592,294.377,376.897,287.561,387.533"/>
<path class="path-13" d="M287.561,387.533C284.382,391.296,272.161,388.455,266.819,389.364"/>
<path class="path-13" d="M266.819,389.364C262.011,390.418,253.584,395.796,249.113,396.531"/>
<path class="path-13" d="M249.113,396.531C227.917,400.611,231.148,405.750,211.020,407.904"/>
<path class="path-13" d="M211.020,407.904C206.669,408.203,192.606,406.363,189.807,404.418"/>
<path class="path-13" d="M189.807,404.418C183.010,398.430,186.167,388.659,187.470,380.033"/>
<path class="path-13" d="M187.470,380.033C190.249,365.622,190.582,355.581,191.427,340.038"/>
<path class="path-13" d="M191.427,340.038C192.194,323.963,194.088,306.768,194.088,290.134"/>
<path class="path-13" d="M194.088,290.134C193.755,284.145,190.429,269.839,191.093,266.179"/>
<path class="path-14" d="M244.666,364.946C238.958,363.406,218.885,368.641,215.731,373.903C213.974,377.043,216.988,378.596,220.118,378.493C224.335,378.354,245.918,373.641,248.649,371.599C252.687,368.505,246.870,365.439,244.666,364.946M191.093,266.179C194.088,253.538,221.037,240.563,234.012,241.561C242.994,242.226,271.274,256.199,275.266,264.517C278.592,271.170,279.590,295.789,279.924,304.107C280.257,319.412,281.488,334.730,282.253,350.019C283.487,362.592,294.377,376.897,287.561,387.533C284.382,391.296,272.161,388.455,266.819,389.364C262.011,390.418,253.584,395.796,249.113,396.531C227.917,400.611,231.148,405.750,211.020,407.904C206.669,408.203,192.606,406.363,189.807,404.418C183.010,398.430,186.167,388.659,187.470,380.033C190.249,365.622,190.582,355.581,191.427,340.038C192.194,323.963,194.088,306.768,194.088,290.134C193.755,284.145,190.429,269.839,191.093,266.179Z"/>
</g>
<g id="neck">
<path class="path-0" d="M229.021,222.597C229.354,219.269,230.353,216.275,234.012,215.942C245.656,213.946,244.657,251.542,234.012,251.542C224.031,251.542,228.356,228.917,229.021,222.597M234.012,206.628C231.351,206.295,228.357,206.959,226.027,208.291C216.711,212.948,218.042,221.599,218.042,230.248C217.708,234.574,218.042,238.567,216.046,242.226C214.383,245.553,209.724,248.879,209.724,252.540C210.057,262.521,237.006,262.521,243.993,262.188C246.653,262.187,255.636,263.185,256.634,259.526C256.634,258.528,249.981,246.883,248.983,242.226C245.989,228.252,255.305,207.626,234.012,206.628Z"/>
<path class="path-15" d="M234.012,215.942C245.656,213.946,244.657,251.542,234.012,251.542"/>
<path class="path-15" d="M234.012,251.542C224.031,251.542,228.356,228.917,229.021,222.597"/>
<path class="path-15" d="M229.021,222.597C229.354,219.269,230.353,216.275,234.012,215.942"/>
<path class="path-16" d="M234.012,215.942C245.656,213.946,244.657,251.542,234.012,251.542C224.031,251.542,228.356,228.917,229.021,222.597C229.354,219.269,230.353,216.275,234.012,215.942Z"/>
</g>
<g id="layer_head">
<g id="right_ear">
<path class="path-0" d="M147.192,193.244C139.449,194.390,124.811,161.514,135.143,163.954C140.798,165.271,143.785,175.241,145.272,179.408C146.802,183.315,153.262,192.393,147.192,193.244M140.642,151.474C137.717,149.813,134.146,148.598,131.167,150.160C122.190,153.173,121.856,165.531,123.802,174.848C126.406,186.673,135.334,202.276,146.080,205.620C148.838,206.494,154.528,208.828,157.337,207.626C163.667,204.444,158.945,194.521,157.246,189.228C155.173,182.254,146.036,155.897,140.642,151.474Z"/>
<path class="path-15" d="M135.143,163.954C140.798,165.271,143.785,175.241,145.272,179.408"/>
<path class="path-15" d="M145.272,179.408C146.802,183.315,153.262,192.393,147.192,193.244"/>
<path class="path-15" d="M147.192,193.244C139.449,194.390,124.811,161.514,135.143,163.954"/>
<path class="path-16" d="M135.143,163.954C140.798,165.271,143.785,175.241,145.272,179.408C146.802,183.315,153.262,192.393,147.192,193.244C139.449,194.390,124.811,161.514,135.143,163.954Z"/>
</g>
<g id="face_Mask">
<g id="face">
<path class="path-0" d="M153.255,105.615C161.742,95.167,194.510,87.982,208.150,85.986C223.455,83.989,239.091,86.319,254.062,90.976C259.386,92.640,267.248,94.383,271.694,98.296C278.778,104.575,281.516,116.001,283.649,124.843C285.266,130.857,288.267,138.585,287.322,144.394C282.754,172.503,275.945,185.372,270.513,193.307C262.748,204.650,248.380,209.220,235.745,214.334C217.379,221.463,200.317,223.927,188.814,222.214C179.541,220.836,159.894,213.970,153.808,207.376C147.000,199.719,147.998,189.375,146.117,179.744C144.081,170.793,140.655,157.321,139.561,148.394C138.371,137.226,146.270,114.137,153.255,105.615M275.712,90.620C262.224,78.257,225.827,75.589,208.193,78.232C199.874,79.222,191.888,79.881,184.234,81.872C178.575,83.534,173.579,86.192,168.252,87.855C156.606,92.180,151.794,90.741,143.964,101.506C138.341,109.041,130.412,138.681,130.526,147.924C130.740,155.113,134.595,172.078,135.705,180.377C136.872,189.490,137.134,202.220,141.574,209.891C145.315,216.143,150.862,220.356,160.002,224.898C170.902,230.316,183.429,234.710,195.902,235.953C204.418,237.222,219.311,233.443,240.558,223.783C254.073,217.434,267.980,210.595,277.143,197.555C286.300,184.524,296.962,167.213,300.377,143.409C303.342,122.738,283.636,97.726,275.712,90.620Z"/>
<path class="path-15" d="M208.150,85.986C223.455,83.989,239.091,86.319,254.062,90.976"/>
<path class="path-15" d="M254.062,90.976C259.386,92.640,267.248,94.383,271.694,98.296"/>
<path class="path-15" d="M271.694,98.296C278.778,104.575,281.516,116.001,283.649,124.843"/>
<path class="path-15" d="M283.649,124.843C285.266,130.857,288.267,138.585,287.322,144.394"/>
<path class="path-15" d="M287.322,144.394C282.754,172.503,275.945,185.372,270.513,193.307"/>
<path class="path-15" d="M270.513,193.307C262.748,204.650,248.380,209.220,235.745,214.334"/>
<path class="path-15" d="M235.745,214.334C217.379,221.463,200.317,223.927,188.814,222.214"/>
<path class="path-15" d="M188.814,222.214C179.541,220.836,159.894,213.970,153.808,207.376"/>
<path class="path-15" d="M153.808,207.376C147.000,199.719,147.998,189.375,146.117,179.744"/>
<path class="path-15" d="M146.117,179.744C144.081,170.793,140.655,157.321,139.561,148.394"/>
<path class="path-15" d="M139.561,148.394C138.371,137.226,146.270,114.137,153.255,105.615"/>
<path class="path-15" d="M153.255,105.615C161.742,95.167,194.510,87.982,208.150,85.986"/>
<path class="path-16" d="M208.150,85.986C223.455,83.989,239.091,86.319,254.062,90.976C259.386,92.640,267.248,94.383,271.694,98.296C278.778,104.575,281.516,116.001,283.649,124.843C285.266,130.857,288.267,138.585,287.322,144.394C282.754,172.503,275.945,185.372,270.513,193.307C262.748,204.650,248.380,209.220,235.745,214.334C217.379,221.463,200.317,223.927,188.814,222.214C179.541,220.836,159.894,213.970,153.808,207.376C147.000,199.719,147.998,189.375,146.117,179.744C144.081,170.793,140.655,157.321,139.561,148.394C138.371,137.226,146.270,114.137,153.255,105.615C161.742,95.167,194.510,87.982,208.150,85.986Z"/>
</g>
</g>
<mask id="mask_target" style="mask-type:alpha;">
<use xlink:href="#face_Mask"/>
</mask>
<g id="mouse">
<path class="path-0" d="M196.905,214.492C202.109,215.596,202.193,220.349,201.719,220.856C201.452,221.142,200.329,220.191,197.369,219.704C191.763,218.782,189.058,219.955,188.860,219.241C188.643,218.458,190.813,213.200,196.905,214.492Z"/>
</g>
<g id="layer_eyes_Mtarget" mask="url(#mask_target)">
<g id="eyes">
<mask style="mask-type:alpha;" id="f3906406-f197-4bf1-91d8-744c09cca836">
<use xlink:href="#cmn_f3906406-f197-4bf1-91d8-744c09cca836"/>
</mask>
<g id="cmn_f3906406-f197-4bf1-91d8-744c09cca836">
<path class="path-0" d="M158.116,192.074C158.305,191.116,152.611,188.246,153.484,188.359C152.710,188.274,144.194,188.371,143.651,190.674C143.503,191.300,145.980,193.533,145.168,193.284C143.891,192.894,157.948,192.928,158.116,192.074M164.490,194.622C164.497,194.048,164.361,188.171,162.237,187.276C161.107,186.801,159.394,187.926,158.396,188.668C155.112,191.002,132.850,188.219,134.897,183.233C135.431,181.909,141.025,180.766,142.395,181.382C151.020,185.318,132.294,199.519,143.363,206.743C143.964,207.135,153.779,193.083,152.296,194.798C151.154,196.119,164.468,196.548,164.490,194.622M200.605,193.044C198.266,193.209,196.229,194.407,192.898,192.905C190.146,191.665,211.559,191.054,213.466,190.771C214.661,190.594,226.985,189.495,227.594,189.030C227.721,188.933,229.977,188.719,230.163,188.660C229.720,188.801,204.620,192.763,200.605,193.044M237.463,191.049C237.805,190.740,238.361,184.604,237.920,184.194C234.595,181.100,222.081,184.370,215.302,184.697C209.986,184.953,201.036,186.670,197.607,185.989C193.709,185.359,190.640,184.243,188.497,185.939C186.865,187.231,185.948,190.672,186.660,192.627C187.320,194.437,189.705,195.679,191.905,196.330C196.840,197.790,218.035,195.212,221.661,194.909C222.365,194.848,235.442,192.875,237.463,191.049Z"/>
<path class="path-24" d="M227.594,189.030C227.721,188.933,229.977,188.719,230.163,188.660"/>
<path class="path-24" d="M230.163,188.660C229.720,188.801,204.620,192.763,200.605,193.044"/>
<path class="path-24" d="M200.605,193.044C198.266,193.209,196.229,194.407,192.898,192.905"/>
<path class="path-24" d="M192.898,192.905C190.146,191.665,211.559,191.054,213.466,190.771"/>
<path class="path-24" d="M213.466,190.771C214.661,190.594,226.985,189.495,227.594,189.030"/>
<path class="path-0" d="M227.594,189.030C227.721,188.933,229.977,188.719,230.163,188.660C229.720,188.801,204.620,192.763,200.605,193.044C198.266,193.209,196.229,194.407,192.898,192.905C190.146,191.665,211.559,191.054,213.466,190.771C214.661,190.594,226.985,189.495,227.594,189.030Z"/>
<path class="path-24" d="M145.168,193.284C143.891,192.894,157.948,192.928,158.116,192.074"/>
<path class="path-24" d="M158.116,192.074C158.305,191.116,152.611,188.246,153.484,188.359"/>
<path class="path-24" d="M153.484,188.359C152.710,188.274,144.194,188.371,143.651,190.674"/>
<path class="path-24" d="M143.651,190.674C143.503,191.300,145.980,193.533,145.168,193.284"/>
<path class="path-0" d="M145.168,193.284C143.891,192.894,157.948,192.928,158.116,192.074C158.305,191.116,152.611,188.246,153.484,188.359C152.710,188.274,144.194,188.371,143.651,190.674C143.503,191.300,145.980,193.533,145.168,193.284Z"/>
</g>
</g>
<g id="pupil">
<path class="path-0" d="M192.387,175.020C194.764,174.455,197.579,178.074,198.262,186.859C198.706,192.573,197.515,194.896,195.945,195.137C194.055,195.428,192.400,192.764,191.117,185.987C189.747,178.755,190.402,175.491,192.387,175.020Z" mask="url(#f3906406-f197-4bf1-91d8-744c09cca836)"/>
<path class="path-0" d="M154.482,175.555C156.845,175.004,159.241,178.862,160.198,187.851C160.729,192.840,160.111,194.921,158.804,195.246C157.261,195.631,155.475,193.571,153.830,187.876C151.547,179.973,152.333,176.056,154.482,175.555Z" mask="url(#f3906406-f197-4bf1-91d8-744c09cca836)"/>
</g>
</g>
<g id="hat">
<path class="path-0" d="M290.462,131.079C292.685,131.984,295.334,134.725,295.832,137.362C297.659,143.975,286.425,144.862,282.901,145.312C276.969,145.472,270.776,144.732,265.127,144.241C258.441,144.266,251.789,143.306,245.107,143.061C226.073,140.873,207.070,138.618,188.002,136.791C176.353,136.136,165.546,134.772,153.116,134.212C151.517,134.158,133.973,135.784,130.589,134.569C117.266,129.920,128.903,118.424,127.986,112.264C127.819,109.927,123.095,109.350,124.147,105.241C124.973,102.214,134.518,97.962,137.589,97.024C147.567,93.922,158.332,91.745,169.239,91.027C182.084,90.212,194.028,91.646,206.913,92.249C229.337,93.349,271.021,98.062,294.673,115.413C303.252,121.655,283.910,116.885,281.991,116.805C269.306,115.134,219.039,100.179,244.753,114.261C255.941,120.996,279.565,125.957,290.462,131.079M177.655,81.630C165.871,81.538,155.106,81.241,144.100,83.468C139.945,84.299,134.879,85.444,131.235,85.831C123.560,86.690,135.470,65.502,139.063,61.270C154.551,43.476,183.539,32.850,208.304,34.084C255.842,36.454,273.908,48.115,287.309,66.097C291.604,71.432,304.456,96.361,294.824,102.338C291.567,104.076,285.787,100.949,283.030,99.493C273.301,94.617,207.284,81.863,177.655,81.630M267.971,36.545C251.363,29.727,236.700,22.996,213.765,23.448C183.255,24.182,147.946,31.898,128.834,59.070C122.938,67.658,120.970,77.229,117.799,86.389C115.676,92.429,111.193,96.621,111.026,102.948C111.030,110.477,115.149,112.354,116.230,118.458C117.609,125.175,113.946,127.532,114.558,131.899C115.082,143.936,126.329,146.127,136.257,147.049C140.768,147.469,157.497,147.019,166.599,147.120C177.096,147.237,191.096,147.395,201.586,147.825C212.532,148.274,227.091,149.549,238.033,150.088C248.212,150.589,261.792,151.525,271.981,151.329C280.749,151.161,300.045,150.168,301.135,149.189C302.828,147.698,307.726,132.522,308.137,129.613C308.715,125.513,306.910,121.140,308.067,114.568C309.795,103.254,311.705,93.285,308.523,81.305C302.639,59.897,284.212,43.348,267.971,36.545Z"/>
<path class="path-19" d="M206.913,92.249C229.337,93.349,271.021,98.062,294.673,115.413"/>
<path class="path-19" d="M294.673,115.413C303.252,121.655,283.910,116.885,281.991,116.805"/>
<path class="path-19" d="M281.991,116.805C269.306,115.134,219.039,100.179,244.753,114.261"/>
<path class="path-19" d="M244.753,114.261C255.941,120.996,279.565,125.957,290.462,131.079"/>
<path class="path-19" d="M290.462,131.079C292.685,131.984,295.334,134.725,295.832,137.362"/>
<path class="path-19" d="M295.832,137.362C297.659,143.975,286.425,144.862,282.901,145.312"/>
<path class="path-19" d="M282.901,145.312C276.969,145.472,270.776,144.732,265.127,144.241"/>
<path class="path-19" d="M265.127,144.241C258.441,144.266,251.789,143.306,245.107,143.061"/>
<path class="path-19" d="M245.107,143.061C226.073,140.873,207.070,138.618,188.002,136.791"/>
<path class="path-19" d="M188.002,136.791C176.353,136.136,165.546,134.772,153.116,134.212"/>
<path class="path-19" d="M153.116,134.212C151.517,134.158,133.973,135.784,130.589,134.569"/>
<path class="path-19" d="M130.589,134.569C117.266,129.920,128.903,118.424,127.986,112.264"/>
<path class="path-19" d="M127.986,112.264C127.819,109.927,123.095,109.350,124.147,105.241"/>
<path class="path-19" d="M124.147,105.241C124.973,102.214,134.518,97.962,137.589,97.024"/>
<path class="path-19" d="M137.589,97.024C147.567,93.922,158.332,91.745,169.239,91.027"/>
<path class="path-19" d="M169.239,91.027C182.084,90.212,194.028,91.646,206.913,92.249"/>
<path class="path-20" d="M206.913,92.249C229.337,93.349,271.021,98.062,294.673,115.413C303.252,121.655,283.910,116.885,281.991,116.805C269.306,115.134,219.039,100.179,244.753,114.261C255.941,120.996,279.565,125.957,290.462,131.079C292.685,131.984,295.334,134.725,295.832,137.362C297.659,143.975,286.425,144.862,282.901,145.312C276.969,145.472,270.776,144.732,265.127,144.241C258.441,144.266,251.789,143.306,245.107,143.061C226.073,140.873,207.070,138.618,188.002,136.791C176.353,136.136,165.546,134.772,153.116,134.212C151.517,134.158,133.973,135.784,130.589,134.569C117.266,129.920,128.903,118.424,127.986,112.264C127.819,109.927,123.095,109.350,124.147,105.241C124.973,102.214,134.518,97.962,137.589,97.024C147.567,93.922,158.332,91.745,169.239,91.027C182.084,90.212,194.028,91.646,206.913,92.249Z"/>
<path class="path-9" d="M208.304,34.084C255.842,36.454,273.908,48.115,287.309,66.097"/>
<path class="path-9" d="M287.309,66.097C291.604,71.432,304.456,96.361,294.824,102.338"/>
<path class="path-9" d="M294.824,102.338C291.567,104.076,285.787,100.949,283.030,99.493"/>
<path class="path-9" d="M283.030,99.493C273.301,94.617,207.284,81.863,177.655,81.630"/>
<path class="path-9" d="M177.655,81.630C165.871,81.538,155.106,81.241,144.100,83.468"/>
<path class="path-9" d="M144.100,83.468C139.945,84.299,134.879,85.444,131.235,85.831"/>
<path class="path-9" d="M131.235,85.831C123.560,86.690,135.470,65.502,139.063,61.270"/>
<path class="path-9" d="M139.063,61.270C154.551,43.476,183.539,32.850,208.304,34.084"/>
<path class="path-10" d="M208.304,34.084C255.842,36.454,273.908,48.115,287.309,66.097C291.604,71.432,304.456,96.361,294.824,102.338C291.567,104.076,285.787,100.949,283.030,99.493C273.301,94.617,207.284,81.863,177.655,81.630C165.871,81.538,155.106,81.241,144.100,83.468C139.945,84.299,134.879,85.444,131.235,85.831C123.560,86.690,135.470,65.502,139.063,61.270C154.551,43.476,183.539,32.850,208.304,34.084Z"/>
</g>
<g id="left_ear">
<path class="path-0" d="M263.559,182.900C262.735,178.305,263.451,159.119,265.995,155.072C272.465,144.114,291.437,147.718,296.669,156.174C302.513,166.068,292.380,185.239,282.809,191.598C272.833,198.010,265.604,192.975,263.559,182.900M311.673,159.262C308.939,145.347,293.053,132.498,279.191,139.275C262.767,147.304,267.021,171.136,266.006,186.227C265.868,189.614,264.708,193.360,265.794,196.396C269.717,207.954,282.104,208.884,291.369,198.651C300.064,188.847,313.943,173.000,311.673,159.262Z"/>
<path class="path-15" d="M265.995,155.072C272.465,144.114,291.437,147.718,296.669,156.174"/>
<path class="path-15" d="M296.669,156.174C302.513,166.068,292.380,185.239,282.809,191.598"/>
<path class="path-15" d="M282.809,191.598C272.833,198.010,265.604,192.975,263.559,182.900"/>
<path class="path-15" d="M263.559,182.900C262.735,178.305,263.451,159.119,265.995,155.072"/>
<path class="path-16" d="M265.995,155.072C272.465,144.114,291.437,147.718,296.669,156.174C302.513,166.068,292.380,185.239,282.809,191.598C272.833,198.010,265.604,192.975,263.559,182.900C262.735,178.305,263.451,159.119,265.995,155.072Z"/>
</g>
<g id="earrings">
<path class="path-0" d="M288.772,206.923C279.783,211.368,278.287,192.987,281.680,193.235C286.465,194.755,296.533,204.599,288.772,206.923M298.596,198.524C292.032,199.171,288.693,190.297,288.042,186.539C295.538,187.924,305.085,193.135,298.596,198.524M309.438,195.334C306.801,187.146,294.368,182.741,286.460,179.364C283.437,178.073,274.882,188.608,274.558,192.050C273.532,196.173,276.803,218.279,290.729,215.159C296.457,213.608,311.556,201.912,309.438,195.334Z"/>
<path class="path-21" d="M288.042,186.539C295.538,187.924,305.085,193.135,298.596,198.524"/>
<path class="path-21" d="M298.596,198.524C292.032,199.171,288.693,190.297,288.042,186.539"/>
<path class="path-22" d="M288.042,186.539C295.538,187.924,305.085,193.135,298.596,198.524C292.032,199.171,288.693,190.297,288.042,186.539Z"/>
<path class="path-21" d="M281.680,193.235C286.465,194.755,296.533,204.599,288.772,206.923"/>
<path class="path-21" d="M288.772,206.923C279.783,211.368,278.287,192.987,281.680,193.235"/>
<path class="path-22" d="M281.680,193.235C286.465,194.755,296.533,204.599,288.772,206.923C279.783,211.368,278.287,192.987,281.680,193.235Z"/>
</g>
</g>
<g id="jacket">
<path class="path-0" d="M202.406,270.837C204.582,275.530,199.367,285.441,198.679,290.134C193.776,308.375,186.303,326.292,188.515,344.608C189.415,350.546,195.615,363.516,190.125,367.832C188.205,369.341,182.656,365.550,182.013,367.151C180.784,370.212,175.178,360.502,174.423,359.309C173.728,358.213,170.381,349.761,169.994,347.362C169.544,342.770,169.444,333.725,170.145,327.948C170.911,322.012,171.468,315.730,174.026,309.646C176.387,302.479,180.848,294.526,183.131,286.424C185.730,281.335,190.014,278.380,189.037,274.460C187.769,270.834,185.125,269.154,188.209,267.140C191.955,265.057,201.494,265.987,202.406,270.837M266.002,271.078C267.312,270.024,279.536,265.712,280.835,264.803C293.665,256.711,304.569,266.403,305.994,275.217C306.607,278.716,304.787,291.148,304.226,293.635C302.505,299.618,300.150,303.652,298.299,308.661C290.447,327.101,297.959,315.935,292.353,332.689C291.476,335.310,289.605,340.808,289.062,343.462C288.381,346.008,287.674,351.772,287.100,354.176C284.988,360.500,282.228,368.315,272.467,369.060C271.908,369.172,266.513,371.051,265.562,371.277C260.685,372.160,254.766,372.679,250.946,368.966C246.836,364.514,246.066,357.023,245.090,350.603C242.866,337.438,245.945,324.047,249.059,311.008C251.330,299.338,257.129,279.903,266.002,271.078M277.898,255.283C275.014,256.999,268.688,256.864,266.879,257.205C263.816,257.612,263.206,255.239,262.867,253.096C262.337,248.724,265.395,242.251,268.650,239.070C271.230,236.548,275.826,234.618,279.785,234.525C283.188,234.324,289.061,236.475,288.798,240.345C288.783,243.327,282.666,252.447,277.898,255.283M205.272,244.226C210.126,253.857,215.035,263.654,209.830,261.928C203.416,259.800,199.980,260.360,189.763,255.866C179.276,251.253,176.977,236.054,182.993,231.370C189.082,226.630,199.620,233.012,205.272,244.226M301.736,356.430C301.613,349.929,302.825,345.661,302.724,338.874C302.603,333.927,303.030,328.266,302.486,323.372C301.283,314.621,302.638,310.998,302.399,301.005C302.072,293.094,303.848,286.829,302.620,279.332C302.012,276.403,291.061,264.541,291.159,261.813C290.513,256.276,298.249,252.966,299.671,248.036C300.879,244.298,302.190,240.295,301.741,236.392C301.462,231.529,297.258,228.122,293.758,225.453C288.675,222.031,283.782,222.243,277.552,222.923C267.778,224.003,261.964,232.469,257.910,238.891C252.312,247.757,253.392,262.974,250.430,273.032C248.707,278.883,245.517,286.770,243.459,292.130C235.036,313.081,220.195,369.355,237.950,383.547C239.556,385.011,252.624,388.469,256.729,388.248C266.736,387.761,271.608,388.144,281.070,385.832C288.012,384.419,297.482,372.636,300.873,364.225C301.778,362.176,301.767,358.070,301.736,356.430M209.600,232.676C203.760,226.361,193.440,214.818,185.124,217.742C181.278,219.235,176.310,223.149,173.801,226.674C171.185,230.352,168.659,236.337,168.906,240.902C169.078,246.332,168.883,252.797,170.794,257.397C173.220,263.240,183.177,267.539,184.174,273.697C184.556,276.550,177.013,288.912,175.849,292.283C173.958,298.291,170.307,303.842,168.383,308.980C166.433,314.186,164.310,321.307,162.978,326.704C161.182,333.986,158.163,343.106,158.392,351.280C158.266,356.184,161.011,367.344,165.096,372.695C167.629,376.015,173.885,379.854,176.564,380.587C178.053,380.994,193.047,384.383,197.755,380.107C206.920,371.783,201.129,354.904,197.432,338.837C194.089,324.310,205.083,311.721,209.320,297.250C210.871,291.955,217.522,273.389,217.970,266.910C218.366,261.193,220.292,257.286,218.563,249.404C217.467,245.034,213.466,236.856,209.600,232.676Z"/>
<path class="path-1" d="M280.835,264.803C293.665,256.711,304.569,266.403,305.994,275.217"/>
<path class="path-1" d="M305.994,275.217C306.607,278.716,304.787,291.148,304.226,293.635"/>
<path class="path-1" d="M304.226,293.635C302.505,299.618,300.150,303.652,298.299,308.661"/>
<path class="path-1" d="M298.299,308.661C290.447,327.101,297.959,315.935,292.353,332.689"/>
<path class="path-1" d="M292.353,332.689C291.476,335.310,289.605,340.808,289.062,343.462"/>
<path class="path-1" d="M289.062,343.462C288.381,346.008,287.674,351.772,287.100,354.176"/>
<path class="path-1" d="M287.100,354.176C284.988,360.500,282.228,368.315,272.467,369.060"/>
<path class="path-1" d="M272.467,369.060C271.908,369.172,266.513,371.051,265.562,371.277"/>
<path class="path-1" d="M265.562,371.277C260.685,372.160,254.766,372.679,250.946,368.966"/>
<path class="path-1" d="M250.946,368.966C246.836,364.514,246.066,357.023,245.090,350.603"/>
<path class="path-1" d="M245.090,350.603C242.866,337.438,245.945,324.047,249.059,311.008"/>
<path class="path-1" d="M249.059,311.008C251.330,299.338,257.129,279.903,266.002,271.078"/>
<path class="path-1" d="M266.002,271.078C267.312,270.024,279.536,265.712,280.835,264.803"/>
<path class="path-2" d="M280.835,264.803C293.665,256.711,304.569,266.403,305.994,275.217C306.607,278.716,304.787,291.148,304.226,293.635C302.505,299.618,300.150,303.652,298.299,308.661C290.447,327.101,297.959,315.935,292.353,332.689C291.476,335.310,289.605,340.808,289.062,343.462C288.381,346.008,287.674,351.772,287.100,354.176C284.988,360.500,282.228,368.315,272.467,369.060C271.908,369.172,266.513,371.051,265.562,371.277C260.685,372.160,254.766,372.679,250.946,368.966C246.836,364.514,246.066,357.023,245.090,350.603C242.866,337.438,245.945,324.047,249.059,311.008C251.330,299.338,257.129,279.903,266.002,271.078C267.312,270.024,279.536,265.712,280.835,264.803Z"/>
<path class="path-1" d="M188.209,267.140C191.955,265.057,201.494,265.987,202.406,270.837"/>
<path class="path-1" d="M202.406,270.837C204.582,275.530,199.367,285.441,198.679,290.134"/>
<path class="path-1" d="M198.679,290.134C193.776,308.375,186.303,326.292,188.515,344.608"/>
<path class="path-1" d="M188.515,344.608C189.415,350.546,195.615,363.516,190.125,367.832"/>
<path class="path-1" d="M190.125,367.832C188.205,369.341,182.656,365.550,182.013,367.151"/>
<path class="path-1" d="M182.013,367.151C180.784,370.212,175.178,360.502,174.423,359.309"/>
<path class="path-1" d="M174.423,359.309C173.728,358.213,170.381,349.761,169.994,347.362"/>
<path class="path-1" d="M169.994,347.362C169.544,342.770,169.444,333.725,170.145,327.948"/>
<path class="path-1" d="M170.145,327.948C170.911,322.012,171.468,315.730,174.026,309.646"/>
<path class="path-1" d="M174.026,309.646C176.387,302.479,180.848,294.526,183.131,286.424"/>
<path class="path-1" d="M183.131,286.424C185.730,281.335,190.014,278.380,189.037,274.460"/>
<path class="path-1" d="M189.037,274.460C187.769,270.834,185.125,269.154,188.209,267.140"/>
<path class="path-2" d="M188.209,267.140C191.955,265.057,201.494,265.987,202.406,270.837C204.582,275.530,199.367,285.441,198.679,290.134C193.776,308.375,186.303,326.292,188.515,344.608C189.415,350.546,195.615,363.516,190.125,367.832C188.205,369.341,182.656,365.550,182.013,367.151C180.784,370.212,175.178,360.502,174.423,359.309C173.728,358.213,170.381,349.761,169.994,347.362C169.544,342.770,169.444,333.725,170.145,327.948C170.911,322.012,171.468,315.730,174.026,309.646C176.387,302.479,180.848,294.526,183.131,286.424C185.730,281.335,190.014,278.380,189.037,274.460C187.769,270.834,185.125,269.154,188.209,267.140Z"/>
<path class="path-1" d="M279.785,234.525C283.188,234.324,289.061,236.475,288.798,240.345"/>
<path class="path-1" d="M288.798,240.345C288.783,243.327,282.666,252.447,277.898,255.283"/>
<path class="path-1" d="M277.898,255.283C275.014,256.999,268.688,256.864,266.879,257.205"/>
<path class="path-1" d="M266.879,257.205C263.816,257.612,263.206,255.239,262.867,253.096"/>
<path class="path-1" d="M262.867,253.096C262.337,248.724,265.395,242.251,268.650,239.070"/>
<path class="path-1" d="M268.650,239.070C271.230,236.548,275.826,234.618,279.785,234.525"/>
<path class="path-2" d="M279.785,234.525C283.188,234.324,289.061,236.475,288.798,240.345C288.783,243.327,282.666,252.447,277.898,255.283C275.014,256.999,268.688,256.864,266.879,257.205C263.816,257.612,263.206,255.239,262.867,253.096C262.337,248.724,265.395,242.251,268.650,239.070C271.230,236.548,275.826,234.618,279.785,234.525Z"/>
<path class="path-1" d="M205.272,244.226C210.126,253.857,215.035,263.654,209.830,261.928"/>
<path class="path-1" d="M209.830,261.928C203.416,259.800,199.980,260.360,189.763,255.866"/>
<path class="path-1" d="M189.763,255.866C179.276,251.253,176.977,236.054,182.993,231.370"/>
<path class="path-1" d="M182.993,231.370C189.082,226.630,199.620,233.012,205.272,244.226"/>
<path class="path-2" d="M205.272,244.226C210.126,253.857,215.035,263.654,209.830,261.928C203.416,259.800,199.980,260.360,189.763,255.866C179.276,251.253,176.977,236.054,182.993,231.370C189.082,226.630,199.620,233.012,205.272,244.226Z"/>
</g>
<g id="left_arm">
<path class="path-0" d="M290.902,459.809C287.575,454.485,286.245,445.502,293.897,443.175C299.221,441.510,323.174,446.834,327.167,450.826C334.153,457.148,330.161,471.786,321.510,475.113C311.529,478.439,296.226,468.127,290.902,459.809M279.516,276.423C280.393,273.226,288.864,263.064,293.897,264.184C296.819,264.834,298.222,269.839,299.220,272.502C301.881,280.818,304.543,289.469,306.872,298.119C313.194,320.741,317.518,343.366,322.177,365.988C323.839,375.305,323.839,387.613,327.167,395.931C331.159,405.579,337.479,402.253,340.474,408.573C341.805,411.567,341.140,417.224,343.136,421.881C346.130,429.201,351.785,433.194,354.446,437.851C356.111,440.512,356.776,443.506,353.117,444.173C351.121,445.171,345.797,444.173,343.801,444.173C337.144,442.402,330.490,440.627,323.840,438.849C314.857,436.852,287.575,435.521,282.918,429.533C275.931,420.218,286.910,409.240,288.242,399.924C288.907,396.930,292.189,352.967,291.567,350.019C290.899,343.164,287.387,337.131,285.841,330.057C284.214,320.430,282.539,310.147,281.179,300.115C280.223,291.877,276.733,285.067,279.516,276.423M305.541,254.536C303.213,249.877,295.893,241.561,289.904,242.890C284.914,244.222,284.249,250.210,283.582,254.203C281.920,264.184,279.924,272.502,279.924,282.149C279.590,289.136,280.257,295.458,280.921,302.111C281.586,311.427,279.590,329.392,279.924,340.038C279.924,349.686,282.253,359.667,281.586,367.985C279.590,387.613,271.273,406.246,271.938,425.874C271.939,435.855,274.600,435.855,276.929,443.840C278.592,449.828,277.263,456.150,279.590,461.805C285.579,476.776,302.880,490.416,319.847,487.091C335.483,484.096,336.150,467.129,344.466,458.146C351.786,450.161,366.424,454.154,368.420,445.835C370.416,438.849,360.769,431.198,357.110,425.874C349.790,415.893,355.445,413.563,351.786,405.912C349.125,400.257,341.471,395.267,337.813,387.947C335.816,384.619,334.819,378.299,333.487,373.973C330.826,363.992,327.831,352.680,326.169,342.034C324.504,329.724,324.173,318.745,320.845,306.103C318.184,295.458,310.200,262.852,305.541,254.536Z"/>
<path class="path-1" d="M293.897,264.184C296.819,264.834,298.222,269.839,299.220,272.502"/>
<path class="path-1" d="M299.220,272.502C301.881,280.818,304.543,289.469,306.872,298.119"/>
<path class="path-1" d="M306.872,298.119C313.194,320.741,317.518,343.366,322.177,365.988"/>
<path class="path-1" d="M322.177,365.988C323.839,375.305,323.839,387.613,327.167,395.931"/>
<path class="path-1" d="M327.167,395.931C331.159,405.579,337.479,402.253,340.474,408.573"/>
<path class="path-1" d="M340.474,408.573C341.805,411.567,341.140,417.224,343.136,421.881"/>
<path class="path-1" d="M343.136,421.881C346.130,429.201,351.785,433.194,354.446,437.851"/>
<path class="path-1" d="M354.446,437.851C356.111,440.512,356.776,443.506,353.117,444.173"/>
<path class="path-1" d="M353.117,444.173C351.121,445.171,345.797,444.173,343.801,444.173"/>
<path class="path-1" d="M343.801,444.173C337.144,442.402,330.490,440.627,323.840,438.849"/>
<path class="path-1" d="M323.840,438.849C314.857,436.852,287.575,435.521,282.918,429.533"/>
<path class="path-1" d="M282.918,429.533C275.931,420.218,286.910,409.240,288.242,399.924"/>
<path class="path-1" d="M288.242,399.924C288.907,396.930,292.189,352.967,291.567,350.019"/>
<path class="path-1" d="M291.567,350.019C290.899,343.164,287.387,337.131,285.841,330.057"/>
<path class="path-1" d="M285.841,330.057C284.214,320.430,282.539,310.147,281.179,300.115"/>
<path class="path-1" d="M281.179,300.115C280.223,291.877,276.733,285.067,279.516,276.423"/>
<path class="path-1" d="M279.516,276.423C280.393,273.226,288.864,263.064,293.897,264.184"/>
<path class="path-2" d="M293.897,264.184C296.819,264.834,298.222,269.839,299.220,272.502C301.881,280.818,304.543,289.469,306.872,298.119C313.194,320.741,317.518,343.366,322.177,365.988C323.839,375.305,323.839,387.613,327.167,395.931C331.159,405.579,337.479,402.253,340.474,408.573C341.805,411.567,341.140,417.224,343.136,421.881C346.130,429.201,351.785,433.194,354.446,437.851C356.111,440.512,356.776,443.506,353.117,444.173C351.121,445.171,345.797,444.173,343.801,444.173C337.144,442.402,330.490,440.627,323.840,438.849C314.857,436.852,287.575,435.521,282.918,429.533C275.931,420.218,286.910,409.240,288.242,399.924C288.907,396.930,292.189,352.967,291.567,350.019C290.899,343.164,287.387,337.131,285.841,330.057C284.214,320.430,282.539,310.147,281.179,300.115C280.223,291.877,276.733,285.067,279.516,276.423C280.393,273.226,288.864,263.064,293.897,264.184Z"/>
<path class="path-15" d="M293.897,443.175C299.221,441.510,323.174,446.834,327.167,450.826"/>
<path class="path-15" d="M327.167,450.826C334.153,457.148,330.161,471.786,321.510,475.113"/>
<path class="path-15" d="M321.510,475.113C311.529,478.439,296.226,468.127,290.902,459.809"/>
<path class="path-15" d="M290.902,459.809C287.575,454.485,286.245,445.502,293.897,443.175"/>
<path class="path-16" d="M293.897,443.175C299.221,441.510,323.174,446.834,327.167,450.826C334.153,457.148,330.161,471.786,321.510,475.113C311.529,478.439,296.226,468.127,290.902,459.809C287.575,454.485,286.245,445.502,293.897,443.175Z"/>
</g>
<g id="bone">
<g id="bone1_clothes">
<path class="path-23" d="M238.796,389.804C238.797,389.798,250.582,331.999,250.583,331.993C250.583,331.999,249.865,390.983,249.865,390.989C249.864,390.989,238.797,389.804,238.796,389.804"/>
</g>
<g id="bone2_clothes">
<path class="path-23" d="M232.648,327.871C232.648,327.864,230.769,255.362,230.769,255.354C230.771,255.361,246.315,326.202,246.316,326.209C246.315,326.209,232.649,327.871,232.648,327.871"/>
</g>
<g id="bone3_neck">
<path class="path-23" d="M237.794,254.051C237.794,254.047,236.287,212.374,236.287,212.370C236.287,212.374,231.203,253.763,231.203,253.767C231.203,253.767,237.793,254.051,237.794,254.051"/>
</g>
<g id="bone4_head">
<path class="path-23" d="M230.451,213.148C230.450,213.140,226.110,135.196,226.110,135.189C226.112,135.196,242.800,211.455,242.802,211.463C242.800,211.463,230.452,213.148,230.451,213.148"/>
</g>
<g id="bone5_left_arm">
<path class="path-23" d="M298.163,255.461C298.165,255.470,320.627,345.167,320.630,345.176C320.626,345.168,283.247,260.593,283.243,260.585C283.245,260.584,298.161,255.462,298.163,255.461"/>
</g>
<g id="bone6_left_arm">
<path class="path-23" d="M300.881,349.128C300.882,349.134,307.164,412.560,307.165,412.567C307.165,412.560,311.321,348.959,311.321,348.953C311.320,348.953,300.882,349.128,300.881,349.128"/>
</g>
<g id="bone7_right_arm">
<path class="path-23" d="M169.131,269.641C169.129,269.653,149.258,383.430,149.256,383.441C149.259,383.430,186.833,274.214,186.837,274.203C186.835,274.203,169.133,269.642,169.131,269.641"/>
</g>
<g id="bone8_right_arm">
<path class="path-23" d="M157.157,379.808C157.160,379.814,181.052,434.331,181.054,434.336C181.051,434.331,146.694,385.725,146.691,385.720C146.692,385.720,157.156,379.809,157.157,379.808"/>
</g>
<g id="bone9_left_leg">
<path class="path-23" d="M271.641,383.731C271.644,383.741,300.441,483.960,300.443,483.970C300.439,483.961,254.521,390.347,254.516,390.338C254.518,390.337,271.640,383.732,271.641,383.731"/>
</g>
<g id="bone10_right_leg">
<path class="path-23" d="M209.471,385.108C209.471,385.118,204.858,487.458,204.858,487.469C204.860,487.459,224.863,386.986,224.865,386.976C224.864,386.976,209.473,385.108,209.471,385.108"/>
</g>
<g id="bone11_hair">
<path class="path-23" d="M234.281,156.031C234.283,156.039,253.076,233.990,253.078,233.997C253.075,233.990,220.333,160.795,220.330,160.788C220.331,160.787,234.280,156.031,234.281,156.031"/>
</g>
<g id="bone12_left_leg_S">
<path class="path-23" d="M435.545,222.301C435.552,222.301,507.892,223.110,507.899,223.110C507.892,223.109,436.668,210.425,436.661,210.424C436.661,210.425,435.545,222.299,435.545,222.301"/>
</g>
<g id="bone13_right_leg_S">
<path class="path-23" d="M495.578,210.765C495.570,210.766,424.547,224.526,424.540,224.527C424.547,224.527,496.866,222.624,496.873,222.623C496.873,222.622,495.578,210.766,495.578,210.765"/>
</g>
<g id="bone14_left_arm_S">
<path class="path-23" d="M557.459,215.989C557.458,215.981,551.495,143.884,551.494,143.876C551.494,143.884,545.530,215.981,545.530,215.989C545.531,215.989,557.458,215.989,557.459,215.989"/>
</g>
<g id="bone15_jacket_S">
<path class="path-23" d="M598.963,213.297C598.962,213.304,586.649,284.593,586.648,284.600C586.650,284.593,610.509,216.296,610.511,216.289C610.510,216.289,598.964,213.297,598.963,213.297"/>
</g>
<g id="bone16_pupils_S">
<path class="path-23" d="M442.221,337.675C442.220,337.668,440.191,265.352,440.190,265.345C440.189,265.352,430.310,337.019,430.309,337.026C430.310,337.026,442.219,337.675,442.221,337.675"/>
</g>
<g id="bone17_eyelids_S">
<path class="path-23" d="M496.529,331.478C496.522,331.478,424.424,337.442,424.417,337.442C424.424,337.443,496.522,343.406,496.529,343.407C496.529,343.406,496.529,331.479,496.529,331.478"/>
</g>
<g id="bone18_face_S">
<path class="path-23" d="M554.886,343.819C554.892,343.815,613.932,302.006,613.938,302.002C613.931,302.005,548.825,333.546,548.818,333.549C548.819,333.550,554.886,343.818,554.886,343.819"/>
</g>
</g>
</g>
<style>
.path-0{fill:#000000;fill-rule:evenodd;stroke:none;}
.path-1{fill:none;stroke:#a60d3f;stroke-width:1;stroke-linecap:butt;stroke-linejoin:round;}
.path-2{fill:#a60d3f;fill-rule:evenodd;stroke:none;}
.path-3{fill:none;stroke:#d88e4b;stroke-width:1;stroke-linecap:butt;stroke-linejoin:round;}
.path-4{fill:#d88e4b;fill-rule:evenodd;stroke:none;}
.path-5{fill:none;stroke:#6e2353;stroke-width:1;stroke-linecap:butt;stroke-linejoin:round;}
.path-6{fill:#6e2353;fill-rule:evenodd;stroke:none;}
.path-7{fill:none;stroke:#392966;stroke-width:1;stroke-linecap:butt;stroke-linejoin:round;}
.path-8{fill:#392966;fill-rule:evenodd;stroke:none;}
.path-9{fill:none;stroke:#cc9bc5;stroke-width:1;stroke-linecap:butt;stroke-linejoin:round;}
.path-10{fill:#cc9bc5;fill-rule:evenodd;stroke:none;}
.path-11{fill:none;stroke:#620527;stroke-width:1;stroke-linecap:butt;stroke-linejoin:round;}
.path-12{fill:#620527;fill-rule:evenodd;stroke:none;}
.path-13{fill:none;stroke:#6a3661;stroke-width:1;stroke-linecap:butt;stroke-linejoin:round;}
.path-14{fill:#6a3661;fill-rule:evenodd;stroke:none;}
.path-15{fill:none;stroke:#f8a087;stroke-width:1;stroke-linecap:butt;stroke-linejoin:round;}
.path-16{fill:#f8a087;fill-rule:evenodd;stroke:none;}
.path-17{fill:none;stroke:#ffffff;stroke-width:1;stroke-linecap:butt;stroke-linejoin:round;}
.path-18{fill:#ffffff;fill-rule:evenodd;stroke:none;}
.path-19{fill:none;stroke:#d89f4a;stroke-width:1;stroke-linecap:butt;stroke-linejoin:round;}
.path-20{fill:#d89f4a;fill-rule:evenodd;stroke:none;}
.path-21{fill:none;stroke:#fafd5b;stroke-width:1;stroke-linecap:butt;stroke-linejoin:round;}
.path-22{fill:#fafd5b;fill-rule:evenodd;stroke:none;}
.path-23{fill:none;stroke:#00ff42;stroke-width:8;stroke-linecap:round;stroke-linejoin:round;}
.path-24{fill:none;stroke:#000000;stroke-width:1;stroke-linecap:butt;stroke-linejoin:round;}
.path-25{fill:none;stroke:#ececec;stroke-width:1;stroke-linecap:butt;stroke-linejoin:round;}
.path-26{fill:#ececec;fill-rule:evenodd;stroke:none;}
.path-27{fill:none;stroke:#808080;stroke-width:1;stroke-linecap:butt;stroke-linejoin:round;}
.path-28{fill:#808080;fill-rule:evenodd;stroke:none;}
.path-29{fill:none;stroke:#282828;stroke-width:1;stroke-linecap:butt;stroke-linejoin:round;}
.path-30{fill:#282828;fill-rule:evenodd;stroke:none;}
</style>
</svg>
