<svg version="1.1" id="Frame_2" xmlns="http://www.w3.org/2000/svg" xmlns:xlink="http://www.w3.org/1999/xlink" width="480px" height="720px">
<g id="main_bone">
<g id="right_arm">
<path class="path-0" d="M169.770,270.654C171.111,267.986,173.742,262.482,177.456,260.978C183.842,258.391,189.339,264.313,190.123,268.878C191.795,276.802,186.545,287.717,184.084,295.598C178.015,314.617,171.303,333.374,167.009,352.330C166.513,355.636,162.091,377.023,162.046,374.364C161.826,381.020,168.573,386.562,171.001,392.174C174.126,399.765,171.567,407.114,169.735,414.138C165.437,428.814,165.905,434.124,165.749,448.381C165.831,450.683,165.827,458.245,162.208,458.415C158.862,458.572,158.248,452.557,157.480,450.241C157.035,447.592,154.477,442.019,155.064,439.667C155.257,435.670,159.919,436.555,154.729,428.373C148.148,418.211,136.387,410.075,133.153,396.812C130.967,386.206,136.438,376.785,139.296,366.765C145.335,345.364,152.060,323.955,159.329,302.618C163.299,291.607,164.415,281.977,169.770,270.654M189.453,262.575C189.442,253.949,186.411,246.357,175.800,250.022C159.112,255.721,154.316,282.028,149.688,296.735C143.081,316.766,137.559,336.823,132.146,356.904C129.927,365.583,126.709,369.973,125.462,374.986C123.895,380.668,124.370,389.312,124.804,394.959C125.118,412.606,130.716,413.216,138.052,426.688C141.925,434.601,138.103,439.714,140.676,446.637C142.518,451.282,146.333,454.513,149.192,458.427C151.713,462.350,152.190,464.664,154.034,468.275C156.252,472.555,163.069,482.067,168.686,479.771C173.211,477.902,172.809,469.680,172.964,465.717C173.031,459.771,175.687,436.874,176.793,429.910C178.767,418.565,184.239,406.203,182.346,393.963C180.841,384.681,172.420,378.176,172.590,368.199C172.835,362.876,176.011,354.182,176.938,348.188C178.484,338.551,178.395,328.266,180.355,318.310C183.623,300.711,190.140,280.829,189.453,262.575Z"/>
<path class="path-1" d="M177.456,260.978C183.842,258.391,189.339,264.313,190.123,268.878"/>
<path class="path-1" d="M190.123,268.878C191.795,276.802,186.545,287.717,184.084,295.598"/>
<path class="path-1" d="M184.084,295.598C178.015,314.617,171.303,333.374,167.009,352.330"/>
<path class="path-1" d="M167.009,352.330C166.513,355.636,162.091,377.023,162.046,374.364"/>
<path class="path-1" d="M162.046,374.364C161.826,381.020,168.573,386.562,171.001,392.174"/>
<path class="path-1" d="M171.001,392.174C174.126,399.765,171.567,407.114,169.735,414.138"/>
<path class="path-1" d="M169.735,414.138C165.437,428.814,165.905,434.124,165.749,448.381"/>
<path class="path-1" d="M165.749,448.381C165.831,450.683,165.827,458.245,162.208,458.415"/>
<path class="path-1" d="M162.208,458.415C158.862,458.572,158.248,452.557,157.480,450.241"/>
<path class="path-1" d="M157.480,450.241C157.035,447.592,154.477,442.019,155.064,439.667"/>
<path class="path-1" d="M155.064,439.667C155.257,435.670,159.919,436.555,154.729,428.373"/>
<path class="path-1" d="M154.729,428.373C148.148,418.211,136.387,410.075,133.153,396.812"/>
<path class="path-1" d="M133.153,396.812C130.967,386.206,136.438,376.785,139.296,366.765"/>
<path class="path-1" d="M139.296,366.765C145.335,345.364,152.060,323.955,159.329,302.618"/>
<path class="path-1" d="M159.329,302.618C163.299,291.607,164.415,281.977,169.770,270.654"/>
<path class="path-1" d="M169.770,270.654C171.111,267.986,173.742,262.482,177.456,260.978"/>
<path class="path-2" d="M177.456,260.978C183.842,258.391,189.339,264.313,190.123,268.878C191.795,276.802,186.545,287.717,184.084,295.598C178.015,314.617,171.303,333.374,167.009,352.330C166.513,355.636,162.091,377.023,162.046,374.364C161.826,381.020,168.573,386.562,171.001,392.174C174.126,399.765,171.567,407.114,169.735,414.138C165.437,428.814,165.905,434.124,165.749,448.381C165.831,450.683,165.827,458.245,162.208,458.415C158.862,458.572,158.248,452.557,157.480,450.241C157.035,447.592,154.477,442.019,155.064,439.667C155.257,435.670,159.919,436.555,154.729,428.373C148.148,418.211,136.387,410.075,133.153,396.812C130.967,386.206,136.438,376.785,139.296,366.765C145.335,345.364,152.060,323.955,159.329,302.618C163.299,291.607,164.415,281.977,169.770,270.654C171.111,267.986,173.742,262.482,177.456,260.978Z"/>
</g>
<g id="layer_left_leg">
<g id="left_heel">
<path class="path-0" d="M239.449,541.233C231.328,531.021,246.334,508.862,257.294,507.057C271.235,504.547,276.215,528.765,274.619,533.777C272.374,540.129,263.440,543.908,257.799,544.981C253.151,545.708,242.159,544.857,239.449,541.233M279.906,506.091C274.153,498.847,259.178,498.710,251.230,501.482C221.765,510.865,218.531,566.789,259.924,554.601C267.217,552.508,282.109,546.647,285.343,539.623C288.598,533.925,286.515,527.629,285.104,521.659C283.712,517.020,282.953,510.043,279.906,506.091Z"/>
<path class="path-3" d="M257.294,507.057C271.235,504.547,276.215,528.765,274.619,533.777"/>
<path class="path-3" d="M274.619,533.777C272.374,540.129,263.440,543.908,257.799,544.981"/>
<path class="path-3" d="M257.799,544.981C253.151,545.708,242.159,544.857,239.449,541.233"/>
<path class="path-3" d="M239.449,541.233C231.328,531.021,246.334,508.862,257.294,507.057"/>
<path class="path-4" d="M257.294,507.057C271.235,504.547,276.215,528.765,274.619,533.777C272.374,540.129,263.440,543.908,257.799,544.981C253.151,545.708,242.159,544.857,239.449,541.233C231.328,531.021,246.334,508.862,257.294,507.057Z"/>
</g>
<g id="left_sole">
<path class="path-0" d="M255.603,567.479C246.951,566.783,239.951,551.780,243.251,559.095C245.157,563.318,252.204,565.587,255.528,567.176C256.113,567.484,269.182,571.182,270.642,571.388C275.698,572.753,291.152,571.248,291.650,569.971C291.751,569.712,280.866,570.436,277.413,570.875C270.934,572.233,262.468,570.968,255.528,567.176M247.856,553.801C250.396,554.320,256.626,558.173,258.237,560.104C263.168,566.015,276.792,566.794,284.591,564.203C285.592,563.899,285.736,561.541,291.479,560.166C294.646,559.407,276.199,566.258,272.053,564.684C263.378,563.031,244.660,553.148,247.856,553.801M287.562,550.651C285.825,549.952,273.066,540.466,263.128,541.070C255.085,541.606,235.702,547.684,234.532,558.192C234.087,562.272,240.422,572.732,243.705,575.056C255.183,583.820,284.944,577.320,290.549,574.759C292.523,573.857,300.875,556.008,287.562,550.651Z"/>
<path class="path-5" d="M243.251,559.095C245.157,563.318,252.204,565.587,255.528,567.176"/>
<path class="path-5" d="M255.528,567.176C262.468,570.968,270.934,572.233,277.413,570.875"/>
<path class="path-5" d="M277.413,570.875C280.866,570.436,291.751,569.712,291.650,569.971"/>
<path class="path-5" d="M291.650,569.971C291.152,571.248,275.698,572.753,270.642,571.388"/>
<path class="path-5" d="M270.642,571.388C269.182,571.182,256.113,567.484,255.603,567.479"/>
<path class="path-5" d="M255.603,567.479C246.951,566.783,239.951,551.780,243.251,559.095"/>
<path class="path-6" d="M243.251,559.095C245.157,563.318,252.204,565.587,255.528,567.176C262.468,570.968,270.934,572.233,277.413,570.875C280.866,570.436,291.751,569.712,291.650,569.971C291.152,571.248,275.698,572.753,270.642,571.388C269.182,571.182,256.113,567.484,255.603,567.479C246.951,566.783,239.951,551.780,243.251,559.095Z"/>
<path class="path-5" d="M258.237,560.104C263.168,566.015,276.792,566.794,284.591,564.203"/>
<path class="path-5" d="M284.591,564.203C285.592,563.899,285.736,561.541,291.479,560.166"/>
<path class="path-5" d="M291.479,560.166C294.646,559.407,276.199,566.258,272.053,564.684"/>
<path class="path-5" d="M272.053,564.684C263.378,563.031,244.660,553.148,247.856,553.801"/>
<path class="path-5" d="M247.856,553.801C250.396,554.320,256.626,558.173,258.237,560.104"/>
<path class="path-6" d="M258.237,560.104C263.168,566.015,276.792,566.794,284.591,564.203C285.592,563.899,285.736,561.541,291.479,560.166C294.646,559.407,276.199,566.258,272.053,564.684C263.378,563.031,244.660,553.148,247.856,553.801C250.396,554.320,256.626,558.173,258.237,560.104Z"/>
</g>
<g id="left_toe">
<path class="path-0" d="M256.641,584.923C225.330,582.346,238.016,535.597,265.991,537.551C279.647,538.701,282.801,550.637,284.279,561.597C285.343,566.574,286.732,570.881,284.465,575.569C279.910,583.281,264.633,585.482,256.641,584.923M287.291,537.934C280.543,531.036,262.881,528.942,253.926,531.058C229.716,537.036,229.616,554.340,230.546,574.292C230.613,579.281,230.675,583.938,233.722,587.890C240.485,596.119,264.789,597.126,274.742,594.997C282.035,592.904,290.963,588.792,294.524,581.424C299.061,572.380,294.041,545.162,287.291,537.934Z"/>
<path class="path-3" d="M265.991,537.551C279.647,538.701,282.801,550.637,284.279,561.597"/>
<path class="path-3" d="M284.279,561.597C285.343,566.574,286.732,570.881,284.465,575.569"/>
<path class="path-3" d="M284.465,575.569C279.910,583.281,264.633,585.482,256.641,584.923"/>
<path class="path-3" d="M256.641,584.923C225.330,582.346,238.016,535.597,265.991,537.551"/>
<path class="path-4" d="M265.991,537.551C279.647,538.701,282.801,550.637,284.279,561.597C285.343,566.574,286.732,570.881,284.465,575.569C279.910,583.281,264.633,585.482,256.641,584.923C225.330,582.346,238.016,535.597,265.991,537.551Z"/>
</g>
<g id="left_leg">
<path class="path-0" d="M231.898,413.176C230.472,406.876,245.090,406.213,250.092,405.280C254.941,404.616,265.925,404.647,269.888,407.679C283.965,417.726,286.065,465.964,285.831,482.598C285.247,496.284,286.230,509.192,285.134,522.375C284.516,528.136,283.753,534.094,282.445,539.623C281.491,544.570,276.055,551.054,279.419,554.407C280.861,556.459,284.122,555.064,286.440,555.244C290.474,555.812,290.453,552.422,293.247,553.192C303.398,556.331,284.375,578.292,275.167,581.173C267.929,583.707,252.531,581.315,246.820,576.352C245.072,574.832,243.025,573.080,241.760,571.193C224.098,543.417,239.590,493.341,243.404,466.163C244.799,456.227,251.130,477.372,256.929,474.541C265.822,470.148,247.408,434.946,241.748,426.627C238.949,423.146,232.628,417.480,231.898,413.176M279.395,397.085C273.441,392.567,256.787,394.352,249.964,395.633C243.347,396.849,220.697,396.689,217.770,401.718C212.891,410.102,227.309,423.448,230.137,430.834C231.381,434.865,228.687,455.131,228.387,460.802C228.463,473.390,227.639,484.166,227.356,496.751C226.454,522.025,216.104,546.682,222.922,570.675C228.190,588.729,242.103,599.581,264.462,596.081C286.184,593.023,294.636,590.889,302.949,568.693C308.010,555.684,307.905,553.227,304.275,541.794C302.887,537.477,298.010,534.664,296.445,530.064C289.626,512.073,297.465,491.607,295.828,472.324C294.317,454.325,294.561,408.646,279.395,397.085Z"/>
<path class="path-7" d="M250.092,405.280C254.941,404.616,265.925,404.647,269.888,407.679"/>
<path class="path-7" d="M269.888,407.679C283.965,417.726,286.065,465.964,285.831,482.598"/>
<path class="path-7" d="M285.831,482.598C285.247,496.284,286.230,509.192,285.134,522.375"/>
<path class="path-7" d="M285.134,522.375C284.516,528.136,283.753,534.094,282.445,539.623"/>
<path class="path-7" d="M282.445,539.623C281.491,544.570,276.055,551.054,279.419,554.407"/>
<path class="path-7" d="M279.419,554.407C280.861,556.459,284.122,555.064,286.440,555.244"/>
<path class="path-7" d="M286.440,555.244C290.474,555.812,290.453,552.422,293.247,553.192"/>
<path class="path-7" d="M293.247,553.192C303.398,556.331,284.375,578.292,275.167,581.173"/>
<path class="path-7" d="M275.167,581.173C267.929,583.707,252.531,581.315,246.820,576.352"/>
<path class="path-7" d="M246.820,576.352C245.072,574.832,243.025,573.080,241.760,571.193"/>
<path class="path-7" d="M241.760,571.193C224.098,543.417,239.590,493.341,243.404,466.163"/>
<path class="path-7" d="M243.404,466.163C244.799,456.227,251.130,477.372,256.929,474.541"/>
<path class="path-7" d="M256.929,474.541C265.822,470.148,247.408,434.946,241.748,426.627"/>
<path class="path-7" d="M241.748,426.627C238.949,423.146,232.628,417.480,231.898,413.176"/>
<path class="path-7" d="M231.898,413.176C230.472,406.876,245.090,406.213,250.092,405.280"/>
<path class="path-8" d="M250.092,405.280C254.941,404.616,265.925,404.647,269.888,407.679C283.965,417.726,286.065,465.964,285.831,482.598C285.247,496.284,286.230,509.192,285.134,522.375C284.516,528.136,283.753,534.094,282.445,539.623C281.491,544.570,276.055,551.054,279.419,554.407C280.861,556.459,284.122,555.064,286.440,555.244C290.474,555.812,290.453,552.422,293.247,553.192C303.398,556.331,284.375,578.292,275.167,581.173C267.929,583.707,252.531,581.315,246.820,576.352C245.072,574.832,243.025,573.080,241.760,571.193C224.098,543.417,239.590,493.341,243.404,466.163C244.799,456.227,251.130,477.372,256.929,474.541C265.822,470.148,247.408,434.946,241.748,426.627C238.949,423.146,232.628,417.480,231.898,413.176C230.472,406.876,245.090,406.213,250.092,405.280Z"/>
</g>
</g>
<g id="layer_right_leg">
<g id="right_heel">
<path class="path-0" d="M196.280,653.258C197.607,634.198,196.820,619.248,219.902,614.700C230.114,612.497,249.891,614.788,256.063,624.458C259.315,629.284,258.703,636.644,259.316,641.943C260.470,651.211,267.360,668.171,254.560,671.844C253.581,672.229,225.796,676.025,217.228,677.807C211.982,679.417,206.439,681.708,201.945,678.612C196.017,673.595,195.650,660.288,196.280,653.258M266.922,621.887C261.641,610.172,244.994,604.052,233.454,606.325C218.275,609.123,202.398,604.961,193.183,619.773C183.968,634.582,185.701,661.145,189.896,677.581C191.208,683.509,195.441,694.281,200.600,697.341C204.376,699.473,209.988,698.511,214.308,698.284C235.256,697.514,272.169,702.568,270.858,671.320C270.280,660.356,270.699,630.350,266.922,621.887Z"/>
<path class="path-3" d="M219.902,614.700C230.114,612.497,249.891,614.788,256.063,624.458"/>
<path class="path-3" d="M256.063,624.458C259.315,629.284,258.703,636.644,259.316,641.943"/>
<path class="path-3" d="M259.316,641.943C260.470,651.211,267.360,668.171,254.560,671.844"/>
<path class="path-3" d="M254.560,671.844C253.581,672.229,225.796,676.025,217.228,677.807"/>
<path class="path-3" d="M217.228,677.807C211.982,679.417,206.439,681.708,201.945,678.612"/>
<path class="path-3" d="M201.945,678.612C196.017,673.595,195.650,660.288,196.280,653.258"/>
<path class="path-3" d="M196.280,653.258C197.607,634.198,196.820,619.248,219.902,614.700"/>
<path class="path-4" d="M219.902,614.700C230.114,612.497,249.891,614.788,256.063,624.458C259.315,629.284,258.703,636.644,259.316,641.943C260.470,651.211,267.360,668.171,254.560,671.844C253.581,672.229,225.796,676.025,217.228,677.807C211.982,679.417,206.439,681.708,201.945,678.612C196.017,673.595,195.650,660.288,196.280,653.258C197.607,634.198,196.820,619.248,219.902,614.700Z"/>
</g>
<g id="right_leg">
<path class="path-0" d="M179.662,407.264C177.491,400.081,186.441,394.104,192.965,393.163C199.200,392.133,208.645,394.298,214.989,396.381C218.023,397.377,221.990,399.189,224.495,401.169C226.638,402.864,229.009,405.697,230.402,408.100C234.127,415.045,235.495,418.168,236.150,422.879C236.826,427.737,234.672,433.486,234.585,439.152C235.217,456.655,237.862,474.718,241.283,491.361C243.268,501.536,247.714,516.086,248.945,525.615C249.857,535.180,243.208,536.420,243.954,542.075C244.201,545.659,254.716,560.876,257.092,565.071C264.112,576.914,270.681,591.073,271.425,604.888C272.100,617.415,254.363,634.523,242.899,637.056C229.882,639.662,192.600,627.941,180.332,621.998C174.691,619.467,165.059,615.624,163.040,609.312C161.466,605.172,165.556,586.008,167.572,581.643C170.585,575.717,173.183,574.534,175.116,566.994C177.454,556.399,175.970,544.728,175.717,533.628C174.926,518.430,176.700,480.598,180.102,466.221C182.091,456.787,187.653,424.777,185.895,416.011C184.801,410.290,181.049,410.961,179.662,407.264M203.671,382.346C197.919,380.650,193.318,375.560,187.443,377.869C185.206,378.971,181.428,382.109,179.883,383.832C165.218,397.698,165.473,410.492,166.454,429.207C166.538,437.079,166.709,445.260,167.548,452.779C168.006,457.783,169.134,462.115,168.621,466.813C168.431,471.140,166.838,475.574,166.494,480.918C166.241,487.333,168.245,494.894,167.933,505.793C166.897,516.087,165.324,525.761,165.457,535.649C165.716,541.156,166.990,554.178,166.241,558.372C164.535,563.658,160.482,569.021,158.109,573.703C154.168,582.729,152.788,592.744,153.506,602.056C153.653,608.094,154.130,616.019,157.109,620.853C161.472,627.931,169.936,632.123,177.039,635.622C188.943,641.407,200.947,643.070,213.996,645.919C218.307,646.895,222.467,648.467,227.049,648.833C228.612,648.718,241.469,647.444,243.968,647.061C255.432,644.624,273.181,633.548,278.086,622.168C279.485,618.370,280.113,613.020,280.200,608.861C280.281,604.904,279.826,600.953,279.693,596.994C278.542,572.704,268.846,563.103,262.262,542.907C259.892,535.639,258.284,519.980,256.889,511.630C253.957,496.054,248.913,481.157,247.826,464.853C247.668,461.459,246.962,456.925,248.891,453.565C250.525,450.599,253.997,449.529,254.902,446.319C256.062,441.028,249.747,424.288,248.225,418.646C247.398,415.020,247.457,410.357,245.935,406.773C241.791,397.662,227.295,388.098,217.835,385.598C213.096,384.181,208.096,384.112,203.671,382.346Z"/>
<path class="path-7" d="M192.965,393.163C199.200,392.133,208.645,394.298,214.989,396.381"/>
<path class="path-7" d="M214.989,396.381C218.023,397.377,221.990,399.189,224.495,401.169"/>
<path class="path-7" d="M224.495,401.169C226.638,402.864,229.009,405.697,230.402,408.100"/>
<path class="path-7" d="M230.402,408.100C234.127,415.045,235.495,418.168,236.150,422.879"/>
<path class="path-7" d="M236.150,422.879C236.826,427.737,234.672,433.486,234.585,439.152"/>
<path class="path-7" d="M234.585,439.152C235.217,456.655,237.862,474.718,241.283,491.361"/>
<path class="path-7" d="M241.283,491.361C243.268,501.536,247.714,516.086,248.945,525.615"/>
<path class="path-7" d="M248.945,525.615C249.857,535.180,243.208,536.420,243.954,542.075"/>
<path class="path-7" d="M243.954,542.075C244.201,545.659,254.716,560.876,257.092,565.071"/>
<path class="path-7" d="M257.092,565.071C264.112,576.914,270.681,591.073,271.425,604.888"/>
<path class="path-7" d="M271.425,604.888C272.100,617.415,254.363,634.523,242.899,637.056"/>
<path class="path-7" d="M242.899,637.056C229.882,639.662,192.600,627.941,180.332,621.998"/>
<path class="path-7" d="M180.332,621.998C174.691,619.467,165.059,615.624,163.040,609.312"/>
<path class="path-7" d="M163.040,609.312C161.466,605.172,165.556,586.008,167.572,581.643"/>
<path class="path-7" d="M167.572,581.643C170.585,575.717,173.183,574.534,175.116,566.994"/>
<path class="path-7" d="M175.116,566.994C177.454,556.399,175.970,544.728,175.717,533.628"/>
<path class="path-7" d="M175.717,533.628C174.926,518.430,176.700,480.598,180.102,466.221"/>
<path class="path-7" d="M180.102,466.221C182.091,456.787,187.653,424.777,185.895,416.011"/>
<path class="path-7" d="M185.895,416.011C184.801,410.290,181.049,410.961,179.662,407.264"/>
<path class="path-7" d="M179.662,407.264C177.491,400.081,186.441,394.104,192.965,393.163"/>
<path class="path-8" d="M192.965,393.163C199.200,392.133,208.645,394.298,214.989,396.381C218.023,397.377,221.990,399.189,224.495,401.169C226.638,402.864,229.009,405.697,230.402,408.100C234.127,415.045,235.495,418.168,236.150,422.879C236.826,427.737,234.672,433.486,234.585,439.152C235.217,456.655,237.862,474.718,241.283,491.361C243.268,501.536,247.714,516.086,248.945,525.615C249.857,535.180,243.208,536.420,243.954,542.075C244.201,545.659,254.716,560.876,257.092,565.071C264.112,576.914,270.681,591.073,271.425,604.888C272.100,617.415,254.363,634.523,242.899,637.056C229.882,639.662,192.600,627.941,180.332,621.998C174.691,619.467,165.059,615.624,163.040,609.312C161.466,605.172,165.556,586.008,167.572,581.643C170.585,575.717,173.183,574.534,175.116,566.994C177.454,556.399,175.970,544.728,175.717,533.628C174.926,518.430,176.700,480.598,180.102,466.221C182.091,456.787,187.653,424.777,185.895,416.011C184.801,410.290,181.049,410.961,179.662,407.264C177.491,400.081,186.441,394.104,192.965,393.163Z"/>
</g>
<g id="right_toe">
<path class="path-0" d="M164.086,661.926C164.453,643.583,168.177,619.399,189.859,613.594C194.773,612.002,202.170,613.280,207.870,613.979C238.715,617.685,248.491,626.165,252.129,657.291C252.864,664.914,255.329,673.779,251.044,681.001C245.834,689.605,214.254,697.264,204.287,697.789C189.021,698.927,176.973,697.894,167.566,683.731C162.128,675.356,163.912,671.264,164.086,661.926M258.212,627.320C248.298,609.852,205.824,600.426,187.447,605.725C159.889,613.839,156.846,638.320,156.112,662.346C155.833,669.691,153.596,677.804,157.267,684.273C159.470,688.155,164.715,692.876,168.196,695.692C184.266,709.838,194.757,706.620,214.674,705.238C226.635,704.608,246.534,702.895,255.748,694.414C262.708,687.383,262.987,680.040,262.830,670.720C262.358,661.749,262.218,633.772,258.212,627.320Z"/>
<path class="path-3" d="M189.859,613.594C194.773,612.002,202.170,613.280,207.870,613.979"/>
<path class="path-3" d="M207.870,613.979C238.715,617.685,248.491,626.165,252.129,657.291"/>
<path class="path-3" d="M252.129,657.291C252.864,664.914,255.329,673.779,251.044,681.001"/>
<path class="path-3" d="M251.044,681.001C245.834,689.605,214.254,697.264,204.287,697.789"/>
<path class="path-3" d="M204.287,697.789C189.021,698.927,176.973,697.894,167.566,683.731"/>
<path class="path-3" d="M167.566,683.731C162.128,675.356,163.912,671.264,164.086,661.926"/>
<path class="path-3" d="M164.086,661.926C164.453,643.583,168.177,619.399,189.859,613.594"/>
<path class="path-4" d="M189.859,613.594C194.773,612.002,202.170,613.280,207.870,613.979C238.715,617.685,248.491,626.165,252.129,657.291C252.864,664.914,255.329,673.779,251.044,681.001C245.834,689.605,214.254,697.264,204.287,697.789C189.021,698.927,176.973,697.894,167.566,683.731C162.128,675.356,163.912,671.264,164.086,661.926C164.453,643.583,168.177,619.399,189.859,613.594Z"/>
</g>
<g id="right_sole">
<path class="path-0" d="M193.446,704.413C195.579,704.453,212.498,703.260,214.885,703.164C216.725,703.106,225.608,703.276,227.189,703.265C228.218,703.271,236.793,703.403,237.484,703.881C236.735,704.414,227.790,705.557,227.234,705.615C225.960,705.772,195.759,706.754,195.342,706.925C194.215,706.962,182.959,706.283,181.600,705.762C182.937,704.739,191.245,704.370,193.446,704.413M242.604,691.475C243.499,692.967,242.962,696.763,240.466,697.436C237.736,698.183,225.474,700.666,221.715,699.994C217.403,699.991,211.495,700.921,207.609,700.986C199.767,701.117,184.677,705.162,179.098,699.712C177.578,697.600,177.770,695.046,178.610,693.897C179.081,693.254,184.120,693.750,187.241,693.609C193.501,693.328,204.197,693.378,210.611,693.010C217.051,692.639,227.393,691.573,233.989,690.917C235.022,690.840,241.384,689.440,242.604,691.475M249.291,685.271C235.447,680.437,225.532,682.940,211.206,683.631C202.108,684.124,183.408,682.557,173.865,688.611C171.281,690.250,167.244,693.410,167.564,696.629C167.813,699.074,171.776,703.856,174.751,705.602C178.437,707.765,185.870,707.424,188.840,707.720C203.927,709.775,223.131,707.629,238.188,705.885C249.337,704.594,251.566,700.045,252.847,694.656C253.544,691.727,254.914,687.154,249.291,685.271Z"/>
<path class="path-5" d="M193.446,704.413C195.579,704.453,212.498,703.260,214.885,703.164"/>
<path class="path-5" d="M214.885,703.164C216.725,703.106,225.608,703.276,227.189,703.265"/>
<path class="path-5" d="M227.189,703.265C228.218,703.271,236.793,703.403,237.484,703.881"/>
<path class="path-5" d="M237.484,703.881C236.735,704.414,227.790,705.557,227.234,705.615"/>
<path class="path-5" d="M227.234,705.615C225.960,705.772,195.759,706.754,195.342,706.925"/>
<path class="path-5" d="M195.342,706.925C194.215,706.962,182.959,706.283,181.600,705.762"/>
<path class="path-5" d="M181.600,705.762C182.937,704.739,191.245,704.370,193.446,704.413"/>
<path class="path-6" d="M193.446,704.413C195.579,704.453,212.498,703.260,214.885,703.164C216.725,703.106,225.608,703.276,227.189,703.265C228.218,703.271,236.793,703.403,237.484,703.881C236.735,704.414,227.790,705.557,227.234,705.615C225.960,705.772,195.759,706.754,195.342,706.925C194.215,706.962,182.959,706.283,181.600,705.762C182.937,704.739,191.245,704.370,193.446,704.413Z"/>
<path class="path-5" d="M187.241,693.609C193.501,693.328,204.197,693.378,210.611,693.010"/>
<path class="path-5" d="M210.611,693.010C217.051,692.639,227.393,691.573,233.989,690.917"/>
<path class="path-5" d="M233.989,690.917C235.022,690.840,241.384,689.440,242.604,691.475"/>
<path class="path-5" d="M242.604,691.475C243.499,692.967,242.962,696.763,240.466,697.436"/>
<path class="path-5" d="M240.466,697.436C237.736,698.183,225.474,700.666,221.715,699.994"/>
<path class="path-5" d="M221.715,699.994C217.403,699.991,211.495,700.921,207.609,700.986"/>
<path class="path-5" d="M207.609,700.986C199.767,701.117,184.677,705.162,179.098,699.712"/>
<path class="path-5" d="M179.098,699.712C177.578,697.600,177.770,695.046,178.610,693.897"/>
<path class="path-5" d="M178.610,693.897C179.081,693.254,184.120,693.750,187.241,693.609"/>
<path class="path-6" d="M187.241,693.609C193.501,693.328,204.197,693.378,210.611,693.010C217.051,692.639,227.393,691.573,233.989,690.917C235.022,690.840,241.384,689.440,242.604,691.475C243.499,692.967,242.962,696.763,240.466,697.436C237.736,698.183,225.474,700.666,221.715,699.994C217.403,699.991,211.495,700.921,207.609,700.986C199.767,701.117,184.677,705.162,179.098,699.712C177.578,697.600,177.770,695.046,178.610,693.897C179.081,693.254,184.120,693.750,187.241,693.609Z"/>
</g>
</g>
<g id="hat_brim">
<path class="path-0" d="M276.819,151.610C280.562,145.674,289.773,129.499,297.757,129.611C303.080,129.686,313.923,139.489,319.535,142.562C324.483,145.626,329.769,148.362,335.386,151.102C338.575,152.817,341.767,154.525,344.963,156.228C359.165,163.748,355.084,170.014,346.785,168.565C328.204,164.975,325.191,166.265,307.358,156.697C305.043,155.667,299.102,152.257,298.043,156.566C296.644,161.538,305.565,165.989,309.200,167.703C315.801,171.458,323.064,175.553,331.039,176.329C333.363,176.695,341.357,176.140,342.653,178.488C344.603,181.844,334.835,190.357,332.810,192.325C329.441,195.272,326.074,198.219,322.714,200.502C317.677,203.757,312.312,206.676,306.643,207.595C295.980,208.776,262.928,193.006,262.094,181.349C261.522,174.687,272.739,157.875,276.819,151.610M309.794,125.456C304.865,121.061,301.295,114.688,293.929,117.913C288.573,120.167,282.811,127.738,279.096,131.679C265.222,148.120,252.639,167.575,252.999,189.207C253.141,202.850,257.802,202.584,268.705,208.060C285.221,216.611,306.475,219.571,324.555,211.508C336.273,206.349,356.819,188.670,362.310,176.769C364.029,172.800,367.149,163.860,364.885,159.171C362.303,153.477,340.150,143.517,333.549,139.765C325.626,135.328,316.701,131.209,309.794,125.456Z"/>
<path class="path-9" d="M297.757,129.611C303.080,129.686,313.923,139.489,319.535,142.562"/>
<path class="path-9" d="M319.535,142.562C324.483,145.626,329.769,148.362,335.386,151.102"/>
<path class="path-9" d="M335.386,151.102C338.575,152.817,341.767,154.525,344.963,156.228"/>
<path class="path-9" d="M344.963,156.228C359.165,163.748,355.084,170.014,346.785,168.565"/>
<path class="path-9" d="M346.785,168.565C328.204,164.975,325.191,166.265,307.358,156.697"/>
<path class="path-9" d="M307.358,156.697C305.043,155.667,299.102,152.257,298.043,156.566"/>
<path class="path-9" d="M298.043,156.566C296.644,161.538,305.565,165.989,309.200,167.703"/>
<path class="path-9" d="M309.200,167.703C315.801,171.458,323.064,175.553,331.039,176.329"/>
<path class="path-9" d="M331.039,176.329C333.363,176.695,341.357,176.140,342.653,178.488"/>
<path class="path-9" d="M342.653,178.488C344.603,181.844,334.835,190.357,332.810,192.325"/>
<path class="path-9" d="M332.810,192.325C329.441,195.272,326.074,198.219,322.714,200.502"/>
<path class="path-9" d="M322.714,200.502C317.677,203.757,312.312,206.676,306.643,207.595"/>
<path class="path-9" d="M306.643,207.595C295.980,208.776,262.928,193.006,262.094,181.349"/>
<path class="path-9" d="M262.094,181.349C261.522,174.687,272.739,157.875,276.819,151.610"/>
<path class="path-9" d="M276.819,151.610C280.562,145.674,289.773,129.499,297.757,129.611"/>
<path class="path-10" d="M297.757,129.611C303.080,129.686,313.923,139.489,319.535,142.562C324.483,145.626,329.769,148.362,335.386,151.102C338.575,152.817,341.767,154.525,344.963,156.228C359.165,163.748,355.084,170.014,346.785,168.565C328.204,164.975,325.191,166.265,307.358,156.697C305.043,155.667,299.102,152.257,298.043,156.566C296.644,161.538,305.565,165.989,309.200,167.703C315.801,171.458,323.064,175.553,331.039,176.329C333.363,176.695,341.357,176.140,342.653,178.488C344.603,181.844,334.835,190.357,332.810,192.325C329.441,195.272,326.074,198.219,322.714,200.502C317.677,203.757,312.312,206.676,306.643,207.595C295.980,208.776,262.928,193.006,262.094,181.349C261.522,174.687,272.739,157.875,276.819,151.610C280.562,145.674,289.773,129.499,297.757,129.611Z"/>
</g>
<g id="hair">
<path class="path-0" d="M176.455,137.637C193.856,125.613,213.790,124.340,234.866,123.304C244.314,122.821,250.855,129.190,258.142,135.426C264.128,140.897,270.566,147.064,276.924,152.805C286.493,161.386,290.510,165.700,294.088,169.824C297.145,172.985,301.904,178.895,305.708,181.693C310.298,185.067,319.608,202.107,321.663,204.024C315.048,206.320,304.639,208.064,299.887,211.949C301.592,217.761,302.016,226.786,302.050,229.495C295.847,229.979,288.606,227.234,277.131,225.250C274.863,232.455,274.936,239.184,270.299,246.516C262.573,244.238,257.190,242.394,247.183,238.039C240.656,243.298,239.112,242.903,228.477,249.520C221.343,245.245,215.648,240.669,208.707,237.886C201.960,240.837,191.231,241.950,187.616,244.909C183.747,237.905,180.179,230.165,176.894,226.821C167.318,228.872,163.228,231.534,156.475,234.057C152.208,228.580,155.180,224.008,150.429,215.945C146.090,214.813,139.379,212.254,133.818,212.193C137.621,207.671,140.328,192.902,146.811,190.979C154.811,188.607,149.664,179.515,154.525,171.276C155.728,169.133,167.363,152.706,168.396,150.028C170.358,145.409,172.506,140.507,176.455,137.637M262.647,122.765C250.331,113.443,225.596,108.527,211.744,111.877C199.030,114.799,186.577,118.910,175.571,126.173C169.407,130.180,162.602,136.069,158.534,142.205C150.405,154.125,138.733,180.157,132.138,192.221C126.866,202.225,121.919,208.990,116.815,214.435C134.476,220.740,139.637,223.362,144.890,224.130C145.269,231.883,152.462,237.592,151.280,246.158C160.080,244.794,165.309,242.529,173.128,240.525C177.138,245.152,179.927,251.460,183.768,257.635C191.471,255.489,199.364,255.731,206.968,250.227C212.515,253.205,221.325,257.830,230.378,262.726C238.650,258.255,240.426,257.991,248.183,252.889C257.676,255.166,267.670,260.975,277.212,259.900C276.487,251.719,282.509,246.059,281.769,240.812C288.959,238.840,311.041,241.905,314.806,241.560C314.542,235.514,311.142,223.960,312.665,216.746C319.462,214.894,325.208,213.210,335.813,208.043C332.297,201.371,326.012,193.098,320.516,188.178C315.877,184.065,312.087,178.602,307.443,174.315C291.698,160.016,285.430,140.094,262.647,122.765Z"/>
<path class="path-11" d="M234.866,123.304C244.314,122.821,250.855,129.190,258.142,135.426"/>
<path class="path-11" d="M258.142,135.426C264.128,140.897,270.566,147.064,276.924,152.805"/>
<path class="path-11" d="M276.924,152.805C286.493,161.386,290.510,165.700,294.088,169.824"/>
<path class="path-11" d="M294.088,169.824C297.145,172.985,301.904,178.895,305.708,181.693"/>
<path class="path-11" d="M305.708,181.693C310.298,185.067,319.608,202.107,321.663,204.024"/>
<path class="path-11" d="M321.663,204.024C315.048,206.320,304.639,208.064,299.887,211.949"/>
<path class="path-11" d="M299.887,211.949C301.592,217.761,302.016,226.786,302.050,229.495"/>
<path class="path-11" d="M302.050,229.495C295.847,229.979,288.606,227.234,277.131,225.250"/>
<path class="path-11" d="M277.131,225.250C274.863,232.455,274.936,239.184,270.299,246.516"/>
<path class="path-11" d="M270.299,246.516C262.573,244.238,257.190,242.394,247.183,238.039"/>
<path class="path-11" d="M247.183,238.039C240.656,243.298,239.112,242.903,228.477,249.520"/>
<path class="path-11" d="M228.477,249.520C221.343,245.245,215.648,240.669,208.707,237.886"/>
<path class="path-11" d="M208.707,237.886C201.960,240.837,191.231,241.950,187.616,244.909"/>
<path class="path-11" d="M187.616,244.909C183.747,237.905,180.179,230.165,176.894,226.821"/>
<path class="path-11" d="M176.894,226.821C167.318,228.872,163.228,231.534,156.475,234.057"/>
<path class="path-11" d="M156.475,234.057C152.208,228.580,155.180,224.008,150.429,215.945"/>
<path class="path-11" d="M150.429,215.945C146.090,214.813,139.379,212.254,133.818,212.193"/>
<path class="path-11" d="M133.818,212.193C137.621,207.671,140.328,192.902,146.811,190.979"/>
<path class="path-11" d="M146.811,190.979C154.811,188.607,149.664,179.515,154.525,171.276"/>
<path class="path-11" d="M154.525,171.276C155.728,169.133,167.363,152.706,168.396,150.028"/>
<path class="path-11" d="M168.396,150.028C170.358,145.409,172.506,140.507,176.455,137.637"/>
<path class="path-11" d="M176.455,137.637C193.856,125.613,213.790,124.340,234.866,123.304"/>
<path class="path-12" d="M234.866,123.304C244.314,122.821,250.855,129.190,258.142,135.426C264.128,140.897,270.566,147.064,276.924,152.805C286.493,161.386,290.510,165.700,294.088,169.824C297.145,172.985,301.904,178.895,305.708,181.693C310.298,185.067,319.608,202.107,321.663,204.024C315.048,206.320,304.639,208.064,299.887,211.949C301.592,217.761,302.016,226.786,302.050,229.495C295.847,229.979,288.606,227.234,277.131,225.250C274.863,232.455,274.936,239.184,270.299,246.516C262.573,244.238,257.190,242.394,247.183,238.039C240.656,243.298,239.112,242.903,228.477,249.520C221.343,245.245,215.648,240.669,208.707,237.886C201.960,240.837,191.231,241.950,187.616,244.909C183.747,237.905,180.179,230.165,176.894,226.821C167.318,228.872,163.228,231.534,156.475,234.057C152.208,228.580,155.180,224.008,150.429,215.945C146.090,214.813,139.379,212.254,133.818,212.193C137.621,207.671,140.328,192.902,146.811,190.979C154.811,188.607,149.664,179.515,154.525,171.276C155.728,169.133,167.363,152.706,168.396,150.028C170.358,145.409,172.506,140.507,176.455,137.637C193.856,125.613,213.790,124.340,234.866,123.304Z"/>
</g>
<g id="clothes">
<path class="path-0" d="M239.574,370.559C234.915,368.476,216.972,360.251,214.092,364.695C211.654,368.715,216.281,369.621,220.338,370.155C223.934,370.628,242.087,378.797,244.556,377.217C249.116,374.222,241.826,371.450,239.574,370.559M187.113,266.711C190.119,254.072,217.080,241.124,230.054,242.135C239.036,242.809,267.304,256.811,271.288,265.133C274.607,271.790,275.582,296.410,275.907,304.729C276.224,320.034,275.917,335.504,278.188,350.643C280.226,360.870,283.960,370.760,288.332,380.227C289.904,385.288,296.573,397.444,293.092,402.120C287.393,410.583,262.616,408.475,253.654,405.659C222.349,396.752,228.057,386.235,197.583,384.455C194.158,384.124,183.013,387.159,180.675,385.830C176.680,382.905,178.355,377.168,179.359,372.508C182.365,360.864,185.695,353.211,187.372,340.567C189.383,324.600,190.069,307.301,190.085,290.667C189.757,284.678,186.445,270.369,187.113,266.711M265.979,248.159C249.685,238.493,233.723,230.493,214.088,236.132C208.763,237.456,182.136,250.405,179.803,253.731C176.140,259.051,179.781,279.345,179.774,286.664C180.099,295.314,180.423,304.296,179.748,312.613C179.410,318.935,178.073,324.589,178.066,330.577C177.726,337.230,178.385,344.550,176.715,350.538C173.377,362.185,159.203,384.263,172.361,393.811C177.596,397.640,186.136,395.819,192.912,396.825C203.807,398.230,215.193,401.257,225.904,404.364C238.758,408.482,249.553,419.098,263.148,420.447C272.706,421.398,304.035,419.474,308.741,410.484C311.876,404.807,301.201,377.841,298.419,371.061C294.392,362.442,289.572,353.952,287.508,344.665C285.236,332.900,285.205,321.041,285.883,308.732C286.226,298.751,287.899,289.104,287.909,278.789C287.580,274.463,288.251,269.142,285.925,264.814C281.940,256.825,273.295,252.490,265.979,248.159Z"/>
<path class="path-13" d="M239.574,370.559C234.915,368.476,216.972,360.251,214.092,364.695"/>
<path class="path-13" d="M214.092,364.695C211.654,368.715,216.281,369.621,220.338,370.155"/>
<path class="path-13" d="M220.338,370.155C223.934,370.628,242.087,378.797,244.556,377.217"/>
<path class="path-13" d="M244.556,377.217C249.116,374.222,241.826,371.450,239.574,370.559"/>
<path class="path-13" d="M187.113,266.711C190.119,254.072,217.080,241.124,230.054,242.135"/>
<path class="path-13" d="M230.054,242.135C239.036,242.809,267.304,256.811,271.288,265.133"/>
<path class="path-13" d="M271.288,265.133C274.607,271.790,275.582,296.410,275.907,304.729"/>
<path class="path-13" d="M275.907,304.729C276.224,320.034,275.917,335.504,278.188,350.643"/>
<path class="path-13" d="M278.188,350.643C280.226,360.870,283.960,370.760,288.332,380.227"/>
<path class="path-13" d="M288.332,380.227C289.904,385.288,296.573,397.444,293.092,402.120"/>
<path class="path-13" d="M293.092,402.120C287.393,410.583,262.616,408.475,253.654,405.659"/>
<path class="path-13" d="M253.654,405.659C222.349,396.752,228.057,386.235,197.583,384.455"/>
<path class="path-13" d="M197.583,384.455C194.158,384.124,183.013,387.159,180.675,385.830"/>
<path class="path-13" d="M180.675,385.830C176.680,382.905,178.355,377.168,179.359,372.508"/>
<path class="path-13" d="M179.359,372.508C182.365,360.864,185.695,353.211,187.372,340.567"/>
<path class="path-13" d="M187.372,340.567C189.383,324.600,190.069,307.301,190.085,290.667"/>
<path class="path-13" d="M190.085,290.667C189.757,284.678,186.445,270.369,187.113,266.711"/>
<path class="path-14" d="M239.574,370.559C234.915,368.476,216.972,360.251,214.092,364.695C211.654,368.715,216.281,369.621,220.338,370.155C223.934,370.628,242.087,378.797,244.556,377.217C249.116,374.222,241.826,371.450,239.574,370.559M187.113,266.711C190.119,254.072,217.080,241.124,230.054,242.135C239.036,242.809,267.304,256.811,271.288,265.133C274.607,271.790,275.582,296.410,275.907,304.729C276.224,320.034,275.917,335.504,278.188,350.643C280.226,360.870,283.960,370.760,288.332,380.227C289.904,385.288,296.573,397.444,293.092,402.120C287.393,410.583,262.616,408.475,253.654,405.659C222.349,396.752,228.057,386.235,197.583,384.455C194.158,384.124,183.013,387.159,180.675,385.830C176.680,382.905,178.355,377.168,179.359,372.508C182.365,360.864,185.695,353.211,187.372,340.567C189.383,324.600,190.069,307.301,190.085,290.667C189.757,284.678,186.445,270.369,187.113,266.711Z"/>
</g>
<g id="neck">
<path class="path-0" d="M222.557,223.691C222.628,220.348,223.387,217.284,227.009,216.664C238.460,213.758,240.423,251.315,229.811,252.153C219.861,252.939,222.392,230.044,222.557,223.691M226.276,207.379C223.597,207.256,220.664,208.154,218.447,209.665C209.526,215.040,211.534,223.560,212.214,232.183C212.223,236.521,212.870,240.475,211.168,244.280C209.772,247.728,205.388,251.410,205.676,255.060C206.794,264.984,233.660,262.863,240.598,261.980C243.251,261.771,252.284,262.059,252.991,258.333C252.912,257.338,245.363,246.252,244.002,241.688C239.917,227.993,247.582,206.698,226.276,207.379Z"/>
<path class="path-15" d="M227.009,216.664C238.460,213.758,240.423,251.315,229.811,252.153"/>
<path class="path-15" d="M229.811,252.153C219.861,252.939,222.392,230.044,222.557,223.691"/>
<path class="path-15" d="M222.557,223.691C222.628,220.348,223.387,217.284,227.009,216.664"/>
<path class="path-16" d="M227.009,216.664C238.460,213.758,240.423,251.315,229.811,252.153C219.861,252.939,222.392,230.044,222.557,223.691C222.628,220.348,223.387,217.284,227.009,216.664Z"/>
</g>
<g id="layer_head">
<g id="right_ear">
<path class="path-0" d="M142.697,192.926C128.148,193.562,113.389,159.095,134.915,160.514C138.406,160.744,141.266,166.631,141.834,169.235C143.943,178.912,153.102,192.472,142.697,192.926M140.554,149.011C137.258,146.976,133.179,146.255,129.609,147.760C118.690,150.430,112.746,163.231,114.559,174.383C116.719,186.825,130.411,200.682,141.908,203.050C144.943,203.691,151.198,205.854,154.102,204.336C160.787,200.294,154.029,189.968,152.109,184.146C150.201,177.907,145.243,153.152,140.554,149.011Z"/>
<path class="path-15" d="M134.915,160.514C138.406,160.744,141.266,166.631,141.834,169.235"/>
<path class="path-15" d="M141.834,169.235C143.943,178.912,153.102,192.472,142.697,192.926"/>
<path class="path-15" d="M142.697,192.926C128.148,193.562,113.389,159.095,134.915,160.514"/>
<path class="path-16" d="M134.915,160.514C138.406,160.744,141.266,166.631,141.834,169.235C143.943,178.912,153.102,192.472,142.697,192.926C128.148,193.562,113.389,159.095,134.915,160.514Z"/>
</g>
<g id="face_Mask">
<g id="face">
<path class="path-0" d="M159.364,104.376C167.996,94.048,200.863,87.324,214.529,85.520C229.860,83.739,245.462,86.288,260.367,91.155C265.667,92.894,273.289,94.997,277.894,98.722C285.788,105.155,290.732,116.499,293.477,125.891C295.662,132.712,299.640,141.905,297.677,148.383C288.761,177.805,284.629,191.404,278.597,199.576C271.151,209.665,257.871,213.260,246.237,217.649C234.523,221.880,222.680,223.102,216.569,222.640C204.272,221.710,177.843,215.299,168.854,207.647C158.080,198.126,157.135,183.800,152.876,170.705C150.450,163.963,146.331,153.863,145.070,146.958C143.226,135.879,152.260,112.799,159.364,104.376M282.019,91.103C268.575,78.693,232.351,75.372,214.681,77.768C206.349,78.641,198.354,79.187,190.674,81.071C184.991,82.653,179.959,85.241,174.609,86.829C162.903,90.989,158.112,89.483,150.131,100.136C144.403,107.592,135.113,137.164,136.042,146.361C136.861,153.261,144.236,168.567,146.592,176.304C149.655,186.571,151.837,201.336,158.337,209.372C165.666,218.168,175.737,222.838,191.190,227.144C202.396,230.267,214.830,231.301,226.805,231.670C231.209,232.076,239.433,229.709,251.358,224.962C263.524,219.942,276.941,215.810,285.416,204.607C295.507,191.269,299.562,169.145,308.223,147.087C315.410,128.784,290.399,98.671,282.019,91.103Z"/>
<path class="path-15" d="M214.529,85.520C229.860,83.739,245.462,86.288,260.367,91.155"/>
<path class="path-15" d="M260.367,91.155C265.667,92.894,273.289,94.997,277.894,98.722"/>
<path class="path-15" d="M277.894,98.722C285.788,105.155,290.732,116.499,293.477,125.891"/>
<path class="path-15" d="M293.477,125.891C295.662,132.712,299.640,141.905,297.677,148.383"/>
<path class="path-15" d="M297.677,148.383C288.761,177.805,284.629,191.404,278.597,199.576"/>
<path class="path-15" d="M278.597,199.576C271.151,209.665,257.871,213.260,246.237,217.649"/>
<path class="path-15" d="M246.237,217.649C234.523,221.880,222.680,223.102,216.569,222.640"/>
<path class="path-15" d="M216.569,222.640C204.272,221.710,177.843,215.299,168.854,207.647"/>
<path class="path-15" d="M168.854,207.647C158.080,198.126,157.135,183.800,152.876,170.705"/>
<path class="path-15" d="M152.876,170.705C150.450,163.963,146.331,153.863,145.070,146.958"/>
<path class="path-15" d="M145.070,146.958C143.226,135.879,152.260,112.799,159.364,104.376"/>
<path class="path-15" d="M159.364,104.376C167.996,94.048,200.863,87.324,214.529,85.520"/>
<path class="path-16" d="M214.529,85.520C229.860,83.739,245.462,86.288,260.367,91.155C265.667,92.894,273.289,94.997,277.894,98.722C285.788,105.155,290.732,116.499,293.477,125.891C295.662,132.712,299.640,141.905,297.677,148.383C288.761,177.805,284.629,191.404,278.597,199.576C271.151,209.665,257.871,213.260,246.237,217.649C234.523,221.880,222.680,223.102,216.569,222.640C204.272,221.710,177.843,215.299,168.854,207.647C158.080,198.126,157.135,183.800,152.876,170.705C150.450,163.963,146.331,153.863,145.070,146.958C143.226,135.879,152.260,112.799,159.364,104.376C167.996,94.048,200.863,87.324,214.529,85.520Z"/>
</g>
</g>
<mask id="mask_target" style="mask-type:alpha;">
<use xlink:href="#face_Mask"/>
</mask>
<g id="mouse">
<path class="path-0" d="M224.031,214.497C229.219,215.674,229.236,220.428,228.755,220.928C228.484,221.210,227.375,220.244,224.422,219.715C218.829,218.715,216.107,219.849,215.920,219.132C215.714,218.346,217.957,213.119,224.031,214.497Z"/>
</g>
<g id="layer_eyes_Mtarget" mask="url(#mask_target)">
<g id="eyes">
<mask style="mask-type:alpha;" id="f3906406-f197-4bf1-91d8-744c09cca836">
<use xlink:href="#cmn_f3906406-f197-4bf1-91d8-744c09cca836"/>
</mask>
<g id="cmn_f3906406-f197-4bf1-91d8-744c09cca836">
<path class="path-0" d="M202.198,174.104C203.725,187.033,195.196,195.399,182.285,191.794C174.817,189.487,171.517,183.935,168.941,177.193C167.419,173.642,160.016,157.408,165.719,159.348C170.371,160.932,201.644,169.413,202.198,174.104M208.810,177.273C209.721,175.778,211.024,173.524,210.801,171.787C210.552,169.845,209.003,166.732,207.035,166.456C201.695,165.584,182.947,159.167,176.190,156.568C169.444,154.139,155.989,145.783,151.607,152.636C149.966,155.081,153.829,155.794,155.127,159.689C161.439,178.645,166.944,196.310,187.499,197.575C205.260,198.668,204.214,184.812,208.810,177.273M251.348,187.643C244.260,187.413,234.975,181.903,235.172,170.854C235.231,167.522,248.765,162.430,254.844,159.279C260.809,156.186,272.174,149.917,275.250,150.047C278.728,150.613,276.924,153.682,276.836,163.309C276.704,177.670,264.286,188.063,251.348,187.643M282.846,169.713C285.936,157.683,286.571,141.552,284.239,140.480C279.280,138.200,266.494,147.377,259.041,150.692C249.276,155.035,233.729,164.242,227.021,166.310C225.079,166.986,223.328,167.513,223.051,168.909C222.500,171.680,227.745,173.555,229.512,175.760C232.642,179.664,233.539,186.738,238.737,189.657C248.554,195.577,256.047,193.409,266.969,188.592C275.492,184.873,280.663,178.212,282.846,169.713Z"/>
<path class="path-17" d="M275.250,150.047C278.728,150.613,276.924,153.682,276.836,163.309"/>
<path class="path-17" d="M276.836,163.309C276.704,177.670,264.286,188.063,251.348,187.643"/>
<path class="path-17" d="M251.348,187.643C244.260,187.413,234.975,181.903,235.172,170.854"/>
<path class="path-17" d="M235.172,170.854C235.231,167.522,248.765,162.430,254.844,159.279"/>
<path class="path-17" d="M254.844,159.279C260.809,156.186,272.174,149.917,275.250,150.047"/>
<path class="path-18" d="M275.250,150.047C278.728,150.613,276.924,153.682,276.836,163.309C276.704,177.670,264.286,188.063,251.348,187.643C244.260,187.413,234.975,181.903,235.172,170.854C235.231,167.522,248.765,162.430,254.844,159.279C260.809,156.186,272.174,149.917,275.250,150.047Z"/>
<path class="path-17" d="M165.719,159.348C170.371,160.932,201.644,169.413,202.198,174.104"/>
<path class="path-17" d="M202.198,174.104C203.725,187.033,195.196,195.399,182.285,191.794"/>
<path class="path-17" d="M182.285,191.794C174.817,189.487,171.517,183.935,168.941,177.193"/>
<path class="path-17" d="M168.941,177.193C167.419,173.642,160.016,157.408,165.719,159.348"/>
<path class="path-18" d="M165.719,159.348C170.371,160.932,201.644,169.413,202.198,174.104C203.725,187.033,195.196,195.399,182.285,191.794C174.817,189.487,171.517,183.935,168.941,177.193C167.419,173.642,160.016,157.408,165.719,159.348Z"/>
</g>
</g>
<g id="pupil">
<path class="path-0" d="M241.089,164.058C243.368,163.519,246.545,166.697,247.288,175.114C247.849,181.468,246.123,184.049,244.363,184.224C242.461,184.414,240.852,181.801,239.664,175.007C238.397,167.756,239.103,164.528,241.089,164.058Z" mask="url(#f3906406-f197-4bf1-91d8-744c09cca836)"/>
<path class="path-0" d="M194.064,166.376C196.410,166.108,198.169,169.979,198.605,178.764C198.853,183.763,198.276,185.790,196.967,186.091C195.406,186.450,193.313,184.469,191.987,178.649C190.144,170.558,191.852,166.629,194.064,166.376Z" mask="url(#f3906406-f197-4bf1-91d8-744c09cca836)"/>
</g>
</g>
<g id="hat">
<path class="path-0" d="M297.503,123.952C299.481,125.311,302.442,127.681,302.738,130.348C303.980,136.686,293.012,135.867,289.680,136.154C283.027,136.060,276.076,135.769,269.720,135.873C264.627,136.419,259.533,136.925,254.431,137.377C246.208,137.466,237.997,137.139,229.777,136.975C215.133,137.256,200.505,136.613,185.865,136.357C184.576,136.387,144.883,140.439,138.282,136.687C129.696,131.909,138.772,125.380,138.501,121.052C138.553,117.391,130.583,116.282,132.667,109.990C134.747,104.030,156.093,100.338,162.433,99.095C174.779,96.607,187.472,93.125,200.473,91.311C218.808,88.907,237.765,89.507,256.417,88.104C268.740,87.279,296.903,95.661,302.048,108.378C306.555,119.088,290.063,108.875,288.077,108.182C286.759,107.165,282.131,105.104,283.087,108.112C284.005,113.780,293.558,120.568,297.503,123.952M180.574,86.707C170.202,89.132,160.554,90.750,150.541,92.939C146.202,93.876,140.843,96.462,136.884,94.078C127.972,88.962,137.941,66.144,142.351,60.217C156.925,41.123,188.016,33.311,213.263,33.596C258.196,34.103,275.709,41.130,290.469,56.310C295.067,60.699,311.395,82.557,302.662,88.423C299.307,90.372,293.375,86.296,290.400,84.923C280.148,80.453,238.933,73.063,180.574,86.707M239.360,23.316C232.379,22.885,230.735,21.532,223.406,22.094C192.089,24.982,149.823,25.717,130.767,55.728C124.639,65.624,124.480,76.935,122.335,87.551C120.550,96.177,115.466,102.761,116.343,111.424C117.243,118.424,120.213,120.129,122.468,125.484C125.049,131.177,123.680,133.820,125.293,137.503C128.803,148.199,138.458,147.758,147.774,147.801C152.625,147.824,170.520,147.938,180.268,147.899C192.186,147.850,208.077,147.659,219.994,147.442C229.128,147.276,241.307,147.031,250.436,146.693C258.825,146.382,270.014,145.949,278.385,145.317C288.662,144.541,311.354,143.028,312.559,141.798C314.723,139.626,318.879,118.264,318.935,114.272C318.982,110.944,317.366,107.596,317.441,102.272C317.313,87.631,317.171,73.986,309.048,60.231C294.091,35.399,266.611,25.696,239.360,23.316Z"/>
<path class="path-19" d="M256.417,88.104C268.740,87.279,296.903,95.661,302.048,108.378"/>
<path class="path-19" d="M302.048,108.378C306.555,119.088,290.063,108.875,288.077,108.182"/>
<path class="path-19" d="M288.077,108.182C286.759,107.165,282.131,105.104,283.087,108.112"/>
<path class="path-19" d="M283.087,108.112C284.005,113.780,293.558,120.568,297.503,123.952"/>
<path class="path-19" d="M297.503,123.952C299.481,125.311,302.442,127.681,302.738,130.348"/>
<path class="path-19" d="M302.738,130.348C303.980,136.686,293.012,135.867,289.680,136.154"/>
<path class="path-19" d="M289.680,136.154C283.027,136.060,276.076,135.769,269.720,135.873"/>
<path class="path-19" d="M269.720,135.873C264.627,136.419,259.533,136.925,254.431,137.377"/>
<path class="path-19" d="M254.431,137.377C246.208,137.466,237.997,137.139,229.777,136.975"/>
<path class="path-19" d="M229.777,136.975C215.133,137.256,200.505,136.613,185.865,136.357"/>
<path class="path-19" d="M185.865,136.357C184.576,136.387,144.883,140.439,138.282,136.687"/>
<path class="path-19" d="M138.282,136.687C129.696,131.909,138.772,125.380,138.501,121.052"/>
<path class="path-19" d="M138.501,121.052C138.553,117.391,130.583,116.282,132.667,109.990"/>
<path class="path-19" d="M132.667,109.990C134.747,104.030,156.093,100.338,162.433,99.095"/>
<path class="path-19" d="M162.433,99.095C174.779,96.607,187.472,93.125,200.473,91.311"/>
<path class="path-19" d="M200.473,91.311C218.808,88.907,237.765,89.507,256.417,88.104"/>
<path class="path-20" d="M256.417,88.104C268.740,87.279,296.903,95.661,302.048,108.378C306.555,119.088,290.063,108.875,288.077,108.182C286.759,107.165,282.131,105.104,283.087,108.112C284.005,113.780,293.558,120.568,297.503,123.952C299.481,125.311,302.442,127.681,302.738,130.348C303.980,136.686,293.012,135.867,289.680,136.154C283.027,136.060,276.076,135.769,269.720,135.873C264.627,136.419,259.533,136.925,254.431,137.377C246.208,137.466,237.997,137.139,229.777,136.975C215.133,137.256,200.505,136.613,185.865,136.357C184.576,136.387,144.883,140.439,138.282,136.687C129.696,131.909,138.772,125.380,138.501,121.052C138.553,117.391,130.583,116.282,132.667,109.990C134.747,104.030,156.093,100.338,162.433,99.095C174.779,96.607,187.472,93.125,200.473,91.311C218.808,88.907,237.765,89.507,256.417,88.104Z"/>
<path class="path-9" d="M213.263,33.596C258.196,34.103,275.709,41.130,290.469,56.310"/>
<path class="path-9" d="M290.469,56.310C295.067,60.699,311.395,82.557,302.662,88.423"/>
<path class="path-9" d="M302.662,88.423C299.307,90.372,293.375,86.296,290.400,84.923"/>
<path class="path-9" d="M290.400,84.923C280.148,80.453,238.933,73.063,180.574,86.707"/>
<path class="path-9" d="M180.574,86.707C170.202,89.132,160.554,90.750,150.541,92.939"/>
<path class="path-9" d="M150.541,92.939C146.202,93.876,140.843,96.462,136.884,94.078"/>
<path class="path-9" d="M136.884,94.078C127.972,88.962,137.941,66.144,142.351,60.217"/>
<path class="path-9" d="M142.351,60.217C156.925,41.123,188.016,33.311,213.263,33.596"/>
<path class="path-10" d="M213.263,33.596C258.196,34.103,275.709,41.130,290.469,56.310C295.067,60.699,311.395,82.557,302.662,88.423C299.307,90.372,293.375,86.296,290.400,84.923C280.148,80.453,238.933,73.063,180.574,86.707C170.202,89.132,160.554,90.750,150.541,92.939C146.202,93.876,140.843,96.462,136.884,94.078C127.972,88.962,137.941,66.144,142.351,60.217C156.925,41.123,188.016,33.311,213.263,33.596Z"/>
</g>
<g id="left_ear">
<path class="path-0" d="M296.280,188.610C295.222,184.755,305.287,160.641,306.937,158.436C311.969,151.715,323.420,162.302,324.338,168.798C325.315,176.918,313.447,184.689,306.746,189.377C301.868,192.680,297.632,193.535,296.280,188.610M332.597,172.907C334.439,160.290,323.723,143.364,311.349,145.990C298.279,148.764,296.759,166.081,292.622,176.338C290.893,180.971,288.167,185.592,287.435,190.239C285.988,198.538,289.211,205.902,298.555,204.037C311.904,201.230,330.069,187.179,332.597,172.907Z"/>
<path class="path-15" d="M306.937,158.436C311.969,151.715,323.420,162.302,324.338,168.798"/>
<path class="path-15" d="M324.338,168.798C325.315,176.918,313.447,184.689,306.746,189.377"/>
<path class="path-15" d="M306.746,189.377C301.868,192.680,297.632,193.535,296.280,188.610"/>
<path class="path-15" d="M296.280,188.610C295.222,184.755,305.287,160.641,306.937,158.436"/>
<path class="path-16" d="M306.937,158.436C311.969,151.715,323.420,162.302,324.338,168.798C325.315,176.918,313.447,184.689,306.746,189.377C301.868,192.680,297.632,193.535,296.280,188.610C295.222,184.755,305.287,160.641,306.937,158.436Z"/>
</g>
<g id="earrings">
<path class="path-0" d="M316.819,206.606C307.855,209.485,306.644,189.618,310.446,190.302C315.667,192.590,319.398,202.715,316.819,206.606M325.474,199.290C318.603,197.911,316.419,189.341,316.290,185.357C323.847,187.878,332.970,194.654,325.474,199.290M333.447,194.331C331.277,186.598,320.527,180.954,313.047,178.072C310.806,177.209,305.527,185.513,305.120,188.006C303.877,191.859,302.143,214.272,315.654,212.731C321.157,211.857,335.203,200.587,333.447,194.331Z"/>
<path class="path-21" d="M316.290,185.357C323.847,187.878,332.970,194.654,325.474,199.290"/>
<path class="path-21" d="M325.474,199.290C318.603,197.911,316.419,189.341,316.290,185.357"/>
<path class="path-22" d="M316.290,185.357C323.847,187.878,332.970,194.654,325.474,199.290C318.603,197.911,316.419,189.341,316.290,185.357Z"/>
<path class="path-21" d="M310.446,190.302C315.667,192.590,319.398,202.715,316.819,206.606"/>
<path class="path-21" d="M316.819,206.606C307.855,209.485,306.644,189.618,310.446,190.302"/>
<path class="path-22" d="M310.446,190.302C315.667,192.590,319.398,202.715,316.819,206.606C307.855,209.485,306.644,189.618,310.446,190.302Z"/>
</g>
</g>
<g id="jacket">
<path class="path-0" d="M198.422,271.379C201.078,275.707,198.403,286.018,198.398,290.675C196.380,307.643,193.378,323.894,193.679,340.581C193.870,344.547,192.631,351.486,190.711,355.686C189.328,358.711,186.785,363.311,184.013,364.523C180.596,365.956,179.178,359.214,178.255,356.367C176.979,352.431,178.119,345.184,178.372,342.563C179.204,337.355,181.780,327.262,181.642,320.611C181.556,314.082,178.053,307.818,177.382,300.649C176.445,295.290,175.024,288.970,173.904,283.006C173.942,279.856,174.478,277.906,174.549,275.680C174.218,270.199,176.879,268.806,182.124,268.368C186.966,268.308,196.763,266.056,198.422,271.379M254.648,281.072C256.319,277.418,282.223,259.917,285.586,258.169C293.930,254.325,298.065,263.632,297.987,269.039C297.976,277.719,283.191,306.314,284.883,312.311C285.474,314.996,287.589,316.281,289.267,317.939C302.267,332.097,296.227,323.557,309.821,329.816C316.129,332.784,328.030,341.446,333.419,345.651C336.736,348.573,344.301,355.037,346.163,358.741C347.281,361.558,348.352,366.781,344.071,367.996C342.600,368.615,326.502,367.735,323.765,367.830C311.427,367.591,298.098,368.299,287.766,359.984C284.435,356.992,281.788,352.651,279.133,348.652C269.512,334.669,262.878,319.032,257.924,302.726C255.938,297.061,252.638,287.063,254.648,281.072M271.264,255.898C268.215,259.029,262.151,264.095,259.980,265.111C252.081,268.304,250.535,258.763,250.019,252.802C249.759,247.654,252.735,240.364,255.815,236.018C258.529,232.190,262.904,226.941,268.003,226.215C274.434,225.064,285.332,231.888,283.952,239.194C283.535,242.551,275.654,251.390,271.264,255.898M189.200,234.228C194.114,238.154,197.677,242.860,196.841,247.334C196.053,251.549,192.986,253.918,185.791,256.397C174.477,260.295,165.532,242.944,169.046,235.796C171.721,230.354,182.884,229.182,189.200,234.228M360.433,364.424C356.516,358.255,354.544,353.627,349.265,348.118C341.248,339.917,331.646,330.667,321.701,325.070C311.786,319.822,303.909,321.410,297.256,310.598C291.393,301.432,295.568,291.150,297.034,280.812C297.398,277.118,298.045,258.241,298.120,254.854C297.675,251.440,298.090,247.994,297.582,244.866C297.083,241.005,297.592,236.880,296.267,233.220C294.279,226.565,287.299,223.564,281.981,220.234C274.667,216.236,268.348,214.337,260.034,216.223C250.921,218.303,247.806,228.452,245.233,235.197C241.312,245.477,243.383,260.848,243.782,271.844C244.010,278.137,245.077,286.860,245.967,292.721C249.054,315.465,272.417,363.681,293.716,372.635C298.381,374.962,329.842,379.080,339.704,379.114C345.800,379.167,348.885,379.039,354.463,381.044C357.184,382.143,363.942,385.305,366.509,382.562C370.371,378.699,362.576,367.802,360.433,364.424M203.116,234.113C199.824,228.366,194.394,218.821,187.620,218.387C181.224,218.183,171.500,219.489,165.706,222.874C162.214,224.915,156.923,228.686,156.544,232.765C155.841,238.845,158.417,246.111,161.496,250.802C163.266,253.498,167.563,255.409,169.651,257.809C170.745,259.139,174.840,266.455,175.573,268.460C179.606,278.603,175.172,290.652,174.570,300.143C174.069,308.042,172.740,318.520,172.098,326.409C171.363,335.432,170.737,346.668,170.036,356.514C169.750,358.788,169.682,363.861,169.919,366.997C170.167,370.278,170.028,376.404,171.696,377.818C172.541,378.534,182.729,379.938,186.897,378.087C191.111,376.214,194.478,376.069,196.987,366.489C199.867,354.319,201.675,343.199,202.026,330.554C202.056,308.961,208.480,279.901,207.750,266.732C207.417,260.720,208.479,256.724,207.238,248.337C206.621,244.876,205.324,237.969,203.116,234.113Z"/>
<path class="path-1" d="M285.586,258.169C293.930,254.325,298.065,263.632,297.987,269.039"/>
<path class="path-1" d="M297.987,269.039C297.976,277.719,283.191,306.314,284.883,312.311"/>
<path class="path-1" d="M284.883,312.311C285.474,314.996,287.589,316.281,289.267,317.939"/>
<path class="path-1" d="M289.267,317.939C302.267,332.097,296.227,323.557,309.821,329.816"/>
<path class="path-1" d="M309.821,329.816C316.129,332.784,328.030,341.446,333.419,345.651"/>
<path class="path-1" d="M333.419,345.651C336.736,348.573,344.301,355.037,346.163,358.741"/>
<path class="path-1" d="M346.163,358.741C347.281,361.558,348.352,366.781,344.071,367.996"/>
<path class="path-1" d="M344.071,367.996C342.600,368.615,326.502,367.735,323.765,367.830"/>
<path class="path-1" d="M323.765,367.830C311.427,367.591,298.098,368.299,287.766,359.984"/>
<path class="path-1" d="M287.766,359.984C284.435,356.992,281.788,352.651,279.133,348.652"/>
<path class="path-1" d="M279.133,348.652C269.512,334.669,262.878,319.032,257.924,302.726"/>
<path class="path-1" d="M257.924,302.726C255.938,297.061,252.638,287.063,254.648,281.072"/>
<path class="path-1" d="M254.648,281.072C256.319,277.418,282.223,259.917,285.586,258.169"/>
<path class="path-2" d="M285.586,258.169C293.930,254.325,298.065,263.632,297.987,269.039C297.976,277.719,283.191,306.314,284.883,312.311C285.474,314.996,287.589,316.281,289.267,317.939C302.267,332.097,296.227,323.557,309.821,329.816C316.129,332.784,328.030,341.446,333.419,345.651C336.736,348.573,344.301,355.037,346.163,358.741C347.281,361.558,348.352,366.781,344.071,367.996C342.600,368.615,326.502,367.735,323.765,367.830C311.427,367.591,298.098,368.299,287.766,359.984C284.435,356.992,281.788,352.651,279.133,348.652C269.512,334.669,262.878,319.032,257.924,302.726C255.938,297.061,252.638,287.063,254.648,281.072C256.319,277.418,282.223,259.917,285.586,258.169Z"/>
<path class="path-1" d="M182.124,268.368C186.966,268.308,196.763,266.056,198.422,271.379"/>
<path class="path-1" d="M198.422,271.379C201.078,275.707,198.403,286.018,198.398,290.675"/>
<path class="path-1" d="M198.398,290.675C196.380,307.643,193.378,323.894,193.679,340.581"/>
<path class="path-1" d="M193.679,340.581C193.870,344.547,192.631,351.486,190.711,355.686"/>
<path class="path-1" d="M190.711,355.686C189.328,358.711,186.785,363.311,184.013,364.523"/>
<path class="path-1" d="M184.013,364.523C180.596,365.956,179.178,359.214,178.255,356.367"/>
<path class="path-1" d="M178.255,356.367C176.979,352.431,178.119,345.184,178.372,342.563"/>
<path class="path-1" d="M178.372,342.563C179.204,337.355,181.780,327.262,181.642,320.611"/>
<path class="path-1" d="M181.642,320.611C181.556,314.082,178.053,307.818,177.382,300.649"/>
<path class="path-1" d="M177.382,300.649C176.445,295.290,175.024,288.970,173.904,283.006"/>
<path class="path-1" d="M173.904,283.006C173.942,279.856,174.478,277.906,174.549,275.680"/>
<path class="path-1" d="M174.549,275.680C174.218,270.199,176.879,268.806,182.124,268.368"/>
<path class="path-2" d="M182.124,268.368C186.966,268.308,196.763,266.056,198.422,271.379C201.078,275.707,198.403,286.018,198.398,290.675C196.380,307.643,193.378,323.894,193.679,340.581C193.870,344.547,192.631,351.486,190.711,355.686C189.328,358.711,186.785,363.311,184.013,364.523C180.596,365.956,179.178,359.214,178.255,356.367C176.979,352.431,178.119,345.184,178.372,342.563C179.204,337.355,181.780,327.262,181.642,320.611C181.556,314.082,178.053,307.818,177.382,300.649C176.445,295.290,175.024,288.970,173.904,283.006C173.942,279.856,174.478,277.906,174.549,275.680C174.218,270.199,176.879,268.806,182.124,268.368Z"/>
<path class="path-1" d="M268.003,226.215C274.434,225.064,285.332,231.888,283.952,239.194"/>
<path class="path-1" d="M283.952,239.194C283.535,242.551,275.654,251.390,271.264,255.898"/>
<path class="path-1" d="M271.264,255.898C268.215,259.029,262.151,264.095,259.980,265.111"/>
<path class="path-1" d="M259.980,265.111C252.081,268.304,250.535,258.763,250.019,252.802"/>
<path class="path-1" d="M250.019,252.802C249.759,247.654,252.735,240.364,255.815,236.018"/>
<path class="path-1" d="M255.815,236.018C258.529,232.190,262.904,226.941,268.003,226.215"/>
<path class="path-2" d="M268.003,226.215C274.434,225.064,285.332,231.888,283.952,239.194C283.535,242.551,275.654,251.390,271.264,255.898C268.215,259.029,262.151,264.095,259.980,265.111C252.081,268.304,250.535,258.763,250.019,252.802C249.759,247.654,252.735,240.364,255.815,236.018C258.529,232.190,262.904,226.941,268.003,226.215Z"/>
<path class="path-1" d="M189.200,234.228C194.114,238.154,197.677,242.860,196.841,247.334"/>
<path class="path-1" d="M196.841,247.334C196.053,251.549,192.986,253.918,185.791,256.397"/>
<path class="path-1" d="M185.791,256.397C174.477,260.295,165.532,242.944,169.046,235.796"/>
<path class="path-1" d="M169.046,235.796C171.721,230.354,182.884,229.182,189.200,234.228"/>
<path class="path-2" d="M189.200,234.228C194.114,238.154,197.677,242.860,196.841,247.334C196.053,251.549,192.986,253.918,185.791,256.397C174.477,260.295,165.532,242.944,169.046,235.796C171.721,230.354,182.884,229.182,189.200,234.228Z"/>
</g>
<g id="left_arm">
<path class="path-0" d="M285.915,455.505C283.194,449.849,282.863,440.779,290.721,439.307C296.195,438.238,319.416,446.155,322.945,450.561C329.195,457.610,323.621,471.718,314.658,474.076C304.372,476.286,290.292,464.358,285.915,455.505M277.949,278.283C278.427,275.002,285.585,263.877,290.718,264.370C293.698,264.657,295.705,269.452,297.023,271.972C300.685,279.898,304.653,288.054,307.763,296.455C316.409,319.149,323.303,342.140,327.296,365.683C328.631,375.052,326.577,387.360,328.972,395.993C331.881,406.020,338.527,403.409,340.809,410.019C341.804,413.141,340.522,418.691,341.995,423.539C344.168,431.143,349.351,435.732,351.485,440.653C352.848,443.481,353.180,446.530,349.470,446.791C347.376,447.565,342.193,445.990,340.209,445.771C333.786,443.280,327.367,440.787,320.951,438.290C312.242,435.320,285.272,431.000,281.300,424.537C275.378,414.512,287.492,404.803,289.842,395.690C290.806,392.863,299.121,350.606,298.454,347.748C297.678,341.233,292.873,336.106,290.549,329.610C287.810,320.627,285.003,311.005,282.510,301.592C280.541,293.535,276.249,287.203,277.949,278.283M301.089,253.366C298.206,249.028,289.920,241.673,284.140,243.729C279.351,245.663,279.427,251.688,279.256,255.732C278.832,265.842,277.873,274.342,279.058,283.916C279.585,290.891,281.058,297.075,282.499,303.604C284.121,312.089,284.737,328.745,285.506,338.566C285.948,347.993,287.893,357.846,286.729,365.925C283.596,384.804,272.221,401.576,270.789,420.571C269.752,430.033,272.373,430.293,273.779,438.099C274.801,444.229,272.759,450.372,274.452,456.248C278.761,471.786,294.461,487.242,311.690,485.799C327.561,484.538,330.085,467.746,339.337,459.730C347.489,452.597,361.601,458.172,364.498,450.123C367.248,443.398,358.499,434.734,355.446,429.041C349.266,418.317,355.143,416.623,352.346,408.616C350.322,402.703,343.263,396.903,340.430,389.225C338.811,385.699,338.560,379.298,337.663,374.861C335.854,363.753,334.742,351.068,332.741,339.500C330.779,326.582,327.710,315.432,322.611,302.662C318.669,292.422,306.734,261.047,301.089,253.366Z"/>
<path class="path-1" d="M290.718,264.370C293.698,264.657,295.705,269.452,297.023,271.972"/>
<path class="path-1" d="M297.023,271.972C300.685,279.898,304.653,288.054,307.763,296.455"/>
<path class="path-1" d="M307.763,296.455C316.409,319.149,323.303,342.140,327.296,365.683"/>
<path class="path-1" d="M327.296,365.683C328.631,375.052,326.577,387.360,328.972,395.993"/>
<path class="path-1" d="M328.972,395.993C331.881,406.020,338.527,403.409,340.809,410.019"/>
<path class="path-1" d="M340.809,410.019C341.804,413.141,340.522,418.691,341.995,423.539"/>
<path class="path-1" d="M341.995,423.539C344.168,431.143,349.351,435.732,351.485,440.653"/>
<path class="path-1" d="M351.485,440.653C352.848,443.481,353.180,446.530,349.470,446.791"/>
<path class="path-1" d="M349.470,446.791C347.376,447.565,342.193,445.990,340.209,445.771"/>
<path class="path-1" d="M340.209,445.771C333.786,443.280,327.367,440.787,320.951,438.290"/>
<path class="path-1" d="M320.951,438.290C312.242,435.320,285.272,431.000,281.300,424.537"/>
<path class="path-1" d="M281.300,424.537C275.378,414.512,287.492,404.803,289.842,395.690"/>
<path class="path-1" d="M289.842,395.690C290.806,392.863,299.121,350.606,298.454,347.748"/>
<path class="path-1" d="M298.454,347.748C297.678,341.233,292.873,336.106,290.549,329.610"/>
<path class="path-1" d="M290.549,329.610C287.810,320.627,285.003,311.005,282.510,301.592"/>
<path class="path-1" d="M282.510,301.592C280.541,293.535,276.249,287.203,277.949,278.283"/>
<path class="path-1" d="M277.949,278.283C278.427,275.002,285.585,263.877,290.718,264.370"/>
<path class="path-2" d="M290.718,264.370C293.698,264.657,295.705,269.452,297.023,271.972C300.685,279.898,304.653,288.054,307.763,296.455C316.409,319.149,323.303,342.140,327.296,365.683C328.631,375.052,326.577,387.360,328.972,395.993C331.881,406.020,338.527,403.409,340.809,410.019C341.804,413.141,340.522,418.691,341.995,423.539C344.168,431.143,349.351,435.732,351.485,440.653C352.848,443.481,353.180,446.530,349.470,446.791C347.376,447.565,342.193,445.990,340.209,445.771C333.786,443.280,327.367,440.787,320.951,438.290C312.242,435.320,285.272,431.000,281.300,424.537C275.378,414.512,287.492,404.803,289.842,395.690C290.806,392.863,299.121,350.606,298.454,347.748C297.678,341.233,292.873,336.106,290.549,329.610C287.810,320.627,285.003,311.005,282.510,301.592C280.541,293.535,276.249,287.203,277.949,278.283C278.427,275.002,285.585,263.877,290.718,264.370Z"/>
<path class="path-15" d="M290.721,439.307C296.195,438.238,319.416,446.155,322.945,450.561"/>
<path class="path-15" d="M322.945,450.561C329.195,457.610,323.621,471.718,314.658,474.076"/>
<path class="path-15" d="M314.658,474.076C304.372,476.286,290.292,464.358,285.915,455.505"/>
<path class="path-15" d="M285.915,455.505C283.194,449.849,282.863,440.779,290.721,439.307"/>
<path class="path-16" d="M290.721,439.307C296.195,438.238,319.416,446.155,322.945,450.561C329.195,457.610,323.621,471.718,314.658,474.076C304.372,476.286,290.292,464.358,285.915,455.505C283.194,449.849,282.863,440.779,290.721,439.307Z"/>
</g>
<g id="bone">
<g id="bone1_clothes">
<path class="path-23" d="M229.850,387.116C229.851,387.110,235.493,328.392,235.494,328.386C235.494,328.392,240.982,387.125,240.982,387.131C240.981,387.131,229.851,387.116,229.850,387.116"/>
</g>
<g id="bone2_clothes">
<path class="path-23" d="M228.580,328.099C228.580,328.092,230.416,255.589,230.417,255.582C230.418,255.589,242.314,327.133,242.315,327.140C242.314,327.140,228.581,328.099,228.580,328.099"/>
</g>
<g id="bone3_neck">
<path class="path-23" d="M233.780,254.364C233.779,254.360,229.090,212.925,229.089,212.921C229.089,212.925,227.186,254.582,227.186,254.586C227.187,254.586,233.779,254.364,233.780,254.364"/>
</g>
<g id="bone4_head">
<path class="path-23" d="M223.173,213.815C223.172,213.807,217.222,135.970,217.222,135.962C217.224,135.970,235.484,211.868,235.486,211.875C235.485,211.876,223.174,213.815,223.173,213.815"/>
</g>
<g id="bone5_left_arm">
<path class="path-23" d="M294.249,256.365C294.250,256.374,313.294,346.859,313.296,346.868C313.293,346.859,279.149,260.927,279.145,260.919C279.147,260.918,294.247,256.366,294.249,256.365"/>
</g>
<g id="bone6_left_arm">
<path class="path-23" d="M307.988,347.101C307.989,347.108,313.462,410.609,313.462,410.615C313.463,410.609,318.429,347.066,318.430,347.060C318.429,347.060,307.989,347.101,307.988,347.101"/>
</g>
<g id="bone7_right_arm">
<path class="path-23" d="M165.068,270.466C165.067,270.477,149.005,384.855,149.003,384.866C149.007,384.855,182.914,274.445,182.917,274.434C182.915,274.434,165.070,270.466,165.068,270.466"/>
</g>
<g id="bone8_right_arm">
<path class="path-23" d="M153.873,381.104C153.875,381.110,170.201,438.350,170.203,438.355C170.200,438.350,142.708,385.557,142.705,385.552C142.706,385.551,153.872,381.104,153.873,381.104"/>
</g>
<g id="bone9_left_leg">
<path class="path-23" d="M267.993,386.687C267.993,386.697,268.854,488.358,268.854,488.369C268.852,488.359,249.729,388.508,249.727,388.498C249.729,388.498,267.991,386.687,267.993,386.687"/>
</g>
<g id="bone10_right_leg">
<path class="path-23" d="M205.287,386.029C205.287,386.039,205.360,489.794,205.360,489.804C205.362,489.794,220.750,387.186,220.751,387.176C220.750,387.176,205.288,386.029,205.287,386.029"/>
</g>
<g id="bone11_hair">
<path class="path-23" d="M228.051,157.553C228.052,157.561,234.606,237.477,234.607,237.485C234.605,237.477,213.536,160.111,213.533,160.103C213.535,160.103,228.050,157.554,228.051,157.553"/>
</g>
<g id="bone12_left_leg_S">
<path class="path-23" d="M442.362,216.535C442.362,216.527,434.143,144.652,434.142,144.644C434.142,144.652,430.440,216.901,430.439,216.908C430.440,216.908,442.361,216.535,442.362,216.535"/>
</g>
<g id="bone13_right_leg_S">
<path class="path-23" d="M501.268,214.641C501.265,214.634,469.596,149.590,469.592,149.584C469.594,149.591,490.146,218.954,490.149,218.961C490.150,218.961,501.267,214.641,501.268,214.641"/>
</g>
<g id="bone14_left_arm_S">
<path class="path-23" d="M557.468,215.892C557.467,215.885,550.375,143.889,550.374,143.882C550.374,143.889,545.540,216.072,545.540,216.079C545.541,216.079,557.466,215.892,557.468,215.892"/>
</g>
<g id="bone15_jacket_S">
<path class="path-23" d="M610.620,215.899C610.619,215.892,603.578,143.891,603.578,143.884C603.577,143.891,598.692,216.070,598.692,216.077C598.693,216.077,610.618,215.899,610.620,215.899"/>
</g>
<g id="bone16_pupils_S">
<path class="path-23" d="M442.232,337.260C442.231,337.253,435.050,265.266,435.049,265.259C435.049,265.266,430.305,337.454,430.305,337.462C430.306,337.462,442.231,337.260,442.232,337.260"/>
</g>
<g id="bone17_eyelids_S">
<path class="path-23" d="M502.309,337.358C502.308,337.351,496.345,265.253,496.344,265.246C496.344,265.253,490.380,337.351,490.380,337.358C490.381,337.358,502.308,337.358,502.309,337.358"/>
</g>
<g id="bone18_face_S">
<path class="path-23" d="M557.989,339.200C557.988,339.193,552.162,267.084,552.162,267.076C552.161,267.084,546.060,339.170,546.059,339.177C546.060,339.177,557.987,339.200,557.989,339.200"/>
</g>
</g>
</g>
<style>
.path-0{fill:#000000;fill-rule:evenodd;stroke:none;}
.path-1{fill:none;stroke:#a60d3f;stroke-width:1;stroke-linecap:butt;stroke-linejoin:round;}
.path-2{fill:#a60d3f;fill-rule:evenodd;stroke:none;}
.path-3{fill:none;stroke:#d88e4b;stroke-width:1;stroke-linecap:butt;stroke-linejoin:round;}
.path-4{fill:#d88e4b;fill-rule:evenodd;stroke:none;}
.path-5{fill:none;stroke:#6e2353;stroke-width:1;stroke-linecap:butt;stroke-linejoin:round;}
.path-6{fill:#6e2353;fill-rule:evenodd;stroke:none;}
.path-7{fill:none;stroke:#392966;stroke-width:1;stroke-linecap:butt;stroke-linejoin:round;}
.path-8{fill:#392966;fill-rule:evenodd;stroke:none;}
.path-9{fill:none;stroke:#cc9bc5;stroke-width:1;stroke-linecap:butt;stroke-linejoin:round;}
.path-10{fill:#cc9bc5;fill-rule:evenodd;stroke:none;}
.path-11{fill:none;stroke:#620527;stroke-width:1;stroke-linecap:butt;stroke-linejoin:round;}
.path-12{fill:#620527;fill-rule:evenodd;stroke:none;}
.path-13{fill:none;stroke:#6a3661;stroke-width:1;stroke-linecap:butt;stroke-linejoin:round;}
.path-14{fill:#6a3661;fill-rule:evenodd;stroke:none;}
.path-15{fill:none;stroke:#f8a087;stroke-width:1;stroke-linecap:butt;stroke-linejoin:round;}
.path-16{fill:#f8a087;fill-rule:evenodd;stroke:none;}
.path-17{fill:none;stroke:#ffffff;stroke-width:1;stroke-linecap:butt;stroke-linejoin:round;}
.path-18{fill:#ffffff;fill-rule:evenodd;stroke:none;}
.path-19{fill:none;stroke:#d89f4a;stroke-width:1;stroke-linecap:butt;stroke-linejoin:round;}
.path-20{fill:#d89f4a;fill-rule:evenodd;stroke:none;}
.path-21{fill:none;stroke:#fafd5b;stroke-width:1;stroke-linecap:butt;stroke-linejoin:round;}
.path-22{fill:#fafd5b;fill-rule:evenodd;stroke:none;}
.path-23{fill:none;stroke:#00ff42;stroke-width:8;stroke-linecap:round;stroke-linejoin:round;}
</style>
</svg>
