<svg version="1.1" id="Frame_222" xmlns="http://www.w3.org/2000/svg" xmlns:xlink="http://www.w3.org/1999/xlink" width="480px" height="720px">
<g id="main_bone">
<g id="right_arm">
<path class="path-0" d="M190.791,270.118C192.432,267.576,195.655,262.323,199.547,261.165C206.099,259.217,211.076,265.450,211.410,270.032C212.302,278.060,205.642,288.256,202.402,295.827C194.471,314.052,186.013,332.050,180.525,350.608C179.819,353.862,174.512,374.953,174.585,372.305C174.072,378.919,180.547,384.730,182.732,390.416C185.522,398.083,182.579,405.239,180.605,412.179C176.072,426.487,176.448,431.786,176.609,445.780C176.738,447.997,177.086,455.218,173.612,455.591C170.198,455.958,169.234,449.807,168.349,447.468C167.792,444.831,165.025,439.313,165.574,436.943C165.700,432.971,170.259,433.935,165.237,425.727C158.823,415.464,147.540,406.782,144.845,393.404C143.095,382.753,148.871,373.565,152.264,363.751C159.488,342.664,167.477,321.605,176.698,300.978C181.708,290.285,184.196,280.898,190.791,270.118M211.403,263.750C212.233,255.247,209.852,247.574,199.039,250.166C181.631,254.274,173.738,280.066,167.720,294.500C159.277,313.994,152.193,333.738,145.584,353.615C142.875,362.130,139.590,366.400,138.130,371.341C136.323,376.931,136.411,385.560,136.614,391.202C136.209,408.854,141.529,409.833,148.662,423.421C152.443,431.453,148.709,436.572,151.405,443.510C153.380,448.282,157.385,451.555,160.513,455.470C163.285,459.400,164.016,461.688,166.111,465.307C168.648,469.633,176.190,479.354,181.862,476.584C186.109,474.491,185.157,466.588,185.100,462.752C184.854,456.994,186.379,434.677,187.417,427.921C189.307,416.720,195.390,404.775,193.966,392.639C192.808,383.360,184.729,376.534,185.355,366.631C185.842,361.356,189.366,352.866,190.657,346.977C192.775,337.567,193.433,327.410,196.272,317.791C201.123,300.678,210.299,281.869,211.403,263.750Z"/>
<path class="path-1" d="M199.547,261.165C206.099,259.217,211.076,265.450,211.410,270.032"/>
<path class="path-1" d="M211.410,270.032C212.302,278.060,205.642,288.256,202.402,295.827"/>
<path class="path-1" d="M202.402,295.827C194.471,314.052,186.013,332.050,180.525,350.608"/>
<path class="path-1" d="M180.525,350.608C179.819,353.862,174.512,374.953,174.585,372.305"/>
<path class="path-1" d="M174.585,372.305C174.072,378.919,180.547,384.730,182.732,390.416"/>
<path class="path-1" d="M182.732,390.416C185.522,398.083,182.579,405.239,180.605,412.179"/>
<path class="path-1" d="M180.605,412.179C176.072,426.487,176.448,431.786,176.609,445.780"/>
<path class="path-1" d="M176.609,445.780C176.738,447.997,177.086,455.218,173.612,455.591"/>
<path class="path-1" d="M173.612,455.591C170.198,455.958,169.234,449.807,168.349,447.468"/>
<path class="path-1" d="M168.349,447.468C167.792,444.831,165.025,439.313,165.574,436.943"/>
<path class="path-1" d="M165.574,436.943C165.700,432.971,170.259,433.935,165.237,425.727"/>
<path class="path-1" d="M165.237,425.727C158.823,415.464,147.540,406.782,144.845,393.404"/>
<path class="path-1" d="M144.845,393.404C143.095,382.753,148.871,373.565,152.264,363.751"/>
<path class="path-1" d="M152.264,363.751C159.488,342.664,167.477,321.605,176.698,300.978"/>
<path class="path-1" d="M176.698,300.978C181.708,290.285,184.196,280.898,190.791,270.118"/>
<path class="path-1" d="M190.791,270.118C192.432,267.576,195.655,262.323,199.547,261.165"/>
<path class="path-2" d="M199.547,261.165C206.099,259.217,211.076,265.450,211.410,270.032C212.302,278.060,205.642,288.256,202.402,295.827C194.471,314.052,186.013,332.050,180.525,350.608C179.819,353.862,174.512,374.953,174.585,372.305C174.072,378.919,180.547,384.730,182.732,390.416C185.522,398.083,182.579,405.239,180.605,412.179C176.072,426.487,176.448,431.786,176.609,445.780C176.738,447.997,177.086,455.218,173.612,455.591C170.198,455.958,169.234,449.807,168.349,447.468C167.792,444.831,165.025,439.313,165.574,436.943C165.700,432.971,170.259,433.935,165.237,425.727C158.823,415.464,147.540,406.782,144.845,393.404C143.095,382.753,148.871,373.565,152.264,363.751C159.488,342.664,167.477,321.605,176.698,300.978C181.708,290.285,184.196,280.898,190.791,270.118C192.432,267.576,195.655,262.323,199.547,261.165Z"/>
</g>
<g id="layer_left_leg">
<g id="left_heel">
<path class="path-0" d="M330.057,630.693C320.160,621.137,328.440,598.679,338.769,593.490C354.616,585.320,374.119,607.265,373.705,613.972C372.752,624.221,356.856,628.797,348.523,631.101C344.022,632.185,333.244,633.898,330.057,630.693M365.768,585.014C353.634,578.082,332.316,585.763,323.440,594.756C304.651,613.073,311.186,655.578,343.595,645.717C354.874,642.345,379.318,633.301,384.121,624.403C388.534,617.302,384.120,608.498,380.292,601.586C376.810,596.082,371.509,588.403,365.768,585.014Z"/>
<path class="path-3" d="M338.769,593.490C354.616,585.320,374.119,607.265,373.705,613.972"/>
<path class="path-3" d="M373.705,613.972C372.752,624.221,356.856,628.797,348.523,631.101"/>
<path class="path-3" d="M348.523,631.101C344.022,632.185,333.244,633.898,330.057,630.693"/>
<path class="path-3" d="M330.057,630.693C320.160,621.137,328.440,598.679,338.769,593.490"/>
<path class="path-4" d="M338.769,593.490C354.616,585.320,374.119,607.265,373.705,613.972C372.752,624.221,356.856,628.797,348.523,631.101C344.022,632.185,333.244,633.898,330.057,630.693C320.160,621.137,328.440,598.679,338.769,593.490Z"/>
</g>
<g id="left_leg">
<path class="path-0" d="M253.602,415.406C254.009,410.422,264.146,411.494,267.833,410.285C273.497,408.732,285.704,403.222,291.289,405.512C301.195,409.192,310.947,437.164,314.050,446.958C322.837,477.670,332.575,506.050,341.499,535.579C343.323,542.170,345.113,549.001,347.062,555.418C348.820,560.456,349.380,567.266,353.548,570.023C355.276,571.658,359.417,569.556,359.982,571.696C361.683,580.231,352.959,577.487,349.963,582.833C344.463,591.975,332.627,602.386,322.988,602.289C316.384,602.447,303.988,597.842,300.048,592.530C296.233,587.385,292.877,580.811,290.260,575.090C278.485,549.351,278.096,488.359,264.033,460.866C255.087,443.377,263.387,440.221,266.691,425.500C267.226,423.117,256.672,428.600,254.595,427.257C251.809,425.756,253.184,418.483,253.602,415.406M295.830,394.978C288.479,391.922,272.201,398.499,265.242,400.810C261.442,402.056,248.552,402.350,246.194,404.899C231.876,420.381,249.413,457.726,255.848,473.936C257.344,478.564,262.271,501.241,263.647,507.638C271.132,534.704,271.599,559.436,280.622,586.031C283.062,593.540,284.660,601.197,289.230,607.488C301.199,623.727,318.661,622.338,340.251,615.034C351.622,611.199,375.571,599.146,377.707,574.778C378.568,564.910,369.777,554.339,367.628,551.759C364.167,547.605,359.687,543.878,356.971,538.749C347.748,522.675,349.005,502.532,342.823,484.936C334.950,462.463,318.792,404.584,295.830,394.978Z"/>
<path class="path-7" d="M267.833,410.285C273.497,408.732,285.704,403.222,291.289,405.512"/>
<path class="path-7" d="M291.289,405.512C301.195,409.192,310.947,437.164,314.050,446.958"/>
<path class="path-7" d="M314.050,446.958C322.837,477.670,332.575,506.050,341.499,535.579"/>
<path class="path-7" d="M341.499,535.579C343.323,542.170,345.113,549.001,347.062,555.418"/>
<path class="path-7" d="M347.062,555.418C348.820,560.456,349.380,567.266,353.548,570.023"/>
<path class="path-7" d="M353.548,570.023C355.276,571.658,359.417,569.556,359.982,571.696"/>
<path class="path-7" d="M359.982,571.696C361.683,580.231,352.959,577.487,349.963,582.833"/>
<path class="path-7" d="M349.963,582.833C344.463,591.975,332.627,602.386,322.988,602.289"/>
<path class="path-7" d="M322.988,602.289C316.384,602.447,303.988,597.842,300.048,592.530"/>
<path class="path-7" d="M300.048,592.530C296.233,587.385,292.877,580.811,290.260,575.090"/>
<path class="path-7" d="M290.260,575.090C278.485,549.351,278.096,488.359,264.033,460.866"/>
<path class="path-7" d="M264.033,460.866C255.087,443.377,263.387,440.221,266.691,425.500"/>
<path class="path-7" d="M266.691,425.500C267.226,423.117,256.672,428.600,254.595,427.257"/>
<path class="path-7" d="M254.595,427.257C251.809,425.756,253.184,418.483,253.602,415.406"/>
<path class="path-7" d="M253.602,415.406C254.009,410.422,264.146,411.494,267.833,410.285"/>
<path class="path-8" d="M267.833,410.285C273.497,408.732,285.704,403.222,291.289,405.512C301.195,409.192,310.947,437.164,314.050,446.958C322.837,477.670,332.575,506.050,341.499,535.579C343.323,542.170,345.113,549.001,347.062,555.418C348.820,560.456,349.380,567.266,353.548,570.023C355.276,571.658,359.417,569.556,359.982,571.696C361.683,580.231,352.959,577.487,349.963,582.833C344.463,591.975,332.627,602.386,322.988,602.289C316.384,602.447,303.988,597.842,300.048,592.530C296.233,587.385,292.877,580.811,290.260,575.090C278.485,549.351,278.096,488.359,264.033,460.866C255.087,443.377,263.387,440.221,266.691,425.500C267.226,423.117,256.672,428.600,254.595,427.257C251.809,425.756,253.184,418.483,253.602,415.406C254.009,410.422,264.146,411.494,267.833,410.285Z"/>
</g>
<g id="left_toe">
<path class="path-0" d="M334.327,660.910C307.210,663.014,303.065,627.437,320.724,615.411C339.121,603.042,361.230,609.597,370.461,620.563C375.893,626.245,379.466,633.051,377.844,640.912C373.677,655.097,347.367,659.815,334.327,660.910M384.661,611.773C377.745,598.764,363.106,589.159,350.914,588.437C321.428,586.802,299.667,600.773,297.590,628.058C295.865,643.836,303.411,659.104,316.086,668.605C325.929,675.519,351.870,669.833,362.525,665.903C371.780,661.732,383.141,655.858,387.569,645.732C390.784,638.667,388.209,618.554,384.661,611.773Z"/>
<path class="path-3" d="M320.724,615.411C339.121,603.042,361.230,609.597,370.461,620.563"/>
<path class="path-3" d="M370.461,620.563C375.893,626.245,379.466,633.051,377.844,640.912"/>
<path class="path-3" d="M377.844,640.912C373.677,655.097,347.367,659.815,334.327,660.910"/>
<path class="path-3" d="M334.327,660.910C307.210,663.014,303.065,627.437,320.724,615.411"/>
<path class="path-4" d="M320.724,615.411C339.121,603.042,361.230,609.597,370.461,620.563C375.893,626.245,379.466,633.051,377.844,640.912C373.677,655.097,347.367,659.815,334.327,660.910C307.210,663.014,303.065,627.437,320.724,615.411Z"/>
</g>
<g id="left_sole">
<path class="path-0" d="M342.120,674.678C331.429,677.154,324.477,664.277,324.505,669.692C324.523,673.160,334.029,673.856,338.289,673.927C347.761,674.428,362.242,669.079,369.780,662.482C372.312,660.607,380.656,655.434,380.745,655.674C382.199,659.587,371.769,662.816,368.359,664.200C365.212,665.858,342.951,674.268,342.120,674.678M324.902,669.937C329.632,666.612,341.381,667.823,345.719,667.840C362.992,667.906,369.839,656.269,377.478,653.753C378.223,653.516,380.334,651.181,381.321,653.198C384.720,660.144,356.019,673.586,340.639,672.804C333.507,673.100,323.189,671.141,324.902,669.937M384.010,644.814C380.148,642.877,365.077,654.794,348.416,659.608C340.291,661.983,316.773,656.105,313.930,667.071C313.337,669.381,315.996,676.422,318.061,677.505C331.978,685.076,382.767,667.717,387.389,661.153C388.929,658.966,388.937,647.286,384.010,644.814Z"/>
<path class="path-5" d="M324.505,669.692C324.523,673.160,334.029,673.856,338.289,673.927"/>
<path class="path-5" d="M338.289,673.927C347.761,674.428,362.242,669.079,369.780,662.482"/>
<path class="path-5" d="M369.780,662.482C372.312,660.607,380.656,655.434,380.745,655.674"/>
<path class="path-5" d="M380.745,655.674C382.199,659.587,371.769,662.816,368.359,664.200"/>
<path class="path-5" d="M368.359,664.200C365.212,665.858,342.951,674.268,342.120,674.678"/>
<path class="path-5" d="M342.120,674.678C331.429,677.154,324.477,664.277,324.505,669.692"/>
<path class="path-6" d="M324.505,669.692C324.523,673.160,334.029,673.856,338.289,673.927C347.761,674.428,362.242,669.079,369.780,662.482C372.312,660.607,380.656,655.434,380.745,655.674C382.199,659.587,371.769,662.816,368.359,664.200C365.212,665.858,342.951,674.268,342.120,674.678C331.429,677.154,324.477,664.277,324.505,669.692Z"/>
<path class="path-5" d="M345.719,667.840C362.992,667.906,369.839,656.269,377.478,653.753"/>
<path class="path-5" d="M377.478,653.753C378.223,653.516,380.334,651.181,381.321,653.198"/>
<path class="path-5" d="M381.321,653.198C384.720,660.144,356.019,673.586,340.639,672.804"/>
<path class="path-5" d="M340.639,672.804C333.507,673.100,323.189,671.141,324.902,669.937"/>
<path class="path-5" d="M324.902,669.937C329.632,666.612,341.381,667.823,345.719,667.840"/>
<path class="path-6" d="M345.719,667.840C362.992,667.906,369.839,656.269,377.478,653.753C378.223,653.516,380.334,651.181,381.321,653.198C384.720,660.144,356.019,673.586,340.639,672.804C333.507,673.100,323.189,671.141,324.902,669.937C329.632,666.612,341.381,667.823,345.719,667.840Z"/>
</g>
</g>
<g id="layer_right_leg">
<g id="right_heel">
<path class="path-0" d="M187.187,622.757C188.398,606.477,189.781,593.831,209.907,591.417C218.864,590.181,235.808,593.388,240.540,602.059C243.039,606.379,242.106,612.612,242.260,617.169C242.577,624.602,246.878,639.017,236.294,640.531C235.612,640.695,216.901,640.629,211.060,640.659C203.630,641.381,195.898,641.784,190.636,636.575C187.911,633.284,186.823,626.604,187.187,622.757M250.112,600.569C246.398,590.141,232.213,583.930,222.090,585.151C208.865,586.585,195.453,581.979,186.618,594.023C179.711,603.438,178.606,621.005,180.396,632.205C181.049,637.355,184.120,646.792,188.363,649.731C191.476,651.791,196.361,651.329,200.089,651.416C218.221,652.124,250.459,658.914,250.633,632.077C250.603,625.101,252.072,606.133,250.112,600.569Z"/>
<path class="path-3" d="M209.907,591.417C218.864,590.181,235.808,593.388,240.540,602.059"/>
<path class="path-3" d="M240.540,602.059C243.039,606.379,242.106,612.612,242.260,617.169"/>
<path class="path-3" d="M242.260,617.169C242.577,624.602,246.878,639.017,236.294,640.531"/>
<path class="path-3" d="M236.294,640.531C235.612,640.695,216.901,640.629,211.060,640.659"/>
<path class="path-3" d="M211.060,640.659C203.630,641.381,195.898,641.784,190.636,636.575"/>
<path class="path-3" d="M190.636,636.575C187.911,633.284,186.823,626.604,187.187,622.757"/>
<path class="path-3" d="M187.187,622.757C188.398,606.477,189.781,593.831,209.907,591.417"/>
<path class="path-4" d="M209.907,591.417C218.864,590.181,235.808,593.388,240.540,602.059C243.039,606.379,242.106,612.612,242.260,617.169C242.577,624.602,246.878,639.017,236.294,640.531C235.612,640.695,216.901,640.629,211.060,640.659C203.630,641.381,195.898,641.784,190.636,636.575C187.911,633.284,186.823,626.604,187.187,622.757C188.398,606.477,189.781,593.831,209.907,591.417Z"/>
</g>
<g id="right_leg">
<path class="path-0" d="M191.218,407.593C195.146,395.880,210.909,393.406,221.393,396.553C227.196,398.167,236.917,401.215,239.968,406.760C241.228,409.048,241.646,413.255,240.218,415.436C237.636,419.379,222.699,415.974,225.126,420.117C229.390,427.662,240.049,418.703,244.194,422.695C246.021,424.454,246.122,427.910,246.435,430.809C249.973,452.786,242.442,475.931,241.894,497.505C241.647,504.494,239.868,514.769,240.949,521.164C243.050,536.765,240.969,539.988,241.101,549.328C240.929,552.815,238.703,570.467,239.766,575.036C241.003,579.915,244.471,584.637,244.779,589.681C245.296,598.133,232.225,608.586,224.484,610.532C215.562,612.589,188.491,609.819,180.384,605.060C177.322,603.381,173.608,599.465,172.491,595.917C171.224,592.541,170.288,576.863,171.506,573.150C173.881,566.738,176.482,565.517,178.865,557.877C181.352,548.837,183.699,539.026,183.579,529.431C182.972,510.998,184.877,481.285,187.455,468.094C188.708,460.722,187.715,435.745,188.950,428.922C191.125,417.496,189.209,415.221,191.218,407.593M216.908,384.792C211.294,382.687,207.066,377.278,201.050,379.157C199.195,379.910,195.936,382.112,194.605,383.398C178.358,396.688,179.303,410.423,178.868,429.831C178.420,436.771,178.353,444.002,177.500,450.630C176.678,456.138,174.645,460.591,173.140,465.609C172.188,469.749,171.367,474.194,170.975,479.433C170.722,484.490,171.866,490.475,171.714,499.074C170.835,508.786,171.274,517.997,170.559,527.292C170.279,533.763,166.675,548.650,165.651,553.550C163.206,560.400,159.892,568.348,158.071,574.974C156.186,583.806,157.097,593.276,160.328,601.228C161.778,605.420,164.527,610.453,167.628,613.268C169.651,615.104,172.412,616.161,174.864,617.052C183.159,620.013,191.041,621.549,199.921,622.001C205.841,622.348,211.731,620.730,217.853,621.474C218.873,621.443,227.021,623.734,228.656,623.927C231.641,624.107,235.919,621.557,238.685,620.046C242.432,617.730,249.037,617.282,252.002,613.876C254.321,611.207,254.818,607.399,256.014,604.077C262.787,584.401,257.921,573.521,255.878,555.453C254.737,545.369,252.811,524.643,253.189,513.416C253.366,499.814,256.208,486.714,257.310,472.734C257.742,468.373,258.257,463.142,259.146,458.226C259.954,453.249,259.029,449.172,258.947,444.206C258.654,440.370,259.201,428.113,258.702,423.991C258.405,420.316,258.538,415.741,257.280,412.085C253.809,402.771,240.048,392.238,230.795,389.062C226.173,387.307,221.191,386.867,216.908,384.792Z"/>
<path class="path-7" d="M221.393,396.553C227.196,398.167,236.917,401.215,239.968,406.760"/>
<path class="path-7" d="M239.968,406.760C241.228,409.048,241.646,413.255,240.218,415.436"/>
<path class="path-7" d="M240.218,415.436C237.636,419.379,222.699,415.974,225.126,420.117"/>
<path class="path-7" d="M225.126,420.117C229.390,427.662,240.049,418.703,244.194,422.695"/>
<path class="path-7" d="M244.194,422.695C246.021,424.454,246.122,427.910,246.435,430.809"/>
<path class="path-7" d="M246.435,430.809C249.973,452.786,242.442,475.931,241.894,497.505"/>
<path class="path-7" d="M241.894,497.505C241.647,504.494,239.868,514.769,240.949,521.164"/>
<path class="path-7" d="M240.949,521.164C243.050,536.765,240.969,539.988,241.101,549.328"/>
<path class="path-7" d="M241.101,549.328C240.929,552.815,238.703,570.467,239.766,575.036"/>
<path class="path-7" d="M239.766,575.036C241.003,579.915,244.471,584.637,244.779,589.681"/>
<path class="path-7" d="M244.779,589.681C245.296,598.133,232.225,608.586,224.484,610.532"/>
<path class="path-7" d="M224.484,610.532C215.562,612.589,188.491,609.819,180.384,605.060"/>
<path class="path-7" d="M180.384,605.060C177.322,603.381,173.608,599.465,172.491,595.917"/>
<path class="path-7" d="M172.491,595.917C171.224,592.541,170.288,576.863,171.506,573.150"/>
<path class="path-7" d="M171.506,573.150C173.881,566.738,176.482,565.517,178.865,557.877"/>
<path class="path-7" d="M178.865,557.877C181.352,548.837,183.699,539.026,183.579,529.431"/>
<path class="path-7" d="M183.579,529.431C182.972,510.998,184.877,481.285,187.455,468.094"/>
<path class="path-7" d="M187.455,468.094C188.708,460.722,187.715,435.745,188.950,428.922"/>
<path class="path-7" d="M188.950,428.922C191.125,417.496,189.209,415.221,191.218,407.593"/>
<path class="path-7" d="M191.218,407.593C195.146,395.880,210.909,393.406,221.393,396.553"/>
<path class="path-8" d="M221.393,396.553C227.196,398.167,236.917,401.215,239.968,406.760C241.228,409.048,241.646,413.255,240.218,415.436C237.636,419.379,222.699,415.974,225.126,420.117C229.390,427.662,240.049,418.703,244.194,422.695C246.021,424.454,246.122,427.910,246.435,430.809C249.973,452.786,242.442,475.931,241.894,497.505C241.647,504.494,239.868,514.769,240.949,521.164C243.050,536.765,240.969,539.988,241.101,549.328C240.929,552.815,238.703,570.467,239.766,575.036C241.003,579.915,244.471,584.637,244.779,589.681C245.296,598.133,232.225,608.586,224.484,610.532C215.562,612.589,188.491,609.819,180.384,605.060C177.322,603.381,173.608,599.465,172.491,595.917C171.224,592.541,170.288,576.863,171.506,573.150C173.881,566.738,176.482,565.517,178.865,557.877C181.352,548.837,183.699,539.026,183.579,529.431C182.972,510.998,184.877,481.285,187.455,468.094C188.708,460.722,187.715,435.745,188.950,428.922C191.125,417.496,189.209,415.221,191.218,407.593C195.146,395.880,210.909,393.406,221.393,396.553Z"/>
</g>
<g id="right_toe">
<path class="path-0" d="M169.140,643.795C170.813,630.434,176.494,613.286,192.992,611.339C196.788,610.692,202.075,612.595,206.254,613.546C227.648,618.362,235.871,623.372,236.076,645.299C236.010,651.330,236.767,658.835,232.118,663.565C227.513,668.167,206.324,665.057,199.829,665.191C188.349,665.676,178.362,670.891,170.635,660.800C165.986,654.597,168.253,650.957,169.140,643.795M245.201,622.494C238.398,608.286,205.632,599.146,190.740,601.521C168.506,605.192,161.050,622.311,159.210,640.923C158.505,647.555,157.461,654.832,160.651,660.804C161.798,662.949,164.263,665.847,165.984,667.584C178.861,681.707,188.595,680.187,206.477,680.495C215.932,680.814,231.689,680.418,239.427,674.331C245.266,669.280,245.940,663.624,246.355,656.388C246.503,649.411,247.966,627.726,245.201,622.494Z"/>
<path class="path-3" d="M192.992,611.339C196.788,610.692,202.075,612.595,206.254,613.546"/>
<path class="path-3" d="M206.254,613.546C227.648,618.362,235.871,623.372,236.076,645.299"/>
<path class="path-3" d="M236.076,645.299C236.010,651.330,236.767,658.835,232.118,663.565"/>
<path class="path-3" d="M232.118,663.565C227.513,668.167,206.324,665.057,199.829,665.191"/>
<path class="path-3" d="M199.829,665.191C188.349,665.676,178.362,670.891,170.635,660.800"/>
<path class="path-3" d="M170.635,660.800C165.986,654.597,168.253,650.957,169.140,643.795"/>
<path class="path-3" d="M169.140,643.795C170.813,630.434,176.494,613.286,192.992,611.339"/>
<path class="path-4" d="M192.992,611.339C196.788,610.692,202.075,612.595,206.254,613.546C227.648,618.362,235.871,623.372,236.076,645.299C236.010,651.330,236.767,658.835,232.118,663.565C227.513,668.167,206.324,665.057,199.829,665.191C188.349,665.676,178.362,670.891,170.635,660.800C165.986,654.597,168.253,650.957,169.140,643.795C170.813,630.434,176.494,613.286,192.992,611.339Z"/>
</g>
<g id="right_sole">
<path class="path-0" d="M187.215,676.690C188.751,677.067,204.235,677.104,205.999,677.143C207.403,677.194,215.837,677.538,217.038,677.492C217.789,677.479,225.290,677.307,225.854,677.771C225.314,677.324,217.271,678.581,216.799,678.586C215.859,678.627,189.485,677.877,189.171,677.979C187.983,677.981,176.722,676.829,176.009,675.825C177.284,675.416,185.428,676.249,187.215,676.690M227.293,672.079C227.342,672.359,225.681,674.057,225.255,674.052C224.411,674.046,210.964,675.226,209.857,674.958C208.594,674.878,199.658,675.218,198.518,675.181C196.282,675.107,178.258,674.273,176.357,673.121C176.117,672.911,175.328,671.608,175.373,671.434C175.446,671.156,182.578,671.415,183.677,671.395C185.400,671.363,199.489,671.348,201.257,671.365C203.172,671.384,218.343,671.896,220.308,671.778C220.614,671.767,227.169,671.392,227.293,672.079M233.155,666.937C221.844,663.473,212.824,667.785,202.420,667.888C194.916,667.997,180.558,666.084,171.385,667.642C169.905,667.893,167.091,667.619,166.609,669.118C166.010,670.994,169.580,675.147,171.876,676.721C174.720,678.672,180.732,678.847,183.109,679.262C195.151,681.813,210.570,681.027,222.998,680.770C232.160,680.585,234.515,677.016,235.549,672.681C235.982,670.869,236.707,667.975,233.155,666.937Z"/>
<path class="path-5" d="M187.215,676.690C188.751,677.067,204.235,677.104,205.999,677.143"/>
<path class="path-5" d="M205.999,677.143C207.403,677.194,215.837,677.538,217.038,677.492"/>
<path class="path-5" d="M217.038,677.492C217.789,677.479,225.290,677.307,225.854,677.771"/>
<path class="path-5" d="M225.854,677.771C225.314,677.324,217.271,678.581,216.799,678.586"/>
<path class="path-5" d="M216.799,678.586C215.859,678.627,189.485,677.877,189.171,677.979"/>
<path class="path-5" d="M189.171,677.979C187.983,677.981,176.722,676.829,176.009,675.825"/>
<path class="path-5" d="M176.009,675.825C177.284,675.416,185.428,676.249,187.215,676.690"/>
<path class="path-6" d="M187.215,676.690C188.751,677.067,204.235,677.104,205.999,677.143C207.403,677.194,215.837,677.538,217.038,677.492C217.789,677.479,225.290,677.307,225.854,677.771C225.314,677.324,217.271,678.581,216.799,678.586C215.859,678.627,189.485,677.877,189.171,677.979C187.983,677.981,176.722,676.829,176.009,675.825C177.284,675.416,185.428,676.249,187.215,676.690Z"/>
<path class="path-5" d="M183.677,671.395C185.400,671.363,199.489,671.348,201.257,671.365"/>
<path class="path-5" d="M201.257,671.365C203.172,671.384,218.343,671.896,220.308,671.778"/>
<path class="path-5" d="M220.308,671.778C220.614,671.767,227.169,671.392,227.293,672.079"/>
<path class="path-5" d="M227.293,672.079C227.342,672.359,225.681,674.057,225.255,674.052"/>
<path class="path-5" d="M225.255,674.052C224.411,674.046,210.964,675.226,209.857,674.958"/>
<path class="path-5" d="M209.857,674.958C208.594,674.878,199.658,675.218,198.518,675.181"/>
<path class="path-5" d="M198.518,675.181C196.282,675.107,178.258,674.273,176.357,673.121"/>
<path class="path-5" d="M176.357,673.121C176.117,672.911,175.328,671.608,175.373,671.434"/>
<path class="path-5" d="M175.373,671.434C175.446,671.156,182.578,671.415,183.677,671.395"/>
<path class="path-6" d="M183.677,671.395C185.400,671.363,199.489,671.348,201.257,671.365C203.172,671.384,218.343,671.896,220.308,671.778C220.614,671.767,227.169,671.392,227.293,672.079C227.342,672.359,225.681,674.057,225.255,674.052C224.411,674.046,210.964,675.226,209.857,674.958C208.594,674.878,199.658,675.218,198.518,675.181C196.282,675.107,178.258,674.273,176.357,673.121C176.117,672.911,175.328,671.608,175.373,671.434C175.446,671.156,182.578,671.415,183.677,671.395Z"/>
</g>
</g>
<g id="hat_brim">
<path class="path-0" d="M316.637,145.430C320.732,139.731,330.904,124.142,338.866,124.736C344.175,125.133,354.405,135.572,359.822,138.979C364.575,142.337,369.686,145.387,375.128,148.462C378.207,150.366,381.290,152.264,384.377,154.156C398.100,162.521,393.647,168.529,385.451,166.581C367.120,161.875,364.035,162.981,346.813,152.353C344.565,151.184,338.840,147.422,337.523,151.660C335.826,156.537,344.462,161.520,347.987,163.450C354.349,167.596,361.351,172.123,369.264,173.380C371.563,173.886,379.575,173.815,380.727,176.237C382.470,179.704,372.206,187.611,370.066,189.453C366.525,192.192,362.986,194.930,359.494,197.005C354.270,199.950,348.738,202.540,343.024,203.114C332.309,203.649,300.270,185.911,300.142,174.225C299.974,167.541,312.185,151.437,316.637,145.430M351.132,121.316C346.477,116.631,343.299,110.054,335.751,112.828C330.269,114.755,324.060,121.964,320.114,125.673C305.272,141.246,291.536,159.905,290.590,181.519C289.907,195.145,294.575,195.162,305.128,201.286C321.096,210.819,342.132,215.058,360.667,208.103C372.675,203.660,394.251,187.256,400.452,175.708C402.407,171.850,406.061,163.115,404.085,158.298C401.852,152.458,380.342,141.178,373.979,137.034C366.339,132.126,357.678,127.476,351.132,121.316Z"/>
<path class="path-9" d="M338.866,124.736C344.175,125.133,354.405,135.572,359.822,138.979"/>
<path class="path-9" d="M359.822,138.979C364.575,142.337,369.686,145.387,375.128,148.462"/>
<path class="path-9" d="M375.128,148.462C378.207,150.366,381.290,152.264,384.377,154.156"/>
<path class="path-9" d="M384.377,154.156C398.100,162.521,393.647,168.529,385.451,166.581"/>
<path class="path-9" d="M385.451,166.581C367.120,161.875,364.035,162.981,346.813,152.353"/>
<path class="path-9" d="M346.813,152.353C344.565,151.184,338.840,147.422,337.523,151.660"/>
<path class="path-9" d="M337.523,151.660C335.826,156.537,344.462,161.520,347.987,163.450"/>
<path class="path-9" d="M347.987,163.450C354.349,167.596,361.351,172.123,369.264,173.380"/>
<path class="path-9" d="M369.264,173.380C371.563,173.886,379.575,173.815,380.727,176.237"/>
<path class="path-9" d="M380.727,176.237C382.470,179.704,372.206,187.611,370.066,189.453"/>
<path class="path-9" d="M370.066,189.453C366.525,192.192,362.986,194.930,359.494,197.005"/>
<path class="path-9" d="M359.494,197.005C354.270,199.950,348.738,202.540,343.024,203.114"/>
<path class="path-9" d="M343.024,203.114C332.309,203.649,300.270,185.911,300.142,174.225"/>
<path class="path-9" d="M300.142,174.225C299.974,167.541,312.185,151.437,316.637,145.430"/>
<path class="path-9" d="M316.637,145.430C320.732,139.731,330.904,124.142,338.866,124.736"/>
<path class="path-10" d="M338.866,124.736C344.175,125.133,354.405,135.572,359.822,138.979C364.575,142.337,369.686,145.387,375.128,148.462C378.207,150.366,381.290,152.264,384.377,154.156C398.100,162.521,393.647,168.529,385.451,166.581C367.120,161.875,364.035,162.981,346.813,152.353C344.565,151.184,338.840,147.422,337.523,151.660C335.826,156.537,344.462,161.520,347.987,163.450C354.349,167.596,361.351,172.123,369.264,173.380C371.563,173.886,379.575,173.815,380.727,176.237C382.470,179.704,372.206,187.611,370.066,189.453C366.525,192.192,362.986,194.930,359.494,197.005C354.270,199.950,348.738,202.540,343.024,203.114C332.309,203.649,300.270,185.911,300.142,174.225C299.974,167.541,312.185,151.437,316.637,145.430C320.732,139.731,330.904,124.142,338.866,124.736Z"/>
</g>
<g id="hair">
<path class="path-0" d="M205.732,142.738C222.518,129.869,242.364,127.613,263.363,125.537C272.776,124.589,279.624,130.626,287.210,136.495C293.459,141.663,300.194,147.505,306.827,152.925C316.809,161.023,321.033,165.133,324.811,169.075C328.020,172.081,333.066,177.749,337.004,180.356C341.754,183.499,351.895,200.058,354.042,201.871C347.548,204.492,337.238,206.747,332.684,210.862C334.674,216.583,335.543,225.576,335.711,228.280C329.539,229.070,322.172,226.686,310.612,225.271C308.703,232.579,309.109,239.296,304.840,246.849C297.010,244.955,291.543,243.379,281.333,239.524C275.073,245.099,273.511,244.781,263.216,251.914C255.880,247.997,249.966,243.709,242.896,241.272C236.303,244.552,225.642,246.194,222.178,249.328C217.968,242.523,214.021,234.969,210.576,231.791C201.113,234.312,197.159,237.174,190.538,240.027C186.006,234.768,188.749,230.054,183.606,222.236C179.215,221.320,172.387,219.095,166.829,219.309C170.404,214.605,172.379,199.720,178.759,197.479C186.632,194.715,181.042,185.888,185.490,177.419C186.585,175.219,197.395,158.237,198.295,155.511C200.026,150.802,201.930,145.800,205.732,142.738M291.084,123.626C278.323,114.924,253.375,111.237,239.705,115.266C227.151,118.813,214.917,123.534,204.283,131.331C198.324,135.638,191.818,141.856,188.058,148.186C180.528,160.492,170.156,187.069,164.165,199.444C159.393,209.696,154.787,216.697,149.958,222.388C167.909,227.813,173.193,230.176,178.477,230.684C179.239,238.409,186.705,243.756,185.948,252.370C194.670,250.573,199.781,248.053,207.491,245.664C211.724,250.088,214.821,256.250,218.963,262.228C226.550,259.705,234.445,259.556,241.768,253.683C247.456,256.384,256.483,260.568,265.767,265.011C273.808,260.137,275.569,259.785,283.065,254.307C292.659,256.112,302.927,261.420,312.405,259.875C311.276,251.739,317.012,245.789,316.014,240.585C323.097,238.261,345.303,240.231,349.047,239.700C348.484,233.675,344.518,222.303,345.683,215.023C352.380,212.837,358.036,210.872,368.372,205.187C364.531,198.696,357.846,190.744,352.113,186.101C347.277,182.223,343.222,176.953,338.372,172.901C321.939,159.397,314.695,139.809,291.084,123.626Z"/>
<path class="path-11" d="M263.363,125.537C272.776,124.589,279.624,130.626,287.210,136.495"/>
<path class="path-11" d="M287.210,136.495C293.459,141.663,300.194,147.505,306.827,152.925"/>
<path class="path-11" d="M306.827,152.925C316.809,161.023,321.033,165.133,324.811,169.075"/>
<path class="path-11" d="M324.811,169.075C328.020,172.081,333.066,177.749,337.004,180.356"/>
<path class="path-11" d="M337.004,180.356C341.754,183.499,351.895,200.058,354.042,201.871"/>
<path class="path-11" d="M354.042,201.871C347.548,204.492,337.238,206.747,332.684,210.862"/>
<path class="path-11" d="M332.684,210.862C334.674,216.583,335.543,225.576,335.711,228.280"/>
<path class="path-11" d="M335.711,228.280C329.539,229.070,322.172,226.686,310.612,225.271"/>
<path class="path-11" d="M310.612,225.271C308.703,232.579,309.109,239.296,304.840,246.849"/>
<path class="path-11" d="M304.840,246.849C297.010,244.955,291.543,243.379,281.333,239.524"/>
<path class="path-11" d="M281.333,239.524C275.073,245.099,273.511,244.781,263.216,251.914"/>
<path class="path-11" d="M263.216,251.914C255.880,247.997,249.966,243.709,242.896,241.272"/>
<path class="path-11" d="M242.896,241.272C236.303,244.552,225.642,246.194,222.178,249.328"/>
<path class="path-11" d="M222.178,249.328C217.968,242.523,214.021,234.969,210.576,231.791"/>
<path class="path-11" d="M210.576,231.791C201.113,234.312,197.159,237.174,190.538,240.027"/>
<path class="path-11" d="M190.538,240.027C186.006,234.768,188.749,230.054,183.606,222.236"/>
<path class="path-11" d="M183.606,222.236C179.215,221.320,172.387,219.095,166.829,219.309"/>
<path class="path-11" d="M166.829,219.309C170.404,214.605,172.379,199.720,178.759,197.479"/>
<path class="path-11" d="M178.759,197.479C186.632,194.715,181.042,185.888,185.490,177.419"/>
<path class="path-11" d="M185.490,177.419C186.585,175.219,197.395,158.237,198.295,155.511"/>
<path class="path-11" d="M198.295,155.511C200.026,150.802,201.930,145.800,205.732,142.738"/>
<path class="path-11" d="M205.732,142.738C222.518,129.869,242.364,127.613,263.363,125.537"/>
<path class="path-12" d="M263.363,125.537C272.776,124.589,279.624,130.626,287.210,136.495C293.459,141.663,300.194,147.505,306.827,152.925C316.809,161.023,321.033,165.133,324.811,169.075C328.020,172.081,333.066,177.749,337.004,180.356C341.754,183.499,351.895,200.058,354.042,201.871C347.548,204.492,337.238,206.747,332.684,210.862C334.674,216.583,335.543,225.576,335.711,228.280C329.539,229.070,322.172,226.686,310.612,225.271C308.703,232.579,309.109,239.296,304.840,246.849C297.010,244.955,291.543,243.379,281.333,239.524C275.073,245.099,273.511,244.781,263.216,251.914C255.880,247.997,249.966,243.709,242.896,241.272C236.303,244.552,225.642,246.194,222.178,249.328C217.968,242.523,214.021,234.969,210.576,231.791C201.113,234.312,197.159,237.174,190.538,240.027C186.006,234.768,188.749,230.054,183.606,222.236C179.215,221.320,172.387,219.095,166.829,219.309C170.404,214.605,172.379,199.720,178.759,197.479C186.632,194.715,181.042,185.888,185.490,177.419C186.585,175.219,197.395,158.237,198.295,155.511C200.026,150.802,201.930,145.800,205.732,142.738C222.518,129.869,242.364,127.613,263.363,125.537Z"/>
</g>
<g id="clothes">
<path class="path-0" d="M256.578,369.147C250.996,367.165,230.562,370.938,227.006,375.949C225.020,378.935,227.886,380.716,231.004,380.854C235.225,381.041,257.127,377.915,260.013,376.088C264.274,373.320,258.735,369.808,256.578,369.147M210.492,266.817C214.332,254.450,242.072,243.470,254.903,245.371C263.855,246.671,291.202,262.672,294.606,271.290C297.458,278.187,296.699,302.898,296.411,311.246C295.605,326.535,295.683,341.905,295.200,357.207C295.408,369.985,305.002,385.281,297.297,395.477C293.738,399.085,281.435,395.358,275.878,395.793C271.183,396.385,262.551,400.468,258.205,400.789C236.858,402.955,239.786,408.908,219.673,409.566C215.309,409.543,201.434,406.538,198.799,404.373C192.501,397.848,196.455,388.358,198.435,379.852C202.339,365.701,203.414,355.705,205.441,340.268C207.429,324.322,210.697,307.351,211.875,290.784C211.967,284.820,209.584,270.402,210.492,266.817M290.333,253.882C274.698,243.084,259.264,233.994,239.233,238.299C233.841,239.257,206.436,250.336,203.898,253.498C199.932,258.528,202.333,278.850,201.837,286.091C201.580,294.707,201.226,303.654,199.945,311.865C199.143,318.139,197.378,323.670,196.921,329.636C196.081,336.239,195.540,343.387,194.068,349.421C189.442,367.828,176.619,404.508,198.581,417.397C203.041,420.037,209.455,420.199,214.929,420.262C224.750,420.188,235.358,419.743,245.052,417.406C257.295,414.812,268.122,406.353,280.767,405.605C286.414,405.272,302.787,414.065,307.761,410.754C309.947,409.368,313.878,398.678,314.061,395.759C314.282,380.852,306.157,366.795,304.955,351.935C304.321,339.967,304.470,328.204,306.048,315.974C307.126,306.009,309.498,296.471,310.217,286.143C310.184,281.773,311.194,276.472,309.152,271.963C305.701,263.687,297.363,258.728,290.333,253.882Z"/>
<path class="path-13" d="M256.578,369.147C250.996,367.165,230.562,370.938,227.006,375.949"/>
<path class="path-13" d="M227.006,375.949C225.020,378.935,227.886,380.716,231.004,380.854"/>
<path class="path-13" d="M231.004,380.854C235.225,381.041,257.127,377.915,260.013,376.088"/>
<path class="path-13" d="M260.013,376.088C264.274,373.320,258.735,369.808,256.578,369.147"/>
<path class="path-13" d="M210.492,266.817C214.332,254.450,242.072,243.470,254.903,245.371"/>
<path class="path-13" d="M254.903,245.371C263.855,246.671,291.202,262.672,294.606,271.290"/>
<path class="path-13" d="M294.606,271.290C297.458,278.187,296.699,302.898,296.411,311.246"/>
<path class="path-13" d="M296.411,311.246C295.605,326.535,295.683,341.905,295.200,357.207"/>
<path class="path-13" d="M295.200,357.207C295.408,369.985,305.002,385.281,297.297,395.477"/>
<path class="path-13" d="M297.297,395.477C293.738,399.085,281.435,395.358,275.878,395.793"/>
<path class="path-13" d="M275.878,395.793C271.183,396.385,262.551,400.468,258.205,400.789"/>
<path class="path-13" d="M258.205,400.789C236.858,402.955,239.786,408.908,219.673,409.566"/>
<path class="path-13" d="M219.673,409.566C215.309,409.543,201.434,406.538,198.799,404.373"/>
<path class="path-13" d="M198.799,404.373C192.501,397.848,196.455,388.358,198.435,379.852"/>
<path class="path-13" d="M198.435,379.852C202.339,365.701,203.414,355.705,205.441,340.268"/>
<path class="path-13" d="M205.441,340.268C207.429,324.322,210.697,307.351,211.875,290.784"/>
<path class="path-13" d="M211.875,290.784C211.967,284.820,209.584,270.402,210.492,266.817"/>
<path class="path-14" d="M256.578,369.147C250.996,367.165,230.562,370.938,227.006,375.949C225.020,378.935,227.886,380.716,231.004,380.854C235.225,381.041,257.127,377.915,260.013,376.088C264.274,373.320,258.735,369.808,256.578,369.147M210.492,266.817C214.332,254.450,242.072,243.470,254.903,245.371C263.855,246.671,291.202,262.672,294.606,271.290C297.458,278.187,296.699,302.898,296.411,311.246C295.605,326.535,295.683,341.905,295.200,357.207C295.408,369.985,305.002,385.281,297.297,395.477C293.738,399.085,281.435,395.358,275.878,395.793C271.183,396.385,262.551,400.468,258.205,400.789C236.858,402.955,239.786,408.908,219.673,409.566C215.309,409.543,201.434,406.538,198.799,404.373C192.501,397.848,196.455,388.358,198.435,379.852C202.339,365.701,203.414,355.705,205.441,340.268C207.429,324.322,210.697,307.351,211.875,290.784C211.967,284.820,209.584,270.402,210.492,266.817Z"/>
</g>
<g id="neck">
<path class="path-0" d="M248.555,226.299C248.947,222.977,249.998,220.001,253.662,219.732C265.339,217.941,263.682,255.513,253.038,255.326C243.058,255.152,247.780,232.606,248.555,226.299M253.825,210.419C251.171,210.039,248.165,210.652,245.813,211.942C236.416,216.435,237.595,225.108,237.444,233.756C237.034,238.075,237.298,242.073,235.238,245.697C233.517,248.995,228.800,252.238,228.736,255.898C228.894,265.884,255.839,266.356,262.830,266.145C265.491,266.192,274.454,267.347,275.516,263.706C275.534,262.709,269.086,250.948,268.170,246.274C265.421,232.251,275.098,211.791,253.825,210.419Z"/>
<path class="path-15" d="M253.662,219.732C265.339,217.941,263.682,255.513,253.038,255.326"/>
<path class="path-15" d="M253.038,255.326C243.058,255.152,247.780,232.606,248.555,226.299"/>
<path class="path-15" d="M248.555,226.299C248.947,222.977,249.998,220.001,253.662,219.732"/>
<path class="path-16" d="M253.662,219.732C265.339,217.941,263.682,255.513,253.038,255.326C243.058,255.152,247.780,232.606,248.555,226.299C248.947,222.977,249.998,220.001,253.662,219.732Z"/>
</g>
<g id="layer_head">
<g id="right_ear">
<path class="path-0" d="M166.830,191.484C156.427,192.750,143.634,155.520,157.847,159.987C162.940,161.572,165.097,170.935,165.934,174.912C167.218,180.482,174.067,190.648,166.830,191.484M165.271,148.444C162.032,146.319,158.009,145.073,154.421,146.534C144.768,148.771,141.088,160.527,141.975,170.447C143.222,182.876,152.778,199.218,163.743,203.035C166.885,204.147,173.363,206.908,176.654,205.656C183.395,202.604,179.495,192.161,178.194,186.502C176.757,179.560,170.242,153.081,165.271,148.444Z"/>
<path class="path-15" d="M157.847,159.987C162.940,161.572,165.097,170.935,165.934,174.912"/>
<path class="path-15" d="M165.934,174.912C167.218,180.482,174.067,190.648,166.830,191.484"/>
<path class="path-15" d="M166.830,191.484C156.427,192.750,143.634,155.520,157.847,159.987"/>
<path class="path-16" d="M157.847,159.987C162.940,161.572,165.097,170.935,165.934,174.912C167.218,180.482,174.067,190.648,166.830,191.484C156.427,192.750,143.634,155.520,157.847,159.987Z"/>
</g>
<g id="face_Mask">
<g id="face">
<path class="path-0" d="M185.566,103.589C194.806,93.801,228.019,89.075,241.769,88.100C257.180,87.249,272.600,90.735,287.183,96.494C292.368,98.550,299.991,100.961,304.221,105.106C311.130,111.927,313.713,123.581,315.588,132.720C317.101,139.236,320.377,147.746,318.749,153.855C311.674,180.399,304.820,192.034,299.228,199.343C292.001,208.790,279.601,212.287,268.687,216.754C250.948,223.719,232.836,227.055,223.547,225.779C211.532,224.129,186.481,213.808,178.997,204.933C172.479,196.906,173.348,186.646,172.085,176.824C170.645,167.832,169.031,154.147,168.725,145.229C168.517,134.001,177.966,111.567,185.566,103.589M308.799,97.751C296.238,84.447,260.171,79.048,242.390,80.372C234.019,80.740,226.006,80.802,218.226,82.218C212.459,83.454,207.279,85.733,201.843,86.995C189.907,90.440,185.216,88.647,176.606,98.799C170.438,105.895,160.411,134.869,159.750,144.089C159.370,151.110,161.179,167.993,161.832,176.153C162.520,185.431,163.295,198.123,167.373,206.119C170.814,212.631,175.679,217.649,184.552,222.919C196.224,229.851,210.127,234.857,223.884,237.345C232.613,239.481,250.345,236.201,274.336,225.976C286.210,220.740,298.110,214.676,306.427,203.599C315.295,191.787,323.970,175.322,330.338,154.463C336.430,134.505,316.493,105.725,308.799,97.751Z"/>
<path class="path-15" d="M241.769,88.100C257.180,87.249,272.600,90.735,287.183,96.494"/>
<path class="path-15" d="M287.183,96.494C292.368,98.550,299.991,100.961,304.221,105.106"/>
<path class="path-15" d="M304.221,105.106C311.130,111.927,313.713,123.581,315.588,132.720"/>
<path class="path-15" d="M315.588,132.720C317.101,139.236,320.377,147.746,318.749,153.855"/>
<path class="path-15" d="M318.749,153.855C311.674,180.399,304.820,192.034,299.228,199.343"/>
<path class="path-15" d="M299.228,199.343C292.001,208.790,279.601,212.287,268.687,216.754"/>
<path class="path-15" d="M268.687,216.754C250.948,223.719,232.836,227.055,223.547,225.779"/>
<path class="path-15" d="M223.547,225.779C211.532,224.129,186.481,213.808,178.997,204.933"/>
<path class="path-15" d="M178.997,204.933C172.479,196.906,173.348,186.646,172.085,176.824"/>
<path class="path-15" d="M172.085,176.824C170.645,167.832,169.031,154.147,168.725,145.229"/>
<path class="path-15" d="M168.725,145.229C168.517,134.001,177.966,111.567,185.566,103.589"/>
<path class="path-15" d="M185.566,103.589C194.806,93.801,228.019,89.075,241.769,88.100"/>
<path class="path-16" d="M241.769,88.100C257.180,87.249,272.600,90.735,287.183,96.494C292.368,98.550,299.991,100.961,304.221,105.106C311.130,111.927,313.713,123.581,315.588,132.720C317.101,139.236,320.377,147.746,318.749,153.855C311.674,180.399,304.820,192.034,299.228,199.343C292.001,208.790,279.601,212.287,268.687,216.754C250.948,223.719,232.836,227.055,223.547,225.779C211.532,224.129,186.481,213.808,178.997,204.933C172.479,196.906,173.348,186.646,172.085,176.824C170.645,167.832,169.031,154.147,168.725,145.229C168.517,134.001,177.966,111.567,185.566,103.589C194.806,93.801,228.019,89.075,241.769,88.100Z"/>
</g>
</g>
<mask id="mask_target" style="mask-type:alpha;">
<use xlink:href="#face_Mask"/>
</mask>
<g id="mouse">
<path class="path-0" d="M226.684,216.164C231.791,217.652,231.521,222.398,231.011,222.868C230.723,223.134,229.674,222.102,226.759,221.396C221.237,220.059,218.451,221.027,218.308,220.300C218.150,219.503,220.704,214.421,226.684,216.164Z"/>
</g>
<g id="layer_eyes_Mtarget" mask="url(#mask_target)">
<g id="eyes">
<mask style="mask-type:alpha;" id="f3906406-f197-4bf1-91d8-744c09cca836">
<use xlink:href="#cmn_f3906406-f197-4bf1-91d8-744c09cca836"/>
</mask>
<g id="cmn_f3906406-f197-4bf1-91d8-744c09cca836">
<path class="path-0" d="M197.298,184.626C196.638,187.517,188.421,188.164,187.436,188.162C185.098,188.164,177.662,186.987,176.260,183.909C175.754,182.839,177.358,176.794,177.357,178.462C177.355,180.778,197.699,182.869,197.298,184.626M203.108,187.835C203.267,186.782,204.068,182.686,202.789,181.130C202.036,180.214,200.206,179.657,199.029,179.910C194.686,180.740,179.056,174.227,174.104,170.989C173.246,170.442,171.643,167.900,170.556,168.126C163.404,169.524,168.550,177.794,171.107,187.627C171.920,190.751,186.735,194.681,187.753,194.436C189.946,193.907,202.582,191.320,203.108,187.835M244.084,193.822C240.186,193.225,233.542,192.811,233.268,186.672C233.129,183.555,250.680,183.325,254.236,182.561C257.025,181.961,269.751,179.261,271.218,179.336C271.938,179.405,273.367,182.537,273.277,184.202C273.127,186.960,250.809,194.852,244.084,193.822M280.046,188.570C282.030,186.294,283.050,174.459,282.031,173.615C278.262,170.494,264.992,174.749,257.751,175.772C250.250,176.830,237.911,181.143,232.965,180.596C229.813,180.362,227.044,179.298,225.684,181.013C224.388,182.648,225.939,185.979,226.807,187.876C228.018,190.521,230.089,193.600,233.164,195.197C240.054,198.876,256.246,198.082,263.203,196.988C266.320,196.497,277.547,191.438,280.046,188.570Z"/>
<path class="path-17" d="M271.218,179.336C271.938,179.405,273.367,182.537,273.277,184.202"/>
<path class="path-17" d="M273.277,184.202C273.127,186.960,250.809,194.852,244.084,193.822"/>
<path class="path-17" d="M244.084,193.822C240.186,193.225,233.542,192.811,233.268,186.672"/>
<path class="path-17" d="M233.268,186.672C233.129,183.555,250.680,183.325,254.236,182.561"/>
<path class="path-17" d="M254.236,182.561C257.025,181.961,269.751,179.261,271.218,179.336"/>
<path class="path-18" d="M271.218,179.336C271.938,179.405,273.367,182.537,273.277,184.202C273.127,186.960,250.809,194.852,244.084,193.822C240.186,193.225,233.542,192.811,233.268,186.672C233.129,183.555,250.680,183.325,254.236,182.561C257.025,181.961,269.751,179.261,271.218,179.336Z"/>
<path class="path-17" d="M177.357,178.462C177.355,180.778,197.699,182.869,197.298,184.626"/>
<path class="path-17" d="M197.298,184.626C196.638,187.517,188.421,188.164,187.436,188.162"/>
<path class="path-17" d="M187.436,188.162C185.098,188.164,177.662,186.987,176.260,183.909"/>
<path class="path-17" d="M176.260,183.909C175.754,182.839,177.358,176.794,177.357,178.462"/>
<path class="path-18" d="M177.357,178.462C177.355,180.778,197.699,182.869,197.298,184.626C196.638,187.517,188.421,188.164,187.436,188.162C185.098,188.164,177.662,186.987,176.260,183.909C175.754,182.839,177.358,176.794,177.357,178.462Z"/>
</g>
</g>
<g id="pupil">
<path class="path-0" d="M235.331,173.074C237.769,172.689,240.195,176.613,240.180,185.514C240.170,191.093,238.922,193.264,237.382,193.401C235.477,193.570,234.023,190.770,233.248,183.917C232.420,176.602,233.315,173.392,235.331,173.074Z" mask="url(#f3906406-f197-4bf1-91d8-744c09cca836)"/>
<path class="path-0" d="M192.832,171.120C195.205,170.745,196.726,174.850,197.297,183.783C197.614,188.732,197.260,190.814,195.960,191.100C194.409,191.441,192.852,189.160,191.574,183.381C189.799,175.358,190.653,171.464,192.832,171.120Z" mask="url(#f3906406-f197-4bf1-91d8-744c09cca836)"/>
</g>
</g>
<g id="hat">
<path class="path-0" d="M321.155,136.329C323.261,137.479,325.784,140.335,326.024,143.007C327.176,149.608,316.041,149.090,312.575,149.244C306.386,148.901,299.969,147.914,294.090,147.190C288.008,146.995,281.964,146.170,275.894,145.728C260.980,143.466,246.184,140.586,231.259,138.423C218.563,137.089,206.474,135.316,193.246,133.959C191.511,133.820,165.973,134.519,161.462,132.183C150.308,126.536,161.594,117.798,161.306,112.288C161.374,109.456,155.520,108.278,157.313,103.475C158.880,99.472,173.067,96.330,177.403,95.582C188.473,93.609,200.058,91.616,211.800,91.271C226.783,90.900,241.121,93.062,256.170,93.866C274.802,94.945,313.014,102.413,326.562,121.033C333.083,129.854,315.305,121.385,313.372,120.927C305.489,117.515,275.551,104.122,288.299,117.451C294.710,125.333,313.335,131.287,321.155,136.329M210.243,83.621C198.917,83.731,188.584,83.395,177.849,84.839C173.577,85.403,168.514,86.625,164.585,85.834C156.094,84.226,169.226,62.951,173.428,58.374C189.706,41.080,220.166,33.661,244.990,36.295C291.271,41.205,308.436,52.331,321.129,70.213C325.174,75.482,337.597,100.196,327.944,105.461C324.531,107.042,318.949,103.172,316.217,101.553C306.685,96.175,250.751,83.229,210.243,83.621M292.184,37.405C278.145,32.342,270.469,26.745,252.929,25.847C222.079,24.528,183.899,27.730,162.926,54.593C156.348,63.216,154.301,73.311,150.889,82.809C148.399,89.644,143.418,94.404,143.112,101.588C142.997,108.932,146.500,110.958,147.603,116.904C148.969,123.289,146.014,125.628,146.704,129.770C147.514,141.446,158.098,143.338,167.700,144.605C172.309,145.214,189.444,146.144,198.761,146.835C209.753,147.649,224.418,148.646,235.397,149.636C245.623,150.558,259.215,152.235,269.440,153.165C278.915,154.028,291.546,155.356,301.056,155.649C310.389,155.937,330.977,156.129,332.179,155.134C334.159,153.524,339.931,136.408,340.465,133.129C341.081,129.348,339.732,125.270,340.841,119.213C342.821,106.810,344.682,95.598,340.516,82.609C332.886,59.511,311.513,44.679,292.184,37.405Z"/>
<path class="path-19" d="M256.170,93.866C274.802,94.945,313.014,102.413,326.562,121.033"/>
<path class="path-19" d="M326.562,121.033C333.083,129.854,315.305,121.385,313.372,120.927"/>
<path class="path-19" d="M313.372,120.927C305.489,117.515,275.551,104.122,288.299,117.451"/>
<path class="path-19" d="M288.299,117.451C294.710,125.333,313.335,131.287,321.155,136.329"/>
<path class="path-19" d="M321.155,136.329C323.261,137.479,325.784,140.335,326.024,143.007"/>
<path class="path-19" d="M326.024,143.007C327.176,149.608,316.041,149.090,312.575,149.244"/>
<path class="path-19" d="M312.575,149.244C306.386,148.901,299.969,147.914,294.090,147.190"/>
<path class="path-19" d="M294.090,147.190C288.008,146.995,281.964,146.170,275.894,145.728"/>
<path class="path-19" d="M275.894,145.728C260.980,143.466,246.184,140.586,231.259,138.423"/>
<path class="path-19" d="M231.259,138.423C218.563,137.089,206.474,135.316,193.246,133.959"/>
<path class="path-19" d="M193.246,133.959C191.511,133.820,165.973,134.519,161.462,132.183"/>
<path class="path-19" d="M161.462,132.183C150.308,126.536,161.594,117.798,161.306,112.288"/>
<path class="path-19" d="M161.306,112.288C161.374,109.456,155.520,108.278,157.313,103.475"/>
<path class="path-19" d="M157.313,103.475C158.880,99.472,173.067,96.330,177.403,95.582"/>
<path class="path-19" d="M177.403,95.582C188.473,93.609,200.058,91.616,211.800,91.271"/>
<path class="path-19" d="M211.800,91.271C226.783,90.900,241.121,93.062,256.170,93.866"/>
<path class="path-20" d="M256.170,93.866C274.802,94.945,313.014,102.413,326.562,121.033C333.083,129.854,315.305,121.385,313.372,120.927C305.489,117.515,275.551,104.122,288.299,117.451C294.710,125.333,313.335,131.287,321.155,136.329C323.261,137.479,325.784,140.335,326.024,143.007C327.176,149.608,316.041,149.090,312.575,149.244C306.386,148.901,299.969,147.914,294.090,147.190C288.008,146.995,281.964,146.170,275.894,145.728C260.980,143.466,246.184,140.586,231.259,138.423C218.563,137.089,206.474,135.316,193.246,133.959C191.511,133.820,165.973,134.519,161.462,132.183C150.308,126.536,161.594,117.798,161.306,112.288C161.374,109.456,155.520,108.278,157.313,103.475C158.880,99.472,173.067,96.330,177.403,95.582C188.473,93.609,200.058,91.616,211.800,91.271C226.783,90.900,241.121,93.062,256.170,93.866Z"/>
<path class="path-9" d="M244.990,36.295C291.271,41.205,308.436,52.331,321.129,70.213"/>
<path class="path-9" d="M321.129,70.213C325.174,75.482,337.597,100.196,327.944,105.461"/>
<path class="path-9" d="M327.944,105.461C324.531,107.042,318.949,103.172,316.217,101.553"/>
<path class="path-9" d="M316.217,101.553C306.685,96.175,250.751,83.229,210.243,83.621"/>
<path class="path-9" d="M210.243,83.621C198.917,83.731,188.584,83.395,177.849,84.839"/>
<path class="path-9" d="M177.849,84.839C173.577,85.403,168.514,86.625,164.585,85.834"/>
<path class="path-9" d="M164.585,85.834C156.094,84.226,169.226,62.951,173.428,58.374"/>
<path class="path-9" d="M173.428,58.374C189.706,41.080,220.166,33.661,244.990,36.295"/>
<path class="path-10" d="M244.990,36.295C291.271,41.205,308.436,52.331,321.129,70.213C325.174,75.482,337.597,100.196,327.944,105.461C324.531,107.042,318.949,103.172,316.217,101.553C306.685,96.175,250.751,83.229,210.243,83.621C198.917,83.731,188.584,83.395,177.849,84.839C173.577,85.403,168.514,86.625,164.585,85.834C156.094,84.226,169.226,62.951,173.428,58.374C189.706,41.080,220.166,33.661,244.990,36.295Z"/>
</g>
<g id="left_ear">
<path class="path-0" d="M300.685,191.969C299.571,186.787,303.255,161.320,306.096,157.356C312.925,147.474,330.339,157.132,333.796,165.859C337.499,175.802,327.186,191.349,318.538,197.496C309.895,203.444,302.723,200.833,300.685,191.969M347.562,169.986C346.355,155.258,329.253,139.645,315.977,145.863C299.407,153.623,304.435,177.662,301.651,192.551C301.095,196.027,298.717,199.613,299.446,202.882C301.755,214.090,313.817,215.100,323.279,206.269C332.627,197.364,348.267,183.686,347.562,169.986Z"/>
<path class="path-15" d="M306.096,157.356C312.925,147.474,330.339,157.132,333.796,165.859"/>
<path class="path-15" d="M333.796,165.859C337.499,175.802,327.186,191.349,318.538,197.496"/>
<path class="path-15" d="M318.538,197.496C309.895,203.444,302.723,200.833,300.685,191.969"/>
<path class="path-15" d="M300.685,191.969C299.571,186.787,303.255,161.320,306.096,157.356"/>
<path class="path-16" d="M306.096,157.356C312.925,147.474,330.339,157.132,333.796,165.859C337.499,175.802,327.186,191.349,318.538,197.496C309.895,203.444,302.723,200.833,300.685,191.969C299.571,186.787,303.255,161.320,306.096,157.356Z"/>
</g>
<g id="earrings">
<path class="path-0" d="M321.647,215.059C312.598,218.434,312.131,199.837,315.589,200.392C320.361,202.375,327.512,211.694,321.647,215.059M331.828,207.335C325.168,207.346,322.655,198.131,322.355,194.292C329.757,196.393,338.859,202.532,331.828,207.335M342.566,204.557C340.581,196.245,328.719,190.800,321.112,186.941C318.241,185.485,309.339,195.358,308.779,198.698C307.477,202.675,308.654,224.728,322.579,222.809C328.375,221.748,344.162,211.241,342.566,204.557Z"/>
<path class="path-21" d="M322.355,194.292C329.757,196.393,338.859,202.532,331.828,207.335"/>
<path class="path-21" d="M331.828,207.335C325.168,207.346,322.655,198.131,322.355,194.292"/>
<path class="path-22" d="M322.355,194.292C329.757,196.393,338.859,202.532,331.828,207.335C325.168,207.346,322.655,198.131,322.355,194.292Z"/>
<path class="path-21" d="M315.589,200.392C320.361,202.375,327.512,211.694,321.647,215.059"/>
<path class="path-21" d="M321.647,215.059C312.598,218.434,312.131,199.837,315.589,200.392"/>
<path class="path-22" d="M315.589,200.392C320.361,202.375,327.512,211.694,321.647,215.059C312.598,218.434,312.131,199.837,315.589,200.392Z"/>
</g>
</g>
<g id="jacket">
<path class="path-0" d="M221.539,272.222C223.403,277.011,217.670,286.526,216.682,291.133C210.631,308.895,202.007,326.069,202.726,344.383C203.122,350.094,207.685,362.691,202.274,366.570C200.127,368.109,194.418,363.866,193.528,365.541C191.938,368.532,186.883,358.636,186.167,357.280C185.526,356.065,183.396,347.753,183.271,345.429C183.310,340.817,184.065,331.810,185.314,326.129C186.644,320.293,187.899,314.154,190.891,308.272C193.692,301.471,198.234,293.873,200.878,286.107C203.658,281.316,207.822,278.729,207.252,274.856C206.358,271.177,204.182,269.264,207.407,267.598C211.398,265.882,220.926,267.258,221.539,272.222M284.581,277.730C286.009,276.655,299.125,272.449,300.545,271.541C313.213,264.269,323.433,274.109,324.289,282.664C324.766,286.870,320.846,301.386,319.898,304.273C317.749,309.725,315.038,313.245,313.199,317.924C305.436,335.160,312.601,324.750,308.608,340.815C307.876,343.754,306.601,349.974,306.082,352.897C305.360,355.916,304.279,362.678,303.302,365.420C300.931,370.589,297.090,377.598,288.914,375.903C288.419,375.862,283.463,375.514,282.611,375.492C276.497,375.007,269.234,375.400,265.050,370.308C261.397,365.336,260.908,357.836,260.389,351.245C259.236,339.152,263.070,327.257,266.570,315.574C269.399,304.439,275.731,285.970,284.581,277.730M297.649,262.188C294.711,263.783,288.441,263.550,286.624,263.800C283.185,264.087,282.727,261.288,282.516,258.874C282.290,254.439,285.589,248.092,288.996,245.018C291.677,242.598,296.325,240.726,300.287,240.841C303.914,240.817,309.940,243.672,309.366,247.760C309.137,250.748,302.549,259.528,297.649,262.188M225.131,245.436C229.477,254.964,234.079,264.694,228.907,263.088C222.702,261.161,219.496,261.153,209.768,256.520C199.482,251.622,197.533,236.448,203.668,231.994C209.816,227.530,220.052,234.301,225.131,245.436M314.295,372.251C315.680,364.447,319.014,359.787,319.890,351.558C320.408,346.198,320.927,340.012,320.284,334.693C318.956,325.680,318.986,321.981,318.787,311.674C318.471,303.040,321.317,296.367,320.698,288.100C320.344,285.091,310.783,271.953,311.084,269.205C310.851,263.774,318.303,260.833,319.867,256.079C321.221,252.370,322.663,248.399,322.380,244.460C322.306,239.430,318.123,235.748,314.668,232.796C309.687,229.024,304.731,228.771,298.351,229.127C288.656,229.678,282.603,237.921,278.318,244.075C272.315,252.695,272.637,267.956,269.192,277.880C267.201,283.616,263.669,291.314,261.357,296.542C252.296,316.186,235.983,368.314,251.379,383.715C253.003,385.565,267.103,391.421,271.739,391.877C280.643,392.800,284.852,394.209,293.531,393.560C299.323,393.353,308.427,384.996,312.350,378.698C313.420,377.100,314.048,373.637,314.295,372.251M230.769,234.889C225.385,228.255,215.965,216.332,207.483,218.497C203.424,219.674,197.889,223.035,195.003,226.396C192.109,229.766,189.103,235.463,189.069,239.962C188.905,245.375,188.574,251.802,190.267,256.470C192.363,262.250,201.731,266.941,202.432,272.963C202.676,275.712,195.057,287.296,193.816,290.483C191.644,296.553,187.861,302.160,185.469,307.243C183.008,312.473,179.589,319.408,177.658,324.856C175.199,331.793,171.765,340.549,171.350,348.563C170.849,353.291,172.573,364.289,176.075,369.796C178.263,373.238,184.021,377.513,186.571,378.437C188.046,378.972,202.983,383.476,208.088,379.513C217.298,372.362,213.717,356.728,211.602,340.805C209.649,326.255,221.261,314.793,226.236,300.802C228.275,295.039,236.166,276.169,237.003,269.384C237.703,263.706,239.824,259.925,238.568,251.967C237.742,247.587,234.318,239.262,230.769,234.889Z"/>
<path class="path-1" d="M300.545,271.541C313.213,264.269,323.433,274.109,324.289,282.664"/>
<path class="path-1" d="M324.289,282.664C324.766,286.870,320.846,301.386,319.898,304.273"/>
<path class="path-1" d="M319.898,304.273C317.749,309.725,315.038,313.245,313.199,317.924"/>
<path class="path-1" d="M313.199,317.924C305.436,335.160,312.601,324.750,308.608,340.815"/>
<path class="path-1" d="M308.608,340.815C307.876,343.754,306.601,349.974,306.082,352.897"/>
<path class="path-1" d="M306.082,352.897C305.360,355.916,304.279,362.678,303.302,365.420"/>
<path class="path-1" d="M303.302,365.420C300.931,370.589,297.090,377.598,288.914,375.903"/>
<path class="path-1" d="M288.914,375.903C288.419,375.862,283.463,375.514,282.611,375.492"/>
<path class="path-1" d="M282.611,375.492C276.497,375.007,269.234,375.400,265.050,370.308"/>
<path class="path-1" d="M265.050,370.308C261.397,365.336,260.908,357.836,260.389,351.245"/>
<path class="path-1" d="M260.389,351.245C259.236,339.152,263.070,327.257,266.570,315.574"/>
<path class="path-1" d="M266.570,315.574C269.399,304.439,275.731,285.970,284.581,277.730"/>
<path class="path-1" d="M284.581,277.730C286.009,276.655,299.125,272.449,300.545,271.541"/>
<path class="path-2" d="M300.545,271.541C313.213,264.269,323.433,274.109,324.289,282.664C324.766,286.870,320.846,301.386,319.898,304.273C317.749,309.725,315.038,313.245,313.199,317.924C305.436,335.160,312.601,324.750,308.608,340.815C307.876,343.754,306.601,349.974,306.082,352.897C305.360,355.916,304.279,362.678,303.302,365.420C300.931,370.589,297.090,377.598,288.914,375.903C288.419,375.862,283.463,375.514,282.611,375.492C276.497,375.007,269.234,375.400,265.050,370.308C261.397,365.336,260.908,357.836,260.389,351.245C259.236,339.152,263.070,327.257,266.570,315.574C269.399,304.439,275.731,285.970,284.581,277.730C286.009,276.655,299.125,272.449,300.545,271.541Z"/>
<path class="path-1" d="M207.407,267.598C211.398,265.882,220.926,267.258,221.539,272.222"/>
<path class="path-1" d="M221.539,272.222C223.403,277.011,217.670,286.526,216.682,291.133"/>
<path class="path-1" d="M216.682,291.133C210.631,308.895,202.007,326.069,202.726,344.383"/>
<path class="path-1" d="M202.726,344.383C203.122,350.094,207.685,362.691,202.274,366.570"/>
<path class="path-1" d="M202.274,366.570C200.127,368.109,194.418,363.866,193.528,365.541"/>
<path class="path-1" d="M193.528,365.541C191.938,368.532,186.883,358.636,186.167,357.280"/>
<path class="path-1" d="M186.167,357.280C185.526,356.065,183.396,347.753,183.271,345.429"/>
<path class="path-1" d="M183.271,345.429C183.310,340.817,184.065,331.810,185.314,326.129"/>
<path class="path-1" d="M185.314,326.129C186.644,320.293,187.899,314.154,190.891,308.272"/>
<path class="path-1" d="M190.891,308.272C193.692,301.471,198.234,293.873,200.878,286.107"/>
<path class="path-1" d="M200.878,286.107C203.658,281.316,207.822,278.729,207.252,274.856"/>
<path class="path-1" d="M207.252,274.856C206.358,271.177,204.182,269.264,207.407,267.598"/>
<path class="path-2" d="M207.407,267.598C211.398,265.882,220.926,267.258,221.539,272.222C223.403,277.011,217.670,286.526,216.682,291.133C210.631,308.895,202.007,326.069,202.726,344.383C203.122,350.094,207.685,362.691,202.274,366.570C200.127,368.109,194.418,363.866,193.528,365.541C191.938,368.532,186.883,358.636,186.167,357.280C185.526,356.065,183.396,347.753,183.271,345.429C183.310,340.817,184.065,331.810,185.314,326.129C186.644,320.293,187.899,314.154,190.891,308.272C193.692,301.471,198.234,293.873,200.878,286.107C203.658,281.316,207.822,278.729,207.252,274.856C206.358,271.177,204.182,269.264,207.407,267.598Z"/>
<path class="path-1" d="M300.287,240.841C303.914,240.817,309.940,243.672,309.366,247.760"/>
<path class="path-1" d="M309.366,247.760C309.137,250.748,302.549,259.528,297.649,262.188"/>
<path class="path-1" d="M297.649,262.188C294.711,263.783,288.441,263.550,286.624,263.800"/>
<path class="path-1" d="M286.624,263.800C283.185,264.087,282.727,261.288,282.516,258.874"/>
<path class="path-1" d="M282.516,258.874C282.290,254.439,285.589,248.092,288.996,245.018"/>
<path class="path-1" d="M288.996,245.018C291.677,242.598,296.325,240.726,300.287,240.841"/>
<path class="path-2" d="M300.287,240.841C303.914,240.817,309.940,243.672,309.366,247.760C309.137,250.748,302.549,259.528,297.649,262.188C294.711,263.783,288.441,263.550,286.624,263.800C283.185,264.087,282.727,261.288,282.516,258.874C282.290,254.439,285.589,248.092,288.996,245.018C291.677,242.598,296.325,240.726,300.287,240.841Z"/>
<path class="path-1" d="M225.131,245.436C229.477,254.964,234.079,264.694,228.907,263.088"/>
<path class="path-1" d="M228.907,263.088C222.702,261.161,219.496,261.153,209.768,256.520"/>
<path class="path-1" d="M209.768,256.520C199.482,251.622,197.533,236.448,203.668,231.994"/>
<path class="path-1" d="M203.668,231.994C209.816,227.530,220.052,234.301,225.131,245.436"/>
<path class="path-2" d="M225.131,245.436C229.477,254.964,234.079,264.694,228.907,263.088C222.702,261.161,219.496,261.153,209.768,256.520C199.482,251.622,197.533,236.448,203.668,231.994C209.816,227.530,220.052,234.301,225.131,245.436Z"/>
</g>
<g id="left_arm">
<path class="path-0" d="M319.855,464.792C316.489,459.492,315.095,450.519,322.729,448.136C328.041,446.433,352.033,451.583,356.054,455.546C363.086,461.817,359.200,476.483,350.573,479.874C340.617,483.272,325.239,473.071,319.855,464.792M300.269,284.470C300.808,281.199,308.172,270.208,313.295,270.798C316.270,271.140,318.187,275.971,319.457,278.515C322.970,286.509,326.629,294.794,329.738,303.195C338.229,325.487,344.832,347.973,350.448,370.747C352.470,379.991,352.268,392.359,355.655,400.652C359.718,410.271,366.014,406.899,369.054,413.198C370.407,416.182,369.783,421.844,371.813,426.486C374.860,433.784,380.544,437.735,383.239,442.373C384.923,445.022,385.609,448.011,381.955,448.705C379.966,449.717,374.635,448.758,372.639,448.772C365.969,447.049,359.303,445.323,352.640,443.593C343.643,441.662,316.352,440.529,311.651,434.574C304.597,425.311,315.493,414.252,316.761,404.927C317.398,401.960,320.533,358.404,319.739,355.531C318.671,348.865,314.295,343.415,312.050,336.681C309.450,327.431,306.758,317.537,304.393,307.859C302.580,299.767,298.402,293.357,300.269,284.470M323.869,259.989C321.069,255.598,312.921,248.090,307.104,250.037C302.279,251.881,302.243,257.907,301.996,261.947C301.383,272.047,300.266,280.528,301.272,290.123C301.669,297.106,303.005,303.321,304.345,309.871C305.907,318.782,305.983,336.261,307.054,346.523C307.749,356.076,310.445,365.888,310.004,374.161C308.553,393.589,299.885,411.982,300.688,431.359C300.763,441.146,303.412,441.115,305.767,448.924C307.484,454.897,306.190,461.232,308.558,466.870C314.655,481.797,332.055,495.311,348.997,491.863C364.611,488.755,365.155,471.783,373.405,462.740C380.667,454.702,395.334,458.588,397.270,450.256C399.215,443.255,389.512,435.674,385.815,430.377C378.423,420.450,384.061,418.079,380.347,410.454C377.645,404.819,369.955,399.884,366.243,392.591C364.223,389.278,363.198,382.959,361.816,378.649C358.934,368.321,356.057,356.554,353.675,345.626C351.228,333.173,349.192,322.170,344.468,309.679C340.714,299.368,329.370,267.774,323.869,259.989Z"/>
<path class="path-1" d="M313.295,270.798C316.270,271.140,318.187,275.971,319.457,278.515"/>
<path class="path-1" d="M319.457,278.515C322.970,286.509,326.629,294.794,329.738,303.195"/>
<path class="path-1" d="M329.738,303.195C338.229,325.487,344.832,347.973,350.448,370.747"/>
<path class="path-1" d="M350.448,370.747C352.470,379.991,352.268,392.359,355.655,400.652"/>
<path class="path-1" d="M355.655,400.652C359.718,410.271,366.014,406.899,369.054,413.198"/>
<path class="path-1" d="M369.054,413.198C370.407,416.182,369.783,421.844,371.813,426.486"/>
<path class="path-1" d="M371.813,426.486C374.860,433.784,380.544,437.735,383.239,442.373"/>
<path class="path-1" d="M383.239,442.373C384.923,445.022,385.609,448.011,381.955,448.705"/>
<path class="path-1" d="M381.955,448.705C379.966,449.717,374.635,448.758,372.639,448.772"/>
<path class="path-1" d="M372.639,448.772C365.969,447.049,359.303,445.323,352.640,443.593"/>
<path class="path-1" d="M352.640,443.593C343.643,441.662,316.352,440.529,311.651,434.574"/>
<path class="path-1" d="M311.651,434.574C304.597,425.311,315.493,414.252,316.761,404.927"/>
<path class="path-1" d="M316.761,404.927C317.398,401.960,320.533,358.404,319.739,355.531"/>
<path class="path-1" d="M319.739,355.531C318.671,348.865,314.295,343.415,312.050,336.681"/>
<path class="path-1" d="M312.050,336.681C309.450,327.431,306.758,317.537,304.393,307.859"/>
<path class="path-1" d="M304.393,307.859C302.580,299.767,298.402,293.357,300.269,284.470"/>
<path class="path-1" d="M300.269,284.470C300.808,281.199,308.172,270.208,313.295,270.798"/>
<path class="path-2" d="M313.295,270.798C316.270,271.140,318.187,275.971,319.457,278.515C322.970,286.509,326.629,294.794,329.738,303.195C338.229,325.487,344.832,347.973,350.448,370.747C352.470,379.991,352.268,392.359,355.655,400.652C359.718,410.271,366.014,406.899,369.054,413.198C370.407,416.182,369.783,421.844,371.813,426.486C374.860,433.784,380.544,437.735,383.239,442.373C384.923,445.022,385.609,448.011,381.955,448.705C379.966,449.717,374.635,448.758,372.639,448.772C365.969,447.049,359.303,445.323,352.640,443.593C343.643,441.662,316.352,440.529,311.651,434.574C304.597,425.311,315.493,414.252,316.761,404.927C317.398,401.960,320.533,358.404,319.739,355.531C318.671,348.865,314.295,343.415,312.050,336.681C309.450,327.431,306.758,317.537,304.393,307.859C302.580,299.767,298.402,293.357,300.269,284.470C300.808,281.199,308.172,270.208,313.295,270.798Z"/>
<path class="path-15" d="M322.729,448.136C328.041,446.433,352.033,451.583,356.054,455.546"/>
<path class="path-15" d="M356.054,455.546C363.086,461.817,359.200,476.483,350.573,479.874"/>
<path class="path-15" d="M350.573,479.874C340.617,483.272,325.239,473.071,319.855,464.792"/>
<path class="path-15" d="M319.855,464.792C316.489,459.492,315.095,450.519,322.729,448.136"/>
<path class="path-16" d="M322.729,448.136C328.041,446.433,352.033,451.583,356.054,455.546C363.086,461.817,359.200,476.483,350.573,479.874C340.617,483.272,325.239,473.071,319.855,464.792C316.489,459.492,315.095,450.519,322.729,448.136Z"/>
</g>
<g id="bone">
<g id="bone_B20">
<path class="path-23" d="M248.706,136.383C247.597,124.457,246.488,112.531,245.379,100.605"/>
</g>
<g id="bone_">
<path class="path-23" d="M552.381,338.786C568.440,320.974,584.498,303.163,600.557,285.352"/>
</g>
<g id="bone_">
<path class="path-23" d="M496.479,337.308C477.653,323.056,458.827,308.804,440.001,294.553"/>
</g>
<g id="bone_">
<path class="path-23" d="M436.410,337.308C437.696,313.731,438.981,290.154,440.267,266.577"/>
</g>
<g id="bone_">
<path class="path-23" d="M604.616,215.385C608.898,238.605,613.181,261.826,617.464,285.046"/>
</g>
<g id="bone_">
<path class="path-23" d="M436.410,216.411C459.746,220.015,483.081,223.619,506.416,227.224"/>
</g>
<g id="bone_">
<path class="path-23" d="M551.282,215.385C551.282,191.773,551.282,168.161,551.282,144.549"/>
</g>
<g id="bone_">
<path class="path-23" d="M495.897,216.411C472.418,218.906,448.938,221.402,425.458,223.897"/>
</g>
<g id="bone_B18">
<path class="path-23" d="M225.658,390.315C220.914,422.069,216.169,453.823,211.425,485.577"/>
</g>
<g id="bone_B17">
<path class="path-23" d="M271.812,390.315C283.337,422.287,294.863,454.258,306.388,486.230"/>
</g>
<g id="bone_B16">
<path class="path-23" d="M251.079,161.894C256.848,186.178,262.617,210.462,268.385,234.746"/>
</g>
<g id="bone_B14">
<path class="path-23" d="M160.910,380.504C168.709,397.979,176.508,415.454,184.306,432.929"/>
</g>
<g id="bone_B13">
<path class="path-23" d="M196.028,272.365C184.322,308.411,172.616,344.458,160.910,380.504"/>
</g>
<g id="bone_B11">
<path class="path-23" d="M334.300,353.593C336.852,375.456,339.404,397.318,341.956,419.181"/>
</g>
<g id="bone_B9">
<path class="path-23" d="M309.481,264.413C317.754,294.140,326.027,323.867,334.300,353.593"/>
</g>
<g id="bone_B5">
<path class="path-23" d="M256.123,216.131C253.651,189.548,251.179,162.965,248.706,136.383"/>
</g>
<g id="bone_B4">
<path class="path-23" d="M253.335,258.140C254.265,244.137,255.194,230.134,256.123,216.131"/>
</g>
<g id="bone_B3">
<path class="path-23" d="M254.335,331.134C254.002,306.803,253.669,282.471,253.335,258.140"/>
</g>
<g id="bone_B2">
<path class="path-23" d="M248.222,390.315C250.260,370.588,252.297,350.861,254.335,331.134"/>
</g>
<g id="bone_B1">
<path class="path-23" d="M248.222,390.315C260.199,390.315,272.176,390.315,284.153,390.315"/>
</g>
</g>
</g>
<style>
.path-0{fill:#000000;fill-rule:evenodd;stroke:none;}
.path-1{fill:none;stroke:#a60d3f;stroke-width:1;stroke-linecap:butt;stroke-linejoin:round;}
.path-2{fill:#a60d3f;fill-rule:evenodd;stroke:none;}
.path-3{fill:none;stroke:#d88e4b;stroke-width:1;stroke-linecap:butt;stroke-linejoin:round;}
.path-4{fill:#d88e4b;fill-rule:evenodd;stroke:none;}
.path-5{fill:none;stroke:#6e2353;stroke-width:1;stroke-linecap:butt;stroke-linejoin:round;}
.path-6{fill:#6e2353;fill-rule:evenodd;stroke:none;}
.path-7{fill:none;stroke:#392966;stroke-width:1;stroke-linecap:butt;stroke-linejoin:round;}
.path-8{fill:#392966;fill-rule:evenodd;stroke:none;}
.path-9{fill:none;stroke:#cc9bc5;stroke-width:1;stroke-linecap:butt;stroke-linejoin:round;}
.path-10{fill:#cc9bc5;fill-rule:evenodd;stroke:none;}
.path-11{fill:none;stroke:#620527;stroke-width:1;stroke-linecap:butt;stroke-linejoin:round;}
.path-12{fill:#620527;fill-rule:evenodd;stroke:none;}
.path-13{fill:none;stroke:#6a3661;stroke-width:1;stroke-linecap:butt;stroke-linejoin:round;}
.path-14{fill:#6a3661;fill-rule:evenodd;stroke:none;}
.path-15{fill:none;stroke:#f8a087;stroke-width:1;stroke-linecap:butt;stroke-linejoin:round;}
.path-16{fill:#f8a087;fill-rule:evenodd;stroke:none;}
.path-17{fill:none;stroke:#ffffff;stroke-width:1;stroke-linecap:butt;stroke-linejoin:round;}
.path-18{fill:#ffffff;fill-rule:evenodd;stroke:none;}
.path-19{fill:none;stroke:#d89f4a;stroke-width:1;stroke-linecap:butt;stroke-linejoin:round;}
.path-20{fill:#d89f4a;fill-rule:evenodd;stroke:none;}
.path-21{fill:none;stroke:#fafd5b;stroke-width:1;stroke-linecap:butt;stroke-linejoin:round;}
.path-22{fill:#fafd5b;fill-rule:evenodd;stroke:none;}
.path-23{fill:none;stroke:#00ff00;stroke-width:8;stroke-linecap:round;stroke-linejoin:round;}
.path-24{fill:none;stroke:#fafafa;stroke-width:1;stroke-linecap:butt;stroke-linejoin:round;}
.path-25{fill:#fafafa;fill-rule:evenodd;stroke:none;}
.path-26{fill:none;stroke:#ececec;stroke-width:1;stroke-linecap:butt;stroke-linejoin:round;}
.path-27{fill:#ececec;fill-rule:evenodd;stroke:none;}
.path-28{fill:none;stroke:#d7d7d7;stroke-width:1;stroke-linecap:butt;stroke-linejoin:round;}
.path-29{fill:#d7d7d7;fill-rule:evenodd;stroke:none;}
.path-30{fill:none;stroke:#bdbdbd;stroke-width:1;stroke-linecap:butt;stroke-linejoin:round;}
.path-31{fill:#bdbdbd;fill-rule:evenodd;stroke:none;}
.path-32{fill:none;stroke:#9f9f9f;stroke-width:1;stroke-linecap:butt;stroke-linejoin:round;}
.path-33{fill:#9f9f9f;fill-rule:evenodd;stroke:none;}
.path-34{fill:none;stroke:#808080;stroke-width:1;stroke-linecap:butt;stroke-linejoin:round;}
.path-35{fill:#808080;fill-rule:evenodd;stroke:none;}
.path-36{fill:none;stroke:#606060;stroke-width:1;stroke-linecap:butt;stroke-linejoin:round;}
.path-37{fill:#606060;fill-rule:evenodd;stroke:none;}
.path-38{fill:none;stroke:#424242;stroke-width:1;stroke-linecap:butt;stroke-linejoin:round;}
.path-39{fill:#424242;fill-rule:evenodd;stroke:none;}
.path-40{fill:none;stroke:#282828;stroke-width:1;stroke-linecap:butt;stroke-linejoin:round;}
.path-41{fill:#282828;fill-rule:evenodd;stroke:none;}
.path-42{fill:none;stroke:#131313;stroke-width:1;stroke-linecap:butt;stroke-linejoin:round;}
.path-43{fill:#131313;fill-rule:evenodd;stroke:none;}
.path-44{fill:none;stroke:#050505;stroke-width:1;stroke-linecap:butt;stroke-linejoin:round;}
.path-45{fill:#050505;fill-rule:evenodd;stroke:none;}
.path-46{fill:none;stroke:#000000;stroke-width:1;stroke-linecap:butt;stroke-linejoin:round;}
</style>
</svg>
