<svg version="1.1" id="Frame_198" xmlns="http://www.w3.org/2000/svg" xmlns:xlink="http://www.w3.org/1999/xlink" width="480px" height="720px">
<g id="main_bone">
<g id="right_arm">
<path class="path-0" d="M180.699,269.974C182.328,267.424,185.527,262.155,189.413,260.980C195.956,259.001,200.962,265.211,201.317,269.792C202.246,277.815,195.634,288.042,192.429,295.628C184.582,313.890,176.207,331.927,170.806,350.509C170.115,353.767,164.905,374.882,164.966,372.234C164.483,378.851,170.986,384.631,173.196,390.307C176.022,397.961,173.113,405.131,171.171,412.079C166.703,426.409,167.104,431.706,167.330,445.698C167.469,447.915,167.850,455.134,164.378,455.524C160.966,455.906,159.973,449.760,159.078,447.425C158.508,444.791,155.716,439.286,156.255,436.913C156.362,432.941,160.925,433.883,155.865,425.698C149.404,415.465,138.081,406.836,135.324,393.470C133.524,382.828,139.258,373.613,142.606,363.783C149.732,342.663,157.624,321.568,166.749,300.898C171.709,290.182,174.154,280.784,180.699,269.974M201.281,263.510C202.072,255.004,199.655,247.342,188.855,249.983C171.466,254.171,163.692,280.000,157.741,294.461C149.388,313.994,142.396,333.771,135.879,353.678C133.209,362.206,129.944,366.491,128.507,371.439C126.726,377.037,126.854,385.666,127.083,391.307C126.760,408.961,132.084,409.915,139.280,423.469C143.098,431.484,139.388,436.620,142.115,443.545C144.113,448.308,148.133,451.563,151.278,455.463C154.069,459.380,154.811,461.665,156.922,465.274C159.480,469.588,167.066,479.275,172.725,476.478C176.962,474.366,175.974,466.467,175.899,462.632C175.627,456.874,177.048,434.551,178.055,427.790C179.893,416.580,185.921,404.607,184.441,392.478C183.240,383.205,175.129,376.416,175.710,366.510C176.172,361.233,179.657,352.727,180.921,346.832C182.995,337.412,183.606,327.252,186.401,317.621C191.172,300.485,200.261,281.633,201.281,263.510Z"/>
<path class="path-1" d="M189.413,260.980C195.956,259.001,200.962,265.211,201.317,269.792"/>
<path class="path-1" d="M201.317,269.792C202.246,277.815,195.634,288.042,192.429,295.628"/>
<path class="path-1" d="M192.429,295.628C184.582,313.890,176.207,331.927,170.806,350.509"/>
<path class="path-1" d="M170.806,350.509C170.115,353.767,164.905,374.882,164.966,372.234"/>
<path class="path-1" d="M164.966,372.234C164.483,378.851,170.986,384.631,173.196,390.307"/>
<path class="path-1" d="M173.196,390.307C176.022,397.961,173.113,405.131,171.171,412.079"/>
<path class="path-1" d="M171.171,412.079C166.703,426.409,167.104,431.706,167.330,445.698"/>
<path class="path-1" d="M167.330,445.698C167.469,447.915,167.850,455.134,164.378,455.524"/>
<path class="path-1" d="M164.378,455.524C160.966,455.906,159.973,449.760,159.078,447.425"/>
<path class="path-1" d="M159.078,447.425C158.508,444.791,155.716,439.286,156.255,436.913"/>
<path class="path-1" d="M156.255,436.913C156.362,432.941,160.925,433.883,155.865,425.698"/>
<path class="path-1" d="M155.865,425.698C149.404,415.465,138.081,406.836,135.324,393.470"/>
<path class="path-1" d="M135.324,393.470C133.524,382.828,139.258,373.613,142.606,363.783"/>
<path class="path-1" d="M142.606,363.783C149.732,342.663,157.624,321.568,166.749,300.898"/>
<path class="path-1" d="M166.749,300.898C171.709,290.182,174.154,280.784,180.699,269.974"/>
<path class="path-1" d="M180.699,269.974C182.328,267.424,185.527,262.155,189.413,260.980"/>
<path class="path-2" d="M189.413,260.980C195.956,259.001,200.962,265.211,201.317,269.792C202.246,277.815,195.634,288.042,192.429,295.628C184.582,313.890,176.207,331.927,170.806,350.509C170.115,353.767,164.905,374.882,164.966,372.234C164.483,378.851,170.986,384.631,173.196,390.307C176.022,397.961,173.113,405.131,171.171,412.079C166.703,426.409,167.104,431.706,167.330,445.698C167.469,447.915,167.850,455.134,164.378,455.524C160.966,455.906,159.973,449.760,159.078,447.425C158.508,444.791,155.716,439.286,156.255,436.913C156.362,432.941,160.925,433.883,155.865,425.698C149.404,415.465,138.081,406.836,135.324,393.470C133.524,382.828,139.258,373.613,142.606,363.783C149.732,342.663,157.624,321.568,166.749,300.898C171.709,290.182,174.154,280.784,180.699,269.974C182.328,267.424,185.527,262.155,189.413,260.980Z"/>
</g>
<g id="layer_left_leg">
<g id="left_heel">
<path class="path-0" d="M328.873,625.133C318.348,616.007,325.451,592.513,335.451,586.793C350.580,577.911,370.768,599.643,370.722,606.367C370.341,616.528,355.357,621.952,347.404,624.656C342.967,625.997,332.283,628.219,328.873,625.133M361.620,577.226C349.390,570.711,328.909,579.190,320.542,588.364C301.991,607.885,310.820,651.535,343.670,639.355C354.483,635.409,377.772,625.273,381.830,615.889C385.597,608.519,380.776,600.064,376.643,593.320C372.926,587.968,367.422,580.423,361.620,577.226Z"/>
<path class="path-3" d="M335.451,586.793C350.580,577.911,370.768,599.643,370.722,606.367"/>
<path class="path-3" d="M370.722,606.367C370.341,616.528,355.357,621.952,347.404,624.656"/>
<path class="path-3" d="M347.404,624.656C342.967,625.997,332.283,628.219,328.873,625.133"/>
<path class="path-3" d="M328.873,625.133C318.348,616.007,325.451,592.513,335.451,586.793"/>
<path class="path-4" d="M335.451,586.793C350.580,577.911,370.768,599.643,370.722,606.367C370.341,616.528,355.357,621.952,347.404,624.656C342.967,625.997,332.283,628.219,328.873,625.133C318.348,616.007,325.451,592.513,335.451,586.793Z"/>
</g>
<g id="left_leg">
<path class="path-0" d="M242.823,415.868C242.948,410.785,253.156,411.429,256.785,410.055C262.273,408.286,273.990,402.449,279.620,404.464C290.195,407.853,302.513,436.786,306.376,447.007C317.162,478.118,328.525,506.884,338.800,536.974C340.615,542.717,342.577,548.621,344.195,554.299C345.765,559.074,345.203,566.480,349.436,568.414C351.624,569.917,355.468,565.404,356.693,567.569C360.422,575.204,350.845,573.991,348.444,579.404C343.800,589.062,332.199,599.722,322.596,600.144C316.175,600.649,303.738,597.065,299.498,592.066C295.609,587.480,292.012,581.541,289.218,576.324C275.584,550.865,274.053,494.234,255.844,461.498C246.676,445.017,252.859,440.216,257.448,426.117C258.262,423.615,246.747,429.313,244.487,427.874C241.657,426.372,242.578,419.015,242.823,415.868M283.745,393.302C276.249,390.567,260.415,397.822,253.654,400.533C249.822,402.053,236.589,403.266,234.349,406.081C221.374,422.390,240.342,458.851,247.832,474.670C249.720,479.418,256.921,502.704,258.825,509.309C268.119,535.810,269.550,560.599,280.103,586.629C282.793,593.514,284.820,600.517,289.358,606.194C301.867,621.628,318.564,619.538,339.144,611.724C349.863,607.662,372.475,594.592,374.039,570.796C374.634,561.701,366.227,552.099,364.204,549.751C360.677,545.657,356.193,541.982,353.340,536.920C343.518,520.778,343.961,500.272,336.829,482.637C327.705,460.016,307.413,402.000,283.745,393.302Z"/>
<path class="path-7" d="M256.785,410.055C262.273,408.286,273.990,402.449,279.620,404.464"/>
<path class="path-7" d="M279.620,404.464C290.195,407.853,302.513,436.786,306.376,447.007"/>
<path class="path-7" d="M306.376,447.007C317.162,478.118,328.525,506.884,338.800,536.974"/>
<path class="path-7" d="M338.800,536.974C340.615,542.717,342.577,548.621,344.195,554.299"/>
<path class="path-7" d="M344.195,554.299C345.765,559.074,345.203,566.480,349.436,568.414"/>
<path class="path-7" d="M349.436,568.414C351.624,569.917,355.468,565.404,356.693,567.569"/>
<path class="path-7" d="M356.693,567.569C360.422,575.204,350.845,573.991,348.444,579.404"/>
<path class="path-7" d="M348.444,579.404C343.800,589.062,332.199,599.722,322.596,600.144"/>
<path class="path-7" d="M322.596,600.144C316.175,600.649,303.738,597.065,299.498,592.066"/>
<path class="path-7" d="M299.498,592.066C295.609,587.480,292.012,581.541,289.218,576.324"/>
<path class="path-7" d="M289.218,576.324C275.584,550.865,274.053,494.234,255.844,461.498"/>
<path class="path-7" d="M255.844,461.498C246.676,445.017,252.859,440.216,257.448,426.117"/>
<path class="path-7" d="M257.448,426.117C258.262,423.615,246.747,429.313,244.487,427.874"/>
<path class="path-7" d="M244.487,427.874C241.657,426.372,242.578,419.015,242.823,415.868"/>
<path class="path-7" d="M242.823,415.868C242.948,410.785,253.156,411.429,256.785,410.055"/>
<path class="path-8" d="M256.785,410.055C262.273,408.286,273.990,402.449,279.620,404.464C290.195,407.853,302.513,436.786,306.376,447.007C317.162,478.118,328.525,506.884,338.800,536.974C340.615,542.717,342.577,548.621,344.195,554.299C345.765,559.074,345.203,566.480,349.436,568.414C351.624,569.917,355.468,565.404,356.693,567.569C360.422,575.204,350.845,573.991,348.444,579.404C343.800,589.062,332.199,599.722,322.596,600.144C316.175,600.649,303.738,597.065,299.498,592.066C295.609,587.480,292.012,581.541,289.218,576.324C275.584,550.865,274.053,494.234,255.844,461.498C246.676,445.017,252.859,440.216,257.448,426.117C258.262,423.615,246.747,429.313,244.487,427.874C241.657,426.372,242.578,419.015,242.823,415.868C242.948,410.785,253.156,411.429,256.785,410.055Z"/>
</g>
<g id="left_toe">
<path class="path-0" d="M337.127,657.759C310.061,661.430,303.702,625.647,321.107,612.491C338.366,599.634,359.800,605.912,369.530,616.770C374.937,622.072,378.802,628.357,377.757,636.003C374.645,650.083,349.605,655.976,337.127,657.759M382.218,605.971C374.746,593.987,359.934,585.236,348.325,585.018C318.922,584.597,299.303,600.150,298.919,627.353C298.188,643.028,306.194,657.832,319.040,666.727C329.154,673.280,354.546,666.477,364.843,662.011C373.634,657.427,384.388,650.986,387.994,640.682C390.730,633.220,386.346,612.710,382.218,605.971Z"/>
<path class="path-3" d="M321.107,612.491C338.366,599.634,359.800,605.912,369.530,616.770"/>
<path class="path-3" d="M369.530,616.770C374.937,622.072,378.802,628.357,377.757,636.003"/>
<path class="path-3" d="M377.757,636.003C374.645,650.083,349.605,655.976,337.127,657.759"/>
<path class="path-3" d="M337.127,657.759C310.061,661.430,303.702,625.647,321.107,612.491"/>
<path class="path-4" d="M321.107,612.491C338.366,599.634,359.800,605.912,369.530,616.770C374.937,622.072,378.802,628.357,377.757,636.003C374.645,650.083,349.605,655.976,337.127,657.759C310.061,661.430,303.702,625.647,321.107,612.491Z"/>
</g>
<g id="left_sole">
<path class="path-0" d="M345.155,671.387C334.743,674.643,327.269,661.545,327.203,667.390C327.161,671.066,337.281,671.053,341.550,670.905C351.113,670.947,364.777,665.038,371.656,658.029C374.051,655.962,381.889,650.077,382.039,650.290C384.441,653.709,373.069,658.688,369.500,660.346C366.704,662.022,345.917,670.952,345.155,671.387M327.455,667.072C331.814,663.686,343.258,664.921,347.429,664.985C363.992,665.242,371.273,653.647,378.526,649.585C379.162,649.239,379.956,646.897,381.904,648.013C388.299,651.673,358.844,669.547,344.704,669.432C337.201,670.149,325.671,668.458,327.455,667.072M383.730,639.438C379.955,638.078,366.588,651.618,351.118,657.085C343.136,659.937,319.019,653.626,316.656,664.868C316.150,667.303,319.400,674.506,321.580,675.570C336.123,682.977,384.058,662.888,388.448,656.154C389.872,653.970,389.499,641.516,383.730,639.438Z"/>
<path class="path-5" d="M327.203,667.390C327.161,671.066,337.281,671.053,341.550,670.905"/>
<path class="path-5" d="M341.550,670.905C351.113,670.947,364.777,665.038,371.656,658.029"/>
<path class="path-5" d="M371.656,658.029C374.051,655.962,381.889,650.077,382.039,650.290"/>
<path class="path-5" d="M382.039,650.290C384.441,653.709,373.069,658.688,369.500,660.346"/>
<path class="path-5" d="M369.500,660.346C366.704,662.022,345.917,670.952,345.155,671.387"/>
<path class="path-5" d="M345.155,671.387C334.743,674.643,327.269,661.545,327.203,667.390"/>
<path class="path-6" d="M327.203,667.390C327.161,671.066,337.281,671.053,341.550,670.905C351.113,670.947,364.777,665.038,371.656,658.029C374.051,655.962,381.889,650.077,382.039,650.290C384.441,653.709,373.069,658.688,369.500,660.346C366.704,662.022,345.917,670.952,345.155,671.387C334.743,674.643,327.269,661.545,327.203,667.390Z"/>
<path class="path-5" d="M347.429,664.985C363.992,665.242,371.273,653.647,378.526,649.585"/>
<path class="path-5" d="M378.526,649.585C379.162,649.239,379.956,646.897,381.904,648.013"/>
<path class="path-5" d="M381.904,648.013C388.299,651.673,358.844,669.547,344.704,669.432"/>
<path class="path-5" d="M344.704,669.432C337.201,670.149,325.671,668.458,327.455,667.072"/>
<path class="path-5" d="M327.455,667.072C331.814,663.686,343.258,664.921,347.429,664.985"/>
<path class="path-6" d="M347.429,664.985C363.992,665.242,371.273,653.647,378.526,649.585C379.162,649.239,379.956,646.897,381.904,648.013C388.299,651.673,358.844,669.547,344.704,669.432C337.201,670.149,325.671,668.458,327.455,667.072C331.814,663.686,343.258,664.921,347.429,664.985Z"/>
</g>
</g>
<g id="layer_right_leg">
<g id="right_heel">
<path class="path-0" d="M194.409,621.688C194.255,605.500,194.606,592.897,214.401,588.871C223.208,586.916,240.329,588.703,245.753,596.898C248.593,600.964,248.182,607.200,248.710,611.691C249.635,619.007,255.079,632.902,244.693,635.246C244.030,635.463,225.463,636.895,219.671,637.391C212.320,638.706,204.645,639.722,198.968,634.982C196.008,631.966,194.369,625.498,194.409,621.688M255.161,594.647C250.602,584.626,235.964,579.651,225.991,581.689C212.971,584.186,199.265,580.716,191.479,593.337C185.409,603.174,185.744,620.574,188.434,631.467C189.505,636.504,193.334,645.581,197.791,648.141C201.054,649.923,205.869,649.070,209.579,648.854C227.672,648.084,260.311,652.200,258.268,625.633C257.665,618.765,257.558,599.967,255.161,594.647Z"/>
<path class="path-3" d="M214.401,588.871C223.208,586.916,240.329,588.703,245.753,596.898"/>
<path class="path-3" d="M245.753,596.898C248.593,600.964,248.182,607.200,248.710,611.691"/>
<path class="path-3" d="M248.710,611.691C249.635,619.007,255.079,632.902,244.693,635.246"/>
<path class="path-3" d="M244.693,635.246C244.030,635.463,225.463,636.895,219.671,637.391"/>
<path class="path-3" d="M219.671,637.391C212.320,638.706,204.645,639.722,198.968,634.982"/>
<path class="path-3" d="M198.968,634.982C196.008,631.966,194.369,625.498,194.409,621.688"/>
<path class="path-3" d="M194.409,621.688C194.255,605.500,194.606,592.897,214.401,588.871"/>
<path class="path-4" d="M214.401,588.871C223.208,586.916,240.329,588.703,245.753,596.898C248.593,600.964,248.182,607.200,248.710,611.691C249.635,619.007,255.079,632.902,244.693,635.246C244.030,635.463,225.463,636.895,219.671,637.391C212.320,638.706,204.645,639.722,198.968,634.982C196.008,631.966,194.369,625.498,194.409,621.688C194.255,605.500,194.606,592.897,214.401,588.871Z"/>
</g>
<g id="right_leg">
<path class="path-0" d="M180.633,409.487C183.561,397.570,199.060,393.854,209.751,396.115C215.666,397.242,225.584,399.480,229.105,404.713C230.611,406.952,231.417,411.234,230.144,413.605C227.906,417.768,212.545,415.861,215.462,419.703C220.562,426.635,230.176,416.788,234.667,420.359C236.665,421.947,237.054,425.405,237.613,428.275C242.954,449.692,237.384,473.167,238.519,494.527C238.815,501.435,237.773,511.703,239.351,517.922C242.702,533.284,240.985,536.647,241.892,545.930C242.010,549.402,241.227,567.079,242.646,571.529C244.239,576.197,247.937,580.563,248.667,585.459C249.898,593.717,238.113,605.231,230.652,607.842C222.118,610.642,195.385,610.262,187.053,606.309C183.835,604.895,179.802,601.277,178.368,597.835C176.826,594.634,174.410,579.368,175.270,575.620C177.031,569.099,179.480,567.667,181.182,559.945C182.863,550.856,184.476,541.027,183.516,531.614C181.265,513.215,180.556,483.632,182.002,470.297C182.628,462.784,179.529,437.772,180.192,430.813C181.394,419.309,179.271,417.213,180.633,409.487M204.310,384.821C198.542,383.191,193.880,378.172,188.042,380.526C186.268,381.418,183.222,383.850,182.010,385.224C166.917,399.719,168.989,413.256,170.159,432.530C170.286,439.449,170.788,446.625,170.517,453.270C170.179,458.798,168.599,463.395,167.551,468.499C166.974,472.688,166.543,477.165,166.608,482.393C166.800,487.533,168.500,493.491,169.096,502.208C169.051,511.972,170.272,521.125,170.341,530.458C170.604,536.816,168.309,551.685,167.690,556.563C165.813,563.518,163.050,571.597,161.811,578.287C160.700,587.126,162.611,596.328,166.503,603.861C168.329,607.909,171.510,612.679,174.836,615.249C177.005,616.924,179.835,617.808,182.358,618.515C190.690,620.799,198.526,621.664,207.245,621.424C213.119,621.307,218.805,619.329,224.913,619.508C225.926,619.384,234.266,620.794,235.912,620.833C238.869,620.736,242.877,617.915,245.476,616.202C248.916,613.658,255.202,612.608,257.863,609.128C260.015,606.311,260.439,602.535,261.424,599.141C266.924,579.128,260.633,568.630,257.072,550.846C255.092,540.957,251.496,520.585,250.980,509.436C250.075,495.946,251.958,482.747,251.924,468.811C252.002,464.419,252.077,459.151,252.544,454.164C252.922,449.170,251.621,445.215,251.116,440.307C250.496,436.528,250.036,424.325,249.198,420.277C248.597,416.658,248.352,412.112,246.797,408.590C242.569,399.639,227.985,390.318,218.502,387.923C213.751,386.560,208.750,386.529,204.310,384.821Z"/>
<path class="path-7" d="M209.751,396.115C215.666,397.242,225.584,399.480,229.105,404.713"/>
<path class="path-7" d="M229.105,404.713C230.611,406.952,231.417,411.234,230.144,413.605"/>
<path class="path-7" d="M230.144,413.605C227.906,417.768,212.545,415.861,215.462,419.703"/>
<path class="path-7" d="M215.462,419.703C220.562,426.635,230.176,416.788,234.667,420.359"/>
<path class="path-7" d="M234.667,420.359C236.665,421.947,237.054,425.405,237.613,428.275"/>
<path class="path-7" d="M237.613,428.275C242.954,449.692,237.384,473.167,238.519,494.527"/>
<path class="path-7" d="M238.519,494.527C238.815,501.435,237.773,511.703,239.351,517.922"/>
<path class="path-7" d="M239.351,517.922C242.702,533.284,240.985,536.647,241.892,545.930"/>
<path class="path-7" d="M241.892,545.930C242.010,549.402,241.227,567.079,242.646,571.529"/>
<path class="path-7" d="M242.646,571.529C244.239,576.197,247.937,580.563,248.667,585.459"/>
<path class="path-7" d="M248.667,585.459C249.898,593.717,238.113,605.231,230.652,607.842"/>
<path class="path-7" d="M230.652,607.842C222.118,610.642,195.385,610.262,187.053,606.309"/>
<path class="path-7" d="M187.053,606.309C183.835,604.895,179.802,601.277,178.368,597.835"/>
<path class="path-7" d="M178.368,597.835C176.826,594.634,174.410,579.368,175.270,575.620"/>
<path class="path-7" d="M175.270,575.620C177.031,569.099,179.480,567.667,181.182,559.945"/>
<path class="path-7" d="M181.182,559.945C182.863,550.856,184.476,541.027,183.516,531.614"/>
<path class="path-7" d="M183.516,531.614C181.265,513.215,180.556,483.632,182.002,470.297"/>
<path class="path-7" d="M182.002,470.297C182.628,462.784,179.529,437.772,180.192,430.813"/>
<path class="path-7" d="M180.192,430.813C181.394,419.309,179.271,417.213,180.633,409.487"/>
<path class="path-7" d="M180.633,409.487C183.561,397.570,199.060,393.854,209.751,396.115"/>
<path class="path-8" d="M209.751,396.115C215.666,397.242,225.584,399.480,229.105,404.713C230.611,406.952,231.417,411.234,230.144,413.605C227.906,417.768,212.545,415.861,215.462,419.703C220.562,426.635,230.176,416.788,234.667,420.359C236.665,421.947,237.054,425.405,237.613,428.275C242.954,449.692,237.384,473.167,238.519,494.527C238.815,501.435,237.773,511.703,239.351,517.922C242.702,533.284,240.985,536.647,241.892,545.930C242.010,549.402,241.227,567.079,242.646,571.529C244.239,576.197,247.937,580.563,248.667,585.459C249.898,593.717,238.113,605.231,230.652,607.842C222.118,610.642,195.385,610.262,187.053,606.309C183.835,604.895,179.802,601.277,178.368,597.835C176.826,594.634,174.410,579.368,175.270,575.620C177.031,569.099,179.480,567.667,181.182,559.945C182.863,550.856,184.476,541.027,183.516,531.614C181.265,513.215,180.556,483.632,182.002,470.297C182.628,462.784,179.529,437.772,180.192,430.813C181.394,419.309,179.271,417.213,180.633,409.487C183.561,397.570,199.060,393.854,209.751,396.115Z"/>
</g>
<g id="right_toe">
<path class="path-0" d="M178.699,645.025C179.259,631.753,183.503,614.454,199.649,611.209C203.356,610.264,208.748,611.709,212.965,612.305C234.522,615.296,243.094,619.532,245.107,641.088C245.539,647.016,246.898,654.325,242.695,659.345C238.513,664.252,217.268,662.891,210.846,663.546C199.514,664.947,190.047,670.886,181.568,661.564C176.486,655.859,178.410,652.114,178.699,645.025M252.258,617.957C244.359,604.513,211.171,598.162,196.618,601.694C174.907,607.089,168.872,624.525,168.578,643.001C168.423,649.594,168.002,656.853,171.663,662.473C172.974,664.485,175.651,667.125,177.494,668.690C191.427,681.549,200.934,679.284,218.673,678.122C228.062,677.661,243.624,675.954,250.785,669.327C256.135,663.893,256.354,658.289,256.175,651.148C255.753,644.284,255.414,622.873,252.258,617.957Z"/>
<path class="path-3" d="M199.649,611.209C203.356,610.264,208.748,611.709,212.965,612.305"/>
<path class="path-3" d="M212.965,612.305C234.522,615.296,243.094,619.532,245.107,641.088"/>
<path class="path-3" d="M245.107,641.088C245.539,647.016,246.898,654.325,242.695,659.345"/>
<path class="path-3" d="M242.695,659.345C238.513,664.252,217.268,662.891,210.846,663.546"/>
<path class="path-3" d="M210.846,663.546C199.514,664.947,190.047,670.886,181.568,661.564"/>
<path class="path-3" d="M181.568,661.564C176.486,655.859,178.410,652.114,178.699,645.025"/>
<path class="path-3" d="M178.699,645.025C179.259,631.753,183.503,614.454,199.649,611.209"/>
<path class="path-4" d="M199.649,611.209C203.356,610.264,208.748,611.709,212.965,612.305C234.522,615.296,243.094,619.532,245.107,641.088C245.539,647.016,246.898,654.325,242.695,659.345C238.513,664.252,217.268,662.891,210.846,663.546C199.514,664.947,190.047,670.886,181.568,661.564C176.486,655.859,178.410,652.114,178.699,645.025C179.259,631.753,183.503,614.454,199.649,611.209Z"/>
</g>
<g id="right_sole">
<path class="path-0" d="M199.200,676.052C200.750,676.307,216.133,675.156,217.881,675.050C219.281,674.985,227.719,674.570,228.908,674.421C229.651,674.345,237.090,673.571,237.689,673.988C237.129,673.572,229.226,675.487,228.757,675.530C227.829,675.646,201.571,677.048,201.268,677.174C200.080,677.274,188.787,677.042,188.007,676.099C189.236,675.594,197.394,675.752,199.200,676.052M238.474,667.943C238.543,668.214,237.038,669.991,236.617,670.019C235.779,670.078,222.593,672.318,221.471,672.150C220.216,672.182,211.468,673.367,210.338,673.423C208.092,673.533,190.063,673.889,188.070,672.885C187.845,672.717,187.060,671.646,187.086,671.491C187.134,671.210,194.221,671.108,195.311,671.009C197.022,670.853,210.920,669.477,212.676,669.340C214.579,669.192,229.604,668.496,231.545,668.220C231.848,668.184,238.298,667.275,238.474,667.943M243.881,662.522C232.401,660.044,223.800,665.015,213.549,665.951C206.127,666.662,191.757,665.942,182.800,668.209C181.366,668.572,178.578,668.525,178.224,670.028C177.781,671.922,181.657,675.720,184.056,677.084C187.030,678.774,192.992,678.460,195.377,678.676C207.498,680.213,222.679,678.179,234.958,676.935C244.018,676.022,246.066,672.314,246.728,667.959C247.003,666.146,247.471,663.249,243.881,662.522Z"/>
<path class="path-5" d="M199.200,676.052C200.750,676.307,216.133,675.156,217.881,675.050"/>
<path class="path-5" d="M217.881,675.050C219.281,674.985,227.719,674.570,228.908,674.421"/>
<path class="path-5" d="M228.908,674.421C229.651,674.345,237.090,673.571,237.689,673.988"/>
<path class="path-5" d="M237.689,673.988C237.129,673.572,229.226,675.487,228.757,675.530"/>
<path class="path-5" d="M228.757,675.530C227.829,675.646,201.571,677.048,201.268,677.174"/>
<path class="path-5" d="M201.268,677.174C200.080,677.274,188.787,677.042,188.007,676.099"/>
<path class="path-5" d="M188.007,676.099C189.236,675.594,197.394,675.752,199.200,676.052"/>
<path class="path-6" d="M199.200,676.052C200.750,676.307,216.133,675.156,217.881,675.050C219.281,674.985,227.719,674.570,228.908,674.421C229.651,674.345,237.090,673.571,237.689,673.988C237.129,673.572,229.226,675.487,228.757,675.530C227.829,675.646,201.571,677.048,201.268,677.174C200.080,677.274,188.787,677.042,188.007,676.099C189.236,675.594,197.394,675.752,199.200,676.052Z"/>
<path class="path-5" d="M195.311,671.009C197.022,670.853,210.920,669.477,212.676,669.340"/>
<path class="path-5" d="M212.676,669.340C214.579,669.192,229.604,668.496,231.545,668.220"/>
<path class="path-5" d="M231.545,668.220C231.848,668.184,238.298,667.275,238.474,667.943"/>
<path class="path-5" d="M238.474,667.943C238.543,668.214,237.038,669.991,236.617,670.019"/>
<path class="path-5" d="M236.617,670.019C235.779,670.078,222.593,672.318,221.471,672.150"/>
<path class="path-5" d="M221.471,672.150C220.216,672.182,211.468,673.367,210.338,673.423"/>
<path class="path-5" d="M210.338,673.423C208.092,673.533,190.063,673.889,188.070,672.885"/>
<path class="path-5" d="M188.070,672.885C187.845,672.717,187.060,671.646,187.086,671.491"/>
<path class="path-5" d="M187.086,671.491C187.134,671.210,194.221,671.108,195.311,671.009"/>
<path class="path-6" d="M195.311,671.009C197.022,670.853,210.920,669.477,212.676,669.340C214.579,669.192,229.604,668.496,231.545,668.220C231.848,668.184,238.298,667.275,238.474,667.943C238.543,668.214,237.038,669.991,236.617,670.019C235.779,670.078,222.593,672.318,221.471,672.150C220.216,672.182,211.468,673.367,210.338,673.423C208.092,673.533,190.063,673.889,188.070,672.885C187.845,672.717,187.060,671.646,187.086,671.491C187.134,671.210,194.221,671.108,195.311,671.009Z"/>
</g>
</g>
<g id="hat_brim">
<path class="path-0" d="M304.080,153.957C308.375,148.407,319.096,133.191,327.032,134.069C332.323,134.654,342.175,145.452,347.466,149.050C352.098,152.574,357.097,155.805,362.425,159.072C365.434,161.084,368.448,163.091,371.466,165.092C384.881,173.941,380.217,179.786,372.096,177.548C353.945,172.191,350.822,173.186,333.990,161.951C331.784,160.703,326.197,156.739,324.730,160.927C322.860,165.741,331.313,171.028,334.767,173.083C340.977,177.453,347.814,182.226,355.677,183.765C357.956,184.352,365.965,184.567,367.031,187.028C368.649,190.555,358.109,198.092,355.906,199.857C352.269,202.467,348.634,205.077,345.071,207.027C339.745,209.784,334.124,212.174,328.394,212.545C317.666,212.698,286.280,193.828,286.568,182.146C286.639,175.460,299.417,159.802,304.080,153.957M339.412,131.088C334.927,126.240,331.985,119.554,324.344,122.057C318.796,123.787,312.334,130.770,308.258,134.336C292.871,149.370,278.479,167.528,276.762,189.094C275.594,202.688,280.259,202.871,290.586,209.367C306.205,219.464,327.077,224.450,345.848,218.159C358.006,214.148,380.154,198.522,386.762,187.203C388.853,183.418,392.817,174.818,391.013,169.934C388.990,164.018,367.895,151.978,361.684,147.610C354.224,142.433,345.735,137.477,339.412,131.088Z"/>
<path class="path-9" d="M327.032,134.069C332.323,134.654,342.175,145.452,347.466,149.050"/>
<path class="path-9" d="M347.466,149.050C352.098,152.574,357.097,155.805,362.425,159.072"/>
<path class="path-9" d="M362.425,159.072C365.434,161.084,368.448,163.091,371.466,165.092"/>
<path class="path-9" d="M371.466,165.092C384.881,173.941,380.217,179.786,372.096,177.548"/>
<path class="path-9" d="M372.096,177.548C353.945,172.191,350.822,173.186,333.990,161.951"/>
<path class="path-9" d="M333.990,161.951C331.784,160.703,326.197,156.739,324.730,160.927"/>
<path class="path-9" d="M324.730,160.927C322.860,165.741,331.313,171.028,334.767,173.083"/>
<path class="path-9" d="M334.767,173.083C340.977,177.453,347.814,182.226,355.677,183.765"/>
<path class="path-9" d="M355.677,183.765C357.956,184.352,365.965,184.567,367.031,187.028"/>
<path class="path-9" d="M367.031,187.028C368.649,190.555,358.109,198.092,355.906,199.857"/>
<path class="path-9" d="M355.906,199.857C352.269,202.467,348.634,205.077,345.071,207.027"/>
<path class="path-9" d="M345.071,207.027C339.745,209.784,334.124,212.174,328.394,212.545"/>
<path class="path-9" d="M328.394,212.545C317.666,212.698,286.280,193.828,286.568,182.146"/>
<path class="path-9" d="M286.568,182.146C286.639,175.460,299.417,159.802,304.080,153.957"/>
<path class="path-9" d="M304.080,153.957C308.375,148.407,319.096,133.191,327.032,134.069"/>
<path class="path-10" d="M327.032,134.069C332.323,134.654,342.175,145.452,347.466,149.050C352.098,152.574,357.097,155.805,362.425,159.072C365.434,161.084,368.448,163.091,371.466,165.092C384.881,173.941,380.217,179.786,372.096,177.548C353.945,172.191,350.822,173.186,333.990,161.951C331.784,160.703,326.197,156.739,324.730,160.927C322.860,165.741,331.313,171.028,334.767,173.083C340.977,177.453,347.814,182.226,355.677,183.765C357.956,184.352,365.965,184.567,367.031,187.028C368.649,190.555,358.109,198.092,355.906,199.857C352.269,202.467,348.634,205.077,345.071,207.027C339.745,209.784,334.124,212.174,328.394,212.545C317.666,212.698,286.280,193.828,286.568,182.146C286.639,175.460,299.417,159.802,304.080,153.957C308.375,148.407,319.096,133.191,327.032,134.069Z"/>
</g>
<g id="hair">
<path class="path-0" d="M200.758,144.696C216.944,131.081,236.669,127.930,257.552,124.907C266.913,123.534,274.026,129.256,281.870,134.776C288.346,139.656,295.338,145.187,302.210,150.302C312.547,157.940,316.954,161.855,320.905,165.623C324.248,168.480,329.544,173.914,333.596,176.340C338.484,179.266,349.362,195.349,351.589,197.064C345.221,199.975,335.023,202.694,330.660,207.011C332.906,212.636,334.181,221.581,334.471,224.275C328.341,225.342,320.873,223.294,309.262,222.403C307.685,229.790,308.394,236.482,304.471,244.220C296.564,242.681,291.031,241.354,280.657,237.965C274.655,243.817,273.081,243.570,263.119,251.162C255.613,247.581,249.512,243.564,242.338,241.449C235.900,245.024,225.325,247.146,222.006,250.433C217.492,243.826,213.208,236.458,209.623,233.439C200.283,236.386,196.463,239.423,189.978,242.572C185.213,237.524,187.740,232.691,182.248,225.113C177.821,224.397,170.898,222.483,165.356,222.947C168.715,218.087,170.015,203.128,176.287,200.601C184.027,197.483,178.044,188.918,182.104,180.257C183.099,178.010,193.130,160.557,193.905,157.793C195.422,153.009,197.098,147.926,200.758,144.696M285.159,121.745C272.017,113.629,246.927,111.073,233.454,115.716C221.073,119.827,209.065,125.096,198.794,133.367C193.037,137.939,186.818,144.444,183.348,150.937C176.382,163.572,167.222,190.590,161.797,203.223C157.494,213.681,153.209,220.883,148.641,226.786C166.820,231.394,172.205,233.516,177.507,233.785C178.617,241.467,186.317,246.471,185.951,255.110C194.582,252.921,199.574,250.172,207.168,247.438C211.597,251.666,214.970,257.681,219.378,263.466C226.843,260.602,234.723,260.096,241.773,253.898C247.577,256.339,256.784,260.111,266.260,264.130C274.072,258.897,275.815,258.466,283.056,252.654C292.721,254.024,303.219,258.863,312.617,256.891C311.122,248.814,316.582,242.610,315.350,237.457C322.321,234.815,344.594,235.779,348.310,235.080C347.475,229.086,342.999,217.905,343.834,210.579C350.425,208.093,355.986,205.874,366.055,199.728C361.924,193.418,354.887,185.776,348.950,181.397C343.943,177.741,339.653,172.660,334.626,168.832C317.599,156.084,309.476,136.844,285.159,121.745Z"/>
<path class="path-11" d="M257.552,124.907C266.913,123.534,274.026,129.256,281.870,134.776"/>
<path class="path-11" d="M281.870,134.776C288.346,139.656,295.338,145.187,302.210,150.302"/>
<path class="path-11" d="M302.210,150.302C312.547,157.940,316.954,161.855,320.905,165.623"/>
<path class="path-11" d="M320.905,165.623C324.248,168.480,329.544,173.914,333.596,176.340"/>
<path class="path-11" d="M333.596,176.340C338.484,179.266,349.362,195.349,351.589,197.064"/>
<path class="path-11" d="M351.589,197.064C345.221,199.975,335.023,202.694,330.660,207.011"/>
<path class="path-11" d="M330.660,207.011C332.906,212.636,334.181,221.581,334.471,224.275"/>
<path class="path-11" d="M334.471,224.275C328.341,225.342,320.873,223.294,309.262,222.403"/>
<path class="path-11" d="M309.262,222.403C307.685,229.790,308.394,236.482,304.471,244.220"/>
<path class="path-11" d="M304.471,244.220C296.564,242.681,291.031,241.354,280.657,237.965"/>
<path class="path-11" d="M280.657,237.965C274.655,243.817,273.081,243.570,263.119,251.162"/>
<path class="path-11" d="M263.119,251.162C255.613,247.581,249.512,243.564,242.338,241.449"/>
<path class="path-11" d="M242.338,241.449C235.900,245.024,225.325,247.146,222.006,250.433"/>
<path class="path-11" d="M222.006,250.433C217.492,243.826,213.208,236.458,209.623,233.439"/>
<path class="path-11" d="M209.623,233.439C200.283,236.386,196.463,239.423,189.978,242.572"/>
<path class="path-11" d="M189.978,242.572C185.213,237.524,187.740,232.691,182.248,225.113"/>
<path class="path-11" d="M182.248,225.113C177.821,224.397,170.898,222.483,165.356,222.947"/>
<path class="path-11" d="M165.356,222.947C168.715,218.087,170.015,203.128,176.287,200.601"/>
<path class="path-11" d="M176.287,200.601C184.027,197.483,178.044,188.918,182.104,180.257"/>
<path class="path-11" d="M182.104,180.257C183.099,178.010,193.130,160.557,193.905,157.793"/>
<path class="path-11" d="M193.905,157.793C195.422,153.009,197.098,147.926,200.758,144.696"/>
<path class="path-11" d="M200.758,144.696C216.944,131.081,236.669,127.930,257.552,124.907"/>
<path class="path-12" d="M257.552,124.907C266.913,123.534,274.026,129.256,281.870,134.776C288.346,139.656,295.338,145.187,302.210,150.302C312.547,157.940,316.954,161.855,320.905,165.623C324.248,168.480,329.544,173.914,333.596,176.340C338.484,179.266,349.362,195.349,351.589,197.064C345.221,199.975,335.023,202.694,330.660,207.011C332.906,212.636,334.181,221.581,334.471,224.275C328.341,225.342,320.873,223.294,309.262,222.403C307.685,229.790,308.394,236.482,304.471,244.220C296.564,242.681,291.031,241.354,280.657,237.965C274.655,243.817,273.081,243.570,263.119,251.162C255.613,247.581,249.512,243.564,242.338,241.449C235.900,245.024,225.325,247.146,222.006,250.433C217.492,243.826,213.208,236.458,209.623,233.439C200.283,236.386,196.463,239.423,189.978,242.572C185.213,237.524,187.740,232.691,182.248,225.113C177.821,224.397,170.898,222.483,165.356,222.947C168.715,218.087,170.015,203.128,176.287,200.601C184.027,197.483,178.044,188.918,182.104,180.257C183.099,178.010,193.130,160.557,193.905,157.793C195.422,153.009,197.098,147.926,200.758,144.696C216.944,131.081,236.669,127.930,257.552,124.907Z"/>
</g>
<g id="clothes">
<path class="path-0" d="M245.825,369.864C240.634,367.772,220.834,368.200,217.305,372.811C215.065,375.926,218.309,377.730,221.636,378.015C225.612,378.355,246.580,378.489,249.373,376.876C253.808,374.246,247.983,370.626,245.825,369.864M201.396,265.961C205.304,253.664,233.072,242.990,245.841,244.995C254.815,246.377,282.124,262.681,285.457,271.364C288.251,278.306,287.253,303.080,286.859,311.447C285.860,326.719,285.338,342.067,284.957,357.367C285.233,369.368,293.956,382.889,287.894,393.251C285.435,396.415,275.745,396.377,271.398,397.107C265.601,398.366,254.501,402.890,249.046,402.621C226.190,402.117,228.346,403.882,206.939,402.659C202.835,402.268,189.574,400.396,187.081,398.355C181.463,392.556,185.165,384.038,187.156,376.522C191.290,363.138,193.160,353.756,195.537,339.091C197.999,323.242,201.325,306.321,202.653,289.797C202.798,283.868,200.469,269.519,201.396,265.961M281.190,253.818C265.607,242.864,250.195,233.641,230.084,237.811C224.697,238.728,197.263,249.575,194.719,252.720C190.767,257.691,193.168,277.857,192.630,285.033C192.319,293.609,191.835,302.512,190.454,310.669C189.572,316.924,187.723,322.421,187.181,328.372C186.247,334.953,185.710,342.113,184.043,348.088C179.295,364.652,165.287,397.258,184.620,409.938C189.165,412.943,195.967,413.020,201.701,413.500C211.613,414.139,222.248,415.100,232.292,414.208C244.658,413.453,256.631,409.343,269.167,409.034C275.624,408.876,295.446,416.515,300.425,411.848C302.879,409.649,303.997,395.111,303.688,391.401C301.942,378.135,295.911,365.559,294.793,352.226C294.125,340.265,294.682,328.502,296.413,316.297C297.620,306.315,300.107,296.772,300.909,286.418C300.910,282.018,301.940,276.690,299.915,272.136C296.510,263.805,288.206,258.740,281.190,253.818Z"/>
<path class="path-13" d="M245.825,369.864C240.634,367.772,220.834,368.200,217.305,372.811"/>
<path class="path-13" d="M217.305,372.811C215.065,375.926,218.309,377.730,221.636,378.015"/>
<path class="path-13" d="M221.636,378.015C225.612,378.355,246.580,378.489,249.373,376.876"/>
<path class="path-13" d="M249.373,376.876C253.808,374.246,247.983,370.626,245.825,369.864"/>
<path class="path-13" d="M201.396,265.961C205.304,253.664,233.072,242.990,245.841,244.995"/>
<path class="path-13" d="M245.841,244.995C254.815,246.377,282.124,262.681,285.457,271.364"/>
<path class="path-13" d="M285.457,271.364C288.251,278.306,287.253,303.080,286.859,311.447"/>
<path class="path-13" d="M286.859,311.447C285.860,326.719,285.338,342.067,284.957,357.367"/>
<path class="path-13" d="M284.957,357.367C285.233,369.368,293.956,382.889,287.894,393.251"/>
<path class="path-13" d="M287.894,393.251C285.435,396.415,275.745,396.377,271.398,397.107"/>
<path class="path-13" d="M271.398,397.107C265.601,398.366,254.501,402.890,249.046,402.621"/>
<path class="path-13" d="M249.046,402.621C226.190,402.117,228.346,403.882,206.939,402.659"/>
<path class="path-13" d="M206.939,402.659C202.835,402.268,189.574,400.396,187.081,398.355"/>
<path class="path-13" d="M187.081,398.355C181.463,392.556,185.165,384.038,187.156,376.522"/>
<path class="path-13" d="M187.156,376.522C191.290,363.138,193.160,353.756,195.537,339.091"/>
<path class="path-13" d="M195.537,339.091C197.999,323.242,201.325,306.321,202.653,289.797"/>
<path class="path-13" d="M202.653,289.797C202.798,283.868,200.469,269.519,201.396,265.961"/>
<path class="path-14" d="M245.825,369.864C240.634,367.772,220.834,368.200,217.305,372.811C215.065,375.926,218.309,377.730,221.636,378.015C225.612,378.355,246.580,378.489,249.373,376.876C253.808,374.246,247.983,370.626,245.825,369.864M201.396,265.961C205.304,253.664,233.072,242.990,245.841,244.995C254.815,246.377,282.124,262.681,285.457,271.364C288.251,278.306,287.253,303.080,286.859,311.447C285.860,326.719,285.338,342.067,284.957,357.367C285.233,369.368,293.956,382.889,287.894,393.251C285.435,396.415,275.745,396.377,271.398,397.107C265.601,398.366,254.501,402.890,249.046,402.621C226.190,402.117,228.346,403.882,206.939,402.659C202.835,402.268,189.574,400.396,187.081,398.355C181.463,392.556,185.165,384.038,187.156,376.522C191.290,363.138,193.160,353.756,195.537,339.091C197.999,323.242,201.325,306.321,202.653,289.797C202.798,283.868,200.469,269.519,201.396,265.961Z"/>
</g>
<g id="neck">
<path class="path-0" d="M241.514,225.551C242.226,222.283,243.560,219.423,247.233,219.510C259.029,218.859,253.739,256.093,243.164,254.877C233.248,253.736,240.132,231.754,241.514,225.551M248.298,210.257C245.693,209.622,242.642,209.940,240.176,210.996C230.388,214.558,230.721,223.304,229.733,231.897C228.907,236.156,228.782,240.161,226.381,243.568C224.348,246.683,219.339,249.454,218.921,253.092C218.111,263.045,244.883,266.126,251.862,266.594C254.505,266.898,263.315,268.916,264.725,265.395C264.839,264.404,259.561,252.074,259.102,247.333C257.724,233.109,269.338,213.683,248.298,210.257Z"/>
<path class="path-15" d="M247.233,219.510C259.029,218.859,253.739,256.093,243.164,254.877"/>
<path class="path-15" d="M243.164,254.877C233.248,253.736,240.132,231.754,241.514,225.551"/>
<path class="path-15" d="M241.514,225.551C242.226,222.283,243.560,219.423,247.233,219.510"/>
<path class="path-16" d="M247.233,219.510C259.029,218.859,253.739,256.093,243.164,254.877C233.248,253.736,240.132,231.754,241.514,225.551C242.226,222.283,243.560,219.423,247.233,219.510Z"/>
</g>
<g id="layer_head">
<g id="right_ear">
<path class="path-0" d="M171.940,183.768C167.805,183.422,159.037,156.542,163.731,158.065C169.498,159.936,171.073,170.923,172.198,175.404C172.798,177.420,175.597,184.074,171.940,183.768M166.920,144.023C165.391,142.714,163.567,141.155,161.653,141.780C152.265,143.261,154.420,157.698,156.269,167.069C158.575,178.126,164.684,192.395,173.561,197.998C174.898,198.851,177.185,201.519,178.852,201.360C184.869,200.408,180.499,190.204,179.410,185.550C177.828,178.066,171.604,149.667,166.920,144.023Z"/>
<path class="path-15" d="M163.731,158.065C169.498,159.936,171.073,170.923,172.198,175.404"/>
<path class="path-15" d="M172.198,175.404C172.798,177.420,175.597,184.074,171.940,183.768"/>
<path class="path-15" d="M171.940,183.768C167.805,183.422,159.037,156.542,163.731,158.065"/>
<path class="path-16" d="M163.731,158.065C169.498,159.936,171.073,170.923,172.198,175.404C172.798,177.420,175.597,184.074,171.940,183.768C167.805,183.422,159.037,156.542,163.731,158.065Z"/>
</g>
<g id="face_Mask">
<g id="face">
<path class="path-0" d="M174.537,100.787C184.120,91.335,217.480,87.796,231.257,87.311C246.688,87.010,261.974,91.044,276.342,97.319C281.451,99.559,289.172,102.067,293.063,106.533C299.103,113.519,300.444,125.053,300.581,133.925C300.801,139.270,300.598,146.145,298.999,150.940C288.622,182.054,280.293,196.795,272.587,204.873C259.389,218.711,238.111,222.468,219.171,223.346C200.657,223.939,192.400,220.072,176.151,211.046C173.295,209.465,167.012,206.105,165.261,203.518C158.931,193.778,164.254,182.137,163.110,171.071C161.960,162.530,156.930,150.215,156.223,141.801C155.459,130.596,166.657,108.489,174.537,100.787M297.900,99.345C285.868,85.561,249.970,78.921,232.152,79.610C223.774,79.679,215.764,79.456,207.938,80.594C202.130,81.623,196.873,83.716,191.395,84.784C179.344,87.801,174.720,85.842,165.754,95.681C159.336,102.552,147.519,131.100,147.294,140.341C147.241,147.942,153.918,165.585,153.932,174.434C153.892,183.995,147.466,197.036,150.886,205.603C154.080,213.280,161.649,217.295,172.011,222.621C179.970,226.711,188.889,230.479,197.973,232.035C202.668,232.839,208.071,234.763,218.309,233.732C238.618,231.430,259.928,226.614,275.854,211.707C290.411,198.082,310.130,179.710,315.266,149.355C318.562,129.875,304.338,106.561,297.900,99.345Z"/>
<path class="path-15" d="M231.257,87.311C246.688,87.010,261.974,91.044,276.342,97.319"/>
<path class="path-15" d="M276.342,97.319C281.451,99.559,289.172,102.067,293.063,106.533"/>
<path class="path-15" d="M293.063,106.533C299.103,113.519,300.444,125.053,300.581,133.925"/>
<path class="path-15" d="M300.581,133.925C300.801,139.270,300.598,146.145,298.999,150.940"/>
<path class="path-15" d="M298.999,150.940C288.622,182.054,280.293,196.795,272.587,204.873"/>
<path class="path-15" d="M272.587,204.873C259.389,218.711,238.111,222.468,219.171,223.346"/>
<path class="path-15" d="M219.171,223.346C200.657,223.939,192.400,220.072,176.151,211.046"/>
<path class="path-15" d="M176.151,211.046C173.295,209.465,167.012,206.105,165.261,203.518"/>
<path class="path-15" d="M165.261,203.518C158.931,193.778,164.254,182.137,163.110,171.071"/>
<path class="path-15" d="M163.110,171.071C161.960,162.530,156.930,150.215,156.223,141.801"/>
<path class="path-15" d="M156.223,141.801C155.459,130.596,166.657,108.489,174.537,100.787"/>
<path class="path-15" d="M174.537,100.787C184.120,91.335,217.480,87.796,231.257,87.311"/>
<path class="path-16" d="M231.257,87.311C246.688,87.010,261.974,91.044,276.342,97.319C281.451,99.559,289.172,102.067,293.063,106.533C299.103,113.519,300.444,125.053,300.581,133.925C300.801,139.270,300.598,146.145,298.999,150.940C288.622,182.054,280.293,196.795,272.587,204.873C259.389,218.711,238.111,222.468,219.171,223.346C200.657,223.939,192.400,220.072,176.151,211.046C173.295,209.465,167.012,206.105,165.261,203.518C158.931,193.778,164.254,182.137,163.110,171.071C161.960,162.530,156.930,150.215,156.223,141.801C155.459,130.596,166.657,108.489,174.537,100.787C184.120,91.335,217.480,87.796,231.257,87.311Z"/>
</g>
</g>
<mask id="mask_target" style="mask-type:alpha;">
<use xlink:href="#face_Mask"/>
</mask>
<g id="mouse">
<path class="path-0" d="M199.380,211.813C204.431,213.482,203.992,218.216,203.465,218.668C203.168,218.923,202.157,217.854,199.268,217.045C193.798,215.512,190.979,216.380,190.862,215.648C190.732,214.846,193.466,209.859,199.380,211.813Z"/>
</g>
<g id="layer_eyes_Mtarget" mask="url(#mask_target)">
<g id="eyes">
<mask style="mask-type:alpha;" id="f3906406-f197-4bf1-91d8-744c09cca836">
<use xlink:href="#cmn_f3906406-f197-4bf1-91d8-744c09cca836"/>
</mask>
<g id="cmn_f3906406-f197-4bf1-91d8-744c09cca836">
<path class="path-0" d="M150.128,178.559C151.414,180.205,153.039,184.522,153.549,184.075C152.925,184.637,150.066,182.230,149.503,180.777C149.282,180.236,149.806,177.355,149.577,178.035C149.550,178.117,150.084,178.504,150.128,178.559M159.942,182.845C159.857,181.592,160.252,177.386,158.595,176.214C157.642,175.540,155.849,176.073,154.711,176.397C151.888,177.132,141.010,169.552,140.944,165.650C140.930,164.879,143.875,161.933,144.632,161.833C155.984,160.331,134.324,180.005,144.279,192.485C145.201,193.641,153.767,190.689,153.049,191.437C152.602,191.903,160.111,185.349,159.942,182.845M187.769,191.262C183.368,190.239,176.349,187.676,177.324,180.705C177.703,177.990,192.200,178.042,195.784,177.288C199.331,176.541,212.630,173.289,214.415,173.561C215.464,173.784,216.165,177.494,215.763,180.080C215.107,184.309,195.087,192.963,187.769,191.262M222.651,185.192C225.181,181.494,226.065,167.848,224.772,166.876C220.640,163.767,206.846,168.923,199.239,170.285C193.463,171.319,183.984,174.902,180.147,174.539C176.896,174.350,174.231,173.396,172.646,174.999C171.067,176.595,171.725,180.293,172.263,182.472C173.108,185.893,174.977,190.180,178.539,192.401C185.386,196.818,199.237,194.841,206.838,193.943C208.746,193.714,219.685,189.526,222.651,185.192Z"/>
<path class="path-17" d="M214.415,173.561C215.464,173.784,216.165,177.494,215.763,180.080"/>
<path class="path-17" d="M215.763,180.080C215.107,184.309,195.087,192.963,187.769,191.262"/>
<path class="path-17" d="M187.769,191.262C183.368,190.239,176.349,187.676,177.324,180.705"/>
<path class="path-17" d="M177.324,180.705C177.703,177.990,192.200,178.042,195.784,177.288"/>
<path class="path-17" d="M195.784,177.288C199.331,176.541,212.630,173.289,214.415,173.561"/>
<path class="path-18" d="M214.415,173.561C215.464,173.784,216.165,177.494,215.763,180.080C215.107,184.309,195.087,192.963,187.769,191.262C183.368,190.239,176.349,187.676,177.324,180.705C177.703,177.990,192.200,178.042,195.784,177.288C199.331,176.541,212.630,173.289,214.415,173.561Z"/>
<path class="path-17" d="M149.577,178.035C149.550,178.117,150.084,178.504,150.128,178.559"/>
<path class="path-17" d="M150.128,178.559C151.414,180.205,153.039,184.522,153.549,184.075"/>
<path class="path-17" d="M153.549,184.075C152.925,184.637,150.066,182.230,149.503,180.777"/>
<path class="path-17" d="M149.503,180.777C149.282,180.236,149.806,177.355,149.577,178.035"/>
<path class="path-18" d="M149.577,178.035C149.550,178.117,150.084,178.504,150.128,178.559C151.414,180.205,153.039,184.522,153.549,184.075C152.925,184.637,150.066,182.230,149.503,180.777C149.282,180.236,149.806,177.355,149.577,178.035Z"/>
</g>
</g>
<g id="pupil">
<path class="path-0" d="M180.747,168.961C183.068,168.643,185.925,172.111,185.857,180.561C185.805,186.939,183.840,189.343,182.071,189.348C180.159,189.355,178.809,186.600,178.278,179.723C177.712,172.384,178.725,169.238,180.747,168.961Z" mask="url(#f3906406-f197-4bf1-91d8-744c09cca836)"/>
<path class="path-0" d="M151.668,167.960C154.122,167.780,157.331,171.733,156.439,180.858C155.921,186.165,154.029,187.850,152.598,187.874C150.996,187.902,149.104,185.911,148.356,179.989C147.314,171.736,149.442,168.122,151.668,167.960Z" mask="url(#f3906406-f197-4bf1-91d8-744c09cca836)"/>
</g>
</g>
<g id="hat">
<path class="path-0" d="M307.326,144.122C309.463,145.212,311.727,148.273,311.992,150.944C313.264,157.866,301.843,158.093,298.199,158.174C292.551,157.734,286.798,156.089,281.531,154.839C274.282,153.799,267.277,151.457,260.070,150.158C237.450,144.234,214.615,139.303,191.870,133.904C181.521,131.874,172.374,128.928,161.036,126.901C159.920,126.702,150.105,126.373,148.200,125.593C133.532,119.747,147.735,107.438,147.352,100.480C147.391,98.644,144.057,97.879,144.962,94.680C145.540,92.756,150.963,89.113,152.921,88.490C162.080,85.523,172.506,85.657,182.543,86.630C193.161,87.659,202.346,90.598,212.676,93.207C238.265,99.669,280.774,112.294,313.191,128.996C322.312,133.695,302.724,129.624,300.867,129.572C283.639,129.089,213.154,104.452,251.926,120.616C266.819,126.824,294.206,136.883,307.326,144.122M202.994,77.476C190.968,74.899,179.899,72.646,168.264,73.623C164.110,73.961,158.709,74.247,155.469,74.983C148.815,76.496,162.912,58.322,166.638,55.131C184.616,40.115,213.704,31.471,237.936,35.832C285.934,44.472,302.458,59.986,313.073,80.366C316.579,86.524,325.093,113.780,314.418,118.639C311.032,119.921,305.669,116.503,303.185,114.722C294.207,108.568,221.191,81.376,202.994,77.476M309.294,51.268C293.375,39.570,270.609,28.525,242.765,26.055C212.754,23.393,179.229,29.052,157.164,52.692C150.417,60.086,146.875,68.670,142.222,76.739C139.430,81.529,134.689,84.219,133.555,89.582C132.160,97.183,136.606,99.747,136.530,106.110C136.643,113.411,131.850,114.960,131.548,119.647C129.561,131.948,140.855,136.600,150.879,139.025C155.161,140.063,171.414,141.317,180.189,142.505C190.058,143.841,203.203,145.761,213.007,147.509C224.504,149.559,239.669,153.137,251.139,155.333C261.846,157.384,276.087,160.449,286.916,161.703C295.047,162.646,313.007,164.025,314.154,163.282C315.810,162.231,322.529,150.135,323.313,147.705C324.683,143.454,323.079,138.392,325.635,131.640C329.104,121.810,332.920,113.592,332.985,102.333C332.926,81.640,321.554,60.277,309.294,51.268Z"/>
<path class="path-19" d="M212.676,93.207C238.265,99.669,280.774,112.294,313.191,128.996"/>
<path class="path-19" d="M313.191,128.996C322.312,133.695,302.724,129.624,300.867,129.572"/>
<path class="path-19" d="M300.867,129.572C283.639,129.089,213.154,104.452,251.926,120.616"/>
<path class="path-19" d="M251.926,120.616C266.819,126.824,294.206,136.883,307.326,144.122"/>
<path class="path-19" d="M307.326,144.122C309.463,145.212,311.727,148.273,311.992,150.944"/>
<path class="path-19" d="M311.992,150.944C313.264,157.866,301.843,158.093,298.199,158.174"/>
<path class="path-19" d="M298.199,158.174C292.551,157.734,286.798,156.089,281.531,154.839"/>
<path class="path-19" d="M281.531,154.839C274.282,153.799,267.277,151.457,260.070,150.158"/>
<path class="path-19" d="M260.070,150.158C237.450,144.234,214.615,139.303,191.870,133.904"/>
<path class="path-19" d="M191.870,133.904C181.521,131.874,172.374,128.928,161.036,126.901"/>
<path class="path-19" d="M161.036,126.901C159.920,126.702,150.105,126.373,148.200,125.593"/>
<path class="path-19" d="M148.200,125.593C133.532,119.747,147.735,107.438,147.352,100.480"/>
<path class="path-19" d="M147.352,100.480C147.391,98.644,144.057,97.879,144.962,94.680"/>
<path class="path-19" d="M144.962,94.680C145.540,92.756,150.963,89.113,152.921,88.490"/>
<path class="path-19" d="M152.921,88.490C162.080,85.523,172.506,85.657,182.543,86.630"/>
<path class="path-19" d="M182.543,86.630C193.161,87.659,202.346,90.598,212.676,93.207"/>
<path class="path-20" d="M212.676,93.207C238.265,99.669,280.774,112.294,313.191,128.996C322.312,133.695,302.724,129.624,300.867,129.572C283.639,129.089,213.154,104.452,251.926,120.616C266.819,126.824,294.206,136.883,307.326,144.122C309.463,145.212,311.727,148.273,311.992,150.944C313.264,157.866,301.843,158.093,298.199,158.174C292.551,157.734,286.798,156.089,281.531,154.839C274.282,153.799,267.277,151.457,260.070,150.158C237.450,144.234,214.615,139.303,191.870,133.904C181.521,131.874,172.374,128.928,161.036,126.901C159.920,126.702,150.105,126.373,148.200,125.593C133.532,119.747,147.735,107.438,147.352,100.480C147.391,98.644,144.057,97.879,144.962,94.680C145.540,92.756,150.963,89.113,152.921,88.490C162.080,85.523,172.506,85.657,182.543,86.630C193.161,87.659,202.346,90.598,212.676,93.207Z"/>
<path class="path-9" d="M237.936,35.832C285.934,44.472,302.458,59.986,313.073,80.366"/>
<path class="path-9" d="M313.073,80.366C316.579,86.524,325.093,113.780,314.418,118.639"/>
<path class="path-9" d="M314.418,118.639C311.032,119.921,305.669,116.503,303.185,114.722"/>
<path class="path-9" d="M303.185,114.722C294.207,108.568,221.191,81.376,202.994,77.476"/>
<path class="path-9" d="M202.994,77.476C190.968,74.899,179.899,72.646,168.264,73.623"/>
<path class="path-9" d="M168.264,73.623C164.110,73.961,158.709,74.247,155.469,74.983"/>
<path class="path-9" d="M155.469,74.983C148.815,76.496,162.912,58.322,166.638,55.131"/>
<path class="path-9" d="M166.638,55.131C184.616,40.115,213.704,31.471,237.936,35.832"/>
<path class="path-10" d="M237.936,35.832C285.934,44.472,302.458,59.986,313.073,80.366C316.579,86.524,325.093,113.780,314.418,118.639C311.032,119.921,305.669,116.503,303.185,114.722C294.207,108.568,221.191,81.376,202.994,77.476C190.968,74.899,179.899,72.646,168.264,73.623C164.110,73.961,158.709,74.247,155.469,74.983C148.815,76.496,162.912,58.322,166.638,55.131C184.616,40.115,213.704,31.471,237.936,35.832Z"/>
</g>
<g id="left_ear">
<path class="path-0" d="M257.413,182.445C258.035,181.093,261.253,177.312,262.471,176.178C272.607,165.982,289.114,157.854,295.868,166.833C303.375,177.254,286.352,199.980,273.933,203.256C259.454,206.841,252.386,194.358,257.413,182.445M310.424,172.298C309.453,160.951,303.956,152.525,286.051,153.749C269.065,154.911,262.861,177.266,260.392,191.102C259.962,193.946,260.185,197.035,260.672,199.728C262.417,210.341,269.431,216.955,280.160,211.222C292.949,204.221,311.277,187.767,310.424,172.298Z"/>
<path class="path-15" d="M262.471,176.178C272.607,165.982,289.114,157.854,295.868,166.833"/>
<path class="path-15" d="M295.868,166.833C303.375,177.254,286.352,199.980,273.933,203.256"/>
<path class="path-15" d="M273.933,203.256C259.454,206.841,252.386,194.358,257.413,182.445"/>
<path class="path-15" d="M257.413,182.445C258.035,181.093,261.253,177.312,262.471,176.178"/>
<path class="path-16" d="M262.471,176.178C272.607,165.982,289.114,157.854,295.868,166.833C303.375,177.254,286.352,199.980,273.933,203.256C259.454,206.841,252.386,194.358,257.413,182.445C258.035,181.093,261.253,177.312,262.471,176.178Z"/>
</g>
<g id="earrings">
<path class="path-0" d="M284.406,215.114C275.038,218.802,275.906,201.067,279.060,201.621C283.398,203.498,293.515,217.748,284.406,215.114M295.153,208.919C288.527,208.769,286.272,199.511,286.078,195.683C293.388,197.974,302.280,204.329,295.153,208.919M306.111,206.684C304.421,198.339,292.668,192.455,285.184,188.302C282.329,186.718,272.899,196.365,272.223,199.733C270.790,203.677,271.407,225.753,285.423,224.263C291.266,223.380,307.470,213.391,306.111,206.684Z"/>
<path class="path-21" d="M286.078,195.683C293.388,197.974,302.280,204.329,295.153,208.919"/>
<path class="path-21" d="M295.153,208.919C288.527,208.769,286.272,199.511,286.078,195.683"/>
<path class="path-22" d="M286.078,195.683C293.388,197.974,302.280,204.329,295.153,208.919C288.527,208.769,286.272,199.511,286.078,195.683Z"/>
<path class="path-21" d="M279.060,201.621C283.398,203.498,293.515,217.748,284.406,215.114"/>
<path class="path-21" d="M284.406,215.114C275.038,218.802,275.906,201.067,279.060,201.621"/>
<path class="path-22" d="M279.060,201.621C283.398,203.498,293.515,217.748,284.406,215.114C275.038,218.802,275.906,201.067,279.060,201.621Z"/>
</g>
</g>
<g id="jacket">
<path class="path-0" d="M212.478,271.427C214.341,276.173,208.787,285.656,207.813,290.229C201.852,307.810,193.240,324.690,193.648,342.818C193.947,348.495,197.820,360.712,192.651,364.835C190.905,366.228,186.098,363.512,185.205,364.895C183.429,367.631,179.684,357.950,179.026,356.485C178.347,354.972,176.538,346.452,176.460,344.026C176.602,339.329,177.661,330.218,178.634,324.371C179.651,318.538,179.675,312.224,182.227,306.214C184.460,299.515,188.813,292.171,191.196,284.663C193.740,280.059,197.439,277.598,197.103,273.894C196.421,270.201,194.789,268.203,198.087,266.760C202.252,265.279,211.839,266.378,212.478,271.427M274.749,278.566C276.301,277.338,290.381,271.636,292.136,271.002C304.928,267.059,307.111,282.315,306.615,290.179C306.443,293.614,305.438,305.632,305.788,308.077C306.226,313.283,309.218,316.609,309.655,321.070C310.184,331.872,311.556,325.282,309.525,334.426C309.008,336.739,307.197,341.417,306.067,343.447C304.760,345.499,300.568,349.013,299.405,350.976C296.319,355.275,295.183,361.193,287.528,362.525C286.149,362.943,273.452,369.829,271.224,370.901C267.235,372.560,262.232,375.598,258.476,372.868C253.989,369.220,254.657,361.206,253.871,355.058C251.900,341.422,254.035,327.544,257.534,314.161C259.830,303.569,266.592,286.541,274.749,278.566M288.255,262.208C285.357,263.910,279.100,264.162,277.280,264.455C273.298,264.877,272.854,261.438,272.644,258.634C272.469,254.133,275.620,247.688,278.985,244.472C281.627,241.946,286.219,239.724,290.230,239.784C294.184,239.703,300.663,243.087,299.970,247.534C299.693,250.549,293.112,259.355,288.255,262.208M214.757,243.815C219.228,252.743,224.215,261.885,218.976,261.011C212.972,260.011,210.034,259.610,200.641,255.742C190.152,251.422,187.411,236.348,193.330,231.664C199.125,227.078,209.517,233.351,214.757,243.815M316.673,350.031C318.707,345.070,321.144,341.875,321.269,336.279C321.329,331.475,320.294,325.820,318.126,321.560C313.719,313.427,311.686,310.308,306.009,301.514C303.927,298.409,301.152,296.335,300.675,292.780C300.069,289.375,301.688,271.620,302.805,268.668C303.889,263.574,309.364,260.363,310.694,255.758C311.917,251.985,313.212,247.956,312.821,244.009C312.602,238.755,308.121,235.056,304.480,232.003C299.304,228.160,294.245,227.668,287.667,228.117C278.120,228.781,272.428,237.242,268.349,243.406C262.533,252.196,263.067,267.459,259.868,277.502C258.035,283.256,254.735,291.002,252.660,296.294C244.218,316.862,228.972,373.981,247.639,386.326C249.123,387.451,260.704,389.040,264.126,388.200C272.567,386.171,275.985,383.441,284.077,381.040C290.719,379.347,300.071,369.571,306.186,363.276C309.660,359.928,315.331,353.299,316.673,350.031M221.315,234.423C216.084,227.846,207.024,216.263,198.596,218.035C194.324,219.078,188.281,222.071,185.118,225.427C182.137,228.590,178.921,234.093,178.866,238.494C178.675,243.918,178.701,250.361,180.499,255.002C182.613,260.463,191.462,264.835,192.305,270.548C192.612,273.109,186.096,284.272,185.074,287.299C183.093,293.748,179.136,299.679,177.077,305.184C175.052,310.598,173.021,318.049,171.465,323.616C169.352,331.178,165.562,340.442,165.041,348.987C164.543,353.312,165.901,363.269,168.657,368.569C170.349,371.825,174.764,376.514,176.981,377.533C178.316,378.145,192.200,382.572,197.087,379.008C205.948,372.546,203.319,358.613,201.754,342.750C200.267,328.215,211.619,316.949,216.323,302.939C218.580,296.129,226.589,276.028,227.398,268.657C228.022,262.969,230.084,259.185,228.823,251.228C228.011,246.934,224.752,238.745,221.315,234.423Z"/>
<path class="path-1" d="M292.136,271.002C304.928,267.059,307.111,282.315,306.615,290.179"/>
<path class="path-1" d="M306.615,290.179C306.443,293.614,305.438,305.632,305.788,308.077"/>
<path class="path-1" d="M305.788,308.077C306.226,313.283,309.218,316.609,309.655,321.070"/>
<path class="path-1" d="M309.655,321.070C310.184,331.872,311.556,325.282,309.525,334.426"/>
<path class="path-1" d="M309.525,334.426C309.008,336.739,307.197,341.417,306.067,343.447"/>
<path class="path-1" d="M306.067,343.447C304.760,345.499,300.568,349.013,299.405,350.976"/>
<path class="path-1" d="M299.405,350.976C296.319,355.275,295.183,361.193,287.528,362.525"/>
<path class="path-1" d="M287.528,362.525C286.149,362.943,273.452,369.829,271.224,370.901"/>
<path class="path-1" d="M271.224,370.901C267.235,372.560,262.232,375.598,258.476,372.868"/>
<path class="path-1" d="M258.476,372.868C253.989,369.220,254.657,361.206,253.871,355.058"/>
<path class="path-1" d="M253.871,355.058C251.900,341.422,254.035,327.544,257.534,314.161"/>
<path class="path-1" d="M257.534,314.161C259.830,303.569,266.592,286.541,274.749,278.566"/>
<path class="path-1" d="M274.749,278.566C276.301,277.338,290.381,271.636,292.136,271.002"/>
<path class="path-2" d="M292.136,271.002C304.928,267.059,307.111,282.315,306.615,290.179C306.443,293.614,305.438,305.632,305.788,308.077C306.226,313.283,309.218,316.609,309.655,321.070C310.184,331.872,311.556,325.282,309.525,334.426C309.008,336.739,307.197,341.417,306.067,343.447C304.760,345.499,300.568,349.013,299.405,350.976C296.319,355.275,295.183,361.193,287.528,362.525C286.149,362.943,273.452,369.829,271.224,370.901C267.235,372.560,262.232,375.598,258.476,372.868C253.989,369.220,254.657,361.206,253.871,355.058C251.900,341.422,254.035,327.544,257.534,314.161C259.830,303.569,266.592,286.541,274.749,278.566C276.301,277.338,290.381,271.636,292.136,271.002Z"/>
<path class="path-1" d="M198.087,266.760C202.252,265.279,211.839,266.378,212.478,271.427"/>
<path class="path-1" d="M212.478,271.427C214.341,276.173,208.787,285.656,207.813,290.229"/>
<path class="path-1" d="M207.813,290.229C201.852,307.810,193.240,324.690,193.648,342.818"/>
<path class="path-1" d="M193.648,342.818C193.947,348.495,197.820,360.712,192.651,364.835"/>
<path class="path-1" d="M192.651,364.835C190.905,366.228,186.098,363.512,185.205,364.895"/>
<path class="path-1" d="M185.205,364.895C183.429,367.631,179.684,357.950,179.026,356.485"/>
<path class="path-1" d="M179.026,356.485C178.347,354.972,176.538,346.452,176.460,344.026"/>
<path class="path-1" d="M176.460,344.026C176.602,339.329,177.661,330.218,178.634,324.371"/>
<path class="path-1" d="M178.634,324.371C179.651,318.538,179.675,312.224,182.227,306.214"/>
<path class="path-1" d="M182.227,306.214C184.460,299.515,188.813,292.171,191.196,284.663"/>
<path class="path-1" d="M191.196,284.663C193.740,280.059,197.439,277.598,197.103,273.894"/>
<path class="path-1" d="M197.103,273.894C196.421,270.201,194.789,268.203,198.087,266.760"/>
<path class="path-2" d="M198.087,266.760C202.252,265.279,211.839,266.378,212.478,271.427C214.341,276.173,208.787,285.656,207.813,290.229C201.852,307.810,193.240,324.690,193.648,342.818C193.947,348.495,197.820,360.712,192.651,364.835C190.905,366.228,186.098,363.512,185.205,364.895C183.429,367.631,179.684,357.950,179.026,356.485C178.347,354.972,176.538,346.452,176.460,344.026C176.602,339.329,177.661,330.218,178.634,324.371C179.651,318.538,179.675,312.224,182.227,306.214C184.460,299.515,188.813,292.171,191.196,284.663C193.740,280.059,197.439,277.598,197.103,273.894C196.421,270.201,194.789,268.203,198.087,266.760Z"/>
<path class="path-1" d="M290.230,239.784C294.184,239.703,300.663,243.087,299.970,247.534"/>
<path class="path-1" d="M299.970,247.534C299.693,250.549,293.112,259.355,288.255,262.208"/>
<path class="path-1" d="M288.255,262.208C285.357,263.910,279.100,264.162,277.280,264.455"/>
<path class="path-1" d="M277.280,264.455C273.298,264.877,272.854,261.438,272.644,258.634"/>
<path class="path-1" d="M272.644,258.634C272.469,254.133,275.620,247.688,278.985,244.472"/>
<path class="path-1" d="M278.985,244.472C281.627,241.946,286.219,239.724,290.230,239.784"/>
<path class="path-2" d="M290.230,239.784C294.184,239.703,300.663,243.087,299.970,247.534C299.693,250.549,293.112,259.355,288.255,262.208C285.357,263.910,279.100,264.162,277.280,264.455C273.298,264.877,272.854,261.438,272.644,258.634C272.469,254.133,275.620,247.688,278.985,244.472C281.627,241.946,286.219,239.724,290.230,239.784Z"/>
<path class="path-1" d="M214.757,243.815C219.228,252.743,224.215,261.885,218.976,261.011"/>
<path class="path-1" d="M218.976,261.011C212.972,260.011,210.034,259.610,200.641,255.742"/>
<path class="path-1" d="M200.641,255.742C190.152,251.422,187.411,236.348,193.330,231.664"/>
<path class="path-1" d="M193.330,231.664C199.125,227.078,209.517,233.351,214.757,243.815"/>
<path class="path-2" d="M214.757,243.815C219.228,252.743,224.215,261.885,218.976,261.011C212.972,260.011,210.034,259.610,200.641,255.742C190.152,251.422,187.411,236.348,193.330,231.664C199.125,227.078,209.517,233.351,214.757,243.815Z"/>
</g>
<g id="left_arm">
<path class="path-0" d="M310.663,464.048C307.272,458.764,305.836,449.797,313.459,447.379C318.763,445.651,342.778,450.690,346.818,454.634C353.879,460.873,350.061,475.557,341.450,478.987C331.509,482.431,316.085,472.302,310.663,464.048M290.242,283.818C290.766,280.545,298.080,269.521,303.205,270.086C306.181,270.415,308.120,275.237,309.402,277.775C312.953,285.752,316.650,294.020,319.798,302.407C328.392,324.659,335.098,347.114,340.820,369.862C342.885,379.097,342.739,391.465,346.166,399.743C350.272,409.343,356.553,405.942,359.622,412.227C360.989,415.205,360.391,420.869,362.442,425.502C365.523,432.786,371.225,436.711,373.941,441.336C375.638,443.977,376.338,446.963,372.687,447.674C370.703,448.695,365.368,447.761,363.372,447.784C356.694,446.092,350.020,444.396,343.349,442.698C334.343,440.808,307.047,439.801,302.319,433.868C295.222,424.638,306.066,413.529,307.291,404.198C307.915,401.228,310.848,357.658,310.041,354.789C308.942,348.127,304.541,342.698,302.265,335.975C299.622,326.737,296.884,316.856,294.474,307.189C292.624,299.104,288.417,292.714,290.242,283.818M313.729,259.228C310.908,254.850,302.726,247.380,296.918,249.354C292.102,251.221,292.093,257.246,291.865,261.288C291.299,271.390,290.221,279.876,291.271,289.466C291.700,296.448,293.065,302.656,294.436,309.200C296.039,318.104,296.196,335.583,297.314,345.839C298.054,355.389,300.795,365.188,300.392,373.463C299.031,392.898,290.448,411.331,291.341,430.704C291.461,440.491,294.110,440.447,296.501,448.246C298.245,454.211,296.981,460.551,299.375,466.178C305.541,481.077,323.003,494.510,339.929,490.983C355.529,487.804,355.994,470.829,364.202,461.748C371.427,453.677,386.112,457.495,388.009,449.154C389.922,442.144,380.184,434.608,376.462,429.328C369.024,419.435,374.651,417.039,370.902,409.431C368.174,403.808,360.461,398.909,356.716,391.633C354.680,388.329,353.626,382.015,352.225,377.712C349.295,367.398,346.363,355.643,343.931,344.727C341.426,332.286,339.339,321.292,334.557,308.822C330.756,298.529,319.266,266.988,313.729,259.228Z"/>
<path class="path-1" d="M303.205,270.086C306.181,270.415,308.120,275.237,309.402,277.775"/>
<path class="path-1" d="M309.402,277.775C312.953,285.752,316.650,294.020,319.798,302.407"/>
<path class="path-1" d="M319.798,302.407C328.392,324.659,335.098,347.114,340.820,369.862"/>
<path class="path-1" d="M340.820,369.862C342.885,379.097,342.739,391.465,346.166,399.743"/>
<path class="path-1" d="M346.166,399.743C350.272,409.343,356.553,405.942,359.622,412.227"/>
<path class="path-1" d="M359.622,412.227C360.989,415.205,360.391,420.869,362.442,425.502"/>
<path class="path-1" d="M362.442,425.502C365.523,432.786,371.225,436.711,373.941,441.336"/>
<path class="path-1" d="M373.941,441.336C375.638,443.977,376.338,446.963,372.687,447.674"/>
<path class="path-1" d="M372.687,447.674C370.703,448.695,365.368,447.761,363.372,447.784"/>
<path class="path-1" d="M363.372,447.784C356.694,446.092,350.020,444.396,343.349,442.698"/>
<path class="path-1" d="M343.349,442.698C334.343,440.808,307.047,439.801,302.319,433.868"/>
<path class="path-1" d="M302.319,433.868C295.222,424.638,306.066,413.529,307.291,404.198"/>
<path class="path-1" d="M307.291,404.198C307.915,401.228,310.848,357.658,310.041,354.789"/>
<path class="path-1" d="M310.041,354.789C308.942,348.127,304.541,342.698,302.265,335.975"/>
<path class="path-1" d="M302.265,335.975C299.622,326.737,296.884,316.856,294.474,307.189"/>
<path class="path-1" d="M294.474,307.189C292.624,299.104,288.417,292.714,290.242,283.818"/>
<path class="path-1" d="M290.242,283.818C290.766,280.545,298.080,269.521,303.205,270.086"/>
<path class="path-2" d="M303.205,270.086C306.181,270.415,308.120,275.237,309.402,277.775C312.953,285.752,316.650,294.020,319.798,302.407C328.392,324.659,335.098,347.114,340.820,369.862C342.885,379.097,342.739,391.465,346.166,399.743C350.272,409.343,356.553,405.942,359.622,412.227C360.989,415.205,360.391,420.869,362.442,425.502C365.523,432.786,371.225,436.711,373.941,441.336C375.638,443.977,376.338,446.963,372.687,447.674C370.703,448.695,365.368,447.761,363.372,447.784C356.694,446.092,350.020,444.396,343.349,442.698C334.343,440.808,307.047,439.801,302.319,433.868C295.222,424.638,306.066,413.529,307.291,404.198C307.915,401.228,310.848,357.658,310.041,354.789C308.942,348.127,304.541,342.698,302.265,335.975C299.622,326.737,296.884,316.856,294.474,307.189C292.624,299.104,288.417,292.714,290.242,283.818C290.766,280.545,298.080,269.521,303.205,270.086Z"/>
<path class="path-15" d="M313.459,447.379C318.763,445.651,342.778,450.690,346.818,454.634"/>
<path class="path-15" d="M346.818,454.634C353.879,460.873,350.061,475.557,341.450,478.987"/>
<path class="path-15" d="M341.450,478.987C331.509,482.431,316.085,472.302,310.663,464.048"/>
<path class="path-15" d="M310.663,464.048C307.272,458.764,305.836,449.797,313.459,447.379"/>
<path class="path-16" d="M313.459,447.379C318.763,445.651,342.778,450.690,346.818,454.634C353.879,460.873,350.061,475.557,341.450,478.987C331.509,482.431,316.085,472.302,310.663,464.048C307.272,458.764,305.836,449.797,313.459,447.379Z"/>
</g>
<g id="bone">
<g id="bone_B20">
<path class="path-23" d="M245.462,136.202C244.779,124.245,244.096,112.287,243.412,100.329"/>
</g>
<g id="bone_">
<path class="path-23" d="M552.381,338.786C576.363,338.786,600.344,338.786,624.326,338.786"/>
</g>
<g id="bone_">
<path class="path-23" d="M496.479,337.308C479.494,320.905,462.510,304.502,445.525,288.099"/>
</g>
<g id="bone_">
<path class="path-23" d="M436.410,337.308C437.696,313.731,438.981,290.154,440.267,266.577"/>
</g>
<g id="bone_">
<path class="path-23" d="M604.616,215.385C584.493,227.738,564.370,240.092,544.248,252.445"/>
</g>
<g id="bone_">
<path class="path-23" d="M436.410,216.411C460.006,217.281,483.602,218.152,507.198,219.022"/>
</g>
<g id="bone_">
<path class="path-23" d="M551.282,215.385C551.282,191.773,551.282,168.161,551.282,144.549"/>
</g>
<g id="bone_">
<path class="path-23" d="M495.897,216.411C472.485,219.476,449.073,222.542,425.661,225.608"/>
</g>
<g id="bone_B18">
<path class="path-23" d="M213.486,389.584C211.380,421.451,209.275,453.317,207.169,485.184"/>
</g>
<g id="bone_B17">
<path class="path-23" d="M259.640,389.584C272.991,421.592,286.341,453.601,299.692,485.609"/>
</g>
<g id="bone_B16">
<path class="path-23" d="M246.925,161.782C253.785,185.780,260.646,209.779,267.507,233.777"/>
</g>
<g id="bone_B14">
<path class="path-23" d="M151.329,380.496C159.209,397.935,167.088,415.374,174.968,432.812"/>
</g>
<g id="bone_B13">
<path class="path-23" d="M185.947,272.196C174.408,308.296,162.868,344.396,151.329,380.496"/>
</g>
<g id="bone_B11">
<path class="path-23" d="M324.593,352.784C327.246,374.634,329.899,396.485,332.552,418.335"/>
</g>
<g id="bone_B9">
<path class="path-23" d="M299.361,263.719C307.772,293.407,316.182,323.096,324.593,352.784"/>
</g>
<g id="bone_B5">
<path class="path-23" d="M250.032,216.165C248.509,189.511,246.986,162.857,245.462,136.202"/>
</g>
<g id="bone_B4">
<path class="path-23" d="M243.187,257.706C245.469,243.859,247.751,230.012,250.032,216.165"/>
</g>
<g id="bone_B3">
<path class="path-23" d="M244.525,330.695C244.079,306.365,243.633,282.035,243.187,257.706"/>
</g>
<g id="bone_B2">
<path class="path-23" d="M236.050,389.584C238.875,369.954,241.700,350.324,244.525,330.695"/>
</g>
<g id="bone_B1">
<path class="path-23" d="M236.050,389.584C248.027,389.584,260.004,389.584,271.981,389.584"/>
</g>
</g>
</g>
<style>
.path-0{fill:#000000;fill-rule:evenodd;stroke:none;}
.path-1{fill:none;stroke:#a60d3f;stroke-width:1;stroke-linecap:butt;stroke-linejoin:round;}
.path-2{fill:#a60d3f;fill-rule:evenodd;stroke:none;}
.path-3{fill:none;stroke:#d88e4b;stroke-width:1;stroke-linecap:butt;stroke-linejoin:round;}
.path-4{fill:#d88e4b;fill-rule:evenodd;stroke:none;}
.path-5{fill:none;stroke:#6e2353;stroke-width:1;stroke-linecap:butt;stroke-linejoin:round;}
.path-6{fill:#6e2353;fill-rule:evenodd;stroke:none;}
.path-7{fill:none;stroke:#392966;stroke-width:1;stroke-linecap:butt;stroke-linejoin:round;}
.path-8{fill:#392966;fill-rule:evenodd;stroke:none;}
.path-9{fill:none;stroke:#cc9bc5;stroke-width:1;stroke-linecap:butt;stroke-linejoin:round;}
.path-10{fill:#cc9bc5;fill-rule:evenodd;stroke:none;}
.path-11{fill:none;stroke:#620527;stroke-width:1;stroke-linecap:butt;stroke-linejoin:round;}
.path-12{fill:#620527;fill-rule:evenodd;stroke:none;}
.path-13{fill:none;stroke:#6a3661;stroke-width:1;stroke-linecap:butt;stroke-linejoin:round;}
.path-14{fill:#6a3661;fill-rule:evenodd;stroke:none;}
.path-15{fill:none;stroke:#f8a087;stroke-width:1;stroke-linecap:butt;stroke-linejoin:round;}
.path-16{fill:#f8a087;fill-rule:evenodd;stroke:none;}
.path-17{fill:none;stroke:#ffffff;stroke-width:1;stroke-linecap:butt;stroke-linejoin:round;}
.path-18{fill:#ffffff;fill-rule:evenodd;stroke:none;}
.path-19{fill:none;stroke:#d89f4a;stroke-width:1;stroke-linecap:butt;stroke-linejoin:round;}
.path-20{fill:#d89f4a;fill-rule:evenodd;stroke:none;}
.path-21{fill:none;stroke:#fafd5b;stroke-width:1;stroke-linecap:butt;stroke-linejoin:round;}
.path-22{fill:#fafd5b;fill-rule:evenodd;stroke:none;}
.path-23{fill:none;stroke:#00ff00;stroke-width:8;stroke-linecap:round;stroke-linejoin:round;}
.path-24{fill:none;stroke:#fafafa;stroke-width:1;stroke-linecap:butt;stroke-linejoin:round;}
.path-25{fill:#fafafa;fill-rule:evenodd;stroke:none;}
.path-26{fill:none;stroke:#ececec;stroke-width:1;stroke-linecap:butt;stroke-linejoin:round;}
.path-27{fill:#ececec;fill-rule:evenodd;stroke:none;}
.path-28{fill:none;stroke:#d7d7d7;stroke-width:1;stroke-linecap:butt;stroke-linejoin:round;}
.path-29{fill:#d7d7d7;fill-rule:evenodd;stroke:none;}
.path-30{fill:none;stroke:#bdbdbd;stroke-width:1;stroke-linecap:butt;stroke-linejoin:round;}
.path-31{fill:#bdbdbd;fill-rule:evenodd;stroke:none;}
.path-32{fill:none;stroke:#9f9f9f;stroke-width:1;stroke-linecap:butt;stroke-linejoin:round;}
.path-33{fill:#9f9f9f;fill-rule:evenodd;stroke:none;}
.path-34{fill:none;stroke:#808080;stroke-width:1;stroke-linecap:butt;stroke-linejoin:round;}
.path-35{fill:#808080;fill-rule:evenodd;stroke:none;}
.path-36{fill:none;stroke:#606060;stroke-width:1;stroke-linecap:butt;stroke-linejoin:round;}
.path-37{fill:#606060;fill-rule:evenodd;stroke:none;}
.path-38{fill:none;stroke:#424242;stroke-width:1;stroke-linecap:butt;stroke-linejoin:round;}
.path-39{fill:#424242;fill-rule:evenodd;stroke:none;}
.path-40{fill:none;stroke:#282828;stroke-width:1;stroke-linecap:butt;stroke-linejoin:round;}
.path-41{fill:#282828;fill-rule:evenodd;stroke:none;}
.path-42{fill:none;stroke:#131313;stroke-width:1;stroke-linecap:butt;stroke-linejoin:round;}
.path-43{fill:#131313;fill-rule:evenodd;stroke:none;}
.path-44{fill:none;stroke:#050505;stroke-width:1;stroke-linecap:butt;stroke-linejoin:round;}
.path-45{fill:#050505;fill-rule:evenodd;stroke:none;}
.path-46{fill:none;stroke:#000000;stroke-width:1;stroke-linecap:butt;stroke-linejoin:round;}
</style>
</svg>
