<svg version="1.1" id="Frame_220" xmlns="http://www.w3.org/2000/svg" xmlns:xlink="http://www.w3.org/1999/xlink" width="480px" height="720px">
<g id="main_bone">
<g id="right_arm">
<path class="path-0" d="M188.279,270.281C189.919,267.739,193.141,262.484,197.032,261.326C203.584,259.376,208.562,265.608,208.897,270.190C209.791,278.218,203.134,288.415,199.896,295.987C191.969,314.215,183.515,332.214,178.032,350.773C177.327,354.027,172.024,375.120,172.097,372.471C171.585,379.086,178.062,384.895,180.248,390.581C183.039,398.247,180.099,405.404,178.126,412.344C173.596,426.654,173.974,431.952,174.138,445.946C174.267,448.163,174.617,455.384,171.143,455.758C167.729,456.126,166.764,449.975,165.878,447.636C165.320,444.999,162.552,439.482,163.101,437.112C163.226,433.140,167.785,434.102,162.761,425.896C156.345,415.634,145.060,406.955,142.361,393.578C140.609,382.927,146.383,373.738,149.774,363.923C156.993,342.834,164.977,321.774,174.193,301.144C179.200,290.450,181.686,281.063,188.279,270.281M208.889,263.908C209.717,255.405,207.334,247.733,196.522,250.327C179.115,254.439,171.228,280.233,165.213,294.668C156.775,314.164,149.696,333.910,143.092,353.788C140.384,362.304,137.101,366.575,135.641,371.517C133.836,377.107,133.926,385.736,134.130,391.378C133.730,409.030,139.049,410.008,146.185,423.594C149.968,431.625,146.236,436.745,148.933,443.682C150.909,448.454,154.915,451.726,158.044,455.640C160.817,459.569,161.549,461.857,163.644,465.476C166.183,469.801,173.726,479.521,179.398,476.749C183.644,474.656,182.691,466.752,182.633,462.917C182.386,457.158,183.905,434.841,184.942,428.085C186.829,416.883,192.909,404.937,191.482,392.801C190.323,383.522,182.242,376.698,182.866,366.795C183.351,361.520,186.873,353.029,188.163,347.140C190.279,337.729,190.934,327.572,193.771,317.953C198.618,300.838,207.790,282.027,208.889,263.908Z"/>
<path class="path-1" d="M197.032,261.326C203.584,259.376,208.562,265.608,208.897,270.190"/>
<path class="path-1" d="M208.897,270.190C209.791,278.218,203.134,288.415,199.896,295.987"/>
<path class="path-1" d="M199.896,295.987C191.969,314.215,183.515,332.214,178.032,350.773"/>
<path class="path-1" d="M178.032,350.773C177.327,354.027,172.024,375.120,172.097,372.471"/>
<path class="path-1" d="M172.097,372.471C171.585,379.086,178.062,384.895,180.248,390.581"/>
<path class="path-1" d="M180.248,390.581C183.039,398.247,180.099,405.404,178.126,412.344"/>
<path class="path-1" d="M178.126,412.344C173.596,426.654,173.974,431.952,174.138,445.946"/>
<path class="path-1" d="M174.138,445.946C174.267,448.163,174.617,455.384,171.143,455.758"/>
<path class="path-1" d="M171.143,455.758C167.729,456.126,166.764,449.975,165.878,447.636"/>
<path class="path-1" d="M165.878,447.636C165.320,444.999,162.552,439.482,163.101,437.112"/>
<path class="path-1" d="M163.101,437.112C163.226,433.140,167.785,434.102,162.761,425.896"/>
<path class="path-1" d="M162.761,425.896C156.345,415.634,145.060,406.955,142.361,393.578"/>
<path class="path-1" d="M142.361,393.578C140.609,382.927,146.383,373.738,149.774,363.923"/>
<path class="path-1" d="M149.774,363.923C156.993,342.834,164.977,321.774,174.193,301.144"/>
<path class="path-1" d="M174.193,301.144C179.200,290.450,181.686,281.063,188.279,270.281"/>
<path class="path-1" d="M188.279,270.281C189.919,267.739,193.141,262.484,197.032,261.326"/>
<path class="path-2" d="M197.032,261.326C203.584,259.376,208.562,265.608,208.897,270.190C209.791,278.218,203.134,288.415,199.896,295.987C191.969,314.215,183.515,332.214,178.032,350.773C177.327,354.027,172.024,375.120,172.097,372.471C171.585,379.086,178.062,384.895,180.248,390.581C183.039,398.247,180.099,405.404,178.126,412.344C173.596,426.654,173.974,431.952,174.138,445.946C174.267,448.163,174.617,455.384,171.143,455.758C167.729,456.126,166.764,449.975,165.878,447.636C165.320,444.999,162.552,439.482,163.101,437.112C163.226,433.140,167.785,434.102,162.761,425.896C156.345,415.634,145.060,406.955,142.361,393.578C140.609,382.927,146.383,373.738,149.774,363.923C156.993,342.834,164.977,321.774,174.193,301.144C179.200,290.450,181.686,281.063,188.279,270.281C189.919,267.739,193.141,262.484,197.032,261.326Z"/>
</g>
<g id="layer_left_leg">
<g id="left_heel">
<path class="path-0" d="M330.039,629.796C319.991,620.336,328.006,597.623,338.259,592.307C353.939,583.964,373.599,605.875,373.271,612.589C372.452,622.821,356.768,627.600,348.524,630.000C344.037,631.144,333.278,632.974,330.039,629.796M365.067,583.575C352.908,576.735,331.782,584.610,323.021,593.648C304.267,612.251,311.312,655.043,343.863,644.647C355.038,641.139,379.223,631.837,383.855,622.812C388.116,615.642,383.606,606.918,379.707,600.043C376.169,594.572,370.822,586.921,365.067,583.575Z"/>
<path class="path-3" d="M338.259,592.307C353.939,583.964,373.599,605.875,373.271,612.589"/>
<path class="path-3" d="M373.271,612.589C372.452,622.821,356.768,627.600,348.524,630.000"/>
<path class="path-3" d="M348.524,630.000C344.037,631.144,333.278,632.974,330.039,629.796"/>
<path class="path-3" d="M330.039,629.796C319.991,620.336,328.006,597.623,338.259,592.307"/>
<path class="path-4" d="M338.259,592.307C353.939,583.964,373.599,605.875,373.271,612.589C372.452,622.821,356.768,627.600,348.524,630.000C344.037,631.144,333.278,632.974,330.039,629.796C319.991,620.336,328.006,597.623,338.259,592.307Z"/>
</g>
<g id="left_leg">
<path class="path-0" d="M251.280,415.827C251.622,410.818,261.777,411.792,265.451,410.544C271.074,408.941,283.163,403.356,288.758,405.581C298.828,409.200,309.185,437.428,312.464,447.333C321.721,478.167,331.821,506.668,341.061,536.352C342.884,542.727,344.723,549.320,346.584,555.549C348.292,560.518,348.537,567.504,352.746,570.030C354.565,571.605,358.644,568.948,359.364,571.071C361.628,579.374,352.631,576.967,349.793,582.303C344.492,591.572,332.763,602.095,323.131,602.133C316.563,602.383,304.137,598.008,300.116,592.765C296.286,587.770,292.860,581.371,290.200,575.786C277.967,550.106,277.116,489.724,262.319,461.361C253.261,444.000,261.209,440.574,264.737,425.916C265.320,423.493,254.552,429.085,252.428,427.720C249.630,426.222,250.902,418.922,251.280,415.827M293.209,394.895C285.824,391.913,269.652,398.655,262.735,401.053C258.934,402.355,245.988,402.826,243.657,405.427C229.599,421.115,247.488,458.362,254.188,474.518C255.770,479.163,261.224,501.930,262.718,508.361C270.643,535.318,271.339,560.074,280.694,586.571C283.183,593.919,284.861,601.413,289.405,607.552C301.495,623.646,318.823,622.098,340.198,614.657C351.414,610.764,375.048,598.417,377.036,574.169C377.824,564.507,369.131,554.199,367.015,551.680C363.541,547.542,359.067,543.824,356.322,538.710C346.966,522.612,348.046,502.377,341.644,484.764C333.482,462.243,316.344,404.296,293.209,394.895Z"/>
<path class="path-7" d="M265.451,410.544C271.074,408.941,283.163,403.356,288.758,405.581"/>
<path class="path-7" d="M288.758,405.581C298.828,409.200,309.185,437.428,312.464,447.333"/>
<path class="path-7" d="M312.464,447.333C321.721,478.167,331.821,506.668,341.061,536.352"/>
<path class="path-7" d="M341.061,536.352C342.884,542.727,344.723,549.320,346.584,555.549"/>
<path class="path-7" d="M346.584,555.549C348.292,560.518,348.537,567.504,352.746,570.030"/>
<path class="path-7" d="M352.746,570.030C354.565,571.605,358.644,568.948,359.364,571.071"/>
<path class="path-7" d="M359.364,571.071C361.628,579.374,352.631,576.967,349.793,582.303"/>
<path class="path-7" d="M349.793,582.303C344.492,591.572,332.763,602.095,323.131,602.133"/>
<path class="path-7" d="M323.131,602.133C316.563,602.383,304.137,598.008,300.116,592.765"/>
<path class="path-7" d="M300.116,592.765C296.286,587.770,292.860,581.371,290.200,575.786"/>
<path class="path-7" d="M290.200,575.786C277.967,550.106,277.116,489.724,262.319,461.361"/>
<path class="path-7" d="M262.319,461.361C253.261,444.000,261.209,440.574,264.737,425.916"/>
<path class="path-7" d="M264.737,425.916C265.320,423.493,254.552,429.085,252.428,427.720"/>
<path class="path-7" d="M252.428,427.720C249.630,426.222,250.902,418.922,251.280,415.827"/>
<path class="path-7" d="M251.280,415.827C251.622,410.818,261.777,411.792,265.451,410.544"/>
<path class="path-8" d="M265.451,410.544C271.074,408.941,283.163,403.356,288.758,405.581C298.828,409.200,309.185,437.428,312.464,447.333C321.721,478.167,331.821,506.668,341.061,536.352C342.884,542.727,344.723,549.320,346.584,555.549C348.292,560.518,348.537,567.504,352.746,570.030C354.565,571.605,358.644,568.948,359.364,571.071C361.628,579.374,352.631,576.967,349.793,582.303C344.492,591.572,332.763,602.095,323.131,602.133C316.563,602.383,304.137,598.008,300.116,592.765C296.286,587.770,292.860,581.371,290.200,575.786C277.967,550.106,277.116,489.724,262.319,461.361C253.261,444.000,261.209,440.574,264.737,425.916C265.320,423.493,254.552,429.085,252.428,427.720C249.630,426.222,250.902,418.922,251.280,415.827C251.622,410.818,261.777,411.792,265.451,410.544Z"/>
</g>
<g id="left_toe">
<path class="path-0" d="M335.217,660.649C308.117,663.133,303.414,627.537,321.003,615.228C339.128,602.710,361.093,609.211,370.453,620.166C375.874,625.749,379.523,632.421,378.046,640.225C374.138,654.391,348.124,659.381,335.217,660.649M384.346,610.897C377.312,598.129,362.663,588.691,350.621,588.064C321.122,586.646,299.804,600.988,298.097,628.286C296.588,644.075,304.262,659.274,317.002,668.655C326.908,675.487,352.722,669.540,363.295,665.484C372.441,661.215,383.658,655.206,387.895,645.035C391.001,637.879,388.019,617.673,384.346,610.897Z"/>
<path class="path-3" d="M321.003,615.228C339.128,602.710,361.093,609.211,370.453,620.166"/>
<path class="path-3" d="M370.453,620.166C375.874,625.749,379.523,632.421,378.046,640.225"/>
<path class="path-3" d="M378.046,640.225C374.138,654.391,348.124,659.381,335.217,660.649"/>
<path class="path-3" d="M335.217,660.649C308.117,663.133,303.414,627.537,321.003,615.228"/>
<path class="path-4" d="M321.003,615.228C339.128,602.710,361.093,609.211,370.453,620.166C375.874,625.749,379.523,632.421,378.046,640.225C374.138,654.391,348.124,659.381,335.217,660.649C308.117,663.133,303.414,627.537,321.003,615.228Z"/>
</g>
<g id="left_sole">
<path class="path-0" d="M343.058,674.349C332.406,677.016,325.347,664.026,325.327,669.556C325.314,673.076,334.987,673.631,339.253,673.656C348.752,674.061,363.034,668.563,370.421,661.870C372.929,659.946,381.186,654.599,381.287,654.836C382.928,658.673,372.304,662.246,368.858,663.691C365.795,665.356,343.874,673.932,343.058,674.349M325.726,669.719C330.379,666.357,342.097,667.597,346.409,667.625C363.497,667.738,370.404,656.052,377.990,653.197C378.699,652.939,380.512,650.551,381.691,652.426C385.777,658.923,356.871,673.117,341.780,672.485C334.574,672.869,324.000,670.965,325.726,669.719M384.149,643.957C380.301,642.167,365.629,654.509,349.253,659.478C341.159,661.963,317.525,655.941,314.769,666.967C314.188,669.314,316.977,676.432,319.076,677.519C333.138,685.089,383.288,667.083,387.863,660.477C389.384,658.281,389.310,646.358,384.149,643.957Z"/>
<path class="path-5" d="M325.327,669.556C325.314,673.076,334.987,673.631,339.253,673.656"/>
<path class="path-5" d="M339.253,673.656C348.752,674.061,363.034,668.563,370.421,661.870"/>
<path class="path-5" d="M370.421,661.870C372.929,659.946,381.186,654.599,381.287,654.836"/>
<path class="path-5" d="M381.287,654.836C382.928,658.673,372.304,662.246,368.858,663.691"/>
<path class="path-5" d="M368.858,663.691C365.795,665.356,343.874,673.932,343.058,674.349"/>
<path class="path-5" d="M343.058,674.349C332.406,677.016,325.347,664.026,325.327,669.556"/>
<path class="path-6" d="M325.327,669.556C325.314,673.076,334.987,673.631,339.253,673.656C348.752,674.061,363.034,668.563,370.421,661.870C372.929,659.946,381.186,654.599,381.287,654.836C382.928,658.673,372.304,662.246,368.858,663.691C365.795,665.356,343.874,673.932,343.058,674.349C332.406,677.016,325.347,664.026,325.327,669.556Z"/>
<path class="path-5" d="M346.409,667.625C363.497,667.738,370.404,656.052,377.990,653.197"/>
<path class="path-5" d="M377.990,653.197C378.699,652.939,380.512,650.551,381.691,652.426"/>
<path class="path-5" d="M381.691,652.426C385.777,658.923,356.871,673.117,341.780,672.485"/>
<path class="path-5" d="M341.780,672.485C334.574,672.869,324.000,670.965,325.726,669.719"/>
<path class="path-5" d="M325.726,669.719C330.379,666.357,342.097,667.597,346.409,667.625"/>
<path class="path-6" d="M346.409,667.625C363.497,667.738,370.404,656.052,377.990,653.197C378.699,652.939,380.512,650.551,381.691,652.426C385.777,658.923,356.871,673.117,341.780,672.485C334.574,672.869,324.000,670.965,325.726,669.719C330.379,666.357,342.097,667.597,346.409,667.625Z"/>
</g>
</g>
<g id="layer_right_leg">
<g id="right_heel">
<path class="path-0" d="M188.862,622.963C189.772,606.705,190.920,594.068,210.997,591.301C219.929,589.908,236.929,592.804,241.821,601.369C244.399,605.632,243.581,611.866,243.820,616.408C244.275,623.815,248.842,638.116,238.289,639.814C237.610,639.991,218.902,640.258,213.062,640.392C205.648,641.245,197.924,641.784,192.567,636.684C189.782,633.449,188.570,626.807,188.862,622.963M251.363,599.711C247.457,589.377,233.160,583.436,223.061,584.834C209.866,586.500,196.372,582.146,187.762,594.316C181.030,603.829,180.251,621.369,182.249,632.508C182.996,637.632,186.241,646.990,190.538,649.846C193.689,651.844,198.564,651.297,202.293,651.317C220.434,651.699,252.791,657.896,252.468,631.127C252.309,624.169,253.425,605.226,251.363,599.711Z"/>
<path class="path-3" d="M210.997,591.301C219.929,589.908,236.929,592.804,241.821,601.369"/>
<path class="path-3" d="M241.821,601.369C244.399,605.632,243.581,611.866,243.820,616.408"/>
<path class="path-3" d="M243.820,616.408C244.275,623.815,248.842,638.116,238.289,639.814"/>
<path class="path-3" d="M238.289,639.814C237.610,639.991,218.902,640.258,213.062,640.392"/>
<path class="path-3" d="M213.062,640.392C205.648,641.245,197.924,641.784,192.567,636.684"/>
<path class="path-3" d="M192.567,636.684C189.782,633.449,188.570,626.807,188.862,622.963"/>
<path class="path-3" d="M188.862,622.963C189.772,606.705,190.920,594.068,210.997,591.301"/>
<path class="path-4" d="M210.997,591.301C219.929,589.908,236.929,592.804,241.821,601.369C244.399,605.632,243.581,611.866,243.820,616.408C244.275,623.815,248.842,638.116,238.289,639.814C237.610,639.991,218.902,640.258,213.062,640.392C205.648,641.245,197.924,641.784,192.567,636.684C189.782,633.449,188.570,626.807,188.862,622.963C189.772,606.705,190.920,594.068,210.997,591.301Z"/>
</g>
<g id="right_leg">
<path class="path-0" d="M188.905,408.295C192.615,396.543,208.329,393.794,218.869,396.745C224.700,398.252,234.476,401.119,237.630,406.594C238.931,408.854,239.427,413.042,238.040,415.243C235.532,419.222,220.534,416.092,223.038,420.181C227.440,427.630,237.931,418.505,242.149,422.412C244.009,424.134,244.174,427.579,244.541,430.465C248.485,452.321,241.384,475.539,241.237,497.066C241.119,504.041,239.531,514.320,240.730,520.679C243.119,536.202,241.100,539.454,241.404,548.766C241.297,552.248,239.398,569.892,240.546,574.431C241.873,579.274,245.428,583.923,245.830,588.948C246.503,597.368,233.629,608.027,225.925,610.106C217.043,612.316,189.927,610.036,181.733,605.435C178.641,603.814,174.855,599.975,173.672,596.457C172.343,593.112,171.117,577.492,172.266,573.767C174.521,567.330,177.099,566.066,179.340,558.403C181.658,549.343,183.824,539.516,183.526,529.948C182.577,511.574,183.931,481.906,186.265,468.703C187.380,461.329,185.925,436.435,187.033,429.608C188.996,418.174,187.038,415.939,188.905,408.295M214.167,385.096C208.516,383.096,204.187,377.777,198.208,379.759C196.368,380.543,193.150,382.797,191.843,384.103C175.846,397.649,177.045,411.330,176.970,430.695C176.651,437.624,176.718,444.838,175.988,451.463C175.268,456.971,173.318,461.449,171.906,466.480C171.031,470.627,170.293,475.075,169.998,480.307C169.839,485.355,171.094,491.304,171.101,499.882C170.402,509.585,171.012,518.764,170.469,528.047C170.309,534.506,166.982,549.418,166.048,554.323C163.731,561.199,160.565,569.185,158.868,575.826C157.146,584.668,158.232,594.097,161.610,601.970C163.137,606.125,165.979,611.096,169.132,613.849C171.188,615.644,173.969,616.649,176.436,617.493C184.785,620.299,192.693,621.690,201.580,621.983C207.505,622.223,213.363,620.504,219.498,621.137C220.518,621.088,228.706,623.227,230.344,623.390C233.332,623.517,237.561,620.897,240.299,619.341C244.002,616.965,250.598,616.399,253.499,612.949C255.768,610.247,256.194,606.439,257.328,603.105C263.736,583.360,258.669,572.595,256.291,554.611C254.964,544.574,252.654,523.938,252.824,512.734C252.749,499.164,255.348,486.047,256.190,472.085C256.542,467.728,256.959,462.502,257.757,457.583C258.473,452.605,257.472,448.555,257.298,443.604C256.934,439.783,257.254,427.548,256.679,423.445C256.313,419.786,256.361,415.220,255.036,411.597C251.393,402.369,237.440,392.109,228.130,389.106C223.477,387.439,218.488,387.089,214.167,385.096Z"/>
<path class="path-7" d="M218.869,396.745C224.700,398.252,234.476,401.119,237.630,406.594"/>
<path class="path-7" d="M237.630,406.594C238.931,408.854,239.427,413.042,238.040,415.243"/>
<path class="path-7" d="M238.040,415.243C235.532,419.222,220.534,416.092,223.038,420.181"/>
<path class="path-7" d="M223.038,420.181C227.440,427.630,237.931,418.505,242.149,422.412"/>
<path class="path-7" d="M242.149,422.412C244.009,424.134,244.174,427.579,244.541,430.465"/>
<path class="path-7" d="M244.541,430.465C248.485,452.321,241.384,475.539,241.237,497.066"/>
<path class="path-7" d="M241.237,497.066C241.119,504.041,239.531,514.320,240.730,520.679"/>
<path class="path-7" d="M240.730,520.679C243.119,536.202,241.100,539.454,241.404,548.766"/>
<path class="path-7" d="M241.404,548.766C241.297,552.248,239.398,569.892,240.546,574.431"/>
<path class="path-7" d="M240.546,574.431C241.873,579.274,245.428,583.923,245.830,588.948"/>
<path class="path-7" d="M245.830,588.948C246.503,597.368,233.629,608.027,225.925,610.106"/>
<path class="path-7" d="M225.925,610.106C217.043,612.316,189.927,610.036,181.733,605.435"/>
<path class="path-7" d="M181.733,605.435C178.641,603.814,174.855,599.975,173.672,596.457"/>
<path class="path-7" d="M173.672,596.457C172.343,593.112,171.117,577.492,172.266,573.767"/>
<path class="path-7" d="M172.266,573.767C174.521,567.330,177.099,566.066,179.340,558.403"/>
<path class="path-7" d="M179.340,558.403C181.658,549.343,183.824,539.516,183.526,529.948"/>
<path class="path-7" d="M183.526,529.948C182.577,511.574,183.931,481.906,186.265,468.703"/>
<path class="path-7" d="M186.265,468.703C187.380,461.329,185.925,436.435,187.033,429.608"/>
<path class="path-7" d="M187.033,429.608C188.996,418.174,187.038,415.939,188.905,408.295"/>
<path class="path-7" d="M188.905,408.295C192.615,396.543,208.329,393.794,218.869,396.745"/>
<path class="path-8" d="M218.869,396.745C224.700,398.252,234.476,401.119,237.630,406.594C238.931,408.854,239.427,413.042,238.040,415.243C235.532,419.222,220.534,416.092,223.038,420.181C227.440,427.630,237.931,418.505,242.149,422.412C244.009,424.134,244.174,427.579,244.541,430.465C248.485,452.321,241.384,475.539,241.237,497.066C241.119,504.041,239.531,514.320,240.730,520.679C243.119,536.202,241.100,539.454,241.404,548.766C241.297,552.248,239.398,569.892,240.546,574.431C241.873,579.274,245.428,583.923,245.830,588.948C246.503,597.368,233.629,608.027,225.925,610.106C217.043,612.316,189.927,610.036,181.733,605.435C178.641,603.814,174.855,599.975,173.672,596.457C172.343,593.112,171.117,577.492,172.266,573.767C174.521,567.330,177.099,566.066,179.340,558.403C181.658,549.343,183.824,539.516,183.526,529.948C182.577,511.574,183.931,481.906,186.265,468.703C187.380,461.329,185.925,436.435,187.033,429.608C188.996,418.174,187.038,415.939,188.905,408.295C192.615,396.543,208.329,393.794,218.869,396.745Z"/>
</g>
<g id="right_toe">
<path class="path-0" d="M171.210,644.268C172.635,630.912,177.997,613.709,194.455,611.472C198.238,610.759,203.559,612.563,207.754,613.437C229.233,617.858,237.547,622.708,238.159,644.573C238.204,650.590,239.101,658.061,234.540,662.863C230.022,667.534,208.779,664.810,202.288,665.060C190.820,665.749,180.932,671.128,173.019,661.201C168.256,655.098,170.456,651.427,171.210,644.268M246.859,621.666C239.795,607.617,206.866,599.086,192.021,601.720C169.860,605.778,162.723,622.985,161.229,641.581C160.646,648.208,159.737,655.485,163.038,661.384C164.224,663.503,166.742,666.349,168.495,668.050C181.631,681.906,191.335,680.217,209.219,680.205C218.677,680.354,234.424,679.679,242.047,673.469C247.792,668.328,248.361,662.674,248.641,655.450C248.660,648.489,249.720,626.835,246.859,621.666Z"/>
<path class="path-3" d="M194.455,611.472C198.238,610.759,203.559,612.563,207.754,613.437"/>
<path class="path-3" d="M207.754,613.437C229.233,617.858,237.547,622.708,238.159,644.573"/>
<path class="path-3" d="M238.159,644.573C238.204,650.590,239.101,658.061,234.540,662.863"/>
<path class="path-3" d="M234.540,662.863C230.022,667.534,208.779,664.810,202.288,665.060"/>
<path class="path-3" d="M202.288,665.060C190.820,665.749,180.932,671.128,173.019,661.201"/>
<path class="path-3" d="M173.019,661.201C168.256,655.098,170.456,651.427,171.210,644.268"/>
<path class="path-3" d="M171.210,644.268C172.635,630.912,177.997,613.709,194.455,611.472"/>
<path class="path-4" d="M194.455,611.472C198.238,610.759,203.559,612.563,207.754,613.437C229.233,617.858,237.547,622.708,238.159,644.573C238.204,650.590,239.101,658.061,234.540,662.863C230.022,667.534,208.779,664.810,202.288,665.060C190.820,665.749,180.932,671.128,173.019,661.201C168.256,655.098,170.456,651.427,171.210,644.268C172.635,630.912,177.997,613.709,194.455,611.472Z"/>
</g>
<g id="right_sole">
<path class="path-0" d="M189.890,676.754C191.433,677.102,206.914,676.863,208.678,676.870C210.083,676.897,218.522,677.089,219.722,677.022C220.473,676.996,227.969,676.689,228.541,677.143C227.993,676.706,219.975,678.104,219.503,678.117C218.564,678.175,192.181,677.897,191.869,678.004C190.682,678.027,179.402,677.080,178.671,676.091C179.938,675.661,188.095,676.346,189.890,676.754M229.874,671.439C229.929,671.718,228.299,673.441,227.873,673.444C227.029,673.453,213.607,674.870,212.495,674.622C211.231,674.565,202.303,675.064,201.163,675.047C198.926,675.013,180.890,674.503,178.969,673.388C178.724,673.183,177.911,671.897,177.953,671.723C178.021,671.444,185.156,671.575,186.255,671.535C187.977,671.473,202.062,671.206,203.830,671.192C205.746,671.177,220.922,671.417,222.885,671.264C223.191,671.248,229.738,670.757,229.874,671.439M235.639,666.207C224.267,662.953,215.328,667.415,204.929,667.704C197.428,667.946,183.038,666.294,173.896,668.012C172.421,668.289,169.603,668.066,169.148,669.570C168.584,671.451,172.231,675.529,174.555,677.058C177.435,678.953,183.449,679.021,185.833,679.392C197.920,681.722,213.320,680.663,225.741,680.184C234.897,679.837,237.186,676.235,238.140,671.893C238.538,670.078,239.210,667.179,235.639,666.207Z"/>
<path class="path-5" d="M189.890,676.754C191.433,677.102,206.914,676.863,208.678,676.870"/>
<path class="path-5" d="M208.678,676.870C210.083,676.897,218.522,677.089,219.722,677.022"/>
<path class="path-5" d="M219.722,677.022C220.473,676.996,227.969,676.689,228.541,677.143"/>
<path class="path-5" d="M228.541,677.143C227.993,676.706,219.975,678.104,219.503,678.117"/>
<path class="path-5" d="M219.503,678.117C218.564,678.175,192.181,677.897,191.869,678.004"/>
<path class="path-5" d="M191.869,678.004C190.682,678.027,179.402,677.080,178.671,676.091"/>
<path class="path-5" d="M178.671,676.091C179.938,675.661,188.095,676.346,189.890,676.754"/>
<path class="path-6" d="M189.890,676.754C191.433,677.102,206.914,676.863,208.678,676.870C210.083,676.897,218.522,677.089,219.722,677.022C220.473,676.996,227.969,676.689,228.541,677.143C227.993,676.706,219.975,678.104,219.503,678.117C218.564,678.175,192.181,677.897,191.869,678.004C190.682,678.027,179.402,677.080,178.671,676.091C179.938,675.661,188.095,676.346,189.890,676.754Z"/>
<path class="path-5" d="M186.255,671.535C187.977,671.473,202.062,671.206,203.830,671.192"/>
<path class="path-5" d="M203.830,671.192C205.746,671.177,220.922,671.417,222.885,671.264"/>
<path class="path-5" d="M222.885,671.264C223.191,671.248,229.738,670.757,229.874,671.439"/>
<path class="path-5" d="M229.874,671.439C229.929,671.718,228.299,673.441,227.873,673.444"/>
<path class="path-5" d="M227.873,673.444C227.029,673.453,213.607,674.870,212.495,674.622"/>
<path class="path-5" d="M212.495,674.622C211.231,674.565,202.303,675.064,201.163,675.047"/>
<path class="path-5" d="M201.163,675.047C198.926,675.013,180.890,674.503,178.969,673.388"/>
<path class="path-5" d="M178.969,673.388C178.724,673.183,177.911,671.897,177.953,671.723"/>
<path class="path-5" d="M177.953,671.723C178.021,671.444,185.156,671.575,186.255,671.535"/>
<path class="path-6" d="M186.255,671.535C187.977,671.473,202.062,671.206,203.830,671.192C205.746,671.177,220.922,671.417,222.885,671.264C223.191,671.248,229.738,670.757,229.874,671.439C229.929,671.718,228.299,673.441,227.873,673.444C227.029,673.453,213.607,674.870,212.495,674.622C211.231,674.565,202.303,675.064,201.163,675.047C198.926,675.013,180.890,674.503,178.969,673.388C178.724,673.183,177.911,671.897,177.953,671.723C178.021,671.444,185.156,671.575,186.255,671.535Z"/>
</g>
</g>
<g id="hat_brim">
<path class="path-0" d="M315.566,146.039C319.715,140.379,330.035,124.888,337.992,125.559C343.297,126.006,353.426,136.544,358.810,140.002C363.531,143.405,368.613,146.504,374.025,149.631C377.086,151.564,380.150,153.492,383.219,155.414C396.861,163.910,392.350,169.875,384.174,167.849C365.889,162.967,362.793,164.043,345.674,153.251C343.437,152.061,337.749,148.244,336.391,152.468C334.647,157.329,343.235,162.394,346.741,164.359C353.063,168.566,360.022,173.159,367.922,174.492C370.216,175.020,378.228,175.025,379.357,177.458C381.067,180.942,370.727,188.751,368.570,190.572C365.003,193.276,361.437,195.981,357.926,198.023C352.674,200.917,347.117,203.454,341.398,203.973C330.679,204.406,298.811,186.361,298.795,174.674C298.691,167.989,311.057,152.003,315.566,146.039M350.290,122.257C345.681,117.527,342.565,110.920,334.991,113.621C329.491,115.495,323.213,122.645,319.232,126.316C304.241,141.745,290.327,160.272,289.173,181.876C288.360,195.496,293.028,195.557,303.521,201.782C319.398,211.468,340.392,215.908,358.993,209.131C371.043,204.804,392.775,188.607,399.086,177.119C401.078,173.280,404.816,164.581,402.886,159.744C400.710,153.884,379.308,142.398,372.986,138.193C365.392,133.212,356.777,128.479,350.290,122.257Z"/>
<path class="path-9" d="M337.992,125.559C343.297,126.006,353.426,136.544,358.810,140.002"/>
<path class="path-9" d="M358.810,140.002C363.531,143.405,368.613,146.504,374.025,149.631"/>
<path class="path-9" d="M374.025,149.631C377.086,151.564,380.150,153.492,383.219,155.414"/>
<path class="path-9" d="M383.219,155.414C396.861,163.910,392.350,169.875,384.174,167.849"/>
<path class="path-9" d="M384.174,167.849C365.889,162.967,362.793,164.043,345.674,153.251"/>
<path class="path-9" d="M345.674,153.251C343.437,152.061,337.749,148.244,336.391,152.468"/>
<path class="path-9" d="M336.391,152.468C334.647,157.329,343.235,162.394,346.741,164.359"/>
<path class="path-9" d="M346.741,164.359C353.063,168.566,360.022,173.159,367.922,174.492"/>
<path class="path-9" d="M367.922,174.492C370.216,175.020,378.228,175.025,379.357,177.458"/>
<path class="path-9" d="M379.357,177.458C381.067,180.942,370.727,188.751,368.570,190.572"/>
<path class="path-9" d="M368.570,190.572C365.003,193.276,361.437,195.981,357.926,198.023"/>
<path class="path-9" d="M357.926,198.023C352.674,200.917,347.117,203.454,341.398,203.973"/>
<path class="path-9" d="M341.398,203.973C330.679,204.406,298.811,186.361,298.795,174.674"/>
<path class="path-9" d="M298.795,174.674C298.691,167.989,311.057,152.003,315.566,146.039"/>
<path class="path-9" d="M315.566,146.039C319.715,140.379,330.035,124.888,337.992,125.559"/>
<path class="path-10" d="M337.992,125.559C343.297,126.006,353.426,136.544,358.810,140.002C363.531,143.405,368.613,146.504,374.025,149.631C377.086,151.564,380.150,153.492,383.219,155.414C396.861,163.910,392.350,169.875,384.174,167.849C365.889,162.967,362.793,164.043,345.674,153.251C343.437,152.061,337.749,148.244,336.391,152.468C334.647,157.329,343.235,162.394,346.741,164.359C353.063,168.566,360.022,173.159,367.922,174.492C370.216,175.020,378.228,175.025,379.357,177.458C381.067,180.942,370.727,188.751,368.570,190.572C365.003,193.276,361.437,195.981,357.926,198.023C352.674,200.917,347.117,203.454,341.398,203.973C330.679,204.406,298.811,186.361,298.795,174.674C298.691,167.989,311.057,152.003,315.566,146.039C319.715,140.379,330.035,124.888,337.992,125.559Z"/>
</g>
<g id="hair">
<path class="path-0" d="M204.553,143.438C221.191,130.379,241.011,127.898,261.985,125.584C271.387,124.528,278.302,130.488,285.955,136.270C292.262,141.367,299.063,147.131,305.757,152.476C315.830,160.459,320.102,164.521,323.923,168.420C327.167,171.390,332.276,177.000,336.244,179.562C341.030,182.651,351.358,199.094,353.525,200.882C347.062,203.576,336.778,205.949,332.271,210.116C334.326,215.813,335.297,224.796,335.496,227.498C329.333,228.358,321.939,226.057,310.364,224.774C308.539,232.103,309.020,238.815,304.837,246.416C296.987,244.611,291.502,243.097,281.249,239.359C275.053,245.004,273.488,244.704,263.274,251.954C255.894,248.121,249.932,243.900,242.834,241.543C236.279,244.898,225.638,246.661,222.209,249.834C217.922,243.078,213.890,235.569,210.409,232.431C200.975,235.059,197.054,237.965,190.466,240.893C185.874,235.686,188.564,230.941,183.332,223.183C178.931,222.316,172.078,220.170,166.523,220.446C170.044,215.702,171.850,200.795,178.204,198.482C186.045,195.629,180.355,186.866,184.706,178.347C185.777,176.135,196.393,159.031,197.261,156.295C198.939,151.566,200.786,146.543,204.553,143.438M289.683,123.358C276.823,114.801,251.835,111.397,238.212,115.582C225.699,119.271,213.519,124.131,202.974,132.049C197.065,136.423,190.630,142.714,186.942,149.087C179.552,161.478,169.483,188.171,163.634,200.613C158.978,210.919,154.452,217.972,149.687,223.717C167.700,228.937,173.010,231.241,178.299,231.689C179.149,239.404,186.676,244.666,186.016,253.288C194.717,251.392,199.799,248.814,207.482,246.338C211.765,250.713,214.932,256.840,219.142,262.770C226.699,260.161,234.592,259.922,241.848,253.967C247.565,256.602,256.640,260.684,265.974,265.021C273.959,260.056,275.716,259.684,283.149,254.121C292.763,255.817,303.091,261.008,312.550,259.356C311.329,251.233,316.996,245.218,315.939,240.026C322.996,237.621,345.223,239.338,348.961,238.765C348.330,232.747,344.234,221.421,345.317,214.128C351.988,211.866,357.622,209.837,367.893,204.035C363.978,197.588,357.203,189.713,351.418,185.135C346.537,181.312,342.423,176.089,337.527,172.092C320.942,158.775,313.475,139.271,289.683,123.358Z"/>
<path class="path-11" d="M261.985,125.584C271.387,124.528,278.302,130.488,285.955,136.270"/>
<path class="path-11" d="M285.955,136.270C292.262,141.367,299.063,147.131,305.757,152.476"/>
<path class="path-11" d="M305.757,152.476C315.830,160.459,320.102,164.521,323.923,168.420"/>
<path class="path-11" d="M323.923,168.420C327.167,171.390,332.276,177.000,336.244,179.562"/>
<path class="path-11" d="M336.244,179.562C341.030,182.651,351.358,199.094,353.525,200.882"/>
<path class="path-11" d="M353.525,200.882C347.062,203.576,336.778,205.949,332.271,210.116"/>
<path class="path-11" d="M332.271,210.116C334.326,215.813,335.297,224.796,335.496,227.498"/>
<path class="path-11" d="M335.496,227.498C329.333,228.358,321.939,226.057,310.364,224.774"/>
<path class="path-11" d="M310.364,224.774C308.539,232.103,309.020,238.815,304.837,246.416"/>
<path class="path-11" d="M304.837,246.416C296.987,244.611,291.502,243.097,281.249,239.359"/>
<path class="path-11" d="M281.249,239.359C275.053,245.004,273.488,244.704,263.274,251.954"/>
<path class="path-11" d="M263.274,251.954C255.894,248.121,249.932,243.900,242.834,241.543"/>
<path class="path-11" d="M242.834,241.543C236.279,244.898,225.638,246.661,222.209,249.834"/>
<path class="path-11" d="M222.209,249.834C217.922,243.078,213.890,235.569,210.409,232.431"/>
<path class="path-11" d="M210.409,232.431C200.975,235.059,197.054,237.965,190.466,240.893"/>
<path class="path-11" d="M190.466,240.893C185.874,235.686,188.564,230.941,183.332,223.183"/>
<path class="path-11" d="M183.332,223.183C178.931,222.316,172.078,220.170,166.523,220.446"/>
<path class="path-11" d="M166.523,220.446C170.044,215.702,171.850,200.795,178.204,198.482"/>
<path class="path-11" d="M178.204,198.482C186.045,195.629,180.355,186.866,184.706,178.347"/>
<path class="path-11" d="M184.706,178.347C185.777,176.135,196.393,159.031,197.261,156.295"/>
<path class="path-11" d="M197.261,156.295C198.939,151.566,200.786,146.543,204.553,143.438"/>
<path class="path-11" d="M204.553,143.438C221.191,130.379,241.011,127.898,261.985,125.584"/>
<path class="path-12" d="M261.985,125.584C271.387,124.528,278.302,130.488,285.955,136.270C292.262,141.367,299.063,147.131,305.757,152.476C315.830,160.459,320.102,164.521,323.923,168.420C327.167,171.390,332.276,177.000,336.244,179.562C341.030,182.651,351.358,199.094,353.525,200.882C347.062,203.576,336.778,205.949,332.271,210.116C334.326,215.813,335.297,224.796,335.496,227.498C329.333,228.358,321.939,226.057,310.364,224.774C308.539,232.103,309.020,238.815,304.837,246.416C296.987,244.611,291.502,243.097,281.249,239.359C275.053,245.004,273.488,244.704,263.274,251.954C255.894,248.121,249.932,243.900,242.834,241.543C236.279,244.898,225.638,246.661,222.209,249.834C217.922,243.078,213.890,235.569,210.409,232.431C200.975,235.059,197.054,237.965,190.466,240.893C185.874,235.686,188.564,230.941,183.332,223.183C178.931,222.316,172.078,220.170,166.523,220.446C170.044,215.702,171.850,200.795,178.204,198.482C186.045,195.629,180.355,186.866,184.706,178.347C185.777,176.135,196.393,159.031,197.261,156.295C198.939,151.566,200.786,146.543,204.553,143.438C221.191,130.379,241.011,127.898,261.985,125.584Z"/>
</g>
<g id="clothes">
<path class="path-0" d="M254.051,369.267C248.463,367.280,228.011,371.108,224.447,376.125C222.463,379.104,225.317,380.888,228.429,381.028C232.657,381.217,254.582,378.039,257.474,376.211C261.734,373.446,256.207,369.930,254.051,369.267M208.039,266.937C211.883,254.574,239.625,243.614,252.453,245.522C261.406,246.827,288.751,262.847,292.150,271.470C294.999,278.369,294.224,303.085,293.930,311.434C293.112,326.722,293.160,342.091,292.676,357.393C292.883,370.117,302.570,385.425,294.796,395.499C291.208,399.063,278.961,394.940,273.417,395.405C268.666,396.031,260.074,400.599,255.680,400.997C234.361,403.516,237.262,409.175,217.139,409.820C212.769,409.794,198.884,406.747,196.250,404.575C189.946,398.024,193.922,388.518,195.912,379.993C199.831,365.830,200.898,355.822,202.936,340.371C204.933,324.427,208.225,307.462,209.413,290.897C209.508,284.935,207.129,270.521,208.039,266.937M287.878,254.052C272.247,243.245,256.814,234.146,236.778,238.443C231.386,239.398,203.978,250.463,201.440,253.623C197.474,258.649,199.874,278.962,199.376,286.199C199.115,294.813,198.753,303.758,197.466,311.965C196.658,318.238,194.888,323.768,194.426,329.733C193.580,336.335,193.031,343.482,191.556,349.514C186.909,367.955,174.065,404.706,196.067,417.629C200.518,420.265,206.920,420.440,212.383,420.502C222.202,420.425,232.807,419.952,242.496,417.603C254.861,414.966,265.789,406.455,278.560,405.629C284.179,405.267,300.550,413.812,305.482,410.487C307.630,409.108,311.505,398.568,311.678,395.688C311.863,380.858,303.656,366.910,302.436,352.129C301.783,340.162,301.974,328.398,303.562,316.170C304.649,306.203,307.028,296.665,307.751,286.335C307.721,281.963,308.732,276.660,306.691,272.149C303.243,263.870,294.908,258.903,287.878,254.052Z"/>
<path class="path-13" d="M254.051,369.267C248.463,367.280,228.011,371.108,224.447,376.125"/>
<path class="path-13" d="M224.447,376.125C222.463,379.104,225.317,380.888,228.429,381.028"/>
<path class="path-13" d="M228.429,381.028C232.657,381.217,254.582,378.039,257.474,376.211"/>
<path class="path-13" d="M257.474,376.211C261.734,373.446,256.207,369.930,254.051,369.267"/>
<path class="path-13" d="M208.039,266.937C211.883,254.574,239.625,243.614,252.453,245.522"/>
<path class="path-13" d="M252.453,245.522C261.406,246.827,288.751,262.847,292.150,271.470"/>
<path class="path-13" d="M292.150,271.470C294.999,278.369,294.224,303.085,293.930,311.434"/>
<path class="path-13" d="M293.930,311.434C293.112,326.722,293.160,342.091,292.676,357.393"/>
<path class="path-13" d="M292.676,357.393C292.883,370.117,302.570,385.425,294.796,395.499"/>
<path class="path-13" d="M294.796,395.499C291.208,399.063,278.961,394.940,273.417,395.405"/>
<path class="path-13" d="M273.417,395.405C268.666,396.031,260.074,400.599,255.680,400.997"/>
<path class="path-13" d="M255.680,400.997C234.361,403.516,237.262,409.175,217.139,409.820"/>
<path class="path-13" d="M217.139,409.820C212.769,409.794,198.884,406.747,196.250,404.575"/>
<path class="path-13" d="M196.250,404.575C189.946,398.024,193.922,388.518,195.912,379.993"/>
<path class="path-13" d="M195.912,379.993C199.831,365.830,200.898,355.822,202.936,340.371"/>
<path class="path-13" d="M202.936,340.371C204.933,324.427,208.225,307.462,209.413,290.897"/>
<path class="path-13" d="M209.413,290.897C209.508,284.935,207.129,270.521,208.039,266.937"/>
<path class="path-14" d="M254.051,369.267C248.463,367.280,228.011,371.108,224.447,376.125C222.463,379.104,225.317,380.888,228.429,381.028C232.657,381.217,254.582,378.039,257.474,376.211C261.734,373.446,256.207,369.930,254.051,369.267M208.039,266.937C211.883,254.574,239.625,243.614,252.453,245.522C261.406,246.827,288.751,262.847,292.150,271.470C294.999,278.369,294.224,303.085,293.930,311.434C293.112,326.722,293.160,342.091,292.676,357.393C292.883,370.117,302.570,385.425,294.796,395.499C291.208,399.063,278.961,394.940,273.417,395.405C268.666,396.031,260.074,400.599,255.680,400.997C234.361,403.516,237.262,409.175,217.139,409.820C212.769,409.794,198.884,406.747,196.250,404.575C189.946,398.024,193.922,388.518,195.912,379.993C199.831,365.830,200.898,355.822,202.936,340.371C204.933,324.427,208.225,307.462,209.413,290.897C209.508,284.935,207.129,270.521,208.039,266.937Z"/>
</g>
<g id="neck">
<path class="path-0" d="M246.823,226.339C247.297,223.029,248.420,220.079,252.090,219.900C263.807,218.396,261.228,255.916,250.592,255.468C240.620,255.049,245.893,232.626,246.823,226.339M252.482,210.594C249.837,210.149,246.818,210.687,244.434,211.920C234.930,216.180,235.896,224.880,235.532,233.522C235.017,237.830,235.183,241.833,233.034,245.404C231.233,248.659,226.437,251.786,226.283,255.444C226.196,265.430,253.121,266.564,260.116,266.525C262.774,266.636,271.707,268.011,272.858,264.398C272.900,263.401,266.743,251.485,265.942,246.790C263.538,232.703,273.714,212.487,252.482,210.594Z"/>
<path class="path-15" d="M252.090,219.900C263.807,218.396,261.228,255.916,250.592,255.468"/>
<path class="path-15" d="M250.592,255.468C240.620,255.049,245.893,232.626,246.823,226.339"/>
<path class="path-15" d="M246.823,226.339C247.297,223.029,248.420,220.079,252.090,219.900"/>
<path class="path-16" d="M252.090,219.900C263.807,218.396,261.228,255.916,250.592,255.468C240.620,255.049,245.893,232.626,246.823,226.339C247.297,223.029,248.420,220.079,252.090,219.900Z"/>
</g>
<g id="layer_head">
<g id="right_ear">
<path class="path-0" d="M166.030,190.408C157.297,191.205,144.915,155.777,156.441,159.509C161.887,161.253,164.076,171.269,165.138,175.495C166.404,180.022,172.564,189.862,166.030,190.408M163.694,147.792C160.678,145.768,156.921,144.334,153.573,145.740C144.269,148.002,142.038,159.986,143.026,169.559C144.414,181.724,152.480,198.211,163.095,202.313C166.040,203.468,172.112,206.292,175.263,205.183C181.915,202.367,178.202,192.032,176.961,186.501C175.533,179.426,168.705,152.565,163.694,147.792Z"/>
<path class="path-15" d="M156.441,159.509C161.887,161.253,164.076,171.269,165.138,175.495"/>
<path class="path-15" d="M165.138,175.495C166.404,180.022,172.564,189.862,166.030,190.408"/>
<path class="path-15" d="M166.030,190.408C157.297,191.205,144.915,155.777,156.441,159.509"/>
<path class="path-16" d="M156.441,159.509C161.887,161.253,164.076,171.269,165.138,175.495C166.404,180.022,172.564,189.862,166.030,190.408C157.297,191.205,144.915,155.777,156.441,159.509Z"/>
</g>
<g id="face_Mask">
<g id="face">
<path class="path-0" d="M182.161,103.095C191.495,93.396,224.752,88.989,238.511,88.145C253.929,87.442,269.314,91.076,283.842,96.974C289.007,99.080,296.665,101.505,300.797,105.749C307.427,112.611,309.366,124.258,310.934,133.291C312.197,139.597,314.976,147.777,313.502,153.672C306.745,180.696,299.197,192.594,293.367,199.945C285.451,209.926,271.973,213.300,260.069,217.526C241.237,223.911,222.765,226.004,212.475,223.995C202.055,221.962,180.465,212.345,174.146,204.387C167.957,196.287,169.367,186.161,168.294,176.458C167.001,167.359,165.185,153.572,164.922,144.571C164.772,133.342,174.485,110.999,182.161,103.095M305.445,98.438C293.035,84.993,256.999,79.270,239.205,80.423C230.832,80.711,222.819,80.696,215.025,82.037C209.246,83.218,204.045,85.448,198.597,86.657C186.629,89.988,181.955,88.150,173.248,98.219C167.012,105.255,156.695,134.131,155.958,143.345C155.514,150.460,157.411,167.579,157.859,175.867C158.302,185.034,158.167,197.654,161.986,205.642C165.211,212.145,170.137,216.987,178.796,222.321C189.648,229.007,202.456,234.341,215.332,236.903C224.052,239.157,241.149,236.300,264.923,227.102C277.810,221.931,290.896,216.047,300.130,204.454C309.647,192.507,320.258,176.365,325.927,154.177C331.127,133.822,312.888,106.329,305.445,98.438Z"/>
<path class="path-15" d="M238.511,88.145C253.929,87.442,269.314,91.076,283.842,96.974"/>
<path class="path-15" d="M283.842,96.974C289.007,99.080,296.665,101.505,300.797,105.749"/>
<path class="path-15" d="M300.797,105.749C307.427,112.611,309.366,124.258,310.934,133.291"/>
<path class="path-15" d="M310.934,133.291C312.197,139.597,314.976,147.777,313.502,153.672"/>
<path class="path-15" d="M313.502,153.672C306.745,180.696,299.197,192.594,293.367,199.945"/>
<path class="path-15" d="M293.367,199.945C285.451,209.926,271.973,213.300,260.069,217.526"/>
<path class="path-15" d="M260.069,217.526C241.237,223.911,222.765,226.004,212.475,223.995"/>
<path class="path-15" d="M212.475,223.995C202.055,221.962,180.465,212.345,174.146,204.387"/>
<path class="path-15" d="M174.146,204.387C167.957,196.287,169.367,186.161,168.294,176.458"/>
<path class="path-15" d="M168.294,176.458C167.001,167.359,165.185,153.572,164.922,144.571"/>
<path class="path-15" d="M164.922,144.571C164.772,133.342,174.485,110.999,182.161,103.095"/>
<path class="path-15" d="M182.161,103.095C191.495,93.396,224.752,88.989,238.511,88.145"/>
<path class="path-16" d="M238.511,88.145C253.929,87.442,269.314,91.076,283.842,96.974C289.007,99.080,296.665,101.505,300.797,105.749C307.427,112.611,309.366,124.258,310.934,133.291C312.197,139.597,314.976,147.777,313.502,153.672C306.745,180.696,299.197,192.594,293.367,199.945C285.451,209.926,271.973,213.300,260.069,217.526C241.237,223.911,222.765,226.004,212.475,223.995C202.055,221.962,180.465,212.345,174.146,204.387C167.957,196.287,169.367,186.161,168.294,176.458C167.001,167.359,165.185,153.572,164.922,144.571C164.772,133.342,174.485,110.999,182.161,103.095C191.495,93.396,224.752,88.989,238.511,88.145Z"/>
</g>
</g>
<mask id="mask_target" style="mask-type:alpha;">
<use xlink:href="#face_Mask"/>
</mask>
<g id="mouse">
<path class="path-0" d="M218.392,215.620C223.485,217.157,223.169,221.900,222.654,222.366C222.364,222.628,221.325,221.586,218.417,220.853C212.908,219.463,210.113,220.404,209.976,219.676C209.826,218.877,212.429,213.821,218.392,215.620Z"/>
</g>
<g id="layer_eyes_Mtarget" mask="url(#mask_target)">
<g id="eyes">
<mask style="mask-type:alpha;" id="f3906406-f197-4bf1-91d8-744c09cca836">
<use xlink:href="#cmn_f3906406-f197-4bf1-91d8-744c09cca836"/>
</mask>
<g id="cmn_f3906406-f197-4bf1-91d8-744c09cca836">
<path class="path-0" d="M184.696,189.501C184.786,188.261,177.620,185.738,178.375,185.846C177.384,185.721,167.799,184.115,167.482,186.680C167.424,187.150,169.519,188.549,168.900,188.392C167.317,187.993,184.618,190.574,184.696,189.501M190.326,192.506C190.383,191.910,190.903,186.233,188.960,185.053C187.941,184.434,186.102,185.149,185.048,185.741C181.297,187.742,157.980,183.334,160.698,178.338C161.254,177.296,165.439,176.507,166.553,177.093C174.323,181.260,156.960,191.841,165.510,200.673C166.116,201.298,178.148,191.008,176.883,192.024C175.869,192.838,190.118,194.655,190.326,192.506M228.350,194.246C225.916,194.194,223.427,195.543,220.409,193.246C217.967,191.387,239.382,192.690,241.416,192.542C242.685,192.450,255.022,192.299,255.711,191.909C255.859,191.826,258.085,191.981,258.309,192.010C257.975,191.966,232.525,194.336,228.350,194.246M265.321,195.071C265.745,194.751,266.926,188.436,266.503,187.966C263.463,184.588,250.692,186.773,243.902,186.608C238.193,186.469,228.485,187.795,224.869,186.803C221.103,185.915,218.153,184.498,215.972,186.054C214.321,187.231,213.431,190.587,214.024,192.526C214.593,194.389,216.867,195.820,219.030,196.662C223.983,198.592,245.187,198.040,249.021,197.984C250.035,197.966,263.199,196.673,265.321,195.071Z"/>
<path class="path-31" d="M255.711,191.909C255.859,191.826,258.085,191.981,258.309,192.010"/>
<path class="path-31" d="M258.309,192.010C257.975,191.966,232.525,194.336,228.350,194.246"/>
<path class="path-31" d="M228.350,194.246C225.916,194.194,223.427,195.543,220.409,193.246"/>
<path class="path-31" d="M220.409,193.246C217.967,191.387,239.382,192.690,241.416,192.542"/>
<path class="path-31" d="M241.416,192.542C242.685,192.450,255.022,192.299,255.711,191.909"/>
<path class="path-32" d="M255.711,191.909C255.859,191.826,258.085,191.981,258.309,192.010C257.975,191.966,232.525,194.336,228.350,194.246C225.916,194.194,223.427,195.543,220.409,193.246C217.967,191.387,239.382,192.690,241.416,192.542C242.685,192.450,255.022,192.299,255.711,191.909Z"/>
<path class="path-31" d="M168.900,188.392C167.317,187.993,184.618,190.574,184.696,189.501"/>
<path class="path-31" d="M184.696,189.501C184.786,188.261,177.620,185.738,178.375,185.846"/>
<path class="path-31" d="M178.375,185.846C177.384,185.721,167.799,184.115,167.482,186.680"/>
<path class="path-31" d="M167.482,186.680C167.424,187.150,169.519,188.549,168.900,188.392"/>
<path class="path-32" d="M168.900,188.392C167.317,187.993,184.618,190.574,184.696,189.501C184.786,188.261,177.620,185.738,178.375,185.846C177.384,185.721,167.799,184.115,167.482,186.680C167.424,187.150,169.519,188.549,168.900,188.392Z"/>
</g>
</g>
<g id="pupil">
<path class="path-0" d="M221.397,175.551C223.830,175.190,226.253,179.105,226.165,187.979C226.109,193.603,224.807,195.779,223.252,195.897C221.346,196.042,219.919,193.234,219.210,186.373C218.453,179.052,219.378,175.851,221.397,175.551Z" mask="url(#f3906406-f197-4bf1-91d8-744c09cca836)"/>
<path class="path-0" d="M181.641,172.682C184.031,172.319,185.827,176.405,186.189,185.405C186.390,190.384,185.807,192.439,184.493,192.684C182.930,192.975,181.377,190.721,180.173,184.923C178.501,176.876,179.460,173.014,181.641,172.682Z" mask="url(#f3906406-f197-4bf1-91d8-744c09cca836)"/>
</g>
</g>
<g id="hat">
<path class="path-0" d="M316.965,139.074C319.092,140.184,321.527,143.119,321.782,145.790C322.990,152.490,311.766,152.249,308.244,152.392C302.235,152.035,296.030,150.847,290.351,149.937C283.876,149.494,277.490,148.181,271.038,147.472C253.500,144.150,236.041,140.536,218.457,137.492C206.543,135.909,195.436,133.772,182.811,132.208C181.143,132.026,161.019,132.261,157.349,130.497C145.046,124.719,157.216,114.860,156.871,108.871C156.919,106.371,151.877,105.314,153.420,101.059C154.667,97.781,165.935,94.477,169.458,93.794C179.956,91.699,191.077,90.206,202.270,90.263C215.823,90.373,228.407,92.754,241.927,94.207C263.030,96.540,303.421,104.365,322.490,123.821C330.035,131.442,311.512,124.281,309.597,123.965C298.610,120.798,256.175,103.259,276.513,118.928C285.702,126.825,307.405,133.340,316.965,139.074M208.020,81.925C196.410,81.198,185.831,80.240,174.811,81.547C170.579,82.038,165.479,82.884,161.711,82.690C153.705,82.340,167.297,61.844,171.331,57.730C188.088,41.054,218.122,33.246,242.768,36.419C289.631,42.452,306.671,54.992,318.733,73.705C322.616,79.262,333.798,104.835,323.830,109.988C320.426,111.475,314.914,107.771,312.260,106.101C302.917,100.494,241.049,83.995,208.020,81.925M298.139,41.987C282.614,34.777,270.875,27.566,249.651,26.205C219.067,24.416,182.470,28.556,161.176,54.412C154.561,62.632,151.987,72.229,148.201,81.288C145.597,87.438,140.718,91.535,140.120,98.110C139.644,105.563,143.434,107.723,144.151,113.831C145.119,120.500,141.551,122.638,141.926,126.956C141.814,138.887,152.698,141.644,162.437,143.270C166.943,144.023,183.785,145.022,192.926,145.860C203.548,146.833,217.716,148.099,228.309,149.344C238.969,150.597,253.105,152.872,263.756,154.191C273.653,155.416,286.838,157.292,296.794,157.861C305.732,158.373,325.453,158.923,326.635,158.007C328.505,156.583,334.588,141.116,335.216,138.121C336.045,134.167,334.669,129.798,336.190,123.473C338.685,111.948,341.172,101.720,338.403,89.241C333.266,67.006,314.854,49.936,298.139,41.987Z"/>
<path class="path-19" d="M241.927,94.207C263.030,96.540,303.421,104.365,322.490,123.821"/>
<path class="path-19" d="M322.490,123.821C330.035,131.442,311.512,124.281,309.597,123.965"/>
<path class="path-19" d="M309.597,123.965C298.610,120.798,256.175,103.259,276.513,118.928"/>
<path class="path-19" d="M276.513,118.928C285.702,126.825,307.405,133.340,316.965,139.074"/>
<path class="path-19" d="M316.965,139.074C319.092,140.184,321.527,143.119,321.782,145.790"/>
<path class="path-19" d="M321.782,145.790C322.990,152.490,311.766,152.249,308.244,152.392"/>
<path class="path-19" d="M308.244,152.392C302.235,152.035,296.030,150.847,290.351,149.937"/>
<path class="path-19" d="M290.351,149.937C283.876,149.494,277.490,148.181,271.038,147.472"/>
<path class="path-19" d="M271.038,147.472C253.500,144.150,236.041,140.536,218.457,137.492"/>
<path class="path-19" d="M218.457,137.492C206.543,135.909,195.436,133.772,182.811,132.208"/>
<path class="path-19" d="M182.811,132.208C181.143,132.026,161.019,132.261,157.349,130.497"/>
<path class="path-19" d="M157.349,130.497C145.046,124.719,157.216,114.860,156.871,108.871"/>
<path class="path-19" d="M156.871,108.871C156.919,106.371,151.877,105.314,153.420,101.059"/>
<path class="path-19" d="M153.420,101.059C154.667,97.781,165.935,94.477,169.458,93.794"/>
<path class="path-19" d="M169.458,93.794C179.956,91.699,191.077,90.206,202.270,90.263"/>
<path class="path-19" d="M202.270,90.263C215.823,90.373,228.407,92.754,241.927,94.207"/>
<path class="path-20" d="M241.927,94.207C263.030,96.540,303.421,104.365,322.490,123.821C330.035,131.442,311.512,124.281,309.597,123.965C298.610,120.798,256.175,103.259,276.513,118.928C285.702,126.825,307.405,133.340,316.965,139.074C319.092,140.184,321.527,143.119,321.782,145.790C322.990,152.490,311.766,152.249,308.244,152.392C302.235,152.035,296.030,150.847,290.351,149.937C283.876,149.494,277.490,148.181,271.038,147.472C253.500,144.150,236.041,140.536,218.457,137.492C206.543,135.909,195.436,133.772,182.811,132.208C181.143,132.026,161.019,132.261,157.349,130.497C145.046,124.719,157.216,114.860,156.871,108.871C156.919,106.371,151.877,105.314,153.420,101.059C154.667,97.781,165.935,94.477,169.458,93.794C179.956,91.699,191.077,90.206,202.270,90.263C215.823,90.373,228.407,92.754,241.927,94.207Z"/>
<path class="path-9" d="M242.768,36.419C289.631,42.452,306.671,54.992,318.733,73.705"/>
<path class="path-9" d="M318.733,73.705C322.616,79.262,333.798,104.835,323.830,109.988"/>
<path class="path-9" d="M323.830,109.988C320.426,111.475,314.914,107.771,312.260,106.101"/>
<path class="path-9" d="M312.260,106.101C302.917,100.494,241.049,83.995,208.020,81.925"/>
<path class="path-9" d="M208.020,81.925C196.410,81.198,185.831,80.240,174.811,81.547"/>
<path class="path-9" d="M174.811,81.547C170.579,82.038,165.479,82.884,161.711,82.690"/>
<path class="path-9" d="M161.711,82.690C153.705,82.340,167.297,61.844,171.331,57.730"/>
<path class="path-9" d="M171.331,57.730C188.088,41.054,218.122,33.246,242.768,36.419"/>
<path class="path-10" d="M242.768,36.419C289.631,42.452,306.671,54.992,318.733,73.705C322.616,79.262,333.798,104.835,323.830,109.988C320.426,111.475,314.914,107.771,312.260,106.101C302.917,100.494,241.049,83.995,208.020,81.925C196.410,81.198,185.831,80.240,174.811,81.547C170.579,82.038,165.479,82.884,161.711,82.690C153.705,82.340,167.297,61.844,171.331,57.730C188.088,41.054,218.122,33.246,242.768,36.419Z"/>
</g>
<g id="left_ear">
<path class="path-0" d="M289.886,190.625C289.134,185.567,291.719,163.482,294.801,159.451C302.180,149.297,320.382,156.843,324.408,165.787C328.769,176.036,317.855,193.151,308.367,198.985C298.577,204.802,291.532,200.358,289.886,190.625M338.910,170.093C337.400,155.550,321.124,140.560,307.386,146.588C290.496,153.997,294.092,178.158,291.670,193.229C291.218,196.606,289.404,200.202,290.198,203.344C293.008,215.290,305.744,216.719,315.740,207.089C324.945,198.039,339.912,183.772,338.910,170.093Z"/>
<path class="path-15" d="M294.801,159.451C302.180,149.297,320.382,156.843,324.408,165.787"/>
<path class="path-15" d="M324.408,165.787C328.769,176.036,317.855,193.151,308.367,198.985"/>
<path class="path-15" d="M308.367,198.985C298.577,204.802,291.532,200.358,289.886,190.625"/>
<path class="path-15" d="M289.886,190.625C289.134,185.567,291.719,163.482,294.801,159.451"/>
<path class="path-16" d="M294.801,159.451C302.180,149.297,320.382,156.843,324.408,165.787C328.769,176.036,317.855,193.151,308.367,198.985C298.577,204.802,291.532,200.358,289.886,190.625C289.134,185.567,291.719,163.482,294.801,159.451Z"/>
</g>
<g id="earrings">
<path class="path-0" d="M311.956,215.620C302.728,219.192,302.620,200.732,306.005,201.271C310.679,203.206,319.244,213.272,311.956,215.620M322.394,207.937C315.801,208.022,313.231,198.897,312.902,195.098C320.251,197.117,329.317,203.121,322.394,207.937M333.429,205.616C331.493,197.235,319.510,191.773,311.907,187.775C308.987,186.240,299.622,196.144,299.027,199.563C297.689,203.568,299.086,225.710,313.139,223.785C318.972,222.722,334.985,212.350,333.429,205.616Z"/>
<path class="path-21" d="M312.902,195.098C320.251,197.117,329.317,203.121,322.394,207.937"/>
<path class="path-21" d="M322.394,207.937C315.801,208.022,313.231,198.897,312.902,195.098"/>
<path class="path-22" d="M312.902,195.098C320.251,197.117,329.317,203.121,322.394,207.937C315.801,208.022,313.231,198.897,312.902,195.098Z"/>
<path class="path-21" d="M306.005,201.271C310.679,203.206,319.244,213.272,311.956,215.620"/>
<path class="path-21" d="M311.956,215.620C302.728,219.192,302.620,200.732,306.005,201.271"/>
<path class="path-22" d="M306.005,201.271C310.679,203.206,319.244,213.272,311.956,215.620C302.728,219.192,302.620,200.732,306.005,201.271Z"/>
</g>
</g>
<g id="jacket">
<path class="path-0" d="M219.087,272.347C220.924,277.154,215.063,286.630,214.039,291.236C207.824,309.036,198.976,326.272,199.751,344.671C200.180,350.606,205.255,363.871,199.516,367.739C197.444,369.135,192.079,364.847,191.289,366.431C189.815,369.386,184.916,359.356,184.250,358.097C183.643,356.950,181.113,348.372,180.934,345.982C180.878,341.375,181.528,332.367,182.698,326.675C183.944,320.842,185.025,314.661,188.024,308.808C190.900,301.885,195.844,294.299,198.658,286.425C201.578,281.561,205.991,278.921,205.307,274.970C204.318,271.302,201.873,269.459,205.056,267.689C208.971,265.862,218.508,267.407,219.087,272.347M282.523,277.476C283.891,276.508,296.288,272.876,297.634,272.046C310.814,264.758,321.096,275.037,321.951,283.861C322.364,287.606,319.400,300.614,318.595,303.196C316.424,308.958,313.681,312.702,311.527,317.526C302.577,335.202,310.611,324.619,304.508,340.967C303.503,343.660,301.483,349.347,300.806,352.083C299.980,354.736,298.905,360.764,298.109,363.245C295.617,369.165,292.154,376.642,282.734,376.203C282.190,376.244,276.820,377.236,275.890,377.338C270.514,377.632,264.104,377.599,260.361,373.186C256.670,368.326,256.384,360.812,255.916,354.287C254.764,341.249,258.885,328.423,262.891,315.907C266.016,304.499,273.165,285.690,282.523,277.476M295.323,262.375C292.386,263.910,286.149,263.403,284.345,263.629C281.162,263.856,280.710,261.348,280.496,259.117C280.232,254.721,283.547,248.404,286.958,245.391C289.629,243.031,294.262,241.329,298.172,241.465C301.650,241.462,307.453,244.096,306.939,248.021C306.738,250.992,300.233,259.809,295.323,262.375M223.223,246.125C227.514,255.960,231.934,265.974,226.838,263.990C220.574,261.552,217.213,261.684,207.313,256.646C197.145,251.471,195.478,236.322,201.698,231.967C208.029,227.534,218.200,234.612,223.223,246.125M311.648,367.419C312.253,360.570,314.172,356.235,314.695,349.075C315.016,343.999,315.803,338.217,315.529,333.164C314.816,324.255,316.103,320.659,316.455,310.551C316.598,302.382,319.008,296.071,318.308,288.262C317.910,285.262,307.784,272.471,308.060,269.723C307.773,264.160,315.621,261.282,317.296,256.436C318.709,252.738,320.204,248.774,319.970,244.821C319.960,239.883,315.931,236.188,312.557,233.268C307.685,229.531,302.789,229.367,296.516,229.685C286.790,230.190,280.626,238.342,276.271,244.474C270.198,253.023,270.462,268.290,266.862,278.139C264.771,283.859,261.011,291.483,258.574,296.673C248.729,316.806,230.135,371.006,246.303,386.739C247.854,388.457,261.287,393.651,265.662,393.841C275.433,394.314,280.143,395.080,289.545,393.642C296.208,392.887,306.031,382.510,310.007,374.900C311.083,372.996,311.506,369.015,311.648,367.419M228.436,234.994C222.925,228.323,213.232,216.214,204.695,218.614C200.743,219.863,195.464,223.392,192.715,226.758C189.881,230.227,186.987,236.006,186.978,240.542C186.845,245.923,186.390,252.306,188.039,256.957C190.145,262.897,199.803,267.735,200.433,273.917C200.644,276.757,192.469,288.521,191.094,291.772C188.817,297.598,184.790,302.829,182.467,307.759C180.086,312.810,177.252,319.713,175.465,325.002C173.081,332.060,169.437,340.874,169.026,348.986C168.517,353.831,170.330,365.108,173.970,370.716C176.225,374.191,182.145,378.431,184.740,379.355C186.200,379.875,200.941,384.410,205.984,380.498C215.664,372.989,211.385,355.991,209.014,339.775C206.859,325.064,218.778,313.426,224.049,299.341C226.003,294.117,233.988,276.037,234.854,269.578C235.613,263.922,237.740,260.146,236.470,252.212C235.624,247.781,232.067,239.388,228.436,234.994Z"/>
<path class="path-1" d="M297.634,272.046C310.814,264.758,321.096,275.037,321.951,283.861"/>
<path class="path-1" d="M321.951,283.861C322.364,287.606,319.400,300.614,318.595,303.196"/>
<path class="path-1" d="M318.595,303.196C316.424,308.958,313.681,312.702,311.527,317.526"/>
<path class="path-1" d="M311.527,317.526C302.577,335.202,310.611,324.619,304.508,340.967"/>
<path class="path-1" d="M304.508,340.967C303.503,343.660,301.483,349.347,300.806,352.083"/>
<path class="path-1" d="M300.806,352.083C299.980,354.736,298.905,360.764,298.109,363.245"/>
<path class="path-1" d="M298.109,363.245C295.617,369.165,292.154,376.642,282.734,376.203"/>
<path class="path-1" d="M282.734,376.203C282.190,376.244,276.820,377.236,275.890,377.338"/>
<path class="path-1" d="M275.890,377.338C270.514,377.632,264.104,377.599,260.361,373.186"/>
<path class="path-1" d="M260.361,373.186C256.670,368.326,256.384,360.812,255.916,354.287"/>
<path class="path-1" d="M255.916,354.287C254.764,341.249,258.885,328.423,262.891,315.907"/>
<path class="path-1" d="M262.891,315.907C266.016,304.499,273.165,285.690,282.523,277.476"/>
<path class="path-1" d="M282.523,277.476C283.891,276.508,296.288,272.876,297.634,272.046"/>
<path class="path-2" d="M297.634,272.046C310.814,264.758,321.096,275.037,321.951,283.861C322.364,287.606,319.400,300.614,318.595,303.196C316.424,308.958,313.681,312.702,311.527,317.526C302.577,335.202,310.611,324.619,304.508,340.967C303.503,343.660,301.483,349.347,300.806,352.083C299.980,354.736,298.905,360.764,298.109,363.245C295.617,369.165,292.154,376.642,282.734,376.203C282.190,376.244,276.820,377.236,275.890,377.338C270.514,377.632,264.104,377.599,260.361,373.186C256.670,368.326,256.384,360.812,255.916,354.287C254.764,341.249,258.885,328.423,262.891,315.907C266.016,304.499,273.165,285.690,282.523,277.476C283.891,276.508,296.288,272.876,297.634,272.046Z"/>
<path class="path-1" d="M205.056,267.689C208.971,265.862,218.508,267.407,219.087,272.347"/>
<path class="path-1" d="M219.087,272.347C220.924,277.154,215.063,286.630,214.039,291.236"/>
<path class="path-1" d="M214.039,291.236C207.824,309.036,198.976,326.272,199.751,344.671"/>
<path class="path-1" d="M199.751,344.671C200.180,350.606,205.255,363.871,199.516,367.739"/>
<path class="path-1" d="M199.516,367.739C197.444,369.135,192.079,364.847,191.289,366.431"/>
<path class="path-1" d="M191.289,366.431C189.815,369.386,184.916,359.356,184.250,358.097"/>
<path class="path-1" d="M184.250,358.097C183.643,356.950,181.113,348.372,180.934,345.982"/>
<path class="path-1" d="M180.934,345.982C180.878,341.375,181.528,332.367,182.698,326.675"/>
<path class="path-1" d="M182.698,326.675C183.944,320.842,185.025,314.661,188.024,308.808"/>
<path class="path-1" d="M188.024,308.808C190.900,301.885,195.844,294.299,198.658,286.425"/>
<path class="path-1" d="M198.658,286.425C201.578,281.561,205.991,278.921,205.307,274.970"/>
<path class="path-1" d="M205.307,274.970C204.318,271.302,201.873,269.459,205.056,267.689"/>
<path class="path-2" d="M205.056,267.689C208.971,265.862,218.508,267.407,219.087,272.347C220.924,277.154,215.063,286.630,214.039,291.236C207.824,309.036,198.976,326.272,199.751,344.671C200.180,350.606,205.255,363.871,199.516,367.739C197.444,369.135,192.079,364.847,191.289,366.431C189.815,369.386,184.916,359.356,184.250,358.097C183.643,356.950,181.113,348.372,180.934,345.982C180.878,341.375,181.528,332.367,182.698,326.675C183.944,320.842,185.025,314.661,188.024,308.808C190.900,301.885,195.844,294.299,198.658,286.425C201.578,281.561,205.991,278.921,205.307,274.970C204.318,271.302,201.873,269.459,205.056,267.689Z"/>
<path class="path-1" d="M298.172,241.465C301.650,241.462,307.453,244.096,306.939,248.021"/>
<path class="path-1" d="M306.939,248.021C306.738,250.992,300.233,259.809,295.323,262.375"/>
<path class="path-1" d="M295.323,262.375C292.386,263.910,286.149,263.403,284.345,263.629"/>
<path class="path-1" d="M284.345,263.629C281.162,263.856,280.710,261.348,280.496,259.117"/>
<path class="path-1" d="M280.496,259.117C280.232,254.721,283.547,248.404,286.958,245.391"/>
<path class="path-1" d="M286.958,245.391C289.629,243.031,294.262,241.329,298.172,241.465"/>
<path class="path-2" d="M298.172,241.465C301.650,241.462,307.453,244.096,306.939,248.021C306.738,250.992,300.233,259.809,295.323,262.375C292.386,263.910,286.149,263.403,284.345,263.629C281.162,263.856,280.710,261.348,280.496,259.117C280.232,254.721,283.547,248.404,286.958,245.391C289.629,243.031,294.262,241.329,298.172,241.465Z"/>
<path class="path-1" d="M223.223,246.125C227.514,255.960,231.934,265.974,226.838,263.990"/>
<path class="path-1" d="M226.838,263.990C220.574,261.552,217.213,261.684,207.313,256.646"/>
<path class="path-1" d="M207.313,256.646C197.145,251.471,195.478,236.322,201.698,231.967"/>
<path class="path-1" d="M201.698,231.967C208.029,227.534,218.200,234.612,223.223,246.125"/>
<path class="path-2" d="M223.223,246.125C227.514,255.960,231.934,265.974,226.838,263.990C220.574,261.552,217.213,261.684,207.313,256.646C197.145,251.471,195.478,236.322,201.698,231.967C208.029,227.534,218.200,234.612,223.223,246.125Z"/>
</g>
<g id="left_arm">
<path class="path-0" d="M317.389,464.924C314.021,459.626,312.625,450.653,320.258,448.269C325.570,446.564,349.563,451.708,353.585,455.670C360.619,461.940,356.736,476.607,348.110,479.999C338.154,483.400,322.775,473.202,317.389,464.924M297.760,284.607C298.298,281.336,305.660,270.344,310.783,270.932C313.758,271.274,315.676,276.104,316.947,278.648C320.462,286.641,324.122,294.925,327.234,303.325C335.730,325.615,342.337,348.100,347.960,370.872C349.984,380.117,349.784,392.484,353.174,400.777C357.238,410.395,363.533,407.022,366.575,413.319C367.929,416.303,367.306,421.965,369.337,426.607C372.386,433.904,378.071,437.854,380.767,442.491C382.452,445.139,383.139,448.129,379.485,448.823C377.496,449.836,372.165,448.878,370.169,448.893C363.498,447.171,356.832,445.446,350.168,443.718C341.171,441.789,313.879,440.662,309.177,434.709C302.121,425.447,313.014,414.386,314.280,405.061C314.916,402.094,318.041,358.537,317.246,355.664C316.177,348.998,311.800,343.549,309.554,336.816C306.951,327.567,304.257,317.673,301.890,307.996C300.075,299.903,295.896,293.494,297.760,284.607M321.355,260.121C318.553,255.730,310.404,248.224,304.587,250.173C299.763,252.018,299.728,258.044,299.482,262.084C298.872,272.184,297.756,280.665,298.764,290.260C299.163,297.243,300.500,303.457,301.842,310.007C303.406,318.918,303.487,336.398,304.560,346.659C305.257,356.212,307.955,366.023,307.516,374.296C306.069,393.724,297.406,412.120,298.214,431.496C298.290,441.283,300.940,441.252,303.297,449.060C305.015,455.033,303.722,461.368,306.092,467.005C312.193,481.931,329.595,495.441,346.537,491.989C362.150,488.877,362.689,471.905,370.938,462.860C378.198,454.821,392.866,458.704,394.800,450.371C396.743,443.369,387.039,435.791,383.340,430.495C375.945,420.569,381.583,418.197,377.867,410.573C375.164,404.938,367.473,400.005,363.759,392.713C361.738,389.400,360.712,383.082,359.329,378.772C356.445,368.445,353.565,356.678,351.181,345.751C348.731,333.299,346.692,322.296,341.965,309.806C338.209,299.496,326.857,267.904,321.355,260.121Z"/>
<path class="path-1" d="M310.783,270.932C313.758,271.274,315.676,276.104,316.947,278.648"/>
<path class="path-1" d="M316.947,278.648C320.462,286.641,324.122,294.925,327.234,303.325"/>
<path class="path-1" d="M327.234,303.325C335.730,325.615,342.337,348.100,347.960,370.872"/>
<path class="path-1" d="M347.960,370.872C349.984,380.117,349.784,392.484,353.174,400.777"/>
<path class="path-1" d="M353.174,400.777C357.238,410.395,363.533,407.022,366.575,413.319"/>
<path class="path-1" d="M366.575,413.319C367.929,416.303,367.306,421.965,369.337,426.607"/>
<path class="path-1" d="M369.337,426.607C372.386,433.904,378.071,437.854,380.767,442.491"/>
<path class="path-1" d="M380.767,442.491C382.452,445.139,383.139,448.129,379.485,448.823"/>
<path class="path-1" d="M379.485,448.823C377.496,449.836,372.165,448.878,370.169,448.893"/>
<path class="path-1" d="M370.169,448.893C363.498,447.171,356.832,445.446,350.168,443.718"/>
<path class="path-1" d="M350.168,443.718C341.171,441.789,313.879,440.662,309.177,434.709"/>
<path class="path-1" d="M309.177,434.709C302.121,425.447,313.014,414.386,314.280,405.061"/>
<path class="path-1" d="M314.280,405.061C314.916,402.094,318.041,358.537,317.246,355.664"/>
<path class="path-1" d="M317.246,355.664C316.177,348.998,311.800,343.549,309.554,336.816"/>
<path class="path-1" d="M309.554,336.816C306.951,327.567,304.257,317.673,301.890,307.996"/>
<path class="path-1" d="M301.890,307.996C300.075,299.903,295.896,293.494,297.760,284.607"/>
<path class="path-1" d="M297.760,284.607C298.298,281.336,305.660,270.344,310.783,270.932"/>
<path class="path-2" d="M310.783,270.932C313.758,271.274,315.676,276.104,316.947,278.648C320.462,286.641,324.122,294.925,327.234,303.325C335.730,325.615,342.337,348.100,347.960,370.872C349.984,380.117,349.784,392.484,353.174,400.777C357.238,410.395,363.533,407.022,366.575,413.319C367.929,416.303,367.306,421.965,369.337,426.607C372.386,433.904,378.071,437.854,380.767,442.491C382.452,445.139,383.139,448.129,379.485,448.823C377.496,449.836,372.165,448.878,370.169,448.893C363.498,447.171,356.832,445.446,350.168,443.718C341.171,441.789,313.879,440.662,309.177,434.709C302.121,425.447,313.014,414.386,314.280,405.061C314.916,402.094,318.041,358.537,317.246,355.664C316.177,348.998,311.800,343.549,309.554,336.816C306.951,327.567,304.257,317.673,301.890,307.996C300.075,299.903,295.896,293.494,297.760,284.607C298.298,281.336,305.660,270.344,310.783,270.932Z"/>
<path class="path-15" d="M320.258,448.269C325.570,446.564,349.563,451.708,353.585,455.670"/>
<path class="path-15" d="M353.585,455.670C360.619,461.940,356.736,476.607,348.110,479.999"/>
<path class="path-15" d="M348.110,479.999C338.154,483.400,322.775,473.202,317.389,464.924"/>
<path class="path-15" d="M317.389,464.924C314.021,459.626,312.625,450.653,320.258,448.269"/>
<path class="path-16" d="M320.258,448.269C325.570,446.564,349.563,451.708,353.585,455.670C360.619,461.940,356.736,476.607,348.110,479.999C338.154,483.400,322.775,473.202,317.389,464.924C314.021,459.626,312.625,450.653,320.258,448.269Z"/>
</g>
<g id="bone">
<g id="bone1_clothes">
<path class="path-23" d="M240.108,389.746C240.109,389.741,251.818,331.926,251.819,331.920C251.819,331.926,251.179,390.911,251.178,390.917C251.177,390.917,240.109,389.747,240.108,389.746"/>
</g>
<g id="bone2_clothes">
<path class="path-23" d="M244.962,331.250C244.963,331.243,250.822,258.953,250.823,258.946C250.824,258.953,258.729,331.047,258.730,331.054C258.729,331.054,244.964,331.250,244.962,331.250"/>
</g>
<g id="bone3_neck">
<path class="path-23" d="M254.265,258.142C254.265,258.138,254.606,216.439,254.606,216.435C254.606,216.439,247.694,257.562,247.693,257.567C247.694,257.567,254.265,258.142,254.265,258.142"/>
</g>
<g id="bone4_head">
<path class="path-23" d="M248.646,216.915C248.646,216.907,248.158,138.844,248.158,138.836C248.159,138.844,261.063,215.834,261.064,215.841C261.063,215.842,248.647,216.915,248.646,216.915"/>
</g>
<g id="bone5_left_arm">
<path class="path-23" d="M314.460,262.993C314.462,263.003,331.835,353.823,331.836,353.832C331.833,353.823,299.279,267.276,299.276,267.268C299.277,267.267,314.459,262.994,314.460,262.993"/>
</g>
<g id="bone6_left_arm">
<path class="path-23" d="M326.607,354.681C326.608,354.687,339.485,417.110,339.486,417.116C339.486,417.109,336.972,353.423,336.971,353.416C336.970,353.416,326.608,354.681,326.607,354.681"/>
</g>
<g id="bone7_right_arm">
<path class="path-23" d="M184.835,269.880C184.832,269.892,158.581,382.368,158.578,382.379C158.583,382.369,202.251,275.443,202.256,275.433C202.254,275.432,184.836,269.881,184.835,269.880"/>
</g>
<g id="bone8_right_arm">
<path class="path-23" d="M163.493,378.346C163.495,378.352,182.599,434.726,182.601,434.731C182.598,434.726,152.559,383.339,152.556,383.334C152.557,383.334,163.492,378.347,163.493,378.346"/>
</g>
<g id="bone9_left_leg">
<path class="path-23" d="M277.752,387.561C277.755,387.571,305.899,487.716,305.902,487.726C305.897,487.716,260.594,394.080,260.590,394.070C260.591,394.070,277.750,387.561,277.752,387.561"/>
</g>
<g id="bone10_right_leg">
<path class="path-23" d="M215.580,388.822C215.580,388.832,210.028,491.252,210.028,491.262C210.030,491.252,230.955,390.839,230.957,390.829C230.955,390.829,215.582,388.822,215.580,388.822"/>
</g>
<g id="bone11_hair">
<path class="path-23" d="M257.263,160.184C257.264,160.192,268.661,239.562,268.662,239.570C268.660,239.562,242.930,163.618,242.927,163.610C242.929,163.610,257.262,160.184,257.263,160.184"/>
</g>
<g id="bone12_left_leg_S">
<path class="path-23" d="M435.434,222.283C435.441,222.283,507.752,224.465,507.759,224.465C507.752,224.463,436.782,210.431,436.775,210.430C436.775,210.431,435.434,222.282,435.434,222.283"/>
</g>
<g id="bone13_right_leg_S">
<path class="path-23" d="M495.583,210.765C495.576,210.766,424.538,224.452,424.531,224.453C424.539,224.453,496.860,222.625,496.867,222.624C496.867,222.623,495.584,210.766,495.583,210.765"/>
</g>
<g id="bone14_left_arm_S">
<path class="path-23" d="M557.459,215.989C557.458,215.981,551.495,143.884,551.494,143.876C551.494,143.884,545.530,215.981,545.530,215.989C545.531,215.989,557.458,215.989,557.459,215.989"/>
</g>
<g id="bone15_jacket_S">
<path class="path-23" d="M598.724,214.122C598.724,214.129,596.675,286.444,596.675,286.452C596.677,286.444,610.578,215.449,610.580,215.441C610.579,215.441,598.725,214.122,598.724,214.122"/>
</g>
<g id="bone16_pupils_S">
<path class="path-23" d="M442.221,337.675C442.220,337.668,440.191,265.352,440.190,265.345C440.189,265.352,430.310,337.019,430.309,337.026C430.310,337.026,442.219,337.675,442.221,337.675"/>
</g>
<g id="bone17_eyelids_S">
<path class="path-23" d="M497.227,331.526C497.219,331.526,424.926,328.815,424.919,328.815C424.926,328.816,495.791,343.368,495.799,343.369C495.799,343.368,497.226,331.527,497.227,331.526"/>
</g>
<g id="bone18_face_S">
<path class="path-23" d="M555.373,343.546C555.378,343.541,609.981,296.083,609.986,296.078C609.980,296.082,548.322,333.924,548.316,333.928C548.317,333.929,555.372,343.545,555.373,343.546"/>
</g>
</g>
</g>
<style>
.path-0{fill:#000000;fill-rule:evenodd;stroke:none;}
.path-1{fill:none;stroke:#a60d3f;stroke-width:1;stroke-linecap:butt;stroke-linejoin:round;}
.path-2{fill:#a60d3f;fill-rule:evenodd;stroke:none;}
.path-3{fill:none;stroke:#d88e4b;stroke-width:1;stroke-linecap:butt;stroke-linejoin:round;}
.path-4{fill:#d88e4b;fill-rule:evenodd;stroke:none;}
.path-5{fill:none;stroke:#6e2353;stroke-width:1;stroke-linecap:butt;stroke-linejoin:round;}
.path-6{fill:#6e2353;fill-rule:evenodd;stroke:none;}
.path-7{fill:none;stroke:#392966;stroke-width:1;stroke-linecap:butt;stroke-linejoin:round;}
.path-8{fill:#392966;fill-rule:evenodd;stroke:none;}
.path-9{fill:none;stroke:#cc9bc5;stroke-width:1;stroke-linecap:butt;stroke-linejoin:round;}
.path-10{fill:#cc9bc5;fill-rule:evenodd;stroke:none;}
.path-11{fill:none;stroke:#620527;stroke-width:1;stroke-linecap:butt;stroke-linejoin:round;}
.path-12{fill:#620527;fill-rule:evenodd;stroke:none;}
.path-13{fill:none;stroke:#6a3661;stroke-width:1;stroke-linecap:butt;stroke-linejoin:round;}
.path-14{fill:#6a3661;fill-rule:evenodd;stroke:none;}
.path-15{fill:none;stroke:#f8a087;stroke-width:1;stroke-linecap:butt;stroke-linejoin:round;}
.path-16{fill:#f8a087;fill-rule:evenodd;stroke:none;}
.path-17{fill:none;stroke:#ffffff;stroke-width:1;stroke-linecap:butt;stroke-linejoin:round;}
.path-18{fill:#ffffff;fill-rule:evenodd;stroke:none;}
.path-19{fill:none;stroke:#d89f4a;stroke-width:1;stroke-linecap:butt;stroke-linejoin:round;}
.path-20{fill:#d89f4a;fill-rule:evenodd;stroke:none;}
.path-21{fill:none;stroke:#fafd5b;stroke-width:1;stroke-linecap:butt;stroke-linejoin:round;}
.path-22{fill:#fafd5b;fill-rule:evenodd;stroke:none;}
.path-23{fill:none;stroke:#00ff42;stroke-width:8;stroke-linecap:round;stroke-linejoin:round;}
.path-24{fill:none;stroke:#000000;stroke-width:1;stroke-linecap:butt;stroke-linejoin:round;}
.path-25{fill:none;stroke:#ececec;stroke-width:1;stroke-linecap:butt;stroke-linejoin:round;}
.path-26{fill:#ececec;fill-rule:evenodd;stroke:none;}
.path-27{fill:none;stroke:#808080;stroke-width:1;stroke-linecap:butt;stroke-linejoin:round;}
.path-28{fill:#808080;fill-rule:evenodd;stroke:none;}
.path-29{fill:none;stroke:#282828;stroke-width:1;stroke-linecap:butt;stroke-linejoin:round;}
.path-30{fill:#282828;fill-rule:evenodd;stroke:none;}
.path-31{fill:none;stroke:#bdbdbd;stroke-width:1;stroke-linecap:butt;stroke-linejoin:round;}
.path-32{fill:#bdbdbd;fill-rule:evenodd;stroke:none;}
</style>
</svg>
