<svg version="1.1" id="Frame_88" xmlns="http://www.w3.org/2000/svg" xmlns:xlink="http://www.w3.org/1999/xlink" width="480px" height="720px">
<g id="main_bone">
<g id="right_arm">
<path class="path-0" d="M174.126,270.172C175.458,267.511,178.075,262.017,181.778,260.525C188.182,257.943,193.652,263.933,194.431,268.509C196.093,276.447,190.936,287.396,188.470,295.289C182.390,314.329,175.637,333.084,171.132,352.015C170.600,355.317,165.808,376.634,165.808,373.973C165.476,380.626,172.130,386.283,174.459,391.939C177.454,399.590,174.791,406.910,172.795,413.897C168.138,428.535,168.471,433.858,167.804,448.165C167.804,450.492,167.473,458.146,163.812,458.146C160.487,458.146,160.153,452.157,159.488,449.828C159.155,447.167,156.825,441.510,157.492,439.182C157.823,435.190,162.483,436.188,157.492,427.870C151.170,417.555,139.526,409.240,136.532,395.931C134.536,385.285,140.191,375.969,143.186,365.988C149.508,344.695,156.494,323.404,163.812,302.111C167.805,291.132,168.802,281.484,174.126,270.172M193.754,262.188C193.755,253.538,190.761,245.885,180.115,249.546C163.481,255.200,158.822,281.484,154.165,296.122C147.512,316.084,141.855,336.046,136.199,356.007C133.870,364.657,130.544,368.982,129.212,373.973C127.549,379.628,127.881,388.280,128.214,393.935C128.214,411.567,133.869,412.234,140.856,425.874C144.517,433.859,140.525,438.849,142.852,445.835C144.517,450.492,148.176,453.820,150.837,457.813C153.166,461.805,153.499,464.135,155.162,467.793C157.158,472.119,163.481,481.767,169.136,479.771C173.793,478.108,173.793,469.790,174.126,465.797C174.459,459.809,178.119,436.853,179.450,429.866C181.778,418.554,187.435,406.245,185.770,393.935C184.440,384.619,176.122,377.965,176.456,367.985C176.787,362.661,180.115,354.011,181.113,348.023C182.776,338.375,182.776,328.061,184.772,318.081C188.099,300.448,194.421,280.487,193.754,262.188Z"/>
<path class="path-1" d="M181.778,260.525C188.182,257.943,193.652,263.933,194.431,268.509"/>
<path class="path-1" d="M194.431,268.509C196.093,276.447,190.936,287.396,188.470,295.289"/>
<path class="path-1" d="M188.470,295.289C182.390,314.329,175.637,333.084,171.132,352.015"/>
<path class="path-1" d="M171.132,352.015C170.600,355.317,165.808,376.634,165.808,373.973"/>
<path class="path-1" d="M165.808,373.973C165.476,380.626,172.130,386.283,174.459,391.939"/>
<path class="path-1" d="M174.459,391.939C177.454,399.590,174.791,406.910,172.795,413.897"/>
<path class="path-1" d="M172.795,413.897C168.138,428.535,168.471,433.858,167.804,448.165"/>
<path class="path-1" d="M167.804,448.165C167.804,450.492,167.473,458.146,163.812,458.146"/>
<path class="path-1" d="M163.812,458.146C160.487,458.146,160.153,452.157,159.488,449.828"/>
<path class="path-1" d="M159.488,449.828C159.155,447.167,156.825,441.510,157.492,439.182"/>
<path class="path-1" d="M157.492,439.182C157.823,435.190,162.483,436.188,157.492,427.870"/>
<path class="path-1" d="M157.492,427.870C151.170,417.555,139.526,409.240,136.532,395.931"/>
<path class="path-1" d="M136.532,395.931C134.536,385.285,140.191,375.969,143.186,365.988"/>
<path class="path-1" d="M143.186,365.988C149.508,344.695,156.494,323.404,163.812,302.111"/>
<path class="path-1" d="M163.812,302.111C167.805,291.132,168.802,281.484,174.126,270.172"/>
<path class="path-1" d="M174.126,270.172C175.458,267.511,178.075,262.017,181.778,260.525"/>
<path class="path-2" d="M181.778,260.525C188.182,257.943,193.652,263.933,194.431,268.509C196.093,276.447,190.936,287.396,188.470,295.289C182.390,314.329,175.637,333.084,171.132,352.015C170.600,355.317,165.808,376.634,165.808,373.973C165.476,380.626,172.130,386.283,174.459,391.939C177.454,399.590,174.791,406.910,172.795,413.897C168.138,428.535,168.471,433.858,167.804,448.165C167.804,450.492,167.473,458.146,163.812,458.146C160.487,458.146,160.153,452.157,159.488,449.828C159.155,447.167,156.825,441.510,157.492,439.182C157.823,435.190,162.483,436.188,157.492,427.870C151.170,417.555,139.526,409.240,136.532,395.931C134.536,385.285,140.191,375.969,143.186,365.988C149.508,344.695,156.494,323.404,163.812,302.111C167.805,291.132,168.802,281.484,174.126,270.172C175.458,267.511,178.075,262.017,181.778,260.525Z"/>
</g>
<g id="layer_right_leg">
<g id="right_sole">
<path class="path-0" d="M200.078,651.334C201.416,651.687,215.880,651.302,217.414,651.329C218.721,651.381,227.105,651.629,228.217,651.565C228.893,651.549,235.976,651.585,236.501,652.160C236.432,651.506,228.371,653.147,227.886,653.151C227.065,653.198,202.683,653.018,202.409,653.108C201.103,653.169,190.789,651.856,190.266,650.881C191.186,650.310,198.572,650.934,200.078,651.334M232.846,646.951C232.853,647.229,231.642,648.384,231.219,648.368C230.351,648.339,220.288,649.566,219.165,649.231C217.871,649.085,211.481,648.545,210.311,648.455C208.047,648.279,195.300,648.028,193.154,647.328C192.882,647.184,192.068,646.590,192.030,646.431C192.011,646.139,197.370,646.564,198.494,646.564C200.286,646.564,210.569,646.667,212.406,646.687C214.380,646.710,225.329,647.057,227.350,646.891C227.666,646.873,232.670,646.256,232.846,646.951M237.003,645.305C227.959,642.430,220.054,645.061,212.334,645.043C206.112,645.040,193.705,642.764,186.617,645.819C185.529,646.287,183.664,647.066,183.556,648.314C183.423,649.906,186.044,653.150,187.915,654.385C190.234,655.916,195.071,655.949,196.990,656.242C206.714,658.092,218.998,656.965,229.090,656.738C236.478,656.580,238.220,653.466,238.991,649.948C239.315,648.468,239.858,646.172,237.003,645.305Z"/>
<path class="path-24" d="M200.078,651.334C201.416,651.687,215.880,651.302,217.414,651.329"/>
<path class="path-24" d="M217.414,651.329C218.721,651.381,227.105,651.629,228.217,651.565"/>
<path class="path-24" d="M228.217,651.565C228.893,651.549,235.976,651.585,236.501,652.160"/>
<path class="path-24" d="M236.501,652.160C236.432,651.506,228.371,653.147,227.886,653.151"/>
<path class="path-24" d="M227.886,653.151C227.065,653.198,202.683,653.018,202.409,653.108"/>
<path class="path-24" d="M202.409,653.108C201.103,653.169,190.789,651.856,190.266,650.881"/>
<path class="path-24" d="M190.266,650.881C191.186,650.310,198.572,650.934,200.078,651.334"/>
<path class="path-0" d="M200.078,651.334C201.416,651.687,215.880,651.302,217.414,651.329C218.721,651.381,227.105,651.629,228.217,651.565C228.893,651.549,235.976,651.585,236.501,652.160C236.432,651.506,228.371,653.147,227.886,653.151C227.065,653.198,202.683,653.018,202.409,653.108C201.103,653.169,190.789,651.856,190.266,650.881C191.186,650.310,198.572,650.934,200.078,651.334Z"/>
<path class="path-24" d="M198.494,646.564C200.286,646.564,210.569,646.667,212.406,646.687"/>
<path class="path-24" d="M212.406,646.687C214.380,646.710,225.329,647.057,227.350,646.891"/>
<path class="path-24" d="M227.350,646.891C227.666,646.873,232.670,646.256,232.846,646.951"/>
<path class="path-24" d="M232.846,646.951C232.853,647.229,231.642,648.384,231.219,648.368"/>
<path class="path-24" d="M231.219,648.368C230.351,648.339,220.288,649.566,219.165,649.231"/>
<path class="path-24" d="M219.165,649.231C217.871,649.085,211.481,648.545,210.311,648.455"/>
<path class="path-24" d="M210.311,648.455C208.047,648.279,195.300,648.028,193.154,647.328"/>
<path class="path-24" d="M193.154,647.328C192.882,647.184,192.068,646.590,192.030,646.431"/>
<path class="path-24" d="M192.030,646.431C192.011,646.139,197.370,646.564,198.494,646.564"/>
<path class="path-0" d="M198.494,646.564C200.286,646.564,210.569,646.667,212.406,646.687C214.380,646.710,225.329,647.057,227.350,646.891C227.666,646.873,232.670,646.256,232.846,646.951C232.853,647.229,231.642,648.384,231.219,648.368C230.351,648.339,220.288,649.566,219.165,649.231C217.871,649.085,211.481,648.545,210.311,648.455C208.047,648.279,195.300,648.028,193.154,647.328C192.882,647.184,192.068,646.590,192.030,646.431C192.011,646.139,197.370,646.564,198.494,646.564Z"/>
</g>
<g id="right_heel">
<path class="path-0" d="M189.662,576.314C190.339,561.047,191.543,549.217,210.167,546.519C218.488,545.160,234.342,547.786,238.924,555.831C241.327,559.817,240.598,565.668,240.821,569.929C241.244,576.836,245.415,590.206,235.673,591.762C235.054,591.923,218.020,592.090,212.703,592.190C205.603,592.985,198.247,593.427,193.123,588.505C190.665,585.623,189.441,579.750,189.662,576.314M247.865,554.235C244.197,544.494,230.788,539.019,221.362,540.401C209.115,542.045,196.575,537.984,188.596,549.446C182.515,558.181,181.733,574.219,183.536,584.412C184.227,589.218,187.268,597.979,191.260,600.639C194.189,602.502,198.715,601.963,202.177,601.969C219.086,602.265,249.347,608.044,248.950,582.816C248.782,576.485,249.731,559.244,247.865,554.235Z"/>
<path class="path-3" d="M210.167,546.519C218.488,545.160,234.342,547.786,238.924,555.831"/>
<path class="path-3" d="M238.924,555.831C241.327,559.817,240.598,565.668,240.821,569.929"/>
<path class="path-3" d="M240.821,569.929C241.244,576.836,245.415,590.206,235.673,591.762"/>
<path class="path-3" d="M235.673,591.762C235.054,591.923,218.020,592.090,212.703,592.190"/>
<path class="path-3" d="M212.703,592.190C205.603,592.985,198.247,593.427,193.123,588.505"/>
<path class="path-3" d="M193.123,588.505C190.665,585.623,189.441,579.750,189.662,576.314"/>
<path class="path-3" d="M189.662,576.314C190.339,561.047,191.543,549.217,210.167,546.519"/>
<path class="path-4" d="M210.167,546.519C218.488,545.160,234.342,547.786,238.924,555.831C241.327,559.817,240.598,565.668,240.821,569.929C241.244,576.836,245.415,590.206,235.673,591.762C235.054,591.923,218.020,592.090,212.703,592.190C205.603,592.985,198.247,593.427,193.123,588.505C190.665,585.623,189.441,579.750,189.662,576.314C190.339,561.047,191.543,549.217,210.167,546.519Z"/>
</g>
<g id="right_toe">
<path class="path-0" d="M185.039,630.917C185.983,619.960,190.848,606.470,204.108,604.188C207.429,603.438,212.193,604.685,215.934,605.261C234.582,608.082,242.004,611.945,243.412,630.917C243.654,635.391,244.524,640.797,241.503,644.670C237.671,649.495,217.618,649.747,211.504,649.781C201.376,650.057,192.891,651.573,186.595,642.245C183.746,637.930,184.630,635.736,185.039,630.917M249.053,613.677C243.077,601.696,215.166,594.972,202.599,597.117C184.248,600.354,177.360,614.121,176.087,629.660C175.600,635.104,174.938,641.213,177.895,645.887C179.107,647.802,181.797,650.132,183.529,651.603C195.097,662.294,202.601,661.354,217.268,660.562C225.411,660.259,238.576,658.149,245.052,652.613C249.326,648.601,250.300,644.568,250.609,639.053C250.715,633.821,251.181,617.555,249.053,613.677Z"/>
<path class="path-3" d="M204.108,604.188C207.429,603.438,212.193,604.685,215.934,605.261"/>
<path class="path-3" d="M215.934,605.261C234.582,608.082,242.004,611.945,243.412,630.917"/>
<path class="path-3" d="M243.412,630.917C243.654,635.391,244.524,640.797,241.503,644.670"/>
<path class="path-3" d="M241.503,644.670C237.671,649.495,217.618,649.747,211.504,649.781"/>
<path class="path-3" d="M211.504,649.781C201.376,650.057,192.891,651.573,186.595,642.245"/>
<path class="path-3" d="M186.595,642.245C183.746,637.930,184.630,635.736,185.039,630.917"/>
<path class="path-3" d="M185.039,630.917C185.983,619.960,190.848,606.470,204.108,604.188"/>
<path class="path-4" d="M204.108,604.188C207.429,603.438,212.193,604.685,215.934,605.261C234.582,608.082,242.004,611.945,243.412,630.917C243.654,635.391,244.524,640.797,241.503,644.670C237.671,649.495,217.618,649.747,211.504,649.781C201.376,650.057,192.891,651.573,186.595,642.245C183.746,637.930,184.630,635.736,185.039,630.917C185.983,619.960,190.848,606.470,204.108,604.188Z"/>
</g>
<g id="right_leg">
<path class="path-0" d="M185.153,403.329C187.872,392.247,203.109,390.436,212.784,393.055C218.553,394.490,228.134,397.057,231.565,402.320C234.443,406.734,234.393,414.868,232.677,419.850C230.577,425.947,211.592,435.073,218.122,435.667C227.117,436.526,232.610,424.467,237.939,427.971C241.043,430.012,239.833,435.893,239.992,440.183C241.589,458.225,237.068,476.933,235.323,494.418C234.648,500.569,231.323,509.402,231.977,515.100C233.295,531.373,232.221,534.638,232.787,544.313C232.774,547.718,232.384,564.907,233.165,569.408C234.114,574.305,234.709,579.614,235.653,584.537C236.988,591.495,233.763,603.520,228.700,607.802C225.387,610.494,213.636,616.018,209.345,615.123C204.344,614.232,199.388,607.647,196.572,602.988C195.207,600.981,189.964,591.897,189.615,589.286C189.143,584.335,189.029,582.771,189.408,576.960C189.615,570.404,194.308,563.699,193.020,557.111C188.274,533.557,186.719,502.024,188.159,486.642C188.970,474.886,185.760,435.802,186.408,424.894C187.209,413.207,183.770,411.150,185.153,403.329M208.062,381.294C202.406,379.297,198.042,373.860,192.092,375.969C190.504,376.685,187.752,378.726,186.619,379.879C171.095,393.271,171.769,406.521,171.649,425.557C171.288,433.069,169.952,440.899,170.756,448.082C171.335,454.385,173.341,459.636,173.574,465.584C174.178,471.365,174.133,477.532,174.768,484.691C175.725,493.129,178.587,502.914,179.491,517.309C179.381,529.350,179.952,540.665,180.038,552.175C180.161,555.187,179.463,562.264,179.227,564.582C178.113,569.198,176.186,574.507,175.488,578.939C174.911,584.757,177.106,590.456,179.249,595.568C181.212,601.047,183.874,607.950,187.465,612.078C190.317,615.356,194.425,617.550,198.011,619.613C201.718,621.718,205.103,623.570,209.222,624.811C212.459,625.813,215.726,627.159,219.244,626.965C220.556,626.688,230.799,622.485,232.762,621.576C234.203,620.805,235.492,618.432,236.719,617.215C238.185,615.595,241.220,614.925,243.019,613.581C246.493,610.983,250.646,608.859,252.980,605.198C264.929,585.874,249.768,572.084,246.691,552.477C245.215,543.067,244.322,523.476,245.171,512.961C246.008,499.061,251.055,486.012,252.307,471.711C252.874,466.440,253.247,460.102,253.751,454.079C254.065,449.338,252.252,445.674,251.749,441.022C251.079,437.051,251.291,424.182,250.646,419.885C250.238,416.189,250.314,411.567,248.983,407.908C245.324,398.592,231.351,388.280,222.034,385.285C217.377,383.621,212.387,383.290,208.062,381.294Z"/>
<path class="path-7" d="M212.784,393.055C218.553,394.490,228.134,397.057,231.565,402.320"/>
<path class="path-7" d="M231.565,402.320C234.443,406.734,234.393,414.868,232.677,419.850"/>
<path class="path-7" d="M232.677,419.850C230.577,425.947,211.592,435.073,218.122,435.667"/>
<path class="path-7" d="M218.122,435.667C227.117,436.526,232.610,424.467,237.939,427.971"/>
<path class="path-7" d="M237.939,427.971C241.043,430.012,239.833,435.893,239.992,440.183"/>
<path class="path-7" d="M239.992,440.183C241.589,458.225,237.068,476.933,235.323,494.418"/>
<path class="path-7" d="M235.323,494.418C234.648,500.569,231.323,509.402,231.977,515.100"/>
<path class="path-7" d="M231.977,515.100C233.295,531.373,232.221,534.638,232.787,544.313"/>
<path class="path-7" d="M232.787,544.313C232.774,547.718,232.384,564.907,233.165,569.408"/>
<path class="path-7" d="M233.165,569.408C234.114,574.305,234.709,579.614,235.653,584.537"/>
<path class="path-7" d="M235.653,584.537C236.988,591.495,233.763,603.520,228.700,607.802"/>
<path class="path-7" d="M228.700,607.802C225.387,610.494,213.636,616.018,209.345,615.123"/>
<path class="path-7" d="M209.345,615.123C204.344,614.232,199.388,607.647,196.572,602.988"/>
<path class="path-7" d="M196.572,602.988C195.207,600.981,189.964,591.897,189.615,589.286"/>
<path class="path-7" d="M189.615,589.286C189.143,584.335,189.029,582.771,189.408,576.960"/>
<path class="path-7" d="M189.408,576.960C189.615,570.404,194.308,563.699,193.020,557.111"/>
<path class="path-7" d="M193.020,557.111C188.274,533.557,186.719,502.024,188.159,486.642"/>
<path class="path-7" d="M188.159,486.642C188.970,474.886,185.760,435.802,186.408,424.894"/>
<path class="path-7" d="M186.408,424.894C187.209,413.207,183.770,411.150,185.153,403.329"/>
<path class="path-7" d="M185.153,403.329C187.872,392.247,203.109,390.436,212.784,393.055"/>
<path class="path-8" d="M212.784,393.055C218.553,394.490,228.134,397.057,231.565,402.320C234.443,406.734,234.393,414.868,232.677,419.850C230.577,425.947,211.592,435.073,218.122,435.667C227.117,436.526,232.610,424.467,237.939,427.971C241.043,430.012,239.833,435.893,239.992,440.183C241.589,458.225,237.068,476.933,235.323,494.418C234.648,500.569,231.323,509.402,231.977,515.100C233.295,531.373,232.221,534.638,232.787,544.313C232.774,547.718,232.384,564.907,233.165,569.408C234.114,574.305,234.709,579.614,235.653,584.537C236.988,591.495,233.763,603.520,228.700,607.802C225.387,610.494,213.636,616.018,209.345,615.123C204.344,614.232,199.388,607.647,196.572,602.988C195.207,600.981,189.964,591.897,189.615,589.286C189.143,584.335,189.029,582.771,189.408,576.960C189.615,570.404,194.308,563.699,193.020,557.111C188.274,533.557,186.719,502.024,188.159,486.642C188.970,474.886,185.760,435.802,186.408,424.894C187.209,413.207,183.770,411.150,185.153,403.329C187.872,392.247,203.109,390.436,212.784,393.055Z"/>
</g>
</g>
<g id="layer_left_leg">
<g id="left_heel">
<path class="path-0" d="M245.535,665.131C241.382,652.764,253.955,639.643,265.055,638.743C284.060,637.160,303.029,654.699,301.338,661.575C297.795,674.254,274.168,671.628,262.970,670.914C258.378,670.470,246.930,669.344,245.535,665.131M295.148,634.556C279.611,623.761,248.466,625.796,235.822,637.529C224.491,647.960,223.786,682.736,238.661,684.755C255.741,687.090,297.010,684.790,305.578,680.749C315.113,676.399,313.969,661.758,310.711,652.518C307.991,646.054,301.023,638.763,295.148,634.556Z"/>
<path class="path-3" d="M265.055,638.743C284.060,637.160,303.029,654.699,301.338,661.575"/>
<path class="path-3" d="M301.338,661.575C297.795,674.254,274.168,671.628,262.970,670.914"/>
<path class="path-3" d="M262.970,670.914C258.378,670.470,246.930,669.344,245.535,665.131"/>
<path class="path-3" d="M245.535,665.131C241.382,652.764,253.955,639.643,265.055,638.743"/>
<path class="path-4" d="M265.055,638.743C284.060,637.160,303.029,654.699,301.338,661.575C297.795,674.254,274.168,671.628,262.970,670.914C258.378,670.470,246.930,669.344,245.535,665.131C241.382,652.764,253.955,639.643,265.055,638.743Z"/>
</g>
<g id="left_leg">
<path class="path-0" d="M238.898,405.789C240.468,401.120,250.102,404.852,253.973,404.581C260.669,404.437,276.104,400.802,281.255,405.287C286.669,409.692,285.198,429.211,285.408,435.922C285.464,457.032,290.677,476.504,293.570,496.683C295.628,513.960,296.093,532.173,300.591,548.630C303.315,557.181,310.112,564.508,313.095,572.427C315.307,584.203,322.091,597.489,315.129,606.144C300.463,622.206,295.102,616.366,281.274,623.306C270.466,628.321,253.260,623.184,244.472,616.872C239.003,613.216,229.439,604.816,228.033,598.480C220.478,564.417,225.769,523.798,227.915,489.643C228.730,476.680,240.166,450.730,238.338,436.874C237.852,433.185,237.988,431.637,239.540,428.406C240.503,426.390,237.696,419.534,237.375,417.290C236.690,414.258,237.774,408.611,238.898,405.789M288.501,398.240C281.809,392.528,262.101,394.085,253.973,394.933C249.550,395.378,235.308,393.762,232.362,396.233C223.639,403.552,229.707,424.020,230.095,433.295C229.896,441.437,217.376,478.576,215.534,489.384C212.490,516.963,208.229,540.891,210.831,568.515C212.348,587.270,212.607,606.313,221.585,622.554C232.374,641.750,250.594,643.148,276.130,639.146C296.192,636.159,322.456,639.102,329.443,609.236C334.747,586.630,325.508,559.807,321.697,551.990C317.907,544.220,312.267,536.893,309.357,528.097C303.495,512.242,303.613,494.853,301.343,478.004C298.831,459.222,303.689,411.261,288.501,398.240Z"/>
<path class="path-7" d="M253.973,404.581C260.669,404.437,276.104,400.802,281.255,405.287"/>
<path class="path-7" d="M281.255,405.287C286.669,409.692,285.198,429.211,285.408,435.922"/>
<path class="path-7" d="M285.408,435.922C285.464,457.032,290.677,476.504,293.570,496.683"/>
<path class="path-7" d="M293.570,496.683C295.628,513.960,296.093,532.173,300.591,548.630"/>
<path class="path-7" d="M300.591,548.630C303.315,557.181,310.112,564.508,313.095,572.427"/>
<path class="path-7" d="M313.095,572.427C315.307,584.203,322.091,597.489,315.129,606.144"/>
<path class="path-7" d="M315.129,606.144C300.463,622.206,295.102,616.366,281.274,623.306"/>
<path class="path-7" d="M281.274,623.306C270.466,628.321,253.260,623.184,244.472,616.872"/>
<path class="path-7" d="M244.472,616.872C239.003,613.216,229.439,604.816,228.033,598.480"/>
<path class="path-7" d="M228.033,598.480C220.478,564.417,225.769,523.798,227.915,489.643"/>
<path class="path-7" d="M227.915,489.643C228.730,476.680,240.166,450.730,238.338,436.874"/>
<path class="path-7" d="M238.338,436.874C237.852,433.185,237.988,431.637,239.540,428.406"/>
<path class="path-7" d="M239.540,428.406C240.503,426.390,237.696,419.534,237.375,417.290"/>
<path class="path-7" d="M237.375,417.290C236.690,414.258,237.774,408.611,238.898,405.789"/>
<path class="path-7" d="M238.898,405.789C240.468,401.120,250.102,404.852,253.973,404.581"/>
<path class="path-8" d="M253.973,404.581C260.669,404.437,276.104,400.802,281.255,405.287C286.669,409.692,285.198,429.211,285.408,435.922C285.464,457.032,290.677,476.504,293.570,496.683C295.628,513.960,296.093,532.173,300.591,548.630C303.315,557.181,310.112,564.508,313.095,572.427C315.307,584.203,322.091,597.489,315.129,606.144C300.463,622.206,295.102,616.366,281.274,623.306C270.466,628.321,253.260,623.184,244.472,616.872C239.003,613.216,229.439,604.816,228.033,598.480C220.478,564.417,225.769,523.798,227.915,489.643C228.730,476.680,240.166,450.730,238.338,436.874C237.852,433.185,237.988,431.637,239.540,428.406C240.503,426.390,237.696,419.534,237.375,417.290C236.690,414.258,237.774,408.611,238.898,405.789C240.468,401.120,250.102,404.852,253.973,404.581Z"/>
</g>
<g id="left_toe">
<path class="path-0" d="M250.394,658.365C213.413,645.358,237.787,586.742,259.602,588.564C292.220,591.289,303.547,609.334,308.906,620.061C314.177,630.711,313.666,642.637,306.717,652.614C295.703,665.923,264.969,663.502,250.394,658.365M313.171,594.762C300.471,585.028,281.855,570.702,263.036,574.289C240.014,578.679,219.780,594.296,216.314,620.885C213.541,637.756,215.643,654.509,226.638,667.603C236.059,678.139,267.424,678.963,280.894,677.984C293.948,676.126,311.741,674.643,319.762,662.899C328.813,650.058,325.359,604.104,313.171,594.762Z"/>
<path class="path-3" d="M259.602,588.564C292.220,591.289,303.547,609.334,308.906,620.061"/>
<path class="path-3" d="M308.906,620.061C314.177,630.711,313.666,642.637,306.717,652.614"/>
<path class="path-3" d="M306.717,652.614C295.703,665.923,264.969,663.502,250.394,658.365"/>
<path class="path-3" d="M250.394,658.365C213.413,645.358,237.787,586.742,259.602,588.564"/>
<path class="path-4" d="M259.602,588.564C292.220,591.289,303.547,609.334,308.906,620.061C314.177,630.711,313.666,642.637,306.717,652.614C295.703,665.923,264.969,663.502,250.394,658.365C213.413,645.358,237.787,586.742,259.602,588.564Z"/>
</g>
<g id="left_sole">
<path class="path-0" d="M250.777,674.149C242.610,671.686,237.634,670.480,238.451,669.186C240.739,665.563,250.412,663.850,257.620,662.462C263.918,661.310,282.671,665.939,293.375,665.682C296.638,665.865,305.923,669.966,305.979,670.221C307.297,676.212,293.283,672.440,289.311,672.887C282.030,674.001,252.011,673.874,250.777,674.149M235.057,658.738C232.995,655.526,244.653,648.792,247.785,647.856C278.849,638.574,297.534,646.164,306.611,651.015C308.945,652.257,315.308,658.058,312.866,660.667C309.450,664.316,297.090,654.504,284.656,653.621C261.147,651.751,238.191,663.619,235.057,658.738M319.767,652.601C313.622,644.594,293.211,635.273,266.447,635.736C252.738,635.969,229.066,642.226,225.680,656.311C224.352,661.893,229.336,679.339,234.449,681.682C246.685,687.318,312.107,683.579,316.847,677.169C320.634,672.047,322.277,655.871,319.767,652.601Z"/>
<path class="path-5" d="M238.451,669.186C240.739,665.563,250.412,663.850,257.620,662.462"/>
<path class="path-5" d="M257.620,662.462C263.918,661.310,282.671,665.939,293.375,665.682"/>
<path class="path-5" d="M293.375,665.682C296.638,665.865,305.923,669.966,305.979,670.221"/>
<path class="path-5" d="M305.979,670.221C307.297,676.212,293.283,672.440,289.311,672.887"/>
<path class="path-5" d="M289.311,672.887C282.030,674.001,252.011,673.874,250.777,674.149"/>
<path class="path-5" d="M250.777,674.149C242.610,671.686,237.634,670.480,238.451,669.186"/>
<path class="path-6" d="M238.451,669.186C240.739,665.563,250.412,663.850,257.620,662.462C263.918,661.310,282.671,665.939,293.375,665.682C296.638,665.865,305.923,669.966,305.979,670.221C307.297,676.212,293.283,672.440,289.311,672.887C282.030,674.001,252.011,673.874,250.777,674.149C242.610,671.686,237.634,670.480,238.451,669.186Z"/>
<path class="path-5" d="M247.785,647.856C278.849,638.574,297.534,646.164,306.611,651.015"/>
<path class="path-5" d="M306.611,651.015C308.945,652.257,315.308,658.058,312.866,660.667"/>
<path class="path-5" d="M312.866,660.667C309.450,664.316,297.090,654.504,284.656,653.621"/>
<path class="path-5" d="M284.656,653.621C261.147,651.751,238.191,663.619,235.057,658.738"/>
<path class="path-5" d="M235.057,658.738C232.995,655.526,244.653,648.792,247.785,647.856"/>
<path class="path-6" d="M247.785,647.856C278.849,638.574,297.534,646.164,306.611,651.015C308.945,652.257,315.308,658.058,312.866,660.667C309.450,664.316,297.090,654.504,284.656,653.621C261.147,651.751,238.191,663.619,235.057,658.738C232.995,655.526,244.653,648.792,247.785,647.856Z"/>
</g>
</g>
<g id="hat_brim">
<path class="path-0" d="M284.469,148.564C288.128,142.576,297.111,126.273,305.095,126.273C310.419,126.273,321.398,135.922,327.053,138.917C332.044,141.911,337.368,144.572,343.023,147.233C346.235,148.903,349.451,150.566,352.670,152.223C366.977,159.544,362.984,165.866,354.666,164.534C336.036,161.206,333.042,162.538,315.076,153.222C312.747,152.223,306.758,148.898,305.760,153.222C304.431,158.212,313.414,162.538,317.073,164.201C323.726,167.862,331.046,171.854,339.030,172.519C341.360,172.852,349.345,172.185,350.674,174.514C352.670,177.842,343.023,186.492,341.027,188.488C337.699,191.482,334.373,194.476,331.046,196.806C326.055,200.132,320.731,203.126,315.076,204.124C304.431,205.455,271.161,190.151,270.162,178.507C269.498,171.854,280.476,154.886,284.469,148.564M317.073,121.949C312.082,117.623,308.423,111.301,301.103,114.629C295.779,116.959,290.124,124.610,286.465,128.603C272.824,145.237,260.515,164.867,261.180,186.492C261.513,200.131,266.170,199.800,277.149,205.122C293.783,213.440,315.076,216.101,333.042,207.785C344.686,202.461,364.981,184.496,370.305,172.519C371.967,168.526,374.961,159.544,372.632,154.887C369.971,149.229,347.680,139.582,341.027,135.923C333.042,131.597,324.059,127.604,317.073,121.949Z"/>
<path class="path-9" d="M305.095,126.273C310.419,126.273,321.398,135.922,327.053,138.917"/>
<path class="path-9" d="M327.053,138.917C332.044,141.911,337.368,144.572,343.023,147.233"/>
<path class="path-9" d="M343.023,147.233C346.235,148.903,349.451,150.566,352.670,152.223"/>
<path class="path-9" d="M352.670,152.223C366.977,159.544,362.984,165.866,354.666,164.534"/>
<path class="path-9" d="M354.666,164.534C336.036,161.206,333.042,162.538,315.076,153.222"/>
<path class="path-9" d="M315.076,153.222C312.747,152.223,306.758,148.898,305.760,153.222"/>
<path class="path-9" d="M305.760,153.222C304.431,158.212,313.414,162.538,317.073,164.201"/>
<path class="path-9" d="M317.073,164.201C323.726,167.862,331.046,171.854,339.030,172.519"/>
<path class="path-9" d="M339.030,172.519C341.360,172.852,349.345,172.185,350.674,174.514"/>
<path class="path-9" d="M350.674,174.514C352.670,177.842,343.023,186.492,341.027,188.488"/>
<path class="path-9" d="M341.027,188.488C337.699,191.482,334.373,194.476,331.046,196.806"/>
<path class="path-9" d="M331.046,196.806C326.055,200.132,320.731,203.126,315.076,204.124"/>
<path class="path-9" d="M315.076,204.124C304.431,205.455,271.161,190.151,270.162,178.507"/>
<path class="path-9" d="M270.162,178.507C269.498,171.854,280.476,154.886,284.469,148.564"/>
<path class="path-9" d="M284.469,148.564C288.128,142.576,297.111,126.273,305.095,126.273"/>
<path class="path-10" d="M305.095,126.273C310.419,126.273,321.398,135.922,327.053,138.917C332.044,141.911,337.368,144.572,343.023,147.233C346.235,148.903,349.451,150.566,352.670,152.223C366.977,159.544,362.984,165.866,354.666,164.534C336.036,161.206,333.042,162.538,315.076,153.222C312.747,152.223,306.758,148.898,305.760,153.222C304.431,158.212,313.414,162.538,317.073,164.201C323.726,167.862,331.046,171.854,339.030,172.519C341.360,172.852,349.345,172.185,350.674,174.514C352.670,177.842,343.023,186.492,341.027,188.488C337.699,191.482,334.373,194.476,331.046,196.806C326.055,200.132,320.731,203.126,315.076,204.124C304.431,205.455,271.161,190.151,270.162,178.507C269.498,171.854,280.476,154.886,284.469,148.564C288.128,142.576,297.111,126.273,305.095,126.273Z"/>
</g>
<g id="hair">
<path class="path-0" d="M183.357,136.483C200.954,124.749,220.906,123.806,241.996,123.120C251.452,122.794,257.886,129.270,265.069,135.626C270.964,141.195,277.299,147.468,283.560,153.313C292.986,162.051,296.930,166.431,300.440,170.614C303.444,173.825,308.105,179.813,311.862,182.674C316.396,186.124,325.422,203.315,327.445,205.266C320.793,207.453,310.356,209.024,305.541,212.830C307.149,218.669,307.424,227.700,307.413,230.409C301.202,230.790,294.008,227.926,282.567,225.752C280.180,232.918,280.142,239.647,275.384,246.902C267.697,244.496,262.345,242.563,252.411,238.043C245.798,243.193,244.261,242.773,233.517,249.212C226.455,244.820,220.838,240.151,213.943,237.253C207.148,240.091,196.403,241.027,192.739,243.925C188.987,236.858,185.547,229.060,182.318,225.662C172.710,227.554,168.576,230.148,161.781,232.559C157.606,227.012,160.654,222.489,156.037,214.349C151.717,213.146,145.049,210.476,139.490,210.322C143.367,205.864,146.319,191.142,152.833,189.327C160.871,187.088,155.875,177.911,160.872,169.755C162.110,167.631,174.016,151.399,175.093,148.739C177.132,144.153,179.361,139.287,183.357,136.483M269.783,123.041C257.623,113.516,232.973,108.192,219.067,111.311C206.306,114.023,193.787,117.926,182.663,125.006C176.433,128.911,169.531,134.686,165.362,140.754C157.036,152.537,144.935,178.372,138.142,190.325C132.704,200.241,127.646,206.923,122.452,212.283C140.007,218.879,145.124,221.586,150.363,222.441C150.613,230.199,157.711,236.027,156.388,244.572C165.209,243.354,170.475,241.177,178.326,239.302C182.258,243.995,184.942,250.348,188.681,256.586C196.418,254.568,204.305,254.940,212.000,249.563C217.496,252.632,226.229,257.403,235.200,262.448C243.544,258.115,245.325,257.880,253.165,252.908C262.619,255.342,272.515,261.315,282.074,260.399C281.484,252.206,287.600,246.647,286.947,241.388C294.168,239.536,316.196,242.966,319.967,242.683C319.803,236.635,316.595,225.026,318.237,217.838C325.064,216.098,330.837,214.510,341.526,209.520C338.121,202.790,331.974,194.414,326.560,189.403C321.990,185.214,318.291,179.689,313.719,175.326C298.212,160.768,292.275,140.745,269.783,123.041Z"/>
<path class="path-11" d="M241.996,123.120C251.452,122.794,257.886,129.270,265.069,135.626"/>
<path class="path-11" d="M265.069,135.626C270.964,141.195,277.299,147.468,283.560,153.313"/>
<path class="path-11" d="M283.560,153.313C292.986,162.051,296.930,166.431,300.440,170.614"/>
<path class="path-11" d="M300.440,170.614C303.444,173.825,308.105,179.813,311.862,182.674"/>
<path class="path-11" d="M311.862,182.674C316.396,186.124,325.422,203.315,327.445,205.266"/>
<path class="path-11" d="M327.445,205.266C320.793,207.453,310.356,209.024,305.541,212.830"/>
<path class="path-11" d="M305.541,212.830C307.149,218.669,307.424,227.700,307.413,230.409"/>
<path class="path-11" d="M307.413,230.409C301.202,230.790,294.008,227.926,282.567,225.752"/>
<path class="path-11" d="M282.567,225.752C280.180,232.918,280.142,239.647,275.384,246.902"/>
<path class="path-11" d="M275.384,246.902C267.697,244.496,262.345,242.563,252.411,238.043"/>
<path class="path-11" d="M252.411,238.043C245.798,243.193,244.261,242.773,233.517,249.212"/>
<path class="path-11" d="M233.517,249.212C226.455,244.820,220.838,240.151,213.943,237.253"/>
<path class="path-11" d="M213.943,237.253C207.148,240.091,196.403,241.027,192.739,243.925"/>
<path class="path-11" d="M192.739,243.925C188.987,236.858,185.547,229.060,182.318,225.662"/>
<path class="path-11" d="M182.318,225.662C172.710,227.554,168.576,230.148,161.781,232.559"/>
<path class="path-11" d="M161.781,232.559C157.606,227.012,160.654,222.489,156.037,214.349"/>
<path class="path-11" d="M156.037,214.349C151.717,213.146,145.049,210.476,139.490,210.322"/>
<path class="path-11" d="M139.490,210.322C143.367,205.864,146.319,191.142,152.833,189.327"/>
<path class="path-11" d="M152.833,189.327C160.871,187.088,155.875,177.911,160.872,169.755"/>
<path class="path-11" d="M160.872,169.755C162.110,167.631,174.016,151.399,175.093,148.739"/>
<path class="path-11" d="M175.093,148.739C177.132,144.153,179.361,139.287,183.357,136.483"/>
<path class="path-11" d="M183.357,136.483C200.954,124.749,220.906,123.806,241.996,123.120"/>
<path class="path-12" d="M241.996,123.120C251.452,122.794,257.886,129.270,265.069,135.626C270.964,141.195,277.299,147.468,283.560,153.313C292.986,162.051,296.930,166.431,300.440,170.614C303.444,173.825,308.105,179.813,311.862,182.674C316.396,186.124,325.422,203.315,327.445,205.266C320.793,207.453,310.356,209.024,305.541,212.830C307.149,218.669,307.424,227.700,307.413,230.409C301.202,230.790,294.008,227.926,282.567,225.752C280.180,232.918,280.142,239.647,275.384,246.902C267.697,244.496,262.345,242.563,252.411,238.043C245.798,243.193,244.261,242.773,233.517,249.212C226.455,244.820,220.838,240.151,213.943,237.253C207.148,240.091,196.403,241.027,192.739,243.925C188.987,236.858,185.547,229.060,182.318,225.662C172.710,227.554,168.576,230.148,161.781,232.559C157.606,227.012,160.654,222.489,156.037,214.349C151.717,213.146,145.049,210.476,139.490,210.322C143.367,205.864,146.319,191.142,152.833,189.327C160.871,187.088,155.875,177.911,160.872,169.755C162.110,167.631,174.016,151.399,175.093,148.739C177.132,144.153,179.361,139.287,183.357,136.483C200.954,124.749,220.906,123.806,241.996,123.120Z"/>
</g>
<g id="clothes">
<path class="path-0" d="M244.680,364.877C238.950,363.338,218.856,368.754,215.697,374.037C213.952,377.166,216.942,378.722,220.059,378.615C224.290,378.471,245.911,373.583,248.649,371.530C252.680,368.433,246.883,365.366,244.680,364.877M191.093,266.179C194.088,253.538,221.037,240.563,234.012,241.561C242.994,242.226,271.274,256.199,275.266,264.517C278.592,271.170,279.590,295.789,279.924,304.107C280.257,319.412,281.516,334.728,282.253,350.019C283.470,362.665,294.408,377.132,287.455,387.765C284.187,391.563,271.769,388.411,266.330,389.302C261.602,390.308,253.338,395.616,248.951,396.371C227.858,400.594,231.198,405.982,211.149,408.235C206.785,408.558,192.682,406.635,189.876,404.681C183.043,398.648,186.221,388.824,187.526,380.144C190.302,365.693,190.593,355.623,191.427,340.038C192.181,323.962,194.088,306.768,194.088,290.134C193.755,284.145,190.429,269.839,191.093,266.179M269.943,247.549C253.640,237.899,237.670,229.915,218.042,235.573C212.718,236.902,186.103,249.877,183.773,253.205C180.115,258.529,183.773,278.821,183.773,286.141C184.107,294.791,184.440,303.774,183.773,312.092C183.442,318.413,182.111,324.069,182.111,330.057C181.777,336.710,181.777,343.884,180.780,350.019C177.585,368.827,167.697,406.638,190.747,417.770C195.434,420.054,201.880,419.690,207.373,419.303C217.157,418.425,227.694,417.111,237.165,413.987C249.340,410.341,259.596,400.932,272.321,399.051C277.905,398.227,295.006,405.431,299.622,401.656C301.591,400.118,304.344,389.476,304.263,386.652C303.132,371.883,293.946,358.651,291.567,344.031C289.972,332.156,289.239,320.410,289.904,308.100C290.237,298.119,291.900,288.471,291.900,278.157C291.567,273.831,292.234,268.510,289.904,264.184C285.912,256.199,277.263,251.873,269.943,247.549Z"/>
<path class="path-13" d="M244.680,364.877C238.950,363.338,218.856,368.754,215.697,374.037"/>
<path class="path-13" d="M215.697,374.037C213.952,377.166,216.942,378.722,220.059,378.615"/>
<path class="path-13" d="M220.059,378.615C224.290,378.471,245.911,373.583,248.649,371.530"/>
<path class="path-13" d="M248.649,371.530C252.680,368.433,246.883,365.366,244.680,364.877"/>
<path class="path-13" d="M191.093,266.179C194.088,253.538,221.037,240.563,234.012,241.561"/>
<path class="path-13" d="M234.012,241.561C242.994,242.226,271.274,256.199,275.266,264.517"/>
<path class="path-13" d="M275.266,264.517C278.592,271.170,279.590,295.789,279.924,304.107"/>
<path class="path-13" d="M279.924,304.107C280.257,319.412,281.516,334.728,282.253,350.019"/>
<path class="path-13" d="M282.253,350.019C283.470,362.665,294.408,377.132,287.455,387.765"/>
<path class="path-13" d="M287.455,387.765C284.187,391.563,271.769,388.411,266.330,389.302"/>
<path class="path-13" d="M266.330,389.302C261.602,390.308,253.338,395.616,248.951,396.371"/>
<path class="path-13" d="M248.951,396.371C227.858,400.594,231.198,405.982,211.149,408.235"/>
<path class="path-13" d="M211.149,408.235C206.785,408.558,192.682,406.635,189.876,404.681"/>
<path class="path-13" d="M189.876,404.681C183.043,398.648,186.221,388.824,187.526,380.144"/>
<path class="path-13" d="M187.526,380.144C190.302,365.693,190.593,355.623,191.427,340.038"/>
<path class="path-13" d="M191.427,340.038C192.181,323.962,194.088,306.768,194.088,290.134"/>
<path class="path-13" d="M194.088,290.134C193.755,284.145,190.429,269.839,191.093,266.179"/>
<path class="path-14" d="M244.680,364.877C238.950,363.338,218.856,368.754,215.697,374.037C213.952,377.166,216.942,378.722,220.059,378.615C224.290,378.471,245.911,373.583,248.649,371.530C252.680,368.433,246.883,365.366,244.680,364.877M191.093,266.179C194.088,253.538,221.037,240.563,234.012,241.561C242.994,242.226,271.274,256.199,275.266,264.517C278.592,271.170,279.590,295.789,279.924,304.107C280.257,319.412,281.516,334.728,282.253,350.019C283.470,362.665,294.408,377.132,287.455,387.765C284.187,391.563,271.769,388.411,266.330,389.302C261.602,390.308,253.338,395.616,248.951,396.371C227.858,400.594,231.198,405.982,211.149,408.235C206.785,408.558,192.682,406.635,189.876,404.681C183.043,398.648,186.221,388.824,187.526,380.144C190.302,365.693,190.593,355.623,191.427,340.038C192.181,323.962,194.088,306.768,194.088,290.134C193.755,284.145,190.429,269.839,191.093,266.179Z"/>
</g>
<g id="neck">
<path class="path-0" d="M229.021,222.597C229.354,219.269,230.353,216.275,234.012,215.942C245.656,213.946,244.657,251.542,234.012,251.542C224.031,251.542,228.356,228.917,229.021,222.597M234.012,206.628C231.351,206.295,228.357,206.959,226.027,208.291C216.711,212.948,218.042,221.599,218.042,230.248C217.708,234.574,218.042,238.567,216.046,242.226C214.383,245.553,209.724,248.879,209.724,252.540C210.057,262.521,237.006,262.521,243.993,262.188C246.653,262.187,255.636,263.185,256.634,259.526C256.634,258.528,249.981,246.883,248.983,242.226C245.989,228.252,255.305,207.626,234.012,206.628Z"/>
<path class="path-15" d="M234.012,215.942C245.656,213.946,244.657,251.542,234.012,251.542"/>
<path class="path-15" d="M234.012,251.542C224.031,251.542,228.356,228.917,229.021,222.597"/>
<path class="path-15" d="M229.021,222.597C229.354,219.269,230.353,216.275,234.012,215.942"/>
<path class="path-16" d="M234.012,215.942C245.656,213.946,244.657,251.542,234.012,251.542C224.031,251.542,228.356,228.917,229.021,222.597C229.354,219.269,230.353,216.275,234.012,215.942Z"/>
</g>
<g id="layer_head">
<g id="right_ear">
<path class="path-0" d="M149.149,193.684C135.048,194.786,120.009,159.599,140.810,161.586C144.473,161.935,147.282,168.176,147.888,170.914C149.931,180.064,159.137,192.910,149.149,193.684M146.306,149.962C142.974,147.984,138.890,147.306,135.344,148.865C124.581,151.672,118.968,164.422,120.866,175.440C123.151,187.895,136.883,201.756,148.426,204.056C151.472,204.679,157.752,206.784,160.655,205.250C167.288,201.202,160.673,190.938,158.713,185.164C156.733,178.885,151.110,154.058,146.306,149.962Z"/>
<path class="path-15" d="M140.810,161.586C144.473,161.935,147.282,168.176,147.888,170.914"/>
<path class="path-15" d="M147.888,170.914C149.931,180.064,159.137,192.910,149.149,193.684"/>
<path class="path-15" d="M149.149,193.684C135.048,194.786,120.009,159.599,140.810,161.586"/>
<path class="path-16" d="M140.810,161.586C144.473,161.935,147.282,168.176,147.888,170.914C149.931,180.064,159.137,192.910,149.149,193.684C135.048,194.786,120.009,159.599,140.810,161.586Z"/>
</g>
<g id="face_Mask">
<g id="face">
<path class="path-0" d="M164.463,104.868C172.950,94.419,205.718,87.234,219.358,85.238C234.663,83.242,250.299,85.571,265.270,90.228C270.594,91.893,278.259,93.872,282.903,97.548C290.819,103.865,295.731,115.162,298.579,124.467C300.836,131.213,304.960,140.244,303.164,146.721C295.105,175.788,290.793,189.104,285.021,197.247C277.838,207.381,264.791,211.201,253.429,215.953C241.145,220.885,228.657,222.931,222.153,222.596C209.700,221.955,182.923,215.436,173.821,207.716C163.532,198.655,162.447,185.053,158.475,172.539C155.997,165.493,152.057,154.850,150.769,147.646C148.968,136.561,157.479,113.390,164.463,104.868M286.920,89.873C273.316,77.638,237.035,74.841,219.401,77.485C211.082,78.475,203.096,79.134,195.443,81.125C189.783,82.787,184.788,85.445,179.460,87.108C167.814,91.432,163.002,89.994,155.172,100.758C149.549,108.293,140.854,137.975,141.734,147.177C142.514,154.059,149.283,169.525,151.560,177.259C154.468,187.350,156.860,201.735,163.224,209.619C170.101,217.890,179.466,222.355,193.920,226.621C205.438,230.021,218.239,231.556,230.601,231.916C235.703,232.377,245.219,229.408,258.847,223.466C270.800,218.075,283.838,213.311,292.005,201.946C301.552,188.660,305.856,167.370,313.768,145.466C320.500,126.828,295.387,97.322,286.920,89.873Z"/>
<path class="path-15" d="M219.358,85.238C234.663,83.242,250.299,85.571,265.270,90.228"/>
<path class="path-15" d="M265.270,90.228C270.594,91.893,278.259,93.872,282.903,97.548"/>
<path class="path-15" d="M282.903,97.548C290.819,103.865,295.731,115.162,298.579,124.467"/>
<path class="path-15" d="M298.579,124.467C300.836,131.213,304.960,140.244,303.164,146.721"/>
<path class="path-15" d="M303.164,146.721C295.105,175.788,290.793,189.104,285.021,197.247"/>
<path class="path-15" d="M285.021,197.247C277.838,207.381,264.791,211.201,253.429,215.953"/>
<path class="path-15" d="M253.429,215.953C241.145,220.885,228.657,222.931,222.153,222.596"/>
<path class="path-15" d="M222.153,222.596C209.700,221.955,182.923,215.436,173.821,207.716"/>
<path class="path-15" d="M173.821,207.716C163.532,198.655,162.447,185.053,158.475,172.539"/>
<path class="path-15" d="M158.475,172.539C155.997,165.493,152.057,154.850,150.769,147.646"/>
<path class="path-15" d="M150.769,147.646C148.968,136.561,157.479,113.390,164.463,104.868"/>
<path class="path-15" d="M164.463,104.868C172.950,94.419,205.718,87.234,219.358,85.238"/>
<path class="path-16" d="M219.358,85.238C234.663,83.242,250.299,85.571,265.270,90.228C270.594,91.893,278.259,93.872,282.903,97.548C290.819,103.865,295.731,115.162,298.579,124.467C300.836,131.213,304.960,140.244,303.164,146.721C295.105,175.788,290.793,189.104,285.021,197.247C277.838,207.381,264.791,211.201,253.429,215.953C241.145,220.885,228.657,222.931,222.153,222.596C209.700,221.955,182.923,215.436,173.821,207.716C163.532,198.655,162.447,185.053,158.475,172.539C155.997,165.493,152.057,154.850,150.769,147.646C148.968,136.561,157.479,113.390,164.463,104.868C172.950,94.419,205.718,87.234,219.358,85.238Z"/>
</g>
</g>
<mask id="mask_target" style="mask-type:alpha;">
<use xlink:href="#face_Mask"/>
</mask>
<g id="mouse">
<path class="path-0" d="M228.689,214.069C233.893,215.173,233.977,219.926,233.503,220.433C233.236,220.719,232.114,219.768,229.154,219.281C223.548,218.360,220.842,219.532,220.644,218.818C220.428,218.035,222.597,212.777,228.689,214.069Z"/>
</g>
<g id="layer_eyes_Mtarget" mask="url(#mask_target)">
<g id="eyes">
<mask style="mask-type:alpha;" id="f3906406-f197-4bf1-91d8-744c09cca836">
<use xlink:href="#cmn_f3906406-f197-4bf1-91d8-744c09cca836"/>
</mask>
<g id="cmn_f3906406-f197-4bf1-91d8-744c09cca836">
<path class="path-0" d="M205.364,174.087C207.164,186.509,198.994,194.798,186.876,191.907C179.602,189.969,176.207,184.419,173.670,177.857C172.148,174.345,165.018,158.190,170.599,160.154C175.011,161.706,204.720,169.637,205.364,174.087M212.083,177.192C212.933,175.678,214.130,173.393,213.846,171.680C213.534,169.796,211.930,166.836,210.006,166.603C204.800,165.854,186.610,159.466,180.017,157.009C173.627,154.776,160.670,147.005,156.313,153.302C154.355,156.007,158.573,157.014,159.991,161.447C165.840,179.735,172.724,197.173,191.916,197.717C208.772,198.195,207.858,184.720,212.083,177.192M255.090,187.135C247.958,186.996,238.498,181.599,238.576,170.485C238.600,167.158,252.072,161.956,258.112,158.754C264.081,155.590,275.445,149.191,278.540,149.280C282.027,149.801,280.303,152.887,280.355,162.520C280.429,176.185,268.044,187.388,255.090,187.135M286.573,168.838C289.642,156.808,289.935,140.653,287.593,139.603C282.575,137.351,269.770,146.707,262.287,150.109C252.548,154.537,237.058,163.878,230.358,165.995C228.398,166.692,226.626,167.235,226.358,168.650C225.829,171.440,231.114,173.281,232.925,175.469C236.090,179.292,237.187,186.213,242.376,189.048C252.352,194.907,259.854,192.810,270.866,187.923C279.247,184.241,284.466,177.097,286.573,168.838Z"/>
<path class="path-17" d="M278.540,149.280C282.027,149.801,280.303,152.887,280.355,162.520"/>
<path class="path-17" d="M280.355,162.520C280.429,176.185,268.044,187.388,255.090,187.135"/>
<path class="path-17" d="M255.090,187.135C247.958,186.996,238.498,181.599,238.576,170.485"/>
<path class="path-17" d="M238.576,170.485C238.600,167.158,252.072,161.956,258.112,158.754"/>
<path class="path-17" d="M258.112,158.754C264.081,155.590,275.445,149.191,278.540,149.280"/>
<path class="path-18" d="M278.540,149.280C282.027,149.801,280.303,152.887,280.355,162.520C280.429,176.185,268.044,187.388,255.090,187.135C247.958,186.996,238.498,181.599,238.576,170.485C238.600,167.158,252.072,161.956,258.112,158.754C264.081,155.590,275.445,149.191,278.540,149.280Z"/>
<path class="path-17" d="M170.599,160.154C175.011,161.706,204.720,169.637,205.364,174.087"/>
<path class="path-17" d="M205.364,174.087C207.164,186.509,198.994,194.798,186.876,191.907"/>
<path class="path-17" d="M186.876,191.907C179.602,189.969,176.207,184.419,173.670,177.857"/>
<path class="path-17" d="M173.670,177.857C172.148,174.345,165.018,158.190,170.599,160.154"/>
<path class="path-18" d="M170.599,160.154C175.011,161.706,204.720,169.637,205.364,174.087C207.164,186.509,198.994,194.798,186.876,191.907C179.602,189.969,176.207,184.419,173.670,177.857C172.148,174.345,165.018,158.190,170.599,160.154Z"/>
</g>
</g>
<g id="pupil">
<path class="path-0" d="M243.863,163.705C246.153,163.136,249.303,166.358,250.129,174.831C250.736,181.062,249.144,183.615,247.421,183.822C245.522,184.052,243.875,181.449,242.592,174.672C241.223,167.440,241.882,164.197,243.863,163.705Z" mask="url(#f3906406-f197-4bf1-91d8-744c09cca836)"/>
<path class="path-0" d="M197.387,166.555C199.725,166.232,201.469,170.097,202.124,178.867C202.497,183.854,202.031,185.906,200.730,186.237C199.180,186.633,197.108,184.651,195.667,178.867C193.663,170.825,195.183,166.859,197.387,166.555Z" mask="url(#f3906406-f197-4bf1-91d8-744c09cca836)"/>
</g>
</g>
<g id="hat">
<path class="path-0" d="M302.796,122.948C304.825,124.229,307.779,126.607,308.122,129.268C309.481,135.603,298.487,135.028,295.150,135.369C288.539,135.382,281.629,135.166,275.313,135.307C270.140,135.894,264.960,136.393,259.775,136.861C250.932,136.969,242.103,136.578,233.262,136.449C218.792,136.807,204.388,136.380,189.863,136.302C188.497,136.347,150.208,140.749,143.721,137.263C134.812,132.578,143.937,125.673,143.572,121.245C143.552,117.660,135.760,116.686,137.706,110.493C139.636,104.677,160.257,100.664,166.391,99.358C178.575,96.696,191.101,93.100,203.959,91.172C221.957,88.620,240.502,89.061,258.811,87.478C271.687,86.467,301.204,94.080,307.115,107.310C311.970,117.800,295.205,108.040,293.216,107.390C291.364,106.056,284.779,103.165,286.382,107.245C287.790,113.170,298.460,119.536,302.796,122.948M185.620,86.558C175.192,88.990,165.504,90.619,155.471,92.937C151.155,93.922,145.901,96.476,141.876,94.327C132.852,89.736,142.747,66.814,147.028,60.928C161.379,41.696,192.263,33.326,217.485,33.337C262.557,33.357,280.205,40.409,295.088,55.558C299.725,59.938,316.135,81.757,307.438,87.742C304.114,89.723,298.138,85.782,295.158,84.443C284.886,80.090,242.199,73.367,185.620,86.558M245.364,23.442C237.535,22.843,235.511,21.132,227.207,21.752C195.932,24.553,154.119,26.620,135.464,56.724C129.483,66.622,129.360,77.835,127.305,88.398C125.610,96.897,120.663,103.413,121.585,111.930C122.538,118.948,125.583,120.615,127.843,125.991C130.425,131.693,128.968,134.358,130.571,138.052C134.051,148.792,143.797,148.358,153.141,148.328C157.973,148.314,175.800,148.156,185.510,147.994C197.345,147.797,213.123,147.405,224.955,147.078C234.188,146.823,246.500,146.506,255.728,146.097C264.214,145.722,275.535,145.222,284.000,144.501C294.181,143.634,316.655,141.841,317.836,140.608C319.944,138.448,323.851,117.385,323.883,113.455C323.910,110.083,322.259,106.699,322.311,101.302C322.120,86.859,321.899,73.430,313.868,59.877C299.116,35.467,271.898,26.120,245.364,23.442Z"/>
<path class="path-19" d="M258.811,87.478C271.687,86.467,301.204,94.080,307.115,107.310"/>
<path class="path-19" d="M307.115,107.310C311.970,117.800,295.205,108.040,293.216,107.390"/>
<path class="path-19" d="M293.216,107.390C291.364,106.056,284.779,103.165,286.382,107.245"/>
<path class="path-19" d="M286.382,107.245C287.790,113.170,298.460,119.536,302.796,122.948"/>
<path class="path-19" d="M302.796,122.948C304.825,124.229,307.779,126.607,308.122,129.268"/>
<path class="path-19" d="M308.122,129.268C309.481,135.603,298.487,135.028,295.150,135.369"/>
<path class="path-19" d="M295.150,135.369C288.539,135.382,281.629,135.166,275.313,135.307"/>
<path class="path-19" d="M275.313,135.307C270.140,135.894,264.960,136.393,259.775,136.861"/>
<path class="path-19" d="M259.775,136.861C250.932,136.969,242.103,136.578,233.262,136.449"/>
<path class="path-19" d="M233.262,136.449C218.792,136.807,204.388,136.380,189.863,136.302"/>
<path class="path-19" d="M189.863,136.302C188.497,136.347,150.208,140.749,143.721,137.263"/>
<path class="path-19" d="M143.721,137.263C134.812,132.578,143.937,125.673,143.572,121.245"/>
<path class="path-19" d="M143.572,121.245C143.552,117.660,135.760,116.686,137.706,110.493"/>
<path class="path-19" d="M137.706,110.493C139.636,104.677,160.257,100.664,166.391,99.358"/>
<path class="path-19" d="M166.391,99.358C178.575,96.696,191.101,93.100,203.959,91.172"/>
<path class="path-19" d="M203.959,91.172C221.957,88.620,240.502,89.061,258.811,87.478"/>
<path class="path-20" d="M258.811,87.478C271.687,86.467,301.204,94.080,307.115,107.310C311.970,117.800,295.205,108.040,293.216,107.390C291.364,106.056,284.779,103.165,286.382,107.245C287.790,113.170,298.460,119.536,302.796,122.948C304.825,124.229,307.779,126.607,308.122,129.268C309.481,135.603,298.487,135.028,295.150,135.369C288.539,135.382,281.629,135.166,275.313,135.307C270.140,135.894,264.960,136.393,259.775,136.861C250.932,136.969,242.103,136.578,233.262,136.449C218.792,136.807,204.388,136.380,189.863,136.302C188.497,136.347,150.208,140.749,143.721,137.263C134.812,132.578,143.937,125.673,143.572,121.245C143.552,117.660,135.760,116.686,137.706,110.493C139.636,104.677,160.257,100.664,166.391,99.358C178.575,96.696,191.101,93.100,203.959,91.172C221.957,88.620,240.502,89.061,258.811,87.478Z"/>
<path class="path-9" d="M217.485,33.337C262.557,33.357,280.205,40.409,295.088,55.558"/>
<path class="path-9" d="M295.088,55.558C299.725,59.938,316.135,81.757,307.438,87.742"/>
<path class="path-9" d="M307.438,87.742C304.114,89.723,298.138,85.782,295.158,84.443"/>
<path class="path-9" d="M295.158,84.443C284.886,80.090,242.199,73.367,185.620,86.558"/>
<path class="path-9" d="M185.620,86.558C175.192,88.990,165.504,90.619,155.471,92.937"/>
<path class="path-9" d="M155.471,92.937C151.155,93.922,145.901,96.476,141.876,94.327"/>
<path class="path-9" d="M141.876,94.327C132.852,89.736,142.747,66.814,147.028,60.928"/>
<path class="path-9" d="M147.028,60.928C161.379,41.696,192.263,33.326,217.485,33.337"/>
<path class="path-10" d="M217.485,33.337C262.557,33.357,280.205,40.409,295.088,55.558C299.725,59.938,316.135,81.757,307.438,87.742C304.114,89.723,298.138,85.782,295.158,84.443C284.886,80.090,242.199,73.367,185.620,86.558C175.192,88.990,165.504,90.619,155.471,92.937C151.155,93.922,145.901,96.476,141.876,94.327C132.852,89.736,142.747,66.814,147.028,60.928C161.379,41.696,192.263,33.326,217.485,33.337Z"/>
</g>
<g id="left_ear">
<path class="path-0" d="M300.885,186.942C299.730,182.966,308.449,158.198,310.123,155.765C315.102,148.502,327.622,158.761,328.999,165.502C330.511,173.770,319.095,182.773,312.363,187.804C307.129,191.593,302.455,192.319,300.885,186.942M338.044,169.364C339.266,156.431,327.186,139.831,314.775,143.303C301.375,147.052,301.392,165.362,297.636,176.250C296.202,180.795,293.406,185.278,293.065,189.798C292.309,198.026,296.748,204.451,305.691,201.742C318.604,197.686,336.258,183.635,338.044,169.364Z"/>
<path class="path-15" d="M310.123,155.765C315.102,148.502,327.622,158.761,328.999,165.502"/>
<path class="path-15" d="M328.999,165.502C330.511,173.770,319.095,182.773,312.363,187.804"/>
<path class="path-15" d="M312.363,187.804C307.129,191.593,302.455,192.319,300.885,186.942"/>
<path class="path-15" d="M300.885,186.942C299.730,182.966,308.449,158.198,310.123,155.765"/>
<path class="path-16" d="M310.123,155.765C315.102,148.502,327.622,158.761,328.999,165.502C330.511,173.770,319.095,182.773,312.363,187.804C307.129,191.593,302.455,192.319,300.885,186.942C299.730,182.966,308.449,158.198,310.123,155.765Z"/>
</g>
<g id="earrings">
<path class="path-0" d="M321.780,204.999C312.887,208.111,311.329,188.441,315.103,189.030C320.318,191.171,324.541,200.999,321.780,204.999M330.458,197.438C323.569,196.405,321.178,187.765,320.945,183.801C328.538,186.113,337.803,192.624,330.458,197.438M338.698,192.532C336.378,184.775,325.361,179.418,317.801,176.562C315.457,175.677,309.916,184.333,309.543,186.943C308.374,190.830,307.527,213.197,321.030,211.316C326.550,210.298,340.573,198.805,338.698,192.532Z"/>
<path class="path-21" d="M320.945,183.801C328.538,186.113,337.803,192.624,330.458,197.438"/>
<path class="path-21" d="M330.458,197.438C323.569,196.405,321.178,187.765,320.945,183.801"/>
<path class="path-22" d="M320.945,183.801C328.538,186.113,337.803,192.624,330.458,197.438C323.569,196.405,321.178,187.765,320.945,183.801Z"/>
<path class="path-21" d="M315.103,189.030C320.318,191.171,324.541,200.999,321.780,204.999"/>
<path class="path-21" d="M321.780,204.999C312.887,208.111,311.329,188.441,315.103,189.030"/>
<path class="path-22" d="M315.103,189.030C320.318,191.171,324.541,200.999,321.780,204.999C312.887,208.111,311.329,188.441,315.103,189.030Z"/>
</g>
</g>
<g id="left_arm">
<path class="path-0" d="M291.928,458.783C296.622,452.427,303.580,459.787,312.358,464.713C314.478,465.882,325.539,463.353,327.167,465.185C330.192,468.265,325.615,474.022,321.510,475.113C311.359,477.322,286.219,466.689,291.928,458.783M279.516,276.423C280.393,273.226,288.864,263.064,293.897,264.184C296.819,264.834,298.222,269.839,299.220,272.502C301.881,280.818,304.543,289.469,306.872,298.119C313.194,320.741,315.951,343.746,322.177,365.988C324.557,375.449,328.109,387.253,331.269,395.931C334.413,404.253,338.386,402.993,340.474,408.573C341.548,411.669,341.140,417.224,343.136,421.881C346.130,429.201,351.785,433.194,354.446,437.851C356.111,440.512,356.473,442.570,353.117,444.173C350.967,446.094,345.105,449.222,342.775,450.327C334.861,451.790,326.613,453.682,318.711,452.182C309.865,450.889,286.046,440.749,281.892,434.661C274.453,423.339,284.744,410.777,286.190,399.924C286.829,396.913,292.136,352.988,291.567,350.019C291.026,343.153,287.387,337.131,285.841,330.057C284.214,320.430,282.539,310.147,281.179,300.115C280.223,291.877,276.733,285.067,279.516,276.423M305.541,254.536C303.213,249.877,295.893,241.561,289.904,242.890C284.914,244.222,284.249,250.210,283.582,254.203C281.920,264.184,279.924,272.502,279.924,282.149C279.590,289.136,280.257,295.458,280.921,302.111C281.586,311.427,279.590,329.392,279.924,340.038C279.924,349.686,282.253,359.667,281.586,367.985C279.590,387.613,271.273,406.246,271.938,425.874C271.939,435.855,274.600,435.855,276.929,443.840C278.592,449.828,277.263,456.150,279.590,461.805C285.579,476.776,302.880,490.416,319.847,487.091C335.483,484.096,336.150,467.129,344.466,458.146C351.786,450.161,366.424,454.154,368.420,445.835C370.416,438.849,360.367,431.452,357.110,425.874C351.049,416.189,357.302,414.377,354.863,406.938C353.101,401.444,347.533,395.632,343.966,388.972C341.577,385.233,338.630,378.718,336.564,373.973C332.745,364.200,329.358,352.763,327.194,342.034C324.979,329.754,324.371,318.753,320.845,306.103C318.031,295.497,310.200,262.852,305.541,254.536Z"/>
<path class="path-1" d="M293.897,264.184C296.819,264.834,298.222,269.839,299.220,272.502"/>
<path class="path-1" d="M299.220,272.502C301.881,280.818,304.543,289.469,306.872,298.119"/>
<path class="path-1" d="M306.872,298.119C313.194,320.741,315.951,343.746,322.177,365.988"/>
<path class="path-1" d="M322.177,365.988C324.557,375.449,328.109,387.253,331.269,395.931"/>
<path class="path-1" d="M331.269,395.931C334.413,404.253,338.386,402.993,340.474,408.573"/>
<path class="path-1" d="M340.474,408.573C341.548,411.669,341.140,417.224,343.136,421.881"/>
<path class="path-1" d="M343.136,421.881C346.130,429.201,351.785,433.194,354.446,437.851"/>
<path class="path-1" d="M354.446,437.851C356.111,440.512,356.473,442.570,353.117,444.173"/>
<path class="path-1" d="M353.117,444.173C350.967,446.094,345.105,449.222,342.775,450.327"/>
<path class="path-1" d="M342.775,450.327C334.861,451.790,326.613,453.682,318.711,452.182"/>
<path class="path-1" d="M318.711,452.182C309.865,450.889,286.046,440.749,281.892,434.661"/>
<path class="path-1" d="M281.892,434.661C274.453,423.339,284.744,410.777,286.190,399.924"/>
<path class="path-1" d="M286.190,399.924C286.829,396.913,292.136,352.988,291.567,350.019"/>
<path class="path-1" d="M291.567,350.019C291.026,343.153,287.387,337.131,285.841,330.057"/>
<path class="path-1" d="M285.841,330.057C284.214,320.430,282.539,310.147,281.179,300.115"/>
<path class="path-1" d="M281.179,300.115C280.223,291.877,276.733,285.067,279.516,276.423"/>
<path class="path-1" d="M279.516,276.423C280.393,273.226,288.864,263.064,293.897,264.184"/>
<path class="path-2" d="M293.897,264.184C296.819,264.834,298.222,269.839,299.220,272.502C301.881,280.818,304.543,289.469,306.872,298.119C313.194,320.741,315.951,343.746,322.177,365.988C324.557,375.449,328.109,387.253,331.269,395.931C334.413,404.253,338.386,402.993,340.474,408.573C341.548,411.669,341.140,417.224,343.136,421.881C346.130,429.201,351.785,433.194,354.446,437.851C356.111,440.512,356.473,442.570,353.117,444.173C350.967,446.094,345.105,449.222,342.775,450.327C334.861,451.790,326.613,453.682,318.711,452.182C309.865,450.889,286.046,440.749,281.892,434.661C274.453,423.339,284.744,410.777,286.190,399.924C286.829,396.913,292.136,352.988,291.567,350.019C291.026,343.153,287.387,337.131,285.841,330.057C284.214,320.430,282.539,310.147,281.179,300.115C280.223,291.877,276.733,285.067,279.516,276.423C280.393,273.226,288.864,263.064,293.897,264.184Z"/>
<path class="path-15" d="M312.358,464.713C314.478,465.882,325.539,463.353,327.167,465.185"/>
<path class="path-15" d="M327.167,465.185C330.192,468.265,325.615,474.022,321.510,475.113"/>
<path class="path-15" d="M321.510,475.113C311.359,477.322,286.219,466.689,291.928,458.783"/>
<path class="path-15" d="M291.928,458.783C296.622,452.427,303.580,459.787,312.358,464.713"/>
<path class="path-16" d="M312.358,464.713C314.478,465.882,325.539,463.353,327.167,465.185C330.192,468.265,325.615,474.022,321.510,475.113C311.359,477.322,286.219,466.689,291.928,458.783C296.622,452.427,303.580,459.787,312.358,464.713Z"/>
</g>
<g id="bone">
<g id="bone1_clothes">
<path class="path-23" d="M237.847,385.813C237.849,385.807,251.154,328.339,251.155,328.333C251.155,328.339,248.881,387.284,248.881,387.290C248.880,387.290,237.848,385.813,237.847,385.813"/>
</g>
<g id="bone2_clothes">
<path class="path-23" d="M232.648,327.871C232.648,327.864,230.768,255.362,230.768,255.354C230.770,255.362,246.315,326.202,246.316,326.209C246.315,326.209,232.649,327.871,232.648,327.871"/>
</g>
<g id="bone3_neck">
<path class="path-23" d="M237.750,253.727C237.750,253.723,232.304,212.380,232.304,212.376C232.304,212.380,231.162,254.064,231.162,254.069C231.162,254.069,237.750,253.727,237.750,253.727"/>
</g>
<g id="bone4_head">
<path class="path-23" d="M230.488,213.377C230.487,213.369,223.149,135.650,223.148,135.642C223.150,135.650,242.763,211.210,242.765,211.217C242.764,211.218,230.489,213.376,230.488,213.377"/>
</g>
<g id="bone5_left_arm">
<path class="path-23" d="M298.254,255.841C298.256,255.850,316.111,346.577,316.112,346.586C316.109,346.578,283.096,260.205,283.092,260.196C283.094,260.196,298.252,255.842,298.254,255.841"/>
</g>
<g id="bone6_left_arm">
<path class="path-23" d="M300.889,349.223C300.890,349.229,308.316,412.532,308.317,412.538C308.317,412.532,311.324,348.866,311.325,348.860C311.324,348.860,300.890,349.223,300.889,349.223"/>
</g>
<g id="bone7_right_arm">
<path class="path-23" d="M169.020,270.162C169.019,270.174,155.856,384.921,155.854,384.932C155.857,384.921,186.960,273.689,186.963,273.678C186.961,273.677,169.022,270.163,169.020,270.162"/>
</g>
<g id="bone8_right_arm">
<path class="path-23" d="M157.489,380.498C157.491,380.504,173.695,437.778,173.697,437.784C173.694,437.779,146.315,384.927,146.312,384.922C146.313,384.921,157.488,380.498,157.489,380.498"/>
</g>
<g id="bone9_left_leg">
<path class="path-23" d="M272.125,386.368C272.125,386.379,270.049,488.023,270.049,488.033C270.047,488.023,253.817,387.662,253.815,387.652C253.817,387.651,272.123,386.368,272.125,386.368"/>
</g>
<g id="bone10_right_leg">
<path class="path-23" d="M209.407,385.449C209.407,385.459,209.480,489.215,209.480,489.225C209.482,489.215,224.870,386.607,224.872,386.596C224.870,386.596,209.409,385.449,209.407,385.449"/>
</g>
<g id="bone11_hair">
<path class="path-23" d="M234.450,156.546C234.451,156.554,247.483,235.672,247.485,235.680C247.482,235.673,220.190,160.276,220.188,160.268C220.189,160.268,234.448,156.547,234.450,156.546"/>
</g>
<g id="bone12_left_leg_S">
<path class="path-23" d="M431.180,213.567C431.178,213.573,405.466,281.194,405.464,281.201C405.467,281.195,441.940,218.717,441.943,218.711C441.942,218.710,431.181,213.567,431.180,213.567"/>
</g>
<g id="bone13_right_leg_S">
<path class="path-23" d="M491.881,212.430C491.877,212.436,448.318,270.197,448.314,270.203C448.319,270.198,500.776,220.378,500.781,220.373C500.780,220.372,491.882,212.431,491.881,212.430"/>
</g>
<g id="bone14_left_arm_S">
<path class="path-23" d="M551.886,209.208C551.879,209.209,479.781,215.172,479.774,215.173C479.781,215.174,551.879,221.137,551.886,221.138C551.886,221.136,551.886,209.210,551.886,209.208"/>
</g>
<g id="bone15_jacket_S">
<path class="path-23" d="M598.786,213.861C598.785,213.868,593.516,286.020,593.516,286.027C593.518,286.020,610.570,215.714,610.571,215.707C610.570,215.707,598.787,213.861,598.786,213.861"/>
</g>
<g id="bone16_pupils_S">
<path class="path-23" d="M442.231,337.432C442.230,337.425,437.179,265.257,437.179,265.250C437.178,265.257,430.303,337.274,430.303,337.281C430.304,337.281,442.230,337.432,442.231,337.432"/>
</g>
<g id="bone17_eyelids_S">
<path class="path-23" d="M502.309,337.358C502.308,337.351,496.345,265.253,496.344,265.246C496.344,265.253,490.380,337.351,490.380,337.358C490.381,337.358,502.308,337.358,502.309,337.358"/>
</g>
<g id="bone18_face_S">
<path class="path-23" d="M557.809,340.251C557.810,340.244,565.703,268.332,565.704,268.325C565.702,268.332,546.101,337.970,546.099,337.977C546.100,337.977,557.808,340.251,557.809,340.251"/>
</g>
</g>
<g id="jacket">
<path class="path-0" d="M202.406,270.837C204.585,275.526,199.390,285.442,198.708,290.134C193.827,308.366,186.383,326.270,188.586,344.574C189.475,350.462,195.571,363.300,190.147,367.607C188.193,369.159,182.518,365.311,181.855,366.949C180.608,370.026,174.924,360.346,174.159,359.135C173.463,358.034,170.262,349.646,169.897,347.268C169.483,342.676,169.434,333.639,170.157,327.869C170.947,321.935,171.525,315.659,174.082,309.573C176.435,302.427,180.833,294.476,183.091,286.394C185.669,281.318,189.915,278.374,188.957,274.465C187.704,270.837,185.103,269.143,188.193,267.146C191.952,265.078,201.489,265.983,202.406,270.837M265.946,271.150C267.263,270.078,279.595,265.674,280.902,264.748C293.574,256.639,304.518,266.073,305.964,274.810C306.617,278.463,304.541,291.440,303.932,294.034C302.180,299.934,299.763,303.883,297.979,308.852C290.407,327.098,297.608,315.978,292.736,332.680C291.942,335.400,290.362,341.135,289.892,343.872C289.265,346.560,288.644,352.610,288.027,355.123C285.967,361.171,283.006,368.689,273.630,369.008C273.094,369.092,267.864,370.568,266.952,370.756C261.683,371.553,255.330,372.218,251.249,368.200C247.146,363.698,246.333,356.197,245.359,349.741C243.196,336.844,246.287,323.745,249.310,310.968C251.544,299.352,257.165,279.977,265.946,271.150M277.878,255.283C274.995,257.008,268.667,256.916,266.856,257.260C263.754,257.679,263.139,255.262,262.799,253.089C262.274,248.711,265.329,242.233,268.582,239.042C271.163,236.511,275.759,234.553,279.725,234.457C283.152,234.251,289.062,236.435,288.791,240.332C288.772,243.316,282.643,252.432,277.878,255.283M205.180,244.145C210.040,253.728,214.976,263.479,209.761,261.812C203.358,259.765,199.950,260.298,189.763,255.866C179.261,251.297,176.916,236.098,182.917,231.400C188.977,226.656,199.522,232.991,205.180,244.145M301.836,358.392C301.890,351.546,303.572,347.105,303.563,339.957C303.507,334.893,303.827,329.092,303.171,324.096C301.785,315.297,302.788,311.626,302.390,301.553C301.929,293.451,303.853,287.026,302.608,279.338C302.005,276.408,291.141,264.483,291.242,261.755C290.607,256.238,298.281,252.922,299.685,248.007C300.884,244.268,302.186,240.264,301.730,236.363C301.440,231.485,297.211,228.082,293.698,225.408C288.597,221.982,283.695,222.181,277.448,222.868C267.680,223.954,261.885,232.434,257.843,238.858C252.257,247.735,253.348,262.950,250.410,273.018C248.703,278.870,245.548,286.766,243.509,292.130C235.229,312.920,220.749,368.631,238.307,382.742C239.981,384.275,253.625,387.879,257.915,387.693C267.677,387.320,272.424,387.915,281.694,385.850C288.293,384.647,297.518,373.699,300.883,365.798C301.783,363.865,301.823,359.954,301.836,358.392M209.581,232.683C203.761,226.372,193.484,214.857,185.174,217.743C181.310,219.226,176.299,223.115,173.770,226.641C171.142,230.304,168.598,236.277,168.842,240.836C169.009,246.271,168.836,252.741,170.753,257.343C173.177,263.161,183.088,267.439,184.094,273.572C184.480,276.410,177.021,288.737,175.877,292.097C174.004,298.141,170.407,303.751,168.461,308.909C166.484,314.145,164.203,321.270,162.836,326.698C161.014,333.930,158.080,343.011,158.292,351.140C158.155,356.025,160.812,367.166,164.872,372.504C167.399,375.828,173.666,379.653,176.345,380.383C177.843,380.792,192.924,384.181,197.655,379.879C206.725,371.630,201.100,355.005,197.459,339.013C194.153,324.507,205.103,311.953,209.295,297.501C210.854,292.123,217.482,273.433,217.923,266.905C218.309,261.184,220.234,257.277,218.506,249.391C217.414,245.029,213.434,236.860,209.581,232.683Z"/>
<path class="path-1" d="M280.902,264.748C293.574,256.639,304.518,266.073,305.964,274.810"/>
<path class="path-1" d="M305.964,274.810C306.617,278.463,304.541,291.440,303.932,294.034"/>
<path class="path-1" d="M303.932,294.034C302.180,299.934,299.763,303.883,297.979,308.852"/>
<path class="path-1" d="M297.979,308.852C290.407,327.098,297.608,315.978,292.736,332.680"/>
<path class="path-1" d="M292.736,332.680C291.942,335.400,290.362,341.135,289.892,343.872"/>
<path class="path-1" d="M289.892,343.872C289.265,346.560,288.644,352.610,288.027,355.123"/>
<path class="path-1" d="M288.027,355.123C285.967,361.171,283.006,368.689,273.630,369.008"/>
<path class="path-1" d="M273.630,369.008C273.094,369.092,267.864,370.568,266.952,370.756"/>
<path class="path-1" d="M266.952,370.756C261.683,371.553,255.330,372.218,251.249,368.200"/>
<path class="path-1" d="M251.249,368.200C247.146,363.698,246.333,356.197,245.359,349.741"/>
<path class="path-1" d="M245.359,349.741C243.196,336.844,246.287,323.745,249.310,310.968"/>
<path class="path-1" d="M249.310,310.968C251.544,299.352,257.165,279.977,265.946,271.150"/>
<path class="path-1" d="M265.946,271.150C267.263,270.078,279.595,265.674,280.902,264.748"/>
<path class="path-2" d="M280.902,264.748C293.574,256.639,304.518,266.073,305.964,274.810C306.617,278.463,304.541,291.440,303.932,294.034C302.180,299.934,299.763,303.883,297.979,308.852C290.407,327.098,297.608,315.978,292.736,332.680C291.942,335.400,290.362,341.135,289.892,343.872C289.265,346.560,288.644,352.610,288.027,355.123C285.967,361.171,283.006,368.689,273.630,369.008C273.094,369.092,267.864,370.568,266.952,370.756C261.683,371.553,255.330,372.218,251.249,368.200C247.146,363.698,246.333,356.197,245.359,349.741C243.196,336.844,246.287,323.745,249.310,310.968C251.544,299.352,257.165,279.977,265.946,271.150C267.263,270.078,279.595,265.674,280.902,264.748Z"/>
<path class="path-1" d="M188.193,267.146C191.952,265.078,201.489,265.983,202.406,270.837"/>
<path class="path-1" d="M202.406,270.837C204.585,275.526,199.390,285.442,198.708,290.134"/>
<path class="path-1" d="M198.708,290.134C193.827,308.366,186.383,326.270,188.586,344.574"/>
<path class="path-1" d="M188.586,344.574C189.475,350.462,195.571,363.300,190.147,367.607"/>
<path class="path-1" d="M190.147,367.607C188.193,369.159,182.518,365.311,181.855,366.949"/>
<path class="path-1" d="M181.855,366.949C180.608,370.026,174.924,360.346,174.159,359.135"/>
<path class="path-1" d="M174.159,359.135C173.463,358.034,170.262,349.646,169.897,347.268"/>
<path class="path-1" d="M169.897,347.268C169.483,342.676,169.434,333.639,170.157,327.869"/>
<path class="path-1" d="M170.157,327.869C170.947,321.935,171.525,315.659,174.082,309.573"/>
<path class="path-1" d="M174.082,309.573C176.435,302.427,180.833,294.476,183.091,286.394"/>
<path class="path-1" d="M183.091,286.394C185.669,281.318,189.915,278.374,188.957,274.465"/>
<path class="path-1" d="M188.957,274.465C187.704,270.837,185.103,269.143,188.193,267.146"/>
<path class="path-2" d="M188.193,267.146C191.952,265.078,201.489,265.983,202.406,270.837C204.585,275.526,199.390,285.442,198.708,290.134C193.827,308.366,186.383,326.270,188.586,344.574C189.475,350.462,195.571,363.300,190.147,367.607C188.193,369.159,182.518,365.311,181.855,366.949C180.608,370.026,174.924,360.346,174.159,359.135C173.463,358.034,170.262,349.646,169.897,347.268C169.483,342.676,169.434,333.639,170.157,327.869C170.947,321.935,171.525,315.659,174.082,309.573C176.435,302.427,180.833,294.476,183.091,286.394C185.669,281.318,189.915,278.374,188.957,274.465C187.704,270.837,185.103,269.143,188.193,267.146Z"/>
<path class="path-1" d="M279.725,234.457C283.152,234.251,289.062,236.435,288.791,240.332"/>
<path class="path-1" d="M288.791,240.332C288.772,243.316,282.643,252.432,277.878,255.283"/>
<path class="path-1" d="M277.878,255.283C274.995,257.008,268.667,256.916,266.856,257.260"/>
<path class="path-1" d="M266.856,257.260C263.754,257.679,263.139,255.262,262.799,253.089"/>
<path class="path-1" d="M262.799,253.089C262.274,248.711,265.329,242.233,268.582,239.042"/>
<path class="path-1" d="M268.582,239.042C271.163,236.511,275.759,234.553,279.725,234.457"/>
<path class="path-2" d="M279.725,234.457C283.152,234.251,289.062,236.435,288.791,240.332C288.772,243.316,282.643,252.432,277.878,255.283C274.995,257.008,268.667,256.916,266.856,257.260C263.754,257.679,263.139,255.262,262.799,253.089C262.274,248.711,265.329,242.233,268.582,239.042C271.163,236.511,275.759,234.553,279.725,234.457Z"/>
<path class="path-1" d="M205.180,244.145C210.040,253.728,214.976,263.479,209.761,261.812"/>
<path class="path-1" d="M209.761,261.812C203.358,259.765,199.950,260.298,189.763,255.866"/>
<path class="path-1" d="M189.763,255.866C179.261,251.297,176.916,236.098,182.917,231.400"/>
<path class="path-1" d="M182.917,231.400C188.977,226.656,199.522,232.991,205.180,244.145"/>
<path class="path-2" d="M205.180,244.145C210.040,253.728,214.976,263.479,209.761,261.812C203.358,259.765,199.950,260.298,189.763,255.866C179.261,251.297,176.916,236.098,182.917,231.400C188.977,226.656,199.522,232.991,205.180,244.145Z"/>
</g>
</g>
<style>
.path-0{fill:#000000;fill-rule:evenodd;stroke:none;}
.path-1{fill:none;stroke:#a60d3f;stroke-width:1;stroke-linecap:butt;stroke-linejoin:round;}
.path-2{fill:#a60d3f;fill-rule:evenodd;stroke:none;}
.path-3{fill:none;stroke:#d88e4b;stroke-width:1;stroke-linecap:butt;stroke-linejoin:round;}
.path-4{fill:#d88e4b;fill-rule:evenodd;stroke:none;}
.path-5{fill:none;stroke:#6e2353;stroke-width:1;stroke-linecap:butt;stroke-linejoin:round;}
.path-6{fill:#6e2353;fill-rule:evenodd;stroke:none;}
.path-7{fill:none;stroke:#392966;stroke-width:1;stroke-linecap:butt;stroke-linejoin:round;}
.path-8{fill:#392966;fill-rule:evenodd;stroke:none;}
.path-9{fill:none;stroke:#cc9bc5;stroke-width:1;stroke-linecap:butt;stroke-linejoin:round;}
.path-10{fill:#cc9bc5;fill-rule:evenodd;stroke:none;}
.path-11{fill:none;stroke:#620527;stroke-width:1;stroke-linecap:butt;stroke-linejoin:round;}
.path-12{fill:#620527;fill-rule:evenodd;stroke:none;}
.path-13{fill:none;stroke:#6a3661;stroke-width:1;stroke-linecap:butt;stroke-linejoin:round;}
.path-14{fill:#6a3661;fill-rule:evenodd;stroke:none;}
.path-15{fill:none;stroke:#f8a087;stroke-width:1;stroke-linecap:butt;stroke-linejoin:round;}
.path-16{fill:#f8a087;fill-rule:evenodd;stroke:none;}
.path-17{fill:none;stroke:#ffffff;stroke-width:1;stroke-linecap:butt;stroke-linejoin:round;}
.path-18{fill:#ffffff;fill-rule:evenodd;stroke:none;}
.path-19{fill:none;stroke:#d89f4a;stroke-width:1;stroke-linecap:butt;stroke-linejoin:round;}
.path-20{fill:#d89f4a;fill-rule:evenodd;stroke:none;}
.path-21{fill:none;stroke:#fafd5b;stroke-width:1;stroke-linecap:butt;stroke-linejoin:round;}
.path-22{fill:#fafd5b;fill-rule:evenodd;stroke:none;}
.path-23{fill:none;stroke:#00ff42;stroke-width:8;stroke-linecap:round;stroke-linejoin:round;}
.path-24{fill:none;stroke:#000000;stroke-width:1;stroke-linecap:butt;stroke-linejoin:round;}
.path-25{fill:none;stroke:#ececec;stroke-width:1;stroke-linecap:butt;stroke-linejoin:round;}
.path-26{fill:#ececec;fill-rule:evenodd;stroke:none;}
</style>
</svg>
