<svg version="1.1" id="Frame_152" xmlns="http://www.w3.org/2000/svg" xmlns:xlink="http://www.w3.org/1999/xlink" width="480px" height="720px">
<g id="main_bone">
<g id="right_arm">
<path class="path-0" d="M179.220,268.886C180.860,266.322,184.068,261.026,187.973,259.830C194.486,257.834,199.538,263.954,199.905,268.519C200.856,276.540,194.116,286.732,190.919,294.322C183.105,312.558,174.795,330.611,169.697,349.243C169.059,352.501,164.387,373.679,164.384,371.037C164.061,377.646,170.686,383.252,173.032,388.855C176.038,396.407,173.279,403.608,171.575,410.591C167.620,424.933,168.200,430.203,169.142,444.043C169.392,446.216,170.211,453.268,166.825,453.877C163.412,454.491,162.021,448.343,160.981,446.042C160.259,443.443,157.158,438.091,157.580,435.693C157.495,431.736,162.048,432.517,156.722,424.549C149.911,414.566,138.439,406.206,135.344,392.935C133.277,382.369,138.738,373.024,141.883,363.154C148.591,341.893,156.102,320.635,165.119,299.912C170.045,289.121,172.638,279.742,179.220,268.886M199.873,262.255C200.642,253.780,198.167,246.192,187.416,248.854C169.930,253.118,162.020,279.033,156.123,293.622C147.873,313.252,141.089,333.166,134.934,353.239C132.431,361.797,129.323,366.163,128.009,371.134C126.369,376.759,126.703,385.361,127.075,390.980C127.203,408.617,132.447,409.495,140.114,422.769C144.224,430.657,140.775,435.939,143.834,442.739C146.082,447.460,150.307,450.556,153.716,454.312C156.768,458.108,157.702,460.340,160.062,463.857C162.923,468.068,171.203,477.507,176.741,474.280C180.770,471.912,179.232,464.199,178.912,460.426C178.275,454.773,178.307,432.681,179.004,425.971C180.332,414.766,186.098,402.728,184.302,390.726C182.855,381.520,174.612,374.954,174.960,365.071C175.297,359.803,178.560,351.248,179.722,345.353C181.629,335.950,182.117,325.830,184.854,316.237C189.542,299.107,198.892,280.352,199.873,262.255Z"/>
<path class="path-1" d="M187.973,259.830C194.486,257.834,199.538,263.954,199.905,268.519"/>
<path class="path-1" d="M199.905,268.519C200.856,276.540,194.116,286.732,190.919,294.322"/>
<path class="path-1" d="M190.919,294.322C183.105,312.558,174.795,330.611,169.697,349.243"/>
<path class="path-1" d="M169.697,349.243C169.059,352.501,164.387,373.679,164.384,371.037"/>
<path class="path-1" d="M164.384,371.037C164.061,377.646,170.686,383.252,173.032,388.855"/>
<path class="path-1" d="M173.032,388.855C176.038,396.407,173.279,403.608,171.575,410.591"/>
<path class="path-1" d="M171.575,410.591C167.620,424.933,168.200,430.203,169.142,444.043"/>
<path class="path-1" d="M169.142,444.043C169.392,446.216,170.211,453.268,166.825,453.877"/>
<path class="path-1" d="M166.825,453.877C163.412,454.491,162.021,448.343,160.981,446.042"/>
<path class="path-1" d="M160.981,446.042C160.259,443.443,157.158,438.091,157.580,435.693"/>
<path class="path-1" d="M157.580,435.693C157.495,431.736,162.048,432.517,156.722,424.549"/>
<path class="path-1" d="M156.722,424.549C149.911,414.566,138.439,406.206,135.344,392.935"/>
<path class="path-1" d="M135.344,392.935C133.277,382.369,138.738,373.024,141.883,363.154"/>
<path class="path-1" d="M141.883,363.154C148.591,341.893,156.102,320.635,165.119,299.912"/>
<path class="path-1" d="M165.119,299.912C170.045,289.121,172.638,279.742,179.220,268.886"/>
<path class="path-1" d="M179.220,268.886C180.860,266.322,184.068,261.026,187.973,259.830"/>
<path class="path-2" d="M187.973,259.830C194.486,257.834,199.538,263.954,199.905,268.519C200.856,276.540,194.116,286.732,190.919,294.322C183.105,312.558,174.795,330.611,169.697,349.243C169.059,352.501,164.387,373.679,164.384,371.037C164.061,377.646,170.686,383.252,173.032,388.855C176.038,396.407,173.279,403.608,171.575,410.591C167.620,424.933,168.200,430.203,169.142,444.043C169.392,446.216,170.211,453.268,166.825,453.877C163.412,454.491,162.021,448.343,160.981,446.042C160.259,443.443,157.158,438.091,157.580,435.693C157.495,431.736,162.048,432.517,156.722,424.549C149.911,414.566,138.439,406.206,135.344,392.935C133.277,382.369,138.738,373.024,141.883,363.154C148.591,341.893,156.102,320.635,165.119,299.912C170.045,289.121,172.638,279.742,179.220,268.886C180.860,266.322,184.068,261.026,187.973,259.830Z"/>
</g>
<g id="layer_right_leg">
<g id="right_heel">
<path class="path-0" d="M193.579,626.025C193.595,609.552,194.049,596.724,213.945,592.781C222.788,590.864,239.923,592.816,245.277,601.186C248.086,605.345,247.610,611.687,248.098,616.260C248.959,623.715,254.303,637.897,243.858,640.216C243.190,640.433,224.523,641.773,218.700,642.242C211.342,643.528,203.660,644.514,198.030,639.669C195.072,636.562,193.498,629.923,193.579,626.025M254.714,598.966C250.247,588.753,235.645,583.570,225.637,585.561C212.552,587.998,198.839,584.372,190.909,597.155C184.709,607.148,184.893,624.907,187.498,636.043C188.526,641.175,192.279,650.440,196.727,653.078C199.982,654.916,204.821,654.085,208.545,653.891C226.681,653.240,259.331,657.648,257.540,630.631C257.000,623.614,257.076,604.418,254.714,598.966Z"/>
<path class="path-3" d="M213.945,592.781C222.788,590.864,239.923,592.816,245.277,601.186"/>
<path class="path-3" d="M245.277,601.186C248.086,605.345,247.610,611.687,248.098,616.260"/>
<path class="path-3" d="M248.098,616.260C248.959,623.715,254.303,637.897,243.858,640.216"/>
<path class="path-3" d="M243.858,640.216C243.190,640.433,224.523,641.773,218.700,642.242"/>
<path class="path-3" d="M218.700,642.242C211.342,643.528,203.660,644.514,198.030,639.669"/>
<path class="path-3" d="M198.030,639.669C195.072,636.562,193.498,629.923,193.579,626.025"/>
<path class="path-3" d="M193.579,626.025C193.595,609.552,194.049,596.724,213.945,592.781"/>
<path class="path-4" d="M213.945,592.781C222.788,590.864,239.923,592.816,245.277,601.186C248.086,605.345,247.610,611.687,248.098,616.260C248.959,623.715,254.303,637.897,243.858,640.216C243.190,640.433,224.523,641.773,218.700,642.242C211.342,643.528,203.660,644.514,198.030,639.669C195.072,636.562,193.498,629.923,193.579,626.025C193.595,609.552,194.049,596.724,213.945,592.781Z"/>
</g>
<g id="right_leg">
<path class="path-0" d="M181.849,409.220C184.910,397.139,200.450,393.464,211.137,395.842C217.042,397.030,226.961,399.366,230.410,404.715C231.834,406.923,232.559,411.124,231.294,413.427C229.008,417.589,213.861,415.286,216.585,419.272C221.389,426.543,231.365,416.727,235.791,420.432C237.742,422.065,238.096,425.535,238.621,428.428C243.758,450.275,237.941,474.131,238.974,495.880C239.238,502.931,238.216,513.403,239.763,519.757C243.000,535.297,241.161,538.697,241.976,548.084C242.060,551.607,241.132,569.535,242.526,574.053C244.117,578.869,247.922,583.360,248.599,588.412C249.732,596.878,237.461,608.379,229.883,610.919C221.135,613.660,193.933,612.908,185.498,608.729C182.322,607.270,178.331,603.609,176.957,600.123C175.446,596.822,173.365,581.116,174.308,577.288C176.208,570.658,178.712,569.234,180.530,561.367C182.348,552.084,183.971,542.036,183.149,532.390C181.194,513.888,180.919,483.847,182.525,470.380C183.235,462.868,180.416,437.810,181.148,430.852C182.482,419.192,180.404,417.047,181.849,409.220M205.802,384.345C200.050,382.649,195.436,377.525,189.574,379.868C187.779,380.765,184.690,383.226,183.456,384.620C168.225,399.215,170.173,412.963,171.160,432.525C171.221,439.542,171.684,446.823,171.318,453.556C170.901,459.160,169.200,463.794,168.066,468.956C167.419,473.194,166.926,477.728,166.918,483.029C167.036,488.136,168.616,494.073,169.093,502.736C168.927,512.575,170.040,521.811,170.006,531.217C170.201,537.749,167.696,552.999,167.033,558.007C165.096,565.084,162.373,573.330,161.042,580.134C159.808,589.163,161.410,598.623,165.215,606.382C166.968,610.491,170.078,615.349,173.377,617.948C175.529,619.643,178.360,620.499,180.870,621.211C189.361,623.567,197.334,624.519,206.225,624.307C212.154,624.210,217.910,622.140,224.070,622.428C225.086,622.320,233.380,624.012,235.025,624.083C238.015,624.040,242.094,621.152,244.743,619.424C248.310,616.812,254.866,615.864,257.573,612.214C259.691,609.355,259.908,605.485,260.857,602.053C266.173,581.745,260.523,571.163,257.162,553.136C255.286,543.075,251.848,522.366,251.404,511.041C250.585,497.340,252.460,483.945,252.536,469.795C252.648,465.375,252.778,460.073,253.305,455.059C253.747,449.991,252.525,445.958,252.080,440.968C251.507,437.130,251.155,424.755,250.356,420.644C249.790,416.969,249.588,412.356,248.066,408.772C243.922,399.661,229.426,390.097,219.966,387.597C215.228,386.179,210.227,386.111,205.802,384.345Z"/>
<path class="path-7" d="M211.137,395.842C217.042,397.030,226.961,399.366,230.410,404.715"/>
<path class="path-7" d="M230.410,404.715C231.834,406.923,232.559,411.124,231.294,413.427"/>
<path class="path-7" d="M231.294,413.427C229.008,417.589,213.861,415.286,216.585,419.272"/>
<path class="path-7" d="M216.585,419.272C221.389,426.543,231.365,416.727,235.791,420.432"/>
<path class="path-7" d="M235.791,420.432C237.742,422.065,238.096,425.535,238.621,428.428"/>
<path class="path-7" d="M238.621,428.428C243.758,450.275,237.941,474.131,238.974,495.880"/>
<path class="path-7" d="M238.974,495.880C239.238,502.931,238.216,513.403,239.763,519.757"/>
<path class="path-7" d="M239.763,519.757C243.000,535.297,241.161,538.697,241.976,548.084"/>
<path class="path-7" d="M241.976,548.084C242.060,551.607,241.132,569.535,242.526,574.053"/>
<path class="path-7" d="M242.526,574.053C244.117,578.869,247.922,583.360,248.599,588.412"/>
<path class="path-7" d="M248.599,588.412C249.732,596.878,237.461,608.379,229.883,610.919"/>
<path class="path-7" d="M229.883,610.919C221.135,613.660,193.933,612.908,185.498,608.729"/>
<path class="path-7" d="M185.498,608.729C182.322,607.270,178.331,603.609,176.957,600.123"/>
<path class="path-7" d="M176.957,600.123C175.446,596.822,173.365,581.116,174.308,577.288"/>
<path class="path-7" d="M174.308,577.288C176.208,570.658,178.712,569.234,180.530,561.367"/>
<path class="path-7" d="M180.530,561.367C182.348,552.084,183.971,542.036,183.149,532.390"/>
<path class="path-7" d="M183.149,532.390C181.194,513.888,180.919,483.847,182.525,470.380"/>
<path class="path-7" d="M182.525,470.380C183.235,462.868,180.416,437.810,181.148,430.852"/>
<path class="path-7" d="M181.148,430.852C182.482,419.192,180.404,417.047,181.849,409.220"/>
<path class="path-7" d="M181.849,409.220C184.910,397.139,200.450,393.464,211.137,395.842"/>
<path class="path-8" d="M211.137,395.842C217.042,397.030,226.961,399.366,230.410,404.715C231.834,406.923,232.559,411.124,231.294,413.427C229.008,417.589,213.861,415.286,216.585,419.272C221.389,426.543,231.365,416.727,235.791,420.432C237.742,422.065,238.096,425.535,238.621,428.428C243.758,450.275,237.941,474.131,238.974,495.880C239.238,502.931,238.216,513.403,239.763,519.757C243.000,535.297,241.161,538.697,241.976,548.084C242.060,551.607,241.132,569.535,242.526,574.053C244.117,578.869,247.922,583.360,248.599,588.412C249.732,596.878,237.461,608.379,229.883,610.919C221.135,613.660,193.933,612.908,185.498,608.729C182.322,607.270,178.331,603.609,176.957,600.123C175.446,596.822,173.365,581.116,174.308,577.288C176.208,570.658,178.712,569.234,180.530,561.367C182.348,552.084,183.971,542.036,183.149,532.390C181.194,513.888,180.919,483.847,182.525,470.380C183.235,462.868,180.416,437.810,181.148,430.852C182.482,419.192,180.404,417.047,181.849,409.220C184.910,397.139,200.450,393.464,211.137,395.842Z"/>
</g>
<g id="right_toe">
<path class="path-0" d="M177.120,648.550C177.811,634.981,182.221,617.299,198.533,614.099C202.272,613.163,207.684,614.680,211.921,615.323C233.611,618.559,242.180,622.982,243.989,645.030C244.365,651.103,245.670,658.598,241.379,663.708C237.123,668.684,215.762,667.148,209.294,667.772C197.880,669.123,188.301,675.122,179.855,665.549C174.765,659.657,176.760,655.824,177.120,648.550M251.421,621.397C243.596,607.613,210.247,600.880,195.568,604.389C173.662,609.756,167.479,627.542,167.006,646.408C166.787,653.134,166.279,660.535,169.898,666.304C171.199,668.376,173.869,671.106,175.713,672.725C189.590,685.967,199.188,683.706,217.045,682.671C226.498,682.281,242.185,680.697,249.457,673.990C254.911,668.469,255.169,662.727,255.053,655.415C254.690,648.383,254.561,626.454,251.421,621.397Z"/>
<path class="path-3" d="M198.533,614.099C202.272,613.163,207.684,614.680,211.921,615.323"/>
<path class="path-3" d="M211.921,615.323C233.611,618.559,242.180,622.982,243.989,645.030"/>
<path class="path-3" d="M243.989,645.030C244.365,651.103,245.670,658.598,241.379,663.708"/>
<path class="path-3" d="M241.379,663.708C237.123,668.684,215.762,667.148,209.294,667.772"/>
<path class="path-3" d="M209.294,667.772C197.880,669.123,188.301,675.122,179.855,665.549"/>
<path class="path-3" d="M179.855,665.549C174.765,659.657,176.760,655.824,177.120,648.550"/>
<path class="path-3" d="M177.120,648.550C177.811,634.981,182.221,617.299,198.533,614.099"/>
<path class="path-4" d="M198.533,614.099C202.272,613.163,207.684,614.680,211.921,615.323C233.611,618.559,242.180,622.982,243.989,645.030C244.365,651.103,245.670,658.598,241.379,663.708C237.123,668.684,215.762,667.148,209.294,667.772C197.880,669.123,188.301,675.122,179.855,665.549C174.765,659.657,176.760,655.824,177.120,648.550C177.811,634.981,182.221,617.299,198.533,614.099Z"/>
</g>
<g id="right_sole">
<path class="path-0" d="M197.554,680.291C199.115,680.554,214.561,679.427,216.322,679.334C217.727,679.280,226.164,678.992,227.358,678.855C228.107,678.786,235.575,678.048,236.171,678.473C235.600,678.063,227.670,679.933,227.200,679.974C226.266,680.086,199.906,681.314,199.600,681.440C198.415,681.532,187.100,681.220,186.315,680.263C187.557,679.756,195.740,679.982,197.554,680.291M237.190,672.637C237.260,672.915,235.727,674.749,235.302,674.776C234.459,674.833,221.134,677.032,220.010,676.845C218.745,676.860,209.857,677.874,208.718,677.922C206.482,678.016,188.444,678.532,186.465,677.516C186.209,677.323,185.327,676.071,185.359,675.893C185.412,675.608,192.544,675.332,193.638,675.229C195.355,675.067,209.405,673.992,211.170,673.877C213.082,673.752,228.250,673.126,230.201,672.860C230.506,672.826,237.016,671.956,237.190,672.637M242.660,667.022C231.125,664.387,222.444,669.404,212.076,670.291C204.599,670.964,190.139,670.119,181.104,672.377C179.647,672.741,176.820,672.677,176.449,674.222C175.989,676.154,179.854,680.064,182.258,681.475C185.238,683.225,191.247,682.949,193.648,683.188C205.845,684.849,221.165,682.899,233.543,681.705C242.666,680.830,244.754,677.062,245.469,672.622C245.767,670.766,246.278,667.800,242.660,667.022Z"/>
<path class="path-5" d="M197.554,680.291C199.115,680.554,214.561,679.427,216.322,679.334"/>
<path class="path-5" d="M216.322,679.334C217.727,679.280,226.164,678.992,227.358,678.855"/>
<path class="path-5" d="M227.358,678.855C228.107,678.786,235.575,678.048,236.171,678.473"/>
<path class="path-5" d="M236.171,678.473C235.600,678.063,227.670,679.933,227.200,679.974"/>
<path class="path-5" d="M227.200,679.974C226.266,680.086,199.906,681.314,199.600,681.440"/>
<path class="path-5" d="M199.600,681.440C198.415,681.532,187.100,681.220,186.315,680.263"/>
<path class="path-5" d="M186.315,680.263C187.557,679.756,195.740,679.982,197.554,680.291"/>
<path class="path-6" d="M197.554,680.291C199.115,680.554,214.561,679.427,216.322,679.334C217.727,679.280,226.164,678.992,227.358,678.855C228.107,678.786,235.575,678.048,236.171,678.473C235.600,678.063,227.670,679.933,227.200,679.974C226.266,680.086,199.906,681.314,199.600,681.440C198.415,681.532,187.100,681.220,186.315,680.263C187.557,679.756,195.740,679.982,197.554,680.291Z"/>
<path class="path-5" d="M193.638,675.229C195.355,675.067,209.405,673.992,211.170,673.877"/>
<path class="path-5" d="M211.170,673.877C213.082,673.752,228.250,673.126,230.201,672.860"/>
<path class="path-5" d="M230.201,672.860C230.506,672.826,237.016,671.956,237.190,672.637"/>
<path class="path-5" d="M237.190,672.637C237.260,672.915,235.727,674.749,235.302,674.776"/>
<path class="path-5" d="M235.302,674.776C234.459,674.833,221.134,677.032,220.010,676.845"/>
<path class="path-5" d="M220.010,676.845C218.745,676.860,209.857,677.874,208.718,677.922"/>
<path class="path-5" d="M208.718,677.922C206.482,678.016,188.444,678.532,186.465,677.516"/>
<path class="path-5" d="M186.465,677.516C186.209,677.323,185.327,676.071,185.359,675.893"/>
<path class="path-5" d="M185.359,675.893C185.412,675.608,192.544,675.332,193.638,675.229"/>
<path class="path-6" d="M193.638,675.229C195.355,675.067,209.405,673.992,211.170,673.877C213.082,673.752,228.250,673.126,230.201,672.860C230.506,672.826,237.016,671.956,237.190,672.637C237.260,672.915,235.727,674.749,235.302,674.776C234.459,674.833,221.134,677.032,220.010,676.845C218.745,676.860,209.857,677.874,208.718,677.922C206.482,678.016,188.444,678.532,186.465,677.516C186.209,677.323,185.327,676.071,185.359,675.893C185.412,675.608,192.544,675.332,193.638,675.229Z"/>
</g>
</g>
<g id="layer_left_leg">
<g id="left_heel">
<path class="path-0" d="M299.901,660.983C293.444,649.768,303.313,634.744,313.931,631.690C331.938,626.471,353.794,638.850,353.641,645.811C352.940,658.921,329.255,661.300,318.188,662.958C313.599,663.492,302.104,664.843,299.901,660.983M341.943,621.178C324.425,614.093,294.464,622.341,284.620,636.482C276.026,648.734,282.557,682.412,296.920,681.402C314.177,680.203,354.298,669.261,361.805,663.653C370.300,657.458,366.227,643.203,361.000,634.878C356.976,629.241,348.520,623.947,341.943,621.178Z"/>
<path class="path-3" d="M313.931,631.690C331.938,626.471,353.794,638.850,353.641,645.811"/>
<path class="path-3" d="M353.641,645.811C352.940,658.921,329.255,661.300,318.188,662.958"/>
<path class="path-3" d="M318.188,662.958C313.599,663.492,302.104,664.843,299.901,660.983"/>
<path class="path-3" d="M299.901,660.983C293.444,649.768,303.313,634.744,313.931,631.690"/>
<path class="path-4" d="M313.931,631.690C331.938,626.471,353.794,638.850,353.641,645.811C352.940,658.921,329.255,661.300,318.188,662.958C313.599,663.492,302.104,664.843,299.901,660.983C293.444,649.768,303.313,634.744,313.931,631.690Z"/>
</g>
<g id="left_leg">
<path class="path-0" d="M241.396,412.963C241.924,408.065,252.162,409.721,255.894,408.657C262.417,407.134,276.747,400.465,282.740,403.742C289.021,406.908,291.995,426.358,293.685,432.910C298.254,452.987,307.297,470.432,314.251,489.060C319.844,505.205,324.293,522.467,331.738,537.474C335.961,545.164,343.512,551.185,347.873,558.214C352.231,569.107,361.684,580.335,356.811,590.059C345.836,608.913,339.415,604.417,327.167,613.946C317.528,620.982,299.674,618.678,289.750,614.325C283.819,611.957,272.762,606.380,270.069,600.684C255.537,569.949,252.915,529.930,248.133,496.930C246.279,484.135,251.873,456.623,247.556,443.395C246.426,439.932,246.477,438.376,247.254,434.906C247.743,432.699,243.308,426.632,242.472,424.497C241.112,421.707,240.908,415.956,241.396,412.963M288.478,395.306C280.716,391.100,261.690,396.676,253.895,399.219C249.633,400.591,235.274,402.059,232.907,405.124C225.965,414.115,236.268,432.763,238.578,441.732C240.037,449.505,235.471,487.299,235.855,497.939C238.488,525.560,239.082,549.885,247.345,576.373C252.554,593.879,256.772,611.842,268.546,625.475C283.078,642.063,301.234,639.770,325.424,630.490C344.627,623.296,370.392,620.842,371.225,590.269C371.873,567.217,357.849,543.424,352.568,536.299C347.270,529.157,340.459,522.623,335.747,514.339C327.149,500.372,323.138,484.128,317.426,468.652C311.040,451.296,305.623,404.647,288.478,395.306Z"/>
<path class="path-7" d="M255.894,408.657C262.417,407.134,276.747,400.465,282.740,403.742"/>
<path class="path-7" d="M282.740,403.742C289.021,406.908,291.995,426.358,293.685,432.910"/>
<path class="path-7" d="M293.685,432.910C298.254,452.987,307.297,470.432,314.251,489.060"/>
<path class="path-7" d="M314.251,489.060C319.844,505.205,324.293,522.467,331.738,537.474"/>
<path class="path-7" d="M331.738,537.474C335.961,545.164,343.512,551.185,347.873,558.214"/>
<path class="path-7" d="M347.873,558.214C352.231,569.107,361.684,580.335,356.811,590.059"/>
<path class="path-7" d="M356.811,590.059C345.836,608.913,339.415,604.417,327.167,613.946"/>
<path class="path-7" d="M327.167,613.946C317.528,620.982,299.674,618.678,289.750,614.325"/>
<path class="path-7" d="M289.750,614.325C283.819,611.957,272.762,606.380,270.069,600.684"/>
<path class="path-7" d="M270.069,600.684C255.537,569.949,252.915,529.930,248.133,496.930"/>
<path class="path-7" d="M248.133,496.930C246.279,484.135,251.873,456.623,247.556,443.395"/>
<path class="path-7" d="M247.556,443.395C246.426,439.932,246.477,438.376,247.254,434.906"/>
<path class="path-7" d="M247.254,434.906C247.743,432.699,243.308,426.632,242.472,424.497"/>
<path class="path-7" d="M242.472,424.497C241.112,421.707,240.908,415.956,241.396,412.963"/>
<path class="path-7" d="M241.396,412.963C241.924,408.065,252.162,409.721,255.894,408.657"/>
<path class="path-8" d="M255.894,408.657C262.417,407.134,276.747,400.465,282.740,403.742C289.021,406.908,291.995,426.358,293.685,432.910C298.254,452.987,307.297,470.432,314.251,489.060C319.844,505.205,324.293,522.467,331.738,537.474C335.961,545.164,343.512,551.185,347.873,558.214C352.231,569.107,361.684,580.335,356.811,590.059C345.836,608.913,339.415,604.417,327.167,613.946C317.528,620.982,299.674,618.678,289.750,614.325C283.819,611.957,272.762,606.380,270.069,600.684C255.537,569.949,252.915,529.930,248.133,496.930C246.279,484.135,251.873,456.623,247.556,443.395C246.426,439.932,246.477,438.376,247.254,434.906C247.743,432.699,243.308,426.632,242.472,424.497C241.112,421.707,240.908,415.956,241.396,412.963C241.924,408.065,252.162,409.721,255.894,408.657Z"/>
</g>
<g id="left_toe">
<path class="path-0" d="M305.694,655.315C267.355,650.936,277.049,590.674,297.901,587.135C329.844,581.713,345.768,596.366,353.745,605.501C361.564,614.524,363.520,626.577,358.882,637.879C351.110,653.087,320.872,657.059,305.694,655.315M352.790,580.195C337.833,573.605,316.126,564.137,298.168,572.117C277.419,581.338,261.317,600.392,263.559,626.485C264.441,643.290,269.893,658.955,283.166,669.300C294.665,677.699,325.750,671.878,338.805,668.042C351.258,663.432,368.474,658.152,373.814,644.863C379.846,630.470,366.749,586.347,352.790,580.195Z"/>
<path class="path-3" d="M297.901,587.135C329.844,581.713,345.768,596.366,353.745,605.501"/>
<path class="path-3" d="M353.745,605.501C361.564,614.524,363.520,626.577,358.882,637.879"/>
<path class="path-3" d="M358.882,637.879C351.110,653.087,320.872,657.059,305.694,655.315"/>
<path class="path-3" d="M305.694,655.315C267.355,650.936,277.049,590.674,297.901,587.135"/>
<path class="path-4" d="M297.901,587.135C329.844,581.713,345.768,596.366,353.745,605.501C361.564,614.524,363.520,626.577,358.882,637.879C351.110,653.087,320.872,657.059,305.694,655.315C267.355,650.936,277.049,590.674,297.901,587.135Z"/>
</g>
<g id="left_sole">
<path class="path-0" d="M308.230,670.443C299.382,669.595,293.867,669.360,294.630,667.963C296.681,664.210,305.126,660.929,311.758,658.228C317.711,655.861,337.570,656.713,348.115,653.870C351.477,653.247,361.969,654.766,362.085,655.014C364.654,660.503,349.687,659.977,345.767,661.291C338.788,663.929,309.385,669.922,308.230,670.443M289.685,659.045C286.976,656.512,296.973,647.950,299.717,646.524C327.593,632.037,348.558,634.257,358.669,636.843C361.033,637.442,368.231,641.500,366.556,644.362C364.101,648.558,350.279,642.241,338.284,643.995C315.175,647.170,293.855,662.943,289.685,659.045M371.336,634.929C363.128,629.156,341.954,625.569,316.708,631.259C302.536,634.448,280.392,644.201,279.964,658.753C279.810,664.441,288.726,680.084,294.178,681.259C307.536,684.171,370.557,666.859,373.844,659.567C376.485,653.710,374.975,637.489,371.336,634.929Z"/>
<path class="path-5" d="M294.630,667.963C296.681,664.210,305.126,660.929,311.758,658.228"/>
<path class="path-5" d="M311.758,658.228C317.711,655.861,337.570,656.713,348.115,653.870"/>
<path class="path-5" d="M348.115,653.870C351.477,653.247,361.969,654.766,362.085,655.014"/>
<path class="path-5" d="M362.085,655.014C364.654,660.503,349.687,659.977,345.767,661.291"/>
<path class="path-5" d="M345.767,661.291C338.788,663.929,309.385,669.922,308.230,670.443"/>
<path class="path-5" d="M308.230,670.443C299.382,669.595,293.867,669.360,294.630,667.963"/>
<path class="path-6" d="M294.630,667.963C296.681,664.210,305.126,660.929,311.758,658.228C317.711,655.861,337.570,656.713,348.115,653.870C351.477,653.247,361.969,654.766,362.085,655.014C364.654,660.503,349.687,659.977,345.767,661.291C338.788,663.929,309.385,669.922,308.230,670.443C299.382,669.595,293.867,669.360,294.630,667.963Z"/>
<path class="path-5" d="M299.717,646.524C327.593,632.037,348.558,634.257,358.669,636.843"/>
<path class="path-5" d="M358.669,636.843C361.033,637.442,368.231,641.500,366.556,644.362"/>
<path class="path-5" d="M366.556,644.362C364.101,648.558,350.279,642.241,338.284,643.995"/>
<path class="path-5" d="M338.284,643.995C315.175,647.170,293.855,662.943,289.685,659.045"/>
<path class="path-5" d="M289.685,659.045C286.976,656.512,296.973,647.950,299.717,646.524"/>
<path class="path-6" d="M299.717,646.524C327.593,632.037,348.558,634.257,358.669,636.843C361.033,637.442,368.231,641.500,366.556,644.362C364.101,648.558,350.279,642.241,338.284,643.995C315.175,647.170,293.855,662.943,289.685,659.045C286.976,656.512,296.973,647.950,299.717,646.524Z"/>
</g>
</g>
<g id="hat_brim">
<path class="path-0" d="M296.937,141.812C300.592,135.821,309.564,119.513,317.548,119.507C322.872,119.503,333.857,129.145,339.515,132.135C344.507,135.126,349.833,137.784,355.490,140.441C358.704,142.108,361.921,143.769,365.141,145.424C379.453,152.734,375.465,159.060,367.145,157.733C348.513,154.418,345.520,155.752,327.548,146.448C325.218,145.452,319.227,142.130,318.232,146.455C316.906,151.446,325.892,155.766,329.552,157.426C336.208,161.082,343.530,165.070,351.515,165.729C353.845,166.061,361.829,165.388,363.160,167.716C365.159,171.043,355.517,179.699,353.523,181.697C350.197,184.693,346.874,187.690,343.547,190.022C338.559,193.351,333.238,196.349,327.583,197.351C316.939,198.689,283.658,183.408,282.652,171.765C281.982,165.112,292.949,148.137,296.937,141.812M329.523,115.175C324.529,110.852,320.865,104.533,313.547,107.866C308.225,110.199,302.576,117.855,298.920,121.850C285.290,138.493,272.995,158.132,273.674,179.756C274.017,193.396,278.674,193.061,289.657,198.375C306.296,206.682,327.592,209.328,345.551,201.000C357.191,195.668,377.474,177.688,382.790,165.707C384.450,161.714,387.437,152.729,385.104,148.073C382.439,142.418,360.142,132.786,353.486,129.132C345.498,124.811,336.513,120.825,329.523,115.175Z"/>
<path class="path-9" d="M317.548,119.507C322.872,119.503,333.857,129.145,339.515,132.135"/>
<path class="path-9" d="M339.515,132.135C344.507,135.126,349.833,137.784,355.490,140.441"/>
<path class="path-9" d="M355.490,140.441C358.704,142.108,361.921,143.769,365.141,145.424"/>
<path class="path-9" d="M365.141,145.424C379.453,152.734,375.465,159.060,367.145,157.733"/>
<path class="path-9" d="M367.145,157.733C348.513,154.418,345.520,155.752,327.548,146.448"/>
<path class="path-9" d="M327.548,146.448C325.218,145.452,319.227,142.130,318.232,146.455"/>
<path class="path-9" d="M318.232,146.455C316.906,151.446,325.892,155.766,329.552,157.426"/>
<path class="path-9" d="M329.552,157.426C336.208,161.082,343.530,165.070,351.515,165.729"/>
<path class="path-9" d="M351.515,165.729C353.845,166.061,361.829,165.388,363.160,167.716"/>
<path class="path-9" d="M363.160,167.716C365.159,171.043,355.517,179.699,353.523,181.697"/>
<path class="path-9" d="M353.523,181.697C350.197,184.693,346.874,187.690,343.547,190.022"/>
<path class="path-9" d="M343.547,190.022C338.559,193.351,333.238,196.349,327.583,197.351"/>
<path class="path-9" d="M327.583,197.351C316.939,198.689,283.658,183.408,282.652,171.765"/>
<path class="path-9" d="M282.652,171.765C281.982,165.112,292.949,148.137,296.937,141.812"/>
<path class="path-9" d="M296.937,141.812C300.592,135.821,309.564,119.513,317.548,119.507"/>
<path class="path-10" d="M317.548,119.507C322.872,119.503,333.857,129.145,339.515,132.135C344.507,135.126,349.833,137.784,355.490,140.441C358.704,142.108,361.921,143.769,365.141,145.424C379.453,152.734,375.465,159.060,367.145,157.733C348.513,154.418,345.520,155.752,327.548,146.448C325.218,145.452,319.227,142.130,318.232,146.455C316.906,151.446,325.892,155.766,329.552,157.426C336.208,161.082,343.530,165.070,351.515,165.729C353.845,166.061,361.829,165.388,363.160,167.716C365.159,171.043,355.517,179.699,353.523,181.697C350.197,184.693,346.874,187.690,343.547,190.022C338.559,193.351,333.238,196.349,327.583,197.351C316.939,198.689,283.658,183.408,282.652,171.765C281.982,165.112,292.949,148.137,296.937,141.812C300.592,135.821,309.564,119.513,317.548,119.507Z"/>
</g>
<g id="hair">
<path class="path-0" d="M188.450,142.231C205.188,129.300,225.027,126.971,246.018,124.818C255.427,123.835,262.297,129.848,269.905,135.688C276.173,140.834,282.929,146.650,289.582,152.046C299.593,160.107,303.833,164.201,307.625,168.130C310.846,171.124,315.912,176.773,319.859,179.366C324.621,182.492,334.822,199.013,336.976,200.818C330.492,203.463,320.191,205.756,315.652,209.888C317.662,215.601,318.565,224.591,318.743,227.295C312.574,228.107,305.197,225.750,293.633,224.378C291.751,231.693,292.181,238.408,287.940,245.976C280.103,244.111,274.630,242.555,264.406,238.738C258.167,244.336,256.604,244.024,246.335,251.195C238.985,247.305,233.055,243.038,225.976,240.627C219.395,243.932,208.741,245.613,205.288,248.759C201.053,241.971,197.079,234.431,193.621,231.266C184.167,233.822,180.224,236.697,173.614,239.575C169.063,234.333,171.788,229.609,166.616,221.810C162.223,220.910,155.386,218.710,149.829,218.944C153.387,214.227,155.307,199.335,161.679,197.071C169.541,194.277,163.919,185.471,168.335,176.986C169.423,174.782,180.170,157.761,181.060,155.031C182.774,150.315,184.659,145.306,188.450,142.231M273.732,122.805C260.938,114.150,235.977,110.554,222.322,114.634C209.781,118.227,197.564,122.993,186.959,130.830C181.016,135.159,174.533,141.400,170.796,147.744C163.311,160.078,153.037,186.692,147.092,199.089C142.358,209.359,137.777,216.377,132.969,222.085C150.940,227.444,156.233,229.788,161.519,230.277C162.309,237.999,169.795,243.318,169.069,251.934C177.784,250.106,182.886,247.567,190.587,245.150C194.837,249.558,197.957,255.709,202.121,261.672C209.698,259.120,217.593,258.942,224.894,253.043C230.591,255.722,239.634,259.873,248.935,264.282C256.958,259.378,258.717,259.020,266.193,253.515C275.793,255.284,286.081,260.555,295.553,258.975C294.394,250.843,300.108,244.872,299.091,239.672C306.165,237.321,328.379,239.210,332.121,238.665C331.536,232.643,327.528,221.285,328.666,214.000C335.355,211.790,341.004,209.804,351.319,204.082C347.454,197.605,340.740,189.677,334.990,185.055C330.139,181.195,326.065,175.940,321.200,171.906C304.718,158.462,297.401,138.901,273.732,122.805Z"/>
<path class="path-11" d="M246.018,124.818C255.427,123.835,262.297,129.848,269.905,135.688"/>
<path class="path-11" d="M269.905,135.688C276.173,140.834,282.929,146.650,289.582,152.046"/>
<path class="path-11" d="M289.582,152.046C299.593,160.107,303.833,164.201,307.625,168.130"/>
<path class="path-11" d="M307.625,168.130C310.846,171.124,315.912,176.773,319.859,179.366"/>
<path class="path-11" d="M319.859,179.366C324.621,182.492,334.822,199.013,336.976,200.818"/>
<path class="path-11" d="M336.976,200.818C330.492,203.463,320.191,205.756,315.652,209.888"/>
<path class="path-11" d="M315.652,209.888C317.662,215.601,318.565,224.591,318.743,227.295"/>
<path class="path-11" d="M318.743,227.295C312.574,228.107,305.197,225.750,293.633,224.378"/>
<path class="path-11" d="M293.633,224.378C291.751,231.693,292.181,238.408,287.940,245.976"/>
<path class="path-11" d="M287.940,245.976C280.103,244.111,274.630,242.555,264.406,238.738"/>
<path class="path-11" d="M264.406,238.738C258.167,244.336,256.604,244.024,246.335,251.195"/>
<path class="path-11" d="M246.335,251.195C238.985,247.305,233.055,243.038,225.976,240.627"/>
<path class="path-11" d="M225.976,240.627C219.395,243.932,208.741,245.613,205.288,248.759"/>
<path class="path-11" d="M205.288,248.759C201.053,241.971,197.079,234.431,193.621,231.266"/>
<path class="path-11" d="M193.621,231.266C184.167,233.822,180.224,236.697,173.614,239.575"/>
<path class="path-11" d="M173.614,239.575C169.063,234.333,171.788,229.609,166.616,221.810"/>
<path class="path-11" d="M166.616,221.810C162.223,220.910,155.386,218.710,149.829,218.944"/>
<path class="path-11" d="M149.829,218.944C153.387,214.227,155.307,199.335,161.679,197.071"/>
<path class="path-11" d="M161.679,197.071C169.541,194.277,163.919,185.471,168.335,176.986"/>
<path class="path-11" d="M168.335,176.986C169.423,174.782,180.170,157.761,181.060,155.031"/>
<path class="path-11" d="M181.060,155.031C182.774,150.315,184.659,145.306,188.450,142.231"/>
<path class="path-11" d="M188.450,142.231C205.188,129.300,225.027,126.971,246.018,124.818"/>
<path class="path-12" d="M246.018,124.818C255.427,123.835,262.297,129.848,269.905,135.688C276.173,140.834,282.929,146.650,289.582,152.046C299.593,160.107,303.833,164.201,307.625,168.130C310.846,171.124,315.912,176.773,319.859,179.366C324.621,182.492,334.822,199.013,336.976,200.818C330.492,203.463,320.191,205.756,315.652,209.888C317.662,215.601,318.565,224.591,318.743,227.295C312.574,228.107,305.197,225.750,293.633,224.378C291.751,231.693,292.181,238.408,287.940,245.976C280.103,244.111,274.630,242.555,264.406,238.738C258.167,244.336,256.604,244.024,246.335,251.195C238.985,247.305,233.055,243.038,225.976,240.627C219.395,243.932,208.741,245.613,205.288,248.759C201.053,241.971,197.079,234.431,193.621,231.266C184.167,233.822,180.224,236.697,173.614,239.575C169.063,234.333,171.788,229.609,166.616,221.810C162.223,220.910,155.386,218.710,149.829,218.944C153.387,214.227,155.307,199.335,161.679,197.071C169.541,194.277,163.919,185.471,168.335,176.986C169.423,174.782,180.170,157.761,181.060,155.031C182.774,150.315,184.659,145.306,188.450,142.231C205.188,129.300,225.027,126.971,246.018,124.818Z"/>
</g>
<g id="clothes">
<path class="path-0" d="M244.698,370.797C239.862,368.684,221.052,365.224,217.690,369.545C215.211,372.937,219.075,374.579,222.706,375.004C226.441,375.440,246.061,379.256,248.714,377.773C253.292,375.142,246.886,371.641,244.698,370.797M199.223,265.743C203.063,253.366,230.808,242.352,243.651,244.246C252.596,245.539,279.928,261.506,283.336,270.113C286.193,277.002,285.455,301.697,285.181,310.039C284.399,325.330,283.708,340.697,284.069,356.003C284.872,367.235,291.531,378.292,289.407,389.351C288.402,392.373,283.133,397.441,279.975,398.959C273.387,402.519,258.251,405.764,251.460,404.572C225.682,400.766,228.797,397.223,204.486,394.739C200.701,394.206,188.180,394.286,185.777,392.512C180.826,387.893,183.760,380.509,185.428,374.206C189.308,361.626,191.938,353.024,194.263,339.256C196.835,323.387,199.439,306.316,200.604,289.741C200.691,283.769,198.314,269.333,199.223,265.743M279.086,252.731C263.455,241.949,248.028,232.870,228.011,237.179C222.617,238.139,195.206,249.236,192.665,252.398C188.690,257.435,191.064,277.796,190.569,285.051C190.314,293.676,189.978,302.631,188.709,310.852C187.917,317.129,186.164,322.665,185.719,328.634C184.893,335.240,184.651,342.467,182.907,348.429C178.584,362.832,164.215,390.785,180.739,402.363C185.562,405.768,193.085,405.304,199.264,406.137C209.462,407.313,220.207,409.645,230.601,410.402C243.153,411.665,255.648,412.992,268.416,413.173C275.956,413.281,300.170,417.999,305.023,411.681C307.718,408.333,304.717,389.441,303.627,384.708C300.438,373.362,295.253,362.410,293.811,350.714C292.676,338.784,293.271,326.983,294.830,314.751C295.892,304.792,298.250,295.259,298.963,284.939C298.928,280.575,299.941,275.282,297.900,270.782C294.451,262.515,286.113,257.568,279.086,252.731Z"/>
<path class="path-13" d="M244.698,370.797C239.862,368.684,221.052,365.224,217.690,369.545"/>
<path class="path-13" d="M217.690,369.545C215.211,372.937,219.075,374.579,222.706,375.004"/>
<path class="path-13" d="M222.706,375.004C226.441,375.440,246.061,379.256,248.714,377.773"/>
<path class="path-13" d="M248.714,377.773C253.292,375.142,246.886,371.641,244.698,370.797"/>
<path class="path-13" d="M199.223,265.743C203.063,253.366,230.808,242.352,243.651,244.246"/>
<path class="path-13" d="M243.651,244.246C252.596,245.539,279.928,261.506,283.336,270.113"/>
<path class="path-13" d="M283.336,270.113C286.193,277.002,285.455,301.697,285.181,310.039"/>
<path class="path-13" d="M285.181,310.039C284.399,325.330,283.708,340.697,284.069,356.003"/>
<path class="path-13" d="M284.069,356.003C284.872,367.235,291.531,378.292,289.407,389.351"/>
<path class="path-13" d="M289.407,389.351C288.402,392.373,283.133,397.441,279.975,398.959"/>
<path class="path-13" d="M279.975,398.959C273.387,402.519,258.251,405.764,251.460,404.572"/>
<path class="path-13" d="M251.460,404.572C225.682,400.766,228.797,397.223,204.486,394.739"/>
<path class="path-13" d="M204.486,394.739C200.701,394.206,188.180,394.286,185.777,392.512"/>
<path class="path-13" d="M185.777,392.512C180.826,387.893,183.760,380.509,185.428,374.206"/>
<path class="path-13" d="M185.428,374.206C189.308,361.626,191.938,353.024,194.263,339.256"/>
<path class="path-13" d="M194.263,339.256C196.835,323.387,199.439,306.316,200.604,289.741"/>
<path class="path-13" d="M200.604,289.741C200.691,283.769,198.314,269.333,199.223,265.743"/>
<path class="path-14" d="M244.698,370.797C239.862,368.684,221.052,365.224,217.690,369.545C215.211,372.937,219.075,374.579,222.706,375.004C226.441,375.440,246.061,379.256,248.714,377.773C253.292,375.142,246.886,371.641,244.698,370.797M199.223,265.743C203.063,253.366,230.808,242.352,243.651,244.246C252.596,245.539,279.928,261.506,283.336,270.113C286.193,277.002,285.455,301.697,285.181,310.039C284.399,325.330,283.708,340.697,284.069,356.003C284.872,367.235,291.531,378.292,289.407,389.351C288.402,392.373,283.133,397.441,279.975,398.959C273.387,402.519,258.251,405.764,251.460,404.572C225.682,400.766,228.797,397.223,204.486,394.739C200.701,394.206,188.180,394.286,185.777,392.512C180.826,387.893,183.760,380.509,185.428,374.206C189.308,361.626,191.938,353.024,194.263,339.256C196.835,323.387,199.439,306.316,200.604,289.741C200.691,283.769,198.314,269.333,199.223,265.743Z"/>
</g>
<g id="neck">
<path class="path-0" d="M235.929,225.463C236.152,222.126,237.051,219.100,240.697,218.646C252.268,216.265,252.517,253.873,241.878,254.226C231.902,254.557,235.474,231.801,235.929,225.463M240.388,209.337C237.717,209.092,234.747,209.856,232.463,211.264C223.306,216.227,224.923,224.829,225.210,233.474C225.020,237.808,225.486,241.788,223.613,245.511C222.061,248.892,217.515,252.370,217.636,256.029C218.300,265.994,245.234,265.100,252.206,264.535C254.865,264.446,263.876,265.146,264.752,261.456C264.719,260.458,257.683,249.040,256.531,244.418C253.075,230.552,261.702,209.628,240.388,209.337Z"/>
<path class="path-15" d="M240.697,218.646C252.268,216.265,252.517,253.873,241.878,254.226"/>
<path class="path-15" d="M241.878,254.226C231.902,254.557,235.474,231.801,235.929,225.463"/>
<path class="path-15" d="M235.929,225.463C236.152,222.126,237.051,219.100,240.697,218.646"/>
<path class="path-16" d="M240.697,218.646C252.268,216.265,252.517,253.873,241.878,254.226C231.902,254.557,235.474,231.801,235.929,225.463C236.152,222.126,237.051,219.100,240.697,218.646Z"/>
</g>
<g id="layer_head">
<g id="right_ear">
<path class="path-0" d="M152.732,196.889C141.463,198.954,126.576,162.018,142.631,165.887C147.398,167.025,149.992,175.493,150.885,179.119C152.526,185.409,160.455,195.513,152.732,196.889M148.702,153.949C145.327,152.047,141.242,151.205,137.739,152.859C127.886,155.715,124.028,167.837,125.656,178.019C127.786,190.475,139.693,205.601,151.093,208.430C154.232,209.227,160.707,211.472,163.797,210.005C170.367,206.373,165.301,196.132,163.541,190.511C161.605,183.825,153.876,158.163,148.702,153.949Z"/>
<path class="path-15" d="M142.631,165.887C147.398,167.025,149.992,175.493,150.885,179.119"/>
<path class="path-15" d="M150.885,179.119C152.526,185.409,160.455,195.513,152.732,196.889"/>
<path class="path-15" d="M152.732,196.889C141.463,198.954,126.576,162.018,142.631,165.887"/>
<path class="path-16" d="M142.631,165.887C147.398,167.025,149.992,175.493,150.885,179.119C152.526,185.409,160.455,195.513,152.732,196.889C141.463,198.954,126.576,162.018,142.631,165.887Z"/>
</g>
<g id="face_Mask">
<g id="face">
<path class="path-0" d="M166.128,107.869C174.607,97.415,207.370,90.207,221.009,88.201C236.312,86.195,251.950,88.513,266.924,93.160C272.249,94.821,279.997,96.693,284.562,100.467C292.109,106.756,295.963,118.155,298.619,127.213C300.704,133.701,304.741,142.153,303.395,148.451C297.569,175.708,291.860,187.891,286.699,195.633C280.060,205.592,267.810,209.860,257.171,215.119C241.360,222.655,225.078,227.065,216.469,226.667C203.989,226.091,177.337,217.943,168.759,209.610C161.064,201.850,160.802,191.001,158.481,180.794C156.264,172.270,153.484,159.227,152.463,150.657C151.310,139.486,159.149,116.396,166.128,107.869M288.574,92.789C275.027,80.491,238.679,77.792,221.047,80.448C212.728,81.444,204.742,82.108,197.090,84.105C191.432,85.770,186.438,88.432,181.112,90.099C169.469,94.431,164.656,92.996,156.834,103.766C151.216,111.305,143.262,140.952,143.428,150.194C143.674,157.166,147.257,173.640,148.726,181.628C150.398,191.030,152.457,203.951,157.526,211.644C161.991,218.212,167.977,222.788,178.120,227.365C190.359,232.888,204.450,236.586,218.226,237.794C226.351,239.011,242.116,234.526,263.365,223.706C274.863,217.669,286.520,211.055,294.099,199.448C302.286,186.911,309.014,169.149,314.642,147.999C319.940,128.089,296.913,100.195,288.574,92.789Z"/>
<path class="path-15" d="M221.009,88.201C236.312,86.195,251.950,88.513,266.924,93.160"/>
<path class="path-15" d="M266.924,93.160C272.249,94.821,279.997,96.693,284.562,100.467"/>
<path class="path-15" d="M284.562,100.467C292.109,106.756,295.963,118.155,298.619,127.213"/>
<path class="path-15" d="M298.619,127.213C300.704,133.701,304.741,142.153,303.395,148.451"/>
<path class="path-15" d="M303.395,148.451C297.569,175.708,291.860,187.891,286.699,195.633"/>
<path class="path-15" d="M286.699,195.633C280.060,205.592,267.810,209.860,257.171,215.119"/>
<path class="path-15" d="M257.171,215.119C241.360,222.655,225.078,227.065,216.469,226.667"/>
<path class="path-15" d="M216.469,226.667C203.989,226.091,177.337,217.943,168.759,209.610"/>
<path class="path-15" d="M168.759,209.610C161.064,201.850,160.802,191.001,158.481,180.794"/>
<path class="path-15" d="M158.481,180.794C156.264,172.270,153.484,159.227,152.463,150.657"/>
<path class="path-15" d="M152.463,150.657C151.310,139.486,159.149,116.396,166.128,107.869"/>
<path class="path-15" d="M166.128,107.869C174.607,97.415,207.370,90.207,221.009,88.201"/>
<path class="path-16" d="M221.009,88.201C236.312,86.195,251.950,88.513,266.924,93.160C272.249,94.821,279.997,96.693,284.562,100.467C292.109,106.756,295.963,118.155,298.619,127.213C300.704,133.701,304.741,142.153,303.395,148.451C297.569,175.708,291.860,187.891,286.699,195.633C280.060,205.592,267.810,209.860,257.171,215.119C241.360,222.655,225.078,227.065,216.469,226.667C203.989,226.091,177.337,217.943,168.759,209.610C161.064,201.850,160.802,191.001,158.481,180.794C156.264,172.270,153.484,159.227,152.463,150.657C151.310,139.486,159.149,116.396,166.128,107.869C174.607,97.415,207.370,90.207,221.009,88.201Z"/>
</g>
</g>
<mask id="mask_target" style="mask-type:alpha;">
<use xlink:href="#face_Mask"/>
</mask>
<g id="mouse">
<path class="path-0" d="M218.955,217.034C224.160,218.134,224.247,222.887,223.773,223.395C223.506,223.681,222.383,222.730,219.423,222.246C213.816,221.328,211.111,222.502,210.913,221.788C210.696,221.005,212.861,215.746,218.955,217.034Z"/>
</g>
<g id="layer_eyes_Mtarget" mask="url(#mask_target)">
<g id="eyes">
<mask style="mask-type:alpha;" id="f3906406-f197-4bf1-91d8-744c09cca836">
<use xlink:href="#cmn_f3906406-f197-4bf1-91d8-744c09cca836"/>
</mask>
<g id="cmn_f3906406-f197-4bf1-91d8-744c09cca836">
<path class="path-0" d="M189.205,177.740C191.524,187.403,185.182,195.089,177.938,194.662C172.183,194.218,168.819,188.337,167.027,182.711C165.798,179.328,161.466,163.357,166.046,165.847C168.903,167.400,188.476,174.701,189.205,177.740M196.528,181.022C197.126,179.459,197.899,177.100,197.378,175.509C196.870,173.957,195.186,171.795,193.535,171.653C189.190,171.182,174.947,163.444,169.539,161.221C165.381,159.581,154.918,153.266,151.467,156.800C147.339,160.906,153.493,163.991,155.520,171.851C159.159,185.961,170.475,202.280,181.556,201.102C192.882,199.897,193.844,188.041,196.528,181.022M240.390,191.903C233.037,191.712,223.065,186.176,223.376,174.719C223.465,171.448,236.877,166.703,242.893,163.702C249.123,160.594,260.978,154.322,264.167,154.426C267.659,154.963,266.117,158.011,266.201,167.664C266.288,177.615,253.392,192.240,240.390,191.903M273.084,173.978C276.861,162.163,276.547,145.874,274.231,144.773C269.046,142.309,255.450,151.718,247.545,155.053C237.767,159.179,222.141,168.021,215.420,169.871C213.294,170.539,211.356,171.024,211.019,172.529C210.384,175.360,215.643,177.477,217.500,179.707C220.551,183.373,222.159,189.597,227.121,192.363C237.512,198.586,245.129,197.279,256.965,192.924C264.523,190.164,270.875,180.887,273.084,173.978Z"/>
<path class="path-17" d="M264.167,154.426C267.659,154.963,266.117,158.011,266.201,167.664"/>
<path class="path-17" d="M266.201,167.664C266.288,177.615,253.392,192.240,240.390,191.903"/>
<path class="path-17" d="M240.390,191.903C233.037,191.712,223.065,186.176,223.376,174.719"/>
<path class="path-17" d="M223.376,174.719C223.465,171.448,236.877,166.703,242.893,163.702"/>
<path class="path-17" d="M242.893,163.702C249.123,160.594,260.978,154.322,264.167,154.426"/>
<path class="path-18" d="M264.167,154.426C267.659,154.963,266.117,158.011,266.201,167.664C266.288,177.615,253.392,192.240,240.390,191.903C233.037,191.712,223.065,186.176,223.376,174.719C223.465,171.448,236.877,166.703,242.893,163.702C249.123,160.594,260.978,154.322,264.167,154.426Z"/>
<path class="path-17" d="M166.046,165.847C168.903,167.400,188.476,174.701,189.205,177.740"/>
<path class="path-17" d="M189.205,177.740C191.524,187.403,185.182,195.089,177.938,194.662"/>
<path class="path-17" d="M177.938,194.662C172.183,194.218,168.819,188.337,167.027,182.711"/>
<path class="path-17" d="M167.027,182.711C165.798,179.328,161.466,163.357,166.046,165.847"/>
<path class="path-18" d="M166.046,165.847C168.903,167.400,188.476,174.701,189.205,177.740C191.524,187.403,185.182,195.089,177.938,194.662C172.183,194.218,168.819,188.337,167.027,182.711C165.798,179.328,161.466,163.357,166.046,165.847Z"/>
</g>
</g>
<g id="pupil">
<path class="path-0" d="M224.236,169.173C226.620,168.607,229.405,172.261,230.082,181.075C230.517,186.740,229.364,189.043,227.808,189.289C225.919,189.587,224.261,186.918,222.973,180.142C221.598,172.910,222.250,169.645,224.236,169.173Z" mask="url(#f3906406-f197-4bf1-91d8-744c09cca836)"/>
<path class="path-0" d="M168.651,169.790C170.776,169.390,172.437,172.786,173.788,180.728C174.775,186.528,174.563,189.122,173.036,189.522C171.497,189.924,169.725,187.842,168.064,182.154C165.752,174.232,166.475,170.200,168.651,169.790Z" mask="url(#f3906406-f197-4bf1-91d8-744c09cca836)"/>
</g>
</g>
<g id="hat">
<path class="path-0" d="M303.991,129.032C306.151,130.076,308.927,132.680,309.340,135.332C310.902,141.778,299.802,141.842,296.390,142.237C290.073,142.335,283.475,141.927,277.441,141.755C271.628,142.115,265.797,142.008,259.974,142.144C246.724,141.421,233.538,139.981,220.292,139.238C207.035,139.017,194.217,138.346,180.556,138.072C178.850,138.083,149.803,141.181,144.579,138.798C133.808,134.002,143.965,125.243,143.360,120.075C143.238,117.027,136.779,116.223,138.360,110.932C139.815,106.331,155.672,102.175,160.478,101.037C171.752,98.305,183.468,95.206,195.494,93.769C211.313,91.967,226.933,92.899,242.951,92.157C259.921,91.465,296.552,96.661,308.252,113.378C314.721,122.442,296.850,114.449,294.877,114.032C288.729,111.270,265.684,102.334,274.956,112.868C280.161,120.099,296.982,124.903,303.991,129.032M188.666,87.101C177.618,88.506,167.478,89.285,157.054,91.547C152.808,92.457,147.832,94.307,143.774,93.365C134.916,91.437,146.090,68.936,150.057,63.766C164.791,45.047,194.939,35.754,219.972,36.301C266.056,37.308,283.935,46.302,298.197,62.682C302.686,67.465,317.554,90.629,308.489,96.605C305.194,98.482,299.302,94.898,296.416,93.510C286.413,88.955,233.785,81.363,188.666,87.101M261.529,31.695C248.677,28.822,242.845,24.676,227.852,25.119C196.843,26.353,157.880,31.554,139.066,60.432C133.140,69.756,132.182,80.265,129.689,90.238C127.795,97.673,123.106,103.201,123.530,110.773C124.133,118.015,127.589,119.735,129.345,125.454C131.396,131.538,129.016,134.149,130.188,138.108C132.396,149.464,142.825,150.092,152.392,150.467C157.090,150.652,174.439,150.343,183.888,150.285C195.146,150.216,210.156,150.010,221.414,150.041C231.380,150.068,244.664,150.439,254.630,150.433C263.845,150.427,276.143,150.551,285.344,150.037C294.922,149.502,316.024,148.003,317.163,146.876C319.090,145.004,323.383,126.469,323.604,122.979C323.838,119.291,322.212,115.498,322.670,109.583C323.382,96.514,324.015,84.586,318.031,71.674C307.132,48.684,283.144,36.911,261.529,31.695Z"/>
<path class="path-19" d="M242.951,92.157C259.921,91.465,296.552,96.661,308.252,113.378"/>
<path class="path-19" d="M308.252,113.378C314.721,122.442,296.850,114.449,294.877,114.032"/>
<path class="path-19" d="M294.877,114.032C288.729,111.270,265.684,102.334,274.956,112.868"/>
<path class="path-19" d="M274.956,112.868C280.161,120.099,296.982,124.903,303.991,129.032"/>
<path class="path-19" d="M303.991,129.032C306.151,130.076,308.927,132.680,309.340,135.332"/>
<path class="path-19" d="M309.340,135.332C310.902,141.778,299.802,141.842,296.390,142.237"/>
<path class="path-19" d="M296.390,142.237C290.073,142.335,283.475,141.927,277.441,141.755"/>
<path class="path-19" d="M277.441,141.755C271.628,142.115,265.797,142.008,259.974,142.144"/>
<path class="path-19" d="M259.974,142.144C246.724,141.421,233.538,139.981,220.292,139.238"/>
<path class="path-19" d="M220.292,139.238C207.035,139.017,194.217,138.346,180.556,138.072"/>
<path class="path-19" d="M180.556,138.072C178.850,138.083,149.803,141.181,144.579,138.798"/>
<path class="path-19" d="M144.579,138.798C133.808,134.002,143.965,125.243,143.360,120.075"/>
<path class="path-19" d="M143.360,120.075C143.238,117.027,136.779,116.223,138.360,110.932"/>
<path class="path-19" d="M138.360,110.932C139.815,106.331,155.672,102.175,160.478,101.037"/>
<path class="path-19" d="M160.478,101.037C171.752,98.305,183.468,95.206,195.494,93.769"/>
<path class="path-19" d="M195.494,93.769C211.313,91.967,226.933,92.899,242.951,92.157"/>
<path class="path-20" d="M242.951,92.157C259.921,91.465,296.552,96.661,308.252,113.378C314.721,122.442,296.850,114.449,294.877,114.032C288.729,111.270,265.684,102.334,274.956,112.868C280.161,120.099,296.982,124.903,303.991,129.032C306.151,130.076,308.927,132.680,309.340,135.332C310.902,141.778,299.802,141.842,296.390,142.237C290.073,142.335,283.475,141.927,277.441,141.755C271.628,142.115,265.797,142.008,259.974,142.144C246.724,141.421,233.538,139.981,220.292,139.238C207.035,139.017,194.217,138.346,180.556,138.072C178.850,138.083,149.803,141.181,144.579,138.798C133.808,134.002,143.965,125.243,143.360,120.075C143.238,117.027,136.779,116.223,138.360,110.932C139.815,106.331,155.672,102.175,160.478,101.037C171.752,98.305,183.468,95.206,195.494,93.769C211.313,91.967,226.933,92.899,242.951,92.157Z"/>
<path class="path-9" d="M219.972,36.301C266.056,37.308,283.935,46.302,298.197,62.682"/>
<path class="path-9" d="M298.197,62.682C302.686,67.465,317.554,90.629,308.489,96.605"/>
<path class="path-9" d="M308.489,96.605C305.194,98.482,299.302,94.898,296.416,93.510"/>
<path class="path-9" d="M296.416,93.510C286.413,88.955,233.785,81.363,188.666,87.101"/>
<path class="path-9" d="M188.666,87.101C177.618,88.506,167.478,89.285,157.054,91.547"/>
<path class="path-9" d="M157.054,91.547C152.808,92.457,147.832,94.307,143.774,93.365"/>
<path class="path-9" d="M143.774,93.365C134.916,91.437,146.090,68.936,150.057,63.766"/>
<path class="path-9" d="M150.057,63.766C164.791,45.047,194.939,35.754,219.972,36.301"/>
<path class="path-10" d="M219.972,36.301C266.056,37.308,283.935,46.302,298.197,62.682C302.686,67.465,317.554,90.629,308.489,96.605C305.194,98.482,299.302,94.898,296.416,93.510C286.413,88.955,233.785,81.363,188.666,87.101C177.618,88.506,167.478,89.285,157.054,91.547C152.808,92.457,147.832,94.307,143.774,93.365C134.916,91.437,146.090,68.936,150.057,63.766C164.791,45.047,194.939,35.754,219.972,36.301Z"/>
</g>
<g id="left_ear">
<path class="path-0" d="M291.623,188.118C290.166,183.286,293.384,157.137,295.616,153.374C301.260,143.578,318.380,152.545,321.898,160.649C325.715,169.962,316.209,184.682,308.504,191.158C301.039,197.240,294.116,196.084,291.623,188.118M334.921,163.854C333.445,149.454,316.056,134.517,303.310,141.131C287.848,149.154,293.895,171.897,291.688,186.147C291.208,189.897,288.689,193.797,289.552,197.289C291.822,207.161,302.114,208.331,310.598,200.631C320.163,191.770,335.914,177.673,334.921,163.854Z"/>
<path class="path-15" d="M295.616,153.374C301.260,143.578,318.380,152.545,321.898,160.649"/>
<path class="path-15" d="M321.898,160.649C325.715,169.962,316.209,184.682,308.504,191.158"/>
<path class="path-15" d="M308.504,191.158C301.039,197.240,294.116,196.084,291.623,188.118"/>
<path class="path-15" d="M291.623,188.118C290.166,183.286,293.384,157.137,295.616,153.374"/>
<path class="path-16" d="M295.616,153.374C301.260,143.578,318.380,152.545,321.898,160.649C325.715,169.962,316.209,184.682,308.504,191.158C301.039,197.240,294.116,196.084,291.623,188.118C290.166,183.286,293.384,157.137,295.616,153.374Z"/>
</g>
<g id="earrings">
<path class="path-0" d="M313.632,208.602C304.867,212.408,303.008,193.676,306.564,194.030C311.547,195.760,318.327,204.543,313.632,208.602M323.012,200.330C316.285,200.569,313.274,191.558,312.764,187.708C320.333,189.423,329.832,195.113,323.012,200.330M333.062,196.426C330.514,188.363,318.513,183.675,310.704,180.472C307.857,179.304,300.244,189.453,299.915,192.674C298.880,196.695,301.008,218.689,314.683,215.948C320.350,214.551,335.114,202.917,333.062,196.426Z"/>
<path class="path-21" d="M312.764,187.708C320.333,189.423,329.832,195.113,323.012,200.330"/>
<path class="path-21" d="M323.012,200.330C316.285,200.569,313.274,191.558,312.764,187.708"/>
<path class="path-22" d="M312.764,187.708C320.333,189.423,329.832,195.113,323.012,200.330C316.285,200.569,313.274,191.558,312.764,187.708Z"/>
<path class="path-21" d="M306.564,194.030C311.547,195.760,318.327,204.543,313.632,208.602"/>
<path class="path-21" d="M313.632,208.602C304.867,212.408,303.008,193.676,306.564,194.030"/>
<path class="path-22" d="M306.564,194.030C311.547,195.760,318.327,204.543,313.632,208.602C304.867,212.408,303.008,193.676,306.564,194.030Z"/>
</g>
</g>
<g id="jacket">
<path class="path-0" d="M210.254,271.149C212.336,275.790,207.684,285.587,206.993,290.200C202.268,307.553,195.385,324.160,195.627,341.725C195.845,346.704,197.250,356.384,193.678,360.948C192.194,362.843,187.753,362.948,186.412,364.345C184.021,366.801,181.374,357.934,180.632,355.922C179.751,353.534,179.312,345.437,179.414,342.954C179.921,338.063,181.760,328.646,182.388,322.476C183.051,316.412,181.505,309.964,183.066,303.421C184.027,297.244,186.313,290.109,187.498,283.236C189.078,279.142,191.358,276.902,191.497,273.803C191.301,269.654,191.341,267.638,195.226,266.766C199.749,266.084,209.345,265.962,210.254,271.149M269.855,280.319C271.777,278.309,290.704,268.248,293.226,267.526C305.325,264.676,305.451,280.047,303.798,287.175C302.860,291.469,297.124,306.424,298.226,309.381C299.699,314.165,304.672,315.228,308.068,317.856C314.421,323.289,311.025,319.478,316.992,323.047C319.026,324.275,324.350,326.396,324.880,328.665C325.247,330.803,320.644,334.319,320.176,336.299C318.387,341.697,321.264,348.767,314.082,353.026C313.096,353.787,304.320,362.667,302.594,363.925C293.770,369.653,280.781,376.322,271.700,369.587C267.692,366.264,267.282,359.502,265.689,354.153C261.257,340.122,259.190,325.340,260.412,310.617C260.765,301.925,264.254,287.562,269.855,280.319M285.256,260.945C282.253,263.101,275.831,265.146,273.868,265.651C268.227,266.781,267.660,261.108,267.487,257.072C267.454,252.313,270.730,245.655,274.099,242.072C276.877,239.117,281.575,235.809,286.025,235.709C290.963,235.423,298.966,240.334,297.840,245.850C297.402,248.988,290.046,257.507,285.256,260.945M209.065,239.492C213.753,246.458,218.901,253.483,214.250,255.275C209.677,257.038,206.780,256.821,198.519,255.428C187.236,253.525,182.831,237.708,188.149,232.257C192.786,227.505,203.557,231.311,209.065,239.492M341.081,327.942C340.875,323.180,339.037,319.821,335.496,316.325C331.844,312.790,326.027,310.977,321.454,308.819C315.347,306.127,313.587,303.762,307.445,299.368C303.798,296.853,299.170,295.692,298.165,291.561C297.085,287.820,303.495,268.441,304.730,265.110C305.613,260.830,308.919,257.344,309.572,253.376C310.329,249.552,311.345,245.531,310.669,241.692C309.982,235.849,304.542,232.274,300.352,229.005C294.432,224.923,288.946,223.798,281.629,224.540C272.203,225.507,267.176,234.534,263.504,240.863C258.136,250.116,258.881,265.392,256.824,275.890C255.663,281.812,253.895,290.027,252.864,295.614C248.564,317.026,246.870,375.204,267.430,382.987C270.904,384.565,294.886,380.736,300.828,376.635C306.365,372.856,307.736,369.496,313.133,365.841C319.290,362.012,325.976,349.574,331.384,342.028C334.358,338.155,341.234,331.515,341.081,327.942M218.463,234.074C214.181,227.755,206.913,217.072,199.106,217.560C194.032,218.041,186.436,219.978,182.232,223.279C178.949,225.857,174.847,230.676,174.569,234.895C174.066,240.583,174.872,247.388,176.981,252.180C178.920,256.585,185.786,260.046,187.139,264.594C187.678,266.605,185.103,276.575,184.810,279.138C184.095,287.424,180.497,295.489,178.841,302.544C177.333,308.973,175.536,317.595,174.216,324.065C172.544,332.258,169.496,342.333,168.943,351.433C168.544,354.900,169.355,362.734,170.854,367.283C171.892,370.431,174.308,375.797,176.178,376.965C177.304,377.668,189.835,381.260,194.369,378.201C201.105,373.657,201.253,365.989,201.097,351.967C200.785,338.169,209.510,327.220,212.548,313.595C214.991,301.945,222.516,277.446,223.077,267.788C223.417,261.951,225.308,258.115,224.223,249.952C223.576,245.995,221.306,238.269,218.463,234.074Z"/>
<path class="path-1" d="M293.226,267.526C305.325,264.676,305.451,280.047,303.798,287.175"/>
<path class="path-1" d="M303.798,287.175C302.860,291.469,297.124,306.424,298.226,309.381"/>
<path class="path-1" d="M298.226,309.381C299.699,314.165,304.672,315.228,308.068,317.856"/>
<path class="path-1" d="M308.068,317.856C314.421,323.289,311.025,319.478,316.992,323.047"/>
<path class="path-1" d="M316.992,323.047C319.026,324.275,324.350,326.396,324.880,328.665"/>
<path class="path-1" d="M324.880,328.665C325.247,330.803,320.644,334.319,320.176,336.299"/>
<path class="path-1" d="M320.176,336.299C318.387,341.697,321.264,348.767,314.082,353.026"/>
<path class="path-1" d="M314.082,353.026C313.096,353.787,304.320,362.667,302.594,363.925"/>
<path class="path-1" d="M302.594,363.925C293.770,369.653,280.781,376.322,271.700,369.587"/>
<path class="path-1" d="M271.700,369.587C267.692,366.264,267.282,359.502,265.689,354.153"/>
<path class="path-1" d="M265.689,354.153C261.257,340.122,259.190,325.340,260.412,310.617"/>
<path class="path-1" d="M260.412,310.617C260.765,301.925,264.254,287.562,269.855,280.319"/>
<path class="path-1" d="M269.855,280.319C271.777,278.309,290.704,268.248,293.226,267.526"/>
<path class="path-2" d="M293.226,267.526C305.325,264.676,305.451,280.047,303.798,287.175C302.860,291.469,297.124,306.424,298.226,309.381C299.699,314.165,304.672,315.228,308.068,317.856C314.421,323.289,311.025,319.478,316.992,323.047C319.026,324.275,324.350,326.396,324.880,328.665C325.247,330.803,320.644,334.319,320.176,336.299C318.387,341.697,321.264,348.767,314.082,353.026C313.096,353.787,304.320,362.667,302.594,363.925C293.770,369.653,280.781,376.322,271.700,369.587C267.692,366.264,267.282,359.502,265.689,354.153C261.257,340.122,259.190,325.340,260.412,310.617C260.765,301.925,264.254,287.562,269.855,280.319C271.777,278.309,290.704,268.248,293.226,267.526Z"/>
<path class="path-1" d="M195.226,266.766C199.749,266.084,209.345,265.962,210.254,271.149"/>
<path class="path-1" d="M210.254,271.149C212.336,275.790,207.684,285.587,206.993,290.200"/>
<path class="path-1" d="M206.993,290.200C202.268,307.553,195.385,324.160,195.627,341.725"/>
<path class="path-1" d="M195.627,341.725C195.845,346.704,197.250,356.384,193.678,360.948"/>
<path class="path-1" d="M193.678,360.948C192.194,362.843,187.753,362.948,186.412,364.345"/>
<path class="path-1" d="M186.412,364.345C184.021,366.801,181.374,357.934,180.632,355.922"/>
<path class="path-1" d="M180.632,355.922C179.751,353.534,179.312,345.437,179.414,342.954"/>
<path class="path-1" d="M179.414,342.954C179.921,338.063,181.760,328.646,182.388,322.476"/>
<path class="path-1" d="M182.388,322.476C183.051,316.412,181.505,309.964,183.066,303.421"/>
<path class="path-1" d="M183.066,303.421C184.027,297.244,186.313,290.109,187.498,283.236"/>
<path class="path-1" d="M187.498,283.236C189.078,279.142,191.358,276.902,191.497,273.803"/>
<path class="path-1" d="M191.497,273.803C191.301,269.654,191.341,267.638,195.226,266.766"/>
<path class="path-2" d="M195.226,266.766C199.749,266.084,209.345,265.962,210.254,271.149C212.336,275.790,207.684,285.587,206.993,290.200C202.268,307.553,195.385,324.160,195.627,341.725C195.845,346.704,197.250,356.384,193.678,360.948C192.194,362.843,187.753,362.948,186.412,364.345C184.021,366.801,181.374,357.934,180.632,355.922C179.751,353.534,179.312,345.437,179.414,342.954C179.921,338.063,181.760,328.646,182.388,322.476C183.051,316.412,181.505,309.964,183.066,303.421C184.027,297.244,186.313,290.109,187.498,283.236C189.078,279.142,191.358,276.902,191.497,273.803C191.301,269.654,191.341,267.638,195.226,266.766Z"/>
<path class="path-1" d="M286.025,235.709C290.963,235.423,298.966,240.334,297.840,245.850"/>
<path class="path-1" d="M297.840,245.850C297.402,248.988,290.046,257.507,285.256,260.945"/>
<path class="path-1" d="M285.256,260.945C282.253,263.101,275.831,265.146,273.868,265.651"/>
<path class="path-1" d="M273.868,265.651C268.227,266.781,267.660,261.108,267.487,257.072"/>
<path class="path-1" d="M267.487,257.072C267.454,252.313,270.730,245.655,274.099,242.072"/>
<path class="path-1" d="M274.099,242.072C276.877,239.117,281.575,235.809,286.025,235.709"/>
<path class="path-2" d="M286.025,235.709C290.963,235.423,298.966,240.334,297.840,245.850C297.402,248.988,290.046,257.507,285.256,260.945C282.253,263.101,275.831,265.146,273.868,265.651C268.227,266.781,267.660,261.108,267.487,257.072C267.454,252.313,270.730,245.655,274.099,242.072C276.877,239.117,281.575,235.809,286.025,235.709Z"/>
<path class="path-1" d="M209.065,239.492C213.753,246.458,218.901,253.483,214.250,255.275"/>
<path class="path-1" d="M214.250,255.275C209.677,257.038,206.780,256.821,198.519,255.428"/>
<path class="path-1" d="M198.519,255.428C187.236,253.525,182.831,237.708,188.149,232.257"/>
<path class="path-1" d="M188.149,232.257C192.786,227.505,203.557,231.311,209.065,239.492"/>
<path class="path-2" d="M209.065,239.492C213.753,246.458,218.901,253.483,214.250,255.275C209.677,257.038,206.780,256.821,198.519,255.428C187.236,253.525,182.831,237.708,188.149,232.257C192.786,227.505,203.557,231.311,209.065,239.492Z"/>
</g>
<g id="left_arm">
<path class="path-0" d="M325.588,462.708C327.628,456.757,334.935,459.438,342.510,462.050C345.401,463.022,358.827,459.780,361.174,461.785C365.376,465.024,361.822,473.056,357.069,475.212C347.400,479.077,322.518,471.989,325.588,462.708M290.076,283.850C290.479,280.559,297.381,269.273,302.524,269.649C305.510,269.868,307.626,274.615,309.000,277.105C312.843,284.945,316.765,293.104,320.297,301.336C329.807,322.934,336.150,345.270,344.891,366.766C348.299,375.830,352.406,387.385,356.614,395.530C360.926,403.638,365.145,401.492,368.071,406.902C369.560,409.822,369.751,415.415,372.281,419.805C376.116,426.722,382.202,430.021,385.392,434.332C387.359,436.779,388.043,438.917,384.816,440.767C382.945,442.709,377.461,445.697,375.330,446.827C367.782,448.573,360.026,450.562,352.309,449.952C343.357,449.626,317.984,444.136,313.051,438.641C304.434,428.700,313.393,415.284,313.562,404.652C313.845,401.599,313.606,357.513,312.639,354.660C311.172,347.971,306.648,342.593,304.100,335.859C301.098,326.616,297.960,316.731,295.167,307.048C293.023,299.037,288.580,292.807,290.076,283.850M312.640,258.411C309.660,254.140,301.208,246.977,295.476,249.163C290.732,251.207,290.946,257.228,290.867,261.275C290.674,271.392,289.909,279.912,291.313,289.457C291.999,296.417,293.582,302.574,295.203,309.060C297.192,318.100,297.880,335.989,299.646,346.395C300.959,355.935,304.527,365.521,304.890,373.843C305.327,393.497,299.111,412.907,302.072,432.251C303.241,442.107,305.880,441.790,309.118,449.401C311.477,455.151,310.898,461.587,313.875,466.929C321.584,481.091,340.369,492.601,356.827,487.302C372.002,482.488,370.668,465.560,377.869,455.661C384.198,446.870,399.205,449.113,400.208,440.617C401.368,433.444,390.601,427.219,386.628,422.126C379.217,413.203,385.069,410.563,381.522,403.451C378.939,398.190,372.341,393.271,367.965,386.967C365.239,383.621,361.948,377.473,359.496,373.076C354.700,363.651,350.142,352.552,346.643,342.090C342.909,330.111,340.603,319.288,335.283,307.203C330.987,297.106,318.459,265.961,312.640,258.411Z"/>
<path class="path-1" d="M302.524,269.649C305.510,269.868,307.626,274.615,309.000,277.105"/>
<path class="path-1" d="M309.000,277.105C312.843,284.945,316.765,293.104,320.297,301.336"/>
<path class="path-1" d="M320.297,301.336C329.807,322.934,336.150,345.270,344.891,366.766"/>
<path class="path-1" d="M344.891,366.766C348.299,375.830,352.406,387.385,356.614,395.530"/>
<path class="path-1" d="M356.614,395.530C360.926,403.638,365.145,401.492,368.071,406.902"/>
<path class="path-1" d="M368.071,406.902C369.560,409.822,369.751,415.415,372.281,419.805"/>
<path class="path-1" d="M372.281,419.805C376.116,426.722,382.202,430.021,385.392,434.332"/>
<path class="path-1" d="M385.392,434.332C387.359,436.779,388.043,438.917,384.816,440.767"/>
<path class="path-1" d="M384.816,440.767C382.945,442.709,377.461,445.697,375.330,446.827"/>
<path class="path-1" d="M375.330,446.827C367.782,448.573,360.026,450.562,352.309,449.952"/>
<path class="path-1" d="M352.309,449.952C343.357,449.626,317.984,444.136,313.051,438.641"/>
<path class="path-1" d="M313.051,438.641C304.434,428.700,313.393,415.284,313.562,404.652"/>
<path class="path-1" d="M313.562,404.652C313.845,401.599,313.606,357.513,312.639,354.660"/>
<path class="path-1" d="M312.639,354.660C311.172,347.971,306.648,342.593,304.100,335.859"/>
<path class="path-1" d="M304.100,335.859C301.098,326.616,297.960,316.731,295.167,307.048"/>
<path class="path-1" d="M295.167,307.048C293.023,299.037,288.580,292.807,290.076,283.850"/>
<path class="path-1" d="M290.076,283.850C290.479,280.559,297.381,269.273,302.524,269.649"/>
<path class="path-2" d="M302.524,269.649C305.510,269.868,307.626,274.615,309.000,277.105C312.843,284.945,316.765,293.104,320.297,301.336C329.807,322.934,336.150,345.270,344.891,366.766C348.299,375.830,352.406,387.385,356.614,395.530C360.926,403.638,365.145,401.492,368.071,406.902C369.560,409.822,369.751,415.415,372.281,419.805C376.116,426.722,382.202,430.021,385.392,434.332C387.359,436.779,388.043,438.917,384.816,440.767C382.945,442.709,377.461,445.697,375.330,446.827C367.782,448.573,360.026,450.562,352.309,449.952C343.357,449.626,317.984,444.136,313.051,438.641C304.434,428.700,313.393,415.284,313.562,404.652C313.845,401.599,313.606,357.513,312.639,354.660C311.172,347.971,306.648,342.593,304.100,335.859C301.098,326.616,297.960,316.731,295.167,307.048C293.023,299.037,288.580,292.807,290.076,283.850C290.479,280.559,297.381,269.273,302.524,269.649Z"/>
<path class="path-15" d="M342.510,462.050C345.401,463.022,358.827,459.780,361.174,461.785"/>
<path class="path-15" d="M361.174,461.785C365.376,465.024,361.822,473.056,357.069,475.212"/>
<path class="path-15" d="M357.069,475.212C347.400,479.077,322.518,471.989,325.588,462.708"/>
<path class="path-15" d="M325.588,462.708C327.628,456.757,334.935,459.438,342.510,462.050"/>
<path class="path-16" d="M342.510,462.050C345.401,463.022,358.827,459.780,361.174,461.785C365.376,465.024,361.822,473.056,357.069,475.212C347.400,479.077,322.518,471.989,325.588,462.708C327.628,456.757,334.935,459.438,342.510,462.050Z"/>
</g>
<g id="bone">
<g id="bone1_clothes">
<path class="path-23" d="M232.017,388.599C232.019,388.594,243.130,330.661,243.131,330.655C243.131,330.661,243.099,389.650,243.099,389.656C243.098,389.655,232.019,388.599,232.017,388.599"/>
</g>
<g id="bone2_clothes">
<path class="path-23" d="M236.268,329.967C236.268,329.960,242.318,257.686,242.318,257.679C242.319,257.686,250.035,329.800,250.036,329.808C250.035,329.808,236.269,329.967,236.268,329.967"/>
</g>
<g id="bone3_neck">
<path class="path-23" d="M245.742,256.616C245.742,256.612,242.946,215.005,242.945,215.001C242.945,215.005,239.145,256.532,239.145,256.536C239.146,256.536,245.741,256.616,245.742,256.616"/>
</g>
<g id="bone4_head">
<path class="path-23" d="M237.047,215.985C237.047,215.977,229.949,138.236,229.949,138.228C229.951,138.236,249.329,213.856,249.331,213.863C249.330,213.863,237.049,215.984,237.047,215.985"/>
</g>
<g id="bone5_left_arm">
<path class="path-23" d="M305.870,261.566C305.872,261.575,326.978,351.601,326.980,351.610C326.976,351.601,290.879,266.471,290.875,266.463C290.877,266.462,305.869,261.566,305.870,261.566"/>
</g>
<g id="bone6_left_arm">
<path class="path-23" d="M321.883,353.027C321.885,353.034,341.564,413.656,341.566,413.662C341.565,413.656,332.046,350.634,332.045,350.628C332.044,350.628,321.884,353.027,321.883,353.027"/>
</g>
<g id="bone7_right_arm">
<path class="path-23" d="M176.268,268.551C176.265,268.562,151.162,381.300,151.159,381.312C151.164,381.301,193.740,273.936,193.745,273.925C193.743,273.925,176.270,268.551,176.268,268.551"/>
</g>
<g id="bone8_right_arm">
<path class="path-23" d="M155.892,376.952C155.894,376.957,178.666,431.952,178.669,431.957C178.665,431.952,145.310,382.653,145.307,382.648C145.308,382.648,155.891,376.952,155.892,376.952"/>
</g>
<g id="bone9_left_leg">
<path class="path-23" d="M269.843,386.942C269.845,386.952,290.430,486.511,290.432,486.521C290.428,486.512,252.281,392.275,252.277,392.266C252.279,392.265,269.841,386.942,269.843,386.942"/>
</g>
<g id="bone10_right_leg">
<path class="path-23" d="M207.418,388.027C207.418,388.038,207.491,491.793,207.491,491.803C207.493,491.793,222.881,389.185,222.883,389.175C222.881,389.175,207.420,388.028,207.418,388.027"/>
</g>
<g id="bone11_hair">
<path class="path-23" d="M241.030,159.381C241.031,159.389,251.817,238.844,251.818,238.852C251.816,238.845,226.671,162.705,226.668,162.697C226.670,162.697,241.029,159.381,241.030,159.381"/>
</g>
<g id="bone12_left_leg_S">
<path class="path-23" d="M431.305,213.348C431.302,213.355,402.754,279.828,402.751,279.834C402.755,279.828,441.837,218.949,441.841,218.943C441.840,218.942,431.306,213.349,431.305,213.348"/>
</g>
<g id="bone13_right_leg_S">
<path class="path-23" d="M495.677,210.760C495.670,210.761,424.415,223.268,424.408,223.269C424.415,223.269,496.756,222.640,496.764,222.640C496.764,222.639,495.677,210.761,495.677,210.760"/>
</g>
<g id="bone14_left_arm_S">
<path class="path-23" d="M554.507,210.082C554.500,210.080,486.957,184.164,486.950,184.162C486.956,184.165,549.324,220.826,549.330,220.830C549.330,220.829,554.506,210.083,554.507,210.082"/>
</g>
<g id="bone15_jacket_S">
<path class="path-23" d="M605.880,209.493C605.873,209.493,533.559,207.425,533.551,207.425C533.558,207.426,604.550,221.348,604.558,221.349C604.558,221.348,605.880,209.495,605.880,209.493"/>
</g>
<g id="bone16_pupils_S">
<path class="path-23" d="M440.060,341.844C440.065,341.839,492.066,291.544,492.072,291.539C492.066,291.543,432.508,332.611,432.502,332.615C432.503,332.616,440.059,341.843,440.060,341.844"/>
</g>
<g id="bone17_eyelids_S">
<path class="path-23" d="M502.309,337.358C502.308,337.351,496.345,265.253,496.344,265.246C496.344,265.253,490.380,337.351,490.380,337.358C490.381,337.358,502.308,337.358,502.309,337.358"/>
</g>
<g id="bone18_face_S">
<path class="path-23" d="M556.669,342.422C556.673,342.416,594.419,280.699,594.423,280.693C594.418,280.698,547.045,335.375,547.041,335.380C547.041,335.381,556.669,342.421,556.669,342.422"/>
</g>
</g>
</g>
<style>
.path-0{fill:#000000;fill-rule:evenodd;stroke:none;}
.path-1{fill:none;stroke:#a60d3f;stroke-width:1;stroke-linecap:butt;stroke-linejoin:round;}
.path-2{fill:#a60d3f;fill-rule:evenodd;stroke:none;}
.path-3{fill:none;stroke:#d88e4b;stroke-width:1;stroke-linecap:butt;stroke-linejoin:round;}
.path-4{fill:#d88e4b;fill-rule:evenodd;stroke:none;}
.path-5{fill:none;stroke:#6e2353;stroke-width:1;stroke-linecap:butt;stroke-linejoin:round;}
.path-6{fill:#6e2353;fill-rule:evenodd;stroke:none;}
.path-7{fill:none;stroke:#392966;stroke-width:1;stroke-linecap:butt;stroke-linejoin:round;}
.path-8{fill:#392966;fill-rule:evenodd;stroke:none;}
.path-9{fill:none;stroke:#cc9bc5;stroke-width:1;stroke-linecap:butt;stroke-linejoin:round;}
.path-10{fill:#cc9bc5;fill-rule:evenodd;stroke:none;}
.path-11{fill:none;stroke:#620527;stroke-width:1;stroke-linecap:butt;stroke-linejoin:round;}
.path-12{fill:#620527;fill-rule:evenodd;stroke:none;}
.path-13{fill:none;stroke:#6a3661;stroke-width:1;stroke-linecap:butt;stroke-linejoin:round;}
.path-14{fill:#6a3661;fill-rule:evenodd;stroke:none;}
.path-15{fill:none;stroke:#f8a087;stroke-width:1;stroke-linecap:butt;stroke-linejoin:round;}
.path-16{fill:#f8a087;fill-rule:evenodd;stroke:none;}
.path-17{fill:none;stroke:#ffffff;stroke-width:1;stroke-linecap:butt;stroke-linejoin:round;}
.path-18{fill:#ffffff;fill-rule:evenodd;stroke:none;}
.path-19{fill:none;stroke:#d89f4a;stroke-width:1;stroke-linecap:butt;stroke-linejoin:round;}
.path-20{fill:#d89f4a;fill-rule:evenodd;stroke:none;}
.path-21{fill:none;stroke:#fafd5b;stroke-width:1;stroke-linecap:butt;stroke-linejoin:round;}
.path-22{fill:#fafd5b;fill-rule:evenodd;stroke:none;}
.path-23{fill:none;stroke:#00ff42;stroke-width:8;stroke-linecap:round;stroke-linejoin:round;}
.path-24{fill:none;stroke:#000000;stroke-width:1;stroke-linecap:butt;stroke-linejoin:round;}
.path-25{fill:none;stroke:#ececec;stroke-width:1;stroke-linecap:butt;stroke-linejoin:round;}
.path-26{fill:#ececec;fill-rule:evenodd;stroke:none;}
</style>
</svg>
