<svg version="1.1" id="Frame_231" xmlns="http://www.w3.org/2000/svg" xmlns:xlink="http://www.w3.org/1999/xlink" width="480px" height="720px">
<g id="main_bone">
<g id="right_arm">
<path class="path-0" d="M174.126,270.172C175.458,267.511,178.075,262.017,181.778,260.525C188.182,257.943,193.652,263.933,194.431,268.509C196.093,276.447,190.936,287.396,188.470,295.289C182.390,314.329,175.637,333.084,171.132,352.015C170.600,355.317,165.808,376.634,165.808,373.973C165.476,380.626,172.130,386.283,174.459,391.939C177.454,399.590,174.791,406.910,172.795,413.897C168.138,428.535,168.471,433.858,167.804,448.165C167.804,450.492,167.473,458.146,163.812,458.146C160.487,458.146,160.153,452.157,159.488,449.828C159.155,447.167,156.825,441.510,157.492,439.182C157.823,435.190,162.483,436.188,157.492,427.870C151.170,417.555,139.526,409.240,136.532,395.931C134.536,385.285,140.191,375.969,143.186,365.988C149.508,344.695,156.494,323.404,163.812,302.111C167.805,291.132,168.802,281.484,174.126,270.172M193.754,262.188C193.755,253.538,190.761,245.885,180.115,249.546C163.481,255.200,158.822,281.484,154.165,296.122C147.512,316.084,141.855,336.046,136.199,356.007C133.870,364.657,130.544,368.982,129.212,373.973C127.549,379.628,127.881,388.280,128.214,393.935C128.214,411.567,133.869,412.234,140.856,425.874C144.517,433.859,140.525,438.849,142.852,445.835C144.517,450.492,148.176,453.820,150.837,457.813C153.166,461.805,153.499,464.135,155.162,467.793C157.158,472.119,163.481,481.767,169.136,479.771C173.793,478.108,173.793,469.790,174.126,465.797C174.459,459.809,178.119,436.853,179.450,429.866C181.778,418.554,187.435,406.245,185.770,393.935C184.440,384.619,176.122,377.965,176.456,367.985C176.787,362.661,180.115,354.011,181.113,348.023C182.776,338.375,182.776,328.061,184.772,318.081C188.099,300.448,194.421,280.487,193.754,262.188Z"/>
<path class="path-1" d="M181.778,260.525C188.182,257.943,193.652,263.933,194.431,268.509"/>
<path class="path-1" d="M194.431,268.509C196.093,276.447,190.936,287.396,188.470,295.289"/>
<path class="path-1" d="M188.470,295.289C182.390,314.329,175.637,333.084,171.132,352.015"/>
<path class="path-1" d="M171.132,352.015C170.600,355.317,165.808,376.634,165.808,373.973"/>
<path class="path-1" d="M165.808,373.973C165.476,380.626,172.130,386.283,174.459,391.939"/>
<path class="path-1" d="M174.459,391.939C177.454,399.590,174.791,406.910,172.795,413.897"/>
<path class="path-1" d="M172.795,413.897C168.138,428.535,168.471,433.858,167.804,448.165"/>
<path class="path-1" d="M167.804,448.165C167.804,450.492,167.473,458.146,163.812,458.146"/>
<path class="path-1" d="M163.812,458.146C160.487,458.146,160.153,452.157,159.488,449.828"/>
<path class="path-1" d="M159.488,449.828C159.155,447.167,156.825,441.510,157.492,439.182"/>
<path class="path-1" d="M157.492,439.182C157.823,435.190,162.483,436.188,157.492,427.870"/>
<path class="path-1" d="M157.492,427.870C151.170,417.555,139.526,409.240,136.532,395.931"/>
<path class="path-1" d="M136.532,395.931C134.536,385.285,140.191,375.969,143.186,365.988"/>
<path class="path-1" d="M143.186,365.988C149.508,344.695,156.494,323.404,163.812,302.111"/>
<path class="path-1" d="M163.812,302.111C167.805,291.132,168.802,281.484,174.126,270.172"/>
<path class="path-1" d="M174.126,270.172C175.458,267.511,178.075,262.017,181.778,260.525"/>
<path class="path-2" d="M181.778,260.525C188.182,257.943,193.652,263.933,194.431,268.509C196.093,276.447,190.936,287.396,188.470,295.289C182.390,314.329,175.637,333.084,171.132,352.015C170.600,355.317,165.808,376.634,165.808,373.973C165.476,380.626,172.130,386.283,174.459,391.939C177.454,399.590,174.791,406.910,172.795,413.897C168.138,428.535,168.471,433.858,167.804,448.165C167.804,450.492,167.473,458.146,163.812,458.146C160.487,458.146,160.153,452.157,159.488,449.828C159.155,447.167,156.825,441.510,157.492,439.182C157.823,435.190,162.483,436.188,157.492,427.870C151.170,417.555,139.526,409.240,136.532,395.931C134.536,385.285,140.191,375.969,143.186,365.988C149.508,344.695,156.494,323.404,163.812,302.111C167.805,291.132,168.802,281.484,174.126,270.172C175.458,267.511,178.075,262.017,181.778,260.525Z"/>
</g>
<g id="layer_left_leg">
<g id="left_heel">
<path class="path-0" d="M255.900,637.086C249.042,625.340,262.718,606.526,274.095,604.292C291.883,600.621,305.674,626.258,303.484,632.637C299.772,642.435,282.513,642.362,273.583,642.316C268.955,642.139,258.072,640.977,255.900,637.086M302.545,603.058C292.303,593.371,269.314,595.246,258.299,601.841C236.328,614.473,231.783,655.741,264.112,655.182C276.137,655.028,302.730,652.731,309.948,645.903C316.461,640.408,314.834,630.496,312.919,622.763C310.963,616.490,307.397,607.781,302.545,603.058Z"/>
<path class="path-3" d="M274.095,604.292C291.883,600.621,305.674,626.258,303.484,632.637"/>
<path class="path-3" d="M303.484,632.637C299.772,642.435,282.513,642.362,273.583,642.316"/>
<path class="path-3" d="M273.583,642.316C268.955,642.139,258.072,640.977,255.900,637.086"/>
<path class="path-3" d="M255.900,637.086C249.042,625.340,262.718,606.526,274.095,604.292"/>
<path class="path-4" d="M274.095,604.292C291.883,600.621,305.674,626.258,303.484,632.637C299.772,642.435,282.513,642.362,273.583,642.316C268.955,642.139,258.072,640.977,255.900,637.086C249.042,625.340,262.718,606.526,274.095,604.292Z"/>
</g>
<g id="left_leg">
<path class="path-0" d="M238.898,405.789C240.604,401.168,250.099,404.798,253.973,404.581C259.981,404.536,273.559,402.173,278.416,405.906C286.502,411.702,287.705,439.344,288.024,448.908C288.169,479.758,290.391,508.664,291.638,538.429C291.781,546.391,291.506,554.645,292.307,562.412C293.144,568.163,294.212,574.479,297.068,579.156C298.071,581.714,302.341,582.997,301.603,585.435C298.249,594.446,292.085,589.171,287.072,593.824C279.023,600.847,264.580,607.386,255.321,604.493C248.846,602.706,238.135,594.625,235.983,588.357C233.170,580.162,232.365,570.165,231.391,561.723C228.314,535.054,242.968,478.810,236.917,450.691C233.006,432.518,241.679,431.845,247.663,418.794C248.570,416.814,238.221,418.910,236.730,417.280C234.437,415.145,237.683,408.599,238.898,405.789M285.278,397.318C278.972,392.454,261.359,394.529,253.973,394.933C249.986,395.136,237.495,392.107,234.558,393.922C217.039,404.750,224.456,443.821,226.025,460.539C226.160,465.513,223.750,489.155,223.233,495.834C222.720,523.729,216.780,547.592,218.802,575.419C219.334,584.379,219.088,593.260,222.454,601.447C230.251,620.034,247.457,623.238,270.582,621.624C283.169,620.762,310.157,616.045,318.258,592.253C321.862,581.649,315.291,567.708,313.598,564.313C311.162,559.424,307.496,554.763,306.046,549.091C300.922,531.589,307.039,512.651,305.644,494.361C303.897,471.171,304.685,412.358,285.278,397.318Z"/>
<path class="path-7" d="M253.973,404.581C259.981,404.536,273.559,402.173,278.416,405.906"/>
<path class="path-7" d="M278.416,405.906C286.502,411.702,287.705,439.344,288.024,448.908"/>
<path class="path-7" d="M288.024,448.908C288.169,479.758,290.391,508.664,291.638,538.429"/>
<path class="path-7" d="M291.638,538.429C291.781,546.391,291.506,554.645,292.307,562.412"/>
<path class="path-7" d="M292.307,562.412C293.144,568.163,294.212,574.479,297.068,579.156"/>
<path class="path-7" d="M297.068,579.156C298.071,581.714,302.341,582.997,301.603,585.435"/>
<path class="path-7" d="M301.603,585.435C298.249,594.446,292.085,589.171,287.072,593.824"/>
<path class="path-7" d="M287.072,593.824C279.023,600.847,264.580,607.386,255.321,604.493"/>
<path class="path-7" d="M255.321,604.493C248.846,602.706,238.135,594.625,235.983,588.357"/>
<path class="path-7" d="M235.983,588.357C233.170,580.162,232.365,570.165,231.391,561.723"/>
<path class="path-7" d="M231.391,561.723C228.314,535.054,242.968,478.810,236.917,450.691"/>
<path class="path-7" d="M236.917,450.691C233.006,432.518,241.679,431.845,247.663,418.794"/>
<path class="path-7" d="M247.663,418.794C248.570,416.814,238.221,418.910,236.730,417.280"/>
<path class="path-7" d="M236.730,417.280C234.437,415.145,237.683,408.599,238.898,405.789"/>
<path class="path-7" d="M238.898,405.789C240.604,401.168,250.099,404.798,253.973,404.581"/>
<path class="path-8" d="M253.973,404.581C259.981,404.536,273.559,402.173,278.416,405.906C286.502,411.702,287.705,439.344,288.024,448.908C288.169,479.758,290.391,508.664,291.638,538.429C291.781,546.391,291.506,554.645,292.307,562.412C293.144,568.163,294.212,574.479,297.068,579.156C298.071,581.714,302.341,582.997,301.603,585.435C298.249,594.446,292.085,589.171,287.072,593.824C279.023,600.847,264.580,607.386,255.321,604.493C248.846,602.706,238.135,594.625,235.983,588.357C233.170,580.162,232.365,570.165,231.391,561.723C228.314,535.054,242.968,478.810,236.917,450.691C233.006,432.518,241.679,431.845,247.663,418.794C248.570,416.814,238.221,418.910,236.730,417.280C234.437,415.145,237.683,408.599,238.898,405.789C240.604,401.168,250.099,404.798,253.973,404.581Z"/>
</g>
<g id="left_toe">
<path class="path-0" d="M250.886,662.854C223.423,657.097,230.286,620.536,250.814,613.948C272.346,607.150,292.862,618.286,298.916,630.731C303.302,638.517,304.833,647.199,300.442,655.219C292.007,667.984,264.296,665.590,250.886,662.854M315.173,628.058C311.589,612.597,298.805,599.339,286.043,595.793C257.890,588.061,233.103,596.099,224.261,621.876C218.649,636.617,221.902,653.039,231.729,665.376C239.535,674.574,266.418,675.831,277.908,674.893C288.222,673.330,301.093,670.765,308.334,662.153C313.561,656.122,316.897,635.666,315.173,628.058Z"/>
<path class="path-3" d="M250.814,613.948C272.346,607.150,292.862,618.286,298.916,630.731"/>
<path class="path-3" d="M298.916,630.731C303.302,638.517,304.833,647.199,300.442,655.219"/>
<path class="path-3" d="M300.442,655.219C292.007,667.984,264.296,665.590,250.886,662.854"/>
<path class="path-3" d="M250.886,662.854C223.423,657.097,230.286,620.536,250.814,613.948"/>
<path class="path-4" d="M250.814,613.948C272.346,607.150,292.862,618.286,298.916,630.731C303.302,638.517,304.833,647.199,300.442,655.219C292.007,667.984,264.296,665.590,250.886,662.854C223.423,657.097,230.286,620.536,250.814,613.948Z"/>
</g>
<g id="left_sole">
<path class="path-0" d="M255.263,678.557C244.660,677.808,241.524,665.041,240.197,669.594C239.303,672.658,247.834,675.831,251.853,676.989C260.796,679.888,276.967,678.749,286.292,674.371C289.092,673.321,298.020,670.802,298.088,671.031C299.312,675.185,287.877,675.181,284.367,675.595C280.619,676.396,256.207,678.385,255.263,678.557M240.199,669.762C245.502,667.700,256.664,670.187,260.870,671.021C278.624,674.541,287.616,666.893,295.289,667.182C296.345,667.231,300.139,665.655,300.173,668.384C300.273,676.288,269.918,680.990,254.010,676.120C247.149,674.599,238.327,670.490,240.199,669.762M305.688,661.859C302.580,658.335,283.962,662.025,265.544,662.274C257.050,662.411,235.068,654.492,230.189,664.619C229.232,666.617,230.159,673.467,231.833,674.850C243.388,684.650,298.291,682.138,304.288,676.938C306.263,675.226,308.686,665.258,305.688,661.859Z"/>
<path class="path-5" d="M240.197,669.594C239.303,672.658,247.834,675.831,251.853,676.989"/>
<path class="path-5" d="M251.853,676.989C260.796,679.888,276.967,678.749,286.292,674.371"/>
<path class="path-5" d="M286.292,674.371C289.092,673.321,298.020,670.802,298.088,671.031"/>
<path class="path-5" d="M298.088,671.031C299.312,675.185,287.877,675.181,284.367,675.595"/>
<path class="path-5" d="M284.367,675.595C280.619,676.396,256.207,678.385,255.263,678.557"/>
<path class="path-5" d="M255.263,678.557C244.660,677.808,241.524,665.041,240.197,669.594"/>
<path class="path-6" d="M240.197,669.594C239.303,672.658,247.834,675.831,251.853,676.989C260.796,679.888,276.967,678.749,286.292,674.371C289.092,673.321,298.020,670.802,298.088,671.031C299.312,675.185,287.877,675.181,284.367,675.595C280.619,676.396,256.207,678.385,255.263,678.557C244.660,677.808,241.524,665.041,240.197,669.594Z"/>
<path class="path-5" d="M260.870,671.021C278.624,674.541,287.616,666.893,295.289,667.182"/>
<path class="path-5" d="M295.289,667.182C296.345,667.231,300.139,665.655,300.173,668.384"/>
<path class="path-5" d="M300.173,668.384C300.273,676.288,269.918,680.990,254.010,676.120"/>
<path class="path-5" d="M254.010,676.120C247.149,674.599,238.327,670.490,240.199,669.762"/>
<path class="path-5" d="M240.199,669.762C245.502,667.700,256.664,670.187,260.870,671.021"/>
<path class="path-6" d="M260.870,671.021C278.624,674.541,287.616,666.893,295.289,667.182C296.345,667.231,300.139,665.655,300.173,668.384C300.273,676.288,269.918,680.990,254.010,676.120C247.149,674.599,238.327,670.490,240.199,669.762C245.502,667.700,256.664,670.187,260.870,671.021Z"/>
</g>
</g>
<g id="layer_right_leg">
<g id="right_heel">
<path class="path-0" d="M183.148,621.996C184.031,605.547,185.158,592.761,205.234,589.869C214.166,588.419,231.174,591.270,236.081,599.910C238.667,604.210,237.859,610.518,238.106,615.111C238.573,622.602,243.165,637.044,232.612,638.811C231.933,638.993,213.222,639.349,207.382,639.512C199.967,640.409,192.243,640.990,186.876,635.856C184.085,632.597,182.862,625.884,183.148,621.996M245.622,598.189C241.698,587.755,227.388,581.812,217.290,583.273C204.095,585.019,190.591,580.677,182.000,593.026C175.283,602.679,174.533,620.423,176.549,631.680C177.306,636.860,180.567,646.309,184.869,649.178C188.024,651.184,192.899,650.608,196.628,650.611C214.773,650.914,247.147,657.033,246.779,629.959C246.609,622.923,247.694,603.758,245.622,598.189Z"/>
<path class="path-3" d="M205.234,589.869C214.166,588.419,231.174,591.270,236.081,599.910"/>
<path class="path-3" d="M236.081,599.910C238.667,604.210,237.859,610.518,238.106,615.111"/>
<path class="path-3" d="M238.106,615.111C238.573,622.602,243.165,637.044,232.612,638.811"/>
<path class="path-3" d="M232.612,638.811C231.933,638.993,213.222,639.349,207.382,639.512"/>
<path class="path-3" d="M207.382,639.512C199.967,640.409,192.243,640.990,186.876,635.856"/>
<path class="path-3" d="M186.876,635.856C184.085,632.597,182.862,625.884,183.148,621.996"/>
<path class="path-3" d="M183.148,621.996C184.031,605.547,185.158,592.761,205.234,589.869"/>
<path class="path-4" d="M205.234,589.869C214.166,588.419,231.174,591.270,236.081,599.910C238.667,604.210,237.859,610.518,238.106,615.111C238.573,622.602,243.165,637.044,232.612,638.811C231.933,638.993,213.222,639.349,207.382,639.512C199.967,640.409,192.243,640.990,186.876,635.856C184.085,632.597,182.862,625.884,183.148,621.996C184.031,605.547,185.158,592.761,205.234,589.869Z"/>
</g>
<g id="right_leg">
<path class="path-0" d="M182.834,404.875C186.525,392.971,202.237,390.118,212.784,393.055C218.619,394.551,228.401,397.405,231.565,402.929C232.870,405.209,233.373,409.442,231.989,411.675C229.488,415.711,214.482,412.615,216.993,416.738C221.409,424.252,231.886,414.974,236.112,418.907C237.974,420.640,238.145,424.124,238.517,427.040C242.499,449.128,235.435,472.645,235.323,494.418C235.217,501.473,233.645,511.877,234.856,518.303C237.271,533.992,235.256,537.291,235.576,546.708C235.475,550.230,233.605,568.085,234.760,572.670C236.096,577.563,239.659,582.248,240.069,587.328C240.757,595.842,227.898,606.682,220.197,608.820C211.317,611.097,184.192,608.916,175.988,604.300C172.893,602.675,169.100,598.810,167.911,595.257C166.576,591.880,165.324,576.086,166.467,572.314C168.712,565.793,171.288,564.503,173.517,556.741C175.820,547.567,177.970,537.618,177.656,527.943C176.676,509.363,177.981,479.350,180.293,465.985C181.397,458.522,179.900,433.350,180.997,426.440C182.941,414.866,180.980,412.614,182.834,404.875M208.062,381.294C202.406,379.297,198.068,373.937,192.092,375.969C190.252,376.770,187.037,379.065,185.732,380.393C169.755,394.167,170.977,407.999,170.934,427.586C170.626,434.595,170.705,441.891,169.986,448.596C169.275,454.170,167.333,458.708,165.929,463.803C165.060,468.001,164.329,472.503,164.043,477.796C163.892,482.902,165.157,488.914,165.178,497.590C164.496,507.407,165.121,516.688,164.593,526.080C164.444,532.613,161.141,547.711,160.216,552.677C157.909,559.642,154.756,567.734,153.069,574.458C151.363,583.410,152.465,592.941,155.856,600.889C157.391,605.084,160.241,610.099,163.399,612.868C165.458,614.674,168.241,615.678,170.711,616.520C179.065,619.320,186.978,620.690,195.867,620.945C201.794,621.161,207.650,619.396,213.787,620.007C214.806,619.953,223.000,622.079,224.639,622.236C227.627,622.350,231.853,619.681,234.589,618.095C238.288,615.674,244.885,615.072,247.780,611.569C250.045,608.825,250.465,604.972,251.594,601.595C257.970,581.594,252.884,570.730,250.476,552.551C249.132,542.406,246.787,521.544,246.939,510.211C246.841,496.487,249.418,483.208,250.238,469.083C250.582,464.674,250.991,459.386,251.780,454.407C252.489,449.369,251.481,445.278,251.298,440.271C250.928,436.408,251.227,424.031,250.646,419.885C250.274,416.185,250.314,411.567,248.983,407.908C245.324,398.592,231.351,388.280,222.034,385.285C217.377,383.621,212.387,383.290,208.062,381.294Z"/>
<path class="path-7" d="M212.784,393.055C218.619,394.551,228.401,397.405,231.565,402.929"/>
<path class="path-7" d="M231.565,402.929C232.870,405.209,233.373,409.442,231.989,411.675"/>
<path class="path-7" d="M231.989,411.675C229.488,415.711,214.482,412.615,216.993,416.738"/>
<path class="path-7" d="M216.993,416.738C221.409,424.252,231.886,414.974,236.112,418.907"/>
<path class="path-7" d="M236.112,418.907C237.974,420.640,238.145,424.124,238.517,427.040"/>
<path class="path-7" d="M238.517,427.040C242.499,449.128,235.435,472.645,235.323,494.418"/>
<path class="path-7" d="M235.323,494.418C235.217,501.473,233.645,511.877,234.856,518.303"/>
<path class="path-7" d="M234.856,518.303C237.271,533.992,235.256,537.291,235.576,546.708"/>
<path class="path-7" d="M235.576,546.708C235.475,550.230,233.605,568.085,234.760,572.670"/>
<path class="path-7" d="M234.760,572.670C236.096,577.563,239.659,582.248,240.069,587.328"/>
<path class="path-7" d="M240.069,587.328C240.757,595.842,227.898,606.682,220.197,608.820"/>
<path class="path-7" d="M220.197,608.820C211.317,611.097,184.192,608.916,175.988,604.300"/>
<path class="path-7" d="M175.988,604.300C172.893,602.675,169.100,598.810,167.911,595.257"/>
<path class="path-7" d="M167.911,595.257C166.576,591.880,165.324,576.086,166.467,572.314"/>
<path class="path-7" d="M166.467,572.314C168.712,565.793,171.288,564.503,173.517,556.741"/>
<path class="path-7" d="M173.517,556.741C175.820,547.567,177.970,537.618,177.656,527.943"/>
<path class="path-7" d="M177.656,527.943C176.676,509.363,177.981,479.350,180.293,465.985"/>
<path class="path-7" d="M180.293,465.985C181.397,458.522,179.900,433.350,180.997,426.440"/>
<path class="path-7" d="M180.997,426.440C182.941,414.866,180.980,412.614,182.834,404.875"/>
<path class="path-7" d="M182.834,404.875C186.525,392.971,202.237,390.118,212.784,393.055"/>
<path class="path-8" d="M212.784,393.055C218.619,394.551,228.401,397.405,231.565,402.929C232.870,405.209,233.373,409.442,231.989,411.675C229.488,415.711,214.482,412.615,216.993,416.738C221.409,424.252,231.886,414.974,236.112,418.907C237.974,420.640,238.145,424.124,238.517,427.040C242.499,449.128,235.435,472.645,235.323,494.418C235.217,501.473,233.645,511.877,234.856,518.303C237.271,533.992,235.256,537.291,235.576,546.708C235.475,550.230,233.605,568.085,234.760,572.670C236.096,577.563,239.659,582.248,240.069,587.328C240.757,595.842,227.898,606.682,220.197,608.820C211.317,611.097,184.192,608.916,175.988,604.300C172.893,602.675,169.100,598.810,167.911,595.257C166.576,591.880,165.324,576.086,166.467,572.314C168.712,565.793,171.288,564.503,173.517,556.741C175.820,547.567,177.970,537.618,177.656,527.943C176.676,509.363,177.981,479.350,180.293,465.985C181.397,458.522,179.900,433.350,180.997,426.440C182.941,414.866,180.980,412.614,182.834,404.875C186.525,392.971,202.237,390.118,212.784,393.055Z"/>
</g>
<g id="right_toe">
<path class="path-0" d="M165.528,643.625C166.931,630.111,172.265,612.686,188.723,610.348C192.506,609.609,197.831,611.408,202.028,612.273C223.518,616.646,231.842,621.513,232.490,643.625C232.545,649.710,233.455,657.263,228.901,662.140C224.390,666.886,203.138,664.229,196.647,664.512C185.177,665.261,175.296,670.747,167.366,660.744C162.592,654.593,164.786,650.870,165.528,643.625M241.154,620.416C234.064,606.239,201.116,597.763,186.273,600.495C164.114,604.702,157.004,622.139,155.541,640.954C154.969,647.659,154.072,655.023,157.383,660.975C158.572,663.112,161.096,665.979,162.852,667.692C176.014,681.646,185.717,679.892,203.604,679.797C213.064,679.905,228.813,679.149,236.427,672.833C242.164,667.606,242.724,661.886,242.993,654.578C242.999,647.537,244.024,625.631,241.154,620.416Z"/>
<path class="path-3" d="M188.723,610.348C192.506,609.609,197.831,611.408,202.028,612.273"/>
<path class="path-3" d="M202.028,612.273C223.518,616.646,231.842,621.513,232.490,643.625"/>
<path class="path-3" d="M232.490,643.625C232.545,649.710,233.455,657.263,228.901,662.140"/>
<path class="path-3" d="M228.901,662.140C224.390,666.886,203.138,664.229,196.647,664.512"/>
<path class="path-3" d="M196.647,664.512C185.177,665.261,175.296,670.747,167.366,660.744"/>
<path class="path-3" d="M167.366,660.744C162.592,654.593,164.786,650.870,165.528,643.625"/>
<path class="path-3" d="M165.528,643.625C166.931,630.111,172.265,612.686,188.723,610.348"/>
<path class="path-4" d="M188.723,610.348C192.506,609.609,197.831,611.408,202.028,612.273C223.518,616.646,231.842,621.513,232.490,643.625C232.545,649.710,233.455,657.263,228.901,662.140C224.390,666.886,203.138,664.229,196.647,664.512C185.177,665.261,175.296,670.747,167.366,660.744C162.592,654.593,164.786,650.870,165.528,643.625C166.931,630.111,172.265,612.686,188.723,610.348Z"/>
</g>
<g id="right_sole">
<path class="path-0" d="M184.265,676.396C185.817,676.703,201.293,676.428,203.057,676.427C204.463,676.447,212.904,676.603,214.103,676.529C214.854,676.499,222.351,676.155,222.924,676.611C222.375,676.172,214.358,677.622,213.887,677.638C212.947,677.701,186.559,677.541,186.247,677.652C185.060,677.681,173.804,676.737,173.043,675.777C174.262,675.253,182.484,676.041,184.265,676.396M224.248,670.836C224.303,671.118,222.676,672.869,222.250,672.873C221.406,672.886,207.983,674.381,206.871,674.135C205.607,674.084,196.678,674.630,195.538,674.618C193.300,674.594,175.260,674.161,173.337,673.042C173.092,672.836,172.277,671.539,172.318,671.363C172.386,671.081,179.522,671.180,180.621,671.135C182.344,671.064,196.431,670.729,198.199,670.707C200.115,670.682,215.295,670.855,217.257,670.692C217.564,670.674,224.111,670.147,224.248,670.836M230.006,665.517C218.626,662.279,209.693,666.833,199.292,667.173C191.790,667.453,177.395,665.849,168.254,667.628C166.779,667.915,163.960,667.703,163.508,669.226C162.947,671.131,166.601,675.239,168.928,676.775C171.812,678.678,177.827,678.719,180.212,679.084C192.305,681.384,207.707,680.242,220.129,679.700C229.286,679.306,231.570,675.654,232.516,671.257C232.912,669.420,233.579,666.484,230.006,665.517Z"/>
<path class="path-24" d="M184.265,676.396C185.817,676.703,201.293,676.428,203.057,676.427"/>
<path class="path-24" d="M203.057,676.427C204.463,676.447,212.904,676.603,214.103,676.529"/>
<path class="path-24" d="M214.103,676.529C214.854,676.499,222.351,676.155,222.924,676.611"/>
<path class="path-24" d="M222.924,676.611C222.375,676.172,214.358,677.622,213.887,677.638"/>
<path class="path-24" d="M213.887,677.638C212.947,677.701,186.559,677.541,186.247,677.652"/>
<path class="path-24" d="M186.247,677.652C185.060,677.681,173.804,676.737,173.043,675.777"/>
<path class="path-24" d="M173.043,675.777C174.262,675.253,182.484,676.041,184.265,676.396"/>
<path class="path-0" d="M184.265,676.396C185.817,676.703,201.293,676.428,203.057,676.427C204.463,676.447,212.904,676.603,214.103,676.529C214.854,676.499,222.351,676.155,222.924,676.611C222.375,676.172,214.358,677.622,213.887,677.638C212.947,677.701,186.559,677.541,186.247,677.652C185.060,677.681,173.804,676.737,173.043,675.777C174.262,675.253,182.484,676.041,184.265,676.396Z"/>
<path class="path-5" d="M180.621,671.135C182.344,671.064,196.431,670.729,198.199,670.707"/>
<path class="path-5" d="M198.199,670.707C200.115,670.682,215.295,670.855,217.257,670.692"/>
<path class="path-5" d="M217.257,670.692C217.564,670.674,224.111,670.147,224.248,670.836"/>
<path class="path-5" d="M224.248,670.836C224.303,671.118,222.676,672.869,222.250,672.873"/>
<path class="path-5" d="M222.250,672.873C221.406,672.886,207.983,674.381,206.871,674.135"/>
<path class="path-5" d="M206.871,674.135C205.607,674.084,196.678,674.630,195.538,674.618"/>
<path class="path-5" d="M195.538,674.618C193.300,674.594,175.260,674.161,173.337,673.042"/>
<path class="path-5" d="M173.337,673.042C173.092,672.836,172.277,671.539,172.318,671.363"/>
<path class="path-5" d="M172.318,671.363C172.386,671.081,179.522,671.180,180.621,671.135"/>
<path class="path-6" d="M180.621,671.135C182.344,671.064,196.431,670.729,198.199,670.707C200.115,670.682,215.295,670.855,217.257,670.692C217.564,670.674,224.111,670.147,224.248,670.836C224.303,671.118,222.676,672.869,222.250,672.873C221.406,672.886,207.983,674.381,206.871,674.135C205.607,674.084,196.678,674.630,195.538,674.618C193.300,674.594,175.260,674.161,173.337,673.042C173.092,672.836,172.277,671.539,172.318,671.363C172.386,671.081,179.522,671.180,180.621,671.135Z"/>
</g>
</g>
<g id="hat_brim">
<path class="path-0" d="M283.290,150.343C286.949,144.354,295.932,128.052,303.917,128.052C309.241,128.052,320.219,137.701,325.874,140.695C330.865,143.690,336.189,146.351,341.844,149.012C345.057,150.681,348.272,152.344,351.492,154.002C365.799,161.322,361.806,167.644,353.487,166.313C334.858,162.984,331.863,164.316,313.898,155.000C311.568,154.002,305.580,150.676,304.582,155.000C303.252,159.991,312.235,164.316,315.894,165.979C322.547,169.640,329.867,173.633,337.852,174.297C340.181,174.631,348.166,173.963,349.496,176.293C351.492,179.620,341.844,188.270,339.848,190.266C336.520,193.261,333.195,196.255,329.867,198.585C324.877,201.910,319.553,204.904,313.898,205.902C303.252,207.234,269.982,191.929,268.984,180.286C268.319,173.632,279.298,156.665,283.290,150.343M315.894,123.728C310.904,119.402,307.244,113.080,299.924,116.408C294.600,118.737,288.945,126.389,285.287,130.381C271.645,147.016,259.336,166.646,260.001,188.270C260.334,201.910,264.991,201.579,275.970,206.900C292.604,215.219,313.898,217.880,331.863,209.564C343.507,204.240,363.803,186.274,369.126,174.297C370.789,170.305,373.783,161.322,371.453,156.665C368.792,151.008,346.501,141.360,339.848,137.701C331.863,133.376,322.881,129.383,315.894,123.728Z"/>
<path class="path-9" d="M303.917,128.052C309.241,128.052,320.219,137.701,325.874,140.695"/>
<path class="path-9" d="M325.874,140.695C330.865,143.690,336.189,146.351,341.844,149.012"/>
<path class="path-9" d="M341.844,149.012C345.057,150.681,348.272,152.344,351.492,154.002"/>
<path class="path-9" d="M351.492,154.002C365.799,161.322,361.806,167.644,353.487,166.313"/>
<path class="path-9" d="M353.487,166.313C334.858,162.984,331.863,164.316,313.898,155.000"/>
<path class="path-9" d="M313.898,155.000C311.568,154.002,305.580,150.676,304.582,155.000"/>
<path class="path-9" d="M304.582,155.000C303.252,159.991,312.235,164.316,315.894,165.979"/>
<path class="path-9" d="M315.894,165.979C322.547,169.640,329.867,173.633,337.852,174.297"/>
<path class="path-9" d="M337.852,174.297C340.181,174.631,348.166,173.963,349.496,176.293"/>
<path class="path-9" d="M349.496,176.293C351.492,179.620,341.844,188.270,339.848,190.266"/>
<path class="path-9" d="M339.848,190.266C336.520,193.261,333.195,196.255,329.867,198.585"/>
<path class="path-9" d="M329.867,198.585C324.877,201.910,319.553,204.904,313.898,205.902"/>
<path class="path-9" d="M313.898,205.902C303.252,207.234,269.982,191.929,268.984,180.286"/>
<path class="path-9" d="M268.984,180.286C268.319,173.632,279.298,156.665,283.290,150.343"/>
<path class="path-9" d="M283.290,150.343C286.949,144.354,295.932,128.052,303.917,128.052"/>
<path class="path-10" d="M303.917,128.052C309.241,128.052,320.219,137.701,325.874,140.695C330.865,143.690,336.189,146.351,341.844,149.012C345.057,150.681,348.272,152.344,351.492,154.002C365.799,161.322,361.806,167.644,353.487,166.313C334.858,162.984,331.863,164.316,313.898,155.000C311.568,154.002,305.580,150.676,304.582,155.000C303.252,159.991,312.235,164.316,315.894,165.979C322.547,169.640,329.867,173.633,337.852,174.297C340.181,174.631,348.166,173.963,349.496,176.293C351.492,179.620,341.844,188.270,339.848,190.266C336.520,193.261,333.195,196.255,329.867,198.585C324.877,201.910,319.553,204.904,313.898,205.902C303.252,207.234,269.982,191.929,268.984,180.286C268.319,173.632,279.298,156.665,283.290,150.343C286.949,144.354,295.932,128.052,303.917,128.052Z"/>
</g>
<g id="hair">
<path class="path-0" d="M183.357,136.483C200.954,124.749,220.906,123.806,241.996,123.120C251.452,122.794,257.886,129.270,265.069,135.626C270.964,141.195,277.299,147.468,283.560,153.313C292.986,162.051,296.930,166.431,300.440,170.614C303.444,173.825,308.105,179.813,311.862,182.674C316.396,186.124,325.422,203.315,327.445,205.266C320.793,207.453,310.356,209.024,305.541,212.830C307.149,218.669,307.424,227.700,307.413,230.409C301.202,230.790,294.008,227.926,282.567,225.752C280.180,232.918,280.142,239.647,275.384,246.902C267.697,244.496,262.345,242.563,252.411,238.043C245.798,243.193,244.261,242.773,233.517,249.212C226.455,244.820,220.838,240.151,213.943,237.253C207.148,240.091,196.403,241.027,192.739,243.925C188.987,236.858,185.547,229.060,182.318,225.662C172.710,227.554,168.576,230.148,161.781,232.559C157.606,227.012,160.654,222.489,156.037,214.349C151.717,213.146,145.049,210.476,139.490,210.322C143.367,205.864,146.319,191.142,152.833,189.327C160.871,187.088,155.875,177.911,160.872,169.755C162.110,167.631,174.016,151.399,175.093,148.739C177.132,144.153,179.361,139.287,183.357,136.483M269.783,123.041C257.623,113.516,232.973,108.192,219.067,111.311C206.306,114.023,193.787,117.926,182.663,125.006C176.433,128.911,169.531,134.686,165.362,140.754C157.036,152.537,144.935,178.372,138.142,190.325C132.704,200.241,127.646,206.923,122.452,212.283C140.007,218.879,145.124,221.586,150.363,222.441C150.613,230.199,157.711,236.027,156.388,244.572C165.209,243.354,170.475,241.177,178.326,239.302C182.258,243.995,184.942,250.348,188.681,256.586C196.418,254.568,204.305,254.940,212.000,249.563C217.496,252.632,226.229,257.403,235.200,262.448C243.544,258.115,245.325,257.880,253.165,252.908C262.619,255.342,272.515,261.315,282.074,260.399C281.484,252.206,287.600,246.647,286.947,241.388C294.168,239.536,316.196,242.966,319.967,242.683C319.803,236.635,316.595,225.026,318.237,217.838C325.064,216.098,330.837,214.510,341.526,209.520C338.121,202.790,331.974,194.414,326.560,189.403C321.990,185.214,318.291,179.689,313.719,175.326C298.212,160.768,292.275,140.745,269.783,123.041Z"/>
<path class="path-11" d="M241.996,123.120C251.452,122.794,257.886,129.270,265.069,135.626"/>
<path class="path-11" d="M265.069,135.626C270.964,141.195,277.299,147.468,283.560,153.313"/>
<path class="path-11" d="M283.560,153.313C292.986,162.051,296.930,166.431,300.440,170.614"/>
<path class="path-11" d="M300.440,170.614C303.444,173.825,308.105,179.813,311.862,182.674"/>
<path class="path-11" d="M311.862,182.674C316.396,186.124,325.422,203.315,327.445,205.266"/>
<path class="path-11" d="M327.445,205.266C320.793,207.453,310.356,209.024,305.541,212.830"/>
<path class="path-11" d="M305.541,212.830C307.149,218.669,307.424,227.700,307.413,230.409"/>
<path class="path-11" d="M307.413,230.409C301.202,230.790,294.008,227.926,282.567,225.752"/>
<path class="path-11" d="M282.567,225.752C280.180,232.918,280.142,239.647,275.384,246.902"/>
<path class="path-11" d="M275.384,246.902C267.697,244.496,262.345,242.563,252.411,238.043"/>
<path class="path-11" d="M252.411,238.043C245.798,243.193,244.261,242.773,233.517,249.212"/>
<path class="path-11" d="M233.517,249.212C226.455,244.820,220.838,240.151,213.943,237.253"/>
<path class="path-11" d="M213.943,237.253C207.148,240.091,196.403,241.027,192.739,243.925"/>
<path class="path-11" d="M192.739,243.925C188.987,236.858,185.547,229.060,182.318,225.662"/>
<path class="path-11" d="M182.318,225.662C172.710,227.554,168.576,230.148,161.781,232.559"/>
<path class="path-11" d="M161.781,232.559C157.606,227.012,160.654,222.489,156.037,214.349"/>
<path class="path-11" d="M156.037,214.349C151.717,213.146,145.049,210.476,139.490,210.322"/>
<path class="path-11" d="M139.490,210.322C143.367,205.864,146.319,191.142,152.833,189.327"/>
<path class="path-11" d="M152.833,189.327C160.871,187.088,155.875,177.911,160.872,169.755"/>
<path class="path-11" d="M160.872,169.755C162.110,167.631,174.016,151.399,175.093,148.739"/>
<path class="path-11" d="M175.093,148.739C177.132,144.153,179.361,139.287,183.357,136.483"/>
<path class="path-11" d="M183.357,136.483C200.954,124.749,220.906,123.806,241.996,123.120"/>
<path class="path-12" d="M241.996,123.120C251.452,122.794,257.886,129.270,265.069,135.626C270.964,141.195,277.299,147.468,283.560,153.313C292.986,162.051,296.930,166.431,300.440,170.614C303.444,173.825,308.105,179.813,311.862,182.674C316.396,186.124,325.422,203.315,327.445,205.266C320.793,207.453,310.356,209.024,305.541,212.830C307.149,218.669,307.424,227.700,307.413,230.409C301.202,230.790,294.008,227.926,282.567,225.752C280.180,232.918,280.142,239.647,275.384,246.902C267.697,244.496,262.345,242.563,252.411,238.043C245.798,243.193,244.261,242.773,233.517,249.212C226.455,244.820,220.838,240.151,213.943,237.253C207.148,240.091,196.403,241.027,192.739,243.925C188.987,236.858,185.547,229.060,182.318,225.662C172.710,227.554,168.576,230.148,161.781,232.559C157.606,227.012,160.654,222.489,156.037,214.349C151.717,213.146,145.049,210.476,139.490,210.322C143.367,205.864,146.319,191.142,152.833,189.327C160.871,187.088,155.875,177.911,160.872,169.755C162.110,167.631,174.016,151.399,175.093,148.739C177.132,144.153,179.361,139.287,183.357,136.483C200.954,124.749,220.906,123.806,241.996,123.120Z"/>
</g>
<g id="clothes">
<path class="path-0" d="M244.353,366.512C239.093,364.889,219.559,366.046,216.491,370.863C214.476,374.246,218.031,375.712,221.459,375.722C225.384,375.733,246.048,374.982,248.649,373.165C252.873,370.139,246.585,367.095,244.353,366.512M191.093,266.179C194.088,253.538,221.037,240.563,234.012,241.561C242.994,242.226,271.274,256.199,275.266,264.517C278.592,271.170,279.590,295.789,279.924,304.107C280.257,319.412,281.387,334.735,282.253,350.019C283.579,362.667,291.684,375.511,288.090,387.710C286.331,391.669,277.682,397.050,273.046,398.159C267.467,399.777,255.787,398.710,250.504,397.879C227.637,394.916,229.728,399.750,208.114,400.437C204.063,400.411,190.889,400.205,188.241,398.469C182.268,393.484,184.971,384.916,186.218,377.529C189.070,364.004,190.333,354.657,191.427,340.038C192.522,323.982,194.088,306.768,194.088,290.134C193.755,284.145,190.429,269.839,191.093,266.179M269.943,247.549C253.640,237.899,237.670,229.915,218.042,235.573C212.718,236.902,186.103,249.877,183.773,253.205C180.115,258.529,183.773,278.821,183.773,286.141C184.107,294.791,184.440,303.773,183.773,312.092C183.442,318.413,182.111,324.069,182.111,330.057C181.777,336.710,181.926,343.910,180.780,350.019C177.573,366.465,166.389,399.238,186.170,409.923C191.105,412.612,198.120,411.898,204.055,411.924C214.067,411.775,224.787,411.954,234.876,410.719C245.718,409.694,256.265,406.452,267.283,406.118C273.976,405.916,294.655,413.801,299.702,408.844C302.375,406.334,302.683,390.047,302.178,385.934C299.744,371.744,293.595,358.284,291.567,344.031C290.210,332.126,289.239,320.410,289.904,308.100C290.237,298.119,291.900,288.471,291.900,278.157C291.567,273.831,292.234,268.510,289.904,264.184C285.912,256.199,277.263,251.873,269.943,247.549Z"/>
<path class="path-13" d="M244.353,366.512C239.093,364.889,219.559,366.046,216.491,370.863"/>
<path class="path-13" d="M216.491,370.863C214.476,374.246,218.031,375.712,221.459,375.722"/>
<path class="path-13" d="M221.459,375.722C225.384,375.733,246.048,374.982,248.649,373.165"/>
<path class="path-13" d="M248.649,373.165C252.873,370.139,246.585,367.095,244.353,366.512"/>
<path class="path-13" d="M191.093,266.179C194.088,253.538,221.037,240.563,234.012,241.561"/>
<path class="path-13" d="M234.012,241.561C242.994,242.226,271.274,256.199,275.266,264.517"/>
<path class="path-13" d="M275.266,264.517C278.592,271.170,279.590,295.789,279.924,304.107"/>
<path class="path-13" d="M279.924,304.107C280.257,319.412,281.387,334.735,282.253,350.019"/>
<path class="path-13" d="M282.253,350.019C283.579,362.667,291.684,375.511,288.090,387.710"/>
<path class="path-13" d="M288.090,387.710C286.331,391.669,277.682,397.050,273.046,398.159"/>
<path class="path-13" d="M273.046,398.159C267.467,399.777,255.787,398.710,250.504,397.879"/>
<path class="path-13" d="M250.504,397.879C227.637,394.916,229.728,399.750,208.114,400.437"/>
<path class="path-13" d="M208.114,400.437C204.063,400.411,190.889,400.205,188.241,398.469"/>
<path class="path-13" d="M188.241,398.469C182.268,393.484,184.971,384.916,186.218,377.529"/>
<path class="path-13" d="M186.218,377.529C189.070,364.004,190.333,354.657,191.427,340.038"/>
<path class="path-13" d="M191.427,340.038C192.522,323.982,194.088,306.768,194.088,290.134"/>
<path class="path-13" d="M194.088,290.134C193.755,284.145,190.429,269.839,191.093,266.179"/>
<path class="path-14" d="M244.353,366.512C239.093,364.889,219.559,366.046,216.491,370.863C214.476,374.246,218.031,375.712,221.459,375.722C225.384,375.733,246.048,374.982,248.649,373.165C252.873,370.139,246.585,367.095,244.353,366.512M191.093,266.179C194.088,253.538,221.037,240.563,234.012,241.561C242.994,242.226,271.274,256.199,275.266,264.517C278.592,271.170,279.590,295.789,279.924,304.107C280.257,319.412,281.387,334.735,282.253,350.019C283.579,362.667,291.684,375.511,288.090,387.710C286.331,391.669,277.682,397.050,273.046,398.159C267.467,399.777,255.787,398.710,250.504,397.879C227.637,394.916,229.728,399.750,208.114,400.437C204.063,400.411,190.889,400.205,188.241,398.469C182.268,393.484,184.971,384.916,186.218,377.529C189.070,364.004,190.333,354.657,191.427,340.038C192.522,323.982,194.088,306.768,194.088,290.134C193.755,284.145,190.429,269.839,191.093,266.179Z"/>
</g>
<g id="neck">
<path class="path-0" d="M229.021,222.597C229.354,219.269,230.353,216.275,234.012,215.942C245.656,213.946,244.657,251.542,234.012,251.542C224.031,251.542,228.356,228.917,229.021,222.597M234.012,206.628C231.351,206.295,228.357,206.959,226.027,208.291C216.711,212.948,218.042,221.599,218.042,230.248C217.708,234.574,218.042,238.567,216.046,242.226C214.383,245.553,209.724,248.879,209.724,252.540C210.057,262.521,237.006,262.521,243.993,262.188C246.653,262.187,255.636,263.185,256.634,259.526C256.634,258.528,249.981,246.883,248.983,242.226C245.989,228.252,255.305,207.626,234.012,206.628Z"/>
<path class="path-15" d="M234.012,215.942C245.656,213.946,244.657,251.542,234.012,251.542"/>
<path class="path-15" d="M234.012,251.542C224.031,251.542,228.356,228.917,229.021,222.597"/>
<path class="path-15" d="M229.021,222.597C229.354,219.269,230.353,216.275,234.012,215.942"/>
<path class="path-16" d="M234.012,215.942C245.656,213.946,244.657,251.542,234.012,251.542C224.031,251.542,228.356,228.917,229.021,222.597C229.354,219.269,230.353,216.275,234.012,215.942Z"/>
</g>
<g id="layer_head">
<g id="right_ear">
<path class="path-0" d="M149.704,193.601C135.179,194.450,119.944,160.161,141.466,161.308C144.965,161.494,147.902,167.353,148.506,169.953C150.744,179.584,160.089,192.995,149.704,193.601M146.943,149.726C143.618,147.737,139.529,147.073,135.981,148.628C125.104,151.451,119.345,164.330,121.311,175.452C123.645,187.865,137.526,201.533,149.055,203.742C152.099,204.341,158.384,206.418,161.266,204.859C167.895,200.727,161.001,190.496,159.001,184.702C157.006,178.488,151.691,153.801,146.943,149.726Z"/>
<path class="path-15" d="M141.466,161.308C144.965,161.494,147.902,167.353,148.506,169.953"/>
<path class="path-15" d="M148.506,169.953C150.744,179.584,160.089,192.995,149.704,193.601"/>
<path class="path-15" d="M149.704,193.601C135.179,194.450,119.944,160.161,141.466,161.308"/>
<path class="path-16" d="M141.466,161.308C144.965,161.494,147.902,167.353,148.506,169.953C150.744,179.584,160.089,192.995,149.704,193.601C135.179,194.450,119.944,160.161,141.466,161.308Z"/>
</g>
<g id="face_Mask">
<g id="face">
<path class="path-0" d="M165.123,104.824C173.609,94.375,206.378,87.190,220.018,85.194C235.322,83.198,250.959,85.527,265.930,90.184C271.254,91.849,278.906,93.844,283.562,97.504C291.541,103.826,296.631,115.101,299.506,124.450C301.786,131.237,305.894,140.366,304.027,146.869C295.556,176.379,291.588,190.009,285.683,198.257C278.387,208.446,265.172,212.228,253.617,216.796C241.920,221.228,230.051,222.665,223.908,222.292C211.587,221.545,185.049,215.471,175.951,207.932C165.089,198.585,163.945,184.325,159.537,171.327C157.020,164.596,152.782,154.512,151.429,147.602C149.444,136.549,158.138,113.346,165.123,104.824M287.580,89.829C273.963,77.607,237.695,74.797,220.061,77.441C211.741,78.431,203.755,79.090,196.102,81.081C190.442,82.743,185.447,85.401,180.120,87.064C168.474,91.388,163.662,89.950,155.832,100.714C150.209,108.249,141.348,137.948,142.394,147.133C143.299,154.019,150.830,169.239,153.282,176.945C156.467,187.159,158.858,201.867,165.453,209.806C172.864,218.468,182.945,222.990,198.382,227.093C209.650,230.089,222.123,230.997,234.130,231.209C238.588,231.561,246.871,229.042,258.853,224.056C270.937,218.850,284.272,214.499,292.578,203.175C302.455,189.710,306.239,167.595,314.559,145.438C321.475,127.020,296.063,97.278,287.580,89.829Z"/>
<path class="path-15" d="M220.018,85.194C235.322,83.198,250.959,85.527,265.930,90.184"/>
<path class="path-15" d="M265.930,90.184C271.254,91.849,278.906,93.844,283.562,97.504"/>
<path class="path-15" d="M283.562,97.504C291.541,103.826,296.631,115.101,299.506,124.450"/>
<path class="path-15" d="M299.506,124.450C301.786,131.237,305.894,140.366,304.027,146.869"/>
<path class="path-15" d="M304.027,146.869C295.556,176.379,291.588,190.009,285.683,198.257"/>
<path class="path-15" d="M285.683,198.257C278.387,208.446,265.172,212.228,253.617,216.796"/>
<path class="path-15" d="M253.617,216.796C241.920,221.228,230.051,222.665,223.908,222.292"/>
<path class="path-15" d="M223.908,222.292C211.587,221.545,185.049,215.471,175.951,207.932"/>
<path class="path-15" d="M175.951,207.932C165.089,198.585,163.945,184.325,159.537,171.327"/>
<path class="path-15" d="M159.537,171.327C157.020,164.596,152.782,154.512,151.429,147.602"/>
<path class="path-15" d="M151.429,147.602C149.444,136.549,158.138,113.346,165.123,104.824"/>
<path class="path-15" d="M165.123,104.824C173.609,94.375,206.378,87.190,220.018,85.194"/>
<path class="path-16" d="M220.018,85.194C235.322,83.198,250.959,85.527,265.930,90.184C271.254,91.849,278.906,93.844,283.562,97.504C291.541,103.826,296.631,115.101,299.506,124.450C301.786,131.237,305.894,140.366,304.027,146.869C295.556,176.379,291.588,190.009,285.683,198.257C278.387,208.446,265.172,212.228,253.617,216.796C241.920,221.228,230.051,222.665,223.908,222.292C211.587,221.545,185.049,215.471,175.951,207.932C165.089,198.585,163.945,184.325,159.537,171.327C157.020,164.596,152.782,154.512,151.429,147.602C149.444,136.549,158.138,113.346,165.123,104.824C173.609,94.375,206.378,87.190,220.018,85.194Z"/>
</g>
</g>
<mask id="mask_target" style="mask-type:alpha;">
<use xlink:href="#face_Mask"/>
</mask>
<g id="mouse">
<path class="path-0" d="M231.269,214.025C236.473,215.129,236.557,219.882,236.083,220.389C235.816,220.675,234.694,219.724,231.733,219.237C226.127,218.316,223.422,219.488,223.224,218.774C223.008,217.991,225.177,212.733,231.269,214.025Z"/>
</g>
<g id="layer_eyes_Mtarget" mask="url(#mask_target)">
<g id="eyes">
<mask style="mask-type:alpha;" id="f3906406-f197-4bf1-91d8-744c09cca836">
<use xlink:href="#cmn_f3906406-f197-4bf1-91d8-744c09cca836"/>
</mask>
<g id="cmn_f3906406-f197-4bf1-91d8-744c09cca836">
<path class="path-0" d="M209.322,181.874C208.323,188.780,196.219,191.269,189.155,189.840C184.649,188.864,177.355,185.927,174.458,181.862C173.276,180.270,170.311,170.282,171.951,172.901C174.268,176.602,209.831,178.347,209.322,181.874M214.674,184.483C215.001,183.323,216.204,179.842,215.466,178.040C214.895,176.648,213.150,174.731,211.625,174.815C205.889,175.003,185.236,170.550,177.883,168.336C173.831,167.209,166.860,163.144,163.397,166.425C160.914,168.674,164.487,170.590,165.272,175.193C166.710,183.627,183.454,195.357,192.468,195.214C202.054,195.063,213.147,189.891,214.674,184.483M255.630,187.575C251.376,187.309,244.538,186.555,243.876,179.947C243.558,176.768,260.362,173.751,264.351,172.233C267.443,171.055,279.088,166.517,280.735,166.555C281.805,166.643,282.905,170.272,282.793,172.886C282.436,181.291,263.312,188.057,255.630,187.575M288.914,177.210C290.950,173.392,290.988,160.234,289.655,159.419C285.666,156.980,273.696,162.836,267.019,164.893C259.125,167.324,246.693,174.396,241.275,174.652C238.576,174.878,236.041,174.280,235.158,175.934C234.185,177.758,236.848,180.476,237.893,182.260C239.659,185.277,241.305,189.669,245.078,191.433C252.405,194.996,266.133,191.548,273.301,188.865C278.160,187.057,286.249,182.206,288.914,177.210Z"/>
<path class="path-17" d="M280.735,166.555C281.805,166.643,282.905,170.272,282.793,172.886"/>
<path class="path-17" d="M282.793,172.886C282.436,181.291,263.312,188.057,255.630,187.575"/>
<path class="path-17" d="M255.630,187.575C251.376,187.309,244.538,186.555,243.876,179.947"/>
<path class="path-17" d="M243.876,179.947C243.558,176.768,260.362,173.751,264.351,172.233"/>
<path class="path-17" d="M264.351,172.233C267.443,171.055,279.088,166.517,280.735,166.555"/>
<path class="path-18" d="M280.735,166.555C281.805,166.643,282.905,170.272,282.793,172.886C282.436,181.291,263.312,188.057,255.630,187.575C251.376,187.309,244.538,186.555,243.876,179.947C243.558,176.768,260.362,173.751,264.351,172.233C267.443,171.055,279.088,166.517,280.735,166.555Z"/>
<path class="path-17" d="M171.951,172.901C174.268,176.602,209.831,178.347,209.322,181.874"/>
<path class="path-17" d="M209.322,181.874C208.323,188.780,196.219,191.269,189.155,189.840"/>
<path class="path-17" d="M189.155,189.840C184.649,188.864,177.355,185.927,174.458,181.862"/>
<path class="path-17" d="M174.458,181.862C173.276,180.270,170.311,170.282,171.951,172.901"/>
<path class="path-18" d="M171.951,172.901C174.268,176.602,209.831,178.347,209.322,181.874C208.323,188.780,196.219,191.269,189.155,189.840C184.649,188.864,177.355,185.927,174.458,181.862C173.276,180.270,170.311,170.282,171.951,172.901Z"/>
</g>
</g>
<g id="pupil">
<path class="path-0" d="M247.069,167.361C249.342,166.790,252.560,169.926,253.420,178.334C254.069,184.676,252.383,187.279,250.627,187.479C248.727,187.696,247.082,185.106,245.799,178.329C244.429,171.097,245.090,167.859,247.069,167.361Z" mask="url(#f3906406-f197-4bf1-91d8-744c09cca836)"/>
<path class="path-0" d="M200.201,168.920C202.535,168.635,204.290,172.471,204.844,181.216C205.163,186.239,204.634,188.290,203.322,188.611C201.766,188.992,199.635,187.044,198.239,181.240C196.293,173.154,197.985,169.189,200.201,168.920Z" mask="url(#f3906406-f197-4bf1-91d8-744c09cca836)"/>
</g>
</g>
<g id="hat">
<path class="path-0" d="M303.522,122.470C305.519,123.800,308.512,126.129,308.846,128.792C310.177,135.112,299.199,134.450,295.871,134.784C289.219,134.784,282.266,134.590,275.913,134.782C270.826,135.398,265.736,135.973,260.638,136.496C252.399,136.697,244.165,136.481,235.925,136.429C221.292,136.912,206.663,136.475,192.025,136.425C190.734,136.472,151.142,141.075,144.493,137.422C135.834,132.764,144.822,126.101,144.489,121.774C144.488,118.115,136.509,117.118,138.504,110.802C140.498,104.819,161.769,100.826,168.086,99.495C180.392,96.834,193.031,93.175,206.002,91.181C224.292,88.523,243.244,88.860,261.864,87.197C274.191,86.198,302.507,94.172,307.847,106.834C312.510,117.475,295.872,107.501,293.876,106.836C292.530,105.828,287.817,103.805,288.831,106.832C289.840,112.495,299.520,119.139,303.522,122.470M186.089,86.848C175.749,89.415,166.122,91.165,156.140,93.494C151.815,94.491,146.495,97.149,142.502,94.826C133.518,89.848,143.172,66.893,147.497,60.908C161.802,41.612,192.778,33.361,218.025,33.293C262.965,33.173,280.577,39.961,295.546,54.938C300.204,59.263,316.831,80.895,308.180,86.884C304.853,88.879,298.865,84.889,295.871,83.557C285.558,79.231,244.203,72.424,186.089,86.848M244.034,22.670C237.021,22.329,235.348,20.988,227.998,21.652C196.724,24.961,154.487,26.315,135.854,56.586C129.866,66.564,129.862,77.873,127.864,88.516C126.200,97.162,121.211,103.813,122.206,112.458C123.203,119.446,126.199,121.109,128.526,126.434C131.185,132.091,129.850,134.754,131.513,138.414C135.167,149.062,144.818,148.490,154.134,148.403C158.985,148.360,176.877,148.222,186.622,148.046C198.537,147.830,214.420,147.417,226.330,147.034C235.464,146.740,247.642,146.327,256.769,145.863C265.156,145.436,276.342,144.848,284.707,144.099C294.969,143.181,317.632,141.350,318.819,140.103C320.952,137.903,324.808,116.494,324.809,112.504C324.810,109.175,323.148,105.847,323.149,100.521C322.820,85.889,322.490,72.254,314.182,58.617C298.894,34.004,271.293,24.689,244.034,22.670Z"/>
<path class="path-19" d="M261.864,87.197C274.191,86.198,302.507,94.172,307.847,106.834"/>
<path class="path-19" d="M307.847,106.834C312.510,117.475,295.872,107.501,293.876,106.836"/>
<path class="path-19" d="M293.876,106.836C292.530,105.828,287.817,103.805,288.831,106.832"/>
<path class="path-19" d="M288.831,106.832C289.840,112.495,299.520,119.139,303.522,122.470"/>
<path class="path-19" d="M303.522,122.470C305.519,123.800,308.512,126.129,308.846,128.792"/>
<path class="path-19" d="M308.846,128.792C310.177,135.112,299.199,134.450,295.871,134.784"/>
<path class="path-19" d="M295.871,134.784C289.219,134.784,282.266,134.590,275.913,134.782"/>
<path class="path-19" d="M275.913,134.782C270.826,135.398,265.736,135.973,260.638,136.496"/>
<path class="path-19" d="M260.638,136.496C252.399,136.697,244.165,136.481,235.925,136.429"/>
<path class="path-19" d="M235.925,136.429C221.292,136.912,206.663,136.475,192.025,136.425"/>
<path class="path-19" d="M192.025,136.425C190.734,136.472,151.142,141.075,144.493,137.422"/>
<path class="path-19" d="M144.493,137.422C135.834,132.764,144.822,126.101,144.489,121.774"/>
<path class="path-19" d="M144.489,121.774C144.488,118.115,136.509,117.118,138.504,110.802"/>
<path class="path-19" d="M138.504,110.802C140.498,104.819,161.769,100.826,168.086,99.495"/>
<path class="path-19" d="M168.086,99.495C180.392,96.834,193.031,93.175,206.002,91.181"/>
<path class="path-19" d="M206.002,91.181C224.292,88.523,243.244,88.860,261.864,87.197"/>
<path class="path-20" d="M261.864,87.197C274.191,86.198,302.507,94.172,307.847,106.834C312.510,117.475,295.872,107.501,293.876,106.836C292.530,105.828,287.817,103.805,288.831,106.832C289.840,112.495,299.520,119.139,303.522,122.470C305.519,123.800,308.512,126.129,308.846,128.792C310.177,135.112,299.199,134.450,295.871,134.784C289.219,134.784,282.266,134.590,275.913,134.782C270.826,135.398,265.736,135.973,260.638,136.496C252.399,136.697,244.165,136.481,235.925,136.429C221.292,136.912,206.663,136.475,192.025,136.425C190.734,136.472,151.142,141.075,144.493,137.422C135.834,132.764,144.822,126.101,144.489,121.774C144.488,118.115,136.509,117.118,138.504,110.802C140.498,104.819,161.769,100.826,168.086,99.495C180.392,96.834,193.031,93.175,206.002,91.181C224.292,88.523,243.244,88.860,261.864,87.197Z"/>
<path class="path-9" d="M218.025,33.293C262.965,33.173,280.577,39.961,295.546,54.938"/>
<path class="path-9" d="M295.546,54.938C300.204,59.263,316.831,80.895,308.180,86.884"/>
<path class="path-9" d="M308.180,86.884C304.853,88.879,298.865,84.889,295.871,83.557"/>
<path class="path-9" d="M295.871,83.557C285.558,79.231,244.203,72.424,186.089,86.848"/>
<path class="path-9" d="M186.089,86.848C175.749,89.415,166.122,91.165,156.140,93.494"/>
<path class="path-9" d="M156.140,93.494C151.815,94.491,146.495,97.149,142.502,94.826"/>
<path class="path-9" d="M142.502,94.826C133.518,89.848,143.172,66.893,147.497,60.908"/>
<path class="path-9" d="M147.497,60.908C161.802,41.612,192.778,33.361,218.025,33.293"/>
<path class="path-10" d="M218.025,33.293C262.965,33.173,280.577,39.961,295.546,54.938C300.204,59.263,316.831,80.895,308.180,86.884C304.853,88.879,298.865,84.889,295.871,83.557C285.558,79.231,244.203,72.424,186.089,86.848C175.749,89.415,166.122,91.165,156.140,93.494C151.815,94.491,146.495,97.149,142.502,94.826C133.518,89.848,143.172,66.893,147.497,60.908C161.802,41.612,192.778,33.361,218.025,33.293Z"/>
</g>
<g id="left_ear">
<path class="path-0" d="M303.159,187.119C302.045,183.274,311.739,159.004,313.359,156.770C318.297,149.964,329.925,160.384,330.946,166.875C332.050,174.985,320.304,182.956,313.666,187.745C308.823,191.130,304.585,192.039,303.159,187.119M339.285,170.862C340.936,158.211,329.946,141.443,317.608,144.265C304.567,147.247,303.332,164.615,299.347,174.947C297.691,179.601,295.025,184.253,294.369,188.906C293.058,197.220,296.419,204.510,305.722,202.492C319.019,199.465,336.975,185.168,339.285,170.862Z"/>
<path class="path-15" d="M313.359,156.770C318.297,149.964,329.925,160.384,330.946,166.875"/>
<path class="path-15" d="M330.946,166.875C332.050,174.985,320.304,182.956,313.666,187.745"/>
<path class="path-15" d="M313.666,187.745C308.823,191.130,304.585,192.039,303.159,187.119"/>
<path class="path-15" d="M303.159,187.119C302.045,183.274,311.739,159.004,313.359,156.770"/>
<path class="path-16" d="M313.359,156.770C318.297,149.964,329.925,160.384,330.946,166.875C332.050,174.985,320.304,182.956,313.666,187.745C308.823,191.130,304.585,192.039,303.159,187.119C302.045,183.274,311.739,159.004,313.359,156.770Z"/>
</g>
<g id="earrings">
<path class="path-0" d="M323.952,204.834C315.030,207.843,313.538,188.000,317.347,188.630C322.599,190.842,326.483,200.906,323.952,204.834M332.507,197.394C325.617,196.120,323.311,187.577,323.124,183.597C330.715,186.007,339.935,192.651,332.507,197.394M340.420,192.328C338.140,184.625,327.306,179.137,319.785,176.358C317.529,175.524,312.355,183.911,311.983,186.413C310.795,190.283,309.395,212.717,322.883,210.981C328.374,210.028,342.265,198.561,340.420,192.328Z"/>
<path class="path-21" d="M323.124,183.597C330.715,186.007,339.935,192.651,332.507,197.394"/>
<path class="path-21" d="M332.507,197.394C325.617,196.120,323.311,187.577,323.124,183.597"/>
<path class="path-22" d="M323.124,183.597C330.715,186.007,339.935,192.651,332.507,197.394C325.617,196.120,323.311,187.577,323.124,183.597Z"/>
<path class="path-21" d="M317.347,188.630C322.599,190.842,326.483,200.906,323.952,204.834"/>
<path class="path-21" d="M323.952,204.834C315.030,207.843,313.538,188.000,317.347,188.630"/>
<path class="path-22" d="M317.347,188.630C322.599,190.842,326.483,200.906,323.952,204.834C315.030,207.843,313.538,188.000,317.347,188.630Z"/>
</g>
</g>
<g id="jacket">
<path class="path-0" d="M202.406,270.837C204.773,275.368,200.599,285.464,200.187,290.134C196.491,307.895,190.963,325.087,192.249,342.760C192.701,347.143,194.826,356.016,191.393,359.821C189.206,362.245,182.334,360.151,180.771,362.199C178.404,365.261,172.838,356.816,171.635,354.850C170.594,353.149,169.419,346.123,169.330,344.011C169.424,339.281,170.062,330.035,171.319,324.202C172.663,318.185,174.656,312.168,177.011,305.791C178.759,299.576,180.045,291.966,181.012,284.830C182.517,280.470,184.956,278.000,184.785,274.744C184.200,270.740,183.690,268.687,187.357,267.424C191.714,266.262,201.207,265.786,202.406,270.837M263.020,274.884C264.651,272.845,282.391,263.328,284.369,261.861C294.547,255.042,303.395,263.848,304.375,270.993C305.284,277.036,298.165,297.727,297.307,302.029C296.245,306.096,294.959,309.106,295.099,312.709C294.930,329.813,298.674,318.567,303.430,332.122C304.585,335.449,306.537,342.637,306.779,346.082C306.825,350.204,305.642,359.454,303.808,362.858C302.027,365.564,297.962,369.549,294.333,366.474C293.710,366.065,289.246,359.925,288.124,359.313C281.699,355.341,272.481,357.047,267.211,350.873C263.418,345.909,261.412,338.961,259.611,332.512C257.327,324.823,257.496,316.739,257.646,308.687C257.424,299.307,257.693,283.199,263.020,274.884M276.819,255.283C273.941,257.519,267.608,259.582,265.696,260.162C260.564,261.423,259.676,256.425,259.270,252.736C258.922,248.043,261.873,241.271,265.052,237.591C267.671,234.561,272.227,231.233,276.611,230.911C281.251,230.405,289.130,234.359,288.438,239.626C288.225,242.762,281.438,251.694,276.819,255.283M200.364,239.959C205.442,247.094,211.011,254.307,206.174,255.796C201.260,257.310,198.385,257.286,189.763,255.866C178.493,254.010,173.764,238.514,178.946,232.953C183.555,228.007,194.450,231.651,200.364,239.959M306.500,378.926C313.250,368.656,319.644,361.644,320.648,348.853C321.090,342.406,319.963,334.638,316.976,328.944C311.798,319.664,305.735,318.045,301.921,306.640C298.633,297.350,302.246,289.117,301.990,279.664C301.773,276.544,295.331,261.577,295.587,258.735C295.306,254.212,299.855,250.625,300.430,246.493C301.087,242.675,301.956,238.634,301.125,234.850C300.226,229.239,294.805,226.009,290.585,223.087C284.586,219.438,279.150,218.875,272.052,219.966C262.587,221.433,257.811,230.605,254.376,237.156C249.428,246.591,250.974,261.783,249.351,272.312C248.433,278.267,247.021,286.534,246.097,292.130C242.891,309.820,244.766,351.355,257.576,364.137C259.221,366.005,272.160,373.787,276.317,376.002C282.071,379.106,282.998,383.350,288.797,385.954C291.799,387.445,298.471,384.584,302.237,382.526C303.659,381.808,305.859,379.901,306.500,378.926M208.575,233.036C203.772,226.956,195.577,216.565,187.732,217.786C182.906,218.697,175.845,221.368,172.121,224.926C169.057,227.852,165.481,233.109,165.501,237.400C165.398,243.094,166.329,249.835,168.635,254.519C170.868,259.055,178.382,262.304,179.901,267.052C180.514,269.167,177.617,279.706,177.350,282.422C176.790,290.418,174.809,298.595,172.515,305.191C170.183,311.893,164.237,319.644,162.001,326.379C159.734,333.205,157.358,342.132,157.703,349.968C157.664,353.925,160.523,362.555,163.433,367.141C165.360,370.178,169.706,374.737,171.943,375.583C173.439,376.149,188.828,379.018,193.892,374.804C200.093,369.643,199.980,361.737,198.863,348.377C197.616,335.013,205.690,323.898,208.004,310.520C209.716,299.946,215.431,275.780,215.442,266.615C215.450,260.769,217.182,256.822,215.581,248.748C214.668,244.768,211.774,237.085,208.575,233.036Z"/>
<path class="path-1" d="M284.369,261.861C294.547,255.042,303.395,263.848,304.375,270.993"/>
<path class="path-1" d="M304.375,270.993C305.284,277.036,298.165,297.727,297.307,302.029"/>
<path class="path-1" d="M297.307,302.029C296.245,306.096,294.959,309.106,295.099,312.709"/>
<path class="path-1" d="M295.099,312.709C294.930,329.813,298.674,318.567,303.430,332.122"/>
<path class="path-1" d="M303.430,332.122C304.585,335.449,306.537,342.637,306.779,346.082"/>
<path class="path-1" d="M306.779,346.082C306.825,350.204,305.642,359.454,303.808,362.858"/>
<path class="path-1" d="M303.808,362.858C302.027,365.564,297.962,369.549,294.333,366.474"/>
<path class="path-1" d="M294.333,366.474C293.710,366.065,289.246,359.925,288.124,359.313"/>
<path class="path-1" d="M288.124,359.313C281.699,355.341,272.481,357.047,267.211,350.873"/>
<path class="path-1" d="M267.211,350.873C263.418,345.909,261.412,338.961,259.611,332.512"/>
<path class="path-1" d="M259.611,332.512C257.327,324.823,257.496,316.739,257.646,308.687"/>
<path class="path-1" d="M257.646,308.687C257.424,299.307,257.693,283.199,263.020,274.884"/>
<path class="path-1" d="M263.020,274.884C264.651,272.845,282.391,263.328,284.369,261.861"/>
<path class="path-2" d="M284.369,261.861C294.547,255.042,303.395,263.848,304.375,270.993C305.284,277.036,298.165,297.727,297.307,302.029C296.245,306.096,294.959,309.106,295.099,312.709C294.930,329.813,298.674,318.567,303.430,332.122C304.585,335.449,306.537,342.637,306.779,346.082C306.825,350.204,305.642,359.454,303.808,362.858C302.027,365.564,297.962,369.549,294.333,366.474C293.710,366.065,289.246,359.925,288.124,359.313C281.699,355.341,272.481,357.047,267.211,350.873C263.418,345.909,261.412,338.961,259.611,332.512C257.327,324.823,257.496,316.739,257.646,308.687C257.424,299.307,257.693,283.199,263.020,274.884C264.651,272.845,282.391,263.328,284.369,261.861Z"/>
<path class="path-1" d="M187.357,267.424C191.714,266.262,201.207,265.786,202.406,270.837"/>
<path class="path-1" d="M202.406,270.837C204.773,275.368,200.599,285.464,200.187,290.134"/>
<path class="path-1" d="M200.187,290.134C196.491,307.895,190.963,325.087,192.249,342.760"/>
<path class="path-1" d="M192.249,342.760C192.701,347.143,194.826,356.016,191.393,359.821"/>
<path class="path-1" d="M191.393,359.821C189.206,362.245,182.334,360.151,180.771,362.199"/>
<path class="path-1" d="M180.771,362.199C178.404,365.261,172.838,356.816,171.635,354.850"/>
<path class="path-1" d="M171.635,354.850C170.594,353.149,169.419,346.123,169.330,344.011"/>
<path class="path-1" d="M169.330,344.011C169.424,339.281,170.062,330.035,171.319,324.202"/>
<path class="path-1" d="M171.319,324.202C172.663,318.185,174.656,312.168,177.011,305.791"/>
<path class="path-1" d="M177.011,305.791C178.759,299.576,180.045,291.966,181.012,284.830"/>
<path class="path-1" d="M181.012,284.830C182.517,280.470,184.956,278.000,184.785,274.744"/>
<path class="path-1" d="M184.785,274.744C184.200,270.740,183.690,268.687,187.357,267.424"/>
<path class="path-2" d="M187.357,267.424C191.714,266.262,201.207,265.786,202.406,270.837C204.773,275.368,200.599,285.464,200.187,290.134C196.491,307.895,190.963,325.087,192.249,342.760C192.701,347.143,194.826,356.016,191.393,359.821C189.206,362.245,182.334,360.151,180.771,362.199C178.404,365.261,172.838,356.816,171.635,354.850C170.594,353.149,169.419,346.123,169.330,344.011C169.424,339.281,170.062,330.035,171.319,324.202C172.663,318.185,174.656,312.168,177.011,305.791C178.759,299.576,180.045,291.966,181.012,284.830C182.517,280.470,184.956,278.000,184.785,274.744C184.200,270.740,183.690,268.687,187.357,267.424Z"/>
<path class="path-1" d="M276.611,230.911C281.251,230.405,289.130,234.359,288.438,239.626"/>
<path class="path-1" d="M288.438,239.626C288.225,242.762,281.438,251.694,276.819,255.283"/>
<path class="path-1" d="M276.819,255.283C273.941,257.519,267.608,259.582,265.696,260.162"/>
<path class="path-1" d="M265.696,260.162C260.564,261.423,259.676,256.425,259.270,252.736"/>
<path class="path-1" d="M259.270,252.736C258.922,248.043,261.873,241.271,265.052,237.591"/>
<path class="path-1" d="M265.052,237.591C267.671,234.561,272.227,231.233,276.611,230.911"/>
<path class="path-2" d="M276.611,230.911C281.251,230.405,289.130,234.359,288.438,239.626C288.225,242.762,281.438,251.694,276.819,255.283C273.941,257.519,267.608,259.582,265.696,260.162C260.564,261.423,259.676,256.425,259.270,252.736C258.922,248.043,261.873,241.271,265.052,237.591C267.671,234.561,272.227,231.233,276.611,230.911Z"/>
<path class="path-1" d="M200.364,239.959C205.442,247.094,211.011,254.307,206.174,255.796"/>
<path class="path-1" d="M206.174,255.796C201.260,257.310,198.385,257.286,189.763,255.866"/>
<path class="path-1" d="M189.763,255.866C178.493,254.010,173.764,238.514,178.946,232.953"/>
<path class="path-1" d="M178.946,232.953C183.555,228.007,194.450,231.651,200.364,239.959"/>
<path class="path-2" d="M200.364,239.959C205.442,247.094,211.011,254.307,206.174,255.796C201.260,257.310,198.385,257.286,189.763,255.866C178.493,254.010,173.764,238.514,178.946,232.953C183.555,228.007,194.450,231.651,200.364,239.959Z"/>
</g>
<g id="left_arm">
<path class="path-0" d="M290.902,459.809C287.575,454.485,286.245,445.502,293.897,443.175C299.221,441.510,323.174,446.834,327.167,450.826C334.153,457.148,330.161,471.786,321.510,475.113C311.529,478.439,296.226,468.127,290.902,459.809M279.516,276.423C280.393,273.226,288.864,263.064,293.897,264.184C296.819,264.834,298.222,269.839,299.220,272.502C301.881,280.818,304.543,289.469,306.872,298.119C313.194,320.741,317.518,343.366,322.177,365.988C323.839,375.305,323.839,387.613,327.167,395.931C331.159,405.579,337.479,402.253,340.474,408.573C341.805,411.567,341.140,417.224,343.136,421.881C346.130,429.201,351.785,433.194,354.446,437.851C356.111,440.512,356.776,443.506,353.117,444.173C351.121,445.171,345.797,444.173,343.801,444.173C337.144,442.402,330.490,440.627,323.840,438.849C314.857,436.852,287.575,435.521,282.918,429.533C275.931,420.218,286.910,409.240,288.242,399.924C288.907,396.930,292.189,352.967,291.567,350.019C290.899,343.164,287.387,337.131,285.841,330.057C284.214,320.430,282.539,310.147,281.179,300.115C280.223,291.877,276.733,285.067,279.516,276.423M305.541,254.536C303.213,249.877,295.893,241.561,289.904,242.890C284.914,244.222,284.249,250.210,283.582,254.203C281.920,264.184,279.924,272.502,279.924,282.149C279.590,289.136,280.257,295.458,280.921,302.111C281.586,311.427,279.590,329.392,279.924,340.038C279.924,349.686,282.253,359.667,281.586,367.985C279.590,387.613,271.273,406.246,271.938,425.874C271.939,435.855,274.600,435.855,276.929,443.840C278.592,449.828,277.263,456.150,279.590,461.805C285.579,476.776,302.880,490.416,319.847,487.091C335.483,484.096,336.150,467.129,344.466,458.146C351.786,450.161,366.424,454.154,368.420,445.835C370.416,438.849,360.769,431.198,357.110,425.874C349.790,415.893,355.445,413.563,351.786,405.912C349.125,400.257,341.471,395.267,337.813,387.947C335.816,384.619,334.819,378.299,333.487,373.973C330.826,363.992,327.831,352.680,326.169,342.034C324.504,329.724,324.173,318.745,320.845,306.103C318.184,295.458,310.200,262.852,305.541,254.536Z"/>
<path class="path-1" d="M293.897,264.184C296.819,264.834,298.222,269.839,299.220,272.502"/>
<path class="path-1" d="M299.220,272.502C301.881,280.818,304.543,289.469,306.872,298.119"/>
<path class="path-1" d="M306.872,298.119C313.194,320.741,317.518,343.366,322.177,365.988"/>
<path class="path-1" d="M322.177,365.988C323.839,375.305,323.839,387.613,327.167,395.931"/>
<path class="path-1" d="M327.167,395.931C331.159,405.579,337.479,402.253,340.474,408.573"/>
<path class="path-1" d="M340.474,408.573C341.805,411.567,341.140,417.224,343.136,421.881"/>
<path class="path-1" d="M343.136,421.881C346.130,429.201,351.785,433.194,354.446,437.851"/>
<path class="path-1" d="M354.446,437.851C356.111,440.512,356.776,443.506,353.117,444.173"/>
<path class="path-1" d="M353.117,444.173C351.121,445.171,345.797,444.173,343.801,444.173"/>
<path class="path-1" d="M343.801,444.173C337.144,442.402,330.490,440.627,323.840,438.849"/>
<path class="path-1" d="M323.840,438.849C314.857,436.852,287.575,435.521,282.918,429.533"/>
<path class="path-1" d="M282.918,429.533C275.931,420.218,286.910,409.240,288.242,399.924"/>
<path class="path-1" d="M288.242,399.924C288.907,396.930,292.189,352.967,291.567,350.019"/>
<path class="path-1" d="M291.567,350.019C290.899,343.164,287.387,337.131,285.841,330.057"/>
<path class="path-1" d="M285.841,330.057C284.214,320.430,282.539,310.147,281.179,300.115"/>
<path class="path-1" d="M281.179,300.115C280.223,291.877,276.733,285.067,279.516,276.423"/>
<path class="path-1" d="M279.516,276.423C280.393,273.226,288.864,263.064,293.897,264.184"/>
<path class="path-2" d="M293.897,264.184C296.819,264.834,298.222,269.839,299.220,272.502C301.881,280.818,304.543,289.469,306.872,298.119C313.194,320.741,317.518,343.366,322.177,365.988C323.839,375.305,323.839,387.613,327.167,395.931C331.159,405.579,337.479,402.253,340.474,408.573C341.805,411.567,341.140,417.224,343.136,421.881C346.130,429.201,351.785,433.194,354.446,437.851C356.111,440.512,356.776,443.506,353.117,444.173C351.121,445.171,345.797,444.173,343.801,444.173C337.144,442.402,330.490,440.627,323.840,438.849C314.857,436.852,287.575,435.521,282.918,429.533C275.931,420.218,286.910,409.240,288.242,399.924C288.907,396.930,292.189,352.967,291.567,350.019C290.899,343.164,287.387,337.131,285.841,330.057C284.214,320.430,282.539,310.147,281.179,300.115C280.223,291.877,276.733,285.067,279.516,276.423C280.393,273.226,288.864,263.064,293.897,264.184Z"/>
<path class="path-15" d="M293.897,443.175C299.221,441.510,323.174,446.834,327.167,450.826"/>
<path class="path-15" d="M327.167,450.826C334.153,457.148,330.161,471.786,321.510,475.113"/>
<path class="path-15" d="M321.510,475.113C311.529,478.439,296.226,468.127,290.902,459.809"/>
<path class="path-15" d="M290.902,459.809C287.575,454.485,286.245,445.502,293.897,443.175"/>
<path class="path-16" d="M293.897,443.175C299.221,441.510,323.174,446.834,327.167,450.826C334.153,457.148,330.161,471.786,321.510,475.113C311.529,478.439,296.226,468.127,290.902,459.809C287.575,454.485,286.245,445.502,293.897,443.175Z"/>
</g>
<g id="bone">
<g id="bone1_clothes">
<path class="path-23" d="M251.450,389.204C251.451,389.198,262.648,331.282,262.649,331.276C262.649,331.282,262.531,390.271,262.531,390.276C262.530,390.276,251.451,389.204,251.450,389.204"/>
</g>
<g id="bone2_clothes">
<path class="path-23" d="M232.640,327.795C232.640,327.788,231.567,255.269,231.567,255.262C231.569,255.269,246.325,326.278,246.327,326.285C246.325,326.285,232.642,327.795,232.640,327.795"/>
</g>
<g id="bone3_neck">
<path class="path-23" d="M237.732,253.635C237.731,253.631,231.165,212.451,231.164,212.447C231.164,212.451,231.155,254.151,231.155,254.156C231.156,254.156,237.731,253.635,237.732,253.635"/>
</g>
<g id="bone4_head">
<path class="path-23" d="M230.405,212.707C230.405,212.699,231.813,134.648,231.813,134.640C231.814,134.648,242.845,211.928,242.846,211.936C242.845,211.936,230.406,212.707,230.405,212.707"/>
</g>
<g id="bone5_left_arm">
<path class="path-23" d="M298.163,255.461C298.165,255.470,320.627,345.167,320.630,345.176C320.626,345.168,283.247,260.593,283.243,260.585C283.245,260.584,298.161,255.462,298.163,255.461"/>
</g>
<g id="bone6_left_arm">
<path class="path-23" d="M300.881,349.128C300.882,349.134,307.164,412.560,307.165,412.567C307.165,412.560,311.321,348.959,311.321,348.953C311.320,348.953,300.882,349.128,300.881,349.128"/>
</g>
<g id="bone7_right_arm">
<path class="path-23" d="M169.131,269.641C169.129,269.653,149.258,383.430,149.256,383.441C149.259,383.430,186.833,274.214,186.837,274.203C186.835,274.203,169.133,269.642,169.131,269.641"/>
</g>
<g id="bone8_right_arm">
<path class="path-23" d="M157.157,379.808C157.160,379.814,181.052,434.331,181.054,434.336C181.051,434.331,146.694,385.725,146.691,385.720C146.692,385.720,157.156,379.809,157.157,379.808"/>
</g>
<g id="bone9_left_leg">
<path class="path-23" d="M271.789,384.203C271.791,384.213,294.222,483.460,294.224,483.470C294.220,483.460,254.327,389.858,254.323,389.848C254.325,389.848,271.787,384.204,271.789,384.203"/>
</g>
<g id="bone10_right_leg">
<path class="path-23" d="M209.638,384.453C209.637,384.463,195.808,487.250,195.806,487.260C195.809,487.250,224.806,387.673,224.809,387.663C224.808,387.663,209.640,384.453,209.638,384.453"/>
</g>
<g id="bone11_hair">
<path class="path-23" d="M234.542,156.902C234.543,156.910,243.631,236.577,243.632,236.585C243.630,236.577,220.115,159.919,220.113,159.911C220.114,159.911,234.541,156.902,234.542,156.902"/>
</g>
<g id="bone12_left_leg_S">
<path class="path-23" d="M434.341,221.992C434.348,221.994,504.942,237.810,504.949,237.811C504.942,237.809,437.906,210.609,437.899,210.606C437.899,210.608,434.341,221.991,434.341,221.992"/>
</g>
<g id="bone13_right_leg_S">
<path class="path-23" d="M495.625,210.762C495.617,210.764,424.482,223.932,424.475,223.933C424.482,223.933,496.814,222.632,496.822,222.631C496.822,222.630,495.625,210.764,495.625,210.762"/>
</g>
<g id="bone14_left_arm_S">
<path class="path-23" d="M557.459,215.989C557.458,215.981,551.495,143.884,551.494,143.876C551.494,143.884,545.530,215.981,545.530,215.989C545.531,215.989,557.458,215.989,557.459,215.989"/>
</g>
<g id="bone15_jacket_S">
<path class="path-23" d="M601.825,220.726C601.832,220.728,670.972,242.017,670.979,242.019C670.973,242.016,606.270,209.656,606.263,209.653C606.263,209.654,601.825,220.724,601.825,220.726"/>
</g>
<g id="bone16_pupils_S">
<path class="path-23" d="M442.221,337.675C442.220,337.668,440.191,265.352,440.190,265.345C440.189,265.352,430.310,337.019,430.309,337.026C430.310,337.026,442.219,337.675,442.221,337.675"/>
</g>
<g id="bone17_eyelids_S">
<path class="path-23" d="M500.565,333.149C500.559,333.145,444.556,287.349,444.550,287.344C444.555,287.350,492.273,341.725,492.278,341.730C492.279,341.729,500.564,333.150,500.565,333.149"/>
</g>
<g id="bone18_face_S">
<path class="path-23" d="M557.973,339.372C557.973,339.365,554.365,267.111,554.364,267.104C554.364,267.111,546.051,338.976,546.050,338.983C546.051,338.983,557.972,339.372,557.973,339.372"/>
</g>
</g>
</g>
<style>
.path-0{fill:#000000;fill-rule:evenodd;stroke:none;}
.path-1{fill:none;stroke:#a60d3f;stroke-width:1;stroke-linecap:butt;stroke-linejoin:round;}
.path-2{fill:#a60d3f;fill-rule:evenodd;stroke:none;}
.path-3{fill:none;stroke:#d88e4b;stroke-width:1;stroke-linecap:butt;stroke-linejoin:round;}
.path-4{fill:#d88e4b;fill-rule:evenodd;stroke:none;}
.path-5{fill:none;stroke:#6e2353;stroke-width:1;stroke-linecap:butt;stroke-linejoin:round;}
.path-6{fill:#6e2353;fill-rule:evenodd;stroke:none;}
.path-7{fill:none;stroke:#392966;stroke-width:1;stroke-linecap:butt;stroke-linejoin:round;}
.path-8{fill:#392966;fill-rule:evenodd;stroke:none;}
.path-9{fill:none;stroke:#cc9bc5;stroke-width:1;stroke-linecap:butt;stroke-linejoin:round;}
.path-10{fill:#cc9bc5;fill-rule:evenodd;stroke:none;}
.path-11{fill:none;stroke:#620527;stroke-width:1;stroke-linecap:butt;stroke-linejoin:round;}
.path-12{fill:#620527;fill-rule:evenodd;stroke:none;}
.path-13{fill:none;stroke:#6a3661;stroke-width:1;stroke-linecap:butt;stroke-linejoin:round;}
.path-14{fill:#6a3661;fill-rule:evenodd;stroke:none;}
.path-15{fill:none;stroke:#f8a087;stroke-width:1;stroke-linecap:butt;stroke-linejoin:round;}
.path-16{fill:#f8a087;fill-rule:evenodd;stroke:none;}
.path-17{fill:none;stroke:#ffffff;stroke-width:1;stroke-linecap:butt;stroke-linejoin:round;}
.path-18{fill:#ffffff;fill-rule:evenodd;stroke:none;}
.path-19{fill:none;stroke:#d89f4a;stroke-width:1;stroke-linecap:butt;stroke-linejoin:round;}
.path-20{fill:#d89f4a;fill-rule:evenodd;stroke:none;}
.path-21{fill:none;stroke:#fafd5b;stroke-width:1;stroke-linecap:butt;stroke-linejoin:round;}
.path-22{fill:#fafd5b;fill-rule:evenodd;stroke:none;}
.path-23{fill:none;stroke:#00ff42;stroke-width:8;stroke-linecap:round;stroke-linejoin:round;}
.path-24{fill:none;stroke:#000000;stroke-width:1;stroke-linecap:butt;stroke-linejoin:round;}
.path-25{fill:none;stroke:#ececec;stroke-width:1;stroke-linecap:butt;stroke-linejoin:round;}
.path-26{fill:#ececec;fill-rule:evenodd;stroke:none;}
.path-27{fill:none;stroke:#808080;stroke-width:1;stroke-linecap:butt;stroke-linejoin:round;}
.path-28{fill:#808080;fill-rule:evenodd;stroke:none;}
.path-29{fill:none;stroke:#282828;stroke-width:1;stroke-linecap:butt;stroke-linejoin:round;}
.path-30{fill:#282828;fill-rule:evenodd;stroke:none;}
.path-31{fill:none;stroke:#bdbdbd;stroke-width:1;stroke-linecap:butt;stroke-linejoin:round;}
.path-32{fill:#bdbdbd;fill-rule:evenodd;stroke:none;}
</style>
</svg>
