<svg version="1.1" id="Frame_151" xmlns="http://www.w3.org/2000/svg" xmlns:xlink="http://www.w3.org/1999/xlink" width="480px" height="720px">
<g id="main_bone">
<g id="right_arm">
<path class="path-0" d="M174.126,270.172C175.458,267.511,178.075,262.017,181.778,260.525C188.182,257.943,193.652,263.933,194.431,268.509C196.093,276.447,190.936,287.396,188.470,295.289C182.390,314.329,175.637,333.084,171.132,352.015C170.600,355.317,165.808,376.634,165.808,373.973C165.476,380.626,172.130,386.283,174.459,391.939C177.454,399.590,174.791,406.910,172.795,413.897C168.138,428.535,168.471,433.858,167.804,448.165C167.804,450.492,167.473,458.146,163.812,458.146C160.487,458.146,160.153,452.157,159.488,449.828C159.155,447.167,156.825,441.510,157.492,439.182C157.823,435.190,162.483,436.188,157.492,427.870C151.170,417.555,139.526,409.240,136.532,395.931C134.536,385.285,140.191,375.969,143.186,365.988C149.508,344.695,156.494,323.404,163.812,302.111C167.805,291.132,168.802,281.484,174.126,270.172M193.754,262.188C193.755,253.538,190.761,245.885,180.115,249.546C163.481,255.200,158.822,281.484,154.165,296.122C147.512,316.084,141.855,336.046,136.199,356.007C133.870,364.657,130.544,368.982,129.212,373.973C127.549,379.628,127.881,388.280,128.214,393.935C128.214,411.567,133.869,412.234,140.856,425.874C144.517,433.859,140.525,438.849,142.852,445.835C144.517,450.492,148.176,453.820,150.837,457.813C153.166,461.805,153.499,464.135,155.162,467.793C157.158,472.119,163.481,481.767,169.136,479.771C173.793,478.108,173.793,469.790,174.126,465.797C174.459,459.809,178.119,436.853,179.450,429.866C181.778,418.554,187.435,406.245,185.770,393.935C184.440,384.619,176.122,377.965,176.456,367.985C176.787,362.661,180.115,354.011,181.113,348.023C182.776,338.375,182.776,328.061,184.772,318.081C188.099,300.448,194.421,280.487,193.754,262.188Z"/>
<path class="path-1" d="M181.778,260.525C188.182,257.943,193.652,263.933,194.431,268.509"/>
<path class="path-1" d="M194.431,268.509C196.093,276.447,190.936,287.396,188.470,295.289"/>
<path class="path-1" d="M188.470,295.289C182.390,314.329,175.637,333.084,171.132,352.015"/>
<path class="path-1" d="M171.132,352.015C170.600,355.317,165.808,376.634,165.808,373.973"/>
<path class="path-1" d="M165.808,373.973C165.476,380.626,172.130,386.283,174.459,391.939"/>
<path class="path-1" d="M174.459,391.939C177.454,399.590,174.791,406.910,172.795,413.897"/>
<path class="path-1" d="M172.795,413.897C168.138,428.535,168.471,433.858,167.804,448.165"/>
<path class="path-1" d="M167.804,448.165C167.804,450.492,167.473,458.146,163.812,458.146"/>
<path class="path-1" d="M163.812,458.146C160.487,458.146,160.153,452.157,159.488,449.828"/>
<path class="path-1" d="M159.488,449.828C159.155,447.167,156.825,441.510,157.492,439.182"/>
<path class="path-1" d="M157.492,439.182C157.823,435.190,162.483,436.188,157.492,427.870"/>
<path class="path-1" d="M157.492,427.870C151.170,417.555,139.526,409.240,136.532,395.931"/>
<path class="path-1" d="M136.532,395.931C134.536,385.285,140.191,375.969,143.186,365.988"/>
<path class="path-1" d="M143.186,365.988C149.508,344.695,156.494,323.404,163.812,302.111"/>
<path class="path-1" d="M163.812,302.111C167.805,291.132,168.802,281.484,174.126,270.172"/>
<path class="path-1" d="M174.126,270.172C175.458,267.511,178.075,262.017,181.778,260.525"/>
<path class="path-2" d="M181.778,260.525C188.182,257.943,193.652,263.933,194.431,268.509C196.093,276.447,190.936,287.396,188.470,295.289C182.390,314.329,175.637,333.084,171.132,352.015C170.600,355.317,165.808,376.634,165.808,373.973C165.476,380.626,172.130,386.283,174.459,391.939C177.454,399.590,174.791,406.910,172.795,413.897C168.138,428.535,168.471,433.858,167.804,448.165C167.804,450.492,167.473,458.146,163.812,458.146C160.487,458.146,160.153,452.157,159.488,449.828C159.155,447.167,156.825,441.510,157.492,439.182C157.823,435.190,162.483,436.188,157.492,427.870C151.170,417.555,139.526,409.240,136.532,395.931C134.536,385.285,140.191,375.969,143.186,365.988C149.508,344.695,156.494,323.404,163.812,302.111C167.805,291.132,168.802,281.484,174.126,270.172C175.458,267.511,178.075,262.017,181.778,260.525Z"/>
</g>
<g id="layer_right_leg">
<g id="right_heel">
<path class="path-0" d="M182.779,627.236C183.751,610.604,184.767,597.625,205.074,594.713C214.067,593.259,231.181,596.174,236.112,604.877C238.725,609.233,237.892,615.618,238.145,620.267C238.626,627.873,243.337,642.511,232.628,644.349C231.937,644.537,212.857,645.000,206.902,645.194C199.552,646.120,191.873,646.760,186.542,641.674C183.637,638.291,182.463,631.277,182.779,627.236M245.694,603.136C241.754,592.635,227.400,586.580,217.239,588.036C203.915,589.779,190.287,585.438,181.620,597.909C174.733,607.816,174.039,626.034,176.118,637.583C176.888,642.823,180.165,652.391,184.517,655.296C187.700,657.324,192.622,656.747,196.387,656.747C214.663,657.039,247.201,663.110,246.856,635.841C246.688,628.597,247.823,608.869,245.694,603.136Z"/>
<path class="path-3" d="M205.074,594.713C214.067,593.259,231.181,596.174,236.112,604.877"/>
<path class="path-3" d="M236.112,604.877C238.725,609.233,237.892,615.618,238.145,620.267"/>
<path class="path-3" d="M238.145,620.267C238.626,627.873,243.337,642.511,232.628,644.349"/>
<path class="path-3" d="M232.628,644.349C231.937,644.537,212.857,645.000,206.902,645.194"/>
<path class="path-3" d="M206.902,645.194C199.552,646.120,191.873,646.760,186.542,641.674"/>
<path class="path-3" d="M186.542,641.674C183.637,638.291,182.463,631.277,182.779,627.236"/>
<path class="path-3" d="M182.779,627.236C183.751,610.604,184.767,597.625,205.074,594.713"/>
<path class="path-4" d="M205.074,594.713C214.067,593.259,231.181,596.174,236.112,604.877C238.725,609.233,237.892,615.618,238.145,620.267C238.626,627.873,243.337,642.511,232.628,644.349C231.937,644.537,212.857,645.000,206.902,645.194C199.552,646.120,191.873,646.760,186.542,641.674C183.637,638.291,182.463,631.277,182.779,627.236C183.751,610.604,184.767,597.625,205.074,594.713Z"/>
</g>
<g id="right_leg">
<path class="path-0" d="M182.775,404.914C186.476,392.993,202.193,390.133,212.762,393.052C218.591,394.535,228.482,397.281,231.547,402.848C232.670,404.887,233.015,408.654,231.745,410.605C229.258,414.425,215.305,410.746,217.194,414.979C220.639,423.085,232.048,414.419,236.085,418.538C237.865,420.355,237.956,423.805,238.292,426.726C242.014,448.960,235.032,472.546,235.330,494.415C235.356,501.660,234.309,512.357,235.616,518.943C238.130,534.271,235.653,537.529,235.976,546.744C235.879,550.263,234.322,568.126,235.536,572.691C237.052,577.969,241.149,582.967,241.520,588.473C242.113,597.288,228.103,607.881,220.072,609.845C210.686,611.943,182.438,608.904,173.806,604.108C170.642,602.469,166.519,598.744,165.324,595.116C163.974,591.651,163.552,575.404,164.837,571.576C167.325,564.996,169.994,563.727,172.315,555.824C174.726,546.454,176.461,536.236,176.320,526.335C175.671,508.321,177.672,477.935,180.115,464.639C181.260,457.418,179.821,433.013,180.901,426.320C182.859,414.833,180.931,412.597,182.775,404.914M208.062,381.294C202.406,379.297,198.071,373.944,192.092,375.969C190.201,376.790,186.899,379.150,185.558,380.514C169.603,394.279,170.816,408.087,170.765,427.653C170.453,434.681,170.570,442.000,169.804,448.717C169.059,454.260,167.047,458.750,165.579,463.801C164.651,467.990,163.826,472.481,163.473,477.774C163.270,482.629,164.426,488.359,164.363,496.611C163.590,506.311,164.035,515.490,163.492,524.775C163.324,531.473,160.028,546.964,159.148,552.068C156.943,559.042,154.304,567.260,152.502,573.932C150.591,583.061,150.604,592.847,153.775,601.102C155.145,605.319,157.863,610.427,161.036,613.131C163.250,615.018,166.329,615.818,168.976,616.637C177.822,619.323,186.066,620.913,195.394,621.145C201.415,621.340,207.380,619.366,213.596,620.155C214.632,620.127,222.813,622.800,224.472,622.998C227.648,623.192,232.106,620.177,235.012,618.482C239.000,615.858,246.418,615.493,249.295,611.518C251.359,608.661,250.947,604.662,251.844,601.250C256.870,580.975,253.466,570.535,251.105,552.441C249.782,542.302,247.401,521.476,247.418,510.152C247.156,496.332,249.184,482.905,249.916,468.674C250.222,464.400,250.645,459.273,251.474,454.458C252.252,449.415,251.425,445.295,251.298,440.271C250.971,436.404,251.227,424.031,250.646,419.885C250.274,416.185,250.314,411.567,248.983,407.908C245.324,398.592,231.351,388.280,222.034,385.285C217.377,383.621,212.387,383.290,208.062,381.294Z"/>
<path class="path-7" d="M212.762,393.052C218.591,394.535,228.482,397.281,231.547,402.848"/>
<path class="path-7" d="M231.547,402.848C232.670,404.887,233.015,408.654,231.745,410.605"/>
<path class="path-7" d="M231.745,410.605C229.258,414.425,215.305,410.746,217.194,414.979"/>
<path class="path-7" d="M217.194,414.979C220.639,423.085,232.048,414.419,236.085,418.538"/>
<path class="path-7" d="M236.085,418.538C237.865,420.355,237.956,423.805,238.292,426.726"/>
<path class="path-7" d="M238.292,426.726C242.014,448.960,235.032,472.546,235.330,494.415"/>
<path class="path-7" d="M235.330,494.415C235.356,501.660,234.309,512.357,235.616,518.943"/>
<path class="path-7" d="M235.616,518.943C238.130,534.271,235.653,537.529,235.976,546.744"/>
<path class="path-7" d="M235.976,546.744C235.879,550.263,234.322,568.126,235.536,572.691"/>
<path class="path-7" d="M235.536,572.691C237.052,577.969,241.149,582.967,241.520,588.473"/>
<path class="path-7" d="M241.520,588.473C242.113,597.288,228.103,607.881,220.072,609.845"/>
<path class="path-7" d="M220.072,609.845C210.686,611.943,182.438,608.904,173.806,604.108"/>
<path class="path-7" d="M173.806,604.108C170.642,602.469,166.519,598.744,165.324,595.116"/>
<path class="path-7" d="M165.324,595.116C163.974,591.651,163.552,575.404,164.837,571.576"/>
<path class="path-7" d="M164.837,571.576C167.325,564.996,169.994,563.727,172.315,555.824"/>
<path class="path-7" d="M172.315,555.824C174.726,546.454,176.461,536.236,176.320,526.335"/>
<path class="path-7" d="M176.320,526.335C175.671,508.321,177.672,477.935,180.115,464.639"/>
<path class="path-7" d="M180.115,464.639C181.260,457.418,179.821,433.013,180.901,426.320"/>
<path class="path-7" d="M180.901,426.320C182.859,414.833,180.931,412.597,182.775,404.914"/>
<path class="path-7" d="M182.775,404.914C186.476,392.993,202.193,390.133,212.762,393.052"/>
<path class="path-8" d="M212.762,393.052C218.591,394.535,228.482,397.281,231.547,402.848C232.670,404.887,233.015,408.654,231.745,410.605C229.258,414.425,215.305,410.746,217.194,414.979C220.639,423.085,232.048,414.419,236.085,418.538C237.865,420.355,237.956,423.805,238.292,426.726C242.014,448.960,235.032,472.546,235.330,494.415C235.356,501.660,234.309,512.357,235.616,518.943C238.130,534.271,235.653,537.529,235.976,546.744C235.879,550.263,234.322,568.126,235.536,572.691C237.052,577.969,241.149,582.967,241.520,588.473C242.113,597.288,228.103,607.881,220.072,609.845C210.686,611.943,182.438,608.904,173.806,604.108C170.642,602.469,166.519,598.744,165.324,595.116C163.974,591.651,163.552,575.404,164.837,571.576C167.325,564.996,169.994,563.727,172.315,555.824C174.726,546.454,176.461,536.236,176.320,526.335C175.671,508.321,177.672,477.935,180.115,464.639C181.260,457.418,179.821,433.013,180.901,426.320C182.859,414.833,180.931,412.597,182.775,404.914C186.476,392.993,202.193,390.133,212.762,393.052Z"/>
</g>
<g id="right_toe">
<path class="path-0" d="M163.346,645.494C164.771,631.497,170.106,613.411,187.130,610.875C191.057,610.081,196.611,611.885,200.974,612.789C223.173,617.328,231.516,622.646,232.123,645.494C232.162,651.786,233.151,659.581,228.470,664.650C223.848,669.566,201.942,667.090,195.252,667.388C183.483,668.169,173.341,673.612,165.231,663.324C160.278,656.904,162.588,653.040,163.346,645.494M240.946,621.480C233.674,606.924,199.853,598.113,184.625,600.974C161.856,605.383,154.867,623.492,153.374,642.840C152.796,649.678,151.774,657.185,155.128,663.266C156.370,665.516,159.027,668.527,160.874,670.326C174.361,684.602,184.296,682.750,202.610,682.681C212.262,682.806,228.357,682.156,236.126,675.713C242.052,670.315,242.559,664.375,242.821,656.826C242.814,649.541,243.914,626.877,240.946,621.480Z"/>
<path class="path-3" d="M187.130,610.875C191.057,610.081,196.611,611.885,200.974,612.789"/>
<path class="path-3" d="M200.974,612.789C223.173,617.328,231.516,622.646,232.123,645.494"/>
<path class="path-3" d="M232.123,645.494C232.162,651.786,233.151,659.581,228.470,664.650"/>
<path class="path-3" d="M228.470,664.650C223.848,669.566,201.942,667.090,195.252,667.388"/>
<path class="path-3" d="M195.252,667.388C183.483,668.169,173.341,673.612,165.231,663.324"/>
<path class="path-3" d="M165.231,663.324C160.278,656.904,162.588,653.040,163.346,645.494"/>
<path class="path-3" d="M163.346,645.494C164.771,631.497,170.106,613.411,187.130,610.875"/>
<path class="path-4" d="M187.130,610.875C191.057,610.081,196.611,611.885,200.974,612.789C223.173,617.328,231.516,622.646,232.123,645.494C232.162,651.786,233.151,659.581,228.470,664.650C223.848,669.566,201.942,667.090,195.252,667.388C183.483,668.169,173.341,673.612,165.231,663.324C160.278,656.904,162.588,653.040,163.346,645.494C164.771,631.497,170.106,613.411,187.130,610.875Z"/>
</g>
<g id="right_sole">
<path class="path-0" d="M183.391,678.706C184.995,678.994,200.698,678.573,202.516,678.578C203.944,678.602,212.386,678.924,213.607,678.867C214.374,678.848,221.945,678.550,222.520,678.997C221.913,678.621,213.874,680.020,213.402,680.038C212.437,680.103,185.661,679.914,185.340,680.028C184.174,680.049,172.884,679.092,172.051,678.171C173.290,677.611,181.573,678.377,183.391,678.706M224.170,673.517C224.247,673.822,222.605,675.820,222.138,675.840C221.267,675.881,207.624,677.413,206.480,677.144C205.161,677.072,195.994,677.337,194.804,677.321C192.499,677.291,174.167,677.485,172.212,676.289C171.891,676.007,170.937,674.233,171.006,674.001C171.092,673.714,178.307,673.417,179.440,673.355C181.245,673.255,195.771,673.397,197.624,673.395C199.605,673.393,215.024,673.474,217.053,673.311C217.369,673.293,223.994,672.813,224.170,673.517M229.865,668.110C218.287,664.698,209.278,669.271,198.524,669.621C190.796,669.909,175.931,668.170,166.554,670.191C164.994,670.527,162.014,670.425,161.571,672.053C161.040,674.025,164.750,678.234,167.143,679.811C170.127,681.778,176.351,681.806,178.819,682.181C191.236,684.531,207.069,683.440,219.799,682.813C229.136,682.358,231.408,678.618,232.406,674.137C232.833,672.221,233.586,669.154,229.865,668.110Z"/>
<path class="path-24" d="M183.391,678.706C184.995,678.994,200.698,678.573,202.516,678.578"/>
<path class="path-24" d="M202.516,678.578C203.944,678.602,212.386,678.924,213.607,678.867"/>
<path class="path-24" d="M213.607,678.867C214.374,678.848,221.945,678.550,222.520,678.997"/>
<path class="path-24" d="M222.520,678.997C221.913,678.621,213.874,680.020,213.402,680.038"/>
<path class="path-24" d="M213.402,680.038C212.437,680.103,185.661,679.914,185.340,680.028"/>
<path class="path-24" d="M185.340,680.028C184.174,680.049,172.884,679.092,172.051,678.171"/>
<path class="path-24" d="M172.051,678.171C173.290,677.611,181.573,678.377,183.391,678.706"/>
<path class="path-0" d="M183.391,678.706C184.995,678.994,200.698,678.573,202.516,678.578C203.944,678.602,212.386,678.924,213.607,678.867C214.374,678.848,221.945,678.550,222.520,678.997C221.913,678.621,213.874,680.020,213.402,680.038C212.437,680.103,185.661,679.914,185.340,680.028C184.174,680.049,172.884,679.092,172.051,678.171C173.290,677.611,181.573,678.377,183.391,678.706Z"/>
<path class="path-5" d="M179.440,673.355C181.245,673.255,195.771,673.397,197.624,673.395"/>
<path class="path-5" d="M197.624,673.395C199.605,673.393,215.024,673.474,217.053,673.311"/>
<path class="path-5" d="M217.053,673.311C217.369,673.293,223.994,672.813,224.170,673.517"/>
<path class="path-5" d="M224.170,673.517C224.247,673.822,222.605,675.820,222.138,675.840"/>
<path class="path-5" d="M222.138,675.840C221.267,675.881,207.624,677.413,206.480,677.144"/>
<path class="path-5" d="M206.480,677.144C205.161,677.072,195.994,677.337,194.804,677.321"/>
<path class="path-5" d="M194.804,677.321C192.499,677.291,174.167,677.485,172.212,676.289"/>
<path class="path-5" d="M172.212,676.289C171.891,676.007,170.937,674.233,171.006,674.001"/>
<path class="path-5" d="M171.006,674.001C171.092,673.714,178.307,673.417,179.440,673.355"/>
<path class="path-6" d="M179.440,673.355C181.245,673.255,195.771,673.397,197.624,673.395C199.605,673.393,215.024,673.474,217.053,673.311C217.369,673.293,223.994,672.813,224.170,673.517C224.247,673.822,222.605,675.820,222.138,675.840C221.267,675.881,207.624,677.413,206.480,677.144C205.161,677.072,195.994,677.337,194.804,677.321C192.499,677.291,174.167,677.485,172.212,676.289C171.891,676.007,170.937,674.233,171.006,674.001C171.092,673.714,178.307,673.417,179.440,673.355Z"/>
</g>
</g>
<g id="layer_left_leg">
<g id="left_heel">
<path class="path-0" d="M235.846,596.511C233.350,584.813,248.200,577.384,258.412,577.640C272.947,578.002,288.825,585.400,288.340,590.777C286.871,602.812,263.892,601.481,253.558,601.404C248.946,601.217,236.771,600.853,235.846,596.511M282.423,570.049C265.833,562.426,236.806,561.857,225.224,573.820C217.549,581.742,217.647,610.687,226.828,612.245C243.833,615.132,286.144,611.429,293.791,608.409C303.602,604.547,303.856,588.597,299.006,580.014C295.908,575.218,287.732,572.581,282.423,570.049Z"/>
<path class="path-3" d="M258.412,577.640C272.947,578.002,288.825,585.400,288.340,590.777"/>
<path class="path-3" d="M288.340,590.777C286.871,602.812,263.892,601.481,253.558,601.404"/>
<path class="path-3" d="M253.558,601.404C248.946,601.217,236.771,600.853,235.846,596.511"/>
<path class="path-3" d="M235.846,596.511C233.350,584.813,248.200,577.384,258.412,577.640"/>
<path class="path-4" d="M258.412,577.640C272.947,578.002,288.825,585.400,288.340,590.777C286.871,602.812,263.892,601.481,253.558,601.404C248.946,601.217,236.771,600.853,235.846,596.511C233.350,584.813,248.200,577.384,258.412,577.640Z"/>
</g>
<g id="left_leg">
<path class="path-0" d="M238.898,405.789C239.718,400.932,250.098,404.795,253.973,404.581C260.680,404.535,275.670,402.197,281.255,406.144C287.860,410.489,291.882,431.520,293.505,438.950C296.322,453.876,302.195,467.107,305.564,481.383C308.038,493.109,311.930,505.208,311.738,516.957C311.910,523.752,309.203,530.894,310.051,537.247C309.723,545.060,318.087,552.883,314.076,558.922C300.962,576.211,294.521,570.082,280.209,575.863C268.901,580.032,253.782,569.333,244.472,563.581C240.131,561.096,230.283,558.278,228.560,553.655C221.171,533.824,229.250,508.362,231.138,487.691C232.287,475.104,239.422,449.886,242.592,436.621C243.413,433.184,247.623,432.758,248.711,428.799C249.418,426.191,242.257,419.930,240.952,417.521C239.212,414.845,238.212,408.831,238.898,405.789M289.852,398.626C282.612,393.031,262.396,393.806,253.973,394.933C249.095,395.566,233.218,394.878,230.199,397.877C222.326,405.697,230.481,425.024,231.074,434.052C231.070,438.883,222.926,460.720,221.513,467.068C217.214,493.692,209.198,516.666,211.833,543.506C212.735,554.141,214.600,564.491,219.508,573.804C230.123,593.599,248.407,597.257,274.616,592.388C296.716,588.534,314.720,590.507,324.220,563.250C330.829,544.555,327.972,528.957,326.188,518.092C324.197,506.070,323.192,493.341,319.800,480.730C316.515,470.007,311.284,460.023,307.639,449.348C303.577,437.414,300.365,406.787,289.852,398.626Z"/>
<path class="path-7" d="M253.973,404.581C260.680,404.535,275.670,402.197,281.255,406.144"/>
<path class="path-7" d="M281.255,406.144C287.860,410.489,291.882,431.520,293.505,438.950"/>
<path class="path-7" d="M293.505,438.950C296.322,453.876,302.195,467.107,305.564,481.383"/>
<path class="path-7" d="M305.564,481.383C308.038,493.109,311.930,505.208,311.738,516.957"/>
<path class="path-7" d="M311.738,516.957C311.910,523.752,309.203,530.894,310.051,537.247"/>
<path class="path-7" d="M310.051,537.247C309.723,545.060,318.087,552.883,314.076,558.922"/>
<path class="path-7" d="M314.076,558.922C300.962,576.211,294.521,570.082,280.209,575.863"/>
<path class="path-7" d="M280.209,575.863C268.901,580.032,253.782,569.333,244.472,563.581"/>
<path class="path-7" d="M244.472,563.581C240.131,561.096,230.283,558.278,228.560,553.655"/>
<path class="path-7" d="M228.560,553.655C221.171,533.824,229.250,508.362,231.138,487.691"/>
<path class="path-7" d="M231.138,487.691C232.287,475.104,239.422,449.886,242.592,436.621"/>
<path class="path-7" d="M242.592,436.621C243.413,433.184,247.623,432.758,248.711,428.799"/>
<path class="path-7" d="M248.711,428.799C249.418,426.191,242.257,419.930,240.952,417.521"/>
<path class="path-7" d="M240.952,417.521C239.212,414.845,238.212,408.831,238.898,405.789"/>
<path class="path-7" d="M238.898,405.789C239.718,400.932,250.098,404.795,253.973,404.581"/>
<path class="path-8" d="M253.973,404.581C260.680,404.535,275.670,402.197,281.255,406.144C287.860,410.489,291.882,431.520,293.505,438.950C296.322,453.876,302.195,467.107,305.564,481.383C308.038,493.109,311.930,505.208,311.738,516.957C311.910,523.752,309.203,530.894,310.051,537.247C309.723,545.060,318.087,552.883,314.076,558.922C300.962,576.211,294.521,570.082,280.209,575.863C268.901,580.032,253.782,569.333,244.472,563.581C240.131,561.096,230.283,558.278,228.560,553.655C221.171,533.824,229.250,508.362,231.138,487.691C232.287,475.104,239.422,449.886,242.592,436.621C243.413,433.184,247.623,432.758,248.711,428.799C249.418,426.191,242.257,419.930,240.952,417.521C239.212,414.845,238.212,408.831,238.898,405.789C239.718,400.932,250.098,404.795,253.973,404.581Z"/>
</g>
<g id="left_toe">
<path class="path-0" d="M265.350,628.502C230.260,627.341,226.290,589.104,239.363,581.267C264.950,565.927,295.256,577.183,308.906,584.810C319.819,590.919,318.780,607.589,312.839,618.923C304.915,631.402,278.566,628.948,265.350,628.502M313.803,567.449C293.338,560.754,267.752,552.475,242.941,562.307C229.178,567.762,217.134,581.095,217.017,599.526C216.543,611.488,218.687,622.671,226.650,631.610C237.272,642.811,271.665,642.602,286.293,640.708C300.198,637.924,319.831,635.100,326.806,621.488C332.790,610.223,325.654,571.326,313.803,567.449Z"/>
<path class="path-3" d="M239.363,581.267C264.950,565.927,295.256,577.183,308.906,584.810"/>
<path class="path-3" d="M308.906,584.810C319.819,590.919,318.780,607.589,312.839,618.923"/>
<path class="path-3" d="M312.839,618.923C304.915,631.402,278.566,628.948,265.350,628.502"/>
<path class="path-3" d="M265.350,628.502C230.260,627.341,226.290,589.104,239.363,581.267"/>
<path class="path-4" d="M239.363,581.267C264.950,565.927,295.256,577.183,308.906,584.810C319.819,590.919,318.780,607.589,312.839,618.923C304.915,631.402,278.566,628.948,265.350,628.502C230.260,627.341,226.290,589.104,239.363,581.267Z"/>
</g>
<g id="left_sole">
<path class="path-0" d="M252.724,638.455C240.766,633.327,235.129,627.567,234.707,629.829C233.982,633.722,242.220,633.480,247.246,634.192C253.861,635.136,280.138,641.421,293.330,637.444C298.587,636.310,315.031,634.085,315.176,634.489C316.052,636.942,297.181,637.730,291.671,638.547C283.422,639.917,253.982,638.232,252.724,638.455M237.049,629.269C236.294,626.866,244.056,628.243,245.384,628.545C258.216,631.465,301.373,629.733,312.523,626.070C313.313,625.809,317.997,624.819,318.313,626.146C319.237,630.025,305.589,630.148,295.725,631.391C280.406,633.293,238.162,632.815,237.049,629.269M322.162,616.631C313.183,620.361,294.908,624.696,277.172,625.124C250.073,625.776,227.167,612.638,226.169,628.830C225.898,633.395,237.217,642.609,241.570,643.680C257.998,647.946,317.807,643.695,322.484,636.852C325.668,632.194,329.181,613.714,322.162,616.631Z"/>
<path class="path-5" d="M234.707,629.829C233.982,633.722,242.220,633.480,247.246,634.192"/>
<path class="path-5" d="M247.246,634.192C253.861,635.136,280.138,641.421,293.330,637.444"/>
<path class="path-5" d="M293.330,637.444C298.587,636.310,315.031,634.085,315.176,634.489"/>
<path class="path-5" d="M315.176,634.489C316.052,636.942,297.181,637.730,291.671,638.547"/>
<path class="path-5" d="M291.671,638.547C283.422,639.917,253.982,638.232,252.724,638.455"/>
<path class="path-5" d="M252.724,638.455C240.766,633.327,235.129,627.567,234.707,629.829"/>
<path class="path-6" d="M234.707,629.829C233.982,633.722,242.220,633.480,247.246,634.192C253.861,635.136,280.138,641.421,293.330,637.444C298.587,636.310,315.031,634.085,315.176,634.489C316.052,636.942,297.181,637.730,291.671,638.547C283.422,639.917,253.982,638.232,252.724,638.455C240.766,633.327,235.129,627.567,234.707,629.829Z"/>
<path class="path-5" d="M245.384,628.545C258.216,631.465,301.373,629.733,312.523,626.070"/>
<path class="path-5" d="M312.523,626.070C313.313,625.809,317.997,624.819,318.313,626.146"/>
<path class="path-5" d="M318.313,626.146C319.237,630.025,305.589,630.148,295.725,631.391"/>
<path class="path-5" d="M295.725,631.391C280.406,633.293,238.162,632.815,237.049,629.269"/>
<path class="path-5" d="M237.049,629.269C236.294,626.866,244.056,628.243,245.384,628.545"/>
<path class="path-6" d="M245.384,628.545C258.216,631.465,301.373,629.733,312.523,626.070C313.313,625.809,317.997,624.819,318.313,626.146C319.237,630.025,305.589,630.148,295.725,631.391C280.406,633.293,238.162,632.815,237.049,629.269C236.294,626.866,244.056,628.243,245.384,628.545Z"/>
</g>
</g>
<g id="hat_brim">
<path class="path-0" d="M290.425,139.224C294.084,133.235,303.067,116.933,311.052,116.933C316.376,116.933,327.354,126.582,333.009,129.576C338.000,132.571,343.324,135.232,348.979,137.893C352.192,139.562,355.408,141.225,358.627,142.883C372.934,150.203,368.941,156.525,360.623,155.194C341.993,151.865,338.998,153.197,321.033,143.881C318.703,142.883,312.715,139.557,311.717,143.881C310.387,148.872,319.370,153.197,323.029,154.860C329.682,158.521,337.002,162.514,344.987,163.178C347.316,163.512,355.301,162.844,356.631,165.174C358.627,168.501,348.979,177.151,346.983,179.147C343.655,182.142,340.330,185.136,337.002,187.466C332.012,190.791,326.688,193.785,321.033,194.783C310.387,196.115,277.117,180.810,276.119,169.167C275.454,162.513,286.433,145.546,290.425,139.224M323.029,112.609C318.039,108.283,314.379,101.961,307.059,105.289C301.735,107.618,296.081,115.270,292.422,119.262C278.780,135.897,266.471,155.527,267.136,177.151C267.470,190.791,272.127,190.460,283.105,195.781C299.739,204.100,321.033,206.761,338.998,198.445C350.642,193.121,370.938,175.155,376.261,163.178C377.924,159.186,380.918,150.203,378.588,145.546C375.927,139.889,353.636,130.241,346.983,126.582C338.998,122.257,330.016,118.264,323.029,112.609Z"/>
<path class="path-9" d="M311.052,116.933C316.376,116.933,327.354,126.582,333.009,129.576"/>
<path class="path-9" d="M333.009,129.576C338.000,132.571,343.324,135.232,348.979,137.893"/>
<path class="path-9" d="M348.979,137.893C352.192,139.562,355.408,141.225,358.627,142.883"/>
<path class="path-9" d="M358.627,142.883C372.934,150.203,368.941,156.525,360.623,155.194"/>
<path class="path-9" d="M360.623,155.194C341.993,151.865,338.998,153.197,321.033,143.881"/>
<path class="path-9" d="M321.033,143.881C318.703,142.883,312.715,139.557,311.717,143.881"/>
<path class="path-9" d="M311.717,143.881C310.387,148.872,319.370,153.197,323.029,154.860"/>
<path class="path-9" d="M323.029,154.860C329.682,158.521,337.002,162.514,344.987,163.178"/>
<path class="path-9" d="M344.987,163.178C347.316,163.512,355.301,162.844,356.631,165.174"/>
<path class="path-9" d="M356.631,165.174C358.627,168.501,348.979,177.151,346.983,179.147"/>
<path class="path-9" d="M346.983,179.147C343.655,182.142,340.330,185.136,337.002,187.466"/>
<path class="path-9" d="M337.002,187.466C332.012,190.791,326.688,193.785,321.033,194.783"/>
<path class="path-9" d="M321.033,194.783C310.387,196.115,277.117,180.810,276.119,169.167"/>
<path class="path-9" d="M276.119,169.167C275.454,162.513,286.433,145.546,290.425,139.224"/>
<path class="path-9" d="M290.425,139.224C294.084,133.235,303.067,116.933,311.052,116.933"/>
<path class="path-10" d="M311.052,116.933C316.376,116.933,327.354,126.582,333.009,129.576C338.000,132.571,343.324,135.232,348.979,137.893C352.192,139.562,355.408,141.225,358.627,142.883C372.934,150.203,368.941,156.525,360.623,155.194C341.993,151.865,338.998,153.197,321.033,143.881C318.703,142.883,312.715,139.557,311.717,143.881C310.387,148.872,319.370,153.197,323.029,154.860C329.682,158.521,337.002,162.514,344.987,163.178C347.316,163.512,355.301,162.844,356.631,165.174C358.627,168.501,348.979,177.151,346.983,179.147C343.655,182.142,340.330,185.136,337.002,187.466C332.012,190.791,326.688,193.785,321.033,194.783C310.387,196.115,277.117,180.810,276.119,169.167C275.454,162.513,286.433,145.546,290.425,139.224C294.084,133.235,303.067,116.933,311.052,116.933Z"/>
</g>
<g id="hair">
<path class="path-0" d="M183.357,136.483C200.954,124.749,220.906,123.806,241.996,123.120C251.452,122.794,257.886,129.270,265.069,135.626C270.964,141.195,277.299,147.468,283.560,153.313C292.986,162.051,296.930,166.431,300.440,170.614C303.444,173.825,308.105,179.813,311.862,182.674C316.396,186.124,325.422,203.315,327.445,205.266C320.793,207.453,310.356,209.024,305.541,212.830C307.149,218.669,307.424,227.700,307.413,230.409C301.202,230.790,294.008,227.926,282.567,225.752C280.180,232.918,280.142,239.647,275.384,246.902C267.697,244.496,262.345,242.563,252.411,238.043C245.798,243.193,244.261,242.773,233.517,249.212C226.455,244.820,220.838,240.151,213.943,237.253C207.148,240.091,196.403,241.027,192.739,243.925C188.987,236.858,185.547,229.060,182.318,225.662C172.710,227.554,168.576,230.148,161.781,232.559C157.606,227.012,160.654,222.489,156.037,214.349C151.717,213.146,145.049,210.476,139.490,210.322C143.367,205.864,146.319,191.142,152.833,189.327C160.871,187.088,155.875,177.911,160.872,169.755C162.110,167.631,174.016,151.399,175.093,148.739C177.132,144.153,179.361,139.287,183.357,136.483M269.783,123.041C257.623,113.516,232.973,108.192,219.067,111.311C206.306,114.023,193.787,117.926,182.663,125.006C176.433,128.911,169.531,134.686,165.362,140.754C157.036,152.537,144.935,178.372,138.142,190.325C132.704,200.241,127.646,206.923,122.452,212.283C140.007,218.879,145.124,221.586,150.363,222.441C150.613,230.199,157.711,236.027,156.388,244.572C165.209,243.354,170.475,241.177,178.326,239.302C182.258,243.995,184.942,250.348,188.681,256.586C196.418,254.568,204.305,254.940,212.000,249.563C217.496,252.632,226.229,257.403,235.200,262.448C243.544,258.115,245.325,257.880,253.165,252.908C262.619,255.342,272.515,261.315,282.074,260.399C281.484,252.206,287.600,246.647,286.947,241.388C294.168,239.536,316.196,242.966,319.967,242.683C319.803,236.635,316.595,225.026,318.237,217.838C325.064,216.098,330.837,214.510,341.526,209.520C338.121,202.790,331.974,194.414,326.560,189.403C321.990,185.214,318.291,179.689,313.719,175.326C298.212,160.768,292.275,140.745,269.783,123.041Z"/>
<path class="path-11" d="M241.996,123.120C251.452,122.794,257.886,129.270,265.069,135.626"/>
<path class="path-11" d="M265.069,135.626C270.964,141.195,277.299,147.468,283.560,153.313"/>
<path class="path-11" d="M283.560,153.313C292.986,162.051,296.930,166.431,300.440,170.614"/>
<path class="path-11" d="M300.440,170.614C303.444,173.825,308.105,179.813,311.862,182.674"/>
<path class="path-11" d="M311.862,182.674C316.396,186.124,325.422,203.315,327.445,205.266"/>
<path class="path-11" d="M327.445,205.266C320.793,207.453,310.356,209.024,305.541,212.830"/>
<path class="path-11" d="M305.541,212.830C307.149,218.669,307.424,227.700,307.413,230.409"/>
<path class="path-11" d="M307.413,230.409C301.202,230.790,294.008,227.926,282.567,225.752"/>
<path class="path-11" d="M282.567,225.752C280.180,232.918,280.142,239.647,275.384,246.902"/>
<path class="path-11" d="M275.384,246.902C267.697,244.496,262.345,242.563,252.411,238.043"/>
<path class="path-11" d="M252.411,238.043C245.798,243.193,244.261,242.773,233.517,249.212"/>
<path class="path-11" d="M233.517,249.212C226.455,244.820,220.838,240.151,213.943,237.253"/>
<path class="path-11" d="M213.943,237.253C207.148,240.091,196.403,241.027,192.739,243.925"/>
<path class="path-11" d="M192.739,243.925C188.987,236.858,185.547,229.060,182.318,225.662"/>
<path class="path-11" d="M182.318,225.662C172.710,227.554,168.576,230.148,161.781,232.559"/>
<path class="path-11" d="M161.781,232.559C157.606,227.012,160.654,222.489,156.037,214.349"/>
<path class="path-11" d="M156.037,214.349C151.717,213.146,145.049,210.476,139.490,210.322"/>
<path class="path-11" d="M139.490,210.322C143.367,205.864,146.319,191.142,152.833,189.327"/>
<path class="path-11" d="M152.833,189.327C160.871,187.088,155.875,177.911,160.872,169.755"/>
<path class="path-11" d="M160.872,169.755C162.110,167.631,174.016,151.399,175.093,148.739"/>
<path class="path-11" d="M175.093,148.739C177.132,144.153,179.361,139.287,183.357,136.483"/>
<path class="path-11" d="M183.357,136.483C200.954,124.749,220.906,123.806,241.996,123.120"/>
<path class="path-12" d="M241.996,123.120C251.452,122.794,257.886,129.270,265.069,135.626C270.964,141.195,277.299,147.468,283.560,153.313C292.986,162.051,296.930,166.431,300.440,170.614C303.444,173.825,308.105,179.813,311.862,182.674C316.396,186.124,325.422,203.315,327.445,205.266C320.793,207.453,310.356,209.024,305.541,212.830C307.149,218.669,307.424,227.700,307.413,230.409C301.202,230.790,294.008,227.926,282.567,225.752C280.180,232.918,280.142,239.647,275.384,246.902C267.697,244.496,262.345,242.563,252.411,238.043C245.798,243.193,244.261,242.773,233.517,249.212C226.455,244.820,220.838,240.151,213.943,237.253C207.148,240.091,196.403,241.027,192.739,243.925C188.987,236.858,185.547,229.060,182.318,225.662C172.710,227.554,168.576,230.148,161.781,232.559C157.606,227.012,160.654,222.489,156.037,214.349C151.717,213.146,145.049,210.476,139.490,210.322C143.367,205.864,146.319,191.142,152.833,189.327C160.871,187.088,155.875,177.911,160.872,169.755C162.110,167.631,174.016,151.399,175.093,148.739C177.132,144.153,179.361,139.287,183.357,136.483C200.954,124.749,220.906,123.806,241.996,123.120Z"/>
</g>
<g id="clothes">
<path class="path-0" d="M244.020,368.176C239.122,366.381,220.311,363.134,217.298,367.631C215.012,371.276,219.145,372.562,222.884,372.776C226.593,372.988,246.135,376.471,248.649,374.829C253.067,371.869,246.270,368.891,244.020,368.176M191.093,266.179C194.088,253.538,221.036,240.563,234.012,241.561C242.994,242.226,271.274,256.199,275.266,264.517C278.592,271.170,279.590,295.789,279.924,304.107C280.257,319.412,280.593,334.801,282.253,350.019C283.977,360.947,290.503,371.080,290.559,382.143C290.159,385.285,286.956,391.850,284.132,393.892C277.915,398.854,261.494,402.550,254.234,401.581C227.215,398.720,230.489,393.429,205.025,392.498C201.292,392.219,189.071,393.673,186.577,392.145C181.524,388.184,183.734,380.940,184.886,374.866C187.811,362.260,190.063,353.695,191.427,340.038C192.921,324.014,194.088,306.768,194.088,290.134C193.755,284.145,190.429,269.839,191.093,266.179M269.943,247.549C253.640,237.899,237.670,229.915,218.042,235.573C212.718,236.902,186.103,249.877,183.773,253.205C180.115,258.528,183.773,278.821,183.773,286.141C184.107,294.791,184.440,303.773,183.773,312.092C183.442,318.413,182.111,324.069,182.111,330.057C181.777,336.710,182.131,343.952,180.780,350.019C177.536,364.115,164.969,391.784,181.510,401.935C186.643,405.110,194.323,403.928,200.678,404.412C211.051,405.001,222.010,406.912,232.546,407.392C245.302,408.327,257.982,410.307,270.916,409.753C278.775,409.417,304.421,411.390,308.742,404.292C311.222,400.418,305.548,380.721,303.860,375.805C299.667,365.261,293.873,355.142,291.567,344.031C289.460,332.236,289.239,320.410,289.904,308.100C290.237,298.119,291.900,288.471,291.900,278.157C291.567,273.831,292.234,268.510,289.904,264.184C285.912,256.199,277.263,251.873,269.943,247.549Z"/>
<path class="path-13" d="M244.020,368.176C239.122,366.381,220.311,363.134,217.298,367.631"/>
<path class="path-13" d="M217.298,367.631C215.012,371.276,219.145,372.562,222.884,372.776"/>
<path class="path-13" d="M222.884,372.776C226.593,372.988,246.135,376.471,248.649,374.829"/>
<path class="path-13" d="M248.649,374.829C253.067,371.869,246.270,368.891,244.020,368.176"/>
<path class="path-13" d="M191.093,266.179C194.088,253.538,221.036,240.563,234.012,241.561"/>
<path class="path-13" d="M234.012,241.561C242.994,242.226,271.274,256.199,275.266,264.517"/>
<path class="path-13" d="M275.266,264.517C278.592,271.170,279.590,295.789,279.924,304.107"/>
<path class="path-13" d="M279.924,304.107C280.257,319.412,280.593,334.801,282.253,350.019"/>
<path class="path-13" d="M282.253,350.019C283.977,360.947,290.503,371.080,290.559,382.143"/>
<path class="path-13" d="M290.559,382.143C290.159,385.285,286.956,391.850,284.132,393.892"/>
<path class="path-13" d="M284.132,393.892C277.915,398.854,261.494,402.550,254.234,401.581"/>
<path class="path-13" d="M254.234,401.581C227.215,398.720,230.489,393.429,205.025,392.498"/>
<path class="path-13" d="M205.025,392.498C201.292,392.219,189.071,393.673,186.577,392.145"/>
<path class="path-13" d="M186.577,392.145C181.524,388.184,183.734,380.940,184.886,374.866"/>
<path class="path-13" d="M184.886,374.866C187.811,362.260,190.063,353.695,191.427,340.038"/>
<path class="path-13" d="M191.427,340.038C192.921,324.014,194.088,306.768,194.088,290.134"/>
<path class="path-13" d="M194.088,290.134C193.755,284.145,190.429,269.839,191.093,266.179"/>
<path class="path-14" d="M244.020,368.176C239.122,366.381,220.311,363.134,217.298,367.631C215.012,371.276,219.145,372.562,222.884,372.776C226.593,372.988,246.135,376.471,248.649,374.829C253.067,371.869,246.270,368.891,244.020,368.176M191.093,266.179C194.088,253.538,221.036,240.563,234.012,241.561C242.994,242.226,271.274,256.199,275.266,264.517C278.592,271.170,279.590,295.789,279.924,304.107C280.257,319.412,280.593,334.801,282.253,350.019C283.977,360.947,290.503,371.080,290.559,382.143C290.159,385.285,286.956,391.850,284.132,393.892C277.915,398.854,261.494,402.550,254.234,401.581C227.215,398.720,230.489,393.429,205.025,392.498C201.292,392.219,189.071,393.673,186.577,392.145C181.524,388.184,183.734,380.940,184.886,374.866C187.811,362.260,190.063,353.695,191.427,340.038C192.921,324.014,194.088,306.768,194.088,290.134C193.755,284.145,190.429,269.839,191.093,266.179Z"/>
</g>
<g id="neck">
<path class="path-0" d="M229.021,222.597C229.354,219.269,230.353,216.275,234.012,215.942C245.656,213.946,244.657,251.542,234.012,251.542C224.031,251.542,228.356,228.917,229.021,222.597M234.012,206.628C231.351,206.295,228.357,206.959,226.027,208.291C216.711,212.948,218.042,221.599,218.042,230.248C217.708,234.574,218.042,238.567,216.046,242.226C214.383,245.553,209.724,248.879,209.724,252.540C210.057,262.521,237.006,262.521,243.993,262.188C246.653,262.187,255.636,263.185,256.634,259.526C256.634,258.528,249.981,246.883,248.983,242.226C245.989,228.252,255.305,207.626,234.012,206.628Z"/>
<path class="path-15" d="M234.012,215.942C245.656,213.946,244.657,251.542,234.012,251.542"/>
<path class="path-15" d="M234.012,251.542C224.031,251.542,228.356,228.917,229.021,222.597"/>
<path class="path-15" d="M229.021,222.597C229.354,219.269,230.353,216.275,234.012,215.942"/>
<path class="path-16" d="M234.012,215.942C245.656,213.946,244.657,251.542,234.012,251.542C224.031,251.542,228.356,228.917,229.021,222.597C229.354,219.269,230.353,216.275,234.012,215.942Z"/>
</g>
<g id="layer_head">
<g id="right_ear">
<path class="path-0" d="M146.182,194.200C134.911,196.257,120.050,159.311,136.103,163.191C140.869,164.332,143.457,172.802,144.347,176.429C145.983,182.720,153.906,192.830,146.182,194.200M142.181,151.257C138.808,149.353,134.724,148.508,131.219,150.160C121.364,153.009,117.498,165.128,119.119,175.311C121.241,187.769,133.137,202.903,144.535,205.740C147.674,206.539,154.146,208.788,157.238,207.324C163.811,203.697,158.752,193.452,156.995,187.829C155.064,181.142,147.353,155.475,142.181,151.257Z"/>
<path class="path-15" d="M136.103,163.191C140.869,164.332,143.457,172.802,144.347,176.429"/>
<path class="path-15" d="M144.347,176.429C145.983,182.720,153.906,192.830,146.182,194.200"/>
<path class="path-15" d="M146.182,194.200C134.911,196.257,120.050,159.311,136.103,163.191"/>
<path class="path-16" d="M136.103,163.191C140.869,164.332,143.457,172.802,144.347,176.429C145.983,182.720,153.906,192.830,146.182,194.200C134.911,196.257,120.050,159.311,136.103,163.191Z"/>
</g>
<g id="face_Mask">
<g id="face">
<path class="path-0" d="M159.639,105.190C168.126,94.741,200.894,87.556,214.534,85.560C229.839,83.564,245.475,85.893,260.446,90.550C265.770,92.215,273.517,94.092,278.079,97.870C285.621,104.164,289.468,115.566,292.117,124.625C294.198,131.115,298.229,139.570,296.878,145.867C291.034,173.120,285.316,185.298,280.150,193.037C273.504,202.992,261.251,207.252,250.608,212.503C234.792,220.028,218.507,224.427,209.898,224.023C197.419,223.437,170.772,215.271,162.200,206.932C154.510,199.167,154.256,188.317,151.942,178.110C149.731,169.583,146.960,156.539,145.945,147.968C144.800,136.796,152.654,113.711,159.639,105.190M282.096,90.194C268.557,77.887,232.211,75.163,214.577,77.807C206.258,78.797,198.272,79.455,190.618,81.446C184.959,83.108,179.964,85.767,174.636,87.430C162.990,91.754,158.178,90.315,150.348,101.080C144.725,108.615,136.751,138.256,136.910,147.499C137.152,154.471,140.723,170.947,142.186,178.936C143.852,188.339,145.902,201.261,150.965,208.958C155.426,215.529,161.409,220.110,171.548,224.694C183.784,230.225,197.872,233.933,211.647,235.151C219.772,236.373,235.539,231.899,256.796,221.094C268.299,215.065,279.960,208.459,287.547,196.858C295.743,184.326,302.483,166.569,308.126,145.423C313.438,125.516,290.430,97.606,282.096,90.194Z"/>
<path class="path-15" d="M214.534,85.560C229.839,83.564,245.475,85.893,260.446,90.550"/>
<path class="path-15" d="M260.446,90.550C265.770,92.215,273.517,94.092,278.079,97.870"/>
<path class="path-15" d="M278.079,97.870C285.621,104.164,289.468,115.566,292.117,124.625"/>
<path class="path-15" d="M292.117,124.625C294.198,131.115,298.229,139.570,296.878,145.867"/>
<path class="path-15" d="M296.878,145.867C291.034,173.120,285.316,185.298,280.150,193.037"/>
<path class="path-15" d="M280.150,193.037C273.504,202.992,261.251,207.252,250.608,212.503"/>
<path class="path-15" d="M250.608,212.503C234.792,220.028,218.507,224.427,209.898,224.023"/>
<path class="path-15" d="M209.898,224.023C197.419,223.437,170.772,215.271,162.200,206.932"/>
<path class="path-15" d="M162.200,206.932C154.510,199.167,154.256,188.317,151.942,178.110"/>
<path class="path-15" d="M151.942,178.110C149.731,169.583,146.960,156.539,145.945,147.968"/>
<path class="path-15" d="M145.945,147.968C144.800,136.796,152.654,113.711,159.639,105.190"/>
<path class="path-15" d="M159.639,105.190C168.126,94.741,200.894,87.556,214.534,85.560"/>
<path class="path-16" d="M214.534,85.560C229.839,83.564,245.475,85.893,260.446,90.550C265.770,92.215,273.517,94.092,278.079,97.870C285.621,104.164,289.468,115.566,292.117,124.625C294.198,131.115,298.229,139.570,296.878,145.867C291.034,173.120,285.316,185.298,280.150,193.037C273.504,202.992,261.251,207.252,250.608,212.503C234.792,220.028,218.507,224.427,209.898,224.023C197.419,223.437,170.772,215.271,162.200,206.932C154.510,199.167,154.256,188.317,151.942,178.110C149.731,169.583,146.960,156.539,145.945,147.968C144.800,136.796,152.654,113.711,159.639,105.190C168.126,94.741,200.894,87.556,214.534,85.560Z"/>
</g>
</g>
<mask id="mask_target" style="mask-type:alpha;">
<use xlink:href="#face_Mask"/>
</mask>
<g id="mouse">
<path class="path-0" d="M212.391,214.391C217.595,215.495,217.679,220.248,217.205,220.755C216.938,221.041,215.815,220.090,212.855,219.603C207.249,218.681,204.543,219.854,204.346,219.140C204.129,218.357,206.298,213.099,212.391,214.391Z"/>
</g>
<g id="layer_eyes_Mtarget" mask="url(#mask_target)">
<g id="eyes">
<mask style="mask-type:alpha;" id="f3906406-f197-4bf1-91d8-744c09cca836">
<use xlink:href="#cmn_f3906406-f197-4bf1-91d8-744c09cca836"/>
</mask>
<g id="cmn_f3906406-f197-4bf1-91d8-744c09cca836">
<path class="path-0" d="M182.668,175.077C184.981,184.741,178.634,192.423,171.390,191.991C165.634,191.542,162.275,185.659,160.487,180.032C159.260,176.649,154.939,160.674,159.518,163.167C162.373,164.722,181.941,172.037,182.668,175.077M189.989,178.364C190.588,176.801,191.363,174.442,190.843,172.851C190.336,171.299,188.654,169.136,187.003,168.993C182.658,168.519,168.421,160.771,163.013,158.544C158.857,156.901,148.399,150.578,144.945,154.110C140.814,158.213,146.965,161.302,148.987,169.164C152.617,183.277,163.921,199.604,175.003,198.433C186.330,197.236,187.300,185.380,189.989,178.364M233.844,189.275C226.490,189.079,216.522,183.536,216.842,172.079C216.933,168.808,230.347,164.072,236.366,161.075C242.598,157.972,254.457,151.708,257.646,151.815C261.138,152.354,259.594,155.400,259.671,165.054C259.751,175.005,246.845,189.621,233.844,189.275M266.549,171.373C270.335,159.560,270.032,143.271,267.717,142.169C262.534,139.701,248.931,149.101,241.024,152.430C231.243,156.549,215.611,165.380,208.889,167.226C206.763,167.892,204.824,168.375,204.485,169.880C203.849,172.711,209.107,174.832,210.962,177.063C214.011,180.731,215.614,186.956,220.574,189.726C230.961,195.956,238.579,194.655,250.418,190.307C257.978,187.553,264.336,178.280,266.549,171.373Z"/>
<path class="path-17" d="M257.646,151.815C261.138,152.354,259.594,155.400,259.671,165.054"/>
<path class="path-17" d="M259.671,165.054C259.751,175.005,246.845,189.621,233.844,189.275"/>
<path class="path-17" d="M233.844,189.275C226.490,189.079,216.522,183.536,216.842,172.079"/>
<path class="path-17" d="M216.842,172.079C216.933,168.808,230.347,164.072,236.366,161.075"/>
<path class="path-17" d="M236.366,161.075C242.598,157.972,254.457,151.708,257.646,151.815"/>
<path class="path-18" d="M257.646,151.815C261.138,152.354,259.594,155.400,259.671,165.054C259.751,175.005,246.845,189.621,233.844,189.275C226.490,189.079,216.522,183.536,216.842,172.079C216.933,168.808,230.347,164.072,236.366,161.075C242.598,157.972,254.457,151.708,257.646,151.815Z"/>
<path class="path-17" d="M159.518,163.167C162.373,164.722,181.941,172.037,182.668,175.077"/>
<path class="path-17" d="M182.668,175.077C184.981,184.741,178.634,192.423,171.390,191.991"/>
<path class="path-17" d="M171.390,191.991C165.634,191.542,162.275,185.659,160.487,180.032"/>
<path class="path-17" d="M160.487,180.032C159.260,176.649,154.939,160.674,159.518,163.167"/>
<path class="path-18" d="M159.518,163.167C162.373,164.722,181.941,172.037,182.668,175.077C184.981,184.741,178.634,192.423,171.390,191.991C165.634,191.542,162.275,185.659,160.487,180.032C159.260,176.649,154.939,160.674,159.518,163.167Z"/>
</g>
</g>
<g id="pupil">
<path class="path-0" d="M217.705,166.534C220.090,165.970,222.872,169.625,223.543,178.440C223.974,184.105,222.819,186.407,221.263,186.652C219.374,186.949,217.718,184.279,216.434,177.502C215.065,170.269,215.719,167.004,217.705,166.534Z" mask="url(#f3906406-f197-4bf1-91d8-744c09cca836)"/>
<path class="path-0" d="M162.120,167.112C164.245,166.713,165.904,170.110,167.249,178.053C168.232,183.855,168.019,186.448,166.491,186.847C164.952,187.248,163.181,185.165,161.525,179.476C159.218,171.553,159.943,167.520,162.120,167.112Z" mask="url(#f3906406-f197-4bf1-91d8-744c09cca836)"/>
</g>
</g>
<g id="hat">
<path class="path-0" d="M297.488,126.448C299.647,127.494,302.421,130.100,302.833,132.752C304.390,139.199,293.290,139.255,289.878,139.648C283.561,139.741,276.963,139.329,270.929,139.153C265.116,139.509,259.285,139.398,253.462,139.529C240.212,138.798,227.028,137.348,213.782,136.596C200.525,136.365,187.708,135.686,174.047,135.402C172.341,135.413,143.291,138.490,138.069,136.104C127.302,131.300,137.465,122.548,136.864,117.380C136.744,114.331,130.285,113.523,131.870,108.233C133.328,103.633,149.188,99.488,153.994,98.353C165.270,95.629,176.989,92.539,189.016,91.110C204.836,89.319,220.455,90.261,236.474,89.531C253.444,88.851,290.072,94.073,301.760,110.798C308.223,119.866,290.357,111.860,288.385,111.442C282.239,108.676,259.200,99.723,268.465,110.265C273.664,117.499,290.482,122.315,297.488,126.448M182.192,84.437C171.144,85.835,161.003,86.607,150.577,88.862C146.331,89.769,141.353,91.615,137.296,90.670C128.439,88.735,139.629,66.243,143.600,61.075C158.346,42.367,188.501,33.094,213.533,33.659C259.617,34.697,277.489,43.705,291.740,60.094C296.226,64.880,311.077,88.054,302.009,94.024C298.712,95.899,292.823,92.311,289.938,90.920C279.938,86.359,227.315,78.730,182.192,84.437M255.094,29.081C242.244,26.200,236.415,22.050,221.422,22.482C190.411,23.694,151.445,28.869,132.610,57.734C126.678,67.053,125.713,77.562,123.213,87.533C121.313,94.966,116.621,100.492,117.040,108.064C117.637,115.306,121.092,117.028,122.845,122.749C124.892,128.834,122.509,131.443,123.679,135.404C125.879,146.761,136.307,147.397,145.874,147.778C150.573,147.966,167.922,147.669,177.370,147.618C188.628,147.557,203.639,147.361,214.897,147.400C224.862,147.434,238.147,147.814,248.112,147.815C257.327,147.815,269.626,147.947,278.827,147.440C288.405,146.912,309.508,145.428,310.648,144.302C312.576,142.431,316.882,123.899,317.106,120.409C317.342,116.721,315.719,112.927,316.180,107.012C316.902,93.944,317.543,82.016,311.568,69.100C300.685,46.102,276.705,34.312,255.094,29.081Z"/>
<path class="path-19" d="M236.474,89.531C253.444,88.851,290.072,94.073,301.760,110.798"/>
<path class="path-19" d="M301.760,110.798C308.223,119.866,290.357,111.860,288.385,111.442"/>
<path class="path-19" d="M288.385,111.442C282.239,108.676,259.200,99.723,268.465,110.265"/>
<path class="path-19" d="M268.465,110.265C273.664,117.499,290.482,122.315,297.488,126.448"/>
<path class="path-19" d="M297.488,126.448C299.647,127.494,302.421,130.100,302.833,132.752"/>
<path class="path-19" d="M302.833,132.752C304.390,139.199,293.290,139.255,289.878,139.648"/>
<path class="path-19" d="M289.878,139.648C283.561,139.741,276.963,139.329,270.929,139.153"/>
<path class="path-19" d="M270.929,139.153C265.116,139.509,259.285,139.398,253.462,139.529"/>
<path class="path-19" d="M253.462,139.529C240.212,138.798,227.028,137.348,213.782,136.596"/>
<path class="path-19" d="M213.782,136.596C200.525,136.365,187.708,135.686,174.047,135.402"/>
<path class="path-19" d="M174.047,135.402C172.341,135.413,143.291,138.490,138.069,136.104"/>
<path class="path-19" d="M138.069,136.104C127.302,131.300,137.465,122.548,136.864,117.380"/>
<path class="path-19" d="M136.864,117.380C136.744,114.331,130.285,113.523,131.870,108.233"/>
<path class="path-19" d="M131.870,108.233C133.328,103.633,149.188,99.488,153.994,98.353"/>
<path class="path-19" d="M153.994,98.353C165.270,95.629,176.989,92.539,189.016,91.110"/>
<path class="path-19" d="M189.016,91.110C204.836,89.319,220.455,90.261,236.474,89.531"/>
<path class="path-20" d="M236.474,89.531C253.444,88.851,290.072,94.073,301.760,110.798C308.223,119.866,290.357,111.860,288.385,111.442C282.239,108.676,259.200,99.723,268.465,110.265C273.664,117.499,290.482,122.315,297.488,126.448C299.647,127.494,302.421,130.100,302.833,132.752C304.390,139.199,293.290,139.255,289.878,139.648C283.561,139.741,276.963,139.329,270.929,139.153C265.116,139.509,259.285,139.398,253.462,139.529C240.212,138.798,227.028,137.348,213.782,136.596C200.525,136.365,187.708,135.686,174.047,135.402C172.341,135.413,143.291,138.490,138.069,136.104C127.302,131.300,137.465,122.548,136.864,117.380C136.744,114.331,130.285,113.523,131.870,108.233C133.328,103.633,149.188,99.488,153.994,98.353C165.270,95.629,176.989,92.539,189.016,91.110C204.836,89.319,220.455,90.261,236.474,89.531Z"/>
<path class="path-9" d="M213.533,33.659C259.617,34.697,277.489,43.705,291.740,60.094"/>
<path class="path-9" d="M291.740,60.094C296.226,64.880,311.077,88.054,302.009,94.024"/>
<path class="path-9" d="M302.009,94.024C298.712,95.899,292.823,92.311,289.938,90.920"/>
<path class="path-9" d="M289.938,90.920C279.938,86.359,227.315,78.730,182.192,84.437"/>
<path class="path-9" d="M182.192,84.437C171.144,85.835,161.003,86.607,150.577,88.862"/>
<path class="path-9" d="M150.577,88.862C146.331,89.769,141.353,91.615,137.296,90.670"/>
<path class="path-9" d="M137.296,90.670C128.439,88.735,139.629,66.243,143.600,61.075"/>
<path class="path-9" d="M143.600,61.075C158.346,42.367,188.501,33.094,213.533,33.659"/>
<path class="path-10" d="M213.533,33.659C259.617,34.697,277.489,43.705,291.740,60.094C296.226,64.880,311.077,88.054,302.009,94.024C298.712,95.899,292.823,92.311,289.938,90.920C279.938,86.359,227.315,78.730,182.192,84.437C171.144,85.835,161.003,86.607,150.577,88.862C146.331,89.769,141.353,91.615,137.296,90.670C128.439,88.735,139.629,66.243,143.600,61.075C158.346,42.367,188.501,33.094,213.533,33.659Z"/>
</g>
<g id="left_ear">
<path class="path-0" d="M285.079,185.526C283.625,180.692,286.861,154.546,289.096,150.784C294.747,140.993,311.860,149.971,315.373,158.078C319.184,167.394,309.668,182.107,301.958,188.577C294.488,194.654,287.567,193.493,285.079,185.526M328.394,161.292C326.928,146.890,309.550,131.942,296.798,138.547C281.331,146.559,287.362,169.307,285.145,183.554C284.663,187.305,282.141,191.202,283.002,194.695C285.265,204.569,295.556,205.746,304.046,198.052C313.616,189.197,329.378,175.111,328.394,161.292Z"/>
<path class="path-15" d="M289.096,150.784C294.747,140.993,311.860,149.971,315.373,158.078"/>
<path class="path-15" d="M315.373,158.078C319.184,167.394,309.668,182.107,301.958,188.577"/>
<path class="path-15" d="M301.958,188.577C294.488,194.654,287.567,193.493,285.079,185.526"/>
<path class="path-15" d="M285.079,185.526C283.625,180.692,286.861,154.546,289.096,150.784"/>
<path class="path-16" d="M289.096,150.784C294.747,140.993,311.860,149.971,315.373,158.078C319.184,167.394,309.668,182.107,301.958,188.577C294.488,194.654,287.567,193.493,285.079,185.526C283.625,180.692,286.861,154.546,289.096,150.784Z"/>
</g>
<g id="earrings">
<path class="path-0" d="M307.073,206.025C298.306,209.825,296.461,191.092,300.016,191.448C304.997,193.181,311.771,201.969,307.073,206.025M316.459,197.760C309.732,197.994,306.727,188.981,306.220,185.131C313.788,186.851,323.283,192.547,316.459,197.760M326.513,193.863C323.969,185.798,311.972,181.101,304.166,177.893C301.319,176.722,293.699,186.867,293.368,190.087C292.330,194.107,294.442,216.103,308.119,213.372C313.787,211.978,328.560,200.355,326.513,193.863Z"/>
<path class="path-21" d="M306.220,185.131C313.788,186.851,323.283,192.547,316.459,197.760"/>
<path class="path-21" d="M316.459,197.760C309.732,197.994,306.727,188.981,306.220,185.131"/>
<path class="path-22" d="M306.220,185.131C313.788,186.851,323.283,192.547,316.459,197.760C309.732,197.994,306.727,188.981,306.220,185.131Z"/>
<path class="path-21" d="M300.016,191.448C304.997,193.181,311.771,201.969,307.073,206.025"/>
<path class="path-21" d="M307.073,206.025C298.306,209.825,296.461,191.092,300.016,191.448"/>
<path class="path-22" d="M300.016,191.448C304.997,193.181,311.771,201.969,307.073,206.025C298.306,209.825,296.461,191.092,300.016,191.448Z"/>
</g>
</g>
<g id="jacket">
<path class="path-0" d="M202.406,270.837C204.859,275.302,201.140,285.471,200.850,290.134C197.674,307.668,192.532,324.594,193.894,341.946C194.411,346.699,195.779,355.686,192.921,360.455C191.616,362.632,187.464,363.831,186.014,365.341C183.575,367.836,180.651,359.440,179.740,357.314C178.624,354.710,178.017,346.778,177.998,344.267C178.270,339.289,179.676,329.651,179.778,323.365C179.925,317.184,177.544,310.866,178.326,304.093C178.539,298.034,179.704,290.881,180.079,284.128C181.118,280.113,182.902,277.801,182.912,274.869C182.525,270.518,182.915,268.544,186.982,267.549C191.525,266.775,201.072,265.702,202.406,270.837M261.707,276.559C263.546,274.152,283.243,261.551,285.925,260.566C297.225,257.016,298.826,271.447,297.630,278.316C296.863,283.091,290.142,299.712,291.722,302.804C293.612,307.104,298.626,307.187,302.269,308.909C310.575,313.342,305.914,310.368,313.457,312.074C316.670,312.817,324.839,312.863,326.401,315.694C327.304,317.587,324.031,322.066,324.036,324.034C323.490,330.431,327.731,337.441,320.843,343.877C320.186,344.661,315.184,353.669,313.958,354.925C304.120,363.971,286.999,371.341,274.984,363.472C270.919,360.482,269.696,354.208,267.553,349.242C261.348,335.496,257.184,320.792,256.549,305.663C255.868,297.590,257.271,283.842,261.707,276.559M276.344,255.283C273.434,257.773,267.154,260.760,265.175,261.465C259.179,263.243,258.123,256.947,257.686,252.578C257.376,247.748,260.321,240.828,263.468,236.940C266.111,233.676,270.625,229.758,275.214,229.320C280.395,228.640,289.171,233.429,288.280,239.309C287.999,242.512,280.889,251.393,276.344,255.283M198.202,238.080C203.305,244.185,208.588,250.313,204.564,253.097C200.733,255.747,197.778,256.073,189.763,255.866C178.254,255.568,172.411,239.659,177.164,233.650C181.166,228.592,192.180,230.874,198.202,238.080M345.172,311.750C343.517,306.306,339.317,303.761,333.944,301.227C328.722,298.826,321.884,298.870,316.256,297.849C311.031,297.040,309.012,295.910,303.759,293.045C299.219,290.671,294.230,288.885,292.918,284.147C291.725,280.453,296.634,260.804,297.537,257.379C297.974,253.270,300.531,249.611,300.764,245.814C301.126,241.963,301.839,237.911,300.854,234.170C299.650,228.238,293.733,225.085,289.187,222.045C282.791,218.295,277.100,217.356,269.630,218.663C260.283,220.310,255.990,229.784,252.820,236.392C248.172,246.081,249.889,261.297,248.876,271.996C248.305,278.028,247.583,286.435,247.259,292.130C245.671,313.962,252.353,370.922,273.553,376.927C278.065,378.527,307.832,371.516,314.656,365.562C319.501,361.377,320.467,358.110,324.994,353.837C330.713,348.845,334.614,334.394,338.738,325.593C340.716,321.708,346.099,314.804,345.172,311.750M208.123,233.194C203.774,227.217,196.428,217.166,188.880,217.805C183.591,218.426,175.695,220.608,171.381,224.156C168.175,226.792,164.093,231.656,164.001,235.858C163.742,241.670,165.179,248.543,167.685,253.252C169.799,257.225,176.265,260.050,178.019,264.126C178.749,265.959,177.962,275.637,178.012,278.080C178.438,286.922,175.367,295.880,174.334,303.522C173.415,310.326,172.266,319.409,171.474,326.229C170.494,334.677,168.453,345.148,168.493,354.422C168.332,357.670,169.468,364.883,170.940,369.096C172.022,372.191,174.264,377.606,176.148,378.702C177.260,379.350,189.573,381.832,193.816,378.655C199.686,374.260,200.157,368.141,199.572,354.899C198.785,341.368,205.762,329.972,207.424,316.363C208.862,302.871,214.529,276.847,214.329,266.485C214.215,260.588,215.787,256.624,214.268,248.459C213.440,244.642,211.028,237.186,208.123,233.194Z"/>
<path class="path-1" d="M285.925,260.566C297.225,257.016,298.826,271.447,297.630,278.316"/>
<path class="path-1" d="M297.630,278.316C296.863,283.091,290.142,299.712,291.722,302.804"/>
<path class="path-1" d="M291.722,302.804C293.612,307.104,298.626,307.187,302.269,308.909"/>
<path class="path-1" d="M302.269,308.909C310.575,313.342,305.914,310.368,313.457,312.074"/>
<path class="path-1" d="M313.457,312.074C316.670,312.817,324.839,312.863,326.401,315.694"/>
<path class="path-1" d="M326.401,315.694C327.304,317.587,324.031,322.066,324.036,324.034"/>
<path class="path-1" d="M324.036,324.034C323.490,330.431,327.731,337.441,320.843,343.877"/>
<path class="path-1" d="M320.843,343.877C320.186,344.661,315.184,353.669,313.958,354.925"/>
<path class="path-1" d="M313.958,354.925C304.120,363.971,286.999,371.341,274.984,363.472"/>
<path class="path-1" d="M274.984,363.472C270.919,360.482,269.696,354.208,267.553,349.242"/>
<path class="path-1" d="M267.553,349.242C261.348,335.496,257.184,320.792,256.549,305.663"/>
<path class="path-1" d="M256.549,305.663C255.868,297.590,257.271,283.842,261.707,276.559"/>
<path class="path-1" d="M261.707,276.559C263.546,274.152,283.243,261.551,285.925,260.566"/>
<path class="path-2" d="M285.925,260.566C297.225,257.016,298.826,271.447,297.630,278.316C296.863,283.091,290.142,299.712,291.722,302.804C293.612,307.104,298.626,307.187,302.269,308.909C310.575,313.342,305.914,310.368,313.457,312.074C316.670,312.817,324.839,312.863,326.401,315.694C327.304,317.587,324.031,322.066,324.036,324.034C323.490,330.431,327.731,337.441,320.843,343.877C320.186,344.661,315.184,353.669,313.958,354.925C304.120,363.971,286.999,371.341,274.984,363.472C270.919,360.482,269.696,354.208,267.553,349.242C261.348,335.496,257.184,320.792,256.549,305.663C255.868,297.590,257.271,283.842,261.707,276.559C263.546,274.152,283.243,261.551,285.925,260.566Z"/>
<path class="path-1" d="M186.982,267.549C191.525,266.775,201.072,265.702,202.406,270.837"/>
<path class="path-1" d="M202.406,270.837C204.859,275.302,201.140,285.471,200.850,290.134"/>
<path class="path-1" d="M200.850,290.134C197.674,307.668,192.532,324.594,193.894,341.946"/>
<path class="path-1" d="M193.894,341.946C194.411,346.699,195.779,355.686,192.921,360.455"/>
<path class="path-1" d="M192.921,360.455C191.616,362.632,187.464,363.831,186.014,365.341"/>
<path class="path-1" d="M186.014,365.341C183.575,367.836,180.651,359.440,179.740,357.314"/>
<path class="path-1" d="M179.740,357.314C178.624,354.710,178.017,346.778,177.998,344.267"/>
<path class="path-1" d="M177.998,344.267C178.270,339.289,179.676,329.651,179.778,323.365"/>
<path class="path-1" d="M179.778,323.365C179.925,317.184,177.544,310.866,178.326,304.093"/>
<path class="path-1" d="M178.326,304.093C178.539,298.034,179.704,290.881,180.079,284.128"/>
<path class="path-1" d="M180.079,284.128C181.118,280.113,182.902,277.801,182.912,274.869"/>
<path class="path-1" d="M182.912,274.869C182.525,270.518,182.915,268.544,186.982,267.549"/>
<path class="path-2" d="M186.982,267.549C191.525,266.775,201.072,265.702,202.406,270.837C204.859,275.302,201.140,285.471,200.850,290.134C197.674,307.668,192.532,324.594,193.894,341.946C194.411,346.699,195.779,355.686,192.921,360.455C191.616,362.632,187.464,363.831,186.014,365.341C183.575,367.836,180.651,359.440,179.740,357.314C178.624,354.710,178.017,346.778,177.998,344.267C178.270,339.289,179.676,329.651,179.778,323.365C179.925,317.184,177.544,310.866,178.326,304.093C178.539,298.034,179.704,290.881,180.079,284.128C181.118,280.113,182.902,277.801,182.912,274.869C182.525,270.518,182.915,268.544,186.982,267.549Z"/>
<path class="path-1" d="M275.214,229.320C280.395,228.640,289.171,233.429,288.280,239.309"/>
<path class="path-1" d="M288.280,239.309C287.999,242.512,280.889,251.393,276.344,255.283"/>
<path class="path-1" d="M276.344,255.283C273.434,257.773,267.154,260.760,265.175,261.465"/>
<path class="path-1" d="M265.175,261.465C259.179,263.243,258.123,256.947,257.686,252.578"/>
<path class="path-1" d="M257.686,252.578C257.376,247.748,260.321,240.828,263.468,236.940"/>
<path class="path-1" d="M263.468,236.940C266.111,233.676,270.625,229.758,275.214,229.320"/>
<path class="path-2" d="M275.214,229.320C280.395,228.640,289.171,233.429,288.280,239.309C287.999,242.512,280.889,251.393,276.344,255.283C273.434,257.773,267.154,260.760,265.175,261.465C259.179,263.243,258.123,256.947,257.686,252.578C257.376,247.748,260.321,240.828,263.468,236.940C266.111,233.676,270.625,229.758,275.214,229.320Z"/>
<path class="path-1" d="M198.202,238.080C203.305,244.185,208.588,250.313,204.564,253.097"/>
<path class="path-1" d="M204.564,253.097C200.733,255.747,197.778,256.073,189.763,255.866"/>
<path class="path-1" d="M189.763,255.866C178.254,255.568,172.411,239.659,177.164,233.650"/>
<path class="path-1" d="M177.164,233.650C181.166,228.592,192.180,230.874,198.202,238.080"/>
<path class="path-2" d="M198.202,238.080C203.305,244.185,208.588,250.313,204.564,253.097C200.733,255.747,197.778,256.073,189.763,255.866C178.254,255.568,172.411,239.659,177.164,233.650C181.166,228.592,192.180,230.874,198.202,238.080Z"/>
</g>
<g id="left_arm">
<path class="path-0" d="M291.610,459.101C293.408,453.798,300.039,455.365,306.646,458.050C309.789,459.298,324.823,458.248,327.167,460.742C331.369,464.791,326.951,473.284,321.510,475.113C311.485,477.982,288.567,468.404,291.610,459.101M279.516,276.423C280.393,273.226,288.864,263.064,293.897,264.184C296.819,264.834,298.222,269.839,299.220,272.502C301.881,280.818,304.543,289.469,306.872,298.119C313.194,320.741,316.421,343.620,322.177,365.988C324.333,375.392,326.754,387.393,330.000,395.931C333.422,404.621,338.109,402.782,340.474,408.573C341.639,411.636,341.140,417.224,343.136,421.881C346.130,429.201,351.785,433.194,354.446,437.851C356.111,440.512,356.574,442.800,353.117,444.173C351.059,445.775,345.301,447.672,343.093,448.423C335.508,448.937,327.739,449.587,320.298,448.057C311.439,446.625,286.514,439.091,282.209,433.074C274.857,422.409,285.422,410.299,286.825,399.924C287.468,396.918,292.153,352.981,291.567,350.019C290.987,343.156,287.387,337.131,285.841,330.057C284.214,320.430,282.539,310.147,281.179,300.115C280.223,291.877,276.733,285.067,279.516,276.423M305.541,254.536C303.213,249.877,295.893,241.561,289.904,242.890C284.914,244.222,284.249,250.210,283.582,254.203C281.920,264.184,279.924,272.502,279.924,282.149C279.590,289.136,280.257,295.458,280.921,302.111C281.586,311.427,279.590,329.392,279.924,340.038C279.924,349.686,282.253,359.667,281.586,367.985C279.590,387.613,271.273,406.246,271.938,425.874C271.939,435.855,274.600,435.855,276.929,443.840C278.592,449.828,277.263,456.150,279.590,461.805C285.579,476.776,302.880,490.416,319.847,487.091C335.483,484.096,336.150,467.129,344.466,458.146C351.786,450.161,366.424,454.154,368.420,445.835C370.416,438.849,360.501,431.372,357.110,425.874C350.670,416.114,356.726,414.122,353.911,406.620C351.870,401.074,345.682,395.494,342.062,388.655C339.789,385.059,337.446,378.583,335.612,373.973C332.126,364.134,328.885,352.736,326.877,342.034C324.830,329.743,324.310,318.749,320.845,306.103C318.078,295.485,310.200,262.852,305.541,254.536Z"/>
<path class="path-1" d="M293.897,264.184C296.819,264.834,298.222,269.839,299.220,272.502"/>
<path class="path-1" d="M299.220,272.502C301.881,280.818,304.543,289.469,306.872,298.119"/>
<path class="path-1" d="M306.872,298.119C313.194,320.741,316.421,343.620,322.177,365.988"/>
<path class="path-1" d="M322.177,365.988C324.333,375.392,326.754,387.393,330.000,395.931"/>
<path class="path-1" d="M330.000,395.931C333.422,404.621,338.109,402.782,340.474,408.573"/>
<path class="path-1" d="M340.474,408.573C341.639,411.636,341.140,417.224,343.136,421.881"/>
<path class="path-1" d="M343.136,421.881C346.130,429.201,351.785,433.194,354.446,437.851"/>
<path class="path-1" d="M354.446,437.851C356.111,440.512,356.574,442.800,353.117,444.173"/>
<path class="path-1" d="M353.117,444.173C351.059,445.775,345.301,447.672,343.093,448.423"/>
<path class="path-1" d="M343.093,448.423C335.508,448.937,327.739,449.587,320.298,448.057"/>
<path class="path-1" d="M320.298,448.057C311.439,446.625,286.514,439.091,282.209,433.074"/>
<path class="path-1" d="M282.209,433.074C274.857,422.409,285.422,410.299,286.825,399.924"/>
<path class="path-1" d="M286.825,399.924C287.468,396.918,292.153,352.981,291.567,350.019"/>
<path class="path-1" d="M291.567,350.019C290.987,343.156,287.387,337.131,285.841,330.057"/>
<path class="path-1" d="M285.841,330.057C284.214,320.430,282.539,310.147,281.179,300.115"/>
<path class="path-1" d="M281.179,300.115C280.223,291.877,276.733,285.067,279.516,276.423"/>
<path class="path-1" d="M279.516,276.423C280.393,273.226,288.864,263.064,293.897,264.184"/>
<path class="path-2" d="M293.897,264.184C296.819,264.834,298.222,269.839,299.220,272.502C301.881,280.818,304.543,289.469,306.872,298.119C313.194,320.741,316.421,343.620,322.177,365.988C324.333,375.392,326.754,387.393,330.000,395.931C333.422,404.621,338.109,402.782,340.474,408.573C341.639,411.636,341.140,417.224,343.136,421.881C346.130,429.201,351.785,433.194,354.446,437.851C356.111,440.512,356.574,442.800,353.117,444.173C351.059,445.775,345.301,447.672,343.093,448.423C335.508,448.937,327.739,449.587,320.298,448.057C311.439,446.625,286.514,439.091,282.209,433.074C274.857,422.409,285.422,410.299,286.825,399.924C287.468,396.918,292.153,352.981,291.567,350.019C290.987,343.156,287.387,337.131,285.841,330.057C284.214,320.430,282.539,310.147,281.179,300.115C280.223,291.877,276.733,285.067,279.516,276.423C280.393,273.226,288.864,263.064,293.897,264.184Z"/>
<path class="path-15" d="M306.646,458.050C309.789,459.298,324.823,458.248,327.167,460.742"/>
<path class="path-15" d="M327.167,460.742C331.369,464.791,326.951,473.284,321.510,475.113"/>
<path class="path-15" d="M321.510,475.113C311.485,477.982,288.567,468.404,291.610,459.101"/>
<path class="path-15" d="M291.610,459.101C293.408,453.798,300.039,455.365,306.646,458.050"/>
<path class="path-16" d="M306.646,458.050C309.789,459.298,324.823,458.248,327.167,460.742C331.369,464.791,326.951,473.284,321.510,475.113C311.485,477.982,288.567,468.404,291.610,459.101C293.408,453.798,300.039,455.365,306.646,458.050Z"/>
</g>
<g id="bone">
<g id="bone1_clothes">
<path class="path-23" d="M231.058,389.275C231.059,389.269,241.528,331.217,241.529,331.211C241.529,331.217,242.151,390.202,242.151,390.208C242.150,390.208,231.059,389.275,231.058,389.275"/>
</g>
<g id="bone2_clothes">
<path class="path-23" d="M232.636,327.744C232.636,327.736,232.106,255.212,232.106,255.205C232.107,255.212,246.332,326.329,246.333,326.336C246.332,326.337,232.637,327.743,232.636,327.744"/>
</g>
<g id="bone3_neck">
<path class="path-23" d="M237.753,253.745C237.753,253.741,232.525,212.370,232.524,212.365C232.524,212.370,231.163,254.048,231.163,254.052C231.164,254.052,237.753,253.745,237.753,253.745"/>
</g>
<g id="bone4_head">
<path class="path-23" d="M230.446,213.115C230.446,213.107,226.535,135.141,226.535,135.133C226.537,135.141,242.805,211.490,242.806,211.498C242.805,211.498,230.448,213.115,230.446,213.115"/>
</g>
<g id="bone5_left_arm">
<path class="path-23" d="M298.043,255.058C298.046,255.067,325.401,343.395,325.404,343.404C325.400,343.395,283.432,261.001,283.428,260.993C283.429,260.993,298.042,255.059,298.043,255.058"/>
</g>
<g id="bone6_left_arm">
<path class="path-23" d="M300.926,349.517C300.927,349.523,311.891,412.310,311.893,412.316C311.892,412.310,311.325,348.576,311.325,348.569C311.324,348.570,300.927,349.517,300.926,349.517"/>
</g>
<g id="bone7_right_arm">
<path class="path-23" d="M169.118,269.695C169.116,269.706,149.930,383.601,149.929,383.612C149.932,383.601,186.848,274.161,186.852,274.150C186.850,274.149,169.120,269.695,169.118,269.695"/>
</g>
<g id="bone8_right_arm">
<path class="path-23" d="M156.921,379.429C156.924,379.434,185.100,431.866,185.102,431.872C185.099,431.867,146.965,386.164,146.961,386.159C146.962,386.159,156.920,379.430,156.921,379.429"/>
</g>
<g id="bone9_left_leg">
<path class="path-23" d="M271.759,384.101C271.761,384.111,295.335,483.005,295.337,483.015C295.333,483.006,254.365,389.960,254.361,389.951C254.363,389.951,271.757,384.101,271.759,384.101"/>
</g>
<g id="bone10_right_leg">
<path class="path-23" d="M209.407,385.449C209.407,385.459,209.480,489.215,209.480,489.225C209.482,489.215,224.870,386.607,224.872,386.596C224.870,386.596,209.409,385.449,209.407,385.449"/>
</g>
<g id="bone11_hair">
<path class="path-23" d="M234.522,156.817C234.523,156.825,244.550,236.380,244.551,236.388C244.548,236.380,220.132,160.004,220.129,159.996C220.131,159.996,234.521,156.817,234.522,156.817"/>
</g>
<g id="bone12_left_leg_S">
<path class="path-23" d="M434.863,210.662C434.856,210.665,368.156,238.679,368.150,238.682C368.157,238.680,438.553,222.005,438.560,222.004C438.560,222.003,434.863,210.663,434.863,210.662"/>
</g>
<g id="bone13_right_leg_S">
<path class="path-23" d="M496.362,210.775C496.354,210.775,424.110,214.577,424.103,214.577C424.110,214.578,495.997,222.698,496.004,222.699C496.004,222.698,496.362,210.776,496.362,210.775"/>
</g>
<g id="bone14_left_arm_S">
<path class="path-23" d="M555.171,210.548C555.164,210.545,491.577,176.043,491.571,176.040C491.576,176.044,548.631,220.524,548.637,220.529C548.637,220.528,555.170,210.549,555.171,210.548"/>
</g>
<g id="bone15_jacket_S">
<path class="path-23" d="M607.160,209.923C607.153,209.921,537.114,191.807,537.107,191.805C537.113,191.808,603.225,221.184,603.232,221.187C603.232,221.185,607.160,209.924,607.160,209.923"/>
</g>
<g id="bone16_pupils_S">
<path class="path-23" d="M440.060,341.844C440.065,341.839,492.066,291.544,492.072,291.539C492.066,291.543,432.508,332.611,432.502,332.615C432.503,332.616,440.059,341.843,440.060,341.844"/>
</g>
<g id="bone17_eyelids_S">
<path class="path-23" d="M502.309,337.358C502.308,337.351,496.345,265.253,496.344,265.246C496.344,265.253,490.380,337.351,490.380,337.358C490.381,337.358,502.308,337.358,502.309,337.358"/>
</g>
<g id="bone18_face_S">
<path class="path-23" d="M556.669,342.422C556.673,342.416,594.419,280.699,594.423,280.693C594.418,280.698,547.045,335.375,547.041,335.380C547.041,335.381,556.669,342.421,556.669,342.422"/>
</g>
</g>
</g>
<style>
.path-0{fill:#000000;fill-rule:evenodd;stroke:none;}
.path-1{fill:none;stroke:#a60d3f;stroke-width:1;stroke-linecap:butt;stroke-linejoin:round;}
.path-2{fill:#a60d3f;fill-rule:evenodd;stroke:none;}
.path-3{fill:none;stroke:#d88e4b;stroke-width:1;stroke-linecap:butt;stroke-linejoin:round;}
.path-4{fill:#d88e4b;fill-rule:evenodd;stroke:none;}
.path-5{fill:none;stroke:#6e2353;stroke-width:1;stroke-linecap:butt;stroke-linejoin:round;}
.path-6{fill:#6e2353;fill-rule:evenodd;stroke:none;}
.path-7{fill:none;stroke:#392966;stroke-width:1;stroke-linecap:butt;stroke-linejoin:round;}
.path-8{fill:#392966;fill-rule:evenodd;stroke:none;}
.path-9{fill:none;stroke:#cc9bc5;stroke-width:1;stroke-linecap:butt;stroke-linejoin:round;}
.path-10{fill:#cc9bc5;fill-rule:evenodd;stroke:none;}
.path-11{fill:none;stroke:#620527;stroke-width:1;stroke-linecap:butt;stroke-linejoin:round;}
.path-12{fill:#620527;fill-rule:evenodd;stroke:none;}
.path-13{fill:none;stroke:#6a3661;stroke-width:1;stroke-linecap:butt;stroke-linejoin:round;}
.path-14{fill:#6a3661;fill-rule:evenodd;stroke:none;}
.path-15{fill:none;stroke:#f8a087;stroke-width:1;stroke-linecap:butt;stroke-linejoin:round;}
.path-16{fill:#f8a087;fill-rule:evenodd;stroke:none;}
.path-17{fill:none;stroke:#ffffff;stroke-width:1;stroke-linecap:butt;stroke-linejoin:round;}
.path-18{fill:#ffffff;fill-rule:evenodd;stroke:none;}
.path-19{fill:none;stroke:#d89f4a;stroke-width:1;stroke-linecap:butt;stroke-linejoin:round;}
.path-20{fill:#d89f4a;fill-rule:evenodd;stroke:none;}
.path-21{fill:none;stroke:#fafd5b;stroke-width:1;stroke-linecap:butt;stroke-linejoin:round;}
.path-22{fill:#fafd5b;fill-rule:evenodd;stroke:none;}
.path-23{fill:none;stroke:#00ff42;stroke-width:8;stroke-linecap:round;stroke-linejoin:round;}
.path-24{fill:none;stroke:#000000;stroke-width:1;stroke-linecap:butt;stroke-linejoin:round;}
.path-25{fill:none;stroke:#ececec;stroke-width:1;stroke-linecap:butt;stroke-linejoin:round;}
.path-26{fill:#ececec;fill-rule:evenodd;stroke:none;}
</style>
</svg>
