<svg version="1.1" id="Frame_222" xmlns="http://www.w3.org/2000/svg" xmlns:xlink="http://www.w3.org/1999/xlink" width="480px" height="720px">
<g id="main_bone">
<g id="right_arm">
<path class="path-0" d="M174.126,270.172C175.458,267.511,178.075,262.017,181.778,260.525C188.182,257.943,193.652,263.933,194.431,268.509C196.093,276.447,190.936,287.396,188.470,295.289C182.390,314.329,175.637,333.084,171.132,352.015C170.600,355.317,165.808,376.634,165.808,373.973C165.476,380.626,172.130,386.283,174.459,391.939C177.454,399.590,174.791,406.910,172.795,413.897C168.138,428.535,168.471,433.858,167.804,448.165C167.804,450.492,167.473,458.146,163.812,458.146C160.487,458.146,160.153,452.157,159.488,449.828C159.155,447.167,156.825,441.510,157.492,439.182C157.823,435.190,162.483,436.188,157.492,427.870C151.170,417.555,139.526,409.240,136.532,395.931C134.536,385.285,140.191,375.969,143.186,365.988C149.508,344.695,156.494,323.404,163.812,302.111C167.805,291.132,168.802,281.484,174.126,270.172M193.754,262.188C193.755,253.538,190.761,245.885,180.115,249.546C163.481,255.200,158.822,281.484,154.165,296.122C147.512,316.084,141.855,336.046,136.199,356.007C133.870,364.657,130.544,368.982,129.212,373.973C127.549,379.628,127.881,388.280,128.214,393.935C128.214,411.567,133.869,412.234,140.856,425.874C144.517,433.859,140.525,438.849,142.852,445.835C144.517,450.492,148.176,453.820,150.837,457.813C153.166,461.805,153.499,464.135,155.162,467.793C157.158,472.119,163.481,481.767,169.136,479.771C173.793,478.108,173.793,469.790,174.126,465.797C174.459,459.809,178.119,436.853,179.450,429.866C181.778,418.554,187.435,406.245,185.770,393.935C184.440,384.619,176.122,377.965,176.456,367.985C176.787,362.661,180.115,354.011,181.113,348.023C182.776,338.375,182.776,328.061,184.772,318.081C188.099,300.448,194.421,280.487,193.754,262.188Z"/>
<path class="path-1" d="M181.778,260.525C188.182,257.943,193.652,263.933,194.431,268.509"/>
<path class="path-1" d="M194.431,268.509C196.093,276.447,190.936,287.396,188.470,295.289"/>
<path class="path-1" d="M188.470,295.289C182.390,314.329,175.637,333.084,171.132,352.015"/>
<path class="path-1" d="M171.132,352.015C170.600,355.317,165.808,376.634,165.808,373.973"/>
<path class="path-1" d="M165.808,373.973C165.476,380.626,172.130,386.283,174.459,391.939"/>
<path class="path-1" d="M174.459,391.939C177.454,399.590,174.791,406.910,172.795,413.897"/>
<path class="path-1" d="M172.795,413.897C168.138,428.535,168.471,433.858,167.804,448.165"/>
<path class="path-1" d="M167.804,448.165C167.804,450.492,167.473,458.146,163.812,458.146"/>
<path class="path-1" d="M163.812,458.146C160.487,458.146,160.153,452.157,159.488,449.828"/>
<path class="path-1" d="M159.488,449.828C159.155,447.167,156.825,441.510,157.492,439.182"/>
<path class="path-1" d="M157.492,439.182C157.823,435.190,162.483,436.188,157.492,427.870"/>
<path class="path-1" d="M157.492,427.870C151.170,417.555,139.526,409.240,136.532,395.931"/>
<path class="path-1" d="M136.532,395.931C134.536,385.285,140.191,375.969,143.186,365.988"/>
<path class="path-1" d="M143.186,365.988C149.508,344.695,156.494,323.404,163.812,302.111"/>
<path class="path-1" d="M163.812,302.111C167.805,291.132,168.802,281.484,174.126,270.172"/>
<path class="path-1" d="M174.126,270.172C175.458,267.511,178.075,262.017,181.778,260.525"/>
<path class="path-2" d="M181.778,260.525C188.182,257.943,193.652,263.933,194.431,268.509C196.093,276.447,190.936,287.396,188.470,295.289C182.390,314.329,175.637,333.084,171.132,352.015C170.600,355.317,165.808,376.634,165.808,373.973C165.476,380.626,172.130,386.283,174.459,391.939C177.454,399.590,174.791,406.910,172.795,413.897C168.138,428.535,168.471,433.858,167.804,448.165C167.804,450.492,167.473,458.146,163.812,458.146C160.487,458.146,160.153,452.157,159.488,449.828C159.155,447.167,156.825,441.510,157.492,439.182C157.823,435.190,162.483,436.188,157.492,427.870C151.170,417.555,139.526,409.240,136.532,395.931C134.536,385.285,140.191,375.969,143.186,365.988C149.508,344.695,156.494,323.404,163.812,302.111C167.805,291.132,168.802,281.484,174.126,270.172C175.458,267.511,178.075,262.017,181.778,260.525Z"/>
</g>
<g id="layer_left_leg">
<g id="left_heel">
<path class="path-0" d="M255.863,629.503C248.837,617.906,262.746,598.734,274.076,596.462C291.516,592.777,304.538,618.582,302.370,624.835C298.748,634.308,282.210,634.573,273.566,634.622C268.939,634.496,258.092,633.358,255.863,629.503M302.352,595.345C292.476,585.663,269.891,587.482,258.958,593.734C236.005,606.285,231.100,648.260,264.958,647.217C276.725,646.910,302.686,644.600,309.665,637.394C315.794,631.793,313.859,622.314,311.990,614.779C310.083,608.669,306.995,600.029,302.352,595.345Z"/>
<path class="path-3" d="M274.076,596.462C291.516,592.777,304.538,618.582,302.370,624.835"/>
<path class="path-3" d="M302.370,624.835C298.748,634.308,282.210,634.573,273.566,634.622"/>
<path class="path-3" d="M273.566,634.622C268.939,634.496,258.092,633.358,255.863,629.503"/>
<path class="path-3" d="M255.863,629.503C248.837,617.906,262.746,598.734,274.076,596.462"/>
<path class="path-4" d="M274.076,596.462C291.516,592.777,304.538,618.582,302.370,624.835C298.748,634.308,282.210,634.573,273.566,634.622C268.939,634.496,258.092,633.358,255.863,629.503C248.837,617.906,262.746,598.734,274.076,596.462Z"/>
</g>
<g id="left_leg">
<path class="path-0" d="M238.898,405.789C240.604,401.168,250.098,404.782,253.973,404.581C259.846,404.560,273.072,402.463,277.855,406.066C286.438,412.094,288.468,441.114,288.878,451.196C289.253,482.567,291.161,511.970,291.981,542.254C292.003,548.971,291.927,555.907,292.115,562.490C292.482,567.717,291.226,574.318,294.519,578.000C295.754,579.993,300.303,579.061,300.283,581.235C299.673,589.763,291.983,584.925,287.683,589.227C279.968,596.485,265.807,603.323,256.535,600.760C250.125,599.217,239.383,591.674,236.984,585.628C234.661,579.773,233.158,572.679,232.143,566.585C227.573,539.163,243.283,481.235,236.969,451.564C232.953,432.690,241.791,431.824,248.859,418.713C250.003,416.592,238.379,419.085,236.730,417.280C234.439,415.143,237.683,408.599,238.898,405.789M285.012,397.243C278.729,392.462,261.295,394.525,253.973,394.933C249.979,395.140,237.470,392.116,234.523,393.929C216.631,404.938,223.696,444.839,225.629,461.859C225.851,466.629,224.622,489.393,224.263,495.811C224.344,523.391,218.272,546.960,219.962,574.488C220.334,582.232,219.857,589.902,222.605,597.038C229.867,615.502,247.075,618.660,269.824,617.268C281.803,616.546,308.080,611.256,316.566,588.699C319.998,579.564,314.308,567.288,312.915,564.291C310.673,559.466,307.335,554.784,306.068,549.225C301.411,531.621,307.936,512.846,306.613,494.578C304.946,471.253,304.626,412.235,285.012,397.243Z"/>
<path class="path-7" d="M253.973,404.581C259.846,404.560,273.072,402.463,277.855,406.066"/>
<path class="path-7" d="M277.855,406.066C286.438,412.094,288.468,441.114,288.878,451.196"/>
<path class="path-7" d="M288.878,451.196C289.253,482.567,291.161,511.970,291.981,542.254"/>
<path class="path-7" d="M291.981,542.254C292.003,548.971,291.927,555.907,292.115,562.490"/>
<path class="path-7" d="M292.115,562.490C292.482,567.717,291.226,574.318,294.519,578.000"/>
<path class="path-7" d="M294.519,578.000C295.754,579.993,300.303,579.061,300.283,581.235"/>
<path class="path-7" d="M300.283,581.235C299.673,589.763,291.983,584.925,287.683,589.227"/>
<path class="path-7" d="M287.683,589.227C279.968,596.485,265.807,603.323,256.535,600.760"/>
<path class="path-7" d="M256.535,600.760C250.125,599.217,239.383,591.674,236.984,585.628"/>
<path class="path-7" d="M236.984,585.628C234.661,579.773,233.158,572.679,232.143,566.585"/>
<path class="path-7" d="M232.143,566.585C227.573,539.163,243.283,481.235,236.969,451.564"/>
<path class="path-7" d="M236.969,451.564C232.953,432.690,241.791,431.824,248.859,418.713"/>
<path class="path-7" d="M248.859,418.713C250.003,416.592,238.379,419.085,236.730,417.280"/>
<path class="path-7" d="M236.730,417.280C234.439,415.143,237.683,408.599,238.898,405.789"/>
<path class="path-7" d="M238.898,405.789C240.604,401.168,250.098,404.782,253.973,404.581"/>
<path class="path-8" d="M253.973,404.581C259.846,404.560,273.072,402.463,277.855,406.066C286.438,412.094,288.468,441.114,288.878,451.196C289.253,482.567,291.161,511.970,291.981,542.254C292.003,548.971,291.927,555.907,292.115,562.490C292.482,567.717,291.226,574.318,294.519,578.000C295.754,579.993,300.303,579.061,300.283,581.235C299.673,589.763,291.983,584.925,287.683,589.227C279.968,596.485,265.807,603.323,256.535,600.760C250.125,599.217,239.383,591.674,236.984,585.628C234.661,579.773,233.158,572.679,232.143,566.585C227.573,539.163,243.283,481.235,236.969,451.564C232.953,432.690,241.791,431.824,248.859,418.713C250.003,416.592,238.379,419.085,236.730,417.280C234.439,415.143,237.683,408.599,238.898,405.789C240.604,401.168,250.098,404.782,253.973,404.581Z"/>
</g>
<g id="left_toe">
<path class="path-0" d="M252.012,659.246C225.303,654.292,230.689,619.498,250.891,612.621C271.897,605.608,291.492,617.490,297.503,630.252C301.244,637.032,302.895,644.400,299.258,651.439C291.498,663.820,264.878,661.550,252.012,659.246M313.517,625.558C310.278,611.451,298.691,598.593,287.123,594.783C259.115,585.677,234.442,593.346,225.243,618.683C219.419,633.201,222.671,649.611,232.390,661.868C240.061,670.946,266.579,672.202,277.892,671.207C287.919,669.624,300.425,666.967,307.367,658.500C312.330,652.626,315.151,632.896,313.517,625.558Z"/>
<path class="path-3" d="M250.891,612.621C271.897,605.608,291.492,617.490,297.503,630.252"/>
<path class="path-3" d="M297.503,630.252C301.244,637.032,302.895,644.400,299.258,651.439"/>
<path class="path-3" d="M299.258,651.439C291.498,663.820,264.878,661.550,252.012,659.246"/>
<path class="path-3" d="M252.012,659.246C225.303,654.292,230.689,619.498,250.891,612.621"/>
<path class="path-4" d="M250.891,612.621C271.897,605.608,291.492,617.490,297.503,630.252C301.244,637.032,302.895,644.400,299.258,651.439C291.498,663.820,264.878,661.550,252.012,659.246C225.303,654.292,230.689,619.498,250.891,612.621Z"/>
</g>
<g id="left_sole">
<path class="path-0" d="M255.898,674.297C244.934,673.905,241.625,659.915,240.224,665.056C239.327,668.348,248.312,671.444,252.401,672.604C261.404,675.506,276.782,674.146,285.791,669.823C288.728,668.693,298.140,665.928,298.163,666.178C298.533,670.261,287.623,670.649,283.968,671.087C280.496,671.853,256.808,674.121,255.898,674.297M240.542,665.390C245.981,663.450,256.994,667.609,261.172,668.736C277.815,673.226,287.488,663.947,295.519,663.519C296.299,663.486,298.952,661.813,299.372,663.978C300.818,671.435,269.592,676.824,254.964,672.141C248.007,670.594,238.572,666.092,240.542,665.390M304.176,656.718C300.962,653.891,283.284,661.328,265.945,661.623C257.482,661.792,236.349,650.192,230.715,659.861C229.534,661.899,230.242,669.256,231.948,670.812C243.374,681.557,296.937,678.115,303.126,673.075C305.188,671.396,308.276,660.324,304.176,656.718Z"/>
<path class="path-5" d="M240.224,665.056C239.327,668.348,248.312,671.444,252.401,672.604"/>
<path class="path-5" d="M252.401,672.604C261.404,675.506,276.782,674.146,285.791,669.823"/>
<path class="path-5" d="M285.791,669.823C288.728,668.693,298.140,665.928,298.163,666.178"/>
<path class="path-5" d="M298.163,666.178C298.533,670.261,287.623,670.649,283.968,671.087"/>
<path class="path-5" d="M283.968,671.087C280.496,671.853,256.808,674.121,255.898,674.297"/>
<path class="path-5" d="M255.898,674.297C244.934,673.905,241.625,659.915,240.224,665.056"/>
<path class="path-6" d="M240.224,665.056C239.327,668.348,248.312,671.444,252.401,672.604C261.404,675.506,276.782,674.146,285.791,669.823C288.728,668.693,298.140,665.928,298.163,666.178C298.533,670.261,287.623,670.649,283.968,671.087C280.496,671.853,256.808,674.121,255.898,674.297C244.934,673.905,241.625,659.915,240.224,665.056Z"/>
<path class="path-5" d="M261.172,668.736C277.815,673.226,287.488,663.947,295.519,663.519"/>
<path class="path-5" d="M295.519,663.519C296.299,663.486,298.952,661.813,299.372,663.978"/>
<path class="path-5" d="M299.372,663.978C300.818,671.435,269.592,676.824,254.964,672.141"/>
<path class="path-5" d="M254.964,672.141C248.007,670.594,238.572,666.092,240.542,665.390"/>
<path class="path-5" d="M240.542,665.390C245.981,663.450,256.994,667.609,261.172,668.736"/>
<path class="path-6" d="M261.172,668.736C277.815,673.226,287.488,663.947,295.519,663.519C296.299,663.486,298.952,661.813,299.372,663.978C300.818,671.435,269.592,676.824,254.964,672.141C248.007,670.594,238.572,666.092,240.542,665.390C245.981,663.450,256.994,667.609,261.172,668.736Z"/>
</g>
</g>
<g id="layer_right_leg">
<g id="right_heel">
<path class="path-0" d="M183.148,621.996C184.031,605.547,185.158,592.761,205.234,589.869C214.166,588.419,231.174,591.270,236.081,599.910C238.667,604.210,237.859,610.518,238.106,615.111C238.573,622.602,243.165,637.044,232.612,638.811C231.933,638.993,213.222,639.349,207.382,639.512C199.967,640.409,192.243,640.990,186.876,635.856C184.085,632.597,182.862,625.884,183.148,621.996M245.622,598.189C241.698,587.755,227.388,581.812,217.290,583.273C204.095,585.019,190.591,580.677,182.000,593.026C175.283,602.679,174.533,620.423,176.549,631.680C177.306,636.860,180.567,646.309,184.869,649.178C188.024,651.184,192.899,650.608,196.628,650.611C214.773,650.914,247.147,657.033,246.779,629.959C246.609,622.923,247.694,603.758,245.622,598.189Z"/>
<path class="path-3" d="M205.234,589.869C214.166,588.419,231.174,591.270,236.081,599.910"/>
<path class="path-3" d="M236.081,599.910C238.667,604.210,237.859,610.518,238.106,615.111"/>
<path class="path-3" d="M238.106,615.111C238.573,622.602,243.165,637.044,232.612,638.811"/>
<path class="path-3" d="M232.612,638.811C231.933,638.993,213.222,639.349,207.382,639.512"/>
<path class="path-3" d="M207.382,639.512C199.967,640.409,192.243,640.990,186.876,635.856"/>
<path class="path-3" d="M186.876,635.856C184.085,632.597,182.862,625.884,183.148,621.996"/>
<path class="path-3" d="M183.148,621.996C184.031,605.547,185.158,592.761,205.234,589.869"/>
<path class="path-4" d="M205.234,589.869C214.166,588.419,231.174,591.270,236.081,599.910C238.667,604.210,237.859,610.518,238.106,615.111C238.573,622.602,243.165,637.044,232.612,638.811C231.933,638.993,213.222,639.349,207.382,639.512C199.967,640.409,192.243,640.990,186.876,635.856C184.085,632.597,182.862,625.884,183.148,621.996C184.031,605.547,185.158,592.761,205.234,589.869Z"/>
</g>
<g id="right_leg">
<path class="path-0" d="M182.834,404.875C186.525,392.971,202.237,390.118,212.784,393.055C218.619,394.551,228.401,397.405,231.565,402.929C232.870,405.209,233.373,409.442,231.989,411.675C229.488,415.711,214.482,412.615,216.993,416.738C221.409,424.252,231.886,414.974,236.112,418.907C237.974,420.640,238.145,424.124,238.517,427.040C242.499,449.128,235.435,472.645,235.323,494.418C235.217,501.473,233.645,511.877,234.856,518.303C237.271,533.992,235.256,537.291,235.576,546.708C235.475,550.230,233.605,568.085,234.760,572.670C236.096,577.563,239.659,582.248,240.069,587.328C240.757,595.842,227.898,606.682,220.197,608.820C211.317,611.097,184.192,608.916,175.988,604.300C172.893,602.675,169.100,598.810,167.911,595.257C166.576,591.880,165.324,576.086,166.467,572.314C168.712,565.793,171.288,564.503,173.517,556.741C175.820,547.567,177.970,537.618,177.656,527.943C176.676,509.363,177.981,479.350,180.293,465.985C181.397,458.522,179.900,433.350,180.997,426.440C182.941,414.866,180.980,412.614,182.834,404.875M208.062,381.294C202.406,379.297,198.068,373.937,192.092,375.969C190.252,376.770,187.037,379.065,185.732,380.393C169.755,394.167,170.977,407.999,170.934,427.586C170.626,434.595,170.705,441.891,169.986,448.596C169.275,454.170,167.333,458.708,165.929,463.803C165.060,468.001,164.329,472.503,164.043,477.796C163.892,482.902,165.157,488.914,165.178,497.590C164.496,507.407,165.121,516.688,164.593,526.080C164.444,532.613,161.141,547.711,160.216,552.677C157.909,559.642,154.756,567.734,153.069,574.458C151.363,583.410,152.465,592.941,155.856,600.889C157.391,605.084,160.241,610.099,163.399,612.868C165.458,614.674,168.241,615.678,170.711,616.520C179.065,619.320,186.978,620.690,195.867,620.945C201.794,621.161,207.650,619.396,213.787,620.007C214.806,619.953,223.000,622.079,224.639,622.236C227.627,622.350,231.853,619.681,234.589,618.095C238.288,615.674,244.885,615.072,247.780,611.569C250.045,608.825,250.465,604.972,251.594,601.595C257.970,581.594,252.884,570.730,250.476,552.551C249.132,542.406,246.787,521.544,246.939,510.211C246.841,496.487,249.418,483.208,250.238,469.083C250.582,464.674,250.991,459.386,251.780,454.407C252.489,449.369,251.481,445.278,251.298,440.271C250.928,436.408,251.227,424.031,250.646,419.885C250.274,416.185,250.314,411.567,248.983,407.908C245.324,398.592,231.351,388.280,222.034,385.285C217.377,383.621,212.387,383.290,208.062,381.294Z"/>
<path class="path-7" d="M212.784,393.055C218.619,394.551,228.401,397.405,231.565,402.929"/>
<path class="path-7" d="M231.565,402.929C232.870,405.209,233.373,409.442,231.989,411.675"/>
<path class="path-7" d="M231.989,411.675C229.488,415.711,214.482,412.615,216.993,416.738"/>
<path class="path-7" d="M216.993,416.738C221.409,424.252,231.886,414.974,236.112,418.907"/>
<path class="path-7" d="M236.112,418.907C237.974,420.640,238.145,424.124,238.517,427.040"/>
<path class="path-7" d="M238.517,427.040C242.499,449.128,235.435,472.645,235.323,494.418"/>
<path class="path-7" d="M235.323,494.418C235.217,501.473,233.645,511.877,234.856,518.303"/>
<path class="path-7" d="M234.856,518.303C237.271,533.992,235.256,537.291,235.576,546.708"/>
<path class="path-7" d="M235.576,546.708C235.475,550.230,233.605,568.085,234.760,572.670"/>
<path class="path-7" d="M234.760,572.670C236.096,577.563,239.659,582.248,240.069,587.328"/>
<path class="path-7" d="M240.069,587.328C240.757,595.842,227.898,606.682,220.197,608.820"/>
<path class="path-7" d="M220.197,608.820C211.317,611.097,184.192,608.916,175.988,604.300"/>
<path class="path-7" d="M175.988,604.300C172.893,602.675,169.100,598.810,167.911,595.257"/>
<path class="path-7" d="M167.911,595.257C166.576,591.880,165.324,576.086,166.467,572.314"/>
<path class="path-7" d="M166.467,572.314C168.712,565.793,171.288,564.503,173.517,556.741"/>
<path class="path-7" d="M173.517,556.741C175.820,547.567,177.970,537.618,177.656,527.943"/>
<path class="path-7" d="M177.656,527.943C176.676,509.363,177.981,479.350,180.293,465.985"/>
<path class="path-7" d="M180.293,465.985C181.397,458.522,179.900,433.350,180.997,426.440"/>
<path class="path-7" d="M180.997,426.440C182.941,414.866,180.980,412.614,182.834,404.875"/>
<path class="path-7" d="M182.834,404.875C186.525,392.971,202.237,390.118,212.784,393.055"/>
<path class="path-8" d="M212.784,393.055C218.619,394.551,228.401,397.405,231.565,402.929C232.870,405.209,233.373,409.442,231.989,411.675C229.488,415.711,214.482,412.615,216.993,416.738C221.409,424.252,231.886,414.974,236.112,418.907C237.974,420.640,238.145,424.124,238.517,427.040C242.499,449.128,235.435,472.645,235.323,494.418C235.217,501.473,233.645,511.877,234.856,518.303C237.271,533.992,235.256,537.291,235.576,546.708C235.475,550.230,233.605,568.085,234.760,572.670C236.096,577.563,239.659,582.248,240.069,587.328C240.757,595.842,227.898,606.682,220.197,608.820C211.317,611.097,184.192,608.916,175.988,604.300C172.893,602.675,169.100,598.810,167.911,595.257C166.576,591.880,165.324,576.086,166.467,572.314C168.712,565.793,171.288,564.503,173.517,556.741C175.820,547.567,177.970,537.618,177.656,527.943C176.676,509.363,177.981,479.350,180.293,465.985C181.397,458.522,179.900,433.350,180.997,426.440C182.941,414.866,180.980,412.614,182.834,404.875C186.525,392.971,202.237,390.118,212.784,393.055Z"/>
</g>
<g id="right_toe">
<path class="path-0" d="M165.528,643.625C166.931,630.111,172.265,612.686,188.723,610.348C192.506,609.609,197.831,611.408,202.028,612.273C223.518,616.646,231.842,621.513,232.490,643.625C232.545,649.710,233.455,657.263,228.901,662.140C224.390,666.886,203.138,664.229,196.647,664.512C185.177,665.261,175.296,670.747,167.366,660.744C162.592,654.593,164.786,650.870,165.528,643.625M241.154,620.416C234.064,606.239,201.116,597.763,186.273,600.495C164.114,604.702,157.004,622.139,155.541,640.954C154.969,647.659,154.072,655.023,157.383,660.975C158.572,663.112,161.096,665.979,162.852,667.692C176.014,681.646,185.717,679.892,203.604,679.797C213.064,679.905,228.813,679.149,236.427,672.833C242.164,667.606,242.724,661.886,242.993,654.578C242.999,647.537,244.024,625.631,241.154,620.416Z"/>
<path class="path-3" d="M188.723,610.348C192.506,609.609,197.831,611.408,202.028,612.273"/>
<path class="path-3" d="M202.028,612.273C223.518,616.646,231.842,621.513,232.490,643.625"/>
<path class="path-3" d="M232.490,643.625C232.545,649.710,233.455,657.263,228.901,662.140"/>
<path class="path-3" d="M228.901,662.140C224.390,666.886,203.138,664.229,196.647,664.512"/>
<path class="path-3" d="M196.647,664.512C185.177,665.261,175.296,670.747,167.366,660.744"/>
<path class="path-3" d="M167.366,660.744C162.592,654.593,164.786,650.870,165.528,643.625"/>
<path class="path-3" d="M165.528,643.625C166.931,630.111,172.265,612.686,188.723,610.348"/>
<path class="path-4" d="M188.723,610.348C192.506,609.609,197.831,611.408,202.028,612.273C223.518,616.646,231.842,621.513,232.490,643.625C232.545,649.710,233.455,657.263,228.901,662.140C224.390,666.886,203.138,664.229,196.647,664.512C185.177,665.261,175.296,670.747,167.366,660.744C162.592,654.593,164.786,650.870,165.528,643.625C166.931,630.111,172.265,612.686,188.723,610.348Z"/>
</g>
<g id="right_sole">
<path class="path-0" d="M184.265,676.396C185.817,676.703,201.293,676.428,203.057,676.427C204.463,676.447,212.904,676.603,214.103,676.529C214.854,676.499,222.351,676.155,222.924,676.611C222.375,676.172,214.358,677.622,213.887,677.638C212.947,677.701,186.559,677.541,186.247,677.652C185.060,677.681,173.804,676.737,173.043,675.777C174.262,675.253,182.484,676.041,184.265,676.396M224.248,670.836C224.303,671.118,222.676,672.869,222.250,672.873C221.406,672.886,207.983,674.381,206.871,674.135C205.607,674.084,196.678,674.630,195.538,674.618C193.300,674.594,175.260,674.161,173.337,673.042C173.092,672.836,172.277,671.539,172.318,671.363C172.386,671.081,179.522,671.180,180.621,671.135C182.344,671.064,196.431,670.729,198.199,670.707C200.115,670.682,215.295,670.855,217.257,670.692C217.564,670.674,224.111,670.147,224.248,670.836M230.006,665.517C218.626,662.279,209.693,666.833,199.292,667.173C191.790,667.453,177.395,665.849,168.254,667.628C166.779,667.915,163.960,667.703,163.508,669.226C162.947,671.131,166.601,675.239,168.928,676.775C171.812,678.678,177.827,678.719,180.212,679.084C192.305,681.384,207.707,680.242,220.129,679.700C229.286,679.306,231.570,675.654,232.516,671.257C232.912,669.420,233.579,666.484,230.006,665.517Z"/>
<path class="path-24" d="M184.265,676.396C185.817,676.703,201.293,676.428,203.057,676.427"/>
<path class="path-24" d="M203.057,676.427C204.463,676.447,212.904,676.603,214.103,676.529"/>
<path class="path-24" d="M214.103,676.529C214.854,676.499,222.351,676.155,222.924,676.611"/>
<path class="path-24" d="M222.924,676.611C222.375,676.172,214.358,677.622,213.887,677.638"/>
<path class="path-24" d="M213.887,677.638C212.947,677.701,186.559,677.541,186.247,677.652"/>
<path class="path-24" d="M186.247,677.652C185.060,677.681,173.804,676.737,173.043,675.777"/>
<path class="path-24" d="M173.043,675.777C174.262,675.253,182.484,676.041,184.265,676.396"/>
<path class="path-0" d="M184.265,676.396C185.817,676.703,201.293,676.428,203.057,676.427C204.463,676.447,212.904,676.603,214.103,676.529C214.854,676.499,222.351,676.155,222.924,676.611C222.375,676.172,214.358,677.622,213.887,677.638C212.947,677.701,186.559,677.541,186.247,677.652C185.060,677.681,173.804,676.737,173.043,675.777C174.262,675.253,182.484,676.041,184.265,676.396Z"/>
<path class="path-5" d="M180.621,671.135C182.344,671.064,196.431,670.729,198.199,670.707"/>
<path class="path-5" d="M198.199,670.707C200.115,670.682,215.295,670.855,217.257,670.692"/>
<path class="path-5" d="M217.257,670.692C217.564,670.674,224.111,670.147,224.248,670.836"/>
<path class="path-5" d="M224.248,670.836C224.303,671.118,222.676,672.869,222.250,672.873"/>
<path class="path-5" d="M222.250,672.873C221.406,672.886,207.983,674.381,206.871,674.135"/>
<path class="path-5" d="M206.871,674.135C205.607,674.084,196.678,674.630,195.538,674.618"/>
<path class="path-5" d="M195.538,674.618C193.300,674.594,175.260,674.161,173.337,673.042"/>
<path class="path-5" d="M173.337,673.042C173.092,672.836,172.277,671.539,172.318,671.363"/>
<path class="path-5" d="M172.318,671.363C172.386,671.081,179.522,671.180,180.621,671.135"/>
<path class="path-6" d="M180.621,671.135C182.344,671.064,196.431,670.729,198.199,670.707C200.115,670.682,215.295,670.855,217.257,670.692C217.564,670.674,224.111,670.147,224.248,670.836C224.303,671.118,222.676,672.869,222.250,672.873C221.406,672.886,207.983,674.381,206.871,674.135C205.607,674.084,196.678,674.630,195.538,674.618C193.300,674.594,175.260,674.161,173.337,673.042C173.092,672.836,172.277,671.539,172.318,671.363C172.386,671.081,179.522,671.180,180.621,671.135Z"/>
</g>
</g>
<g id="hat_brim">
<path class="path-0" d="M291.493,137.289C295.152,131.301,304.135,114.998,312.119,114.998C317.443,114.998,328.422,124.647,334.077,127.642C339.068,130.636,344.391,133.297,350.047,135.958C353.259,137.628,356.475,139.291,359.694,140.948C374.001,148.269,370.008,154.591,361.690,153.259C343.060,149.931,340.066,151.263,322.100,141.946C319.771,140.948,313.782,137.623,312.784,141.946C311.455,146.937,320.438,151.263,324.097,152.926C330.750,156.586,338.070,160.579,346.054,161.244C348.384,161.577,356.369,160.910,357.698,163.239C359.694,166.567,350.047,175.217,348.051,177.213C344.723,180.207,341.397,183.201,338.070,185.531C333.079,188.856,327.755,191.851,322.100,192.849C311.455,194.180,278.185,178.876,277.186,167.232C276.522,160.579,287.500,143.611,291.493,137.289M324.097,110.674C319.106,106.348,315.447,100.026,308.127,103.354C302.803,105.684,297.148,113.335,293.489,117.328C279.847,133.962,267.539,153.592,268.204,175.216C268.537,188.856,273.194,188.525,284.173,193.847C300.807,202.165,322.100,204.826,340.066,196.510C351.710,191.186,372.005,173.221,377.329,161.244C378.991,157.251,381.985,148.268,379.656,143.611C376.995,137.954,354.704,128.307,348.051,124.648C340.066,120.322,331.083,116.329,324.097,110.674Z"/>
<path class="path-9" d="M312.119,114.998C317.443,114.998,328.422,124.647,334.077,127.642"/>
<path class="path-9" d="M334.077,127.642C339.068,130.636,344.391,133.297,350.047,135.958"/>
<path class="path-9" d="M350.047,135.958C353.259,137.628,356.475,139.291,359.694,140.948"/>
<path class="path-9" d="M359.694,140.948C374.001,148.269,370.008,154.591,361.690,153.259"/>
<path class="path-9" d="M361.690,153.259C343.060,149.931,340.066,151.263,322.100,141.946"/>
<path class="path-9" d="M322.100,141.946C319.771,140.948,313.782,137.623,312.784,141.946"/>
<path class="path-9" d="M312.784,141.946C311.455,146.937,320.438,151.263,324.097,152.926"/>
<path class="path-9" d="M324.097,152.926C330.750,156.586,338.070,160.579,346.054,161.244"/>
<path class="path-9" d="M346.054,161.244C348.384,161.577,356.369,160.910,357.698,163.239"/>
<path class="path-9" d="M357.698,163.239C359.694,166.567,350.047,175.217,348.051,177.213"/>
<path class="path-9" d="M348.051,177.213C344.723,180.207,341.397,183.201,338.070,185.531"/>
<path class="path-9" d="M338.070,185.531C333.079,188.856,327.755,191.851,322.100,192.849"/>
<path class="path-9" d="M322.100,192.849C311.455,194.180,278.185,178.876,277.186,167.232"/>
<path class="path-9" d="M277.186,167.232C276.522,160.579,287.500,143.611,291.493,137.289"/>
<path class="path-9" d="M291.493,137.289C295.152,131.301,304.135,114.998,312.119,114.998"/>
<path class="path-10" d="M312.119,114.998C317.443,114.998,328.422,124.647,334.077,127.642C339.068,130.636,344.391,133.297,350.047,135.958C353.259,137.628,356.475,139.291,359.694,140.948C374.001,148.269,370.008,154.591,361.690,153.259C343.060,149.931,340.066,151.263,322.100,141.946C319.771,140.948,313.782,137.623,312.784,141.946C311.455,146.937,320.438,151.263,324.097,152.926C330.750,156.586,338.070,160.579,346.054,161.244C348.384,161.577,356.369,160.910,357.698,163.239C359.694,166.567,350.047,175.217,348.051,177.213C344.723,180.207,341.397,183.201,338.070,185.531C333.079,188.856,327.755,191.851,322.100,192.849C311.455,194.180,278.185,178.876,277.186,167.232C276.522,160.579,287.500,143.611,291.493,137.289C295.152,131.301,304.135,114.998,312.119,114.998Z"/>
</g>
<g id="hair">
<path class="path-0" d="M183.357,136.483C200.954,124.749,220.906,123.806,241.996,123.120C251.452,122.794,257.886,129.270,265.069,135.626C270.964,141.195,277.299,147.468,283.560,153.313C292.986,162.051,296.930,166.431,300.440,170.614C303.444,173.825,308.105,179.813,311.862,182.674C316.396,186.124,325.422,203.315,327.445,205.266C320.793,207.453,310.356,209.024,305.541,212.830C307.149,218.669,307.424,227.700,307.413,230.409C301.202,230.790,294.008,227.926,282.567,225.752C280.180,232.918,280.142,239.647,275.384,246.902C267.697,244.496,262.345,242.563,252.411,238.043C245.798,243.193,244.261,242.773,233.517,249.212C226.455,244.820,220.838,240.151,213.943,237.253C207.148,240.091,196.403,241.027,192.739,243.925C188.987,236.858,185.547,229.060,182.318,225.662C172.710,227.554,168.576,230.148,161.781,232.559C157.606,227.012,160.654,222.489,156.037,214.349C151.717,213.146,145.049,210.476,139.490,210.322C143.367,205.864,146.319,191.142,152.833,189.327C160.871,187.088,155.875,177.911,160.872,169.755C162.110,167.631,174.016,151.399,175.093,148.739C177.132,144.153,179.361,139.287,183.357,136.483M269.783,123.041C257.623,113.516,232.973,108.192,219.067,111.311C206.306,114.023,193.787,117.926,182.663,125.006C176.433,128.911,169.531,134.686,165.362,140.754C157.036,152.537,144.935,178.372,138.142,190.325C132.704,200.241,127.646,206.923,122.452,212.283C140.007,218.879,145.124,221.586,150.363,222.441C150.613,230.199,157.711,236.027,156.388,244.572C165.209,243.354,170.475,241.177,178.326,239.302C182.258,243.995,184.942,250.348,188.681,256.586C196.418,254.568,204.305,254.940,212.000,249.563C217.496,252.632,226.229,257.403,235.200,262.448C243.544,258.115,245.325,257.880,253.165,252.908C262.619,255.342,272.515,261.315,282.074,260.399C281.484,252.206,287.600,246.647,286.947,241.388C294.168,239.536,316.196,242.966,319.967,242.683C319.803,236.635,316.595,225.026,318.237,217.838C325.064,216.098,330.837,214.510,341.526,209.520C338.121,202.790,331.974,194.414,326.560,189.403C321.990,185.214,318.291,179.689,313.719,175.326C298.212,160.768,292.275,140.745,269.783,123.041Z"/>
<path class="path-11" d="M241.996,123.120C251.452,122.794,257.886,129.270,265.069,135.626"/>
<path class="path-11" d="M265.069,135.626C270.964,141.195,277.299,147.468,283.560,153.313"/>
<path class="path-11" d="M283.560,153.313C292.986,162.051,296.930,166.431,300.440,170.614"/>
<path class="path-11" d="M300.440,170.614C303.444,173.825,308.105,179.813,311.862,182.674"/>
<path class="path-11" d="M311.862,182.674C316.396,186.124,325.422,203.315,327.445,205.266"/>
<path class="path-11" d="M327.445,205.266C320.793,207.453,310.356,209.024,305.541,212.830"/>
<path class="path-11" d="M305.541,212.830C307.149,218.669,307.424,227.700,307.413,230.409"/>
<path class="path-11" d="M307.413,230.409C301.202,230.790,294.008,227.926,282.567,225.752"/>
<path class="path-11" d="M282.567,225.752C280.180,232.918,280.142,239.647,275.384,246.902"/>
<path class="path-11" d="M275.384,246.902C267.697,244.496,262.345,242.563,252.411,238.043"/>
<path class="path-11" d="M252.411,238.043C245.798,243.193,244.261,242.773,233.517,249.212"/>
<path class="path-11" d="M233.517,249.212C226.455,244.820,220.838,240.151,213.943,237.253"/>
<path class="path-11" d="M213.943,237.253C207.148,240.091,196.403,241.027,192.739,243.925"/>
<path class="path-11" d="M192.739,243.925C188.987,236.858,185.547,229.060,182.318,225.662"/>
<path class="path-11" d="M182.318,225.662C172.710,227.554,168.576,230.148,161.781,232.559"/>
<path class="path-11" d="M161.781,232.559C157.606,227.012,160.654,222.489,156.037,214.349"/>
<path class="path-11" d="M156.037,214.349C151.717,213.146,145.049,210.476,139.490,210.322"/>
<path class="path-11" d="M139.490,210.322C143.367,205.864,146.319,191.142,152.833,189.327"/>
<path class="path-11" d="M152.833,189.327C160.871,187.088,155.875,177.911,160.872,169.755"/>
<path class="path-11" d="M160.872,169.755C162.110,167.631,174.016,151.399,175.093,148.739"/>
<path class="path-11" d="M175.093,148.739C177.132,144.153,179.361,139.287,183.357,136.483"/>
<path class="path-11" d="M183.357,136.483C200.954,124.749,220.906,123.806,241.996,123.120"/>
<path class="path-12" d="M241.996,123.120C251.452,122.794,257.886,129.270,265.069,135.626C270.964,141.195,277.299,147.468,283.560,153.313C292.986,162.051,296.930,166.431,300.440,170.614C303.444,173.825,308.105,179.813,311.862,182.674C316.396,186.124,325.422,203.315,327.445,205.266C320.793,207.453,310.356,209.024,305.541,212.830C307.149,218.669,307.424,227.700,307.413,230.409C301.202,230.790,294.008,227.926,282.567,225.752C280.180,232.918,280.142,239.647,275.384,246.902C267.697,244.496,262.345,242.563,252.411,238.043C245.798,243.193,244.261,242.773,233.517,249.212C226.455,244.820,220.838,240.151,213.943,237.253C207.148,240.091,196.403,241.027,192.739,243.925C188.987,236.858,185.547,229.060,182.318,225.662C172.710,227.554,168.576,230.148,161.781,232.559C157.606,227.012,160.654,222.489,156.037,214.349C151.717,213.146,145.049,210.476,139.490,210.322C143.367,205.864,146.319,191.142,152.833,189.327C160.871,187.088,155.875,177.911,160.872,169.755C162.110,167.631,174.016,151.399,175.093,148.739C177.132,144.153,179.361,139.287,183.357,136.483C200.954,124.749,220.906,123.806,241.996,123.120Z"/>
</g>
<g id="clothes">
<path class="path-0" d="M244.674,364.906C238.953,363.367,218.868,368.706,215.711,373.980C213.961,377.114,216.961,378.668,220.084,378.564C224.309,378.421,245.914,373.608,248.649,371.559C252.683,368.463,246.878,365.397,244.674,364.906M191.093,266.179C194.088,253.538,221.037,240.563,234.012,241.561C242.994,242.226,271.274,256.199,275.266,264.517C278.592,271.170,279.590,295.789,279.924,304.107C280.257,319.412,281.532,334.728,282.253,350.019C283.463,362.721,294.287,377.195,287.404,387.939C284.164,391.776,271.718,389.010,266.260,389.869C261.586,390.833,253.241,395.647,248.898,396.317C227.748,400.171,231.132,405.852,211.095,408.095C206.737,408.416,192.650,406.520,189.847,404.570C183.029,398.556,186.198,388.755,187.502,380.097C190.280,365.663,190.589,355.605,191.427,340.038C192.186,323.962,194.088,306.768,194.088,290.134C193.755,284.145,190.429,269.839,191.093,266.179M269.943,247.549C253.640,237.899,237.670,229.915,218.042,235.573C212.718,236.902,186.103,249.877,183.773,253.205C180.115,258.529,183.773,278.821,183.773,286.141C184.107,294.791,184.440,303.773,183.773,312.092C183.442,318.413,182.111,324.069,182.111,330.057C181.777,336.710,181.780,343.884,180.780,350.019C177.585,368.785,167.674,406.505,190.666,417.630C195.357,419.921,201.813,419.551,207.313,419.171C217.101,418.306,227.644,417.031,237.124,413.928C249.181,410.349,259.348,401.015,271.953,399.236C277.566,398.446,294.674,405.913,299.339,402.158C301.351,400.611,304.174,389.809,304.103,386.942C303.026,372.091,293.920,358.734,291.567,344.031C290.004,332.152,289.239,320.410,289.904,308.100C290.237,298.119,291.900,288.471,291.900,278.157C291.567,273.831,292.234,268.510,289.904,264.184C285.912,256.199,277.263,251.873,269.943,247.549Z"/>
<path class="path-13" d="M244.674,364.906C238.953,363.367,218.868,368.706,215.711,373.980"/>
<path class="path-13" d="M215.711,373.980C213.961,377.114,216.961,378.668,220.084,378.564"/>
<path class="path-13" d="M220.084,378.564C224.309,378.421,245.914,373.608,248.649,371.559"/>
<path class="path-13" d="M248.649,371.559C252.683,368.463,246.878,365.397,244.674,364.906"/>
<path class="path-13" d="M191.093,266.179C194.088,253.538,221.037,240.563,234.012,241.561"/>
<path class="path-13" d="M234.012,241.561C242.994,242.226,271.274,256.199,275.266,264.517"/>
<path class="path-13" d="M275.266,264.517C278.592,271.170,279.590,295.789,279.924,304.107"/>
<path class="path-13" d="M279.924,304.107C280.257,319.412,281.532,334.728,282.253,350.019"/>
<path class="path-13" d="M282.253,350.019C283.463,362.721,294.287,377.195,287.404,387.939"/>
<path class="path-13" d="M287.404,387.939C284.164,391.776,271.718,389.010,266.260,389.869"/>
<path class="path-13" d="M266.260,389.869C261.586,390.833,253.241,395.647,248.898,396.317"/>
<path class="path-13" d="M248.898,396.317C227.748,400.171,231.132,405.852,211.095,408.095"/>
<path class="path-13" d="M211.095,408.095C206.737,408.416,192.650,406.520,189.847,404.570"/>
<path class="path-13" d="M189.847,404.570C183.029,398.556,186.198,388.755,187.502,380.097"/>
<path class="path-13" d="M187.502,380.097C190.280,365.663,190.589,355.605,191.427,340.038"/>
<path class="path-13" d="M191.427,340.038C192.186,323.962,194.088,306.768,194.088,290.134"/>
<path class="path-13" d="M194.088,290.134C193.755,284.145,190.429,269.839,191.093,266.179"/>
<path class="path-14" d="M244.674,364.906C238.953,363.367,218.868,368.706,215.711,373.980C213.961,377.114,216.961,378.668,220.084,378.564C224.309,378.421,245.914,373.608,248.649,371.559C252.683,368.463,246.878,365.397,244.674,364.906M191.093,266.179C194.088,253.538,221.037,240.563,234.012,241.561C242.994,242.226,271.274,256.199,275.266,264.517C278.592,271.170,279.590,295.789,279.924,304.107C280.257,319.412,281.532,334.728,282.253,350.019C283.463,362.721,294.287,377.195,287.404,387.939C284.164,391.776,271.718,389.010,266.260,389.869C261.586,390.833,253.241,395.647,248.898,396.317C227.748,400.171,231.132,405.852,211.095,408.095C206.737,408.416,192.650,406.520,189.847,404.570C183.029,398.556,186.198,388.755,187.502,380.097C190.280,365.663,190.589,355.605,191.427,340.038C192.186,323.962,194.088,306.768,194.088,290.134C193.755,284.145,190.429,269.839,191.093,266.179Z"/>
</g>
<g id="neck">
<path class="path-0" d="M229.021,222.597C229.354,219.269,230.353,216.275,234.012,215.942C245.656,213.946,244.657,251.542,234.012,251.542C224.031,251.542,228.356,228.917,229.021,222.597M234.012,206.628C231.351,206.295,228.357,206.959,226.027,208.291C216.711,212.948,218.042,221.599,218.042,230.248C217.708,234.574,218.042,238.567,216.046,242.226C214.383,245.553,209.724,248.879,209.724,252.540C210.057,262.521,237.006,262.521,243.993,262.188C246.653,262.187,255.636,263.185,256.634,259.526C256.634,258.528,249.981,246.883,248.983,242.226C245.989,228.252,255.305,207.626,234.012,206.628Z"/>
<path class="path-15" d="M234.012,215.942C245.656,213.946,244.657,251.542,234.012,251.542"/>
<path class="path-15" d="M234.012,251.542C224.031,251.542,228.356,228.917,229.021,222.597"/>
<path class="path-15" d="M229.021,222.597C229.354,219.269,230.353,216.275,234.012,215.942"/>
<path class="path-16" d="M234.012,215.942C245.656,213.946,244.657,251.542,234.012,251.542C224.031,251.542,228.356,228.917,229.021,222.597C229.354,219.269,230.353,216.275,234.012,215.942Z"/>
</g>
<g id="layer_head">
<g id="right_ear">
<path class="path-0" d="M145.530,194.366C135.249,196.403,119.720,160.229,134.227,163.625C139.424,164.828,142.271,174.004,143.402,177.908C145.097,183.367,152.685,192.995,145.530,194.366M140.771,151.563C137.382,149.685,133.278,148.741,129.809,150.465C120.349,153.414,117.555,165.412,119.177,175.238C121.346,187.540,132.092,203.125,143.311,206.115C146.527,206.990,153.193,209.261,156.381,207.768C162.876,204.223,158.209,194.099,156.491,188.553C154.541,181.737,146.073,155.816,140.771,151.563Z"/>
<path class="path-15" d="M134.227,163.625C139.424,164.828,142.271,174.004,143.402,177.908"/>
<path class="path-15" d="M143.402,177.908C145.097,183.367,152.685,192.995,145.530,194.366"/>
<path class="path-15" d="M145.530,194.366C135.249,196.403,119.720,160.229,134.227,163.625"/>
<path class="path-16" d="M134.227,163.625C139.424,164.828,142.271,174.004,143.402,177.908C145.097,183.367,152.685,192.995,145.530,194.366C135.249,196.403,119.720,160.229,134.227,163.625Z"/>
</g>
<g id="face_Mask">
<g id="face">
<path class="path-0" d="M157.670,105.321C166.156,94.872,198.925,87.687,212.565,85.691C227.870,83.695,243.506,86.024,258.477,90.681C263.801,92.346,271.582,94.183,276.109,98.001C283.507,104.289,286.950,115.719,289.500,124.692C291.494,131.078,295.395,139.320,294.226,145.533C289.147,172.530,283.177,184.644,278.145,192.349C271.641,202.307,259.536,206.717,248.984,211.984C231.813,220.251,214.000,224.925,204.642,224.345C192.537,223.594,166.787,215.166,158.664,206.873C151.566,199.353,151.669,189.057,149.678,179.356C147.574,170.496,144.945,156.969,143.976,148.099C142.932,136.917,150.685,113.843,157.670,105.321M280.127,90.326C266.611,77.994,230.242,75.294,212.608,77.938C204.288,78.928,196.302,79.587,188.649,81.578C182.989,83.240,177.994,85.898,172.667,87.561C161.021,91.885,156.209,90.447,148.379,101.211C142.756,108.746,134.913,138.386,134.941,147.630C135.084,154.660,138.145,171.361,139.404,179.451C140.780,188.652,142.498,201.250,147.160,208.920C151.077,215.158,156.302,219.801,165.542,224.395C177.698,230.439,191.935,234.396,205.839,235.853C214.702,237.334,232.141,232.743,255.305,220.761C266.755,214.655,278.172,207.721,285.641,196.056C293.605,183.617,301.030,166.552,305.828,145.276C310.417,124.921,288.393,97.705,280.127,90.326Z"/>
<path class="path-15" d="M212.565,85.691C227.870,83.695,243.506,86.024,258.477,90.681"/>
<path class="path-15" d="M258.477,90.681C263.801,92.346,271.582,94.183,276.109,98.001"/>
<path class="path-15" d="M276.109,98.001C283.507,104.289,286.950,115.719,289.500,124.692"/>
<path class="path-15" d="M289.500,124.692C291.494,131.078,295.395,139.320,294.226,145.533"/>
<path class="path-15" d="M294.226,145.533C289.147,172.530,283.177,184.644,278.145,192.349"/>
<path class="path-15" d="M278.145,192.349C271.641,202.307,259.536,206.717,248.984,211.984"/>
<path class="path-15" d="M248.984,211.984C231.813,220.251,214.000,224.925,204.642,224.345"/>
<path class="path-15" d="M204.642,224.345C192.537,223.594,166.787,215.166,158.664,206.873"/>
<path class="path-15" d="M158.664,206.873C151.566,199.353,151.669,189.057,149.678,179.356"/>
<path class="path-15" d="M149.678,179.356C147.574,170.496,144.945,156.969,143.976,148.099"/>
<path class="path-15" d="M143.976,148.099C142.932,136.917,150.685,113.843,157.670,105.321"/>
<path class="path-15" d="M157.670,105.321C166.156,94.872,198.925,87.687,212.565,85.691"/>
<path class="path-16" d="M212.565,85.691C227.870,83.695,243.506,86.024,258.477,90.681C263.801,92.346,271.582,94.183,276.109,98.001C283.507,104.289,286.950,115.719,289.500,124.692C291.494,131.078,295.395,139.320,294.226,145.533C289.147,172.530,283.177,184.644,278.145,192.349C271.641,202.307,259.536,206.717,248.984,211.984C231.813,220.251,214.000,224.925,204.642,224.345C192.537,223.594,166.787,215.166,158.664,206.873C151.566,199.353,151.669,189.057,149.678,179.356C147.574,170.496,144.945,156.969,143.976,148.099C142.932,136.917,150.685,113.843,157.670,105.321C166.156,94.872,198.925,87.687,212.565,85.691Z"/>
</g>
</g>
<mask id="mask_target" style="mask-type:alpha;">
<use xlink:href="#face_Mask"/>
</mask>
<g id="mouse">
<path class="path-0" d="M207.054,214.522C212.258,215.626,212.342,220.379,211.868,220.886C211.601,221.172,210.478,220.221,207.518,219.734C201.912,218.813,199.207,219.985,199.009,219.271C198.793,218.488,200.962,213.230,207.054,214.522Z"/>
</g>
<g id="layer_eyes_Mtarget" mask="url(#mask_target)">
<g id="eyes">
<mask style="mask-type:alpha;" id="f3906406-f197-4bf1-91d8-744c09cca836">
<use xlink:href="#cmn_f3906406-f197-4bf1-91d8-744c09cca836"/>
</mask>
<g id="cmn_f3906406-f197-4bf1-91d8-744c09cca836">
<path class="path-0" d="M175.402,185.260C174.959,188.192,166.814,189.448,165.831,189.520C163.500,189.696,155.996,189.076,154.370,186.111C153.785,185.081,154.935,178.933,155.057,180.597C155.228,182.907,175.672,183.477,175.402,185.260M181.435,188.028C181.515,186.966,182.009,182.821,180.618,181.365C179.799,180.507,177.932,180.089,176.777,180.428C172.508,181.579,156.437,176.247,151.257,173.387C150.361,172.906,148.574,170.490,147.506,170.796C140.478,172.723,146.225,180.587,149.507,190.202C150.550,193.257,165.617,196.073,166.614,195.753C168.762,195.062,181.170,191.541,181.435,188.028M222.743,190.948C218.811,190.643,212.155,190.724,211.425,184.622C211.054,181.525,228.539,179.989,232.029,178.962C234.765,178.156,247.255,174.516,248.724,174.482C249.447,174.497,251.105,177.514,251.139,179.181C251.195,181.943,229.526,191.474,222.743,190.948M258.214,183.034C260.023,180.615,260.160,168.737,259.080,167.971C255.090,165.140,242.173,170.371,235.029,171.930C227.627,173.544,215.643,178.763,210.671,178.586C207.510,178.587,204.669,177.733,203.441,179.543C202.270,181.270,204.064,184.477,205.071,186.304C206.476,188.852,208.770,191.768,211.956,193.131C219.100,196.287,235.188,194.290,242.045,192.682C245.116,191.960,255.936,186.079,258.214,183.034Z"/>
<path class="path-17" d="M248.724,174.482C249.447,174.497,251.105,177.514,251.139,179.181"/>
<path class="path-17" d="M251.139,179.181C251.195,181.943,229.526,191.474,222.743,190.948"/>
<path class="path-17" d="M222.743,190.948C218.811,190.643,212.155,190.724,211.425,184.622"/>
<path class="path-17" d="M211.425,184.622C211.054,181.525,228.539,179.989,232.029,178.962"/>
<path class="path-17" d="M232.029,178.962C234.765,178.156,247.255,174.516,248.724,174.482"/>
<path class="path-18" d="M248.724,174.482C249.447,174.497,251.105,177.514,251.139,179.181C251.195,181.943,229.526,191.474,222.743,190.948C218.811,190.643,212.155,190.724,211.425,184.622C211.054,181.525,228.539,179.989,232.029,178.962C234.765,178.156,247.255,174.516,248.724,174.482Z"/>
<path class="path-17" d="M155.057,180.597C155.228,182.907,175.672,183.477,175.402,185.260"/>
<path class="path-17" d="M175.402,185.260C174.959,188.192,166.814,189.448,165.831,189.520"/>
<path class="path-17" d="M165.831,189.520C163.500,189.696,155.996,189.076,154.370,186.111"/>
<path class="path-17" d="M154.370,186.111C153.785,185.081,154.935,178.933,155.057,180.597"/>
<path class="path-18" d="M155.057,180.597C155.228,182.907,175.672,183.477,175.402,185.260C174.959,188.192,166.814,189.448,165.831,189.520C163.500,189.696,155.996,189.076,154.370,186.111C153.785,185.081,154.935,178.933,155.057,180.597Z"/>
</g>
</g>
<g id="pupil">
<path class="path-0" d="M212.470,170.909C214.872,170.344,217.584,174.076,218.231,182.954C218.637,188.518,217.554,190.775,216.028,191.026C214.141,191.337,212.482,188.653,211.199,181.876C209.830,174.644,210.484,171.376,212.470,170.909Z" mask="url(#f3906406-f197-4bf1-91d8-744c09cca836)"/>
<path class="path-0" d="M169.943,172.124C172.282,171.573,174.104,175.553,175.339,184.420C176.023,189.331,175.825,191.433,174.550,191.815C173.028,192.271,171.306,190.112,169.601,184.444C167.234,176.575,167.796,172.628,169.943,172.124Z" mask="url(#f3906406-f197-4bf1-91d8-744c09cca836)"/>
</g>
</g>
<g id="hat">
<path class="path-0" d="M295.320,127.877C297.506,128.867,300.234,131.527,300.673,134.174C302.313,140.671,291.171,140.983,287.726,141.395C281.528,141.514,275.055,141.006,269.139,140.722C263.059,140.980,256.971,140.608,250.885,140.619C235.844,139.474,220.874,137.703,205.829,136.657C193.070,136.271,180.882,135.403,167.590,135.035C165.849,135.025,140.434,137.623,135.762,135.630C124.218,130.829,134.823,121.275,134.125,115.802C133.982,112.973,128.057,112.234,129.488,107.310C130.752,103.202,144.666,99.013,148.934,97.943C159.826,95.153,171.231,92.302,182.915,91.085C197.828,89.598,212.287,90.688,227.355,90.369C246.015,90.059,284.677,94.661,299.574,112.221C306.733,120.532,288.374,113.410,286.412,113.097C278.298,110.281,247.445,99.154,261.150,111.497C268.130,118.880,287.147,123.431,295.320,127.877M180.793,83.571C169.506,84.524,159.177,84.958,148.579,87.198C144.361,88.078,139.403,89.673,135.426,89.177C126.838,88.205,138.350,66.012,142.200,61.135C157.145,42.677,186.969,33.012,211.920,33.790C258.438,35.241,276.384,45.059,290.373,61.946C294.799,66.900,309.027,90.620,299.793,96.589C296.507,98.420,290.653,94.976,287.807,93.565C277.901,88.912,221.159,80.165,180.793,83.571M259.066,31.384C244.688,27.380,236.618,22.370,219.060,22.780C188.197,23.761,150.361,29.797,131.446,58.146C125.528,67.235,124.238,77.455,121.543,87.180C119.568,94.181,114.956,99.299,115.185,106.486C115.617,113.818,119.261,115.578,120.804,121.425C122.641,127.691,119.868,130.243,120.865,134.323C122.542,145.905,133.237,147.005,142.908,147.553C147.549,147.817,164.706,147.469,174.048,147.464C185.070,147.458,199.769,147.361,210.791,147.531C221.057,147.689,234.736,148.349,245.003,148.516C254.515,148.671,267.210,149.055,276.715,148.640C286.044,148.232,306.589,146.891,307.714,145.809C309.568,144.057,314.051,126.558,314.339,123.248C314.671,119.432,313.023,115.466,313.678,109.343C314.729,96.827,315.750,85.507,310.629,72.865C301.300,50.399,278.883,37.199,259.066,31.384Z"/>
<path class="path-19" d="M227.355,90.369C246.015,90.059,284.677,94.661,299.574,112.221"/>
<path class="path-19" d="M299.574,112.221C306.733,120.532,288.374,113.410,286.412,113.097"/>
<path class="path-19" d="M286.412,113.097C278.298,110.281,247.445,99.154,261.150,111.497"/>
<path class="path-19" d="M261.150,111.497C268.130,118.880,287.147,123.431,295.320,127.877"/>
<path class="path-19" d="M295.320,127.877C297.506,128.867,300.234,131.527,300.673,134.174"/>
<path class="path-19" d="M300.673,134.174C302.313,140.671,291.171,140.983,287.726,141.395"/>
<path class="path-19" d="M287.726,141.395C281.528,141.514,275.055,141.006,269.139,140.722"/>
<path class="path-19" d="M269.139,140.722C263.059,140.980,256.971,140.608,250.885,140.619"/>
<path class="path-19" d="M250.885,140.619C235.844,139.474,220.874,137.703,205.829,136.657"/>
<path class="path-19" d="M205.829,136.657C193.070,136.271,180.882,135.403,167.590,135.035"/>
<path class="path-19" d="M167.590,135.035C165.849,135.025,140.434,137.623,135.762,135.630"/>
<path class="path-19" d="M135.762,135.630C124.218,130.829,134.823,121.275,134.125,115.802"/>
<path class="path-19" d="M134.125,115.802C133.982,112.973,128.057,112.234,129.488,107.310"/>
<path class="path-19" d="M129.488,107.310C130.752,103.202,144.666,99.013,148.934,97.943"/>
<path class="path-19" d="M148.934,97.943C159.826,95.153,171.231,92.302,182.915,91.085"/>
<path class="path-19" d="M182.915,91.085C197.828,89.598,212.287,90.688,227.355,90.369"/>
<path class="path-20" d="M227.355,90.369C246.015,90.059,284.677,94.661,299.574,112.221C306.733,120.532,288.374,113.410,286.412,113.097C278.298,110.281,247.445,99.154,261.150,111.497C268.130,118.880,287.147,123.431,295.320,127.877C297.506,128.867,300.234,131.527,300.673,134.174C302.313,140.671,291.171,140.983,287.726,141.395C281.528,141.514,275.055,141.006,269.139,140.722C263.059,140.980,256.971,140.608,250.885,140.619C235.844,139.474,220.874,137.703,205.829,136.657C193.070,136.271,180.882,135.403,167.590,135.035C165.849,135.025,140.434,137.623,135.762,135.630C124.218,130.829,134.823,121.275,134.125,115.802C133.982,112.973,128.057,112.234,129.488,107.310C130.752,103.202,144.666,99.013,148.934,97.943C159.826,95.153,171.231,92.302,182.915,91.085C197.828,89.598,212.287,90.688,227.355,90.369Z"/>
<path class="path-9" d="M211.920,33.790C258.438,35.241,276.384,45.059,290.373,61.946"/>
<path class="path-9" d="M290.373,61.946C294.799,66.900,309.027,90.620,299.793,96.589"/>
<path class="path-9" d="M299.793,96.589C296.507,98.420,290.653,94.976,287.807,93.565"/>
<path class="path-9" d="M287.807,93.565C277.901,88.912,221.159,80.165,180.793,83.571"/>
<path class="path-9" d="M180.793,83.571C169.506,84.524,159.177,84.958,148.579,87.198"/>
<path class="path-9" d="M148.579,87.198C144.361,88.078,139.403,89.673,135.426,89.177"/>
<path class="path-9" d="M135.426,89.177C126.838,88.205,138.350,66.012,142.200,61.135"/>
<path class="path-9" d="M142.200,61.135C157.145,42.677,186.969,33.012,211.920,33.790"/>
<path class="path-10" d="M211.920,33.790C258.438,35.241,276.384,45.059,290.373,61.946C294.799,66.900,309.027,90.620,299.793,96.589C296.507,98.420,290.653,94.976,287.807,93.565C277.901,88.912,221.159,80.165,180.793,83.571C169.506,84.524,159.177,84.958,148.579,87.198C144.361,88.078,139.403,89.673,135.426,89.177C126.838,88.205,138.350,66.012,142.200,61.135C157.145,42.677,186.969,33.012,211.920,33.790Z"/>
</g>
<g id="left_ear">
<path class="path-0" d="M279.049,184.887C277.552,179.802,279.330,154.131,281.868,149.967C287.943,139.604,306.028,147.938,310.125,156.384C314.558,166.024,305.430,182.296,297.263,189.069C289.087,195.644,281.741,193.573,279.049,184.887M324.159,159.475C321.860,144.877,303.643,130.581,290.866,137.770C274.920,146.742,281.724,170.340,280.056,185.394C279.760,188.903,277.655,192.655,278.626,195.861C281.763,206.866,293.866,206.976,302.645,197.465C311.304,187.889,325.882,173.085,324.159,159.475Z"/>
<path class="path-15" d="M281.868,149.967C287.943,139.604,306.028,147.938,310.125,156.384"/>
<path class="path-15" d="M310.125,156.384C314.558,166.024,305.430,182.296,297.263,189.069"/>
<path class="path-15" d="M297.263,189.069C289.087,195.644,281.741,193.573,279.049,184.887"/>
<path class="path-15" d="M279.049,184.887C277.552,179.802,279.330,154.131,281.868,149.967"/>
<path class="path-16" d="M281.868,149.967C287.943,139.604,306.028,147.938,310.125,156.384C314.558,166.024,305.430,182.296,297.263,189.069C289.087,195.644,281.741,193.573,279.049,184.887C277.552,179.802,279.330,154.131,281.868,149.967Z"/>
</g>
<g id="earrings">
<path class="path-0" d="M301.672,206.351C292.899,210.391,291.049,191.880,294.538,192.176C299.445,193.799,307.270,202.560,301.672,206.351M311.249,197.891C304.609,198.398,301.416,189.395,300.832,185.590C308.370,187.134,317.903,192.579,311.249,197.891M321.751,194.322C319.152,186.180,306.918,181.634,299.046,178.352C296.074,177.113,287.931,187.621,287.621,190.994C286.620,195.057,289.435,216.961,303.178,214.010C308.879,212.521,323.840,200.868,321.751,194.322Z"/>
<path class="path-21" d="M300.832,185.590C308.370,187.134,317.903,192.579,311.249,197.891"/>
<path class="path-21" d="M311.249,197.891C304.609,198.398,301.416,189.395,300.832,185.590"/>
<path class="path-22" d="M300.832,185.590C308.370,187.134,317.903,192.579,311.249,197.891C304.609,198.398,301.416,189.395,300.832,185.590Z"/>
<path class="path-21" d="M294.538,192.176C299.445,193.799,307.270,202.560,301.672,206.351"/>
<path class="path-21" d="M301.672,206.351C292.899,210.391,291.049,191.880,294.538,192.176"/>
<path class="path-22" d="M294.538,192.176C299.445,193.799,307.270,202.560,301.672,206.351C292.899,210.391,291.049,191.880,294.538,192.176Z"/>
</g>
</g>
<g id="jacket">
<path class="path-0" d="M202.406,270.837C204.608,275.506,199.539,285.445,198.889,290.134C194.156,308.311,186.913,326.127,189.036,344.351C189.870,350.018,195.393,362.235,190.293,366.522C188.273,368.220,182.262,364.437,181.505,366.174C180.141,369.293,174.324,359.756,173.504,358.451C172.769,357.284,169.996,349.130,169.692,346.814C169.377,342.211,169.440,333.168,170.248,327.405C171.127,321.464,171.890,315.219,174.442,309.109C176.735,302.094,180.735,294.162,182.836,286.202C185.281,281.210,189.283,278.338,188.444,274.500C187.288,270.857,184.954,269.074,188.090,267.180C191.935,265.215,201.455,265.958,202.406,270.837M265.586,271.609C266.954,270.428,279.953,265.402,281.328,264.393C293.490,256.330,304.341,265.346,305.769,273.817C306.517,277.930,303.587,292.490,302.856,295.401C301.102,300.989,298.692,304.709,297.209,309.509C290.770,327.233,297.123,316.345,294.328,332.620C293.820,335.570,293.013,341.795,292.711,344.714C292.211,347.759,291.623,354.543,290.842,357.330C288.845,362.619,285.498,369.719,277.262,368.680C276.771,368.678,271.856,368.775,271.015,368.830C264.931,368.901,257.757,370.007,253.190,365.328C249.134,360.694,248.110,353.234,247.086,346.713C245.005,334.756,247.895,322.609,250.489,310.702C252.458,299.385,257.313,280.426,265.586,271.609M277.748,255.283C274.872,257.066,268.533,257.249,266.714,257.617C263.355,258.111,262.714,255.404,262.366,253.046C261.874,248.627,264.904,242.117,268.148,238.864C270.732,236.273,275.328,234.141,279.343,234.021C282.918,233.786,289.069,236.180,288.748,240.245C288.700,243.249,282.498,252.337,277.748,255.283M204.588,243.631C209.485,252.902,214.587,262.358,209.320,261.073C203.007,259.532,199.755,259.903,189.763,255.866C179.164,251.583,176.523,236.386,182.429,231.591C188.303,226.823,198.896,232.855,204.588,243.631M302.278,363.417C303.038,355.560,306.130,350.710,306.407,342.473C306.534,337.108,306.568,330.921,305.531,325.682C303.537,316.813,303.285,313.130,302.332,302.887C301.389,294.351,303.724,287.533,302.532,279.378C301.974,276.435,291.649,264.114,291.776,261.384C291.206,255.994,298.480,252.639,299.776,247.821C300.916,244.072,302.161,240.063,301.655,236.177C301.296,231.209,296.914,227.826,293.316,225.123C288.104,221.670,283.138,221.780,276.785,222.511C267.057,223.643,261.383,232.209,257.417,238.649C251.908,247.594,253.061,262.801,250.280,272.932C248.671,278.791,245.743,286.740,243.827,292.130C236.274,312.369,223.905,365.764,240.608,379.688C242.364,381.355,256.742,385.638,261.322,385.706C270.256,385.883,274.538,387.116,283.139,385.887C288.905,385.292,297.526,376.407,300.944,369.819C301.858,368.191,302.146,364.778,302.278,363.417M209.457,232.726C203.762,226.444,193.763,215.097,185.488,217.748C181.514,219.164,176.234,222.900,173.567,226.430C170.873,229.996,168.213,235.893,168.431,240.414C168.571,245.880,168.531,252.383,170.493,256.996C172.899,262.654,182.513,266.802,183.578,272.771C183.991,275.515,177.076,287.624,176.058,290.908C174.302,297.184,170.969,303.142,168.959,308.452C166.908,313.869,164.038,321.066,162.534,326.659C160.621,333.773,157.885,342.778,158.079,350.809C157.937,355.576,160.476,366.445,164.386,371.695C166.841,374.991,172.942,378.867,175.574,379.603C177.088,380.026,192.354,383.384,197.146,379.031C205.783,371.185,200.977,355.861,197.629,340.139C194.551,325.776,205.222,313.434,209.137,299.100C210.744,293.180,217.227,273.718,217.618,266.869C217.945,261.131,219.863,257.221,218.147,249.312C217.075,244.999,213.230,236.888,209.457,232.726Z"/>
<path class="path-1" d="M281.328,264.393C293.490,256.330,304.341,265.346,305.769,273.817"/>
<path class="path-1" d="M305.769,273.817C306.517,277.930,303.587,292.490,302.856,295.401"/>
<path class="path-1" d="M302.856,295.401C301.102,300.989,298.692,304.709,297.209,309.509"/>
<path class="path-1" d="M297.209,309.509C290.770,327.233,297.123,316.345,294.328,332.620"/>
<path class="path-1" d="M294.328,332.620C293.820,335.570,293.013,341.795,292.711,344.714"/>
<path class="path-1" d="M292.711,344.714C292.211,347.759,291.623,354.543,290.842,357.330"/>
<path class="path-1" d="M290.842,357.330C288.845,362.619,285.498,369.719,277.262,368.680"/>
<path class="path-1" d="M277.262,368.680C276.771,368.678,271.856,368.775,271.015,368.830"/>
<path class="path-1" d="M271.015,368.830C264.931,368.901,257.757,370.007,253.190,365.328"/>
<path class="path-1" d="M253.190,365.328C249.134,360.694,248.110,353.234,247.086,346.713"/>
<path class="path-1" d="M247.086,346.713C245.005,334.756,247.895,322.609,250.489,310.702"/>
<path class="path-1" d="M250.489,310.702C252.458,299.385,257.313,280.426,265.586,271.609"/>
<path class="path-1" d="M265.586,271.609C266.954,270.428,279.953,265.402,281.328,264.393"/>
<path class="path-2" d="M281.328,264.393C293.490,256.330,304.341,265.346,305.769,273.817C306.517,277.930,303.587,292.490,302.856,295.401C301.102,300.989,298.692,304.709,297.209,309.509C290.770,327.233,297.123,316.345,294.328,332.620C293.820,335.570,293.013,341.795,292.711,344.714C292.211,347.759,291.623,354.543,290.842,357.330C288.845,362.619,285.498,369.719,277.262,368.680C276.771,368.678,271.856,368.775,271.015,368.830C264.931,368.901,257.757,370.007,253.190,365.328C249.134,360.694,248.110,353.234,247.086,346.713C245.005,334.756,247.895,322.609,250.489,310.702C252.458,299.385,257.313,280.426,265.586,271.609C266.954,270.428,279.953,265.402,281.328,264.393Z"/>
<path class="path-1" d="M188.090,267.180C191.935,265.215,201.455,265.958,202.406,270.837"/>
<path class="path-1" d="M202.406,270.837C204.608,275.506,199.539,285.445,198.889,290.134"/>
<path class="path-1" d="M198.889,290.134C194.156,308.311,186.913,326.127,189.036,344.351"/>
<path class="path-1" d="M189.036,344.351C189.870,350.018,195.393,362.235,190.293,366.522"/>
<path class="path-1" d="M190.293,366.522C188.273,368.220,182.262,364.437,181.505,366.174"/>
<path class="path-1" d="M181.505,366.174C180.141,369.293,174.324,359.756,173.504,358.451"/>
<path class="path-1" d="M173.504,358.451C172.769,357.284,169.996,349.130,169.692,346.814"/>
<path class="path-1" d="M169.692,346.814C169.377,342.211,169.440,333.168,170.248,327.405"/>
<path class="path-1" d="M170.248,327.405C171.127,321.464,171.890,315.219,174.442,309.109"/>
<path class="path-1" d="M174.442,309.109C176.735,302.094,180.735,294.162,182.836,286.202"/>
<path class="path-1" d="M182.836,286.202C185.281,281.210,189.283,278.338,188.444,274.500"/>
<path class="path-1" d="M188.444,274.500C187.288,270.857,184.954,269.074,188.090,267.180"/>
<path class="path-2" d="M188.090,267.180C191.935,265.215,201.455,265.958,202.406,270.837C204.608,275.506,199.539,285.445,198.889,290.134C194.156,308.311,186.913,326.127,189.036,344.351C189.870,350.018,195.393,362.235,190.293,366.522C188.273,368.220,182.262,364.437,181.505,366.174C180.141,369.293,174.324,359.756,173.504,358.451C172.769,357.284,169.996,349.130,169.692,346.814C169.377,342.211,169.440,333.168,170.248,327.405C171.127,321.464,171.890,315.219,174.442,309.109C176.735,302.094,180.735,294.162,182.836,286.202C185.281,281.210,189.283,278.338,188.444,274.500C187.288,270.857,184.954,269.074,188.090,267.180Z"/>
<path class="path-1" d="M279.343,234.021C282.918,233.786,289.069,236.180,288.748,240.245"/>
<path class="path-1" d="M288.748,240.245C288.700,243.249,282.498,252.337,277.748,255.283"/>
<path class="path-1" d="M277.748,255.283C274.872,257.066,268.533,257.249,266.714,257.617"/>
<path class="path-1" d="M266.714,257.617C263.355,258.111,262.714,255.404,262.366,253.046"/>
<path class="path-1" d="M262.366,253.046C261.874,248.627,264.904,242.117,268.148,238.864"/>
<path class="path-1" d="M268.148,238.864C270.732,236.273,275.328,234.141,279.343,234.021"/>
<path class="path-2" d="M279.343,234.021C282.918,233.786,289.069,236.180,288.748,240.245C288.700,243.249,282.498,252.337,277.748,255.283C274.872,257.066,268.533,257.249,266.714,257.617C263.355,258.111,262.714,255.404,262.366,253.046C261.874,248.627,264.904,242.117,268.148,238.864C270.732,236.273,275.328,234.141,279.343,234.021Z"/>
<path class="path-1" d="M204.588,243.631C209.485,252.902,214.587,262.358,209.320,261.073"/>
<path class="path-1" d="M209.320,261.073C203.007,259.532,199.755,259.903,189.763,255.866"/>
<path class="path-1" d="M189.763,255.866C179.164,251.583,176.523,236.386,182.429,231.591"/>
<path class="path-1" d="M182.429,231.591C188.303,226.823,198.896,232.855,204.588,243.631"/>
<path class="path-2" d="M204.588,243.631C209.485,252.902,214.587,262.358,209.320,261.073C203.007,259.532,199.755,259.903,189.763,255.866C179.164,251.583,176.523,236.386,182.429,231.591C188.303,226.823,198.896,232.855,204.588,243.631Z"/>
</g>
<g id="left_arm">
<path class="path-0" d="M290.902,459.809C287.575,454.485,286.245,445.502,293.897,443.175C299.221,441.510,323.174,446.834,327.167,450.826C334.153,457.148,330.161,471.786,321.510,475.113C311.529,478.439,296.226,468.127,290.902,459.809M279.516,276.423C280.393,273.226,288.864,263.064,293.897,264.184C296.819,264.834,298.222,269.839,299.220,272.502C301.881,280.818,304.543,289.469,306.872,298.119C313.194,320.741,317.518,343.366,322.177,365.988C323.839,375.305,323.839,387.613,327.167,395.931C331.159,405.579,337.479,402.253,340.474,408.573C341.805,411.567,341.140,417.224,343.136,421.881C346.130,429.201,351.785,433.194,354.446,437.851C356.111,440.512,356.776,443.506,353.117,444.173C351.121,445.171,345.797,444.173,343.801,444.173C337.144,442.402,330.490,440.627,323.840,438.849C314.857,436.852,287.575,435.521,282.918,429.533C275.931,420.218,286.910,409.240,288.242,399.924C288.907,396.930,292.189,352.967,291.567,350.019C290.899,343.164,287.387,337.131,285.841,330.057C284.214,320.430,282.539,310.147,281.179,300.115C280.223,291.877,276.733,285.067,279.516,276.423M305.541,254.536C303.213,249.877,295.893,241.561,289.904,242.890C284.914,244.222,284.249,250.210,283.582,254.203C281.920,264.184,279.924,272.502,279.924,282.149C279.590,289.136,280.257,295.458,280.921,302.111C281.586,311.427,279.590,329.392,279.924,340.038C279.924,349.686,282.253,359.667,281.586,367.985C279.590,387.613,271.273,406.246,271.938,425.874C271.939,435.855,274.600,435.855,276.929,443.840C278.592,449.828,277.263,456.150,279.590,461.805C285.579,476.776,302.880,490.416,319.847,487.091C335.483,484.096,336.150,467.129,344.466,458.146C351.786,450.161,366.424,454.154,368.420,445.835C370.416,438.849,360.769,431.198,357.110,425.874C349.790,415.893,355.445,413.563,351.786,405.912C349.125,400.257,341.471,395.267,337.813,387.947C335.816,384.619,334.819,378.299,333.487,373.973C330.826,363.992,327.831,352.680,326.169,342.034C324.504,329.724,324.173,318.745,320.845,306.103C318.184,295.458,310.200,262.852,305.541,254.536Z"/>
<path class="path-1" d="M293.897,264.184C296.819,264.834,298.222,269.839,299.220,272.502"/>
<path class="path-1" d="M299.220,272.502C301.881,280.818,304.543,289.469,306.872,298.119"/>
<path class="path-1" d="M306.872,298.119C313.194,320.741,317.518,343.366,322.177,365.988"/>
<path class="path-1" d="M322.177,365.988C323.839,375.305,323.839,387.613,327.167,395.931"/>
<path class="path-1" d="M327.167,395.931C331.159,405.579,337.479,402.253,340.474,408.573"/>
<path class="path-1" d="M340.474,408.573C341.805,411.567,341.140,417.224,343.136,421.881"/>
<path class="path-1" d="M343.136,421.881C346.130,429.201,351.785,433.194,354.446,437.851"/>
<path class="path-1" d="M354.446,437.851C356.111,440.512,356.776,443.506,353.117,444.173"/>
<path class="path-1" d="M353.117,444.173C351.121,445.171,345.797,444.173,343.801,444.173"/>
<path class="path-1" d="M343.801,444.173C337.144,442.402,330.490,440.627,323.840,438.849"/>
<path class="path-1" d="M323.840,438.849C314.857,436.852,287.575,435.521,282.918,429.533"/>
<path class="path-1" d="M282.918,429.533C275.931,420.218,286.910,409.240,288.242,399.924"/>
<path class="path-1" d="M288.242,399.924C288.907,396.930,292.189,352.967,291.567,350.019"/>
<path class="path-1" d="M291.567,350.019C290.899,343.164,287.387,337.131,285.841,330.057"/>
<path class="path-1" d="M285.841,330.057C284.214,320.430,282.539,310.147,281.179,300.115"/>
<path class="path-1" d="M281.179,300.115C280.223,291.877,276.733,285.067,279.516,276.423"/>
<path class="path-1" d="M279.516,276.423C280.393,273.226,288.864,263.064,293.897,264.184"/>
<path class="path-2" d="M293.897,264.184C296.819,264.834,298.222,269.839,299.220,272.502C301.881,280.818,304.543,289.469,306.872,298.119C313.194,320.741,317.518,343.366,322.177,365.988C323.839,375.305,323.839,387.613,327.167,395.931C331.159,405.579,337.479,402.253,340.474,408.573C341.805,411.567,341.140,417.224,343.136,421.881C346.130,429.201,351.785,433.194,354.446,437.851C356.111,440.512,356.776,443.506,353.117,444.173C351.121,445.171,345.797,444.173,343.801,444.173C337.144,442.402,330.490,440.627,323.840,438.849C314.857,436.852,287.575,435.521,282.918,429.533C275.931,420.218,286.910,409.240,288.242,399.924C288.907,396.930,292.189,352.967,291.567,350.019C290.899,343.164,287.387,337.131,285.841,330.057C284.214,320.430,282.539,310.147,281.179,300.115C280.223,291.877,276.733,285.067,279.516,276.423C280.393,273.226,288.864,263.064,293.897,264.184Z"/>
<path class="path-15" d="M293.897,443.175C299.221,441.510,323.174,446.834,327.167,450.826"/>
<path class="path-15" d="M327.167,450.826C334.153,457.148,330.161,471.786,321.510,475.113"/>
<path class="path-15" d="M321.510,475.113C311.529,478.439,296.226,468.127,290.902,459.809"/>
<path class="path-15" d="M290.902,459.809C287.575,454.485,286.245,445.502,293.897,443.175"/>
<path class="path-16" d="M293.897,443.175C299.221,441.510,323.174,446.834,327.167,450.826C334.153,457.148,330.161,471.786,321.510,475.113C311.529,478.439,296.226,468.127,290.902,459.809C287.575,454.485,286.245,445.502,293.897,443.175Z"/>
</g>
<g id="bone">
<g id="bone1_clothes">
<path class="path-23" d="M242.747,389.626C242.748,389.621,254.317,331.778,254.318,331.772C254.318,331.778,253.820,390.764,253.820,390.770C253.819,390.770,242.748,389.626,242.747,389.626"/>
</g>
<g id="bone2_clothes">
<path class="path-23" d="M232.645,327.843C232.645,327.836,231.062,255.327,231.062,255.319C231.064,255.326,246.319,326.230,246.320,326.237C246.319,326.237,232.646,327.843,232.645,327.843"/>
</g>
<g id="bone3_neck">
<path class="path-23" d="M237.781,253.924C237.780,253.920,234.739,212.331,234.739,212.327C234.739,212.331,231.184,253.880,231.183,253.884C231.184,253.884,237.780,253.924,237.781,253.924"/>
</g>
<g id="bone4_head">
<path class="path-23" d="M230.433,213.015C230.433,213.007,227.828,134.986,227.828,134.979C227.830,134.986,242.817,211.598,242.819,211.605C242.817,211.605,230.435,213.015,230.433,213.015"/>
</g>
<g id="bone5_left_arm">
<path class="path-23" d="M298.163,255.461C298.165,255.470,320.627,345.167,320.630,345.176C320.626,345.168,283.247,260.593,283.243,260.585C283.245,260.584,298.161,255.462,298.163,255.461"/>
</g>
<g id="bone6_left_arm">
<path class="path-23" d="M300.881,349.128C300.882,349.134,307.164,412.560,307.165,412.567C307.165,412.560,311.321,348.959,311.321,348.953C311.320,348.953,300.882,349.128,300.881,349.128"/>
</g>
<g id="bone7_right_arm">
<path class="path-23" d="M169.131,269.641C169.129,269.653,149.258,383.430,149.256,383.441C149.259,383.430,186.833,274.214,186.837,274.203C186.835,274.203,169.133,269.642,169.131,269.641"/>
</g>
<g id="bone8_right_arm">
<path class="path-23" d="M157.157,379.808C157.160,379.814,181.052,434.331,181.054,434.336C181.051,434.331,146.694,385.725,146.691,385.720C146.692,385.720,157.156,379.809,157.157,379.808"/>
</g>
<g id="bone9_left_leg">
<path class="path-23" d="M271.689,383.876C271.692,383.886,298.515,483.861,298.518,483.871C298.514,483.862,254.458,390.198,254.454,390.188C254.455,390.188,271.688,383.876,271.689,383.876"/>
</g>
<g id="bone10_right_leg">
<path class="path-23" d="M209.517,384.903C209.516,384.913,202.062,487.470,202.061,487.481C202.064,487.471,224.852,387.200,224.854,387.190C224.853,387.189,209.518,384.903,209.517,384.903"/>
</g>
<g id="bone11_hair">
<path class="path-23" d="M234.357,156.246C234.358,156.254,250.741,234.747,250.742,234.755C250.739,234.747,220.269,160.578,220.266,160.571C220.267,160.570,234.355,156.246,234.357,156.246"/>
</g>
<g id="bone12_left_leg_S">
<path class="path-23" d="M435.196,222.239C435.203,222.239,507.367,227.352,507.374,227.352C507.367,227.350,437.024,210.451,437.017,210.449C437.017,210.450,435.196,222.237,435.196,222.239"/>
</g>
<g id="bone13_right_leg_S">
<path class="path-23" d="M495.594,210.764C495.587,210.765,424.523,224.315,424.516,224.317C424.523,224.317,496.848,222.626,496.855,222.626C496.855,222.625,495.594,210.765,495.594,210.764"/>
</g>
<g id="bone14_left_arm_S">
<path class="path-23" d="M557.459,215.989C557.458,215.981,551.495,143.884,551.494,143.876C551.494,143.884,545.530,215.981,545.530,215.989C545.531,215.989,557.458,215.989,557.459,215.989"/>
</g>
<g id="bone15_jacket_S">
<path class="path-23" d="M598.610,215.879C598.612,215.886,617.554,285.706,617.556,285.713C617.555,285.706,610.342,213.722,610.341,213.715C610.340,213.715,598.611,215.879,598.610,215.879"/>
</g>
<g id="bone16_pupils_S">
<path class="path-23" d="M442.221,337.675C442.220,337.668,440.191,265.352,440.190,265.345C440.189,265.352,430.310,337.019,430.309,337.026C430.310,337.026,442.219,337.675,442.221,337.675"/>
</g>
<g id="bone17_eyelids_S">
<path class="path-23" d="M500.038,332.690C500.032,332.686,438.949,293.924,438.943,293.920C438.948,293.925,492.832,342.196,492.838,342.201C492.838,342.200,500.037,332.691,500.038,332.690"/>
</g>
<g id="bone18_face_S">
<path class="path-23" d="M556.276,342.841C556.280,342.835,600.130,285.295,600.134,285.289C600.129,285.294,547.421,334.848,547.416,334.853C547.417,334.854,556.275,342.840,556.276,342.841"/>
</g>
</g>
</g>
<style>
.path-0{fill:#000000;fill-rule:evenodd;stroke:none;}
.path-1{fill:none;stroke:#a60d3f;stroke-width:1;stroke-linecap:butt;stroke-linejoin:round;}
.path-2{fill:#a60d3f;fill-rule:evenodd;stroke:none;}
.path-3{fill:none;stroke:#d88e4b;stroke-width:1;stroke-linecap:butt;stroke-linejoin:round;}
.path-4{fill:#d88e4b;fill-rule:evenodd;stroke:none;}
.path-5{fill:none;stroke:#6e2353;stroke-width:1;stroke-linecap:butt;stroke-linejoin:round;}
.path-6{fill:#6e2353;fill-rule:evenodd;stroke:none;}
.path-7{fill:none;stroke:#392966;stroke-width:1;stroke-linecap:butt;stroke-linejoin:round;}
.path-8{fill:#392966;fill-rule:evenodd;stroke:none;}
.path-9{fill:none;stroke:#cc9bc5;stroke-width:1;stroke-linecap:butt;stroke-linejoin:round;}
.path-10{fill:#cc9bc5;fill-rule:evenodd;stroke:none;}
.path-11{fill:none;stroke:#620527;stroke-width:1;stroke-linecap:butt;stroke-linejoin:round;}
.path-12{fill:#620527;fill-rule:evenodd;stroke:none;}
.path-13{fill:none;stroke:#6a3661;stroke-width:1;stroke-linecap:butt;stroke-linejoin:round;}
.path-14{fill:#6a3661;fill-rule:evenodd;stroke:none;}
.path-15{fill:none;stroke:#f8a087;stroke-width:1;stroke-linecap:butt;stroke-linejoin:round;}
.path-16{fill:#f8a087;fill-rule:evenodd;stroke:none;}
.path-17{fill:none;stroke:#ffffff;stroke-width:1;stroke-linecap:butt;stroke-linejoin:round;}
.path-18{fill:#ffffff;fill-rule:evenodd;stroke:none;}
.path-19{fill:none;stroke:#d89f4a;stroke-width:1;stroke-linecap:butt;stroke-linejoin:round;}
.path-20{fill:#d89f4a;fill-rule:evenodd;stroke:none;}
.path-21{fill:none;stroke:#fafd5b;stroke-width:1;stroke-linecap:butt;stroke-linejoin:round;}
.path-22{fill:#fafd5b;fill-rule:evenodd;stroke:none;}
.path-23{fill:none;stroke:#00ff42;stroke-width:8;stroke-linecap:round;stroke-linejoin:round;}
.path-24{fill:none;stroke:#000000;stroke-width:1;stroke-linecap:butt;stroke-linejoin:round;}
.path-25{fill:none;stroke:#ececec;stroke-width:1;stroke-linecap:butt;stroke-linejoin:round;}
.path-26{fill:#ececec;fill-rule:evenodd;stroke:none;}
.path-27{fill:none;stroke:#808080;stroke-width:1;stroke-linecap:butt;stroke-linejoin:round;}
.path-28{fill:#808080;fill-rule:evenodd;stroke:none;}
.path-29{fill:none;stroke:#282828;stroke-width:1;stroke-linecap:butt;stroke-linejoin:round;}
.path-30{fill:#282828;fill-rule:evenodd;stroke:none;}
.path-31{fill:none;stroke:#bdbdbd;stroke-width:1;stroke-linecap:butt;stroke-linejoin:round;}
.path-32{fill:#bdbdbd;fill-rule:evenodd;stroke:none;}
</style>
</svg>
