<svg version="1.1" id="Frame_215" xmlns="http://www.w3.org/2000/svg" xmlns:xlink="http://www.w3.org/1999/xlink" width="480px" height="720px">
<g id="main_bone">
<g id="right_arm">
<path class="path-0" d="M174.126,270.172C175.458,267.511,178.075,262.017,181.778,260.525C188.182,257.943,193.652,263.933,194.431,268.509C196.093,276.447,190.936,287.396,188.470,295.289C182.390,314.329,175.637,333.084,171.132,352.015C170.600,355.317,165.808,376.634,165.808,373.973C165.476,380.626,172.130,386.283,174.459,391.939C177.454,399.590,174.791,406.910,172.795,413.897C168.138,428.535,168.471,433.858,167.804,448.165C167.804,450.492,167.473,458.146,163.812,458.146C160.487,458.146,160.153,452.157,159.488,449.828C159.155,447.167,156.825,441.510,157.492,439.182C157.823,435.190,162.483,436.188,157.492,427.870C151.170,417.555,139.526,409.240,136.532,395.931C134.536,385.285,140.191,375.969,143.186,365.988C149.508,344.695,156.494,323.404,163.812,302.111C167.805,291.132,168.802,281.484,174.126,270.172M193.754,262.188C193.755,253.538,190.761,245.885,180.115,249.546C163.481,255.200,158.822,281.484,154.165,296.122C147.512,316.084,141.855,336.046,136.199,356.007C133.870,364.657,130.544,368.982,129.212,373.973C127.549,379.628,127.881,388.280,128.214,393.935C128.214,411.567,133.869,412.234,140.856,425.874C144.517,433.859,140.525,438.849,142.852,445.835C144.517,450.492,148.176,453.820,150.837,457.813C153.166,461.805,153.499,464.135,155.162,467.793C157.158,472.119,163.481,481.767,169.136,479.771C173.793,478.108,173.793,469.790,174.126,465.797C174.459,459.809,178.119,436.853,179.450,429.866C181.778,418.554,187.435,406.245,185.770,393.935C184.440,384.619,176.122,377.965,176.456,367.985C176.787,362.661,180.115,354.011,181.113,348.023C182.776,338.375,182.776,328.061,184.772,318.081C188.099,300.448,194.421,280.487,193.754,262.188Z"/>
<path class="path-1" d="M181.778,260.525C188.182,257.943,193.652,263.933,194.431,268.509"/>
<path class="path-1" d="M194.431,268.509C196.093,276.447,190.936,287.396,188.470,295.289"/>
<path class="path-1" d="M188.470,295.289C182.390,314.329,175.637,333.084,171.132,352.015"/>
<path class="path-1" d="M171.132,352.015C170.600,355.317,165.808,376.634,165.808,373.973"/>
<path class="path-1" d="M165.808,373.973C165.476,380.626,172.130,386.283,174.459,391.939"/>
<path class="path-1" d="M174.459,391.939C177.454,399.590,174.791,406.910,172.795,413.897"/>
<path class="path-1" d="M172.795,413.897C168.138,428.535,168.471,433.858,167.804,448.165"/>
<path class="path-1" d="M167.804,448.165C167.804,450.492,167.473,458.146,163.812,458.146"/>
<path class="path-1" d="M163.812,458.146C160.487,458.146,160.153,452.157,159.488,449.828"/>
<path class="path-1" d="M159.488,449.828C159.155,447.167,156.825,441.510,157.492,439.182"/>
<path class="path-1" d="M157.492,439.182C157.823,435.190,162.483,436.188,157.492,427.870"/>
<path class="path-1" d="M157.492,427.870C151.170,417.555,139.526,409.240,136.532,395.931"/>
<path class="path-1" d="M136.532,395.931C134.536,385.285,140.191,375.969,143.186,365.988"/>
<path class="path-1" d="M143.186,365.988C149.508,344.695,156.494,323.404,163.812,302.111"/>
<path class="path-1" d="M163.812,302.111C167.805,291.132,168.802,281.484,174.126,270.172"/>
<path class="path-1" d="M174.126,270.172C175.458,267.511,178.075,262.017,181.778,260.525"/>
<path class="path-2" d="M181.778,260.525C188.182,257.943,193.652,263.933,194.431,268.509C196.093,276.447,190.936,287.396,188.470,295.289C182.390,314.329,175.637,333.084,171.132,352.015C170.600,355.317,165.808,376.634,165.808,373.973C165.476,380.626,172.130,386.283,174.459,391.939C177.454,399.590,174.791,406.910,172.795,413.897C168.138,428.535,168.471,433.858,167.804,448.165C167.804,450.492,167.473,458.146,163.812,458.146C160.487,458.146,160.153,452.157,159.488,449.828C159.155,447.167,156.825,441.510,157.492,439.182C157.823,435.190,162.483,436.188,157.492,427.870C151.170,417.555,139.526,409.240,136.532,395.931C134.536,385.285,140.191,375.969,143.186,365.988C149.508,344.695,156.494,323.404,163.812,302.111C167.805,291.132,168.802,281.484,174.126,270.172C175.458,267.511,178.075,262.017,181.778,260.525Z"/>
</g>
<g id="layer_left_leg">
<g id="left_heel">
<path class="path-0" d="M255.279,622.917C248.132,611.450,262.214,592.018,273.498,589.727C290.640,586.052,303.028,611.921,300.885,618.067C297.350,627.265,281.424,627.815,273.027,627.946C268.394,627.866,257.553,626.750,255.279,622.917M301.339,588.682C291.758,579.105,269.659,580.831,258.848,586.769C235.134,599.182,229.888,641.782,264.891,640.313C276.392,639.887,301.676,637.470,308.460,630.070C314.340,624.428,312.401,615.258,310.581,607.860C308.722,601.860,305.851,593.323,301.339,588.682Z"/>
<path class="path-3" d="M273.498,589.727C290.640,586.052,303.028,611.921,300.885,618.067"/>
<path class="path-3" d="M300.885,618.067C297.350,627.265,281.424,627.815,273.027,627.946"/>
<path class="path-3" d="M273.027,627.946C268.394,627.866,257.553,626.750,255.279,622.917"/>
<path class="path-3" d="M255.279,622.917C248.132,611.450,262.214,592.018,273.498,589.727"/>
<path class="path-4" d="M273.498,589.727C290.640,586.052,303.028,611.921,300.885,618.067C297.350,627.265,281.424,627.815,273.027,627.946C268.394,627.866,257.553,626.750,255.279,622.917C248.132,611.450,262.214,592.018,273.498,589.727Z"/>
</g>
<g id="left_leg">
<path class="path-0" d="M238.898,405.789C240.604,401.168,250.097,404.770,253.973,404.581C259.738,404.579,272.689,402.688,277.406,406.195C286.392,412.420,289.056,442.564,289.533,453.069C290.063,484.757,291.873,514.466,292.235,545.068C292.165,550.866,292.185,556.854,291.949,562.534C291.949,567.372,289.102,573.992,292.519,577.013C294.128,579.036,299.188,576.034,299.675,578.380C300.833,586.476,292.115,582.539,288.145,586.791C280.719,594.269,266.372,600.614,257.120,598.168C250.864,596.736,240.171,589.784,237.705,583.953C235.443,578.603,233.881,572.100,232.857,566.496C227.858,539.146,244.088,486.805,237.016,451.439C233.455,433.633,240.827,431.058,249.587,419.494C251.142,417.441,238.427,419.265,236.730,417.280C234.510,415.069,237.683,408.599,238.898,405.789M284.809,397.185C278.544,392.467,261.241,394.443,253.973,394.933C249.859,395.194,236.912,392.403,233.905,394.321C216.490,405.437,223.119,444.440,225.294,461.144C225.604,466.051,225.172,489.512,224.917,496.126C225.470,523.150,219.088,546.285,220.983,573.249C221.388,580.351,221.126,587.365,223.663,593.906C230.724,611.737,247.234,614.749,269.220,613.660C280.669,613.101,306.226,607.796,315.142,586.454C318.547,578.296,313.561,567.018,312.372,564.269C310.301,559.478,307.190,554.788,306.061,549.308C301.773,531.620,308.597,512.962,307.330,494.699C305.728,471.281,304.572,412.136,284.809,397.185Z"/>
<path class="path-7" d="M253.973,404.581C259.738,404.579,272.689,402.688,277.406,406.195"/>
<path class="path-7" d="M277.406,406.195C286.392,412.420,289.056,442.564,289.533,453.069"/>
<path class="path-7" d="M289.533,453.069C290.063,484.757,291.873,514.466,292.235,545.068"/>
<path class="path-7" d="M292.235,545.068C292.165,550.866,292.185,556.854,291.949,562.534"/>
<path class="path-7" d="M291.949,562.534C291.949,567.372,289.102,573.992,292.519,577.013"/>
<path class="path-7" d="M292.519,577.013C294.128,579.036,299.188,576.034,299.675,578.380"/>
<path class="path-7" d="M299.675,578.380C300.833,586.476,292.115,582.539,288.145,586.791"/>
<path class="path-7" d="M288.145,586.791C280.719,594.269,266.372,600.614,257.120,598.168"/>
<path class="path-7" d="M257.120,598.168C250.864,596.736,240.171,589.784,237.705,583.953"/>
<path class="path-7" d="M237.705,583.953C235.443,578.603,233.881,572.100,232.857,566.496"/>
<path class="path-7" d="M232.857,566.496C227.858,539.146,244.088,486.805,237.016,451.439"/>
<path class="path-7" d="M237.016,451.439C233.455,433.633,240.827,431.058,249.587,419.494"/>
<path class="path-7" d="M249.587,419.494C251.142,417.441,238.427,419.265,236.730,417.280"/>
<path class="path-7" d="M236.730,417.280C234.510,415.069,237.683,408.599,238.898,405.789"/>
<path class="path-7" d="M238.898,405.789C240.604,401.168,250.097,404.770,253.973,404.581"/>
<path class="path-8" d="M253.973,404.581C259.738,404.579,272.689,402.688,277.406,406.195C286.392,412.420,289.056,442.564,289.533,453.069C290.063,484.757,291.873,514.466,292.235,545.068C292.165,550.866,292.185,556.854,291.949,562.534C291.949,567.372,289.102,573.992,292.519,577.013C294.128,579.036,299.188,576.034,299.675,578.380C300.833,586.476,292.115,582.539,288.145,586.791C280.719,594.269,266.372,600.614,257.120,598.168C250.864,596.736,240.171,589.784,237.705,583.953C235.443,578.603,233.881,572.100,232.857,566.496C227.858,539.146,244.088,486.805,237.016,451.439C233.455,433.633,240.827,431.058,249.587,419.494C251.142,417.441,238.427,419.265,236.730,417.280C234.510,415.069,237.683,408.599,238.898,405.789C240.604,401.168,250.097,404.770,253.973,404.581Z"/>
</g>
<g id="left_toe">
<path class="path-0" d="M252.929,655.245C226.078,650.624,231.212,615.961,251.850,609.042C272.256,602.353,290.653,614.428,296.503,627.248C299.984,633.701,301.692,640.601,298.312,647.298C290.959,659.281,265.337,657.293,252.929,655.245M311.926,621.096C308.571,607.912,297.236,595.523,286.279,591.898C258.485,582.839,234.996,591.302,226.136,616.114C220.548,630.260,223.529,646.187,232.951,658.127C240.511,667.115,266.751,668.372,277.925,667.318C287.706,665.711,299.931,662.983,306.573,654.605C311.501,648.575,313.742,628.489,311.926,621.096Z"/>
<path class="path-3" d="M251.850,609.042C272.256,602.353,290.653,614.428,296.503,627.248"/>
<path class="path-3" d="M296.503,627.248C299.984,633.701,301.692,640.601,298.312,647.298"/>
<path class="path-3" d="M298.312,647.298C290.959,659.281,265.337,657.293,252.929,655.245"/>
<path class="path-3" d="M252.929,655.245C226.078,650.624,231.212,615.961,251.850,609.042"/>
<path class="path-4" d="M251.850,609.042C272.256,602.353,290.653,614.428,296.503,627.248C299.984,633.701,301.692,640.601,298.312,647.298C290.959,659.281,265.337,657.293,252.929,655.245C226.078,650.624,231.212,615.961,251.850,609.042Z"/>
</g>
<g id="left_sole">
<path class="path-0" d="M256.299,670.100C245.394,670.012,242.385,655.806,240.497,661.143C239.309,664.498,248.925,667.471,253.025,668.596C262.095,671.456,276.917,670.072,285.639,665.679C288.559,664.492,297.841,661.412,297.916,661.652C299.130,665.493,286.775,666.700,282.868,667.167C279.689,667.877,257.158,669.927,256.299,670.100M240.836,660.925C246.033,659.109,256.517,663.616,260.458,664.906C276.108,670.027,286.644,661.552,294.801,659.969C295.512,659.840,296.998,657.928,298.500,659.525C303.430,664.765,269.874,672.453,256.481,668.176C249.132,666.620,238.709,661.669,240.836,660.925M302.911,652.207C299.751,649.847,282.828,658.310,266.428,658.755C257.956,659.014,237.022,646.117,231.268,655.720C230.027,657.802,230.864,665.361,232.603,666.978C244.101,678.056,295.901,673.790,302.173,668.915C304.207,667.334,307.742,655.813,302.911,652.207Z"/>
<path class="path-5" d="M240.497,661.143C239.309,664.498,248.925,667.471,253.025,668.596"/>
<path class="path-5" d="M253.025,668.596C262.095,671.456,276.917,670.072,285.639,665.679"/>
<path class="path-5" d="M285.639,665.679C288.559,664.492,297.841,661.412,297.916,661.652"/>
<path class="path-5" d="M297.916,661.652C299.130,665.493,286.775,666.700,282.868,667.167"/>
<path class="path-5" d="M282.868,667.167C279.689,667.877,257.158,669.927,256.299,670.100"/>
<path class="path-5" d="M256.299,670.100C245.394,670.012,242.385,655.806,240.497,661.143"/>
<path class="path-6" d="M240.497,661.143C239.309,664.498,248.925,667.471,253.025,668.596C262.095,671.456,276.917,670.072,285.639,665.679C288.559,664.492,297.841,661.412,297.916,661.652C299.130,665.493,286.775,666.700,282.868,667.167C279.689,667.877,257.158,669.927,256.299,670.100C245.394,670.012,242.385,655.806,240.497,661.143Z"/>
<path class="path-5" d="M260.458,664.906C276.108,670.027,286.644,661.552,294.801,659.969"/>
<path class="path-5" d="M294.801,659.969C295.512,659.840,296.998,657.928,298.500,659.525"/>
<path class="path-5" d="M298.500,659.525C303.430,664.765,269.874,672.453,256.481,668.176"/>
<path class="path-5" d="M256.481,668.176C249.132,666.620,238.709,661.669,240.836,660.925"/>
<path class="path-5" d="M240.836,660.925C246.033,659.109,256.517,663.616,260.458,664.906"/>
<path class="path-6" d="M260.458,664.906C276.108,670.027,286.644,661.552,294.801,659.969C295.512,659.840,296.998,657.928,298.500,659.525C303.430,664.765,269.874,672.453,256.481,668.176C249.132,666.620,238.709,661.669,240.836,660.925C246.033,659.109,256.517,663.616,260.458,664.906Z"/>
</g>
</g>
<g id="layer_right_leg">
<g id="right_heel">
<path class="path-0" d="M183.306,620.515C184.169,604.116,185.311,591.377,205.324,588.488C214.239,587.038,231.218,589.875,236.118,598.498C238.697,602.784,237.896,609.073,238.141,613.652C238.605,621.114,243.167,635.509,232.652,637.259C231.976,637.439,213.352,637.774,207.539,637.930C200.118,638.819,192.392,639.387,187.023,634.248C184.258,631.017,183.027,624.370,183.306,620.515M245.651,596.783C241.729,586.364,227.428,580.449,217.345,581.913C204.191,583.660,190.727,579.324,182.161,591.635C175.485,601.230,174.727,618.866,176.728,630.057C177.481,635.221,180.733,644.640,185.022,647.500C188.167,649.500,193.027,648.925,196.745,648.929C214.854,649.235,247.179,655.361,246.807,628.341C246.636,621.352,247.710,602.313,245.651,596.783Z"/>
<path class="path-3" d="M205.324,588.488C214.239,587.038,231.218,589.875,236.118,598.498"/>
<path class="path-3" d="M236.118,598.498C238.697,602.784,237.896,609.073,238.141,613.652"/>
<path class="path-3" d="M238.141,613.652C238.605,621.114,243.167,635.509,232.652,637.259"/>
<path class="path-3" d="M232.652,637.259C231.976,637.439,213.352,637.774,207.539,637.930"/>
<path class="path-3" d="M207.539,637.930C200.118,638.819,192.392,639.387,187.023,634.248"/>
<path class="path-3" d="M187.023,634.248C184.258,631.017,183.027,624.370,183.306,620.515"/>
<path class="path-3" d="M183.306,620.515C184.169,604.116,185.311,591.377,205.324,588.488"/>
<path class="path-4" d="M205.324,588.488C214.239,587.038,231.218,589.875,236.118,598.498C238.697,602.784,237.896,609.073,238.141,613.652C238.605,621.114,243.167,635.509,232.652,637.259C231.976,637.439,213.352,637.774,207.539,637.930C200.118,638.819,192.392,639.387,187.023,634.248C184.258,631.017,183.027,624.370,183.306,620.515C184.169,604.116,185.311,591.377,205.324,588.488Z"/>
</g>
<g id="right_leg">
<path class="path-0" d="M182.878,404.846C186.549,392.956,202.254,390.124,212.784,393.055C218.618,394.551,228.378,397.412,231.565,402.921C232.928,405.279,233.464,409.663,232.043,411.986C229.549,416.066,214.334,413.215,217.005,417.279C221.661,424.603,231.876,415.211,236.135,419.096C238.029,420.824,238.201,424.348,238.579,427.287C242.566,449.291,235.532,472.724,235.323,494.418C235.186,501.430,233.500,511.763,234.685,518.154C237.066,533.908,235.141,537.211,235.464,546.663C235.364,550.185,233.471,568.036,234.609,572.626C235.906,577.448,239.323,582.090,239.745,587.091C240.455,595.526,227.967,606.476,220.356,608.671C211.661,610.994,184.999,609.005,176.928,604.503C173.806,602.878,170.007,598.973,168.791,595.402C167.452,592.068,165.999,576.467,167.093,572.725C169.261,566.228,171.796,564.925,173.979,557.210C176.227,548.108,178.455,538.253,178.088,528.666C176.995,509.903,178.145,479.909,180.426,466.495C181.523,458.926,179.999,433.417,181.098,426.411C183.021,414.836,181.033,412.586,182.878,404.846M208.062,381.294C202.406,379.297,198.068,373.935,192.092,375.969C190.265,376.766,187.072,379.045,185.775,380.363C169.799,394.133,171.017,407.963,170.975,427.547C170.667,434.560,170.718,441.855,170.030,448.566C169.346,454.143,167.480,458.702,166.113,463.807C165.274,468.013,164.563,472.520,164.299,477.818C164.169,483.033,165.491,489.167,165.539,498.028C164.881,507.911,165.525,517.251,165.009,526.705C164.872,533.157,161.647,548.073,160.723,552.976C158.413,559.904,155.147,567.919,153.490,574.617C151.826,583.499,153.156,592.931,156.568,600.791C158.137,604.999,161.013,610.019,164.172,612.821C166.232,614.647,169.001,615.712,171.476,616.578C179.649,619.391,187.418,620.737,196.137,621.018C202.008,621.251,207.808,619.591,213.894,620.138C214.913,620.073,223.150,622.001,224.791,622.140C227.749,622.219,231.927,619.604,234.629,618.025C238.223,615.656,244.564,614.969,247.439,611.607C249.764,608.884,250.424,605.086,251.620,601.709C258.368,581.777,252.746,570.771,250.308,552.551C248.952,542.420,246.642,521.579,246.827,510.261C246.771,496.549,249.479,483.298,250.320,469.187C250.674,464.744,251.079,459.415,251.859,454.394C252.550,449.361,251.499,445.279,251.303,440.279C250.922,436.415,251.228,424.033,250.646,419.885C250.273,416.185,250.314,411.567,248.983,407.908C245.324,398.592,231.351,388.280,222.034,385.285C217.377,383.621,212.387,383.290,208.062,381.294Z"/>
<path class="path-7" d="M212.784,393.055C218.618,394.551,228.378,397.412,231.565,402.921"/>
<path class="path-7" d="M231.565,402.921C232.928,405.279,233.464,409.663,232.043,411.986"/>
<path class="path-7" d="M232.043,411.986C229.549,416.066,214.334,413.215,217.005,417.279"/>
<path class="path-7" d="M217.005,417.279C221.661,424.603,231.876,415.211,236.135,419.096"/>
<path class="path-7" d="M236.135,419.096C238.029,420.824,238.201,424.348,238.579,427.287"/>
<path class="path-7" d="M238.579,427.287C242.566,449.291,235.532,472.724,235.323,494.418"/>
<path class="path-7" d="M235.323,494.418C235.186,501.430,233.500,511.763,234.685,518.154"/>
<path class="path-7" d="M234.685,518.154C237.066,533.908,235.141,537.211,235.464,546.663"/>
<path class="path-7" d="M235.464,546.663C235.364,550.185,233.471,568.036,234.609,572.626"/>
<path class="path-7" d="M234.609,572.626C235.906,577.448,239.323,582.090,239.745,587.091"/>
<path class="path-7" d="M239.745,587.091C240.455,595.526,227.967,606.476,220.356,608.671"/>
<path class="path-7" d="M220.356,608.671C211.661,610.994,184.999,609.005,176.928,604.503"/>
<path class="path-7" d="M176.928,604.503C173.806,602.878,170.007,598.973,168.791,595.402"/>
<path class="path-7" d="M168.791,595.402C167.452,592.068,165.999,576.467,167.093,572.725"/>
<path class="path-7" d="M167.093,572.725C169.261,566.228,171.796,564.925,173.979,557.210"/>
<path class="path-7" d="M173.979,557.210C176.227,548.108,178.455,538.253,178.088,528.666"/>
<path class="path-7" d="M178.088,528.666C176.995,509.903,178.145,479.909,180.426,466.495"/>
<path class="path-7" d="M180.426,466.495C181.523,458.926,179.999,433.417,181.098,426.411"/>
<path class="path-7" d="M181.098,426.411C183.021,414.836,181.033,412.586,182.878,404.846"/>
<path class="path-7" d="M182.878,404.846C186.549,392.956,202.254,390.124,212.784,393.055"/>
<path class="path-8" d="M212.784,393.055C218.618,394.551,228.378,397.412,231.565,402.921C232.928,405.279,233.464,409.663,232.043,411.986C229.549,416.066,214.334,413.215,217.005,417.279C221.661,424.603,231.876,415.211,236.135,419.096C238.029,420.824,238.201,424.348,238.579,427.287C242.566,449.291,235.532,472.724,235.323,494.418C235.186,501.430,233.500,511.763,234.685,518.154C237.066,533.908,235.141,537.211,235.464,546.663C235.364,550.185,233.471,568.036,234.609,572.626C235.906,577.448,239.323,582.090,239.745,587.091C240.455,595.526,227.967,606.476,220.356,608.671C211.661,610.994,184.999,609.005,176.928,604.503C173.806,602.878,170.007,598.973,168.791,595.402C167.452,592.068,165.999,576.467,167.093,572.725C169.261,566.228,171.796,564.925,173.979,557.210C176.227,548.108,178.455,538.253,178.088,528.666C176.995,509.903,178.145,479.909,180.426,466.495C181.523,458.926,179.999,433.417,181.098,426.411C183.021,414.836,181.033,412.586,182.878,404.846C186.549,392.956,202.254,390.124,212.784,393.055Z"/>
</g>
<g id="right_toe">
<path class="path-0" d="M166.159,643.199C167.551,629.796,172.874,612.536,189.196,610.219C192.956,609.486,198.247,611.272,202.419,612.128C223.751,616.450,232.042,621.254,232.699,643.199C232.757,649.226,233.655,656.707,229.145,661.538C224.661,666.255,203.539,663.602,197.087,663.880C185.686,664.618,175.864,670.063,167.984,660.117C163.269,654.035,165.425,650.359,166.159,643.199M241.289,620.209C234.248,606.123,201.517,597.702,186.767,600.404C164.755,604.564,157.636,621.855,156.182,640.543C155.614,647.209,154.738,654.532,158.040,660.443C159.222,662.558,161.729,665.391,163.471,667.086C176.571,680.942,186.204,679.220,203.985,679.107C213.387,679.204,229.029,678.410,236.593,672.130C242.275,666.949,242.846,661.289,243.116,654.048C243.125,647.073,244.131,625.376,241.289,620.209Z"/>
<path class="path-3" d="M189.196,610.219C192.956,609.486,198.247,611.272,202.419,612.128"/>
<path class="path-3" d="M202.419,612.128C223.751,616.450,232.042,621.254,232.699,643.199"/>
<path class="path-3" d="M232.699,643.199C232.757,649.226,233.655,656.707,229.145,661.538"/>
<path class="path-3" d="M229.145,661.538C224.661,666.255,203.539,663.602,197.087,663.880"/>
<path class="path-3" d="M197.087,663.880C185.686,664.618,175.864,670.063,167.984,660.117"/>
<path class="path-3" d="M167.984,660.117C163.269,654.035,165.425,650.359,166.159,643.199"/>
<path class="path-3" d="M166.159,643.199C167.551,629.796,172.874,612.536,189.196,610.219"/>
<path class="path-4" d="M189.196,610.219C192.956,609.486,198.247,611.272,202.419,612.128C223.751,616.450,232.042,621.254,232.699,643.199C232.757,649.226,233.655,656.707,229.145,661.538C224.661,666.255,203.539,663.602,197.087,663.880C185.686,664.618,175.864,670.063,167.984,660.117C163.269,654.035,165.425,650.359,166.159,643.199C167.551,629.796,172.874,612.536,189.196,610.219Z"/>
</g>
<g id="right_sole">
<path class="path-0" d="M184.676,675.842C186.215,676.155,201.636,675.952,203.387,675.949C204.789,675.968,213.239,676.053,214.435,675.975C215.181,675.942,222.656,675.604,223.228,676.063C222.695,675.609,214.685,677.073,214.214,677.088C213.281,677.150,186.980,676.993,186.670,677.103C185.478,677.133,174.247,676.181,173.500,675.218C174.709,674.696,182.906,675.481,184.676,675.842M224.391,669.990C224.443,670.268,222.828,671.977,222.407,671.980C221.566,671.990,208.263,673.466,207.153,673.229C205.898,673.185,197.091,673.860,195.959,673.849C193.711,673.827,175.690,673.105,173.764,671.968C173.550,671.785,172.834,670.653,172.869,670.498C172.935,670.216,180.016,670.538,181.111,670.503C182.828,670.448,196.788,669.889,198.550,669.856C200.459,669.820,215.501,670.018,217.456,669.854C217.761,669.836,224.257,669.303,224.391,669.990M230.128,664.825C218.824,661.628,209.926,666.144,199.634,666.477C192.181,666.752,177.880,665.160,168.797,666.918C167.342,667.199,164.563,666.984,164.114,668.485C163.554,670.376,167.184,674.454,169.494,675.979C172.357,677.868,178.327,677.908,180.695,678.270C192.698,680.554,207.980,679.405,220.317,678.882C229.417,678.502,231.695,674.871,232.629,670.502C233.018,668.682,233.667,665.777,230.128,664.825Z"/>
<path class="path-24" d="M184.676,675.842C186.215,676.155,201.636,675.952,203.387,675.949"/>
<path class="path-24" d="M203.387,675.949C204.789,675.968,213.239,676.053,214.435,675.975"/>
<path class="path-24" d="M214.435,675.975C215.181,675.942,222.656,675.604,223.228,676.063"/>
<path class="path-24" d="M223.228,676.063C222.695,675.609,214.685,677.073,214.214,677.088"/>
<path class="path-24" d="M214.214,677.088C213.281,677.150,186.980,676.993,186.670,677.103"/>
<path class="path-24" d="M186.670,677.103C185.478,677.133,174.247,676.181,173.500,675.218"/>
<path class="path-24" d="M173.500,675.218C174.709,674.696,182.906,675.481,184.676,675.842"/>
<path class="path-0" d="M184.676,675.842C186.215,676.155,201.636,675.952,203.387,675.949C204.789,675.968,213.239,676.053,214.435,675.975C215.181,675.942,222.656,675.604,223.228,676.063C222.695,675.609,214.685,677.073,214.214,677.088C213.281,677.150,186.980,676.993,186.670,677.103C185.478,677.133,174.247,676.181,173.500,675.218C174.709,674.696,182.906,675.481,184.676,675.842Z"/>
<path class="path-5" d="M181.111,670.503C182.828,670.448,196.788,669.889,198.550,669.856"/>
<path class="path-5" d="M198.550,669.856C200.459,669.820,215.501,670.018,217.456,669.854"/>
<path class="path-5" d="M217.456,669.854C217.761,669.836,224.257,669.303,224.391,669.990"/>
<path class="path-5" d="M224.391,669.990C224.443,670.268,222.828,671.977,222.407,671.980"/>
<path class="path-5" d="M222.407,671.980C221.566,671.990,208.263,673.466,207.153,673.229"/>
<path class="path-5" d="M207.153,673.229C205.898,673.185,197.091,673.860,195.959,673.849"/>
<path class="path-5" d="M195.959,673.849C193.711,673.827,175.690,673.105,173.764,671.968"/>
<path class="path-5" d="M173.764,671.968C173.550,671.785,172.834,670.653,172.869,670.498"/>
<path class="path-5" d="M172.869,670.498C172.935,670.216,180.016,670.538,181.111,670.503"/>
<path class="path-6" d="M181.111,670.503C182.828,670.448,196.788,669.889,198.550,669.856C200.459,669.820,215.501,670.018,217.456,669.854C217.761,669.836,224.257,669.303,224.391,669.990C224.443,670.268,222.828,671.977,222.407,671.980C221.566,671.990,208.263,673.466,207.153,673.229C205.898,673.185,197.091,673.860,195.959,673.849C193.711,673.827,175.690,673.105,173.764,671.968C173.550,671.785,172.834,670.653,172.869,670.498C172.935,670.216,180.016,670.538,181.111,670.503Z"/>
</g>
</g>
<g id="hat_brim">
<path class="path-0" d="M285.730,141.494C289.389,135.506,298.372,119.203,306.356,119.203C311.680,119.203,322.659,128.852,328.314,131.847C333.304,134.841,338.628,137.502,344.284,140.163C347.496,141.833,350.712,143.496,353.931,145.153C368.238,152.474,364.245,158.796,355.927,157.464C337.297,154.136,334.303,155.468,316.337,146.152C314.008,145.153,308.019,141.828,307.021,146.152C305.692,151.142,314.674,155.468,318.334,157.131C324.987,160.792,332.306,164.784,340.291,165.449C342.621,165.782,350.605,165.115,351.935,167.444C353.931,170.772,344.284,179.422,342.287,181.418C338.960,184.412,335.634,187.406,332.306,189.736C327.316,193.062,321.992,196.056,316.337,197.054C305.692,198.385,272.421,183.081,271.423,171.437C270.759,164.784,281.737,147.816,285.730,141.494M318.334,114.879C313.343,110.553,309.684,104.231,302.364,107.559C297.040,109.889,291.385,117.540,287.726,121.533C274.084,138.167,261.776,157.797,262.440,179.422C262.774,193.061,267.431,192.730,278.410,198.052C295.044,206.370,316.337,209.031,334.303,200.715C345.947,195.391,366.242,177.426,371.566,165.449C373.228,161.456,376.222,152.474,373.892,147.817C371.232,142.160,348.941,132.512,342.287,128.853C334.303,124.527,325.320,120.534,318.334,114.879Z"/>
<path class="path-9" d="M306.356,119.203C311.680,119.203,322.659,128.852,328.314,131.847"/>
<path class="path-9" d="M328.314,131.847C333.304,134.841,338.628,137.502,344.284,140.163"/>
<path class="path-9" d="M344.284,140.163C347.496,141.833,350.712,143.496,353.931,145.153"/>
<path class="path-9" d="M353.931,145.153C368.238,152.474,364.245,158.796,355.927,157.464"/>
<path class="path-9" d="M355.927,157.464C337.297,154.136,334.303,155.468,316.337,146.152"/>
<path class="path-9" d="M316.337,146.152C314.008,145.153,308.019,141.828,307.021,146.152"/>
<path class="path-9" d="M307.021,146.152C305.692,151.142,314.674,155.468,318.334,157.131"/>
<path class="path-9" d="M318.334,157.131C324.987,160.792,332.306,164.784,340.291,165.449"/>
<path class="path-9" d="M340.291,165.449C342.621,165.782,350.605,165.115,351.935,167.444"/>
<path class="path-9" d="M351.935,167.444C353.931,170.772,344.284,179.422,342.287,181.418"/>
<path class="path-9" d="M342.287,181.418C338.960,184.412,335.634,187.406,332.306,189.736"/>
<path class="path-9" d="M332.306,189.736C327.316,193.062,321.992,196.056,316.337,197.054"/>
<path class="path-9" d="M316.337,197.054C305.692,198.385,272.421,183.081,271.423,171.437"/>
<path class="path-9" d="M271.423,171.437C270.759,164.784,281.737,147.816,285.730,141.494"/>
<path class="path-9" d="M285.730,141.494C289.389,135.506,298.372,119.203,306.356,119.203"/>
<path class="path-10" d="M306.356,119.203C311.680,119.203,322.659,128.852,328.314,131.847C333.304,134.841,338.628,137.502,344.284,140.163C347.496,141.833,350.712,143.496,353.931,145.153C368.238,152.474,364.245,158.796,355.927,157.464C337.297,154.136,334.303,155.468,316.337,146.152C314.008,145.153,308.019,141.828,307.021,146.152C305.692,151.142,314.674,155.468,318.334,157.131C324.987,160.792,332.306,164.784,340.291,165.449C342.621,165.782,350.605,165.115,351.935,167.444C353.931,170.772,344.284,179.422,342.287,181.418C338.960,184.412,335.634,187.406,332.306,189.736C327.316,193.062,321.992,196.056,316.337,197.054C305.692,198.385,272.421,183.081,271.423,171.437C270.759,164.784,281.737,147.816,285.730,141.494C289.389,135.506,298.372,119.203,306.356,119.203Z"/>
</g>
<g id="hair">
<path class="path-0" d="M183.357,136.483C200.954,124.749,220.906,123.806,241.996,123.120C251.452,122.794,257.886,129.270,265.069,135.626C270.964,141.195,277.299,147.468,283.560,153.313C292.986,162.051,296.930,166.431,300.440,170.614C303.444,173.825,308.105,179.813,311.862,182.674C316.396,186.124,325.422,203.315,327.445,205.266C320.793,207.453,310.356,209.024,305.541,212.830C307.149,218.669,307.424,227.700,307.413,230.409C301.202,230.790,294.008,227.926,282.567,225.752C280.180,232.918,280.142,239.647,275.384,246.902C267.697,244.496,262.345,242.563,252.411,238.043C245.798,243.193,244.261,242.773,233.517,249.212C226.455,244.820,220.838,240.151,213.943,237.253C207.148,240.091,196.403,241.027,192.739,243.925C188.987,236.858,185.547,229.060,182.318,225.662C172.710,227.554,168.576,230.148,161.781,232.559C157.606,227.012,160.654,222.489,156.037,214.349C151.717,213.146,145.049,210.476,139.490,210.322C143.367,205.864,146.319,191.142,152.833,189.327C160.871,187.088,155.875,177.911,160.872,169.755C162.110,167.631,174.016,151.399,175.093,148.739C177.132,144.153,179.361,139.287,183.357,136.483M269.783,123.041C257.623,113.516,232.973,108.192,219.067,111.311C206.306,114.023,193.787,117.926,182.663,125.006C176.433,128.911,169.531,134.686,165.362,140.754C157.036,152.537,144.935,178.372,138.142,190.325C132.704,200.241,127.646,206.923,122.452,212.283C140.007,218.879,145.124,221.586,150.363,222.441C150.613,230.199,157.711,236.027,156.388,244.572C165.209,243.354,170.475,241.177,178.326,239.302C182.258,243.995,184.942,250.348,188.681,256.586C196.418,254.568,204.305,254.940,212.000,249.563C217.496,252.632,226.229,257.403,235.200,262.448C243.544,258.115,245.325,257.880,253.165,252.908C262.619,255.342,272.515,261.315,282.074,260.399C281.484,252.206,287.600,246.647,286.947,241.388C294.168,239.536,316.196,242.966,319.967,242.683C319.803,236.635,316.595,225.026,318.237,217.838C325.064,216.098,330.837,214.510,341.526,209.520C338.121,202.790,331.974,194.414,326.560,189.403C321.990,185.214,318.291,179.689,313.719,175.326C298.212,160.768,292.275,140.745,269.783,123.041Z"/>
<path class="path-11" d="M241.996,123.120C251.452,122.794,257.886,129.270,265.069,135.626"/>
<path class="path-11" d="M265.069,135.626C270.964,141.195,277.299,147.468,283.560,153.313"/>
<path class="path-11" d="M283.560,153.313C292.986,162.051,296.930,166.431,300.440,170.614"/>
<path class="path-11" d="M300.440,170.614C303.444,173.825,308.105,179.813,311.862,182.674"/>
<path class="path-11" d="M311.862,182.674C316.396,186.124,325.422,203.315,327.445,205.266"/>
<path class="path-11" d="M327.445,205.266C320.793,207.453,310.356,209.024,305.541,212.830"/>
<path class="path-11" d="M305.541,212.830C307.149,218.669,307.424,227.700,307.413,230.409"/>
<path class="path-11" d="M307.413,230.409C301.202,230.790,294.008,227.926,282.567,225.752"/>
<path class="path-11" d="M282.567,225.752C280.180,232.918,280.142,239.647,275.384,246.902"/>
<path class="path-11" d="M275.384,246.902C267.697,244.496,262.345,242.563,252.411,238.043"/>
<path class="path-11" d="M252.411,238.043C245.798,243.193,244.261,242.773,233.517,249.212"/>
<path class="path-11" d="M233.517,249.212C226.455,244.820,220.838,240.151,213.943,237.253"/>
<path class="path-11" d="M213.943,237.253C207.148,240.091,196.403,241.027,192.739,243.925"/>
<path class="path-11" d="M192.739,243.925C188.987,236.858,185.547,229.060,182.318,225.662"/>
<path class="path-11" d="M182.318,225.662C172.710,227.554,168.576,230.148,161.781,232.559"/>
<path class="path-11" d="M161.781,232.559C157.606,227.012,160.654,222.489,156.037,214.349"/>
<path class="path-11" d="M156.037,214.349C151.717,213.146,145.049,210.476,139.490,210.322"/>
<path class="path-11" d="M139.490,210.322C143.367,205.864,146.319,191.142,152.833,189.327"/>
<path class="path-11" d="M152.833,189.327C160.871,187.088,155.875,177.911,160.872,169.755"/>
<path class="path-11" d="M160.872,169.755C162.110,167.631,174.016,151.399,175.093,148.739"/>
<path class="path-11" d="M175.093,148.739C177.132,144.153,179.361,139.287,183.357,136.483"/>
<path class="path-11" d="M183.357,136.483C200.954,124.749,220.906,123.806,241.996,123.120"/>
<path class="path-12" d="M241.996,123.120C251.452,122.794,257.886,129.270,265.069,135.626C270.964,141.195,277.299,147.468,283.560,153.313C292.986,162.051,296.930,166.431,300.440,170.614C303.444,173.825,308.105,179.813,311.862,182.674C316.396,186.124,325.422,203.315,327.445,205.266C320.793,207.453,310.356,209.024,305.541,212.830C307.149,218.669,307.424,227.700,307.413,230.409C301.202,230.790,294.008,227.926,282.567,225.752C280.180,232.918,280.142,239.647,275.384,246.902C267.697,244.496,262.345,242.563,252.411,238.043C245.798,243.193,244.261,242.773,233.517,249.212C226.455,244.820,220.838,240.151,213.943,237.253C207.148,240.091,196.403,241.027,192.739,243.925C188.987,236.858,185.547,229.060,182.318,225.662C172.710,227.554,168.576,230.148,161.781,232.559C157.606,227.012,160.654,222.489,156.037,214.349C151.717,213.146,145.049,210.476,139.490,210.322C143.367,205.864,146.319,191.142,152.833,189.327C160.871,187.088,155.875,177.911,160.872,169.755C162.110,167.631,174.016,151.399,175.093,148.739C177.132,144.153,179.361,139.287,183.357,136.483C200.954,124.749,220.906,123.806,241.996,123.120Z"/>
</g>
<g id="clothes">
<path class="path-0" d="M244.536,365.597C239.026,364.032,219.159,367.575,216.047,372.638C214.186,375.881,217.422,377.405,220.676,377.340C224.762,377.259,245.978,374.194,248.649,372.250C252.763,369.183,246.753,366.124,244.536,365.597M191.093,266.179C194.088,253.538,221.037,240.563,234.012,241.561C242.994,242.226,271.274,256.199,275.266,264.517C278.592,271.170,279.590,295.789,279.924,304.107C280.257,319.412,281.302,334.740,282.253,350.019C283.595,362.171,294.093,375.460,288.241,386.194C285.700,389.676,275.057,389.010,270.425,390.025C265.054,391.470,255.323,397.141,250.225,397.631C228.109,400.366,230.667,403.430,209.811,404.798C205.583,404.915,191.891,403.801,189.155,401.944C182.697,396.376,185.666,387.102,186.949,378.992C189.759,364.951,190.479,355.195,191.427,340.038C192.326,323.970,194.088,306.768,194.088,290.134C193.755,284.145,190.429,269.839,191.093,266.179M269.943,247.549C253.640,237.899,237.670,229.915,218.042,235.573C212.718,236.902,186.103,249.877,183.773,253.205C180.115,258.529,183.773,278.821,183.773,286.141C184.107,294.791,184.440,303.773,183.773,312.092C183.442,318.413,182.111,324.069,182.111,330.057C181.777,336.710,181.838,343.894,180.780,350.019C177.582,367.781,167.131,403.365,188.730,414.312C193.531,416.767,200.220,416.262,205.911,416.051C215.779,415.496,226.413,414.941,236.157,412.547C248.440,409.887,259.570,402.891,272.171,401.154C278.291,400.312,297.684,406.744,302.172,402.007C304.235,399.924,304.715,386.981,304.237,383.704C301.583,370.088,293.938,357.698,291.567,344.031C289.848,332.173,289.239,320.410,289.904,308.100C290.237,298.119,291.900,288.471,291.900,278.157C291.567,273.831,292.234,268.510,289.904,264.184C285.912,256.199,277.263,251.873,269.943,247.549Z"/>
<path class="path-13" d="M244.536,365.597C239.026,364.032,219.159,367.575,216.047,372.638"/>
<path class="path-13" d="M216.047,372.638C214.186,375.881,217.422,377.405,220.676,377.340"/>
<path class="path-13" d="M220.676,377.340C224.762,377.259,245.978,374.194,248.649,372.250"/>
<path class="path-13" d="M248.649,372.250C252.763,369.183,246.753,366.124,244.536,365.597"/>
<path class="path-13" d="M191.093,266.179C194.088,253.538,221.037,240.563,234.012,241.561"/>
<path class="path-13" d="M234.012,241.561C242.994,242.226,271.274,256.199,275.266,264.517"/>
<path class="path-13" d="M275.266,264.517C278.592,271.170,279.590,295.789,279.924,304.107"/>
<path class="path-13" d="M279.924,304.107C280.257,319.412,281.302,334.740,282.253,350.019"/>
<path class="path-13" d="M282.253,350.019C283.595,362.171,294.093,375.460,288.241,386.194"/>
<path class="path-13" d="M288.241,386.194C285.700,389.676,275.057,389.010,270.425,390.025"/>
<path class="path-13" d="M270.425,390.025C265.054,391.470,255.323,397.141,250.225,397.631"/>
<path class="path-13" d="M250.225,397.631C228.109,400.366,230.667,403.430,209.811,404.798"/>
<path class="path-13" d="M209.811,404.798C205.583,404.915,191.891,403.801,189.155,401.944"/>
<path class="path-13" d="M189.155,401.944C182.697,396.376,185.666,387.102,186.949,378.992"/>
<path class="path-13" d="M186.949,378.992C189.759,364.951,190.479,355.195,191.427,340.038"/>
<path class="path-13" d="M191.427,340.038C192.326,323.970,194.088,306.768,194.088,290.134"/>
<path class="path-13" d="M194.088,290.134C193.755,284.145,190.429,269.839,191.093,266.179"/>
<path class="path-14" d="M244.536,365.597C239.026,364.032,219.159,367.575,216.047,372.638C214.186,375.881,217.422,377.405,220.676,377.340C224.762,377.259,245.978,374.194,248.649,372.250C252.763,369.183,246.753,366.124,244.536,365.597M191.093,266.179C194.088,253.538,221.037,240.563,234.012,241.561C242.994,242.226,271.274,256.199,275.266,264.517C278.592,271.170,279.590,295.789,279.924,304.107C280.257,319.412,281.302,334.740,282.253,350.019C283.595,362.171,294.093,375.460,288.241,386.194C285.700,389.676,275.057,389.010,270.425,390.025C265.054,391.470,255.323,397.141,250.225,397.631C228.109,400.366,230.667,403.430,209.811,404.798C205.583,404.915,191.891,403.801,189.155,401.944C182.697,396.376,185.666,387.102,186.949,378.992C189.759,364.951,190.479,355.195,191.427,340.038C192.326,323.970,194.088,306.768,194.088,290.134C193.755,284.145,190.429,269.839,191.093,266.179Z"/>
</g>
<g id="neck">
<path class="path-0" d="M229.021,222.597C229.354,219.269,230.353,216.275,234.012,215.942C245.656,213.946,244.657,251.542,234.012,251.542C224.031,251.542,228.356,228.917,229.021,222.597M234.012,206.628C231.351,206.295,228.357,206.959,226.027,208.291C216.711,212.948,218.042,221.599,218.042,230.248C217.708,234.574,218.042,238.567,216.046,242.226C214.383,245.553,209.724,248.879,209.724,252.540C210.057,262.521,237.006,262.521,243.993,262.188C246.653,262.187,255.636,263.185,256.634,259.526C256.634,258.528,249.981,246.883,248.983,242.226C245.989,228.252,255.305,207.626,234.012,206.628Z"/>
<path class="path-15" d="M234.012,215.942C245.656,213.946,244.657,251.542,234.012,251.542"/>
<path class="path-15" d="M234.012,251.542C224.031,251.542,228.356,228.917,229.021,222.597"/>
<path class="path-15" d="M229.021,222.597C229.354,219.269,230.353,216.275,234.012,215.942"/>
<path class="path-16" d="M234.012,215.942C245.656,213.946,244.657,251.542,234.012,251.542C224.031,251.542,228.356,228.917,229.021,222.597C229.354,219.269,230.353,216.275,234.012,215.942Z"/>
</g>
<g id="layer_head">
<g id="right_ear">
<path class="path-0" d="M153.624,190.186C148.648,190.307,136.360,162.781,142.406,164.037C148.240,165.236,151.122,175.693,152.719,179.941C153.761,182.404,158.134,190.098,153.624,190.186M144.760,150.452C142.848,149.186,140.546,147.749,138.473,148.727C129.459,151.334,132.486,164.985,135.134,174.037C138.492,185.070,146.162,199.325,155.990,203.601C157.651,204.334,160.818,206.734,162.668,206.228C168.748,204.154,163.212,194.338,161.539,189.583C159.200,182.447,150.003,155.388,144.760,150.452Z"/>
<path class="path-15" d="M142.406,164.037C148.240,165.236,151.122,175.693,152.719,179.941"/>
<path class="path-15" d="M152.719,179.941C153.761,182.404,158.134,190.098,153.624,190.186"/>
<path class="path-15" d="M153.624,190.186C148.648,190.307,136.360,162.781,142.406,164.037"/>
<path class="path-16" d="M142.406,164.037C148.240,165.236,151.122,175.693,152.719,179.941C153.761,182.404,158.134,190.098,153.624,190.186C148.648,190.307,136.360,162.781,142.406,164.037Z"/>
</g>
<g id="face_Mask">
<g id="face">
<path class="path-0" d="M149.367,105.875C157.854,95.426,190.622,88.241,204.262,86.245C219.567,84.249,235.203,86.578,250.174,91.235C255.498,92.900,263.435,94.559,267.806,98.555C274.624,104.834,277.191,116.169,278.508,124.977C279.461,130.388,280.488,137.414,279.457,142.504C273.197,173.423,266.245,188.167,259.809,196.747C248.996,211.164,229.616,216.768,212.149,220.535C193.759,224.227,183.083,222.393,166.995,216.830C162.699,215.351,153.374,211.834,150.540,208.534C143.590,200.133,146.792,188.806,144.756,178.564C142.738,169.835,137.146,157.307,135.673,148.653C133.963,137.553,142.382,114.396,149.367,105.875M271.824,90.879C258.349,78.503,221.939,75.848,204.305,78.492C195.986,79.482,188.000,80.140,180.346,82.131C174.687,83.793,169.691,86.452,164.364,88.115C152.718,92.439,147.906,91.000,140.076,101.765C134.453,109.300,126.083,138.957,126.638,148.184C127.216,155.629,134.126,172.597,135.143,181.231C136.191,190.592,133.051,204.020,137.396,212.001C141.156,218.673,147.951,222.160,157.798,226.424C167.054,230.432,177.406,234.356,187.785,234.772C193.584,235.060,200.919,234.791,213.420,230.984C231.854,225.119,251.211,218.518,264.366,202.605C276.427,188.015,292.768,168.644,294.921,139.591C296.399,119.645,279.149,97.461,271.824,90.879Z"/>
<path class="path-15" d="M204.262,86.245C219.567,84.249,235.203,86.578,250.174,91.235"/>
<path class="path-15" d="M250.174,91.235C255.498,92.900,263.435,94.559,267.806,98.555"/>
<path class="path-15" d="M267.806,98.555C274.624,104.834,277.191,116.169,278.508,124.977"/>
<path class="path-15" d="M278.508,124.977C279.461,130.388,280.488,137.414,279.457,142.504"/>
<path class="path-15" d="M279.457,142.504C273.197,173.423,266.245,188.167,259.809,196.747"/>
<path class="path-15" d="M259.809,196.747C248.996,211.164,229.616,216.768,212.149,220.535"/>
<path class="path-15" d="M212.149,220.535C193.759,224.227,183.083,222.393,166.995,216.830"/>
<path class="path-15" d="M166.995,216.830C162.699,215.351,153.374,211.834,150.540,208.534"/>
<path class="path-15" d="M150.540,208.534C143.590,200.133,146.792,188.806,144.756,178.564"/>
<path class="path-15" d="M144.756,178.564C142.738,169.835,137.146,157.307,135.673,148.653"/>
<path class="path-15" d="M135.673,148.653C133.963,137.553,142.382,114.396,149.367,105.875"/>
<path class="path-15" d="M149.367,105.875C157.854,95.426,190.622,88.241,204.262,86.245"/>
<path class="path-16" d="M204.262,86.245C219.567,84.249,235.203,86.578,250.174,91.235C255.498,92.900,263.435,94.559,267.806,98.555C274.624,104.834,277.191,116.169,278.508,124.977C279.461,130.388,280.488,137.414,279.457,142.504C273.197,173.423,266.245,188.167,259.809,196.747C248.996,211.164,229.616,216.768,212.149,220.535C193.759,224.227,183.083,222.393,166.995,216.830C162.699,215.351,153.374,211.834,150.540,208.534C143.590,200.133,146.792,188.806,144.756,178.564C142.738,169.835,137.146,157.307,135.673,148.653C133.963,137.553,142.382,114.396,149.367,105.875C157.854,95.426,190.622,88.241,204.262,86.245Z"/>
</g>
</g>
<mask id="mask_target" style="mask-type:alpha;">
<use xlink:href="#face_Mask"/>
</mask>
<g id="mouse">
<path class="path-0" d="M187.334,213.743C192.538,214.847,192.622,219.600,192.148,220.107C191.881,220.393,190.758,219.442,187.798,218.955C182.192,218.034,179.486,219.206,179.289,218.492C179.072,217.709,181.241,212.451,187.334,213.743Z"/>
</g>
<g id="layer_eyes_Mtarget" mask="url(#mask_target)">
<g id="eyes">
<mask style="mask-type:alpha;" id="f3906406-f197-4bf1-91d8-744c09cca836">
<use xlink:href="#cmn_f3906406-f197-4bf1-91d8-744c09cca836"/>
</mask>
<g id="cmn_f3906406-f197-4bf1-91d8-744c09cca836">
<path class="path-0" d="M137.544,193.336C138.034,192.686,138.683,188.057,139.645,188.850C139.366,188.632,134.039,190.604,133.377,192.121C132.923,193.162,135.666,197.379,134.255,197.379C133.720,197.379,137.334,193.615,137.544,193.336M146.037,196.034C146.065,195.441,145.345,189.273,143.037,188.688C141.722,188.355,140.237,190.178,139.197,191.081C136.683,193.168,119.881,189.251,120.625,184.943C120.942,183.101,131.026,181.771,132.752,182.495C143.448,186.993,117.972,211.487,134.018,213.530C134.519,213.594,140.317,192.023,138.097,195.836C137.103,197.545,145.979,197.287,146.037,196.034M174.641,194.797C172.459,194.878,170.285,196.145,167.487,194.210C165.172,192.609,184.921,192.929,186.700,192.673C187.913,192.498,200.394,191.180,201.006,190.700C201.123,190.609,203.214,190.389,203.385,190.330C203.261,190.373,178.556,194.651,174.641,194.797M210.797,192.719C211.135,192.371,211.257,185.888,210.769,185.483C207.262,182.575,194.905,186.335,188.102,186.598C184.035,186.756,177.151,187.568,174.540,186.995C170.509,186.261,167.437,185.358,165.087,186.945C163.196,188.222,161.560,191.710,162.081,193.932C162.552,195.940,164.933,197.664,167.259,198.458C171.949,200.059,192.347,196.278,195.844,196.049C195.930,196.043,208.518,195.070,210.797,192.719Z"/>
<path class="path-24" d="M201.006,190.700C201.123,190.609,203.214,190.389,203.385,190.330"/>
<path class="path-24" d="M203.385,190.330C203.261,190.373,178.556,194.651,174.641,194.797"/>
<path class="path-24" d="M174.641,194.797C172.459,194.878,170.285,196.145,167.487,194.210"/>
<path class="path-24" d="M167.487,194.210C165.172,192.609,184.921,192.929,186.700,192.673"/>
<path class="path-24" d="M186.700,192.673C187.913,192.498,200.394,191.180,201.006,190.700"/>
<path class="path-0" d="M201.006,190.700C201.123,190.609,203.214,190.389,203.385,190.330C203.261,190.373,178.556,194.651,174.641,194.797C172.459,194.878,170.285,196.145,167.487,194.210C165.172,192.609,184.921,192.929,186.700,192.673C187.913,192.498,200.394,191.180,201.006,190.700Z"/>
<path class="path-24" d="M134.255,197.379C133.720,197.379,137.334,193.615,137.544,193.336"/>
<path class="path-24" d="M137.544,193.336C138.034,192.686,138.683,188.057,139.645,188.850"/>
<path class="path-24" d="M139.645,188.850C139.366,188.632,134.039,190.604,133.377,192.121"/>
<path class="path-24" d="M133.377,192.121C132.923,193.162,135.666,197.379,134.255,197.379"/>
<path class="path-0" d="M134.255,197.379C133.720,197.379,137.334,193.615,137.544,193.336C138.034,192.686,138.683,188.057,139.645,188.850C139.366,188.632,134.039,190.604,133.377,192.121C132.923,193.162,135.666,197.379,134.255,197.379Z"/>
</g>
</g>
<g id="pupil">
<path class="path-0" d="M167.437,176.464C169.729,175.895,172.874,179.125,173.697,187.603C174.301,193.825,172.715,196.374,170.995,196.582C169.097,196.812,167.450,194.209,166.167,187.432C164.797,180.200,165.457,176.956,167.437,176.464Z" mask="url(#f3906406-f197-4bf1-91d8-744c09cca836)"/>
<path class="path-0" d="M136.834,177.402C139.243,176.932,142.651,180.555,142.920,189.698C143.075,194.952,141.581,196.885,140.186,197.093C138.603,197.329,136.567,195.506,135.123,189.722C133.115,181.677,134.650,177.828,136.834,177.402Z" mask="url(#f3906406-f197-4bf1-91d8-744c09cca836)"/>
</g>
</g>
<g id="hat">
<path class="path-0" d="M286.184,133.900C288.425,134.756,291.021,137.543,291.569,140.170C293.564,146.891,282.251,148.284,278.652,148.761C272.950,148.942,267.007,147.980,261.594,147.340C254.369,147.144,247.232,145.674,240.019,145.212C217.493,141.998,194.890,139.602,172.301,136.910C161.624,136.061,152.003,134.222,140.368,133.487C139.147,133.412,128.227,134.286,126.034,133.635C111.098,129.347,123.691,115.916,122.579,109.148C122.414,107.244,118.807,106.821,119.443,103.419C119.876,101.296,125.548,97.061,127.598,96.215C136.590,92.448,146.987,91.206,157.195,90.977C168.187,90.735,178.005,92.564,188.910,93.904C214.521,97.058,257.874,104.238,290.358,118.223C299.830,122.295,279.960,119.952,278.097,120.071C261.550,120.903,192.269,104.257,230.313,116.695C245.180,121.656,272.792,128.236,286.184,133.900M174.892,79.921C162.719,78.856,151.544,77.940,140.156,80.184C136.055,80.981,130.765,81.886,127.544,82.884C120.904,84.948,132.913,65.066,136.300,61.389C152.397,44.338,180.524,32.735,205.119,34.344C253.605,37.515,271.729,50.827,284.611,69.753C288.792,75.429,300.456,101.402,290.448,107.401C287.219,109.060,281.502,106.206,278.823,104.714C269.208,99.624,195.058,81.685,174.892,79.921M275.813,41.091C258.663,31.659,236.339,23.460,209.102,24.037C178.920,24.696,145.833,33.774,126.535,59.884C120.642,68.047,118.149,77.063,114.501,85.692C112.270,90.903,107.848,94.250,107.362,99.833C106.904,107.517,111.511,109.545,112.201,115.846C113.184,123.008,108.729,125.123,109.004,129.765C108.548,142.153,120.218,145.353,130.401,146.605C134.792,147.146,151.149,146.618,160.039,146.817C170.076,147.041,183.459,147.457,193.479,148.085C205.026,148.808,220.358,150.607,231.895,151.472C242.660,152.279,257.016,153.681,267.812,153.698C276.084,153.711,294.279,153.049,295.342,152.166C296.896,150.900,302.177,137.779,302.675,135.218C303.517,130.881,301.432,126.104,303.126,119.170C305.400,108.852,308.139,100.059,306.670,88.738C303.804,68.069,289.405,48.585,275.813,41.091Z"/>
<path class="path-19" d="M188.910,93.904C214.521,97.058,257.874,104.238,290.358,118.223"/>
<path class="path-19" d="M290.358,118.223C299.830,122.295,279.960,119.952,278.097,120.071"/>
<path class="path-19" d="M278.097,120.071C261.550,120.903,192.269,104.257,230.313,116.695"/>
<path class="path-19" d="M230.313,116.695C245.180,121.656,272.792,128.236,286.184,133.900"/>
<path class="path-19" d="M286.184,133.900C288.425,134.756,291.021,137.543,291.569,140.170"/>
<path class="path-19" d="M291.569,140.170C293.564,146.891,282.251,148.284,278.652,148.761"/>
<path class="path-19" d="M278.652,148.761C272.950,148.942,267.007,147.980,261.594,147.340"/>
<path class="path-19" d="M261.594,147.340C254.369,147.144,247.232,145.674,240.019,145.212"/>
<path class="path-19" d="M240.019,145.212C217.493,141.998,194.890,139.602,172.301,136.910"/>
<path class="path-19" d="M172.301,136.910C161.624,136.061,152.003,134.222,140.368,133.487"/>
<path class="path-19" d="M140.368,133.487C139.147,133.412,128.227,134.286,126.034,133.635"/>
<path class="path-19" d="M126.034,133.635C111.098,129.347,123.691,115.916,122.579,109.148"/>
<path class="path-19" d="M122.579,109.148C122.414,107.244,118.807,106.821,119.443,103.419"/>
<path class="path-19" d="M119.443,103.419C119.876,101.296,125.548,97.061,127.598,96.215"/>
<path class="path-19" d="M127.598,96.215C136.590,92.448,146.987,91.206,157.195,90.977"/>
<path class="path-19" d="M157.195,90.977C168.187,90.735,178.005,92.564,188.910,93.904"/>
<path class="path-20" d="M188.910,93.904C214.521,97.058,257.874,104.238,290.358,118.223C299.830,122.295,279.960,119.952,278.097,120.071C261.550,120.903,192.269,104.257,230.313,116.695C245.180,121.656,272.792,128.236,286.184,133.900C288.425,134.756,291.021,137.543,291.569,140.170C293.564,146.891,282.251,148.284,278.652,148.761C272.950,148.942,267.007,147.980,261.594,147.340C254.369,147.144,247.232,145.674,240.019,145.212C217.493,141.998,194.890,139.602,172.301,136.910C161.624,136.061,152.003,134.222,140.368,133.487C139.147,133.412,128.227,134.286,126.034,133.635C111.098,129.347,123.691,115.916,122.579,109.148C122.414,107.244,118.807,106.821,119.443,103.419C119.876,101.296,125.548,97.061,127.598,96.215C136.590,92.448,146.987,91.206,157.195,90.977C168.187,90.735,178.005,92.564,188.910,93.904Z"/>
<path class="path-9" d="M205.119,34.344C253.605,37.515,271.729,50.827,284.611,69.753"/>
<path class="path-9" d="M284.611,69.753C288.792,75.429,300.456,101.402,290.448,107.401"/>
<path class="path-9" d="M290.448,107.401C287.219,109.060,281.502,106.206,278.823,104.714"/>
<path class="path-9" d="M278.823,104.714C269.208,99.624,195.058,81.685,174.892,79.921"/>
<path class="path-9" d="M174.892,79.921C162.719,78.856,151.544,77.940,140.156,80.184"/>
<path class="path-9" d="M140.156,80.184C136.055,80.981,130.765,81.886,127.544,82.884"/>
<path class="path-9" d="M127.544,82.884C120.904,84.948,132.913,65.066,136.300,61.389"/>
<path class="path-9" d="M136.300,61.389C152.397,44.338,180.524,32.735,205.119,34.344"/>
<path class="path-10" d="M205.119,34.344C253.605,37.515,271.729,50.827,284.611,69.753C288.792,75.429,300.456,101.402,290.448,107.401C287.219,109.060,281.502,106.206,278.823,104.714C269.208,99.624,195.058,81.685,174.892,79.921C162.719,78.856,151.544,77.940,140.156,80.184C136.055,80.981,130.765,81.886,127.544,82.884C120.904,84.948,132.913,65.066,136.300,61.389C152.397,44.338,180.524,32.735,205.119,34.344Z"/>
</g>
<g id="left_ear">
<path class="path-0" d="M244.031,179.560C244.305,177.285,246.546,169.672,247.944,167.565C255.221,155.660,272.678,149.018,279.947,157.145C288.272,166.849,274.635,190.775,262.920,195.895C249.990,201.312,242.950,191.664,244.031,179.560M295.063,160.535C292.611,148.874,284.080,140.103,267.535,144.125C250.508,148.265,248.689,171.932,247.725,186.371C247.597,189.554,247.730,193.015,248.724,195.878C252.235,206.549,261.742,210.604,271.440,202.395C282.195,193.102,297.721,175.402,295.063,160.535Z"/>
<path class="path-15" d="M247.944,167.565C255.221,155.660,272.678,149.018,279.947,157.145"/>
<path class="path-15" d="M279.947,157.145C288.272,166.849,274.635,190.775,262.920,195.895"/>
<path class="path-15" d="M262.920,195.895C249.990,201.312,242.950,191.664,244.031,179.560"/>
<path class="path-15" d="M244.031,179.560C244.305,177.285,246.546,169.672,247.944,167.565"/>
<path class="path-16" d="M247.944,167.565C255.221,155.660,272.678,149.018,279.947,157.145C288.272,166.849,274.635,190.775,262.920,195.895C249.990,201.312,242.950,191.664,244.031,179.560C244.305,177.285,246.546,169.672,247.944,167.565Z"/>
</g>
<g id="earrings">
<path class="path-0" d="M273.514,207.395C264.350,212.065,263.364,193.845,266.657,194.092C271.299,195.578,282.843,207.905,273.514,207.395M283.493,199.833C276.860,200.404,273.603,191.404,272.992,187.603C280.541,189.096,290.110,194.476,283.493,199.833M294.202,196.483C291.593,188.355,279.193,183.927,271.331,180.513C268.405,179.243,259.990,189.334,259.616,192.668C258.506,196.810,261.473,219.309,275.546,216.255C281.268,214.747,296.298,203.015,294.202,196.483Z"/>
<path class="path-21" d="M272.992,187.603C280.541,189.096,290.110,194.476,283.493,199.833"/>
<path class="path-21" d="M283.493,199.833C276.860,200.404,273.603,191.404,272.992,187.603"/>
<path class="path-22" d="M272.992,187.603C280.541,189.096,290.110,194.476,283.493,199.833C276.860,200.404,273.603,191.404,272.992,187.603Z"/>
<path class="path-21" d="M266.657,194.092C271.299,195.578,282.843,207.905,273.514,207.395"/>
<path class="path-21" d="M273.514,207.395C264.350,212.065,263.364,193.845,266.657,194.092"/>
<path class="path-22" d="M266.657,194.092C271.299,195.578,282.843,207.905,273.514,207.395C264.350,212.065,263.364,193.845,266.657,194.092Z"/>
</g>
</g>
<g id="jacket">
<path class="path-0" d="M202.406,270.837C204.612,275.503,199.562,285.446,198.918,290.134C194.208,308.302,186.939,326.112,189.108,344.315C189.979,350.130,195.706,362.626,190.505,367.064C188.771,368.543,183.592,365.525,182.909,367.016C181.544,369.988,176.481,360.423,175.717,359.142C174.970,357.889,171.941,349.453,171.585,347.039C171.192,342.400,171.198,333.297,171.729,327.449C172.314,321.521,172.216,315.194,174.500,309.035C176.500,301.954,180.720,294.112,182.795,286.171C185.219,281.193,189.183,278.332,188.363,274.505C187.222,270.859,184.930,269.063,188.074,267.185C191.932,265.238,201.450,265.954,202.406,270.837M265.529,271.682C266.917,270.497,279.890,265.171,281.395,264.337C293.879,258.179,300.759,270.970,301.533,279.127C301.888,282.413,301.413,293.971,301.447,296.344C301.209,301.715,301.999,305.713,301.466,310.294C298.995,325.175,302.396,316.061,298.614,328.704C297.890,331.120,296.079,336.089,295.215,338.405C294.265,340.551,291.778,345.081,290.995,347.138C288.352,352.590,286.807,359.184,278.110,361.058C277.106,361.407,268.000,366.959,266.344,367.721C262.414,369.279,257.410,371.308,253.755,368.610C249.190,364.842,248.922,356.995,247.773,350.757C245.089,337.423,247.074,323.647,249.831,310.273C251.662,299.001,257.256,280.402,265.529,271.682M277.727,255.283C274.853,257.075,268.511,257.301,266.691,257.674C263.292,258.180,262.646,255.427,262.297,253.039C261.810,248.614,264.836,242.099,268.079,238.836C270.664,236.235,275.260,234.076,279.282,233.952C282.881,233.712,289.070,236.139,288.741,240.231C288.689,243.238,282.475,252.322,277.727,255.283M204.494,243.549C209.397,252.771,214.523,262.180,209.250,260.955C202.954,259.493,199.724,259.841,189.763,255.866C179.149,251.630,176.460,236.432,182.352,231.621C188.196,226.849,198.796,232.833,204.494,243.549M307.092,346.348C308.222,340.879,309.731,337.284,309.597,331.456C309.439,326.681,309.046,321.124,307.463,316.642C304.363,308.533,303.165,305.262,300.103,295.927C298.415,291.065,297.273,287.157,296.719,282.249C296.245,279.216,291.316,264.072,291.861,261.325C292.098,255.931,298.511,252.594,299.791,247.792C300.921,244.041,302.157,240.031,301.643,236.148C301.273,231.165,296.867,227.785,293.255,225.078C288.025,221.620,283.049,221.716,276.680,222.454C266.958,223.593,261.303,232.173,257.349,238.615C251.852,247.571,253.015,262.777,250.259,272.918C248.666,278.779,245.733,286.722,243.878,292.130C236.269,313.226,223.534,370.822,242.493,383.075C243.994,384.189,255.559,385.787,259.026,385.085C268.372,383.241,272.627,381.714,281.431,378.835C288.260,376.892,296.716,365.184,301.739,357.607C303.802,354.705,306.564,348.901,307.092,346.348M209.438,232.733C203.763,226.455,193.807,215.135,185.538,217.749C181.546,219.154,176.224,222.866,173.535,226.397C170.831,229.947,168.152,235.831,168.366,240.347C168.502,245.818,168.482,252.326,170.451,256.941C172.855,262.574,182.421,266.701,183.496,272.644C183.914,275.373,177.085,287.447,176.087,290.719C174.350,297.032,170.759,302.940,169.038,308.379C167.339,313.750,165.828,321.130,164.699,326.649C163.151,334.211,160.132,343.602,160.382,352.014C160.270,356.648,162.752,367.132,166.391,372.350C168.625,375.555,174.116,379.663,176.594,380.443C178.036,380.897,192.705,384.179,197.337,380.022C206.088,372.168,201.117,356.735,197.684,340.828C194.533,326.340,205.223,313.839,209.111,299.355C210.715,293.343,217.187,273.763,217.569,266.863C217.888,261.123,219.804,257.212,218.090,249.300C217.022,244.994,213.198,236.892,209.438,232.733Z"/>
<path class="path-1" d="M281.395,264.337C293.879,258.179,300.759,270.970,301.533,279.127"/>
<path class="path-1" d="M301.533,279.127C301.888,282.413,301.413,293.971,301.447,296.344"/>
<path class="path-1" d="M301.447,296.344C301.209,301.715,301.999,305.713,301.466,310.294"/>
<path class="path-1" d="M301.466,310.294C298.995,325.175,302.396,316.061,298.614,328.704"/>
<path class="path-1" d="M298.614,328.704C297.890,331.120,296.079,336.089,295.215,338.405"/>
<path class="path-1" d="M295.215,338.405C294.265,340.551,291.778,345.081,290.995,347.138"/>
<path class="path-1" d="M290.995,347.138C288.352,352.590,286.807,359.184,278.110,361.058"/>
<path class="path-1" d="M278.110,361.058C277.106,361.407,268.000,366.959,266.344,367.721"/>
<path class="path-1" d="M266.344,367.721C262.414,369.279,257.410,371.308,253.755,368.610"/>
<path class="path-1" d="M253.755,368.610C249.190,364.842,248.922,356.995,247.773,350.757"/>
<path class="path-1" d="M247.773,350.757C245.089,337.423,247.074,323.647,249.831,310.273"/>
<path class="path-1" d="M249.831,310.273C251.662,299.001,257.256,280.402,265.529,271.682"/>
<path class="path-1" d="M265.529,271.682C266.917,270.497,279.890,265.171,281.395,264.337"/>
<path class="path-2" d="M281.395,264.337C293.879,258.179,300.759,270.970,301.533,279.127C301.888,282.413,301.413,293.971,301.447,296.344C301.209,301.715,301.999,305.713,301.466,310.294C298.995,325.175,302.396,316.061,298.614,328.704C297.890,331.120,296.079,336.089,295.215,338.405C294.265,340.551,291.778,345.081,290.995,347.138C288.352,352.590,286.807,359.184,278.110,361.058C277.106,361.407,268.000,366.959,266.344,367.721C262.414,369.279,257.410,371.308,253.755,368.610C249.190,364.842,248.922,356.995,247.773,350.757C245.089,337.423,247.074,323.647,249.831,310.273C251.662,299.001,257.256,280.402,265.529,271.682C266.917,270.497,279.890,265.171,281.395,264.337Z"/>
<path class="path-1" d="M188.074,267.185C191.932,265.238,201.450,265.954,202.406,270.837"/>
<path class="path-1" d="M202.406,270.837C204.612,275.503,199.562,285.446,198.918,290.134"/>
<path class="path-1" d="M198.918,290.134C194.208,308.302,186.939,326.112,189.108,344.315"/>
<path class="path-1" d="M189.108,344.315C189.979,350.130,195.706,362.626,190.505,367.064"/>
<path class="path-1" d="M190.505,367.064C188.771,368.543,183.592,365.525,182.909,367.016"/>
<path class="path-1" d="M182.909,367.016C181.544,369.988,176.481,360.423,175.717,359.142"/>
<path class="path-1" d="M175.717,359.142C174.970,357.889,171.941,349.453,171.585,347.039"/>
<path class="path-1" d="M171.585,347.039C171.192,342.400,171.198,333.297,171.729,327.449"/>
<path class="path-1" d="M171.729,327.449C172.314,321.521,172.216,315.194,174.500,309.035"/>
<path class="path-1" d="M174.500,309.035C176.500,301.954,180.720,294.112,182.795,286.171"/>
<path class="path-1" d="M182.795,286.171C185.219,281.193,189.183,278.332,188.363,274.505"/>
<path class="path-1" d="M188.363,274.505C187.222,270.859,184.930,269.063,188.074,267.185"/>
<path class="path-2" d="M188.074,267.185C191.932,265.238,201.450,265.954,202.406,270.837C204.612,275.503,199.562,285.446,198.918,290.134C194.208,308.302,186.939,326.112,189.108,344.315C189.979,350.130,195.706,362.626,190.505,367.064C188.771,368.543,183.592,365.525,182.909,367.016C181.544,369.988,176.481,360.423,175.717,359.142C174.970,357.889,171.941,349.453,171.585,347.039C171.192,342.400,171.198,333.297,171.729,327.449C172.314,321.521,172.216,315.194,174.500,309.035C176.500,301.954,180.720,294.112,182.795,286.171C185.219,281.193,189.183,278.332,188.363,274.505C187.222,270.859,184.930,269.063,188.074,267.185Z"/>
<path class="path-1" d="M279.282,233.952C282.881,233.712,289.070,236.139,288.741,240.231"/>
<path class="path-1" d="M288.741,240.231C288.689,243.238,282.475,252.322,277.727,255.283"/>
<path class="path-1" d="M277.727,255.283C274.853,257.075,268.511,257.301,266.691,257.674"/>
<path class="path-1" d="M266.691,257.674C263.292,258.180,262.646,255.427,262.297,253.039"/>
<path class="path-1" d="M262.297,253.039C261.810,248.614,264.836,242.099,268.079,238.836"/>
<path class="path-1" d="M268.079,238.836C270.664,236.235,275.260,234.076,279.282,233.952"/>
<path class="path-2" d="M279.282,233.952C282.881,233.712,289.070,236.139,288.741,240.231C288.689,243.238,282.475,252.322,277.727,255.283C274.853,257.075,268.511,257.301,266.691,257.674C263.292,258.180,262.646,255.427,262.297,253.039C261.810,248.614,264.836,242.099,268.079,238.836C270.664,236.235,275.260,234.076,279.282,233.952Z"/>
<path class="path-1" d="M204.494,243.549C209.397,252.771,214.523,262.180,209.250,260.955"/>
<path class="path-1" d="M209.250,260.955C202.954,259.493,199.724,259.841,189.763,255.866"/>
<path class="path-1" d="M189.763,255.866C179.149,251.630,176.460,236.432,182.352,231.621"/>
<path class="path-1" d="M182.352,231.621C188.196,226.849,198.796,232.833,204.494,243.549"/>
<path class="path-2" d="M204.494,243.549C209.397,252.771,214.523,262.180,209.250,260.955C202.954,259.493,199.724,259.841,189.763,255.866C179.149,251.630,176.460,236.432,182.352,231.621C188.196,226.849,198.796,232.833,204.494,243.549Z"/>
</g>
<g id="left_arm">
<path class="path-0" d="M290.902,459.809C287.575,454.485,286.245,445.502,293.897,443.175C299.221,441.510,323.174,446.834,327.167,450.826C334.153,457.148,330.161,471.786,321.510,475.113C311.529,478.439,296.226,468.127,290.902,459.809M279.516,276.423C280.393,273.226,288.864,263.064,293.897,264.184C296.819,264.834,298.222,269.839,299.220,272.502C301.881,280.818,304.543,289.469,306.872,298.119C313.194,320.741,317.518,343.366,322.177,365.988C323.839,375.305,323.839,387.613,327.167,395.931C331.159,405.579,337.479,402.253,340.474,408.573C341.805,411.567,341.140,417.224,343.136,421.881C346.130,429.201,351.785,433.194,354.446,437.851C356.111,440.512,356.776,443.506,353.117,444.173C351.121,445.171,345.797,444.173,343.801,444.173C337.144,442.402,330.490,440.627,323.840,438.849C314.857,436.852,287.575,435.521,282.918,429.533C275.931,420.218,286.910,409.240,288.242,399.924C288.907,396.930,292.189,352.967,291.567,350.019C290.899,343.164,287.387,337.131,285.841,330.057C284.214,320.430,282.539,310.147,281.179,300.115C280.223,291.877,276.733,285.067,279.516,276.423M305.541,254.536C303.213,249.877,295.893,241.561,289.904,242.890C284.914,244.222,284.249,250.210,283.582,254.203C281.920,264.184,279.924,272.502,279.924,282.149C279.590,289.136,280.257,295.458,280.921,302.111C281.586,311.427,279.590,329.392,279.924,340.038C279.924,349.686,282.253,359.667,281.586,367.985C279.590,387.613,271.273,406.246,271.938,425.874C271.939,435.855,274.600,435.855,276.929,443.840C278.592,449.828,277.263,456.150,279.590,461.805C285.579,476.776,302.880,490.416,319.847,487.091C335.483,484.096,336.150,467.129,344.466,458.146C351.786,450.161,366.424,454.154,368.420,445.835C370.416,438.849,360.769,431.198,357.110,425.874C349.790,415.893,355.445,413.563,351.786,405.912C349.125,400.257,341.471,395.267,337.813,387.947C335.816,384.619,334.819,378.299,333.487,373.973C330.826,363.992,327.831,352.680,326.169,342.034C324.504,329.724,324.173,318.745,320.845,306.103C318.184,295.458,310.200,262.852,305.541,254.536Z"/>
<path class="path-1" d="M293.897,264.184C296.819,264.834,298.222,269.839,299.220,272.502"/>
<path class="path-1" d="M299.220,272.502C301.881,280.818,304.543,289.469,306.872,298.119"/>
<path class="path-1" d="M306.872,298.119C313.194,320.741,317.518,343.366,322.177,365.988"/>
<path class="path-1" d="M322.177,365.988C323.839,375.305,323.839,387.613,327.167,395.931"/>
<path class="path-1" d="M327.167,395.931C331.159,405.579,337.479,402.253,340.474,408.573"/>
<path class="path-1" d="M340.474,408.573C341.805,411.567,341.140,417.224,343.136,421.881"/>
<path class="path-1" d="M343.136,421.881C346.130,429.201,351.785,433.194,354.446,437.851"/>
<path class="path-1" d="M354.446,437.851C356.111,440.512,356.776,443.506,353.117,444.173"/>
<path class="path-1" d="M353.117,444.173C351.121,445.171,345.797,444.173,343.801,444.173"/>
<path class="path-1" d="M343.801,444.173C337.144,442.402,330.490,440.627,323.840,438.849"/>
<path class="path-1" d="M323.840,438.849C314.857,436.852,287.575,435.521,282.918,429.533"/>
<path class="path-1" d="M282.918,429.533C275.931,420.218,286.910,409.240,288.242,399.924"/>
<path class="path-1" d="M288.242,399.924C288.907,396.930,292.189,352.967,291.567,350.019"/>
<path class="path-1" d="M291.567,350.019C290.899,343.164,287.387,337.131,285.841,330.057"/>
<path class="path-1" d="M285.841,330.057C284.214,320.430,282.539,310.147,281.179,300.115"/>
<path class="path-1" d="M281.179,300.115C280.223,291.877,276.733,285.067,279.516,276.423"/>
<path class="path-1" d="M279.516,276.423C280.393,273.226,288.864,263.064,293.897,264.184"/>
<path class="path-2" d="M293.897,264.184C296.819,264.834,298.222,269.839,299.220,272.502C301.881,280.818,304.543,289.469,306.872,298.119C313.194,320.741,317.518,343.366,322.177,365.988C323.839,375.305,323.839,387.613,327.167,395.931C331.159,405.579,337.479,402.253,340.474,408.573C341.805,411.567,341.140,417.224,343.136,421.881C346.130,429.201,351.785,433.194,354.446,437.851C356.111,440.512,356.776,443.506,353.117,444.173C351.121,445.171,345.797,444.173,343.801,444.173C337.144,442.402,330.490,440.627,323.840,438.849C314.857,436.852,287.575,435.521,282.918,429.533C275.931,420.218,286.910,409.240,288.242,399.924C288.907,396.930,292.189,352.967,291.567,350.019C290.899,343.164,287.387,337.131,285.841,330.057C284.214,320.430,282.539,310.147,281.179,300.115C280.223,291.877,276.733,285.067,279.516,276.423C280.393,273.226,288.864,263.064,293.897,264.184Z"/>
<path class="path-15" d="M293.897,443.175C299.221,441.510,323.174,446.834,327.167,450.826"/>
<path class="path-15" d="M327.167,450.826C334.153,457.148,330.161,471.786,321.510,475.113"/>
<path class="path-15" d="M321.510,475.113C311.529,478.439,296.226,468.127,290.902,459.809"/>
<path class="path-15" d="M290.902,459.809C287.575,454.485,286.245,445.502,293.897,443.175"/>
<path class="path-16" d="M293.897,443.175C299.221,441.510,323.174,446.834,327.167,450.826C334.153,457.148,330.161,471.786,321.510,475.113C311.529,478.439,296.226,468.127,290.902,459.809C287.575,454.485,286.245,445.502,293.897,443.175Z"/>
</g>
<g id="bone">
<g id="bone1_clothes">
<path class="path-23" d="M234.004,389.996C234.006,389.990,246.129,332.261,246.130,332.255C246.130,332.261,245.066,391.240,245.066,391.246C245.065,391.246,234.005,389.996,234.004,389.996"/>
</g>
<g id="bone2_clothes">
<path class="path-23" d="M232.652,327.915C232.652,327.908,230.305,255.419,230.305,255.412C230.307,255.419,246.309,326.158,246.310,326.165C246.309,326.165,232.654,327.915,232.652,327.915"/>
</g>
<g id="bone3_neck">
<path class="path-23" d="M237.803,254.194C237.803,254.190,238.034,212.491,238.034,212.486C238.033,212.490,231.230,253.632,231.230,253.636C231.230,253.636,237.803,254.194,237.803,254.194"/>
</g>
<g id="bone4_head">
<path class="path-23" d="M230.474,213.298C230.474,213.290,224.174,135.480,224.173,135.472C224.175,135.480,242.777,211.295,242.779,211.302C242.777,211.303,230.475,213.297,230.474,213.298"/>
</g>
<g id="bone5_left_arm">
<path class="path-23" d="M298.163,255.461C298.165,255.470,320.627,345.167,320.630,345.176C320.626,345.168,283.247,260.593,283.243,260.585C283.245,260.584,298.161,255.462,298.163,255.461"/>
</g>
<g id="bone6_left_arm">
<path class="path-23" d="M300.881,349.128C300.882,349.134,307.164,412.560,307.165,412.567C307.165,412.560,311.321,348.959,311.321,348.953C311.320,348.953,300.882,349.128,300.881,349.128"/>
</g>
<g id="bone7_right_arm">
<path class="path-23" d="M169.131,269.641C169.129,269.653,149.258,383.430,149.256,383.441C149.259,383.430,186.833,274.214,186.837,274.203C186.835,274.203,169.133,269.642,169.131,269.641"/>
</g>
<g id="bone8_right_arm">
<path class="path-23" d="M157.157,379.808C157.160,379.814,181.052,434.331,181.054,434.336C181.051,434.331,146.694,385.725,146.691,385.720C146.692,385.720,157.156,379.809,157.157,379.808"/>
</g>
<g id="bone9_left_leg">
<path class="path-23" d="M271.582,383.562C271.585,383.572,302.710,483.996,302.713,484.006C302.709,483.997,254.598,390.521,254.593,390.512C254.594,390.511,271.580,383.563,271.582,383.562"/>
</g>
<g id="bone10_right_leg">
<path class="path-23" d="M209.424,385.354C209.424,385.364,208.188,487.368,208.188,487.378C208.189,487.368,224.869,386.730,224.871,386.720C224.869,386.720,209.426,385.354,209.424,385.354"/>
</g>
<g id="bone11_hair">
<path class="path-23" d="M234.194,155.805C234.196,155.813,255.530,233.107,255.532,233.115C255.528,233.108,220.409,161.023,220.406,161.016C220.407,161.016,234.192,155.806,234.194,155.805"/>
</g>
<g id="bone12_left_leg_S">
<path class="path-23" d="M435.888,222.341C435.895,222.340,508.160,218.955,508.167,218.955C508.160,218.954,436.321,210.420,436.314,210.419C436.314,210.420,435.888,222.340,435.888,222.341"/>
</g>
<g id="bone13_right_leg_S">
<path class="path-23" d="M495.551,210.766C495.544,210.768,424.585,224.856,424.578,224.857C424.585,224.857,496.895,222.619,496.902,222.619C496.902,222.618,495.552,210.768,495.551,210.766"/>
</g>
<g id="bone14_left_arm_S">
<path class="path-23" d="M557.459,215.989C557.458,215.981,551.495,143.884,551.494,143.876C551.494,143.884,545.530,215.981,545.530,215.989C545.531,215.989,557.458,215.989,557.459,215.989"/>
</g>
<g id="bone15_jacket_S">
<path class="path-23" d="M600.624,210.871C600.620,210.876,556.039,267.852,556.035,267.858C556.040,267.853,609.376,218.976,609.381,218.971C609.381,218.970,600.625,210.871,600.624,210.871"/>
</g>
<g id="bone16_pupils_S">
<path class="path-23" d="M442.221,337.675C442.220,337.668,440.191,265.352,440.190,265.345C440.189,265.352,430.310,337.019,430.309,337.026C430.310,337.026,442.219,337.675,442.221,337.675"/>
</g>
<g id="bone17_eyelids_S">
<path class="path-23" d="M496.529,331.478C496.522,331.478,424.424,337.442,424.417,337.442C424.424,337.443,496.522,343.406,496.529,343.407C496.529,343.406,496.529,331.479,496.529,331.478"/>
</g>
<g id="bone18_face_S">
<path class="path-23" d="M553.047,344.369C553.054,344.367,622.717,324.857,622.724,324.855C622.717,324.855,550.795,332.655,550.787,332.655C550.788,332.657,553.047,344.367,553.047,344.369"/>
</g>
</g>
</g>
<style>
.path-0{fill:#000000;fill-rule:evenodd;stroke:none;}
.path-1{fill:none;stroke:#a60d3f;stroke-width:1;stroke-linecap:butt;stroke-linejoin:round;}
.path-2{fill:#a60d3f;fill-rule:evenodd;stroke:none;}
.path-3{fill:none;stroke:#d88e4b;stroke-width:1;stroke-linecap:butt;stroke-linejoin:round;}
.path-4{fill:#d88e4b;fill-rule:evenodd;stroke:none;}
.path-5{fill:none;stroke:#6e2353;stroke-width:1;stroke-linecap:butt;stroke-linejoin:round;}
.path-6{fill:#6e2353;fill-rule:evenodd;stroke:none;}
.path-7{fill:none;stroke:#392966;stroke-width:1;stroke-linecap:butt;stroke-linejoin:round;}
.path-8{fill:#392966;fill-rule:evenodd;stroke:none;}
.path-9{fill:none;stroke:#cc9bc5;stroke-width:1;stroke-linecap:butt;stroke-linejoin:round;}
.path-10{fill:#cc9bc5;fill-rule:evenodd;stroke:none;}
.path-11{fill:none;stroke:#620527;stroke-width:1;stroke-linecap:butt;stroke-linejoin:round;}
.path-12{fill:#620527;fill-rule:evenodd;stroke:none;}
.path-13{fill:none;stroke:#6a3661;stroke-width:1;stroke-linecap:butt;stroke-linejoin:round;}
.path-14{fill:#6a3661;fill-rule:evenodd;stroke:none;}
.path-15{fill:none;stroke:#f8a087;stroke-width:1;stroke-linecap:butt;stroke-linejoin:round;}
.path-16{fill:#f8a087;fill-rule:evenodd;stroke:none;}
.path-17{fill:none;stroke:#ffffff;stroke-width:1;stroke-linecap:butt;stroke-linejoin:round;}
.path-18{fill:#ffffff;fill-rule:evenodd;stroke:none;}
.path-19{fill:none;stroke:#d89f4a;stroke-width:1;stroke-linecap:butt;stroke-linejoin:round;}
.path-20{fill:#d89f4a;fill-rule:evenodd;stroke:none;}
.path-21{fill:none;stroke:#fafd5b;stroke-width:1;stroke-linecap:butt;stroke-linejoin:round;}
.path-22{fill:#fafd5b;fill-rule:evenodd;stroke:none;}
.path-23{fill:none;stroke:#00ff42;stroke-width:8;stroke-linecap:round;stroke-linejoin:round;}
.path-24{fill:none;stroke:#000000;stroke-width:1;stroke-linecap:butt;stroke-linejoin:round;}
.path-25{fill:none;stroke:#ececec;stroke-width:1;stroke-linecap:butt;stroke-linejoin:round;}
.path-26{fill:#ececec;fill-rule:evenodd;stroke:none;}
.path-27{fill:none;stroke:#808080;stroke-width:1;stroke-linecap:butt;stroke-linejoin:round;}
.path-28{fill:#808080;fill-rule:evenodd;stroke:none;}
.path-29{fill:none;stroke:#282828;stroke-width:1;stroke-linecap:butt;stroke-linejoin:round;}
.path-30{fill:#282828;fill-rule:evenodd;stroke:none;}
</style>
</svg>
