<svg version="1.1" id="Frame_157" xmlns="http://www.w3.org/2000/svg" xmlns:xlink="http://www.w3.org/1999/xlink" width="480px" height="720px">
<g id="main_bone">
<g id="right_arm">
<path class="path-0" d="M174.126,270.172C175.458,267.511,178.075,262.017,181.778,260.525C188.182,257.943,193.652,263.933,194.431,268.509C196.093,276.447,190.936,287.396,188.470,295.289C182.390,314.329,175.637,333.084,171.132,352.015C170.600,355.317,165.808,376.634,165.808,373.973C165.476,380.626,172.130,386.283,174.459,391.939C177.454,399.590,174.791,406.910,172.795,413.897C168.138,428.535,168.471,433.858,167.804,448.165C167.804,450.492,167.473,458.146,163.812,458.146C160.487,458.146,160.153,452.157,159.488,449.828C159.155,447.167,156.825,441.510,157.492,439.182C157.823,435.190,162.483,436.188,157.492,427.870C151.170,417.555,139.526,409.240,136.532,395.931C134.536,385.285,140.191,375.969,143.186,365.988C149.508,344.695,156.494,323.404,163.812,302.111C167.805,291.132,168.802,281.484,174.126,270.172M193.754,262.188C193.755,253.538,190.761,245.885,180.115,249.546C163.481,255.200,158.822,281.484,154.165,296.122C147.512,316.084,141.855,336.046,136.199,356.007C133.870,364.657,130.544,368.982,129.212,373.973C127.549,379.628,127.881,388.280,128.214,393.935C128.214,411.567,133.869,412.234,140.856,425.874C144.517,433.859,140.525,438.849,142.852,445.835C144.517,450.492,148.176,453.820,150.837,457.813C153.166,461.805,153.499,464.135,155.162,467.793C157.158,472.119,163.481,481.767,169.136,479.771C173.793,478.108,173.793,469.790,174.126,465.797C174.459,459.809,178.119,436.853,179.450,429.866C181.778,418.554,187.435,406.245,185.770,393.935C184.440,384.619,176.122,377.965,176.456,367.985C176.787,362.661,180.115,354.011,181.113,348.023C182.776,338.375,182.776,328.061,184.772,318.081C188.099,300.448,194.421,280.487,193.754,262.188Z"/>
<path class="path-1" d="M181.778,260.525C188.182,257.943,193.652,263.933,194.431,268.509"/>
<path class="path-1" d="M194.431,268.509C196.093,276.447,190.936,287.396,188.470,295.289"/>
<path class="path-1" d="M188.470,295.289C182.390,314.329,175.637,333.084,171.132,352.015"/>
<path class="path-1" d="M171.132,352.015C170.600,355.317,165.808,376.634,165.808,373.973"/>
<path class="path-1" d="M165.808,373.973C165.476,380.626,172.130,386.283,174.459,391.939"/>
<path class="path-1" d="M174.459,391.939C177.454,399.590,174.791,406.910,172.795,413.897"/>
<path class="path-1" d="M172.795,413.897C168.138,428.535,168.471,433.858,167.804,448.165"/>
<path class="path-1" d="M167.804,448.165C167.804,450.492,167.473,458.146,163.812,458.146"/>
<path class="path-1" d="M163.812,458.146C160.487,458.146,160.153,452.157,159.488,449.828"/>
<path class="path-1" d="M159.488,449.828C159.155,447.167,156.825,441.510,157.492,439.182"/>
<path class="path-1" d="M157.492,439.182C157.823,435.190,162.483,436.188,157.492,427.870"/>
<path class="path-1" d="M157.492,427.870C151.170,417.555,139.526,409.240,136.532,395.931"/>
<path class="path-1" d="M136.532,395.931C134.536,385.285,140.191,375.969,143.186,365.988"/>
<path class="path-1" d="M143.186,365.988C149.508,344.695,156.494,323.404,163.812,302.111"/>
<path class="path-1" d="M163.812,302.111C167.805,291.132,168.802,281.484,174.126,270.172"/>
<path class="path-1" d="M174.126,270.172C175.458,267.511,178.075,262.017,181.778,260.525"/>
<path class="path-2" d="M181.778,260.525C188.182,257.943,193.652,263.933,194.431,268.509C196.093,276.447,190.936,287.396,188.470,295.289C182.390,314.329,175.637,333.084,171.132,352.015C170.600,355.317,165.808,376.634,165.808,373.973C165.476,380.626,172.130,386.283,174.459,391.939C177.454,399.590,174.791,406.910,172.795,413.897C168.138,428.535,168.471,433.858,167.804,448.165C167.804,450.492,167.473,458.146,163.812,458.146C160.487,458.146,160.153,452.157,159.488,449.828C159.155,447.167,156.825,441.510,157.492,439.182C157.823,435.190,162.483,436.188,157.492,427.870C151.170,417.555,139.526,409.240,136.532,395.931C134.536,385.285,140.191,375.969,143.186,365.988C149.508,344.695,156.494,323.404,163.812,302.111C167.805,291.132,168.802,281.484,174.126,270.172C175.458,267.511,178.075,262.017,181.778,260.525Z"/>
</g>
<g id="layer_right_leg">
<g id="right_sole">
<path class="path-0" d="M197.299,655.944C198.667,656.291,213.296,655.977,214.862,655.998C216.184,656.044,224.590,656.225,225.715,656.156C226.401,656.136,233.550,656.105,234.085,656.657C233.929,656.013,225.884,657.648,225.403,657.654C224.565,657.704,199.850,657.529,199.570,657.622C198.287,657.677,187.811,656.427,187.247,655.457C188.214,654.891,195.751,655.549,197.299,655.944M231.237,651.702C231.253,651.978,229.971,653.213,229.553,653.200C228.697,653.177,218.090,654.449,216.979,654.131C215.704,654.000,208.893,653.570,207.740,653.489C205.473,653.329,191.699,652.944,189.570,652.188C189.352,652.065,188.658,651.514,188.634,651.381C188.618,651.092,194.280,651.277,195.390,651.257C197.157,651.224,208.097,651.441,209.909,651.464C211.855,651.488,223.515,651.798,225.508,651.633C225.820,651.615,231.076,651.012,231.237,651.702M235.775,649.024C226.358,646.094,218.254,649.043,210.136,649.084C203.707,649.130,191.016,646.965,183.563,649.802C182.422,650.237,180.396,650.860,180.232,652.141C180.026,653.788,182.817,657.166,184.761,658.450C187.171,660.040,192.198,660.074,194.191,660.379C204.296,662.301,217.078,661.171,227.548,660.894C235.220,660.699,237.047,657.497,237.846,653.839C238.181,652.302,238.744,649.905,235.775,649.024Z"/>
<path class="path-24" d="M197.299,655.944C198.667,656.291,213.296,655.977,214.862,655.998"/>
<path class="path-24" d="M214.862,655.998C216.184,656.044,224.590,656.225,225.715,656.156"/>
<path class="path-24" d="M225.715,656.156C226.401,656.136,233.550,656.105,234.085,656.657"/>
<path class="path-24" d="M234.085,656.657C233.929,656.013,225.884,657.648,225.403,657.654"/>
<path class="path-24" d="M225.403,657.654C224.565,657.704,199.850,657.529,199.570,657.622"/>
<path class="path-24" d="M199.570,657.622C198.287,657.677,187.811,656.427,187.247,655.457"/>
<path class="path-24" d="M187.247,655.457C188.214,654.891,195.751,655.549,197.299,655.944"/>
<path class="path-0" d="M197.299,655.944C198.667,656.291,213.296,655.977,214.862,655.998C216.184,656.044,224.590,656.225,225.715,656.156C226.401,656.136,233.550,656.105,234.085,656.657C233.929,656.013,225.884,657.648,225.403,657.654C224.565,657.704,199.850,657.529,199.570,657.622C198.287,657.677,187.811,656.427,187.247,655.457C188.214,654.891,195.751,655.549,197.299,655.944Z"/>
<path class="path-24" d="M195.390,651.257C197.157,651.224,208.097,651.441,209.909,651.464"/>
<path class="path-24" d="M209.909,651.464C211.855,651.488,223.515,651.798,225.508,651.633"/>
<path class="path-24" d="M225.508,651.633C225.820,651.615,231.076,651.012,231.237,651.702"/>
<path class="path-24" d="M231.237,651.702C231.253,651.978,229.971,653.213,229.553,653.200"/>
<path class="path-24" d="M229.553,653.200C228.697,653.177,218.090,654.449,216.979,654.131"/>
<path class="path-24" d="M216.979,654.131C215.704,654.000,208.893,653.570,207.740,653.489"/>
<path class="path-24" d="M207.740,653.489C205.473,653.329,191.699,652.944,189.570,652.188"/>
<path class="path-24" d="M189.570,652.188C189.352,652.065,188.658,651.514,188.634,651.381"/>
<path class="path-24" d="M188.634,651.381C188.618,651.092,194.280,651.277,195.390,651.257"/>
<path class="path-0" d="M195.390,651.257C197.157,651.224,208.097,651.441,209.909,651.464C211.855,651.488,223.515,651.798,225.508,651.633C225.820,651.615,231.076,651.012,231.237,651.702C231.253,651.978,229.971,653.213,229.553,653.200C228.697,653.177,218.090,654.449,216.979,654.131C215.704,654.000,208.893,653.570,207.740,653.489C205.473,653.329,191.699,652.944,189.570,652.188C189.352,652.065,188.658,651.514,188.634,651.381C188.618,651.092,194.280,651.277,195.390,651.257Z"/>
</g>
<g id="right_heel">
<path class="path-0" d="M188.367,584.461C189.042,569.016,190.269,557.058,209.107,554.319C217.540,552.938,233.613,555.587,238.260,563.739C240.694,567.771,239.960,573.691,240.185,578.001C240.612,584.987,244.816,598.510,234.962,600.078C234.335,600.240,217.099,600.398,211.719,600.497C204.520,601.299,197.063,601.740,191.868,596.749C189.390,593.843,188.147,587.925,188.367,584.461M247.332,562.125C243.607,552.247,229.993,546.721,220.434,548.130C208.047,549.803,195.361,545.686,187.289,557.281C181.147,566.102,180.352,582.299,182.171,592.593C182.869,597.455,185.946,606.318,189.984,609.009C192.946,610.893,197.524,610.347,201.026,610.354C218.159,610.660,248.836,616.542,248.432,590.978C248.263,584.588,249.218,567.181,247.332,562.125Z"/>
<path class="path-3" d="M209.107,554.319C217.540,552.938,233.613,555.587,238.260,563.739"/>
<path class="path-3" d="M238.260,563.739C240.694,567.771,239.960,573.691,240.185,578.001"/>
<path class="path-3" d="M240.185,578.001C240.612,584.987,244.816,598.510,234.962,600.078"/>
<path class="path-3" d="M234.962,600.078C234.335,600.240,217.099,600.398,211.719,600.497"/>
<path class="path-3" d="M211.719,600.497C204.520,601.299,197.063,601.740,191.868,596.749"/>
<path class="path-3" d="M191.868,596.749C189.390,593.843,188.147,587.925,188.367,584.461"/>
<path class="path-3" d="M188.367,584.461C189.042,569.016,190.269,557.058,209.107,554.319"/>
<path class="path-4" d="M209.107,554.319C217.540,552.938,233.613,555.587,238.260,563.739C240.694,567.771,239.960,573.691,240.185,578.001C240.612,584.987,244.816,598.510,234.962,600.078C234.335,600.240,217.099,600.398,211.719,600.497C204.520,601.299,197.063,601.740,191.868,596.749C189.390,593.843,188.147,587.925,188.367,584.461C189.042,569.016,190.269,557.058,209.107,554.319Z"/>
</g>
<g id="right_toe">
<path class="path-0" d="M181.692,634.110C182.722,622.767,187.651,608.652,201.402,606.403C204.788,605.668,209.619,607.038,213.419,607.668C232.428,610.773,240.010,614.721,241.253,634.110C241.461,638.840,242.313,644.587,239.037,648.614C235.097,653.370,214.989,653.002,208.861,653.087C198.574,653.454,189.838,655.741,183.289,646.370C180.134,641.754,181.226,639.319,181.692,634.110M247.429,615.929C241.326,603.545,212.683,596.092,199.724,598.307C180.602,601.686,173.786,616.372,172.533,632.572C172.054,638.227,171.347,644.545,174.373,649.426C175.568,651.354,178.198,653.747,179.912,655.243C191.744,666.469,199.594,665.420,214.789,664.746C223.123,664.516,236.682,662.639,243.321,656.990C247.821,652.785,248.726,648.486,249.028,642.690C249.117,637.173,249.655,620.029,247.429,615.929Z"/>
<path class="path-3" d="M201.402,606.403C204.788,605.668,209.619,607.038,213.419,607.668"/>
<path class="path-3" d="M213.419,607.668C232.428,610.773,240.010,614.721,241.253,634.110"/>
<path class="path-3" d="M241.253,634.110C241.461,638.840,242.313,644.587,239.037,648.614"/>
<path class="path-3" d="M239.037,648.614C235.097,653.370,214.989,653.002,208.861,653.087"/>
<path class="path-3" d="M208.861,653.087C198.574,653.454,189.838,655.741,183.289,646.370"/>
<path class="path-3" d="M183.289,646.370C180.134,641.754,181.226,639.319,181.692,634.110"/>
<path class="path-3" d="M181.692,634.110C182.722,622.767,187.651,608.652,201.402,606.403"/>
<path class="path-4" d="M201.402,606.403C204.788,605.668,209.619,607.038,213.419,607.668C232.428,610.773,240.010,614.721,241.253,634.110C241.461,638.840,242.313,644.587,239.037,648.614C235.097,653.370,214.989,653.002,208.861,653.087C198.574,653.454,189.838,655.741,183.289,646.370C180.134,641.754,181.226,639.319,181.692,634.110C182.722,622.767,187.651,608.652,201.402,606.403Z"/>
</g>
<g id="right_leg">
<path class="path-0" d="M184.789,403.572C187.649,392.355,202.974,390.377,212.784,393.055C218.568,394.507,228.155,397.166,231.565,402.466C234.225,406.601,234.441,414.247,232.635,418.820C230.436,424.391,211.905,430.736,217.817,432.196C226.368,434.365,232.407,422.753,237.501,426.235C240.499,428.283,239.586,433.926,239.815,438.116C241.806,456.803,236.872,476.252,235.323,494.418C234.722,500.727,231.614,509.841,232.346,515.668C233.830,531.819,232.625,535.075,233.128,544.690C233.093,548.143,232.399,565.587,233.219,570.148C234.171,574.909,235.122,580.012,235.954,584.819C237.185,591.931,232.896,604.143,227.363,608.015C223.356,610.702,209.366,614.806,204.611,613.420C199.946,612.208,195.204,606.245,192.621,601.772C191.211,599.607,185.841,589.758,185.694,586.957C185.614,581.539,186.458,579.912,187.176,573.608C187.743,566.513,191.543,559.103,190.254,551.935C185.905,528.932,185.104,497.397,186.727,482.216C187.619,471.362,184.797,435.207,185.557,425.137C186.543,413.477,183.335,411.372,184.789,403.572M208.062,381.294C202.406,379.297,198.048,373.878,192.092,375.969C190.472,376.694,187.657,378.755,186.502,379.928C170.865,393.392,171.677,406.790,171.581,425.949C171.235,433.347,170.093,441.038,170.683,448.131C171.063,454.140,172.495,459.240,172.438,464.903C172.726,470.138,172.387,475.698,172.780,482.170C173.468,490.224,176.196,499.557,176.947,513.266C176.743,525.164,177.147,536.349,177.282,547.723C177.447,551.369,176.790,559.950,176.482,562.754C175.220,567.798,172.810,573.518,171.962,578.357C171.211,584.797,173.577,591.184,176.015,596.828C177.938,602.014,180.703,608.479,184.203,612.325C186.918,615.307,190.735,617.329,194.129,619.126C198.309,621.311,202.192,623.105,206.823,624.203C210.517,625.108,214.261,626.094,218.210,625.870C219.464,625.604,229.529,622.387,231.484,621.714C233.149,621.032,234.966,618.738,236.384,617.470C238.117,615.743,241.389,614.828,243.358,613.264C246.673,610.627,250.544,608.321,252.762,604.707C264.247,585.397,250.134,571.901,247.129,552.506C245.652,542.973,244.557,523.155,245.321,512.500C246.030,498.625,250.760,485.538,251.956,471.265C252.489,466.141,252.858,459.982,253.417,454.134C253.793,449.319,252.084,445.560,251.630,440.824C251.016,436.883,251.274,424.142,250.646,419.885C250.247,416.188,250.314,411.567,248.983,407.908C245.324,398.592,231.351,388.280,222.034,385.285C217.377,383.621,212.387,383.290,208.062,381.294Z"/>
<path class="path-7" d="M212.784,393.055C218.568,394.507,228.155,397.166,231.565,402.466"/>
<path class="path-7" d="M231.565,402.466C234.225,406.601,234.441,414.247,232.635,418.820"/>
<path class="path-7" d="M232.635,418.820C230.436,424.391,211.905,430.736,217.817,432.196"/>
<path class="path-7" d="M217.817,432.196C226.368,434.365,232.407,422.753,237.501,426.235"/>
<path class="path-7" d="M237.501,426.235C240.499,428.283,239.586,433.926,239.815,438.116"/>
<path class="path-7" d="M239.815,438.116C241.806,456.803,236.872,476.252,235.323,494.418"/>
<path class="path-7" d="M235.323,494.418C234.722,500.727,231.614,509.841,232.346,515.668"/>
<path class="path-7" d="M232.346,515.668C233.830,531.819,232.625,535.075,233.128,544.690"/>
<path class="path-7" d="M233.128,544.690C233.093,548.143,232.399,565.587,233.219,570.148"/>
<path class="path-7" d="M233.219,570.148C234.171,574.909,235.122,580.012,235.954,584.819"/>
<path class="path-7" d="M235.954,584.819C237.185,591.931,232.896,604.143,227.363,608.015"/>
<path class="path-7" d="M227.363,608.015C223.356,610.702,209.366,614.806,204.611,613.420"/>
<path class="path-7" d="M204.611,613.420C199.946,612.208,195.204,606.245,192.621,601.772"/>
<path class="path-7" d="M192.621,601.772C191.211,599.607,185.841,589.758,185.694,586.957"/>
<path class="path-7" d="M185.694,586.957C185.614,581.539,186.458,579.912,187.176,573.608"/>
<path class="path-7" d="M187.176,573.608C187.743,566.513,191.543,559.103,190.254,551.935"/>
<path class="path-7" d="M190.254,551.935C185.905,528.932,185.104,497.397,186.727,482.216"/>
<path class="path-7" d="M186.727,482.216C187.619,471.362,184.797,435.207,185.557,425.137"/>
<path class="path-7" d="M185.557,425.137C186.543,413.477,183.335,411.372,184.789,403.572"/>
<path class="path-7" d="M184.789,403.572C187.649,392.355,202.974,390.377,212.784,393.055"/>
<path class="path-8" d="M212.784,393.055C218.568,394.507,228.155,397.166,231.565,402.466C234.225,406.601,234.441,414.247,232.635,418.820C230.436,424.391,211.905,430.736,217.817,432.196C226.368,434.365,232.407,422.753,237.501,426.235C240.499,428.283,239.586,433.926,239.815,438.116C241.806,456.803,236.872,476.252,235.323,494.418C234.722,500.727,231.614,509.841,232.346,515.668C233.830,531.819,232.625,535.075,233.128,544.690C233.093,548.143,232.399,565.587,233.219,570.148C234.171,574.909,235.122,580.012,235.954,584.819C237.185,591.931,232.896,604.143,227.363,608.015C223.356,610.702,209.366,614.806,204.611,613.420C199.946,612.208,195.204,606.245,192.621,601.772C191.211,599.607,185.841,589.758,185.694,586.957C185.614,581.539,186.458,579.912,187.176,573.608C187.743,566.513,191.543,559.103,190.254,551.935C185.905,528.932,185.104,497.397,186.727,482.216C187.619,471.362,184.797,435.207,185.557,425.137C186.543,413.477,183.335,411.372,184.789,403.572C187.649,392.355,202.974,390.377,212.784,393.055Z"/>
</g>
</g>
<g id="layer_left_leg">
<g id="left_heel">
<path class="path-0" d="M250.114,685.973C244.974,673.359,256.751,657.699,268.264,656.087C288.671,653.150,308.133,675.767,305.926,683.097C301.728,695.600,278.590,692.893,267.383,692.019C262.816,691.511,251.751,690.080,250.114,685.973M300.644,653.498C286.060,641.796,254.971,644.619,241.975,655.647C227.857,667.455,226.098,704.661,245.573,706.807C262.103,708.659,301.162,706.982,310.080,702.062C319.121,697.339,317.470,683.716,314.855,674.545C312.377,667.473,306.597,658.416,300.644,653.498Z"/>
<path class="path-3" d="M268.264,656.087C288.671,653.150,308.133,675.767,305.926,683.097"/>
<path class="path-3" d="M305.926,683.097C301.728,695.600,278.590,692.893,267.383,692.019"/>
<path class="path-3" d="M267.383,692.019C262.816,691.511,251.751,690.080,250.114,685.973"/>
<path class="path-3" d="M250.114,685.973C244.974,673.359,256.751,657.699,268.264,656.087"/>
<path class="path-4" d="M268.264,656.087C288.671,653.150,308.133,675.767,305.926,683.097C301.728,695.600,278.590,692.893,267.383,692.019C262.816,691.511,251.751,690.080,250.114,685.973C244.974,673.359,256.751,657.699,268.264,656.087Z"/>
</g>
<g id="left_leg">
<path class="path-0" d="M238.898,405.789C240.604,401.168,250.103,404.865,253.973,404.581C260.668,404.414,276.248,400.452,281.255,405.095C286.385,409.544,283.472,428.570,283.306,435.100C281.984,459.580,286.967,482.492,289.599,506.018C291.184,524.069,290.050,543.481,295.952,560.239C299.620,569.413,309.651,575.575,313.538,584.041C316.816,596.581,322.891,611.333,315.176,620.546C300.680,635.808,295.168,629.261,282.261,636.849C271.683,642.639,253.501,641.776,244.472,635.581C238.224,631.595,229.216,620.405,228.010,613.194C221.655,575.187,225.471,530.747,227.264,492.993C227.910,479.397,240.072,451.692,236.806,437.438C235.769,432.916,234.929,431.060,237.325,427.733C238.530,426.054,236.830,419.374,236.730,417.280C236.330,414.172,237.683,408.599,238.898,405.789M287.665,398.001C281.131,392.436,261.914,394.247,253.973,394.933C249.733,395.283,236.184,393.145,233.261,395.380C224.028,402.442,229.065,423.617,229.381,433.089C229.072,442.430,216.186,485.414,214.342,497.858C211.886,525.605,208.069,549.637,210.786,577.360C212.545,598.131,212.396,619.345,222.451,637.279C233.255,656.233,251.329,657.088,276.541,653.568C294.893,651.112,324.278,653.824,330.429,623.471C335.154,600.158,323.789,571.002,319.222,564.365C315.166,558.471,308.145,554.199,305.104,547.160C296.683,529.378,301.571,508.060,299.885,488.342C298.084,467.036,304.818,412.675,287.665,398.001Z"/>
<path class="path-7" d="M253.973,404.581C260.668,404.414,276.248,400.452,281.255,405.095"/>
<path class="path-7" d="M281.255,405.095C286.385,409.544,283.472,428.570,283.306,435.100"/>
<path class="path-7" d="M283.306,435.100C281.984,459.580,286.967,482.492,289.599,506.018"/>
<path class="path-7" d="M289.599,506.018C291.184,524.069,290.050,543.481,295.952,560.239"/>
<path class="path-7" d="M295.952,560.239C299.620,569.413,309.651,575.575,313.538,584.041"/>
<path class="path-7" d="M313.538,584.041C316.816,596.581,322.891,611.333,315.176,620.546"/>
<path class="path-7" d="M315.176,620.546C300.680,635.808,295.168,629.261,282.261,636.849"/>
<path class="path-7" d="M282.261,636.849C271.683,642.639,253.501,641.776,244.472,635.581"/>
<path class="path-7" d="M244.472,635.581C238.224,631.595,229.216,620.405,228.010,613.194"/>
<path class="path-7" d="M228.010,613.194C221.655,575.187,225.471,530.747,227.264,492.993"/>
<path class="path-7" d="M227.264,492.993C227.910,479.397,240.072,451.692,236.806,437.438"/>
<path class="path-7" d="M236.806,437.438C235.769,432.916,234.929,431.060,237.325,427.733"/>
<path class="path-7" d="M237.325,427.733C238.530,426.054,236.830,419.374,236.730,417.280"/>
<path class="path-7" d="M236.730,417.280C236.330,414.172,237.683,408.599,238.898,405.789"/>
<path class="path-7" d="M238.898,405.789C240.604,401.168,250.103,404.865,253.973,404.581"/>
<path class="path-8" d="M253.973,404.581C260.668,404.414,276.248,400.452,281.255,405.095C286.385,409.544,283.472,428.570,283.306,435.100C281.984,459.580,286.967,482.492,289.599,506.018C291.184,524.069,290.050,543.481,295.952,560.239C299.620,569.413,309.651,575.575,313.538,584.041C316.816,596.581,322.891,611.333,315.176,620.546C300.680,635.808,295.168,629.261,282.261,636.849C271.683,642.639,253.501,641.776,244.472,635.581C238.224,631.595,229.216,620.405,228.010,613.194C221.655,575.187,225.471,530.747,227.264,492.993C227.910,479.397,240.072,451.692,236.806,437.438C235.769,432.916,234.929,431.060,237.325,427.733C238.530,426.054,236.830,419.374,236.730,417.280C236.330,414.172,237.683,408.599,238.898,405.789C240.604,401.168,250.103,404.865,253.973,404.581Z"/>
</g>
<g id="left_toe">
<path class="path-0" d="M243.531,671.678C204.224,654.742,241.835,587.639,267.401,594.848C300.687,604.235,306.255,624.171,308.906,635.481C311.590,646.933,311.394,657.918,303.980,667.399C291.421,680.971,258.721,678.222,243.531,671.678M312.999,610.603C303.686,599.288,288.923,581.302,272.022,582.046C244.077,583.276,220.995,601.417,216.283,631.264C212.960,648.554,215.391,665.884,226.637,679.429C235.628,689.596,265.634,690.820,278.586,690.157C291.044,688.655,307.890,687.715,315.968,676.855C325.231,664.778,322.454,622.089,312.999,610.603Z"/>
<path class="path-3" d="M267.401,594.848C300.687,604.235,306.255,624.171,308.906,635.481"/>
<path class="path-3" d="M308.906,635.481C311.590,646.933,311.394,657.918,303.980,667.399"/>
<path class="path-3" d="M303.980,667.399C291.421,680.971,258.721,678.222,243.531,671.678"/>
<path class="path-3" d="M243.531,671.678C204.224,654.742,241.835,587.639,267.401,594.848"/>
<path class="path-4" d="M267.401,594.848C300.687,604.235,306.255,624.171,308.906,635.481C311.590,646.933,311.394,657.918,303.980,667.399C291.421,680.971,258.721,678.222,243.531,671.678C204.224,654.742,241.835,587.639,267.401,594.848Z"/>
</g>
<g id="left_sole">
<path class="path-0" d="M250.022,690.242C243.656,688.907,240.499,688.057,240.324,686.888C239.709,682.770,253.220,678.812,260.914,676.999C267.370,675.584,283.852,677.720,293.377,679.622C295.743,680.295,300.757,686.280,300.770,686.476C301.143,692.123,290.860,688.473,287.708,688.774C281.145,689.758,251.222,689.941,250.022,690.242M234.783,672.966C233.731,668.760,245.492,660.167,249.477,658.745C281.689,647.257,294.249,658.760,301.857,663.925C304.957,666.029,312.909,672.892,309.284,676.714C305.125,681.099,290.748,667.473,275.728,666.233C253.713,664.415,236.166,678.498,234.783,672.966M317.856,670.292C315.761,660.293,292.890,641.262,261.569,643.007C250.840,643.605,228.350,656.155,225.658,670.186C224.691,675.291,227.272,691.389,231.809,693.701C243.099,699.456,308.543,696.695,313.465,690.616C316.641,686.693,318.361,672.707,317.856,670.292Z"/>
<path class="path-5" d="M240.324,686.888C239.709,682.770,253.220,678.812,260.914,676.999"/>
<path class="path-5" d="M260.914,676.999C267.370,675.584,283.852,677.720,293.377,679.622"/>
<path class="path-5" d="M293.377,679.622C295.743,680.295,300.757,686.280,300.770,686.476"/>
<path class="path-5" d="M300.770,686.476C301.143,692.123,290.860,688.473,287.708,688.774"/>
<path class="path-5" d="M287.708,688.774C281.145,689.758,251.222,689.941,250.022,690.242"/>
<path class="path-5" d="M250.022,690.242C243.656,688.907,240.499,688.057,240.324,686.888"/>
<path class="path-6" d="M240.324,686.888C239.709,682.770,253.220,678.812,260.914,676.999C267.370,675.584,283.852,677.720,293.377,679.622C295.743,680.295,300.757,686.280,300.770,686.476C301.143,692.123,290.860,688.473,287.708,688.774C281.145,689.758,251.222,689.941,250.022,690.242C243.656,688.907,240.499,688.057,240.324,686.888Z"/>
<path class="path-5" d="M249.477,658.745C281.689,647.257,294.249,658.760,301.857,663.925"/>
<path class="path-5" d="M301.857,663.925C304.957,666.029,312.909,672.892,309.284,676.714"/>
<path class="path-5" d="M309.284,676.714C305.125,681.099,290.748,667.473,275.728,666.233"/>
<path class="path-5" d="M275.728,666.233C253.713,664.415,236.166,678.498,234.783,672.966"/>
<path class="path-5" d="M234.783,672.966C233.731,668.760,245.492,660.167,249.477,658.745"/>
<path class="path-6" d="M249.477,658.745C281.689,647.257,294.249,658.760,301.857,663.925C304.957,666.029,312.909,672.892,309.284,676.714C305.125,681.099,290.748,667.473,275.728,666.233C253.713,664.415,236.166,678.498,234.783,672.966C233.731,668.760,245.492,660.167,249.477,658.745Z"/>
</g>
</g>
<g id="hat_brim">
<path class="path-0" d="M290.425,139.224C294.084,133.235,303.067,116.933,311.052,116.933C316.376,116.933,327.354,126.582,333.009,129.576C338.000,132.571,343.324,135.232,348.979,137.893C352.192,139.562,355.408,141.225,358.627,142.883C372.934,150.203,368.941,156.525,360.623,155.194C341.993,151.865,338.998,153.197,321.033,143.881C318.703,142.883,312.715,139.557,311.717,143.881C310.387,148.872,319.370,153.197,323.029,154.860C329.682,158.521,337.002,162.514,344.987,163.178C347.316,163.512,355.301,162.844,356.631,165.174C358.627,168.501,348.979,177.151,346.983,179.147C343.655,182.142,340.330,185.136,337.002,187.466C332.012,190.791,326.688,193.785,321.033,194.783C310.387,196.115,277.117,180.810,276.119,169.167C275.454,162.513,286.433,145.546,290.425,139.224M323.029,112.609C318.039,108.283,314.379,101.961,307.059,105.289C301.735,107.618,296.081,115.270,292.422,119.262C278.780,135.897,266.471,155.527,267.136,177.151C267.470,190.791,272.127,190.460,283.105,195.781C299.739,204.100,321.033,206.761,338.998,198.445C350.642,193.121,370.938,175.155,376.261,163.178C377.924,159.186,380.918,150.203,378.588,145.546C375.927,139.889,353.636,130.241,346.983,126.582C338.998,122.257,330.016,118.264,323.029,112.609Z"/>
<path class="path-9" d="M311.052,116.933C316.376,116.933,327.354,126.582,333.009,129.576"/>
<path class="path-9" d="M333.009,129.576C338.000,132.571,343.324,135.232,348.979,137.893"/>
<path class="path-9" d="M348.979,137.893C352.192,139.562,355.408,141.225,358.627,142.883"/>
<path class="path-9" d="M358.627,142.883C372.934,150.203,368.941,156.525,360.623,155.194"/>
<path class="path-9" d="M360.623,155.194C341.993,151.865,338.998,153.197,321.033,143.881"/>
<path class="path-9" d="M321.033,143.881C318.703,142.883,312.715,139.557,311.717,143.881"/>
<path class="path-9" d="M311.717,143.881C310.387,148.872,319.370,153.197,323.029,154.860"/>
<path class="path-9" d="M323.029,154.860C329.682,158.521,337.002,162.514,344.987,163.178"/>
<path class="path-9" d="M344.987,163.178C347.316,163.512,355.301,162.844,356.631,165.174"/>
<path class="path-9" d="M356.631,165.174C358.627,168.501,348.979,177.151,346.983,179.147"/>
<path class="path-9" d="M346.983,179.147C343.655,182.142,340.330,185.136,337.002,187.466"/>
<path class="path-9" d="M337.002,187.466C332.012,190.791,326.688,193.785,321.033,194.783"/>
<path class="path-9" d="M321.033,194.783C310.387,196.115,277.117,180.810,276.119,169.167"/>
<path class="path-9" d="M276.119,169.167C275.454,162.513,286.433,145.546,290.425,139.224"/>
<path class="path-9" d="M290.425,139.224C294.084,133.235,303.067,116.933,311.052,116.933"/>
<path class="path-10" d="M311.052,116.933C316.376,116.933,327.354,126.582,333.009,129.576C338.000,132.571,343.324,135.232,348.979,137.893C352.192,139.562,355.408,141.225,358.627,142.883C372.934,150.203,368.941,156.525,360.623,155.194C341.993,151.865,338.998,153.197,321.033,143.881C318.703,142.883,312.715,139.557,311.717,143.881C310.387,148.872,319.370,153.197,323.029,154.860C329.682,158.521,337.002,162.514,344.987,163.178C347.316,163.512,355.301,162.844,356.631,165.174C358.627,168.501,348.979,177.151,346.983,179.147C343.655,182.142,340.330,185.136,337.002,187.466C332.012,190.791,326.688,193.785,321.033,194.783C310.387,196.115,277.117,180.810,276.119,169.167C275.454,162.513,286.433,145.546,290.425,139.224C294.084,133.235,303.067,116.933,311.052,116.933Z"/>
</g>
<g id="hair">
<path class="path-0" d="M183.357,136.483C200.954,124.749,220.906,123.806,241.996,123.120C251.452,122.794,257.886,129.270,265.069,135.626C270.964,141.195,277.299,147.468,283.560,153.313C292.986,162.051,296.930,166.431,300.440,170.614C303.444,173.825,308.105,179.813,311.862,182.674C316.396,186.124,325.422,203.315,327.445,205.266C320.793,207.453,310.356,209.024,305.541,212.830C307.149,218.669,307.424,227.700,307.413,230.409C301.202,230.790,294.008,227.926,282.567,225.752C280.180,232.918,280.142,239.647,275.384,246.902C267.697,244.496,262.345,242.563,252.411,238.043C245.798,243.193,244.261,242.773,233.517,249.212C226.455,244.820,220.838,240.151,213.943,237.253C207.148,240.091,196.403,241.027,192.739,243.925C188.987,236.858,185.547,229.060,182.318,225.662C172.710,227.554,168.576,230.148,161.781,232.559C157.606,227.012,160.654,222.489,156.037,214.349C151.717,213.146,145.049,210.476,139.490,210.322C143.367,205.864,146.319,191.142,152.833,189.327C160.871,187.088,155.875,177.911,160.872,169.755C162.110,167.631,174.016,151.399,175.093,148.739C177.132,144.153,179.361,139.287,183.357,136.483M269.783,123.041C257.623,113.516,232.973,108.192,219.067,111.311C206.306,114.023,193.787,117.926,182.663,125.006C176.433,128.911,169.531,134.686,165.362,140.754C157.036,152.537,144.935,178.372,138.142,190.325C132.704,200.241,127.646,206.923,122.452,212.283C140.007,218.879,145.124,221.586,150.363,222.441C150.613,230.199,157.711,236.027,156.388,244.572C165.209,243.354,170.475,241.177,178.326,239.302C182.258,243.995,184.942,250.348,188.681,256.586C196.418,254.568,204.305,254.940,212.000,249.563C217.496,252.632,226.229,257.403,235.200,262.448C243.544,258.115,245.325,257.880,253.165,252.908C262.619,255.342,272.515,261.315,282.074,260.399C281.484,252.206,287.600,246.647,286.947,241.388C294.168,239.536,316.196,242.966,319.967,242.683C319.803,236.635,316.595,225.026,318.237,217.838C325.064,216.098,330.837,214.510,341.526,209.520C338.121,202.790,331.974,194.414,326.560,189.403C321.990,185.214,318.291,179.689,313.719,175.326C298.212,160.768,292.275,140.745,269.783,123.041Z"/>
<path class="path-11" d="M241.996,123.120C251.452,122.794,257.886,129.270,265.069,135.626"/>
<path class="path-11" d="M265.069,135.626C270.964,141.195,277.299,147.468,283.560,153.313"/>
<path class="path-11" d="M283.560,153.313C292.986,162.051,296.930,166.431,300.440,170.614"/>
<path class="path-11" d="M300.440,170.614C303.444,173.825,308.105,179.813,311.862,182.674"/>
<path class="path-11" d="M311.862,182.674C316.396,186.124,325.422,203.315,327.445,205.266"/>
<path class="path-11" d="M327.445,205.266C320.793,207.453,310.356,209.024,305.541,212.830"/>
<path class="path-11" d="M305.541,212.830C307.149,218.669,307.424,227.700,307.413,230.409"/>
<path class="path-11" d="M307.413,230.409C301.202,230.790,294.008,227.926,282.567,225.752"/>
<path class="path-11" d="M282.567,225.752C280.180,232.918,280.142,239.647,275.384,246.902"/>
<path class="path-11" d="M275.384,246.902C267.697,244.496,262.345,242.563,252.411,238.043"/>
<path class="path-11" d="M252.411,238.043C245.798,243.193,244.261,242.773,233.517,249.212"/>
<path class="path-11" d="M233.517,249.212C226.455,244.820,220.838,240.151,213.943,237.253"/>
<path class="path-11" d="M213.943,237.253C207.148,240.091,196.403,241.027,192.739,243.925"/>
<path class="path-11" d="M192.739,243.925C188.987,236.858,185.547,229.060,182.318,225.662"/>
<path class="path-11" d="M182.318,225.662C172.710,227.554,168.576,230.148,161.781,232.559"/>
<path class="path-11" d="M161.781,232.559C157.606,227.012,160.654,222.489,156.037,214.349"/>
<path class="path-11" d="M156.037,214.349C151.717,213.146,145.049,210.476,139.490,210.322"/>
<path class="path-11" d="M139.490,210.322C143.367,205.864,146.319,191.142,152.833,189.327"/>
<path class="path-11" d="M152.833,189.327C160.871,187.088,155.875,177.911,160.872,169.755"/>
<path class="path-11" d="M160.872,169.755C162.110,167.631,174.016,151.399,175.093,148.739"/>
<path class="path-11" d="M175.093,148.739C177.132,144.153,179.361,139.287,183.357,136.483"/>
<path class="path-11" d="M183.357,136.483C200.954,124.749,220.906,123.806,241.996,123.120"/>
<path class="path-12" d="M241.996,123.120C251.452,122.794,257.886,129.270,265.069,135.626C270.964,141.195,277.299,147.468,283.560,153.313C292.986,162.051,296.930,166.431,300.440,170.614C303.444,173.825,308.105,179.813,311.862,182.674C316.396,186.124,325.422,203.315,327.445,205.266C320.793,207.453,310.356,209.024,305.541,212.830C307.149,218.669,307.424,227.700,307.413,230.409C301.202,230.790,294.008,227.926,282.567,225.752C280.180,232.918,280.142,239.647,275.384,246.902C267.697,244.496,262.345,242.563,252.411,238.043C245.798,243.193,244.261,242.773,233.517,249.212C226.455,244.820,220.838,240.151,213.943,237.253C207.148,240.091,196.403,241.027,192.739,243.925C188.987,236.858,185.547,229.060,182.318,225.662C172.710,227.554,168.576,230.148,161.781,232.559C157.606,227.012,160.654,222.489,156.037,214.349C151.717,213.146,145.049,210.476,139.490,210.322C143.367,205.864,146.319,191.142,152.833,189.327C160.871,187.088,155.875,177.911,160.872,169.755C162.110,167.631,174.016,151.399,175.093,148.739C177.132,144.153,179.361,139.287,183.357,136.483C200.954,124.749,220.906,123.806,241.996,123.120Z"/>
</g>
<g id="clothes">
<path class="path-0" d="M244.630,365.126C238.978,363.580,218.959,368.348,215.818,373.553C214.033,376.722,217.108,378.267,220.272,378.174C224.452,378.050,245.935,373.794,248.649,371.779C252.708,368.692,246.838,365.628,244.630,365.126M191.093,266.179C194.088,253.538,221.037,240.563,234.012,241.561C242.994,242.226,271.274,256.199,275.266,264.517C278.592,271.170,279.590,295.789,279.924,304.107C280.257,319.412,281.431,334.733,282.253,350.019C283.520,362.455,294.310,376.446,287.771,387.100C284.785,390.780,273.013,388.596,267.885,389.535C262.906,390.693,254.108,396.189,249.450,396.865C228.007,400.572,231.003,405.122,210.686,407.045C206.368,407.288,192.408,405.654,189.626,403.733C182.923,397.862,186.028,388.228,187.326,379.745C190.114,365.437,190.554,355.474,191.427,340.038C192.230,323.965,194.088,306.768,194.088,290.134C193.755,284.145,190.429,269.839,191.093,266.179M269.943,247.549C253.640,237.899,237.670,229.915,218.042,235.573C212.718,236.902,186.103,249.877,183.773,253.205C180.115,258.529,183.773,278.821,183.773,286.141C184.107,294.791,184.440,303.773,183.773,312.092C183.442,318.413,182.111,324.069,182.111,330.057C181.777,336.710,181.797,343.887,180.780,350.019C177.584,368.464,167.503,405.502,190.049,416.573C194.776,418.915,201.305,418.504,206.866,418.177C216.677,417.411,227.249,416.363,236.816,413.488C249.029,410.183,259.608,401.614,272.279,399.765C278.082,398.919,296.133,405.949,300.701,401.763C302.704,400.010,304.502,388.418,304.258,385.421C302.401,371.121,293.944,358.253,291.567,344.031C289.922,332.163,289.239,320.410,289.904,308.100C290.237,298.119,291.900,288.471,291.900,278.157C291.567,273.831,292.234,268.510,289.904,264.184C285.912,256.199,277.263,251.873,269.943,247.549Z"/>
<path class="path-13" d="M244.630,365.126C238.978,363.580,218.959,368.348,215.818,373.553"/>
<path class="path-13" d="M215.818,373.553C214.033,376.722,217.108,378.267,220.272,378.174"/>
<path class="path-13" d="M220.272,378.174C224.452,378.050,245.935,373.794,248.649,371.779"/>
<path class="path-13" d="M248.649,371.779C252.708,368.692,246.838,365.628,244.630,365.126"/>
<path class="path-13" d="M191.093,266.179C194.088,253.538,221.037,240.563,234.012,241.561"/>
<path class="path-13" d="M234.012,241.561C242.994,242.226,271.274,256.199,275.266,264.517"/>
<path class="path-13" d="M275.266,264.517C278.592,271.170,279.590,295.789,279.924,304.107"/>
<path class="path-13" d="M279.924,304.107C280.257,319.412,281.431,334.733,282.253,350.019"/>
<path class="path-13" d="M282.253,350.019C283.520,362.455,294.310,376.446,287.771,387.100"/>
<path class="path-13" d="M287.771,387.100C284.785,390.780,273.013,388.596,267.885,389.535"/>
<path class="path-13" d="M267.885,389.535C262.906,390.693,254.108,396.189,249.450,396.865"/>
<path class="path-13" d="M249.450,396.865C228.007,400.572,231.003,405.122,210.686,407.045"/>
<path class="path-13" d="M210.686,407.045C206.368,407.288,192.408,405.654,189.626,403.733"/>
<path class="path-13" d="M189.626,403.733C182.923,397.862,186.028,388.228,187.326,379.745"/>
<path class="path-13" d="M187.326,379.745C190.114,365.437,190.554,355.474,191.427,340.038"/>
<path class="path-13" d="M191.427,340.038C192.230,323.965,194.088,306.768,194.088,290.134"/>
<path class="path-13" d="M194.088,290.134C193.755,284.145,190.429,269.839,191.093,266.179"/>
<path class="path-14" d="M244.630,365.126C238.978,363.580,218.959,368.348,215.818,373.553C214.033,376.722,217.108,378.267,220.272,378.174C224.452,378.050,245.935,373.794,248.649,371.779C252.708,368.692,246.838,365.628,244.630,365.126M191.093,266.179C194.088,253.538,221.037,240.563,234.012,241.561C242.994,242.226,271.274,256.199,275.266,264.517C278.592,271.170,279.590,295.789,279.924,304.107C280.257,319.412,281.431,334.733,282.253,350.019C283.520,362.455,294.310,376.446,287.771,387.100C284.785,390.780,273.013,388.596,267.885,389.535C262.906,390.693,254.108,396.189,249.450,396.865C228.007,400.572,231.003,405.122,210.686,407.045C206.368,407.288,192.408,405.654,189.626,403.733C182.923,397.862,186.028,388.228,187.326,379.745C190.114,365.437,190.554,355.474,191.427,340.038C192.230,323.965,194.088,306.768,194.088,290.134C193.755,284.145,190.429,269.839,191.093,266.179Z"/>
</g>
<g id="neck">
<path class="path-0" d="M229.021,222.597C229.354,219.269,230.353,216.275,234.012,215.942C245.656,213.946,244.657,251.542,234.012,251.542C224.031,251.542,228.356,228.917,229.021,222.597M234.012,206.628C231.351,206.295,228.357,206.959,226.027,208.291C216.711,212.948,218.042,221.599,218.042,230.248C217.708,234.574,218.042,238.567,216.046,242.226C214.383,245.553,209.724,248.879,209.724,252.540C210.057,262.521,237.006,262.521,243.993,262.188C246.653,262.187,255.636,263.185,256.634,259.526C256.634,258.528,249.981,246.883,248.983,242.226C245.989,228.252,255.305,207.626,234.012,206.628Z"/>
<path class="path-15" d="M234.012,215.942C245.656,213.946,244.657,251.542,234.012,251.542"/>
<path class="path-15" d="M234.012,251.542C224.031,251.542,228.356,228.917,229.021,222.597"/>
<path class="path-15" d="M229.021,222.597C229.354,219.269,230.353,216.275,234.012,215.942"/>
<path class="path-16" d="M234.012,215.942C245.656,213.946,244.657,251.542,234.012,251.542C224.031,251.542,228.356,228.917,229.021,222.597C229.354,219.269,230.353,216.275,234.012,215.942Z"/>
</g>
<g id="layer_head">
<g id="right_ear">
<path class="path-0" d="M146.182,194.200C134.911,196.257,120.050,159.311,136.103,163.191C140.869,164.332,143.457,172.802,144.347,176.429C145.983,182.720,153.906,192.830,146.182,194.200M142.181,151.257C138.808,149.353,134.724,148.508,131.219,150.160C121.364,153.009,117.498,165.128,119.119,175.311C121.241,187.769,133.137,202.903,144.535,205.740C147.674,206.539,154.146,208.788,157.238,207.324C163.811,203.697,158.752,193.452,156.995,187.829C155.064,181.142,147.353,155.475,142.181,151.257Z"/>
<path class="path-15" d="M136.103,163.191C140.869,164.332,143.457,172.802,144.347,176.429"/>
<path class="path-15" d="M144.347,176.429C145.983,182.720,153.906,192.830,146.182,194.200"/>
<path class="path-15" d="M146.182,194.200C134.911,196.257,120.050,159.311,136.103,163.191"/>
<path class="path-16" d="M136.103,163.191C140.869,164.332,143.457,172.802,144.347,176.429C145.983,182.720,153.906,192.830,146.182,194.200C134.911,196.257,120.050,159.311,136.103,163.191Z"/>
</g>
<g id="face_Mask">
<g id="face">
<path class="path-0" d="M159.639,105.190C168.126,94.741,200.894,87.556,214.534,85.560C229.839,83.564,245.475,85.893,260.446,90.550C265.770,92.215,273.517,94.092,278.079,97.870C285.621,104.164,289.468,115.566,292.117,124.625C294.198,131.115,298.229,139.570,296.878,145.867C291.034,173.120,285.316,185.298,280.150,193.037C273.504,202.992,261.251,207.252,250.608,212.503C234.792,220.028,218.507,224.427,209.898,224.023C197.419,223.437,170.772,215.271,162.200,206.932C154.510,199.167,154.256,188.317,151.942,178.110C149.731,169.583,146.960,156.539,145.945,147.968C144.800,136.796,152.654,113.711,159.639,105.190M282.096,90.194C268.557,77.887,232.211,75.163,214.577,77.807C206.258,78.797,198.272,79.455,190.618,81.446C184.959,83.108,179.964,85.767,174.636,87.430C162.990,91.754,158.178,90.315,150.348,101.080C144.725,108.615,136.751,138.256,136.910,147.499C137.152,154.471,140.723,170.947,142.186,178.936C143.852,188.339,145.902,201.261,150.965,208.958C155.426,215.529,161.409,220.110,171.548,224.694C183.784,230.225,197.872,233.933,211.647,235.151C219.772,236.373,235.539,231.899,256.796,221.094C268.299,215.065,279.960,208.459,287.547,196.858C295.743,184.326,302.483,166.569,308.126,145.423C313.438,125.516,290.430,97.606,282.096,90.194Z"/>
<path class="path-15" d="M214.534,85.560C229.839,83.564,245.475,85.893,260.446,90.550"/>
<path class="path-15" d="M260.446,90.550C265.770,92.215,273.517,94.092,278.079,97.870"/>
<path class="path-15" d="M278.079,97.870C285.621,104.164,289.468,115.566,292.117,124.625"/>
<path class="path-15" d="M292.117,124.625C294.198,131.115,298.229,139.570,296.878,145.867"/>
<path class="path-15" d="M296.878,145.867C291.034,173.120,285.316,185.298,280.150,193.037"/>
<path class="path-15" d="M280.150,193.037C273.504,202.992,261.251,207.252,250.608,212.503"/>
<path class="path-15" d="M250.608,212.503C234.792,220.028,218.507,224.427,209.898,224.023"/>
<path class="path-15" d="M209.898,224.023C197.419,223.437,170.772,215.271,162.200,206.932"/>
<path class="path-15" d="M162.200,206.932C154.510,199.167,154.256,188.317,151.942,178.110"/>
<path class="path-15" d="M151.942,178.110C149.731,169.583,146.960,156.539,145.945,147.968"/>
<path class="path-15" d="M145.945,147.968C144.800,136.796,152.654,113.711,159.639,105.190"/>
<path class="path-15" d="M159.639,105.190C168.126,94.741,200.894,87.556,214.534,85.560"/>
<path class="path-16" d="M214.534,85.560C229.839,83.564,245.475,85.893,260.446,90.550C265.770,92.215,273.517,94.092,278.079,97.870C285.621,104.164,289.468,115.566,292.117,124.625C294.198,131.115,298.229,139.570,296.878,145.867C291.034,173.120,285.316,185.298,280.150,193.037C273.504,202.992,261.251,207.252,250.608,212.503C234.792,220.028,218.507,224.427,209.898,224.023C197.419,223.437,170.772,215.271,162.200,206.932C154.510,199.167,154.256,188.317,151.942,178.110C149.731,169.583,146.960,156.539,145.945,147.968C144.800,136.796,152.654,113.711,159.639,105.190C168.126,94.741,200.894,87.556,214.534,85.560Z"/>
</g>
</g>
<mask id="mask_target" style="mask-type:alpha;">
<use xlink:href="#face_Mask"/>
</mask>
<g id="mouse">
<path class="path-0" d="M212.391,214.391C217.595,215.495,217.679,220.248,217.205,220.755C216.938,221.041,215.815,220.090,212.855,219.603C207.249,218.681,204.543,219.854,204.346,219.140C204.129,218.357,206.298,213.099,212.391,214.391Z"/>
</g>
<g id="layer_eyes_Mtarget" mask="url(#mask_target)">
<g id="eyes">
<mask style="mask-type:alpha;" id="f3906406-f197-4bf1-91d8-744c09cca836">
<use xlink:href="#cmn_f3906406-f197-4bf1-91d8-744c09cca836"/>
</mask>
<g id="cmn_f3906406-f197-4bf1-91d8-744c09cca836">
<path class="path-0" d="M182.668,175.077C184.981,184.741,178.634,192.423,171.390,191.991C165.634,191.542,162.275,185.659,160.487,180.032C159.260,176.649,154.939,160.674,159.518,163.167C162.373,164.722,181.941,172.037,182.668,175.077M189.989,178.364C190.588,176.801,191.363,174.442,190.843,172.851C190.336,171.299,188.654,169.136,187.003,168.993C182.658,168.519,168.421,160.771,163.013,158.544C158.857,156.901,148.399,150.578,144.945,154.110C140.814,158.213,146.965,161.302,148.987,169.164C152.617,183.277,163.921,199.604,175.003,198.433C186.330,197.236,187.300,185.380,189.989,178.364M233.844,189.275C226.490,189.079,216.522,183.536,216.842,172.079C216.933,168.808,230.347,164.072,236.366,161.075C242.598,157.972,254.457,151.708,257.646,151.815C261.138,152.354,259.594,155.400,259.671,165.054C259.751,175.005,246.845,189.621,233.844,189.275M266.549,171.373C270.335,159.560,270.032,143.271,267.717,142.169C262.534,139.701,248.931,149.101,241.024,152.430C231.243,156.549,215.611,165.380,208.889,167.226C206.763,167.892,204.824,168.375,204.485,169.880C203.849,172.711,209.107,174.832,210.962,177.063C214.011,180.731,215.614,186.956,220.574,189.726C230.961,195.956,238.579,194.655,250.418,190.307C257.978,187.553,264.336,178.280,266.549,171.373Z"/>
<path class="path-17" d="M257.646,151.815C261.138,152.354,259.594,155.400,259.671,165.054"/>
<path class="path-17" d="M259.671,165.054C259.751,175.005,246.845,189.621,233.844,189.275"/>
<path class="path-17" d="M233.844,189.275C226.490,189.079,216.522,183.536,216.842,172.079"/>
<path class="path-17" d="M216.842,172.079C216.933,168.808,230.347,164.072,236.366,161.075"/>
<path class="path-17" d="M236.366,161.075C242.598,157.972,254.457,151.708,257.646,151.815"/>
<path class="path-18" d="M257.646,151.815C261.138,152.354,259.594,155.400,259.671,165.054C259.751,175.005,246.845,189.621,233.844,189.275C226.490,189.079,216.522,183.536,216.842,172.079C216.933,168.808,230.347,164.072,236.366,161.075C242.598,157.972,254.457,151.708,257.646,151.815Z"/>
<path class="path-17" d="M159.518,163.167C162.373,164.722,181.941,172.037,182.668,175.077"/>
<path class="path-17" d="M182.668,175.077C184.981,184.741,178.634,192.423,171.390,191.991"/>
<path class="path-17" d="M171.390,191.991C165.634,191.542,162.275,185.659,160.487,180.032"/>
<path class="path-17" d="M160.487,180.032C159.260,176.649,154.939,160.674,159.518,163.167"/>
<path class="path-18" d="M159.518,163.167C162.373,164.722,181.941,172.037,182.668,175.077C184.981,184.741,178.634,192.423,171.390,191.991C165.634,191.542,162.275,185.659,160.487,180.032C159.260,176.649,154.939,160.674,159.518,163.167Z"/>
</g>
</g>
<g id="pupil">
<path class="path-0" d="M217.705,166.534C220.090,165.970,222.872,169.625,223.543,178.440C223.974,184.105,222.819,186.407,221.263,186.652C219.374,186.949,217.718,184.279,216.434,177.502C215.065,170.269,215.719,167.004,217.705,166.534Z" mask="url(#f3906406-f197-4bf1-91d8-744c09cca836)"/>
<path class="path-0" d="M162.120,167.112C164.245,166.713,165.904,170.110,167.249,178.053C168.232,183.855,168.019,186.448,166.491,186.847C164.952,187.248,163.181,185.165,161.525,179.476C159.218,171.553,159.943,167.520,162.120,167.112Z" mask="url(#f3906406-f197-4bf1-91d8-744c09cca836)"/>
</g>
</g>
<g id="hat">
<path class="path-0" d="M297.488,126.448C299.647,127.494,302.421,130.100,302.833,132.752C304.390,139.199,293.290,139.255,289.878,139.648C283.561,139.741,276.963,139.329,270.929,139.153C265.116,139.509,259.285,139.398,253.462,139.529C240.212,138.798,227.028,137.348,213.782,136.596C200.525,136.365,187.708,135.686,174.047,135.402C172.341,135.413,143.291,138.490,138.069,136.104C127.302,131.300,137.465,122.548,136.864,117.380C136.744,114.331,130.285,113.523,131.870,108.233C133.328,103.633,149.188,99.488,153.994,98.353C165.270,95.629,176.989,92.539,189.016,91.110C204.836,89.319,220.455,90.261,236.474,89.531C253.444,88.851,290.072,94.073,301.760,110.798C308.223,119.866,290.357,111.860,288.385,111.442C282.239,108.676,259.200,99.723,268.465,110.265C273.664,117.499,290.482,122.315,297.488,126.448M182.192,84.437C171.144,85.835,161.003,86.607,150.577,88.862C146.331,89.769,141.353,91.615,137.296,90.670C128.439,88.735,139.629,66.243,143.600,61.075C158.346,42.367,188.501,33.094,213.533,33.659C259.617,34.697,277.489,43.705,291.740,60.094C296.226,64.880,311.077,88.054,302.009,94.024C298.712,95.899,292.823,92.311,289.938,90.920C279.938,86.359,227.315,78.730,182.192,84.437M255.094,29.081C242.244,26.200,236.415,22.050,221.422,22.482C190.411,23.694,151.445,28.869,132.610,57.734C126.678,67.053,125.713,77.562,123.213,87.533C121.313,94.966,116.621,100.492,117.040,108.064C117.637,115.306,121.092,117.028,122.845,122.749C124.892,128.834,122.509,131.443,123.679,135.404C125.879,146.761,136.307,147.397,145.874,147.778C150.573,147.966,167.922,147.669,177.370,147.618C188.628,147.557,203.639,147.361,214.897,147.400C224.862,147.434,238.147,147.814,248.112,147.815C257.327,147.815,269.626,147.947,278.827,147.440C288.405,146.912,309.508,145.428,310.648,144.302C312.576,142.431,316.882,123.899,317.106,120.409C317.342,116.721,315.719,112.927,316.180,107.012C316.902,93.944,317.543,82.016,311.568,69.100C300.685,46.102,276.705,34.312,255.094,29.081Z"/>
<path class="path-19" d="M236.474,89.531C253.444,88.851,290.072,94.073,301.760,110.798"/>
<path class="path-19" d="M301.760,110.798C308.223,119.866,290.357,111.860,288.385,111.442"/>
<path class="path-19" d="M288.385,111.442C282.239,108.676,259.200,99.723,268.465,110.265"/>
<path class="path-19" d="M268.465,110.265C273.664,117.499,290.482,122.315,297.488,126.448"/>
<path class="path-19" d="M297.488,126.448C299.647,127.494,302.421,130.100,302.833,132.752"/>
<path class="path-19" d="M302.833,132.752C304.390,139.199,293.290,139.255,289.878,139.648"/>
<path class="path-19" d="M289.878,139.648C283.561,139.741,276.963,139.329,270.929,139.153"/>
<path class="path-19" d="M270.929,139.153C265.116,139.509,259.285,139.398,253.462,139.529"/>
<path class="path-19" d="M253.462,139.529C240.212,138.798,227.028,137.348,213.782,136.596"/>
<path class="path-19" d="M213.782,136.596C200.525,136.365,187.708,135.686,174.047,135.402"/>
<path class="path-19" d="M174.047,135.402C172.341,135.413,143.291,138.490,138.069,136.104"/>
<path class="path-19" d="M138.069,136.104C127.302,131.300,137.465,122.548,136.864,117.380"/>
<path class="path-19" d="M136.864,117.380C136.744,114.331,130.285,113.523,131.870,108.233"/>
<path class="path-19" d="M131.870,108.233C133.328,103.633,149.188,99.488,153.994,98.353"/>
<path class="path-19" d="M153.994,98.353C165.270,95.629,176.989,92.539,189.016,91.110"/>
<path class="path-19" d="M189.016,91.110C204.836,89.319,220.455,90.261,236.474,89.531"/>
<path class="path-20" d="M236.474,89.531C253.444,88.851,290.072,94.073,301.760,110.798C308.223,119.866,290.357,111.860,288.385,111.442C282.239,108.676,259.200,99.723,268.465,110.265C273.664,117.499,290.482,122.315,297.488,126.448C299.647,127.494,302.421,130.100,302.833,132.752C304.390,139.199,293.290,139.255,289.878,139.648C283.561,139.741,276.963,139.329,270.929,139.153C265.116,139.509,259.285,139.398,253.462,139.529C240.212,138.798,227.028,137.348,213.782,136.596C200.525,136.365,187.708,135.686,174.047,135.402C172.341,135.413,143.291,138.490,138.069,136.104C127.302,131.300,137.465,122.548,136.864,117.380C136.744,114.331,130.285,113.523,131.870,108.233C133.328,103.633,149.188,99.488,153.994,98.353C165.270,95.629,176.989,92.539,189.016,91.110C204.836,89.319,220.455,90.261,236.474,89.531Z"/>
<path class="path-9" d="M213.533,33.659C259.617,34.697,277.489,43.705,291.740,60.094"/>
<path class="path-9" d="M291.740,60.094C296.226,64.880,311.077,88.054,302.009,94.024"/>
<path class="path-9" d="M302.009,94.024C298.712,95.899,292.823,92.311,289.938,90.920"/>
<path class="path-9" d="M289.938,90.920C279.938,86.359,227.315,78.730,182.192,84.437"/>
<path class="path-9" d="M182.192,84.437C171.144,85.835,161.003,86.607,150.577,88.862"/>
<path class="path-9" d="M150.577,88.862C146.331,89.769,141.353,91.615,137.296,90.670"/>
<path class="path-9" d="M137.296,90.670C128.439,88.735,139.629,66.243,143.600,61.075"/>
<path class="path-9" d="M143.600,61.075C158.346,42.367,188.501,33.094,213.533,33.659"/>
<path class="path-10" d="M213.533,33.659C259.617,34.697,277.489,43.705,291.740,60.094C296.226,64.880,311.077,88.054,302.009,94.024C298.712,95.899,292.823,92.311,289.938,90.920C279.938,86.359,227.315,78.730,182.192,84.437C171.144,85.835,161.003,86.607,150.577,88.862C146.331,89.769,141.353,91.615,137.296,90.670C128.439,88.735,139.629,66.243,143.600,61.075C158.346,42.367,188.501,33.094,213.533,33.659Z"/>
</g>
<g id="left_ear">
<path class="path-0" d="M285.079,185.526C283.625,180.692,286.861,154.546,289.096,150.784C294.747,140.993,311.860,149.971,315.373,158.078C319.184,167.394,309.668,182.107,301.958,188.577C294.488,194.654,287.567,193.493,285.079,185.526M328.394,161.292C326.928,146.890,309.550,131.942,296.798,138.547C281.331,146.559,287.362,169.307,285.145,183.554C284.663,187.305,282.141,191.202,283.002,194.695C285.265,204.569,295.556,205.746,304.046,198.052C313.616,189.197,329.378,175.111,328.394,161.292Z"/>
<path class="path-15" d="M289.096,150.784C294.747,140.993,311.860,149.971,315.373,158.078"/>
<path class="path-15" d="M315.373,158.078C319.184,167.394,309.668,182.107,301.958,188.577"/>
<path class="path-15" d="M301.958,188.577C294.488,194.654,287.567,193.493,285.079,185.526"/>
<path class="path-15" d="M285.079,185.526C283.625,180.692,286.861,154.546,289.096,150.784"/>
<path class="path-16" d="M289.096,150.784C294.747,140.993,311.860,149.971,315.373,158.078C319.184,167.394,309.668,182.107,301.958,188.577C294.488,194.654,287.567,193.493,285.079,185.526C283.625,180.692,286.861,154.546,289.096,150.784Z"/>
</g>
<g id="earrings">
<path class="path-0" d="M307.073,206.025C298.306,209.825,296.461,191.092,300.016,191.448C304.997,193.181,311.771,201.969,307.073,206.025M316.459,197.760C309.732,197.994,306.727,188.981,306.220,185.131C313.788,186.851,323.283,192.547,316.459,197.760M326.513,193.863C323.969,185.798,311.972,181.101,304.166,177.893C301.319,176.722,293.699,186.867,293.368,190.087C292.330,194.107,294.442,216.103,308.119,213.372C313.787,211.978,328.560,200.355,326.513,193.863Z"/>
<path class="path-21" d="M306.220,185.131C313.788,186.851,323.283,192.547,316.459,197.760"/>
<path class="path-21" d="M316.459,197.760C309.732,197.994,306.727,188.981,306.220,185.131"/>
<path class="path-22" d="M306.220,185.131C313.788,186.851,323.283,192.547,316.459,197.760C309.732,197.994,306.727,188.981,306.220,185.131Z"/>
<path class="path-21" d="M300.016,191.448C304.997,193.181,311.771,201.969,307.073,206.025"/>
<path class="path-21" d="M307.073,206.025C298.306,209.825,296.461,191.092,300.016,191.448"/>
<path class="path-22" d="M300.016,191.448C304.997,193.181,311.771,201.969,307.073,206.025C298.306,209.825,296.461,191.092,300.016,191.448Z"/>
</g>
</g>
<g id="left_arm">
<path class="path-0" d="M291.927,458.784C296.619,452.428,303.577,459.782,312.353,464.707C314.474,465.876,325.539,463.348,327.167,465.181C330.193,468.262,325.616,474.021,321.510,475.113C311.360,477.323,286.221,466.691,291.927,458.784M279.516,276.423C280.393,273.226,288.864,263.064,293.897,264.184C296.819,264.834,298.222,269.839,299.220,272.502C301.881,280.818,304.543,289.469,306.872,298.119C313.194,320.741,315.951,343.746,322.177,365.988C324.557,375.449,328.107,387.253,331.268,395.931C334.412,404.253,338.386,402.992,340.474,408.573C341.548,411.669,341.140,417.224,343.136,421.881C346.130,429.201,351.785,433.194,354.446,437.851C356.111,440.512,356.473,442.570,353.117,444.173C350.967,446.093,345.105,449.220,342.776,450.325C334.862,451.787,326.614,453.678,318.713,452.178C309.867,450.885,286.047,440.748,281.892,434.659C274.454,423.338,284.745,410.777,286.191,399.924C286.829,396.913,292.136,352.988,291.567,350.019C291.026,343.153,287.387,337.131,285.841,330.057C284.214,320.430,282.539,310.147,281.179,300.115C280.223,291.877,276.733,285.067,279.516,276.423M305.541,254.536C303.213,249.877,295.893,241.561,289.904,242.890C284.914,244.222,284.249,250.210,283.582,254.203C281.920,264.184,279.924,272.502,279.924,282.149C279.590,289.136,280.257,295.458,280.921,302.111C281.586,311.427,279.590,329.392,279.924,340.038C279.924,349.686,282.253,359.667,281.586,367.985C279.590,387.613,271.273,406.246,271.938,425.874C271.939,435.855,274.600,435.855,276.929,443.840C278.592,449.828,277.263,456.150,279.590,461.805C285.579,476.776,302.880,490.416,319.847,487.091C335.483,484.096,336.150,467.129,344.466,458.146C351.786,450.161,366.424,454.154,368.420,445.835C370.416,438.849,360.367,431.452,357.110,425.874C351.049,416.189,357.301,414.376,354.862,406.937C353.099,401.443,347.531,395.632,343.964,388.972C341.576,385.233,338.629,378.718,336.563,373.973C332.744,364.200,329.358,352.763,327.194,342.034C324.978,329.754,324.371,318.753,320.845,306.103C318.031,295.497,310.200,262.852,305.541,254.536Z"/>
<path class="path-1" d="M293.897,264.184C296.819,264.834,298.222,269.839,299.220,272.502"/>
<path class="path-1" d="M299.220,272.502C301.881,280.818,304.543,289.469,306.872,298.119"/>
<path class="path-1" d="M306.872,298.119C313.194,320.741,315.951,343.746,322.177,365.988"/>
<path class="path-1" d="M322.177,365.988C324.557,375.449,328.107,387.253,331.268,395.931"/>
<path class="path-1" d="M331.268,395.931C334.412,404.253,338.386,402.992,340.474,408.573"/>
<path class="path-1" d="M340.474,408.573C341.548,411.669,341.140,417.224,343.136,421.881"/>
<path class="path-1" d="M343.136,421.881C346.130,429.201,351.785,433.194,354.446,437.851"/>
<path class="path-1" d="M354.446,437.851C356.111,440.512,356.473,442.570,353.117,444.173"/>
<path class="path-1" d="M353.117,444.173C350.967,446.093,345.105,449.220,342.776,450.325"/>
<path class="path-1" d="M342.776,450.325C334.862,451.787,326.614,453.678,318.713,452.178"/>
<path class="path-1" d="M318.713,452.178C309.867,450.885,286.047,440.748,281.892,434.659"/>
<path class="path-1" d="M281.892,434.659C274.454,423.338,284.745,410.777,286.191,399.924"/>
<path class="path-1" d="M286.191,399.924C286.829,396.913,292.136,352.988,291.567,350.019"/>
<path class="path-1" d="M291.567,350.019C291.026,343.153,287.387,337.131,285.841,330.057"/>
<path class="path-1" d="M285.841,330.057C284.214,320.430,282.539,310.147,281.179,300.115"/>
<path class="path-1" d="M281.179,300.115C280.223,291.877,276.733,285.067,279.516,276.423"/>
<path class="path-1" d="M279.516,276.423C280.393,273.226,288.864,263.064,293.897,264.184"/>
<path class="path-2" d="M293.897,264.184C296.819,264.834,298.222,269.839,299.220,272.502C301.881,280.818,304.543,289.469,306.872,298.119C313.194,320.741,315.951,343.746,322.177,365.988C324.557,375.449,328.107,387.253,331.268,395.931C334.412,404.253,338.386,402.992,340.474,408.573C341.548,411.669,341.140,417.224,343.136,421.881C346.130,429.201,351.785,433.194,354.446,437.851C356.111,440.512,356.473,442.570,353.117,444.173C350.967,446.093,345.105,449.220,342.776,450.325C334.862,451.787,326.614,453.678,318.713,452.178C309.867,450.885,286.047,440.748,281.892,434.659C274.454,423.338,284.745,410.777,286.191,399.924C286.829,396.913,292.136,352.988,291.567,350.019C291.026,343.153,287.387,337.131,285.841,330.057C284.214,320.430,282.539,310.147,281.179,300.115C280.223,291.877,276.733,285.067,279.516,276.423C280.393,273.226,288.864,263.064,293.897,264.184Z"/>
<path class="path-15" d="M312.353,464.707C314.474,465.876,325.539,463.348,327.167,465.181"/>
<path class="path-15" d="M327.167,465.181C330.193,468.262,325.616,474.021,321.510,475.113"/>
<path class="path-15" d="M321.510,475.113C311.360,477.323,286.221,466.691,291.927,458.784"/>
<path class="path-15" d="M291.927,458.784C296.619,452.428,303.577,459.782,312.353,464.707"/>
<path class="path-16" d="M312.353,464.707C314.474,465.876,325.539,463.348,327.167,465.181C330.193,468.262,325.616,474.021,321.510,475.113C311.360,477.323,286.221,466.691,291.927,458.784C296.619,452.428,303.577,459.782,312.353,464.707Z"/>
</g>
<g id="bone">
<g id="bone1_clothes">
<path class="path-23" d="M236.893,386.087C236.894,386.081,250.123,328.595,250.124,328.589C250.124,328.595,247.929,387.543,247.929,387.549C247.928,387.549,236.894,386.087,236.893,386.087"/>
</g>
<g id="bone2_clothes">
<path class="path-23" d="M232.647,327.868C232.647,327.860,230.804,255.357,230.804,255.350C230.806,255.357,246.315,326.206,246.317,326.213C246.316,326.213,232.649,327.867,232.647,327.868"/>
</g>
<g id="bone3_neck">
<path class="path-23" d="M237.751,253.732C237.751,253.728,232.363,212.377,232.362,212.373C232.362,212.377,231.162,254.060,231.162,254.064C231.163,254.064,237.750,253.732,237.751,253.732"/>
</g>
<g id="bone4_head">
<path class="path-23" d="M230.484,213.353C230.483,213.345,223.458,135.598,223.457,135.590C223.459,135.597,242.767,211.235,242.769,211.243C242.768,211.243,230.485,213.353,230.484,213.353"/>
</g>
<g id="bone5_left_arm">
<path class="path-23" d="M298.240,255.775C298.241,255.784,316.898,346.349,316.900,346.358C316.897,346.350,283.120,260.273,283.117,260.264C283.119,260.264,298.238,255.776,298.240,255.775"/>
</g>
<g id="bone6_left_arm">
<path class="path-23" d="M300.893,349.260C300.894,349.266,308.766,412.515,308.766,412.521C308.767,412.515,311.325,348.830,311.326,348.823C311.325,348.823,300.894,349.260,300.893,349.260"/>
</g>
<g id="bone7_right_arm">
<path class="path-23" d="M169.024,270.142C169.022,270.154,155.599,384.870,155.597,384.882C155.601,384.871,186.956,273.709,186.959,273.698C186.957,273.698,169.025,270.142,169.024,270.142"/>
</g>
<g id="bone8_right_arm">
<path class="path-23" d="M157.461,380.429C157.462,380.434,174.433,437.487,174.435,437.492C174.432,437.487,146.347,385.007,146.344,385.002C146.345,385.001,157.460,380.429,157.461,380.429"/>
</g>
<g id="bone9_left_leg">
<path class="path-23" d="M272.121,386.265C272.121,386.275,271.206,487.936,271.206,487.947C271.204,487.936,253.828,387.767,253.827,387.757C253.829,387.757,272.119,386.265,272.121,386.265"/>
</g>
<g id="bone10_right_leg">
<path class="path-23" d="M209.407,385.449C209.407,385.459,209.480,489.215,209.480,489.225C209.482,489.215,224.870,386.607,224.872,386.596C224.870,386.596,209.409,385.449,209.407,385.449"/>
</g>
<g id="bone11_hair">
<path class="path-23" d="M234.452,156.553C234.453,156.561,247.408,235.692,247.410,235.700C247.407,235.692,220.189,160.269,220.186,160.261C220.187,160.261,234.450,156.553,234.452,156.553"/>
</g>
<g id="bone12_left_leg_S">
<path class="path-23" d="M430.462,216.178C430.462,216.185,437.372,288.199,437.372,288.206C437.373,288.199,442.389,216.029,442.390,216.022C442.389,216.022,430.463,216.178,430.462,216.178"/>
</g>
<g id="bone13_right_leg_S">
<path class="path-23" d="M492.431,211.943C492.426,211.948,441.741,263.568,441.736,263.574C441.742,263.569,500.220,220.978,500.225,220.973C500.225,220.973,492.432,211.943,492.431,211.943"/>
</g>
<g id="bone14_left_arm_S">
<path class="path-23" d="M551.983,209.219C551.975,209.219,479.793,214.052,479.786,214.053C479.793,214.054,551.789,221.146,551.796,221.146C551.796,221.145,551.983,209.220,551.983,209.219"/>
</g>
<g id="bone15_jacket_S">
<path class="path-23" d="M599.395,212.376C599.393,212.383,575.265,280.585,575.262,280.591C575.266,280.585,610.272,217.274,610.275,217.268C610.274,217.267,599.396,212.376,599.395,212.376"/>
</g>
<g id="bone16_pupils_S">
<path class="path-23" d="M440.060,341.844C440.065,341.839,492.066,291.544,492.072,291.539C492.066,291.543,432.508,332.611,432.502,332.615C432.503,332.616,440.059,341.843,440.060,341.844"/>
</g>
<g id="bone17_eyelids_S">
<path class="path-23" d="M502.309,337.358C502.308,337.351,496.345,265.253,496.344,265.246C496.344,265.253,490.380,337.351,490.380,337.358C490.381,337.358,502.308,337.358,502.309,337.358"/>
</g>
<g id="bone18_face_S">
<path class="path-23" d="M556.669,342.422C556.673,342.416,594.419,280.699,594.423,280.693C594.418,280.698,547.045,335.375,547.040,335.380C547.041,335.381,556.669,342.421,556.669,342.422"/>
</g>
</g>
<g id="jacket">
<path class="path-0" d="M202.406,270.837C204.584,275.528,199.382,285.441,198.697,290.134C193.808,308.370,186.341,326.280,188.559,344.587C189.461,350.526,195.664,363.494,190.178,367.821C188.313,369.291,182.922,365.653,182.285,367.208C181.044,370.238,175.587,360.545,174.839,359.352C174.141,358.237,170.780,349.766,170.385,347.357C169.923,342.760,169.795,333.707,170.443,327.917C171.152,321.986,171.558,315.693,174.061,309.601C176.360,302.428,180.839,294.495,183.106,286.405C185.692,281.324,189.952,278.376,188.987,274.463C187.728,270.836,185.111,269.147,188.199,267.144C191.953,265.070,201.491,265.984,202.406,270.837M265.967,271.123C267.283,270.060,279.553,265.660,280.877,264.769C293.750,256.967,304.095,267.325,305.412,276.087C305.961,279.447,304.501,291.366,304.048,293.767C302.569,299.686,300.709,303.824,298.993,308.768C291.703,326.878,298.717,315.912,292.881,332.090C291.974,334.605,289.977,339.854,289.355,342.400C288.624,344.770,287.642,350.137,287.080,352.394C284.864,358.820,282.415,366.554,272.529,367.917C271.907,368.082,266.043,370.785,264.983,371.096C260.450,372.162,254.848,372.635,251.209,369.198C247.056,364.827,246.360,357.315,245.360,350.930C243.054,337.641,245.960,324.085,249.062,310.903C251.285,299.266,257.138,279.931,265.967,271.123M277.886,255.283C275.002,257.004,268.674,256.897,266.865,257.240C263.777,257.654,263.164,255.253,262.825,253.092C262.298,248.716,265.354,242.240,268.607,239.053C271.188,236.525,275.784,234.577,279.748,234.482C283.165,234.278,289.062,236.450,288.794,240.337C288.776,243.320,282.652,252.438,277.886,255.283M205.214,244.176C210.072,253.776,214.998,263.545,209.787,261.855C203.379,259.778,199.961,260.321,189.763,255.866C179.267,251.281,176.939,236.082,182.946,231.389C189.016,226.647,199.559,232.999,205.214,244.176M302.205,353.314C302.219,347.239,303.226,343.250,303.103,336.909C302.963,332.100,303.362,326.590,302.752,321.843C301.424,313.259,302.573,309.676,302.084,299.859C301.592,292.527,302.832,286.718,301.784,279.744C301.216,276.820,291.054,264.490,291.211,261.777C290.688,256.240,298.269,252.939,299.680,248.018C300.883,244.279,302.187,240.276,301.734,236.374C301.448,231.501,297.229,228.097,293.721,225.425C288.626,222.000,283.728,222.204,277.487,222.888C267.717,223.972,261.914,232.447,257.868,238.870C252.278,247.743,253.364,262.959,250.418,273.023C248.704,278.875,245.528,286.764,243.491,292.130C235.127,313.158,220.587,369.706,238.500,383.779C240.038,385.157,252.476,388.433,256.371,388.139C266.433,387.429,271.303,387.317,280.758,384.715C287.921,383.040,297.223,370.562,300.888,361.887C301.927,359.638,302.200,355.128,302.205,353.314M209.588,232.680C203.761,226.368,193.468,214.842,185.155,217.743C181.298,219.229,176.303,223.128,173.782,226.653C171.158,230.322,168.621,236.299,168.866,240.861C169.035,246.294,168.853,252.762,170.768,257.363C173.193,263.191,183.121,267.476,184.124,273.619C184.509,276.463,177.018,288.803,175.866,292.167C173.987,298.197,170.299,303.759,168.431,308.935C166.553,314.144,164.680,321.307,163.420,326.699C161.698,334.068,158.628,343.263,158.871,351.510C158.753,356.366,161.484,367.391,165.486,372.722C167.951,376.005,174.018,379.901,176.646,380.643C178.125,381.060,193.051,384.431,197.740,380.179C206.879,371.893,201.142,355.117,197.456,339.061C194.115,324.514,205.091,311.904,209.305,297.407C210.858,292.059,217.497,273.416,217.940,266.907C218.330,261.188,220.256,257.281,218.528,249.396C217.433,245.031,213.446,236.859,209.588,232.680Z"/>
<path class="path-1" d="M280.877,264.769C293.750,256.967,304.095,267.325,305.412,276.087"/>
<path class="path-1" d="M305.412,276.087C305.961,279.447,304.501,291.366,304.048,293.767"/>
<path class="path-1" d="M304.048,293.767C302.569,299.686,300.709,303.824,298.993,308.768"/>
<path class="path-1" d="M298.993,308.768C291.703,326.878,298.717,315.912,292.881,332.090"/>
<path class="path-1" d="M292.881,332.090C291.974,334.605,289.977,339.854,289.355,342.400"/>
<path class="path-1" d="M289.355,342.400C288.624,344.770,287.642,350.137,287.080,352.394"/>
<path class="path-1" d="M287.080,352.394C284.864,358.820,282.415,366.554,272.529,367.917"/>
<path class="path-1" d="M272.529,367.917C271.907,368.082,266.043,370.785,264.983,371.096"/>
<path class="path-1" d="M264.983,371.096C260.450,372.162,254.848,372.635,251.209,369.198"/>
<path class="path-1" d="M251.209,369.198C247.056,364.827,246.360,357.315,245.360,350.930"/>
<path class="path-1" d="M245.360,350.930C243.054,337.641,245.960,324.085,249.062,310.903"/>
<path class="path-1" d="M249.062,310.903C251.285,299.266,257.138,279.931,265.967,271.123"/>
<path class="path-1" d="M265.967,271.123C267.283,270.060,279.553,265.660,280.877,264.769"/>
<path class="path-2" d="M280.877,264.769C293.750,256.967,304.095,267.325,305.412,276.087C305.961,279.447,304.501,291.366,304.048,293.767C302.569,299.686,300.709,303.824,298.993,308.768C291.703,326.878,298.717,315.912,292.881,332.090C291.974,334.605,289.977,339.854,289.355,342.400C288.624,344.770,287.642,350.137,287.080,352.394C284.864,358.820,282.415,366.554,272.529,367.917C271.907,368.082,266.043,370.785,264.983,371.096C260.450,372.162,254.848,372.635,251.209,369.198C247.056,364.827,246.360,357.315,245.360,350.930C243.054,337.641,245.960,324.085,249.062,310.903C251.285,299.266,257.138,279.931,265.967,271.123C267.283,270.060,279.553,265.660,280.877,264.769Z"/>
<path class="path-1" d="M188.199,267.144C191.953,265.070,201.491,265.984,202.406,270.837"/>
<path class="path-1" d="M202.406,270.837C204.584,275.528,199.382,285.441,198.697,290.134"/>
<path class="path-1" d="M198.697,290.134C193.808,308.370,186.341,326.280,188.559,344.587"/>
<path class="path-1" d="M188.559,344.587C189.461,350.526,195.664,363.494,190.178,367.821"/>
<path class="path-1" d="M190.178,367.821C188.313,369.291,182.922,365.653,182.285,367.208"/>
<path class="path-1" d="M182.285,367.208C181.044,370.238,175.587,360.545,174.839,359.352"/>
<path class="path-1" d="M174.839,359.352C174.141,358.237,170.780,349.766,170.385,347.357"/>
<path class="path-1" d="M170.385,347.357C169.923,342.760,169.795,333.707,170.443,327.917"/>
<path class="path-1" d="M170.443,327.917C171.152,321.986,171.558,315.693,174.061,309.601"/>
<path class="path-1" d="M174.061,309.601C176.360,302.428,180.839,294.495,183.106,286.405"/>
<path class="path-1" d="M183.106,286.405C185.692,281.324,189.952,278.376,188.987,274.463"/>
<path class="path-1" d="M188.987,274.463C187.728,270.836,185.111,269.147,188.199,267.144"/>
<path class="path-2" d="M188.199,267.144C191.953,265.070,201.491,265.984,202.406,270.837C204.584,275.528,199.382,285.441,198.697,290.134C193.808,308.370,186.341,326.280,188.559,344.587C189.461,350.526,195.664,363.494,190.178,367.821C188.313,369.291,182.922,365.653,182.285,367.208C181.044,370.238,175.587,360.545,174.839,359.352C174.141,358.237,170.780,349.766,170.385,347.357C169.923,342.760,169.795,333.707,170.443,327.917C171.152,321.986,171.558,315.693,174.061,309.601C176.360,302.428,180.839,294.495,183.106,286.405C185.692,281.324,189.952,278.376,188.987,274.463C187.728,270.836,185.111,269.147,188.199,267.144Z"/>
<path class="path-1" d="M279.748,234.482C283.165,234.278,289.062,236.450,288.794,240.337"/>
<path class="path-1" d="M288.794,240.337C288.776,243.320,282.652,252.438,277.886,255.283"/>
<path class="path-1" d="M277.886,255.283C275.002,257.004,268.674,256.897,266.865,257.240"/>
<path class="path-1" d="M266.865,257.240C263.777,257.654,263.164,255.253,262.825,253.092"/>
<path class="path-1" d="M262.825,253.092C262.298,248.716,265.354,242.240,268.607,239.053"/>
<path class="path-1" d="M268.607,239.053C271.188,236.525,275.784,234.577,279.748,234.482"/>
<path class="path-2" d="M279.748,234.482C283.165,234.278,289.062,236.450,288.794,240.337C288.776,243.320,282.652,252.438,277.886,255.283C275.002,257.004,268.674,256.897,266.865,257.240C263.777,257.654,263.164,255.253,262.825,253.092C262.298,248.716,265.354,242.240,268.607,239.053C271.188,236.525,275.784,234.577,279.748,234.482Z"/>
<path class="path-1" d="M205.214,244.176C210.072,253.776,214.998,263.545,209.787,261.855"/>
<path class="path-1" d="M209.787,261.855C203.379,259.778,199.961,260.321,189.763,255.866"/>
<path class="path-1" d="M189.763,255.866C179.267,251.281,176.939,236.082,182.946,231.389"/>
<path class="path-1" d="M182.946,231.389C189.016,226.647,199.559,232.999,205.214,244.176"/>
<path class="path-2" d="M205.214,244.176C210.072,253.776,214.998,263.545,209.787,261.855C203.379,259.778,199.961,260.321,189.763,255.866C179.267,251.281,176.939,236.082,182.946,231.389C189.016,226.647,199.559,232.999,205.214,244.176Z"/>
</g>
</g>
<style>
.path-0{fill:#000000;fill-rule:evenodd;stroke:none;}
.path-1{fill:none;stroke:#a60d3f;stroke-width:1;stroke-linecap:butt;stroke-linejoin:round;}
.path-2{fill:#a60d3f;fill-rule:evenodd;stroke:none;}
.path-3{fill:none;stroke:#d88e4b;stroke-width:1;stroke-linecap:butt;stroke-linejoin:round;}
.path-4{fill:#d88e4b;fill-rule:evenodd;stroke:none;}
.path-5{fill:none;stroke:#6e2353;stroke-width:1;stroke-linecap:butt;stroke-linejoin:round;}
.path-6{fill:#6e2353;fill-rule:evenodd;stroke:none;}
.path-7{fill:none;stroke:#392966;stroke-width:1;stroke-linecap:butt;stroke-linejoin:round;}
.path-8{fill:#392966;fill-rule:evenodd;stroke:none;}
.path-9{fill:none;stroke:#cc9bc5;stroke-width:1;stroke-linecap:butt;stroke-linejoin:round;}
.path-10{fill:#cc9bc5;fill-rule:evenodd;stroke:none;}
.path-11{fill:none;stroke:#620527;stroke-width:1;stroke-linecap:butt;stroke-linejoin:round;}
.path-12{fill:#620527;fill-rule:evenodd;stroke:none;}
.path-13{fill:none;stroke:#6a3661;stroke-width:1;stroke-linecap:butt;stroke-linejoin:round;}
.path-14{fill:#6a3661;fill-rule:evenodd;stroke:none;}
.path-15{fill:none;stroke:#f8a087;stroke-width:1;stroke-linecap:butt;stroke-linejoin:round;}
.path-16{fill:#f8a087;fill-rule:evenodd;stroke:none;}
.path-17{fill:none;stroke:#ffffff;stroke-width:1;stroke-linecap:butt;stroke-linejoin:round;}
.path-18{fill:#ffffff;fill-rule:evenodd;stroke:none;}
.path-19{fill:none;stroke:#d89f4a;stroke-width:1;stroke-linecap:butt;stroke-linejoin:round;}
.path-20{fill:#d89f4a;fill-rule:evenodd;stroke:none;}
.path-21{fill:none;stroke:#fafd5b;stroke-width:1;stroke-linecap:butt;stroke-linejoin:round;}
.path-22{fill:#fafd5b;fill-rule:evenodd;stroke:none;}
.path-23{fill:none;stroke:#00ff42;stroke-width:8;stroke-linecap:round;stroke-linejoin:round;}
.path-24{fill:none;stroke:#000000;stroke-width:1;stroke-linecap:butt;stroke-linejoin:round;}
.path-25{fill:none;stroke:#ececec;stroke-width:1;stroke-linecap:butt;stroke-linejoin:round;}
.path-26{fill:#ececec;fill-rule:evenodd;stroke:none;}
</style>
</svg>
