<svg version="1.1" id="Frame_218" xmlns="http://www.w3.org/2000/svg" xmlns:xlink="http://www.w3.org/1999/xlink" width="480px" height="720px">
<g id="main_bone">
<g id="right_arm">
<path class="path-0" d="M185.825,270.443C187.465,267.899,190.685,262.644,194.576,261.485C201.127,259.533,206.107,265.764,206.443,270.346C207.339,278.373,200.684,288.573,197.449,296.145C189.526,314.375,181.077,332.377,175.599,350.937C174.895,354.191,169.598,375.285,169.670,372.637C169.160,379.252,175.638,385.059,177.825,390.745C180.619,398.410,177.680,405.567,175.710,412.508C171.183,426.819,171.562,432.117,171.730,446.111C171.860,448.328,172.212,455.549,168.738,455.924C165.324,456.292,164.357,450.142,163.471,447.803C162.912,445.167,160.143,439.650,160.691,437.280C160.815,433.308,165.375,434.269,160.348,426.064C153.929,415.804,142.642,407.128,139.940,393.751C138.184,383.101,143.956,373.910,147.345,364.094C154.558,343.004,162.537,321.941,171.747,301.309C176.751,290.613,179.235,281.226,185.825,270.443M206.433,264.064C207.259,255.561,204.874,247.889,194.063,250.486C176.657,254.602,168.776,280.398,162.766,294.835C154.333,314.333,147.259,334.081,140.660,353.961C137.955,362.478,134.672,366.750,133.214,371.692C131.410,377.282,131.503,385.912,131.708,391.554C131.312,409.206,136.632,410.182,143.772,423.766C147.557,431.796,143.826,436.918,146.525,443.853C148.503,448.625,152.509,451.896,155.639,455.809C158.414,459.737,159.145,462.025,161.242,465.644C163.782,469.968,171.328,479.686,176.999,476.913C181.244,474.818,180.289,466.915,180.230,463.079C179.981,457.321,181.494,435.004,182.530,428.247C184.414,417.044,190.490,405.097,189.061,392.962C187.898,383.683,179.816,376.861,180.437,366.957C180.921,361.682,184.441,353.191,185.729,347.301C187.843,337.890,188.495,327.732,191.330,318.113C196.172,300.996,205.339,282.183,206.433,264.064Z"/>
<path class="path-1" d="M194.576,261.485C201.127,259.533,206.107,265.764,206.443,270.346"/>
<path class="path-1" d="M206.443,270.346C207.339,278.373,200.684,288.573,197.449,296.145"/>
<path class="path-1" d="M197.449,296.145C189.526,314.375,181.077,332.377,175.599,350.937"/>
<path class="path-1" d="M175.599,350.937C174.895,354.191,169.598,375.285,169.670,372.637"/>
<path class="path-1" d="M169.670,372.637C169.160,379.252,175.638,385.059,177.825,390.745"/>
<path class="path-1" d="M177.825,390.745C180.619,398.410,177.680,405.567,175.710,412.508"/>
<path class="path-1" d="M175.710,412.508C171.183,426.819,171.562,432.117,171.730,446.111"/>
<path class="path-1" d="M171.730,446.111C171.860,448.328,172.212,455.549,168.738,455.924"/>
<path class="path-1" d="M168.738,455.924C165.324,456.292,164.357,450.142,163.471,447.803"/>
<path class="path-1" d="M163.471,447.803C162.912,445.167,160.143,439.650,160.691,437.280"/>
<path class="path-1" d="M160.691,437.280C160.815,433.308,165.375,434.269,160.348,426.064"/>
<path class="path-1" d="M160.348,426.064C153.929,415.804,142.642,407.128,139.940,393.751"/>
<path class="path-1" d="M139.940,393.751C138.184,383.101,143.956,373.910,147.345,364.094"/>
<path class="path-1" d="M147.345,364.094C154.558,343.004,162.537,321.941,171.747,301.309"/>
<path class="path-1" d="M171.747,301.309C176.751,290.613,179.235,281.226,185.825,270.443"/>
<path class="path-1" d="M185.825,270.443C187.465,267.899,190.685,262.644,194.576,261.485"/>
<path class="path-2" d="M194.576,261.485C201.127,259.533,206.107,265.764,206.443,270.346C207.339,278.373,200.684,288.573,197.449,296.145C189.526,314.375,181.077,332.377,175.599,350.937C174.895,354.191,169.598,375.285,169.670,372.637C169.160,379.252,175.638,385.059,177.825,390.745C180.619,398.410,177.680,405.567,175.710,412.508C171.183,426.819,171.562,432.117,171.730,446.111C171.860,448.328,172.212,455.549,168.738,455.924C165.324,456.292,164.357,450.142,163.471,447.803C162.912,445.167,160.143,439.650,160.691,437.280C160.815,433.308,165.375,434.269,160.348,426.064C153.929,415.804,142.642,407.128,139.940,393.751C138.184,383.101,143.956,373.910,147.345,364.094C154.558,343.004,162.537,321.941,171.747,301.309C176.751,290.613,179.235,281.226,185.825,270.443C187.465,267.899,190.685,262.644,194.576,261.485Z"/>
</g>
<g id="layer_left_leg">
<g id="left_heel">
<path class="path-0" d="M329.261,627.154C319.049,617.832,326.825,594.798,336.991,589.360C352.433,580.880,372.085,602.813,371.838,609.502C371.151,619.635,355.855,624.638,347.768,627.132C343.296,628.347,332.562,630.297,329.261,627.154M363.505,580.433C351.409,573.692,330.592,581.685,321.953,590.672C303.040,609.569,310.561,652.824,343.483,641.704C354.475,638.054,378.213,628.526,382.611,619.351C386.658,612.127,382.078,603.564,378.134,596.758C374.564,591.346,369.236,583.734,363.505,580.433Z"/>
<path class="path-3" d="M336.991,589.360C352.433,580.880,372.085,602.813,371.838,609.502"/>
<path class="path-3" d="M371.838,609.502C371.151,619.635,355.855,624.638,347.768,627.132"/>
<path class="path-3" d="M347.768,627.132C343.296,628.347,332.562,630.297,329.261,627.154"/>
<path class="path-3" d="M329.261,627.154C319.049,617.832,326.825,594.798,336.991,589.360"/>
<path class="path-4" d="M336.991,589.360C352.433,580.880,372.085,602.813,371.838,609.502C371.151,619.635,355.855,624.638,347.768,627.132C343.296,628.347,332.562,630.297,329.261,627.154C319.049,617.832,326.825,594.798,336.991,589.360Z"/>
</g>
<g id="left_leg">
<path class="path-0" d="M248.996,416.228C249.274,411.196,259.444,412.071,263.107,410.789C268.663,409.150,280.586,403.567,286.167,405.710C296.510,409.288,307.701,437.996,311.202,448.109C320.977,479.116,331.441,507.801,340.890,537.739C342.616,543.683,344.447,549.804,346.051,555.656C347.589,560.489,347.162,567.740,351.368,569.888C353.394,571.414,357.382,567.614,358.399,569.754C361.559,577.601,352.161,575.869,349.539,581.184C344.524,590.609,332.757,601.067,323.146,601.251C316.669,601.596,304.293,597.607,300.203,592.497C296.411,587.757,292.961,581.663,290.296,576.324C277.536,550.752,277.008,492.838,260.621,461.774C251.718,444.898,258.652,440.745,263.051,426.512C263.812,424.050,252.487,429.591,250.295,428.159C247.500,426.635,248.656,419.339,248.996,416.228M290.575,394.811C283.166,391.915,267.121,398.778,260.269,401.285C256.432,402.672,243.307,403.448,240.995,406.142C227.377,422.015,245.404,458.857,252.383,474.824C254.087,479.528,260.318,502.571,261.975,509.096C270.391,535.747,271.188,560.429,280.902,586.637C283.406,593.669,285.189,600.823,289.625,606.679C301.737,622.437,318.694,620.742,339.662,613.326C350.604,609.465,373.746,596.940,375.814,573.113C376.612,563.888,368.267,554.012,366.254,551.597C362.811,547.468,358.396,543.741,355.662,538.652C346.263,522.483,347.246,502.172,340.645,484.543C332.210,461.952,313.907,403.988,290.575,394.811Z"/>
<path class="path-7" d="M263.107,410.789C268.663,409.150,280.586,403.567,286.167,405.710"/>
<path class="path-7" d="M286.167,405.710C296.510,409.288,307.701,437.996,311.202,448.109"/>
<path class="path-7" d="M311.202,448.109C320.977,479.116,331.441,507.801,340.890,537.739"/>
<path class="path-7" d="M340.890,537.739C342.616,543.683,344.447,549.804,346.051,555.656"/>
<path class="path-7" d="M346.051,555.656C347.589,560.489,347.162,567.740,351.368,569.888"/>
<path class="path-7" d="M351.368,569.888C353.394,571.414,357.382,567.614,358.399,569.754"/>
<path class="path-7" d="M358.399,569.754C361.559,577.601,352.161,575.869,349.539,581.184"/>
<path class="path-7" d="M349.539,581.184C344.524,590.609,332.757,601.067,323.146,601.251"/>
<path class="path-7" d="M323.146,601.251C316.669,601.596,304.293,597.607,300.203,592.497"/>
<path class="path-7" d="M300.203,592.497C296.411,587.757,292.961,581.663,290.296,576.324"/>
<path class="path-7" d="M290.296,576.324C277.536,550.752,277.008,492.838,260.621,461.774"/>
<path class="path-7" d="M260.621,461.774C251.718,444.898,258.652,440.745,263.051,426.512"/>
<path class="path-7" d="M263.051,426.512C263.812,424.050,252.487,429.591,250.295,428.159"/>
<path class="path-7" d="M250.295,428.159C247.500,426.635,248.656,419.339,248.996,416.228"/>
<path class="path-7" d="M248.996,416.228C249.274,411.196,259.444,412.071,263.107,410.789"/>
<path class="path-8" d="M263.107,410.789C268.663,409.150,280.586,403.567,286.167,405.710C296.510,409.288,307.701,437.996,311.202,448.109C320.977,479.116,331.441,507.801,340.890,537.739C342.616,543.683,344.447,549.804,346.051,555.656C347.589,560.489,347.162,567.740,351.368,569.888C353.394,571.414,357.382,567.614,358.399,569.754C361.559,577.601,352.161,575.869,349.539,581.184C344.524,590.609,332.757,601.067,323.146,601.251C316.669,601.596,304.293,597.607,300.203,592.497C296.411,587.757,292.961,581.663,290.296,576.324C277.536,550.752,277.008,492.838,260.621,461.774C251.718,444.898,258.652,440.745,263.051,426.512C263.812,424.050,252.487,429.591,250.295,428.159C247.500,426.635,248.656,419.339,248.996,416.228C249.274,411.196,259.444,412.071,263.107,410.789Z"/>
</g>
<g id="left_toe">
<path class="path-0" d="M335.936,659.144C308.833,662.081,303.577,626.483,321.222,613.874C338.958,601.378,360.469,607.959,369.903,618.920C375.226,624.351,378.919,630.776,377.613,638.422C374.019,652.429,348.575,657.686,335.936,659.144M383.186,608.845C376.065,596.563,361.478,587.424,349.742,586.916C320.319,585.769,299.860,600.599,298.585,627.716C297.335,643.366,305.004,658.352,317.680,667.534C327.612,674.272,353.230,668.093,363.681,663.911C372.657,659.559,383.658,653.424,387.638,643.256C390.615,635.970,387.042,615.615,383.186,608.845Z"/>
<path class="path-3" d="M321.222,613.874C338.958,601.378,360.469,607.959,369.903,618.920"/>
<path class="path-3" d="M369.903,618.920C375.226,624.351,378.919,630.776,377.613,638.422"/>
<path class="path-3" d="M377.613,638.422C374.019,652.429,348.575,657.686,335.936,659.144"/>
<path class="path-3" d="M335.936,659.144C308.833,662.081,303.577,626.483,321.222,613.874"/>
<path class="path-4" d="M321.222,613.874C338.958,601.378,360.469,607.959,369.903,618.920C375.226,624.351,378.919,630.776,377.613,638.422C374.019,652.429,348.575,657.686,335.936,659.144C308.833,662.081,303.577,626.483,321.222,613.874Z"/>
</g>
<g id="left_sole">
<path class="path-0" d="M343.679,672.805C333.130,675.727,326.011,662.606,325.859,668.322C325.763,671.929,335.731,672.243,339.999,672.208C349.534,672.493,363.484,666.904,370.642,660.118C373.109,658.137,381.192,652.553,381.321,652.777C383.391,656.379,372.223,660.675,368.676,662.208C365.765,663.840,344.465,672.387,343.679,672.805M326.187,668.205C330.700,664.878,342.236,666.259,346.459,666.361C363.175,666.762,370.473,655.248,377.917,651.712C378.575,651.409,379.749,649.018,381.404,650.477C387.008,655.411,357.402,671.366,342.949,670.902C335.553,671.407,324.407,669.517,326.187,668.205M383.561,641.978C379.782,640.440,365.774,653.372,349.926,658.460C341.867,661.077,318.048,654.589,315.363,665.671C314.790,668.063,317.763,675.263,319.900,676.359C334.150,683.978,383.128,665.262,387.686,658.655C389.181,656.489,389.106,644.236,383.561,641.978Z"/>
<path class="path-5" d="M325.859,668.322C325.763,671.929,335.731,672.243,339.999,672.208"/>
<path class="path-5" d="M339.999,672.208C349.534,672.493,363.484,666.904,370.642,660.118"/>
<path class="path-5" d="M370.642,660.118C373.109,658.137,381.192,652.553,381.321,652.777"/>
<path class="path-5" d="M381.321,652.777C383.391,656.379,372.223,660.675,368.676,662.208"/>
<path class="path-5" d="M368.676,662.208C365.765,663.840,344.465,672.387,343.679,672.805"/>
<path class="path-5" d="M343.679,672.805C333.130,675.727,326.011,662.606,325.859,668.322"/>
<path class="path-6" d="M325.859,668.322C325.763,671.929,335.731,672.243,339.999,672.208C349.534,672.493,363.484,666.904,370.642,660.118C373.109,658.137,381.192,652.553,381.321,652.777C383.391,656.379,372.223,660.675,368.676,662.208C365.765,663.840,344.465,672.387,343.679,672.805C333.130,675.727,326.011,662.606,325.859,668.322Z"/>
<path class="path-5" d="M346.459,666.361C363.175,666.762,370.473,655.248,377.917,651.712"/>
<path class="path-5" d="M377.917,651.712C378.575,651.409,379.749,649.018,381.404,650.477"/>
<path class="path-5" d="M381.404,650.477C387.008,655.411,357.402,671.366,342.949,670.902"/>
<path class="path-5" d="M342.949,670.902C335.553,671.407,324.407,669.517,326.187,668.205"/>
<path class="path-5" d="M326.187,668.205C330.700,664.878,342.236,666.259,346.459,666.361"/>
<path class="path-6" d="M346.459,666.361C363.175,666.762,370.473,655.248,377.917,651.712C378.575,651.409,379.749,649.018,381.404,650.477C387.008,655.411,357.402,671.366,342.949,670.902C335.553,671.407,324.407,669.517,326.187,668.205C330.700,664.878,342.236,666.259,346.459,666.361Z"/>
</g>
</g>
<g id="layer_right_leg">
<g id="right_heel">
<path class="path-0" d="M190.475,623.099C191.090,606.865,192.009,594.240,212.033,591.129C220.938,589.584,237.987,592.175,243.033,600.632C245.688,604.840,244.982,611.072,245.304,615.598C245.892,622.979,250.717,637.163,240.196,639.042C239.520,639.230,220.821,639.824,214.985,640.060C207.587,641.040,199.875,641.714,194.426,636.719C191.584,633.542,190.252,626.937,190.475,623.099M252.543,598.812C248.451,588.572,234.049,582.896,223.978,584.468C210.815,586.361,197.245,582.253,188.856,594.543C182.298,604.150,181.837,621.659,184.035,632.735C184.875,637.833,188.288,647.110,192.636,649.884C195.822,651.822,200.687,651.191,204.415,651.145C222.559,651.209,255.022,656.825,254.215,630.129C253.931,623.192,254.704,604.277,252.543,598.812Z"/>
<path class="path-3" d="M212.033,591.129C220.938,589.584,237.987,592.175,243.033,600.632"/>
<path class="path-3" d="M243.033,600.632C245.688,604.840,244.982,611.072,245.304,615.598"/>
<path class="path-3" d="M245.304,615.598C245.892,622.979,250.717,637.163,240.196,639.042"/>
<path class="path-3" d="M240.196,639.042C239.520,639.230,220.821,639.824,214.985,640.060"/>
<path class="path-3" d="M214.985,640.060C207.587,641.040,199.875,641.714,194.426,636.719"/>
<path class="path-3" d="M194.426,636.719C191.584,633.542,190.252,626.937,190.475,623.099"/>
<path class="path-3" d="M190.475,623.099C191.090,606.865,192.009,594.240,212.033,591.129"/>
<path class="path-4" d="M212.033,591.129C220.938,589.584,237.987,592.175,243.033,600.632C245.688,604.840,244.982,611.072,245.304,615.598C245.892,622.979,250.717,637.163,240.196,639.042C239.520,639.230,220.821,639.824,214.985,640.060C207.587,641.040,199.875,641.714,194.426,636.719C191.584,633.542,190.252,626.937,190.475,623.099C191.090,606.865,192.009,594.240,212.033,591.129Z"/>
</g>
<g id="right_leg">
<path class="path-0" d="M186.637,408.974C190.134,397.187,205.795,394.170,216.387,396.929C222.244,398.330,232.069,401.018,235.322,406.425C236.664,408.656,237.235,412.825,235.888,415.045C233.452,419.057,218.401,416.198,220.978,420.232C225.515,427.586,235.838,418.300,240.126,422.123C242.017,423.809,242.244,427.242,242.663,430.114C247.002,451.845,240.322,475.129,240.563,496.605C240.571,503.563,239.169,513.844,240.484,520.166C243.153,535.608,241.192,538.887,241.665,548.170C241.621,551.645,240.042,569.278,241.271,573.785C242.685,578.593,246.324,583.167,246.816,588.172C247.641,596.559,234.962,607.417,227.298,609.625C218.458,611.985,191.305,610.186,183.030,605.739C179.909,604.177,176.055,600.414,174.809,596.925C173.419,593.612,171.911,578.053,172.992,574.317C175.131,567.857,177.685,566.551,179.788,558.868C181.941,549.791,183.929,539.951,183.458,530.413C182.177,512.102,182.994,482.486,185.089,469.275C186.071,461.900,184.166,437.095,185.150,430.266C186.906,418.826,184.909,416.631,186.637,408.974M211.474,385.391C205.788,383.496,201.365,378.266,195.423,380.347C193.597,381.161,190.421,383.466,189.137,384.792C173.388,398.583,174.834,412.208,175.109,431.526C174.915,438.443,175.113,445.637,174.503,452.259C173.882,457.765,172.014,462.266,170.693,467.309C169.893,471.460,169.236,475.910,169.035,481.134C168.967,486.172,170.330,492.084,170.492,500.640C169.968,510.331,170.744,519.476,170.369,528.745C170.326,535.190,167.269,550.122,166.424,555.032C164.231,561.931,161.211,569.952,159.634,576.605C158.073,585.456,159.329,594.841,162.848,602.636C164.450,606.754,167.382,611.662,170.583,614.353C172.672,616.107,175.470,617.061,177.952,617.860C186.350,620.513,194.282,621.761,203.173,621.898C209.101,622.034,214.927,620.217,221.072,620.741C222.090,620.674,230.315,622.665,231.957,622.799C234.946,622.873,239.127,620.185,241.836,618.586C245.495,616.150,252.080,615.471,254.918,611.979C257.138,609.244,257.495,605.438,258.569,602.093C264.618,582.286,259.358,571.637,256.655,553.740C255.147,543.752,252.464,523.208,252.432,512.029C252.112,498.495,254.472,485.367,255.062,471.425C255.335,467.073,255.658,461.853,256.366,456.932C256.993,451.954,255.918,447.932,255.655,442.996C255.222,439.191,255.320,426.982,254.672,422.900C254.240,419.256,254.205,414.701,252.815,411.110C249.006,401.970,234.870,391.980,225.508,389.148C220.825,387.566,215.831,387.304,211.474,385.391Z"/>
<path class="path-7" d="M216.387,396.929C222.244,398.330,232.069,401.018,235.322,406.425"/>
<path class="path-7" d="M235.322,406.425C236.664,408.656,237.235,412.825,235.888,415.045"/>
<path class="path-7" d="M235.888,415.045C233.452,419.057,218.401,416.198,220.978,420.232"/>
<path class="path-7" d="M220.978,420.232C225.515,427.586,235.838,418.300,240.126,422.123"/>
<path class="path-7" d="M240.126,422.123C242.017,423.809,242.244,427.242,242.663,430.114"/>
<path class="path-7" d="M242.663,430.114C247.002,451.845,240.322,475.129,240.563,496.605"/>
<path class="path-7" d="M240.563,496.605C240.571,503.563,239.169,513.844,240.484,520.166"/>
<path class="path-7" d="M240.484,520.166C243.153,535.608,241.192,538.887,241.665,548.170"/>
<path class="path-7" d="M241.665,548.170C241.621,551.645,240.042,569.278,241.271,573.785"/>
<path class="path-7" d="M241.271,573.785C242.685,578.593,246.324,583.167,246.816,588.172"/>
<path class="path-7" d="M246.816,588.172C247.641,596.559,234.962,607.417,227.298,609.625"/>
<path class="path-7" d="M227.298,609.625C218.458,611.985,191.305,610.186,183.030,605.739"/>
<path class="path-7" d="M183.030,605.739C179.909,604.177,176.055,600.414,174.809,596.925"/>
<path class="path-7" d="M174.809,596.925C173.419,593.612,171.911,578.053,172.992,574.317"/>
<path class="path-7" d="M172.992,574.317C175.131,567.857,177.685,566.551,179.788,558.868"/>
<path class="path-7" d="M179.788,558.868C181.941,549.791,183.929,539.951,183.458,530.413"/>
<path class="path-7" d="M183.458,530.413C182.177,512.102,182.994,482.486,185.089,469.275"/>
<path class="path-7" d="M185.089,469.275C186.071,461.900,184.166,437.095,185.150,430.266"/>
<path class="path-7" d="M185.150,430.266C186.906,418.826,184.909,416.631,186.637,408.974"/>
<path class="path-7" d="M186.637,408.974C190.134,397.187,205.795,394.170,216.387,396.929"/>
<path class="path-8" d="M216.387,396.929C222.244,398.330,232.069,401.018,235.322,406.425C236.664,408.656,237.235,412.825,235.888,415.045C233.452,419.057,218.401,416.198,220.978,420.232C225.515,427.586,235.838,418.300,240.126,422.123C242.017,423.809,242.244,427.242,242.663,430.114C247.002,451.845,240.322,475.129,240.563,496.605C240.571,503.563,239.169,513.844,240.484,520.166C243.153,535.608,241.192,538.887,241.665,548.170C241.621,551.645,240.042,569.278,241.271,573.785C242.685,578.593,246.324,583.167,246.816,588.172C247.641,596.559,234.962,607.417,227.298,609.625C218.458,611.985,191.305,610.186,183.030,605.739C179.909,604.177,176.055,600.414,174.809,596.925C173.419,593.612,171.911,578.053,172.992,574.317C175.131,567.857,177.685,566.551,179.788,558.868C181.941,549.791,183.929,539.951,183.458,530.413C182.177,512.102,182.994,482.486,185.089,469.275C186.071,461.900,184.166,437.095,185.150,430.266C186.906,418.826,184.909,416.631,186.637,408.974C190.134,397.187,205.795,394.170,216.387,396.929Z"/>
</g>
<g id="right_toe">
<path class="path-0" d="M173.210,644.658C174.394,631.312,179.444,614.058,195.858,611.539C199.628,610.762,204.981,612.467,209.191,613.266C230.745,617.300,239.146,621.992,240.152,643.792C240.306,649.792,241.338,657.229,236.865,662.098C232.432,666.836,211.144,664.491,204.659,664.854C193.205,665.742,183.416,671.280,175.326,661.517C170.454,655.512,172.586,651.812,173.210,644.658M248.437,620.790C241.120,606.900,208.043,598.967,193.249,601.854C171.166,606.290,164.341,623.578,163.183,642.153C162.720,648.773,161.943,656.047,165.350,661.874C166.574,663.966,169.143,666.761,170.926,668.428C184.310,682.019,193.982,680.164,211.862,679.839C221.321,679.823,237.053,678.873,244.562,672.546C250.213,667.317,250.679,661.668,250.829,654.458C250.722,647.513,251.391,625.896,248.437,620.790Z"/>
<path class="path-3" d="M195.858,611.539C199.628,610.762,204.981,612.467,209.191,613.266"/>
<path class="path-3" d="M209.191,613.266C230.745,617.300,239.146,621.992,240.152,643.792"/>
<path class="path-3" d="M240.152,643.792C240.306,649.792,241.338,657.229,236.865,662.098"/>
<path class="path-3" d="M236.865,662.098C232.432,666.836,211.144,664.491,204.659,664.854"/>
<path class="path-3" d="M204.659,664.854C193.205,665.742,183.416,671.280,175.326,661.517"/>
<path class="path-3" d="M175.326,661.517C170.454,655.512,172.586,651.812,173.210,644.658"/>
<path class="path-3" d="M173.210,644.658C174.394,631.312,179.444,614.058,195.858,611.539"/>
<path class="path-4" d="M195.858,611.539C199.628,610.762,204.981,612.467,209.191,613.266C230.745,617.300,239.146,621.992,240.152,643.792C240.306,649.792,241.338,657.229,236.865,662.098C232.432,666.836,211.144,664.491,204.659,664.854C193.205,665.742,183.416,671.280,175.326,661.517C170.454,655.512,172.586,651.812,173.210,644.658C174.394,631.312,179.444,614.058,195.858,611.539Z"/>
</g>
<g id="right_sole">
<path class="path-0" d="M192.474,676.735C194.023,677.055,209.498,676.546,211.261,676.522C212.666,676.524,221.107,676.569,222.305,676.480C223.056,676.441,230.545,676.004,231.125,676.447C230.569,676.020,222.578,677.555,222.107,677.576C221.169,677.651,194.786,677.835,194.476,677.947C193.289,677.991,181.995,677.244,181.245,676.270C182.504,675.818,190.673,676.360,192.474,676.735M232.355,670.734C232.414,671.011,230.816,672.759,230.390,672.769C229.547,672.793,216.152,674.441,215.036,674.213C213.771,674.178,204.855,674.832,203.714,674.835C201.477,674.841,183.436,674.647,181.494,673.569C181.246,673.368,180.410,672.100,180.449,671.926C180.512,671.647,187.648,671.652,188.745,671.593C190.467,671.501,204.544,670.989,206.311,670.944C208.226,670.895,223.404,670.869,225.364,670.682C225.670,670.661,232.206,670.056,232.355,670.734M238.024,665.414C226.595,662.368,217.739,666.975,207.347,667.445C199.852,667.817,185.435,666.422,176.325,668.295C174.856,668.597,172.034,668.424,171.607,669.932C171.077,671.818,174.796,675.822,177.147,677.307C180.062,679.147,186.075,679.109,188.466,679.438C200.592,681.550,215.971,680.224,228.381,679.529C237.529,679.022,239.752,675.390,240.627,671.042C240.993,669.225,241.612,666.321,238.024,665.414Z"/>
<path class="path-5" d="M192.474,676.735C194.023,677.055,209.498,676.546,211.261,676.522"/>
<path class="path-5" d="M211.261,676.522C212.666,676.524,221.107,676.569,222.305,676.480"/>
<path class="path-5" d="M222.305,676.480C223.056,676.441,230.545,676.004,231.125,676.447"/>
<path class="path-5" d="M231.125,676.447C230.569,676.020,222.578,677.555,222.107,677.576"/>
<path class="path-5" d="M222.107,677.576C221.169,677.651,194.786,677.835,194.476,677.947"/>
<path class="path-5" d="M194.476,677.947C193.289,677.991,181.995,677.244,181.245,676.270"/>
<path class="path-5" d="M181.245,676.270C182.504,675.818,190.673,676.360,192.474,676.735"/>
<path class="path-6" d="M192.474,676.735C194.023,677.055,209.498,676.546,211.261,676.522C212.666,676.524,221.107,676.569,222.305,676.480C223.056,676.441,230.545,676.004,231.125,676.447C230.569,676.020,222.578,677.555,222.107,677.576C221.169,677.651,194.786,677.835,194.476,677.947C193.289,677.991,181.995,677.244,181.245,676.270C182.504,675.818,190.673,676.360,192.474,676.735Z"/>
<path class="path-5" d="M188.745,671.593C190.467,671.501,204.544,670.989,206.311,670.944"/>
<path class="path-5" d="M206.311,670.944C208.226,670.895,223.404,670.869,225.364,670.682"/>
<path class="path-5" d="M225.364,670.682C225.670,670.661,232.206,670.056,232.355,670.734"/>
<path class="path-5" d="M232.355,670.734C232.414,671.011,230.816,672.759,230.390,672.769"/>
<path class="path-5" d="M230.390,672.769C229.547,672.793,216.152,674.441,215.036,674.213"/>
<path class="path-5" d="M215.036,674.213C213.771,674.178,204.855,674.832,203.714,674.835"/>
<path class="path-5" d="M203.714,674.835C201.477,674.841,183.436,674.647,181.494,673.569"/>
<path class="path-5" d="M181.494,673.569C181.246,673.368,180.410,672.100,180.449,671.926"/>
<path class="path-5" d="M180.449,671.926C180.512,671.647,187.648,671.652,188.745,671.593"/>
<path class="path-6" d="M188.745,671.593C190.467,671.501,204.544,670.989,206.311,670.944C208.226,670.895,223.404,670.869,225.364,670.682C225.670,670.661,232.206,670.056,232.355,670.734C232.414,671.011,230.816,672.759,230.390,672.769C229.547,672.793,216.152,674.441,215.036,674.213C213.771,674.178,204.855,674.832,203.714,674.835C201.477,674.841,183.436,674.647,181.494,673.569C181.246,673.368,180.410,672.100,180.449,671.926C180.512,671.647,187.648,671.652,188.745,671.593Z"/>
</g>
</g>
<g id="hat_brim">
<path class="path-0" d="M312.718,147.965C316.919,142.343,327.380,126.947,335.330,127.690C340.631,128.186,350.664,138.815,356.015,142.322C360.706,145.768,365.759,148.913,371.142,152.089C374.185,154.050,377.232,156.006,380.283,157.956C393.847,166.576,389.283,172.499,381.124,170.399C362.885,165.351,359.780,166.398,342.759,155.451C340.533,154.240,334.880,150.371,333.484,154.583C331.696,159.429,340.237,164.572,343.725,166.568C350.009,170.832,356.925,175.489,364.813,176.893C367.102,177.442,375.114,177.521,376.221,179.964C377.899,183.463,367.488,191.177,365.315,192.979C361.723,195.651,358.133,198.322,354.603,200.332C349.325,203.179,343.745,205.664,338.022,206.132C327.299,206.467,295.597,188.132,295.687,176.446C295.645,169.760,308.155,153.888,312.718,147.965M347.658,124.500C343.091,119.728,340.036,113.093,332.438,115.725C326.921,117.549,320.578,124.641,316.564,128.276C301.433,143.568,287.351,161.968,286.000,183.560C285.063,197.172,289.730,197.275,300.166,203.596C315.954,213.426,336.907,218.057,355.569,211.449C367.658,207.232,389.537,191.234,395.952,179.804C397.979,175.984,401.796,167.319,399.910,162.465C397.787,156.585,376.491,144.904,370.207,140.642C362.660,135.592,354.088,130.781,347.658,124.500Z"/>
<path class="path-9" d="M335.330,127.690C340.631,128.186,350.664,138.815,356.015,142.322"/>
<path class="path-9" d="M356.015,142.322C360.706,145.768,365.759,148.913,371.142,152.089"/>
<path class="path-9" d="M371.142,152.089C374.185,154.050,377.232,156.006,380.283,157.956"/>
<path class="path-9" d="M380.283,157.956C393.847,166.576,389.283,172.499,381.124,170.399"/>
<path class="path-9" d="M381.124,170.399C362.885,165.351,359.780,166.398,342.759,155.451"/>
<path class="path-9" d="M342.759,155.451C340.533,154.240,334.880,150.371,333.484,154.583"/>
<path class="path-9" d="M333.484,154.583C331.696,159.429,340.237,164.572,343.725,166.568"/>
<path class="path-9" d="M343.725,166.568C350.009,170.832,356.925,175.489,364.813,176.893"/>
<path class="path-9" d="M364.813,176.893C367.102,177.442,375.114,177.521,376.221,179.964"/>
<path class="path-9" d="M376.221,179.964C377.899,183.463,367.488,191.177,365.315,192.979"/>
<path class="path-9" d="M365.315,192.979C361.723,195.651,358.133,198.322,354.603,200.332"/>
<path class="path-9" d="M354.603,200.332C349.325,203.179,343.745,205.664,338.022,206.132"/>
<path class="path-9" d="M338.022,206.132C327.299,206.467,295.597,188.132,295.687,176.446"/>
<path class="path-9" d="M295.687,176.446C295.645,169.760,308.155,153.888,312.718,147.965"/>
<path class="path-9" d="M312.718,147.965C316.919,142.343,327.380,126.947,335.330,127.690"/>
<path class="path-10" d="M335.330,127.690C340.631,128.186,350.664,138.815,356.015,142.322C360.706,145.768,365.759,148.913,371.142,152.089C374.185,154.050,377.232,156.006,380.283,157.956C393.847,166.576,389.283,172.499,381.124,170.399C362.885,165.351,359.780,166.398,342.759,155.451C340.533,154.240,334.880,150.371,333.484,154.583C331.696,159.429,340.237,164.572,343.725,166.568C350.009,170.832,356.925,175.489,364.813,176.893C367.102,177.442,375.114,177.521,376.221,179.964C377.899,183.463,367.488,191.177,365.315,192.979C361.723,195.651,358.133,198.322,354.603,200.332C349.325,203.179,343.745,205.664,338.022,206.132C327.299,206.467,295.597,188.132,295.687,176.446C295.645,169.760,308.155,153.888,312.718,147.965C316.919,142.343,327.380,126.947,335.330,127.690Z"/>
</g>
<g id="hair">
<path class="path-0" d="M203.385,144.104C219.891,130.878,239.685,128.197,260.634,125.672C270.025,124.522,277.000,130.412,284.711,136.117C291.069,141.150,297.927,146.846,304.675,152.123C314.828,160.005,319.139,164.023,323.000,167.884C326.274,170.821,331.439,176.379,335.432,178.901C340.249,181.942,350.742,198.280,352.927,200.046C346.491,202.805,336.232,205.281,331.767,209.493C333.879,215.169,334.941,224.142,335.166,226.842C329.013,227.764,321.596,225.538,310.009,224.371C308.257,231.718,308.806,238.425,304.700,246.068C296.832,244.342,291.332,242.883,281.041,239.248C274.902,244.955,273.335,244.671,263.194,252.024C255.776,248.265,249.772,244.104,242.651,241.819C236.129,245.240,225.507,247.109,222.110,250.317C217.755,243.604,213.648,236.136,210.135,233.033C200.728,235.756,196.837,238.702,190.279,241.696C185.635,236.535,188.276,231.764,182.966,224.058C178.558,223.236,171.683,221.158,166.131,221.490C169.604,216.711,171.260,201.787,177.591,199.410C185.402,196.478,179.625,187.773,183.890,179.211C184.938,176.988,195.382,159.778,196.223,157.034C197.853,152.288,199.649,147.246,203.385,144.104M288.308,123.168C275.363,114.741,250.342,111.589,236.762,115.911C224.286,119.726,212.156,124.707,201.691,132.731C195.827,137.165,189.455,143.520,185.831,149.929C178.566,162.394,168.767,189.187,163.042,201.687C158.491,212.039,154.036,219.138,149.329,224.930C167.393,229.969,172.727,232.219,178.020,232.614C178.947,240.320,186.526,245.506,185.954,254.134C194.635,252.151,199.691,249.522,207.348,246.969C211.675,251.301,214.904,257.395,219.173,263.283C226.704,260.598,234.594,260.280,241.789,254.251C247.533,256.830,256.649,260.819,266.026,265.063C273.960,260.017,275.713,259.628,283.090,253.990C292.720,255.590,303.100,260.677,312.542,258.929C311.240,250.819,316.846,244.747,315.737,239.566C322.769,237.090,345.012,238.584,348.744,237.974C348.052,231.962,343.843,220.678,344.852,213.374C351.501,211.045,357.114,208.959,367.326,203.055C363.346,196.648,356.492,188.840,350.661,184.321C345.743,180.547,341.576,175.366,336.640,171.419C319.922,158.270,312.260,138.841,288.308,123.168Z"/>
<path class="path-11" d="M260.634,125.672C270.025,124.522,277.000,130.412,284.711,136.117"/>
<path class="path-11" d="M284.711,136.117C291.069,141.150,297.927,146.846,304.675,152.123"/>
<path class="path-11" d="M304.675,152.123C314.828,160.005,319.139,164.023,323.000,167.884"/>
<path class="path-11" d="M323.000,167.884C326.274,170.821,331.439,176.379,335.432,178.901"/>
<path class="path-11" d="M335.432,178.901C340.249,181.942,350.742,198.280,352.927,200.046"/>
<path class="path-11" d="M352.927,200.046C346.491,202.805,336.232,205.281,331.767,209.493"/>
<path class="path-11" d="M331.767,209.493C333.879,215.169,334.941,224.142,335.166,226.842"/>
<path class="path-11" d="M335.166,226.842C329.013,227.764,321.596,225.538,310.009,224.371"/>
<path class="path-11" d="M310.009,224.371C308.257,231.718,308.806,238.425,304.700,246.068"/>
<path class="path-11" d="M304.700,246.068C296.832,244.342,291.332,242.883,281.041,239.248"/>
<path class="path-11" d="M281.041,239.248C274.902,244.955,273.335,244.671,263.194,252.024"/>
<path class="path-11" d="M263.194,252.024C255.776,248.265,249.772,244.104,242.651,241.819"/>
<path class="path-11" d="M242.651,241.819C236.129,245.240,225.507,247.109,222.110,250.317"/>
<path class="path-11" d="M222.110,250.317C217.755,243.604,213.648,236.136,210.135,233.033"/>
<path class="path-11" d="M210.135,233.033C200.728,235.756,196.837,238.702,190.279,241.696"/>
<path class="path-11" d="M190.279,241.696C185.635,236.535,188.276,231.764,182.966,224.058"/>
<path class="path-11" d="M182.966,224.058C178.558,223.236,171.683,221.158,166.131,221.490"/>
<path class="path-11" d="M166.131,221.490C169.604,216.711,171.260,201.787,177.591,199.410"/>
<path class="path-11" d="M177.591,199.410C185.402,196.478,179.625,187.773,183.890,179.211"/>
<path class="path-11" d="M183.890,179.211C184.938,176.988,195.382,159.778,196.223,157.034"/>
<path class="path-11" d="M196.223,157.034C197.853,152.288,199.649,147.246,203.385,144.104"/>
<path class="path-11" d="M203.385,144.104C219.891,130.878,239.685,128.197,260.634,125.672"/>
<path class="path-12" d="M260.634,125.672C270.025,124.522,277.000,130.412,284.711,136.117C291.069,141.150,297.927,146.846,304.675,152.123C314.828,160.005,319.139,164.023,323.000,167.884C326.274,170.821,331.439,176.379,335.432,178.901C340.249,181.942,350.742,198.280,352.927,200.046C346.491,202.805,336.232,205.281,331.767,209.493C333.879,215.169,334.941,224.142,335.166,226.842C329.013,227.764,321.596,225.538,310.009,224.371C308.257,231.718,308.806,238.425,304.700,246.068C296.832,244.342,291.332,242.883,281.041,239.248C274.902,244.955,273.335,244.671,263.194,252.024C255.776,248.265,249.772,244.104,242.651,241.819C236.129,245.240,225.507,247.109,222.110,250.317C217.755,243.604,213.648,236.136,210.135,233.033C200.728,235.756,196.837,238.702,190.279,241.696C185.635,236.535,188.276,231.764,182.966,224.058C178.558,223.236,171.683,221.158,166.131,221.490C169.604,216.711,171.260,201.787,177.591,199.410C185.402,196.478,179.625,187.773,183.890,179.211C184.938,176.988,195.382,159.778,196.223,157.034C197.853,152.288,199.649,147.246,203.385,144.104C219.891,130.878,239.685,128.197,260.634,125.672Z"/>
</g>
<g id="clothes">
<path class="path-0" d="M251.522,369.589C245.993,367.594,225.628,370.940,222.076,375.898C220.059,378.900,222.972,380.686,226.117,380.840C230.305,381.045,252.098,378.337,254.972,376.539C259.255,373.788,253.679,370.262,251.522,369.589M205.650,267.051C209.499,254.693,237.244,243.754,250.068,245.669C259.023,246.980,286.365,263.022,289.759,271.649C292.604,278.551,291.812,303.271,291.511,311.622C290.679,326.909,290.646,342.275,290.209,357.579C290.452,370.146,300.038,385.098,292.561,395.202C289.184,398.695,277.351,395.322,272.030,395.837C267.086,396.554,258.089,401.222,253.500,401.544C231.959,403.645,234.644,408.676,214.349,409.041C210.017,408.954,196.222,406.107,193.607,403.957C187.395,397.524,191.320,388.157,193.304,379.777C197.240,365.724,198.417,355.803,200.491,340.464C202.539,324.529,205.816,307.565,207.015,291.002C207.114,285.043,204.739,270.633,205.650,267.051M285.488,254.222C269.861,243.403,254.429,234.295,234.388,238.582C228.995,239.534,201.585,250.583,199.046,253.742C195.081,258.764,197.481,279.067,196.979,286.300C196.714,294.911,196.343,303.853,195.049,312.057C194.236,318.329,192.460,323.856,191.992,329.820C191.140,336.420,190.597,343.570,189.102,349.597C184.456,367.769,171.476,403.930,193.100,416.803C197.572,419.487,204.033,419.642,209.541,419.757C219.372,419.773,229.986,419.506,239.731,417.354C252.102,414.979,263.221,407.108,275.947,406.316C281.734,405.956,298.816,414.474,303.750,410.844C305.939,409.307,309.172,397.980,309.236,394.958C308.852,380.431,301.201,366.803,299.975,352.324C299.297,340.359,299.539,328.593,301.137,316.366C302.233,306.398,304.620,296.860,305.349,286.528C305.321,282.154,306.334,276.849,304.294,272.335C300.850,264.052,292.517,259.078,285.488,254.222Z"/>
<path class="path-13" d="M251.522,369.589C245.993,367.594,225.628,370.940,222.076,375.898"/>
<path class="path-13" d="M222.076,375.898C220.059,378.900,222.972,380.686,226.117,380.840"/>
<path class="path-13" d="M226.117,380.840C230.305,381.045,252.098,378.337,254.972,376.539"/>
<path class="path-13" d="M254.972,376.539C259.255,373.788,253.679,370.262,251.522,369.589"/>
<path class="path-13" d="M205.650,267.051C209.499,254.693,237.244,243.754,250.068,245.669"/>
<path class="path-13" d="M250.068,245.669C259.023,246.980,286.365,263.022,289.759,271.649"/>
<path class="path-13" d="M289.759,271.649C292.604,278.551,291.812,303.271,291.511,311.622"/>
<path class="path-13" d="M291.511,311.622C290.679,326.909,290.646,342.275,290.209,357.579"/>
<path class="path-13" d="M290.209,357.579C290.452,370.146,300.038,385.098,292.561,395.202"/>
<path class="path-13" d="M292.561,395.202C289.184,398.695,277.351,395.322,272.030,395.837"/>
<path class="path-13" d="M272.030,395.837C267.086,396.554,258.089,401.222,253.500,401.544"/>
<path class="path-13" d="M253.500,401.544C231.959,403.645,234.644,408.676,214.349,409.041"/>
<path class="path-13" d="M214.349,409.041C210.017,408.954,196.222,406.107,193.607,403.957"/>
<path class="path-13" d="M193.607,403.957C187.395,397.524,191.320,388.157,193.304,379.777"/>
<path class="path-13" d="M193.304,379.777C197.240,365.724,198.417,355.803,200.491,340.464"/>
<path class="path-13" d="M200.491,340.464C202.539,324.529,205.816,307.565,207.015,291.002"/>
<path class="path-13" d="M207.015,291.002C207.114,285.043,204.739,270.633,205.650,267.051"/>
<path class="path-14" d="M251.522,369.589C245.993,367.594,225.628,370.940,222.076,375.898C220.059,378.900,222.972,380.686,226.117,380.840C230.305,381.045,252.098,378.337,254.972,376.539C259.255,373.788,253.679,370.262,251.522,369.589M205.650,267.051C209.499,254.693,237.244,243.754,250.068,245.669C259.023,246.980,286.365,263.022,289.759,271.649C292.604,278.551,291.812,303.271,291.511,311.622C290.679,326.909,290.646,342.275,290.209,357.579C290.452,370.146,300.038,385.098,292.561,395.202C289.184,398.695,277.351,395.322,272.030,395.837C267.086,396.554,258.089,401.222,253.500,401.544C231.959,403.645,234.644,408.676,214.349,409.041C210.017,408.954,196.222,406.107,193.607,403.957C187.395,397.524,191.320,388.157,193.304,379.777C197.240,365.724,198.417,355.803,200.491,340.464C202.539,324.529,205.816,307.565,207.015,291.002C207.114,285.043,204.739,270.633,205.650,267.051Z"/>
</g>
<g id="neck">
<path class="path-0" d="M245.114,226.399C245.665,223.100,246.857,220.178,250.530,220.085C262.279,218.855,258.823,256.305,248.200,255.608C238.241,254.955,244.037,232.662,245.114,226.399M251.139,210.791C248.506,210.284,245.475,210.751,243.063,211.927C233.462,215.965,234.224,224.684,233.658,233.315C233.042,237.610,233.114,241.616,230.883,245.136C229.006,248.348,224.139,251.362,223.899,255.015C223.579,264.996,250.470,266.760,257.463,266.884C260.118,267.058,269.016,268.642,270.252,265.056C270.317,264.060,264.440,252.004,263.749,247.292C261.676,233.152,272.322,213.180,251.139,210.791Z"/>
<path class="path-15" d="M250.530,220.085C262.279,218.855,258.823,256.305,248.200,255.608"/>
<path class="path-15" d="M248.200,255.608C238.241,254.955,244.037,232.662,245.114,226.399"/>
<path class="path-15" d="M245.114,226.399C245.665,223.100,246.857,220.178,250.530,220.085"/>
<path class="path-16" d="M250.530,220.085C262.279,218.855,258.823,256.305,248.200,255.608C238.241,254.955,244.037,232.662,245.114,226.399C245.665,223.100,246.857,220.178,250.530,220.085Z"/>
</g>
<g id="layer_head">
<g id="right_ear">
<path class="path-0" d="M167.858,188.724C160.933,188.854,149.979,156.357,158.704,159.262C164.274,161.096,166.276,171.443,167.420,175.762C168.494,179.328,173.548,188.661,167.858,188.724M164.485,147.016C162.005,145.228,158.917,143.623,156.084,144.774C146.929,146.886,146.384,159.547,147.653,168.905C149.389,180.734,156.381,196.808,166.540,201.310C168.894,202.368,173.639,205.184,176.255,204.418C182.761,202.067,178.757,191.790,177.546,186.498C176.065,179.314,169.412,152.035,164.485,147.016Z"/>
<path class="path-15" d="M158.704,159.262C164.274,161.096,166.276,171.443,167.420,175.762"/>
<path class="path-15" d="M167.420,175.762C168.494,179.328,173.548,188.661,167.858,188.724"/>
<path class="path-15" d="M167.858,188.724C160.933,188.854,149.979,156.357,158.704,159.262"/>
<path class="path-16" d="M158.704,159.262C164.274,161.096,166.276,171.443,167.420,175.762C168.494,179.328,173.548,188.661,167.858,188.724C160.933,188.854,149.979,156.357,158.704,159.262Z"/>
</g>
<g id="face_Mask">
<g id="face">
<path class="path-0" d="M178.989,102.612C188.411,92.998,221.706,88.894,235.472,88.176C250.896,87.613,266.248,91.388,280.721,97.418C285.867,99.571,293.559,102.012,297.595,106.347C303.973,113.249,305.528,124.846,306.612,133.810C307.486,139.751,309.227,147.474,307.764,152.957C300.221,181.227,292.010,193.853,285.572,201.377C275.863,212.724,259.714,215.968,245.347,219.550C226.438,223.978,210.969,223.679,198.440,219.967C190.776,217.701,174.701,210.327,170.122,204.198C164.085,195.795,166.625,185.442,165.651,175.580C164.470,166.503,161.730,152.892,161.373,143.930C161.102,132.703,171.241,110.446,178.989,102.612M302.310,99.079C290.036,85.509,254.040,79.470,236.237,80.461C227.861,80.672,219.849,80.585,212.043,81.855C206.253,82.983,201.032,85.165,195.574,86.325C183.575,89.547,178.918,87.666,170.121,97.655C163.820,104.634,153.065,133.401,152.420,142.622C152.041,149.874,155.004,167.231,155.300,175.680C155.569,184.902,153.810,197.709,157.475,205.820C160.588,212.450,166.001,216.983,174.780,222.299C184.703,228.307,196.122,233.856,207.890,235.915C215.726,237.595,228.593,235.786,248.255,229.644C263.618,224.634,279.654,219.425,291.167,206.582C302.330,194.132,316.209,177.557,321.602,152.724C325.989,132.521,309.379,106.725,302.310,99.079Z"/>
<path class="path-15" d="M235.472,88.176C250.896,87.613,266.248,91.388,280.721,97.418"/>
<path class="path-15" d="M280.721,97.418C285.867,99.571,293.559,102.012,297.595,106.347"/>
<path class="path-15" d="M297.595,106.347C303.973,113.249,305.528,124.846,306.612,133.810"/>
<path class="path-15" d="M306.612,133.810C307.486,139.751,309.227,147.474,307.764,152.957"/>
<path class="path-15" d="M307.764,152.957C300.221,181.227,292.010,193.853,285.572,201.377"/>
<path class="path-15" d="M285.572,201.377C275.863,212.724,259.714,215.968,245.347,219.550"/>
<path class="path-15" d="M245.347,219.550C226.438,223.978,210.969,223.679,198.440,219.967"/>
<path class="path-15" d="M198.440,219.967C190.776,217.701,174.701,210.327,170.122,204.198"/>
<path class="path-15" d="M170.122,204.198C164.085,195.795,166.625,185.442,165.651,175.580"/>
<path class="path-15" d="M165.651,175.580C164.470,166.503,161.730,152.892,161.373,143.930"/>
<path class="path-15" d="M161.373,143.930C161.102,132.703,171.241,110.446,178.989,102.612"/>
<path class="path-15" d="M178.989,102.612C188.411,92.998,221.706,88.894,235.472,88.176"/>
<path class="path-16" d="M235.472,88.176C250.896,87.613,266.248,91.388,280.721,97.418C285.867,99.571,293.559,102.012,297.595,106.347C303.973,113.249,305.528,124.846,306.612,133.810C307.486,139.751,309.227,147.474,307.764,152.957C300.221,181.227,292.010,193.853,285.572,201.377C275.863,212.724,259.714,215.968,245.347,219.550C226.438,223.978,210.969,223.679,198.440,219.967C190.776,217.701,174.701,210.327,170.122,204.198C164.085,195.795,166.625,185.442,165.651,175.580C164.470,166.503,161.730,152.892,161.373,143.930C161.102,132.703,171.241,110.446,178.989,102.612C188.411,92.998,221.706,88.894,235.472,88.176Z"/>
</g>
</g>
<mask id="mask_target" style="mask-type:alpha;">
<use xlink:href="#face_Mask"/>
</mask>
<g id="mouse">
<path class="path-0" d="M210.514,214.639C215.593,216.223,215.234,220.963,214.715,221.424C214.422,221.684,213.393,220.632,210.491,219.872C204.995,218.432,202.192,219.348,202.062,218.619C201.919,217.819,204.568,212.786,210.514,214.639Z"/>
</g>
<g id="layer_eyes_Mtarget" mask="url(#mask_target)">
<g id="eyes">
<mask style="mask-type:alpha;" id="f3906406-f197-4bf1-91d8-744c09cca836">
<use xlink:href="#cmn_f3906406-f197-4bf1-91d8-744c09cca836"/>
</mask>
<g id="cmn_f3906406-f197-4bf1-91d8-744c09cca836">
<path class="path-0" d="M170.670,188.971C171.019,188.278,167.668,184.491,168.478,184.790C167.889,184.587,160.369,184.634,159.502,186.595C159.188,187.307,161.477,190.491,160.552,190.093C159.592,189.681,170.363,189.579,170.670,188.971M177.391,192.205C177.454,191.628,177.704,185.655,175.601,184.660C174.462,184.121,172.692,185.300,171.619,185.995C168.393,187.986,148.202,182.957,150.262,178.323C150.902,176.868,157.902,176.322,159.340,177.127C168.164,182.114,145.783,196.903,157.872,204.220C158.424,204.554,168.455,189.133,166.551,191.252C165.252,192.699,177.204,193.913,177.391,192.205M211.353,193.910C209.054,193.835,206.867,194.873,203.855,192.931C201.367,191.327,222.240,192.967,224.127,192.867C225.340,192.804,237.777,192.803,238.428,192.393C238.561,192.309,240.783,192.300,240.970,192.258C240.558,192.351,215.346,194.042,211.353,193.910M248.060,195.320C248.429,195.034,249.441,188.866,249.026,188.416C245.943,185.070,233.198,187.300,226.406,186.979C221.448,186.746,212.990,187.400,209.870,186.454C206.009,185.433,203.052,184.094,200.699,185.547C198.882,186.669,197.435,190.011,197.904,192.095C198.334,194.008,200.586,195.593,202.744,196.488C207.451,198.438,228.615,197.500,232.217,197.561C232.708,197.567,245.790,197.081,248.060,195.320Z"/>
<path class="path-24" d="M238.428,192.393C238.561,192.309,240.783,192.300,240.970,192.258"/>
<path class="path-24" d="M240.970,192.258C240.558,192.351,215.346,194.042,211.353,193.910"/>
<path class="path-24" d="M211.353,193.910C209.054,193.835,206.867,194.873,203.855,192.931"/>
<path class="path-24" d="M203.855,192.931C201.367,191.327,222.240,192.967,224.127,192.867"/>
<path class="path-24" d="M224.127,192.867C225.340,192.804,237.777,192.803,238.428,192.393"/>
<path class="path-0" d="M238.428,192.393C238.561,192.309,240.783,192.300,240.970,192.258C240.558,192.351,215.346,194.042,211.353,193.910C209.054,193.835,206.867,194.873,203.855,192.931C201.367,191.327,222.240,192.967,224.127,192.867C225.340,192.804,237.777,192.803,238.428,192.393Z"/>
<path class="path-24" d="M160.552,190.093C159.592,189.681,170.363,189.579,170.670,188.971"/>
<path class="path-24" d="M170.670,188.971C171.019,188.278,167.668,184.491,168.478,184.790"/>
<path class="path-24" d="M168.478,184.790C167.889,184.587,160.369,184.634,159.502,186.595"/>
<path class="path-24" d="M159.502,186.595C159.188,187.307,161.477,190.491,160.552,190.093"/>
<path class="path-0" d="M160.552,190.093C159.592,189.681,170.363,189.579,170.670,188.971C171.019,188.278,167.668,184.491,168.478,184.790C167.889,184.587,160.369,184.634,159.502,186.595C159.188,187.307,161.477,190.491,160.552,190.093Z"/>
</g>
</g>
<g id="pupil">
<path class="path-0" d="M205.118,175.128C207.514,174.786,210.080,178.556,209.985,187.286C209.921,193.156,208.413,195.408,206.788,195.490C204.878,195.587,203.479,192.797,202.832,185.930C202.142,178.602,203.098,175.418,205.118,175.128Z" mask="url(#f3906406-f197-4bf1-91d8-744c09cca836)"/>
<path class="path-0" d="M169.452,172.447C171.868,172.140,174.196,176.161,174.114,185.233C174.067,190.302,173.015,192.264,171.664,192.431C170.083,192.627,168.426,190.471,167.374,184.627C165.914,176.520,167.259,172.726,169.452,172.447Z" mask="url(#f3906406-f197-4bf1-91d8-744c09cca836)"/>
</g>
</g>
<g id="hat">
<path class="path-0" d="M313.020,141.579C315.158,142.669,317.520,145.661,317.787,148.331C319.043,155.125,307.733,155.130,304.157,155.257C298.312,154.881,292.305,153.502,286.810,152.442C279.978,151.756,273.297,149.994,266.497,149.039C246.610,144.646,226.709,140.442,206.738,136.470C195.533,134.696,185.314,132.213,173.257,130.465C171.772,130.262,156.423,130.197,153.541,128.911C140.164,123.086,153.194,112.132,152.808,105.704C152.844,103.506,148.553,102.576,149.834,98.809C150.779,96.170,159.388,92.698,162.183,92.052C172.123,89.701,182.864,88.780,193.544,89.216C205.774,89.736,216.803,92.327,228.896,94.322C252.150,98.199,293.768,107.375,318.659,126.368C327.029,132.718,307.922,126.928,306.029,126.739C292.161,124.451,237.404,103.536,265.689,120.133C277.495,127.531,301.839,135.199,313.020,141.579M205.953,80.379C194.123,78.858,183.318,77.338,172.026,78.523C167.832,78.952,162.625,79.517,159.072,79.798C151.638,80.416,165.483,60.825,169.366,57.126C186.610,41.098,216.217,32.880,240.691,36.537C288.089,43.618,304.965,57.461,316.431,76.914C320.161,82.735,330.205,109.066,319.935,114.115C316.542,115.516,311.091,111.959,308.509,110.243C299.324,104.417,232.201,83.754,205.953,80.379M303.422,46.318C287.273,37.076,270.978,28.308,246.614,26.519C216.279,24.385,181.106,29.313,159.520,54.231C152.866,62.089,149.850,71.230,145.703,79.868C143.015,85.401,138.212,88.882,137.371,94.905C136.526,102.442,140.602,104.754,140.971,110.989C141.573,117.936,137.449,119.843,137.531,124.328C136.590,136.452,147.701,140.027,157.572,141.987C161.981,142.863,178.557,143.933,187.536,144.907C197.819,146.021,211.530,147.546,221.771,149.005C232.820,150.579,247.439,153.405,258.472,155.087C268.747,156.654,282.425,159.032,292.785,159.874C301.359,160.570,320.285,161.451,321.450,160.609C323.220,159.353,329.572,145.396,330.271,142.658C331.319,138.557,329.864,133.898,331.808,127.353C334.735,116.606,337.800,107.279,336.302,95.319C333.417,73.820,318.000,54.757,303.422,46.318Z"/>
<path class="path-19" d="M228.896,94.322C252.150,98.199,293.768,107.375,318.659,126.368"/>
<path class="path-19" d="M318.659,126.368C327.029,132.718,307.922,126.928,306.029,126.739"/>
<path class="path-19" d="M306.029,126.739C292.161,124.451,237.404,103.536,265.689,120.133"/>
<path class="path-19" d="M265.689,120.133C277.495,127.531,301.839,135.199,313.020,141.579"/>
<path class="path-19" d="M313.020,141.579C315.158,142.669,317.520,145.661,317.787,148.331"/>
<path class="path-19" d="M317.787,148.331C319.043,155.125,307.733,155.130,304.157,155.257"/>
<path class="path-19" d="M304.157,155.257C298.312,154.881,292.305,153.502,286.810,152.442"/>
<path class="path-19" d="M286.810,152.442C279.978,151.756,273.297,149.994,266.497,149.039"/>
<path class="path-19" d="M266.497,149.039C246.610,144.646,226.709,140.442,206.738,136.470"/>
<path class="path-19" d="M206.738,136.470C195.533,134.696,185.314,132.213,173.257,130.465"/>
<path class="path-19" d="M173.257,130.465C171.772,130.262,156.423,130.197,153.541,128.911"/>
<path class="path-19" d="M153.541,128.911C140.164,123.086,153.194,112.132,152.808,105.704"/>
<path class="path-19" d="M152.808,105.704C152.844,103.506,148.553,102.576,149.834,98.809"/>
<path class="path-19" d="M149.834,98.809C150.779,96.170,159.388,92.698,162.183,92.052"/>
<path class="path-19" d="M162.183,92.052C172.123,89.701,182.864,88.780,193.544,89.216"/>
<path class="path-19" d="M193.544,89.216C205.774,89.736,216.803,92.327,228.896,94.322"/>
<path class="path-20" d="M228.896,94.322C252.150,98.199,293.768,107.375,318.659,126.368C327.029,132.718,307.922,126.928,306.029,126.739C292.161,124.451,237.404,103.536,265.689,120.133C277.495,127.531,301.839,135.199,313.020,141.579C315.158,142.669,317.520,145.661,317.787,148.331C319.043,155.125,307.733,155.130,304.157,155.257C298.312,154.881,292.305,153.502,286.810,152.442C279.978,151.756,273.297,149.994,266.497,149.039C246.610,144.646,226.709,140.442,206.738,136.470C195.533,134.696,185.314,132.213,173.257,130.465C171.772,130.262,156.423,130.197,153.541,128.911C140.164,123.086,153.194,112.132,152.808,105.704C152.844,103.506,148.553,102.576,149.834,98.809C150.779,96.170,159.388,92.698,162.183,92.052C172.123,89.701,182.864,88.780,193.544,89.216C205.774,89.736,216.803,92.327,228.896,94.322Z"/>
<path class="path-9" d="M240.691,36.537C288.089,43.618,304.965,57.461,316.431,76.914"/>
<path class="path-9" d="M316.431,76.914C320.161,82.735,330.205,109.066,319.935,114.115"/>
<path class="path-9" d="M319.935,114.115C316.542,115.516,311.091,111.959,308.509,110.243"/>
<path class="path-9" d="M308.509,110.243C299.324,104.417,232.201,83.754,205.953,80.379"/>
<path class="path-9" d="M205.953,80.379C194.123,78.858,183.318,77.338,172.026,78.523"/>
<path class="path-9" d="M172.026,78.523C167.832,78.952,162.625,79.517,159.072,79.798"/>
<path class="path-9" d="M159.072,79.798C151.638,80.416,165.483,60.825,169.366,57.126"/>
<path class="path-9" d="M169.366,57.126C186.610,41.098,216.217,32.880,240.691,36.537"/>
<path class="path-10" d="M240.691,36.537C288.089,43.618,304.965,57.461,316.431,76.914C320.161,82.735,330.205,109.066,319.935,114.115C316.542,115.516,311.091,111.959,308.509,110.243C299.324,104.417,232.201,83.754,205.953,80.379C194.123,78.858,183.318,77.338,172.026,78.523C167.832,78.952,162.625,79.517,159.072,79.798C151.638,80.416,165.483,60.825,169.366,57.126C186.610,41.098,216.217,32.880,240.691,36.537Z"/>
</g>
<g id="left_ear">
<path class="path-0" d="M277.047,188.428C276.972,184.355,279.422,168.677,281.992,165.251C289.446,154.649,308.260,157.209,313.243,166.026C318.879,176.495,305.953,195.936,295.197,201.003C283.904,206.114,277.516,199.163,277.047,188.428M327.994,170.542C326.548,157.035,313.866,143.946,298.689,148.725C281.441,154.156,281.836,178.186,279.500,192.956C279.062,196.291,277.926,199.925,278.739,203.019C281.601,214.686,293.152,217.446,303.401,208.527C313.404,199.639,329.077,184.719,327.994,170.542Z"/>
<path class="path-15" d="M281.992,165.251C289.446,154.649,308.260,157.209,313.243,166.026"/>
<path class="path-15" d="M313.243,166.026C318.879,176.495,305.953,195.936,295.197,201.003"/>
<path class="path-15" d="M295.197,201.003C283.904,206.114,277.516,199.163,277.047,188.428"/>
<path class="path-15" d="M277.047,188.428C276.972,184.355,279.422,168.677,281.992,165.251"/>
<path class="path-16" d="M281.992,165.251C289.446,154.649,308.260,157.209,313.243,166.026C318.879,176.495,305.953,195.936,295.197,201.003C283.904,206.114,277.516,199.163,277.047,188.428C276.972,184.355,279.422,168.677,281.992,165.251Z"/>
</g>
<g id="earrings">
<path class="path-0" d="M301.057,215.845C291.596,219.514,291.991,201.088,295.323,201.650C299.911,203.599,309.540,215.044,301.057,215.845M311.658,208.609C305.047,208.628,302.564,199.455,302.272,195.643C309.619,197.741,318.646,203.851,311.658,208.609M322.745,206.434C320.884,198.047,308.901,192.520,301.358,188.395C298.500,186.833,289.017,196.350,288.355,199.711C286.911,203.733,288.034,226.229,302.274,224.429C308.122,223.427,324.239,213.172,322.745,206.434Z"/>
<path class="path-21" d="M302.272,195.643C309.619,197.741,318.646,203.851,311.658,208.609"/>
<path class="path-21" d="M311.658,208.609C305.047,208.628,302.564,199.455,302.272,195.643"/>
<path class="path-22" d="M302.272,195.643C309.619,197.741,318.646,203.851,311.658,208.609C305.047,208.628,302.564,199.455,302.272,195.643Z"/>
<path class="path-21" d="M295.323,201.650C299.911,203.599,309.540,215.044,301.057,215.845"/>
<path class="path-21" d="M301.057,215.845C291.596,219.514,291.991,201.088,295.323,201.650"/>
<path class="path-22" d="M295.323,201.650C299.911,203.599,309.540,215.044,301.057,215.845C291.596,219.514,291.991,201.088,295.323,201.650Z"/>
</g>
</g>
<g id="jacket">
<path class="path-0" d="M216.701,272.466C218.531,277.275,212.648,286.739,211.615,291.343C205.364,309.143,196.462,326.377,197.232,344.788C197.664,350.785,202.842,364.225,197.018,368.095C195.020,369.422,189.883,365.291,189.125,366.808C187.667,369.727,182.952,359.680,182.301,358.443C181.695,357.293,178.989,348.615,178.783,346.192C178.678,341.580,179.256,332.553,180.380,326.843C181.575,321.009,182.575,314.813,185.555,308.960C188.421,302.012,193.453,294.444,196.295,286.557C199.238,281.685,203.687,279.039,202.989,275.077C201.987,271.411,199.505,269.581,202.681,267.797C206.586,265.954,216.129,267.528,216.701,272.466M280.194,277.589C281.555,276.639,293.825,273.074,295.169,272.273C308.577,265.127,318.557,276.017,319.329,284.927C319.677,288.410,317.239,300.531,316.549,302.947C314.500,308.801,312.014,312.718,309.814,317.562C300.657,335.361,308.911,324.807,301.734,340.925C300.617,343.433,298.196,348.671,297.401,351.242C296.505,353.628,295.247,359.094,294.527,361.373C291.893,367.709,288.820,375.609,278.751,375.952C278.154,376.045,272.374,377.849,271.352,378.017C266.599,378.537,260.905,378.256,257.551,374.362C253.856,369.570,253.636,362.088,253.156,355.619C251.937,342.188,256.012,328.930,260.165,316.042C263.329,304.587,270.743,285.783,280.194,277.589M292.952,262.553C290.016,264.079,283.789,263.530,281.988,263.753C278.839,263.971,278.389,261.502,278.174,259.296C277.904,254.905,281.215,248.591,284.625,245.586C287.292,243.235,291.918,241.557,295.817,241.695C299.276,241.694,305.049,244.302,304.542,248.206C304.346,251.173,297.861,260.000,292.952,262.553M220.903,246.339C225.187,256.219,229.582,266.272,224.500,264.234C218.231,261.719,214.848,261.863,204.923,256.764C194.774,251.551,193.135,236.413,199.364,232.072C205.723,227.640,215.885,234.768,220.903,246.339M309.425,363.694C309.790,357.471,311.023,353.449,311.385,346.951C311.607,342.088,312.522,336.573,312.368,331.731C311.864,322.969,313.544,319.488,314.020,309.568C314.255,301.883,316.245,295.931,315.612,288.580C315.226,285.581,305.282,272.696,305.575,269.953C305.321,264.368,313.185,261.499,314.876,256.639C316.297,252.940,317.798,248.975,317.570,245.019C317.568,240.091,313.561,236.392,310.198,233.475C305.342,229.742,300.455,229.589,294.199,229.902C284.472,230.401,278.300,238.542,273.938,244.669C267.857,253.209,268.118,268.477,264.492,278.313C262.385,284.031,258.580,291.637,256.125,296.822C246.096,317.167,227.167,372.039,243.538,387.956C244.975,389.546,257.378,394.513,261.432,394.621C271.558,394.942,276.463,395.200,286.135,393.333C293.383,392.223,303.559,380.424,307.710,372.003C308.853,369.867,309.320,365.465,309.425,363.694M226.060,235.125C220.525,228.448,210.784,216.311,202.237,218.747C198.301,220.007,193.057,223.558,190.327,226.924C187.503,230.407,184.626,236.196,184.622,240.737C184.495,246.110,184.028,252.483,185.671,257.129C187.781,263.091,197.483,267.949,198.102,274.154C198.308,277.007,190.053,288.793,188.657,292.051C186.363,297.837,182.251,302.983,179.978,307.907C177.663,312.921,175.135,319.859,173.424,325.110C171.091,332.275,167.298,341.159,166.902,349.364C166.406,354.208,168.323,365.446,171.947,371.061C174.173,374.509,179.971,378.790,182.536,379.721C183.979,380.245,198.577,384.774,203.583,380.909C213.379,373.344,208.966,356.067,206.555,339.759C204.374,325.007,216.357,313.334,221.687,299.224C223.630,294.079,231.642,276.128,232.514,269.718C233.283,264.067,235.408,260.292,234.135,252.363C233.286,247.925,229.704,239.522,226.060,235.125Z"/>
<path class="path-1" d="M295.169,272.273C308.577,265.127,318.557,276.017,319.329,284.927"/>
<path class="path-1" d="M319.329,284.927C319.677,288.410,317.239,300.531,316.549,302.947"/>
<path class="path-1" d="M316.549,302.947C314.500,308.801,312.014,312.718,309.814,317.562"/>
<path class="path-1" d="M309.814,317.562C300.657,335.361,308.911,324.807,301.734,340.925"/>
<path class="path-1" d="M301.734,340.925C300.617,343.433,298.196,348.671,297.401,351.242"/>
<path class="path-1" d="M297.401,351.242C296.505,353.628,295.247,359.094,294.527,361.373"/>
<path class="path-1" d="M294.527,361.373C291.893,367.709,288.820,375.609,278.751,375.952"/>
<path class="path-1" d="M278.751,375.952C278.154,376.045,272.374,377.849,271.352,378.017"/>
<path class="path-1" d="M271.352,378.017C266.599,378.537,260.905,378.256,257.551,374.362"/>
<path class="path-1" d="M257.551,374.362C253.856,369.570,253.636,362.088,253.156,355.619"/>
<path class="path-1" d="M253.156,355.619C251.937,342.188,256.012,328.930,260.165,316.042"/>
<path class="path-1" d="M260.165,316.042C263.329,304.587,270.743,285.783,280.194,277.589"/>
<path class="path-1" d="M280.194,277.589C281.555,276.639,293.825,273.074,295.169,272.273"/>
<path class="path-2" d="M295.169,272.273C308.577,265.127,318.557,276.017,319.329,284.927C319.677,288.410,317.239,300.531,316.549,302.947C314.500,308.801,312.014,312.718,309.814,317.562C300.657,335.361,308.911,324.807,301.734,340.925C300.617,343.433,298.196,348.671,297.401,351.242C296.505,353.628,295.247,359.094,294.527,361.373C291.893,367.709,288.820,375.609,278.751,375.952C278.154,376.045,272.374,377.849,271.352,378.017C266.599,378.537,260.905,378.256,257.551,374.362C253.856,369.570,253.636,362.088,253.156,355.619C251.937,342.188,256.012,328.930,260.165,316.042C263.329,304.587,270.743,285.783,280.194,277.589C281.555,276.639,293.825,273.074,295.169,272.273Z"/>
<path class="path-1" d="M202.681,267.797C206.586,265.954,216.129,267.528,216.701,272.466"/>
<path class="path-1" d="M216.701,272.466C218.531,277.275,212.648,286.739,211.615,291.343"/>
<path class="path-1" d="M211.615,291.343C205.364,309.143,196.462,326.377,197.232,344.788"/>
<path class="path-1" d="M197.232,344.788C197.664,350.785,202.842,364.225,197.018,368.095"/>
<path class="path-1" d="M197.018,368.095C195.020,369.422,189.883,365.291,189.125,366.808"/>
<path class="path-1" d="M189.125,366.808C187.667,369.727,182.952,359.680,182.301,358.443"/>
<path class="path-1" d="M182.301,358.443C181.695,357.293,178.989,348.615,178.783,346.192"/>
<path class="path-1" d="M178.783,346.192C178.678,341.580,179.256,332.553,180.380,326.843"/>
<path class="path-1" d="M180.380,326.843C181.575,321.009,182.575,314.813,185.555,308.960"/>
<path class="path-1" d="M185.555,308.960C188.421,302.012,193.453,294.444,196.295,286.557"/>
<path class="path-1" d="M196.295,286.557C199.238,281.685,203.687,279.039,202.989,275.077"/>
<path class="path-1" d="M202.989,275.077C201.987,271.411,199.505,269.581,202.681,267.797"/>
<path class="path-2" d="M202.681,267.797C206.586,265.954,216.129,267.528,216.701,272.466C218.531,277.275,212.648,286.739,211.615,291.343C205.364,309.143,196.462,326.377,197.232,344.788C197.664,350.785,202.842,364.225,197.018,368.095C195.020,369.422,189.883,365.291,189.125,366.808C187.667,369.727,182.952,359.680,182.301,358.443C181.695,357.293,178.989,348.615,178.783,346.192C178.678,341.580,179.256,332.553,180.380,326.843C181.575,321.009,182.575,314.813,185.555,308.960C188.421,302.012,193.453,294.444,196.295,286.557C199.238,281.685,203.687,279.039,202.989,275.077C201.987,271.411,199.505,269.581,202.681,267.797Z"/>
<path class="path-1" d="M295.817,241.695C299.276,241.694,305.049,244.302,304.542,248.206"/>
<path class="path-1" d="M304.542,248.206C304.346,251.173,297.861,260.000,292.952,262.553"/>
<path class="path-1" d="M292.952,262.553C290.016,264.079,283.789,263.530,281.988,263.753"/>
<path class="path-1" d="M281.988,263.753C278.839,263.971,278.389,261.502,278.174,259.296"/>
<path class="path-1" d="M278.174,259.296C277.904,254.905,281.215,248.591,284.625,245.586"/>
<path class="path-1" d="M284.625,245.586C287.292,243.235,291.918,241.557,295.817,241.695"/>
<path class="path-2" d="M295.817,241.695C299.276,241.694,305.049,244.302,304.542,248.206C304.346,251.173,297.861,260.000,292.952,262.553C290.016,264.079,283.789,263.530,281.988,263.753C278.839,263.971,278.389,261.502,278.174,259.296C277.904,254.905,281.215,248.591,284.625,245.586C287.292,243.235,291.918,241.557,295.817,241.695Z"/>
<path class="path-1" d="M220.903,246.339C225.187,256.219,229.582,266.272,224.500,264.234"/>
<path class="path-1" d="M224.500,264.234C218.231,261.719,214.848,261.863,204.923,256.764"/>
<path class="path-1" d="M204.923,256.764C194.774,251.551,193.135,236.413,199.364,232.072"/>
<path class="path-1" d="M199.364,232.072C205.723,227.640,215.885,234.768,220.903,246.339"/>
<path class="path-2" d="M220.903,246.339C225.187,256.219,229.582,266.272,224.500,264.234C218.231,261.719,214.848,261.863,204.923,256.764C194.774,251.551,193.135,236.413,199.364,232.072C205.723,227.640,215.885,234.768,220.903,246.339Z"/>
</g>
<g id="left_arm">
<path class="path-0" d="M314.986,465.051C311.617,459.753,310.219,450.781,317.852,448.395C323.162,446.689,347.157,451.826,351.180,455.787C358.215,462.055,354.337,476.723,345.712,480.118C335.757,483.521,320.374,473.328,314.986,465.051M295.309,284.739C295.847,281.468,303.206,270.474,308.329,271.061C311.304,271.402,313.223,276.232,314.495,278.775C318.012,286.767,321.675,295.050,324.789,303.449C333.291,325.737,339.904,348.220,345.532,370.991C347.559,380.235,347.362,392.602,350.754,400.894C354.821,410.511,361.116,407.136,364.159,413.433C365.513,416.416,364.892,422.078,366.924,426.720C369.975,434.016,375.661,437.965,378.358,442.601C380.044,445.249,380.732,448.238,377.078,448.933C375.089,449.947,369.758,448.990,367.762,449.006C361.091,447.286,354.424,445.563,347.760,443.836C338.762,441.910,311.470,440.790,306.767,434.838C299.709,425.578,310.599,414.514,311.861,405.189C312.497,402.221,315.611,358.664,314.815,355.791C313.744,349.125,309.365,343.677,307.117,336.945C304.512,327.696,301.815,317.804,299.445,308.127C297.629,300.035,293.448,293.627,295.309,284.739M318.898,260.246C316.095,255.857,307.944,248.353,302.127,250.303C297.304,252.150,297.270,258.175,297.026,262.215C296.418,272.316,295.305,280.797,296.315,290.392C296.716,297.374,298.055,303.589,299.399,310.138C300.965,319.049,301.050,336.528,302.126,346.789C302.826,356.342,305.526,366.152,305.090,374.425C303.648,393.854,294.990,412.252,295.802,431.628C295.882,441.415,298.531,441.383,300.890,449.191C302.610,455.163,301.319,461.498,303.690,467.135C309.795,482.060,327.201,495.565,344.142,492.108C359.754,488.992,360.289,472.020,368.535,462.973C375.793,454.932,390.462,458.810,392.393,450.477C394.335,443.475,384.629,435.899,380.928,430.604C373.531,420.680,379.168,418.307,375.450,410.684C372.746,405.050,365.053,400.119,361.338,392.827C359.316,389.515,358.288,383.197,356.904,378.888C354.017,368.562,351.134,356.795,348.747,345.869C346.293,333.418,344.252,322.415,339.521,309.926C335.762,299.617,324.403,268.028,318.898,260.246Z"/>
<path class="path-1" d="M308.329,271.061C311.304,271.402,313.223,276.232,314.495,278.775"/>
<path class="path-1" d="M314.495,278.775C318.012,286.767,321.675,295.050,324.789,303.449"/>
<path class="path-1" d="M324.789,303.449C333.291,325.737,339.904,348.220,345.532,370.991"/>
<path class="path-1" d="M345.532,370.991C347.559,380.235,347.362,392.602,350.754,400.894"/>
<path class="path-1" d="M350.754,400.894C354.821,410.511,361.116,407.136,364.159,413.433"/>
<path class="path-1" d="M364.159,413.433C365.513,416.416,364.892,422.078,366.924,426.720"/>
<path class="path-1" d="M366.924,426.720C369.975,434.016,375.661,437.965,378.358,442.601"/>
<path class="path-1" d="M378.358,442.601C380.044,445.249,380.732,448.238,377.078,448.933"/>
<path class="path-1" d="M377.078,448.933C375.089,449.947,369.758,448.990,367.762,449.006"/>
<path class="path-1" d="M367.762,449.006C361.091,447.286,354.424,445.563,347.760,443.836"/>
<path class="path-1" d="M347.760,443.836C338.762,441.910,311.470,440.790,306.767,434.838"/>
<path class="path-1" d="M306.767,434.838C299.709,425.578,310.599,414.514,311.861,405.189"/>
<path class="path-1" d="M311.861,405.189C312.497,402.221,315.611,358.664,314.815,355.791"/>
<path class="path-1" d="M314.815,355.791C313.744,349.125,309.365,343.677,307.117,336.945"/>
<path class="path-1" d="M307.117,336.945C304.512,327.696,301.815,317.804,299.445,308.127"/>
<path class="path-1" d="M299.445,308.127C297.629,300.035,293.448,293.627,295.309,284.739"/>
<path class="path-1" d="M295.309,284.739C295.847,281.468,303.206,270.474,308.329,271.061"/>
<path class="path-2" d="M308.329,271.061C311.304,271.402,313.223,276.232,314.495,278.775C318.012,286.767,321.675,295.050,324.789,303.449C333.291,325.737,339.904,348.220,345.532,370.991C347.559,380.235,347.362,392.602,350.754,400.894C354.821,410.511,361.116,407.136,364.159,413.433C365.513,416.416,364.892,422.078,366.924,426.720C369.975,434.016,375.661,437.965,378.358,442.601C380.044,445.249,380.732,448.238,377.078,448.933C375.089,449.947,369.758,448.990,367.762,449.006C361.091,447.286,354.424,445.563,347.760,443.836C338.762,441.910,311.470,440.790,306.767,434.838C299.709,425.578,310.599,414.514,311.861,405.189C312.497,402.221,315.611,358.664,314.815,355.791C313.744,349.125,309.365,343.677,307.117,336.945C304.512,327.696,301.815,317.804,299.445,308.127C297.629,300.035,293.448,293.627,295.309,284.739C295.847,281.468,303.206,270.474,308.329,271.061Z"/>
<path class="path-15" d="M317.852,448.395C323.162,446.689,347.157,451.826,351.180,455.787"/>
<path class="path-15" d="M351.180,455.787C358.215,462.055,354.337,476.723,345.712,480.118"/>
<path class="path-15" d="M345.712,480.118C335.757,483.521,320.374,473.328,314.986,465.051"/>
<path class="path-15" d="M314.986,465.051C311.617,459.753,310.219,450.781,317.852,448.395"/>
<path class="path-16" d="M317.852,448.395C323.162,446.689,347.157,451.826,351.180,455.787C358.215,462.055,354.337,476.723,345.712,480.118C335.757,483.521,320.374,473.328,314.986,465.051C311.617,459.753,310.219,450.781,317.852,448.395Z"/>
</g>
<g id="bone">
<g id="bone1_clothes">
<path class="path-23" d="M237.513,389.859C237.514,389.853,249.378,332.070,249.379,332.064C249.379,332.070,248.580,391.053,248.580,391.059C248.579,391.059,237.514,389.859,237.513,389.859"/>
</g>
<g id="bone2_clothes">
<path class="path-23" d="M242.524,331.396C242.525,331.389,248.365,259.098,248.366,259.091C248.367,259.098,256.291,331.190,256.292,331.197C256.291,331.197,242.526,331.396,242.524,331.396"/>
</g>
<g id="bone3_neck">
<path class="path-23" d="M251.811,258.367C251.811,258.363,253.127,216.683,253.127,216.679C253.126,216.683,245.254,257.634,245.254,257.638C245.254,257.638,251.810,258.367,251.811,258.367"/>
</g>
<g id="bone4_head">
<path class="path-23" d="M247.163,217.106C247.163,217.098,247.386,139.034,247.386,139.026C247.387,139.034,259.590,216.138,259.591,216.145C259.590,216.145,247.164,217.105,247.163,217.106"/>
</g>
<g id="bone5_left_arm">
<path class="path-23" d="M312.004,263.121C312.006,263.130,329.403,353.946,329.404,353.955C329.401,353.946,296.824,267.408,296.821,267.399C296.822,267.399,312.003,263.121,312.004,263.121"/>
</g>
<g id="bone6_left_arm">
<path class="path-23" d="M324.175,354.805C324.176,354.812,337.070,417.230,337.071,417.237C337.071,417.230,334.540,353.544,334.539,353.538C334.538,353.538,324.176,354.805,324.175,354.805"/>
</g>
<g id="bone7_right_arm">
<path class="path-23" d="M182.380,270.042C182.378,270.054,156.157,382.537,156.154,382.549C156.158,382.538,199.798,275.601,199.803,275.590C199.801,275.590,182.382,270.043,182.380,270.042"/>
</g>
<g id="bone8_right_arm">
<path class="path-23" d="M161.067,378.514C161.069,378.520,180.188,434.888,180.190,434.894C180.187,434.889,150.134,383.510,150.131,383.505C150.133,383.504,161.066,378.514,161.067,378.514"/>
</g>
<g id="bone9_left_leg">
<path class="path-23" d="M275.123,387.594C275.126,387.604,304.556,487.889,304.559,487.899C304.554,487.890,258.039,394.304,258.034,394.294C258.036,394.294,275.121,387.595,275.123,387.594"/>
</g>
<g id="bone10_right_leg">
<path class="path-23" d="M212.955,389.083C212.955,389.093,209.256,491.351,209.255,491.361C209.257,491.351,228.363,390.826,228.365,390.816C228.363,390.816,212.957,389.083,212.955,389.083"/>
</g>
<g id="bone11_hair">
<path class="path-23" d="M256.261,160.318C256.262,160.326,268.456,239.578,268.458,239.585C268.455,239.578,241.963,163.897,241.960,163.889C241.961,163.889,256.259,160.319,256.261,160.318"/>
</g>
<g id="bone12_left_leg_S">
<path class="path-23" d="M435.649,222.315C435.656,222.315,507.999,221.854,508.006,221.854C507.999,221.853,436.563,210.421,436.556,210.420C436.556,210.421,435.649,222.314,435.649,222.315"/>
</g>
<g id="bone13_right_leg_S">
<path class="path-23" d="M495.571,210.765C495.564,210.767,424.556,224.603,424.549,224.605C424.556,224.604,496.873,222.623,496.880,222.622C496.880,222.621,495.572,210.766,495.571,210.765"/>
</g>
<g id="bone14_left_arm_S">
<path class="path-23" d="M557.459,215.989C557.458,215.981,551.495,143.884,551.494,143.876C551.494,143.884,545.530,215.981,545.530,215.989C545.531,215.989,557.458,215.989,557.459,215.989"/>
</g>
<g id="bone15_jacket_S">
<path class="path-23" d="M599.302,212.544C599.300,212.550,577.356,281.486,577.354,281.493C577.357,281.487,610.329,217.093,610.332,217.087C610.331,217.086,599.303,212.544,599.302,212.544"/>
</g>
<g id="bone16_pupils_S">
<path class="path-23" d="M442.221,337.675C442.220,337.668,440.191,265.352,440.190,265.345C440.189,265.352,430.310,337.019,430.309,337.026C430.310,337.026,442.219,337.675,442.221,337.675"/>
</g>
<g id="bone17_eyelids_S">
<path class="path-23" d="M496.529,331.478C496.522,331.478,424.424,337.442,424.417,337.442C424.424,337.443,496.522,343.406,496.529,343.407C496.529,343.406,496.529,331.479,496.529,331.478"/>
</g>
<g id="bone18_face_S">
<path class="path-23" d="M554.395,344.035C554.401,344.032,617.157,308.041,617.164,308.037C617.157,308.040,549.340,333.231,549.333,333.233C549.334,333.234,554.394,344.034,554.395,344.035"/>
</g>
</g>
</g>
<style>
.path-0{fill:#000000;fill-rule:evenodd;stroke:none;}
.path-1{fill:none;stroke:#a60d3f;stroke-width:1;stroke-linecap:butt;stroke-linejoin:round;}
.path-2{fill:#a60d3f;fill-rule:evenodd;stroke:none;}
.path-3{fill:none;stroke:#d88e4b;stroke-width:1;stroke-linecap:butt;stroke-linejoin:round;}
.path-4{fill:#d88e4b;fill-rule:evenodd;stroke:none;}
.path-5{fill:none;stroke:#6e2353;stroke-width:1;stroke-linecap:butt;stroke-linejoin:round;}
.path-6{fill:#6e2353;fill-rule:evenodd;stroke:none;}
.path-7{fill:none;stroke:#392966;stroke-width:1;stroke-linecap:butt;stroke-linejoin:round;}
.path-8{fill:#392966;fill-rule:evenodd;stroke:none;}
.path-9{fill:none;stroke:#cc9bc5;stroke-width:1;stroke-linecap:butt;stroke-linejoin:round;}
.path-10{fill:#cc9bc5;fill-rule:evenodd;stroke:none;}
.path-11{fill:none;stroke:#620527;stroke-width:1;stroke-linecap:butt;stroke-linejoin:round;}
.path-12{fill:#620527;fill-rule:evenodd;stroke:none;}
.path-13{fill:none;stroke:#6a3661;stroke-width:1;stroke-linecap:butt;stroke-linejoin:round;}
.path-14{fill:#6a3661;fill-rule:evenodd;stroke:none;}
.path-15{fill:none;stroke:#f8a087;stroke-width:1;stroke-linecap:butt;stroke-linejoin:round;}
.path-16{fill:#f8a087;fill-rule:evenodd;stroke:none;}
.path-17{fill:none;stroke:#ffffff;stroke-width:1;stroke-linecap:butt;stroke-linejoin:round;}
.path-18{fill:#ffffff;fill-rule:evenodd;stroke:none;}
.path-19{fill:none;stroke:#d89f4a;stroke-width:1;stroke-linecap:butt;stroke-linejoin:round;}
.path-20{fill:#d89f4a;fill-rule:evenodd;stroke:none;}
.path-21{fill:none;stroke:#fafd5b;stroke-width:1;stroke-linecap:butt;stroke-linejoin:round;}
.path-22{fill:#fafd5b;fill-rule:evenodd;stroke:none;}
.path-23{fill:none;stroke:#00ff42;stroke-width:8;stroke-linecap:round;stroke-linejoin:round;}
.path-24{fill:none;stroke:#000000;stroke-width:1;stroke-linecap:butt;stroke-linejoin:round;}
.path-25{fill:none;stroke:#ececec;stroke-width:1;stroke-linecap:butt;stroke-linejoin:round;}
.path-26{fill:#ececec;fill-rule:evenodd;stroke:none;}
.path-27{fill:none;stroke:#808080;stroke-width:1;stroke-linecap:butt;stroke-linejoin:round;}
.path-28{fill:#808080;fill-rule:evenodd;stroke:none;}
.path-29{fill:none;stroke:#282828;stroke-width:1;stroke-linecap:butt;stroke-linejoin:round;}
.path-30{fill:#282828;fill-rule:evenodd;stroke:none;}
</style>
</svg>
