<svg version="1.1" id="Frame_217" xmlns="http://www.w3.org/2000/svg" xmlns:xlink="http://www.w3.org/1999/xlink" width="480px" height="720px">
<g id="main_bone">
<g id="right_arm">
<path class="path-0" d="M184.662,270.520C186.301,267.976,189.521,262.721,193.412,261.561C199.962,259.608,204.943,265.838,205.281,270.420C206.178,278.447,199.524,288.648,196.290,296.221C188.370,314.452,179.924,332.455,174.448,351.016C173.744,354.270,168.450,375.365,168.522,372.716C168.013,379.331,174.492,385.138,176.680,390.823C179.475,398.488,176.537,405.646,174.568,412.587C170.043,426.898,170.423,432.197,170.593,446.190C170.723,448.408,171.076,455.628,167.602,456.004C164.189,456.373,163.221,450.222,162.334,447.884C161.775,445.247,159.005,439.731,159.553,437.361C159.676,433.389,164.236,434.349,159.208,426.145C152.787,415.886,141.499,407.211,138.795,393.835C137.038,383.185,142.808,373.993,146.195,364.177C153.406,343.086,161.382,322.022,170.589,301.389C175.591,290.692,178.074,281.304,184.662,270.520M205.270,264.138C206.094,255.635,203.708,247.964,192.897,250.562C175.492,254.681,167.615,280.478,161.606,294.916C153.176,314.415,146.105,334.164,139.509,354.045C136.805,362.563,133.523,366.834,132.066,371.777C130.263,377.368,130.357,385.997,130.563,391.639C130.170,409.291,135.490,410.266,142.632,423.850C146.418,431.879,142.687,437.001,145.387,443.936C147.366,448.708,151.373,451.978,154.503,455.891C157.278,459.819,158.010,462.106,160.108,465.724C162.648,470.048,170.195,479.765,175.866,476.991C180.111,474.896,179.155,466.993,179.095,463.158C178.846,457.399,180.356,435.081,181.390,428.325C183.272,417.122,189.347,405.173,187.916,393.038C186.752,383.760,178.668,376.939,179.288,367.036C179.771,361.760,183.290,353.268,184.578,347.378C186.690,337.967,187.341,327.809,190.174,318.189C195.013,301.072,204.177,282.258,205.270,264.138Z"/>
<path class="path-1" d="M193.412,261.561C199.962,259.608,204.943,265.838,205.281,270.420"/>
<path class="path-1" d="M205.281,270.420C206.178,278.447,199.524,288.648,196.290,296.221"/>
<path class="path-1" d="M196.290,296.221C188.370,314.452,179.924,332.455,174.448,351.016"/>
<path class="path-1" d="M174.448,351.016C173.744,354.270,168.450,375.365,168.522,372.716"/>
<path class="path-1" d="M168.522,372.716C168.013,379.331,174.492,385.138,176.680,390.823"/>
<path class="path-1" d="M176.680,390.823C179.475,398.488,176.537,405.646,174.568,412.587"/>
<path class="path-1" d="M174.568,412.587C170.043,426.898,170.423,432.197,170.593,446.190"/>
<path class="path-1" d="M170.593,446.190C170.723,448.408,171.076,455.628,167.602,456.004"/>
<path class="path-1" d="M167.602,456.004C164.189,456.373,163.221,450.222,162.334,447.884"/>
<path class="path-1" d="M162.334,447.884C161.775,445.247,159.005,439.731,159.553,437.361"/>
<path class="path-1" d="M159.553,437.361C159.676,433.389,164.236,434.349,159.208,426.145"/>
<path class="path-1" d="M159.208,426.145C152.787,415.886,141.499,407.211,138.795,393.835"/>
<path class="path-1" d="M138.795,393.835C137.038,383.185,142.808,373.993,146.195,364.177"/>
<path class="path-1" d="M146.195,364.177C153.406,343.086,161.382,322.022,170.589,301.389"/>
<path class="path-1" d="M170.589,301.389C175.591,290.692,178.074,281.304,184.662,270.520"/>
<path class="path-1" d="M184.662,270.520C186.301,267.976,189.521,262.721,193.412,261.561"/>
<path class="path-2" d="M193.412,261.561C199.962,259.608,204.943,265.838,205.281,270.420C206.178,278.447,199.524,288.648,196.290,296.221C188.370,314.452,179.924,332.455,174.448,351.016C173.744,354.270,168.450,375.365,168.522,372.716C168.013,379.331,174.492,385.138,176.680,390.823C179.475,398.488,176.537,405.646,174.568,412.587C170.043,426.898,170.423,432.197,170.593,446.190C170.723,448.408,171.076,455.628,167.602,456.004C164.189,456.373,163.221,450.222,162.334,447.884C161.775,445.247,159.005,439.731,159.553,437.361C159.676,433.389,164.236,434.349,159.208,426.145C152.787,415.886,141.499,407.211,138.795,393.835C137.038,383.185,142.808,373.993,146.195,364.177C153.406,343.086,161.382,322.022,170.589,301.389C175.591,290.692,178.074,281.304,184.662,270.520C186.301,267.976,189.521,262.721,193.412,261.561Z"/>
</g>
<g id="layer_left_leg">
<g id="left_heel">
<path class="path-0" d="M329.450,627.376C319.180,618.083,326.820,594.970,336.957,589.476C352.352,580.911,372.141,602.797,371.934,609.499C371.306,619.655,356.037,624.736,347.962,627.271C343.496,628.508,332.771,630.511,329.450,627.376M363.425,580.413C351.285,573.714,330.510,581.816,321.922,590.858C303.117,609.876,310.898,653.179,343.763,641.890C354.736,638.183,378.423,628.531,382.768,619.319C386.773,612.063,382.141,603.504,378.155,596.703C374.552,591.297,369.177,583.695,363.425,580.413Z"/>
<path class="path-3" d="M336.957,589.476C352.352,580.911,372.141,602.797,371.934,609.499"/>
<path class="path-3" d="M371.934,609.499C371.306,619.655,356.037,624.736,347.962,627.271"/>
<path class="path-3" d="M347.962,627.271C343.496,628.508,332.771,630.511,329.450,627.376"/>
<path class="path-3" d="M329.450,627.376C319.180,618.083,326.820,594.970,336.957,589.476"/>
<path class="path-4" d="M336.957,589.476C352.352,580.911,372.141,602.797,371.934,609.499C371.306,619.655,356.037,624.736,347.962,627.271C343.496,628.508,332.771,630.511,329.450,627.376C319.180,618.083,326.820,594.970,336.957,589.476Z"/>
</g>
<g id="left_leg">
<path class="path-0" d="M247.905,416.414C248.153,411.371,258.332,412.202,261.988,410.901C267.536,409.234,279.428,403.587,285.024,405.709C295.391,409.248,306.756,437.959,310.318,448.076C320.280,479.097,330.919,507.789,340.549,537.741C342.311,543.688,344.178,549.813,345.818,555.668C347.386,560.503,347.002,567.770,351.222,569.903C353.257,571.423,357.223,567.598,358.253,569.737C361.461,577.585,352.050,575.892,349.460,581.229C344.499,590.694,332.791,601.225,323.179,601.452C316.702,601.827,304.299,597.886,300.178,592.784C296.356,588.053,292.869,581.963,290.171,576.625C277.255,551.063,276.381,493.042,259.805,461.994C250.799,445.125,257.710,440.934,262.025,426.655C262.772,424.184,251.477,429.787,249.276,428.362C246.471,426.847,247.584,419.533,247.905,416.414M289.368,394.769C281.940,391.902,265.931,398.849,259.092,401.392C255.263,402.799,242.139,403.635,239.842,406.345C226.314,422.309,244.567,459.139,251.643,475.105C253.375,479.810,259.745,502.868,261.441,509.398C270.018,536.061,270.963,560.786,280.836,587.000C283.383,594.034,285.209,601.194,289.682,607.040C301.890,622.774,318.842,620.999,339.772,613.475C350.694,609.558,373.767,596.905,375.694,573.025C376.436,563.779,368.030,553.922,366.002,551.511C362.534,547.389,358.095,543.675,355.331,538.590C345.832,522.432,346.695,502.079,339.987,484.445C331.415,461.850,312.761,403.860,289.368,394.769Z"/>
<path class="path-7" d="M261.988,410.901C267.536,409.234,279.428,403.587,285.024,405.709"/>
<path class="path-7" d="M285.024,405.709C295.391,409.248,306.756,437.959,310.318,448.076"/>
<path class="path-7" d="M310.318,448.076C320.280,479.097,330.919,507.789,340.549,537.741"/>
<path class="path-7" d="M340.549,537.741C342.311,543.688,344.178,549.813,345.818,555.668"/>
<path class="path-7" d="M345.818,555.668C347.386,560.503,347.002,567.770,351.222,569.903"/>
<path class="path-7" d="M351.222,569.903C353.257,571.423,357.223,567.598,358.253,569.737"/>
<path class="path-7" d="M358.253,569.737C361.461,577.585,352.050,575.892,349.460,581.229"/>
<path class="path-7" d="M349.460,581.229C344.499,590.694,332.791,601.225,323.179,601.452"/>
<path class="path-7" d="M323.179,601.452C316.702,601.827,304.299,597.886,300.178,592.784"/>
<path class="path-7" d="M300.178,592.784C296.356,588.053,292.869,581.963,290.171,576.625"/>
<path class="path-7" d="M290.171,576.625C277.255,551.063,276.381,493.042,259.805,461.994"/>
<path class="path-7" d="M259.805,461.994C250.799,445.125,257.710,440.934,262.025,426.655"/>
<path class="path-7" d="M262.025,426.655C262.772,424.184,251.477,429.787,249.276,428.362"/>
<path class="path-7" d="M249.276,428.362C246.471,426.847,247.584,419.533,247.905,416.414"/>
<path class="path-7" d="M247.905,416.414C248.153,411.371,258.332,412.202,261.988,410.901"/>
<path class="path-8" d="M261.988,410.901C267.536,409.234,279.428,403.587,285.024,405.709C295.391,409.248,306.756,437.959,310.318,448.076C320.280,479.097,330.919,507.789,340.549,537.741C342.311,543.688,344.178,549.813,345.818,555.668C347.386,560.503,347.002,567.770,351.222,569.903C353.257,571.423,357.223,567.598,358.253,569.737C361.461,577.585,352.050,575.892,349.460,581.229C344.499,590.694,332.791,601.225,323.179,601.452C316.702,601.827,304.299,597.886,300.178,592.784C296.356,588.053,292.869,581.963,290.171,576.625C277.255,551.063,276.381,493.042,259.805,461.994C250.799,445.125,257.710,440.934,262.025,426.655C262.772,424.184,251.477,429.787,249.276,428.362C246.471,426.847,247.584,419.533,247.905,416.414C248.153,411.371,258.332,412.202,261.988,410.901Z"/>
</g>
<g id="left_toe">
<path class="path-0" d="M336.318,659.396C309.225,662.461,303.755,626.820,321.330,614.107C338.996,601.508,360.552,608.005,370.054,618.944C375.410,624.361,379.143,630.782,377.882,638.448C374.371,652.498,348.952,657.879,336.318,659.396M383.280,608.790C376.084,596.518,361.439,587.427,349.696,586.971C320.259,585.953,299.883,600.903,298.769,628.077C297.612,643.762,305.373,658.742,318.107,667.884C328.081,674.590,353.670,668.284,364.099,664.047C373.051,659.647,384.019,653.451,387.939,643.247C390.873,635.933,387.178,615.556,383.280,608.790Z"/>
<path class="path-3" d="M321.330,614.107C338.996,601.508,360.552,608.005,370.054,618.944"/>
<path class="path-3" d="M370.054,618.944C375.410,624.361,379.143,630.782,377.882,638.448"/>
<path class="path-3" d="M377.882,638.448C374.371,652.498,348.952,657.879,336.318,659.396"/>
<path class="path-3" d="M336.318,659.396C309.225,662.461,303.755,626.820,321.330,614.107"/>
<path class="path-4" d="M321.330,614.107C338.996,601.508,360.552,608.005,370.054,618.944C375.410,624.361,379.143,630.782,377.882,638.448C374.371,652.498,348.952,657.879,336.318,659.396C309.225,662.461,303.755,626.820,321.330,614.107Z"/>
</g>
<g id="left_sole">
<path class="path-0" d="M344.144,673.049C333.609,676.023,326.410,662.909,326.293,668.637C326.218,672.251,336.191,672.521,340.460,672.467C349.999,672.709,363.919,667.047,371.039,660.217C373.495,658.220,381.547,652.589,381.677,652.814C383.769,656.413,372.623,660.767,369.085,662.319C366.183,663.968,344.928,672.626,344.144,673.049M326.620,668.518C331.114,665.164,342.662,666.497,346.887,666.579C363.610,666.906,370.841,655.338,378.265,651.761C378.922,651.455,380.082,649.055,381.747,650.509C387.381,655.427,357.862,671.544,343.403,671.145C336.007,671.685,324.848,669.840,326.620,668.518M383.853,641.984C380.064,640.460,366.129,653.480,350.307,658.648C342.262,661.306,318.397,654.913,315.778,666.028C315.219,668.427,318.235,675.627,320.380,676.716C334.679,684.285,383.559,665.314,388.079,658.674C389.561,656.497,389.413,644.222,383.853,641.984Z"/>
<path class="path-5" d="M326.293,668.637C326.218,672.251,336.191,672.521,340.460,672.467"/>
<path class="path-5" d="M340.460,672.467C349.999,672.709,363.919,667.047,371.039,660.217"/>
<path class="path-5" d="M371.039,660.217C373.495,658.220,381.547,652.589,381.677,652.814"/>
<path class="path-5" d="M381.677,652.814C383.769,656.413,372.623,660.767,369.085,662.319"/>
<path class="path-5" d="M369.085,662.319C366.183,663.968,344.928,672.626,344.144,673.049"/>
<path class="path-5" d="M344.144,673.049C333.609,676.023,326.410,662.909,326.293,668.637"/>
<path class="path-6" d="M326.293,668.637C326.218,672.251,336.191,672.521,340.460,672.467C349.999,672.709,363.919,667.047,371.039,660.217C373.495,658.220,381.547,652.589,381.677,652.814C383.769,656.413,372.623,660.767,369.085,662.319C366.183,663.968,344.928,672.626,344.144,673.049C333.609,676.023,326.410,662.909,326.293,668.637Z"/>
<path class="path-5" d="M346.887,666.579C363.610,666.906,370.841,655.338,378.265,651.761"/>
<path class="path-5" d="M378.265,651.761C378.922,651.455,380.082,649.055,381.747,650.509"/>
<path class="path-5" d="M381.747,650.509C387.381,655.427,357.862,671.544,343.403,671.145"/>
<path class="path-5" d="M343.403,671.145C336.007,671.685,324.848,669.840,326.620,668.518"/>
<path class="path-5" d="M326.620,668.518C331.114,665.164,342.662,666.497,346.887,666.579"/>
<path class="path-6" d="M346.887,666.579C363.610,666.906,370.841,655.338,378.265,651.761C378.922,651.455,380.082,649.055,381.747,650.509C387.381,655.427,357.862,671.544,343.403,671.145C336.007,671.685,324.848,669.840,326.620,668.518C331.114,665.164,342.662,666.497,346.887,666.579Z"/>
</g>
</g>
<g id="layer_right_leg">
<g id="right_heel">
<path class="path-0" d="M191.349,621.680C191.807,605.509,192.634,592.937,212.567,589.667C221.441,588.049,238.482,590.483,243.593,598.872C246.277,603.039,245.631,609.250,245.989,613.755C246.637,621.095,251.552,635.176,241.085,637.123C240.414,637.315,221.807,638.041,216.000,638.318C208.605,639.351,200.896,640.075,195.403,635.127C192.559,632.003,191.165,625.482,191.349,621.680M253.079,596.980C248.902,586.801,234.462,581.279,224.420,582.935C211.315,584.936,197.750,580.951,189.492,593.259C183.055,602.851,182.733,620.238,185.009,631.218C185.889,636.288,189.372,645.497,193.730,648.222C196.923,650.126,201.766,649.456,205.482,649.381C223.591,649.298,256.052,654.645,255.013,628.039C254.670,621.158,255.274,602.384,253.079,596.980Z"/>
<path class="path-3" d="M212.567,589.667C221.441,588.049,238.482,590.483,243.593,598.872"/>
<path class="path-3" d="M243.593,598.872C246.277,603.039,245.631,609.250,245.989,613.755"/>
<path class="path-3" d="M245.989,613.755C246.637,621.095,251.552,635.176,241.085,637.123"/>
<path class="path-3" d="M241.085,637.123C240.414,637.315,221.807,638.041,216.000,638.318"/>
<path class="path-3" d="M216.000,638.318C208.605,639.351,200.896,640.075,195.403,635.127"/>
<path class="path-3" d="M195.403,635.127C192.559,632.003,191.165,625.482,191.349,621.680"/>
<path class="path-3" d="M191.349,621.680C191.807,605.509,192.634,592.937,212.567,589.667"/>
<path class="path-4" d="M212.567,589.667C221.441,588.049,238.482,590.483,243.593,598.872C246.277,603.039,245.631,609.250,245.989,613.755C246.637,621.095,251.552,635.176,241.085,637.123C240.414,637.315,221.807,638.041,216.000,638.318C208.605,639.351,200.896,640.075,195.403,635.127C192.559,632.003,191.165,625.482,191.349,621.680C191.807,605.509,192.634,592.937,212.567,589.667Z"/>
</g>
<g id="right_leg">
<path class="path-0" d="M185.600,409.264C188.976,397.475,204.604,394.351,215.202,397.014C221.070,398.364,230.896,400.975,234.217,406.334C235.638,408.627,236.282,412.933,234.919,415.252C232.526,419.324,217.248,416.838,220.018,420.785C224.853,427.900,234.831,418.432,239.184,422.168C241.120,423.830,241.379,427.297,241.829,430.184C246.357,451.773,239.904,475.002,240.231,496.375C240.267,503.284,238.837,513.498,240.179,519.767C242.948,535.233,241.105,538.527,241.660,547.831C241.647,551.302,240.196,568.924,241.447,573.421C242.862,578.143,246.392,582.643,246.937,587.559C247.855,595.852,235.643,606.903,228.090,609.227C219.456,611.699,192.757,610.307,184.579,606.044C181.418,604.510,177.524,600.744,176.221,597.252C174.801,593.998,172.964,578.662,173.965,574.953C175.971,568.508,178.473,567.170,180.465,559.525C182.487,550.512,184.471,540.759,183.867,531.323C182.312,512.866,182.722,483.299,184.671,470.037C185.580,462.559,183.428,437.466,184.353,430.542C185.990,419.100,183.947,416.926,185.600,409.264M210.191,385.531C204.489,383.685,200.021,378.496,194.097,380.626C192.291,381.449,189.156,383.762,187.892,385.088C172.263,398.990,173.822,412.586,174.263,431.876C174.128,438.790,174.359,445.975,173.837,452.599C173.291,458.106,171.538,462.637,170.298,467.694C169.563,471.855,168.963,476.309,168.831,481.533C168.829,486.672,170.302,492.686,170.568,501.412C170.155,511.161,171.029,520.347,170.746,529.670C170.768,536.028,167.912,550.788,167.110,555.636C164.972,562.509,161.906,570.473,160.414,577.106C158.970,585.889,160.532,595.151,164.137,602.820C165.809,606.931,168.807,611.815,172.033,614.508C174.138,616.263,176.932,617.253,179.427,618.054C187.666,620.650,195.464,621.811,204.186,621.902C210.060,622.008,215.817,620.249,221.913,620.658C222.930,620.573,231.211,622.297,232.855,622.399C235.814,622.414,239.925,619.749,242.586,618.137C246.120,615.727,252.441,614.916,255.232,611.543C257.489,608.812,258.055,605.057,259.167,601.705C265.420,581.930,259.530,571.208,256.643,553.315C255.038,543.365,252.214,522.886,252.121,511.734C251.726,498.230,254.106,485.121,254.598,471.204C254.843,466.821,255.116,461.563,255.771,456.601C256.338,451.629,255.187,447.631,254.868,442.710C254.391,438.913,254.392,426.710,253.708,422.637C253.244,419.001,253.171,414.451,251.750,410.876C247.863,401.778,233.642,391.917,224.256,389.166C219.560,387.625,214.564,387.405,210.191,385.531Z"/>
<path class="path-7" d="M215.202,397.014C221.070,398.364,230.896,400.975,234.217,406.334"/>
<path class="path-7" d="M234.217,406.334C235.638,408.627,236.282,412.933,234.919,415.252"/>
<path class="path-7" d="M234.919,415.252C232.526,419.324,217.248,416.838,220.018,420.785"/>
<path class="path-7" d="M220.018,420.785C224.853,427.900,234.831,418.432,239.184,422.168"/>
<path class="path-7" d="M239.184,422.168C241.120,423.830,241.379,427.297,241.829,430.184"/>
<path class="path-7" d="M241.829,430.184C246.357,451.773,239.904,475.002,240.231,496.375"/>
<path class="path-7" d="M240.231,496.375C240.267,503.284,238.837,513.498,240.179,519.767"/>
<path class="path-7" d="M240.179,519.767C242.948,535.233,241.105,538.527,241.660,547.831"/>
<path class="path-7" d="M241.660,547.831C241.647,551.302,240.196,568.924,241.447,573.421"/>
<path class="path-7" d="M241.447,573.421C242.862,578.143,246.392,582.643,246.937,587.559"/>
<path class="path-7" d="M246.937,587.559C247.855,595.852,235.643,606.903,228.090,609.227"/>
<path class="path-7" d="M228.090,609.227C219.456,611.699,192.757,610.307,184.579,606.044"/>
<path class="path-7" d="M184.579,606.044C181.418,604.510,177.524,600.744,176.221,597.252"/>
<path class="path-7" d="M176.221,597.252C174.801,593.998,172.964,578.662,173.965,574.953"/>
<path class="path-7" d="M173.965,574.953C175.971,568.508,178.473,567.170,180.465,559.525"/>
<path class="path-7" d="M180.465,559.525C182.487,550.512,184.471,540.759,183.867,531.323"/>
<path class="path-7" d="M183.867,531.323C182.312,512.866,182.722,483.299,184.671,470.037"/>
<path class="path-7" d="M184.671,470.037C185.580,462.559,183.428,437.466,184.353,430.542"/>
<path class="path-7" d="M184.353,430.542C185.990,419.100,183.947,416.926,185.600,409.264"/>
<path class="path-7" d="M185.600,409.264C188.976,397.475,204.604,394.351,215.202,397.014"/>
<path class="path-8" d="M215.202,397.014C221.070,398.364,230.896,400.975,234.217,406.334C235.638,408.627,236.282,412.933,234.919,415.252C232.526,419.324,217.248,416.838,220.018,420.785C224.853,427.900,234.831,418.432,239.184,422.168C241.120,423.830,241.379,427.297,241.829,430.184C246.357,451.773,239.904,475.002,240.231,496.375C240.267,503.284,238.837,513.498,240.179,519.767C242.948,535.233,241.105,538.527,241.660,547.831C241.647,551.302,240.196,568.924,241.447,573.421C242.862,578.143,246.392,582.643,246.937,587.559C247.855,595.852,235.643,606.903,228.090,609.227C219.456,611.699,192.757,610.307,184.579,606.044C181.418,604.510,177.524,600.744,176.221,597.252C174.801,593.998,172.964,578.662,173.965,574.953C175.971,568.508,178.473,567.170,180.465,559.525C182.487,550.512,184.471,540.759,183.867,531.323C182.312,512.866,182.722,483.299,184.671,470.037C185.580,462.559,183.428,437.466,184.353,430.542C185.990,419.100,183.947,416.926,185.600,409.264C188.976,397.475,204.604,394.351,215.202,397.014Z"/>
</g>
<g id="right_toe">
<path class="path-0" d="M174.769,644.387C175.830,631.156,180.725,614.042,196.982,611.414C200.722,610.611,206.055,612.259,210.247,613.013C231.675,616.817,240.081,621.372,241.278,642.973C241.486,648.909,242.567,656.258,238.178,661.112C233.813,665.854,212.636,663.689,206.194,664.099C194.816,665.069,185.132,670.641,177.011,661.011C172.148,655.122,174.212,651.454,174.769,644.387M249.297,620.147C241.913,606.422,208.989,598.823,194.313,601.798C172.413,606.362,165.724,623.545,164.732,641.982C164.328,648.560,163.633,655.792,167.079,661.544C168.313,663.602,170.889,666.340,172.671,667.972C186.108,681.341,195.694,679.440,213.464,678.951C222.864,678.847,238.479,677.733,245.885,671.387C251.436,666.162,251.867,660.576,251.958,653.438C251.795,646.568,252.265,625.175,249.297,620.147Z"/>
<path class="path-3" d="M196.982,611.414C200.722,610.611,206.055,612.259,210.247,613.013"/>
<path class="path-3" d="M210.247,613.013C231.675,616.817,240.081,621.372,241.278,642.973"/>
<path class="path-3" d="M241.278,642.973C241.486,648.909,242.567,656.258,238.178,661.112"/>
<path class="path-3" d="M238.178,661.112C233.813,665.854,212.636,663.689,206.194,664.099"/>
<path class="path-3" d="M206.194,664.099C194.816,665.069,185.132,670.641,177.011,661.011"/>
<path class="path-3" d="M177.011,661.011C172.148,655.122,174.212,651.454,174.769,644.387"/>
<path class="path-3" d="M174.769,644.387C175.830,631.156,180.725,614.042,196.982,611.414"/>
<path class="path-4" d="M196.982,611.414C200.722,610.611,206.055,612.259,210.247,613.013C231.675,616.817,240.081,621.372,241.278,642.973C241.486,648.909,242.567,656.258,238.178,661.112C233.813,665.854,212.636,663.689,206.194,664.099C194.816,665.069,185.132,670.641,177.011,661.011C172.148,655.122,174.212,651.454,174.769,644.387C175.830,631.156,180.725,614.042,196.982,611.414Z"/>
</g>
<g id="right_sole">
<path class="path-0" d="M194.083,676.146C195.622,676.459,211.038,675.893,212.788,675.853C214.190,675.842,222.638,675.747,223.832,675.644C224.577,675.596,232.040,675.105,232.622,675.544C232.079,675.108,224.109,676.720,223.638,676.745C222.707,676.826,196.415,677.231,196.107,677.345C194.916,677.400,183.640,676.740,182.897,675.768C184.144,675.311,192.290,675.778,194.083,676.146M233.635,669.538C233.694,669.811,232.123,671.528,231.701,671.540C230.861,671.567,217.600,673.304,216.485,673.094C215.230,673.078,206.444,673.930,205.312,673.943C203.064,673.968,185.034,673.640,183.081,672.562C182.862,672.386,182.119,671.286,182.150,671.132C182.209,670.854,189.294,671.021,190.388,670.963C192.103,670.872,206.043,670.025,207.803,669.955C209.710,669.879,224.751,669.754,226.700,669.551C227.005,669.527,233.485,668.863,233.635,669.538M239.243,664.329C227.865,661.420,219.082,666.057,208.803,666.604C201.360,667.032,187.027,665.768,177.991,667.693C176.544,668.001,173.761,667.848,173.349,669.336C172.836,671.210,176.565,675.150,178.912,676.602C181.820,678.402,187.788,678.315,190.164,678.622C202.218,680.616,217.465,679.160,229.782,678.383C238.869,677.815,241.056,674.190,241.882,669.867C242.226,668.066,242.803,665.191,239.243,664.329Z"/>
<path class="path-5" d="M194.083,676.146C195.622,676.459,211.038,675.893,212.788,675.853"/>
<path class="path-5" d="M212.788,675.853C214.190,675.842,222.638,675.747,223.832,675.644"/>
<path class="path-5" d="M223.832,675.644C224.577,675.596,232.040,675.105,232.622,675.544"/>
<path class="path-5" d="M232.622,675.544C232.079,675.108,224.109,676.720,223.638,676.745"/>
<path class="path-5" d="M223.638,676.745C222.707,676.826,196.415,677.231,196.107,677.345"/>
<path class="path-5" d="M196.107,677.345C194.916,677.400,183.640,676.740,182.897,675.768"/>
<path class="path-5" d="M182.897,675.768C184.144,675.311,192.290,675.778,194.083,676.146"/>
<path class="path-6" d="M194.083,676.146C195.622,676.459,211.038,675.893,212.788,675.853C214.190,675.842,222.638,675.747,223.832,675.644C224.577,675.596,232.040,675.105,232.622,675.544C232.079,675.108,224.109,676.720,223.638,676.745C222.707,676.826,196.415,677.231,196.107,677.345C194.916,677.400,183.640,676.740,182.897,675.768C184.144,675.311,192.290,675.778,194.083,676.146Z"/>
<path class="path-5" d="M190.388,670.963C192.103,670.872,206.043,670.025,207.803,669.955"/>
<path class="path-5" d="M207.803,669.955C209.710,669.879,224.751,669.754,226.700,669.551"/>
<path class="path-5" d="M226.700,669.551C227.005,669.527,233.485,668.863,233.635,669.538"/>
<path class="path-5" d="M233.635,669.538C233.694,669.811,232.123,671.528,231.701,671.540"/>
<path class="path-5" d="M231.701,671.540C230.861,671.567,217.600,673.304,216.485,673.094"/>
<path class="path-5" d="M216.485,673.094C215.230,673.078,206.444,673.930,205.312,673.943"/>
<path class="path-5" d="M205.312,673.943C203.064,673.968,185.034,673.640,183.081,672.562"/>
<path class="path-5" d="M183.081,672.562C182.862,672.386,182.119,671.286,182.150,671.132"/>
<path class="path-5" d="M182.150,671.132C182.209,670.854,189.294,671.021,190.388,670.963"/>
<path class="path-6" d="M190.388,670.963C192.103,670.872,206.043,670.025,207.803,669.955C209.710,669.879,224.751,669.754,226.700,669.551C227.005,669.527,233.485,668.863,233.635,669.538C233.694,669.811,232.123,671.528,231.701,671.540C230.861,671.567,217.600,673.304,216.485,673.094C215.230,673.078,206.444,673.930,205.312,673.943C203.064,673.968,185.034,673.640,183.081,672.562C182.862,672.386,182.119,671.286,182.150,671.132C182.209,670.854,189.294,671.021,190.388,670.963Z"/>
</g>
</g>
<g id="hat_brim">
<path class="path-0" d="M310.912,149.206C315.136,143.602,325.662,128.250,333.609,129.026C338.907,129.544,348.896,140.215,354.233,143.745C358.909,147.211,363.948,150.377,369.318,153.575C372.353,155.549,375.392,157.517,378.435,159.480C391.962,168.156,387.373,174.060,379.224,171.926C361.006,166.802,357.896,167.836,340.922,156.818C338.700,155.598,333.064,151.705,331.650,155.912C329.841,160.749,338.361,165.928,341.841,167.939C348.107,172.229,355.004,176.915,362.886,178.353C365.172,178.911,373.184,179.023,374.281,181.471C375.944,184.977,365.501,192.647,363.320,194.440C359.717,197.097,356.116,199.753,352.577,201.748C347.287,204.573,341.698,207.035,335.972,207.479C325.248,207.768,293.623,189.301,293.762,177.616C293.747,170.930,306.324,155.110,310.912,149.206M345.950,125.888C341.403,121.097,338.376,114.449,330.767,117.049C325.242,118.850,318.870,125.916,314.840,129.534C299.646,144.762,285.487,163.103,284.046,184.689C283.051,198.297,287.718,198.420,298.128,204.784C313.874,214.680,334.808,219.399,353.497,212.870C365.603,208.703,387.549,192.796,394.012,181.394C396.055,177.582,399.908,168.933,398.043,164.071C395.944,158.182,374.697,146.413,368.431,142.124C360.905,137.042,352.353,132.195,345.950,125.888Z"/>
<path class="path-9" d="M333.609,129.026C338.907,129.544,348.896,140.215,354.233,143.745"/>
<path class="path-9" d="M354.233,143.745C358.909,147.211,363.948,150.377,369.318,153.575"/>
<path class="path-9" d="M369.318,153.575C372.353,155.549,375.392,157.517,378.435,159.480"/>
<path class="path-9" d="M378.435,159.480C391.962,168.156,387.373,174.060,379.224,171.926"/>
<path class="path-9" d="M379.224,171.926C361.006,166.802,357.896,167.836,340.922,156.818"/>
<path class="path-9" d="M340.922,156.818C338.700,155.598,333.064,151.705,331.650,155.912"/>
<path class="path-9" d="M331.650,155.912C329.841,160.749,338.361,165.928,341.841,167.939"/>
<path class="path-9" d="M341.841,167.939C348.107,172.229,355.004,176.915,362.886,178.353"/>
<path class="path-9" d="M362.886,178.353C365.172,178.911,373.184,179.023,374.281,181.471"/>
<path class="path-9" d="M374.281,181.471C375.944,184.977,365.501,192.647,363.320,194.440"/>
<path class="path-9" d="M363.320,194.440C359.717,197.097,356.116,199.753,352.577,201.748"/>
<path class="path-9" d="M352.577,201.748C347.287,204.573,341.698,207.035,335.972,207.479"/>
<path class="path-9" d="M335.972,207.479C325.248,207.768,293.623,189.301,293.762,177.616"/>
<path class="path-9" d="M293.762,177.616C293.747,170.930,306.324,155.110,310.912,149.206"/>
<path class="path-9" d="M310.912,149.206C315.136,143.602,325.662,128.250,333.609,129.026"/>
<path class="path-10" d="M333.609,129.026C338.907,129.544,348.896,140.215,354.233,143.745C358.909,147.211,363.948,150.377,369.318,153.575C372.353,155.549,375.392,157.517,378.435,159.480C391.962,168.156,387.373,174.060,379.224,171.926C361.006,166.802,357.896,167.836,340.922,156.818C338.700,155.598,333.064,151.705,331.650,155.912C329.841,160.749,338.361,165.928,341.841,167.939C348.107,172.229,355.004,176.915,362.886,178.353C365.172,178.911,373.184,179.023,374.281,181.471C375.944,184.977,365.501,192.647,363.320,194.440C359.717,197.097,356.116,199.753,352.577,201.748C347.287,204.573,341.698,207.035,335.972,207.479C325.248,207.768,293.623,189.301,293.762,177.616C293.747,170.930,306.324,155.110,310.912,149.206C315.136,143.602,325.662,128.250,333.609,129.026Z"/>
</g>
<g id="hair">
<path class="path-0" d="M202.818,144.413C219.266,131.115,239.047,128.346,259.985,125.728C269.371,124.536,276.372,130.395,284.108,136.065C290.488,141.070,297.372,146.735,304.143,151.982C314.331,159.819,318.660,163.818,322.539,167.662C325.825,170.584,331.015,176.119,335.019,178.623C339.850,181.643,350.415,197.934,352.608,199.691C346.185,202.478,335.936,205.000,331.490,209.231C333.627,214.898,334.729,223.866,334.966,226.565C328.817,227.514,321.390,225.322,309.798,224.206C308.079,231.561,308.658,238.266,304.586,245.926C296.710,244.235,291.204,242.801,280.897,239.212C274.784,244.946,273.214,244.669,263.107,252.066C255.672,248.341,249.650,244.206,242.518,241.953C236.012,245.403,225.398,247.319,222.016,250.542C217.631,243.849,213.491,236.399,209.964,233.312C200.569,236.077,196.691,239.039,190.146,242.063C185.479,236.923,188.100,232.139,182.756,224.457C178.343,223.655,171.459,221.608,165.909,221.965C169.361,217.170,170.950,202.239,177.270,199.834C185.069,196.867,179.252,188.187,183.480,179.607C184.518,177.379,194.885,160.123,195.714,157.375C197.323,152.622,199.096,147.572,202.818,144.413M287.648,123.100C274.666,114.731,249.630,111.690,236.070,116.072C223.611,119.942,211.503,124.978,201.075,133.048C195.230,137.508,188.886,143.891,185.291,150.316C178.082,162.814,168.401,189.650,162.732,202.175C158.227,212.548,153.803,219.666,149.123,225.479C167.209,230.438,172.552,232.664,177.847,233.035C178.808,240.738,186.411,245.889,185.877,254.520C194.549,252.499,199.593,249.847,207.239,247.260C211.585,251.573,214.841,257.653,219.136,263.521C226.655,260.803,234.544,260.450,241.712,254.389C247.467,256.942,256.600,260.891,265.996,265.093C273.908,260.012,275.660,259.615,283.011,253.945C292.649,255.501,303.051,260.542,312.485,258.753C311.146,250.648,316.726,244.552,315.594,239.375C322.615,236.869,344.865,238.263,348.593,237.636C347.875,231.628,343.616,220.362,344.592,213.054C351.231,210.696,356.834,208.585,367.020,202.635C363.012,196.246,356.123,188.469,350.272,183.976C345.337,180.224,341.147,175.061,336.194,171.136C319.417,158.061,311.669,138.667,287.648,123.100Z"/>
<path class="path-11" d="M259.985,125.728C269.371,124.536,276.372,130.395,284.108,136.065"/>
<path class="path-11" d="M284.108,136.065C290.488,141.070,297.372,146.735,304.143,151.982"/>
<path class="path-11" d="M304.143,151.982C314.331,159.819,318.660,163.818,322.539,167.662"/>
<path class="path-11" d="M322.539,167.662C325.825,170.584,331.015,176.119,335.019,178.623"/>
<path class="path-11" d="M335.019,178.623C339.850,181.643,350.415,197.934,352.608,199.691"/>
<path class="path-11" d="M352.608,199.691C346.185,202.478,335.936,205.000,331.490,209.231"/>
<path class="path-11" d="M331.490,209.231C333.627,214.898,334.729,223.866,334.966,226.565"/>
<path class="path-11" d="M334.966,226.565C328.817,227.514,321.390,225.322,309.798,224.206"/>
<path class="path-11" d="M309.798,224.206C308.079,231.561,308.658,238.266,304.586,245.926"/>
<path class="path-11" d="M304.586,245.926C296.710,244.235,291.204,242.801,280.897,239.212"/>
<path class="path-11" d="M280.897,239.212C274.784,244.946,273.214,244.669,263.107,252.066"/>
<path class="path-11" d="M263.107,252.066C255.672,248.341,249.650,244.206,242.518,241.953"/>
<path class="path-11" d="M242.518,241.953C236.012,245.403,225.398,247.319,222.016,250.542"/>
<path class="path-11" d="M222.016,250.542C217.631,243.849,213.491,236.399,209.964,233.312"/>
<path class="path-11" d="M209.964,233.312C200.569,236.077,196.691,239.039,190.146,242.063"/>
<path class="path-11" d="M190.146,242.063C185.479,236.923,188.100,232.139,182.756,224.457"/>
<path class="path-11" d="M182.756,224.457C178.343,223.655,171.459,221.608,165.909,221.965"/>
<path class="path-11" d="M165.909,221.965C169.361,217.170,170.950,202.239,177.270,199.834"/>
<path class="path-11" d="M177.270,199.834C185.069,196.867,179.252,188.187,183.480,179.607"/>
<path class="path-11" d="M183.480,179.607C184.518,177.379,194.885,160.123,195.714,157.375"/>
<path class="path-11" d="M195.714,157.375C197.323,152.622,199.096,147.572,202.818,144.413"/>
<path class="path-11" d="M202.818,144.413C219.266,131.115,239.047,128.346,259.985,125.728"/>
<path class="path-12" d="M259.985,125.728C269.371,124.536,276.372,130.395,284.108,136.065C290.488,141.070,297.372,146.735,304.143,151.982C314.331,159.819,318.660,163.818,322.539,167.662C325.825,170.584,331.015,176.119,335.019,178.623C339.850,181.643,350.415,197.934,352.608,199.691C346.185,202.478,335.936,205.000,331.490,209.231C333.627,214.898,334.729,223.866,334.966,226.565C328.817,227.514,321.390,225.322,309.798,224.206C308.079,231.561,308.658,238.266,304.586,245.926C296.710,244.235,291.204,242.801,280.897,239.212C274.784,244.946,273.214,244.669,263.107,252.066C255.672,248.341,249.650,244.206,242.518,241.953C236.012,245.403,225.398,247.319,222.016,250.542C217.631,243.849,213.491,236.399,209.964,233.312C200.569,236.077,196.691,239.039,190.146,242.063C185.479,236.923,188.100,232.139,182.756,224.457C178.343,223.655,171.459,221.608,165.909,221.965C169.361,217.170,170.950,202.239,177.270,199.834C185.069,196.867,179.252,188.187,183.480,179.607C184.518,177.379,194.885,160.123,195.714,157.375C197.323,152.622,199.096,147.572,202.818,144.413C219.266,131.115,239.047,128.346,259.985,125.728Z"/>
</g>
<g id="clothes">
<path class="path-0" d="M250.305,369.802C244.823,367.803,224.533,370.758,220.992,375.668C218.948,378.691,221.910,380.476,225.082,380.643C229.239,380.861,250.921,378.531,253.780,376.757C258.080,374.015,252.464,370.485,250.305,369.802M204.522,267.103C208.375,254.747,236.121,243.819,248.942,245.739C257.898,247.053,285.238,263.106,288.630,271.735C291.473,278.639,290.672,303.362,290.367,311.713C289.528,327.000,289.443,342.365,289.040,357.670C289.308,370.139,298.820,384.855,291.552,394.990C288.325,398.429,276.807,395.586,271.648,396.134C266.565,396.919,257.266,401.635,252.538,401.890C230.820,403.655,233.367,408.204,212.932,408.360C208.631,408.230,194.909,405.548,192.308,403.417C186.170,397.083,190.049,387.828,192.024,379.567C195.969,365.601,197.234,355.753,199.333,340.505C201.419,324.576,204.678,307.611,205.882,291.050C205.984,285.091,203.610,270.684,204.522,267.103M284.360,254.304C268.734,243.479,253.303,234.366,233.259,238.648C227.867,239.598,200.455,250.638,197.916,253.797C193.952,258.816,196.350,279.114,195.847,286.344C195.580,294.954,195.204,303.894,193.906,312.097C193.090,318.368,191.311,323.894,190.840,329.858C189.984,336.457,189.450,343.610,187.939,349.632C183.300,367.585,170.219,403.269,191.539,416.092C196.030,418.815,202.541,418.950,208.086,419.107C217.928,419.197,228.548,419.094,238.339,417.102C250.714,414.939,261.979,407.585,274.673,406.826C280.567,406.475,298.117,414.884,303.045,411.060C305.264,409.417,308.092,397.582,308.086,394.462C307.376,380.140,300.040,366.706,298.809,352.419C298.113,340.455,298.387,328.688,299.991,316.462C301.091,306.494,303.482,296.955,304.215,286.623C304.188,282.247,305.202,276.942,303.162,272.425C299.719,264.141,291.388,259.163,284.360,254.304Z"/>
<path class="path-13" d="M250.305,369.802C244.823,367.803,224.533,370.758,220.992,375.668"/>
<path class="path-13" d="M220.992,375.668C218.948,378.691,221.910,380.476,225.082,380.643"/>
<path class="path-13" d="M225.082,380.643C229.239,380.861,250.921,378.531,253.780,376.757"/>
<path class="path-13" d="M253.780,376.757C258.080,374.015,252.464,370.485,250.305,369.802"/>
<path class="path-13" d="M204.522,267.103C208.375,254.747,236.121,243.819,248.942,245.739"/>
<path class="path-13" d="M248.942,245.739C257.898,247.053,285.238,263.106,288.630,271.735"/>
<path class="path-13" d="M288.630,271.735C291.473,278.639,290.672,303.362,290.367,311.713"/>
<path class="path-13" d="M290.367,311.713C289.528,327.000,289.443,342.365,289.040,357.670"/>
<path class="path-13" d="M289.040,357.670C289.308,370.139,298.820,384.855,291.552,394.990"/>
<path class="path-13" d="M291.552,394.990C288.325,398.429,276.807,395.586,271.648,396.134"/>
<path class="path-13" d="M271.648,396.134C266.565,396.919,257.266,401.635,252.538,401.890"/>
<path class="path-13" d="M252.538,401.890C230.820,403.655,233.367,408.204,212.932,408.360"/>
<path class="path-13" d="M212.932,408.360C208.631,408.230,194.909,405.548,192.308,403.417"/>
<path class="path-13" d="M192.308,403.417C186.170,397.083,190.049,387.828,192.024,379.567"/>
<path class="path-13" d="M192.024,379.567C195.969,365.601,197.234,355.753,199.333,340.505"/>
<path class="path-13" d="M199.333,340.505C201.419,324.576,204.678,307.611,205.882,291.050"/>
<path class="path-13" d="M205.882,291.050C205.984,285.091,203.610,270.684,204.522,267.103"/>
<path class="path-14" d="M250.305,369.802C244.823,367.803,224.533,370.758,220.992,375.668C218.948,378.691,221.910,380.476,225.082,380.643C229.239,380.861,250.921,378.531,253.780,376.757C258.080,374.015,252.464,370.485,250.305,369.802M204.522,267.103C208.375,254.747,236.121,243.819,248.942,245.739C257.898,247.053,285.238,263.106,288.630,271.735C291.473,278.639,290.672,303.362,290.367,311.713C289.528,327.000,289.443,342.365,289.040,357.670C289.308,370.139,298.820,384.855,291.552,394.990C288.325,398.429,276.807,395.586,271.648,396.134C266.565,396.919,257.266,401.635,252.538,401.890C230.820,403.655,233.367,408.204,212.932,408.360C208.631,408.230,194.909,405.548,192.308,403.417C186.170,397.083,190.049,387.828,192.024,379.567C195.969,365.601,197.234,355.753,199.333,340.505C201.419,324.576,204.678,307.611,205.882,291.050C205.984,285.091,203.610,270.684,204.522,267.103Z"/>
</g>
<g id="neck">
<path class="path-0" d="M244.296,226.434C244.882,223.141,246.105,220.232,249.779,220.179C261.541,219.076,257.681,256.486,247.066,255.675C237.115,254.915,243.151,232.685,244.296,226.434M250.489,210.892C247.861,210.356,244.825,210.791,242.401,211.941C232.757,215.875,233.424,224.602,232.765,233.226C232.104,237.514,232.132,241.520,229.863,245.017C227.951,248.208,223.052,251.169,222.773,254.819C222.345,264.797,249.215,266.850,256.207,267.050C258.860,267.253,267.741,268.932,269.015,265.360C269.091,264.365,263.344,252.246,262.704,247.527C260.783,233.366,271.644,213.509,250.489,210.892Z"/>
<path class="path-15" d="M249.779,220.179C261.541,219.076,257.681,256.486,247.066,255.675"/>
<path class="path-15" d="M247.066,255.675C237.115,254.915,243.151,232.685,244.296,226.434"/>
<path class="path-15" d="M244.296,226.434C244.882,223.141,246.105,220.232,249.779,220.179"/>
<path class="path-16" d="M249.779,220.179C261.541,219.076,257.681,256.486,247.066,255.675C237.115,254.915,243.151,232.685,244.296,226.434C244.882,223.141,246.105,220.232,249.779,220.179Z"/>
</g>
<g id="layer_head">
<g id="right_ear">
<path class="path-0" d="M169.211,187.830C163.110,187.693,152.823,156.751,160.336,159.220C165.949,161.046,167.868,171.528,169.026,175.875C169.990,179.022,174.454,187.986,169.211,187.830M165.281,146.616C163.092,144.959,160.384,143.302,157.825,144.299C148.676,146.271,149.019,159.378,150.458,168.675C152.388,180.309,158.954,196.027,168.824,200.793C170.857,201.788,174.858,204.574,177.176,203.992C183.595,201.953,179.380,191.677,178.180,186.530C176.657,179.289,170.132,151.792,165.281,146.616Z"/>
<path class="path-15" d="M160.336,159.220C165.949,161.046,167.868,171.528,169.026,175.875"/>
<path class="path-15" d="M169.026,175.875C169.990,179.022,174.454,187.986,169.211,187.830"/>
<path class="path-15" d="M169.211,187.830C163.110,187.693,152.823,156.751,160.336,159.220"/>
<path class="path-16" d="M160.336,159.220C165.949,161.046,167.868,171.528,169.026,175.875C169.990,179.022,174.454,187.986,169.211,187.830C163.110,187.693,152.823,156.751,160.336,159.220Z"/>
</g>
<g id="face_Mask">
<g id="face">
<path class="path-0" d="M177.604,102.389C187.067,92.815,220.379,88.851,234.148,88.190C249.574,87.692,264.910,91.531,279.357,97.621C284.494,99.796,292.201,102.247,296.194,106.621C302.465,113.542,303.918,125.112,304.731,134.049C305.404,139.797,306.559,147.271,305.069,152.533C296.866,181.518,288.478,194.620,281.704,202.268C270.979,214.377,253.345,217.680,237.598,220.723C218.767,224.083,205.258,222.617,191.494,217.687C185.288,215.470,172.125,209.304,168.423,204.197C162.418,195.579,165.653,185.043,164.706,175.027C163.570,165.992,160.248,152.545,159.816,143.633C159.448,132.409,169.824,110.191,177.604,102.389M300.939,99.372C288.727,85.748,252.752,79.562,234.945,80.478C226.568,80.655,218.556,80.534,210.745,81.771C204.951,82.875,199.721,85.035,194.257,86.172C182.246,89.343,177.597,87.443,168.757,97.396C162.428,104.348,151.431,133.061,150.869,142.288C150.551,149.619,154.271,167.081,154.496,175.621C154.687,184.906,151.928,197.815,155.520,206.023C158.586,212.758,164.310,217.142,173.227,222.430C182.716,228.057,193.519,233.537,204.741,235.313C211.861,236.635,222.410,235.643,239.413,231.036C256.191,226.265,273.832,221.412,286.635,207.894C298.724,195.130,314.376,178.208,319.665,151.865C323.685,131.846,307.816,106.879,300.939,99.372Z"/>
<path class="path-15" d="M234.148,88.190C249.574,87.692,264.910,91.531,279.357,97.621"/>
<path class="path-15" d="M279.357,97.621C284.494,99.796,292.201,102.247,296.194,106.621"/>
<path class="path-15" d="M296.194,106.621C302.465,113.542,303.918,125.112,304.731,134.049"/>
<path class="path-15" d="M304.731,134.049C305.404,139.797,306.559,147.271,305.069,152.533"/>
<path class="path-15" d="M305.069,152.533C296.866,181.518,288.478,194.620,281.704,202.268"/>
<path class="path-15" d="M281.704,202.268C270.979,214.377,253.345,217.680,237.598,220.723"/>
<path class="path-15" d="M237.598,220.723C218.767,224.083,205.258,222.617,191.494,217.687"/>
<path class="path-15" d="M191.494,217.687C185.288,215.470,172.125,209.304,168.423,204.197"/>
<path class="path-15" d="M168.423,204.197C162.418,195.579,165.653,185.043,164.706,175.027"/>
<path class="path-15" d="M164.706,175.027C163.570,165.992,160.248,152.545,159.816,143.633"/>
<path class="path-15" d="M159.816,143.633C159.448,132.409,169.824,110.191,177.604,102.389"/>
<path class="path-15" d="M177.604,102.389C187.067,92.815,220.379,88.851,234.148,88.190"/>
<path class="path-16" d="M234.148,88.190C249.574,87.692,264.910,91.531,279.357,97.621C284.494,99.796,292.201,102.247,296.194,106.621C302.465,113.542,303.918,125.112,304.731,134.049C305.404,139.797,306.559,147.271,305.069,152.533C296.866,181.518,288.478,194.620,281.704,202.268C270.979,214.377,253.345,217.680,237.598,220.723C218.767,224.083,205.258,222.617,191.494,217.687C185.288,215.470,172.125,209.304,168.423,204.197C162.418,195.579,165.653,185.043,164.706,175.027C163.570,165.992,160.248,152.545,159.816,143.633C159.448,132.409,169.824,110.191,177.604,102.389C187.067,92.815,220.379,88.851,234.148,88.190Z"/>
</g>
</g>
<mask id="mask_target" style="mask-type:alpha;">
<use xlink:href="#face_Mask"/>
</mask>
<g id="mouse">
<path class="path-0" d="M207.024,214.092C212.096,215.697,211.717,220.436,211.196,220.895C210.902,221.153,209.878,220.097,206.979,219.325C201.489,217.862,198.682,218.767,198.555,218.036C198.416,217.236,201.086,212.214,207.024,214.092Z"/>
</g>
<g id="layer_eyes_Mtarget" mask="url(#mask_target)">
<g id="eyes">
<mask style="mask-type:alpha;" id="f3906406-f197-4bf1-91d8-744c09cca836">
<use xlink:href="#cmn_f3906406-f197-4bf1-91d8-744c09cca836"/>
</mask>
<g id="cmn_f3906406-f197-4bf1-91d8-744c09cca836">
<path class="path-0" d="M164.020,188.529C164.446,187.980,163.069,183.827,163.836,184.303C163.409,184.052,156.751,184.737,155.865,186.456C155.443,187.275,157.738,191.123,156.641,190.712C155.900,190.435,163.704,188.936,164.020,188.529M171.341,191.895C171.412,191.314,171.526,185.240,169.365,184.322C168.170,183.814,166.441,185.196,165.349,185.933C162.349,187.862,143.820,182.578,145.485,178.106C146.081,176.492,154.400,176.052,155.938,176.906C165.329,182.156,140.594,199.524,154.282,205.660C154.815,205.899,163.934,188.214,161.760,190.910C160.491,192.483,171.156,193.405,171.341,191.895M203.099,193.629C200.849,193.524,198.615,194.571,195.779,192.503C193.436,190.795,213.790,192.748,215.639,192.661C216.858,192.603,229.347,192.595,230.001,192.184C230.131,192.102,232.306,192.096,232.488,192.055C232.149,192.132,207.059,193.814,203.099,193.629M239.598,195.150C239.969,194.853,240.890,188.576,240.464,188.125C237.335,184.815,224.613,187.136,217.816,186.770C213.227,186.523,205.393,186.935,202.512,186.031C198.619,184.961,195.661,183.671,193.245,185.076C191.348,186.179,189.676,189.508,190.073,191.666C190.435,193.634,192.666,195.368,194.853,196.316C199.475,198.322,220.446,197.100,224.008,197.193C224.316,197.200,237.231,197.044,239.598,195.150Z"/>
<path class="path-24" d="M230.001,192.184C230.131,192.102,232.306,192.096,232.488,192.055"/>
<path class="path-24" d="M232.488,192.055C232.149,192.132,207.059,193.814,203.099,193.629"/>
<path class="path-24" d="M203.099,193.629C200.849,193.524,198.615,194.571,195.779,192.503"/>
<path class="path-24" d="M195.779,192.503C193.436,190.795,213.790,192.748,215.639,192.661"/>
<path class="path-24" d="M215.639,192.661C216.858,192.603,229.347,192.595,230.001,192.184"/>
<path class="path-0" d="M230.001,192.184C230.131,192.102,232.306,192.096,232.488,192.055C232.149,192.132,207.059,193.814,203.099,193.629C200.849,193.524,198.615,194.571,195.779,192.503C193.436,190.795,213.790,192.748,215.639,192.661C216.858,192.603,229.347,192.595,230.001,192.184Z"/>
<path class="path-24" d="M156.641,190.712C155.900,190.435,163.704,188.936,164.020,188.529"/>
<path class="path-24" d="M164.020,188.529C164.446,187.980,163.069,183.827,163.836,184.303"/>
<path class="path-24" d="M163.836,184.303C163.409,184.052,156.751,184.737,155.865,186.456"/>
<path class="path-24" d="M155.865,186.456C155.443,187.275,157.738,191.123,156.641,190.712"/>
<path class="path-0" d="M156.641,190.712C155.900,190.435,163.704,188.936,164.020,188.529C164.446,187.980,163.069,183.827,163.836,184.303C163.409,184.052,156.751,184.737,155.865,186.456C155.443,187.275,157.738,191.123,156.641,190.712Z"/>
</g>
</g>
<g id="pupil">
<path class="path-0" d="M197.245,174.760C199.618,174.424,202.276,178.102,202.193,186.746C202.136,192.767,200.498,195.068,198.830,195.129C196.919,195.199,195.533,192.422,194.915,185.553C194.255,178.221,195.225,175.047,197.245,174.760Z" mask="url(#f3906406-f197-4bf1-91d8-744c09cca836)"/>
<path class="path-0" d="M163.709,172.255C166.137,171.982,168.752,175.972,168.425,185.070C168.241,190.204,166.929,192.096,165.556,192.221C163.966,192.365,162.239,190.264,161.273,184.396C159.931,176.250,161.507,172.502,163.709,172.255Z" mask="url(#f3906406-f197-4bf1-91d8-744c09cca836)"/>
</g>
</g>
<g id="hat">
<path class="path-0" d="M311.283,142.658C313.423,143.743,315.755,146.757,316.027,149.427C317.301,156.263,305.953,156.366,302.354,156.484C296.577,156.096,290.656,154.634,285.239,153.514C278.258,152.719,271.456,150.766,264.511,149.703C243.647,144.826,222.711,140.392,201.748,135.984C190.841,134.133,180.995,131.502,169.184,129.675C167.810,129.470,154.428,129.309,151.885,128.212C138.049,122.389,151.460,110.951,151.062,104.337C151.095,102.267,147.129,101.396,148.286,97.830C149.100,95.450,156.587,91.907,159.082,91.271C168.766,88.747,179.371,88.127,189.830,88.730C201.498,89.416,211.880,92.107,223.362,94.314C247.480,98.975,289.467,109.080,316.975,127.466C325.647,133.241,306.336,128.068,304.454,127.931C289.386,126.201,229.189,104.001,261.071,120.609C273.980,127.647,299.412,136.001,311.283,142.658M205.048,79.724C193.138,77.857,182.237,76.098,170.828,77.229C166.648,77.633,161.381,78.099,157.933,78.557C150.766,79.529,164.685,60.381,168.506,56.855C185.974,41.133,215.391,32.729,239.789,36.593C287.412,44.136,304.199,58.535,315.404,78.298C319.068,84.232,328.622,110.877,318.220,115.878C314.832,117.243,309.406,113.745,306.855,112.010C297.735,106.086,228.458,83.394,205.048,79.724M305.593,48.211C289.393,38.115,270.935,28.633,245.310,26.655C215.084,24.382,180.503,29.626,158.788,54.136C152.115,61.841,148.922,70.791,144.615,79.242C141.896,84.518,137.121,87.732,136.182,93.524C135.165,101.090,139.371,103.478,139.593,109.760C140.037,116.830,135.679,118.625,135.636,123.181C134.345,135.376,145.538,139.306,155.466,141.411C159.832,142.338,176.296,143.444,185.206,144.478C195.347,145.654,208.863,147.294,218.953,148.840C230.164,150.558,244.983,153.622,256.175,155.463C266.606,157.180,280.489,159.774,291.016,160.738C299.437,161.510,318.027,162.535,319.184,161.725C320.912,160.539,327.376,147.223,328.103,144.592C329.251,140.433,327.746,135.643,329.885,129.015C332.989,118.589,336.302,109.644,335.338,97.920C333.408,76.713,319.336,56.839,305.593,48.211Z"/>
<path class="path-19" d="M223.362,94.314C247.480,98.975,289.467,109.080,316.975,127.466"/>
<path class="path-19" d="M316.975,127.466C325.647,133.241,306.336,128.068,304.454,127.931"/>
<path class="path-19" d="M304.454,127.931C289.386,126.201,229.189,104.001,261.071,120.609"/>
<path class="path-19" d="M261.071,120.609C273.980,127.647,299.412,136.001,311.283,142.658"/>
<path class="path-19" d="M311.283,142.658C313.423,143.743,315.755,146.757,316.027,149.427"/>
<path class="path-19" d="M316.027,149.427C317.301,156.263,305.953,156.366,302.354,156.484"/>
<path class="path-19" d="M302.354,156.484C296.577,156.096,290.656,154.634,285.239,153.514"/>
<path class="path-19" d="M285.239,153.514C278.258,152.719,271.456,150.766,264.511,149.703"/>
<path class="path-19" d="M264.511,149.703C243.647,144.826,222.711,140.392,201.748,135.984"/>
<path class="path-19" d="M201.748,135.984C190.841,134.133,180.995,131.502,169.184,129.675"/>
<path class="path-19" d="M169.184,129.675C167.810,129.470,154.428,129.309,151.885,128.212"/>
<path class="path-19" d="M151.885,128.212C138.049,122.389,151.460,110.951,151.062,104.337"/>
<path class="path-19" d="M151.062,104.337C151.095,102.267,147.129,101.396,148.286,97.830"/>
<path class="path-19" d="M148.286,97.830C149.100,95.450,156.587,91.907,159.082,91.271"/>
<path class="path-19" d="M159.082,91.271C168.766,88.747,179.371,88.127,189.830,88.730"/>
<path class="path-19" d="M189.830,88.730C201.498,89.416,211.880,92.107,223.362,94.314"/>
<path class="path-20" d="M223.362,94.314C247.480,98.975,289.467,109.080,316.975,127.466C325.647,133.241,306.336,128.068,304.454,127.931C289.386,126.201,229.189,104.001,261.071,120.609C273.980,127.647,299.412,136.001,311.283,142.658C313.423,143.743,315.755,146.757,316.027,149.427C317.301,156.263,305.953,156.366,302.354,156.484C296.577,156.096,290.656,154.634,285.239,153.514C278.258,152.719,271.456,150.766,264.511,149.703C243.647,144.826,222.711,140.392,201.748,135.984C190.841,134.133,180.995,131.502,169.184,129.675C167.810,129.470,154.428,129.309,151.885,128.212C138.049,122.389,151.460,110.951,151.062,104.337C151.095,102.267,147.129,101.396,148.286,97.830C149.100,95.450,156.587,91.907,159.082,91.271C168.766,88.747,179.371,88.127,189.830,88.730C201.498,89.416,211.880,92.107,223.362,94.314Z"/>
<path class="path-9" d="M239.789,36.593C287.412,44.136,304.199,58.535,315.404,78.298"/>
<path class="path-9" d="M315.404,78.298C319.068,84.232,328.622,110.877,318.220,115.878"/>
<path class="path-9" d="M318.220,115.878C314.832,117.243,309.406,113.745,306.855,112.010"/>
<path class="path-9" d="M306.855,112.010C297.735,106.086,228.458,83.394,205.048,79.724"/>
<path class="path-9" d="M205.048,79.724C193.138,77.857,182.237,76.098,170.828,77.229"/>
<path class="path-9" d="M170.828,77.229C166.648,77.633,161.381,78.099,157.933,78.557"/>
<path class="path-9" d="M157.933,78.557C150.766,79.529,164.685,60.381,168.506,56.855"/>
<path class="path-9" d="M168.506,56.855C185.974,41.133,215.391,32.729,239.789,36.593"/>
<path class="path-10" d="M239.789,36.593C287.412,44.136,304.199,58.535,315.404,78.298C319.068,84.232,328.622,110.877,318.220,115.878C314.832,117.243,309.406,113.745,306.855,112.010C297.735,106.086,228.458,83.394,205.048,79.724C193.138,77.857,182.237,76.098,170.828,77.229C166.648,77.633,161.381,78.099,157.933,78.557C150.766,79.529,164.685,60.381,168.506,56.855C185.974,41.133,215.391,32.729,239.789,36.593Z"/>
</g>
<g id="left_ear">
<path class="path-0" d="M270.835,187.172C271.046,183.785,273.673,171.487,275.862,168.570C283.481,157.679,302.286,157.371,307.831,166.154C314.172,176.672,300.003,197.377,288.619,201.986C276.502,206.679,270.446,198.429,270.835,187.172M322.592,170.801C321.212,157.953,310.620,146.190,294.712,150.053C277.344,154.271,275.907,178.137,273.540,192.719C273.094,196.008,272.316,199.612,273.105,202.669C275.855,214.083,286.540,217.666,296.885,209.340C307.469,200.642,323.707,185.314,322.592,170.801Z"/>
<path class="path-15" d="M275.862,168.570C283.481,157.679,302.286,157.371,307.831,166.154"/>
<path class="path-15" d="M307.831,166.154C314.172,176.672,300.003,197.377,288.619,201.986"/>
<path class="path-15" d="M288.619,201.986C276.502,206.679,270.446,198.429,270.835,187.172"/>
<path class="path-15" d="M270.835,187.172C271.046,183.785,273.673,171.487,275.862,168.570"/>
<path class="path-16" d="M275.862,168.570C283.481,157.679,302.286,157.371,307.831,166.154C314.172,176.672,300.003,197.377,288.619,201.986C276.502,206.679,270.446,198.429,270.835,187.172C271.046,183.785,273.673,171.487,275.862,168.570Z"/>
</g>
<g id="earrings">
<path class="path-0" d="M295.871,215.871C286.319,219.561,286.951,201.171,290.256,201.746C294.801,203.707,304.762,215.947,295.871,215.871M306.524,208.926C299.893,208.891,297.477,199.669,297.216,195.843C304.568,198.007,313.574,204.211,306.524,208.926M317.587,206.749C315.768,198.372,303.814,192.796,296.306,188.624C293.489,187.058,284.020,196.371,283.328,199.690C281.833,203.711,282.749,226.360,297.058,224.645C302.908,223.681,319.048,213.479,317.587,206.749Z"/>
<path class="path-21" d="M297.216,195.843C304.568,198.007,313.574,204.211,306.524,208.926"/>
<path class="path-21" d="M306.524,208.926C299.893,208.891,297.477,199.669,297.216,195.843"/>
<path class="path-22" d="M297.216,195.843C304.568,198.007,313.574,204.211,306.524,208.926C299.893,208.891,297.477,199.669,297.216,195.843Z"/>
<path class="path-21" d="M290.256,201.746C294.801,203.707,304.762,215.947,295.871,215.871"/>
<path class="path-21" d="M295.871,215.871C286.319,219.561,286.951,201.171,290.256,201.746"/>
<path class="path-22" d="M290.256,201.746C294.801,203.707,304.762,215.947,295.871,215.871C286.319,219.561,286.951,201.171,290.256,201.746Z"/>
</g>
</g>
<g id="jacket">
<path class="path-0" d="M215.574,272.520C217.408,277.324,211.552,286.793,210.525,291.396C204.302,309.182,195.421,326.394,196.180,344.784C196.607,350.757,201.714,364.110,195.935,367.996C193.978,369.312,188.926,365.333,188.163,366.821C186.679,369.714,182.089,359.709,181.442,358.458C180.832,357.281,178.207,348.614,178.009,346.192C177.919,341.573,178.519,332.541,179.602,326.815C180.752,320.984,181.587,314.765,184.506,308.897C187.293,301.955,192.301,294.413,195.107,286.554C198.018,281.701,202.410,279.070,201.739,275.126C200.762,271.460,198.345,269.612,201.528,267.854C205.453,266.037,214.997,267.574,215.574,272.520M278.977,277.773C280.352,276.803,292.759,273.068,294.140,272.285C307.429,265.561,316.535,277.097,317.182,285.840C317.480,289.260,315.379,301.168,314.811,303.566C313.099,309.285,311.272,313.315,309.348,318.061C301.378,335.262,308.660,325.003,301.879,340.251C300.784,342.712,298.386,347.833,297.526,350.330C296.587,352.605,294.981,357.770,294.230,359.953C291.482,366.120,288.686,373.626,278.803,374.400C278.113,374.540,271.552,377.147,270.373,377.401C265.806,378.131,260.227,378.060,256.902,374.366C253.117,369.673,253.007,362.140,252.497,355.698C251.209,342.244,255.082,328.912,259.177,315.975C262.258,304.590,269.638,285.953,278.977,277.773M291.793,262.636C288.860,264.175,282.628,263.689,280.825,263.917C277.614,264.148,277.163,261.610,276.949,259.359C276.688,254.960,279.989,248.637,283.397,245.616C286.063,243.252,290.690,241.533,294.599,241.666C298.094,241.661,303.919,244.324,303.399,248.267C303.196,251.238,296.700,260.061,291.793,262.636M219.639,246.274C223.936,256.081,228.381,266.069,223.279,264.117C217.019,261.722,213.680,261.822,203.794,256.819C193.620,251.670,191.904,236.535,198.111,232.169C204.427,227.727,214.606,234.790,219.639,246.274M309.382,361.505C310.075,355.559,311.346,351.723,311.709,345.482C311.941,340.678,312.708,335.198,312.342,330.425C311.456,321.809,312.523,318.294,312.459,308.493C312.290,301.453,313.587,295.970,313.139,289.227C312.812,286.232,304.183,272.685,304.568,269.963C304.507,264.403,312.100,261.523,313.763,256.683C315.171,252.980,316.656,249.011,316.417,245.056C316.400,240.105,312.356,236.407,308.973,233.481C304.093,229.740,299.192,229.563,292.911,229.885C283.196,230.396,277.055,238.560,272.712,244.690C266.650,253.248,266.929,268.515,263.337,278.368C261.251,284.088,257.484,291.705,255.063,296.900C245.182,317.269,226.687,372.322,243.263,387.961C244.678,389.480,256.774,394.121,260.702,394.120C270.738,394.166,275.562,393.939,285.104,391.902C292.339,390.649,302.130,378.748,306.700,370.532C308.083,368.226,309.153,363.461,309.382,361.505M224.900,235.197C219.391,228.528,209.708,216.435,201.169,218.817C197.208,220.061,191.903,223.570,189.141,226.936C186.304,230.393,183.401,236.163,183.393,240.693C183.261,246.072,182.827,252.452,184.481,257.099C186.590,263.023,196.226,267.846,196.862,274.014C197.076,276.845,188.949,288.586,187.583,291.827C185.311,297.665,181.190,302.865,178.960,307.846C176.703,312.889,174.343,319.891,172.685,325.161C170.409,332.396,166.607,341.338,166.206,349.597C165.714,354.379,167.559,365.460,171.078,371.039C173.229,374.450,178.837,378.773,181.349,379.711C182.783,380.246,197.332,384.758,202.327,380.913C212.034,373.439,207.770,356.453,205.413,340.192C203.270,325.437,215.209,313.770,220.485,299.643C222.450,294.378,230.452,276.249,231.319,269.766C232.075,264.111,234.198,260.335,232.927,252.403C232.082,247.976,228.527,239.589,224.900,235.197Z"/>
<path class="path-1" d="M294.140,272.285C307.429,265.561,316.535,277.097,317.182,285.840"/>
<path class="path-1" d="M317.182,285.840C317.480,289.260,315.379,301.168,314.811,303.566"/>
<path class="path-1" d="M314.811,303.566C313.099,309.285,311.272,313.315,309.348,318.061"/>
<path class="path-1" d="M309.348,318.061C301.378,335.262,308.660,325.003,301.879,340.251"/>
<path class="path-1" d="M301.879,340.251C300.784,342.712,298.386,347.833,297.526,350.330"/>
<path class="path-1" d="M297.526,350.330C296.587,352.605,294.981,357.770,294.230,359.953"/>
<path class="path-1" d="M294.230,359.953C291.482,366.120,288.686,373.626,278.803,374.400"/>
<path class="path-1" d="M278.803,374.400C278.113,374.540,271.552,377.147,270.373,377.401"/>
<path class="path-1" d="M270.373,377.401C265.806,378.131,260.227,378.060,256.902,374.366"/>
<path class="path-1" d="M256.902,374.366C253.117,369.673,253.007,362.140,252.497,355.698"/>
<path class="path-1" d="M252.497,355.698C251.209,342.244,255.082,328.912,259.177,315.975"/>
<path class="path-1" d="M259.177,315.975C262.258,304.590,269.638,285.953,278.977,277.773"/>
<path class="path-1" d="M278.977,277.773C280.352,276.803,292.759,273.068,294.140,272.285"/>
<path class="path-2" d="M294.140,272.285C307.429,265.561,316.535,277.097,317.182,285.840C317.480,289.260,315.379,301.168,314.811,303.566C313.099,309.285,311.272,313.315,309.348,318.061C301.378,335.262,308.660,325.003,301.879,340.251C300.784,342.712,298.386,347.833,297.526,350.330C296.587,352.605,294.981,357.770,294.230,359.953C291.482,366.120,288.686,373.626,278.803,374.400C278.113,374.540,271.552,377.147,270.373,377.401C265.806,378.131,260.227,378.060,256.902,374.366C253.117,369.673,253.007,362.140,252.497,355.698C251.209,342.244,255.082,328.912,259.177,315.975C262.258,304.590,269.638,285.953,278.977,277.773C280.352,276.803,292.759,273.068,294.140,272.285Z"/>
<path class="path-1" d="M201.528,267.854C205.453,266.037,214.997,267.574,215.574,272.520"/>
<path class="path-1" d="M215.574,272.520C217.408,277.324,211.552,286.793,210.525,291.396"/>
<path class="path-1" d="M210.525,291.396C204.302,309.182,195.421,326.394,196.180,344.784"/>
<path class="path-1" d="M196.180,344.784C196.607,350.757,201.714,364.110,195.935,367.996"/>
<path class="path-1" d="M195.935,367.996C193.978,369.312,188.926,365.333,188.163,366.821"/>
<path class="path-1" d="M188.163,366.821C186.679,369.714,182.089,359.709,181.442,358.458"/>
<path class="path-1" d="M181.442,358.458C180.832,357.281,178.207,348.614,178.009,346.192"/>
<path class="path-1" d="M178.009,346.192C177.919,341.573,178.519,332.541,179.602,326.815"/>
<path class="path-1" d="M179.602,326.815C180.752,320.984,181.587,314.765,184.506,308.897"/>
<path class="path-1" d="M184.506,308.897C187.293,301.955,192.301,294.413,195.107,286.554"/>
<path class="path-1" d="M195.107,286.554C198.018,281.701,202.410,279.070,201.739,275.126"/>
<path class="path-1" d="M201.739,275.126C200.762,271.460,198.345,269.612,201.528,267.854"/>
<path class="path-2" d="M201.528,267.854C205.453,266.037,214.997,267.574,215.574,272.520C217.408,277.324,211.552,286.793,210.525,291.396C204.302,309.182,195.421,326.394,196.180,344.784C196.607,350.757,201.714,364.110,195.935,367.996C193.978,369.312,188.926,365.333,188.163,366.821C186.679,369.714,182.089,359.709,181.442,358.458C180.832,357.281,178.207,348.614,178.009,346.192C177.919,341.573,178.519,332.541,179.602,326.815C180.752,320.984,181.587,314.765,184.506,308.897C187.293,301.955,192.301,294.413,195.107,286.554C198.018,281.701,202.410,279.070,201.739,275.126C200.762,271.460,198.345,269.612,201.528,267.854Z"/>
<path class="path-1" d="M294.599,241.666C298.094,241.661,303.919,244.324,303.399,248.267"/>
<path class="path-1" d="M303.399,248.267C303.196,251.238,296.700,260.061,291.793,262.636"/>
<path class="path-1" d="M291.793,262.636C288.860,264.175,282.628,263.689,280.825,263.917"/>
<path class="path-1" d="M280.825,263.917C277.614,264.148,277.163,261.610,276.949,259.359"/>
<path class="path-1" d="M276.949,259.359C276.688,254.960,279.989,248.637,283.397,245.616"/>
<path class="path-1" d="M283.397,245.616C286.063,243.252,290.690,241.533,294.599,241.666"/>
<path class="path-2" d="M294.599,241.666C298.094,241.661,303.919,244.324,303.399,248.267C303.196,251.238,296.700,260.061,291.793,262.636C288.860,264.175,282.628,263.689,280.825,263.917C277.614,264.148,277.163,261.610,276.949,259.359C276.688,254.960,279.989,248.637,283.397,245.616C286.063,243.252,290.690,241.533,294.599,241.666Z"/>
<path class="path-1" d="M219.639,246.274C223.936,256.081,228.381,266.069,223.279,264.117"/>
<path class="path-1" d="M223.279,264.117C217.019,261.722,213.680,261.822,203.794,256.819"/>
<path class="path-1" d="M203.794,256.819C193.620,251.670,191.904,236.535,198.111,232.169"/>
<path class="path-1" d="M198.111,232.169C204.427,227.727,214.606,234.790,219.639,246.274"/>
<path class="path-2" d="M219.639,246.274C223.936,256.081,228.381,266.069,223.279,264.117C217.019,261.722,213.680,261.822,203.794,256.819C193.620,251.670,191.904,236.535,198.111,232.169C204.427,227.727,214.606,234.790,219.639,246.274Z"/>
</g>
<g id="left_arm">
<path class="path-0" d="M313.852,465.110C310.482,459.812,309.082,450.841,316.715,448.453C322.025,446.746,346.020,451.880,350.044,455.841C357.081,462.107,353.204,476.776,344.579,480.172C334.625,483.576,319.241,473.386,313.852,465.110M294.149,284.801C294.686,281.529,302.043,270.534,307.166,271.120C310.141,271.461,312.061,276.290,313.333,278.834C316.852,286.825,320.516,295.108,323.631,303.507C332.136,325.793,338.753,348.275,344.384,371.045C346.412,380.289,346.217,392.656,349.610,400.948C353.679,410.564,359.973,407.188,363.017,413.484C364.372,416.468,363.751,422.130,365.784,426.771C368.836,434.067,374.523,438.014,377.220,442.650C378.906,445.298,379.595,448.287,375.941,448.983C373.953,449.997,368.621,449.041,366.625,449.057C359.954,447.338,353.287,445.615,346.622,443.890C337.624,441.965,310.332,440.849,305.628,434.898C298.568,425.639,309.457,414.573,310.718,405.248C311.354,402.280,314.461,358.722,313.665,355.850C312.593,349.184,308.213,343.737,305.964,337.005C303.357,327.756,300.659,317.864,298.288,308.188C296.470,300.096,292.288,293.689,294.149,284.801M317.734,260.304C314.930,255.915,306.778,248.413,300.962,250.363C296.138,252.211,296.106,258.236,295.862,262.277C295.255,272.377,294.143,280.859,295.155,290.453C295.557,297.436,296.897,303.650,298.242,310.199C299.809,319.110,299.897,336.589,300.974,346.849C301.676,356.402,304.377,366.212,303.942,374.485C302.503,393.914,293.847,412.313,294.663,431.689C294.744,441.477,297.393,441.444,299.753,449.251C301.474,455.224,300.184,461.559,302.556,467.195C308.663,482.119,326.070,495.622,343.011,492.162C358.623,489.044,359.155,472.072,367.400,463.024C374.657,454.981,389.326,458.858,391.257,450.524C393.198,443.522,383.490,435.948,379.789,430.653C372.390,420.730,378.027,418.356,374.308,410.734C371.602,405.100,363.909,400.170,360.193,392.879C358.170,389.567,357.141,383.249,355.757,378.940C352.868,368.615,349.983,356.849,347.595,345.923C345.140,333.472,343.096,322.469,338.364,309.981C334.604,299.672,323.240,268.086,317.734,260.304Z"/>
<path class="path-1" d="M307.166,271.120C310.141,271.461,312.061,276.290,313.333,278.834"/>
<path class="path-1" d="M313.333,278.834C316.852,286.825,320.516,295.108,323.631,303.507"/>
<path class="path-1" d="M323.631,303.507C332.136,325.793,338.753,348.275,344.384,371.045"/>
<path class="path-1" d="M344.384,371.045C346.412,380.289,346.217,392.656,349.610,400.948"/>
<path class="path-1" d="M349.610,400.948C353.679,410.564,359.973,407.188,363.017,413.484"/>
<path class="path-1" d="M363.017,413.484C364.372,416.468,363.751,422.130,365.784,426.771"/>
<path class="path-1" d="M365.784,426.771C368.836,434.067,374.523,438.014,377.220,442.650"/>
<path class="path-1" d="M377.220,442.650C378.906,445.298,379.595,448.287,375.941,448.983"/>
<path class="path-1" d="M375.941,448.983C373.953,449.997,368.621,449.041,366.625,449.057"/>
<path class="path-1" d="M366.625,449.057C359.954,447.338,353.287,445.615,346.622,443.890"/>
<path class="path-1" d="M346.622,443.890C337.624,441.965,310.332,440.849,305.628,434.898"/>
<path class="path-1" d="M305.628,434.898C298.568,425.639,309.457,414.573,310.718,405.248"/>
<path class="path-1" d="M310.718,405.248C311.354,402.280,314.461,358.722,313.665,355.850"/>
<path class="path-1" d="M313.665,355.850C312.593,349.184,308.213,343.737,305.964,337.005"/>
<path class="path-1" d="M305.964,337.005C303.357,327.756,300.659,317.864,298.288,308.188"/>
<path class="path-1" d="M298.288,308.188C296.470,300.096,292.288,293.689,294.149,284.801"/>
<path class="path-1" d="M294.149,284.801C294.686,281.529,302.043,270.534,307.166,271.120"/>
<path class="path-2" d="M307.166,271.120C310.141,271.461,312.061,276.290,313.333,278.834C316.852,286.825,320.516,295.108,323.631,303.507C332.136,325.793,338.753,348.275,344.384,371.045C346.412,380.289,346.217,392.656,349.610,400.948C353.679,410.564,359.973,407.188,363.017,413.484C364.372,416.468,363.751,422.130,365.784,426.771C368.836,434.067,374.523,438.014,377.220,442.650C378.906,445.298,379.595,448.287,375.941,448.983C373.953,449.997,368.621,449.041,366.625,449.057C359.954,447.338,353.287,445.615,346.622,443.890C337.624,441.965,310.332,440.849,305.628,434.898C298.568,425.639,309.457,414.573,310.718,405.248C311.354,402.280,314.461,358.722,313.665,355.850C312.593,349.184,308.213,343.737,305.964,337.005C303.357,327.756,300.659,317.864,298.288,308.188C296.470,300.096,292.288,293.689,294.149,284.801C294.686,281.529,302.043,270.534,307.166,271.120Z"/>
<path class="path-15" d="M316.715,448.453C322.025,446.746,346.020,451.880,350.044,455.841"/>
<path class="path-15" d="M350.044,455.841C357.081,462.107,353.204,476.776,344.579,480.172"/>
<path class="path-15" d="M344.579,480.172C334.625,483.576,319.241,473.386,313.852,465.110"/>
<path class="path-15" d="M313.852,465.110C310.482,459.812,309.082,450.841,316.715,448.453"/>
<path class="path-16" d="M316.715,448.453C322.025,446.746,346.020,451.880,350.044,455.841C357.081,462.107,353.204,476.776,344.579,480.172C334.625,483.576,319.241,473.386,313.852,465.110C310.482,459.812,309.082,450.841,316.715,448.453Z"/>
</g>
<g id="bone">
<g id="bone_B20">
<path class="path-23" d="M246.857,136.831C246.021,124.883,245.185,112.935,244.349,100.987"/>
</g>
<g id="bone_">
<path class="path-23" d="M552.381,338.786C574.924,330.604,597.467,322.423,620.010,314.241"/>
</g>
<g id="bone_">
<path class="path-23" d="M496.479,337.308C472.867,337.308,449.255,337.308,425.643,337.308"/>
</g>
<g id="bone_">
<path class="path-23" d="M436.410,337.308C437.696,313.731,438.981,290.154,440.267,266.577"/>
</g>
<g id="bone_">
<path class="path-23" d="M604.616,215.385C592.882,235.875,581.149,256.366,569.415,276.856"/>
</g>
<g id="bone_">
<path class="path-23" d="M436.410,216.411C459.979,217.835,483.548,219.260,507.118,220.684"/>
</g>
<g id="bone_">
<path class="path-23" d="M551.282,215.385C551.282,191.773,551.282,168.161,551.282,144.549"/>
</g>
<g id="bone_">
<path class="path-23" d="M495.897,216.411C472.431,219.027,448.964,221.644,425.498,224.261"/>
</g>
<g id="bone_B18">
<path class="path-23" d="M219.181,390.635C215.873,422.375,212.565,454.116,209.257,485.856"/>
</g>
<g id="bone_B17">
<path class="path-23" d="M265.335,390.635C277.892,422.652,290.448,454.670,303.004,486.688"/>
</g>
<g id="bone_B16">
<path class="path-23" d="M248.646,162.390C255.041,186.516,261.436,210.643,267.831,234.770"/>
</g>
<g id="bone_B14">
<path class="path-23" d="M154.852,380.925C162.662,398.395,170.472,415.865,178.282,433.335"/>
</g>
<g id="bone_B13">
<path class="path-23" d="M189.901,272.763C178.218,308.817,166.535,344.871,154.852,380.925"/>
</g>
<g id="bone_B11">
<path class="path-23" d="M328.225,353.902C330.791,375.763,333.357,397.624,335.923,419.485"/>
</g>
<g id="bone_B9">
<path class="path-23" d="M303.348,264.738C311.640,294.459,319.933,324.181,328.225,353.902"/>
</g>
<g id="bone_B5">
<path class="path-23" d="M252.448,216.728C250.584,190.096,248.721,163.463,246.857,136.831"/>
</g>
<g id="bone_B4">
<path class="path-23" d="M247.199,258.501C248.948,244.577,250.698,230.653,252.448,216.728"/>
</g>
<g id="bone_B3">
<path class="path-23" d="M248.245,331.495C247.896,307.163,247.548,282.832,247.199,258.501"/>
</g>
<g id="bone_B2">
<path class="path-23" d="M241.745,390.635C243.912,370.921,246.079,351.208,248.245,331.495"/>
</g>
<g id="bone_B1">
<path class="path-23" d="M241.745,390.635C253.722,390.635,265.699,390.635,277.676,390.635"/>
</g>
</g>
</g>
<style>
.path-0{fill:#000000;fill-rule:evenodd;stroke:none;}
.path-1{fill:none;stroke:#a60d3f;stroke-width:1;stroke-linecap:butt;stroke-linejoin:round;}
.path-2{fill:#a60d3f;fill-rule:evenodd;stroke:none;}
.path-3{fill:none;stroke:#d88e4b;stroke-width:1;stroke-linecap:butt;stroke-linejoin:round;}
.path-4{fill:#d88e4b;fill-rule:evenodd;stroke:none;}
.path-5{fill:none;stroke:#6e2353;stroke-width:1;stroke-linecap:butt;stroke-linejoin:round;}
.path-6{fill:#6e2353;fill-rule:evenodd;stroke:none;}
.path-7{fill:none;stroke:#392966;stroke-width:1;stroke-linecap:butt;stroke-linejoin:round;}
.path-8{fill:#392966;fill-rule:evenodd;stroke:none;}
.path-9{fill:none;stroke:#cc9bc5;stroke-width:1;stroke-linecap:butt;stroke-linejoin:round;}
.path-10{fill:#cc9bc5;fill-rule:evenodd;stroke:none;}
.path-11{fill:none;stroke:#620527;stroke-width:1;stroke-linecap:butt;stroke-linejoin:round;}
.path-12{fill:#620527;fill-rule:evenodd;stroke:none;}
.path-13{fill:none;stroke:#6a3661;stroke-width:1;stroke-linecap:butt;stroke-linejoin:round;}
.path-14{fill:#6a3661;fill-rule:evenodd;stroke:none;}
.path-15{fill:none;stroke:#f8a087;stroke-width:1;stroke-linecap:butt;stroke-linejoin:round;}
.path-16{fill:#f8a087;fill-rule:evenodd;stroke:none;}
.path-17{fill:none;stroke:#ffffff;stroke-width:1;stroke-linecap:butt;stroke-linejoin:round;}
.path-18{fill:#ffffff;fill-rule:evenodd;stroke:none;}
.path-19{fill:none;stroke:#d89f4a;stroke-width:1;stroke-linecap:butt;stroke-linejoin:round;}
.path-20{fill:#d89f4a;fill-rule:evenodd;stroke:none;}
.path-21{fill:none;stroke:#fafd5b;stroke-width:1;stroke-linecap:butt;stroke-linejoin:round;}
.path-22{fill:#fafd5b;fill-rule:evenodd;stroke:none;}
.path-23{fill:none;stroke:#00ff00;stroke-width:8;stroke-linecap:round;stroke-linejoin:round;}
.path-24{fill:none;stroke:#000000;stroke-width:1;stroke-linecap:butt;stroke-linejoin:round;}
</style>
</svg>
