<svg version="1.1" id="Frame_155" xmlns="http://www.w3.org/2000/svg" xmlns:xlink="http://www.w3.org/1999/xlink" width="480px" height="720px">
<g id="main_bone">
<g id="right_arm">
<path class="path-0" d="M185.732,266.680C187.287,264.105,190.344,258.787,194.183,257.540C200.707,255.420,205.812,261.606,206.266,266.195C207.366,274.203,201.138,284.627,198.108,292.290C190.670,310.764,182.662,328.982,177.383,347.639C176.714,350.908,171.440,372.060,171.506,369.406C171.011,376.036,177.515,381.842,179.714,387.537C182.526,395.223,179.629,402.423,177.601,409.371C172.930,423.772,173.262,429.084,173.052,443.198C173.123,445.454,173.198,452.825,169.655,453.055C166.265,453.274,165.551,447.170,164.755,444.826C164.289,442.176,161.703,436.589,162.307,434.236C162.527,430.254,167.117,431.259,162.154,422.975C155.832,412.646,144.472,404.007,141.759,390.623C139.993,379.953,145.792,370.751,149.118,360.892C156.179,339.767,163.968,318.667,172.697,297.844C177.435,287.083,179.488,277.605,185.732,266.680M206.074,259.893C206.682,251.336,204.144,243.651,193.357,246.533C176.171,251.060,169.182,276.994,163.527,291.466C155.547,311.089,148.813,330.880,142.394,350.756C139.754,359.309,136.426,363.579,134.976,368.532C133.180,374.137,133.295,382.782,133.506,388.435C133.125,406.094,138.555,407.004,145.559,420.666C149.251,428.712,145.393,433.769,147.925,440.746C149.767,445.495,153.638,448.813,156.587,452.778C159.187,456.748,159.771,459.059,161.700,462.706C164.030,467.052,171.100,476.796,176.795,474.327C181.194,472.400,180.614,464.348,180.712,460.458C180.698,454.615,183.085,432.075,184.266,425.247C186.379,414.010,192.397,401.972,190.969,389.757C189.812,380.450,181.689,373.625,182.281,363.690C182.749,358.397,186.266,349.869,187.497,343.948C189.524,334.465,190.025,324.251,192.647,314.516C197.098,297.251,205.449,278.077,206.074,259.893Z"/>
<path class="path-1" d="M194.183,257.540C200.707,255.420,205.812,261.606,206.266,266.195"/>
<path class="path-1" d="M206.266,266.195C207.366,274.203,201.138,284.627,198.108,292.290"/>
<path class="path-1" d="M198.108,292.290C190.670,310.764,182.662,328.982,177.383,347.639"/>
<path class="path-1" d="M177.383,347.639C176.714,350.908,171.440,372.060,171.506,369.406"/>
<path class="path-1" d="M171.506,369.406C171.011,376.036,177.515,381.842,179.714,387.537"/>
<path class="path-1" d="M179.714,387.537C182.526,395.223,179.629,402.423,177.601,409.371"/>
<path class="path-1" d="M177.601,409.371C172.930,423.772,173.262,429.084,173.052,443.198"/>
<path class="path-1" d="M173.052,443.198C173.123,445.454,173.198,452.825,169.655,453.055"/>
<path class="path-1" d="M169.655,453.055C166.265,453.274,165.551,447.170,164.755,444.826"/>
<path class="path-1" d="M164.755,444.826C164.289,442.176,161.703,436.589,162.307,434.236"/>
<path class="path-1" d="M162.307,434.236C162.527,430.254,167.117,431.259,162.154,422.975"/>
<path class="path-1" d="M162.154,422.975C155.832,412.646,144.472,404.007,141.759,390.623"/>
<path class="path-1" d="M141.759,390.623C139.993,379.953,145.792,370.751,149.118,360.892"/>
<path class="path-1" d="M149.118,360.892C156.179,339.767,163.968,318.667,172.697,297.844"/>
<path class="path-1" d="M172.697,297.844C177.435,287.083,179.488,277.605,185.732,266.680"/>
<path class="path-1" d="M185.732,266.680C187.287,264.105,190.344,258.787,194.183,257.540"/>
<path class="path-2" d="M194.183,257.540C200.707,255.420,205.812,261.606,206.266,266.195C207.366,274.203,201.138,284.627,198.108,292.290C190.670,310.764,182.662,328.982,177.383,347.639C176.714,350.908,171.440,372.060,171.506,369.406C171.011,376.036,177.515,381.842,179.714,387.537C182.526,395.223,179.629,402.423,177.601,409.371C172.930,423.772,173.262,429.084,173.052,443.198C173.123,445.454,173.198,452.825,169.655,453.055C166.265,453.274,165.551,447.170,164.755,444.826C164.289,442.176,161.703,436.589,162.307,434.236C162.527,430.254,167.117,431.259,162.154,422.975C155.832,412.646,144.472,404.007,141.759,390.623C139.993,379.953,145.792,370.751,149.118,360.892C156.179,339.767,163.968,318.667,172.697,297.844C177.435,287.083,179.488,277.605,185.732,266.680C187.287,264.105,190.344,258.787,194.183,257.540Z"/>
</g>
<g id="layer_right_leg">
<g id="right_sole">
<path class="path-0" d="M207.187,667.048C208.625,667.359,223.553,666.378,225.188,666.298C226.541,666.257,234.977,665.837,236.124,665.696C236.830,665.629,244.089,665.072,244.667,665.550C244.310,664.976,236.394,666.984,235.921,667.019C235.050,667.120,209.698,668.294,209.412,668.409C208.173,668.518,197.278,668.021,196.627,667.039C197.736,666.535,205.512,666.683,207.187,667.048M243.101,659.676C243.146,659.945,241.792,661.421,241.384,661.435C240.548,661.467,228.869,663.456,227.765,663.224C226.525,663.187,218.879,663.400,217.760,663.394C215.472,663.382,199.428,663.579,197.307,662.757C197.182,662.682,196.743,662.272,196.735,662.192C196.724,661.905,203.083,662.509,204.178,662.457C205.899,662.375,218.123,660.846,219.884,660.707C221.780,660.557,234.937,660.183,236.873,659.917C237.175,659.883,242.931,659.004,243.101,659.676M248.074,655.977C237.683,653.536,229.415,657.674,220.425,658.327C213.576,658.846,200.195,657.708,192.098,660.360C190.863,660.764,188.525,661.074,188.291,662.428C187.990,664.196,191.365,667.703,193.535,668.977C196.226,670.556,201.650,670.307,203.818,670.523C214.829,672.023,228.594,670.144,239.833,669.184C248.113,668.484,249.983,664.998,250.617,660.983C250.879,659.319,251.313,656.693,248.074,655.977Z"/>
<path class="path-5" d="M207.187,667.048C208.625,667.359,223.553,666.378,225.188,666.298"/>
<path class="path-5" d="M225.188,666.298C226.541,666.257,234.977,665.837,236.124,665.696"/>
<path class="path-5" d="M236.124,665.696C236.830,665.629,244.089,665.072,244.667,665.550"/>
<path class="path-5" d="M244.667,665.550C244.310,664.976,236.394,666.984,235.921,667.019"/>
<path class="path-5" d="M235.921,667.019C235.050,667.120,209.698,668.294,209.412,668.409"/>
<path class="path-5" d="M209.412,668.409C208.173,668.518,197.278,668.021,196.627,667.039"/>
<path class="path-5" d="M196.627,667.039C197.736,666.535,205.512,666.683,207.187,667.048"/>
<path class="path-6" d="M207.187,667.048C208.625,667.359,223.553,666.378,225.188,666.298C226.541,666.257,234.977,665.837,236.124,665.696C236.830,665.629,244.089,665.072,244.667,665.550C244.310,664.976,236.394,666.984,235.921,667.019C235.050,667.120,209.698,668.294,209.412,668.409C208.173,668.518,197.278,668.021,196.627,667.039C197.736,666.535,205.512,666.683,207.187,667.048Z"/>
<path class="path-5" d="M204.178,662.457C205.899,662.375,218.123,660.846,219.884,660.707"/>
<path class="path-5" d="M219.884,660.707C221.780,660.557,234.937,660.183,236.873,659.917"/>
<path class="path-5" d="M236.873,659.917C237.175,659.883,242.931,659.004,243.101,659.676"/>
<path class="path-5" d="M243.101,659.676C243.146,659.945,241.792,661.421,241.384,661.435"/>
<path class="path-5" d="M241.384,661.435C240.548,661.467,228.869,663.456,227.765,663.224"/>
<path class="path-5" d="M227.765,663.224C226.525,663.187,218.879,663.400,217.760,663.394"/>
<path class="path-5" d="M217.760,663.394C215.472,663.382,199.428,663.579,197.307,662.757"/>
<path class="path-5" d="M197.307,662.757C197.182,662.682,196.743,662.272,196.735,662.192"/>
<path class="path-5" d="M196.735,662.192C196.724,661.905,203.083,662.509,204.178,662.457"/>
<path class="path-6" d="M204.178,662.457C205.899,662.375,218.123,660.846,219.884,660.707C221.780,660.557,234.937,660.183,236.873,659.917C237.175,659.883,242.931,659.004,243.101,659.676C243.146,659.945,241.792,661.421,241.384,661.435C240.548,661.467,228.869,663.456,227.765,663.224C226.525,663.187,218.879,663.400,217.760,663.394C215.472,663.382,199.428,663.579,197.307,662.757C197.182,662.682,196.743,662.272,196.735,662.192C196.724,661.905,203.083,662.509,204.178,662.457Z"/>
</g>
<g id="right_heel">
<path class="path-0" d="M198.113,603.173C197.990,587.323,198.579,575.018,217.717,571.189C226.291,569.314,242.919,571.154,248.126,579.262C250.837,583.259,250.406,589.361,250.870,593.763C251.684,600.899,256.717,614.525,246.704,616.671C246.069,616.872,228.355,617.987,222.829,618.386C215.526,619.599,207.935,620.466,202.364,615.652C199.652,612.793,198.070,606.754,198.113,603.173M257.343,577.119C252.984,567.190,238.712,562.274,228.984,564.241C216.393,566.628,203.182,563.092,195.544,575.398C189.713,584.791,189.787,601.473,192.215,611.947C193.193,616.887,196.818,625.798,201.097,628.337C204.231,630.106,208.888,629.300,212.473,629.119C230.053,628.512,261.815,632.902,260.033,606.718C259.516,600.158,259.558,582.213,257.343,577.119Z"/>
<path class="path-3" d="M217.717,571.189C226.291,569.314,242.919,571.154,248.126,579.262"/>
<path class="path-3" d="M248.126,579.262C250.837,583.259,250.406,589.361,250.870,593.763"/>
<path class="path-3" d="M250.870,593.763C251.684,600.899,256.717,614.525,246.704,616.671"/>
<path class="path-3" d="M246.704,616.671C246.069,616.872,228.355,617.987,222.829,618.386"/>
<path class="path-3" d="M222.829,618.386C215.526,619.599,207.935,620.466,202.364,615.652"/>
<path class="path-3" d="M202.364,615.652C199.652,612.793,198.070,606.754,198.113,603.173"/>
<path class="path-3" d="M198.113,603.173C197.990,587.323,198.579,575.018,217.717,571.189"/>
<path class="path-4" d="M217.717,571.189C226.291,569.314,242.919,571.154,248.126,579.262C250.837,583.259,250.406,589.361,250.870,593.763C251.684,600.899,256.717,614.525,246.704,616.671C246.069,616.872,228.355,617.987,222.829,618.386C215.526,619.599,207.935,620.466,202.364,615.652C199.652,612.793,198.070,606.754,198.113,603.173C197.990,587.323,198.579,575.018,217.717,571.189Z"/>
</g>
<g id="right_toe">
<path class="path-0" d="M188.933,641.549C189.497,629.322,193.785,613.652,208.458,610.661C211.943,609.760,217.012,611.077,220.980,611.605C240.991,614.217,249.100,618.017,251.093,638.276C251.504,643.553,252.680,650.007,249.076,654.555C245.157,659.409,224.806,658.825,218.637,659.334C207.988,660.446,198.996,664.862,191.373,655.735C187.252,650.696,188.662,647.632,188.933,641.549M257.341,617.674C250.194,604.911,219.512,598.416,205.936,601.527C185.725,606.276,179.641,622.563,179.245,639.929C179.059,646.057,178.658,652.857,182.096,658.021C183.363,659.924,186.004,662.331,187.769,663.794C200.788,675.535,209.338,673.761,225.637,672.489C234.383,671.954,248.713,669.822,255.403,663.562C260.155,658.681,260.649,653.762,260.596,647.343C260.326,641.206,260.054,622.102,257.341,617.674Z"/>
<path class="path-3" d="M208.458,610.661C211.943,609.760,217.012,611.077,220.980,611.605"/>
<path class="path-3" d="M220.980,611.605C240.991,614.217,249.100,618.017,251.093,638.276"/>
<path class="path-3" d="M251.093,638.276C251.504,643.553,252.680,650.007,249.076,654.555"/>
<path class="path-3" d="M249.076,654.555C245.157,659.409,224.806,658.825,218.637,659.334"/>
<path class="path-3" d="M218.637,659.334C207.988,660.446,198.996,664.862,191.373,655.735"/>
<path class="path-3" d="M191.373,655.735C187.252,650.696,188.662,647.632,188.933,641.549"/>
<path class="path-3" d="M188.933,641.549C189.497,629.322,193.785,613.652,208.458,610.661"/>
<path class="path-4" d="M208.458,610.661C211.943,609.760,217.012,611.077,220.980,611.605C240.991,614.217,249.100,618.017,251.093,638.276C251.504,643.553,252.680,650.007,249.076,654.555C245.157,659.409,224.806,658.825,218.637,659.334C207.988,660.446,198.996,664.862,191.373,655.735C187.252,650.696,188.662,647.632,188.933,641.549C189.497,629.322,193.785,613.652,208.458,610.661Z"/>
</g>
<g id="right_leg">
<path class="path-0" d="M185.765,406.907C188.387,395.208,203.762,392.012,214.048,394.277C219.928,395.448,229.685,397.743,233.310,402.940C235.601,406.223,236.511,412.513,234.920,416.186C232.809,421.060,215.582,423.512,220.290,426.157C227.719,430.426,234.684,419.323,239.536,422.628C242.154,424.411,242.118,429.096,242.652,432.718C246.680,452.815,241.925,474.431,241.885,494.316C241.806,500.920,239.701,510.660,240.929,516.657C243.644,532.610,242.417,535.961,243.319,545.525C243.429,549.031,242.958,566.814,244.134,571.372C245.391,575.876,247.531,580.483,248.381,585.105C249.759,592.603,242.852,605.028,236.571,608.411C230.754,611.397,211.275,613.536,204.995,611.162C201.043,609.799,196.473,605.241,194.392,601.273C192.870,598.715,188.239,586.617,188.435,583.391C189.039,577.271,190.762,575.647,191.763,568.518C192.628,560.375,195.095,551.657,193.649,543.403C189.640,522.279,187.998,491.516,189.165,477.008C189.682,467.748,185.926,437.050,186.451,428.466C187.271,416.798,184.540,414.744,185.765,406.907M208.713,382.781C202.961,381.085,198.335,375.931,192.485,378.304C190.830,379.141,187.984,381.426,186.842,382.714C171.743,397.150,173.505,410.729,174.466,430.102C174.523,437.292,174.332,444.751,174.686,451.651C174.864,457.309,175.009,462.197,174.601,467.505C174.547,472.068,174.201,476.903,174.544,482.535C175.131,489.386,177.745,497.251,178.788,508.884C178.983,519.986,180.088,530.387,180.456,540.994C180.795,545.972,179.827,557.711,179.421,561.547C177.927,567.625,175.036,574.531,174.136,580.377C173.400,588.084,176.316,595.746,179.705,602.259C181.771,606.802,184.984,612.279,188.462,615.428C190.952,617.682,194.214,619.187,197.201,620.331C203.066,622.543,208.648,623.764,214.961,624.175C219.729,624.522,224.467,624.245,229.425,623.866C230.528,623.608,239.757,622.172,241.555,621.845C243.800,621.302,246.674,618.912,248.588,617.396C250.929,615.327,255.025,613.985,257.304,611.722C260.109,608.934,262.808,605.858,264.486,602.274C273.467,582.373,261.735,570.365,257.955,551.671C255.988,541.942,253.275,521.727,253.244,510.735C252.923,496.968,256.214,483.661,256.530,469.468C256.736,464.619,256.806,458.804,257.175,453.283C257.419,448.326,255.750,444.485,255.146,439.634C254.432,435.773,254.089,423.237,253.267,419.080C252.689,415.407,252.499,410.791,250.977,407.208C246.833,398.097,232.337,388.533,222.877,386.033C218.138,384.615,213.138,384.547,208.713,382.781Z"/>
<path class="path-7" d="M214.048,394.277C219.928,395.448,229.685,397.743,233.310,402.940"/>
<path class="path-7" d="M233.310,402.940C235.601,406.223,236.511,412.513,234.920,416.186"/>
<path class="path-7" d="M234.920,416.186C232.809,421.060,215.582,423.512,220.290,426.157"/>
<path class="path-7" d="M220.290,426.157C227.719,430.426,234.684,419.323,239.536,422.628"/>
<path class="path-7" d="M239.536,422.628C242.154,424.411,242.118,429.096,242.652,432.718"/>
<path class="path-7" d="M242.652,432.718C246.680,452.815,241.925,474.431,241.885,494.316"/>
<path class="path-7" d="M241.885,494.316C241.806,500.920,239.701,510.660,240.929,516.657"/>
<path class="path-7" d="M240.929,516.657C243.644,532.610,242.417,535.961,243.319,545.525"/>
<path class="path-7" d="M243.319,545.525C243.429,549.031,242.958,566.814,244.134,571.372"/>
<path class="path-7" d="M244.134,571.372C245.391,575.876,247.531,580.483,248.381,585.105"/>
<path class="path-7" d="M248.381,585.105C249.759,592.603,242.852,605.028,236.571,608.411"/>
<path class="path-7" d="M236.571,608.411C230.754,611.397,211.275,613.536,204.995,611.162"/>
<path class="path-7" d="M204.995,611.162C201.043,609.799,196.473,605.241,194.392,601.273"/>
<path class="path-7" d="M194.392,601.273C192.870,598.715,188.239,586.617,188.435,583.391"/>
<path class="path-7" d="M188.435,583.391C189.039,577.271,190.762,575.647,191.763,568.518"/>
<path class="path-7" d="M191.763,568.518C192.628,560.375,195.095,551.657,193.649,543.403"/>
<path class="path-7" d="M193.649,543.403C189.640,522.279,187.998,491.516,189.165,477.008"/>
<path class="path-7" d="M189.165,477.008C189.682,467.748,185.926,437.050,186.451,428.466"/>
<path class="path-7" d="M186.451,428.466C187.271,416.798,184.540,414.744,185.765,406.907"/>
<path class="path-7" d="M185.765,406.907C188.387,395.208,203.762,392.012,214.048,394.277"/>
<path class="path-8" d="M214.048,394.277C219.928,395.448,229.685,397.743,233.310,402.940C235.601,406.223,236.511,412.513,234.920,416.186C232.809,421.060,215.582,423.512,220.290,426.157C227.719,430.426,234.684,419.323,239.536,422.628C242.154,424.411,242.118,429.096,242.652,432.718C246.680,452.815,241.925,474.431,241.885,494.316C241.806,500.920,239.701,510.660,240.929,516.657C243.644,532.610,242.417,535.961,243.319,545.525C243.429,549.031,242.958,566.814,244.134,571.372C245.391,575.876,247.531,580.483,248.381,585.105C249.759,592.603,242.852,605.028,236.571,608.411C230.754,611.397,211.275,613.536,204.995,611.162C201.043,609.799,196.473,605.241,194.392,601.273C192.870,598.715,188.239,586.617,188.435,583.391C189.039,577.271,190.762,575.647,191.763,568.518C192.628,560.375,195.095,551.657,193.649,543.403C189.640,522.279,187.998,491.516,189.165,477.008C189.682,467.748,185.926,437.050,186.451,428.466C187.271,416.798,184.540,414.744,185.765,406.907C188.387,395.208,203.762,392.012,214.048,394.277Z"/>
</g>
</g>
<g id="layer_left_leg">
<g id="left_heel">
<path class="path-0" d="M268.140,676.521C262.754,664.365,273.899,649.365,285.080,647.416C304.563,643.966,325.133,662.263,323.707,669.471C320.734,682.351,297.107,681.265,285.840,681.235C281.242,681.071,269.911,680.577,268.140,676.521M315.985,641.780C300.056,631.563,268.955,636.115,256.950,648.505C245.407,660.301,246.830,696.148,263.417,697.098C280.446,698.094,320.772,693.241,329.167,688.317C338.208,683.207,335.841,669.071,332.249,660.050C329.186,653.514,322.187,645.884,315.985,641.780Z"/>
<path class="path-3" d="M285.080,647.416C304.563,643.966,325.133,662.263,323.707,669.471"/>
<path class="path-3" d="M323.707,669.471C320.734,682.351,297.107,681.265,285.840,681.235"/>
<path class="path-3" d="M285.840,681.235C281.242,681.071,269.911,680.577,268.140,676.521"/>
<path class="path-3" d="M268.140,676.521C262.754,664.365,273.899,649.365,285.080,647.416"/>
<path class="path-4" d="M285.080,647.416C304.563,643.966,325.133,662.263,323.707,669.471C320.734,682.351,297.107,681.265,285.840,681.235C281.242,681.071,269.911,680.577,268.140,676.521C262.754,664.365,273.899,649.365,285.080,647.416Z"/>
</g>
<g id="left_leg">
<path class="path-0" d="M241.186,408.414C242.513,403.670,252.301,406.719,256.143,406.176C262.813,405.563,278.023,400.706,283.402,404.913C288.954,408.963,288.065,428.319,288.546,434.912C289.535,457.282,296.115,477.657,300.355,498.860C303.461,516.577,304.519,535.564,310.853,552.023C314.602,560.672,323.319,567.037,327.256,575.005C330.762,587.004,338.184,600.546,331.472,609.993C317.921,626.743,312.098,621.000,299.145,629.192C288.885,635.248,271.043,633.247,261.823,627.588C255.723,624.121,245.760,614.931,243.999,608.236C234.644,572.662,236.092,529.874,235.690,493.798C235.543,480.629,245.634,453.364,242.130,439.642C241.146,435.791,240.673,434.184,242.230,430.822C243.140,428.846,240.444,422.188,240.087,420.011C239.336,416.982,240.206,411.303,241.186,408.414M289.858,397.422C282.858,392.217,263.472,395.211,255.482,396.551C251.168,397.258,237.099,396.413,234.333,398.992C225.952,406.807,233.058,427.071,234.057,436.361C234.410,445.030,224.248,485.494,223.182,497.124C222.279,524.860,220.036,549.013,224.554,576.393C227.543,596.129,228.897,616.362,239.627,632.868C251.716,651.178,269.924,651.068,295.012,645.500C314.267,641.365,341.936,642.385,346.477,611.875C349.948,588.595,337.805,561.239,333.226,554.272C328.794,547.530,322.046,541.830,318.526,533.932C310.600,517.681,311.176,498.606,307.929,480.712C304.379,461.040,306.765,410.051,289.858,397.422Z"/>
<path class="path-7" d="M256.143,406.176C262.813,405.563,278.023,400.706,283.402,404.913"/>
<path class="path-7" d="M283.402,404.913C288.954,408.963,288.065,428.319,288.546,434.912"/>
<path class="path-7" d="M288.546,434.912C289.535,457.282,296.115,477.657,300.355,498.860"/>
<path class="path-7" d="M300.355,498.860C303.461,516.577,304.519,535.564,310.853,552.023"/>
<path class="path-7" d="M310.853,552.023C314.602,560.672,323.319,567.037,327.256,575.005"/>
<path class="path-7" d="M327.256,575.005C330.762,587.004,338.184,600.546,331.472,609.993"/>
<path class="path-7" d="M331.472,609.993C317.921,626.743,312.098,621.000,299.145,629.192"/>
<path class="path-7" d="M299.145,629.192C288.885,635.248,271.043,633.247,261.823,627.588"/>
<path class="path-7" d="M261.823,627.588C255.723,624.121,245.760,614.931,243.999,608.236"/>
<path class="path-7" d="M243.999,608.236C234.644,572.662,236.092,529.874,235.690,493.798"/>
<path class="path-7" d="M235.690,493.798C235.543,480.629,245.634,453.364,242.130,439.642"/>
<path class="path-7" d="M242.130,439.642C241.146,435.791,240.673,434.184,242.230,430.822"/>
<path class="path-7" d="M242.230,430.822C243.140,428.846,240.444,422.188,240.087,420.011"/>
<path class="path-7" d="M240.087,420.011C239.336,416.982,240.206,411.303,241.186,408.414"/>
<path class="path-7" d="M241.186,408.414C242.513,403.670,252.301,406.719,256.143,406.176"/>
<path class="path-8" d="M256.143,406.176C262.813,405.563,278.023,400.706,283.402,404.913C288.954,408.963,288.065,428.319,288.546,434.912C289.535,457.282,296.115,477.657,300.355,498.860C303.461,516.577,304.519,535.564,310.853,552.023C314.602,560.672,323.319,567.037,327.256,575.005C330.762,587.004,338.184,600.546,331.472,609.993C317.921,626.743,312.098,621.000,299.145,629.192C288.885,635.248,271.043,633.247,261.823,627.588C255.723,624.121,245.760,614.931,243.999,608.236C234.644,572.662,236.092,529.874,235.690,493.798C235.543,480.629,245.634,453.364,242.130,439.642C241.146,435.791,240.673,434.184,242.230,430.822C243.140,428.846,240.444,422.188,240.087,420.011C239.336,416.982,240.206,411.303,241.186,408.414C242.513,403.670,252.301,406.719,256.143,406.176Z"/>
</g>
<g id="left_toe">
<path class="path-0" d="M267.530,664.948C228.672,652.844,254.334,588.461,277.937,590.996C311.327,594.582,321.253,612.873,326.133,623.576C330.985,634.305,331.420,645.701,324.984,655.887C314.293,670.053,282.686,669.677,267.530,664.948M328.527,597.574C316.485,588.146,298.423,573.625,280.694,577.276C256.000,582.361,235.745,600.291,233.636,628.468C231.740,645.950,235.089,663.054,247.253,675.753C257.169,685.479,287.946,684.369,301.105,682.634C313.799,680.061,331.116,677.644,338.408,665.729C346.856,652.371,340.692,607.098,328.527,597.574Z"/>
<path class="path-3" d="M277.937,590.996C311.327,594.582,321.253,612.873,326.133,623.576"/>
<path class="path-3" d="M326.133,623.576C330.985,634.305,331.420,645.701,324.984,655.887"/>
<path class="path-3" d="M324.984,655.887C314.293,670.053,282.686,669.677,267.530,664.948"/>
<path class="path-3" d="M267.530,664.948C228.672,652.844,254.334,588.461,277.937,590.996"/>
<path class="path-4" d="M277.937,590.996C311.327,594.582,321.253,612.873,326.133,623.576C330.985,634.305,331.420,645.701,324.984,655.887C314.293,670.053,282.686,669.677,267.530,664.948C228.672,652.844,254.334,588.461,277.937,590.996Z"/>
</g>
<g id="left_sole">
<path class="path-0" d="M271.521,681.595C263.975,680.108,259.779,679.437,260.018,678.072C260.755,673.861,271.975,670.534,279.377,668.394C285.563,666.683,303.457,669.218,313.693,669.099C316.617,669.299,324.589,673.812,324.645,674.040C326.112,680.008,313.227,676.912,309.617,677.547C302.668,679.091,272.722,681.226,271.521,681.595M254.887,666.382C252.835,662.882,264.094,654.455,267.496,653.036C299.045,639.883,315.463,648.625,324.241,653.232C327.019,654.685,334.281,660.647,331.557,663.866C328.092,667.961,314.469,657.309,301.095,657.128C277.360,656.638,257.885,671.494,254.887,666.382M338.576,655.796C333.549,646.913,311.219,635.381,282.507,638.240C270.512,639.432,247.722,650.152,245.494,664.347C244.617,670.024,249.689,687.429,254.919,689.516C267.040,694.364,332.337,686.495,336.677,679.881C340.022,674.781,340.239,658.735,338.576,655.796Z"/>
<path class="path-5" d="M260.018,678.072C260.755,673.861,271.975,670.534,279.377,668.394"/>
<path class="path-5" d="M279.377,668.394C285.563,666.683,303.457,669.218,313.693,669.099"/>
<path class="path-5" d="M313.693,669.099C316.617,669.299,324.589,673.812,324.645,674.040"/>
<path class="path-5" d="M324.645,674.040C326.112,680.008,313.227,676.912,309.617,677.547"/>
<path class="path-5" d="M309.617,677.547C302.668,679.091,272.722,681.226,271.521,681.595"/>
<path class="path-5" d="M271.521,681.595C263.975,680.108,259.779,679.437,260.018,678.072"/>
<path class="path-6" d="M260.018,678.072C260.755,673.861,271.975,670.534,279.377,668.394C285.563,666.683,303.457,669.218,313.693,669.099C316.617,669.299,324.589,673.812,324.645,674.040C326.112,680.008,313.227,676.912,309.617,677.547C302.668,679.091,272.722,681.226,271.521,681.595C263.975,680.108,259.779,679.437,260.018,678.072Z"/>
<path class="path-5" d="M267.496,653.036C299.045,639.883,315.463,648.625,324.241,653.232"/>
<path class="path-5" d="M324.241,653.232C327.019,654.685,334.281,660.647,331.557,663.866"/>
<path class="path-5" d="M331.557,663.866C328.092,667.961,314.469,657.309,301.095,657.128"/>
<path class="path-5" d="M301.095,657.128C277.360,656.638,257.885,671.494,254.887,666.382"/>
<path class="path-5" d="M254.887,666.382C252.835,662.882,264.094,654.455,267.496,653.036"/>
<path class="path-6" d="M267.496,653.036C299.045,639.883,315.463,648.625,324.241,653.232C327.019,654.685,334.281,660.647,331.557,663.866C328.092,667.961,314.469,657.309,301.095,657.128C277.360,656.638,257.885,671.494,254.887,666.382C252.835,662.882,264.094,654.455,267.496,653.036Z"/>
</g>
</g>
<g id="hat_brim">
<path class="path-0" d="M302.873,140.109C306.491,134.096,315.364,117.733,323.349,117.679C328.672,117.643,339.716,127.218,345.391,130.174C350.402,133.135,355.743,135.760,361.417,138.383C364.640,140.031,367.867,141.672,371.098,143.308C385.453,150.532,381.503,156.881,373.176,155.605C354.524,152.402,351.539,153.754,333.511,144.560C331.175,143.577,325.164,140.292,324.195,144.622C322.899,149.622,331.911,153.887,335.581,155.525C342.259,159.141,349.606,163.084,357.595,163.695C359.926,164.012,367.906,163.291,369.252,165.612C371.270,168.926,361.681,177.641,359.699,179.650C356.391,182.667,353.086,185.683,349.774,188.035C344.806,191.395,339.503,194.424,333.854,195.461C323.218,196.864,289.845,181.784,288.769,170.147C288.059,163.499,298.923,146.457,302.873,140.109M335.296,113.275C330.277,108.982,326.575,102.685,319.278,106.062C313.970,108.428,308.366,116.118,304.734,120.135C291.205,136.860,279.029,156.573,279.840,178.192C280.265,191.830,284.920,191.467,295.934,196.715C312.624,204.920,333.935,207.438,351.844,199.001C363.452,193.599,383.626,175.497,388.868,163.484C390.504,159.480,393.437,150.478,391.076,145.836C388.377,140.198,366.022,130.700,359.344,127.086C351.330,122.814,342.321,118.882,335.296,113.275Z"/>
<path class="path-9" d="M323.349,117.679C328.672,117.643,339.716,127.218,345.391,130.174"/>
<path class="path-9" d="M345.391,130.174C350.402,133.135,355.743,135.760,361.417,138.383"/>
<path class="path-9" d="M361.417,138.383C364.640,140.031,367.867,141.672,371.098,143.308"/>
<path class="path-9" d="M371.098,143.308C385.453,150.532,381.503,156.881,373.176,155.605"/>
<path class="path-9" d="M373.176,155.605C354.524,152.402,351.539,153.754,333.511,144.560"/>
<path class="path-9" d="M333.511,144.560C331.175,143.577,325.164,140.292,324.195,144.622"/>
<path class="path-9" d="M324.195,144.622C322.899,149.622,331.911,153.887,335.581,155.525"/>
<path class="path-9" d="M335.581,155.525C342.259,159.141,349.606,163.084,357.595,163.695"/>
<path class="path-9" d="M357.595,163.695C359.926,164.012,367.906,163.291,369.252,165.612"/>
<path class="path-9" d="M369.252,165.612C371.270,168.926,361.681,177.641,359.699,179.650"/>
<path class="path-9" d="M359.699,179.650C356.391,182.667,353.086,185.683,349.774,188.035"/>
<path class="path-9" d="M349.774,188.035C344.806,191.395,339.503,194.424,333.854,195.461"/>
<path class="path-9" d="M333.854,195.461C323.218,196.864,289.845,181.784,288.769,170.147"/>
<path class="path-9" d="M288.769,170.147C288.059,163.499,298.923,146.457,302.873,140.109"/>
<path class="path-9" d="M302.873,140.109C306.491,134.096,315.364,117.733,323.349,117.679"/>
<path class="path-10" d="M323.349,117.679C328.672,117.643,339.716,127.218,345.391,130.174C350.402,133.135,355.743,135.760,361.417,138.383C364.640,140.031,367.867,141.672,371.098,143.308C385.453,150.532,381.503,156.881,373.176,155.605C354.524,152.402,351.539,153.754,333.511,144.560C331.175,143.577,325.164,140.292,324.195,144.622C322.899,149.622,331.911,153.887,335.581,155.525C342.259,159.141,349.606,163.084,357.595,163.695C359.926,164.012,367.906,163.291,369.252,165.612C371.270,168.926,361.681,177.641,359.699,179.650C356.391,182.667,353.086,185.683,349.774,188.035C344.806,191.395,339.503,194.424,333.854,195.461C323.218,196.864,289.845,181.784,288.769,170.147C288.059,163.499,298.923,146.457,302.873,140.109C306.491,134.096,315.364,117.733,323.349,117.679Z"/>
</g>
<g id="hair">
<path class="path-0" d="M194.010,142.137C210.394,128.761,230.162,125.899,251.088,123.182C260.467,121.946,267.496,127.771,275.259,133.405C281.663,138.380,288.573,144.012,295.369,149.227C305.594,157.016,309.942,160.995,313.838,164.820C317.138,167.726,322.355,173.237,326.371,175.722C331.215,178.719,341.857,194.959,344.059,196.706C337.649,199.524,327.412,202.094,322.986,206.346C325.150,212.003,326.294,220.966,326.544,223.664C320.400,224.642,312.963,222.484,301.366,221.424C299.681,228.787,300.292,235.488,296.256,243.168C288.372,241.514,282.859,240.106,272.536,236.566C266.449,242.329,264.879,242.059,254.807,249.504C247.354,245.814,241.312,241.708,234.170,239.488C227.681,242.969,217.076,244.936,213.709,248.174C209.292,241.502,205.117,234.072,201.575,231.001C192.194,233.811,188.330,236.791,181.799,239.846C177.108,234.728,179.706,229.932,174.326,222.275C169.909,221.494,163.016,219.479,157.467,219.863C160.897,215.051,162.415,200.113,168.724,197.678C176.508,194.674,170.651,186.023,174.838,177.422C175.865,175.189,186.151,157.885,186.967,155.133C188.553,150.372,190.303,145.314,194.010,142.137M278.737,120.424C265.716,112.116,240.666,109.193,227.127,113.639C214.687,117.569,202.602,122.661,192.212,130.781C186.388,135.268,180.075,141.682,176.510,148.124C169.360,160.655,159.807,187.536,154.197,200.089C149.741,210.482,145.351,217.621,140.698,223.457C158.807,228.330,164.161,230.530,169.458,230.877C170.455,238.574,178.082,243.690,177.589,252.323C186.251,250.261,191.283,247.585,198.917,244.962C203.283,249.254,206.567,255.319,210.890,261.167C218.396,258.413,226.283,258.023,233.423,251.928C239.190,254.454,248.342,258.360,257.757,262.517C265.646,257.399,267.395,256.993,274.719,251.288C284.364,252.799,294.790,257.791,304.216,255.957C302.839,247.859,308.390,241.736,307.233,236.565C314.242,234.025,336.498,235.315,340.224,234.670C339.477,228.665,335.165,217.420,336.106,210.107C342.734,207.717,348.327,205.580,358.484,199.582C354.446,193.212,347.521,185.468,341.649,181.002C336.696,177.274,332.482,172.131,327.510,168.229C310.672,155.234,302.832,135.877,278.737,120.424Z"/>
<path class="path-11" d="M251.088,123.182C260.467,121.946,267.496,127.771,275.259,133.405"/>
<path class="path-11" d="M275.259,133.405C281.663,138.380,288.573,144.012,295.369,149.227"/>
<path class="path-11" d="M295.369,149.227C305.594,157.016,309.942,160.995,313.838,164.820"/>
<path class="path-11" d="M313.838,164.820C317.138,167.726,322.355,173.237,326.371,175.722"/>
<path class="path-11" d="M326.371,175.722C331.215,178.719,341.857,194.959,344.059,196.706"/>
<path class="path-11" d="M344.059,196.706C337.649,199.524,327.412,202.094,322.986,206.346"/>
<path class="path-11" d="M322.986,206.346C325.150,212.003,326.294,220.966,326.544,223.664"/>
<path class="path-11" d="M326.544,223.664C320.400,224.642,312.963,222.484,301.366,221.424"/>
<path class="path-11" d="M301.366,221.424C299.681,228.787,300.292,235.488,296.256,243.168"/>
<path class="path-11" d="M296.256,243.168C288.372,241.514,282.859,240.106,272.536,236.566"/>
<path class="path-11" d="M272.536,236.566C266.449,242.329,264.879,242.059,254.807,249.504"/>
<path class="path-11" d="M254.807,249.504C247.354,245.814,241.312,241.708,234.170,239.488"/>
<path class="path-11" d="M234.170,239.488C227.681,242.969,217.076,244.936,213.709,248.174"/>
<path class="path-11" d="M213.709,248.174C209.292,241.502,205.117,234.072,201.575,231.001"/>
<path class="path-11" d="M201.575,231.001C192.194,233.811,188.330,236.791,181.799,239.846"/>
<path class="path-11" d="M181.799,239.846C177.108,234.728,179.706,229.932,174.326,222.275"/>
<path class="path-11" d="M174.326,222.275C169.909,221.494,163.016,219.479,157.467,219.863"/>
<path class="path-11" d="M157.467,219.863C160.897,215.051,162.415,200.113,168.724,197.678"/>
<path class="path-11" d="M168.724,197.678C176.508,194.674,170.651,186.023,174.838,177.422"/>
<path class="path-11" d="M174.838,177.422C175.865,175.189,186.151,157.885,186.967,155.133"/>
<path class="path-11" d="M186.967,155.133C188.553,150.372,190.303,145.314,194.010,142.137"/>
<path class="path-11" d="M194.010,142.137C210.394,128.761,230.162,125.899,251.088,123.182"/>
<path class="path-12" d="M251.088,123.182C260.467,121.946,267.496,127.771,275.259,133.405C281.663,138.380,288.573,144.012,295.369,149.227C305.594,157.016,309.942,160.995,313.838,164.820C317.138,167.726,322.355,173.237,326.371,175.722C331.215,178.719,341.857,194.959,344.059,196.706C337.649,199.524,327.412,202.094,322.986,206.346C325.150,212.003,326.294,220.966,326.544,223.664C320.400,224.642,312.963,222.484,301.366,221.424C299.681,228.787,300.292,235.488,296.256,243.168C288.372,241.514,282.859,240.106,272.536,236.566C266.449,242.329,264.879,242.059,254.807,249.504C247.354,245.814,241.312,241.708,234.170,239.488C227.681,242.969,217.076,244.936,213.709,248.174C209.292,241.502,205.117,234.072,201.575,231.001C192.194,233.811,188.330,236.791,181.799,239.846C177.108,234.728,179.706,229.932,174.326,222.275C169.909,221.494,163.016,219.479,157.467,219.863C160.897,215.051,162.415,200.113,168.724,197.678C176.508,194.674,170.651,186.023,174.838,177.422C175.865,175.189,186.151,157.885,186.967,155.133C188.553,150.372,190.303,145.314,194.010,142.137C210.394,128.761,230.162,125.899,251.088,123.182Z"/>
</g>
<g id="clothes">
<path class="path-0" d="M248.855,367.705C243.630,365.602,223.735,366.285,220.178,370.922C217.948,374.017,221.145,375.837,224.453,376.121C228.455,376.464,249.554,376.355,252.367,374.731C256.798,372.102,251.013,368.466,248.855,367.705M205.052,263.481C209.128,251.190,237.073,240.744,249.866,242.891C258.791,244.362,285.826,260.885,289.064,269.567C291.784,276.516,290.550,301.209,290.103,309.550C289.003,324.820,288.463,340.175,288.011,355.479C288.232,367.535,297.082,381.259,290.775,391.536C288.215,394.690,278.347,394.195,273.929,394.866C268.189,396.018,257.277,400.607,251.890,400.399C229.165,400.139,231.324,402.303,210.040,401.183C205.903,400.807,192.566,398.763,190.062,396.698C184.371,390.785,188.122,382.144,190.149,374.506C194.317,361.033,196.163,351.581,198.593,336.823C201.100,320.950,204.479,304.012,205.975,287.470C206.181,281.509,204.074,267.048,205.052,263.481M285.126,252.079C269.701,240.984,254.444,231.600,234.334,235.520C228.924,236.374,201.312,246.926,198.714,250.039C194.652,254.991,196.663,275.355,196.028,282.586C195.606,291.196,195.081,300.134,193.642,308.319C192.720,314.576,190.849,320.073,190.278,326.029C189.312,332.615,188.724,339.776,187.047,345.756C182.209,362.550,168.165,395.669,187.802,408.485C192.355,411.480,199.152,411.582,204.890,412.035C214.796,412.627,225.436,413.486,235.458,412.462C247.888,411.538,259.849,406.962,272.459,406.609C278.850,406.432,298.411,414.290,303.367,409.702C305.751,407.593,306.937,393.562,306.662,389.976C304.991,376.574,298.931,363.857,297.865,350.394C297.252,338.426,297.835,326.659,299.647,314.462C300.916,304.519,303.471,295.028,304.387,284.716C304.438,280.346,305.550,275.065,303.594,270.518C300.303,262.178,292.062,257.059,285.126,252.079Z"/>
<path class="path-13" d="M248.855,367.705C243.630,365.602,223.735,366.285,220.178,370.922"/>
<path class="path-13" d="M220.178,370.922C217.948,374.017,221.145,375.837,224.453,376.121"/>
<path class="path-13" d="M224.453,376.121C228.455,376.464,249.554,376.355,252.367,374.731"/>
<path class="path-13" d="M252.367,374.731C256.798,372.102,251.013,368.466,248.855,367.705"/>
<path class="path-13" d="M205.052,263.481C209.128,251.190,237.073,240.744,249.866,242.891"/>
<path class="path-13" d="M249.866,242.891C258.791,244.362,285.826,260.885,289.064,269.567"/>
<path class="path-13" d="M289.064,269.567C291.784,276.516,290.550,301.209,290.103,309.550"/>
<path class="path-13" d="M290.103,309.550C289.003,324.820,288.463,340.175,288.011,355.479"/>
<path class="path-13" d="M288.011,355.479C288.232,367.535,297.082,381.259,290.775,391.536"/>
<path class="path-13" d="M290.775,391.536C288.215,394.690,278.347,394.195,273.929,394.866"/>
<path class="path-13" d="M273.929,394.866C268.189,396.018,257.277,400.607,251.890,400.399"/>
<path class="path-13" d="M251.890,400.399C229.165,400.139,231.324,402.303,210.040,401.183"/>
<path class="path-13" d="M210.040,401.183C205.903,400.807,192.566,398.763,190.062,396.698"/>
<path class="path-13" d="M190.062,396.698C184.371,390.785,188.122,382.144,190.149,374.506"/>
<path class="path-13" d="M190.149,374.506C194.317,361.033,196.163,351.581,198.593,336.823"/>
<path class="path-13" d="M198.593,336.823C201.100,320.950,204.479,304.012,205.975,287.470"/>
<path class="path-13" d="M205.975,287.470C206.181,281.509,204.074,267.048,205.052,263.481"/>
<path class="path-14" d="M248.855,367.705C243.630,365.602,223.735,366.285,220.178,370.922C217.948,374.017,221.145,375.837,224.453,376.121C228.455,376.464,249.554,376.355,252.367,374.731C256.798,372.102,251.013,368.466,248.855,367.705M205.052,263.481C209.128,251.190,237.073,240.744,249.866,242.891C258.791,244.362,285.826,260.885,289.064,269.567C291.784,276.516,290.550,301.209,290.103,309.550C289.003,324.820,288.463,340.175,288.011,355.479C288.232,367.535,297.082,381.259,290.775,391.536C288.215,394.690,278.347,394.195,273.929,394.866C268.189,396.018,257.277,400.607,251.890,400.399C229.165,400.139,231.324,402.303,210.040,401.183C205.903,400.807,192.566,398.763,190.062,396.698C184.371,390.785,188.122,382.144,190.149,374.506C194.317,361.033,196.163,351.581,198.593,336.823C201.100,320.950,204.479,304.012,205.975,287.470C206.181,281.509,204.074,267.048,205.052,263.481Z"/>
</g>
<g id="neck">
<path class="path-0" d="M242.148,223.976C242.422,220.643,243.366,217.631,247.019,217.232C258.625,215.028,258.301,252.635,247.657,252.826C237.678,253.005,241.597,230.307,242.148,223.976M246.852,207.919C244.186,207.634,241.204,208.352,238.898,209.725C229.667,214.549,231.153,223.174,231.308,231.822C231.052,236.153,231.458,240.139,229.528,243.834C227.925,247.191,223.325,250.599,223.391,254.260C223.903,264.233,250.848,263.750,257.828,263.291C260.488,263.243,269.487,264.080,270.419,260.404C270.401,259.406,263.540,247.881,262.459,243.243C259.215,229.326,268.160,208.536,246.852,207.919Z"/>
<path class="path-15" d="M247.019,217.232C258.625,215.028,258.301,252.635,247.657,252.826"/>
<path class="path-15" d="M247.657,252.826C237.678,253.005,241.597,230.307,242.148,223.976"/>
<path class="path-15" d="M242.148,223.976C242.422,220.643,243.366,217.631,247.019,217.232"/>
<path class="path-16" d="M247.019,217.232C258.625,215.028,258.301,252.635,247.657,252.826C237.678,253.005,241.597,230.307,242.148,223.976C242.422,220.643,243.366,217.631,247.019,217.232Z"/>
</g>
<g id="layer_head">
<g id="right_ear">
<path class="path-0" d="M159.004,196.057C147.747,198.189,132.637,161.345,148.715,165.116C153.489,166.225,156.135,174.678,157.049,178.298C158.728,184.578,166.718,194.634,159.004,196.057M154.713,153.142C151.327,151.260,147.237,150.443,143.744,152.118C133.909,155.034,130.124,167.178,131.814,177.350C134.019,189.794,146.018,204.848,157.434,207.608C160.579,208.385,167.066,210.591,170.148,209.105C176.696,205.434,171.568,195.224,169.773,189.613C167.798,182.939,159.914,157.324,154.713,153.142Z"/>
<path class="path-15" d="M148.715,165.116C153.489,166.225,156.135,174.678,157.049,178.298"/>
<path class="path-15" d="M157.049,178.298C158.728,184.578,166.718,194.634,159.004,196.057"/>
<path class="path-15" d="M159.004,196.057C147.747,198.189,132.637,161.345,148.715,165.116"/>
<path class="path-16" d="M148.715,165.116C153.489,166.225,156.135,174.678,157.049,178.298C158.728,184.578,166.718,194.634,159.004,196.057C147.747,198.189,132.637,161.345,148.715,165.116Z"/>
</g>
<g id="face_Mask">
<g id="face">
<path class="path-0" d="M171.860,106.958C180.276,96.452,212.996,89.046,226.622,86.958C241.912,84.859,257.564,87.082,272.566,91.638C277.901,93.267,285.661,95.093,290.247,98.839C297.832,105.082,301.756,116.458,304.466,125.499C306.590,131.974,310.678,140.402,309.370,146.708C303.710,174.000,298.075,186.217,292.961,193.990C286.382,203.990,274.158,208.332,263.551,213.655C247.785,221.286,231.530,225.795,222.920,225.449C210.436,224.948,183.735,216.961,175.107,208.680C167.365,200.967,167.038,190.120,164.655,179.928C162.386,171.416,159.528,158.391,158.455,149.827C157.235,138.663,164.933,115.526,171.860,106.958M294.213,91.137C280.592,78.921,244.228,76.442,226.612,79.205C218.300,80.251,210.318,80.963,202.679,83.006C197.030,84.706,192.053,87.398,186.737,89.097C175.120,93.500,170.299,92.093,162.542,102.911C156.969,110.483,149.196,140.178,149.417,149.419C149.706,156.389,153.388,172.841,154.905,180.820C156.635,190.212,158.771,203.120,163.886,210.782C168.391,217.323,174.405,221.863,184.575,226.378C196.848,231.827,210.960,235.440,224.743,236.565C232.876,237.732,248.613,233.152,269.796,222.204C281.258,216.097,292.874,209.413,300.383,197.761C308.494,185.174,315.115,167.372,320.615,146.188C325.793,126.246,302.597,98.492,294.213,91.137Z"/>
<path class="path-15" d="M226.622,86.958C241.912,84.859,257.564,87.082,272.566,91.638"/>
<path class="path-15" d="M272.566,91.638C277.901,93.267,285.661,95.093,290.247,98.839"/>
<path class="path-15" d="M290.247,98.839C297.832,105.082,301.756,116.458,304.466,125.499"/>
<path class="path-15" d="M304.466,125.499C306.590,131.974,310.678,140.402,309.370,146.708"/>
<path class="path-15" d="M309.370,146.708C303.710,174.000,298.075,186.217,292.961,193.990"/>
<path class="path-15" d="M292.961,193.990C286.382,203.990,274.158,208.332,263.551,213.655"/>
<path class="path-15" d="M263.551,213.655C247.785,221.286,231.530,225.795,222.920,225.449"/>
<path class="path-15" d="M222.920,225.449C210.436,224.948,183.735,216.961,175.107,208.680"/>
<path class="path-15" d="M175.107,208.680C167.365,200.967,167.038,190.120,164.655,179.928"/>
<path class="path-15" d="M164.655,179.928C162.386,171.416,159.528,158.391,158.455,149.827"/>
<path class="path-15" d="M158.455,149.827C157.235,138.663,164.933,115.526,171.860,106.958"/>
<path class="path-15" d="M171.860,106.958C180.276,96.452,212.996,89.046,226.622,86.958"/>
<path class="path-16" d="M226.622,86.958C241.912,84.859,257.564,87.082,272.566,91.638C277.901,93.267,285.661,95.093,290.247,98.839C297.832,105.082,301.756,116.458,304.466,125.499C306.590,131.974,310.678,140.402,309.370,146.708C303.710,174.000,298.075,186.217,292.961,193.990C286.382,203.990,274.158,208.332,263.551,213.655C247.785,221.286,231.530,225.795,222.920,225.449C210.436,224.948,183.735,216.961,175.107,208.680C167.365,200.967,167.038,190.120,164.655,179.928C162.386,171.416,159.528,158.391,158.455,149.827C157.235,138.663,164.933,115.526,171.860,106.958C180.276,96.452,212.996,89.046,226.622,86.958Z"/>
</g>
</g>
<mask id="mask_target" style="mask-type:alpha;">
<use xlink:href="#face_Mask"/>
</mask>
<g id="mouse">
<path class="path-0" d="M225.347,215.801C230.558,216.869,230.674,221.622,230.204,222.132C229.939,222.420,228.810,221.476,225.846,221.010C220.234,220.125,217.536,221.316,217.334,220.603C217.112,219.822,219.246,214.550,225.347,215.801Z"/>
</g>
<g id="layer_eyes_Mtarget" mask="url(#mask_target)">
<g id="eyes">
<mask style="mask-type:alpha;" id="f3906406-f197-4bf1-91d8-744c09cca836">
<use xlink:href="#cmn_f3906406-f197-4bf1-91d8-744c09cca836"/>
</mask>
<g id="cmn_f3906406-f197-4bf1-91d8-744c09cca836">
<path class="path-0" d="M195.360,176.688C197.737,186.336,191.442,194.060,184.196,193.677C178.437,193.268,175.039,187.407,173.212,181.793C171.963,178.417,167.534,162.472,172.130,164.934C174.996,166.470,194.612,173.653,195.360,176.688M202.703,179.925C203.291,178.359,204.050,175.994,203.520,174.407C203.002,172.858,201.305,170.707,199.654,170.574C195.305,170.130,181.016,162.478,175.594,160.288C171.426,158.673,160.926,152.421,157.496,155.976C153.393,160.107,159.565,163.154,161.640,171.002C165.364,185.090,176.779,201.341,187.852,200.095C199.171,198.821,200.061,186.960,202.703,179.925M246.630,190.540C239.276,190.394,229.270,184.919,229.512,173.460C229.582,170.188,242.964,165.362,248.962,162.325C255.173,159.179,266.990,152.835,270.179,152.921C273.675,153.436,272.151,156.493,272.294,166.146C272.440,176.096,259.634,190.799,246.630,190.540M279.214,172.418C282.920,160.580,282.507,144.293,280.185,143.207C274.986,140.774,261.446,150.266,253.562,153.648C243.809,157.833,228.236,166.769,221.527,168.660C219.405,169.341,217.470,169.837,217.142,171.344C216.524,174.179,221.796,176.265,223.666,178.484C226.740,182.130,228.385,188.345,233.364,191.081C243.793,197.240,251.401,195.888,263.211,191.461C270.752,188.656,277.047,179.340,279.214,172.418Z"/>
<path class="path-17" d="M270.179,152.921C273.675,153.436,272.151,156.493,272.294,166.146"/>
<path class="path-17" d="M272.294,166.146C272.440,176.096,259.634,190.799,246.630,190.540"/>
<path class="path-17" d="M246.630,190.540C239.276,190.394,229.270,184.919,229.512,173.460"/>
<path class="path-17" d="M229.512,173.460C229.582,170.188,242.964,165.362,248.962,162.325"/>
<path class="path-17" d="M248.962,162.325C255.173,159.179,266.990,152.835,270.179,152.921"/>
<path class="path-18" d="M270.179,152.921C273.675,153.436,272.151,156.493,272.294,166.146C272.440,176.096,259.634,190.799,246.630,190.540C239.276,190.394,229.270,184.919,229.512,173.460C229.582,170.188,242.964,165.362,248.962,162.325C255.173,159.179,266.990,152.835,270.179,152.921Z"/>
<path class="path-17" d="M172.130,164.934C174.996,166.470,194.612,173.653,195.360,176.688"/>
<path class="path-17" d="M195.360,176.688C197.737,186.336,191.442,194.060,184.196,193.677"/>
<path class="path-17" d="M184.196,193.677C178.437,193.268,175.039,187.407,173.212,181.793"/>
<path class="path-17" d="M173.212,181.793C171.963,178.417,167.534,162.472,172.130,164.934"/>
<path class="path-18" d="M172.130,164.934C174.996,166.470,194.612,173.653,195.360,176.688C197.737,186.336,191.442,194.060,184.196,193.677C178.437,193.268,175.039,187.407,173.212,181.793C171.963,178.417,167.534,162.472,172.130,164.934Z"/>
</g>
</g>
<g id="pupil">
<path class="path-0" d="M230.338,167.909C232.719,167.328,235.526,170.965,236.256,179.775C236.726,185.437,235.586,187.747,234.032,188.002C232.145,188.312,230.471,185.653,229.142,178.885C227.724,171.662,228.356,168.392,230.338,167.909Z" mask="url(#f3906406-f197-4bf1-91d8-744c09cca836)"/>
<path class="path-0" d="M174.759,168.862C176.881,168.449,178.562,171.835,179.961,179.768C180.983,185.563,180.787,188.157,179.262,188.566C177.726,188.979,175.941,186.907,174.246,181.229C171.887,173.322,172.585,169.285,174.759,168.862Z" mask="url(#f3906406-f197-4bf1-91d8-744c09cca836)"/>
</g>
</g>
<g id="hat">
<path class="path-0" d="M309.849,127.286C312.015,128.317,314.807,130.904,315.236,133.554C316.837,139.990,305.738,140.121,302.329,140.537C296.012,140.673,289.412,140.305,283.377,140.169C277.565,140.565,271.735,140.493,265.913,140.664C252.658,140.021,239.464,138.661,226.214,137.998C212.956,137.857,200.134,137.264,186.471,137.072C184.765,137.094,155.737,140.368,150.499,138.016C139.700,133.285,149.803,124.465,149.167,119.301C149.027,116.253,142.562,115.489,144.112,110.188C145.539,105.578,161.371,101.326,166.169,100.160C177.426,97.359,189.124,94.190,201.141,92.680C216.949,90.782,232.574,91.619,248.587,90.781C265.552,89.986,302.215,94.961,314.016,111.607C320.539,120.631,302.620,112.746,300.645,112.342C294.480,109.616,271.382,100.820,280.717,111.298C285.966,118.498,302.816,123.200,309.849,127.286M194.273,86.054C183.234,87.525,173.098,88.366,162.688,90.691C158.448,91.627,153.483,93.506,149.419,92.589C140.550,90.714,151.588,68.146,155.524,62.952C170.143,44.145,200.235,34.669,225.271,35.065C271.360,35.793,289.293,44.679,303.654,60.972C308.172,65.728,323.179,88.801,314.151,94.832C310.867,96.729,304.954,93.181,302.060,91.810C292.029,87.316,239.356,80.042,194.273,86.054M266.799,30.207C253.930,27.412,248.073,23.302,233.083,23.835C202.082,25.257,163.151,30.694,144.512,59.685C138.643,69.044,137.749,79.559,135.316,89.547C133.466,96.993,128.812,102.550,129.282,110.119C129.927,117.357,133.394,119.056,135.185,124.764C137.273,130.836,134.908,133.461,136.105,137.413C138.381,148.756,148.814,149.321,158.383,149.637C163.082,149.794,180.429,149.380,189.877,149.265C201.134,149.128,216.143,148.831,227.401,148.794C237.366,148.761,250.653,149.052,260.618,148.985C269.833,148.924,282.132,148.973,291.330,148.403C300.904,147.810,321.997,146.184,323.129,145.050C325.044,143.167,329.226,124.606,329.426,121.115C329.637,117.425,327.988,113.642,328.410,107.724C329.043,94.651,329.604,82.719,323.542,69.844C312.504,46.920,288.446,35.292,266.799,30.207Z"/>
<path class="path-19" d="M248.587,90.781C265.552,89.986,302.215,94.961,314.016,111.607"/>
<path class="path-19" d="M314.016,111.607C320.539,120.631,302.620,112.746,300.645,112.342"/>
<path class="path-19" d="M300.645,112.342C294.480,109.616,271.382,100.820,280.717,111.298"/>
<path class="path-19" d="M280.717,111.298C285.966,118.498,302.816,123.200,309.849,127.286"/>
<path class="path-19" d="M309.849,127.286C312.015,128.317,314.807,130.904,315.236,133.554"/>
<path class="path-19" d="M315.236,133.554C316.837,139.990,305.738,140.121,302.329,140.537"/>
<path class="path-19" d="M302.329,140.537C296.012,140.673,289.412,140.305,283.377,140.169"/>
<path class="path-19" d="M283.377,140.169C277.565,140.565,271.735,140.493,265.913,140.664"/>
<path class="path-19" d="M265.913,140.664C252.658,140.021,239.464,138.661,226.214,137.998"/>
<path class="path-19" d="M226.214,137.998C212.956,137.857,200.134,137.264,186.471,137.072"/>
<path class="path-19" d="M186.471,137.072C184.765,137.094,155.737,140.368,150.499,138.016"/>
<path class="path-19" d="M150.499,138.016C139.700,133.285,149.803,124.465,149.167,119.301"/>
<path class="path-19" d="M149.167,119.301C149.027,116.253,142.562,115.489,144.112,110.188"/>
<path class="path-19" d="M144.112,110.188C145.539,105.578,161.371,101.326,166.169,100.160"/>
<path class="path-19" d="M166.169,100.160C177.426,97.359,189.124,94.190,201.141,92.680"/>
<path class="path-19" d="M201.141,92.680C216.949,90.782,232.574,91.619,248.587,90.781"/>
<path class="path-20" d="M248.587,90.781C265.552,89.986,302.215,94.961,314.016,111.607C320.539,120.631,302.620,112.746,300.645,112.342C294.480,109.616,271.382,100.820,280.717,111.298C285.966,118.498,302.816,123.200,309.849,127.286C312.015,128.317,314.807,130.904,315.236,133.554C316.837,139.990,305.738,140.121,302.329,140.537C296.012,140.673,289.412,140.305,283.377,140.169C277.565,140.565,271.735,140.493,265.913,140.664C252.658,140.021,239.464,138.661,226.214,137.998C212.956,137.857,200.134,137.264,186.471,137.072C184.765,137.094,155.737,140.368,150.499,138.016C139.700,133.285,149.803,124.465,149.167,119.301C149.027,116.253,142.562,115.489,144.112,110.188C145.539,105.578,161.371,101.326,166.169,100.160C177.426,97.359,189.124,94.190,201.141,92.680C216.949,90.782,232.574,91.619,248.587,90.781Z"/>
<path class="path-9" d="M225.271,35.065C271.360,35.793,289.293,44.679,303.654,60.972"/>
<path class="path-9" d="M303.654,60.972C308.172,65.728,323.179,88.801,314.151,94.832"/>
<path class="path-9" d="M314.151,94.832C310.867,96.729,304.954,93.181,302.060,91.810"/>
<path class="path-9" d="M302.060,91.810C292.029,87.316,239.356,80.042,194.273,86.054"/>
<path class="path-9" d="M194.273,86.054C183.234,87.525,173.098,88.366,162.688,90.691"/>
<path class="path-9" d="M162.688,90.691C158.448,91.627,153.483,93.506,149.419,92.589"/>
<path class="path-9" d="M149.419,92.589C140.550,90.714,151.588,68.146,155.524,62.952"/>
<path class="path-9" d="M155.524,62.952C170.143,44.145,200.235,34.669,225.271,35.065"/>
<path class="path-10" d="M225.271,35.065C271.360,35.793,289.293,44.679,303.654,60.972C308.172,65.728,323.179,88.801,314.151,94.832C310.867,96.729,304.954,93.181,302.060,91.810C292.029,87.316,239.356,80.042,194.273,86.054C183.234,87.525,173.098,88.366,162.688,90.691C158.448,91.627,153.483,93.506,149.419,92.589C140.550,90.714,151.588,68.146,155.524,62.952C170.143,44.145,200.235,34.669,225.271,35.065Z"/>
</g>
<g id="left_ear">
<path class="path-0" d="M297.839,186.446C296.352,181.622,299.412,155.454,301.622,151.678C307.207,141.848,324.380,150.712,327.947,158.794C331.821,168.084,322.404,182.861,314.738,189.383C307.310,195.511,300.380,194.397,297.839,186.446M340.989,161.920C339.426,147.529,321.947,132.698,309.241,139.389C293.829,147.505,300.012,170.212,297.892,184.474C297.435,188.227,294.940,192.142,295.824,195.629C298.153,205.487,308.452,206.595,316.889,198.843C326.400,189.924,342.066,175.733,340.989,161.920Z"/>
<path class="path-15" d="M301.622,151.678C307.207,141.848,324.380,150.712,327.947,158.794"/>
<path class="path-15" d="M327.947,158.794C331.821,168.084,322.404,182.861,314.738,189.383"/>
<path class="path-15" d="M314.738,189.383C307.310,195.511,300.380,194.397,297.839,186.446"/>
<path class="path-15" d="M297.839,186.446C296.352,181.622,299.412,155.454,301.622,151.678"/>
<path class="path-16" d="M301.622,151.678C307.207,141.848,324.380,150.712,327.947,158.794C331.821,168.084,322.404,182.861,314.738,189.383C307.310,195.511,300.380,194.397,297.839,186.446C296.352,181.622,299.412,155.454,301.622,151.678Z"/>
</g>
<g id="earrings">
<path class="path-0" d="M319.971,206.796C311.230,210.655,309.258,191.935,312.816,192.268C317.809,193.967,324.641,202.709,319.971,206.796M329.301,198.468C322.575,198.747,319.510,189.755,318.977,185.908C326.556,187.577,336.089,193.209,329.301,198.468M339.328,194.503C336.730,186.456,324.701,181.840,316.874,178.684C314.019,177.533,306.468,187.729,306.158,190.951C305.148,194.978,307.408,216.959,321.066,214.136C326.725,212.704,341.419,200.981,339.328,194.503Z"/>
<path class="path-21" d="M318.977,185.908C326.556,187.577,336.089,193.209,329.301,198.468"/>
<path class="path-21" d="M329.301,198.468C322.575,198.747,319.510,189.755,318.977,185.908"/>
<path class="path-22" d="M318.977,185.908C326.556,187.577,336.089,193.209,329.301,198.468C322.575,198.747,319.510,189.755,318.977,185.908Z"/>
<path class="path-21" d="M312.816,192.268C317.809,193.967,324.641,202.709,319.971,206.796"/>
<path class="path-21" d="M319.971,206.796C311.230,210.655,309.258,191.935,312.816,192.268"/>
<path class="path-22" d="M312.816,192.268C317.809,193.967,324.641,202.709,319.971,206.796C311.230,210.655,309.258,191.935,312.816,192.268Z"/>
</g>
</g>
<g id="left_arm">
<path class="path-0" d="M314.410,463.206C318.783,456.811,325.918,463.670,334.638,468.292C336.835,469.435,348.083,466.734,349.791,468.568C352.950,471.637,348.510,477.652,344.355,478.877C334.265,481.359,308.991,471.316,314.410,463.206M294.277,282.757C294.912,279.503,302.593,268.732,307.696,269.470C310.659,269.899,312.435,274.784,313.631,277.364C316.910,285.456,320.276,293.861,323.190,302.332C331.108,324.667,335.548,347.577,342.674,369.763C345.409,379.121,348.982,390.906,352.334,399.505C355.673,407.777,359.659,406.399,361.883,411.944C363.029,415.014,362.735,420.579,364.831,425.192C367.982,432.446,373.722,436.316,376.482,440.914C378.204,443.539,378.616,445.601,375.289,447.264C373.187,449.211,367.397,452.393,365.098,453.526C357.235,455.105,349.055,457.098,341.152,455.767C332.280,454.659,308.185,445.185,303.893,439.192C296.217,428.073,306.249,415.317,307.463,404.464C308.035,401.458,312.463,357.667,311.745,354.748C310.859,347.994,306.634,342.360,304.574,335.501C302.236,326.109,299.815,316.070,297.719,306.257C296.145,298.114,292.153,291.586,294.277,282.757M318.580,258.973C315.909,254.502,307.983,246.761,302.111,248.538C297.235,250.241,297.024,256.263,296.659,260.294C295.753,270.372,294.389,278.817,295.115,288.437C295.309,295.428,296.457,301.681,297.613,308.266C298.943,317.347,298.422,335.083,299.352,345.508C299.907,355.104,302.613,364.949,302.217,373.253C300.866,392.799,292.679,411.443,293.762,430.917C293.976,440.788,296.630,440.724,299.112,448.570C300.909,454.519,299.710,460.870,302.159,466.474C308.468,481.313,326.058,494.577,342.950,490.887C358.518,487.557,358.819,470.579,366.940,461.420C374.087,453.279,388.808,456.956,390.624,448.597C392.470,441.569,382.272,434.386,378.887,428.883C372.598,419.328,378.798,417.370,376.178,409.982C374.281,404.525,368.554,398.848,364.841,392.256C362.379,388.578,359.336,382.125,357.174,377.437C353.059,367.541,349.565,355.890,346.824,345.051C343.977,332.740,342.241,321.748,337.724,309.241C334.126,298.875,323.852,266.915,318.580,258.973Z"/>
<path class="path-1" d="M307.696,269.470C310.659,269.899,312.435,274.784,313.631,277.364"/>
<path class="path-1" d="M313.631,277.364C316.910,285.456,320.276,293.861,323.190,302.332"/>
<path class="path-1" d="M323.190,302.332C331.108,324.667,335.548,347.577,342.674,369.763"/>
<path class="path-1" d="M342.674,369.763C345.409,379.121,348.982,390.906,352.334,399.505"/>
<path class="path-1" d="M352.334,399.505C355.673,407.777,359.659,406.399,361.883,411.944"/>
<path class="path-1" d="M361.883,411.944C363.029,415.014,362.735,420.579,364.831,425.192"/>
<path class="path-1" d="M364.831,425.192C367.982,432.446,373.722,436.316,376.482,440.914"/>
<path class="path-1" d="M376.482,440.914C378.204,443.539,378.616,445.601,375.289,447.264"/>
<path class="path-1" d="M375.289,447.264C373.187,449.211,367.397,452.393,365.098,453.526"/>
<path class="path-1" d="M365.098,453.526C357.235,455.105,349.055,457.098,341.152,455.767"/>
<path class="path-1" d="M341.152,455.767C332.280,454.659,308.185,445.185,303.893,439.192"/>
<path class="path-1" d="M303.893,439.192C296.217,428.073,306.249,415.317,307.463,404.464"/>
<path class="path-1" d="M307.463,404.464C308.035,401.458,312.463,357.667,311.745,354.748"/>
<path class="path-1" d="M311.745,354.748C310.859,347.994,306.634,342.360,304.574,335.501"/>
<path class="path-1" d="M304.574,335.501C302.236,326.109,299.815,316.070,297.719,306.257"/>
<path class="path-1" d="M297.719,306.257C296.145,298.114,292.153,291.586,294.277,282.757"/>
<path class="path-1" d="M294.277,282.757C294.912,279.503,302.593,268.732,307.696,269.470"/>
<path class="path-2" d="M307.696,269.470C310.659,269.899,312.435,274.784,313.631,277.364C316.910,285.456,320.276,293.861,323.190,302.332C331.108,324.667,335.548,347.577,342.674,369.763C345.409,379.121,348.982,390.906,352.334,399.505C355.673,407.777,359.659,406.399,361.883,411.944C363.029,415.014,362.735,420.579,364.831,425.192C367.982,432.446,373.722,436.316,376.482,440.914C378.204,443.539,378.616,445.601,375.289,447.264C373.187,449.211,367.397,452.393,365.098,453.526C357.235,455.105,349.055,457.098,341.152,455.767C332.280,454.659,308.185,445.185,303.893,439.192C296.217,428.073,306.249,415.317,307.463,404.464C308.035,401.458,312.463,357.667,311.745,354.748C310.859,347.994,306.634,342.360,304.574,335.501C302.236,326.109,299.815,316.070,297.719,306.257C296.145,298.114,292.153,291.586,294.277,282.757C294.912,279.503,302.593,268.732,307.696,269.470Z"/>
<path class="path-15" d="M334.638,468.292C336.835,469.435,348.083,466.734,349.791,468.568"/>
<path class="path-15" d="M349.791,468.568C352.950,471.637,348.510,477.652,344.355,478.877"/>
<path class="path-15" d="M344.355,478.877C334.265,481.359,308.991,471.316,314.410,463.206"/>
<path class="path-15" d="M314.410,463.206C318.783,456.811,325.918,463.670,334.638,468.292"/>
<path class="path-16" d="M334.638,468.292C336.835,469.435,348.083,466.734,349.791,468.568C352.950,471.637,348.510,477.652,344.355,478.877C334.265,481.359,308.991,471.316,314.410,463.206C318.783,456.811,325.918,463.670,334.638,468.292Z"/>
</g>
<g id="bone">
<g id="bone_B20">
<path class="path-23" d="M235.486,134.663C233.412,122.866,231.339,111.070,229.266,99.274"/>
</g>
<g id="bone_">
<path class="path-23" d="M552.381,338.786C566.537,319.428,580.694,300.070,594.850,280.713"/>
</g>
<g id="bone_">
<path class="path-23" d="M496.479,337.308C496.479,313.696,496.479,290.084,496.479,266.472"/>
</g>
<g id="bone_">
<path class="path-23" d="M436.410,337.308C454.678,322.348,472.946,307.387,491.214,292.426"/>
</g>
<g id="bone_">
<path class="path-23" d="M604.616,215.385C585.454,229.182,566.292,242.979,547.130,256.776"/>
</g>
<g id="bone_">
<path class="path-23" d="M436.410,216.411C430.174,239.184,423.937,261.958,417.700,284.731"/>
</g>
<g id="bone_">
<path class="path-23" d="M551.282,215.385C527.868,212.336,504.454,209.287,481.039,206.238"/>
</g>
<g id="bone_">
<path class="path-23" d="M495.897,216.411C474.729,226.872,453.561,237.334,432.393,247.795"/>
</g>
<g id="bone_B18">
<path class="path-23" d="M217.845,387.681C215.437,419.989,213.030,452.297,210.623,484.605"/>
</g>
<g id="bone_B17">
<path class="path-23" d="M263.999,387.681C268.956,420.686,273.913,453.690,278.871,486.695"/>
</g>
<g id="bone_B16">
<path class="path-23" d="M239.922,159.897C246.431,183.993,252.939,208.089,259.448,232.185"/>
</g>
<g id="bone_B14">
<path class="path-23" d="M157.825,377.656C164.965,395.411,172.106,413.165,179.246,430.919"/>
</g>
<g id="bone_B13">
<path class="path-23" d="M190.485,268.750C179.598,305.052,168.711,341.354,157.825,377.657"/>
</g>
<g id="bone_B11">
<path class="path-23" d="M326.283,352.842C329.147,374.666,332.010,396.489,334.873,418.313"/>
</g>
<g id="bone_B9">
<path class="path-23" d="M304.069,262.977C311.474,292.932,318.879,322.887,326.283,352.842"/>
</g>
<g id="bone_B5">
<path class="path-23" d="M249.351,213.546C244.729,187.252,240.108,160.957,235.486,134.663"/>
</g>
<g id="bone_B4">
<path class="path-23" d="M248.055,255.627C248.487,241.600,248.919,227.573,249.351,213.546"/>
</g>
<g id="bone_B3">
<path class="path-23" d="M247.653,328.627C247.787,304.294,247.921,279.961,248.055,255.627"/>
</g>
<g id="bone_B2">
<path class="path-23" d="M240.409,387.681C242.824,367.996,245.238,348.312,247.653,328.627"/>
</g>
<g id="bone_B1">
<path class="path-23" d="M240.409,387.681C252.386,387.681,264.363,387.681,276.340,387.681"/>
</g>
</g>
<g id="jacket">
<path class="path-0" d="M215.992,269.098C217.799,273.896,212.059,283.348,211.030,287.936C204.854,305.518,196.108,322.433,196.463,340.631C196.748,346.367,200.762,358.813,195.457,362.870C193.677,364.232,188.865,361.293,187.989,362.681C186.239,365.443,182.418,355.635,181.769,354.197C181.108,352.734,179.215,344.146,179.132,341.714C179.264,337.026,180.301,327.926,181.323,322.100C182.395,316.257,182.558,309.928,185.225,303.944C187.608,297.196,192.178,289.845,194.733,282.282C197.406,277.650,201.275,275.208,200.931,271.443C200.242,267.722,198.481,265.698,201.803,264.239C205.930,262.765,215.430,264.084,215.992,269.098M278.349,276.410C279.901,275.239,293.919,270.116,295.640,269.484C308.463,265.452,311.349,280.242,310.937,288.144C310.805,291.519,309.666,303.288,309.871,305.703C310.008,310.911,312.396,314.504,312.445,318.973C311.998,330.776,313.960,323.634,311.161,333.504C310.502,335.819,308.540,340.500,307.393,342.563C306.108,344.582,302.200,348.228,301.067,350.165C297.908,354.618,296.475,360.599,288.550,361.802C287.243,362.168,275.168,368.457,273.045,369.415C269.085,370.950,264.098,373.710,260.458,370.955C256.017,367.197,256.713,359.185,256.011,352.988C254.240,339.375,256.725,325.593,260.416,312.314C262.911,301.600,269.888,284.314,278.349,276.410M292.098,260.508C289.129,262.132,282.819,262.158,280.980,262.408C277.169,262.721,276.763,259.485,276.610,256.803C276.513,252.313,279.911,245.982,283.370,242.887C286.110,240.435,290.809,238.412,294.841,238.573C298.682,238.589,304.965,241.889,304.222,246.196C303.897,249.203,297.035,257.808,292.098,260.508M219.324,241.590C223.570,250.771,228.217,260.173,223.003,259.011C216.959,257.663,213.927,257.424,204.525,253.173C194.160,248.486,192.090,233.233,198.188,228.747C204.164,224.349,214.371,230.878,219.324,241.590M318.062,349.824C320.079,344.809,322.415,341.588,322.668,335.951C322.836,331.147,322.140,325.475,320.226,321.092C316.367,312.845,314.487,309.703,309.743,300.557C307.846,297.049,305.484,294.462,305.158,290.649C304.733,287.341,305.301,270.186,306.375,267.338C307.465,262.200,313.268,259.189,314.764,254.592C316.102,250.888,317.541,246.932,317.265,243.004C317.196,237.838,312.871,234.088,309.356,231.018C304.295,227.099,299.265,226.616,292.725,226.902C283.071,227.337,277.025,235.596,272.727,241.697C266.661,250.306,266.776,265.567,263.357,275.528C261.392,281.250,257.961,288.956,255.784,294.219C246.946,314.669,230.611,371.653,249.111,384.327C250.558,385.463,261.955,387.157,265.362,386.445C274.108,384.661,277.848,382.410,286.232,380.164C292.955,378.639,302.376,368.684,308.474,362.301C311.684,359.156,316.833,352.876,318.062,349.824M225.758,231.994C220.676,225.314,211.846,213.466,203.412,215.156C199.179,216.147,193.229,219.154,190.079,222.451C187.047,225.624,183.771,231.135,183.617,235.578C183.305,241.029,183.035,247.509,184.701,252.230C186.676,257.823,195.551,262.475,196.242,268.283C196.482,270.908,189.443,282.102,188.321,285.170C186.187,291.545,182.150,297.384,180.017,302.839C177.924,308.191,175.834,315.582,174.236,321.103C172.061,328.618,168.209,337.824,167.649,346.336C167.119,350.740,168.465,360.910,171.301,366.297C173.045,369.610,177.631,374.317,179.899,375.346C181.248,375.958,195.247,380.505,200.183,376.915C209.234,370.332,206.407,355.862,204.790,339.896C203.267,325.294,214.789,314.007,219.700,299.993C221.965,293.461,230.149,273.694,231.083,266.467C231.819,260.773,233.995,257.027,232.911,249.016C232.193,244.692,229.112,236.402,225.758,231.994Z"/>
<path class="path-1" d="M295.640,269.484C308.463,265.452,311.349,280.242,310.937,288.144"/>
<path class="path-1" d="M310.937,288.144C310.805,291.519,309.666,303.288,309.871,305.703"/>
<path class="path-1" d="M309.871,305.703C310.008,310.911,312.396,314.504,312.445,318.973"/>
<path class="path-1" d="M312.445,318.973C311.998,330.776,313.960,323.634,311.161,333.504"/>
<path class="path-1" d="M311.161,333.504C310.502,335.819,308.540,340.500,307.393,342.563"/>
<path class="path-1" d="M307.393,342.563C306.108,344.582,302.200,348.228,301.067,350.165"/>
<path class="path-1" d="M301.067,350.165C297.908,354.618,296.475,360.599,288.550,361.802"/>
<path class="path-1" d="M288.550,361.802C287.243,362.168,275.168,368.457,273.045,369.415"/>
<path class="path-1" d="M273.045,369.415C269.085,370.950,264.098,373.710,260.458,370.955"/>
<path class="path-1" d="M260.458,370.955C256.017,367.197,256.713,359.185,256.011,352.988"/>
<path class="path-1" d="M256.011,352.988C254.240,339.375,256.725,325.593,260.416,312.314"/>
<path class="path-1" d="M260.416,312.314C262.911,301.600,269.888,284.314,278.349,276.410"/>
<path class="path-1" d="M278.349,276.410C279.901,275.239,293.919,270.116,295.640,269.484"/>
<path class="path-2" d="M295.640,269.484C308.463,265.452,311.349,280.242,310.937,288.144C310.805,291.519,309.666,303.288,309.871,305.703C310.008,310.911,312.396,314.504,312.445,318.973C311.998,330.776,313.960,323.634,311.161,333.504C310.502,335.819,308.540,340.500,307.393,342.563C306.108,344.582,302.200,348.228,301.067,350.165C297.908,354.618,296.475,360.599,288.550,361.802C287.243,362.168,275.168,368.457,273.045,369.415C269.085,370.950,264.098,373.710,260.458,370.955C256.017,367.197,256.713,359.185,256.011,352.988C254.240,339.375,256.725,325.593,260.416,312.314C262.911,301.600,269.888,284.314,278.349,276.410C279.901,275.239,293.919,270.116,295.640,269.484Z"/>
<path class="path-1" d="M201.803,264.239C205.930,262.765,215.430,264.084,215.992,269.098"/>
<path class="path-1" d="M215.992,269.098C217.799,273.896,212.059,283.348,211.030,287.936"/>
<path class="path-1" d="M211.030,287.936C204.854,305.518,196.108,322.433,196.463,340.631"/>
<path class="path-1" d="M196.463,340.631C196.748,346.367,200.762,358.813,195.457,362.870"/>
<path class="path-1" d="M195.457,362.870C193.677,364.232,188.865,361.293,187.989,362.681"/>
<path class="path-1" d="M187.989,362.681C186.239,365.443,182.418,355.635,181.769,354.197"/>
<path class="path-1" d="M181.769,354.197C181.108,352.734,179.215,344.146,179.132,341.714"/>
<path class="path-1" d="M179.132,341.714C179.264,337.026,180.301,327.926,181.323,322.100"/>
<path class="path-1" d="M181.323,322.100C182.395,316.257,182.558,309.928,185.225,303.944"/>
<path class="path-1" d="M185.225,303.944C187.608,297.196,192.178,289.845,194.733,282.282"/>
<path class="path-1" d="M194.733,282.282C197.406,277.650,201.275,275.208,200.931,271.443"/>
<path class="path-1" d="M200.931,271.443C200.242,267.722,198.481,265.698,201.803,264.239"/>
<path class="path-2" d="M201.803,264.239C205.930,262.765,215.430,264.084,215.992,269.098C217.799,273.896,212.059,283.348,211.030,287.936C204.854,305.518,196.108,322.433,196.463,340.631C196.748,346.367,200.762,358.813,195.457,362.870C193.677,364.232,188.865,361.293,187.989,362.681C186.239,365.443,182.418,355.635,181.769,354.197C181.108,352.734,179.215,344.146,179.132,341.714C179.264,337.026,180.301,327.926,181.323,322.100C182.395,316.257,182.558,309.928,185.225,303.944C187.608,297.196,192.178,289.845,194.733,282.282C197.406,277.650,201.275,275.208,200.931,271.443C200.242,267.722,198.481,265.698,201.803,264.239Z"/>
<path class="path-1" d="M294.841,238.573C298.682,238.589,304.965,241.889,304.222,246.196"/>
<path class="path-1" d="M304.222,246.196C303.897,249.203,297.035,257.808,292.098,260.508"/>
<path class="path-1" d="M292.098,260.508C289.129,262.132,282.819,262.158,280.980,262.408"/>
<path class="path-1" d="M280.980,262.408C277.169,262.721,276.763,259.485,276.610,256.803"/>
<path class="path-1" d="M276.610,256.803C276.513,252.313,279.911,245.982,283.370,242.887"/>
<path class="path-1" d="M283.370,242.887C286.110,240.435,290.809,238.412,294.841,238.573"/>
<path class="path-2" d="M294.841,238.573C298.682,238.589,304.965,241.889,304.222,246.196C303.897,249.203,297.035,257.808,292.098,260.508C289.129,262.132,282.819,262.158,280.980,262.408C277.169,262.721,276.763,259.485,276.610,256.803C276.513,252.313,279.911,245.982,283.370,242.887C286.110,240.435,290.809,238.412,294.841,238.573Z"/>
<path class="path-1" d="M219.324,241.590C223.570,250.771,228.217,260.173,223.003,259.011"/>
<path class="path-1" d="M223.003,259.011C216.959,257.663,213.927,257.424,204.525,253.173"/>
<path class="path-1" d="M204.525,253.173C194.160,248.486,192.090,233.233,198.188,228.747"/>
<path class="path-1" d="M198.188,228.747C204.164,224.349,214.371,230.878,219.324,241.590"/>
<path class="path-2" d="M219.324,241.590C223.570,250.771,228.217,260.173,223.003,259.011C216.959,257.663,213.927,257.424,204.525,253.173C194.160,248.486,192.090,233.233,198.188,228.747C204.164,224.349,214.371,230.878,219.324,241.590Z"/>
</g>
</g>
<style>
.path-0{fill:#000000;fill-rule:evenodd;stroke:none;}
.path-1{fill:none;stroke:#a60d3f;stroke-width:1;stroke-linecap:butt;stroke-linejoin:round;}
.path-2{fill:#a60d3f;fill-rule:evenodd;stroke:none;}
.path-3{fill:none;stroke:#d88e4b;stroke-width:1;stroke-linecap:butt;stroke-linejoin:round;}
.path-4{fill:#d88e4b;fill-rule:evenodd;stroke:none;}
.path-5{fill:none;stroke:#6e2353;stroke-width:1;stroke-linecap:butt;stroke-linejoin:round;}
.path-6{fill:#6e2353;fill-rule:evenodd;stroke:none;}
.path-7{fill:none;stroke:#392966;stroke-width:1;stroke-linecap:butt;stroke-linejoin:round;}
.path-8{fill:#392966;fill-rule:evenodd;stroke:none;}
.path-9{fill:none;stroke:#cc9bc5;stroke-width:1;stroke-linecap:butt;stroke-linejoin:round;}
.path-10{fill:#cc9bc5;fill-rule:evenodd;stroke:none;}
.path-11{fill:none;stroke:#620527;stroke-width:1;stroke-linecap:butt;stroke-linejoin:round;}
.path-12{fill:#620527;fill-rule:evenodd;stroke:none;}
.path-13{fill:none;stroke:#6a3661;stroke-width:1;stroke-linecap:butt;stroke-linejoin:round;}
.path-14{fill:#6a3661;fill-rule:evenodd;stroke:none;}
.path-15{fill:none;stroke:#f8a087;stroke-width:1;stroke-linecap:butt;stroke-linejoin:round;}
.path-16{fill:#f8a087;fill-rule:evenodd;stroke:none;}
.path-17{fill:none;stroke:#ffffff;stroke-width:1;stroke-linecap:butt;stroke-linejoin:round;}
.path-18{fill:#ffffff;fill-rule:evenodd;stroke:none;}
.path-19{fill:none;stroke:#d89f4a;stroke-width:1;stroke-linecap:butt;stroke-linejoin:round;}
.path-20{fill:#d89f4a;fill-rule:evenodd;stroke:none;}
.path-21{fill:none;stroke:#fafd5b;stroke-width:1;stroke-linecap:butt;stroke-linejoin:round;}
.path-22{fill:#fafd5b;fill-rule:evenodd;stroke:none;}
.path-23{fill:none;stroke:#00ff00;stroke-width:8;stroke-linecap:round;stroke-linejoin:round;}
.path-24{fill:none;stroke:#000000;stroke-width:1;stroke-linecap:butt;stroke-linejoin:round;}
</style>
</svg>
