<svg version="1.1" id="Frame_104" xmlns="http://www.w3.org/2000/svg" xmlns:xlink="http://www.w3.org/1999/xlink" width="480px" height="720px">
<g id="main_bone">
<g id="right_arm">
<path class="path-0" d="M174.126,270.172C175.458,267.511,178.075,262.017,181.778,260.525C188.182,257.943,193.652,263.933,194.431,268.509C196.093,276.447,190.936,287.396,188.470,295.289C182.390,314.329,175.637,333.084,171.132,352.015C170.600,355.317,165.808,376.634,165.808,373.973C165.476,380.626,172.130,386.283,174.459,391.939C177.454,399.590,174.791,406.910,172.795,413.897C168.138,428.535,168.471,433.858,167.804,448.165C167.804,450.492,167.473,458.146,163.812,458.146C160.487,458.146,160.153,452.157,159.488,449.828C159.155,447.167,156.825,441.510,157.492,439.182C157.823,435.190,162.483,436.188,157.492,427.870C151.170,417.555,139.526,409.240,136.532,395.931C134.536,385.285,140.191,375.969,143.186,365.988C149.508,344.695,156.494,323.404,163.812,302.111C167.805,291.132,168.802,281.484,174.126,270.172M193.754,262.188C193.755,253.538,190.761,245.885,180.115,249.546C163.481,255.200,158.822,281.484,154.165,296.122C147.512,316.084,141.855,336.046,136.199,356.007C133.870,364.657,130.544,368.982,129.212,373.973C127.549,379.628,127.881,388.280,128.214,393.935C128.214,411.567,133.869,412.234,140.856,425.874C144.517,433.859,140.525,438.849,142.852,445.835C144.517,450.492,148.176,453.820,150.837,457.813C153.166,461.805,153.499,464.135,155.162,467.793C157.158,472.119,163.481,481.767,169.136,479.771C173.793,478.108,173.793,469.790,174.126,465.797C174.459,459.809,178.119,436.853,179.450,429.866C181.778,418.554,187.435,406.245,185.770,393.935C184.440,384.619,176.122,377.965,176.456,367.985C176.787,362.661,180.115,354.011,181.113,348.023C182.776,338.375,182.776,328.061,184.772,318.081C188.099,300.448,194.421,280.487,193.754,262.188Z"/>
<path class="path-1" d="M181.778,260.525C188.182,257.943,193.652,263.933,194.431,268.509"/>
<path class="path-1" d="M194.431,268.509C196.093,276.447,190.936,287.396,188.470,295.289"/>
<path class="path-1" d="M188.470,295.289C182.390,314.329,175.637,333.084,171.132,352.015"/>
<path class="path-1" d="M171.132,352.015C170.600,355.317,165.808,376.634,165.808,373.973"/>
<path class="path-1" d="M165.808,373.973C165.476,380.626,172.130,386.283,174.459,391.939"/>
<path class="path-1" d="M174.459,391.939C177.454,399.590,174.791,406.910,172.795,413.897"/>
<path class="path-1" d="M172.795,413.897C168.138,428.535,168.471,433.858,167.804,448.165"/>
<path class="path-1" d="M167.804,448.165C167.804,450.492,167.473,458.146,163.812,458.146"/>
<path class="path-1" d="M163.812,458.146C160.487,458.146,160.153,452.157,159.488,449.828"/>
<path class="path-1" d="M159.488,449.828C159.155,447.167,156.825,441.510,157.492,439.182"/>
<path class="path-1" d="M157.492,439.182C157.823,435.190,162.483,436.188,157.492,427.870"/>
<path class="path-1" d="M157.492,427.870C151.170,417.555,139.526,409.240,136.532,395.931"/>
<path class="path-1" d="M136.532,395.931C134.536,385.285,140.191,375.969,143.186,365.988"/>
<path class="path-1" d="M143.186,365.988C149.508,344.695,156.494,323.404,163.812,302.111"/>
<path class="path-1" d="M163.812,302.111C167.805,291.132,168.802,281.484,174.126,270.172"/>
<path class="path-1" d="M174.126,270.172C175.458,267.511,178.075,262.017,181.778,260.525"/>
<path class="path-2" d="M181.778,260.525C188.182,257.943,193.652,263.933,194.431,268.509C196.093,276.447,190.936,287.396,188.470,295.289C182.390,314.329,175.637,333.084,171.132,352.015C170.600,355.317,165.808,376.634,165.808,373.973C165.476,380.626,172.130,386.283,174.459,391.939C177.454,399.590,174.791,406.910,172.795,413.897C168.138,428.535,168.471,433.858,167.804,448.165C167.804,450.492,167.473,458.146,163.812,458.146C160.487,458.146,160.153,452.157,159.488,449.828C159.155,447.167,156.825,441.510,157.492,439.182C157.823,435.190,162.483,436.188,157.492,427.870C151.170,417.555,139.526,409.240,136.532,395.931C134.536,385.285,140.191,375.969,143.186,365.988C149.508,344.695,156.494,323.404,163.812,302.111C167.805,291.132,168.802,281.484,174.126,270.172C175.458,267.511,178.075,262.017,181.778,260.525Z"/>
</g>
<g id="layer_left_leg">
<g id="left_heel">
<path class="path-0" d="M241.530,540.440C233.546,530.125,248.850,508.169,259.829,506.505C273.804,504.174,278.467,528.463,276.804,533.455C274.473,539.778,265.485,543.435,259.828,544.433C255.171,545.097,244.193,544.099,241.530,540.440M282.456,505.840C276.798,498.518,261.820,498.187,253.833,500.852C224.227,509.839,220.231,565.717,261.816,554.082C269.139,552.087,284.119,546.435,287.447,539.447C290.777,533.792,288.780,527.468,287.449,521.479C286.119,516.821,285.451,509.833,282.456,505.840Z"/>
<path class="path-3" d="M259.829,506.505C273.804,504.174,278.467,528.463,276.804,533.455"/>
<path class="path-3" d="M276.804,533.455C274.473,539.778,265.485,543.435,259.828,544.433"/>
<path class="path-3" d="M259.828,544.433C255.171,545.097,244.193,544.099,241.530,540.440"/>
<path class="path-3" d="M241.530,540.440C233.546,530.125,248.850,508.169,259.829,506.505"/>
<path class="path-4" d="M259.829,506.505C273.804,504.174,278.467,528.463,276.804,533.455C274.473,539.778,265.485,543.435,259.828,544.433C255.171,545.097,244.193,544.099,241.530,540.440C233.546,530.125,248.850,508.169,259.829,506.505Z"/>
</g>
<g id="left_sole">
<path class="path-0" d="M257.321,567.007C248.681,566.206,241.873,551.116,245.077,558.470C246.928,562.717,253.948,565.076,257.250,566.706C257.831,567.020,270.875,570.889,272.309,571.111C277.348,572.554,292.820,571.225,293.335,569.951C293.440,569.694,282.555,570.284,279.100,570.679C272.601,571.958,264.149,570.591,257.250,566.706M249.740,553.231C252.271,553.791,258.446,557.720,260.031,559.672C264.890,565.653,278.509,566.604,286.351,564.112C287.355,563.820,287.530,561.464,293.292,560.159C296.469,559.439,277.882,566.063,273.796,564.435C265.143,562.654,246.554,552.527,249.740,553.231M289.515,550.604C287.788,549.883,275.135,540.140,265.209,540.751C257.170,541.294,237.690,546.950,236.373,557.436C235.871,561.505,242.060,572.039,245.308,574.404C256.674,583.327,286.536,577.213,292.177,574.723C294.161,573.847,302.741,556.121,289.515,550.604Z"/>
<path class="path-5" d="M245.077,558.470C246.928,562.717,253.948,565.076,257.250,566.706"/>
<path class="path-5" d="M257.250,566.706C264.149,570.591,272.601,571.958,279.100,570.679"/>
<path class="path-5" d="M279.100,570.679C282.555,570.284,293.440,569.694,293.335,569.951"/>
<path class="path-5" d="M293.335,569.951C292.820,571.225,277.348,572.554,272.309,571.111"/>
<path class="path-5" d="M272.309,571.111C270.875,570.889,257.831,567.020,257.321,567.007"/>
<path class="path-5" d="M257.321,567.007C248.681,566.206,241.873,551.116,245.077,558.470"/>
<path class="path-6" d="M245.077,558.470C246.928,562.717,253.948,565.076,257.250,566.706C264.149,570.591,272.601,571.958,279.100,570.679C282.555,570.284,293.440,569.694,293.335,569.951C292.820,571.225,277.348,572.554,272.309,571.111C270.875,570.889,257.831,567.020,257.321,567.007C248.681,566.206,241.873,551.116,245.077,558.470Z"/>
<path class="path-5" d="M260.031,559.672C264.890,565.653,278.509,566.604,286.351,564.112"/>
<path class="path-5" d="M286.351,564.112C287.355,563.820,287.530,561.464,293.292,560.159"/>
<path class="path-5" d="M293.292,560.159C296.469,559.439,277.882,566.063,273.796,564.435"/>
<path class="path-5" d="M273.796,564.435C265.143,562.654,246.554,552.527,249.740,553.231"/>
<path class="path-5" d="M249.740,553.231C252.271,553.791,258.446,557.720,260.031,559.672"/>
<path class="path-6" d="M260.031,559.672C264.890,565.653,278.509,566.604,286.351,564.112C287.355,563.820,287.530,561.464,293.292,560.159C296.469,559.439,277.882,566.063,273.796,564.435C265.143,562.654,246.554,552.527,249.740,553.231C252.271,553.791,258.446,557.720,260.031,559.672Z"/>
</g>
<g id="left_toe">
<path class="path-0" d="M258.126,584.388C226.858,581.390,240.152,534.839,268.094,537.148C281.739,538.471,284.748,550.449,286.085,561.430C287.086,566.421,288.418,570.748,286.088,575.406C281.428,583.061,266.114,585.054,258.126,584.388M289.425,537.825C282.774,530.836,265.151,528.494,256.169,530.484C231.878,536.120,231.523,553.417,232.175,573.380C232.171,578.381,232.170,583.049,235.171,587.051C241.824,595.371,266.115,596.701,276.097,594.706C283.419,592.710,292.405,588.719,296.066,581.398C300.724,572.419,296.073,545.144,289.425,537.825Z"/>
<path class="path-3" d="M268.094,537.148C281.739,538.471,284.748,550.449,286.085,561.430"/>
<path class="path-3" d="M286.085,561.430C287.086,566.421,288.418,570.748,286.088,575.406"/>
<path class="path-3" d="M286.088,575.406C281.428,583.061,266.114,585.054,258.126,584.388"/>
<path class="path-3" d="M258.126,584.388C226.858,581.390,240.152,534.839,268.094,537.148"/>
<path class="path-4" d="M268.094,537.148C281.739,538.471,284.748,550.449,286.085,561.430C287.086,566.421,288.418,570.748,286.088,575.406C281.428,583.061,266.114,585.054,258.126,584.388C226.858,581.390,240.152,534.839,268.094,537.148Z"/>
</g>
<g id="left_leg">
<path class="path-0" d="M238.898,405.789C240.604,401.168,250.093,404.642,253.973,404.581C258.865,404.740,269.815,404.157,273.738,407.243C287.672,417.469,289.139,465.701,288.689,482.321C287.923,496.051,288.747,509.020,287.468,522.237C286.774,527.978,285.931,533.914,284.548,539.412C283.525,544.339,277.990,550.742,281.309,554.132C282.730,556.208,286.021,554.827,288.344,555.038C292.344,555.657,292.379,552.307,295.142,553.119C305.230,556.424,285.899,578.057,276.658,580.803C269.391,583.231,254.037,580.640,248.405,575.599C246.676,574.051,244.466,572.374,243.418,570.354C231.724,547.837,242.263,492.617,246.452,465.327C247.969,455.444,253.947,476.361,259.868,473.826C270.930,469.027,238.827,429.329,236.730,417.280C235.947,414.246,237.683,408.599,238.898,405.789M283.383,396.777C277.488,392.181,260.813,393.743,253.973,394.933C247.342,396.060,224.708,395.601,221.710,400.587C216.707,408.908,230.923,422.481,233.651,429.912C234.842,433.968,231.894,454.237,231.521,459.915C231.434,472.520,230.462,483.298,230.014,495.895C228.782,521.108,218.134,545.581,224.621,569.618C229.647,587.729,244.271,595.728,265.798,595.556C275.423,595.479,294.606,585.506,304.650,568.703C310.105,559.578,307.800,545.160,306.338,541.870C304.495,537.725,300.175,534.648,298.675,530.024C292.112,511.943,300.224,491.594,298.845,472.297C297.573,454.262,298.409,408.548,283.383,396.777Z"/>
<path class="path-7" d="M253.973,404.581C258.865,404.740,269.815,404.157,273.738,407.243"/>
<path class="path-7" d="M273.738,407.243C287.672,417.469,289.139,465.701,288.689,482.321"/>
<path class="path-7" d="M288.689,482.321C287.923,496.051,288.747,509.020,287.468,522.237"/>
<path class="path-7" d="M287.468,522.237C286.774,527.978,285.931,533.914,284.548,539.412"/>
<path class="path-7" d="M284.548,539.412C283.525,544.339,277.990,550.742,281.309,554.132"/>
<path class="path-7" d="M281.309,554.132C282.730,556.208,286.021,554.827,288.344,555.038"/>
<path class="path-7" d="M288.344,555.038C292.344,555.657,292.379,552.307,295.142,553.119"/>
<path class="path-7" d="M295.142,553.119C305.230,556.424,285.899,578.057,276.658,580.803"/>
<path class="path-7" d="M276.658,580.803C269.391,583.231,254.037,580.640,248.405,575.599"/>
<path class="path-7" d="M248.405,575.599C246.676,574.051,244.466,572.374,243.418,570.354"/>
<path class="path-7" d="M243.418,570.354C231.724,547.837,242.263,492.617,246.452,465.327"/>
<path class="path-7" d="M246.452,465.327C247.969,455.444,253.947,476.361,259.868,473.826"/>
<path class="path-7" d="M259.868,473.826C270.930,469.027,238.827,429.329,236.730,417.280"/>
<path class="path-7" d="M236.730,417.280C235.947,414.246,237.683,408.599,238.898,405.789"/>
<path class="path-7" d="M238.898,405.789C240.604,401.168,250.093,404.642,253.973,404.581"/>
<path class="path-8" d="M253.973,404.581C258.865,404.740,269.815,404.157,273.738,407.243C287.672,417.469,289.139,465.701,288.689,482.321C287.923,496.051,288.747,509.020,287.468,522.237C286.774,527.978,285.931,533.914,284.548,539.412C283.525,544.339,277.990,550.742,281.309,554.132C282.730,556.208,286.021,554.827,288.344,555.038C292.344,555.657,292.379,552.307,295.142,553.119C305.230,556.424,285.899,578.057,276.658,580.803C269.391,583.231,254.037,580.640,248.405,575.599C246.676,574.051,244.466,572.374,243.418,570.354C231.724,547.837,242.263,492.617,246.452,465.327C247.969,455.444,253.947,476.361,259.868,473.826C270.930,469.027,238.827,429.329,236.730,417.280C235.947,414.246,237.683,408.599,238.898,405.789C240.604,401.168,250.093,404.642,253.973,404.581Z"/>
</g>
</g>
<g id="layer_right_leg">
<g id="right_heel">
<path class="path-0" d="M186.466,650.974C188.790,632.024,188.790,617.063,212.063,613.736C222.372,612.074,241.990,615.399,247.642,625.374C250.635,630.361,249.637,637.674,249.971,642.994C250.635,652.303,256.618,669.589,243.653,672.580C242.656,672.913,214.741,675.239,206.100,676.564C200.773,677.894,195.114,679.887,190.787,676.556C185.141,671.239,185.470,657.951,186.466,650.974M258.614,623.380C253.960,611.409,237.664,604.428,226.027,606.090C210.734,608.086,195.109,603.099,185.136,617.395C175.166,631.684,175.497,658.272,178.819,674.888C179.816,680.873,183.474,691.845,188.461,695.170C192.117,697.496,197.768,696.831,202.090,696.831C223.037,697.164,259.613,704.148,259.945,672.893C259.945,661.927,261.938,632.019,258.614,623.380Z"/>
<path class="path-3" d="M212.063,613.736C222.372,612.074,241.990,615.399,247.642,625.374"/>
<path class="path-3" d="M247.642,625.374C250.635,630.361,249.637,637.674,249.971,642.994"/>
<path class="path-3" d="M249.971,642.994C250.635,652.303,256.618,669.589,243.653,672.580"/>
<path class="path-3" d="M243.653,672.580C242.656,672.913,214.741,675.239,206.100,676.564"/>
<path class="path-3" d="M206.100,676.564C200.773,677.894,195.114,679.887,190.787,676.556"/>
<path class="path-3" d="M190.787,676.556C185.141,671.239,185.470,657.951,186.466,650.974"/>
<path class="path-3" d="M186.466,650.974C188.790,632.024,188.790,617.063,212.063,613.736"/>
<path class="path-4" d="M212.063,613.736C222.372,612.074,241.990,615.399,247.642,625.374C250.635,630.361,249.637,637.674,249.971,642.994C250.635,652.303,256.618,669.589,243.653,672.580C242.656,672.913,214.741,675.239,206.100,676.564C200.773,677.894,195.114,679.887,190.787,676.556C185.141,671.239,185.470,657.951,186.466,650.974C188.790,632.024,188.790,617.063,212.063,613.736Z"/>
</g>
<g id="right_leg">
<path class="path-0" d="M182.775,404.929C180.174,398.566,188.188,392.314,194.137,391.278C200.440,390.049,210.007,392.831,216.458,394.936C219.917,396.065,224.402,398.123,227.374,400.222C230.178,402.202,234.031,405.092,235.531,408.243C238.805,415.772,238.685,419.413,238.761,424.337C238.843,429.666,236.172,435.700,235.753,441.843C235.476,458.517,238.053,475.757,240.694,491.718C242.343,502.343,246.653,517.620,246.953,527.581C246.924,536.519,239.942,536.818,240.263,542.114C240.256,545.773,251.601,561.047,253.933,565.368C261.249,578.311,266.925,594.254,266.885,609.196C266.850,622.091,247.886,638.834,235.978,640.786C222.377,642.739,184.601,628.129,172.316,621.191C166.677,618.221,157.032,613.635,155.354,607.013C154.020,602.728,159.245,583.578,161.545,579.283C164.843,573.644,167.489,572.644,169.801,565.352C172.770,554.761,171.832,542.853,172.131,531.601C172.087,516.645,175.670,478.096,179.971,463.802C182.614,454.167,191.794,421.306,189.563,412.314C188.301,407.023,184.392,408.244,182.775,404.929M208.062,381.294C202.406,379.297,198.078,373.965,192.092,375.969C189.765,376.970,185.786,379.978,184.125,381.640C168.830,394.617,168.109,407.214,168.061,425.838C167.707,433.819,167.348,442.133,167.991,449.783C168.312,454.790,169.619,459.130,168.957,463.802C168.628,468.131,166.675,472.470,166.025,477.799C165.381,484.441,167.035,492.408,166.047,503.698C164.399,513.973,162.088,523.585,161.759,533.527C161.761,538.825,162.742,551.403,161.757,555.377C159.772,560.367,155.150,565.043,152.502,569.372C147.876,578.012,146.219,587.965,146.231,597.259C145.907,603.541,145.575,611.808,148.235,617.089C152.234,625.028,160.900,630.260,168.204,634.540C180.163,641.460,192.756,643.431,206.017,647.741C210.038,649.082,213.719,651.434,218.074,652.114C219.735,652.117,233.365,650.829,236.024,650.505C248.589,648.234,269.427,637.734,274.458,625.205C275.810,621.230,275.531,615.587,275.554,611.271C275.573,607.258,275.588,603.244,275.597,599.227C275.305,574.353,264.946,564.416,258.963,543.526C256.962,536.537,256.290,521.556,255.293,513.566C252.980,497.674,248.064,482.438,247.721,465.886C247.719,462.529,247.041,457.834,249.383,454.807C251.360,452.158,255.314,452.131,256.628,449.153C258.610,443.826,251.976,425.871,250.646,419.885C249.981,416.226,250.314,411.567,248.983,407.908C245.324,398.592,231.351,388.280,222.034,385.285C217.377,383.621,212.387,383.290,208.062,381.294Z"/>
<path class="path-7" d="M194.137,391.278C200.440,390.049,210.007,392.831,216.458,394.936"/>
<path class="path-7" d="M216.458,394.936C219.917,396.065,224.402,398.123,227.374,400.222"/>
<path class="path-7" d="M227.374,400.222C230.178,402.202,234.031,405.092,235.531,408.243"/>
<path class="path-7" d="M235.531,408.243C238.805,415.772,238.685,419.413,238.761,424.337"/>
<path class="path-7" d="M238.761,424.337C238.843,429.666,236.172,435.700,235.753,441.843"/>
<path class="path-7" d="M235.753,441.843C235.476,458.517,238.053,475.757,240.694,491.718"/>
<path class="path-7" d="M240.694,491.718C242.343,502.343,246.653,517.620,246.953,527.581"/>
<path class="path-7" d="M246.953,527.581C246.924,536.519,239.942,536.818,240.263,542.114"/>
<path class="path-7" d="M240.263,542.114C240.256,545.773,251.601,561.047,253.933,565.368"/>
<path class="path-7" d="M253.933,565.368C261.249,578.311,266.925,594.254,266.885,609.196"/>
<path class="path-7" d="M266.885,609.196C266.850,622.091,247.886,638.834,235.978,640.786"/>
<path class="path-7" d="M235.978,640.786C222.377,642.739,184.601,628.129,172.316,621.191"/>
<path class="path-7" d="M172.316,621.191C166.677,618.221,157.032,613.635,155.354,607.013"/>
<path class="path-7" d="M155.354,607.013C154.020,602.728,159.245,583.578,161.545,579.283"/>
<path class="path-7" d="M161.545,579.283C164.843,573.644,167.489,572.644,169.801,565.352"/>
<path class="path-7" d="M169.801,565.352C172.770,554.761,171.832,542.853,172.131,531.601"/>
<path class="path-7" d="M172.131,531.601C172.087,516.645,175.670,478.096,179.971,463.802"/>
<path class="path-7" d="M179.971,463.802C182.614,454.167,191.794,421.306,189.563,412.314"/>
<path class="path-7" d="M189.563,412.314C188.301,407.023,184.392,408.244,182.775,404.929"/>
<path class="path-7" d="M182.775,404.929C180.174,398.566,188.188,392.314,194.137,391.278"/>
<path class="path-8" d="M194.137,391.278C200.440,390.049,210.007,392.831,216.458,394.936C219.917,396.065,224.402,398.123,227.374,400.222C230.178,402.202,234.031,405.092,235.531,408.243C238.805,415.772,238.685,419.413,238.761,424.337C238.843,429.666,236.172,435.700,235.753,441.843C235.476,458.517,238.053,475.757,240.694,491.718C242.343,502.343,246.653,517.620,246.953,527.581C246.924,536.519,239.942,536.818,240.263,542.114C240.256,545.773,251.601,561.047,253.933,565.368C261.249,578.311,266.925,594.254,266.885,609.196C266.850,622.091,247.886,638.834,235.978,640.786C222.377,642.739,184.601,628.129,172.316,621.191C166.677,618.221,157.032,613.635,155.354,607.013C154.020,602.728,159.245,583.578,161.545,579.283C164.843,573.644,167.489,572.644,169.801,565.352C172.770,554.761,171.832,542.853,172.131,531.601C172.087,516.645,175.670,478.096,179.971,463.802C182.614,454.167,191.794,421.306,189.563,412.314C188.301,407.023,184.392,408.244,182.775,404.929C180.174,398.566,188.188,392.314,194.137,391.278Z"/>
</g>
<g id="right_toe">
<path class="path-0" d="M153.897,633.111C155.231,614.879,160.235,591.046,182.111,586.391C187.104,585.055,194.431,586.707,200.091,587.698C230.680,592.977,240.046,601.941,242.030,633.189C242.359,640.807,244.322,649.750,239.679,656.702C234.023,665.011,202.109,670.988,192.135,670.988C176.841,671.322,164.870,669.666,156.225,655.039C151.240,646.402,153.230,642.414,153.897,633.111M249.654,603.602C240.692,585.656,198.853,573.985,180.242,578.280C152.303,584.893,147.921,609.154,145.912,633.094C145.243,640.409,142.590,648.390,145.915,655.040C147.909,659.028,152.896,664.014,156.220,667.006C171.517,681.969,182.157,679.310,202.109,678.976C214.079,678.975,234.028,678.307,243.669,670.327C250.983,663.677,251.650,656.366,251.982,647.057C251.982,638.100,253.301,610.237,249.654,603.602Z"/>
<path class="path-3" d="M182.111,586.391C187.104,585.055,194.431,586.707,200.091,587.698"/>
<path class="path-3" d="M200.091,587.698C230.680,592.977,240.046,601.941,242.030,633.189"/>
<path class="path-3" d="M242.030,633.189C242.359,640.807,244.322,649.750,239.679,656.702"/>
<path class="path-3" d="M239.679,656.702C234.023,665.011,202.109,670.988,192.135,670.988"/>
<path class="path-3" d="M192.135,670.988C176.841,671.322,164.870,669.666,156.225,655.039"/>
<path class="path-3" d="M156.225,655.039C151.240,646.402,153.230,642.414,153.897,633.111"/>
<path class="path-3" d="M153.897,633.111C155.231,614.879,160.235,591.046,182.111,586.391"/>
<path class="path-4" d="M182.111,586.391C187.104,585.055,194.431,586.707,200.091,587.698C230.680,592.977,240.046,601.941,242.030,633.189C242.359,640.807,244.322,649.750,239.679,656.702C234.023,665.011,202.109,670.988,192.135,670.988C176.841,671.322,164.870,669.666,156.225,655.039C151.240,646.402,153.230,642.414,153.897,633.111C155.231,614.879,160.235,591.046,182.111,586.391Z"/>
</g>
<g id="right_sole">
<path class="path-0" d="M182.888,669.993C187.747,670.420,198.796,669.154,204.024,669.992C209.251,671.125,214.379,671.885,218.763,672.775C221.771,673.641,232.433,676.461,228.473,681.161C226.746,683.368,220.542,683.125,217.898,682.811C214.932,682.830,187.254,680.174,186.220,680.303C180.565,680.617,177.965,678.848,177.492,675.964C177.107,673.581,178.582,669.596,182.888,669.993M236.595,663.232C237.961,665.190,241.751,669.277,238.614,670.950C234.767,673.023,217.916,666.969,212.710,664.202C208.370,662.802,203.310,662.121,199.207,661.886C191.860,661.466,181.996,662.665,174.737,663.580C172.427,663.469,170.889,664.352,169.987,663.477C169.544,663.031,169.406,659.220,170.957,657.297C176.834,650.014,193.039,652.564,202.631,652.845C210.385,653.073,220.406,655.390,228.017,657.761C229.279,658.189,234.792,660.774,236.595,663.232M241.627,658.089C224.921,647.384,211.430,642.814,191.956,644.179C183.553,644.818,165.012,648.412,159.730,657.433C158.275,659.918,158.683,664.088,159.476,667.028C159.954,668.784,160.787,673.013,162.323,675.054C166.125,680.103,176.040,684.673,180.151,686.279C195.427,692.894,217.489,688.824,233.991,690.247C242.181,690.851,241.932,684.713,243.418,681.052C246.016,674.649,253.178,665.283,241.627,658.089Z"/>
<path class="path-5" d="M182.888,669.993C187.747,670.420,198.796,669.154,204.024,669.992"/>
<path class="path-5" d="M204.024,669.992C209.251,671.125,214.379,671.885,218.763,672.775"/>
<path class="path-5" d="M218.763,672.775C221.771,673.641,232.433,676.461,228.473,681.161"/>
<path class="path-5" d="M228.473,681.161C226.746,683.368,220.542,683.125,217.898,682.811"/>
<path class="path-5" d="M217.898,682.811C214.932,682.830,187.254,680.174,186.220,680.303"/>
<path class="path-5" d="M186.220,680.303C180.565,680.617,177.965,678.848,177.492,675.964"/>
<path class="path-5" d="M177.492,675.964C177.107,673.581,178.582,669.596,182.888,669.993"/>
<path class="path-6" d="M182.888,669.993C187.747,670.420,198.796,669.154,204.024,669.992C209.251,671.125,214.379,671.885,218.763,672.775C221.771,673.641,232.433,676.461,228.473,681.161C226.746,683.368,220.542,683.125,217.898,682.811C214.932,682.830,187.254,680.174,186.220,680.303C180.565,680.617,177.965,678.848,177.492,675.964C177.107,673.581,178.582,669.596,182.888,669.993Z"/>
<path class="path-5" d="M170.957,657.297C176.834,650.014,193.039,652.564,202.631,652.845"/>
<path class="path-5" d="M202.631,652.845C210.385,653.073,220.406,655.390,228.017,657.761"/>
<path class="path-5" d="M228.017,657.761C229.279,658.189,234.792,660.774,236.595,663.232"/>
<path class="path-5" d="M236.595,663.232C237.961,665.190,241.751,669.277,238.614,670.950"/>
<path class="path-5" d="M238.614,670.950C234.767,673.023,217.916,666.969,212.710,664.202"/>
<path class="path-5" d="M212.710,664.202C208.370,662.802,203.310,662.121,199.207,661.886"/>
<path class="path-5" d="M199.207,661.886C191.860,661.466,181.996,662.665,174.737,663.580"/>
<path class="path-5" d="M174.737,663.580C172.427,663.469,170.889,664.352,169.987,663.477"/>
<path class="path-5" d="M169.987,663.477C169.544,663.031,169.406,659.220,170.957,657.297"/>
<path class="path-6" d="M170.957,657.297C176.834,650.014,193.039,652.564,202.631,652.845C210.385,653.073,220.406,655.390,228.017,657.761C229.279,658.189,234.792,660.774,236.595,663.232C237.961,665.190,241.751,669.277,238.614,670.950C234.767,673.023,217.916,666.969,212.710,664.202C208.370,662.802,203.310,662.121,199.207,661.886C191.860,661.466,181.996,662.665,174.737,663.580C172.427,663.469,170.889,664.352,169.987,663.477C169.544,663.031,169.406,659.220,170.957,657.297Z"/>
</g>
</g>
<g id="hat_brim">
<path class="path-0" d="M283.251,150.401C286.910,144.413,295.893,128.110,303.878,128.110C309.201,128.110,320.180,137.760,325.835,140.754C330.826,143.748,336.150,146.410,341.805,149.071C345.017,150.740,348.233,152.403,351.453,154.061C365.760,161.381,361.766,167.703,353.448,166.371C334.818,163.043,331.824,164.375,313.859,155.059C311.529,154.061,305.541,150.735,304.542,155.059C303.213,160.049,312.196,164.375,315.855,166.038C322.508,169.699,329.828,173.691,337.813,174.356C340.142,174.689,348.127,174.022,349.456,176.352C351.453,179.679,341.805,188.329,339.809,190.325C336.481,193.320,333.156,196.314,329.828,198.643C324.837,201.969,319.514,204.963,313.859,205.961C303.213,207.292,269.943,191.988,268.945,180.344C268.280,173.691,279.259,156.723,283.251,150.401M315.855,123.786C310.864,119.461,307.205,113.139,299.885,116.467C294.561,118.796,288.906,126.448,285.247,130.440C271.606,147.074,259.297,166.704,259.962,188.329C260.295,201.969,264.952,201.637,275.931,206.959C292.565,215.277,313.859,217.938,331.824,209.622C343.468,204.299,363.763,186.333,369.087,174.356C370.750,170.364,373.743,161.381,371.414,156.724C368.753,151.067,346.462,141.419,339.809,137.760C331.824,133.434,322.842,129.442,315.855,123.786Z"/>
<path class="path-9" d="M303.878,128.110C309.201,128.110,320.180,137.760,325.835,140.754"/>
<path class="path-9" d="M325.835,140.754C330.826,143.748,336.150,146.410,341.805,149.071"/>
<path class="path-9" d="M341.805,149.071C345.017,150.740,348.233,152.403,351.453,154.061"/>
<path class="path-9" d="M351.453,154.061C365.760,161.381,361.766,167.703,353.448,166.371"/>
<path class="path-9" d="M353.448,166.371C334.818,163.043,331.824,164.375,313.859,155.059"/>
<path class="path-9" d="M313.859,155.059C311.529,154.061,305.541,150.735,304.542,155.059"/>
<path class="path-9" d="M304.542,155.059C303.213,160.049,312.196,164.375,315.855,166.038"/>
<path class="path-9" d="M315.855,166.038C322.508,169.699,329.828,173.691,337.813,174.356"/>
<path class="path-9" d="M337.813,174.356C340.142,174.689,348.127,174.022,349.456,176.352"/>
<path class="path-9" d="M349.456,176.352C351.453,179.679,341.805,188.329,339.809,190.325"/>
<path class="path-9" d="M339.809,190.325C336.481,193.320,333.156,196.314,329.828,198.643"/>
<path class="path-9" d="M329.828,198.643C324.837,201.969,319.514,204.963,313.859,205.961"/>
<path class="path-9" d="M313.859,205.961C303.213,207.292,269.943,191.988,268.945,180.344"/>
<path class="path-9" d="M268.945,180.344C268.280,173.691,279.259,156.723,283.251,150.401"/>
<path class="path-9" d="M283.251,150.401C286.910,144.413,295.893,128.110,303.878,128.110"/>
<path class="path-10" d="M303.878,128.110C309.201,128.110,320.180,137.760,325.835,140.754C330.826,143.748,336.150,146.410,341.805,149.071C345.017,150.740,348.233,152.403,351.453,154.061C365.760,161.381,361.766,167.703,353.448,166.371C334.818,163.043,331.824,164.375,313.859,155.059C311.529,154.061,305.541,150.735,304.542,155.059C303.213,160.049,312.196,164.375,315.855,166.038C322.508,169.699,329.828,173.691,337.813,174.356C340.142,174.689,348.127,174.022,349.456,176.352C351.453,179.679,341.805,188.329,339.809,190.325C336.481,193.320,333.156,196.314,329.828,198.643C324.837,201.969,319.514,204.963,313.859,205.961C303.213,207.292,269.943,191.988,268.945,180.344C268.280,173.691,279.259,156.723,283.251,150.401C286.910,144.413,295.893,128.110,303.878,128.110Z"/>
</g>
<g id="hair">
<path class="path-0" d="M183.357,136.483C200.954,124.749,220.906,123.806,241.996,123.120C251.452,122.794,257.886,129.270,265.069,135.626C270.964,141.195,277.299,147.468,283.560,153.313C292.986,162.051,296.930,166.431,300.440,170.614C303.444,173.825,308.105,179.813,311.862,182.674C316.396,186.124,325.422,203.315,327.445,205.266C320.793,207.453,310.356,209.024,305.541,212.830C307.149,218.669,307.424,227.700,307.413,230.409C301.202,230.790,294.008,227.926,282.567,225.752C280.180,232.918,280.142,239.647,275.384,246.902C267.697,244.496,262.345,242.563,252.411,238.043C245.798,243.193,244.261,242.773,233.517,249.212C226.455,244.820,220.838,240.151,213.943,237.253C207.148,240.091,196.403,241.027,192.739,243.925C188.987,236.858,185.547,229.060,182.318,225.662C172.710,227.554,168.576,230.148,161.781,232.559C157.606,227.012,160.654,222.489,156.037,214.349C151.717,213.146,145.049,210.476,139.490,210.322C143.367,205.864,146.319,191.142,152.833,189.327C160.871,187.088,155.875,177.911,160.872,169.755C162.110,167.631,174.016,151.399,175.093,148.739C177.132,144.153,179.361,139.287,183.357,136.483M269.783,123.041C257.623,113.516,232.973,108.192,219.067,111.311C206.306,114.023,193.787,117.926,182.663,125.006C176.433,128.911,169.531,134.686,165.362,140.754C157.036,152.537,144.935,178.372,138.142,190.325C132.704,200.241,127.646,206.923,122.452,212.283C140.007,218.879,145.124,221.586,150.363,222.441C150.613,230.199,157.711,236.027,156.388,244.572C165.209,243.354,170.475,241.177,178.326,239.302C182.258,243.995,184.942,250.348,188.681,256.586C196.418,254.568,204.305,254.940,212.000,249.563C217.496,252.632,226.229,257.403,235.200,262.448C243.544,258.115,245.325,257.880,253.165,252.908C262.619,255.342,272.515,261.315,282.074,260.399C281.484,252.206,287.600,246.647,286.947,241.388C294.168,239.536,316.196,242.966,319.967,242.683C319.803,236.635,316.595,225.026,318.237,217.838C325.064,216.098,330.837,214.510,341.526,209.520C338.121,202.790,331.974,194.414,326.560,189.403C321.990,185.214,318.291,179.689,313.719,175.326C298.212,160.768,292.275,140.745,269.783,123.041Z"/>
<path class="path-11" d="M241.996,123.120C251.452,122.794,257.886,129.270,265.069,135.626"/>
<path class="path-11" d="M265.069,135.626C270.964,141.195,277.299,147.468,283.560,153.313"/>
<path class="path-11" d="M283.560,153.313C292.986,162.051,296.930,166.431,300.440,170.614"/>
<path class="path-11" d="M300.440,170.614C303.444,173.825,308.105,179.813,311.862,182.674"/>
<path class="path-11" d="M311.862,182.674C316.396,186.124,325.422,203.315,327.445,205.266"/>
<path class="path-11" d="M327.445,205.266C320.793,207.453,310.356,209.024,305.541,212.830"/>
<path class="path-11" d="M305.541,212.830C307.149,218.669,307.424,227.700,307.413,230.409"/>
<path class="path-11" d="M307.413,230.409C301.202,230.790,294.008,227.926,282.567,225.752"/>
<path class="path-11" d="M282.567,225.752C280.180,232.918,280.142,239.647,275.384,246.902"/>
<path class="path-11" d="M275.384,246.902C267.697,244.496,262.345,242.563,252.411,238.043"/>
<path class="path-11" d="M252.411,238.043C245.798,243.193,244.261,242.773,233.517,249.212"/>
<path class="path-11" d="M233.517,249.212C226.455,244.820,220.838,240.151,213.943,237.253"/>
<path class="path-11" d="M213.943,237.253C207.148,240.091,196.403,241.027,192.739,243.925"/>
<path class="path-11" d="M192.739,243.925C188.987,236.858,185.547,229.060,182.318,225.662"/>
<path class="path-11" d="M182.318,225.662C172.710,227.554,168.576,230.148,161.781,232.559"/>
<path class="path-11" d="M161.781,232.559C157.606,227.012,160.654,222.489,156.037,214.349"/>
<path class="path-11" d="M156.037,214.349C151.717,213.146,145.049,210.476,139.490,210.322"/>
<path class="path-11" d="M139.490,210.322C143.367,205.864,146.319,191.142,152.833,189.327"/>
<path class="path-11" d="M152.833,189.327C160.871,187.088,155.875,177.911,160.872,169.755"/>
<path class="path-11" d="M160.872,169.755C162.110,167.631,174.016,151.399,175.093,148.739"/>
<path class="path-11" d="M175.093,148.739C177.132,144.153,179.361,139.287,183.357,136.483"/>
<path class="path-11" d="M183.357,136.483C200.954,124.749,220.906,123.806,241.996,123.120"/>
<path class="path-12" d="M241.996,123.120C251.452,122.794,257.886,129.270,265.069,135.626C270.964,141.195,277.299,147.468,283.560,153.313C292.986,162.051,296.930,166.431,300.440,170.614C303.444,173.825,308.105,179.813,311.862,182.674C316.396,186.124,325.422,203.315,327.445,205.266C320.793,207.453,310.356,209.024,305.541,212.830C307.149,218.669,307.424,227.700,307.413,230.409C301.202,230.790,294.008,227.926,282.567,225.752C280.180,232.918,280.142,239.647,275.384,246.902C267.697,244.496,262.345,242.563,252.411,238.043C245.798,243.193,244.261,242.773,233.517,249.212C226.455,244.820,220.838,240.151,213.943,237.253C207.148,240.091,196.403,241.027,192.739,243.925C188.987,236.858,185.547,229.060,182.318,225.662C172.710,227.554,168.576,230.148,161.781,232.559C157.606,227.012,160.654,222.489,156.037,214.349C151.717,213.146,145.049,210.476,139.490,210.322C143.367,205.864,146.319,191.142,152.833,189.327C160.871,187.088,155.875,177.911,160.872,169.755C162.110,167.631,174.016,151.399,175.093,148.739C177.132,144.153,179.361,139.287,183.357,136.483C200.954,124.749,220.906,123.806,241.996,123.120Z"/>
</g>
<g id="clothes">
<path class="path-0" d="M243.660,369.975C238.999,367.897,221.048,359.691,218.172,364.137C215.738,368.160,220.367,369.062,224.424,369.591C228.020,370.061,246.182,378.210,248.649,376.628C253.206,373.628,245.914,370.864,243.660,369.975M191.093,266.179C194.088,253.538,221.036,240.563,234.012,241.561C242.994,242.226,271.274,256.199,275.266,264.517C278.592,271.170,279.590,295.789,279.924,304.107C280.257,319.412,281.070,334.757,282.253,350.019C283.831,362.560,286.817,374.879,289.570,387.215C290.126,393.511,293.643,410.286,287.684,413.870C279.970,419.022,261.389,405.475,253.967,401.247C227.587,387.160,229.709,385.056,201.685,383.916C198.254,383.645,187.117,386.635,184.778,385.309C180.780,382.388,182.448,376.649,183.447,371.987C186.441,360.340,189.763,352.683,191.427,340.038C193.421,324.069,194.088,306.768,194.088,290.134C193.755,284.145,190.429,269.839,191.093,266.179M269.943,247.549C253.640,237.899,237.670,229.915,218.042,235.573C212.718,236.902,186.103,249.877,183.773,253.205C180.115,258.529,183.773,278.821,183.773,286.141C184.107,294.791,184.440,303.773,183.773,312.092C183.442,318.413,182.111,324.069,182.111,330.057C181.777,336.710,182.443,344.030,180.780,350.019C177.455,361.671,163.305,383.764,176.473,393.299C181.713,397.123,190.251,395.292,197.028,396.291C207.925,397.685,219.541,399.999,230.028,403.795C240.350,407.858,247.913,417.716,258.712,420.790C266.981,423.145,294.615,428.195,300.483,421.262C304.445,416.790,299.870,390.407,298.694,383.758C295.723,370.647,293.005,357.397,291.567,344.031C290.617,332.087,289.239,320.410,289.904,308.100C290.237,298.119,291.900,288.471,291.900,278.157C291.567,273.831,292.234,268.510,289.904,264.184C285.912,256.199,277.263,251.873,269.943,247.549Z"/>
<path class="path-13" d="M243.660,369.975C238.999,367.897,221.048,359.691,218.172,364.137"/>
<path class="path-13" d="M218.172,364.137C215.738,368.160,220.367,369.062,224.424,369.591"/>
<path class="path-13" d="M224.424,369.591C228.020,370.061,246.182,378.210,248.649,376.628"/>
<path class="path-13" d="M248.649,376.628C253.206,373.628,245.914,370.864,243.660,369.975"/>
<path class="path-13" d="M191.093,266.179C194.088,253.538,221.036,240.563,234.012,241.561"/>
<path class="path-13" d="M234.012,241.561C242.994,242.226,271.274,256.199,275.266,264.517"/>
<path class="path-13" d="M275.266,264.517C278.592,271.170,279.590,295.789,279.924,304.107"/>
<path class="path-13" d="M279.924,304.107C280.257,319.412,281.070,334.757,282.253,350.019"/>
<path class="path-13" d="M282.253,350.019C283.831,362.560,286.817,374.879,289.570,387.215"/>
<path class="path-13" d="M289.570,387.215C290.126,393.511,293.643,410.286,287.684,413.870"/>
<path class="path-13" d="M287.684,413.870C279.970,419.022,261.389,405.475,253.967,401.247"/>
<path class="path-13" d="M253.967,401.247C227.587,387.160,229.709,385.056,201.685,383.916"/>
<path class="path-13" d="M201.685,383.916C198.254,383.645,187.117,386.635,184.778,385.309"/>
<path class="path-13" d="M184.778,385.309C180.780,382.388,182.448,376.649,183.447,371.987"/>
<path class="path-13" d="M183.447,371.987C186.441,360.340,189.763,352.683,191.427,340.038"/>
<path class="path-13" d="M191.427,340.038C193.421,324.069,194.088,306.768,194.088,290.134"/>
<path class="path-13" d="M194.088,290.134C193.755,284.145,190.429,269.839,191.093,266.179"/>
<path class="path-14" d="M243.660,369.975C238.999,367.897,221.048,359.691,218.172,364.137C215.738,368.160,220.367,369.062,224.424,369.591C228.020,370.061,246.182,378.210,248.649,376.628C253.206,373.628,245.914,370.864,243.660,369.975M191.093,266.179C194.088,253.538,221.036,240.563,234.012,241.561C242.994,242.226,271.274,256.199,275.266,264.517C278.592,271.170,279.590,295.789,279.924,304.107C280.257,319.412,281.070,334.757,282.253,350.019C283.831,362.560,286.817,374.879,289.570,387.215C290.126,393.511,293.643,410.286,287.684,413.870C279.970,419.022,261.389,405.475,253.967,401.247C227.587,387.160,229.709,385.056,201.685,383.916C198.254,383.645,187.117,386.635,184.778,385.309C180.780,382.388,182.448,376.649,183.447,371.987C186.441,360.340,189.763,352.683,191.427,340.038C193.421,324.069,194.088,306.768,194.088,290.134C193.755,284.145,190.429,269.839,191.093,266.179Z"/>
</g>
<g id="neck">
<path class="path-0" d="M229.021,222.597C229.354,219.269,230.353,216.275,234.012,215.942C245.656,213.946,244.657,251.542,234.012,251.542C224.031,251.542,228.356,228.917,229.021,222.597M234.012,206.628C231.351,206.295,228.357,206.959,226.027,208.291C216.711,212.948,218.042,221.599,218.042,230.248C217.708,234.574,218.042,238.567,216.046,242.226C214.383,245.553,209.724,248.879,209.724,252.540C210.057,262.521,237.006,262.521,243.993,262.188C246.653,262.187,255.636,263.185,256.634,259.526C256.634,258.528,249.981,246.883,248.983,242.226C245.989,228.252,255.305,207.626,234.012,206.628Z"/>
<path class="path-15" d="M234.012,215.942C245.656,213.946,244.657,251.542,234.012,251.542"/>
<path class="path-15" d="M234.012,251.542C224.031,251.542,228.356,228.917,229.021,222.597"/>
<path class="path-15" d="M229.021,222.597C229.354,219.269,230.353,216.275,234.012,215.942"/>
<path class="path-16" d="M234.012,215.942C245.656,213.946,244.657,251.542,234.012,251.542C224.031,251.542,228.356,228.917,229.021,222.597C229.354,219.269,230.353,216.275,234.012,215.942Z"/>
</g>
<g id="layer_head">
<g id="right_ear">
<path class="path-0" d="M149.722,193.599C135.184,194.438,119.942,160.183,141.486,161.299C144.980,161.480,147.922,167.326,148.526,169.922C150.771,179.568,160.120,192.998,149.722,193.599M146.963,149.718C143.638,147.729,139.549,147.066,136.001,148.621C125.120,151.444,119.358,164.327,121.327,175.453C123.662,187.863,137.547,201.526,149.076,203.732C152.120,204.330,158.404,206.406,161.286,204.846C167.914,200.712,161.012,190.481,159.010,184.687C157.015,178.476,151.709,153.792,146.963,149.718Z"/>
<path class="path-15" d="M141.486,161.299C144.980,161.480,147.922,167.326,148.526,169.922"/>
<path class="path-15" d="M148.526,169.922C150.771,179.568,160.120,192.998,149.722,193.599"/>
<path class="path-15" d="M149.722,193.599C135.184,194.438,119.942,160.183,141.486,161.299"/>
<path class="path-16" d="M141.486,161.299C144.980,161.480,147.922,167.326,148.526,169.922C150.771,179.568,160.120,192.998,149.722,193.599C135.184,194.438,119.942,160.183,141.486,161.299Z"/>
</g>
<g id="face_Mask">
<g id="face">
<path class="path-0" d="M165.143,104.823C173.630,94.374,206.398,87.189,220.038,85.193C235.343,83.197,250.979,85.526,265.950,90.183C271.274,91.848,278.926,93.843,283.582,97.503C291.565,103.825,296.669,115.099,299.545,124.451C301.827,131.240,305.933,140.376,304.061,146.881C295.559,176.426,291.619,190.081,285.703,198.337C278.399,208.530,265.171,212.311,253.600,216.864C241.946,221.258,230.121,222.647,224.005,222.271C211.696,221.514,185.180,215.475,176.084,207.950C165.177,198.581,164.031,184.270,159.588,171.236C157.068,164.529,152.808,154.488,151.449,147.601C149.450,136.550,158.158,113.344,165.143,104.823M287.600,89.827C273.983,77.607,237.715,74.796,220.081,77.440C211.762,78.430,203.776,79.088,196.122,81.079C190.463,82.741,185.467,85.400,180.140,87.063C168.494,91.387,163.682,89.948,155.852,100.713C150.229,108.248,141.356,137.949,142.414,147.132C143.329,154.019,150.919,169.220,153.384,176.923C156.590,187.146,158.980,201.879,165.592,209.822C173.044,218.515,183.180,223.043,198.692,227.132C209.941,230.097,222.388,230.955,234.366,231.156C238.776,231.501,246.966,229.018,258.823,224.104C270.917,218.913,284.275,214.593,292.592,203.272C302.494,189.794,306.238,167.615,314.588,145.437C321.517,127.035,296.085,97.277,287.600,89.827Z"/>
<path class="path-15" d="M220.038,85.193C235.343,83.197,250.979,85.526,265.950,90.183"/>
<path class="path-15" d="M265.950,90.183C271.274,91.848,278.926,93.843,283.582,97.503"/>
<path class="path-15" d="M283.582,97.503C291.565,103.825,296.669,115.099,299.545,124.451"/>
<path class="path-15" d="M299.545,124.451C301.827,131.240,305.933,140.376,304.061,146.881"/>
<path class="path-15" d="M304.061,146.881C295.559,176.426,291.619,190.081,285.703,198.337"/>
<path class="path-15" d="M285.703,198.337C278.399,208.530,265.171,212.311,253.600,216.864"/>
<path class="path-15" d="M253.600,216.864C241.946,221.258,230.121,222.647,224.005,222.271"/>
<path class="path-15" d="M224.005,222.271C211.696,221.514,185.180,215.475,176.084,207.950"/>
<path class="path-15" d="M176.084,207.950C165.177,198.581,164.031,184.270,159.588,171.236"/>
<path class="path-15" d="M159.588,171.236C157.068,164.529,152.808,154.488,151.449,147.601"/>
<path class="path-15" d="M151.449,147.601C149.450,136.550,158.158,113.344,165.143,104.823"/>
<path class="path-15" d="M165.143,104.823C173.630,94.374,206.398,87.189,220.038,85.193"/>
<path class="path-16" d="M220.038,85.193C235.343,83.197,250.979,85.526,265.950,90.183C271.274,91.848,278.926,93.843,283.582,97.503C291.565,103.825,296.669,115.099,299.545,124.451C301.827,131.240,305.933,140.376,304.061,146.881C295.559,176.426,291.619,190.081,285.703,198.337C278.399,208.530,265.171,212.311,253.600,216.864C241.946,221.258,230.121,222.647,224.005,222.271C211.696,221.514,185.180,215.475,176.084,207.950C165.177,198.581,164.031,184.270,159.588,171.236C157.068,164.529,152.808,154.488,151.449,147.601C149.450,136.550,158.158,113.344,165.143,104.823C173.630,94.374,206.398,87.189,220.038,85.193Z"/>
</g>
</g>
<mask id="mask_target" style="mask-type:alpha;">
<use xlink:href="#face_Mask"/>
</mask>
<g id="mouse">
<path class="path-0" d="M231.351,214.024C236.556,215.128,236.639,219.881,236.165,220.388C235.898,220.674,234.776,219.723,231.816,219.236C226.210,218.314,223.504,219.487,223.306,218.773C223.090,217.990,225.259,212.732,231.351,214.024Z"/>
</g>
<g id="layer_eyes_Mtarget" mask="url(#mask_target)">
<g id="eyes">
<mask style="mask-type:alpha;" id="f3906406-f197-4bf1-91d8-744c09cca836">
<use xlink:href="#cmn_f3906406-f197-4bf1-91d8-744c09cca836"/>
</mask>
<g id="cmn_f3906406-f197-4bf1-91d8-744c09cca836">
<path class="path-0" d="M208.953,173.942C210.662,186.848,202.251,195.333,189.291,191.910C181.791,189.708,178.413,184.203,175.743,177.498C174.171,173.969,166.541,157.840,172.270,159.700C176.945,161.218,208.333,169.259,208.953,173.942M215.609,177.017C216.499,175.510,217.770,173.238,217.523,171.504C217.247,169.566,215.654,166.475,213.683,166.226C208.331,165.429,189.494,159.276,182.701,156.773C175.922,154.439,162.351,146.273,158.065,153.187C156.459,155.655,160.332,156.314,161.684,160.190C168.262,179.055,174.015,196.641,194.586,197.617C212.360,198.460,211.119,184.620,215.609,177.017M258.289,186.789C251.198,186.659,241.837,181.279,241.878,170.229C241.890,166.897,255.351,161.615,261.385,158.378C267.307,155.202,278.582,148.774,281.660,148.860C285.146,149.378,283.385,152.471,283.432,162.099C283.502,176.461,271.231,187.027,258.289,186.789M289.531,168.418C292.452,156.345,292.861,140.207,290.513,139.168C285.523,136.958,272.867,146.314,265.462,149.733C255.758,154.213,240.342,163.638,233.664,165.799C231.732,166.503,229.989,167.054,229.731,168.454C229.219,171.232,234.490,173.034,236.288,175.213C239.473,179.073,240.469,186.134,245.707,188.980C255.606,194.761,263.068,192.488,273.921,187.518C282.391,183.680,287.468,176.946,289.531,168.418Z"/>
<path class="path-17" d="M281.660,148.860C285.146,149.378,283.385,152.471,283.432,162.099"/>
<path class="path-17" d="M283.432,162.099C283.502,176.461,271.231,187.027,258.289,186.789"/>
<path class="path-17" d="M258.289,186.789C251.198,186.659,241.837,181.279,241.878,170.229"/>
<path class="path-17" d="M241.878,170.229C241.890,166.897,255.351,161.615,261.385,158.378"/>
<path class="path-17" d="M261.385,158.378C267.307,155.202,278.582,148.774,281.660,148.860"/>
<path class="path-18" d="M281.660,148.860C285.146,149.378,283.385,152.471,283.432,162.099C283.502,176.461,271.231,187.027,258.289,186.789C251.198,186.659,241.837,181.279,241.878,170.229C241.890,166.897,255.351,161.615,261.385,158.378C267.307,155.202,278.582,148.774,281.660,148.860Z"/>
<path class="path-17" d="M172.270,159.700C176.945,161.218,208.333,169.259,208.953,173.942"/>
<path class="path-17" d="M208.953,173.942C210.662,186.848,202.251,195.333,189.291,191.910"/>
<path class="path-17" d="M189.291,191.910C181.791,189.708,178.413,184.203,175.743,177.498"/>
<path class="path-17" d="M175.743,177.498C174.171,173.969,166.541,157.840,172.270,159.700"/>
<path class="path-18" d="M172.270,159.700C176.945,161.218,208.333,169.259,208.953,173.942C210.662,186.848,202.251,195.333,189.291,191.910C181.791,189.708,178.413,184.203,175.743,177.498C174.171,173.969,166.541,157.840,172.270,159.700Z"/>
</g>
</g>
<g id="pupil">
<path class="path-0" d="M247.699,163.350C249.971,162.779,253.192,165.912,254.053,174.318C254.703,180.664,253.014,183.268,251.257,183.468C249.357,183.685,247.711,181.095,246.428,174.318C245.059,167.086,245.720,163.848,247.699,163.350Z" mask="url(#f3906406-f197-4bf1-91d8-744c09cca836)"/>
<path class="path-0" d="M200.712,166.329C203.053,166.028,204.866,169.874,205.426,178.652C205.744,183.647,205.196,185.682,203.891,186.001C202.335,186.382,200.215,184.431,198.807,178.630C196.850,170.566,198.503,166.613,200.712,166.329Z" mask="url(#f3906406-f197-4bf1-91d8-744c09cca836)"/>
</g>
</g>
<g id="hat">
<path class="path-0" d="M303.544,122.455C305.540,123.786,308.535,126.114,308.868,128.777C310.199,135.097,299.221,134.432,295.893,134.766C289.240,134.766,282.285,134.572,275.931,134.766C270.847,135.383,265.760,135.960,260.665,136.485C252.444,136.689,244.229,136.478,236.007,136.428C221.369,136.916,206.733,136.478,192.092,136.428C190.803,136.476,151.170,141.086,144.517,137.427C135.866,132.769,144.849,126.114,144.517,121.790C144.517,118.129,136.532,117.132,138.528,110.812C140.524,104.823,161.816,100.831,168.138,99.499C180.448,96.838,193.090,93.177,206.065,91.181C224.364,88.520,243.328,88.853,261.958,87.188C274.269,86.190,302.546,94.175,307.870,106.819C312.527,117.464,295.893,107.484,293.897,106.819C292.565,105.821,287.909,103.825,288.907,106.819C289.905,112.474,299.552,119.127,303.544,122.455M186.103,86.857C175.766,89.428,166.141,91.181,156.160,93.511C151.835,94.509,146.513,97.169,142.521,94.842C133.538,89.851,143.185,66.895,147.511,60.907C161.816,41.610,192.794,33.362,218.042,33.292C262.978,33.167,280.588,39.947,295.560,54.919C300.219,59.242,316.852,80.869,308.203,86.857C304.876,88.853,298.887,84.861,295.893,83.530C285.579,79.204,244.264,72.395,186.103,86.857M243.993,22.647C237.006,22.313,235.343,20.984,228.023,21.649C196.749,24.976,154.498,26.306,135.866,56.582C129.877,66.562,129.877,77.875,127.881,88.520C126.218,97.170,121.228,103.825,122.226,112.475C123.224,119.461,126.218,121.124,128.547,126.448C131.208,132.103,129.877,134.766,131.542,138.425C135.201,149.071,144.849,148.494,154.165,148.406C159.016,148.361,176.910,148.224,186.657,148.047C198.573,147.831,214.460,147.417,226.373,147.032C235.503,146.738,247.677,146.322,256.801,145.855C265.185,145.427,276.367,144.837,284.729,144.087C294.994,143.167,317.662,141.335,318.849,140.088C320.983,137.886,324.838,116.467,324.838,112.475C324.838,109.147,323.175,105.821,323.175,100.497C322.841,85.859,322.508,72.218,314.192,58.578C298.887,33.959,271.274,24.643,243.993,22.647Z"/>
<path class="path-19" d="M261.958,87.188C274.269,86.190,302.546,94.175,307.870,106.819"/>
<path class="path-19" d="M307.870,106.819C312.527,117.464,295.893,107.484,293.897,106.819"/>
<path class="path-19" d="M293.897,106.819C292.565,105.821,287.909,103.825,288.907,106.819"/>
<path class="path-19" d="M288.907,106.819C289.905,112.474,299.552,119.127,303.544,122.455"/>
<path class="path-19" d="M303.544,122.455C305.540,123.786,308.535,126.114,308.868,128.777"/>
<path class="path-19" d="M308.868,128.777C310.199,135.097,299.221,134.432,295.893,134.766"/>
<path class="path-19" d="M295.893,134.766C289.240,134.766,282.285,134.572,275.931,134.766"/>
<path class="path-19" d="M275.931,134.766C270.847,135.383,265.760,135.960,260.665,136.485"/>
<path class="path-19" d="M260.665,136.485C252.444,136.689,244.229,136.478,236.007,136.428"/>
<path class="path-19" d="M236.007,136.428C221.369,136.916,206.733,136.478,192.092,136.428"/>
<path class="path-19" d="M192.092,136.428C190.803,136.476,151.170,141.086,144.517,137.427"/>
<path class="path-19" d="M144.517,137.427C135.866,132.769,144.849,126.114,144.517,121.790"/>
<path class="path-19" d="M144.517,121.790C144.517,118.129,136.532,117.132,138.528,110.812"/>
<path class="path-19" d="M138.528,110.812C140.524,104.823,161.816,100.831,168.138,99.499"/>
<path class="path-19" d="M168.138,99.499C180.448,96.838,193.090,93.177,206.065,91.181"/>
<path class="path-19" d="M206.065,91.181C224.364,88.520,243.328,88.853,261.958,87.188"/>
<path class="path-20" d="M261.958,87.188C274.269,86.190,302.546,94.175,307.870,106.819C312.527,117.464,295.893,107.484,293.897,106.819C292.565,105.821,287.909,103.825,288.907,106.819C289.905,112.474,299.552,119.127,303.544,122.455C305.540,123.786,308.535,126.114,308.868,128.777C310.199,135.097,299.221,134.432,295.893,134.766C289.240,134.766,282.285,134.572,275.931,134.766C270.847,135.383,265.760,135.960,260.665,136.485C252.444,136.689,244.229,136.478,236.007,136.428C221.369,136.916,206.733,136.478,192.092,136.428C190.803,136.476,151.170,141.086,144.517,137.427C135.866,132.769,144.849,126.114,144.517,121.790C144.517,118.129,136.532,117.132,138.528,110.812C140.524,104.823,161.816,100.831,168.138,99.499C180.448,96.838,193.090,93.177,206.065,91.181C224.364,88.520,243.328,88.853,261.958,87.188Z"/>
<path class="path-9" d="M218.042,33.292C262.978,33.167,280.588,39.947,295.560,54.919"/>
<path class="path-9" d="M295.560,54.919C300.219,59.242,316.852,80.869,308.203,86.857"/>
<path class="path-9" d="M308.203,86.857C304.876,88.853,298.887,84.861,295.893,83.530"/>
<path class="path-9" d="M295.893,83.530C285.579,79.204,244.264,72.395,186.103,86.857"/>
<path class="path-9" d="M186.103,86.857C175.766,89.428,166.141,91.181,156.160,93.511"/>
<path class="path-9" d="M156.160,93.511C151.835,94.509,146.513,97.169,142.521,94.842"/>
<path class="path-9" d="M142.521,94.842C133.538,89.851,143.185,66.895,147.511,60.907"/>
<path class="path-9" d="M147.511,60.907C161.816,41.610,192.794,33.362,218.042,33.292"/>
<path class="path-10" d="M218.042,33.292C262.978,33.167,280.588,39.947,295.560,54.919C300.219,59.242,316.852,80.869,308.203,86.857C304.876,88.853,298.887,84.861,295.893,83.530C285.579,79.204,244.264,72.395,186.103,86.857C175.766,89.428,166.141,91.181,156.160,93.511C151.835,94.509,146.513,97.169,142.521,94.842C133.538,89.851,143.185,66.895,147.511,60.907C161.816,41.610,192.794,33.362,218.042,33.292Z"/>
</g>
<g id="left_ear">
<path class="path-0" d="M303.230,187.124C302.118,183.284,311.843,159.031,313.462,156.804C318.398,150.012,329.997,160.437,331.006,166.920C332.098,175.025,320.340,182.962,313.706,187.744C308.875,191.115,304.651,192.029,303.230,187.124M339.322,170.912C340.987,158.270,330.034,141.497,317.698,144.297C304.669,147.254,303.392,164.590,299.399,174.904C297.736,179.561,295.075,184.220,294.408,188.877C293.079,197.195,296.405,204.514,305.721,202.517C319.029,199.523,336.995,185.218,339.322,170.912Z"/>
<path class="path-15" d="M313.462,156.804C318.398,150.012,329.997,160.437,331.006,166.920"/>
<path class="path-15" d="M331.006,166.920C332.098,175.025,320.340,182.962,313.706,187.744"/>
<path class="path-15" d="M313.706,187.744C308.875,191.115,304.651,192.029,303.230,187.124"/>
<path class="path-15" d="M303.230,187.124C302.118,183.284,311.843,159.031,313.462,156.804"/>
<path class="path-16" d="M313.462,156.804C318.398,150.012,329.997,160.437,331.006,166.920C332.098,175.025,320.340,182.962,313.706,187.744C308.875,191.115,304.651,192.029,303.230,187.124C302.118,183.284,311.843,159.031,313.462,156.804Z"/>
</g>
<g id="earrings">
<path class="path-0" d="M324.020,204.829C315.097,207.834,313.607,187.986,317.418,188.617C322.671,190.831,326.544,200.903,324.020,204.829M332.571,197.393C325.681,196.111,323.377,187.572,323.192,183.590C330.783,186.004,340.001,192.652,332.571,197.393M340.474,192.322C338.195,184.620,327.366,179.128,319.847,176.352C317.594,175.520,312.432,183.897,312.060,186.396C310.871,190.266,309.453,212.701,322.941,210.971C328.431,210.019,342.317,198.553,340.474,192.322Z"/>
<path class="path-21" d="M323.192,183.590C330.783,186.004,340.001,192.652,332.571,197.393"/>
<path class="path-21" d="M332.571,197.393C325.681,196.111,323.377,187.572,323.192,183.590"/>
<path class="path-22" d="M323.192,183.590C330.783,186.004,340.001,192.652,332.571,197.393C325.681,196.111,323.377,187.572,323.192,183.590Z"/>
<path class="path-21" d="M317.418,188.617C322.671,190.831,326.544,200.903,324.020,204.829"/>
<path class="path-21" d="M324.020,204.829C315.097,207.834,313.607,187.986,317.418,188.617"/>
<path class="path-22" d="M317.418,188.617C322.671,190.831,326.544,200.903,324.020,204.829C315.097,207.834,313.607,187.986,317.418,188.617Z"/>
</g>
</g>
<g id="jacket">
<path class="path-0" d="M202.406,270.837C205.066,275.163,202.403,285.477,202.402,290.134C200.403,307.103,197.453,323.356,197.738,340.043C197.924,343.978,196.693,350.870,194.755,355.022C193.340,358.056,190.689,362.610,187.896,363.827C184.463,365.262,182.964,358.559,182.016,355.706C180.720,351.803,181.843,344.593,182.095,341.988C182.926,336.784,185.524,326.710,185.432,320.063C185.391,313.556,182.035,307.272,181.399,300.124C180.487,294.761,179.025,288.449,177.898,282.487C177.932,279.338,178.465,277.387,178.534,275.162C178.197,269.679,180.859,268.284,186.105,267.842C190.947,267.778,200.742,265.516,202.406,270.837M258.638,280.477C260.292,276.814,286.203,259.293,289.563,257.537C297.893,253.677,302.057,262.955,301.994,268.359C302.005,277.058,287.260,305.723,288.920,311.743C289.494,314.427,291.572,315.741,293.234,317.408C306.227,331.773,300.250,323.053,313.914,329.432C320.184,332.423,331.986,341.135,337.297,345.399C340.571,348.363,347.994,354.975,349.782,358.711C350.793,361.410,351.743,366.390,347.654,367.479C346.186,368.069,330.251,366.794,327.537,366.841C315.293,366.393,302.088,367.003,291.876,358.690C288.532,355.652,285.878,351.266,283.196,347.233C273.724,333.487,267.077,318.181,262.093,302.178C260.061,296.508,256.648,286.497,258.638,280.477M275.232,255.283C272.186,258.417,266.127,263.492,263.957,264.510C256.058,267.712,254.503,258.170,253.982,252.207C253.717,247.059,256.688,239.766,259.764,235.417C262.475,231.586,266.847,226.332,271.946,225.600C278.377,224.444,289.283,231.260,287.909,238.568C287.495,241.925,279.619,250.770,275.232,255.283M193.148,233.686C198.065,237.606,201.628,242.310,200.800,246.784C200.020,251.001,196.955,253.377,189.763,255.866C178.453,259.779,169.491,242.431,172.998,235.280C175.667,229.835,186.828,228.648,193.148,233.686M363.462,365.130C359.768,358.813,358.316,353.890,353.228,348.191C345.525,339.731,335.865,330.553,325.987,324.894C315.957,319.486,307.934,321.100,301.218,310.092C295.360,300.856,299.591,290.543,301.065,280.152C301.430,276.461,302.027,257.595,302.096,254.210C301.646,250.798,302.057,247.353,301.546,244.226C301.042,240.365,301.549,236.241,300.220,232.582C298.226,225.928,291.242,222.934,285.920,219.609C278.602,215.617,272.280,213.724,263.967,215.618C254.855,217.706,251.749,227.858,249.182,234.606C245.270,244.890,247.354,260.260,247.764,271.255C248.000,277.548,249.072,286.271,249.975,292.130C253.090,314.703,276.541,362.315,297.641,371.311C302.225,373.626,333.147,377.936,342.856,378.269C348.868,378.507,351.914,378.598,357.319,380.835C359.949,382.045,366.495,385.537,369.116,382.916C373.007,379.274,365.431,368.500,363.462,365.130M207.067,233.565C203.773,227.820,198.338,218.280,191.565,217.851C185.168,217.651,175.444,218.966,169.651,222.356C166.160,224.399,160.870,228.174,160.495,232.253C159.796,238.334,162.378,245.600,165.462,250.288C167.234,252.982,171.530,254.889,173.620,257.285C174.716,258.613,178.822,265.924,179.558,267.927C183.605,278.068,179.247,290.131,178.588,299.621C178.039,307.529,176.474,317.998,175.775,325.894C174.981,334.862,174.316,346.036,173.689,355.833C173.419,358.116,173.448,363.204,173.721,366.346C174.006,369.618,173.916,375.731,175.590,377.135C176.446,377.854,186.728,379.222,190.940,377.360C195.136,375.506,198.535,375.428,201.071,365.909C203.999,353.770,205.731,342.651,206.068,330.025C206.076,308.422,212.469,279.352,211.726,266.180C211.387,260.168,212.445,256.171,211.198,247.784C210.578,244.324,209.277,237.418,207.067,233.565Z"/>
<path class="path-1" d="M289.563,257.537C297.893,253.677,302.057,262.955,301.994,268.359"/>
<path class="path-1" d="M301.994,268.359C302.005,277.058,287.260,305.723,288.920,311.743"/>
<path class="path-1" d="M288.920,311.743C289.494,314.427,291.572,315.741,293.234,317.408"/>
<path class="path-1" d="M293.234,317.408C306.227,331.773,300.250,323.053,313.914,329.432"/>
<path class="path-1" d="M313.914,329.432C320.184,332.423,331.986,341.135,337.297,345.399"/>
<path class="path-1" d="M337.297,345.399C340.571,348.363,347.994,354.975,349.782,358.711"/>
<path class="path-1" d="M349.782,358.711C350.793,361.410,351.743,366.390,347.654,367.479"/>
<path class="path-1" d="M347.654,367.479C346.186,368.069,330.251,366.794,327.537,366.841"/>
<path class="path-1" d="M327.537,366.841C315.293,366.393,302.088,367.003,291.876,358.690"/>
<path class="path-1" d="M291.876,358.690C288.532,355.652,285.878,351.266,283.196,347.233"/>
<path class="path-1" d="M283.196,347.233C273.724,333.487,267.077,318.181,262.093,302.178"/>
<path class="path-1" d="M262.093,302.178C260.061,296.508,256.648,286.497,258.638,280.477"/>
<path class="path-1" d="M258.638,280.477C260.292,276.814,286.203,259.293,289.563,257.537"/>
<path class="path-2" d="M289.563,257.537C297.893,253.677,302.057,262.955,301.994,268.359C302.005,277.058,287.260,305.723,288.920,311.743C289.494,314.427,291.572,315.741,293.234,317.408C306.227,331.773,300.250,323.053,313.914,329.432C320.184,332.423,331.986,341.135,337.297,345.399C340.571,348.363,347.994,354.975,349.782,358.711C350.793,361.410,351.743,366.390,347.654,367.479C346.186,368.069,330.251,366.794,327.537,366.841C315.293,366.393,302.088,367.003,291.876,358.690C288.532,355.652,285.878,351.266,283.196,347.233C273.724,333.487,267.077,318.181,262.093,302.178C260.061,296.508,256.648,286.497,258.638,280.477C260.292,276.814,286.203,259.293,289.563,257.537Z"/>
<path class="path-1" d="M186.105,267.842C190.947,267.778,200.742,265.516,202.406,270.837"/>
<path class="path-1" d="M202.406,270.837C205.066,275.163,202.403,285.477,202.402,290.134"/>
<path class="path-1" d="M202.402,290.134C200.403,307.103,197.453,323.356,197.738,340.043"/>
<path class="path-1" d="M197.738,340.043C197.924,343.978,196.693,350.870,194.755,355.022"/>
<path class="path-1" d="M194.755,355.022C193.340,358.056,190.689,362.610,187.896,363.827"/>
<path class="path-1" d="M187.896,363.827C184.463,365.262,182.964,358.559,182.016,355.706"/>
<path class="path-1" d="M182.016,355.706C180.720,351.803,181.843,344.593,182.095,341.988"/>
<path class="path-1" d="M182.095,341.988C182.926,336.784,185.524,326.710,185.432,320.063"/>
<path class="path-1" d="M185.432,320.063C185.391,313.556,182.035,307.272,181.399,300.124"/>
<path class="path-1" d="M181.399,300.124C180.487,294.761,179.025,288.449,177.898,282.487"/>
<path class="path-1" d="M177.898,282.487C177.932,279.338,178.465,277.387,178.534,275.162"/>
<path class="path-1" d="M178.534,275.162C178.197,269.679,180.859,268.284,186.105,267.842"/>
<path class="path-2" d="M186.105,267.842C190.947,267.778,200.742,265.516,202.406,270.837C205.066,275.163,202.403,285.477,202.402,290.134C200.403,307.103,197.453,323.356,197.738,340.043C197.924,343.978,196.693,350.870,194.755,355.022C193.340,358.056,190.689,362.610,187.896,363.827C184.463,365.262,182.964,358.559,182.016,355.706C180.720,351.803,181.843,344.593,182.095,341.988C182.926,336.784,185.524,326.710,185.432,320.063C185.391,313.556,182.035,307.272,181.399,300.124C180.487,294.761,179.025,288.449,177.898,282.487C177.932,279.338,178.465,277.387,178.534,275.162C178.197,269.679,180.859,268.284,186.105,267.842Z"/>
<path class="path-1" d="M271.946,225.600C278.377,224.444,289.283,231.260,287.909,238.568"/>
<path class="path-1" d="M287.909,238.568C287.495,241.925,279.619,250.770,275.232,255.283"/>
<path class="path-1" d="M275.232,255.283C272.186,258.417,266.127,263.492,263.957,264.510"/>
<path class="path-1" d="M263.957,264.510C256.058,267.712,254.503,258.170,253.982,252.207"/>
<path class="path-1" d="M253.982,252.207C253.717,247.059,256.688,239.766,259.764,235.417"/>
<path class="path-1" d="M259.764,235.417C262.475,231.586,266.847,226.332,271.946,225.600"/>
<path class="path-2" d="M271.946,225.600C278.377,224.444,289.283,231.260,287.909,238.568C287.495,241.925,279.619,250.770,275.232,255.283C272.186,258.417,266.127,263.492,263.957,264.510C256.058,267.712,254.503,258.170,253.982,252.207C253.717,247.059,256.688,239.766,259.764,235.417C262.475,231.586,266.847,226.332,271.946,225.600Z"/>
<path class="path-1" d="M193.148,233.686C198.065,237.606,201.628,242.310,200.800,246.784"/>
<path class="path-1" d="M200.800,246.784C200.020,251.001,196.955,253.377,189.763,255.866"/>
<path class="path-1" d="M189.763,255.866C178.453,259.779,169.491,242.431,172.998,235.280"/>
<path class="path-1" d="M172.998,235.280C175.667,229.835,186.828,228.648,193.148,233.686"/>
<path class="path-2" d="M193.148,233.686C198.065,237.606,201.628,242.310,200.800,246.784C200.020,251.001,196.955,253.377,189.763,255.866C178.453,259.779,169.491,242.431,172.998,235.280C175.667,229.835,186.828,228.648,193.148,233.686Z"/>
</g>
<g id="left_arm">
<path class="path-0" d="M290.903,459.809C287.577,454.486,286.253,445.507,293.902,443.181C299.225,441.518,323.175,446.839,327.167,450.830C334.152,457.151,330.160,471.786,321.510,475.113C311.529,478.439,296.224,468.128,290.903,459.809M279.516,276.423C280.393,273.226,288.864,263.064,293.897,264.184C296.819,264.834,298.222,269.839,299.220,272.502C301.881,280.818,304.543,289.469,306.872,298.119C313.194,320.741,317.517,343.366,322.177,365.988C323.840,375.305,323.840,387.613,327.168,395.931C331.160,405.578,337.480,402.253,340.474,408.573C341.805,411.567,341.140,417.224,343.136,421.881C346.130,429.201,351.785,433.194,354.446,437.851C356.111,440.512,356.776,443.506,353.117,444.173C351.121,445.171,345.797,444.175,343.800,444.175C337.143,442.404,330.489,440.630,323.838,438.853C314.855,436.857,287.574,435.523,282.917,429.534C275.931,420.219,286.910,409.240,288.241,399.924C288.906,396.930,292.189,352.967,291.567,350.019C290.899,343.164,287.387,337.131,285.841,330.057C284.214,320.430,282.539,310.147,281.179,300.115C280.223,291.877,276.733,285.067,279.516,276.423M305.541,254.536C303.213,249.877,295.893,241.561,289.904,242.890C284.914,244.222,284.249,250.210,283.582,254.203C281.920,264.184,279.924,272.502,279.924,282.149C279.590,289.136,280.257,295.458,280.921,302.111C281.586,311.427,279.590,329.392,279.924,340.038C279.924,349.686,282.253,359.667,281.586,367.985C279.590,387.613,271.273,406.246,271.938,425.874C271.939,435.855,274.600,435.855,276.929,443.840C278.592,449.828,277.263,456.150,279.590,461.805C285.579,476.776,302.880,490.416,319.847,487.091C335.483,484.096,336.150,467.129,344.466,458.146C351.786,450.161,366.424,454.154,368.420,445.835C370.416,438.849,360.768,431.198,357.110,425.874C349.790,415.893,355.446,413.564,351.787,405.912C349.126,400.257,341.473,395.267,337.814,387.947C335.818,384.619,334.820,378.299,333.488,373.973C330.827,363.992,327.832,352.680,326.169,342.034C324.504,329.724,324.173,318.745,320.845,306.103C318.184,295.458,310.200,262.852,305.541,254.536Z"/>
<path class="path-1" d="M293.897,264.184C296.819,264.834,298.222,269.839,299.220,272.502"/>
<path class="path-1" d="M299.220,272.502C301.881,280.818,304.543,289.469,306.872,298.119"/>
<path class="path-1" d="M306.872,298.119C313.194,320.741,317.517,343.366,322.177,365.988"/>
<path class="path-1" d="M322.177,365.988C323.840,375.305,323.840,387.613,327.168,395.931"/>
<path class="path-1" d="M327.168,395.931C331.160,405.578,337.480,402.253,340.474,408.573"/>
<path class="path-1" d="M340.474,408.573C341.805,411.567,341.140,417.224,343.136,421.881"/>
<path class="path-1" d="M343.136,421.881C346.130,429.201,351.785,433.194,354.446,437.851"/>
<path class="path-1" d="M354.446,437.851C356.111,440.512,356.776,443.506,353.117,444.173"/>
<path class="path-1" d="M353.117,444.173C351.121,445.171,345.797,444.175,343.800,444.175"/>
<path class="path-1" d="M343.800,444.175C337.143,442.404,330.489,440.630,323.838,438.853"/>
<path class="path-1" d="M323.838,438.853C314.855,436.857,287.574,435.523,282.917,429.534"/>
<path class="path-1" d="M282.917,429.534C275.931,420.219,286.910,409.240,288.241,399.924"/>
<path class="path-1" d="M288.241,399.924C288.906,396.930,292.189,352.967,291.567,350.019"/>
<path class="path-1" d="M291.567,350.019C290.899,343.164,287.387,337.131,285.841,330.057"/>
<path class="path-1" d="M285.841,330.057C284.214,320.430,282.539,310.147,281.179,300.115"/>
<path class="path-1" d="M281.179,300.115C280.223,291.877,276.733,285.067,279.516,276.423"/>
<path class="path-1" d="M279.516,276.423C280.393,273.226,288.864,263.064,293.897,264.184"/>
<path class="path-2" d="M293.897,264.184C296.819,264.834,298.222,269.839,299.220,272.502C301.881,280.818,304.543,289.469,306.872,298.119C313.194,320.741,317.517,343.366,322.177,365.988C323.840,375.305,323.840,387.613,327.168,395.931C331.160,405.578,337.480,402.253,340.474,408.573C341.805,411.567,341.140,417.224,343.136,421.881C346.130,429.201,351.785,433.194,354.446,437.851C356.111,440.512,356.776,443.506,353.117,444.173C351.121,445.171,345.797,444.175,343.800,444.175C337.143,442.404,330.489,440.630,323.838,438.853C314.855,436.857,287.574,435.523,282.917,429.534C275.931,420.219,286.910,409.240,288.241,399.924C288.906,396.930,292.189,352.967,291.567,350.019C290.899,343.164,287.387,337.131,285.841,330.057C284.214,320.430,282.539,310.147,281.179,300.115C280.223,291.877,276.733,285.067,279.516,276.423C280.393,273.226,288.864,263.064,293.897,264.184Z"/>
<path class="path-15" d="M293.902,443.181C299.225,441.518,323.175,446.839,327.167,450.830"/>
<path class="path-15" d="M327.167,450.830C334.152,457.151,330.160,471.786,321.510,475.113"/>
<path class="path-15" d="M321.510,475.113C311.529,478.439,296.224,468.128,290.903,459.809"/>
<path class="path-15" d="M290.903,459.809C287.577,454.486,286.253,445.507,293.902,443.181"/>
<path class="path-16" d="M293.902,443.181C299.225,441.518,323.175,446.839,327.167,450.830C334.152,457.151,330.160,471.786,321.510,475.113C311.529,478.439,296.224,468.128,290.903,459.809C287.577,454.486,286.253,445.507,293.902,443.181Z"/>
</g>
<g id="bone">
<g id="bone1_clothes">
<path class="path-23" d="M231.371,386.658C231.372,386.652,237.031,327.936,237.032,327.930C237.032,327.936,242.503,386.670,242.503,386.676C242.502,386.676,231.372,386.658,231.371,386.658"/>
</g>
<g id="bone2_clothes">
<path class="path-23" d="M232.621,327.529C232.622,327.522,234.362,255.016,234.362,255.009C234.363,255.016,246.355,326.544,246.356,326.551C246.355,326.551,232.623,327.529,232.621,327.529"/>
</g>
<g id="bone3_neck">
<path class="path-23" d="M237.761,253.792C237.761,253.787,233.104,212.348,233.103,212.344C233.103,212.348,231.168,254.004,231.168,254.008C231.168,254.008,237.761,253.792,237.761,253.792"/>
</g>
<g id="bone4_head">
<path class="path-23" d="M230.412,212.800C230.412,212.792,230.609,134.728,230.609,134.720C230.611,134.728,242.838,211.828,242.839,211.836C242.838,211.836,230.413,212.800,230.412,212.800"/>
</g>
<g id="bone5_left_arm">
<path class="path-23" d="M298.220,255.689C298.222,255.698,317.929,346.040,317.931,346.049C317.928,346.040,283.154,260.361,283.150,260.353C283.152,260.352,298.218,255.689,298.220,255.689"/>
</g>
<g id="bone6_left_arm">
<path class="path-23" d="M300.874,348.422C300.873,348.428,298.649,412.126,298.649,412.132C298.650,412.126,311.243,349.646,311.244,349.639C311.243,349.639,300.875,348.422,300.874,348.422"/>
</g>
<g id="bone7_right_arm">
<path class="path-23" d="M169.068,269.920C169.066,269.931,152.785,384.278,152.784,384.289C152.787,384.278,186.905,273.933,186.909,273.922C186.907,273.922,169.069,269.920,169.068,269.920"/>
</g>
<g id="bone8_right_arm">
<path class="path-23" d="M157.486,380.491C157.488,380.496,173.774,437.748,173.775,437.753C173.773,437.748,146.318,384.935,146.315,384.930C146.316,384.930,157.485,380.491,157.486,380.491"/>
</g>
<g id="bone9_left_leg">
<path class="path-23" d="M272.125,386.368C272.125,386.379,270.049,488.023,270.049,488.033C270.047,488.023,253.817,387.662,253.815,387.652C253.817,387.651,272.123,386.368,272.125,386.368"/>
</g>
<g id="bone10_right_leg">
<path class="path-23" d="M209.417,385.392C209.417,385.402,208.700,489.155,208.700,489.165C208.702,489.155,224.870,386.667,224.872,386.657C224.870,386.657,209.418,385.392,209.417,385.392"/>
</g>
<g id="bone11_hair">
<path class="path-23" d="M234.569,157.018C234.569,157.026,242.373,236.829,242.374,236.837C242.372,236.829,220.095,159.802,220.093,159.794C220.094,159.794,234.567,157.018,234.569,157.018"/>
</g>
<g id="bone12_left_leg_S">
<path class="path-23" d="M442.343,216.901C442.343,216.894,438.573,144.648,438.572,144.641C438.572,144.648,430.421,216.532,430.420,216.539C430.421,216.539,442.342,216.901,442.343,216.901"/>
</g>
<g id="bone13_right_leg_S">
<path class="path-23" d="M501.487,217.266C501.487,217.259,502.722,144.925,502.722,144.918C502.721,144.925,489.618,216.073,489.617,216.080C489.618,216.080,501.486,217.266,501.487,217.266"/>
</g>
<g id="bone14_left_arm_S">
<path class="path-23" d="M557.468,215.892C557.467,215.885,550.375,143.889,550.374,143.882C550.374,143.889,545.540,216.072,545.540,216.079C545.541,216.079,557.466,215.892,557.468,215.892"/>
</g>
<g id="bone15_jacket_S">
<path class="path-23" d="M610.567,216.328C610.567,216.320,608.702,144.000,608.702,143.993C608.701,144.000,598.658,215.644,598.657,215.651C598.659,215.651,610.566,216.328,610.567,216.328"/>
</g>
<g id="bone16_pupils_S">
<path class="path-23" d="M442.231,337.201C442.230,337.194,434.326,265.283,434.325,265.276C434.325,265.283,430.307,337.516,430.306,337.523C430.308,337.523,442.230,337.201,442.231,337.201"/>
</g>
<g id="bone17_eyelids_S">
<path class="path-23" d="M502.309,337.358C502.308,337.351,496.345,265.253,496.344,265.246C496.344,265.253,490.380,337.351,490.380,337.358C490.381,337.358,502.308,337.358,502.309,337.358"/>
</g>
<g id="bone18_face_S">
<path class="path-23" d="M557.989,339.200C557.988,339.193,552.162,267.084,552.162,267.076C552.161,267.084,546.060,339.170,546.059,339.177C546.060,339.177,557.987,339.200,557.989,339.200"/>
</g>
</g>
</g>
<style>
.path-0{fill:#000000;fill-rule:evenodd;stroke:none;}
.path-1{fill:none;stroke:#a60d3f;stroke-width:1;stroke-linecap:butt;stroke-linejoin:round;}
.path-2{fill:#a60d3f;fill-rule:evenodd;stroke:none;}
.path-3{fill:none;stroke:#d88e4b;stroke-width:1;stroke-linecap:butt;stroke-linejoin:round;}
.path-4{fill:#d88e4b;fill-rule:evenodd;stroke:none;}
.path-5{fill:none;stroke:#6e2353;stroke-width:1;stroke-linecap:butt;stroke-linejoin:round;}
.path-6{fill:#6e2353;fill-rule:evenodd;stroke:none;}
.path-7{fill:none;stroke:#392966;stroke-width:1;stroke-linecap:butt;stroke-linejoin:round;}
.path-8{fill:#392966;fill-rule:evenodd;stroke:none;}
.path-9{fill:none;stroke:#cc9bc5;stroke-width:1;stroke-linecap:butt;stroke-linejoin:round;}
.path-10{fill:#cc9bc5;fill-rule:evenodd;stroke:none;}
.path-11{fill:none;stroke:#620527;stroke-width:1;stroke-linecap:butt;stroke-linejoin:round;}
.path-12{fill:#620527;fill-rule:evenodd;stroke:none;}
.path-13{fill:none;stroke:#6a3661;stroke-width:1;stroke-linecap:butt;stroke-linejoin:round;}
.path-14{fill:#6a3661;fill-rule:evenodd;stroke:none;}
.path-15{fill:none;stroke:#f8a087;stroke-width:1;stroke-linecap:butt;stroke-linejoin:round;}
.path-16{fill:#f8a087;fill-rule:evenodd;stroke:none;}
.path-17{fill:none;stroke:#ffffff;stroke-width:1;stroke-linecap:butt;stroke-linejoin:round;}
.path-18{fill:#ffffff;fill-rule:evenodd;stroke:none;}
.path-19{fill:none;stroke:#d89f4a;stroke-width:1;stroke-linecap:butt;stroke-linejoin:round;}
.path-20{fill:#d89f4a;fill-rule:evenodd;stroke:none;}
.path-21{fill:none;stroke:#fafd5b;stroke-width:1;stroke-linecap:butt;stroke-linejoin:round;}
.path-22{fill:#fafd5b;fill-rule:evenodd;stroke:none;}
.path-23{fill:none;stroke:#00ff42;stroke-width:8;stroke-linecap:round;stroke-linejoin:round;}
.path-24{fill:none;stroke:#000000;stroke-width:1;stroke-linecap:butt;stroke-linejoin:round;}
.path-25{fill:none;stroke:#ececec;stroke-width:1;stroke-linecap:butt;stroke-linejoin:round;}
.path-26{fill:#ececec;fill-rule:evenodd;stroke:none;}
</style>
</svg>
