<svg version="1.1" id="Frame_171" xmlns="http://www.w3.org/2000/svg" xmlns:xlink="http://www.w3.org/1999/xlink" width="480px" height="720px">
<g id="main_bone">
<g id="right_arm">
<path class="path-0" d="M183.618,269.185C185.219,266.617,188.359,261.313,192.233,260.095C198.753,258.044,203.828,264.195,204.234,268.772C205.252,276.784,198.749,287.082,195.628,294.703C187.984,313.049,179.810,331.177,174.622,349.820C173.968,353.084,169.006,374.258,169.037,371.609C168.631,378.231,175.200,383.935,177.477,389.584C180.392,397.204,177.566,404.406,175.708,411.376C171.413,425.755,171.877,431.046,172.277,445.031C172.444,447.246,172.918,454.455,169.452,454.889C166.044,455.316,164.973,449.181,164.047,446.856C163.444,444.230,160.583,438.760,161.092,436.381C161.150,432.408,165.723,433.295,160.566,425.173C153.982,415.018,142.560,406.522,139.646,393.190C137.722,382.570,143.346,373.289,146.580,363.421C153.462,342.220,161.110,321.035,170.004,300.264C174.845,289.492,177.190,280.068,183.618,269.185M204.129,262.491C204.825,253.977,202.323,246.344,191.554,249.105C174.209,253.487,166.716,279.401,160.926,293.931C152.792,313.557,146.023,333.414,139.736,353.396C137.165,361.954,133.952,366.277,132.573,371.241C130.857,376.859,131.087,385.486,131.382,391.123C131.266,408.779,136.597,409.672,143.956,423.139C147.870,431.108,144.224,436.289,147.038,443.180C149.094,447.920,153.156,451.125,156.352,454.987C159.194,458.870,159.965,461.145,162.124,464.728C164.737,469.011,172.450,478.607,178.075,475.736C182.282,473.570,181.191,465.687,181.067,461.854C180.721,456.103,181.857,433.771,182.780,427.001C184.480,415.771,190.368,403.731,188.746,391.622C187.436,382.364,179.247,375.672,179.712,365.760C180.112,360.479,183.497,351.934,184.693,346.025C186.659,336.583,187.154,326.418,189.841,316.758C194.421,299.571,203.310,280.624,204.129,262.491Z"/>
<path class="path-1" d="M192.233,260.095C198.753,258.044,203.828,264.195,204.234,268.772"/>
<path class="path-1" d="M204.234,268.772C205.252,276.784,198.749,287.082,195.628,294.703"/>
<path class="path-1" d="M195.628,294.703C187.984,313.049,179.810,331.177,174.622,349.820"/>
<path class="path-1" d="M174.622,349.820C173.968,353.084,169.006,374.258,169.037,371.609"/>
<path class="path-1" d="M169.037,371.609C168.631,378.231,175.200,383.935,177.477,389.584"/>
<path class="path-1" d="M177.477,389.584C180.392,397.204,177.566,404.406,175.708,411.376"/>
<path class="path-1" d="M175.708,411.376C171.413,425.755,171.877,431.046,172.277,445.031"/>
<path class="path-1" d="M172.277,445.031C172.444,447.246,172.918,454.455,169.452,454.889"/>
<path class="path-1" d="M169.452,454.889C166.044,455.316,164.973,449.181,164.047,446.856"/>
<path class="path-1" d="M164.047,446.856C163.444,444.230,160.583,438.760,161.092,436.381"/>
<path class="path-1" d="M161.092,436.381C161.150,432.408,165.723,433.295,160.566,425.173"/>
<path class="path-1" d="M160.566,425.173C153.982,415.018,142.560,406.522,139.646,393.190"/>
<path class="path-1" d="M139.646,393.190C137.722,382.570,143.346,373.289,146.580,363.421"/>
<path class="path-1" d="M146.580,363.421C153.462,342.220,161.110,321.035,170.004,300.264"/>
<path class="path-1" d="M170.004,300.264C174.845,289.492,177.190,280.068,183.618,269.185"/>
<path class="path-1" d="M183.618,269.185C185.219,266.617,188.359,261.313,192.233,260.095"/>
<path class="path-2" d="M192.233,260.095C198.753,258.044,203.828,264.195,204.234,268.772C205.252,276.784,198.749,287.082,195.628,294.703C187.984,313.049,179.810,331.177,174.622,349.820C173.968,353.084,169.006,374.258,169.037,371.609C168.631,378.231,175.200,383.935,177.477,389.584C180.392,397.204,177.566,404.406,175.708,411.376C171.413,425.755,171.877,431.046,172.277,445.031C172.444,447.246,172.918,454.455,169.452,454.889C166.044,455.316,164.973,449.181,164.047,446.856C163.444,444.230,160.583,438.760,161.092,436.381C161.150,432.408,165.723,433.295,160.566,425.173C153.982,415.018,142.560,406.522,139.646,393.190C137.722,382.570,143.346,373.289,146.580,363.421C153.462,342.220,161.110,321.035,170.004,300.264C174.845,289.492,177.190,280.068,183.618,269.185C185.219,266.617,188.359,261.313,192.233,260.095Z"/>
</g>
<g id="layer_left_leg">
<g id="left_heel">
<path class="path-0" d="M313.691,632.697C304.090,622.681,313.083,600.339,323.581,595.497C339.694,587.856,358.514,610.736,357.888,617.487C356.611,627.790,340.562,631.802,332.153,633.810C327.616,634.732,316.778,636.051,313.691,632.697M350.861,587.972C338.940,580.518,317.369,587.457,308.205,596.192C288.828,613.956,294.025,657.084,326.761,648.367C338.151,645.394,362.893,637.199,367.979,628.405C372.619,621.409,368.481,612.359,364.869,605.241C361.559,599.557,356.498,591.609,350.861,587.972Z"/>
<path class="path-3" d="M323.581,595.497C339.694,587.856,358.514,610.736,357.888,617.487"/>
<path class="path-3" d="M357.888,617.487C356.611,627.790,340.562,631.802,332.153,633.810"/>
<path class="path-3" d="M332.153,633.810C327.616,634.732,316.778,636.051,313.691,632.697"/>
<path class="path-3" d="M313.691,632.697C304.090,622.681,313.083,600.339,323.581,595.497"/>
<path class="path-4" d="M323.581,595.497C339.694,587.856,358.514,610.736,357.888,617.487C356.611,627.790,340.562,631.802,332.153,633.810C327.616,634.732,316.778,636.051,313.691,632.697C304.090,622.681,313.083,600.339,323.581,595.497Z"/>
</g>
<g id="left_leg">
<path class="path-0" d="M243.995,412.608C244.559,407.597,254.667,409.063,258.394,407.983C264.110,406.632,276.497,401.537,282.012,404.059C291.807,408.148,300.681,436.737,303.476,446.735C311.298,478.051,320.145,507.051,328.141,537.179C329.758,543.898,331.333,550.857,333.080,557.405C334.680,562.554,335.025,569.445,339.109,572.385C340.786,574.100,344.995,572.137,345.493,574.317C346.925,582.992,338.284,579.891,335.117,585.171C329.326,594.185,317.156,604.238,307.515,603.774C300.903,603.682,288.645,598.566,284.871,593.057C281.217,587.723,278.067,580.962,275.630,575.092C264.661,548.679,266.197,487.135,252.995,458.866C244.597,440.883,253.001,438.014,256.771,423.289C257.381,420.906,246.649,426.036,244.614,424.602C241.874,422.982,243.479,415.697,243.995,412.608M286.888,393.605C279.630,390.243,263.137,396.259,256.101,398.326C252.260,399.439,239.354,399.246,236.915,401.728C222.100,416.803,238.467,455.142,244.394,471.740C245.745,476.465,249.957,499.529,251.133,506.035C257.767,533.623,257.453,558.591,265.641,585.763C267.845,593.431,269.202,601.216,273.576,607.736C285.038,624.572,302.553,623.835,324.384,617.287C335.882,613.850,360.223,602.600,363.129,578.099C364.302,568.177,355.841,557.179,353.771,554.494C350.440,550.173,346.076,546.243,343.521,540.965C334.800,524.399,336.694,504.127,331.064,486.141C323.896,463.171,309.559,404.168,286.888,393.605Z"/>
<path class="path-7" d="M258.394,407.983C264.110,406.632,276.497,401.537,282.012,404.059"/>
<path class="path-7" d="M282.012,404.059C291.807,408.148,300.681,436.737,303.476,446.735"/>
<path class="path-7" d="M303.476,446.735C311.298,478.051,320.145,507.051,328.141,537.179"/>
<path class="path-7" d="M328.141,537.179C329.758,543.898,331.333,550.857,333.080,557.405"/>
<path class="path-7" d="M333.080,557.405C334.680,562.554,335.025,569.445,339.109,572.385"/>
<path class="path-7" d="M339.109,572.385C340.786,574.100,344.995,572.137,345.493,574.317"/>
<path class="path-7" d="M345.493,574.317C346.925,582.992,338.284,579.891,335.117,585.171"/>
<path class="path-7" d="M335.117,585.171C329.326,594.185,317.156,604.238,307.515,603.774"/>
<path class="path-7" d="M307.515,603.774C300.903,603.682,288.645,598.566,284.871,593.057"/>
<path class="path-7" d="M284.871,593.057C281.217,587.723,278.067,580.962,275.630,575.092"/>
<path class="path-7" d="M275.630,575.092C264.661,548.679,266.197,487.135,252.995,458.866"/>
<path class="path-7" d="M252.995,458.866C244.597,440.883,253.001,438.014,256.771,423.289"/>
<path class="path-7" d="M256.771,423.289C257.381,420.906,246.649,426.036,244.614,424.602"/>
<path class="path-7" d="M244.614,424.602C241.874,422.982,243.479,415.697,243.995,412.608"/>
<path class="path-7" d="M243.995,412.608C244.559,407.597,254.667,409.063,258.394,407.983"/>
<path class="path-8" d="M258.394,407.983C264.110,406.632,276.497,401.537,282.012,404.059C291.807,408.148,300.681,436.737,303.476,446.735C311.298,478.051,320.145,507.051,328.141,537.179C329.758,543.898,331.333,550.857,333.080,557.405C334.680,562.554,335.025,569.445,339.109,572.385C340.786,574.100,344.995,572.137,345.493,574.317C346.925,582.992,338.284,579.891,335.117,585.171C329.326,594.185,317.156,604.238,307.515,603.774C300.903,603.682,288.645,598.566,284.871,593.057C281.217,587.723,278.067,580.962,275.630,575.092C264.661,548.679,266.197,487.135,252.995,458.866C244.597,440.883,253.001,438.014,256.771,423.289C257.381,420.906,246.649,426.036,244.614,424.602C241.874,422.982,243.479,415.697,243.995,412.608C244.559,407.597,254.667,409.063,258.394,407.983Z"/>
</g>
<g id="left_toe">
<path class="path-0" d="M317.008,663.342C289.811,664.435,286.788,628.387,304.835,616.925C323.631,605.146,345.544,612.599,354.434,624.012C359.689,629.950,363.049,636.952,361.179,644.821C356.561,658.973,330.090,662.733,317.008,663.342M368.919,615.684C362.410,602.298,348.067,592.052,335.892,590.861C306.443,588.091,284.230,601.358,281.290,628.805C279.066,644.656,286.135,660.346,298.516,670.412C308.146,677.761,334.278,673.010,345.063,669.450C354.454,665.594,366.006,660.100,370.756,650.053C374.196,643.047,372.255,622.659,368.919,615.684Z"/>
<path class="path-3" d="M304.835,616.925C323.631,605.146,345.544,612.599,354.434,624.012"/>
<path class="path-3" d="M354.434,624.012C359.689,629.950,363.049,636.952,361.179,644.821"/>
<path class="path-3" d="M361.179,644.821C356.561,658.973,330.090,662.733,317.008,663.342"/>
<path class="path-3" d="M317.008,663.342C289.811,664.435,286.788,628.387,304.835,616.925"/>
<path class="path-4" d="M304.835,616.925C323.631,605.146,345.544,612.599,354.434,624.012C359.689,629.950,363.049,636.952,361.179,644.821C356.561,658.973,330.090,662.733,317.008,663.342C289.811,664.435,286.788,628.387,304.835,616.925Z"/>
</g>
<g id="left_sole">
<path class="path-0" d="M324.370,677.527C313.596,679.619,307.048,666.365,306.905,671.828C306.813,675.328,316.302,676.391,320.561,676.624C330.022,677.490,344.680,672.644,352.429,666.275C355.021,664.479,363.533,659.578,363.615,659.823C364.946,663.826,354.409,666.687,350.953,667.954C347.753,669.507,325.215,677.145,324.370,677.527M307.294,672.090C312.131,668.916,323.848,670.584,328.187,670.766C345.467,671.489,352.685,660.009,360.407,657.761C361.160,657.551,363.346,655.275,364.269,657.347C367.451,664.483,338.312,676.953,322.949,675.581C315.803,675.608,305.542,673.240,307.294,672.090M367.225,648.992C363.422,646.890,347.967,658.341,331.146,662.564C322.942,664.651,299.597,657.828,296.407,668.783C295.741,671.090,298.179,678.294,300.211,679.465C313.895,687.632,365.257,672.049,370.089,665.603C371.699,663.455,372.075,651.672,367.225,648.992Z"/>
<path class="path-5" d="M306.905,671.828C306.813,675.328,316.302,676.391,320.561,676.624"/>
<path class="path-5" d="M320.561,676.624C330.022,677.490,344.680,672.644,352.429,666.275"/>
<path class="path-5" d="M352.429,666.275C355.021,664.479,363.533,659.578,363.615,659.823"/>
<path class="path-5" d="M363.615,659.823C364.946,663.826,354.409,666.687,350.953,667.954"/>
<path class="path-5" d="M350.953,667.954C347.753,669.507,325.215,677.145,324.370,677.527"/>
<path class="path-5" d="M324.370,677.527C313.596,679.619,307.048,666.365,306.905,671.828"/>
<path class="path-6" d="M306.905,671.828C306.813,675.328,316.302,676.391,320.561,676.624C330.022,677.490,344.680,672.644,352.429,666.275C355.021,664.479,363.533,659.578,363.615,659.823C364.946,663.826,354.409,666.687,350.953,667.954C347.753,669.507,325.215,677.145,324.370,677.527C313.596,679.619,307.048,666.365,306.905,671.828Z"/>
<path class="path-5" d="M328.187,670.766C345.467,671.489,352.685,660.009,360.407,657.761"/>
<path class="path-5" d="M360.407,657.761C361.160,657.551,363.346,655.275,364.269,657.347"/>
<path class="path-5" d="M364.269,657.347C367.451,664.483,338.312,676.953,322.949,675.581"/>
<path class="path-5" d="M322.949,675.581C315.803,675.608,305.542,673.240,307.294,672.090"/>
<path class="path-5" d="M307.294,672.090C312.131,668.916,323.848,670.584,328.187,670.766"/>
<path class="path-6" d="M328.187,670.766C345.467,671.489,352.685,660.009,360.407,657.761C361.160,657.551,363.346,655.275,364.269,657.347C367.451,664.483,338.312,676.953,322.949,675.581C315.803,675.608,305.542,673.240,307.294,672.090C312.131,668.916,323.848,670.584,328.187,670.766Z"/>
</g>
</g>
<g id="layer_right_leg">
<g id="right_heel">
<path class="path-0" d="M180.584,609.751C181.622,593.987,182.980,581.772,202.828,579.413C211.699,578.202,228.523,581.289,233.273,589.715C235.769,593.894,234.898,599.929,235.074,604.340C235.425,611.519,239.700,625.459,229.281,626.888C228.613,627.044,210.251,626.912,204.520,626.920C197.087,627.602,189.365,627.949,184.074,622.833C181.425,619.710,180.269,613.399,180.584,609.751M242.784,588.273C239.027,578.123,224.866,572.141,214.825,573.348C201.779,574.759,188.508,570.277,179.855,581.938C173.162,590.957,172.140,607.776,173.943,618.507C174.612,623.492,177.704,632.625,181.909,635.470C184.994,637.463,189.813,637.013,193.494,637.100C211.464,637.799,243.502,644.461,243.497,618.381C243.423,611.715,244.730,593.589,242.784,588.273Z"/>
<path class="path-3" d="M202.828,579.413C211.699,578.202,228.523,581.289,233.273,589.715"/>
<path class="path-3" d="M233.273,589.715C235.769,593.894,234.898,599.929,235.074,604.340"/>
<path class="path-3" d="M235.074,604.340C235.425,611.519,239.700,625.459,229.281,626.888"/>
<path class="path-3" d="M229.281,626.888C228.613,627.044,210.251,626.912,204.520,626.920"/>
<path class="path-3" d="M204.520,626.920C197.087,627.602,189.365,627.949,184.074,622.833"/>
<path class="path-3" d="M184.074,622.833C181.425,619.710,180.269,613.399,180.584,609.751"/>
<path class="path-3" d="M180.584,609.751C181.622,593.987,182.980,581.772,202.828,579.413"/>
<path class="path-4" d="M202.828,579.413C211.699,578.202,228.523,581.289,233.273,589.715C235.769,593.894,234.898,599.929,235.074,604.340C235.425,611.519,239.700,625.459,229.281,626.888C228.613,627.044,210.251,626.912,204.520,626.920C197.087,627.602,189.365,627.949,184.074,622.833C181.425,619.710,180.269,613.399,180.584,609.751C181.622,593.987,182.980,581.772,202.828,579.413Z"/>
</g>
<g id="right_leg">
<path class="path-0" d="M182.765,404.783C186.516,393.375,202.216,391.050,212.625,394.103C218.430,395.682,228.089,398.681,231.254,404.066C232.767,406.640,233.306,411.390,231.735,413.906C229.207,417.958,213.416,415.715,216.529,419.513C221.811,426.141,231.383,416.875,235.686,420.626C237.683,422.367,237.757,425.992,238.099,428.977C241.653,450.107,234.500,472.339,233.716,493.062C233.394,499.748,231.261,509.544,232.280,515.678C234.314,531.177,232.560,534.352,232.761,543.617C232.614,547.036,230.486,564.320,231.504,568.815C232.633,573.371,235.552,577.879,235.942,582.568C236.604,590.540,225.195,601.258,217.849,603.419C209.768,605.625,184.776,603.796,177.224,599.658C173.995,598.008,170.177,593.973,168.898,590.385C167.594,587.273,165.695,572.773,166.667,569.269C168.647,563.078,171.052,561.814,173.167,554.506C175.330,545.938,177.893,536.719,177.483,527.679C176.269,508.818,177.437,479.631,179.815,466.446C181.002,458.764,179.742,432.806,180.937,425.698C182.927,414.489,180.853,412.264,182.765,404.783M208.072,382.575C202.449,380.512,198.187,375.202,192.188,377.053C190.389,377.774,187.232,379.876,185.943,381.103C169.800,394.106,170.797,407.546,170.478,426.544C170.070,433.372,169.897,440.470,169.246,447.010C168.596,452.417,167.002,456.892,165.705,461.849C164.917,465.963,164.181,470.355,163.916,475.529C163.776,480.969,165.212,487.382,165.215,496.626C164.490,506.469,165.022,515.788,164.422,525.204C164.247,531.170,161.165,544.937,160.216,549.451C157.863,555.967,154.287,563.401,152.642,569.732C150.993,578.078,152.741,586.930,156.040,594.364C157.637,598.554,160.490,603.569,163.624,606.471C165.691,608.386,168.461,609.654,170.981,610.637C178.502,613.526,185.730,614.967,193.853,615.515C199.491,615.937,205.086,614.825,210.948,615.282C211.976,615.209,220.396,616.609,222.057,616.710C224.883,616.722,228.875,614.417,231.453,612.970C234.756,610.876,240.399,610.130,243.223,607.305C245.761,604.761,247.154,601.294,248.594,598.030C256.656,579.024,249.617,567.744,247.346,549.849C246.101,540.036,244.221,519.833,244.668,508.908C244.930,495.605,248.201,482.863,249.304,469.195C249.751,464.786,250.223,459.496,251.044,454.512C251.754,449.653,250.639,445.696,250.472,440.859C250.112,437.093,250.607,425.046,250.081,420.997C249.759,417.394,249.867,412.909,248.589,409.326C245.064,400.196,231.246,389.872,221.979,386.759C217.349,385.040,212.366,384.609,208.072,382.575Z"/>
<path class="path-7" d="M212.625,394.103C218.430,395.682,228.089,398.681,231.254,404.066"/>
<path class="path-7" d="M231.254,404.066C232.767,406.640,233.306,411.390,231.735,413.906"/>
<path class="path-7" d="M231.735,413.906C229.207,417.958,213.416,415.715,216.529,419.513"/>
<path class="path-7" d="M216.529,419.513C221.811,426.141,231.383,416.875,235.686,420.626"/>
<path class="path-7" d="M235.686,420.626C237.683,422.367,237.757,425.992,238.099,428.977"/>
<path class="path-7" d="M238.099,428.977C241.653,450.107,234.500,472.339,233.716,493.062"/>
<path class="path-7" d="M233.716,493.062C233.394,499.748,231.261,509.544,232.280,515.678"/>
<path class="path-7" d="M232.280,515.678C234.314,531.177,232.560,534.352,232.761,543.617"/>
<path class="path-7" d="M232.761,543.617C232.614,547.036,230.486,564.320,231.504,568.815"/>
<path class="path-7" d="M231.504,568.815C232.633,573.371,235.552,577.879,235.942,582.568"/>
<path class="path-7" d="M235.942,582.568C236.604,590.540,225.195,601.258,217.849,603.419"/>
<path class="path-7" d="M217.849,603.419C209.768,605.625,184.776,603.796,177.224,599.658"/>
<path class="path-7" d="M177.224,599.658C173.995,598.008,170.177,593.973,168.898,590.385"/>
<path class="path-7" d="M168.898,590.385C167.594,587.273,165.695,572.773,166.667,569.269"/>
<path class="path-7" d="M166.667,569.269C168.647,563.078,171.052,561.814,173.167,554.506"/>
<path class="path-7" d="M173.167,554.506C175.330,545.938,177.893,536.719,177.483,527.679"/>
<path class="path-7" d="M177.483,527.679C176.269,508.818,177.437,479.631,179.815,466.446"/>
<path class="path-7" d="M179.815,466.446C181.002,458.764,179.742,432.806,180.937,425.698"/>
<path class="path-7" d="M180.937,425.698C182.927,414.489,180.853,412.264,182.765,404.783"/>
<path class="path-7" d="M182.765,404.783C186.516,393.375,202.216,391.050,212.625,394.103"/>
<path class="path-8" d="M212.625,394.103C218.430,395.682,228.089,398.681,231.254,404.066C232.767,406.640,233.306,411.390,231.735,413.906C229.207,417.958,213.416,415.715,216.529,419.513C221.811,426.141,231.383,416.875,235.686,420.626C237.683,422.367,237.757,425.992,238.099,428.977C241.653,450.107,234.500,472.339,233.716,493.062C233.394,499.748,231.261,509.544,232.280,515.678C234.314,531.177,232.560,534.352,232.761,543.617C232.614,547.036,230.486,564.320,231.504,568.815C232.633,573.371,235.552,577.879,235.942,582.568C236.604,590.540,225.195,601.258,217.849,603.419C209.768,605.625,184.776,603.796,177.224,599.658C173.995,598.008,170.177,593.973,168.898,590.385C167.594,587.273,165.695,572.773,166.667,569.269C168.647,563.078,171.052,561.814,173.167,554.506C175.330,545.938,177.893,536.719,177.483,527.679C176.269,508.818,177.437,479.631,179.815,466.446C181.002,458.764,179.742,432.806,180.937,425.698C182.927,414.489,180.853,412.264,182.765,404.783C186.516,393.375,202.216,391.050,212.625,394.103Z"/>
</g>
<g id="right_toe">
<path class="path-0" d="M164.586,634.932C166.122,622.269,171.633,606.102,187.565,604.250C191.265,603.629,196.436,605.435,200.521,606.329C221.330,610.827,229.448,615.496,229.844,636.364C229.834,642.041,230.601,649.096,226.179,653.563C221.718,657.989,200.972,655.068,194.622,655.179C183.423,655.613,173.703,660.456,166.144,650.772C161.716,644.977,163.786,641.606,164.586,634.932M238.471,614.893C231.784,601.317,199.854,592.548,185.358,594.768C163.733,598.200,156.389,614.458,154.714,632.217C154.067,638.552,153.140,645.518,156.327,651.198C157.464,653.223,159.901,655.940,161.586,657.577C174.298,670.991,183.709,669.623,201.131,669.832C210.350,670.092,225.667,669.529,233.162,663.695C238.738,658.921,239.426,653.626,239.797,646.804C239.912,640.235,241.148,619.823,238.471,614.893Z"/>
<path class="path-3" d="M187.565,604.250C191.265,603.629,196.436,605.435,200.521,606.329"/>
<path class="path-3" d="M200.521,606.329C221.330,610.827,229.448,615.496,229.844,636.364"/>
<path class="path-3" d="M229.844,636.364C229.834,642.041,230.601,649.096,226.179,653.563"/>
<path class="path-3" d="M226.179,653.563C221.718,657.989,200.972,655.068,194.622,655.179"/>
<path class="path-3" d="M194.622,655.179C183.423,655.613,173.703,660.456,166.144,650.772"/>
<path class="path-3" d="M166.144,650.772C161.716,644.977,163.786,641.606,164.586,634.932"/>
<path class="path-3" d="M164.586,634.932C166.122,622.269,171.633,606.102,187.565,604.250"/>
<path class="path-4" d="M187.565,604.250C191.265,603.629,196.436,605.435,200.521,606.329C221.330,610.827,229.448,615.496,229.844,636.364C229.834,642.041,230.601,649.096,226.179,653.563C221.718,657.989,200.972,655.068,194.622,655.179C183.423,655.613,173.703,660.456,166.144,650.772C161.716,644.977,163.786,641.606,164.586,634.932C166.122,622.269,171.633,606.102,187.565,604.250Z"/>
</g>
<g id="right_sole">
<path class="path-0" d="M182.172,666.038C183.662,666.426,198.932,666.655,200.647,666.687C202.036,666.735,210.499,666.878,211.685,666.819C212.420,666.800,219.832,666.671,220.392,667.139C219.919,666.645,211.905,667.930,211.434,667.933C210.517,667.972,184.493,667.251,184.187,667.348C182.982,667.355,171.841,666.188,171.173,665.194C172.405,664.799,180.433,665.582,182.172,666.038M220.990,660.696C221.032,660.963,219.445,662.495,219.033,662.485C218.203,662.469,205.325,663.562,204.228,663.329C202.968,663.281,194.347,664.088,193.211,664.051C190.945,663.977,173.282,662.087,171.392,660.878C171.265,660.762,170.853,660.088,170.874,659.995C170.939,659.724,177.790,660.811,178.879,660.831C180.589,660.862,194.148,660.024,195.902,660.002C197.791,659.978,212.330,660.550,214.267,660.434C214.569,660.424,220.871,660.033,220.990,660.696M226.688,656.376C215.689,653.122,206.842,657.160,196.891,657.236C189.592,657.321,175.608,655.462,166.701,656.989C165.303,657.228,162.644,657.002,162.198,658.395C161.632,660.179,165.112,664.124,167.345,665.619C170.113,667.473,175.939,667.639,178.245,668.033C189.928,670.456,204.842,669.657,216.905,669.462C225.814,669.324,228.105,665.911,229.066,661.776C229.464,660.065,230.113,657.343,226.688,656.376Z"/>
<path class="path-5" d="M182.172,666.038C183.662,666.426,198.932,666.655,200.647,666.687"/>
<path class="path-5" d="M200.647,666.687C202.036,666.735,210.499,666.878,211.685,666.819"/>
<path class="path-5" d="M211.685,666.819C212.420,666.800,219.832,666.671,220.392,667.139"/>
<path class="path-5" d="M220.392,667.139C219.919,666.645,211.905,667.930,211.434,667.933"/>
<path class="path-5" d="M211.434,667.933C210.517,667.972,184.493,667.251,184.187,667.348"/>
<path class="path-5" d="M184.187,667.348C182.982,667.355,171.841,666.188,171.173,665.194"/>
<path class="path-5" d="M171.173,665.194C172.405,664.799,180.433,665.582,182.172,666.038"/>
<path class="path-6" d="M182.172,666.038C183.662,666.426,198.932,666.655,200.647,666.687C202.036,666.735,210.499,666.878,211.685,666.819C212.420,666.800,219.832,666.671,220.392,667.139C219.919,666.645,211.905,667.930,211.434,667.933C210.517,667.972,184.493,667.251,184.187,667.348C182.982,667.355,171.841,666.188,171.173,665.194C172.405,664.799,180.433,665.582,182.172,666.038Z"/>
<path class="path-5" d="M178.879,660.831C180.589,660.862,194.148,660.024,195.902,660.002"/>
<path class="path-5" d="M195.902,660.002C197.791,659.978,212.330,660.550,214.267,660.434"/>
<path class="path-5" d="M214.267,660.434C214.569,660.424,220.871,660.033,220.990,660.696"/>
<path class="path-5" d="M220.990,660.696C221.032,660.963,219.445,662.495,219.033,662.485"/>
<path class="path-5" d="M219.033,662.485C218.203,662.469,205.325,663.562,204.228,663.329"/>
<path class="path-5" d="M204.228,663.329C202.968,663.281,194.347,664.088,193.211,664.051"/>
<path class="path-5" d="M193.211,664.051C190.945,663.977,173.282,662.087,171.392,660.878"/>
<path class="path-5" d="M171.392,660.878C171.265,660.762,170.853,660.088,170.874,659.995"/>
<path class="path-5" d="M170.874,659.995C170.939,659.724,177.790,660.811,178.879,660.831"/>
<path class="path-6" d="M178.879,660.831C180.589,660.862,194.148,660.024,195.902,660.002C197.791,659.978,212.330,660.550,214.267,660.434C214.569,660.424,220.871,660.033,220.990,660.696C221.032,660.963,219.445,662.495,219.033,662.485C218.203,662.469,205.325,663.562,204.228,663.329C202.968,663.281,194.347,664.088,193.211,664.051C190.945,663.977,173.282,662.087,171.392,660.878C171.265,660.762,170.853,660.088,170.874,659.995C170.939,659.724,177.790,660.811,178.879,660.831Z"/>
</g>
</g>
<g id="hat_brim">
<path class="path-0" d="M296.532,148.026C300.774,142.435,311.349,127.117,319.293,127.919C324.590,128.454,334.544,139.157,339.870,142.704C344.535,146.185,349.564,149.367,354.924,152.583C357.952,154.566,360.985,156.544,364.021,158.516C377.521,167.237,372.913,173.126,364.771,170.965C346.569,165.783,343.456,166.807,326.517,155.734C324.300,154.507,318.675,150.597,317.248,154.798C315.424,159.630,323.927,164.836,327.401,166.858C333.653,171.169,340.534,175.876,348.412,177.339C350.696,177.905,358.708,178.043,359.796,180.494C361.448,184.005,350.981,191.643,348.794,193.428C345.183,196.073,341.573,198.718,338.028,200.702C332.729,203.509,327.132,205.954,321.405,206.379C310.679,206.634,279.115,188.066,279.291,176.381C279.298,169.694,291.925,153.915,296.532,148.026M331.644,124.820C327.113,120.015,324.108,113.357,316.490,115.933C310.959,117.717,304.565,124.761,300.523,128.366C285.280,143.546,271.062,161.841,269.552,183.423C268.513,197.027,273.180,197.165,283.569,203.563C299.284,213.509,320.202,218.296,338.912,211.826C351.031,207.698,373.029,191.862,379.528,180.480C381.583,176.675,385.464,168.038,383.614,163.171C381.535,157.275,360.326,145.438,354.074,141.129C346.564,136.023,338.028,131.148,331.644,124.820Z"/>
<path class="path-9" d="M319.293,127.919C324.590,128.454,334.544,139.157,339.870,142.704"/>
<path class="path-9" d="M339.870,142.704C344.535,146.185,349.564,149.367,354.924,152.583"/>
<path class="path-9" d="M354.924,152.583C357.952,154.566,360.985,156.544,364.021,158.516"/>
<path class="path-9" d="M364.021,158.516C377.521,167.237,372.913,173.126,364.771,170.965"/>
<path class="path-9" d="M364.771,170.965C346.569,165.783,343.456,166.807,326.517,155.734"/>
<path class="path-9" d="M326.517,155.734C324.300,154.507,318.675,150.597,317.248,154.798"/>
<path class="path-9" d="M317.248,154.798C315.424,159.630,323.927,164.836,327.401,166.858"/>
<path class="path-9" d="M327.401,166.858C333.653,171.169,340.534,175.876,348.412,177.339"/>
<path class="path-9" d="M348.412,177.339C350.696,177.905,358.708,178.043,359.796,180.494"/>
<path class="path-9" d="M359.796,180.494C361.448,184.005,350.981,191.643,348.794,193.428"/>
<path class="path-9" d="M348.794,193.428C345.183,196.073,341.573,198.718,338.028,200.702"/>
<path class="path-9" d="M338.028,200.702C332.729,203.509,327.132,205.954,321.405,206.379"/>
<path class="path-9" d="M321.405,206.379C310.679,206.634,279.115,188.066,279.291,176.381"/>
<path class="path-9" d="M279.291,176.381C279.298,169.694,291.925,153.915,296.532,148.026"/>
<path class="path-9" d="M296.532,148.026C300.774,142.435,311.349,127.117,319.293,127.919"/>
<path class="path-10" d="M319.293,127.919C324.590,128.454,334.544,139.157,339.870,142.704C344.535,146.185,349.564,149.367,354.924,152.583C357.952,154.566,360.985,156.544,364.021,158.516C377.521,167.237,372.913,173.126,364.771,170.965C346.569,165.783,343.456,166.807,326.517,155.734C324.300,154.507,318.675,150.597,317.248,154.798C315.424,159.630,323.927,164.836,327.401,166.858C333.653,171.169,340.534,175.876,348.412,177.339C350.696,177.905,358.708,178.043,359.796,180.494C361.448,184.005,350.981,191.643,348.794,193.428C345.183,196.073,341.573,198.718,338.028,200.702C332.729,203.509,327.132,205.954,321.405,206.379C310.679,206.634,279.115,188.066,279.291,176.381C279.298,169.694,291.925,153.915,296.532,148.026C300.774,142.435,311.349,127.117,319.293,127.919Z"/>
</g>
<g id="hair">
<path class="path-0" d="M188.942,143.529C205.045,129.815,224.749,126.542,245.613,123.390C254.966,121.960,262.114,127.638,269.992,133.109C276.498,137.949,283.524,143.437,290.427,148.509C300.811,156.084,305.241,159.971,309.216,163.715C312.576,166.552,317.906,171.953,321.973,174.354C326.879,177.249,337.856,193.265,340.093,194.966C333.743,197.916,323.562,200.699,319.225,205.042C321.507,210.653,322.837,219.590,323.143,222.282C317.020,223.387,309.540,221.385,297.923,220.566C296.392,227.962,297.142,234.650,293.266,242.411C285.350,240.922,279.809,239.629,269.414,236.304C263.449,242.192,261.873,241.955,251.958,249.608C244.430,246.073,238.305,242.094,231.118,240.023C224.702,243.638,214.140,245.825,210.841,249.133C206.287,242.554,201.958,235.213,198.354,232.216C189.033,235.220,185.231,238.280,178.766,241.470C173.969,236.450,176.467,231.602,170.928,224.058C166.497,223.369,159.563,221.498,154.023,221.997C157.352,217.115,158.560,202.148,164.817,199.583C172.537,196.418,166.501,187.890,170.508,179.204C171.489,176.950,181.412,159.436,182.171,156.667C183.658,151.875,185.302,146.782,188.942,143.529M273.200,120.058C260.008,112.023,234.904,109.622,221.459,114.348C209.104,118.535,197.128,123.878,186.909,132.212C181.180,136.819,175.001,143.363,171.571,149.877C164.683,162.554,155.690,189.629,150.343,202.295C146.104,212.779,141.863,220.007,137.332,225.939C155.539,230.434,160.937,232.523,166.241,232.759C167.398,240.434,175.129,245.391,174.816,254.032C183.433,251.790,188.408,249.010,195.986,246.229C200.441,250.429,203.850,256.424,208.294,262.182C215.741,259.272,223.618,258.718,230.629,252.476C236.448,254.881,245.679,258.596,255.179,262.557C262.959,257.276,264.699,256.834,271.904,250.978C281.578,252.288,292.105,257.062,301.491,255.032C299.946,246.965,305.368,240.728,304.104,235.582C311.059,232.897,333.337,233.723,337.048,233.001C336.177,227.013,331.632,215.860,332.421,208.529C338.997,206.002,344.545,203.749,354.575,197.541C350.406,191.256,343.321,183.658,337.357,179.316C332.328,175.691,328.008,170.637,322.956,166.839C305.851,154.197,297.610,135.007,273.200,120.058Z"/>
<path class="path-11" d="M245.613,123.390C254.966,121.960,262.114,127.638,269.992,133.109"/>
<path class="path-11" d="M269.992,133.109C276.498,137.949,283.524,143.437,290.427,148.509"/>
<path class="path-11" d="M290.427,148.509C300.811,156.084,305.241,159.971,309.216,163.715"/>
<path class="path-11" d="M309.216,163.715C312.576,166.552,317.906,171.953,321.973,174.354"/>
<path class="path-11" d="M321.973,174.354C326.879,177.249,337.856,193.265,340.093,194.966"/>
<path class="path-11" d="M340.093,194.966C333.743,197.916,323.562,200.699,319.225,205.042"/>
<path class="path-11" d="M319.225,205.042C321.507,210.653,322.837,219.590,323.143,222.282"/>
<path class="path-11" d="M323.143,222.282C317.020,223.387,309.540,221.385,297.923,220.566"/>
<path class="path-11" d="M297.923,220.566C296.392,227.962,297.142,234.650,293.266,242.411"/>
<path class="path-11" d="M293.266,242.411C285.350,240.922,279.809,239.629,269.414,236.304"/>
<path class="path-11" d="M269.414,236.304C263.449,242.192,261.873,241.955,251.958,249.608"/>
<path class="path-11" d="M251.958,249.608C244.430,246.073,238.305,242.094,231.118,240.023"/>
<path class="path-11" d="M231.118,240.023C224.702,243.638,214.140,245.825,210.841,249.133"/>
<path class="path-11" d="M210.841,249.133C206.287,242.554,201.958,235.213,198.354,232.216"/>
<path class="path-11" d="M198.354,232.216C189.033,235.220,185.231,238.280,178.766,241.470"/>
<path class="path-11" d="M178.766,241.470C173.969,236.450,176.467,231.602,170.928,224.058"/>
<path class="path-11" d="M170.928,224.058C166.497,223.369,159.563,221.498,154.023,221.997"/>
<path class="path-11" d="M154.023,221.997C157.352,217.115,158.560,202.148,164.817,199.583"/>
<path class="path-11" d="M164.817,199.583C172.537,196.418,166.501,187.890,170.508,179.204"/>
<path class="path-11" d="M170.508,179.204C171.489,176.950,181.412,159.436,182.171,156.667"/>
<path class="path-11" d="M182.171,156.667C183.658,151.875,185.302,146.782,188.942,143.529"/>
<path class="path-11" d="M188.942,143.529C205.045,129.815,224.749,126.542,245.613,123.390"/>
<path class="path-12" d="M245.613,123.390C254.966,121.960,262.114,127.638,269.992,133.109C276.498,137.949,283.524,143.437,290.427,148.509C300.811,156.084,305.241,159.971,309.216,163.715C312.576,166.552,317.906,171.953,321.973,174.354C326.879,177.249,337.856,193.265,340.093,194.966C333.743,197.916,323.562,200.699,319.225,205.042C321.507,210.653,322.837,219.590,323.143,222.282C317.020,223.387,309.540,221.385,297.923,220.566C296.392,227.962,297.142,234.650,293.266,242.411C285.350,240.922,279.809,239.629,269.414,236.304C263.449,242.192,261.873,241.955,251.958,249.608C244.430,246.073,238.305,242.094,231.118,240.023C224.702,243.638,214.140,245.825,210.841,249.133C206.287,242.554,201.958,235.213,198.354,232.216C189.033,235.220,185.231,238.280,178.766,241.470C173.969,236.450,176.467,231.602,170.928,224.058C166.497,223.369,159.563,221.498,154.023,221.997C157.352,217.115,158.560,202.148,164.817,199.583C172.537,196.418,166.501,187.890,170.508,179.204C171.489,176.950,181.412,159.436,182.171,156.667C183.658,151.875,185.302,146.782,188.942,143.529C205.045,129.815,224.749,126.542,245.613,123.390Z"/>
</g>
<g id="clothes">
<path class="path-0" d="M248.586,371.892C244.118,369.439,226.852,360.245,223.570,364.393C220.799,368.122,225.273,369.482,229.227,370.328C232.767,371.085,250.291,380.295,252.890,378.952C257.680,376.404,250.745,372.958,248.586,371.892M204.664,264.702C208.472,252.393,236.137,241.553,248.901,243.465C257.896,244.786,285.353,260.924,288.748,269.596C291.590,276.526,290.755,301.330,290.406,309.706C289.492,324.979,288.949,340.324,288.714,355.622C289.125,368.292,291.142,380.847,292.380,393.463C292.172,399.661,293.037,416.302,286.807,419.083C278.797,423.123,262.266,408.611,255.459,403.931C230.881,388.001,232.927,386.732,205.700,383.099C202.281,382.510,190.818,384.296,188.606,382.729C184.847,379.358,187.147,373.716,188.597,369.075C192.666,357.701,196.519,350.276,199.251,337.759C202.564,322.080,204.904,304.992,206.118,288.473C206.223,282.557,203.767,268.260,204.664,264.702M284.304,252.043C268.631,241.191,253.135,232.076,233.040,236.400C227.665,237.357,200.335,248.396,197.820,251.560C193.925,256.550,196.535,276.629,196.054,283.785C195.810,292.348,195.369,301.238,194.034,309.388C193.187,315.643,191.362,321.145,190.849,327.094C189.947,333.676,189.962,341.002,187.805,346.813C183.463,358.265,167.426,379.331,179.878,390.054C184.710,394.246,193.228,393.253,199.802,394.802C210.445,397.097,221.723,400.311,231.802,404.844C241.526,409.544,248.295,419.404,258.512,423.291C266.443,426.310,292.953,434.154,299.470,427.998C303.860,424.034,302.584,397.586,302.111,390.917C300.510,377.475,298.786,363.967,298.526,350.432C298.629,338.455,298.314,326.715,299.977,314.504C301.131,304.505,303.563,294.937,304.291,284.566C304.260,280.155,305.242,274.806,303.178,270.257C299.706,261.942,291.364,256.922,284.304,252.043Z"/>
<path class="path-13" d="M248.586,371.892C244.118,369.439,226.852,360.245,223.570,364.393"/>
<path class="path-13" d="M223.570,364.393C220.799,368.122,225.273,369.482,229.227,370.328"/>
<path class="path-13" d="M229.227,370.328C232.767,371.085,250.291,380.295,252.890,378.952"/>
<path class="path-13" d="M252.890,378.952C257.680,376.404,250.745,372.958,248.586,371.892"/>
<path class="path-13" d="M204.664,264.702C208.472,252.393,236.137,241.553,248.901,243.465"/>
<path class="path-13" d="M248.901,243.465C257.896,244.786,285.353,260.924,288.748,269.596"/>
<path class="path-13" d="M288.748,269.596C291.590,276.526,290.755,301.330,290.406,309.706"/>
<path class="path-13" d="M290.406,309.706C289.492,324.979,288.949,340.324,288.714,355.622"/>
<path class="path-13" d="M288.714,355.622C289.125,368.292,291.142,380.847,292.380,393.463"/>
<path class="path-13" d="M292.380,393.463C292.172,399.661,293.037,416.302,286.807,419.083"/>
<path class="path-13" d="M286.807,419.083C278.797,423.123,262.266,408.611,255.459,403.931"/>
<path class="path-13" d="M255.459,403.931C230.881,388.001,232.927,386.732,205.700,383.099"/>
<path class="path-13" d="M205.700,383.099C202.281,382.510,190.818,384.296,188.606,382.729"/>
<path class="path-13" d="M188.606,382.729C184.847,379.358,187.147,373.716,188.597,369.075"/>
<path class="path-13" d="M188.597,369.075C192.666,357.701,196.519,350.276,199.251,337.759"/>
<path class="path-13" d="M199.251,337.759C202.564,322.080,204.904,304.992,206.118,288.473"/>
<path class="path-13" d="M206.118,288.473C206.223,282.557,203.767,268.260,204.664,264.702"/>
<path class="path-14" d="M248.586,371.892C244.118,369.439,226.852,360.245,223.570,364.393C220.799,368.122,225.273,369.482,229.227,370.328C232.767,371.085,250.291,380.295,252.890,378.952C257.680,376.404,250.745,372.958,248.586,371.892M204.664,264.702C208.472,252.393,236.137,241.553,248.901,243.465C257.896,244.786,285.353,260.924,288.748,269.596C291.590,276.526,290.755,301.330,290.406,309.706C289.492,324.979,288.949,340.324,288.714,355.622C289.125,368.292,291.142,380.847,292.380,393.463C292.172,399.661,293.037,416.302,286.807,419.083C278.797,423.123,262.266,408.611,255.459,403.931C230.881,388.001,232.927,386.732,205.700,383.099C202.281,382.510,190.818,384.296,188.606,382.729C184.847,379.358,187.147,373.716,188.597,369.075C192.666,357.701,196.519,350.276,199.251,337.759C202.564,322.080,204.904,304.992,206.118,288.473C206.223,282.557,203.767,268.260,204.664,264.702Z"/>
</g>
<g id="neck">
<path class="path-0" d="M233.864,226.338C233.467,223.017,233.791,219.877,237.291,218.758C248.224,214.282,255.410,251.198,245.018,253.509C235.275,255.676,234.586,232.651,233.864,226.338M235.269,209.666C232.599,209.918,229.821,211.217,227.836,213.022C219.753,219.590,222.929,227.746,224.807,236.189C225.421,240.484,226.613,244.309,225.459,248.314C224.558,251.924,220.731,256.181,221.526,259.755C224.018,269.426,250.324,263.576,257.072,261.734C259.669,261.156,268.654,260.181,268.834,256.392C268.618,255.418,259.595,245.494,257.610,241.165C251.654,228.175,256.271,206.018,235.269,209.666Z"/>
<path class="path-15" d="M237.291,218.758C248.224,214.282,255.410,251.198,245.018,253.509"/>
<path class="path-15" d="M245.018,253.509C235.275,255.676,234.586,232.651,233.864,226.338"/>
<path class="path-15" d="M233.864,226.338C233.467,223.017,233.791,219.877,237.291,218.758"/>
<path class="path-16" d="M237.291,218.758C248.224,214.282,255.410,251.198,245.018,253.509C235.275,255.676,234.586,232.651,233.864,226.338C233.467,223.017,233.791,219.877,237.291,218.758Z"/>
</g>
<g id="layer_head">
<g id="right_ear">
<path class="path-0" d="M156.981,185.060C151.376,184.786,141.507,154.817,148.304,157.026C153.943,158.843,155.803,169.412,156.958,173.776C157.846,176.672,161.922,185.333,156.981,185.060M152.731,144.165C150.725,142.592,148.262,140.918,145.875,141.811C136.702,143.660,137.590,157.084,139.135,166.363C141.178,177.868,147.520,193.307,157.177,198.276C159.009,199.231,162.532,201.992,164.664,201.529C171.024,199.728,166.684,189.432,165.496,184.383C163.948,177.103,157.519,149.457,152.731,144.165Z"/>
<path class="path-15" d="M148.304,157.026C153.943,158.843,155.803,169.412,156.958,173.776"/>
<path class="path-15" d="M156.958,173.776C157.846,176.672,161.922,185.333,156.981,185.060"/>
<path class="path-15" d="M156.981,185.060C151.376,184.786,141.507,154.817,148.304,157.026"/>
<path class="path-16" d="M148.304,157.026C153.943,158.843,155.803,169.412,156.958,173.776C157.846,176.672,161.922,185.333,156.981,185.060C151.376,184.786,141.507,154.817,148.304,157.026Z"/>
</g>
<g id="face_Mask">
<g id="face">
<path class="path-0" d="M163.710,100.079C173.203,90.536,206.527,86.678,220.299,86.062C235.727,85.613,251.050,89.501,265.478,95.638C270.607,97.829,278.320,100.292,282.285,104.692C288.490,111.629,289.896,123.185,290.527,132.105C291.072,137.735,291.849,145.047,290.333,150.173C281.621,179.621,273.171,193.055,266.176,200.787C254.790,213.373,236.202,216.754,219.577,219.363C200.809,222.033,188.604,219.887,174.096,214.049C168.801,211.925,157.479,206.497,154.316,202.045C148.316,193.255,152.024,182.577,151.087,172.427C149.976,163.436,146.270,150.129,145.789,141.266C145.356,130.044,155.904,107.856,163.710,100.079M287.054,97.459C274.887,83.793,238.931,77.493,221.120,78.352C212.743,78.502,204.732,78.355,196.917,79.567C191.119,80.653,185.882,82.796,180.415,83.915C168.393,87.048,163.750,85.133,154.879,95.057C148.527,101.990,137.352,130.662,136.846,139.892C136.571,147.276,140.831,164.801,141.006,173.403C141.141,182.739,137.676,195.705,141.221,203.986C144.264,210.818,150.229,215.114,159.281,220.391C168.485,225.756,178.904,231.104,189.754,232.733C196.326,233.850,205.453,233.460,220.686,229.789C238.387,225.288,257.034,220.626,270.674,206.697C283.371,193.731,300.161,176.564,305.404,149.238C309.218,129.358,293.807,104.880,287.054,97.459Z"/>
<path class="path-15" d="M220.299,86.062C235.727,85.613,251.050,89.501,265.478,95.638"/>
<path class="path-15" d="M265.478,95.638C270.607,97.829,278.320,100.292,282.285,104.692"/>
<path class="path-15" d="M282.285,104.692C288.490,111.629,289.896,123.185,290.527,132.105"/>
<path class="path-15" d="M290.527,132.105C291.072,137.735,291.849,145.047,290.333,150.173"/>
<path class="path-15" d="M290.333,150.173C281.621,179.621,273.171,193.055,266.176,200.787"/>
<path class="path-15" d="M266.176,200.787C254.790,213.373,236.202,216.754,219.577,219.363"/>
<path class="path-15" d="M219.577,219.363C200.809,222.033,188.604,219.887,174.096,214.049"/>
<path class="path-15" d="M174.096,214.049C168.801,211.925,157.479,206.497,154.316,202.045"/>
<path class="path-15" d="M154.316,202.045C148.316,193.255,152.024,182.577,151.087,172.427"/>
<path class="path-15" d="M151.087,172.427C149.976,163.436,146.270,150.129,145.789,141.266"/>
<path class="path-15" d="M145.789,141.266C145.356,130.044,155.904,107.856,163.710,100.079"/>
<path class="path-15" d="M163.710,100.079C173.203,90.536,206.527,86.678,220.299,86.062"/>
<path class="path-16" d="M220.299,86.062C235.727,85.613,251.050,89.501,265.478,95.638C270.607,97.829,278.320,100.292,282.285,104.692C288.490,111.629,289.896,123.185,290.527,132.105C291.072,137.735,291.849,145.047,290.333,150.173C281.621,179.621,273.171,193.055,266.176,200.787C254.790,213.373,236.202,216.754,219.577,219.363C200.809,222.033,188.604,219.887,174.096,214.049C168.801,211.925,157.479,206.497,154.316,202.045C148.316,193.255,152.024,182.577,151.087,172.427C149.976,163.436,146.270,150.129,145.789,141.266C145.356,130.044,155.904,107.856,163.710,100.079C173.203,90.536,206.527,86.678,220.299,86.062Z"/>
</g>
</g>
<mask id="mask_target" style="mask-type:alpha;">
<use xlink:href="#face_Mask"/>
</mask>
<g id="mouse">
<path class="path-0" d="M191.815,211.587C196.882,213.208,196.488,217.946,195.966,218.403C195.671,218.661,194.650,217.601,191.754,216.820C186.269,215.340,183.459,216.235,183.334,215.504C183.197,214.703,185.883,209.690,191.815,211.587Z"/>
</g>
<g id="layer_eyes_Mtarget" mask="url(#mask_target)">
<g id="eyes">
<mask style="mask-type:alpha;" id="f3906406-f197-4bf1-91d8-744c09cca836">
<use xlink:href="#cmn_f3906406-f197-4bf1-91d8-744c09cca836"/>
</mask>
<g id="cmn_f3906406-f197-4bf1-91d8-744c09cca836">
<path class="path-0" d="M146.911,185.319C147.350,184.881,147.371,181.487,147.901,182.007C147.541,181.671,141.583,182.226,140.713,183.778C140.304,184.511,142.321,187.919,141.292,187.676C140.677,187.531,146.612,185.617,146.911,185.319M154.720,188.829C154.794,188.171,154.871,182.247,152.731,181.332C151.539,180.823,149.816,182.204,148.711,182.917C145.810,184.701,128.632,179.075,130.038,174.742C130.545,173.170,138.911,172.536,140.399,173.302C150.237,178.391,124.419,197.231,138.780,202.910C139.452,203.177,147.905,186.052,145.917,188.747C144.831,190.217,154.556,190.269,154.720,188.829M185.187,191.217C182.814,190.985,179.554,192.309,177.634,189.129C176.158,186.686,195.175,189.164,197.185,189.040C198.590,188.952,211.195,188.597,211.976,188.249C212.134,188.180,214.128,188.615,214.337,188.761C214.410,188.812,189.428,191.632,185.187,191.217M221.434,192.065C221.958,191.617,222.876,184.417,222.369,183.906C219.123,180.638,206.321,183.246,199.442,183.040C194.898,182.904,187.157,183.540,184.293,182.697C180.441,181.712,177.518,180.438,175.158,181.853C173.266,182.988,171.741,186.363,172.095,188.540C172.442,190.670,174.667,192.716,176.995,193.806C181.810,196.068,201.988,194.613,205.934,194.667C206.304,194.671,218.951,194.184,221.434,192.065Z"/>
<path class="path-17" d="M211.976,188.249C212.134,188.180,214.128,188.615,214.337,188.761"/>
<path class="path-17" d="M214.337,188.761C214.410,188.812,189.428,191.632,185.187,191.217"/>
<path class="path-17" d="M185.187,191.217C182.814,190.985,179.554,192.309,177.634,189.129"/>
<path class="path-17" d="M177.634,189.129C176.158,186.686,195.175,189.164,197.185,189.040"/>
<path class="path-17" d="M197.185,189.040C198.590,188.952,211.195,188.597,211.976,188.249"/>
<path class="path-18" d="M211.976,188.249C212.134,188.180,214.128,188.615,214.337,188.761C214.410,188.812,189.428,191.632,185.187,191.217C182.814,190.985,179.554,192.309,177.634,189.129C176.158,186.686,195.175,189.164,197.185,189.040C198.590,188.952,211.195,188.597,211.976,188.249Z"/>
<path class="path-17" d="M141.292,187.676C140.677,187.531,146.612,185.617,146.911,185.319"/>
<path class="path-17" d="M146.911,185.319C147.350,184.881,147.371,181.487,147.901,182.007"/>
<path class="path-17" d="M147.901,182.007C147.541,181.671,141.583,182.226,140.713,183.778"/>
<path class="path-17" d="M140.713,183.778C140.304,184.511,142.321,187.919,141.292,187.676"/>
<path class="path-18" d="M141.292,187.676C140.677,187.531,146.612,185.617,146.911,185.319C147.350,184.881,147.371,181.487,147.901,182.007C147.541,181.671,141.583,182.226,140.713,183.778C140.304,184.511,142.321,187.919,141.292,187.676Z"/>
</g>
</g>
<g id="pupil">
<path class="path-0" d="M179.175,172.027C181.533,171.696,184.248,175.315,184.170,183.904C184.115,190.024,182.390,192.354,180.694,192.401C178.783,192.454,177.405,189.684,176.809,182.812C176.173,175.479,177.154,172.312,179.175,172.027Z" mask="url(#f3906406-f197-4bf1-91d8-744c09cca836)"/>
<path class="path-0" d="M146.846,169.621C149.279,169.376,152.055,173.342,151.578,182.437C151.306,187.633,149.829,189.484,148.436,189.581C146.843,189.693,145.068,187.625,144.162,181.742C142.902,173.562,144.636,169.843,146.846,169.621Z" mask="url(#f3906406-f197-4bf1-91d8-744c09cca836)"/>
</g>
</g>
<g id="hat">
<path class="path-0" d="M297.150,141.200C299.290,142.284,301.603,145.311,301.874,147.981C303.153,154.843,291.783,154.993,288.171,155.102C282.433,154.703,276.563,153.188,271.191,152.031C264.126,151.167,257.259,149.098,250.231,147.968C228.817,142.791,207.293,138.215,185.771,133.528C175.036,131.628,165.403,128.904,153.736,127.024C152.434,126.819,140.164,126.603,137.816,125.608C123.721,119.783,137.364,108.071,136.964,101.352C136.998,99.353,133.222,98.516,134.305,95.064C135.046,92.828,141.894,89.250,144.220,88.619C153.751,85.979,164.289,85.561,174.619,86.270C185.965,87.057,195.978,89.817,207.107,92.146C231.699,97.312,273.866,108.081,302.884,126.024C311.710,131.466,292.299,126.641,290.425,126.531C274.681,125.159,211.335,102.221,245.314,118.753C258.845,125.556,284.889,134.373,297.150,141.200M191.448,77.192C179.497,75.115,168.542,73.212,157.065,74.304C152.893,74.690,147.587,75.099,144.202,75.650C137.192,76.805,151.159,57.935,154.949,54.511C172.561,38.987,201.872,30.494,226.223,34.495C273.969,42.341,290.689,57.072,301.728,77.020C305.348,83.020,314.601,109.851,304.119,114.816C300.732,116.157,295.323,112.688,292.792,110.940C283.712,104.952,213.243,80.978,191.448,77.192M293.762,47.228C277.596,36.639,257.849,26.713,231.523,24.605C201.361,22.231,167.112,27.627,145.305,51.885C138.615,59.499,135.317,68.338,130.910,76.676C128.170,81.803,123.408,84.860,122.411,90.520C121.286,98.100,125.566,100.536,125.700,106.844C126.048,113.985,121.556,115.710,121.436,120.307C119.938,132.539,131.169,136.683,141.128,138.879C145.469,139.838,161.870,140.978,170.739,142.053C180.796,143.272,194.199,144.988,204.203,146.591C215.504,148.402,230.434,151.613,241.714,153.555C252.232,155.367,266.229,158.096,276.851,159.141C285.183,159.960,303.580,161.083,304.734,160.293C306.439,159.147,312.975,146.203,313.718,143.634C314.930,139.444,313.395,134.574,315.654,127.903C318.866,117.661,322.328,108.936,321.676,97.351C320.308,76.307,307.040,55.969,293.762,47.228Z"/>
<path class="path-19" d="M207.107,92.146C231.699,97.312,273.866,108.081,302.884,126.024"/>
<path class="path-19" d="M302.884,126.024C311.710,131.466,292.299,126.641,290.425,126.531"/>
<path class="path-19" d="M290.425,126.531C274.681,125.159,211.335,102.221,245.314,118.753"/>
<path class="path-19" d="M245.314,118.753C258.845,125.556,284.889,134.373,297.150,141.200"/>
<path class="path-19" d="M297.150,141.200C299.290,142.284,301.603,145.311,301.874,147.981"/>
<path class="path-19" d="M301.874,147.981C303.153,154.843,291.783,154.993,288.171,155.102"/>
<path class="path-19" d="M288.171,155.102C282.433,154.703,276.563,153.188,271.191,152.031"/>
<path class="path-19" d="M271.191,152.031C264.126,151.167,257.259,149.098,250.231,147.968"/>
<path class="path-19" d="M250.231,147.968C228.817,142.791,207.293,138.215,185.771,133.528"/>
<path class="path-19" d="M185.771,133.528C175.036,131.628,165.403,128.904,153.736,127.024"/>
<path class="path-19" d="M153.736,127.024C152.434,126.819,140.164,126.603,137.816,125.608"/>
<path class="path-19" d="M137.816,125.608C123.721,119.783,137.364,108.071,136.964,101.352"/>
<path class="path-19" d="M136.964,101.352C136.998,99.353,133.222,98.516,134.305,95.064"/>
<path class="path-19" d="M134.305,95.064C135.046,92.828,141.894,89.250,144.220,88.619"/>
<path class="path-19" d="M144.220,88.619C153.751,85.979,164.289,85.561,174.619,86.270"/>
<path class="path-19" d="M174.619,86.270C185.965,87.057,195.978,89.817,207.107,92.146"/>
<path class="path-20" d="M207.107,92.146C231.699,97.312,273.866,108.081,302.884,126.024C311.710,131.466,292.299,126.641,290.425,126.531C274.681,125.159,211.335,102.221,245.314,118.753C258.845,125.556,284.889,134.373,297.150,141.200C299.290,142.284,301.603,145.311,301.874,147.981C303.153,154.843,291.783,154.993,288.171,155.102C282.433,154.703,276.563,153.188,271.191,152.031C264.126,151.167,257.259,149.098,250.231,147.968C228.817,142.791,207.293,138.215,185.771,133.528C175.036,131.628,165.403,128.904,153.736,127.024C152.434,126.819,140.164,126.603,137.816,125.608C123.721,119.783,137.364,108.071,136.964,101.352C136.998,99.353,133.222,98.516,134.305,95.064C135.046,92.828,141.894,89.250,144.220,88.619C153.751,85.979,164.289,85.561,174.619,86.270C185.965,87.057,195.978,89.817,207.107,92.146Z"/>
<path class="path-9" d="M226.223,34.495C273.969,42.341,290.689,57.072,301.728,77.020"/>
<path class="path-9" d="M301.728,77.020C305.348,83.020,314.601,109.851,304.119,114.816"/>
<path class="path-9" d="M304.119,114.816C300.732,116.157,295.323,112.688,292.792,110.940"/>
<path class="path-9" d="M292.792,110.940C283.712,104.952,213.243,80.978,191.448,77.192"/>
<path class="path-9" d="M191.448,77.192C179.497,75.115,168.542,73.212,157.065,74.304"/>
<path class="path-9" d="M157.065,74.304C152.893,74.690,147.587,75.099,144.202,75.650"/>
<path class="path-9" d="M144.202,75.650C137.192,76.805,151.159,57.935,154.949,54.511"/>
<path class="path-9" d="M154.949,54.511C172.561,38.987,201.872,30.494,226.223,34.495"/>
<path class="path-10" d="M226.223,34.495C273.969,42.341,290.689,57.072,301.728,77.020C305.348,83.020,314.601,109.851,304.119,114.816C300.732,116.157,295.323,112.688,292.792,110.940C283.712,104.952,213.243,80.978,191.448,77.192C179.497,75.115,168.542,73.212,157.065,74.304C152.893,74.690,147.587,75.099,144.202,75.650C137.192,76.805,151.159,57.935,154.949,54.511C172.561,38.987,201.872,30.494,226.223,34.495Z"/>
</g>
<g id="left_ear">
<path class="path-0" d="M253.938,184.216C254.297,181.305,257.086,171.136,259.027,168.605C266.890,157.566,285.514,155.390,291.419,164.182C298.182,174.713,283.191,196.178,271.437,200.476C258.773,204.889,252.850,195.789,253.938,184.216M306.157,168.941C304.837,156.522,295.564,145.665,279.229,148.868C261.827,152.281,259.179,175.978,256.770,190.430C256.316,193.676,255.767,197.235,256.525,200.259C259.147,211.495,269.191,215.656,279.601,207.785C290.613,199.280,307.273,183.684,306.157,168.941Z"/>
<path class="path-15" d="M259.027,168.605C266.890,157.566,285.514,155.390,291.419,164.182"/>
<path class="path-15" d="M291.419,164.182C298.182,174.713,283.191,196.178,271.437,200.476"/>
<path class="path-15" d="M271.437,200.476C258.773,204.889,252.850,195.789,253.938,184.216"/>
<path class="path-15" d="M253.938,184.216C254.297,181.305,257.086,171.136,259.027,168.605"/>
<path class="path-16" d="M259.027,168.605C266.890,157.566,285.514,155.390,291.419,164.182C298.182,174.713,283.191,196.178,271.437,200.476C258.773,204.889,252.850,195.789,253.938,184.216C254.297,181.305,257.086,171.136,259.027,168.605Z"/>
</g>
<g id="earrings">
<path class="path-0" d="M279.585,213.771C269.993,217.461,270.769,199.118,274.053,199.703C278.566,201.670,288.663,214.434,279.585,213.771M290.269,207.026C283.624,206.951,281.260,197.696,281.022,193.860C288.375,196.074,297.361,202.345,290.269,207.026M301.308,204.840C299.521,196.471,287.597,190.849,280.112,186.649C277.319,185.082,267.865,194.290,267.157,197.584C265.636,201.601,266.404,224.308,280.737,222.657C286.586,221.721,302.743,211.564,301.308,204.840Z"/>
<path class="path-21" d="M281.022,193.860C288.375,196.074,297.361,202.345,290.269,207.026"/>
<path class="path-21" d="M290.269,207.026C283.624,206.951,281.260,197.696,281.022,193.860"/>
<path class="path-22" d="M281.022,193.860C288.375,196.074,297.361,202.345,290.269,207.026C283.624,206.951,281.260,197.696,281.022,193.860Z"/>
<path class="path-21" d="M274.053,199.703C278.566,201.670,288.663,214.434,279.585,213.771"/>
<path class="path-21" d="M279.585,213.771C269.993,217.461,270.769,199.118,274.053,199.703"/>
<path class="path-22" d="M274.053,199.703C278.566,201.670,288.663,214.434,279.585,213.771C269.993,217.461,270.769,199.118,274.053,199.703Z"/>
</g>
</g>
<g id="jacket">
<path class="path-0" d="M215.815,270.078C218.128,274.541,214.706,284.527,214.322,289.120C210.920,305.864,207.146,321.836,205.216,338.413C204.933,341.699,203.150,347.433,200.680,350.367C198.148,353.374,192.746,355.858,189.389,357.014C185.472,358.299,182.827,352.023,181.645,348.957C180.416,345.766,181.609,339.484,182.035,337.300C183.338,332.288,187.334,322.969,189.023,316.660C190.664,310.713,191.399,304.403,192.374,297.670C192.719,292.291,191.129,285.930,190.543,279.945C190.858,276.802,191.577,274.901,191.811,272.680C191.878,267.324,194.467,266.108,199.601,265.985C204.482,266.215,214.533,264.600,215.815,270.078M271.487,284.042C273.198,280.531,299.532,265.211,302.884,263.684C311.587,260.208,315.362,269.884,314.969,275.386C314.464,284.024,298.209,311.460,299.166,317.597C299.429,320.321,301.147,321.965,302.585,323.821C314.354,340.634,309.916,329.569,323.225,338.532C327.978,341.788,336.883,350.450,339.513,355.448C341.315,359.427,343.585,369.474,342.140,373.307C341.672,374.280,340.517,375.501,339.103,374.786C337.885,374.346,327.981,365.761,325.952,364.854C316.548,360.023,304.990,359.486,297.705,350.767C294.440,346.400,292.575,340.470,289.729,335.367C284.571,326.466,279.103,317.857,275.700,308.105C273.229,301.882,269.080,290.667,271.487,284.042M289.276,260.248C286.157,263.161,279.880,267.663,277.702,268.518C269.669,271.182,268.863,261.599,268.646,255.660C268.642,250.553,271.709,243.413,274.920,239.225C277.692,235.609,282.158,230.676,287.136,230.203C293.613,229.354,304.008,236.839,302.308,244.076C301.749,247.378,293.829,255.995,289.276,260.248M208.296,233.355C213.096,237.638,216.898,242.428,215.572,246.825C214.350,250.876,211.039,252.617,203.793,254.521C192.224,257.561,183.889,240.279,187.801,233.346C190.823,227.991,202.138,227.859,208.296,233.355M343.391,391.201C348.085,380.699,356.085,373.894,354.205,362.032C352.635,352.717,344.718,343.686,337.625,337.521C327.448,329.124,317.512,330.697,311.092,317.218C306.190,307.369,311.171,297.529,313.249,287.178C313.830,283.477,315.032,264.449,315.292,261.041C315.022,257.486,315.786,253.949,315.448,250.685C315.164,246.711,315.807,242.530,314.648,238.718C313.000,231.928,306.238,228.466,301.094,224.808C294.101,220.434,287.945,218.109,279.641,219.596C270.601,221.226,267.262,231.206,264.455,237.721C260.101,247.829,261.583,263.264,261.195,274.263C260.974,280.536,261.002,289.294,261.465,295.185C262.649,314.036,281.714,351.882,297.159,362.971C299.988,365.294,320.370,374.459,325.479,379.134C330.096,383.401,329.514,387.484,331.381,393.306C331.928,395.270,333.854,399.934,336.462,400.041C339.661,400.278,342.432,393.345,343.391,391.201M222.098,233.684C218.823,227.739,213.410,217.958,206.485,217.310C200.158,216.922,190.472,217.644,184.597,220.752C181.075,222.615,175.708,226.133,175.197,230.137C174.303,236.068,176.664,243.250,179.517,247.951C181.247,250.803,185.656,252.910,187.671,255.509C188.678,256.884,192.158,264.423,192.735,266.455C195.896,276.535,192.197,288.162,189.506,296.963C187.037,305.038,179.288,313.938,176.389,321.869C173.697,329.236,170.973,338.845,170.732,347.393C170.520,349.975,172.204,355.561,173.064,359.009C173.832,362.089,174.439,367.832,176.088,369.149C177.159,370.004,189.443,371.881,194.864,370.314C198.980,369.124,202.794,370.435,206.606,362.183C211.435,351.066,213.391,340.172,214.883,328.003C216.889,307.293,225.561,279.139,225.666,266.233C225.715,260.290,226.987,256.384,226.024,248.071C225.513,244.568,224.258,237.602,222.098,233.684Z"/>
<path class="path-1" d="M302.884,263.684C311.587,260.208,315.362,269.884,314.969,275.386"/>
<path class="path-1" d="M314.969,275.386C314.464,284.024,298.209,311.460,299.166,317.597"/>
<path class="path-1" d="M299.166,317.597C299.429,320.321,301.147,321.965,302.585,323.821"/>
<path class="path-1" d="M302.585,323.821C314.354,340.634,309.916,329.569,323.225,338.532"/>
<path class="path-1" d="M323.225,338.532C327.978,341.788,336.883,350.450,339.513,355.448"/>
<path class="path-1" d="M339.513,355.448C341.315,359.427,343.585,369.474,342.140,373.307"/>
<path class="path-1" d="M342.140,373.307C341.672,374.280,340.517,375.501,339.103,374.786"/>
<path class="path-1" d="M339.103,374.786C337.885,374.346,327.981,365.761,325.952,364.854"/>
<path class="path-1" d="M325.952,364.854C316.548,360.023,304.990,359.486,297.705,350.767"/>
<path class="path-1" d="M297.705,350.767C294.440,346.400,292.575,340.470,289.729,335.367"/>
<path class="path-1" d="M289.729,335.367C284.571,326.466,279.103,317.857,275.700,308.105"/>
<path class="path-1" d="M275.700,308.105C273.229,301.882,269.080,290.667,271.487,284.042"/>
<path class="path-1" d="M271.487,284.042C273.198,280.531,299.532,265.211,302.884,263.684"/>
<path class="path-2" d="M302.884,263.684C311.587,260.208,315.362,269.884,314.969,275.386C314.464,284.024,298.209,311.460,299.166,317.597C299.429,320.321,301.147,321.965,302.585,323.821C314.354,340.634,309.916,329.569,323.225,338.532C327.978,341.788,336.883,350.450,339.513,355.448C341.315,359.427,343.585,369.474,342.140,373.307C341.672,374.280,340.517,375.501,339.103,374.786C337.885,374.346,327.981,365.761,325.952,364.854C316.548,360.023,304.990,359.486,297.705,350.767C294.440,346.400,292.575,340.470,289.729,335.367C284.571,326.466,279.103,317.857,275.700,308.105C273.229,301.882,269.080,290.667,271.487,284.042C273.198,280.531,299.532,265.211,302.884,263.684Z"/>
<path class="path-1" d="M199.601,265.985C204.482,266.215,214.533,264.600,215.815,270.078"/>
<path class="path-1" d="M215.815,270.078C218.128,274.541,214.706,284.527,214.322,289.120"/>
<path class="path-1" d="M214.322,289.120C210.920,305.864,207.146,321.836,205.216,338.413"/>
<path class="path-1" d="M205.216,338.413C204.933,341.699,203.150,347.433,200.680,350.367"/>
<path class="path-1" d="M200.680,350.367C198.148,353.374,192.746,355.858,189.389,357.014"/>
<path class="path-1" d="M189.389,357.014C185.472,358.299,182.827,352.023,181.645,348.957"/>
<path class="path-1" d="M181.645,348.957C180.416,345.766,181.609,339.484,182.035,337.300"/>
<path class="path-1" d="M182.035,337.300C183.338,332.288,187.334,322.969,189.023,316.660"/>
<path class="path-1" d="M189.023,316.660C190.664,310.713,191.399,304.403,192.374,297.670"/>
<path class="path-1" d="M192.374,297.670C192.719,292.291,191.129,285.930,190.543,279.945"/>
<path class="path-1" d="M190.543,279.945C190.858,276.802,191.577,274.901,191.811,272.680"/>
<path class="path-1" d="M191.811,272.680C191.878,267.324,194.467,266.108,199.601,265.985"/>
<path class="path-2" d="M199.601,265.985C204.482,266.215,214.533,264.600,215.815,270.078C218.128,274.541,214.706,284.527,214.322,289.120C210.920,305.864,207.146,321.836,205.216,338.413C204.933,341.699,203.150,347.433,200.680,350.367C198.148,353.374,192.746,355.858,189.389,357.014C185.472,358.299,182.827,352.023,181.645,348.957C180.416,345.766,181.609,339.484,182.035,337.300C183.338,332.288,187.334,322.969,189.023,316.660C190.664,310.713,191.399,304.403,192.374,297.670C192.719,292.291,191.129,285.930,190.543,279.945C190.858,276.802,191.577,274.901,191.811,272.680C191.878,267.324,194.467,266.108,199.601,265.985Z"/>
<path class="path-1" d="M287.136,230.203C293.613,229.354,304.008,236.839,302.308,244.076"/>
<path class="path-1" d="M302.308,244.076C301.749,247.378,293.829,255.995,289.276,260.248"/>
<path class="path-1" d="M289.276,260.248C286.157,263.161,279.880,267.663,277.702,268.518"/>
<path class="path-1" d="M277.702,268.518C269.669,271.182,268.863,261.599,268.646,255.660"/>
<path class="path-1" d="M268.646,255.660C268.642,250.553,271.709,243.413,274.920,239.225"/>
<path class="path-1" d="M274.920,239.225C277.692,235.609,282.158,230.676,287.136,230.203"/>
<path class="path-2" d="M287.136,230.203C293.613,229.354,304.008,236.839,302.308,244.076C301.749,247.378,293.829,255.995,289.276,260.248C286.157,263.161,279.880,267.663,277.702,268.518C269.669,271.182,268.863,261.599,268.646,255.660C268.642,250.553,271.709,243.413,274.920,239.225C277.692,235.609,282.158,230.676,287.136,230.203Z"/>
<path class="path-1" d="M208.296,233.355C213.096,237.638,216.898,242.428,215.572,246.825"/>
<path class="path-1" d="M215.572,246.825C214.350,250.876,211.039,252.617,203.793,254.521"/>
<path class="path-1" d="M203.793,254.521C192.224,257.561,183.889,240.279,187.801,233.346"/>
<path class="path-1" d="M187.801,233.346C190.823,227.991,202.138,227.859,208.296,233.355"/>
<path class="path-2" d="M208.296,233.355C213.096,237.638,216.898,242.428,215.572,246.825C214.350,250.876,211.039,252.617,203.793,254.521C192.224,257.561,183.889,240.279,187.801,233.346C190.823,227.991,202.138,227.859,208.296,233.355Z"/>
</g>
<g id="left_arm">
<path class="path-0" d="M344.575,456.267C340.963,451.584,339.332,443.384,346.265,440.435C351.224,438.280,374.880,439.751,379.256,443.039C386.829,448.158,384.855,462.747,377.001,467.126C367.596,471.822,350.685,464.017,344.575,456.267M297.055,282.974C296.950,279.661,302.047,267.453,307.187,267.039C310.171,266.798,312.988,271.167,314.727,273.417C319.722,280.578,324.977,287.961,329.593,295.638C342.181,316.136,352.930,337.230,362.144,359.015C365.603,367.836,367.081,380.140,371.558,387.913C376.830,396.821,382.503,392.771,386.311,398.565C388.044,401.346,388.200,407.034,390.838,411.360C394.843,418.180,401.009,421.327,404.305,425.558C406.331,427.956,407.395,430.766,403.888,432.006C402.064,433.317,396.639,433.321,394.659,433.663C387.758,433.047,380.860,432.421,373.981,431.641C364.827,430.996,337.738,433.039,332.305,427.774C324.014,419.457,333.281,406.939,333.272,397.447C333.499,394.441,330.955,351.099,329.700,348.417C327.559,342.101,322.079,337.736,318.607,331.646C314.296,323.165,309.786,314.069,305.631,305.123C302.283,297.535,296.945,292.054,297.055,282.974M315.468,254.386C311.870,250.621,302.422,244.833,297.092,247.870C292.716,250.614,293.847,256.532,294.388,260.543C295.742,270.571,296.288,279.108,299.133,288.326C300.875,295.100,303.398,300.935,305.973,307.105C309.155,315.383,312.648,332.144,315.437,341.865C317.776,351.097,321.929,360.328,322.704,368.528C324.110,387.808,317.689,407.065,321.079,426.007C322.459,435.578,325.072,435.183,328.427,442.509C330.941,448.193,330.507,454.647,333.616,459.914C341.672,473.881,360.736,484.923,377.058,479.218C392.110,474.031,390.357,457.141,397.311,447.067C403.421,438.122,418.479,439.993,419.272,431.475C420.254,424.276,409.599,418.090,405.238,413.325C396.644,404.496,401.943,401.404,397.300,394.354C393.910,389.136,385.735,385.219,381.076,378.534C378.603,375.509,376.640,369.381,374.638,365.287C370.197,355.259,365.828,343.664,361.538,333.060C356.961,321.043,352.453,310.633,345.299,299.147C339.614,289.761,322.372,260.959,315.468,254.386Z"/>
<path class="path-1" d="M307.187,267.039C310.171,266.798,312.988,271.167,314.727,273.417"/>
<path class="path-1" d="M314.727,273.417C319.722,280.578,324.977,287.961,329.593,295.638"/>
<path class="path-1" d="M329.593,295.638C342.181,316.136,352.930,337.230,362.144,359.015"/>
<path class="path-1" d="M362.144,359.015C365.603,367.836,367.081,380.140,371.558,387.913"/>
<path class="path-1" d="M371.558,387.913C376.830,396.821,382.503,392.771,386.311,398.565"/>
<path class="path-1" d="M386.311,398.565C388.044,401.346,388.200,407.034,390.838,411.360"/>
<path class="path-1" d="M390.838,411.360C394.843,418.180,401.009,421.327,404.305,425.558"/>
<path class="path-1" d="M404.305,425.558C406.331,427.956,407.395,430.766,403.888,432.006"/>
<path class="path-1" d="M403.888,432.006C402.064,433.317,396.639,433.321,394.659,433.663"/>
<path class="path-1" d="M394.659,433.663C387.758,433.047,380.860,432.421,373.981,431.641"/>
<path class="path-1" d="M373.981,431.641C364.827,430.996,337.738,433.039,332.305,427.774"/>
<path class="path-1" d="M332.305,427.774C324.014,419.457,333.281,406.939,333.272,397.447"/>
<path class="path-1" d="M333.272,397.447C333.499,394.441,330.955,351.099,329.700,348.417"/>
<path class="path-1" d="M329.700,348.417C327.559,342.101,322.079,337.736,318.607,331.646"/>
<path class="path-1" d="M318.607,331.646C314.296,323.165,309.786,314.069,305.631,305.123"/>
<path class="path-1" d="M305.631,305.123C302.283,297.535,296.945,292.054,297.055,282.974"/>
<path class="path-1" d="M297.055,282.974C296.950,279.661,302.047,267.453,307.187,267.039"/>
<path class="path-2" d="M307.187,267.039C310.171,266.798,312.988,271.167,314.727,273.417C319.722,280.578,324.977,287.961,329.593,295.638C342.181,316.136,352.930,337.230,362.144,359.015C365.603,367.836,367.081,380.140,371.558,387.913C376.830,396.821,382.503,392.771,386.311,398.565C388.044,401.346,388.200,407.034,390.838,411.360C394.843,418.180,401.009,421.327,404.305,425.558C406.331,427.956,407.395,430.766,403.888,432.006C402.064,433.317,396.639,433.321,394.659,433.663C387.758,433.047,380.860,432.421,373.981,431.641C364.827,430.996,337.738,433.039,332.305,427.774C324.014,419.457,333.281,406.939,333.272,397.447C333.499,394.441,330.955,351.099,329.700,348.417C327.559,342.101,322.079,337.736,318.607,331.646C314.296,323.165,309.786,314.069,305.631,305.123C302.283,297.535,296.945,292.054,297.055,282.974C296.950,279.661,302.047,267.453,307.187,267.039Z"/>
<path class="path-15" d="M346.265,440.435C351.224,438.280,374.880,439.751,379.256,443.039"/>
<path class="path-15" d="M379.256,443.039C386.829,448.158,384.855,462.747,377.001,467.126"/>
<path class="path-15" d="M377.001,467.126C367.596,471.822,350.685,464.017,344.575,456.267"/>
<path class="path-15" d="M344.575,456.267C340.963,451.584,339.332,443.384,346.265,440.435"/>
<path class="path-16" d="M346.265,440.435C351.224,438.280,374.880,439.751,379.256,443.039C386.829,448.158,384.855,462.747,377.001,467.126C367.596,471.822,350.685,464.017,344.575,456.267C340.963,451.584,339.332,443.384,346.265,440.435Z"/>
</g>
<g id="bone">
<g id="bone1_clothes">
<path class="path-23" d="M233.977,387.055C233.978,387.049,248.133,329.784,248.134,329.778C248.134,329.784,244.988,388.689,244.988,388.695C244.986,388.695,233.978,387.055,233.977,387.055"/>
</g>
<g id="bone2_clothes">
<path class="path-23" d="M241.305,329.222C241.305,329.215,245.979,256.839,245.980,256.832C245.981,256.839,255.067,328.794,255.068,328.801C255.066,328.801,241.306,329.222,241.305,329.222"/>
</g>
<g id="bone3_neck">
<path class="path-23" d="M249.257,255.144C249.256,255.140,238.829,214.765,238.828,214.761C238.829,214.765,242.759,256.280,242.759,256.284C242.760,256.284,249.257,255.144,249.257,255.144"/>
</g>
<g id="bone4_head">
<path class="path-23" d="M232.839,215.136C232.839,215.128,233.640,137.068,233.640,137.060C233.641,137.068,245.273,214.260,245.274,214.267C245.273,214.268,232.840,215.136,232.839,215.136"/>
</g>
<g id="bone5_left_arm">
<path class="path-23" d="M309.259,258.538C309.263,258.547,343.874,344.292,343.878,344.300C343.873,344.293,295.193,265.677,295.188,265.669C295.190,265.668,309.258,258.539,309.259,258.538"/>
</g>
<g id="bone6_left_arm">
<path class="path-23" d="M338.804,345.849C338.806,345.855,359.979,405.973,359.981,405.979C359.980,405.972,348.905,343.205,348.904,343.199C348.903,343.199,338.805,345.849,338.804,345.849"/>
</g>
<g id="bone7_right_arm">
<path class="path-23" d="M180.182,268.839C180.179,268.850,155.682,381.722,155.679,381.733C155.683,381.722,197.683,274.130,197.687,274.120C197.685,274.119,180.183,268.839,180.182,268.839"/>
</g>
<g id="bone8_right_arm">
<path class="path-23" d="M160.526,377.616C160.528,377.621,180.597,433.659,180.599,433.665C180.596,433.660,149.680,382.796,149.676,382.791C149.678,382.790,160.525,377.616,160.526,377.616"/>
</g>
<g id="bone9_left_leg">
<path class="path-23" d="M271.710,385.501C271.713,385.511,295.393,487.386,295.395,487.396C295.391,487.387,254.271,391.224,254.267,391.214C254.268,391.214,271.708,385.501,271.710,385.501"/>
</g>
<g id="bone10_right_leg">
<path class="path-23" d="M209.438,386.261C209.437,386.271,202.595,486.805,202.594,486.815C202.596,486.805,224.780,388.511,224.782,388.501C224.781,388.501,209.439,386.261,209.438,386.261"/>
</g>
<g id="bone11_hair">
<path class="path-23" d="M242.280,158.152C242.282,158.160,256.845,237.010,256.846,237.018C256.843,237.010,228.096,162.157,228.093,162.149C228.094,162.149,242.279,158.152,242.280,158.152"/>
</g>
<g id="bone12_left_leg_S">
<path class="path-23" d="M435.212,222.242C435.219,222.242,507.397,227.155,507.404,227.155C507.397,227.154,437.008,210.449,437.001,210.448C437.000,210.449,435.212,222.241,435.212,222.242"/>
</g>
<g id="bone13_right_leg_S">
<path class="path-23" d="M495.025,210.824C495.018,210.826,425.687,231.485,425.680,231.487C425.687,231.487,497.471,222.499,497.478,222.498C497.478,222.497,495.026,210.825,495.025,210.824"/>
</g>
<g id="bone14_left_arm_S">
<path class="path-23" d="M557.442,214.626C557.440,214.620,535.888,145.560,535.886,145.553C535.887,145.560,545.799,217.222,545.800,217.229C545.801,217.229,557.441,214.627,557.442,214.626"/>
</g>
<g id="bone15_jacket_S">
<path class="path-23" d="M610.018,218.054C610.020,218.047,629.736,148.442,629.738,148.435C629.735,148.441,598.851,213.862,598.847,213.868C598.849,213.868,610.017,218.054,610.018,218.054"/>
</g>
<g id="bone16_pupils_S">
<path class="path-23" d="M442.216,337.745C442.216,337.738,441.061,265.403,441.061,265.396C441.060,265.403,430.314,336.945,430.313,336.952C430.314,336.952,442.215,337.745,442.216,337.745"/>
</g>
<g id="bone17_eyelids_S">
<path class="path-23" d="M497.676,331.602C497.669,331.601,425.809,323.249,425.801,323.248C425.808,323.250,495.320,343.295,495.327,343.297C495.327,343.296,497.676,331.603,497.676,331.602"/>
</g>
<g id="bone18_face_S">
<path class="path-23" d="M553.537,344.288C553.544,344.286,621.212,318.699,621.219,318.697C621.212,318.698,550.259,332.819,550.252,332.820C550.253,332.821,553.537,344.287,553.537,344.288"/>
</g>
</g>
</g>
<style>
.path-0{fill:#000000;fill-rule:evenodd;stroke:none;}
.path-1{fill:none;stroke:#a60d3f;stroke-width:1;stroke-linecap:butt;stroke-linejoin:round;}
.path-2{fill:#a60d3f;fill-rule:evenodd;stroke:none;}
.path-3{fill:none;stroke:#d88e4b;stroke-width:1;stroke-linecap:butt;stroke-linejoin:round;}
.path-4{fill:#d88e4b;fill-rule:evenodd;stroke:none;}
.path-5{fill:none;stroke:#6e2353;stroke-width:1;stroke-linecap:butt;stroke-linejoin:round;}
.path-6{fill:#6e2353;fill-rule:evenodd;stroke:none;}
.path-7{fill:none;stroke:#392966;stroke-width:1;stroke-linecap:butt;stroke-linejoin:round;}
.path-8{fill:#392966;fill-rule:evenodd;stroke:none;}
.path-9{fill:none;stroke:#cc9bc5;stroke-width:1;stroke-linecap:butt;stroke-linejoin:round;}
.path-10{fill:#cc9bc5;fill-rule:evenodd;stroke:none;}
.path-11{fill:none;stroke:#620527;stroke-width:1;stroke-linecap:butt;stroke-linejoin:round;}
.path-12{fill:#620527;fill-rule:evenodd;stroke:none;}
.path-13{fill:none;stroke:#6a3661;stroke-width:1;stroke-linecap:butt;stroke-linejoin:round;}
.path-14{fill:#6a3661;fill-rule:evenodd;stroke:none;}
.path-15{fill:none;stroke:#f8a087;stroke-width:1;stroke-linecap:butt;stroke-linejoin:round;}
.path-16{fill:#f8a087;fill-rule:evenodd;stroke:none;}
.path-17{fill:none;stroke:#ffffff;stroke-width:1;stroke-linecap:butt;stroke-linejoin:round;}
.path-18{fill:#ffffff;fill-rule:evenodd;stroke:none;}
.path-19{fill:none;stroke:#d89f4a;stroke-width:1;stroke-linecap:butt;stroke-linejoin:round;}
.path-20{fill:#d89f4a;fill-rule:evenodd;stroke:none;}
.path-21{fill:none;stroke:#fafd5b;stroke-width:1;stroke-linecap:butt;stroke-linejoin:round;}
.path-22{fill:#fafd5b;fill-rule:evenodd;stroke:none;}
.path-23{fill:none;stroke:#00ff42;stroke-width:8;stroke-linecap:round;stroke-linejoin:round;}
.path-24{fill:none;stroke:#000000;stroke-width:1;stroke-linecap:butt;stroke-linejoin:round;}
.path-25{fill:none;stroke:#ececec;stroke-width:1;stroke-linecap:butt;stroke-linejoin:round;}
.path-26{fill:#ececec;fill-rule:evenodd;stroke:none;}
.path-27{fill:none;stroke:#808080;stroke-width:1;stroke-linecap:butt;stroke-linejoin:round;}
.path-28{fill:#808080;fill-rule:evenodd;stroke:none;}
.path-29{fill:none;stroke:#282828;stroke-width:1;stroke-linecap:butt;stroke-linejoin:round;}
.path-30{fill:#282828;fill-rule:evenodd;stroke:none;}
</style>
</svg>
