<svg version="1.1" id="Frame_173" xmlns="http://www.w3.org/2000/svg" xmlns:xlink="http://www.w3.org/1999/xlink" width="480px" height="720px">
<g id="main_bone">
<g id="right_arm">
<path class="path-0" d="M183.046,268.161C184.655,265.599,187.814,260.306,191.691,259.101C198.219,257.073,203.272,263.244,203.662,267.822C204.652,275.839,198.117,286.115,194.971,293.725C187.263,312.047,179.025,330.146,173.765,348.770C173.099,352.032,168.050,373.187,168.091,370.538C167.659,377.158,174.205,382.889,176.459,388.548C179.342,396.180,176.488,403.372,174.599,410.335C170.240,424.698,170.682,429.992,171.014,443.982C171.170,446.198,171.606,453.414,168.137,453.830C164.728,454.239,163.689,448.100,162.775,445.771C162.185,443.142,159.352,437.658,159.872,435.282C159.949,431.309,164.520,432.216,159.398,424.070C152.858,413.887,141.470,405.344,138.611,392.000C136.731,381.371,142.394,372.113,145.667,362.257C152.633,341.084,160.364,319.929,169.331,299.191C174.210,288.437,176.583,279.021,183.046,268.161M203.578,261.541C204.304,253.029,201.829,245.385,191.049,248.109C173.692,252.429,166.115,278.316,160.274,292.822C152.071,312.418,145.229,332.248,138.864,352.204C136.259,360.752,133.027,365.062,131.627,370.020C129.888,375.632,130.082,384.259,130.354,389.899C130.166,407.554,135.496,408.468,142.795,421.967C146.674,429.953,143.003,435.117,145.784,442.021C147.817,446.769,151.862,449.993,155.037,453.869C157.858,457.764,158.616,460.043,160.756,463.637C163.346,467.931,171.005,477.560,176.643,474.721C180.864,472.576,179.816,464.684,179.712,460.850C179.396,455.095,180.647,432.761,181.603,425.993C183.355,414.769,189.291,402.751,187.719,390.634C186.448,381.369,178.286,374.643,178.791,364.732C179.213,359.452,182.633,350.920,183.852,345.015C185.855,335.580,186.388,325.415,189.110,315.763C193.750,298.591,202.696,279.672,203.578,261.541Z"/>
<path class="path-1" d="M191.691,259.101C198.219,257.073,203.272,263.244,203.662,267.822"/>
<path class="path-1" d="M203.662,267.822C204.652,275.839,198.117,286.115,194.971,293.725"/>
<path class="path-1" d="M194.971,293.725C187.263,312.047,179.025,330.146,173.765,348.770"/>
<path class="path-1" d="M173.765,348.770C173.099,352.032,168.050,373.187,168.091,370.538"/>
<path class="path-1" d="M168.091,370.538C167.659,377.158,174.205,382.889,176.459,388.548"/>
<path class="path-1" d="M176.459,388.548C179.342,396.180,176.488,403.372,174.599,410.335"/>
<path class="path-1" d="M174.599,410.335C170.240,424.698,170.682,429.992,171.014,443.982"/>
<path class="path-1" d="M171.014,443.982C171.170,446.198,171.606,453.414,168.137,453.830"/>
<path class="path-1" d="M168.137,453.830C164.728,454.239,163.689,448.100,162.775,445.771"/>
<path class="path-1" d="M162.775,445.771C162.185,443.142,159.352,437.658,159.872,435.282"/>
<path class="path-1" d="M159.872,435.282C159.949,431.309,164.520,432.216,159.398,424.070"/>
<path class="path-1" d="M159.398,424.070C152.858,413.887,141.470,405.344,138.611,392.000"/>
<path class="path-1" d="M138.611,392.000C136.731,381.371,142.394,372.113,145.667,362.257"/>
<path class="path-1" d="M145.667,362.257C152.633,341.084,160.364,319.929,169.331,299.191"/>
<path class="path-1" d="M169.331,299.191C174.210,288.437,176.583,279.021,183.046,268.161"/>
<path class="path-1" d="M183.046,268.161C184.655,265.599,187.814,260.306,191.691,259.101"/>
<path class="path-2" d="M191.691,259.101C198.219,257.073,203.272,263.244,203.662,267.822C204.652,275.839,198.117,286.115,194.971,293.725C187.263,312.047,179.025,330.146,173.765,348.770C173.099,352.032,168.050,373.187,168.091,370.538C167.659,377.158,174.205,382.889,176.459,388.548C179.342,396.180,176.488,403.372,174.599,410.335C170.240,424.698,170.682,429.992,171.014,443.982C171.170,446.198,171.606,453.414,168.137,453.830C164.728,454.239,163.689,448.100,162.775,445.771C162.185,443.142,159.352,437.658,159.872,435.282C159.949,431.309,164.520,432.216,159.398,424.070C152.858,413.887,141.470,405.344,138.611,392.000C136.731,381.371,142.394,372.113,145.667,362.257C152.633,341.084,160.364,319.929,169.331,299.191C174.210,288.437,176.583,279.021,183.046,268.161C184.655,265.599,187.814,260.306,191.691,259.101Z"/>
</g>
<g id="layer_left_leg">
<g id="left_heel">
<path class="path-0" d="M320.456,630.328C310.454,620.593,318.631,597.726,328.936,592.505C344.696,584.304,364.244,606.795,363.871,613.587C362.984,623.932,347.243,628.525,338.970,630.824C334.468,631.912,323.680,633.596,320.456,630.328M355.845,584.086C343.711,576.971,322.499,584.611,313.665,593.623C294.758,612.162,301.533,655.593,334.205,645.580C345.421,642.203,369.706,633.166,374.405,624.102C378.720,616.911,374.260,608.008,370.400,600.987C366.893,595.393,361.587,587.564,355.845,584.086Z"/>
<path class="path-3" d="M328.936,592.505C344.696,584.304,364.244,606.795,363.871,613.587"/>
<path class="path-3" d="M363.871,613.587C362.984,623.932,347.243,628.525,338.970,630.824"/>
<path class="path-3" d="M338.970,630.824C334.468,631.912,323.680,633.596,320.456,630.328"/>
<path class="path-3" d="M320.456,630.328C310.454,620.593,318.631,597.726,328.936,592.505"/>
<path class="path-4" d="M328.936,592.505C344.696,584.304,364.244,606.795,363.871,613.587C362.984,623.932,347.243,628.525,338.970,630.824C334.468,631.912,323.680,633.596,320.456,630.328C310.454,620.593,318.631,597.726,328.936,592.505Z"/>
</g>
<g id="left_leg">
<path class="path-0" d="M242.978,412.479C243.353,407.414,253.518,408.559,257.206,407.354C262.848,405.819,274.993,400.355,280.583,402.696C290.645,406.517,300.834,435.256,304.053,445.335C313.122,476.695,323.051,505.707,332.111,535.903C333.894,542.385,335.694,549.088,337.516,555.424C339.194,560.481,339.393,567.557,343.593,570.180C345.404,571.803,349.507,569.177,350.215,571.338C352.427,579.779,343.432,577.201,340.555,582.558C335.184,591.858,323.367,602.328,313.719,602.215C307.139,602.365,294.722,597.741,290.729,592.370C286.925,587.253,283.536,580.721,280.908,575.026C268.824,548.837,268.369,487.695,253.735,458.750C244.777,441.031,252.760,437.688,256.390,422.904C256.990,420.461,246.168,425.953,244.049,424.538C241.257,422.977,242.578,415.607,242.978,412.479M285.112,391.947C277.734,388.812,261.492,395.384,254.548,397.703C250.733,398.961,237.762,399.235,235.410,401.831C221.226,417.493,238.900,455.481,245.504,471.942C247.058,476.669,252.371,499.803,253.826,506.337C261.586,533.750,262.120,558.824,271.316,585.795C273.760,593.273,275.392,600.886,279.903,607.171C291.907,623.654,309.273,622.359,330.731,615.162C341.991,611.396,365.745,599.268,367.895,574.752C368.748,564.982,360.108,554.411,358.006,551.828C354.553,547.584,350.096,543.750,347.381,538.530C338.116,522.085,339.330,501.618,333.034,483.686C325.007,460.759,308.222,401.827,285.112,391.947Z"/>
<path class="path-7" d="M257.206,407.354C262.848,405.819,274.993,400.355,280.583,402.696"/>
<path class="path-7" d="M280.583,402.696C290.645,406.517,300.834,435.256,304.053,445.335"/>
<path class="path-7" d="M304.053,445.335C313.122,476.695,323.051,505.707,332.111,535.903"/>
<path class="path-7" d="M332.111,535.903C333.894,542.385,335.694,549.088,337.516,555.424"/>
<path class="path-7" d="M337.516,555.424C339.194,560.481,339.393,567.557,343.593,570.180"/>
<path class="path-7" d="M343.593,570.180C345.404,571.803,349.507,569.177,350.215,571.338"/>
<path class="path-7" d="M350.215,571.338C352.427,579.779,343.432,577.201,340.555,582.558"/>
<path class="path-7" d="M340.555,582.558C335.184,591.858,323.367,602.328,313.719,602.215"/>
<path class="path-7" d="M313.719,602.215C307.139,602.365,294.722,597.741,290.729,592.370"/>
<path class="path-7" d="M290.729,592.370C286.925,587.253,283.536,580.721,280.908,575.026"/>
<path class="path-7" d="M280.908,575.026C268.824,548.837,268.369,487.695,253.735,458.750"/>
<path class="path-7" d="M253.735,458.750C244.777,441.031,252.760,437.688,256.390,422.904"/>
<path class="path-7" d="M256.390,422.904C256.990,420.461,246.168,425.953,244.049,424.538"/>
<path class="path-7" d="M244.049,424.538C241.257,422.977,242.578,415.607,242.978,412.479"/>
<path class="path-7" d="M242.978,412.479C243.353,407.414,253.518,408.559,257.206,407.354"/>
<path class="path-8" d="M257.206,407.354C262.848,405.819,274.993,400.355,280.583,402.696C290.645,406.517,300.834,435.256,304.053,445.335C313.122,476.695,323.051,505.707,332.111,535.903C333.894,542.385,335.694,549.088,337.516,555.424C339.194,560.481,339.393,567.557,343.593,570.180C345.404,571.803,349.507,569.177,350.215,571.338C352.427,579.779,343.432,577.201,340.555,582.558C335.184,591.858,323.367,602.328,313.719,602.215C307.139,602.365,294.722,597.741,290.729,592.370C286.925,587.253,283.536,580.721,280.908,575.026C268.824,548.837,268.369,487.695,253.735,458.750C244.777,441.031,252.760,437.688,256.390,422.904C256.990,420.461,246.168,425.953,244.049,424.538C241.257,422.977,242.578,415.607,242.978,412.479C243.353,407.414,253.518,408.559,257.206,407.354Z"/>
</g>
<g id="left_toe">
<path class="path-0" d="M325.440,661.643C298.280,663.733,293.804,627.624,311.502,615.438C329.738,603.050,351.696,609.975,360.999,621.213C366.392,626.951,370.003,633.762,368.472,641.639C364.464,655.919,338.375,660.562,325.440,661.643M374.975,612.047C368.014,599.011,353.404,589.227,341.346,588.404C311.809,586.505,290.362,600.689,288.472,628.298C286.857,644.258,294.444,659.766,307.143,669.462C317.020,676.535,342.915,670.919,353.531,666.979C362.720,662.800,373.994,656.893,378.306,646.663C381.464,639.468,378.609,618.965,374.975,612.047Z"/>
<path class="path-3" d="M311.502,615.438C329.738,603.050,351.696,609.975,360.999,621.213"/>
<path class="path-3" d="M360.999,621.213C366.392,626.951,370.003,633.762,368.472,641.639"/>
<path class="path-3" d="M368.472,641.639C364.464,655.919,338.375,660.562,325.440,661.643"/>
<path class="path-3" d="M325.440,661.643C298.280,663.733,293.804,627.624,311.502,615.438"/>
<path class="path-4" d="M311.502,615.438C329.738,603.050,351.696,609.975,360.999,621.213C366.392,626.951,370.003,633.762,368.472,641.639C364.464,655.919,338.375,660.562,325.440,661.643C298.280,663.733,293.804,627.624,311.502,615.438Z"/>
</g>
<g id="left_sole">
<path class="path-0" d="M333.203,675.635C322.517,678.168,315.531,664.908,315.475,670.505C315.439,674.069,325.124,674.782,329.396,674.874C338.909,675.433,353.249,670.092,360.693,663.431C363.217,661.523,371.523,656.241,371.623,656.482C373.241,660.392,362.576,663.843,359.115,665.251C356.036,666.888,334.023,675.226,333.203,675.635M315.874,670.676C320.557,667.346,332.286,668.785,336.604,668.882C353.718,669.264,360.713,657.542,368.331,654.771C369.042,654.521,370.874,652.131,372.043,654.048C376.092,660.690,347.046,674.605,331.936,673.729C324.715,674.004,314.137,671.911,315.874,670.676M374.561,645.513C370.718,643.640,355.941,655.905,339.506,660.679C331.383,663.067,307.751,656.600,304.917,667.719C304.320,670.086,307.067,677.335,309.161,678.468C323.197,686.353,373.546,668.912,378.172,662.296C379.709,660.097,379.714,648.025,374.561,645.513Z"/>
<path class="path-5" d="M315.475,670.505C315.439,674.069,325.124,674.782,329.396,674.874"/>
<path class="path-5" d="M329.396,674.874C338.909,675.433,353.249,670.092,360.693,663.431"/>
<path class="path-5" d="M360.693,663.431C363.217,661.523,371.523,656.241,371.623,656.482"/>
<path class="path-5" d="M371.623,656.482C373.241,660.392,362.576,663.843,359.115,665.251"/>
<path class="path-5" d="M359.115,665.251C356.036,666.888,334.023,675.226,333.203,675.635"/>
<path class="path-5" d="M333.203,675.635C322.517,678.168,315.531,664.908,315.475,670.505"/>
<path class="path-6" d="M315.475,670.505C315.439,674.069,325.124,674.782,329.396,674.874C338.909,675.433,353.249,670.092,360.693,663.431C363.217,661.523,371.523,656.241,371.623,656.482C373.241,660.392,362.576,663.843,359.115,665.251C356.036,666.888,334.023,675.226,333.203,675.635C322.517,678.168,315.531,664.908,315.475,670.505Z"/>
<path class="path-5" d="M336.604,668.882C353.718,669.264,360.713,657.542,368.331,654.771"/>
<path class="path-5" d="M368.331,654.771C369.042,654.521,370.874,652.131,372.043,654.048"/>
<path class="path-5" d="M372.043,654.048C376.092,660.690,347.046,674.605,331.936,673.729"/>
<path class="path-5" d="M331.936,673.729C324.715,674.004,314.137,671.911,315.874,670.676"/>
<path class="path-5" d="M315.874,670.676C320.557,667.346,332.286,668.785,336.604,668.882"/>
<path class="path-6" d="M336.604,668.882C353.718,669.264,360.713,657.542,368.331,654.771C369.042,654.521,370.874,652.131,372.043,654.048C376.092,660.690,347.046,674.605,331.936,673.729C324.715,674.004,314.137,671.911,315.874,670.676C320.557,667.346,332.286,668.785,336.604,668.882Z"/>
</g>
</g>
<g id="layer_right_leg">
<g id="right_heel">
<path class="path-0" d="M186.418,617.274C186.908,601.041,187.815,588.434,207.636,585.180C216.481,583.566,233.447,586.033,238.506,594.479C241.159,598.667,240.498,604.901,240.834,609.424C241.445,616.785,246.244,630.925,235.843,632.840C235.177,633.029,216.734,633.683,210.979,633.938C203.572,634.954,195.862,635.645,190.388,630.630C187.606,627.520,186.229,621.052,186.418,617.274M247.978,592.598C243.852,582.344,229.463,576.789,219.448,578.446C206.416,580.440,192.948,576.400,184.689,588.741C178.286,598.307,177.873,615.666,180.074,626.636C180.925,631.727,184.351,640.978,188.671,643.722C191.836,645.639,196.653,644.975,200.346,644.908C218.379,644.867,250.708,650.342,249.773,623.580C249.459,616.716,250.125,597.992,247.978,592.598Z"/>
<path class="path-3" d="M207.636,585.180C216.481,583.566,233.447,586.033,238.506,594.479"/>
<path class="path-3" d="M238.506,594.479C241.159,598.667,240.498,604.901,240.834,609.424"/>
<path class="path-3" d="M240.834,609.424C241.445,616.785,246.244,630.925,235.843,632.840"/>
<path class="path-3" d="M235.843,632.840C235.177,633.029,216.734,633.683,210.979,633.938"/>
<path class="path-3" d="M210.979,633.938C203.572,634.954,195.862,635.645,190.388,630.630"/>
<path class="path-3" d="M190.388,630.630C187.606,627.520,186.229,621.052,186.418,617.274"/>
<path class="path-3" d="M186.418,617.274C186.908,601.041,187.815,588.434,207.636,585.180"/>
<path class="path-4" d="M207.636,585.180C216.481,583.566,233.447,586.033,238.506,594.479C241.159,598.667,240.498,604.901,240.834,609.424C241.445,616.785,246.244,630.925,235.843,632.840C235.177,633.029,216.734,633.683,210.979,633.938C203.572,634.954,195.862,635.645,190.388,630.630C187.606,627.520,186.229,621.052,186.418,617.274C186.908,601.041,187.815,588.434,207.636,585.180Z"/>
</g>
<g id="right_leg">
<path class="path-0" d="M181.365,405.741C184.738,393.879,200.362,390.808,210.905,393.506C216.765,394.879,226.545,397.544,229.883,402.936C231.421,405.420,232.106,410.091,230.662,412.628C228.270,416.831,212.600,414.868,215.681,418.712C220.961,425.496,230.457,415.724,234.859,419.422C236.869,421.110,237.095,424.737,237.541,427.728C241.914,449.336,235.478,472.549,235.526,493.929C235.473,500.826,233.788,511.009,235.052,517.278C237.681,533.016,235.977,536.341,236.504,545.796C236.478,549.302,234.951,567.092,236.148,571.647C237.471,576.308,240.694,580.811,241.239,585.647C242.166,593.864,230.714,605.211,223.345,607.665C215.118,610.226,189.482,609.176,181.622,605.112C178.387,603.557,174.462,599.646,173.101,596.061C171.688,592.873,169.493,577.843,170.400,574.172C172.256,567.721,174.668,566.344,176.585,558.722C178.514,549.777,180.682,540.127,180.007,530.785C178.265,511.741,178.515,481.852,180.454,468.331C181.376,460.545,179.241,434.439,180.188,427.231C181.813,415.674,179.706,413.479,181.365,405.741M205.941,381.895C200.246,380.019,195.796,374.764,189.865,376.908C188.080,377.726,184.978,380.026,183.725,381.345C168.046,395.344,169.533,409.070,169.895,428.543C169.731,435.541,169.857,442.807,169.391,449.517C168.892,455.079,167.329,459.701,166.158,464.822C165.477,469.049,164.887,473.564,164.782,478.858C164.808,484.296,166.396,490.649,166.693,499.882C166.293,509.893,167.153,519.323,166.867,528.896C166.890,535.124,164.177,549.596,163.372,554.342C161.228,561.178,157.968,569.039,156.515,575.649C155.120,584.356,157.026,593.477,160.603,601.046C162.321,605.242,165.338,610.222,168.565,613.021C170.682,614.857,173.479,615.981,176.006,616.850C183.840,619.499,191.301,620.668,199.646,620.848C205.381,621.015,211.012,619.500,216.971,619.791C217.992,619.685,226.384,621.004,228.039,621.064C230.915,621.003,234.906,618.426,237.485,616.824C240.818,614.495,246.660,613.552,249.414,610.415C251.801,607.693,252.847,604.018,254.105,600.625C261.149,580.775,254.236,569.662,251.359,551.488C249.773,541.472,247.121,520.833,247.142,509.606C246.886,495.975,249.577,482.778,250.169,468.736C250.449,464.239,250.736,458.846,251.390,453.751C251.943,448.740,250.727,444.723,250.400,439.768C249.917,435.929,249.978,423.586,249.309,419.465C248.859,415.791,248.806,411.195,247.400,407.580C243.550,398.382,229.368,388.392,219.992,385.595C215.302,384.029,210.306,383.797,205.941,381.895Z"/>
<path class="path-7" d="M210.905,393.506C216.765,394.879,226.545,397.544,229.883,402.936"/>
<path class="path-7" d="M229.883,402.936C231.421,405.420,232.106,410.091,230.662,412.628"/>
<path class="path-7" d="M230.662,412.628C228.270,416.831,212.600,414.868,215.681,418.712"/>
<path class="path-7" d="M215.681,418.712C220.961,425.496,230.457,415.724,234.859,419.422"/>
<path class="path-7" d="M234.859,419.422C236.869,421.110,237.095,424.737,237.541,427.728"/>
<path class="path-7" d="M237.541,427.728C241.914,449.336,235.478,472.549,235.526,493.929"/>
<path class="path-7" d="M235.526,493.929C235.473,500.826,233.788,511.009,235.052,517.278"/>
<path class="path-7" d="M235.052,517.278C237.681,533.016,235.977,536.341,236.504,545.796"/>
<path class="path-7" d="M236.504,545.796C236.478,549.302,234.951,567.092,236.148,571.647"/>
<path class="path-7" d="M236.148,571.647C237.471,576.308,240.694,580.811,241.239,585.647"/>
<path class="path-7" d="M241.239,585.647C242.166,593.864,230.714,605.211,223.345,607.665"/>
<path class="path-7" d="M223.345,607.665C215.118,610.226,189.482,609.176,181.622,605.112"/>
<path class="path-7" d="M181.622,605.112C178.387,603.557,174.462,599.646,173.101,596.061"/>
<path class="path-7" d="M173.101,596.061C171.688,592.873,169.493,577.843,170.400,574.172"/>
<path class="path-7" d="M170.400,574.172C172.256,567.721,174.668,566.344,176.585,558.722"/>
<path class="path-7" d="M176.585,558.722C178.514,549.777,180.682,540.127,180.007,530.785"/>
<path class="path-7" d="M180.007,530.785C178.265,511.741,178.515,481.852,180.454,468.331"/>
<path class="path-7" d="M180.454,468.331C181.376,460.545,179.241,434.439,180.188,427.231"/>
<path class="path-7" d="M180.188,427.231C181.813,415.674,179.706,413.479,181.365,405.741"/>
<path class="path-7" d="M181.365,405.741C184.738,393.879,200.362,390.808,210.905,393.506"/>
<path class="path-8" d="M210.905,393.506C216.765,394.879,226.545,397.544,229.883,402.936C231.421,405.420,232.106,410.091,230.662,412.628C228.270,416.831,212.600,414.868,215.681,418.712C220.961,425.496,230.457,415.724,234.859,419.422C236.869,421.110,237.095,424.737,237.541,427.728C241.914,449.336,235.478,472.549,235.526,493.929C235.473,500.826,233.788,511.009,235.052,517.278C237.681,533.016,235.977,536.341,236.504,545.796C236.478,549.302,234.951,567.092,236.148,571.647C237.471,576.308,240.694,580.811,241.239,585.647C242.166,593.864,230.714,605.211,223.345,607.665C215.118,610.226,189.482,609.176,181.622,605.112C178.387,603.557,174.462,599.646,173.101,596.061C171.688,592.873,169.493,577.843,170.400,574.172C172.256,567.721,174.668,566.344,176.585,558.722C178.514,549.777,180.682,540.127,180.007,530.785C178.265,511.741,178.515,481.852,180.454,468.331C181.376,460.545,179.241,434.439,180.188,427.231C181.813,415.674,179.706,413.479,181.365,405.741C184.738,393.879,200.362,390.808,210.905,393.506Z"/>
</g>
<g id="right_toe">
<path class="path-0" d="M170.782,642.479C171.877,629.338,176.821,612.390,192.819,609.808C196.518,609.014,201.781,610.661,205.921,611.414C227.030,615.199,235.348,619.696,236.476,641.198C236.665,647.073,237.693,654.347,233.380,659.150C229.050,663.885,208.107,661.713,201.733,662.101C190.486,663.030,180.889,668.495,172.923,658.853C168.217,653.034,170.212,649.439,170.782,642.479M244.426,618.616C237.202,604.912,204.747,597.246,190.243,600.159C168.607,604.628,161.841,621.705,160.791,640.080C160.367,646.638,159.676,653.855,163.077,659.583C164.290,661.626,166.831,664.335,168.583,665.954C181.836,679.271,191.278,677.439,208.823,676.943C218.106,676.835,233.509,675.660,240.843,669.337C246.304,664.166,246.787,658.650,246.911,651.579C246.786,644.777,247.311,623.602,244.426,618.616Z"/>
<path class="path-3" d="M192.819,609.808C196.518,609.014,201.781,610.661,205.921,611.414"/>
<path class="path-3" d="M205.921,611.414C227.030,615.199,235.348,619.696,236.476,641.198"/>
<path class="path-3" d="M236.476,641.198C236.665,647.073,237.693,654.347,233.380,659.150"/>
<path class="path-3" d="M233.380,659.150C229.050,663.885,208.107,661.713,201.733,662.101"/>
<path class="path-3" d="M201.733,662.101C190.486,663.030,180.889,668.495,172.923,658.853"/>
<path class="path-3" d="M172.923,658.853C168.217,653.034,170.212,649.439,170.782,642.479"/>
<path class="path-3" d="M170.782,642.479C171.877,629.338,176.821,612.390,192.819,609.808"/>
<path class="path-4" d="M192.819,609.808C196.518,609.014,201.781,610.661,205.921,611.414C227.030,615.199,235.348,619.696,236.476,641.198C236.665,647.073,237.693,654.347,233.380,659.150C229.050,663.885,208.107,661.713,201.733,662.101C190.486,663.030,180.889,668.495,172.923,658.853C168.217,653.034,170.212,649.439,170.782,642.479C171.877,629.338,176.821,612.390,192.819,609.808Z"/>
</g>
<g id="right_sole">
<path class="path-0" d="M189.616,674.070C191.130,674.401,206.448,673.975,208.174,673.936C209.568,673.926,218.032,673.736,219.219,673.628C219.956,673.577,227.380,673.120,227.958,673.572C227.450,673.100,219.483,674.739,219.012,674.763C218.092,674.841,191.967,675.197,191.662,675.310C190.462,675.366,179.250,674.654,178.535,673.665C179.763,673.209,187.848,673.681,189.616,674.070M228.570,667.024C228.623,667.296,227.075,668.960,226.661,668.969C225.827,668.989,212.842,670.671,211.734,670.472C210.483,670.470,201.873,671.560,200.746,671.571C198.478,671.593,180.579,670.644,178.636,669.504C178.479,669.371,177.954,668.569,177.975,668.455C178.032,668.175,184.991,668.812,186.081,668.778C187.792,668.723,201.460,667.464,203.214,667.376C205.107,667.280,219.832,667.234,221.769,667.034C222.071,667.011,228.427,666.348,228.570,667.024M234.148,662.158C222.948,659.262,214.213,663.828,204.154,664.337C196.809,664.740,182.670,663.434,173.752,665.355C172.343,665.658,169.638,665.518,169.233,666.980C168.722,668.844,172.376,672.769,174.680,674.218C177.536,676.014,183.414,675.939,185.752,676.248C197.613,678.255,212.620,676.811,224.764,676.088C233.732,675.559,235.914,671.946,236.736,667.640C237.077,665.856,237.639,663.013,234.148,662.158Z"/>
<path class="path-5" d="M189.616,674.070C191.130,674.401,206.448,673.975,208.174,673.936"/>
<path class="path-5" d="M208.174,673.936C209.568,673.926,218.032,673.736,219.219,673.628"/>
<path class="path-5" d="M219.219,673.628C219.956,673.577,227.380,673.120,227.958,673.572"/>
<path class="path-5" d="M227.958,673.572C227.450,673.100,219.483,674.739,219.012,674.763"/>
<path class="path-5" d="M219.012,674.763C218.092,674.841,191.967,675.197,191.662,675.310"/>
<path class="path-5" d="M191.662,675.310C190.462,675.366,179.250,674.654,178.535,673.665"/>
<path class="path-5" d="M178.535,673.665C179.763,673.209,187.848,673.681,189.616,674.070"/>
<path class="path-6" d="M189.616,674.070C191.130,674.401,206.448,673.975,208.174,673.936C209.568,673.926,218.032,673.736,219.219,673.628C219.956,673.577,227.380,673.120,227.958,673.572C227.450,673.100,219.483,674.739,219.012,674.763C218.092,674.841,191.967,675.197,191.662,675.310C190.462,675.366,179.250,674.654,178.535,673.665C179.763,673.209,187.848,673.681,189.616,674.070Z"/>
<path class="path-5" d="M186.081,668.778C187.792,668.723,201.460,667.464,203.214,667.376"/>
<path class="path-5" d="M203.214,667.376C205.107,667.280,219.832,667.234,221.769,667.034"/>
<path class="path-5" d="M221.769,667.034C222.071,667.011,228.427,666.348,228.570,667.024"/>
<path class="path-5" d="M228.570,667.024C228.623,667.296,227.075,668.960,226.661,668.969"/>
<path class="path-5" d="M226.661,668.969C225.827,668.989,212.842,670.671,211.734,670.472"/>
<path class="path-5" d="M211.734,670.472C210.483,670.470,201.873,671.560,200.746,671.571"/>
<path class="path-5" d="M200.746,671.571C198.478,671.593,180.579,670.644,178.636,669.504"/>
<path class="path-5" d="M178.636,669.504C178.479,669.371,177.954,668.569,177.975,668.455"/>
<path class="path-5" d="M177.975,668.455C178.032,668.175,184.991,668.812,186.081,668.778"/>
<path class="path-6" d="M186.081,668.778C187.792,668.723,201.460,667.464,203.214,667.376C205.107,667.280,219.832,667.234,221.769,667.034C222.071,667.011,228.427,666.348,228.570,667.024C228.623,667.296,227.075,668.960,226.661,668.969C225.827,668.989,212.842,670.671,211.734,670.472C210.483,670.470,201.873,671.560,200.746,671.571C198.478,671.593,180.579,670.644,178.636,669.504C178.479,669.371,177.954,668.569,177.975,668.455C178.032,668.175,184.991,668.812,186.081,668.778Z"/>
</g>
</g>
<g id="hat_brim">
<path class="path-0" d="M296.048,150.851C300.526,145.447,311.748,130.597,319.650,131.739C324.919,132.500,334.405,143.620,339.574,147.392C344.085,151.070,348.974,154.465,354.190,157.907C357.131,160.019,360.076,162.125,363.025,164.226C376.138,173.517,371.282,179.203,363.239,176.696C345.277,170.737,342.123,171.627,325.675,159.837C323.512,158.516,318.060,154.368,316.454,158.505C314.425,163.254,322.697,168.820,326.080,170.989C332.141,175.564,338.815,180.562,346.622,182.362C348.880,183.025,356.879,183.507,357.861,186.002C359.361,189.581,348.576,196.762,346.314,198.453C342.593,200.940,338.873,203.428,335.246,205.258C329.832,207.835,324.135,210.037,318.395,210.216C307.668,210.012,276.929,190.106,277.606,178.440C277.900,171.760,291.192,156.536,296.048,150.851M332.123,129.172C327.802,124.177,325.085,117.397,317.364,119.643C311.762,121.188,305.071,127.952,300.878,131.380C284.998,145.892,270.009,163.560,267.574,185.057C265.953,198.605,270.610,198.943,280.715,205.780C295.988,216.392,316.682,222.071,335.652,216.409C347.938,212.806,370.594,197.927,377.575,186.835C379.792,183.121,384.040,174.659,382.400,169.717C380.576,163.737,359.894,151.001,353.832,146.428C346.548,141.005,338.229,135.768,332.123,129.172Z"/>
<path class="path-9" d="M319.650,131.739C324.919,132.500,334.405,143.620,339.574,147.392"/>
<path class="path-9" d="M339.574,147.392C344.085,151.070,348.974,154.465,354.190,157.907"/>
<path class="path-9" d="M354.190,157.907C357.131,160.019,360.076,162.125,363.025,164.226"/>
<path class="path-9" d="M363.025,164.226C376.138,173.517,371.282,179.203,363.239,176.696"/>
<path class="path-9" d="M363.239,176.696C345.277,170.737,342.123,171.627,325.675,159.837"/>
<path class="path-9" d="M325.675,159.837C323.512,158.516,318.060,154.368,316.454,158.505"/>
<path class="path-9" d="M316.454,158.505C314.425,163.254,322.697,168.820,326.080,170.989"/>
<path class="path-9" d="M326.080,170.989C332.141,175.564,338.815,180.562,346.622,182.362"/>
<path class="path-9" d="M346.622,182.362C348.880,183.025,356.879,183.507,357.861,186.002"/>
<path class="path-9" d="M357.861,186.002C359.361,189.581,348.576,196.762,346.314,198.453"/>
<path class="path-9" d="M346.314,198.453C342.593,200.940,338.873,203.428,335.246,205.258"/>
<path class="path-9" d="M335.246,205.258C329.832,207.835,324.135,210.037,318.395,210.216"/>
<path class="path-9" d="M318.395,210.216C307.668,210.012,276.929,190.106,277.606,178.440"/>
<path class="path-9" d="M277.606,178.440C277.900,171.760,291.192,156.536,296.048,150.851"/>
<path class="path-9" d="M296.048,150.851C300.526,145.447,311.748,130.597,319.650,131.739"/>
<path class="path-10" d="M319.650,131.739C324.919,132.500,334.405,143.620,339.574,147.392C344.085,151.070,348.974,154.465,354.190,157.907C357.131,160.019,360.076,162.125,363.025,164.226C376.138,173.517,371.282,179.203,363.239,176.696C345.277,170.737,342.123,171.627,325.675,159.837C323.512,158.516,318.060,154.368,316.454,158.505C314.425,163.254,322.697,168.820,326.080,170.989C332.141,175.564,338.815,180.562,346.622,182.362C348.880,183.025,356.879,183.507,357.861,186.002C359.361,189.581,348.576,196.762,346.314,198.453C342.593,200.940,338.873,203.428,335.246,205.258C329.832,207.835,324.135,210.037,318.395,210.216C307.668,210.012,276.929,190.106,277.606,178.440C277.900,171.760,291.192,156.536,296.048,150.851C300.526,145.447,311.748,130.597,319.650,131.739Z"/>
</g>
<g id="hair">
<path class="path-0" d="M189.409,141.981C205.810,128.626,225.582,125.790,246.511,123.100C255.893,121.876,262.914,127.711,270.669,133.355C277.067,138.338,283.970,143.980,290.759,149.203C300.973,157.005,305.316,160.990,309.208,164.820C312.504,167.731,317.713,173.249,321.725,175.739C326.566,178.742,337.187,194.997,339.386,196.746C332.972,199.556,322.733,202.112,318.301,206.359C320.457,212.019,321.590,220.983,321.837,223.681C315.690,224.651,308.256,222.484,296.661,221.408C294.966,228.769,295.568,235.471,291.522,243.145C283.641,241.481,278.130,240.066,267.811,236.512C261.717,242.267,260.147,241.996,250.065,249.428C242.617,245.727,236.581,241.613,229.442,239.384C222.947,242.857,212.340,244.810,208.969,248.044C204.561,241.366,200.395,233.930,196.858,230.854C187.473,233.652,183.605,236.628,177.070,239.673C172.386,234.549,174.990,229.757,169.620,222.093C165.205,221.306,158.313,219.282,152.765,219.658C156.200,214.852,157.738,199.915,164.050,197.489C171.839,194.495,165.993,185.836,170.191,177.241C171.221,175.009,181.529,157.718,182.349,154.967C183.942,150.208,185.698,145.153,189.409,141.981M274.165,120.378C261.154,112.054,236.109,109.098,222.563,113.527C210.118,117.439,198.027,122.516,187.626,130.622C181.796,135.102,175.475,141.507,171.902,147.944C164.735,160.466,155.146,187.335,149.520,199.880C145.051,210.268,140.651,217.401,135.990,223.230C154.093,228.127,159.444,230.335,164.741,230.688C165.728,238.387,173.348,243.513,172.843,252.145C181.509,250.094,186.544,247.425,194.181,244.812C198.542,249.110,201.818,255.179,206.133,261.033C213.643,258.288,221.530,257.908,228.678,251.823C234.442,254.356,243.589,258.274,252.999,262.444C260.893,257.336,262.643,256.933,269.975,251.238C279.618,252.761,290.037,257.766,299.466,255.945C298.099,247.845,303.658,241.729,302.508,236.557C309.520,234.026,331.775,235.345,335.502,234.705C334.763,228.700,330.465,217.448,331.416,210.137C338.047,207.756,343.643,205.626,353.808,199.641C349.778,193.266,342.863,185.513,336.997,181.040C332.049,177.304,327.841,172.156,322.875,168.248C306.054,155.230,298.239,135.863,274.165,120.378Z"/>
<path class="path-11" d="M246.511,123.100C255.893,121.876,262.914,127.711,270.669,133.355"/>
<path class="path-11" d="M270.669,133.355C277.067,138.338,283.970,143.980,290.759,149.203"/>
<path class="path-11" d="M290.759,149.203C300.973,157.005,305.316,160.990,309.208,164.820"/>
<path class="path-11" d="M309.208,164.820C312.504,167.731,317.713,173.249,321.725,175.739"/>
<path class="path-11" d="M321.725,175.739C326.566,178.742,337.187,194.997,339.386,196.746"/>
<path class="path-11" d="M339.386,196.746C332.972,199.556,322.733,202.112,318.301,206.359"/>
<path class="path-11" d="M318.301,206.359C320.457,212.019,321.590,220.983,321.837,223.681"/>
<path class="path-11" d="M321.837,223.681C315.690,224.651,308.256,222.484,296.661,221.408"/>
<path class="path-11" d="M296.661,221.408C294.966,228.769,295.568,235.471,291.522,243.145"/>
<path class="path-11" d="M291.522,243.145C283.641,241.481,278.130,240.066,267.811,236.512"/>
<path class="path-11" d="M267.811,236.512C261.717,242.267,260.147,241.996,250.065,249.428"/>
<path class="path-11" d="M250.065,249.428C242.617,245.727,236.581,241.613,229.442,239.384"/>
<path class="path-11" d="M229.442,239.384C222.947,242.857,212.340,244.810,208.969,248.044"/>
<path class="path-11" d="M208.969,248.044C204.561,241.366,200.395,233.930,196.858,230.854"/>
<path class="path-11" d="M196.858,230.854C187.473,233.652,183.605,236.628,177.070,239.673"/>
<path class="path-11" d="M177.070,239.673C172.386,234.549,174.990,229.757,169.620,222.093"/>
<path class="path-11" d="M169.620,222.093C165.205,221.306,158.313,219.282,152.765,219.658"/>
<path class="path-11" d="M152.765,219.658C156.200,214.852,157.738,199.915,164.050,197.489"/>
<path class="path-11" d="M164.050,197.489C171.839,194.495,165.993,185.836,170.191,177.241"/>
<path class="path-11" d="M170.191,177.241C171.221,175.009,181.529,157.718,182.349,154.967"/>
<path class="path-11" d="M182.349,154.967C183.942,150.208,185.698,145.153,189.409,141.981"/>
<path class="path-11" d="M189.409,141.981C205.810,128.626,225.582,125.790,246.511,123.100"/>
<path class="path-12" d="M246.511,123.100C255.893,121.876,262.914,127.711,270.669,133.355C277.067,138.338,283.970,143.980,290.759,149.203C300.973,157.005,305.316,160.990,309.208,164.820C312.504,167.731,317.713,173.249,321.725,175.739C326.566,178.742,337.187,194.997,339.386,196.746C332.972,199.556,322.733,202.112,318.301,206.359C320.457,212.019,321.590,220.983,321.837,223.681C315.690,224.651,308.256,222.484,296.661,221.408C294.966,228.769,295.568,235.471,291.522,243.145C283.641,241.481,278.130,240.066,267.811,236.512C261.717,242.267,260.147,241.996,250.065,249.428C242.617,245.727,236.581,241.613,229.442,239.384C222.947,242.857,212.340,244.810,208.969,248.044C204.561,241.366,200.395,233.930,196.858,230.854C187.473,233.652,183.605,236.628,177.070,239.673C172.386,234.549,174.990,229.757,169.620,222.093C165.205,221.306,158.313,219.282,152.765,219.658C156.200,214.852,157.738,199.915,164.050,197.489C171.839,194.495,165.993,185.836,170.191,177.241C171.221,175.009,181.529,157.718,182.349,154.967C183.942,150.208,185.698,145.153,189.409,141.981C205.810,128.626,225.582,125.790,246.511,123.100Z"/>
</g>
<g id="clothes">
<path class="path-0" d="M247.241,371.237C242.814,368.717,225.738,359.035,222.427,363.155C219.614,366.879,224.095,368.258,228.054,369.170C231.579,369.982,248.874,379.658,251.485,378.342C256.306,375.843,249.386,372.338,247.241,371.237M204.429,263.580C208.330,251.317,236.062,240.737,248.793,242.757C257.785,244.156,285.131,260.550,288.451,269.261C291.233,276.221,290.176,301.036,289.745,309.414C288.679,324.673,287.960,340.006,287.564,355.297C287.842,367.969,289.633,380.553,290.837,393.171C290.608,399.486,291.632,416.513,285.262,419.296C277.126,423.322,260.639,408.223,253.848,403.350C229.392,386.793,231.531,385.288,204.121,381.307C200.728,380.682,189.305,382.442,187.120,380.863C183.468,377.522,185.792,372.009,187.274,367.479C191.470,356.219,195.458,348.905,198.334,336.489C201.844,320.866,204.347,303.809,205.705,287.314C205.861,281.411,203.505,267.123,204.429,263.580M284.113,251.640C268.524,240.648,253.090,231.400,232.947,235.563C227.569,236.475,200.170,247.279,197.635,250.422C193.716,255.371,196.210,275.413,195.675,282.546C195.364,291.093,194.829,299.964,193.416,308.087C192.507,314.330,190.624,319.809,190.048,325.750C189.078,332.318,189.042,339.649,186.799,345.424C182.344,356.663,166.004,377.155,178.117,387.945C182.894,392.232,191.479,391.291,198.052,392.947C208.692,395.413,219.967,398.825,229.957,403.635C239.608,408.615,246.003,418.928,256.189,423.060C264.104,426.273,290.743,434.339,297.373,428.215C301.868,424.246,300.851,397.424,300.453,390.659C299.018,377.225,297.526,363.718,297.430,350.207C297.678,338.235,297.476,326.497,299.259,314.306C300.512,304.310,303.036,294.757,303.852,284.384C303.859,279.963,304.879,274.613,302.848,270.038C299.439,261.685,291.139,256.584,284.113,251.640Z"/>
<path class="path-13" d="M247.241,371.237C242.814,368.717,225.738,359.035,222.427,363.155"/>
<path class="path-13" d="M222.427,363.155C219.614,366.879,224.095,368.258,228.054,369.170"/>
<path class="path-13" d="M228.054,369.170C231.579,369.982,248.874,379.658,251.485,378.342"/>
<path class="path-13" d="M251.485,378.342C256.306,375.843,249.386,372.338,247.241,371.237"/>
<path class="path-13" d="M204.429,263.580C208.330,251.317,236.062,240.737,248.793,242.757"/>
<path class="path-13" d="M248.793,242.757C257.785,244.156,285.131,260.550,288.451,269.261"/>
<path class="path-13" d="M288.451,269.261C291.233,276.221,290.176,301.036,289.745,309.414"/>
<path class="path-13" d="M289.745,309.414C288.679,324.673,287.960,340.006,287.564,355.297"/>
<path class="path-13" d="M287.564,355.297C287.842,367.969,289.633,380.553,290.837,393.171"/>
<path class="path-13" d="M290.837,393.171C290.608,399.486,291.632,416.513,285.262,419.296"/>
<path class="path-13" d="M285.262,419.296C277.126,423.322,260.639,408.223,253.848,403.350"/>
<path class="path-13" d="M253.848,403.350C229.392,386.793,231.531,385.288,204.121,381.307"/>
<path class="path-13" d="M204.121,381.307C200.728,380.682,189.305,382.442,187.120,380.863"/>
<path class="path-13" d="M187.120,380.863C183.468,377.522,185.792,372.009,187.274,367.479"/>
<path class="path-13" d="M187.274,367.479C191.470,356.219,195.458,348.905,198.334,336.489"/>
<path class="path-13" d="M198.334,336.489C201.844,320.866,204.347,303.809,205.705,287.314"/>
<path class="path-13" d="M205.705,287.314C205.861,281.411,203.505,267.123,204.429,263.580"/>
<path class="path-14" d="M247.241,371.237C242.814,368.717,225.738,359.035,222.427,363.155C219.614,366.879,224.095,368.258,228.054,369.170C231.579,369.982,248.874,379.658,251.485,378.342C256.306,375.843,249.386,372.338,247.241,371.237M204.429,263.580C208.330,251.317,236.062,240.737,248.793,242.757C257.785,244.156,285.131,260.550,288.451,269.261C291.233,276.221,290.176,301.036,289.745,309.414C288.679,324.673,287.960,340.006,287.564,355.297C287.842,367.969,289.633,380.553,290.837,393.171C290.608,399.486,291.632,416.513,285.262,419.296C277.126,423.322,260.639,408.223,253.848,403.350C229.392,386.793,231.531,385.288,204.121,381.307C200.728,380.682,189.305,382.442,187.120,380.863C183.468,377.522,185.792,372.009,187.274,367.479C191.470,356.219,195.458,348.905,198.334,336.489C201.844,320.866,204.347,303.809,205.705,287.314C205.861,281.411,203.505,267.123,204.429,263.580Z"/>
</g>
<g id="neck">
<path class="path-0" d="M232.103,226.111C231.568,222.810,231.762,219.660,235.212,218.395C245.949,213.468,254.667,250.052,244.380,252.794C234.736,255.365,233.088,232.389,232.103,226.111M232.813,209.395C230.156,209.759,227.434,211.172,225.526,213.059C217.723,219.958,221.237,227.974,223.465,236.332C224.257,240.598,225.608,244.370,224.621,248.419C223.872,252.063,220.226,256.476,221.169,260.014C224.061,269.573,250.101,262.632,256.766,260.510C259.337,259.825,268.274,258.476,268.296,254.683C268.039,253.719,258.611,244.179,256.447,239.937C249.955,227.206,253.645,204.876,232.813,209.395Z"/>
<path class="path-15" d="M235.212,218.395C245.949,213.468,254.667,250.052,244.380,252.794"/>
<path class="path-15" d="M244.380,252.794C234.736,255.365,233.088,232.389,232.103,226.111"/>
<path class="path-15" d="M232.103,226.111C231.568,222.810,231.762,219.660,235.212,218.395"/>
<path class="path-16" d="M235.212,218.395C245.949,213.468,254.667,250.052,244.380,252.794C234.736,255.365,233.088,232.389,232.103,226.111C231.568,222.810,231.762,219.660,235.212,218.395Z"/>
</g>
<g id="layer_head">
<g id="right_ear">
<path class="path-0" d="M157.278,180.741C152.136,180.166,143.804,150.736,149.884,152.963C155.472,154.995,156.845,165.715,157.818,170.139C158.524,172.835,161.902,181.283,157.278,180.741M154.370,140.004C152.590,138.436,150.420,136.673,148.157,137.381C138.883,138.726,139.704,152.512,140.975,161.845C142.660,173.303,148.237,188.673,157.459,194.226C159.074,195.210,162.053,198.064,164.031,197.786C170.385,196.489,166.360,185.993,165.384,180.998C164.108,173.620,158.876,145.593,154.370,140.004Z"/>
<path class="path-15" d="M149.884,152.963C155.472,154.995,156.845,165.715,157.818,170.139"/>
<path class="path-15" d="M157.818,170.139C158.524,172.835,161.902,181.283,157.278,180.741"/>
<path class="path-15" d="M157.278,180.741C152.136,180.166,143.804,150.736,149.884,152.963"/>
<path class="path-16" d="M149.884,152.963C155.472,154.995,156.845,165.715,157.818,170.139C158.524,172.835,161.902,181.283,157.278,180.741C152.136,180.166,143.804,150.736,149.884,152.963Z"/>
</g>
<g id="face_Mask">
<g id="face">
<path class="path-0" d="M165.894,96.497C175.788,87.369,209.247,84.944,223.032,84.919C238.465,85.133,253.607,89.674,267.759,96.424C272.790,98.833,280.403,101.615,284.163,106.191C290.027,113.382,290.941,124.974,291.049,133.889C291.258,139.429,291.408,146.603,289.665,151.543C279.258,181.038,270.250,194.458,262.741,201.982C250.239,214.508,230.651,217.214,213.163,218.664C194.392,219.951,183.525,216.806,168.660,209.442C164.265,207.270,154.811,202.121,152.283,198.167C146.630,188.953,151.220,178.288,150.689,167.948C149.951,158.982,146.404,145.690,146.223,136.877C146.170,125.646,157.763,103.932,165.894,96.497M289.237,99.169C277.670,84.992,242.015,77.157,224.184,77.252C215.808,77.042,207.810,76.552,199.951,77.428C194.111,78.263,188.787,80.180,183.277,81.064C171.132,83.678,166.576,81.566,157.287,91.100C150.643,97.754,138.162,125.912,137.348,135.120C136.822,142.544,140.932,160.298,140.715,168.960C140.425,178.347,135.731,191.179,138.898,199.668C141.655,206.740,147.722,211.201,156.739,216.837C165.452,222.283,175.296,227.811,185.698,229.757C191.664,230.951,199.523,231.476,213.205,229.177C231.913,225.792,251.625,222.023,266.590,208.318C280.367,195.701,298.871,179.004,305.196,150.989C309.618,131.406,295.582,106.774,289.237,99.169Z"/>
<path class="path-15" d="M223.032,84.919C238.465,85.133,253.607,89.674,267.759,96.424"/>
<path class="path-15" d="M267.759,96.424C272.790,98.833,280.403,101.615,284.163,106.191"/>
<path class="path-15" d="M284.163,106.191C290.027,113.382,290.941,124.974,291.049,133.889"/>
<path class="path-15" d="M291.049,133.889C291.258,139.429,291.408,146.603,289.665,151.543"/>
<path class="path-15" d="M289.665,151.543C279.258,181.038,270.250,194.458,262.741,201.982"/>
<path class="path-15" d="M262.741,201.982C250.239,214.508,230.651,217.214,213.163,218.664"/>
<path class="path-15" d="M213.163,218.664C194.392,219.951,183.525,216.806,168.660,209.442"/>
<path class="path-15" d="M168.660,209.442C164.265,207.270,154.811,202.121,152.283,198.167"/>
<path class="path-15" d="M152.283,198.167C146.630,188.953,151.220,178.288,150.689,167.948"/>
<path class="path-15" d="M150.689,167.948C149.951,158.982,146.404,145.690,146.223,136.877"/>
<path class="path-15" d="M146.223,136.877C146.170,125.646,157.763,103.932,165.894,96.497"/>
<path class="path-15" d="M165.894,96.497C175.788,87.369,209.247,84.944,223.032,84.919"/>
<path class="path-16" d="M223.032,84.919C238.465,85.133,253.607,89.674,267.759,96.424C272.790,98.833,280.403,101.615,284.163,106.191C290.027,113.382,290.941,124.974,291.049,133.889C291.258,139.429,291.408,146.603,289.665,151.543C279.258,181.038,270.250,194.458,262.741,201.982C250.239,214.508,230.651,217.214,213.163,218.664C194.392,219.951,183.525,216.806,168.660,209.442C164.265,207.270,154.811,202.121,152.283,198.167C146.630,188.953,151.220,178.288,150.689,167.948C149.951,158.982,146.404,145.690,146.223,136.877C146.170,125.646,157.763,103.932,165.894,96.497C175.788,87.369,209.247,84.944,223.032,84.919Z"/>
</g>
</g>
<mask id="mask_target" style="mask-type:alpha;">
<use xlink:href="#face_Mask"/>
</mask>
<g id="mouse">
<path class="path-0" d="M188.387,208.814C193.379,210.651,192.782,215.367,192.241,215.802C191.936,216.046,190.961,214.945,188.101,214.039C182.684,212.325,179.838,213.099,179.745,212.364C179.643,211.558,182.542,206.664,188.387,208.814Z"/>
</g>
<g id="layer_eyes_Mtarget" mask="url(#mask_target)">
<g id="eyes">
<mask style="mask-type:alpha;" id="f3906406-f197-4bf1-91d8-744c09cca836">
<use xlink:href="#cmn_f3906406-f197-4bf1-91d8-744c09cca836"/>
</mask>
<g id="cmn_f3906406-f197-4bf1-91d8-744c09cca836">
<path class="path-0" d="M143.309,175.422C144.137,176.134,144.665,179.247,144.892,178.872C144.468,179.596,140.094,177.987,139.561,176.400C139.441,176.063,140.018,174.332,140.004,174.778C139.993,175.153,143.086,175.231,143.309,175.422M152.117,179.771C152.135,178.643,152.679,174.129,150.989,172.903C150.038,172.213,148.216,172.751,147.079,173.110C144.074,173.986,131.205,166.596,131.677,162.435C131.771,161.596,135.416,159.295,136.261,159.369C147.219,160.343,124.409,177.325,134.616,188.773C135.523,189.790,144.690,185.137,143.839,186.005C143.270,186.585,152.081,181.977,152.117,179.771M181.727,187.931C177.893,186.917,171.434,185.235,172.140,179.097C172.460,176.317,187.911,177.535,191.200,177.072C194.189,176.651,207.459,174.478,208.989,174.708C209.725,174.854,210.707,178.146,210.443,179.869C210.009,182.706,188.208,189.646,181.727,187.931M217.201,184.797C219.342,182.316,220.728,169.956,219.672,169.038C215.883,165.743,202.167,169.716,194.698,170.434C188.959,170.986,179.380,173.657,175.651,172.999C172.291,172.530,169.602,171.342,167.823,172.876C166.164,174.306,166.340,177.953,166.773,180.099C167.398,183.195,169.286,186.932,172.453,188.965C178.758,193.121,194.208,191.988,201.045,191.603C202.660,191.509,214.230,188.240,217.201,184.797Z"/>
<path class="path-17" d="M208.989,174.708C209.725,174.854,210.707,178.146,210.443,179.869"/>
<path class="path-17" d="M210.443,179.869C210.009,182.706,188.208,189.646,181.727,187.931"/>
<path class="path-17" d="M181.727,187.931C177.893,186.917,171.434,185.235,172.140,179.097"/>
<path class="path-17" d="M172.140,179.097C172.460,176.317,187.911,177.535,191.200,177.072"/>
<path class="path-17" d="M191.200,177.072C194.189,176.651,207.459,174.478,208.989,174.708"/>
<path class="path-18" d="M208.989,174.708C209.725,174.854,210.707,178.146,210.443,179.869C210.009,182.706,188.208,189.646,181.727,187.931C177.893,186.917,171.434,185.235,172.140,179.097C172.460,176.317,187.911,177.535,191.200,177.072C194.189,176.651,207.459,174.478,208.989,174.708Z"/>
<path class="path-17" d="M140.004,174.778C139.993,175.153,143.086,175.231,143.309,175.422"/>
<path class="path-17" d="M143.309,175.422C144.137,176.134,144.665,179.247,144.892,178.872"/>
<path class="path-17" d="M144.892,178.872C144.468,179.596,140.094,177.987,139.561,176.400"/>
<path class="path-17" d="M139.561,176.400C139.441,176.063,140.018,174.332,140.004,174.778"/>
<path class="path-18" d="M140.004,174.778C139.993,175.153,143.086,175.231,143.309,175.422C144.137,176.134,144.665,179.247,144.892,178.872C144.468,179.596,140.094,177.987,139.561,176.400C139.441,176.063,140.018,174.332,140.004,174.778Z"/>
</g>
</g>
<g id="pupil">
<path class="path-0" d="M175.539,166.153C177.895,165.919,180.517,169.592,180.104,178.122C179.804,184.325,177.905,186.608,176.183,186.572C174.272,186.533,173.014,183.717,172.713,176.826C172.392,169.472,173.509,166.354,175.539,166.153Z" mask="url(#f3906406-f197-4bf1-91d8-744c09cca836)"/>
<path class="path-0" d="M144.480,163.513C146.929,163.386,149.711,167.465,148.721,176.550C148.153,181.753,146.459,183.477,145.055,183.493C143.456,183.511,141.723,181.401,141.105,175.475C140.246,167.234,142.259,163.629,144.480,163.513Z" mask="url(#f3906406-f197-4bf1-91d8-744c09cca836)"/>
</g>
</g>
<g id="hat">
<path class="path-0" d="M297.341,143.653C299.436,144.823,301.610,147.951,301.773,150.629C302.778,157.559,291.391,157.290,287.766,157.246C282.082,156.608,276.322,154.817,271.040,153.415C263.948,152.206,257.118,149.764,250.076,148.293C228.437,141.983,206.623,136.410,184.850,130.602C174.345,128.237,165.012,125.059,153.553,122.671C152.327,122.419,141.004,121.708,138.860,120.710C124.791,114.317,139.100,102.937,138.974,96.117C139.086,94.183,135.508,93.230,136.660,89.917C137.422,87.829,143.872,84.478,146.081,83.938C155.580,81.563,166.069,81.751,176.251,82.960C187.279,84.274,196.862,87.480,207.588,90.342C232.323,96.954,274.140,110.030,303.716,128.735C312.449,134.249,293.160,128.941,291.297,128.780C275.044,127.081,210.015,100.912,245.101,118.744C258.876,125.886,285.042,136.183,297.341,143.653M194.786,74.567C182.903,71.834,171.994,69.368,160.425,69.962C156.248,70.166,150.898,70.317,147.545,70.809C140.622,71.832,155.362,53.783,159.256,50.598C177.594,35.969,207.136,28.579,231.261,33.668C278.745,43.686,294.791,59.354,304.873,79.878C308.209,86.074,316.117,113.397,305.377,117.904C301.941,119.089,296.689,115.430,294.247,113.572C285.450,107.171,215.056,79.229,194.786,74.567M299.650,50.110C283.998,38.473,263.563,27.329,236.767,24.030C206.782,20.366,172.617,24.520,149.785,47.667C142.782,54.928,139.049,63.531,134.230,71.586C131.276,76.474,126.410,79.205,125.143,84.707C123.622,92.242,127.862,94.893,127.668,101.220C127.644,108.426,122.977,109.904,122.607,114.524C120.444,126.708,131.522,131.481,141.408,134.154C145.685,135.312,161.971,137.136,170.754,138.600C180.683,140.255,193.909,142.570,203.765,144.617C215.056,146.963,229.932,150.899,241.195,153.381C251.702,155.696,265.668,159.103,276.316,160.646C284.532,161.836,302.703,163.772,303.884,163.045C305.613,162.002,312.711,149.646,313.568,147.161C315.003,143.001,313.639,138.003,316.270,131.398C319.974,121.449,323.901,113.063,323.972,101.592C323.918,80.662,312.180,59.453,299.650,50.110Z"/>
<path class="path-19" d="M207.588,90.342C232.323,96.954,274.140,110.030,303.716,128.735"/>
<path class="path-19" d="M303.716,128.735C312.449,134.249,293.160,128.941,291.297,128.780"/>
<path class="path-19" d="M291.297,128.780C275.044,127.081,210.015,100.912,245.101,118.744"/>
<path class="path-19" d="M245.101,118.744C258.876,125.886,285.042,136.183,297.341,143.653"/>
<path class="path-19" d="M297.341,143.653C299.436,144.823,301.610,147.951,301.773,150.629"/>
<path class="path-19" d="M301.773,150.629C302.778,157.559,291.391,157.290,287.766,157.246"/>
<path class="path-19" d="M287.766,157.246C282.082,156.608,276.322,154.817,271.040,153.415"/>
<path class="path-19" d="M271.040,153.415C263.948,152.206,257.118,149.764,250.076,148.293"/>
<path class="path-19" d="M250.076,148.293C228.437,141.983,206.623,136.410,184.850,130.602"/>
<path class="path-19" d="M184.850,130.602C174.345,128.237,165.012,125.059,153.553,122.671"/>
<path class="path-19" d="M153.553,122.671C152.327,122.419,141.004,121.708,138.860,120.710"/>
<path class="path-19" d="M138.860,120.710C124.791,114.317,139.100,102.937,138.974,96.117"/>
<path class="path-19" d="M138.974,96.117C139.086,94.183,135.508,93.230,136.660,89.917"/>
<path class="path-19" d="M136.660,89.917C137.422,87.829,143.872,84.478,146.081,83.938"/>
<path class="path-19" d="M146.081,83.938C155.580,81.563,166.069,81.751,176.251,82.960"/>
<path class="path-19" d="M176.251,82.960C187.279,84.274,196.862,87.480,207.588,90.342"/>
<path class="path-20" d="M207.588,90.342C232.323,96.954,274.140,110.030,303.716,128.735C312.449,134.249,293.160,128.941,291.297,128.780C275.044,127.081,210.015,100.912,245.101,118.744C258.876,125.886,285.042,136.183,297.341,143.653C299.436,144.823,301.610,147.951,301.773,150.629C302.778,157.559,291.391,157.290,287.766,157.246C282.082,156.608,276.322,154.817,271.040,153.415C263.948,152.206,257.118,149.764,250.076,148.293C228.437,141.983,206.623,136.410,184.850,130.602C174.345,128.237,165.012,125.059,153.553,122.671C152.327,122.419,141.004,121.708,138.860,120.710C124.791,114.317,139.100,102.937,138.974,96.117C139.086,94.183,135.508,93.230,136.660,89.917C137.422,87.829,143.872,84.478,146.081,83.938C155.580,81.563,166.069,81.751,176.251,82.960C187.279,84.274,196.862,87.480,207.588,90.342Z"/>
<path class="path-9" d="M231.261,33.668C278.745,43.686,294.791,59.354,304.873,79.878"/>
<path class="path-9" d="M304.873,79.878C308.209,86.074,316.117,113.397,305.377,117.904"/>
<path class="path-9" d="M305.377,117.904C301.941,119.089,296.689,115.430,294.247,113.572"/>
<path class="path-9" d="M294.247,113.572C285.450,107.171,215.056,79.229,194.786,74.567"/>
<path class="path-9" d="M194.786,74.567C182.903,71.834,171.994,69.368,160.425,69.962"/>
<path class="path-9" d="M160.425,69.962C156.248,70.166,150.898,70.317,147.545,70.809"/>
<path class="path-9" d="M147.545,70.809C140.622,71.832,155.362,53.783,159.256,50.598"/>
<path class="path-9" d="M159.256,50.598C177.594,35.969,207.136,28.579,231.261,33.668"/>
<path class="path-10" d="M231.261,33.668C278.745,43.686,294.791,59.354,304.873,79.878C308.209,86.074,316.117,113.397,305.377,117.904C301.941,119.089,296.689,115.430,294.247,113.572C285.450,107.171,215.056,79.229,194.786,74.567C182.903,71.834,171.994,69.368,160.425,69.962C156.248,70.166,150.898,70.317,147.545,70.809C140.622,71.832,155.362,53.783,159.256,50.598C177.594,35.969,207.136,28.579,231.261,33.668Z"/>
</g>
<g id="left_ear">
<path class="path-0" d="M250.070,183.428C250.636,181.000,253.915,172.902,255.711,170.833C264.389,160.073,282.817,156.859,288.694,165.924C295.386,176.728,278.777,198.188,266.565,201.706C253.227,205.329,247.703,195.173,250.070,183.428M303.187,171.392C302.415,159.325,294.728,149.007,277.933,150.902C260.450,152.874,255.742,176.181,252.720,190.395C252.134,193.561,251.663,197.041,252.257,200.046C254.277,211.198,263.453,216.309,274.212,209.341C285.984,201.546,303.690,186.386,303.187,171.392Z"/>
<path class="path-15" d="M255.711,170.833C264.389,160.073,282.817,156.859,288.694,165.924"/>
<path class="path-15" d="M288.694,165.924C295.386,176.728,278.777,198.188,266.565,201.706"/>
<path class="path-15" d="M266.565,201.706C253.227,205.329,247.703,195.173,250.070,183.428"/>
<path class="path-15" d="M250.070,183.428C250.636,181.000,253.915,172.902,255.711,170.833"/>
<path class="path-16" d="M255.711,170.833C264.389,160.073,282.817,156.859,288.694,165.924C295.386,176.728,278.777,198.188,266.565,201.706C253.227,205.329,247.703,195.173,250.070,183.428C250.636,181.000,253.915,172.902,255.711,170.833Z"/>
</g>
<g id="earrings">
<path class="path-0" d="M275.015,214.827C265.269,218.127,266.885,199.906,270.121,200.626C274.517,202.770,284.152,216.415,275.015,214.827M285.975,208.701C279.331,208.323,277.386,198.957,277.322,195.109C284.579,197.658,293.283,204.340,285.975,208.701M297.067,206.941C295.646,198.517,283.994,192.372,276.701,187.862C273.987,186.183,264.194,194.955,263.345,198.203C261.651,202.147,261.386,224.864,275.768,223.847C281.649,223.170,298.210,213.710,297.067,206.941Z"/>
<path class="path-21" d="M277.322,195.109C284.579,197.658,293.283,204.340,285.975,208.701"/>
<path class="path-21" d="M285.975,208.701C279.331,208.323,277.386,198.957,277.322,195.109"/>
<path class="path-22" d="M277.322,195.109C284.579,197.658,293.283,204.340,285.975,208.701C279.331,208.323,277.386,198.957,277.322,195.109Z"/>
<path class="path-21" d="M270.121,200.626C274.517,202.770,284.152,216.415,275.015,214.827"/>
<path class="path-21" d="M275.015,214.827C265.269,218.127,266.885,199.906,270.121,200.626"/>
<path class="path-22" d="M270.121,200.626C274.517,202.770,284.152,216.415,275.015,214.827C265.269,218.127,266.885,199.906,270.121,200.626Z"/>
</g>
</g>
<g id="jacket">
<path class="path-0" d="M215.558,269.040C217.840,273.511,214.386,283.462,213.972,288.046C210.467,304.726,206.175,320.577,204.462,337.137C204.200,340.726,202.370,346.946,199.893,350.320C197.756,353.231,193.407,356.573,190.289,357.575C186.574,358.709,184.815,352.231,183.905,349.247C182.815,345.670,184.387,339.043,184.866,336.689C186.221,331.655,190.069,322.169,191.232,315.699C192.382,309.567,191.506,303.073,192.016,296.212C191.987,290.850,190.708,284.542,190.098,278.593C190.394,275.497,191.074,273.619,191.317,271.435C191.419,266.027,194.128,264.883,199.312,264.829C204.207,265.126,214.305,263.535,215.558,269.040M270.949,283.714C272.773,280.217,299.351,264.816,302.759,263.326C311.452,260.007,314.986,269.738,314.512,275.196C313.869,283.907,297.113,311.465,298.146,317.650C298.438,320.367,300.251,321.946,301.713,323.778C313.343,339.904,308.525,329.863,321.703,338.038C327.036,341.408,337.030,350.377,340.738,355.328C343.068,358.858,347.080,367.509,347.475,371.456C347.497,373.302,347.190,376.493,344.482,376.398C343.100,376.519,330.280,370.739,327.964,370.191C317.068,366.979,304.791,366.395,296.563,357.377C293.398,353.508,291.391,348.189,288.896,343.448C282.496,331.758,277.206,319.661,273.721,306.742C271.807,300.680,268.495,289.940,270.949,283.714M288.987,259.897C285.851,262.819,279.560,267.360,277.369,268.212C269.222,270.886,268.492,261.121,268.310,255.103C268.339,249.985,271.416,242.842,274.637,238.648C277.418,235.027,281.886,230.062,286.876,229.602C293.423,228.764,303.859,236.445,302.093,243.746C301.511,247.049,293.552,255.643,288.987,259.897M207.974,232.134C212.747,236.353,216.482,241.123,215.287,245.549C214.185,249.633,210.841,251.440,203.606,253.419C192.035,256.584,183.582,239.226,187.471,232.253C190.467,226.882,201.811,226.687,207.974,232.134M354.333,384.335C354.302,375.555,358.929,369.293,355.895,360.643C352.384,350.940,343.304,342.101,335.177,335.825C325.276,328.580,316.340,329.707,310.310,317.201C305.345,307.343,310.537,297.442,312.746,287.082C313.376,283.357,314.929,264.192,315.193,260.754C314.926,257.208,315.587,253.677,315.230,250.424C314.920,246.436,315.574,242.240,314.417,238.412C312.768,231.568,305.981,228.054,300.819,224.340C293.820,219.908,287.653,217.475,279.310,218.949C270.291,220.553,266.996,230.553,264.196,237.050C259.834,247.172,261.267,262.623,260.857,273.636C260.624,279.923,260.706,288.696,261.090,294.606C262.108,315.328,280.589,359.100,298.379,370.041C301.919,372.547,327.104,380.203,334.521,383.716C339.478,386.095,340.878,388.791,344.370,392.839C345.810,394.645,349.828,398.930,352.551,397.778C356.165,396.387,354.343,387.171,354.333,384.335M221.955,232.778C218.733,226.823,213.417,217.038,206.516,216.318C200.142,215.860,190.374,216.471,184.411,219.528C180.874,221.341,175.442,224.763,174.902,228.752C173.962,234.678,176.359,241.875,179.223,246.571C180.933,249.375,185.262,251.450,187.278,253.984C188.301,255.344,191.970,262.780,192.566,264.804C195.850,274.913,191.366,286.483,189.204,295.487C187.317,303.350,181.959,312.950,179.741,320.726C177.443,328.783,175.129,339.019,174.292,348.115C173.943,350.498,174.557,355.830,174.941,359.113C175.311,362.267,175.216,368.112,176.772,369.539C177.690,370.381,188.899,372.530,193.812,371.049C198.022,369.779,201.655,370.666,205.374,362.041C209.968,350.661,212.374,339.794,213.947,327.482C216.084,306.418,225.150,278.287,225.332,265.271C225.415,259.331,226.680,255.435,225.764,247.122C225.273,243.633,224.074,236.693,221.955,232.778Z"/>
<path class="path-1" d="M302.759,263.326C311.452,260.007,314.986,269.738,314.512,275.196"/>
<path class="path-1" d="M314.512,275.196C313.869,283.907,297.113,311.465,298.146,317.650"/>
<path class="path-1" d="M298.146,317.650C298.438,320.367,300.251,321.946,301.713,323.778"/>
<path class="path-1" d="M301.713,323.778C313.343,339.904,308.525,329.863,321.703,338.038"/>
<path class="path-1" d="M321.703,338.038C327.036,341.408,337.030,350.377,340.738,355.328"/>
<path class="path-1" d="M340.738,355.328C343.068,358.858,347.080,367.509,347.475,371.456"/>
<path class="path-1" d="M347.475,371.456C347.497,373.302,347.190,376.493,344.482,376.398"/>
<path class="path-1" d="M344.482,376.398C343.100,376.519,330.280,370.739,327.964,370.191"/>
<path class="path-1" d="M327.964,370.191C317.068,366.979,304.791,366.395,296.563,357.377"/>
<path class="path-1" d="M296.563,357.377C293.398,353.508,291.391,348.189,288.896,343.448"/>
<path class="path-1" d="M288.896,343.448C282.496,331.758,277.206,319.661,273.721,306.742"/>
<path class="path-1" d="M273.721,306.742C271.807,300.680,268.495,289.940,270.949,283.714"/>
<path class="path-1" d="M270.949,283.714C272.773,280.217,299.351,264.816,302.759,263.326"/>
<path class="path-2" d="M302.759,263.326C311.452,260.007,314.986,269.738,314.512,275.196C313.869,283.907,297.113,311.465,298.146,317.650C298.438,320.367,300.251,321.946,301.713,323.778C313.343,339.904,308.525,329.863,321.703,338.038C327.036,341.408,337.030,350.377,340.738,355.328C343.068,358.858,347.080,367.509,347.475,371.456C347.497,373.302,347.190,376.493,344.482,376.398C343.100,376.519,330.280,370.739,327.964,370.191C317.068,366.979,304.791,366.395,296.563,357.377C293.398,353.508,291.391,348.189,288.896,343.448C282.496,331.758,277.206,319.661,273.721,306.742C271.807,300.680,268.495,289.940,270.949,283.714C272.773,280.217,299.351,264.816,302.759,263.326Z"/>
<path class="path-1" d="M199.312,264.829C204.207,265.126,214.305,263.535,215.558,269.040"/>
<path class="path-1" d="M215.558,269.040C217.840,273.511,214.386,283.462,213.972,288.046"/>
<path class="path-1" d="M213.972,288.046C210.467,304.726,206.175,320.577,204.462,337.137"/>
<path class="path-1" d="M204.462,337.137C204.200,340.726,202.370,346.946,199.893,350.320"/>
<path class="path-1" d="M199.893,350.320C197.756,353.231,193.407,356.573,190.289,357.575"/>
<path class="path-1" d="M190.289,357.575C186.574,358.709,184.815,352.231,183.905,349.247"/>
<path class="path-1" d="M183.905,349.247C182.815,345.670,184.387,339.043,184.866,336.689"/>
<path class="path-1" d="M184.866,336.689C186.221,331.655,190.069,322.169,191.232,315.699"/>
<path class="path-1" d="M191.232,315.699C192.382,309.567,191.506,303.073,192.016,296.212"/>
<path class="path-1" d="M192.016,296.212C191.987,290.850,190.708,284.542,190.098,278.593"/>
<path class="path-1" d="M190.098,278.593C190.394,275.497,191.074,273.619,191.317,271.435"/>
<path class="path-1" d="M191.317,271.435C191.419,266.027,194.128,264.883,199.312,264.829"/>
<path class="path-2" d="M199.312,264.829C204.207,265.126,214.305,263.535,215.558,269.040C217.840,273.511,214.386,283.462,213.972,288.046C210.467,304.726,206.175,320.577,204.462,337.137C204.200,340.726,202.370,346.946,199.893,350.320C197.756,353.231,193.407,356.573,190.289,357.575C186.574,358.709,184.815,352.231,183.905,349.247C182.815,345.670,184.387,339.043,184.866,336.689C186.221,331.655,190.069,322.169,191.232,315.699C192.382,309.567,191.506,303.073,192.016,296.212C191.987,290.850,190.708,284.542,190.098,278.593C190.394,275.497,191.074,273.619,191.317,271.435C191.419,266.027,194.128,264.883,199.312,264.829Z"/>
<path class="path-1" d="M286.876,229.602C293.423,228.764,303.859,236.445,302.093,243.746"/>
<path class="path-1" d="M302.093,243.746C301.511,247.049,293.552,255.643,288.987,259.897"/>
<path class="path-1" d="M288.987,259.897C285.851,262.819,279.560,267.360,277.369,268.212"/>
<path class="path-1" d="M277.369,268.212C269.222,270.886,268.492,261.121,268.310,255.103"/>
<path class="path-1" d="M268.310,255.103C268.339,249.985,271.416,242.842,274.637,238.648"/>
<path class="path-1" d="M274.637,238.648C277.418,235.027,281.886,230.062,286.876,229.602"/>
<path class="path-2" d="M286.876,229.602C293.423,228.764,303.859,236.445,302.093,243.746C301.511,247.049,293.552,255.643,288.987,259.897C285.851,262.819,279.560,267.360,277.369,268.212C269.222,270.886,268.492,261.121,268.310,255.103C268.339,249.985,271.416,242.842,274.637,238.648C277.418,235.027,281.886,230.062,286.876,229.602Z"/>
<path class="path-1" d="M207.974,232.134C212.747,236.353,216.482,241.123,215.287,245.549"/>
<path class="path-1" d="M215.287,245.549C214.185,249.633,210.841,251.440,203.606,253.419"/>
<path class="path-1" d="M203.606,253.419C192.035,256.584,183.582,239.226,187.471,232.253"/>
<path class="path-1" d="M187.471,232.253C190.467,226.882,201.811,226.687,207.974,232.134"/>
<path class="path-2" d="M207.974,232.134C212.747,236.353,216.482,241.123,215.287,245.549C214.185,249.633,210.841,251.440,203.606,253.419C192.035,256.584,183.582,239.226,187.471,232.253C190.467,226.882,201.811,226.687,207.974,232.134Z"/>
</g>
<g id="left_arm">
<path class="path-0" d="M308.930,458.943C305.953,453.453,305.223,444.467,312.961,442.621C318.362,441.288,341.903,447.947,345.646,452.154C352.236,458.854,347.399,473.193,338.592,476.004C328.435,478.743,313.730,467.573,308.930,458.943M293.389,281.468C293.775,278.175,300.620,266.854,305.764,267.204C308.752,267.407,310.892,272.144,312.279,274.626C316.161,282.447,320.329,290.500,323.699,298.799C333.023,321.149,340.574,343.826,345.598,367.102C347.349,376.403,346.020,388.787,348.859,397.286C352.281,407.142,358.772,404.199,361.389,410.678C362.544,413.745,361.552,419.354,363.274,424.119C365.838,431.600,371.252,435.914,373.638,440.718C375.145,443.471,375.634,446.494,371.943,446.953C369.893,447.836,364.630,446.551,362.636,446.440C356.085,444.300,349.537,442.156,342.997,439.997C334.146,437.487,307.006,434.530,302.707,428.282C296.271,418.569,307.863,408.237,309.739,399.008C310.558,396.127,316.662,353.384,315.884,350.546C314.855,344.032,309.962,338.999,307.448,332.537C304.452,323.596,301.365,314.018,298.599,304.640C296.407,296.642,291.939,290.432,293.389,281.468M315.823,255.914C312.821,251.658,304.332,244.538,298.612,246.754C293.879,248.821,294.123,254.842,294.065,258.889C293.924,269.007,293.203,277.530,294.655,287.068C295.376,294.025,297.018,300.166,298.645,306.652C300.524,315.157,301.574,331.933,302.704,341.801C303.485,351.235,305.868,361.018,305.083,369.168C302.834,388.233,292.455,405.650,292.005,424.754C291.456,434.304,294.090,434.431,295.904,442.193C297.239,448.263,295.521,454.502,297.516,460.283C302.625,475.577,319.104,490.199,336.236,487.865C352.019,485.784,353.671,468.884,362.494,460.399C370.266,452.853,384.648,457.689,387.124,449.501C389.522,442.642,380.334,434.445,376.992,428.916C370.271,418.529,376.054,416.534,372.852,408.685C370.528,402.885,363.188,397.455,359.960,389.938C358.158,386.499,357.563,380.119,356.439,375.731C354.084,364.819,352.255,352.331,349.825,340.943C347.374,328.176,344.143,317.147,338.715,304.590C334.487,294.464,321.681,263.434,315.823,255.914Z"/>
<path class="path-1" d="M305.764,267.204C308.752,267.407,310.892,272.144,312.279,274.626"/>
<path class="path-1" d="M312.279,274.626C316.161,282.447,320.329,290.500,323.699,298.799"/>
<path class="path-1" d="M323.699,298.799C333.023,321.149,340.574,343.826,345.598,367.102"/>
<path class="path-1" d="M345.598,367.102C347.349,376.403,346.020,388.787,348.859,397.286"/>
<path class="path-1" d="M348.859,397.286C352.281,407.142,358.772,404.199,361.389,410.678"/>
<path class="path-1" d="M361.389,410.678C362.544,413.745,361.552,419.354,363.274,424.119"/>
<path class="path-1" d="M363.274,424.119C365.838,431.600,371.252,435.914,373.638,440.718"/>
<path class="path-1" d="M373.638,440.718C375.145,443.471,375.634,446.494,371.943,446.953"/>
<path class="path-1" d="M371.943,446.953C369.893,447.836,364.630,446.551,362.636,446.440"/>
<path class="path-1" d="M362.636,446.440C356.085,444.300,349.537,442.156,342.997,439.997"/>
<path class="path-1" d="M342.997,439.997C334.146,437.487,307.006,434.530,302.707,428.282"/>
<path class="path-1" d="M302.707,428.282C296.271,418.569,307.863,408.237,309.739,399.008"/>
<path class="path-1" d="M309.739,399.008C310.558,396.127,316.662,353.384,315.884,350.546"/>
<path class="path-1" d="M315.884,350.546C314.855,344.032,309.962,338.999,307.448,332.537"/>
<path class="path-1" d="M307.448,332.537C304.452,323.596,301.365,314.018,298.599,304.640"/>
<path class="path-1" d="M298.599,304.640C296.407,296.642,291.939,290.432,293.389,281.468"/>
<path class="path-1" d="M293.389,281.468C293.775,278.175,300.620,266.854,305.764,267.204"/>
<path class="path-2" d="M305.764,267.204C308.752,267.407,310.892,272.144,312.279,274.626C316.161,282.447,320.329,290.500,323.699,298.799C333.023,321.149,340.574,343.826,345.598,367.102C347.349,376.403,346.020,388.787,348.859,397.286C352.281,407.142,358.772,404.199,361.389,410.678C362.544,413.745,361.552,419.354,363.274,424.119C365.838,431.600,371.252,435.914,373.638,440.718C375.145,443.471,375.634,446.494,371.943,446.953C369.893,447.836,364.630,446.551,362.636,446.440C356.085,444.300,349.537,442.156,342.997,439.997C334.146,437.487,307.006,434.530,302.707,428.282C296.271,418.569,307.863,408.237,309.739,399.008C310.558,396.127,316.662,353.384,315.884,350.546C314.855,344.032,309.962,338.999,307.448,332.537C304.452,323.596,301.365,314.018,298.599,304.640C296.407,296.642,291.939,290.432,293.389,281.468C293.775,278.175,300.620,266.854,305.764,267.204Z"/>
<path class="path-15" d="M312.961,442.621C318.362,441.288,341.903,447.947,345.646,452.154"/>
<path class="path-15" d="M345.646,452.154C352.236,458.854,347.399,473.193,338.592,476.004"/>
<path class="path-15" d="M338.592,476.004C328.435,478.743,313.730,467.573,308.930,458.943"/>
<path class="path-15" d="M308.930,458.943C305.953,453.453,305.223,444.467,312.961,442.621"/>
<path class="path-16" d="M312.961,442.621C318.362,441.288,341.903,447.947,345.646,452.154C352.236,458.854,347.399,473.193,338.592,476.004C328.435,478.743,313.730,467.573,308.930,458.943C305.953,453.453,305.223,444.467,312.961,442.621Z"/>
</g>
<g id="bone">
<g id="bone1_clothes">
<path class="path-23" d="M232.054,386.033C232.056,386.028,247.273,329.036,247.274,329.030C247.274,329.036,243.033,387.872,243.033,387.878C243.032,387.878,232.055,386.034,232.054,386.033"/>
</g>
<g id="bone2_clothes">
<path class="path-23" d="M240.457,328.445C240.457,328.437,245.449,256.083,245.449,256.076C245.450,256.083,254.220,328.077,254.221,328.084C254.220,328.084,240.458,328.445,240.457,328.445"/>
</g>
<g id="bone3_neck">
<path class="path-23" d="M248.684,254.252C248.682,254.248,236.583,214.342,236.581,214.338C236.582,214.342,242.238,255.657,242.239,255.661C242.239,255.661,248.683,254.252,248.684,254.252"/>
</g>
<g id="bone4_head">
<path class="path-23" d="M230.574,214.454C230.575,214.447,234.723,136.493,234.723,136.485C234.724,136.493,243.034,214.113,243.035,214.120C243.034,214.120,230.576,214.454,230.574,214.454"/>
</g>
<g id="bone5_left_arm">
<path class="path-23" d="M309.070,259.103C309.072,259.112,330.637,349.029,330.639,349.038C330.635,349.030,294.103,264.085,294.100,264.077C294.101,264.076,309.068,259.104,309.070,259.103"/>
</g>
<g id="bone6_left_arm">
<path class="path-23" d="M325.353,349.546C325.353,349.552,334.109,412.684,334.110,412.691C334.110,412.684,335.778,348.969,335.778,348.963C335.777,348.963,325.354,349.545,325.353,349.546"/>
</g>
<g id="bone7_right_arm">
<path class="path-23" d="M179.597,267.801C179.594,267.812,154.695,380.596,154.693,380.607C154.697,380.597,197.079,273.155,197.083,273.144C197.081,273.143,179.599,267.802,179.597,267.801"/>
</g>
<g id="bone8_right_arm">
<path class="path-23" d="M159.558,376.515C159.560,376.521,179.339,432.661,179.341,432.667C179.338,432.662,148.685,381.639,148.682,381.634C148.683,381.634,159.557,376.516,159.558,376.515"/>
</g>
<g id="bone9_left_leg">
<path class="path-23" d="M269.678,384.280C269.681,384.290,297.212,486.114,297.214,486.124C297.210,486.114,252.450,390.610,252.445,390.600C252.447,390.600,269.676,384.280,269.678,384.280"/>
</g>
<g id="bone10_right_leg">
<path class="path-23" d="M207.438,385.610C207.438,385.621,204.192,488.829,204.192,488.839C204.194,488.829,222.855,387.270,222.857,387.260C222.855,387.260,207.439,385.611,207.438,385.610"/>
</g>
<g id="bone11_hair">
<path class="path-23" d="M242.411,157.779C242.412,157.787,255.229,236.940,255.230,236.948C255.228,236.941,228.141,161.470,228.138,161.463C228.140,161.462,242.409,157.780,242.411,157.779"/>
</g>
<g id="bone12_left_leg_S">
<path class="path-23" d="M435.274,222.254C435.281,222.255,507.506,226.408,507.513,226.408C507.506,226.406,436.945,210.443,436.938,210.442C436.938,210.443,435.274,222.253,435.274,222.254"/>
</g>
<g id="bone13_right_leg_S">
<path class="path-23" d="M495.162,210.804C495.155,210.806,425.339,229.762,425.332,229.764C425.339,229.763,497.321,222.535,497.329,222.535C497.328,222.533,495.163,210.805,495.162,210.804"/>
</g>
<g id="bone14_left_arm_S">
<path class="path-23" d="M557.484,215.617C557.483,215.609,547.199,144.000,547.198,143.993C547.198,144.000,545.577,216.326,545.576,216.333C545.578,216.333,557.483,215.617,557.484,215.617"/>
</g>
<g id="bone15_jacket_S">
<path class="path-23" d="M610.318,217.333C610.319,217.326,620.864,145.754,620.865,145.747C620.863,145.754,598.702,214.620,598.700,214.627C598.701,214.627,610.317,217.333,610.318,217.333"/>
</g>
<g id="bone16_pupils_S">
<path class="path-23" d="M442.221,337.675C442.220,337.668,440.191,265.352,440.190,265.345C440.189,265.352,430.310,337.019,430.309,337.026C430.310,337.026,442.219,337.675,442.221,337.675"/>
</g>
<g id="bone17_eyelids_S">
<path class="path-23" d="M500.070,332.715C500.064,332.711,439.256,293.519,439.250,293.515C439.255,293.520,492.798,342.170,492.803,342.175C492.804,342.174,500.070,332.716,500.070,332.715"/>
</g>
<g id="bone18_face_S">
<path class="path-23" d="M553.156,344.355C553.163,344.352,622.432,323.485,622.439,323.483C622.432,323.484,550.675,332.687,550.668,332.688C550.668,332.689,553.155,344.353,553.156,344.355"/>
</g>
</g>
</g>
<style>
.path-0{fill:#000000;fill-rule:evenodd;stroke:none;}
.path-1{fill:none;stroke:#a60d3f;stroke-width:1;stroke-linecap:butt;stroke-linejoin:round;}
.path-2{fill:#a60d3f;fill-rule:evenodd;stroke:none;}
.path-3{fill:none;stroke:#d88e4b;stroke-width:1;stroke-linecap:butt;stroke-linejoin:round;}
.path-4{fill:#d88e4b;fill-rule:evenodd;stroke:none;}
.path-5{fill:none;stroke:#6e2353;stroke-width:1;stroke-linecap:butt;stroke-linejoin:round;}
.path-6{fill:#6e2353;fill-rule:evenodd;stroke:none;}
.path-7{fill:none;stroke:#392966;stroke-width:1;stroke-linecap:butt;stroke-linejoin:round;}
.path-8{fill:#392966;fill-rule:evenodd;stroke:none;}
.path-9{fill:none;stroke:#cc9bc5;stroke-width:1;stroke-linecap:butt;stroke-linejoin:round;}
.path-10{fill:#cc9bc5;fill-rule:evenodd;stroke:none;}
.path-11{fill:none;stroke:#620527;stroke-width:1;stroke-linecap:butt;stroke-linejoin:round;}
.path-12{fill:#620527;fill-rule:evenodd;stroke:none;}
.path-13{fill:none;stroke:#6a3661;stroke-width:1;stroke-linecap:butt;stroke-linejoin:round;}
.path-14{fill:#6a3661;fill-rule:evenodd;stroke:none;}
.path-15{fill:none;stroke:#f8a087;stroke-width:1;stroke-linecap:butt;stroke-linejoin:round;}
.path-16{fill:#f8a087;fill-rule:evenodd;stroke:none;}
.path-17{fill:none;stroke:#ffffff;stroke-width:1;stroke-linecap:butt;stroke-linejoin:round;}
.path-18{fill:#ffffff;fill-rule:evenodd;stroke:none;}
.path-19{fill:none;stroke:#d89f4a;stroke-width:1;stroke-linecap:butt;stroke-linejoin:round;}
.path-20{fill:#d89f4a;fill-rule:evenodd;stroke:none;}
.path-21{fill:none;stroke:#fafd5b;stroke-width:1;stroke-linecap:butt;stroke-linejoin:round;}
.path-22{fill:#fafd5b;fill-rule:evenodd;stroke:none;}
.path-23{fill:none;stroke:#00ff42;stroke-width:8;stroke-linecap:round;stroke-linejoin:round;}
.path-24{fill:none;stroke:#000000;stroke-width:1;stroke-linecap:butt;stroke-linejoin:round;}
.path-25{fill:none;stroke:#ececec;stroke-width:1;stroke-linecap:butt;stroke-linejoin:round;}
.path-26{fill:#ececec;fill-rule:evenodd;stroke:none;}
.path-27{fill:none;stroke:#808080;stroke-width:1;stroke-linecap:butt;stroke-linejoin:round;}
.path-28{fill:#808080;fill-rule:evenodd;stroke:none;}
.path-29{fill:none;stroke:#282828;stroke-width:1;stroke-linecap:butt;stroke-linejoin:round;}
.path-30{fill:#282828;fill-rule:evenodd;stroke:none;}
</style>
</svg>
