<svg version="1.1" id="Frame_176" xmlns="http://www.w3.org/2000/svg" xmlns:xlink="http://www.w3.org/1999/xlink" width="480px" height="720px">
<g id="main_bone">
<g id="right_arm">
<path class="path-0" d="M174.126,270.172C175.458,267.511,178.075,262.017,181.778,260.525C188.182,257.943,193.652,263.933,194.431,268.509C196.093,276.447,190.936,287.396,188.470,295.289C182.390,314.329,175.637,333.084,171.132,352.015C170.600,355.317,165.808,376.634,165.808,373.973C165.476,380.626,172.130,386.283,174.459,391.939C177.454,399.590,174.791,406.910,172.795,413.897C168.138,428.535,168.471,433.858,167.804,448.165C167.804,450.492,167.473,458.146,163.812,458.146C160.487,458.146,160.153,452.157,159.488,449.828C159.155,447.167,156.825,441.510,157.492,439.182C157.823,435.190,162.483,436.188,157.492,427.870C151.170,417.555,139.526,409.240,136.532,395.931C134.536,385.285,140.191,375.969,143.186,365.988C149.508,344.695,156.494,323.404,163.812,302.111C167.805,291.132,168.802,281.484,174.126,270.172M193.754,262.188C193.755,253.538,190.761,245.885,180.115,249.546C163.481,255.200,158.822,281.484,154.165,296.122C147.512,316.084,141.855,336.046,136.199,356.007C133.870,364.657,130.544,368.982,129.212,373.973C127.549,379.628,127.881,388.280,128.214,393.935C128.214,411.567,133.869,412.234,140.856,425.874C144.517,433.859,140.525,438.849,142.852,445.835C144.517,450.492,148.176,453.820,150.837,457.813C153.166,461.805,153.499,464.135,155.162,467.793C157.158,472.119,163.481,481.767,169.136,479.771C173.793,478.108,173.793,469.790,174.126,465.797C174.459,459.809,178.119,436.853,179.450,429.866C181.778,418.554,187.435,406.245,185.770,393.935C184.440,384.619,176.122,377.965,176.456,367.985C176.787,362.661,180.115,354.011,181.113,348.023C182.776,338.375,182.776,328.061,184.772,318.081C188.099,300.448,194.421,280.487,193.754,262.188Z"/>
<path class="path-1" d="M181.778,260.525C188.182,257.943,193.652,263.933,194.431,268.509"/>
<path class="path-1" d="M194.431,268.509C196.093,276.447,190.936,287.396,188.470,295.289"/>
<path class="path-1" d="M188.470,295.289C182.390,314.329,175.637,333.084,171.132,352.015"/>
<path class="path-1" d="M171.132,352.015C170.600,355.317,165.808,376.634,165.808,373.973"/>
<path class="path-1" d="M165.808,373.973C165.476,380.626,172.130,386.283,174.459,391.939"/>
<path class="path-1" d="M174.459,391.939C177.454,399.590,174.791,406.910,172.795,413.897"/>
<path class="path-1" d="M172.795,413.897C168.138,428.535,168.471,433.858,167.804,448.165"/>
<path class="path-1" d="M167.804,448.165C167.804,450.492,167.473,458.146,163.812,458.146"/>
<path class="path-1" d="M163.812,458.146C160.487,458.146,160.153,452.157,159.488,449.828"/>
<path class="path-1" d="M159.488,449.828C159.155,447.167,156.825,441.510,157.492,439.182"/>
<path class="path-1" d="M157.492,439.182C157.823,435.190,162.483,436.188,157.492,427.870"/>
<path class="path-1" d="M157.492,427.870C151.170,417.555,139.526,409.240,136.532,395.931"/>
<path class="path-1" d="M136.532,395.931C134.536,385.285,140.191,375.969,143.186,365.988"/>
<path class="path-1" d="M143.186,365.988C149.508,344.695,156.494,323.404,163.812,302.111"/>
<path class="path-1" d="M163.812,302.111C167.805,291.132,168.802,281.484,174.126,270.172"/>
<path class="path-1" d="M174.126,270.172C175.458,267.511,178.075,262.017,181.778,260.525"/>
<path class="path-2" d="M181.778,260.525C188.182,257.943,193.652,263.933,194.431,268.509C196.093,276.447,190.936,287.396,188.470,295.289C182.390,314.329,175.637,333.084,171.132,352.015C170.600,355.317,165.808,376.634,165.808,373.973C165.476,380.626,172.130,386.283,174.459,391.939C177.454,399.590,174.791,406.910,172.795,413.897C168.138,428.535,168.471,433.858,167.804,448.165C167.804,450.492,167.473,458.146,163.812,458.146C160.487,458.146,160.153,452.157,159.488,449.828C159.155,447.167,156.825,441.510,157.492,439.182C157.823,435.190,162.483,436.188,157.492,427.870C151.170,417.555,139.526,409.240,136.532,395.931C134.536,385.285,140.191,375.969,143.186,365.988C149.508,344.695,156.494,323.404,163.812,302.111C167.805,291.132,168.802,281.484,174.126,270.172C175.458,267.511,178.075,262.017,181.778,260.525Z"/>
</g>
<g id="layer_left_leg">
<g id="left_heel">
<path class="path-0" d="M255.746,627.947C248.689,616.382,262.642,597.146,273.961,594.867C291.329,591.181,304.199,617.008,302.037,623.236C298.435,632.642,282.044,632.975,273.459,633.044C268.831,632.929,257.986,631.796,255.746,627.947M302.132,593.769C292.326,584.108,269.852,585.908,258.944,592.084C235.799,604.605,230.800,646.724,264.950,645.585C276.657,645.250,302.463,642.920,309.400,635.660C315.467,630.047,313.532,620.645,311.675,613.143C309.779,607.059,306.744,598.443,302.132,593.769Z"/>
<path class="path-3" d="M273.961,594.867C291.329,591.181,304.199,617.008,302.037,623.236"/>
<path class="path-3" d="M302.037,623.236C298.435,632.642,282.044,632.975,273.459,633.044"/>
<path class="path-3" d="M273.459,633.044C268.831,632.929,257.986,631.796,255.746,627.947"/>
<path class="path-3" d="M255.746,627.947C248.689,616.382,262.642,597.146,273.961,594.867"/>
<path class="path-4" d="M273.961,594.867C291.329,591.181,304.199,617.008,302.037,623.236C298.435,632.642,282.044,632.975,273.459,633.044C268.831,632.929,257.986,631.796,255.746,627.947C248.689,616.382,262.642,597.146,273.961,594.867Z"/>
</g>
<g id="left_leg">
<path class="path-0" d="M238.898,405.789C240.604,401.168,250.098,404.779,253.973,404.581C259.819,404.565,272.976,402.520,277.742,406.099C286.426,412.175,288.617,441.474,289.044,451.661C289.462,483.120,291.330,512.608,292.047,542.980C292.045,549.460,292.000,556.149,292.075,562.503C292.349,567.630,290.663,574.266,294.015,577.758C295.330,579.722,299.981,578.306,300.090,580.494C299.982,588.904,291.996,584.253,287.800,588.518C280.154,595.829,265.985,602.615,256.715,600.094C250.333,598.586,239.592,591.174,237.169,585.175C234.861,579.459,233.328,572.532,232.307,566.573C227.613,539.172,243.405,482.152,236.983,451.547C233.052,432.813,241.634,431.700,249.058,418.850C250.285,416.726,238.396,419.128,236.730,417.280C234.452,415.128,237.683,408.599,238.898,405.789M284.960,397.228C278.682,392.463,261.282,394.513,253.973,394.933C249.961,395.148,237.386,392.156,234.430,393.983C216.601,405.008,223.552,444.790,225.548,461.765C225.791,466.553,224.770,489.415,224.438,495.860C224.640,523.318,218.499,546.789,220.203,574.195C220.574,581.766,220.125,589.260,222.806,596.240C230.000,614.587,247.082,617.729,269.676,616.404C281.529,615.719,307.644,610.378,316.225,588.098C319.641,579.219,314.119,567.216,312.779,564.286C310.577,559.472,307.299,554.787,306.067,549.249C301.503,531.623,308.107,512.878,306.798,494.612C305.147,471.263,304.613,412.210,284.960,397.228Z"/>
<path class="path-7" d="M253.973,404.581C259.819,404.565,272.976,402.520,277.742,406.099"/>
<path class="path-7" d="M277.742,406.099C286.426,412.175,288.617,441.474,289.044,451.661"/>
<path class="path-7" d="M289.044,451.661C289.462,483.120,291.330,512.608,292.047,542.980"/>
<path class="path-7" d="M292.047,542.980C292.045,549.460,292.000,556.149,292.075,562.503"/>
<path class="path-7" d="M292.075,562.503C292.349,567.630,290.663,574.266,294.015,577.758"/>
<path class="path-7" d="M294.015,577.758C295.330,579.722,299.981,578.306,300.090,580.494"/>
<path class="path-7" d="M300.090,580.494C299.982,588.904,291.996,584.253,287.800,588.518"/>
<path class="path-7" d="M287.800,588.518C280.154,595.829,265.985,602.615,256.715,600.094"/>
<path class="path-7" d="M256.715,600.094C250.333,598.586,239.592,591.174,237.169,585.175"/>
<path class="path-7" d="M237.169,585.175C234.861,579.459,233.328,572.532,232.307,566.573"/>
<path class="path-7" d="M232.307,566.573C227.613,539.172,243.405,482.152,236.983,451.547"/>
<path class="path-7" d="M236.983,451.547C233.052,432.813,241.634,431.700,249.058,418.850"/>
<path class="path-7" d="M249.058,418.850C250.285,416.726,238.396,419.128,236.730,417.280"/>
<path class="path-7" d="M236.730,417.280C234.452,415.128,237.683,408.599,238.898,405.789"/>
<path class="path-7" d="M238.898,405.789C240.604,401.168,250.098,404.779,253.973,404.581"/>
<path class="path-8" d="M253.973,404.581C259.819,404.565,272.976,402.520,277.742,406.099C286.426,412.175,288.617,441.474,289.044,451.661C289.462,483.120,291.330,512.608,292.047,542.980C292.045,549.460,292.000,556.149,292.075,562.503C292.349,567.630,290.663,574.266,294.015,577.758C295.330,579.722,299.981,578.306,300.090,580.494C299.982,588.904,291.996,584.253,287.800,588.518C280.154,595.829,265.985,602.615,256.715,600.094C250.333,598.586,239.592,591.174,237.169,585.175C234.861,579.459,233.328,572.532,232.307,566.573C227.613,539.172,243.405,482.152,236.983,451.547C233.052,432.813,241.634,431.700,249.058,418.850C250.285,416.726,238.396,419.128,236.730,417.280C234.452,415.128,237.683,408.599,238.898,405.789C240.604,401.168,250.098,404.779,253.973,404.581Z"/>
</g>
<g id="left_toe">
<path class="path-0" d="M252.237,658.341C225.503,653.486,230.774,618.756,251.068,611.846C271.934,604.883,291.260,616.826,297.245,629.615C300.920,636.305,302.591,643.549,299.025,650.497C291.371,662.784,264.992,660.573,252.237,658.341M313.149,624.583C309.900,610.707,298.414,597.943,287.011,594.157C259.044,584.995,234.607,592.826,225.456,618.049C219.663,632.499,222.859,648.832,232.525,661.037C240.168,670.092,266.618,671.349,277.897,670.341C287.863,668.752,300.298,666.077,307.170,657.635C312.124,651.729,314.815,631.932,313.149,624.583Z"/>
<path class="path-3" d="M251.068,611.846C271.934,604.883,291.260,616.826,297.245,629.615"/>
<path class="path-3" d="M297.245,629.615C300.920,636.305,302.591,643.549,299.025,650.497"/>
<path class="path-3" d="M299.025,650.497C291.371,662.784,264.992,660.573,252.237,658.341"/>
<path class="path-3" d="M252.237,658.341C225.503,653.486,230.774,618.756,251.068,611.846"/>
<path class="path-4" d="M251.068,611.846C271.934,604.883,291.260,616.826,297.245,629.615C300.920,636.305,302.591,643.549,299.025,650.497C291.371,662.784,264.992,660.573,252.237,658.341C225.503,653.486,230.774,618.756,251.068,611.846Z"/>
</g>
<g id="left_sole">
<path class="path-0" d="M256.005,673.307C245.032,672.989,241.820,658.898,240.279,664.093C239.299,667.401,248.444,670.490,252.538,671.646C261.558,674.548,276.799,673.168,285.742,668.832C288.681,667.688,298.089,664.851,298.121,665.101C298.643,669.144,287.447,669.686,283.738,670.131C280.335,670.883,256.904,673.132,256.005,673.307M240.618,664.353C246.016,662.426,256.939,666.702,261.076,667.873C277.471,672.514,287.325,663.356,295.403,662.684C296.155,662.629,298.555,660.864,299.173,662.940C301.313,670.136,269.622,675.815,255.289,671.216C248.257,669.664,238.616,665.067,240.618,664.353M303.865,655.627C300.658,652.922,283.160,660.637,266.051,660.965C257.587,661.154,236.525,649.218,230.843,658.857C229.638,660.910,230.362,668.346,232.080,669.925C243.515,680.777,296.675,677.151,302.891,672.152C304.957,670.490,308.166,659.256,303.865,655.627Z"/>
<path class="path-5" d="M240.279,664.093C239.299,667.401,248.444,670.490,252.538,671.646"/>
<path class="path-5" d="M252.538,671.646C261.558,674.548,276.799,673.168,285.742,668.832"/>
<path class="path-5" d="M285.742,668.832C288.681,667.688,298.089,664.851,298.121,665.101"/>
<path class="path-5" d="M298.121,665.101C298.643,669.144,287.447,669.686,283.738,670.131"/>
<path class="path-5" d="M283.738,670.131C280.335,670.883,256.904,673.132,256.005,673.307"/>
<path class="path-5" d="M256.005,673.307C245.032,672.989,241.820,658.898,240.279,664.093"/>
<path class="path-6" d="M240.279,664.093C239.299,667.401,248.444,670.490,252.538,671.646C261.558,674.548,276.799,673.168,285.742,668.832C288.681,667.688,298.089,664.851,298.121,665.101C298.643,669.144,287.447,669.686,283.738,670.131C280.335,670.883,256.904,673.132,256.005,673.307C245.032,672.989,241.820,658.898,240.279,664.093Z"/>
<path class="path-5" d="M261.076,667.873C277.471,672.514,287.325,663.356,295.403,662.684"/>
<path class="path-5" d="M295.403,662.684C296.155,662.629,298.555,660.864,299.173,662.940"/>
<path class="path-5" d="M299.173,662.940C301.313,670.136,269.622,675.815,255.289,671.216"/>
<path class="path-5" d="M255.289,671.216C248.257,669.664,238.616,665.067,240.618,664.353"/>
<path class="path-5" d="M240.618,664.353C246.016,662.426,256.939,666.702,261.076,667.873"/>
<path class="path-6" d="M261.076,667.873C277.471,672.514,287.325,663.356,295.403,662.684C296.155,662.629,298.555,660.864,299.173,662.940C301.313,670.136,269.622,675.815,255.289,671.216C248.257,669.664,238.616,665.067,240.618,664.353C246.016,662.426,256.939,666.702,261.076,667.873Z"/>
</g>
</g>
<g id="layer_right_leg">
<g id="right_heel">
<path class="path-0" d="M183.480,618.970C184.324,602.622,185.480,589.929,205.429,587.044C214.325,585.595,231.272,588.418,236.165,597.022C238.737,601.294,237.942,607.564,238.185,612.128C238.647,619.563,243.180,633.909,232.703,635.644C232.030,635.823,213.491,636.137,207.705,636.286C200.280,637.169,192.555,637.724,187.185,632.581C184.444,629.377,183.207,622.792,183.480,618.970M245.687,595.312C241.769,584.911,227.480,579.023,217.414,580.489C204.301,582.237,190.878,577.908,182.338,590.181C175.700,599.720,174.935,617.251,176.922,628.378C177.671,633.525,180.915,642.915,185.190,645.766C188.325,647.760,193.170,647.186,196.876,647.190C214.947,647.500,247.218,653.630,246.841,626.667C246.670,619.723,247.734,600.807,245.687,595.312Z"/>
<path class="path-3" d="M205.429,587.044C214.325,585.595,231.272,588.418,236.165,597.022"/>
<path class="path-3" d="M236.165,597.022C238.737,601.294,237.942,607.564,238.185,612.128"/>
<path class="path-3" d="M238.185,612.128C238.647,619.563,243.180,633.909,232.703,635.644"/>
<path class="path-3" d="M232.703,635.644C232.030,635.823,213.491,636.137,207.705,636.286"/>
<path class="path-3" d="M207.705,636.286C200.280,637.169,192.555,637.724,187.185,632.581"/>
<path class="path-3" d="M187.185,632.581C184.444,629.377,183.207,622.792,183.480,618.970"/>
<path class="path-3" d="M183.480,618.970C184.324,602.622,185.480,589.929,205.429,587.044"/>
<path class="path-4" d="M205.429,587.044C214.325,585.595,231.272,588.418,236.165,597.022C238.737,601.294,237.942,607.564,238.185,612.128C238.647,619.563,243.180,633.909,232.703,635.644C232.030,635.823,213.491,636.137,207.705,636.286C200.280,637.169,192.555,637.724,187.185,632.581C184.444,629.377,183.207,622.792,183.480,618.970C184.324,602.622,185.480,589.929,205.429,587.044Z"/>
</g>
<g id="right_leg">
<path class="path-0" d="M182.932,404.810C186.579,392.939,202.274,390.130,212.784,393.055C218.617,394.550,228.358,397.416,231.565,402.912C232.988,405.351,233.553,409.893,232.095,412.312C229.607,416.439,214.185,413.860,217.020,417.856C221.917,424.982,231.872,415.472,236.164,419.313C238.096,421.042,238.261,424.621,238.643,427.593C242.610,449.499,235.626,472.823,235.323,494.418C235.156,501.387,233.363,511.652,234.522,518.008C236.865,533.819,235.021,537.125,235.347,546.607C235.248,550.130,233.348,567.976,234.468,572.570C235.728,577.331,239.001,581.940,239.434,586.871C240.167,595.226,228.071,606.287,220.554,608.544C212.060,610.911,185.904,609.130,177.977,604.755C174.818,603.130,171.002,599.178,169.753,595.582C168.411,592.297,166.747,576.915,167.788,573.206C169.869,566.735,172.359,565.417,174.491,557.749C176.676,548.722,178.976,538.967,178.552,529.472C177.337,510.514,178.342,480.516,180.592,467.041C181.682,459.360,180.126,433.485,181.224,426.375C183.120,414.798,181.098,412.550,182.932,404.810M208.062,381.294C202.406,379.297,198.067,373.933,192.092,375.969C190.277,376.761,187.106,379.025,185.818,380.334C169.845,394.098,171.057,407.924,171.015,427.501C170.707,434.520,170.723,441.817,170.074,448.537C169.422,454.115,167.651,458.699,166.327,463.812C165.521,468.030,164.825,472.544,164.586,477.849C164.477,483.185,165.863,489.453,165.939,498.515C165.307,508.476,165.963,517.887,165.462,527.414C165.339,533.774,162.212,548.485,161.295,553.316C158.993,560.197,155.638,568.125,154.013,574.786C152.393,583.591,153.928,592.912,157.349,600.680C158.950,604.906,161.847,609.942,165.009,612.779C167.076,614.632,169.842,615.757,172.330,616.650C180.311,619.468,187.920,620.797,196.456,621.108C202.261,621.363,207.996,619.821,214.020,620.300C215.040,620.225,223.335,621.940,224.981,622.057C227.901,622.096,232.018,619.534,234.678,617.965C238.166,615.644,244.262,614.881,247.111,611.654C249.495,608.949,250.390,605.213,251.652,601.833C258.759,581.967,252.605,570.815,250.137,552.551C248.770,542.438,246.499,521.622,246.718,510.322C246.703,496.619,249.540,483.393,250.402,469.292C250.766,464.815,251.168,459.444,251.937,454.381C252.611,449.353,251.519,445.282,251.309,440.289C250.917,436.425,251.229,424.035,250.646,419.885C250.273,416.185,250.314,411.567,248.983,407.908C245.324,398.592,231.351,388.280,222.034,385.285C217.377,383.621,212.387,383.290,208.062,381.294Z"/>
<path class="path-7" d="M212.784,393.055C218.617,394.550,228.358,397.416,231.565,402.912"/>
<path class="path-7" d="M231.565,402.912C232.988,405.351,233.553,409.893,232.095,412.312"/>
<path class="path-7" d="M232.095,412.312C229.607,416.439,214.185,413.860,217.020,417.856"/>
<path class="path-7" d="M217.020,417.856C221.917,424.982,231.872,415.472,236.164,419.313"/>
<path class="path-7" d="M236.164,419.313C238.096,421.042,238.261,424.621,238.643,427.593"/>
<path class="path-7" d="M238.643,427.593C242.610,449.499,235.626,472.823,235.323,494.418"/>
<path class="path-7" d="M235.323,494.418C235.156,501.387,233.363,511.652,234.522,518.008"/>
<path class="path-7" d="M234.522,518.008C236.865,533.819,235.021,537.125,235.347,546.607"/>
<path class="path-7" d="M235.347,546.607C235.248,550.130,233.348,567.976,234.468,572.570"/>
<path class="path-7" d="M234.468,572.570C235.728,577.331,239.001,581.940,239.434,586.871"/>
<path class="path-7" d="M239.434,586.871C240.167,595.226,228.071,606.287,220.554,608.544"/>
<path class="path-7" d="M220.554,608.544C212.060,610.911,185.904,609.130,177.977,604.755"/>
<path class="path-7" d="M177.977,604.755C174.818,603.130,171.002,599.178,169.753,595.582"/>
<path class="path-7" d="M169.753,595.582C168.411,592.297,166.747,576.915,167.788,573.206"/>
<path class="path-7" d="M167.788,573.206C169.869,566.735,172.359,565.417,174.491,557.749"/>
<path class="path-7" d="M174.491,557.749C176.676,548.722,178.976,538.967,178.552,529.472"/>
<path class="path-7" d="M178.552,529.472C177.337,510.514,178.342,480.516,180.592,467.041"/>
<path class="path-7" d="M180.592,467.041C181.682,459.360,180.126,433.485,181.224,426.375"/>
<path class="path-7" d="M181.224,426.375C183.120,414.798,181.098,412.550,182.932,404.810"/>
<path class="path-7" d="M182.932,404.810C186.579,392.939,202.274,390.130,212.784,393.055"/>
<path class="path-8" d="M212.784,393.055C218.617,394.550,228.358,397.416,231.565,402.912C232.988,405.351,233.553,409.893,232.095,412.312C229.607,416.439,214.185,413.860,217.020,417.856C221.917,424.982,231.872,415.472,236.164,419.313C238.096,421.042,238.261,424.621,238.643,427.593C242.610,449.499,235.626,472.823,235.323,494.418C235.156,501.387,233.363,511.652,234.522,518.008C236.865,533.819,235.021,537.125,235.347,546.607C235.248,550.130,233.348,567.976,234.468,572.570C235.728,577.331,239.001,581.940,239.434,586.871C240.167,595.226,228.071,606.287,220.554,608.544C212.060,610.911,185.904,609.130,177.977,604.755C174.818,603.130,171.002,599.178,169.753,595.582C168.411,592.297,166.747,576.915,167.788,573.206C169.869,566.735,172.359,565.417,174.491,557.749C176.676,548.722,178.976,538.967,178.552,529.472C177.337,510.514,178.342,480.516,180.592,467.041C181.682,459.360,180.126,433.485,181.224,426.375C183.120,414.798,181.098,412.550,182.932,404.810C186.579,392.939,202.274,390.130,212.784,393.055Z"/>
</g>
<g id="right_toe">
<path class="path-0" d="M166.821,642.784C168.201,629.493,173.511,612.398,189.696,610.101C193.433,609.372,198.693,611.145,202.841,611.992C224.018,616.261,232.276,621.002,232.944,642.784C233.006,648.752,233.894,656.158,229.431,660.943C224.975,665.635,203.972,663.005,197.557,663.276C186.224,664.002,176.458,669.385,168.635,659.493C163.982,653.482,166.096,649.856,166.821,642.784M241.451,620.022C234.461,606.025,201.949,597.650,187.293,600.322C165.425,604.434,158.303,621.588,156.860,640.150C156.296,646.774,155.438,654.055,158.731,659.922C159.907,662.017,162.401,664.818,164.130,666.496C177.169,680.246,186.726,678.556,204.396,678.423C213.739,678.509,229.273,677.674,236.787,671.430C242.413,666.295,242.996,660.699,243.266,653.527C243.279,646.621,244.264,625.138,241.451,620.022Z"/>
<path class="path-3" d="M189.696,610.101C193.433,609.372,198.693,611.145,202.841,611.992"/>
<path class="path-3" d="M202.841,611.992C224.018,616.261,232.276,621.002,232.944,642.784"/>
<path class="path-3" d="M232.944,642.784C233.006,648.752,233.894,656.158,229.431,660.943"/>
<path class="path-3" d="M229.431,660.943C224.975,665.635,203.972,663.005,197.557,663.276"/>
<path class="path-3" d="M197.557,663.276C186.224,664.002,176.458,669.385,168.635,659.493"/>
<path class="path-3" d="M168.635,659.493C163.982,653.482,166.096,649.856,166.821,642.784"/>
<path class="path-3" d="M166.821,642.784C168.201,629.493,173.511,612.398,189.696,610.101"/>
<path class="path-4" d="M189.696,610.101C193.433,609.372,198.693,611.145,202.841,611.992C224.018,616.261,232.276,621.002,232.944,642.784C233.006,648.752,233.894,656.158,229.431,660.943C224.975,665.635,203.972,663.005,197.557,663.276C186.224,664.002,176.458,669.385,168.635,659.493C163.982,653.482,166.096,649.856,166.821,642.784C168.201,629.493,173.511,612.398,189.696,610.101Z"/>
</g>
<g id="right_sole">
<path class="path-0" d="M185.153,675.219C186.680,675.536,202.047,675.400,203.785,675.395C205.184,675.413,213.643,675.435,214.836,675.352C215.578,675.317,223.031,674.990,223.601,675.452C223.085,674.983,215.081,676.460,214.610,676.475C213.683,676.536,187.468,676.381,187.160,676.490C185.963,676.521,174.764,675.559,174.028,674.593C175.226,674.071,183.396,674.852,185.153,675.219M224.570,669.095C224.619,669.372,223.020,671.045,222.603,671.046C221.766,671.053,208.599,672.509,207.493,672.280C206.243,672.245,197.541,673.051,196.414,673.040C194.154,673.018,176.179,671.998,174.254,670.838C174.071,670.679,173.460,669.710,173.490,669.576C173.554,669.295,180.570,669.850,181.662,669.826C183.376,669.789,197.205,669.001,198.962,668.957C200.863,668.910,215.753,669.130,217.700,668.967C218.004,668.949,224.439,668.411,224.570,669.095M230.281,664.116C219.058,660.955,210.194,665.425,200.013,665.749C192.610,666.017,178.404,664.430,169.383,666.180C167.948,666.459,165.207,666.250,164.765,667.730C164.208,669.606,167.811,673.654,170.103,675.167C172.944,677.041,178.869,677.081,181.219,677.441C193.130,679.707,208.290,678.554,220.538,678.048C229.579,677.680,231.847,674.072,232.770,669.731C233.153,667.929,233.787,665.054,230.281,664.116Z"/>
<path class="path-24" d="M185.153,675.219C186.680,675.536,202.047,675.400,203.785,675.395"/>
<path class="path-24" d="M203.785,675.395C205.184,675.413,213.643,675.435,214.836,675.352"/>
<path class="path-24" d="M214.836,675.352C215.578,675.317,223.031,674.990,223.601,675.452"/>
<path class="path-24" d="M223.601,675.452C223.085,674.983,215.081,676.460,214.610,676.475"/>
<path class="path-24" d="M214.610,676.475C213.683,676.536,187.468,676.381,187.160,676.490"/>
<path class="path-24" d="M187.160,676.490C185.963,676.521,174.764,675.559,174.028,674.593"/>
<path class="path-24" d="M174.028,674.593C175.226,674.071,183.396,674.852,185.153,675.219"/>
<path class="path-0" d="M185.153,675.219C186.680,675.536,202.047,675.400,203.785,675.395C205.184,675.413,213.643,675.435,214.836,675.352C215.578,675.317,223.031,674.990,223.601,675.452C223.085,674.983,215.081,676.460,214.610,676.475C213.683,676.536,187.468,676.381,187.160,676.490C185.963,676.521,174.764,675.559,174.028,674.593C175.226,674.071,183.396,674.852,185.153,675.219Z"/>
<path class="path-5" d="M181.662,669.826C183.376,669.789,197.205,669.001,198.962,668.957"/>
<path class="path-5" d="M198.962,668.957C200.863,668.910,215.753,669.130,217.700,668.967"/>
<path class="path-5" d="M217.700,668.967C218.004,668.949,224.439,668.411,224.570,669.095"/>
<path class="path-5" d="M224.570,669.095C224.619,669.372,223.020,671.045,222.603,671.046"/>
<path class="path-5" d="M222.603,671.046C221.766,671.053,208.599,672.509,207.493,672.280"/>
<path class="path-5" d="M207.493,672.280C206.243,672.245,197.541,673.051,196.414,673.040"/>
<path class="path-5" d="M196.414,673.040C194.154,673.018,176.179,671.998,174.254,670.838"/>
<path class="path-5" d="M174.254,670.838C174.071,670.679,173.460,669.710,173.490,669.576"/>
<path class="path-5" d="M173.490,669.576C173.554,669.295,180.570,669.850,181.662,669.826"/>
<path class="path-6" d="M181.662,669.826C183.376,669.789,197.205,669.001,198.962,668.957C200.863,668.910,215.753,669.130,217.700,668.967C218.004,668.949,224.439,668.411,224.570,669.095C224.619,669.372,223.020,671.045,222.603,671.046C221.766,671.053,208.599,672.509,207.493,672.280C206.243,672.245,197.541,673.051,196.414,673.040C194.154,673.018,176.179,671.998,174.254,670.838C174.071,670.679,173.460,669.710,173.490,669.576C173.554,669.295,180.570,669.850,181.662,669.826Z"/>
</g>
</g>
<g id="hat_brim">
<path class="path-0" d="M284.842,142.450C288.501,136.461,297.484,120.159,305.469,120.159C310.793,120.159,321.772,129.808,327.427,132.802C332.417,135.797,337.741,138.458,343.397,141.119C346.609,142.788,349.825,144.452,353.044,146.109C367.351,153.429,363.358,159.751,355.040,158.420C336.410,155.091,333.415,156.423,315.450,147.107C313.120,146.109,307.132,142.783,306.134,147.107C304.804,152.098,313.787,156.423,317.446,158.086C324.099,161.747,331.419,165.740,339.404,166.404C341.733,166.738,349.718,166.070,351.048,168.400C353.044,171.728,343.396,180.377,341.400,182.374C338.073,185.368,334.747,188.362,331.419,190.692C326.429,194.017,321.105,197.011,315.450,198.009C304.804,199.341,271.534,184.036,270.536,172.393C269.871,165.739,280.850,148.772,284.842,142.450M317.446,115.835C312.456,111.509,308.796,105.187,301.476,108.515C296.153,110.845,290.498,118.496,286.839,122.489C273.197,139.123,260.889,158.753,261.553,180.377C261.887,194.017,266.544,193.686,277.522,199.008C294.157,207.326,315.450,209.987,333.416,201.671C345.059,196.347,365.355,178.382,370.678,166.404C372.341,162.412,375.335,153.429,373.005,148.772C370.344,143.115,348.053,133.467,341.400,129.808C333.415,125.483,324.433,121.490,317.446,115.835Z"/>
<path class="path-9" d="M305.469,120.159C310.793,120.159,321.772,129.808,327.427,132.802"/>
<path class="path-9" d="M327.427,132.802C332.417,135.797,337.741,138.458,343.397,141.119"/>
<path class="path-9" d="M343.397,141.119C346.609,142.788,349.825,144.452,353.044,146.109"/>
<path class="path-9" d="M353.044,146.109C367.351,153.429,363.358,159.751,355.040,158.420"/>
<path class="path-9" d="M355.040,158.420C336.410,155.091,333.415,156.423,315.450,147.107"/>
<path class="path-9" d="M315.450,147.107C313.120,146.109,307.132,142.783,306.134,147.107"/>
<path class="path-9" d="M306.134,147.107C304.804,152.098,313.787,156.423,317.446,158.086"/>
<path class="path-9" d="M317.446,158.086C324.099,161.747,331.419,165.740,339.404,166.404"/>
<path class="path-9" d="M339.404,166.404C341.733,166.738,349.718,166.070,351.048,168.400"/>
<path class="path-9" d="M351.048,168.400C353.044,171.728,343.396,180.377,341.400,182.374"/>
<path class="path-9" d="M341.400,182.374C338.073,185.368,334.747,188.362,331.419,190.692"/>
<path class="path-9" d="M331.419,190.692C326.429,194.017,321.105,197.011,315.450,198.009"/>
<path class="path-9" d="M315.450,198.009C304.804,199.341,271.534,184.036,270.536,172.393"/>
<path class="path-9" d="M270.536,172.393C269.871,165.739,280.850,148.772,284.842,142.450"/>
<path class="path-9" d="M284.842,142.450C288.501,136.461,297.484,120.159,305.469,120.159"/>
<path class="path-10" d="M305.469,120.159C310.793,120.159,321.772,129.808,327.427,132.802C332.417,135.797,337.741,138.458,343.397,141.119C346.609,142.788,349.825,144.452,353.044,146.109C367.351,153.429,363.358,159.751,355.040,158.420C336.410,155.091,333.415,156.423,315.450,147.107C313.120,146.109,307.132,142.783,306.134,147.107C304.804,152.098,313.787,156.423,317.446,158.086C324.099,161.747,331.419,165.740,339.404,166.404C341.733,166.738,349.718,166.070,351.048,168.400C353.044,171.728,343.396,180.377,341.400,182.374C338.073,185.368,334.747,188.362,331.419,190.692C326.429,194.017,321.105,197.011,315.450,198.009C304.804,199.341,271.534,184.036,270.536,172.393C269.871,165.739,280.850,148.772,284.842,142.450C288.501,136.461,297.484,120.159,305.469,120.159Z"/>
</g>
<g id="hair">
<path class="path-0" d="M183.357,136.483C200.954,124.749,220.906,123.806,241.996,123.120C251.452,122.794,257.886,129.270,265.069,135.626C270.964,141.195,277.299,147.468,283.560,153.313C292.986,162.051,296.930,166.431,300.440,170.614C303.444,173.825,308.105,179.813,311.862,182.674C316.396,186.124,325.422,203.315,327.445,205.266C320.793,207.453,310.356,209.024,305.541,212.830C307.149,218.669,307.424,227.700,307.413,230.409C301.202,230.790,294.008,227.926,282.567,225.752C280.180,232.918,280.142,239.647,275.384,246.902C267.697,244.496,262.345,242.563,252.411,238.043C245.798,243.193,244.261,242.773,233.517,249.212C226.455,244.820,220.838,240.151,213.943,237.253C207.148,240.091,196.403,241.027,192.739,243.925C188.987,236.858,185.547,229.060,182.318,225.662C172.710,227.554,168.576,230.148,161.781,232.559C157.606,227.012,160.654,222.489,156.037,214.349C151.717,213.146,145.049,210.476,139.490,210.322C143.367,205.864,146.319,191.142,152.833,189.327C160.871,187.088,155.875,177.911,160.872,169.755C162.110,167.631,174.016,151.399,175.093,148.739C177.132,144.153,179.361,139.287,183.357,136.483M269.783,123.041C257.623,113.516,232.973,108.192,219.067,111.311C206.306,114.023,193.787,117.926,182.663,125.006C176.433,128.911,169.531,134.686,165.362,140.754C157.036,152.537,144.935,178.372,138.142,190.325C132.704,200.241,127.646,206.923,122.452,212.283C140.007,218.879,145.124,221.586,150.363,222.441C150.613,230.199,157.711,236.027,156.388,244.572C165.209,243.354,170.475,241.177,178.326,239.302C182.258,243.995,184.942,250.348,188.681,256.586C196.418,254.568,204.305,254.940,212.000,249.563C217.496,252.632,226.229,257.403,235.200,262.448C243.544,258.115,245.325,257.880,253.165,252.908C262.619,255.342,272.515,261.315,282.074,260.399C281.484,252.206,287.600,246.647,286.947,241.388C294.168,239.536,316.196,242.966,319.967,242.683C319.803,236.635,316.595,225.026,318.237,217.838C325.064,216.098,330.837,214.510,341.526,209.520C338.121,202.790,331.974,194.414,326.560,189.403C321.990,185.214,318.291,179.689,313.719,175.326C298.212,160.768,292.275,140.745,269.783,123.041Z"/>
<path class="path-11" d="M241.996,123.120C251.452,122.794,257.886,129.270,265.069,135.626"/>
<path class="path-11" d="M265.069,135.626C270.964,141.195,277.299,147.468,283.560,153.313"/>
<path class="path-11" d="M283.560,153.313C292.986,162.051,296.930,166.431,300.440,170.614"/>
<path class="path-11" d="M300.440,170.614C303.444,173.825,308.105,179.813,311.862,182.674"/>
<path class="path-11" d="M311.862,182.674C316.396,186.124,325.422,203.315,327.445,205.266"/>
<path class="path-11" d="M327.445,205.266C320.793,207.453,310.356,209.024,305.541,212.830"/>
<path class="path-11" d="M305.541,212.830C307.149,218.669,307.424,227.700,307.413,230.409"/>
<path class="path-11" d="M307.413,230.409C301.202,230.790,294.008,227.926,282.567,225.752"/>
<path class="path-11" d="M282.567,225.752C280.180,232.918,280.142,239.647,275.384,246.902"/>
<path class="path-11" d="M275.384,246.902C267.697,244.496,262.345,242.563,252.411,238.043"/>
<path class="path-11" d="M252.411,238.043C245.798,243.193,244.261,242.773,233.517,249.212"/>
<path class="path-11" d="M233.517,249.212C226.455,244.820,220.838,240.151,213.943,237.253"/>
<path class="path-11" d="M213.943,237.253C207.148,240.091,196.403,241.027,192.739,243.925"/>
<path class="path-11" d="M192.739,243.925C188.987,236.858,185.547,229.060,182.318,225.662"/>
<path class="path-11" d="M182.318,225.662C172.710,227.554,168.576,230.148,161.781,232.559"/>
<path class="path-11" d="M161.781,232.559C157.606,227.012,160.654,222.489,156.037,214.349"/>
<path class="path-11" d="M156.037,214.349C151.717,213.146,145.049,210.476,139.490,210.322"/>
<path class="path-11" d="M139.490,210.322C143.367,205.864,146.319,191.142,152.833,189.327"/>
<path class="path-11" d="M152.833,189.327C160.871,187.088,155.875,177.911,160.872,169.755"/>
<path class="path-11" d="M160.872,169.755C162.110,167.631,174.016,151.399,175.093,148.739"/>
<path class="path-11" d="M175.093,148.739C177.132,144.153,179.361,139.287,183.357,136.483"/>
<path class="path-11" d="M183.357,136.483C200.954,124.749,220.906,123.806,241.996,123.120"/>
<path class="path-12" d="M241.996,123.120C251.452,122.794,257.886,129.270,265.069,135.626C270.964,141.195,277.299,147.468,283.560,153.313C292.986,162.051,296.930,166.431,300.440,170.614C303.444,173.825,308.105,179.813,311.862,182.674C316.396,186.124,325.422,203.315,327.445,205.266C320.793,207.453,310.356,209.024,305.541,212.830C307.149,218.669,307.424,227.700,307.413,230.409C301.202,230.790,294.008,227.926,282.567,225.752C280.180,232.918,280.142,239.647,275.384,246.902C267.697,244.496,262.345,242.563,252.411,238.043C245.798,243.193,244.261,242.773,233.517,249.212C226.455,244.820,220.838,240.151,213.943,237.253C207.148,240.091,196.403,241.027,192.739,243.925C188.987,236.858,185.547,229.060,182.318,225.662C172.710,227.554,168.576,230.148,161.781,232.559C157.606,227.012,160.654,222.489,156.037,214.349C151.717,213.146,145.049,210.476,139.490,210.322C143.367,205.864,146.319,191.142,152.833,189.327C160.871,187.088,155.875,177.911,160.872,169.755C162.110,167.631,174.016,151.399,175.093,148.739C177.132,144.153,179.361,139.287,183.357,136.483C200.954,124.749,220.906,123.806,241.996,123.120Z"/>
</g>
<g id="clothes">
<path class="path-0" d="M243.786,369.346C239.061,367.378,220.814,360.942,217.866,365.359C215.449,369.228,219.936,370.296,223.885,370.705C227.506,371.081,246.169,377.581,248.649,375.999C253.173,373.038,246.040,370.171,243.786,369.346M191.093,266.179C194.088,253.538,221.036,240.563,234.012,241.561C242.994,242.226,271.274,256.199,275.266,264.517C278.592,271.170,279.590,295.789,279.924,304.107C280.257,319.412,281.128,334.752,282.253,350.019C283.785,362.578,287.303,374.811,289.301,387.305C289.457,393.018,290.527,408.043,285.025,411.084C277.705,415.594,260.392,404.226,253.338,400.635C227.683,388.443,229.473,387.928,202.853,386.918C199.320,386.649,187.799,389.094,185.407,387.700C181.032,384.425,182.892,378.149,183.951,372.994C186.922,361.016,189.869,353.034,191.427,340.038C193.237,324.047,194.088,306.768,194.088,290.134C193.755,284.145,190.429,269.839,191.093,266.179M269.943,247.549C253.640,237.899,237.670,229.915,218.042,235.573C212.718,236.902,186.103,249.877,183.773,253.205C180.115,258.529,183.773,278.821,183.773,286.141C184.107,294.791,184.440,303.773,183.773,312.092C183.442,318.413,182.111,324.069,182.111,330.057C181.777,336.710,182.320,343.997,180.780,350.019C177.490,362.511,163.905,386.569,178.235,396.320C183.454,399.899,191.672,398.314,198.305,399.132C209.004,400.243,220.378,402.163,230.909,405.053C241.125,408.164,249.683,415.727,260.222,418.129C268.275,419.967,294.626,425.662,300.341,419.069C304.076,414.952,300.380,390.343,299.306,384.153C296.342,370.870,293.109,357.553,291.567,344.031C290.542,332.093,289.239,320.410,289.904,308.100C290.237,298.119,291.900,288.471,291.900,278.157C291.567,273.831,292.234,268.510,289.904,264.184C285.912,256.199,277.263,251.873,269.943,247.549Z"/>
<path class="path-13" d="M243.786,369.346C239.061,367.378,220.814,360.942,217.866,365.359"/>
<path class="path-13" d="M217.866,365.359C215.449,369.228,219.936,370.296,223.885,370.705"/>
<path class="path-13" d="M223.885,370.705C227.506,371.081,246.169,377.581,248.649,375.999"/>
<path class="path-13" d="M248.649,375.999C253.173,373.038,246.040,370.171,243.786,369.346"/>
<path class="path-13" d="M191.093,266.179C194.088,253.538,221.036,240.563,234.012,241.561"/>
<path class="path-13" d="M234.012,241.561C242.994,242.226,271.274,256.199,275.266,264.517"/>
<path class="path-13" d="M275.266,264.517C278.592,271.170,279.590,295.789,279.924,304.107"/>
<path class="path-13" d="M279.924,304.107C280.257,319.412,281.128,334.752,282.253,350.019"/>
<path class="path-13" d="M282.253,350.019C283.785,362.578,287.303,374.811,289.301,387.305"/>
<path class="path-13" d="M289.301,387.305C289.457,393.018,290.527,408.043,285.025,411.084"/>
<path class="path-13" d="M285.025,411.084C277.705,415.594,260.392,404.226,253.338,400.635"/>
<path class="path-13" d="M253.338,400.635C227.683,388.443,229.473,387.928,202.853,386.918"/>
<path class="path-13" d="M202.853,386.918C199.320,386.649,187.799,389.094,185.407,387.700"/>
<path class="path-13" d="M185.407,387.700C181.032,384.425,182.892,378.149,183.951,372.994"/>
<path class="path-13" d="M183.951,372.994C186.922,361.016,189.869,353.034,191.427,340.038"/>
<path class="path-13" d="M191.427,340.038C193.237,324.047,194.088,306.768,194.088,290.134"/>
<path class="path-13" d="M194.088,290.134C193.755,284.145,190.429,269.839,191.093,266.179"/>
<path class="path-14" d="M243.786,369.346C239.061,367.378,220.814,360.942,217.866,365.359C215.449,369.228,219.936,370.296,223.885,370.705C227.506,371.081,246.169,377.581,248.649,375.999C253.173,373.038,246.040,370.171,243.786,369.346M191.093,266.179C194.088,253.538,221.036,240.563,234.012,241.561C242.994,242.226,271.274,256.199,275.266,264.517C278.592,271.170,279.590,295.789,279.924,304.107C280.257,319.412,281.128,334.752,282.253,350.019C283.785,362.578,287.303,374.811,289.301,387.305C289.457,393.018,290.527,408.043,285.025,411.084C277.705,415.594,260.392,404.226,253.338,400.635C227.683,388.443,229.473,387.928,202.853,386.918C199.320,386.649,187.799,389.094,185.407,387.700C181.032,384.425,182.892,378.149,183.951,372.994C186.922,361.016,189.869,353.034,191.427,340.038C193.237,324.047,194.088,306.768,194.088,290.134C193.755,284.145,190.429,269.839,191.093,266.179Z"/>
</g>
<g id="neck">
<path class="path-0" d="M229.021,222.597C229.354,219.269,230.353,216.275,234.012,215.942C245.656,213.946,244.657,251.542,234.012,251.542C224.031,251.542,228.356,228.917,229.021,222.597M234.012,206.628C231.351,206.295,228.357,206.959,226.027,208.291C216.711,212.948,218.042,221.599,218.042,230.248C217.708,234.574,218.042,238.567,216.046,242.226C214.383,245.553,209.724,248.879,209.724,252.540C210.057,262.521,237.006,262.521,243.993,262.188C246.653,262.187,255.636,263.185,256.634,259.526C256.634,258.528,249.981,246.883,248.983,242.226C245.989,228.252,255.305,207.626,234.012,206.628Z"/>
<path class="path-15" d="M234.012,215.942C245.656,213.946,244.657,251.542,234.012,251.542"/>
<path class="path-15" d="M234.012,251.542C224.031,251.542,228.356,228.917,229.021,222.597"/>
<path class="path-15" d="M229.021,222.597C229.354,219.269,230.353,216.275,234.012,215.942"/>
<path class="path-16" d="M234.012,215.942C245.656,213.946,244.657,251.542,234.012,251.542C224.031,251.542,228.356,228.917,229.021,222.597C229.354,219.269,230.353,216.275,234.012,215.942Z"/>
</g>
<g id="layer_head">
<g id="right_ear">
<path class="path-0" d="M154.467,189.639C149.834,189.705,137.831,162.911,143.370,164.039C149.235,165.223,152.091,175.771,153.690,180.040C154.649,182.309,158.690,189.594,154.467,189.639M145.340,150.216C143.553,149.005,141.415,147.578,139.453,148.478C130.380,150.997,133.802,164.873,136.549,173.929C139.989,184.840,147.605,198.789,157.261,203.242C158.794,203.959,161.646,206.359,163.384,205.940C169.410,204.086,163.817,194.274,162.162,189.611C159.788,182.437,150.562,155.237,145.340,150.216Z"/>
<path class="path-15" d="M143.370,164.039C149.235,165.223,152.091,175.771,153.690,180.040"/>
<path class="path-15" d="M153.690,180.040C154.649,182.309,158.690,189.594,154.467,189.639"/>
<path class="path-15" d="M154.467,189.639C149.834,189.705,137.831,162.911,143.370,164.039"/>
<path class="path-16" d="M143.370,164.039C149.235,165.223,152.091,175.771,153.690,180.040C154.649,182.309,158.690,189.594,154.467,189.639C149.834,189.705,137.831,162.911,143.370,164.039Z"/>
</g>
<g id="face_Mask">
<g id="face">
<path class="path-0" d="M148.999,105.899C157.485,95.451,190.254,88.266,203.893,86.269C219.198,84.273,234.834,86.603,249.806,91.260C255.129,92.924,263.074,94.575,267.438,98.579C274.230,104.859,276.812,116.184,278.021,124.989C278.897,130.335,279.678,137.272,278.627,142.282C272.052,173.645,265.202,188.712,258.624,197.407C247.421,212.215,227.391,218.044,209.304,221.485C190.925,224.710,181.170,222.417,164.554,216.116C160.874,214.726,152.856,211.596,150.416,208.729C143.371,200.135,146.905,188.564,144.787,178.135C142.753,169.501,136.839,157.231,135.304,148.678C133.495,137.594,142.014,114.421,148.999,105.899M271.455,90.904C257.981,78.526,221.570,75.872,203.937,78.516C195.617,79.506,187.631,80.165,179.978,82.156C174.318,83.818,169.323,86.476,163.995,88.139C152.349,92.464,147.537,91.025,139.707,101.790C134.084,109.325,125.630,138.987,126.269,148.208C126.920,155.697,134.423,172.621,135.428,181.315C136.462,190.731,132.676,204.261,137.018,212.303C140.836,219.137,147.971,222.506,158.095,226.724C167.056,230.458,177.048,234.047,187.037,234.464C192.344,234.710,198.817,235.063,210.107,231.993C229.245,226.533,249.242,219.769,262.911,203.509C275.374,188.684,292.396,168.927,294.373,139.131C295.688,119.301,278.710,97.423,271.455,90.904Z"/>
<path class="path-15" d="M203.893,86.269C219.198,84.273,234.834,86.603,249.806,91.260"/>
<path class="path-15" d="M249.806,91.260C255.129,92.924,263.074,94.575,267.438,98.579"/>
<path class="path-15" d="M267.438,98.579C274.230,104.859,276.812,116.184,278.021,124.989"/>
<path class="path-15" d="M278.021,124.989C278.897,130.335,279.678,137.272,278.627,142.282"/>
<path class="path-15" d="M278.627,142.282C272.052,173.645,265.202,188.712,258.624,197.407"/>
<path class="path-15" d="M258.624,197.407C247.421,212.215,227.391,218.044,209.304,221.485"/>
<path class="path-15" d="M209.304,221.485C190.925,224.710,181.170,222.417,164.554,216.116"/>
<path class="path-15" d="M164.554,216.116C160.874,214.726,152.856,211.596,150.416,208.729"/>
<path class="path-15" d="M150.416,208.729C143.371,200.135,146.905,188.564,144.787,178.135"/>
<path class="path-15" d="M144.787,178.135C142.753,169.501,136.839,157.231,135.304,148.678"/>
<path class="path-15" d="M135.304,148.678C133.495,137.594,142.014,114.421,148.999,105.899"/>
<path class="path-15" d="M148.999,105.899C157.485,95.451,190.254,88.266,203.893,86.269"/>
<path class="path-16" d="M203.893,86.269C219.198,84.273,234.834,86.603,249.806,91.260C255.129,92.924,263.074,94.575,267.438,98.579C274.230,104.859,276.812,116.184,278.021,124.989C278.897,130.335,279.678,137.272,278.627,142.282C272.052,173.645,265.202,188.712,258.624,197.407C247.421,212.215,227.391,218.044,209.304,221.485C190.925,224.710,181.170,222.417,164.554,216.116C160.874,214.726,152.856,211.596,150.416,208.729C143.371,200.135,146.905,188.564,144.787,178.135C142.753,169.501,136.839,157.231,135.304,148.678C133.495,137.594,142.014,114.421,148.999,105.899C157.485,95.451,190.254,88.266,203.893,86.269Z"/>
</g>
</g>
<mask id="mask_target" style="mask-type:alpha;">
<use xlink:href="#face_Mask"/>
</mask>
<g id="mouse">
<path class="path-0" d="M186.390,213.638C191.594,214.742,191.678,219.495,191.204,220.002C190.937,220.288,189.814,219.337,186.854,218.850C181.248,217.928,178.543,219.101,178.345,218.387C178.129,217.604,180.298,212.346,186.390,213.638Z"/>
</g>
<g id="layer_eyes_Mtarget" mask="url(#mask_target)">
<g id="eyes">
<mask style="mask-type:alpha;" id="f3906406-f197-4bf1-91d8-744c09cca836">
<use xlink:href="#cmn_f3906406-f197-4bf1-91d8-744c09cca836"/>
</mask>
<g id="cmn_f3906406-f197-4bf1-91d8-744c09cca836">
<path class="path-0" d="M134.443,178.489C135.879,185.399,139.187,192.996,138.304,192.828C135.751,192.343,135.173,187.423,134.631,184.043C134.164,181.707,135.524,170.672,133.614,172.909C133.160,173.441,134.308,177.838,134.443,178.489M145.652,182.086C145.659,180.436,145.803,177.779,144.682,176.499C143.876,175.579,142.083,175.107,140.842,175.129C137.934,175.117,131.128,165.706,128.081,163.287C127.080,162.493,122.754,157.115,121.578,157.599C111.648,161.686,121.849,171.644,126.175,185.977C127.968,191.917,140.009,200.700,140.457,200.498C143.036,199.331,145.627,187.715,145.652,182.086M176.633,193.516C169.445,193.172,159.921,187.176,160.739,175.993C160.948,173.143,172.830,169.196,177.966,166.707C184.146,163.713,196.490,157.291,199.648,157.449C202.880,157.986,201.475,161.233,201.465,170.136C201.455,178.801,188.825,194.100,176.633,193.516M208.851,176.296C211.894,164.828,211.528,148.415,209.221,147.355C203.875,144.899,190.008,154.580,181.980,158.166C174.477,161.519,162.721,169.178,157.458,170.376C154.971,171.037,152.727,171.257,152.092,172.921C151.146,175.399,154.803,178.493,156.174,180.764C158.700,184.946,160.478,191.246,165.569,194.069C175.258,199.825,182.872,197.144,194.002,193.638C198.601,192.189,206.844,183.859,208.851,176.296Z"/>
<path class="path-17" d="M199.648,157.449C202.880,157.986,201.475,161.233,201.465,170.136"/>
<path class="path-17" d="M201.465,170.136C201.455,178.801,188.825,194.100,176.633,193.516"/>
<path class="path-17" d="M176.633,193.516C169.445,193.172,159.921,187.176,160.739,175.993"/>
<path class="path-17" d="M160.739,175.993C160.948,173.143,172.830,169.196,177.966,166.707"/>
<path class="path-17" d="M177.966,166.707C184.146,163.713,196.490,157.291,199.648,157.449"/>
<path class="path-18" d="M199.648,157.449C202.880,157.986,201.475,161.233,201.465,170.136C201.455,178.801,188.825,194.100,176.633,193.516C169.445,193.172,159.921,187.176,160.739,175.993C160.948,173.143,172.830,169.196,177.966,166.707C184.146,163.713,196.490,157.291,199.648,157.449Z"/>
<path class="path-17" d="M133.614,172.909C133.160,173.441,134.308,177.838,134.443,178.489"/>
<path class="path-17" d="M134.443,178.489C135.879,185.399,139.187,192.996,138.304,192.828"/>
<path class="path-17" d="M138.304,192.828C135.751,192.343,135.173,187.423,134.631,184.043"/>
<path class="path-17" d="M134.631,184.043C134.164,181.707,135.524,170.672,133.614,172.909"/>
<path class="path-18" d="M133.614,172.909C133.160,173.441,134.308,177.838,134.443,178.489C135.879,185.399,139.187,192.996,138.304,192.828C135.751,192.343,135.173,187.423,134.631,184.043C134.164,181.707,135.524,170.672,133.614,172.909Z"/>
</g>
</g>
<g id="pupil">
<path class="path-0" d="M164.722,169.308C167.003,168.738,170.188,171.916,171.031,180.357C171.659,186.643,170.020,189.221,168.280,189.426C166.381,189.648,164.735,187.052,163.452,180.275C162.082,173.043,162.742,169.802,164.722,169.308Z" mask="url(#f3906406-f197-4bf1-91d8-744c09cca836)"/>
<path class="path-0" d="M134.963,172.578C137.378,172.119,140.901,175.717,141.089,184.874C141.198,190.168,139.598,192.075,138.190,192.269C136.604,192.488,134.534,190.693,133.117,184.898C131.143,176.831,132.774,172.994,134.963,172.578Z" mask="url(#f3906406-f197-4bf1-91d8-744c09cca836)"/>
</g>
</g>
<g id="hat">
<path class="path-0" d="M285.778,134.168C288.021,135.020,290.612,137.810,291.164,140.437C293.176,147.168,281.856,148.609,278.249,149.088C272.569,149.271,266.650,148.287,261.259,147.634C253.983,147.415,246.800,145.898,239.537,145.416C216.681,142.101,193.734,139.707,170.812,136.921C160.226,136.055,150.717,134.171,139.159,133.418C137.987,133.342,127.679,134.150,125.602,133.546C110.511,129.306,123.197,115.678,122.066,108.853C121.902,106.989,118.408,106.582,118.997,103.247C119.392,101.204,124.694,96.978,126.650,96.138C135.529,92.273,145.912,91.151,156.053,90.972C166.868,90.783,176.488,92.657,187.203,94.060C213.104,97.458,256.610,105.005,289.948,118.490C299.482,122.343,279.585,120.244,277.728,120.381C260.837,121.523,189.671,104.818,228.943,116.926C244.147,121.660,272.145,128.455,285.778,134.168M174.630,79.759C162.423,78.600,151.207,77.626,139.782,79.873C135.686,80.667,130.371,81.557,127.194,82.604C120.658,84.763,132.670,65.025,136.038,61.400C152.200,44.429,180.238,32.726,204.817,34.368C253.395,37.615,271.522,51.085,284.355,70.100C288.526,75.808,300.078,101.880,290.034,107.881C286.807,109.533,281.096,106.704,278.424,105.209C268.818,100.098,193.900,81.589,174.630,79.759M276.556,41.522C259.424,31.848,236.283,23.500,208.660,24.093C178.510,24.749,145.633,33.953,126.317,59.962C120.424,68.085,117.885,77.050,114.189,85.626C111.948,90.759,107.529,94.024,107.015,99.537C106.507,107.235,111.164,109.280,111.819,115.598C112.765,122.805,108.234,124.893,108.477,129.563C107.930,141.982,119.638,145.280,129.845,146.563C134.226,147.114,150.547,146.580,159.417,146.788C169.410,147.022,182.735,147.464,192.710,148.109C204.314,148.860,219.719,150.708,231.313,151.604C242.134,152.440,256.563,153.884,267.416,153.923C275.641,153.952,293.732,153.322,294.793,152.448C296.334,151.204,301.651,138.278,302.157,135.749C303.027,131.391,300.907,126.572,302.658,119.607C304.982,109.378,307.802,100.697,306.494,89.442C303.916,68.833,289.921,49.078,276.556,41.522Z"/>
<path class="path-19" d="M187.203,94.060C213.104,97.458,256.610,105.005,289.948,118.490"/>
<path class="path-19" d="M289.948,118.490C299.482,122.343,279.585,120.244,277.728,120.381"/>
<path class="path-19" d="M277.728,120.381C260.837,121.523,189.671,104.818,228.943,116.926"/>
<path class="path-19" d="M228.943,116.926C244.147,121.660,272.145,128.455,285.778,134.168"/>
<path class="path-19" d="M285.778,134.168C288.021,135.020,290.612,137.810,291.164,140.437"/>
<path class="path-19" d="M291.164,140.437C293.176,147.168,281.856,148.609,278.249,149.088"/>
<path class="path-19" d="M278.249,149.088C272.569,149.271,266.650,148.287,261.259,147.634"/>
<path class="path-19" d="M261.259,147.634C253.983,147.415,246.800,145.898,239.537,145.416"/>
<path class="path-19" d="M239.537,145.416C216.681,142.101,193.734,139.707,170.812,136.921"/>
<path class="path-19" d="M170.812,136.921C160.226,136.055,150.717,134.171,139.159,133.418"/>
<path class="path-19" d="M139.159,133.418C137.987,133.342,127.679,134.150,125.602,133.546"/>
<path class="path-19" d="M125.602,133.546C110.511,129.306,123.197,115.678,122.066,108.853"/>
<path class="path-19" d="M122.066,108.853C121.902,106.989,118.408,106.582,118.997,103.247"/>
<path class="path-19" d="M118.997,103.247C119.392,101.204,124.694,96.978,126.650,96.138"/>
<path class="path-19" d="M126.650,96.138C135.529,92.273,145.912,91.151,156.053,90.972"/>
<path class="path-19" d="M156.053,90.972C166.868,90.783,176.488,92.657,187.203,94.060"/>
<path class="path-20" d="M187.203,94.060C213.104,97.458,256.610,105.005,289.948,118.490C299.482,122.343,279.585,120.244,277.728,120.381C260.837,121.523,189.671,104.818,228.943,116.926C244.147,121.660,272.145,128.455,285.778,134.168C288.021,135.020,290.612,137.810,291.164,140.437C293.176,147.168,281.856,148.609,278.249,149.088C272.569,149.271,266.650,148.287,261.259,147.634C253.983,147.415,246.800,145.898,239.537,145.416C216.681,142.101,193.734,139.707,170.812,136.921C160.226,136.055,150.717,134.171,139.159,133.418C137.987,133.342,127.679,134.150,125.602,133.546C110.511,129.306,123.197,115.678,122.066,108.853C121.902,106.989,118.408,106.582,118.997,103.247C119.392,101.204,124.694,96.978,126.650,96.138C135.529,92.273,145.912,91.151,156.053,90.972C166.868,90.783,176.488,92.657,187.203,94.060Z"/>
<path class="path-9" d="M204.817,34.368C253.395,37.615,271.522,51.085,284.355,70.100"/>
<path class="path-9" d="M284.355,70.100C288.526,75.808,300.078,101.880,290.034,107.881"/>
<path class="path-9" d="M290.034,107.881C286.807,109.533,281.096,106.704,278.424,105.209"/>
<path class="path-9" d="M278.424,105.209C268.818,100.098,193.900,81.589,174.630,79.759"/>
<path class="path-9" d="M174.630,79.759C162.423,78.600,151.207,77.626,139.782,79.873"/>
<path class="path-9" d="M139.782,79.873C135.686,80.667,130.371,81.557,127.194,82.604"/>
<path class="path-9" d="M127.194,82.604C120.658,84.763,132.670,65.025,136.038,61.400"/>
<path class="path-9" d="M136.038,61.400C152.200,44.429,180.238,32.726,204.817,34.368"/>
<path class="path-10" d="M204.817,34.368C253.395,37.615,271.522,51.085,284.355,70.100C288.526,75.808,300.078,101.880,290.034,107.881C286.807,109.533,281.096,106.704,278.424,105.209C268.818,100.098,193.900,81.589,174.630,79.759C162.423,78.600,151.207,77.626,139.782,79.873C135.686,80.667,130.371,81.557,127.194,82.604C120.658,84.763,132.670,65.025,136.038,61.400C152.200,44.429,180.238,32.726,204.817,34.368Z"/>
</g>
<g id="left_ear">
<path class="path-0" d="M241.899,178.986C242.269,177.085,244.777,171.000,246.033,169.254C253.867,157.438,270.606,149.318,278.129,157.451C286.684,167.092,272.609,191.474,260.696,196.396C247.321,201.686,239.904,191.294,241.899,178.986M293.223,160.961C290.848,149.579,283.268,141.375,266.358,144.960C249.361,148.563,246.680,172.037,245.712,186.350C245.584,189.451,245.898,192.795,246.833,195.596C250.160,206.131,259.051,210.793,268.850,203.038C280.034,194.000,295.889,176.006,293.223,160.961Z"/>
<path class="path-15" d="M246.033,169.254C253.867,157.438,270.606,149.318,278.129,157.451"/>
<path class="path-15" d="M278.129,157.451C286.684,167.092,272.609,191.474,260.696,196.396"/>
<path class="path-15" d="M260.696,196.396C247.321,201.686,239.904,191.294,241.899,178.986"/>
<path class="path-15" d="M241.899,178.986C242.269,177.085,244.777,171.000,246.033,169.254"/>
<path class="path-16" d="M246.033,169.254C253.867,157.438,270.606,149.318,278.129,157.451C286.684,167.092,272.609,191.474,260.696,196.396C247.321,201.686,239.904,191.294,241.899,178.986C242.269,177.085,244.777,171.000,246.033,169.254Z"/>
</g>
<g id="earrings">
<path class="path-0" d="M271.879,207.439C262.761,212.123,261.788,194.021,265.054,194.260C269.660,195.724,281.277,208.396,271.879,207.439M281.871,199.993C275.237,200.556,271.989,191.553,271.383,187.751C278.930,189.252,288.494,194.643,281.871,199.993M292.548,196.605C289.945,188.487,277.567,184.026,269.702,180.635C266.767,179.369,258.394,189.538,258.032,192.881C256.942,197.009,259.889,219.402,273.905,216.364C279.623,214.858,294.639,203.129,292.548,196.605Z"/>
<path class="path-21" d="M271.383,187.751C278.930,189.252,288.494,194.643,281.871,199.993"/>
<path class="path-21" d="M281.871,199.993C275.237,200.556,271.989,191.553,271.383,187.751"/>
<path class="path-22" d="M271.383,187.751C278.930,189.252,288.494,194.643,281.871,199.993C275.237,200.556,271.989,191.553,271.383,187.751Z"/>
<path class="path-21" d="M265.054,194.260C269.660,195.724,281.277,208.396,271.879,207.439"/>
<path class="path-21" d="M271.879,207.439C262.761,212.123,261.788,194.021,265.054,194.260"/>
<path class="path-22" d="M265.054,194.260C269.660,195.724,281.277,208.396,271.879,207.439C262.761,212.123,261.788,194.021,265.054,194.260Z"/>
</g>
</g>
<g id="jacket">
<path class="path-0" d="M202.406,270.837C205.014,275.196,202.091,285.477,202.018,290.134C199.733,307.247,197.702,323.675,196.786,340.514C196.715,343.455,195.444,348.722,193.270,351.363C190.512,354.713,183.895,356.327,180.491,358.139C176.524,360.181,172.241,354.018,170.499,351.039C169.003,348.479,169.074,342.492,169.249,340.469C170.004,335.414,173.206,325.934,175.074,319.764C176.925,313.817,179.323,307.848,180.638,301.107C181.263,295.592,179.169,289.041,178.438,282.893C178.706,279.523,179.526,277.477,179.618,275.089C179.340,269.920,181.393,268.341,186.322,267.769C191.102,267.556,200.826,265.560,202.406,270.837M259.398,279.507C260.816,276.010,285.576,260.060,288.662,258.287C297.219,253.900,302.267,263.071,302.407,268.729C302.719,277.001,289.415,304.250,290.331,310.122C290.600,312.895,292.048,314.717,293.489,316.624C305.471,334.194,302.061,320.916,315.427,331.066C319.223,333.992,325.782,342.157,327.245,346.623C328.475,351.304,329.458,364.487,325.410,366.541C324.079,367.075,322.392,366.061,321.646,364.091C321.040,362.941,314.297,351.617,312.481,350.320C305.100,344.423,294.436,344.271,287.882,336.516C284.252,331.717,282.157,325.123,278.354,319.915C274.533,314.860,269.559,310.784,266.534,305.187C262.792,298.913,257.271,286.897,259.398,279.507M275.508,255.283C272.502,258.252,266.377,262.818,264.258,263.756C256.817,266.584,255.398,257.867,254.899,252.299C254.627,247.229,257.588,240.032,260.682,235.794C263.374,232.106,267.786,227.178,272.755,226.522C278.879,225.490,289.253,231.796,288.001,238.752C287.617,242.070,279.930,250.914,275.508,255.283M194.400,234.774C199.397,239.200,203.453,244.051,201.732,248.347C200.143,252.314,197.066,254.047,189.763,255.866C178.289,258.723,170.179,241.740,174.029,234.876C177.019,229.546,188.162,229.250,194.400,234.774M321.412,390.581C332.883,380.144,342.046,370.041,341.665,353.854C341.390,345.620,336.630,336.219,330.826,330.431C320.476,320.629,309.027,323.792,301.340,309.610C296.033,300.214,300.026,290.354,301.226,280.068C301.489,276.495,300.811,258.260,300.967,254.995C300.596,251.440,301.683,247.892,301.352,244.619C301.087,240.747,301.622,236.652,300.377,232.975C298.588,226.495,291.857,223.465,286.729,220.212C279.638,216.281,273.478,214.634,265.369,216.372C256.204,218.348,252.797,228.336,250.083,235.048C245.984,245.185,247.978,260.504,248.040,271.438C248.075,277.657,248.486,286.333,249.302,292.130C251.327,308.363,271.940,337.675,284.411,348.427C286.478,350.456,300.251,361.432,303.369,365.940C308.047,372.777,305.945,377.917,306.204,385.969C306.190,388.086,306.769,392.918,309.147,394.218C312.293,396.075,319.432,392.380,321.412,390.581M207.329,233.473C203.774,227.672,197.869,218.035,190.900,217.839C184.777,217.865,175.495,219.352,170.079,222.801C166.657,224.982,161.666,229.047,161.363,233.146C160.782,239.162,163.092,246.313,166.013,251.022C167.877,254.027,172.652,256.164,174.709,258.979C175.697,260.410,178.611,268.362,179.175,270.441C182.175,280.395,180.244,291.945,177.535,300.587C174.858,309.123,165.048,317.600,161.882,325.967C159.341,332.683,156.819,341.733,157.619,349.521C157.763,352.484,161.266,358.301,163.126,361.922C164.639,364.869,166.765,370.396,168.696,371.458C170.034,372.194,183.832,373.052,189.652,370.663C193.712,368.997,197.783,369.639,200.688,361.063C204.304,349.594,205.735,338.787,206.404,326.642C207.014,307.215,212.973,278.731,212.371,266.256C212.082,260.272,213.284,256.282,211.959,247.951C211.285,244.406,209.711,237.361,207.329,233.473Z"/>
<path class="path-1" d="M288.662,258.287C297.219,253.900,302.267,263.071,302.407,268.729"/>
<path class="path-1" d="M302.407,268.729C302.719,277.001,289.415,304.250,290.331,310.122"/>
<path class="path-1" d="M290.331,310.122C290.600,312.895,292.048,314.717,293.489,316.624"/>
<path class="path-1" d="M293.489,316.624C305.471,334.194,302.061,320.916,315.427,331.066"/>
<path class="path-1" d="M315.427,331.066C319.223,333.992,325.782,342.157,327.245,346.623"/>
<path class="path-1" d="M327.245,346.623C328.475,351.304,329.458,364.487,325.410,366.541"/>
<path class="path-1" d="M325.410,366.541C324.079,367.075,322.392,366.061,321.646,364.091"/>
<path class="path-1" d="M321.646,364.091C321.040,362.941,314.297,351.617,312.481,350.320"/>
<path class="path-1" d="M312.481,350.320C305.100,344.423,294.436,344.271,287.882,336.516"/>
<path class="path-1" d="M287.882,336.516C284.252,331.717,282.157,325.123,278.354,319.915"/>
<path class="path-1" d="M278.354,319.915C274.533,314.860,269.559,310.784,266.534,305.187"/>
<path class="path-1" d="M266.534,305.187C262.792,298.913,257.271,286.897,259.398,279.507"/>
<path class="path-1" d="M259.398,279.507C260.816,276.010,285.576,260.060,288.662,258.287"/>
<path class="path-2" d="M288.662,258.287C297.219,253.900,302.267,263.071,302.407,268.729C302.719,277.001,289.415,304.250,290.331,310.122C290.600,312.895,292.048,314.717,293.489,316.624C305.471,334.194,302.061,320.916,315.427,331.066C319.223,333.992,325.782,342.157,327.245,346.623C328.475,351.304,329.458,364.487,325.410,366.541C324.079,367.075,322.392,366.061,321.646,364.091C321.040,362.941,314.297,351.617,312.481,350.320C305.100,344.423,294.436,344.271,287.882,336.516C284.252,331.717,282.157,325.123,278.354,319.915C274.533,314.860,269.559,310.784,266.534,305.187C262.792,298.913,257.271,286.897,259.398,279.507C260.816,276.010,285.576,260.060,288.662,258.287Z"/>
<path class="path-1" d="M186.322,267.769C191.102,267.556,200.826,265.560,202.406,270.837"/>
<path class="path-1" d="M202.406,270.837C205.014,275.196,202.091,285.477,202.018,290.134"/>
<path class="path-1" d="M202.018,290.134C199.733,307.247,197.702,323.675,196.786,340.514"/>
<path class="path-1" d="M196.786,340.514C196.715,343.455,195.444,348.722,193.270,351.363"/>
<path class="path-1" d="M193.270,351.363C190.512,354.713,183.895,356.327,180.491,358.139"/>
<path class="path-1" d="M180.491,358.139C176.524,360.181,172.241,354.018,170.499,351.039"/>
<path class="path-1" d="M170.499,351.039C169.003,348.479,169.074,342.492,169.249,340.469"/>
<path class="path-1" d="M169.249,340.469C170.004,335.414,173.206,325.934,175.074,319.764"/>
<path class="path-1" d="M175.074,319.764C176.925,313.817,179.323,307.848,180.638,301.107"/>
<path class="path-1" d="M180.638,301.107C181.263,295.592,179.169,289.041,178.438,282.893"/>
<path class="path-1" d="M178.438,282.893C178.706,279.523,179.526,277.477,179.618,275.089"/>
<path class="path-1" d="M179.618,275.089C179.340,269.920,181.393,268.341,186.322,267.769"/>
<path class="path-2" d="M186.322,267.769C191.102,267.556,200.826,265.560,202.406,270.837C205.014,275.196,202.091,285.477,202.018,290.134C199.733,307.247,197.702,323.675,196.786,340.514C196.715,343.455,195.444,348.722,193.270,351.363C190.512,354.713,183.895,356.327,180.491,358.139C176.524,360.181,172.241,354.018,170.499,351.039C169.003,348.479,169.074,342.492,169.249,340.469C170.004,335.414,173.206,325.934,175.074,319.764C176.925,313.817,179.323,307.848,180.638,301.107C181.263,295.592,179.169,289.041,178.438,282.893C178.706,279.523,179.526,277.477,179.618,275.089C179.340,269.920,181.393,268.341,186.322,267.769Z"/>
<path class="path-1" d="M272.755,226.522C278.879,225.490,289.253,231.796,288.001,238.752"/>
<path class="path-1" d="M288.001,238.752C287.617,242.070,279.930,250.914,275.508,255.283"/>
<path class="path-1" d="M275.508,255.283C272.502,258.252,266.377,262.818,264.258,263.756"/>
<path class="path-1" d="M264.258,263.756C256.817,266.584,255.398,257.867,254.899,252.299"/>
<path class="path-1" d="M254.899,252.299C254.627,247.229,257.588,240.032,260.682,235.794"/>
<path class="path-1" d="M260.682,235.794C263.374,232.106,267.786,227.178,272.755,226.522"/>
<path class="path-2" d="M272.755,226.522C278.879,225.490,289.253,231.796,288.001,238.752C287.617,242.070,279.930,250.914,275.508,255.283C272.502,258.252,266.377,262.818,264.258,263.756C256.817,266.584,255.398,257.867,254.899,252.299C254.627,247.229,257.588,240.032,260.682,235.794C263.374,232.106,267.786,227.178,272.755,226.522Z"/>
<path class="path-1" d="M194.400,234.774C199.397,239.200,203.453,244.051,201.732,248.347"/>
<path class="path-1" d="M201.732,248.347C200.143,252.314,197.066,254.047,189.763,255.866"/>
<path class="path-1" d="M189.763,255.866C178.289,258.723,170.179,241.740,174.029,234.876"/>
<path class="path-1" d="M174.029,234.876C177.019,229.546,188.162,229.250,194.400,234.774"/>
<path class="path-2" d="M194.400,234.774C199.397,239.200,203.453,244.051,201.732,248.347C200.143,252.314,197.066,254.047,189.763,255.866C178.289,258.723,170.179,241.740,174.029,234.876C177.019,229.546,188.162,229.250,194.400,234.774Z"/>
</g>
<g id="left_arm">
<path class="path-0" d="M290.902,459.809C287.575,454.485,286.245,445.502,293.897,443.175C299.221,441.510,323.174,446.834,327.167,450.826C334.153,457.148,330.161,471.786,321.510,475.113C311.529,478.439,296.226,468.127,290.902,459.809M279.516,276.423C280.393,273.226,288.864,263.064,293.897,264.184C296.819,264.834,298.222,269.839,299.220,272.502C301.881,280.818,304.543,289.469,306.872,298.119C313.194,320.741,317.518,343.366,322.177,365.988C323.839,375.305,323.839,387.613,327.167,395.931C331.159,405.579,337.479,402.253,340.474,408.573C341.805,411.567,341.140,417.224,343.136,421.881C346.130,429.201,351.785,433.194,354.446,437.851C356.111,440.512,356.776,443.506,353.117,444.173C351.121,445.171,345.797,444.173,343.801,444.173C337.144,442.402,330.490,440.627,323.840,438.849C314.857,436.852,287.575,435.521,282.918,429.533C275.931,420.218,286.910,409.240,288.242,399.924C288.907,396.930,292.189,352.967,291.567,350.019C290.899,343.164,287.387,337.131,285.841,330.057C284.214,320.430,282.539,310.147,281.179,300.115C280.223,291.877,276.733,285.067,279.516,276.423M305.541,254.536C303.213,249.877,295.893,241.561,289.904,242.890C284.914,244.222,284.249,250.210,283.582,254.203C281.920,264.184,279.924,272.502,279.924,282.149C279.590,289.136,280.257,295.458,280.921,302.111C281.586,311.427,279.590,329.392,279.924,340.038C279.924,349.686,282.253,359.667,281.586,367.985C279.590,387.613,271.273,406.246,271.938,425.874C271.939,435.855,274.600,435.855,276.929,443.840C278.592,449.828,277.263,456.150,279.590,461.805C285.579,476.776,302.880,490.416,319.847,487.091C335.483,484.096,336.150,467.129,344.466,458.146C351.786,450.161,366.424,454.154,368.420,445.835C370.416,438.849,360.769,431.198,357.110,425.874C349.790,415.893,355.445,413.563,351.786,405.912C349.125,400.257,341.471,395.267,337.813,387.947C335.816,384.619,334.819,378.299,333.487,373.973C330.826,363.992,327.831,352.680,326.169,342.034C324.504,329.724,324.173,318.745,320.845,306.103C318.184,295.458,310.200,262.852,305.541,254.536Z"/>
<path class="path-1" d="M293.897,264.184C296.819,264.834,298.222,269.839,299.220,272.502"/>
<path class="path-1" d="M299.220,272.502C301.881,280.818,304.543,289.469,306.872,298.119"/>
<path class="path-1" d="M306.872,298.119C313.194,320.741,317.518,343.366,322.177,365.988"/>
<path class="path-1" d="M322.177,365.988C323.839,375.305,323.839,387.613,327.167,395.931"/>
<path class="path-1" d="M327.167,395.931C331.159,405.579,337.479,402.253,340.474,408.573"/>
<path class="path-1" d="M340.474,408.573C341.805,411.567,341.140,417.224,343.136,421.881"/>
<path class="path-1" d="M343.136,421.881C346.130,429.201,351.785,433.194,354.446,437.851"/>
<path class="path-1" d="M354.446,437.851C356.111,440.512,356.776,443.506,353.117,444.173"/>
<path class="path-1" d="M353.117,444.173C351.121,445.171,345.797,444.173,343.801,444.173"/>
<path class="path-1" d="M343.801,444.173C337.144,442.402,330.490,440.627,323.840,438.849"/>
<path class="path-1" d="M323.840,438.849C314.857,436.852,287.575,435.521,282.918,429.533"/>
<path class="path-1" d="M282.918,429.533C275.931,420.218,286.910,409.240,288.242,399.924"/>
<path class="path-1" d="M288.242,399.924C288.907,396.930,292.189,352.967,291.567,350.019"/>
<path class="path-1" d="M291.567,350.019C290.899,343.164,287.387,337.131,285.841,330.057"/>
<path class="path-1" d="M285.841,330.057C284.214,320.430,282.539,310.147,281.179,300.115"/>
<path class="path-1" d="M281.179,300.115C280.223,291.877,276.733,285.067,279.516,276.423"/>
<path class="path-1" d="M279.516,276.423C280.393,273.226,288.864,263.064,293.897,264.184"/>
<path class="path-2" d="M293.897,264.184C296.819,264.834,298.222,269.839,299.220,272.502C301.881,280.818,304.543,289.469,306.872,298.119C313.194,320.741,317.518,343.366,322.177,365.988C323.839,375.305,323.839,387.613,327.167,395.931C331.159,405.579,337.479,402.253,340.474,408.573C341.805,411.567,341.140,417.224,343.136,421.881C346.130,429.201,351.785,433.194,354.446,437.851C356.111,440.512,356.776,443.506,353.117,444.173C351.121,445.171,345.797,444.173,343.801,444.173C337.144,442.402,330.490,440.627,323.840,438.849C314.857,436.852,287.575,435.521,282.918,429.533C275.931,420.218,286.910,409.240,288.242,399.924C288.907,396.930,292.189,352.967,291.567,350.019C290.899,343.164,287.387,337.131,285.841,330.057C284.214,320.430,282.539,310.147,281.179,300.115C280.223,291.877,276.733,285.067,279.516,276.423C280.393,273.226,288.864,263.064,293.897,264.184Z"/>
<path class="path-15" d="M293.897,443.175C299.221,441.510,323.174,446.834,327.167,450.826"/>
<path class="path-15" d="M327.167,450.826C334.153,457.148,330.161,471.786,321.510,475.113"/>
<path class="path-15" d="M321.510,475.113C311.529,478.439,296.226,468.127,290.902,459.809"/>
<path class="path-15" d="M290.902,459.809C287.575,454.485,286.245,445.502,293.897,443.175"/>
<path class="path-16" d="M293.897,443.175C299.221,441.510,323.174,446.834,327.167,450.826C334.153,457.148,330.161,471.786,321.510,475.113C311.529,478.439,296.226,468.127,290.902,459.809C287.575,454.485,286.245,445.502,293.897,443.175Z"/>
</g>
<g id="bone">
<g id="bone1_clothes">
<path class="path-23" d="M231.387,385.783C231.389,385.778,246.760,328.827,246.761,328.821C246.761,328.827,242.361,387.652,242.361,387.657C242.359,387.657,231.388,385.784,231.387,385.783"/>
</g>
<g id="bone2_clothes">
<path class="path-23" d="M232.717,328.368C232.716,328.361,225.556,256.189,225.555,256.181C225.557,256.188,246.226,325.707,246.228,325.714C246.227,325.714,232.718,328.367,232.717,328.368"/>
</g>
<g id="bone3_neck">
<path class="path-23" d="M237.558,253.063C237.557,253.060,223.980,213.631,223.979,213.627C223.980,213.632,231.169,254.707,231.170,254.712C231.171,254.711,237.557,253.064,237.558,253.063"/>
</g>
<g id="bone4_head">
<path class="path-23" d="M230.553,210.912C230.555,210.905,254.989,136.763,254.992,136.756C254.990,136.763,242.666,213.848,242.665,213.856C242.664,213.855,230.554,210.913,230.553,210.912"/>
</g>
<g id="bone5_left_arm">
<path class="path-23" d="M298.266,255.897C298.267,255.906,315.447,346.763,315.448,346.772C315.445,346.764,283.075,260.148,283.072,260.139C283.074,260.139,298.264,255.898,298.266,255.897"/>
</g>
<g id="bone6_left_arm">
<path class="path-23" d="M300.876,348.375C300.876,348.381,298.090,412.057,298.090,412.063C298.091,412.057,311.234,349.691,311.236,349.684C311.235,349.684,300.877,348.375,300.876,348.375"/>
</g>
<g id="bone7_right_arm">
<path class="path-23" d="M169.131,269.641C169.129,269.653,149.258,383.430,149.256,383.441C149.259,383.430,186.833,274.214,186.837,274.203C186.835,274.203,169.133,269.642,169.131,269.641"/>
</g>
<g id="bone8_right_arm">
<path class="path-23" d="M157.157,379.808C157.160,379.814,181.052,434.331,181.054,434.336C181.051,434.331,146.694,385.725,146.691,385.720C146.692,385.720,157.156,379.809,157.157,379.808"/>
</g>
<g id="bone9_left_leg">
<path class="path-23" d="M271.647,383.747C271.650,383.757,300.782,485.275,300.785,485.285C300.780,485.276,254.517,390.340,254.513,390.330C254.514,390.330,271.645,383.747,271.647,383.747"/>
</g>
<g id="bone10_right_leg">
<path class="path-23" d="M209.430,385.313C209.430,385.323,207.619,489.045,207.619,489.055C207.621,489.045,224.870,386.751,224.872,386.741C224.870,386.741,209.432,385.313,209.430,385.313"/>
</g>
<g id="bone11_hair">
<path class="path-23" d="M234.077,155.533C234.079,155.541,258.488,231.920,258.490,231.928C258.486,231.921,220.512,161.299,220.508,161.292C220.510,161.291,234.076,155.534,234.077,155.533"/>
</g>
<g id="bone12_left_leg_S">
<path class="path-23" d="M435.378,222.274C435.385,222.274,507.672,225.142,507.680,225.142C507.672,225.141,436.839,210.435,436.832,210.433C436.831,210.434,435.378,222.272,435.378,222.274"/>
</g>
<g id="bone13_right_leg_S">
<path class="path-23" d="M495.238,210.794C495.231,210.796,425.165,228.809,425.158,228.811C425.165,228.810,497.239,222.554,497.246,222.553C497.246,222.552,495.238,210.796,495.238,210.794"/>
</g>
<g id="bone14_left_arm_S">
<path class="path-23" d="M557.459,215.989C557.458,215.981,551.495,143.884,551.494,143.876C551.494,143.884,545.530,215.981,545.530,215.989C545.531,215.989,557.458,215.989,557.459,215.989"/>
</g>
<g id="bone15_jacket_S">
<path class="path-23" d="M608.833,219.689C608.837,219.683,650.443,160.500,650.447,160.494C650.442,160.499,599.678,212.042,599.673,212.048C599.674,212.048,608.832,219.688,608.833,219.689"/>
</g>
<g id="bone16_pupils_S">
<path class="path-23" d="M442.221,337.675C442.220,337.668,440.191,265.352,440.190,265.345C440.189,265.352,430.310,337.019,430.309,337.026C430.310,337.026,442.219,337.675,442.221,337.675"/>
</g>
<g id="bone17_eyelids_S">
<path class="path-23" d="M502.205,336.209C502.203,336.202,482.157,266.691,482.155,266.684C482.156,266.691,490.508,338.551,490.509,338.558C490.510,338.558,502.203,336.209,502.205,336.209"/>
</g>
<g id="bone18_face_S">
<path class="path-23" d="M552.648,344.402C552.655,344.400,623.530,329.897,623.537,329.896C623.530,329.896,551.235,332.557,551.228,332.558C551.228,332.559,552.648,344.401,552.648,344.402"/>
</g>
</g>
</g>
<style>
.path-0{fill:#000000;fill-rule:evenodd;stroke:none;}
.path-1{fill:none;stroke:#a60d3f;stroke-width:1;stroke-linecap:butt;stroke-linejoin:round;}
.path-2{fill:#a60d3f;fill-rule:evenodd;stroke:none;}
.path-3{fill:none;stroke:#d88e4b;stroke-width:1;stroke-linecap:butt;stroke-linejoin:round;}
.path-4{fill:#d88e4b;fill-rule:evenodd;stroke:none;}
.path-5{fill:none;stroke:#6e2353;stroke-width:1;stroke-linecap:butt;stroke-linejoin:round;}
.path-6{fill:#6e2353;fill-rule:evenodd;stroke:none;}
.path-7{fill:none;stroke:#392966;stroke-width:1;stroke-linecap:butt;stroke-linejoin:round;}
.path-8{fill:#392966;fill-rule:evenodd;stroke:none;}
.path-9{fill:none;stroke:#cc9bc5;stroke-width:1;stroke-linecap:butt;stroke-linejoin:round;}
.path-10{fill:#cc9bc5;fill-rule:evenodd;stroke:none;}
.path-11{fill:none;stroke:#620527;stroke-width:1;stroke-linecap:butt;stroke-linejoin:round;}
.path-12{fill:#620527;fill-rule:evenodd;stroke:none;}
.path-13{fill:none;stroke:#6a3661;stroke-width:1;stroke-linecap:butt;stroke-linejoin:round;}
.path-14{fill:#6a3661;fill-rule:evenodd;stroke:none;}
.path-15{fill:none;stroke:#f8a087;stroke-width:1;stroke-linecap:butt;stroke-linejoin:round;}
.path-16{fill:#f8a087;fill-rule:evenodd;stroke:none;}
.path-17{fill:none;stroke:#ffffff;stroke-width:1;stroke-linecap:butt;stroke-linejoin:round;}
.path-18{fill:#ffffff;fill-rule:evenodd;stroke:none;}
.path-19{fill:none;stroke:#d89f4a;stroke-width:1;stroke-linecap:butt;stroke-linejoin:round;}
.path-20{fill:#d89f4a;fill-rule:evenodd;stroke:none;}
.path-21{fill:none;stroke:#fafd5b;stroke-width:1;stroke-linecap:butt;stroke-linejoin:round;}
.path-22{fill:#fafd5b;fill-rule:evenodd;stroke:none;}
.path-23{fill:none;stroke:#00ff42;stroke-width:8;stroke-linecap:round;stroke-linejoin:round;}
.path-24{fill:none;stroke:#000000;stroke-width:1;stroke-linecap:butt;stroke-linejoin:round;}
.path-25{fill:none;stroke:#ececec;stroke-width:1;stroke-linecap:butt;stroke-linejoin:round;}
.path-26{fill:#ececec;fill-rule:evenodd;stroke:none;}
.path-27{fill:none;stroke:#808080;stroke-width:1;stroke-linecap:butt;stroke-linejoin:round;}
.path-28{fill:#808080;fill-rule:evenodd;stroke:none;}
.path-29{fill:none;stroke:#282828;stroke-width:1;stroke-linecap:butt;stroke-linejoin:round;}
.path-30{fill:#282828;fill-rule:evenodd;stroke:none;}
</style>
</svg>
