<svg version="1.1" id="Frame_58" xmlns="http://www.w3.org/2000/svg" xmlns:xlink="http://www.w3.org/1999/xlink" width="480px" height="720px">
<g id="main_bone">
<g id="right_arm">
<path class="path-0" d="M191.495,271.002C193.442,268.636,197.273,263.725,201.316,262.980C207.989,261.751,212.335,268.337,212.171,272.894C212.186,280.978,204.138,290.247,200.065,297.413C190.176,314.564,179.841,331.526,172.894,349.506C171.933,352.670,165.370,373.250,165.610,370.630C164.683,377.155,170.741,383.322,172.561,389.093C174.855,396.848,171.426,403.715,169.167,410.501C164.107,424.319,164.253,429.605,164.357,443.326C164.473,445.472,164.949,452.414,161.597,452.864C158.123,453.330,157.025,447.032,156.102,444.651C155.521,442.016,152.721,436.485,153.298,434.118C153.467,430.185,157.893,431.322,153.241,423.002C147.258,412.536,136.676,403.162,134.798,389.698C133.698,379.028,139.938,370.233,144.009,360.750C152.743,340.243,162.323,319.815,173.621,300.248C179.768,290.023,183.621,281.053,191.495,271.002M212.888,266.690C214.635,258.400,213.009,250.642,202.071,252.035C184.076,254.261,172.985,279.153,165.438,293.094C155.023,311.720,146.137,330.858,138.028,350.274C134.709,358.519,131.273,362.587,129.514,367.400C127.372,372.831,126.911,381.396,126.774,387.005C125.308,404.544,130.327,405.951,136.908,419.760C140.386,427.958,136.618,432.970,139.223,439.967C141.178,444.890,145.246,448.303,148.486,452.291C151.368,456.304,152.249,458.582,154.458,462.266C157.145,466.690,165.048,476.818,170.810,473.775C174.877,471.608,173.637,463.941,173.490,460.210C173.115,454.618,174.205,432.867,175.344,426.319C177.422,415.328,184.295,403.967,183.578,391.957C182.957,382.703,175.390,375.443,176.650,365.682C177.472,360.493,181.484,352.314,183.225,346.594C186.051,337.487,187.602,327.531,191.395,318.371C198.003,301.906,209.804,284.530,212.888,266.690Z"/>
<path class="path-1" d="M201.316,262.980C207.989,261.751,212.335,268.337,212.171,272.894"/>
<path class="path-1" d="M212.171,272.894C212.186,280.978,204.138,290.247,200.065,297.413"/>
<path class="path-1" d="M200.065,297.413C190.176,314.564,179.841,331.526,172.894,349.506"/>
<path class="path-1" d="M172.894,349.506C171.933,352.670,165.370,373.250,165.610,370.630"/>
<path class="path-1" d="M165.610,370.630C164.683,377.155,170.741,383.322,172.561,389.093"/>
<path class="path-1" d="M172.561,389.093C174.855,396.848,171.426,403.715,169.167,410.501"/>
<path class="path-1" d="M169.167,410.501C164.107,424.319,164.253,429.605,164.357,443.326"/>
<path class="path-1" d="M164.357,443.326C164.473,445.472,164.949,452.414,161.597,452.864"/>
<path class="path-1" d="M161.597,452.864C158.123,453.330,157.025,447.032,156.102,444.651"/>
<path class="path-1" d="M156.102,444.651C155.521,442.016,152.721,436.485,153.298,434.118"/>
<path class="path-1" d="M153.298,434.118C153.467,430.185,157.893,431.322,153.241,423.002"/>
<path class="path-1" d="M153.241,423.002C147.258,412.536,136.676,403.162,134.798,389.698"/>
<path class="path-1" d="M134.798,389.698C133.698,379.028,139.938,370.233,144.009,360.750"/>
<path class="path-1" d="M144.009,360.750C152.743,340.243,162.323,319.815,173.621,300.248"/>
<path class="path-1" d="M173.621,300.248C179.768,290.023,183.621,281.053,191.495,271.002"/>
<path class="path-1" d="M191.495,271.002C193.442,268.636,197.273,263.725,201.316,262.980"/>
<path class="path-2" d="M201.316,262.980C207.989,261.751,212.335,268.337,212.171,272.894C212.186,280.978,204.138,290.247,200.065,297.413C190.176,314.564,179.841,331.526,172.894,349.506C171.933,352.670,165.370,373.250,165.610,370.630C164.683,377.155,170.741,383.322,172.561,389.093C174.855,396.848,171.426,403.715,169.167,410.501C164.107,424.319,164.253,429.605,164.357,443.326C164.473,445.472,164.949,452.414,161.597,452.864C158.123,453.330,157.025,447.032,156.102,444.651C155.521,442.016,152.721,436.485,153.298,434.118C153.467,430.185,157.893,431.322,153.241,423.002C147.258,412.536,136.676,403.162,134.798,389.698C133.698,379.028,139.938,370.233,144.009,360.750C152.743,340.243,162.323,319.815,173.621,300.248C179.768,290.023,183.621,281.053,191.495,271.002C193.442,268.636,197.273,263.725,201.316,262.980Z"/>
</g>
<g id="layer_left_leg">
<g id="left_heel">
<path class="path-0" d="M260.102,665.776C254.082,653.650,267.198,636.347,278.586,634.451C297.329,631.184,312.898,656.159,310.582,662.833C306.510,673.471,287.266,672.150,277.570,671.649C272.958,671.258,262.022,669.794,260.102,665.776M308.204,633.124C296.693,622.690,271.199,624.765,259.426,632.621C240.299,645.003,236.050,683.816,263.665,685.186C276.984,685.894,307.034,684.592,315.124,678.703C322.870,673.578,321.770,662.161,319.793,653.706C317.807,647.025,313.456,638.023,308.204,633.124Z"/>
<path class="path-3" d="M278.586,634.451C297.329,631.184,312.898,656.159,310.582,662.833"/>
<path class="path-3" d="M310.582,662.833C306.510,673.471,287.266,672.150,277.570,671.649"/>
<path class="path-3" d="M277.570,671.649C272.958,671.258,262.022,669.794,260.102,665.776"/>
<path class="path-3" d="M260.102,665.776C254.082,653.650,267.198,636.347,278.586,634.451"/>
<path class="path-4" d="M278.586,634.451C297.329,631.184,312.898,656.159,310.582,662.833C306.510,673.471,287.266,672.150,277.570,671.649C272.958,671.258,262.022,669.794,260.102,665.776C254.082,653.650,267.198,636.347,278.586,634.451Z"/>
</g>
<g id="left_leg">
<path class="path-0" d="M248.133,411.129C249.911,406.535,259.350,410.349,263.226,410.155C269.587,410.147,284.178,407.256,289.111,411.467C295.808,416.808,294.394,440.807,294.324,449.047C293.253,477.879,296.455,504.938,297.995,532.756C298.365,544.521,297.125,556.935,299.746,568.174C301.777,575.491,307.845,581.558,310.576,588.177C312.044,594.847,316.750,602.183,312.992,607.279C304.008,617.991,299.245,612.426,291.238,618.326C282.023,624.690,265.659,628.193,256.537,623.699C250.176,620.825,240.486,611.016,238.968,604.299C234.566,584.811,236.807,561.619,236.532,542.025C236.223,520.005,250.036,474.426,245.447,451.270C242.805,437.935,246.924,436.301,252.133,426.879C252.863,425.555,246.557,423.911,245.787,422.585C244.002,420.010,246.875,413.920,248.133,411.129M295.435,403.622C289.145,398.407,270.957,400.174,263.376,400.509C259.344,400.672,246.713,397.614,243.755,399.466C228.831,408.809,235.346,441.982,235.791,456.331C235.561,462.799,228.381,492.939,227.173,501.567C224.919,529.612,219.859,553.721,221.945,581.780C222.802,595.801,222.575,609.834,228.399,622.405C237.300,641.269,254.699,643.929,278.715,642.023C293.245,640.907,322.137,639.409,329.745,612.479C334.277,596.389,325.113,575.777,322.299,570.864C319.367,565.746,314.653,561.236,312.717,555.219C306.429,537.765,311.985,518.194,310.709,499.578C309.172,476.841,313.922,419.019,295.435,403.622Z"/>
<path class="path-7" d="M263.226,410.155C269.587,410.147,284.178,407.256,289.111,411.467"/>
<path class="path-7" d="M289.111,411.467C295.808,416.808,294.394,440.807,294.324,449.047"/>
<path class="path-7" d="M294.324,449.047C293.253,477.879,296.455,504.938,297.995,532.756"/>
<path class="path-7" d="M297.995,532.756C298.365,544.521,297.125,556.935,299.746,568.174"/>
<path class="path-7" d="M299.746,568.174C301.777,575.491,307.845,581.558,310.576,588.177"/>
<path class="path-7" d="M310.576,588.177C312.044,594.847,316.750,602.183,312.992,607.279"/>
<path class="path-7" d="M312.992,607.279C304.008,617.991,299.245,612.426,291.238,618.326"/>
<path class="path-7" d="M291.238,618.326C282.023,624.690,265.659,628.193,256.537,623.699"/>
<path class="path-7" d="M256.537,623.699C250.176,620.825,240.486,611.016,238.968,604.299"/>
<path class="path-7" d="M238.968,604.299C234.566,584.811,236.807,561.619,236.532,542.025"/>
<path class="path-7" d="M236.532,542.025C236.223,520.005,250.036,474.426,245.447,451.270"/>
<path class="path-7" d="M245.447,451.270C242.805,437.935,246.924,436.301,252.133,426.879"/>
<path class="path-7" d="M252.133,426.879C252.863,425.555,246.557,423.911,245.787,422.585"/>
<path class="path-7" d="M245.787,422.585C244.002,420.010,246.875,413.920,248.133,411.129"/>
<path class="path-7" d="M248.133,411.129C249.911,406.535,259.350,410.349,263.226,410.155"/>
<path class="path-8" d="M263.226,410.155C269.587,410.147,284.178,407.256,289.111,411.467C295.808,416.808,294.394,440.807,294.324,449.047C293.253,477.879,296.455,504.938,297.995,532.756C298.365,544.521,297.125,556.935,299.746,568.174C301.777,575.491,307.845,581.558,310.576,588.177C312.044,594.847,316.750,602.183,312.992,607.279C304.008,617.991,299.245,612.426,291.238,618.326C282.023,624.690,265.659,628.193,256.537,623.699C250.176,620.825,240.486,611.016,238.968,604.299C234.566,584.811,236.807,561.619,236.532,542.025C236.223,520.005,250.036,474.426,245.447,451.270C242.805,437.935,246.924,436.301,252.133,426.879C252.863,425.555,246.557,423.911,245.787,422.585C244.002,420.010,246.875,413.920,248.133,411.129C249.911,406.535,259.350,410.349,263.226,410.155Z"/>
</g>
<g id="left_toe">
<path class="path-0" d="M252.647,673.288C224.716,664.492,237.706,625.298,258.168,620.514C281.091,615.199,303.487,624.646,309.275,636.144C314.781,645.944,315.280,657.295,309.117,667.006C298.646,680.824,267.454,677.901,252.647,673.288M324.594,637.274C318.648,616.988,299.182,603.580,281.726,602.419C255.544,600.705,234.188,610.689,227.462,635.658C222.934,650.482,225.254,666.159,234.742,678.416C242.777,688.153,270.834,689.880,282.881,689.245C293.999,687.889,307.983,685.806,316.039,676.804C322.331,669.980,327.136,645.984,324.594,637.274Z"/>
<path class="path-3" d="M258.168,620.514C281.091,615.199,303.487,624.646,309.275,636.144"/>
<path class="path-3" d="M309.275,636.144C314.781,645.944,315.280,657.295,309.117,667.006"/>
<path class="path-3" d="M309.117,667.006C298.646,680.824,267.454,677.901,252.647,673.288"/>
<path class="path-3" d="M252.647,673.288C224.716,664.492,237.706,625.298,258.168,620.514"/>
<path class="path-4" d="M258.168,620.514C281.091,615.199,303.487,624.646,309.275,636.144C314.781,645.944,315.280,657.295,309.117,667.006C298.646,680.824,267.454,677.901,252.647,673.288C224.716,664.492,237.706,625.298,258.168,620.514Z"/>
</g>
<g id="left_sole">
<path class="path-0" d="M257.755,691.021C249.292,689.536,247.155,682.393,245.405,684.541C243.792,686.521,251.966,690.024,255.718,691.138C264.518,694.003,283.269,694.678,293.429,689.838C295.440,689.072,301.651,687.108,301.822,687.124C306.613,687.589,292.549,691.045,289.376,691.362C284.821,692.187,258.781,690.867,257.755,691.021M244.610,681.713C248.145,679.147,258.115,678.852,261.690,679.031C282.331,680.066,289.882,678.751,296.765,679.403C299.134,679.638,306.128,677.052,306.700,681.823C307.698,690.156,276.528,693.073,257.846,687.891C250.740,686.270,243.019,682.868,244.610,681.713M314.873,679.702C312.486,673.966,292.343,667.885,270.059,668.034C260.998,668.109,237.579,668.800,234.226,680.342C233.635,682.392,234.960,688.862,236.710,690.006C248.128,697.572,306.882,696.835,312.467,691.396C314.187,689.721,315.845,682.040,314.873,679.702Z"/>
<path class="path-5" d="M245.405,684.541C243.792,686.521,251.966,690.024,255.718,691.138"/>
<path class="path-5" d="M255.718,691.138C264.518,694.003,283.269,694.678,293.429,689.838"/>
<path class="path-5" d="M293.429,689.838C295.440,689.072,301.651,687.108,301.822,687.124"/>
<path class="path-5" d="M301.822,687.124C306.613,687.589,292.549,691.045,289.376,691.362"/>
<path class="path-5" d="M289.376,691.362C284.821,692.187,258.781,690.867,257.755,691.021"/>
<path class="path-5" d="M257.755,691.021C249.292,689.536,247.155,682.393,245.405,684.541"/>
<path class="path-6" d="M245.405,684.541C243.792,686.521,251.966,690.024,255.718,691.138C264.518,694.003,283.269,694.678,293.429,689.838C295.440,689.072,301.651,687.108,301.822,687.124C306.613,687.589,292.549,691.045,289.376,691.362C284.821,692.187,258.781,690.867,257.755,691.021C249.292,689.536,247.155,682.393,245.405,684.541Z"/>
<path class="path-5" d="M261.690,679.031C282.331,680.066,289.882,678.751,296.765,679.403"/>
<path class="path-5" d="M296.765,679.403C299.134,679.638,306.128,677.052,306.700,681.823"/>
<path class="path-5" d="M306.700,681.823C307.698,690.156,276.528,693.073,257.846,687.891"/>
<path class="path-5" d="M257.846,687.891C250.740,686.270,243.019,682.868,244.610,681.713"/>
<path class="path-5" d="M244.610,681.713C248.145,679.147,258.115,678.852,261.690,679.031"/>
<path class="path-6" d="M261.690,679.031C282.331,680.066,289.882,678.751,296.765,679.403C299.134,679.638,306.128,677.052,306.700,681.823C307.698,690.156,276.528,693.073,257.846,687.891C250.740,686.270,243.019,682.868,244.610,681.713C248.145,679.147,258.115,678.852,261.690,679.031Z"/>
</g>
</g>
<g id="layer_right_leg">
<g id="right_sole">
<path class="path-0" d="M192.715,599.954C193.841,600.575,207.723,601.744,209.123,601.974C210.339,602.212,218.391,603.606,219.441,603.662C220.058,603.722,226.620,604.633,227.001,605.369C227.410,604.892,219.294,605.376,218.795,605.303C218.041,605.245,195.208,602.120,194.946,602.168C193.461,602.107,183.753,599.480,183.693,598.391C184.608,598.013,191.399,599.223,192.715,599.954M223.303,599.737C223.218,600.033,222.200,600.795,221.725,600.699C220.754,600.508,212.677,600.402,211.442,599.892C209.983,599.572,205.213,599.048,203.893,598.787C201.693,598.353,193.611,596.558,191.578,595.642C190.845,595.145,189.366,593.961,189.314,593.534C189.392,593.247,192.812,595.075,193.929,595.362C195.983,595.891,203.991,596.714,206.142,597.037C208.352,597.370,216.353,598.957,218.647,599.085C219.008,599.114,223.102,598.957,223.303,599.737M229.892,599.114C221.804,595.212,213.564,597.170,206.846,595.386C201.108,593.861,189.325,590.635,182.398,593.139C181.314,593.531,179.566,594.317,179.385,595.522C179.163,597.018,181.126,600.372,182.738,601.753C184.732,603.459,189.282,603.990,191.036,604.523C199.830,607.548,211.175,609.048,220.667,610.147C228.218,611.032,230.035,607.306,231.176,603.805C231.628,602.418,232.496,600.330,229.892,599.114Z"/>
<path class="path-5" d="M192.715,599.954C193.841,600.575,207.723,601.744,209.123,601.974"/>
<path class="path-5" d="M209.123,601.974C210.339,602.212,218.391,603.606,219.441,603.662"/>
<path class="path-5" d="M219.441,603.662C220.058,603.722,226.620,604.633,227.001,605.369"/>
<path class="path-5" d="M227.001,605.369C227.410,604.892,219.294,605.376,218.795,605.303"/>
<path class="path-5" d="M218.795,605.303C218.041,605.245,195.208,602.120,194.946,602.168"/>
<path class="path-5" d="M194.946,602.168C193.461,602.107,183.753,599.480,183.693,598.391"/>
<path class="path-5" d="M183.693,598.391C184.608,598.013,191.399,599.223,192.715,599.954"/>
<path class="path-6" d="M192.715,599.954C193.841,600.575,207.723,601.744,209.123,601.974C210.339,602.212,218.391,603.606,219.441,603.662C220.058,603.722,226.620,604.633,227.001,605.369C227.410,604.892,219.294,605.376,218.795,605.303C218.041,605.245,195.208,602.120,194.946,602.168C193.461,602.107,183.753,599.480,183.693,598.391C184.608,598.013,191.399,599.223,192.715,599.954Z"/>
<path class="path-5" d="M193.929,595.362C195.983,595.891,203.991,596.714,206.142,597.037"/>
<path class="path-5" d="M206.142,597.037C208.352,597.370,216.353,598.957,218.647,599.085"/>
<path class="path-5" d="M218.647,599.085C219.008,599.114,223.102,598.957,223.303,599.737"/>
<path class="path-5" d="M223.303,599.737C223.218,600.033,222.200,600.795,221.725,600.699"/>
<path class="path-5" d="M221.725,600.699C220.754,600.508,212.677,600.402,211.442,599.892"/>
<path class="path-5" d="M211.442,599.892C209.983,599.572,205.213,599.048,203.893,598.787"/>
<path class="path-5" d="M203.893,598.787C201.693,598.353,193.611,596.558,191.578,595.642"/>
<path class="path-5" d="M191.578,595.642C190.845,595.145,189.366,593.961,189.314,593.534"/>
<path class="path-5" d="M189.314,593.534C189.392,593.247,192.812,595.075,193.929,595.362"/>
<path class="path-6" d="M193.929,595.362C195.983,595.891,203.991,596.714,206.142,597.037C208.352,597.370,216.353,598.957,218.647,599.085C219.008,599.114,223.102,598.957,223.303,599.737C223.218,600.033,222.200,600.795,221.725,600.699C220.754,600.508,212.677,600.402,211.442,599.892C209.983,599.572,205.213,599.048,203.893,598.787C201.693,598.353,193.611,596.558,191.578,595.642C190.845,595.145,189.366,593.961,189.314,593.534C189.392,593.247,192.812,595.075,193.929,595.362Z"/>
</g>
<g id="right_heel">
<path class="path-0" d="M184.694,545.544C187.400,531.052,189.824,519.803,207.976,519.555C216.031,519.301,230.720,523.783,234.063,531.978C235.862,536.092,234.411,541.596,234.107,545.701C233.668,552.414,236.136,565.772,226.552,566.159C225.927,566.245,209.220,564.464,204.000,563.953C197.388,563.921,190.528,563.589,186.391,558.478C184.251,555.218,183.974,549.014,184.694,545.544M242.662,531.533C240.397,521.882,228.497,514.955,219.424,515.079C207.514,515.096,196.026,509.722,186.989,519.698C179.868,527.559,177.180,543.356,177.693,553.658C177.775,558.342,179.586,567.102,183.077,570.141C185.648,572.283,190.042,572.332,193.352,572.758C209.358,575.080,237.241,584.108,240.011,560.138C240.674,553.812,243.870,536.764,242.662,531.533Z"/>
<path class="path-3" d="M207.976,519.555C216.031,519.301,230.720,523.783,234.063,531.978"/>
<path class="path-3" d="M234.063,531.978C235.862,536.092,234.411,541.596,234.107,545.701"/>
<path class="path-3" d="M234.107,545.701C233.668,552.414,236.136,565.772,226.552,566.159"/>
<path class="path-3" d="M226.552,566.159C225.927,566.245,209.220,564.464,204.000,563.953"/>
<path class="path-3" d="M204.000,563.953C197.388,563.921,190.528,563.589,186.391,558.478"/>
<path class="path-3" d="M186.391,558.478C184.251,555.218,183.974,549.014,184.694,545.544"/>
<path class="path-3" d="M184.694,545.544C187.400,531.052,189.824,519.803,207.976,519.555"/>
<path class="path-4" d="M207.976,519.555C216.031,519.301,230.720,523.783,234.063,531.978C235.862,536.092,234.411,541.596,234.107,545.701C233.668,552.414,236.136,565.772,226.552,566.159C225.927,566.245,209.220,564.464,204.000,563.953C197.388,563.921,190.528,563.589,186.391,558.478C184.251,555.218,183.974,549.014,184.694,545.544C187.400,531.052,189.824,519.803,207.976,519.555Z"/>
</g>
<g id="right_toe">
<path class="path-0" d="M180.594,580.522C182.724,570.333,189.092,558.528,201.807,557.812C205.098,557.455,209.582,559.081,213.139,560.028C230.731,564.664,237.351,569.274,236.677,587.612C236.442,591.739,236.717,596.765,233.588,600.044C229.327,604.429,209.470,602.860,203.458,602.044C193.631,600.926,185.549,600.444,180.810,590.533C178.899,586.428,179.734,584.669,180.594,580.522M243.569,572.618C239.147,560.780,213.073,553.152,201.051,553.672C184.124,554.497,175.335,564.746,172.095,578.551C170.881,583.555,169.628,589.246,171.907,593.932C172.886,595.944,175.340,598.470,176.887,600.097C186.729,611.351,193.775,611.472,207.692,612.303C215.537,612.903,228.316,612.095,235.193,607.580C239.561,604.412,241.088,600.961,242.058,595.970C242.808,591.212,245.143,576.373,243.569,572.618Z"/>
<path class="path-3" d="M201.807,557.812C205.098,557.455,209.582,559.081,213.139,560.028"/>
<path class="path-3" d="M213.139,560.028C230.731,564.664,237.351,569.274,236.677,587.612"/>
<path class="path-3" d="M236.677,587.612C236.442,591.739,236.717,596.765,233.588,600.044"/>
<path class="path-3" d="M233.588,600.044C229.327,604.429,209.470,602.860,203.458,602.044"/>
<path class="path-3" d="M203.458,602.044C193.631,600.926,185.549,600.444,180.810,590.533"/>
<path class="path-3" d="M180.810,590.533C178.899,586.428,179.734,584.669,180.594,580.522"/>
<path class="path-3" d="M180.594,580.522C182.724,570.333,189.092,558.528,201.807,557.812"/>
<path class="path-4" d="M201.807,557.812C205.098,557.455,209.582,559.081,213.139,560.028C230.731,564.664,237.351,569.274,236.677,587.612C236.442,591.739,236.717,596.765,233.588,600.044C229.327,604.429,209.470,602.860,203.458,602.044C193.631,600.926,185.549,600.444,180.810,590.533C178.899,586.428,179.734,584.669,180.594,580.522C182.724,570.333,189.092,558.528,201.807,557.812Z"/>
</g>
<g id="right_leg">
<path class="path-0" d="M193.130,404.693C198.697,394.885,212.238,394.761,221.532,398.192C227.272,400.179,237.331,402.917,240.189,408.664C242.806,413.926,239.435,422.469,237.759,428.102C235.021,437.304,214.124,460.101,223.244,456.621C233.380,452.752,240.784,435.784,245.228,442.284C246.631,444.336,243.224,447.320,242.413,450.076C238.011,468.472,233.219,487.860,233.416,506.210C233.423,515.146,234.985,528.188,236.735,536.283C239.076,549.178,235.570,551.937,235.625,559.716C235.528,561.470,235.672,570.318,235.433,572.663C234.949,578.547,231.320,584.168,229.067,589.656C226.726,595.359,217.857,600.911,212.323,602.542C208.870,603.486,198.729,606.015,195.162,605.127C190.844,604.185,184.947,600.271,182.815,596.041C181.736,594.159,180.432,584.905,180.155,582.566C179.793,578.057,174.932,576.406,177.372,571.705C179.142,567.994,190.848,571.716,189.391,567.768C185.373,556.877,180.508,535.927,180.113,526.735C179.782,521.831,175.817,505.797,176.256,501.261C181.849,448.396,177.426,437.139,193.130,404.693M218.351,385.924C212.998,383.221,209.299,376.999,203.193,378.601C201.492,379.203,198.646,381.334,197.347,382.389C180.795,393.705,177.015,404.770,173.877,423.121C171.444,434.477,169.127,446.387,168.648,457.538C167.203,480.452,163.878,500.451,166.974,521.822C167.778,525.618,170.623,528.983,171.954,533.594C172.745,536.103,172.946,539.252,173.897,543.617C174.297,546.397,176.883,548.896,176.070,551.454C175.545,553.320,170.407,554.844,169.541,556.066C166.613,559.196,165.850,564.680,164.819,568.596C163.862,573.319,165.348,578.131,166.520,582.548C167.826,588.772,169.273,596.707,172.330,601.846C174.768,605.943,178.617,609.287,182.153,612.136C184.914,614.334,187.549,616.145,190.793,617.615C194.293,619.233,197.787,621.404,201.796,621.498C203.028,621.337,212.683,617.849,214.504,617.015C215.936,616.258,216.955,613.641,218.302,612.584C219.723,611.340,222.603,611.741,224.371,610.940C228.359,609.132,232.518,607.280,235.678,604.245C251.380,588.730,246.468,573.177,246.921,553.900C247.107,545.955,245.975,529.678,246.712,520.908C247.503,508.451,250.433,496.533,252.186,483.784C253.135,477.781,255.075,470.737,256.121,463.887C256.680,459.733,254.929,456.439,254.731,452.315C254.269,448.022,255.829,434.297,255.653,429.642C255.658,425.924,256.387,421.350,255.535,417.551C253.097,407.844,240.556,395.830,231.699,391.669C227.294,389.423,222.386,388.456,218.351,385.924Z"/>
<path class="path-7" d="M221.532,398.192C227.272,400.179,237.331,402.917,240.189,408.664"/>
<path class="path-7" d="M240.189,408.664C242.806,413.926,239.435,422.469,237.759,428.102"/>
<path class="path-7" d="M237.759,428.102C235.021,437.304,214.124,460.101,223.244,456.621"/>
<path class="path-7" d="M223.244,456.621C233.380,452.752,240.784,435.784,245.228,442.284"/>
<path class="path-7" d="M245.228,442.284C246.631,444.336,243.224,447.320,242.413,450.076"/>
<path class="path-7" d="M242.413,450.076C238.011,468.472,233.219,487.860,233.416,506.210"/>
<path class="path-7" d="M233.416,506.210C233.423,515.146,234.985,528.188,236.735,536.283"/>
<path class="path-7" d="M236.735,536.283C239.076,549.178,235.570,551.937,235.625,559.716"/>
<path class="path-7" d="M235.625,559.716C235.528,561.470,235.672,570.318,235.433,572.663"/>
<path class="path-7" d="M235.433,572.663C234.949,578.547,231.320,584.168,229.067,589.656"/>
<path class="path-7" d="M229.067,589.656C226.726,595.359,217.857,600.911,212.323,602.542"/>
<path class="path-7" d="M212.323,602.542C208.870,603.486,198.729,606.015,195.162,605.127"/>
<path class="path-7" d="M195.162,605.127C190.844,604.185,184.947,600.271,182.815,596.041"/>
<path class="path-7" d="M182.815,596.041C181.736,594.159,180.432,584.905,180.155,582.566"/>
<path class="path-7" d="M180.155,582.566C179.793,578.057,174.932,576.406,177.372,571.705"/>
<path class="path-7" d="M177.372,571.705C179.142,567.994,190.848,571.716,189.391,567.768"/>
<path class="path-7" d="M189.391,567.768C185.373,556.877,180.508,535.927,180.113,526.735"/>
<path class="path-7" d="M180.113,526.735C179.782,521.831,175.817,505.797,176.256,501.261"/>
<path class="path-7" d="M176.256,501.261C181.849,448.396,177.426,437.139,193.130,404.693"/>
<path class="path-7" d="M193.130,404.693C198.697,394.885,212.238,394.761,221.532,398.192"/>
<path class="path-8" d="M221.532,398.192C227.272,400.179,237.331,402.917,240.189,408.664C242.806,413.926,239.435,422.469,237.759,428.102C235.021,437.304,214.124,460.101,223.244,456.621C233.380,452.752,240.784,435.784,245.228,442.284C246.631,444.336,243.224,447.320,242.413,450.076C238.011,468.472,233.219,487.860,233.416,506.210C233.423,515.146,234.985,528.188,236.735,536.283C239.076,549.178,235.570,551.937,235.625,559.716C235.528,561.470,235.672,570.318,235.433,572.663C234.949,578.547,231.320,584.168,229.067,589.656C226.726,595.359,217.857,600.911,212.323,602.542C208.870,603.486,198.729,606.015,195.162,605.127C190.844,604.185,184.947,600.271,182.815,596.041C181.736,594.159,180.432,584.905,180.155,582.566C179.793,578.057,174.932,576.406,177.372,571.705C179.142,567.994,190.848,571.716,189.391,567.768C185.373,556.877,180.508,535.927,180.113,526.735C179.782,521.831,175.817,505.797,176.256,501.261C181.849,448.396,177.426,437.139,193.130,404.693C198.697,394.885,212.238,394.761,221.532,398.192Z"/>
</g>
</g>
<g id="hat_brim">
<path class="path-0" d="M301.740,154.674C305.311,148.632,314.056,132.201,322.040,132.085C327.363,132.007,338.481,141.496,344.179,144.407C349.213,147.329,354.575,149.912,360.268,152.490C363.505,154.113,366.744,155.729,369.987,157.340C384.399,164.451,380.499,170.831,372.162,169.620C353.486,166.563,350.511,167.939,332.412,158.885C330.068,157.921,324.032,154.683,323.097,159.021C321.840,164.030,330.885,168.224,334.568,169.834C341.274,173.397,348.651,177.283,356.644,177.831C358.978,178.131,366.953,177.347,368.316,179.657C370.360,182.955,360.840,191.745,358.873,193.770C355.589,196.812,352.307,199.855,349.014,202.232C344.073,205.630,338.793,208.702,333.153,209.782C322.528,211.268,289.038,196.449,287.871,184.821C287.109,178.179,297.840,161.053,301.740,154.674M333.953,127.587C328.900,123.334,325.149,117.066,317.878,120.500C312.589,122.907,307.046,130.640,303.445,134.685C290.047,151.516,278.026,171.324,279.005,192.936C279.537,206.570,284.189,206.170,295.244,211.332C311.997,219.407,333.327,221.758,351.170,213.181C362.735,207.689,382.767,189.430,387.915,177.376C389.520,173.360,392.382,164.335,389.985,159.712C387.242,154.094,364.813,144.772,358.108,141.210C350.061,137.001,341.021,133.140,333.953,127.587Z"/>
<path class="path-9" d="M322.040,132.085C327.363,132.007,338.481,141.496,344.179,144.407"/>
<path class="path-9" d="M344.179,144.407C349.213,147.329,354.575,149.912,360.268,152.490"/>
<path class="path-9" d="M360.268,152.490C363.505,154.113,366.744,155.729,369.987,157.340"/>
<path class="path-9" d="M369.987,157.340C384.399,164.451,380.499,170.831,372.162,169.620"/>
<path class="path-9" d="M372.162,169.620C353.486,166.563,350.511,167.939,332.412,158.885"/>
<path class="path-9" d="M332.412,158.885C330.068,157.921,324.032,154.683,323.097,159.021"/>
<path class="path-9" d="M323.097,159.021C321.840,164.030,330.885,168.224,334.568,169.834"/>
<path class="path-9" d="M334.568,169.834C341.274,173.397,348.651,177.283,356.644,177.831"/>
<path class="path-9" d="M356.644,177.831C358.978,178.131,366.953,177.347,368.316,179.657"/>
<path class="path-9" d="M368.316,179.657C370.360,182.955,360.840,191.745,358.873,193.770"/>
<path class="path-9" d="M358.873,193.770C355.589,196.812,352.307,199.855,349.014,202.232"/>
<path class="path-9" d="M349.014,202.232C344.073,205.630,338.793,208.702,333.153,209.782"/>
<path class="path-9" d="M333.153,209.782C322.528,211.268,289.038,196.449,287.871,184.821"/>
<path class="path-9" d="M287.871,184.821C287.109,178.179,297.840,161.053,301.740,154.674"/>
<path class="path-9" d="M301.740,154.674C305.311,148.632,314.056,132.201,322.040,132.085"/>
<path class="path-10" d="M322.040,132.085C327.363,132.007,338.481,141.496,344.179,144.407C349.213,147.329,354.575,149.912,360.268,152.490C363.505,154.113,366.744,155.729,369.987,157.340C384.399,164.451,380.499,170.831,372.162,169.620C353.486,166.563,350.511,167.939,332.412,158.885C330.068,157.921,324.032,154.683,323.097,159.021C321.840,164.030,330.885,168.224,334.568,169.834C341.274,173.397,348.651,177.283,356.644,177.831C358.978,178.131,366.953,177.347,368.316,179.657C370.360,182.955,360.840,191.745,358.873,193.770C355.589,196.812,352.307,199.855,349.014,202.232C344.073,205.630,338.793,208.702,333.153,209.782C322.528,211.268,289.038,196.449,287.871,184.821C287.109,178.179,297.840,161.053,301.740,154.674C305.311,148.632,314.056,132.201,322.040,132.085Z"/>
</g>
<g id="hair">
<path class="path-0" d="M199.624,146.422C216.114,133.177,235.904,130.472,256.851,127.921C266.240,126.760,273.222,132.641,280.940,138.336C287.304,143.362,294.169,149.049,300.924,154.318C311.086,162.188,315.403,166.201,319.268,170.057C322.545,172.989,327.717,178.541,331.713,181.058C336.534,184.094,347.047,200.419,349.234,202.183C342.802,204.949,332.545,207.438,328.085,211.655C330.204,217.329,331.277,226.300,331.506,229.000C325.354,229.929,317.934,227.713,306.346,226.560C304.603,233.909,305.160,240.615,301.063,248.263C293.193,246.546,287.691,245.095,277.396,241.472C271.264,247.187,269.696,246.904,259.565,254.269C252.142,250.520,246.133,246.366,239.009,244.089C232.492,247.518,221.871,249.401,218.479,252.612C214.116,245.905,209.999,238.442,206.482,235.343C197.079,238.078,193.191,241.028,186.637,244.030C181.987,238.875,184.622,234.101,179.303,226.401C174.893,225.585,168.016,223.515,162.464,223.854C165.932,219.070,167.569,204.145,173.897,201.760C181.705,198.818,175.917,190.120,180.172,181.553C181.217,179.329,191.640,162.107,192.478,159.361C194.102,154.613,195.892,149.569,199.624,146.422M284.522,125.383C271.566,116.972,246.541,113.850,232.966,118.189C220.495,122.019,208.371,127.015,197.917,135.052C192.057,139.492,185.693,145.856,182.077,152.269C174.828,164.743,165.061,191.548,159.352,204.055C154.813,214.413,150.366,221.516,145.667,227.315C163.737,232.332,169.073,234.575,174.367,234.963C175.303,242.669,182.889,247.845,182.327,256.474C191.006,254.480,196.058,251.845,203.713,249.283C208.045,253.609,211.281,259.700,215.557,265.582C223.085,262.888,230.975,262.560,238.163,256.523C243.910,259.094,253.030,263.073,262.412,267.305C270.341,262.250,272.093,261.858,279.463,256.212C289.095,257.799,299.481,262.874,308.921,261.115C307.609,253.006,313.208,246.927,312.092,241.748C319.121,239.264,341.367,240.730,345.097,240.115C344.398,234.104,340.176,222.825,341.175,215.520C347.822,213.183,353.431,211.090,363.636,205.173C359.649,198.771,352.786,190.972,346.949,186.460C342.026,182.692,337.853,177.516,332.913,173.575C316.178,160.446,308.492,141.027,284.522,125.383Z"/>
<path class="path-11" d="M256.851,127.921C266.240,126.760,273.222,132.641,280.940,138.336"/>
<path class="path-11" d="M280.940,138.336C287.304,143.362,294.169,149.049,300.924,154.318"/>
<path class="path-11" d="M300.924,154.318C311.086,162.188,315.403,166.201,319.268,170.057"/>
<path class="path-11" d="M319.268,170.057C322.545,172.989,327.717,178.541,331.713,181.058"/>
<path class="path-11" d="M331.713,181.058C336.534,184.094,347.047,200.419,349.234,202.183"/>
<path class="path-11" d="M349.234,202.183C342.802,204.949,332.545,207.438,328.085,211.655"/>
<path class="path-11" d="M328.085,211.655C330.204,217.329,331.277,226.300,331.506,229.000"/>
<path class="path-11" d="M331.506,229.000C325.354,229.929,317.934,227.713,306.346,226.560"/>
<path class="path-11" d="M306.346,226.560C304.603,233.909,305.160,240.615,301.063,248.263"/>
<path class="path-11" d="M301.063,248.263C293.193,246.546,287.691,245.095,277.396,241.472"/>
<path class="path-11" d="M277.396,241.472C271.264,247.187,269.696,246.904,259.565,254.269"/>
<path class="path-11" d="M259.565,254.269C252.142,250.520,246.133,246.366,239.009,244.089"/>
<path class="path-11" d="M239.009,244.089C232.492,247.518,221.871,249.401,218.479,252.612"/>
<path class="path-11" d="M218.479,252.612C214.116,245.905,209.999,238.442,206.482,235.343"/>
<path class="path-11" d="M206.482,235.343C197.079,238.078,193.191,241.028,186.637,244.030"/>
<path class="path-11" d="M186.637,244.030C181.987,238.875,184.622,234.101,179.303,226.401"/>
<path class="path-11" d="M179.303,226.401C174.893,225.585,168.016,223.515,162.464,223.854"/>
<path class="path-11" d="M162.464,223.854C165.932,219.070,167.569,204.145,173.897,201.760"/>
<path class="path-11" d="M173.897,201.760C181.705,198.818,175.917,190.120,180.172,181.553"/>
<path class="path-11" d="M180.172,181.553C181.217,179.329,191.640,162.107,192.478,159.361"/>
<path class="path-11" d="M192.478,159.361C194.102,154.613,195.892,149.569,199.624,146.422"/>
<path class="path-11" d="M199.624,146.422C216.114,133.177,235.904,130.472,256.851,127.921"/>
<path class="path-12" d="M256.851,127.921C266.240,126.760,273.222,132.641,280.940,138.336C287.304,143.362,294.169,149.049,300.924,154.318C311.086,162.188,315.403,166.201,319.268,170.057C322.545,172.989,327.717,178.541,331.713,181.058C336.534,184.094,347.047,200.419,349.234,202.183C342.802,204.949,332.545,207.438,328.085,211.655C330.204,217.329,331.277,226.300,331.506,229.000C325.354,229.929,317.934,227.713,306.346,226.560C304.603,233.909,305.160,240.615,301.063,248.263C293.193,246.546,287.691,245.095,277.396,241.472C271.264,247.187,269.696,246.904,259.565,254.269C252.142,250.520,246.133,246.366,239.009,244.089C232.492,247.518,221.871,249.401,218.479,252.612C214.116,245.905,209.999,238.442,206.482,235.343C197.079,238.078,193.191,241.028,186.637,244.030C181.987,238.875,184.622,234.101,179.303,226.401C174.893,225.585,168.016,223.515,162.464,223.854C165.932,219.070,167.569,204.145,173.897,201.760C181.705,198.818,175.917,190.120,180.172,181.553C181.217,179.329,191.640,162.107,192.478,159.361C194.102,154.613,195.892,149.569,199.624,146.422C216.114,133.177,235.904,130.472,256.851,127.921Z"/>
</g>
<g id="clothes">
<path class="path-0" d="M256.883,372.682C251.743,370.629,232.097,370.522,228.627,375.098C226.364,378.279,229.729,380.043,233.115,380.324C237.049,380.651,257.813,381.277,260.569,379.669C265.014,377.005,259.055,373.442,256.883,372.682M211.891,268.598C215.825,256.253,243.651,245.464,256.474,247.459C265.412,248.823,292.627,265.010,295.968,273.648C298.771,280.561,297.836,305.256,297.494,313.598C296.586,328.881,296.437,344.247,295.994,359.551C296.234,372.286,303.460,385.935,298.507,397.670C296.283,401.460,286.758,405.481,281.967,406.124C276.404,407.142,265.165,405.584,260.084,404.445C237.681,400.061,239.426,405.273,218.040,404.265C213.979,403.918,200.811,402.442,198.313,400.467C192.736,394.904,196.225,386.515,198.108,379.168C202.098,365.869,204.050,356.595,206.336,342.047C208.727,326.153,211.793,309.156,213.090,292.593C213.224,286.626,210.955,272.178,211.891,268.598M291.842,256.223C276.292,245.317,260.932,236.116,240.878,240.271C235.477,241.189,207.984,252.070,205.421,255.213C201.411,260.217,203.640,280.580,203.089,287.826C202.768,296.445,202.357,305.395,201.020,313.602C200.177,319.872,198.377,325.393,197.882,331.356C197.001,337.955,196.543,345.135,194.904,351.126C190.326,367.405,176.492,399.452,195.512,411.824C200.160,414.871,207.120,414.798,212.969,415.289C222.933,415.934,233.589,416.908,243.710,416.354C254.644,416.059,265.419,413.207,276.478,413.712C283.078,414.015,302.647,423.666,308.088,419.295C310.950,417.100,313.040,401.227,312.934,397.152C311.871,382.735,306.627,368.774,305.781,354.342C305.412,342.364,305.442,330.608,307.102,318.389C308.246,308.436,310.682,298.920,311.475,288.602C311.474,284.236,312.527,278.948,310.520,274.429C307.133,266.132,298.833,261.117,291.842,256.223Z"/>
<path class="path-13" d="M256.883,372.682C251.743,370.629,232.097,370.522,228.627,375.098"/>
<path class="path-13" d="M228.627,375.098C226.364,378.279,229.729,380.043,233.115,380.324"/>
<path class="path-13" d="M233.115,380.324C237.049,380.651,257.813,381.277,260.569,379.669"/>
<path class="path-13" d="M260.569,379.669C265.014,377.005,259.055,373.442,256.883,372.682"/>
<path class="path-13" d="M211.891,268.598C215.825,256.253,243.651,245.464,256.474,247.459"/>
<path class="path-13" d="M256.474,247.459C265.412,248.823,292.627,265.010,295.968,273.648"/>
<path class="path-13" d="M295.968,273.648C298.771,280.561,297.836,305.256,297.494,313.598"/>
<path class="path-13" d="M297.494,313.598C296.586,328.881,296.437,344.247,295.994,359.551"/>
<path class="path-13" d="M295.994,359.551C296.234,372.286,303.460,385.935,298.507,397.670"/>
<path class="path-13" d="M298.507,397.670C296.283,401.460,286.758,405.481,281.967,406.124"/>
<path class="path-13" d="M281.967,406.124C276.404,407.142,265.165,405.584,260.084,404.445"/>
<path class="path-13" d="M260.084,404.445C237.681,400.061,239.426,405.273,218.040,404.265"/>
<path class="path-13" d="M218.040,404.265C213.979,403.918,200.811,402.442,198.313,400.467"/>
<path class="path-13" d="M198.313,400.467C192.736,394.904,196.225,386.515,198.108,379.168"/>
<path class="path-13" d="M198.108,379.168C202.098,365.869,204.050,356.595,206.336,342.047"/>
<path class="path-13" d="M206.336,342.047C208.727,326.153,211.793,309.156,213.090,292.593"/>
<path class="path-13" d="M213.090,292.593C213.224,286.626,210.955,272.178,211.891,268.598"/>
<path class="path-14" d="M256.883,372.682C251.743,370.629,232.097,370.522,228.627,375.098C226.364,378.279,229.729,380.043,233.115,380.324C237.049,380.651,257.813,381.277,260.569,379.669C265.014,377.005,259.055,373.442,256.883,372.682M211.891,268.598C215.825,256.253,243.651,245.464,256.474,247.459C265.412,248.823,292.627,265.010,295.968,273.648C298.771,280.561,297.836,305.256,297.494,313.598C296.586,328.881,296.437,344.247,295.994,359.551C296.234,372.286,303.460,385.935,298.507,397.670C296.283,401.460,286.758,405.481,281.967,406.124C276.404,407.142,265.165,405.584,260.084,404.445C237.681,400.061,239.426,405.273,218.040,404.265C213.979,403.918,200.811,402.442,198.313,400.467C192.736,394.904,196.225,386.515,198.108,379.168C202.098,365.869,204.050,356.595,206.336,342.047C208.727,326.153,211.793,309.156,213.090,292.593C213.224,286.626,210.955,272.178,211.891,268.598Z"/>
</g>
<g id="neck">
<path class="path-0" d="M248.291,228.720C248.485,225.381,249.357,222.347,252.998,221.861C264.548,219.379,265.127,256.983,254.491,257.430C244.519,257.848,247.892,235.062,248.291,228.720M252.608,212.555C249.935,212.334,246.972,213.123,244.700,214.551C235.587,219.595,237.280,228.183,237.642,236.824C237.491,241.160,237.992,245.135,236.151,248.875C234.629,252.269,230.113,255.787,230.266,259.445C231.018,269.404,257.943,268.274,264.910,267.647C267.568,267.536,276.584,268.156,277.428,264.459C277.386,263.462,270.251,252.105,269.058,247.494C265.481,233.659,273.924,212.660,252.608,212.555Z"/>
<path class="path-15" d="M252.998,221.861C264.548,219.379,265.127,256.983,254.491,257.430"/>
<path class="path-15" d="M254.491,257.430C244.519,257.848,247.892,235.062,248.291,228.720"/>
<path class="path-15" d="M248.291,228.720C248.485,225.381,249.357,222.347,252.998,221.861"/>
<path class="path-16" d="M252.998,221.861C264.548,219.379,265.127,256.983,254.491,257.430C244.519,257.848,247.892,235.062,248.291,228.720C248.485,225.381,249.357,222.347,252.998,221.861Z"/>
</g>
<g id="layer_head">
<g id="right_ear">
<path class="path-0" d="M168.022,200.728C153.701,201.902,138.054,167.407,159.278,168.646C162.853,168.855,165.817,174.844,166.459,177.496C168.738,186.880,178.217,199.895,168.022,200.728M164.590,156.968C161.234,155.032,157.138,154.422,153.614,156.030C142.829,159.002,137.317,171.904,139.413,182.951C141.905,195.350,155.924,208.901,167.492,210.983C170.545,211.548,176.856,213.546,179.725,211.957C186.295,207.767,179.379,197.619,177.313,191.863C175.234,185.650,169.422,160.982,164.590,156.968Z"/>
<path class="path-15" d="M159.278,168.646C162.853,168.855,165.817,174.844,166.459,177.496"/>
<path class="path-15" d="M166.459,177.496C168.738,186.880,178.217,199.895,168.022,200.728"/>
<path class="path-15" d="M168.022,200.728C153.701,201.902,138.054,167.407,159.278,168.646"/>
<path class="path-16" d="M159.278,168.646C162.853,168.855,165.817,174.844,166.459,177.496C168.738,186.880,178.217,199.895,168.022,200.728C153.701,201.902,138.054,167.407,159.278,168.646Z"/>
</g>
<g id="face_Mask">
<g id="face">
<path class="path-0" d="M182.107,111.719C190.441,101.147,223.101,93.486,236.711,91.292C251.985,89.073,267.653,91.174,282.691,95.613C288.038,97.200,295.725,99.075,300.427,102.675C308.467,108.878,313.636,120.090,316.633,129.375C319.001,136.109,323.250,145.129,321.511,151.646C313.668,181.054,309.726,194.586,304.006,202.866C296.914,213.131,283.838,217.120,272.448,221.949C260.539,226.798,248.399,228.715,242.078,228.455C229.679,227.944,202.925,222.036,193.711,214.539C182.998,205.488,181.674,191.573,177.299,178.874C174.701,172.026,170.461,161.725,169.037,154.692C166.984,143.650,175.247,120.341,182.107,111.719M304.333,94.942C290.546,82.914,254.234,80.638,236.641,83.539C228.337,84.650,220.361,85.425,212.738,87.527C207.103,89.271,202.147,92.002,196.844,93.742C185.262,98.236,180.430,96.867,172.757,107.744C167.244,115.361,158.898,145.175,159.996,154.354C160.940,161.224,168.317,176.460,170.795,184.144C173.991,194.253,176.596,208.765,183.194,216.581C190.464,224.946,200.259,229.293,215.270,233.263C226.710,236.289,239.363,237.329,251.548,237.433C256.328,237.766,265.171,234.892,277.882,229.255C289.821,223.781,302.943,219.036,311.014,207.574C320.532,194.057,324.255,172.293,332.056,150.148C338.615,131.527,312.916,102.267,304.333,94.942Z"/>
<path class="path-15" d="M236.711,91.292C251.985,89.073,267.653,91.174,282.691,95.613"/>
<path class="path-15" d="M282.691,95.613C288.038,97.200,295.725,99.075,300.427,102.675"/>
<path class="path-15" d="M300.427,102.675C308.467,108.878,313.636,120.090,316.633,129.375"/>
<path class="path-15" d="M316.633,129.375C319.001,136.109,323.250,145.129,321.511,151.646"/>
<path class="path-15" d="M321.511,151.646C313.668,181.054,309.726,194.586,304.006,202.866"/>
<path class="path-15" d="M304.006,202.866C296.914,213.131,283.838,217.120,272.448,221.949"/>
<path class="path-15" d="M272.448,221.949C260.539,226.798,248.399,228.715,242.078,228.455"/>
<path class="path-15" d="M242.078,228.455C229.679,227.944,202.925,222.036,193.711,214.539"/>
<path class="path-15" d="M193.711,214.539C182.998,205.488,181.674,191.573,177.299,178.874"/>
<path class="path-15" d="M177.299,178.874C174.701,172.026,170.461,161.725,169.037,154.692"/>
<path class="path-15" d="M169.037,154.692C166.984,143.650,175.247,120.341,182.107,111.719"/>
<path class="path-15" d="M182.107,111.719C190.441,101.147,223.101,93.486,236.711,91.292"/>
<path class="path-16" d="M236.711,91.292C251.985,89.073,267.653,91.174,282.691,95.613C288.038,97.200,295.725,99.075,300.427,102.675C308.467,108.878,313.636,120.090,316.633,129.375C319.001,136.109,323.250,145.129,321.511,151.646C313.668,181.054,309.726,194.586,304.006,202.866C296.914,213.131,283.838,217.120,272.448,221.949C260.539,226.798,248.399,228.715,242.078,228.455C229.679,227.944,202.925,222.036,193.711,214.539C182.998,205.488,181.674,191.573,177.299,178.874C174.701,172.026,170.461,161.725,169.037,154.692C166.984,143.650,175.247,120.341,182.107,111.719C190.441,101.147,223.101,93.486,236.711,91.292Z"/>
</g>
</g>
<mask id="mask_target" style="mask-type:alpha;">
<use xlink:href="#face_Mask"/>
</mask>
<g id="mouse">
<path class="path-0" d="M248.973,219.958C254.193,220.986,254.346,225.737,253.880,226.251C253.617,226.541,252.480,225.606,249.513,225.163C243.895,224.323,241.206,225.535,240.998,224.823C240.771,224.043,242.863,218.755,248.973,219.958Z"/>
</g>
<g id="layer_eyes_Mtarget" mask="url(#mask_target)">
<g id="eyes">
<mask style="mask-type:alpha;" id="f3906406-f197-4bf1-91d8-744c09cca836">
<use xlink:href="#cmn_f3906406-f197-4bf1-91d8-744c09cca836"/>
</mask>
<g id="cmn_f3906406-f197-4bf1-91d8-744c09cca836">
<path class="path-0" d="M225.570,180.259C227.505,192.912,219.328,201.423,206.715,198.434C199.289,196.463,195.822,190.987,193.118,184.387C191.518,180.889,183.888,164.855,189.576,166.681C194.151,168.150,224.871,175.693,225.570,180.259M232.297,183.250C233.147,181.727,234.350,179.431,234.061,177.711C233.740,175.802,232.098,172.796,230.145,172.583C224.851,171.885,206.225,165.893,199.490,163.510C192.859,161.319,179.475,153.539,175.237,160.220C173.505,162.823,177.551,163.586,178.992,167.700C185.479,186.214,192.034,203.632,211.974,204.113C229.330,204.531,228.041,190.881,232.297,183.250M275.276,192.477C268.164,192.446,258.679,187.196,258.576,176.116C258.545,172.786,271.935,167.346,277.925,164.038C283.821,160.782,295.044,154.203,298.130,154.246C301.624,154.715,299.926,157.830,300.115,167.458C300.392,181.490,288.226,192.533,275.276,192.477M306.361,173.686C309.177,161.592,309.295,145.442,306.936,144.432C301.901,142.275,289.312,151.815,281.921,155.334C272.266,159.931,256.952,169.541,250.294,171.779C248.359,172.508,246.611,173.080,246.369,174.491C245.890,177.282,251.194,179.025,253.030,181.182C256.261,184.977,257.407,191.957,262.662,194.721C272.681,200.394,280.130,198.096,290.985,193.006C299.359,189.117,304.399,182.117,306.361,173.686Z"/>
<path class="path-17" d="M298.130,154.246C301.624,154.715,299.926,157.830,300.115,167.458"/>
<path class="path-17" d="M300.115,167.458C300.392,181.490,288.226,192.533,275.276,192.477"/>
<path class="path-17" d="M275.276,192.477C268.164,192.446,258.679,187.196,258.576,176.116"/>
<path class="path-17" d="M258.576,176.116C258.545,172.786,271.935,167.346,277.925,164.038"/>
<path class="path-17" d="M277.925,164.038C283.821,160.782,295.044,154.203,298.130,154.246"/>
<path class="path-18" d="M298.130,154.246C301.624,154.715,299.926,157.830,300.115,167.458C300.392,181.490,288.226,192.533,275.276,192.477C268.164,192.446,258.679,187.196,258.576,176.116C258.545,172.786,271.935,167.346,277.925,164.038C283.821,160.782,295.044,154.203,298.130,154.246Z"/>
<path class="path-17" d="M189.576,166.681C194.151,168.150,224.871,175.693,225.570,180.259"/>
<path class="path-17" d="M225.570,180.259C227.505,192.912,219.328,201.423,206.715,198.434"/>
<path class="path-17" d="M206.715,198.434C199.289,196.463,195.822,190.987,193.118,184.387"/>
<path class="path-17" d="M193.118,184.387C191.518,180.889,183.888,164.855,189.576,166.681"/>
<path class="path-18" d="M189.576,166.681C194.151,168.150,224.871,175.693,225.570,180.259C227.505,192.912,219.328,201.423,206.715,198.434C199.289,196.463,195.822,190.987,193.118,184.387C191.518,180.889,183.888,164.855,189.576,166.681Z"/>
</g>
</g>
<g id="pupil">
<path class="path-0" d="M288.678,163.563C290.951,162.960,294.184,166.089,295.151,174.513C295.872,180.795,294.267,183.398,292.529,183.627C290.633,183.877,288.949,181.306,287.568,174.548C286.093,167.337,286.706,164.087,288.678,163.563Z" mask="url(#f3906406-f197-4bf1-91d8-744c09cca836)"/>
<path class="path-0" d="M219.553,174.771C221.762,174.211,224.387,177.634,225.455,186.058C226.085,191.038,225.310,193.111,224.005,193.447C222.455,193.846,220.504,191.875,218.825,186.151C216.685,178.856,217.575,175.273,219.553,174.771Z" mask="url(#f3906406-f197-4bf1-91d8-744c09cca836)"/>
</g>
</g>
<g id="hat">
<path class="path-0" d="M320.722,127.540C322.753,128.818,325.762,131.126,326.138,133.783C327.574,140.089,316.581,139.625,313.254,140.011C306.621,140.113,299.684,140.011,293.351,140.272C288.236,140.950,283.114,141.566,277.986,142.139C269.484,142.424,260.984,142.253,252.479,142.292C237.925,142.930,223.391,142.710,208.803,142.860C207.479,142.926,168.532,148.008,161.903,144.525C153.067,139.982,162.015,133.082,161.605,128.716C161.543,125.090,153.633,124.218,155.515,117.929C157.394,111.991,178.318,107.684,184.535,106.274C196.747,103.434,209.282,99.620,222.174,97.467C240.295,94.592,259.070,94.703,277.528,92.805C290.081,91.616,319.043,99.011,324.816,111.842C329.716,122.347,312.881,112.712,310.879,112.081C309.296,110.948,303.738,108.624,305.045,112.099C306.306,117.862,316.525,124.235,320.722,127.540M202.891,93.291C192.550,95.949,182.922,97.786,172.952,100.255C168.646,101.310,163.395,103.999,159.354,101.811C150.282,97.136,159.710,74.055,163.928,68.052C177.971,48.578,208.782,39.824,234.015,39.424C279.008,38.711,296.734,45.358,311.883,60.192C316.595,64.473,333.440,85.945,324.857,92.057C321.561,94.095,315.521,90.213,312.514,88.922C302.157,84.734,260.122,78.583,202.891,93.291M260.696,28.733C253.314,28.387,251.469,26.908,243.708,27.665C212.478,31.188,170.460,33.486,152.258,63.951C146.419,73.980,146.527,85.247,144.658,95.883C143.106,104.487,138.231,111.150,139.320,119.724C140.399,126.710,143.440,128.331,145.816,133.644C148.523,139.282,147.173,141.966,148.863,145.617C152.595,156.253,162.280,155.600,171.606,155.403C176.448,155.302,194.307,154.895,204.033,154.583C215.908,154.203,231.738,153.568,243.607,153.037C252.780,152.627,265.010,152.078,274.174,151.505C282.598,150.978,293.835,150.266,302.232,149.407C312.444,148.362,334.994,146.219,336.161,144.962C338.251,142.748,341.820,121.438,341.777,117.474C341.740,114.127,340.035,110.799,339.980,105.442C339.501,90.898,339.021,77.360,330.638,63.880C315.231,39.579,287.665,30.668,260.696,28.733Z"/>
<path class="path-19" d="M277.528,92.805C290.081,91.616,319.043,99.011,324.816,111.842"/>
<path class="path-19" d="M324.816,111.842C329.716,122.347,312.881,112.712,310.879,112.081"/>
<path class="path-19" d="M310.879,112.081C309.296,110.948,303.738,108.624,305.045,112.099"/>
<path class="path-19" d="M305.045,112.099C306.306,117.862,316.525,124.235,320.722,127.540"/>
<path class="path-19" d="M320.722,127.540C322.753,128.818,325.762,131.126,326.138,133.783"/>
<path class="path-19" d="M326.138,133.783C327.574,140.089,316.581,139.625,313.254,140.011"/>
<path class="path-19" d="M313.254,140.011C306.621,140.113,299.684,140.011,293.351,140.272"/>
<path class="path-19" d="M293.351,140.272C288.236,140.950,283.114,141.566,277.986,142.139"/>
<path class="path-19" d="M277.986,142.139C269.484,142.424,260.984,142.253,252.479,142.292"/>
<path class="path-19" d="M252.479,142.292C237.925,142.930,223.391,142.710,208.803,142.860"/>
<path class="path-19" d="M208.803,142.860C207.479,142.926,168.532,148.008,161.903,144.525"/>
<path class="path-19" d="M161.903,144.525C153.067,139.982,162.015,133.082,161.605,128.716"/>
<path class="path-19" d="M161.605,128.716C161.543,125.090,153.633,124.218,155.515,117.929"/>
<path class="path-19" d="M155.515,117.929C157.394,111.991,178.318,107.684,184.535,106.274"/>
<path class="path-19" d="M184.535,106.274C196.747,103.434,209.282,99.620,222.174,97.467"/>
<path class="path-19" d="M222.174,97.467C240.295,94.592,259.070,94.703,277.528,92.805"/>
<path class="path-20" d="M277.528,92.805C290.081,91.616,319.043,99.011,324.816,111.842C329.716,122.347,312.881,112.712,310.879,112.081C309.296,110.948,303.738,108.624,305.045,112.099C306.306,117.862,316.525,124.235,320.722,127.540C322.753,128.818,325.762,131.126,326.138,133.783C327.574,140.089,316.581,139.625,313.254,140.011C306.621,140.113,299.684,140.011,293.351,140.272C288.236,140.950,283.114,141.566,277.986,142.139C269.484,142.424,260.984,142.253,252.479,142.292C237.925,142.930,223.391,142.710,208.803,142.860C207.479,142.926,168.532,148.008,161.903,144.525C153.067,139.982,162.015,133.082,161.605,128.716C161.543,125.090,153.633,124.218,155.515,117.929C157.394,111.991,178.318,107.684,184.535,106.274C196.747,103.434,209.282,99.620,222.174,97.467C240.295,94.592,259.070,94.703,277.528,92.805Z"/>
<path class="path-9" d="M234.015,39.424C279.008,38.711,296.734,45.358,311.883,60.192"/>
<path class="path-9" d="M311.883,60.192C316.595,64.473,333.440,85.945,324.857,92.057"/>
<path class="path-9" d="M324.857,92.057C321.561,94.095,315.521,90.213,312.514,88.922"/>
<path class="path-9" d="M312.514,88.922C302.157,84.734,260.122,78.583,202.891,93.291"/>
<path class="path-9" d="M202.891,93.291C192.550,95.949,182.922,97.786,172.952,100.255"/>
<path class="path-9" d="M172.952,100.255C168.646,101.310,163.395,103.999,159.354,101.811"/>
<path class="path-9" d="M159.354,101.811C150.282,97.136,159.710,74.055,163.928,68.052"/>
<path class="path-9" d="M163.928,68.052C177.971,48.578,208.782,39.824,234.015,39.424"/>
<path class="path-10" d="M234.015,39.424C279.008,38.711,296.734,45.358,311.883,60.192C316.595,64.473,333.440,85.945,324.857,92.057C321.561,94.095,315.521,90.213,312.514,88.922C302.157,84.734,260.122,78.583,202.891,93.291C192.550,95.949,182.922,97.786,172.952,100.255C168.646,101.310,163.395,103.999,159.354,101.811C150.282,97.136,159.710,74.055,163.928,68.052C177.971,48.578,208.782,39.824,234.015,39.424Z"/>
</g>
<g id="left_ear">
<path class="path-0" d="M320.609,191.909C319.420,188.023,328.315,163.387,329.925,161.040C334.776,153.957,346.959,164.129,348.235,170.716C349.643,178.877,338.169,187.482,331.564,192.477C326.596,196.116,322.173,197.013,320.609,191.909M356.949,174.520C358.222,161.722,346.493,145.193,334.168,148.492C321.016,152.013,320.610,169.820,316.882,180.456C315.396,185.084,312.734,189.696,312.288,194.299C311.350,202.574,315.300,209.422,324.394,206.964C337.478,203.285,355.086,188.841,356.949,174.520Z"/>
<path class="path-15" d="M329.925,161.040C334.776,153.957,346.959,164.129,348.235,170.716"/>
<path class="path-15" d="M348.235,170.716C349.643,178.877,338.169,187.482,331.564,192.477"/>
<path class="path-15" d="M331.564,192.477C326.596,196.116,322.173,197.013,320.609,191.909"/>
<path class="path-15" d="M320.609,191.909C319.420,188.023,328.315,163.387,329.925,161.040"/>
<path class="path-16" d="M329.925,161.040C334.776,153.957,346.959,164.129,348.235,170.716C349.643,178.877,338.169,187.482,331.564,192.477C326.596,196.116,322.173,197.013,320.609,191.909C319.420,188.023,328.315,163.387,329.925,161.040Z"/>
</g>
<g id="earrings">
<path class="path-0" d="M341.702,209.470C332.839,212.654,331.029,192.914,334.831,193.470C340.097,195.574,344.275,205.471,341.702,209.470M350.202,201.851C343.296,200.787,340.827,192.234,340.562,188.264C348.188,190.520,357.523,196.969,350.202,201.851M358.190,196.740C355.779,189.047,344.785,183.778,337.206,181.074C334.898,180.250,329.683,188.836,329.347,191.392C328.224,195.286,327.401,217.704,340.868,215.706C346.357,214.644,360.139,202.963,358.190,196.740Z"/>
<path class="path-21" d="M340.562,188.264C348.188,190.520,357.523,196.969,350.202,201.851"/>
<path class="path-21" d="M350.202,201.851C343.296,200.787,340.827,192.234,340.562,188.264"/>
<path class="path-22" d="M340.562,188.264C348.188,190.520,357.523,196.969,350.202,201.851C343.296,200.787,340.827,192.234,340.562,188.264Z"/>
<path class="path-21" d="M334.831,193.470C340.097,195.574,344.275,205.471,341.702,209.470"/>
<path class="path-21" d="M341.702,209.470C332.839,212.654,331.029,192.914,334.831,193.470"/>
<path class="path-22" d="M334.831,193.470C340.097,195.574,344.275,205.471,341.702,209.470C332.839,212.654,331.029,192.914,334.831,193.470Z"/>
</g>
</g>
<g id="left_arm">
<path class="path-0" d="M330.556,465.760C333.837,459.616,341.110,464.478,349.140,468.252C351.657,469.411,364.108,466.760,366.091,468.744C369.697,472.007,365.500,478.977,360.984,480.559C351.020,483.547,326.049,474.422,330.556,465.760M302.707,287.442C303.104,284.151,309.985,272.852,315.129,273.219C318.115,273.431,320.240,278.175,321.620,280.662C325.476,288.495,329.495,296.612,332.961,304.872C342.405,326.791,348.584,349.438,356.521,371.523C359.563,380.749,362.947,392.564,366.545,401.028C370.185,409.318,374.347,407.654,376.799,413.201C378.052,416.229,377.872,421.811,380.084,426.369C383.419,433.541,389.256,437.263,392.133,441.789C393.921,444.369,394.419,446.485,391.102,448.167C389.076,450.065,383.381,453.016,381.145,454.095C373.410,455.582,365.410,457.382,357.623,456.242C348.722,455.323,324.087,447.279,319.598,441.425C311.673,430.709,321.470,417.834,322.403,407.102C322.897,404.099,326.101,360.421,325.232,357.561C323.997,350.928,319.270,345.702,316.737,339.077C313.739,329.954,310.623,320.192,307.842,310.631C305.680,302.625,301.228,296.402,302.707,287.442M325.224,261.961C322.236,257.696,313.771,250.548,308.043,252.745C303.303,254.798,303.528,260.819,303.457,264.866C303.282,274.983,302.534,283.504,303.955,293.046C304.654,300.006,306.259,306.157,307.882,312.643C309.825,321.468,310.665,338.905,312.166,349.100C313.263,358.612,316.357,368.302,316.251,376.584C315.588,396.046,307.640,414.759,309.212,434.079C309.675,443.848,312.321,443.711,314.983,451.415C316.936,457.315,315.895,463.696,318.485,469.236C325.171,483.909,343.094,496.721,359.886,492.601C375.364,488.875,375.232,471.895,383.117,462.531C390.054,454.211,404.863,457.511,406.466,449.108C408.132,442.036,397.795,435.088,394.230,429.701C387.582,420.292,393.666,418.123,390.741,410.791C388.619,405.371,382.563,399.921,378.662,393.374C376.144,389.803,373.133,383.428,370.918,378.839C366.558,368.853,362.919,357.049,359.628,346.169C356.183,333.877,353.403,322.992,347.958,310.711C343.636,300.625,331.058,269.500,325.224,261.961Z"/>
<path class="path-1" d="M315.129,273.219C318.115,273.431,320.240,278.175,321.620,280.662"/>
<path class="path-1" d="M321.620,280.662C325.476,288.495,329.495,296.612,332.961,304.872"/>
<path class="path-1" d="M332.961,304.872C342.405,326.791,348.584,349.438,356.521,371.523"/>
<path class="path-1" d="M356.521,371.523C359.563,380.749,362.947,392.564,366.545,401.028"/>
<path class="path-1" d="M366.545,401.028C370.185,409.318,374.347,407.654,376.799,413.201"/>
<path class="path-1" d="M376.799,413.201C378.052,416.229,377.872,421.811,380.084,426.369"/>
<path class="path-1" d="M380.084,426.369C383.419,433.541,389.256,437.263,392.133,441.789"/>
<path class="path-1" d="M392.133,441.789C393.921,444.369,394.419,446.485,391.102,448.167"/>
<path class="path-1" d="M391.102,448.167C389.076,450.065,383.381,453.016,381.145,454.095"/>
<path class="path-1" d="M381.145,454.095C373.410,455.582,365.410,457.382,357.623,456.242"/>
<path class="path-1" d="M357.623,456.242C348.722,455.323,324.087,447.279,319.598,441.425"/>
<path class="path-1" d="M319.598,441.425C311.673,430.709,321.470,417.834,322.403,407.102"/>
<path class="path-1" d="M322.403,407.102C322.897,404.099,326.101,360.421,325.232,357.561"/>
<path class="path-1" d="M325.232,357.561C323.997,350.928,319.270,345.702,316.737,339.077"/>
<path class="path-1" d="M316.737,339.077C313.739,329.954,310.623,320.192,307.842,310.631"/>
<path class="path-1" d="M307.842,310.631C305.680,302.625,301.228,296.402,302.707,287.442"/>
<path class="path-1" d="M302.707,287.442C303.104,284.151,309.985,272.852,315.129,273.219"/>
<path class="path-2" d="M315.129,273.219C318.115,273.431,320.240,278.175,321.620,280.662C325.476,288.495,329.495,296.612,332.961,304.872C342.405,326.791,348.584,349.438,356.521,371.523C359.563,380.749,362.947,392.564,366.545,401.028C370.185,409.318,374.347,407.654,376.799,413.201C378.052,416.229,377.872,421.811,380.084,426.369C383.419,433.541,389.256,437.263,392.133,441.789C393.921,444.369,394.419,446.485,391.102,448.167C389.076,450.065,383.381,453.016,381.145,454.095C373.410,455.582,365.410,457.382,357.623,456.242C348.722,455.323,324.087,447.279,319.598,441.425C311.673,430.709,321.470,417.834,322.403,407.102C322.897,404.099,326.101,360.421,325.232,357.561C323.997,350.928,319.270,345.702,316.737,339.077C313.739,329.954,310.623,320.192,307.842,310.631C305.680,302.625,301.228,296.402,302.707,287.442C303.104,284.151,309.985,272.852,315.129,273.219Z"/>
<path class="path-15" d="M349.140,468.252C351.657,469.411,364.108,466.760,366.091,468.744"/>
<path class="path-15" d="M366.091,468.744C369.697,472.007,365.500,478.977,360.984,480.559"/>
<path class="path-15" d="M360.984,480.559C351.020,483.547,326.049,474.422,330.556,465.760"/>
<path class="path-15" d="M330.556,465.760C333.837,459.616,341.110,464.478,349.140,468.252"/>
<path class="path-16" d="M349.140,468.252C351.657,469.411,364.108,466.760,366.091,468.744C369.697,472.007,365.500,478.977,360.984,480.559C351.020,483.547,326.049,474.422,330.556,465.760C333.837,459.616,341.110,464.478,349.140,468.252Z"/>
</g>
<g id="bone">
<g id="bone_B20">
<path class="path-23" d="M240.760,139.348C238.595,127.568,236.429,115.788,234.264,104.008"/>
</g>
<g id="bone_">
<path class="path-23" d="M552.381,338.786C556.008,315.080,559.635,291.374,563.262,267.668"/>
</g>
<g id="bone_">
<path class="path-23" d="M496.479,337.308C496.479,313.696,496.479,290.084,496.479,266.472"/>
</g>
<g id="bone_">
<path class="path-23" d="M436.410,337.308C412.878,335.376,389.345,333.444,365.812,331.512"/>
</g>
<g id="bone_">
<path class="path-23" d="M604.616,215.385C626.277,224.783,647.938,234.182,669.599,243.580"/>
</g>
<g id="bone_">
<path class="path-23" d="M436.410,216.411C453.809,232.373,471.208,248.336,488.607,264.299"/>
</g>
<g id="bone_">
<path class="path-23" d="M551.282,215.385C528.927,207.785,506.572,200.184,484.216,192.584"/>
</g>
<g id="bone_">
<path class="path-23" d="M495.897,216.411C495.392,240.017,494.886,263.624,494.381,287.230"/>
</g>
<g id="bone_B18">
<path class="path-23" d="M226.453,392.385C218.276,423.734,210.099,455.083,201.922,486.431"/>
</g>
<g id="bone_B17">
<path class="path-23" d="M272.608,392.385C274.774,425.690,276.941,458.994,279.108,492.299"/>
</g>
<g id="bone_B16">
<path class="path-23" d="M245.393,164.547C251.710,188.694,258.027,212.841,264.344,236.988"/>
</g>
<g id="bone_B14">
<path class="path-23" d="M151.535,377.906C159.611,395.255,167.686,412.604,175.762,429.953"/>
</g>
<g id="bone_B13">
<path class="path-23" d="M197.521,273.923C182.193,308.584,166.864,343.245,151.535,377.906"/>
</g>
<g id="bone_B11">
<path class="path-23" d="M339.704,355.025C343.123,376.769,346.542,398.513,349.961,420.257"/>
</g>
<g id="bone_B9">
<path class="path-23" d="M311.041,267.005C320.596,296.345,330.150,325.685,339.704,355.025"/>
</g>
<g id="bone_B5">
<path class="path-23" d="M255.242,218.120C250.414,191.863,245.587,165.605,240.760,139.348"/>
</g>
<g id="bone_B4">
<path class="path-23" d="M254.956,260.220C255.051,246.187,255.146,232.154,255.242,218.120"/>
</g>
<g id="bone_B3">
<path class="path-23" d="M255.290,333.221C255.178,308.887,255.067,284.554,254.956,260.220"/>
</g>
<g id="bone_B2">
<path class="path-23" d="M249.017,392.385C251.108,372.664,253.199,352.942,255.290,333.221"/>
</g>
<g id="bone_B1">
<path class="path-23" d="M249.017,392.385C260.994,392.385,272.971,392.385,284.948,392.385"/>
</g>
</g>
<g id="jacket">
<path class="path-0" d="M222.886,274.088C224.877,278.778,219.885,288.469,219.085,293.073C213.902,310.492,206.781,327.174,206.673,344.926C206.780,349.422,208.366,358.679,204.525,362.228C202.160,364.413,195.521,361.596,193.869,363.502C191.350,366.376,186.469,357.446,185.460,355.450C184.585,353.718,183.916,346.559,183.989,344.441C184.446,339.745,185.787,330.599,187.491,324.896C189.294,319.028,191.708,313.194,194.589,307.068C196.876,300.990,198.947,293.509,200.549,286.444C202.453,282.185,205.160,279.897,205.208,276.600C204.899,272.627,204.430,270.553,208.110,269.532C212.538,268.636,222.092,268.947,222.886,274.088M283.269,282.827C285.024,281.001,302.880,273.109,304.895,271.827C315.687,265.660,324.028,275.185,324.495,282.486C324.958,288.491,316.612,308.360,315.396,312.509C313.942,316.576,312.280,319.497,312.016,323.193C309.976,340.138,314.797,329.389,317.947,343.420C318.702,346.834,319.880,354.121,319.813,357.547C319.490,361.615,317.631,370.618,315.632,373.881C313.603,376.622,309.150,380.676,305.499,377.248C304.917,376.821,300.863,370.695,299.814,370.037C293.685,365.710,284.456,366.628,279.750,360.082C276.380,354.815,274.993,347.694,273.823,341.096C272.245,332.973,273.378,324.687,274.388,316.440C275.144,306.940,277.117,290.749,283.269,282.827M298.233,264.511C295.244,266.499,288.830,267.947,286.907,268.368C281.789,269.205,281.299,264.281,281.145,260.643C281.113,255.963,284.426,249.410,287.829,245.973C290.599,243.175,295.313,240.247,299.635,240.237C304.254,240.061,311.733,244.511,310.708,249.670C310.293,252.768,303.076,261.290,298.233,264.511M223.093,243.639C227.666,251.249,232.814,258.983,227.816,259.915C222.681,260.874,219.838,260.491,211.257,258.284C200.220,255.446,196.533,239.859,202.107,234.716C207.136,230.077,217.750,234.747,223.093,243.639M317.701,389.562C324.732,379.779,331.484,373.462,333.448,361.037C334.384,354.714,333.995,346.990,331.608,341.095C327.433,331.504,321.917,329.209,319.220,317.684C316.815,308.152,321.048,300.288,321.429,290.862C321.423,287.720,315.727,272.345,316.176,269.514C316.202,264.900,321.181,261.630,322.079,257.479C323.026,253.689,324.164,249.686,323.609,245.819C323.125,240.170,318.008,236.529,314.025,233.309C308.364,229.261,303.020,228.320,295.928,228.903C286.437,229.695,281.088,238.492,277.223,244.749C271.628,253.805,272.171,269.070,269.685,279.420C268.278,285.276,266.077,293.367,264.618,298.845C259.654,316.370,256.949,358.586,268.768,372.602C270.265,374.629,282.698,383.546,286.800,385.975C292.467,389.371,293.435,393.482,299.226,396.261C302.301,397.886,309.306,395.147,313.270,393.116C314.737,392.424,317.008,390.526,317.701,389.562M231.618,237.020C227.111,230.590,219.417,219.602,211.408,220.386C206.590,221.015,199.456,223.228,195.569,226.524C192.344,229.258,188.488,234.289,188.243,238.564C187.795,244.181,188.271,250.890,190.234,255.668C192.188,260.422,199.636,264.229,200.788,269.165C201.234,271.346,197.316,281.698,196.797,284.408C195.540,292.132,192.846,299.889,190.077,306.119C187.237,312.507,180.886,319.706,178.158,326.142C175.350,332.764,172.215,341.450,171.896,349.285C171.518,353.273,173.614,362.247,176.203,367.096C177.901,370.274,181.980,375.090,184.152,376.101C185.601,376.776,200.701,380.948,206.072,377.141C212.859,372.330,213.151,363.933,212.995,350.291C212.718,336.786,221.952,326.338,225.463,313.134C228.008,303.163,235.682,279.899,236.385,270.960C236.841,265.162,238.842,261.357,237.765,253.240C237.102,249.176,234.605,241.281,231.618,237.020Z"/>
<path class="path-1" d="M304.895,271.827C315.687,265.660,324.028,275.185,324.495,282.486"/>
<path class="path-1" d="M324.495,282.486C324.958,288.491,316.612,308.360,315.396,312.509"/>
<path class="path-1" d="M315.396,312.509C313.942,316.576,312.280,319.497,312.016,323.193"/>
<path class="path-1" d="M312.016,323.193C309.976,340.138,314.797,329.389,317.947,343.420"/>
<path class="path-1" d="M317.947,343.420C318.702,346.834,319.880,354.121,319.813,357.547"/>
<path class="path-1" d="M319.813,357.547C319.490,361.615,317.631,370.618,315.632,373.881"/>
<path class="path-1" d="M315.632,373.881C313.603,376.622,309.150,380.676,305.499,377.248"/>
<path class="path-1" d="M305.499,377.248C304.917,376.821,300.863,370.695,299.814,370.037"/>
<path class="path-1" d="M299.814,370.037C293.685,365.710,284.456,366.628,279.750,360.082"/>
<path class="path-1" d="M279.750,360.082C276.380,354.815,274.993,347.694,273.823,341.096"/>
<path class="path-1" d="M273.823,341.096C272.245,332.973,273.378,324.687,274.388,316.440"/>
<path class="path-1" d="M274.388,316.440C275.144,306.940,277.117,290.749,283.269,282.827"/>
<path class="path-1" d="M283.269,282.827C285.024,281.001,302.880,273.109,304.895,271.827"/>
<path class="path-2" d="M304.895,271.827C315.687,265.660,324.028,275.185,324.495,282.486C324.958,288.491,316.612,308.360,315.396,312.509C313.942,316.576,312.280,319.497,312.016,323.193C309.976,340.138,314.797,329.389,317.947,343.420C318.702,346.834,319.880,354.121,319.813,357.547C319.490,361.615,317.631,370.618,315.632,373.881C313.603,376.622,309.150,380.676,305.499,377.248C304.917,376.821,300.863,370.695,299.814,370.037C293.685,365.710,284.456,366.628,279.750,360.082C276.380,354.815,274.993,347.694,273.823,341.096C272.245,332.973,273.378,324.687,274.388,316.440C275.144,306.940,277.117,290.749,283.269,282.827C285.024,281.001,302.880,273.109,304.895,271.827Z"/>
<path class="path-1" d="M208.110,269.532C212.538,268.636,222.092,268.947,222.886,274.088"/>
<path class="path-1" d="M222.886,274.088C224.877,278.778,219.885,288.469,219.085,293.073"/>
<path class="path-1" d="M219.085,293.073C213.902,310.492,206.781,327.174,206.673,344.926"/>
<path class="path-1" d="M206.673,344.926C206.780,349.422,208.366,358.679,204.525,362.228"/>
<path class="path-1" d="M204.525,362.228C202.160,364.413,195.521,361.596,193.869,363.502"/>
<path class="path-1" d="M193.869,363.502C191.350,366.376,186.469,357.446,185.460,355.450"/>
<path class="path-1" d="M185.460,355.450C184.585,353.718,183.916,346.559,183.989,344.441"/>
<path class="path-1" d="M183.989,344.441C184.446,339.745,185.787,330.599,187.491,324.896"/>
<path class="path-1" d="M187.491,324.896C189.294,319.028,191.708,313.194,194.589,307.068"/>
<path class="path-1" d="M194.589,307.068C196.876,300.990,198.947,293.509,200.549,286.444"/>
<path class="path-1" d="M200.549,286.444C202.453,282.185,205.160,279.897,205.208,276.600"/>
<path class="path-1" d="M205.208,276.600C204.899,272.627,204.430,270.553,208.110,269.532"/>
<path class="path-2" d="M208.110,269.532C212.538,268.636,222.092,268.947,222.886,274.088C224.877,278.778,219.885,288.469,219.085,293.073C213.902,310.492,206.781,327.174,206.673,344.926C206.780,349.422,208.366,358.679,204.525,362.228C202.160,364.413,195.521,361.596,193.869,363.502C191.350,366.376,186.469,357.446,185.460,355.450C184.585,353.718,183.916,346.559,183.989,344.441C184.446,339.745,185.787,330.599,187.491,324.896C189.294,319.028,191.708,313.194,194.589,307.068C196.876,300.990,198.947,293.509,200.549,286.444C202.453,282.185,205.160,279.897,205.208,276.600C204.899,272.627,204.430,270.553,208.110,269.532Z"/>
<path class="path-1" d="M299.635,240.237C304.254,240.061,311.733,244.511,310.708,249.670"/>
<path class="path-1" d="M310.708,249.670C310.293,252.768,303.076,261.290,298.233,264.511"/>
<path class="path-1" d="M298.233,264.511C295.244,266.499,288.830,267.947,286.907,268.368"/>
<path class="path-1" d="M286.907,268.368C281.789,269.205,281.299,264.281,281.145,260.643"/>
<path class="path-1" d="M281.145,260.643C281.113,255.963,284.426,249.410,287.829,245.973"/>
<path class="path-1" d="M287.829,245.973C290.599,243.175,295.313,240.247,299.635,240.237"/>
<path class="path-2" d="M299.635,240.237C304.254,240.061,311.733,244.511,310.708,249.670C310.293,252.768,303.076,261.290,298.233,264.511C295.244,266.499,288.830,267.947,286.907,268.368C281.789,269.205,281.299,264.281,281.145,260.643C281.113,255.963,284.426,249.410,287.829,245.973C290.599,243.175,295.313,240.247,299.635,240.237Z"/>
<path class="path-1" d="M223.093,243.639C227.666,251.249,232.814,258.983,227.816,259.915"/>
<path class="path-1" d="M227.816,259.915C222.681,260.874,219.838,260.491,211.257,258.284"/>
<path class="path-1" d="M211.257,258.284C200.220,255.446,196.533,239.859,202.107,234.716"/>
<path class="path-1" d="M202.107,234.716C207.136,230.077,217.750,234.747,223.093,243.639"/>
<path class="path-2" d="M223.093,243.639C227.666,251.249,232.814,258.983,227.816,259.915C222.681,260.874,219.838,260.491,211.257,258.284C200.220,255.446,196.533,239.859,202.107,234.716C207.136,230.077,217.750,234.747,223.093,243.639Z"/>
</g>
</g>
<style>
.path-0{fill:#000000;fill-rule:evenodd;stroke:none;}
.path-1{fill:none;stroke:#a60d3f;stroke-width:1;stroke-linecap:butt;stroke-linejoin:round;}
.path-2{fill:#a60d3f;fill-rule:evenodd;stroke:none;}
.path-3{fill:none;stroke:#d88e4b;stroke-width:1;stroke-linecap:butt;stroke-linejoin:round;}
.path-4{fill:#d88e4b;fill-rule:evenodd;stroke:none;}
.path-5{fill:none;stroke:#6e2353;stroke-width:1;stroke-linecap:butt;stroke-linejoin:round;}
.path-6{fill:#6e2353;fill-rule:evenodd;stroke:none;}
.path-7{fill:none;stroke:#392966;stroke-width:1;stroke-linecap:butt;stroke-linejoin:round;}
.path-8{fill:#392966;fill-rule:evenodd;stroke:none;}
.path-9{fill:none;stroke:#cc9bc5;stroke-width:1;stroke-linecap:butt;stroke-linejoin:round;}
.path-10{fill:#cc9bc5;fill-rule:evenodd;stroke:none;}
.path-11{fill:none;stroke:#620527;stroke-width:1;stroke-linecap:butt;stroke-linejoin:round;}
.path-12{fill:#620527;fill-rule:evenodd;stroke:none;}
.path-13{fill:none;stroke:#6a3661;stroke-width:1;stroke-linecap:butt;stroke-linejoin:round;}
.path-14{fill:#6a3661;fill-rule:evenodd;stroke:none;}
.path-15{fill:none;stroke:#f8a087;stroke-width:1;stroke-linecap:butt;stroke-linejoin:round;}
.path-16{fill:#f8a087;fill-rule:evenodd;stroke:none;}
.path-17{fill:none;stroke:#ffffff;stroke-width:1;stroke-linecap:butt;stroke-linejoin:round;}
.path-18{fill:#ffffff;fill-rule:evenodd;stroke:none;}
.path-19{fill:none;stroke:#d89f4a;stroke-width:1;stroke-linecap:butt;stroke-linejoin:round;}
.path-20{fill:#d89f4a;fill-rule:evenodd;stroke:none;}
.path-21{fill:none;stroke:#fafd5b;stroke-width:1;stroke-linecap:butt;stroke-linejoin:round;}
.path-22{fill:#fafd5b;fill-rule:evenodd;stroke:none;}
.path-23{fill:none;stroke:#00ff00;stroke-width:8;stroke-linecap:round;stroke-linejoin:round;}
.path-24{fill:none;stroke:#fafafa;stroke-width:1;stroke-linecap:butt;stroke-linejoin:round;}
.path-25{fill:#fafafa;fill-rule:evenodd;stroke:none;}
.path-26{fill:none;stroke:#ececec;stroke-width:1;stroke-linecap:butt;stroke-linejoin:round;}
.path-27{fill:#ececec;fill-rule:evenodd;stroke:none;}
.path-28{fill:none;stroke:#d7d7d7;stroke-width:1;stroke-linecap:butt;stroke-linejoin:round;}
.path-29{fill:#d7d7d7;fill-rule:evenodd;stroke:none;}
.path-30{fill:none;stroke:#bdbdbd;stroke-width:1;stroke-linecap:butt;stroke-linejoin:round;}
.path-31{fill:#bdbdbd;fill-rule:evenodd;stroke:none;}
.path-32{fill:none;stroke:#9f9f9f;stroke-width:1;stroke-linecap:butt;stroke-linejoin:round;}
.path-33{fill:#9f9f9f;fill-rule:evenodd;stroke:none;}
.path-34{fill:none;stroke:#808080;stroke-width:1;stroke-linecap:butt;stroke-linejoin:round;}
.path-35{fill:#808080;fill-rule:evenodd;stroke:none;}
.path-36{fill:none;stroke:#606060;stroke-width:1;stroke-linecap:butt;stroke-linejoin:round;}
.path-37{fill:#606060;fill-rule:evenodd;stroke:none;}
.path-38{fill:none;stroke:#424242;stroke-width:1;stroke-linecap:butt;stroke-linejoin:round;}
.path-39{fill:#424242;fill-rule:evenodd;stroke:none;}
.path-40{fill:none;stroke:#282828;stroke-width:1;stroke-linecap:butt;stroke-linejoin:round;}
.path-41{fill:#282828;fill-rule:evenodd;stroke:none;}
.path-42{fill:none;stroke:#131313;stroke-width:1;stroke-linecap:butt;stroke-linejoin:round;}
.path-43{fill:#131313;fill-rule:evenodd;stroke:none;}
.path-44{fill:none;stroke:#050505;stroke-width:1;stroke-linecap:butt;stroke-linejoin:round;}
.path-45{fill:#050505;fill-rule:evenodd;stroke:none;}
.path-46{fill:none;stroke:#000000;stroke-width:1;stroke-linecap:butt;stroke-linejoin:round;}
</style>
</svg>
