<svg version="1.1" id="Frame_14" xmlns="http://www.w3.org/2000/svg" xmlns:xlink="http://www.w3.org/1999/xlink" width="480px" height="720px">
<g id="main_bone">
<g id="right_arm">
<path class="path-0" d="M174.126,270.172C175.458,267.511,178.075,262.017,181.778,260.525C188.182,257.943,193.652,263.933,194.431,268.509C196.093,276.447,190.936,287.396,188.470,295.289C182.390,314.329,175.637,333.084,171.132,352.015C170.600,355.317,165.808,376.634,165.808,373.973C165.476,380.626,172.130,386.283,174.459,391.939C177.454,399.590,174.791,406.910,172.795,413.897C168.138,428.535,168.471,433.858,167.804,448.165C167.804,450.492,167.473,458.146,163.812,458.146C160.487,458.146,160.153,452.157,159.488,449.828C159.155,447.167,156.825,441.510,157.492,439.182C157.823,435.190,162.483,436.188,157.492,427.870C151.170,417.555,139.526,409.240,136.532,395.931C134.536,385.285,140.191,375.969,143.186,365.988C149.508,344.695,156.494,323.404,163.812,302.111C167.805,291.132,168.802,281.484,174.126,270.172M193.754,262.188C193.755,253.538,190.761,245.885,180.115,249.546C163.481,255.200,158.822,281.484,154.165,296.122C147.512,316.084,141.855,336.046,136.199,356.007C133.870,364.657,130.544,368.982,129.212,373.973C127.549,379.628,127.881,388.280,128.214,393.935C128.214,411.567,133.869,412.234,140.856,425.874C144.517,433.859,140.525,438.849,142.852,445.835C144.517,450.492,148.176,453.820,150.837,457.813C153.166,461.805,153.499,464.135,155.162,467.793C157.158,472.119,163.481,481.767,169.136,479.771C173.793,478.108,173.793,469.790,174.126,465.797C174.459,459.809,178.119,436.853,179.450,429.866C181.778,418.554,187.435,406.245,185.770,393.935C184.440,384.619,176.122,377.965,176.456,367.985C176.787,362.661,180.115,354.011,181.113,348.023C182.776,338.375,182.776,328.061,184.772,318.081C188.099,300.448,194.421,280.487,193.754,262.188Z"/>
<path class="path-1" d="M181.778,260.525C188.182,257.943,193.652,263.933,194.431,268.509"/>
<path class="path-1" d="M194.431,268.509C196.093,276.447,190.936,287.396,188.470,295.289"/>
<path class="path-1" d="M188.470,295.289C182.390,314.329,175.637,333.084,171.132,352.015"/>
<path class="path-1" d="M171.132,352.015C170.600,355.317,165.808,376.634,165.808,373.973"/>
<path class="path-1" d="M165.808,373.973C165.476,380.626,172.130,386.283,174.459,391.939"/>
<path class="path-1" d="M174.459,391.939C177.454,399.590,174.791,406.910,172.795,413.897"/>
<path class="path-1" d="M172.795,413.897C168.138,428.535,168.471,433.858,167.804,448.165"/>
<path class="path-1" d="M167.804,448.165C167.804,450.492,167.473,458.146,163.812,458.146"/>
<path class="path-1" d="M163.812,458.146C160.487,458.146,160.153,452.157,159.488,449.828"/>
<path class="path-1" d="M159.488,449.828C159.155,447.167,156.825,441.510,157.492,439.182"/>
<path class="path-1" d="M157.492,439.182C157.823,435.190,162.483,436.188,157.492,427.870"/>
<path class="path-1" d="M157.492,427.870C151.170,417.555,139.526,409.240,136.532,395.931"/>
<path class="path-1" d="M136.532,395.931C134.536,385.285,140.191,375.969,143.186,365.988"/>
<path class="path-1" d="M143.186,365.988C149.508,344.695,156.494,323.404,163.812,302.111"/>
<path class="path-1" d="M163.812,302.111C167.805,291.132,168.802,281.484,174.126,270.172"/>
<path class="path-1" d="M174.126,270.172C175.458,267.511,178.075,262.017,181.778,260.525"/>
<path class="path-2" d="M181.778,260.525C188.182,257.943,193.652,263.933,194.431,268.509C196.093,276.447,190.936,287.396,188.470,295.289C182.390,314.329,175.637,333.084,171.132,352.015C170.600,355.317,165.808,376.634,165.808,373.973C165.476,380.626,172.130,386.283,174.459,391.939C177.454,399.590,174.791,406.910,172.795,413.897C168.138,428.535,168.471,433.858,167.804,448.165C167.804,450.492,167.473,458.146,163.812,458.146C160.487,458.146,160.153,452.157,159.488,449.828C159.155,447.167,156.825,441.510,157.492,439.182C157.823,435.190,162.483,436.188,157.492,427.870C151.170,417.555,139.526,409.240,136.532,395.931C134.536,385.285,140.191,375.969,143.186,365.988C149.508,344.695,156.494,323.404,163.812,302.111C167.805,291.132,168.802,281.484,174.126,270.172C175.458,267.511,178.075,262.017,181.778,260.525Z"/>
</g>
<g id="layer_right_leg">
<g id="right_sole">
<path class="path-0" d="M188.843,669.484C190.310,669.815,205.416,669.729,207.090,669.729C208.462,669.752,216.922,669.721,218.091,669.636C218.812,669.602,226.157,669.361,226.716,669.849C226.310,669.299,218.310,670.850,217.837,670.861C216.942,670.919,191.232,670.763,190.934,670.866C189.710,670.905,178.734,669.855,178.057,668.886C179.179,668.351,187.158,669.101,188.843,669.484M226.304,663.444C226.342,663.714,224.843,665.215,224.435,665.211C223.606,665.205,211.281,666.618,210.195,666.349C208.951,666.265,200.790,666.338,199.668,666.286C197.395,666.180,180.412,665.397,178.428,664.308C178.327,664.227,177.990,663.769,177.997,663.697C178.033,663.413,184.622,664.543,185.712,664.552C187.426,664.565,200.375,663.340,202.131,663.275C204.017,663.204,217.892,663.507,219.825,663.344C220.127,663.326,226.175,662.766,226.304,663.444M231.714,659.520C221.049,656.497,212.410,660.554,202.925,660.800C195.837,661.011,182.189,659.323,173.610,661.264C172.288,661.563,169.780,661.538,169.408,662.922C168.928,664.720,172.304,668.555,174.484,669.993C177.185,671.776,182.819,671.814,185.053,672.156C196.380,674.311,210.765,673.150,222.441,672.733C231.062,672.432,233.221,668.959,234.090,664.825C234.448,663.119,235.030,660.414,231.714,659.520Z"/>
<path class="path-24" d="M188.843,669.484C190.310,669.815,205.416,669.729,207.090,669.729"/>
<path class="path-24" d="M207.090,669.729C208.462,669.752,216.922,669.721,218.091,669.636"/>
<path class="path-24" d="M218.091,669.636C218.812,669.602,226.157,669.361,226.716,669.849"/>
<path class="path-24" d="M226.716,669.849C226.310,669.299,218.310,670.850,217.837,670.861"/>
<path class="path-24" d="M217.837,670.861C216.942,670.919,191.232,670.763,190.934,670.866"/>
<path class="path-24" d="M190.934,670.866C189.710,670.905,178.734,669.855,178.057,668.886"/>
<path class="path-24" d="M178.057,668.886C179.179,668.351,187.158,669.101,188.843,669.484"/>
<path class="path-0" d="M188.843,669.484C190.310,669.815,205.416,669.729,207.090,669.729C208.462,669.752,216.922,669.721,218.091,669.636C218.812,669.602,226.157,669.361,226.716,669.849C226.310,669.299,218.310,670.850,217.837,670.861C216.942,670.919,191.232,670.763,190.934,670.866C189.710,670.905,178.734,669.855,178.057,668.886C179.179,668.351,187.158,669.101,188.843,669.484Z"/>
<path class="path-24" d="M185.712,664.552C187.426,664.565,200.375,663.340,202.131,663.275"/>
<path class="path-24" d="M202.131,663.275C204.017,663.204,217.892,663.507,219.825,663.344"/>
<path class="path-24" d="M219.825,663.344C220.127,663.326,226.175,662.766,226.304,663.444"/>
<path class="path-24" d="M226.304,663.444C226.342,663.714,224.843,665.215,224.435,665.211"/>
<path class="path-24" d="M224.435,665.211C223.606,665.205,211.281,666.618,210.195,666.349"/>
<path class="path-24" d="M210.195,666.349C208.951,666.265,200.790,666.338,199.668,666.286"/>
<path class="path-24" d="M199.668,666.286C197.395,666.180,180.412,665.397,178.428,664.308"/>
<path class="path-24" d="M178.428,664.308C178.327,664.227,177.990,663.769,177.997,663.697"/>
<path class="path-24" d="M177.997,663.697C178.033,663.413,184.622,664.543,185.712,664.552"/>
<path class="path-0" d="M185.712,664.552C187.426,664.565,200.375,663.340,202.131,663.275C204.017,663.204,217.892,663.507,219.825,663.344C220.127,663.326,226.175,662.766,226.304,663.444C226.342,663.714,224.843,665.215,224.435,665.211C223.606,665.205,211.281,666.618,210.195,666.349C208.951,666.265,200.790,666.338,199.668,666.286C197.395,666.180,180.412,665.397,178.428,664.308C178.327,664.227,177.990,663.769,177.997,663.697C178.033,663.413,184.622,664.543,185.712,664.552Z"/>
</g>
<g id="right_heel">
<path class="path-0" d="M184.799,608.567C185.550,592.527,186.766,580.103,206.332,577.253C215.096,575.816,231.801,578.567,236.631,587.040C239.158,591.228,238.393,597.379,238.629,601.857C239.075,609.128,243.461,623.187,233.207,624.843C232.551,625.014,214.504,625.234,208.871,625.354C201.466,626.201,193.781,626.695,188.433,621.562C185.815,618.494,184.555,612.225,184.799,608.567M246.048,585.363C242.173,575.100,228.029,569.358,218.097,570.824C205.233,572.562,192.059,568.288,183.679,580.330C177.248,589.569,176.452,606.540,178.365,617.320C179.094,622.370,182.282,631.579,186.477,634.375C189.552,636.331,194.305,635.765,197.941,635.772C215.740,636.091,247.586,642.200,247.190,615.643C247.018,608.936,248.029,590.668,246.048,585.363Z"/>
<path class="path-3" d="M206.332,577.253C215.096,575.816,231.801,578.567,236.631,587.040"/>
<path class="path-3" d="M236.631,587.040C239.158,591.228,238.393,597.379,238.629,601.857"/>
<path class="path-3" d="M238.629,601.857C239.075,609.128,243.461,623.187,233.207,624.843"/>
<path class="path-3" d="M233.207,624.843C232.551,625.014,214.504,625.234,208.871,625.354"/>
<path class="path-3" d="M208.871,625.354C201.466,626.201,193.781,626.695,188.433,621.562"/>
<path class="path-3" d="M188.433,621.562C185.815,618.494,184.555,612.225,184.799,608.567"/>
<path class="path-3" d="M184.799,608.567C185.550,592.527,186.766,580.103,206.332,577.253"/>
<path class="path-4" d="M206.332,577.253C215.096,575.816,231.801,578.567,236.631,587.040C239.158,591.228,238.393,597.379,238.629,601.857C239.075,609.128,243.461,623.187,233.207,624.843C232.551,625.014,214.504,625.234,208.871,625.354C201.466,626.201,193.781,626.695,188.433,621.562C185.815,618.494,184.555,612.225,184.799,608.567C185.550,592.527,186.766,580.103,206.332,577.253Z"/>
</g>
<g id="right_toe">
<path class="path-0" d="M171.335,640.386C172.620,627.765,177.818,611.673,193.178,609.446C196.785,608.731,201.874,610.400,205.887,611.184C226.223,615.103,234.269,619.510,235.066,640.386C235.165,645.960,236.010,652.848,231.897,657.369C227.613,661.995,207.125,659.815,200.874,660.039C189.938,660.671,180.505,665.330,173.075,655.696C168.877,650.134,170.684,646.871,171.335,640.386M242.924,619.096C236.249,605.625,205.069,597.415,190.973,599.913C169.957,603.759,162.921,620.181,161.559,638.005C161.028,644.336,160.244,651.325,163.464,656.889C164.624,658.893,167.102,661.527,168.790,663.121C181.442,676.112,190.470,674.639,207.378,674.351C216.370,674.349,231.240,673.212,238.449,667.178C243.710,662.342,244.387,657.160,244.664,650.433C244.700,643.973,245.539,623.890,242.924,619.096Z"/>
<path class="path-3" d="M193.178,609.446C196.785,608.731,201.874,610.400,205.887,611.184"/>
<path class="path-3" d="M205.887,611.184C226.223,615.103,234.269,619.510,235.066,640.386"/>
<path class="path-3" d="M235.066,640.386C235.165,645.960,236.010,652.848,231.897,657.369"/>
<path class="path-3" d="M231.897,657.369C227.613,661.995,207.125,659.815,200.874,660.039"/>
<path class="path-3" d="M200.874,660.039C189.938,660.671,180.505,665.330,173.075,655.696"/>
<path class="path-3" d="M173.075,655.696C168.877,650.134,170.684,646.871,171.335,640.386"/>
<path class="path-3" d="M171.335,640.386C172.620,627.765,177.818,611.673,193.178,609.446"/>
<path class="path-4" d="M193.178,609.446C196.785,608.731,201.874,610.400,205.887,611.184C226.223,615.103,234.269,619.510,235.066,640.386C235.165,645.960,236.010,652.848,231.897,657.369C227.613,661.995,207.125,659.815,200.874,660.039C189.938,660.671,180.505,665.330,173.075,655.696C168.877,650.134,170.684,646.871,171.335,640.386C172.620,627.765,177.818,611.673,193.178,609.446Z"/>
</g>
<g id="right_leg">
<path class="path-0" d="M183.433,404.475C186.857,392.775,202.465,390.194,212.784,393.055C218.606,394.541,228.262,397.391,231.565,402.814C233.391,405.813,234.028,411.406,232.351,414.491C229.925,418.952,213.314,418.561,217.176,421.988C223.500,427.734,231.954,417.490,236.455,421.131C238.709,422.953,238.676,427.108,239.051,430.435C242.523,451.476,236.130,473.745,235.323,494.418C234.993,501.153,232.662,511.021,233.671,517.188C235.743,533.209,234.226,536.507,234.587,546.089C234.500,549.607,232.798,567.407,233.806,572.021C234.897,576.584,237.325,581.179,237.846,585.865C238.719,593.725,229.286,605.438,222.393,608.133C215.348,610.727,192.922,610.515,186.013,607.096C182.489,605.478,178.409,601.105,176.846,597.254C175.478,594.342,172.421,580.668,173.072,577.237C174.511,570.960,176.644,569.519,178.357,562.176C180.041,553.672,182.707,544.587,181.922,535.749C179.782,515.426,180.098,485.054,182.159,471.056C183.201,462.532,181.344,433.934,182.394,426.041C184.043,414.449,181.707,412.224,183.433,404.475M208.062,381.294C202.406,379.297,198.062,373.919,192.092,375.969C190.350,376.734,187.306,378.914,186.067,380.171C170.156,393.865,171.289,407.611,171.241,427.103C170.928,434.199,170.627,441.555,170.318,448.375C169.952,453.970,169.066,458.739,168.087,463.921C167.553,468.286,166.912,472.914,166.831,478.352C166.892,484.565,168.750,491.817,169.027,502.367C168.543,512.967,169.183,522.957,168.832,533.094C168.826,538.707,166.565,551.773,165.800,556.044C163.724,562.464,160.248,569.729,158.861,575.952C157.523,584.140,159.848,592.617,163.124,599.770C164.877,604.201,167.825,609.515,171.054,612.621C173.263,614.744,176.196,616.212,178.896,617.319C185.560,620.011,191.978,621.392,199.210,621.944C204.447,622.383,209.645,621.732,215.110,621.805C216.171,621.655,225.010,621.855,226.737,621.790C229.313,621.546,232.843,619.236,235.139,617.749C237.991,615.675,242.815,614.607,245.422,612.089C248.155,609.446,250.312,606.166,251.952,602.733C260.953,583.196,251.729,571.148,249.065,552.546C247.639,542.591,245.709,522.027,246.130,510.897C246.368,497.181,249.924,484.044,250.909,469.936C251.331,465.247,251.715,459.620,252.420,454.301C252.992,449.318,251.667,445.327,251.374,440.397C250.912,436.519,251.238,424.057,250.646,419.885C250.267,416.186,250.314,411.567,248.983,407.908C245.324,398.592,231.351,388.280,222.034,385.285C217.377,383.621,212.387,383.290,208.062,381.294Z"/>
<path class="path-7" d="M212.784,393.055C218.606,394.541,228.262,397.391,231.565,402.814"/>
<path class="path-7" d="M231.565,402.814C233.391,405.813,234.028,411.406,232.351,414.491"/>
<path class="path-7" d="M232.351,414.491C229.925,418.952,213.314,418.561,217.176,421.988"/>
<path class="path-7" d="M217.176,421.988C223.500,427.734,231.954,417.490,236.455,421.131"/>
<path class="path-7" d="M236.455,421.131C238.709,422.953,238.676,427.108,239.051,430.435"/>
<path class="path-7" d="M239.051,430.435C242.523,451.476,236.130,473.745,235.323,494.418"/>
<path class="path-7" d="M235.323,494.418C234.993,501.153,232.662,511.021,233.671,517.188"/>
<path class="path-7" d="M233.671,517.188C235.743,533.209,234.226,536.507,234.587,546.089"/>
<path class="path-7" d="M234.587,546.089C234.500,549.607,232.798,567.407,233.806,572.021"/>
<path class="path-7" d="M233.806,572.021C234.897,576.584,237.325,581.179,237.846,585.865"/>
<path class="path-7" d="M237.846,585.865C238.719,593.725,229.286,605.438,222.393,608.133"/>
<path class="path-7" d="M222.393,608.133C215.348,610.727,192.922,610.515,186.013,607.096"/>
<path class="path-7" d="M186.013,607.096C182.489,605.478,178.409,601.105,176.846,597.254"/>
<path class="path-7" d="M176.846,597.254C175.478,594.342,172.421,580.668,173.072,577.237"/>
<path class="path-7" d="M173.072,577.237C174.511,570.960,176.644,569.519,178.357,562.176"/>
<path class="path-7" d="M178.357,562.176C180.041,553.672,182.707,544.587,181.922,535.749"/>
<path class="path-7" d="M181.922,535.749C179.782,515.426,180.098,485.054,182.159,471.056"/>
<path class="path-7" d="M182.159,471.056C183.201,462.532,181.344,433.934,182.394,426.041"/>
<path class="path-7" d="M182.394,426.041C184.043,414.449,181.707,412.224,183.433,404.475"/>
<path class="path-7" d="M183.433,404.475C186.857,392.775,202.465,390.194,212.784,393.055"/>
<path class="path-8" d="M212.784,393.055C218.606,394.541,228.262,397.391,231.565,402.814C233.391,405.813,234.028,411.406,232.351,414.491C229.925,418.952,213.314,418.561,217.176,421.988C223.500,427.734,231.954,417.490,236.455,421.131C238.709,422.953,238.676,427.108,239.051,430.435C242.523,451.476,236.130,473.745,235.323,494.418C234.993,501.153,232.662,511.021,233.671,517.188C235.743,533.209,234.226,536.507,234.587,546.089C234.500,549.607,232.798,567.407,233.806,572.021C234.897,576.584,237.325,581.179,237.846,585.865C238.719,593.725,229.286,605.438,222.393,608.133C215.348,610.727,192.922,610.515,186.013,607.096C182.489,605.478,178.409,601.105,176.846,597.254C175.478,594.342,172.421,580.668,173.072,577.237C174.511,570.960,176.644,569.519,178.357,562.176C180.041,553.672,182.707,544.587,181.922,535.749C179.782,515.426,180.098,485.054,182.159,471.056C183.201,462.532,181.344,433.934,182.394,426.041C184.043,414.449,181.707,412.224,183.433,404.475C186.857,392.775,202.465,390.194,212.784,393.055Z"/>
</g>
</g>
<g id="layer_left_leg">
<g id="left_heel">
<path class="path-0" d="M241.848,642.643C238.400,630.540,251.903,619.604,262.641,619.197C280.152,618.513,298.298,631.963,297.066,638.353C294.217,650.979,270.510,648.628,259.489,648.125C254.863,647.761,243.060,646.939,241.848,642.643M290.319,613.667C274.230,604.032,243.784,605.196,231.541,617.135C221.837,626.554,221.573,659.101,233.874,660.966C251.115,663.591,293.320,660.871,301.590,657.292C311.355,653.153,310.761,637.866,306.883,628.741C303.942,622.822,296.110,617.249,290.319,613.667Z"/>
<path class="path-3" d="M262.641,619.197C280.152,618.513,298.298,631.963,297.066,638.353"/>
<path class="path-3" d="M297.066,638.353C294.217,650.979,270.510,648.628,259.489,648.125"/>
<path class="path-3" d="M259.489,648.125C254.863,647.761,243.060,646.939,241.848,642.643"/>
<path class="path-3" d="M241.848,642.643C238.400,630.540,251.903,619.604,262.641,619.197"/>
<path class="path-4" d="M262.641,619.197C280.152,618.513,298.298,631.963,297.066,638.353C294.217,650.979,270.510,648.628,259.489,648.125C254.863,647.761,243.060,646.939,241.848,642.643C238.400,630.540,251.903,619.604,262.641,619.197Z"/>
</g>
<g id="left_leg">
<path class="path-0" d="M238.898,405.789C240.259,401.055,250.101,404.835,253.973,404.581C260.672,404.465,275.948,401.234,281.255,405.535C287.046,409.917,287.321,430.035,287.960,436.992C289.145,455.750,294.481,472.838,297.598,490.719C299.930,506.283,301.842,522.435,304.734,537.592C306.569,545.419,310.187,553.171,312.357,560.434C313.594,571.077,321.025,582.655,314.967,590.528C300.510,607.063,295.107,601.625,280.783,607.865C269.589,612.340,253.464,603.601,244.472,597.357C239.657,594.247,229.746,588.829,228.114,583.415C219.338,554.276,226.662,518.261,228.810,488.490C229.729,475.757,239.787,450.505,239.680,436.755C239.653,433.286,240.989,431.949,242.287,428.638C243.145,426.435,238.955,419.646,238.351,417.326C237.335,414.403,237.905,408.645,238.898,405.789M289.007,398.384C282.168,392.643,262.212,393.981,253.973,394.933C249.408,395.443,234.650,394.170,231.681,396.811C223.257,404.307,230.002,424.379,230.446,433.562C230.320,440.577,219.019,472.432,217.266,481.713C213.734,509.203,208.393,533.052,210.985,560.647C212.275,576.654,213.231,592.725,220.802,606.636C231.539,626.036,249.820,628.062,275.595,623.773C296.551,620.476,320.192,623.310,327.978,594.131C333.780,572.535,326.710,549.013,323.490,540.030C320.169,530.782,316.174,521.348,313.277,511.224C308.774,497.322,306.120,482.941,303.337,468.509C300.173,452.023,302.556,409.809,289.007,398.384Z"/>
<path class="path-7" d="M253.973,404.581C260.672,404.465,275.948,401.234,281.255,405.535"/>
<path class="path-7" d="M281.255,405.535C287.046,409.917,287.321,430.035,287.960,436.992"/>
<path class="path-7" d="M287.960,436.992C289.145,455.750,294.481,472.838,297.598,490.719"/>
<path class="path-7" d="M297.598,490.719C299.930,506.283,301.842,522.435,304.734,537.592"/>
<path class="path-7" d="M304.734,537.592C306.569,545.419,310.187,553.171,312.357,560.434"/>
<path class="path-7" d="M312.357,560.434C313.594,571.077,321.025,582.655,314.967,590.528"/>
<path class="path-7" d="M314.967,590.528C300.510,607.063,295.107,601.625,280.783,607.865"/>
<path class="path-7" d="M280.783,607.865C269.589,612.340,253.464,603.601,244.472,597.357"/>
<path class="path-7" d="M244.472,597.357C239.657,594.247,229.746,588.829,228.114,583.415"/>
<path class="path-7" d="M228.114,583.415C219.338,554.276,226.662,518.261,228.810,488.490"/>
<path class="path-7" d="M228.810,488.490C229.729,475.757,239.787,450.505,239.680,436.755"/>
<path class="path-7" d="M239.680,436.755C239.653,433.286,240.989,431.949,242.287,428.638"/>
<path class="path-7" d="M242.287,428.638C243.145,426.435,238.955,419.646,238.351,417.326"/>
<path class="path-7" d="M238.351,417.326C237.335,414.403,237.905,408.645,238.898,405.789"/>
<path class="path-7" d="M238.898,405.789C240.259,401.055,250.101,404.835,253.973,404.581"/>
<path class="path-8" d="M253.973,404.581C260.672,404.465,275.948,401.234,281.255,405.535C287.046,409.917,287.321,430.035,287.960,436.992C289.145,455.750,294.481,472.838,297.598,490.719C299.930,506.283,301.842,522.435,304.734,537.592C306.569,545.419,310.187,553.171,312.357,560.434C313.594,571.077,321.025,582.655,314.967,590.528C300.510,607.063,295.107,601.625,280.783,607.865C269.589,612.340,253.464,603.601,244.472,597.357C239.657,594.247,229.746,588.829,228.114,583.415C219.338,554.276,226.662,518.261,228.810,488.490C229.729,475.757,239.787,450.505,239.680,436.755C239.653,433.286,240.989,431.949,242.287,428.638C243.145,426.435,238.955,419.646,238.351,417.326C237.335,414.403,237.905,408.645,238.898,405.789C240.259,401.055,250.101,404.835,253.973,404.581Z"/>
</g>
<g id="left_toe">
<path class="path-0" d="M255.853,648.322C220.424,639.119,233.811,588.184,252.386,585.800C283.551,581.801,300.844,597.815,308.906,607.799C316.522,617.296,315.689,630.680,309.056,641.223C299.215,654.315,270.030,652.017,255.853,648.322M313.394,584.596C298.023,575.694,276.493,563.855,255.693,569.773C236.317,575.285,218.691,589.710,216.422,613.479C214.421,628.976,216.496,644.109,226.640,655.996C236.476,666.820,269.012,667.277,282.928,665.972C296.344,663.775,314.791,661.756,322.559,649.319C330.693,636.714,326.084,591.945,313.394,584.596Z"/>
<path class="path-3" d="M252.386,585.800C283.551,581.801,300.844,597.815,308.906,607.799"/>
<path class="path-3" d="M308.906,607.799C316.522,617.296,315.689,630.680,309.056,641.223"/>
<path class="path-3" d="M309.056,641.223C299.215,654.315,270.030,652.017,255.853,648.322"/>
<path class="path-3" d="M255.853,648.322C220.424,639.119,233.811,588.184,252.386,585.800"/>
<path class="path-4" d="M252.386,585.800C283.551,581.801,300.844,597.815,308.906,607.799C316.522,617.296,315.689,630.680,309.056,641.223C299.215,654.315,270.030,652.017,255.853,648.322C220.424,639.119,233.811,588.184,252.386,585.800Z"/>
</g>
<g id="left_sole">
<path class="path-0" d="M251.460,661.998C241.854,658.589,235.246,656.236,236.988,655.723C241.003,654.541,247.727,653.461,254.127,652.700C260.542,651.974,281.751,657.830,293.368,656.088C297.366,655.813,309.594,657.751,309.673,658.061C311.019,663.375,294.889,660.619,290.303,661.191C282.626,662.396,252.709,661.742,251.460,661.998M235.526,648.637C233.356,646.145,244.335,641.639,246.766,641.207C273.178,636.512,298.828,639.052,309.217,642.390C310.880,642.919,316.621,646.854,315.136,648.833C312.472,652.382,300.555,646.150,289.492,645.881C267.802,645.182,238.961,652.582,235.526,648.637M320.820,640.089C312.012,635.746,293.371,632.288,270.557,632.400C252.625,632.484,229.156,632.321,225.756,646.863C224.541,652.111,231.862,667.558,236.759,669.530C250.185,675.014,314.451,670.744,319.142,664.151C322.860,658.926,325.855,642.572,320.820,640.089Z"/>
<path class="path-5" d="M236.988,655.723C241.003,654.541,247.727,653.461,254.127,652.700"/>
<path class="path-5" d="M254.127,652.700C260.542,651.974,281.751,657.830,293.368,656.088"/>
<path class="path-5" d="M293.368,656.088C297.366,655.813,309.594,657.751,309.673,658.061"/>
<path class="path-5" d="M309.673,658.061C311.019,663.375,294.889,660.619,290.303,661.191"/>
<path class="path-5" d="M290.303,661.191C282.626,662.396,252.709,661.742,251.460,661.998"/>
<path class="path-5" d="M251.460,661.998C241.854,658.589,235.246,656.236,236.988,655.723"/>
<path class="path-6" d="M236.988,655.723C241.003,654.541,247.727,653.461,254.127,652.700C260.542,651.974,281.751,657.830,293.368,656.088C297.366,655.813,309.594,657.751,309.673,658.061C311.019,663.375,294.889,660.619,290.303,661.191C282.626,662.396,252.709,661.742,251.460,661.998C241.854,658.589,235.246,656.236,236.988,655.723Z"/>
<path class="path-5" d="M246.766,641.207C273.178,636.512,298.828,639.052,309.217,642.390"/>
<path class="path-5" d="M309.217,642.390C310.880,642.919,316.621,646.854,315.136,648.833"/>
<path class="path-5" d="M315.136,648.833C312.472,652.382,300.555,646.150,289.492,645.881"/>
<path class="path-5" d="M289.492,645.881C267.802,645.182,238.961,652.582,235.526,648.637"/>
<path class="path-5" d="M235.526,648.637C233.356,646.145,244.335,641.639,246.766,641.207"/>
<path class="path-6" d="M246.766,641.207C273.178,636.512,298.828,639.052,309.217,642.390C310.880,642.919,316.621,646.854,315.136,648.833C312.472,652.382,300.555,646.150,289.492,645.881C267.802,645.182,238.961,652.582,235.526,648.637C233.356,646.145,244.335,641.639,246.766,641.207Z"/>
</g>
</g>
<g id="hat_brim">
<path class="path-0" d="M284.124,149.087C287.783,143.098,296.766,126.796,304.750,126.796C310.074,126.796,321.053,136.445,326.708,139.439C331.698,142.434,337.022,145.095,342.678,147.756C345.890,149.425,349.106,151.089,352.325,152.746C366.632,160.066,362.639,166.389,354.321,165.057C335.691,161.728,332.697,163.060,314.731,153.744C312.402,152.746,306.413,149.421,305.415,153.744C304.085,158.735,313.068,163.061,316.727,164.723C323.381,168.384,330.700,172.377,338.685,173.041C341.015,173.375,348.999,172.708,350.329,175.037C352.325,178.365,342.678,187.014,340.681,189.011C337.354,192.005,334.028,194.999,330.700,197.329C325.710,200.654,320.386,203.648,314.731,204.647C304.086,205.978,270.815,190.673,269.817,179.030C269.152,172.376,280.131,155.409,284.124,149.087M316.727,122.472C311.737,118.146,308.078,111.824,300.758,115.152C295.434,117.482,289.779,125.133,286.120,129.126C272.478,145.760,260.170,165.390,260.834,187.014C261.168,200.654,265.825,200.323,276.804,205.645C293.438,213.963,314.731,216.624,332.697,208.308C344.340,202.984,364.636,185.019,369.959,173.041C371.622,169.049,374.616,160.066,372.286,155.409C369.625,149.752,347.335,140.105,340.681,136.446C332.697,132.120,323.714,128.127,316.727,122.472Z"/>
<path class="path-9" d="M304.750,126.796C310.074,126.796,321.053,136.445,326.708,139.439"/>
<path class="path-9" d="M326.708,139.439C331.698,142.434,337.022,145.095,342.678,147.756"/>
<path class="path-9" d="M342.678,147.756C345.890,149.425,349.106,151.089,352.325,152.746"/>
<path class="path-9" d="M352.325,152.746C366.632,160.066,362.639,166.389,354.321,165.057"/>
<path class="path-9" d="M354.321,165.057C335.691,161.728,332.697,163.060,314.731,153.744"/>
<path class="path-9" d="M314.731,153.744C312.402,152.746,306.413,149.421,305.415,153.744"/>
<path class="path-9" d="M305.415,153.744C304.085,158.735,313.068,163.061,316.727,164.723"/>
<path class="path-9" d="M316.727,164.723C323.381,168.384,330.700,172.377,338.685,173.041"/>
<path class="path-9" d="M338.685,173.041C341.015,173.375,348.999,172.708,350.329,175.037"/>
<path class="path-9" d="M350.329,175.037C352.325,178.365,342.678,187.014,340.681,189.011"/>
<path class="path-9" d="M340.681,189.011C337.354,192.005,334.028,194.999,330.700,197.329"/>
<path class="path-9" d="M330.700,197.329C325.710,200.654,320.386,203.648,314.731,204.647"/>
<path class="path-9" d="M314.731,204.647C304.086,205.978,270.815,190.673,269.817,179.030"/>
<path class="path-9" d="M269.817,179.030C269.152,172.376,280.131,155.409,284.124,149.087"/>
<path class="path-9" d="M284.124,149.087C287.783,143.098,296.766,126.796,304.750,126.796"/>
<path class="path-10" d="M304.750,126.796C310.074,126.796,321.053,136.445,326.708,139.439C331.698,142.434,337.022,145.095,342.678,147.756C345.890,149.425,349.106,151.089,352.325,152.746C366.632,160.066,362.639,166.389,354.321,165.057C335.691,161.728,332.697,163.060,314.731,153.744C312.402,152.746,306.413,149.421,305.415,153.744C304.085,158.735,313.068,163.061,316.727,164.723C323.381,168.384,330.700,172.377,338.685,173.041C341.015,173.375,348.999,172.708,350.329,175.037C352.325,178.365,342.678,187.014,340.681,189.011C337.354,192.005,334.028,194.999,330.700,197.329C325.710,200.654,320.386,203.648,314.731,204.647C304.086,205.978,270.815,190.673,269.817,179.030C269.152,172.376,280.131,155.409,284.124,149.087C287.783,143.098,296.766,126.796,304.750,126.796Z"/>
</g>
<g id="hair">
<path class="path-0" d="M183.357,136.483C200.954,124.749,220.906,123.806,241.996,123.120C251.452,122.794,257.886,129.270,265.069,135.626C270.964,141.195,277.299,147.468,283.560,153.313C292.986,162.051,296.930,166.431,300.440,170.614C303.444,173.825,308.105,179.813,311.862,182.674C316.396,186.124,325.422,203.315,327.445,205.266C320.793,207.453,310.356,209.024,305.541,212.830C307.149,218.669,307.424,227.700,307.413,230.409C301.202,230.790,294.008,227.926,282.567,225.752C280.180,232.918,280.142,239.647,275.384,246.902C267.697,244.496,262.345,242.563,252.411,238.043C245.798,243.193,244.261,242.773,233.517,249.212C226.455,244.820,220.838,240.151,213.943,237.253C207.148,240.091,196.403,241.027,192.739,243.925C188.987,236.858,185.547,229.060,182.318,225.662C172.710,227.554,168.576,230.148,161.781,232.559C157.606,227.012,160.654,222.489,156.037,214.349C151.717,213.146,145.049,210.476,139.490,210.322C143.367,205.864,146.319,191.142,152.833,189.327C160.871,187.088,155.875,177.911,160.872,169.755C162.110,167.631,174.016,151.399,175.093,148.739C177.132,144.153,179.361,139.287,183.357,136.483M269.783,123.041C257.623,113.516,232.973,108.192,219.067,111.311C206.306,114.023,193.787,117.926,182.663,125.006C176.433,128.911,169.531,134.686,165.362,140.754C157.036,152.537,144.935,178.372,138.142,190.325C132.704,200.241,127.646,206.923,122.452,212.283C140.007,218.879,145.124,221.586,150.363,222.441C150.613,230.199,157.711,236.027,156.388,244.572C165.209,243.354,170.475,241.177,178.326,239.302C182.258,243.995,184.942,250.348,188.681,256.586C196.418,254.568,204.305,254.940,212.000,249.563C217.496,252.632,226.229,257.403,235.200,262.448C243.544,258.115,245.325,257.880,253.165,252.908C262.619,255.342,272.515,261.315,282.074,260.399C281.484,252.206,287.600,246.647,286.947,241.388C294.168,239.536,316.196,242.966,319.967,242.683C319.803,236.635,316.595,225.026,318.237,217.838C325.064,216.098,330.837,214.510,341.526,209.520C338.121,202.790,331.974,194.414,326.560,189.403C321.990,185.214,318.291,179.689,313.719,175.326C298.212,160.768,292.275,140.745,269.783,123.041Z"/>
<path class="path-11" d="M241.996,123.120C251.452,122.794,257.886,129.270,265.069,135.626"/>
<path class="path-11" d="M265.069,135.626C270.964,141.195,277.299,147.468,283.560,153.313"/>
<path class="path-11" d="M283.560,153.313C292.986,162.051,296.930,166.431,300.440,170.614"/>
<path class="path-11" d="M300.440,170.614C303.444,173.825,308.105,179.813,311.862,182.674"/>
<path class="path-11" d="M311.862,182.674C316.396,186.124,325.422,203.315,327.445,205.266"/>
<path class="path-11" d="M327.445,205.266C320.793,207.453,310.356,209.024,305.541,212.830"/>
<path class="path-11" d="M305.541,212.830C307.149,218.669,307.424,227.700,307.413,230.409"/>
<path class="path-11" d="M307.413,230.409C301.202,230.790,294.008,227.926,282.567,225.752"/>
<path class="path-11" d="M282.567,225.752C280.180,232.918,280.142,239.647,275.384,246.902"/>
<path class="path-11" d="M275.384,246.902C267.697,244.496,262.345,242.563,252.411,238.043"/>
<path class="path-11" d="M252.411,238.043C245.798,243.193,244.261,242.773,233.517,249.212"/>
<path class="path-11" d="M233.517,249.212C226.455,244.820,220.838,240.151,213.943,237.253"/>
<path class="path-11" d="M213.943,237.253C207.148,240.091,196.403,241.027,192.739,243.925"/>
<path class="path-11" d="M192.739,243.925C188.987,236.858,185.547,229.060,182.318,225.662"/>
<path class="path-11" d="M182.318,225.662C172.710,227.554,168.576,230.148,161.781,232.559"/>
<path class="path-11" d="M161.781,232.559C157.606,227.012,160.654,222.489,156.037,214.349"/>
<path class="path-11" d="M156.037,214.349C151.717,213.146,145.049,210.476,139.490,210.322"/>
<path class="path-11" d="M139.490,210.322C143.367,205.864,146.319,191.142,152.833,189.327"/>
<path class="path-11" d="M152.833,189.327C160.871,187.088,155.875,177.911,160.872,169.755"/>
<path class="path-11" d="M160.872,169.755C162.110,167.631,174.016,151.399,175.093,148.739"/>
<path class="path-11" d="M175.093,148.739C177.132,144.153,179.361,139.287,183.357,136.483"/>
<path class="path-11" d="M183.357,136.483C200.954,124.749,220.906,123.806,241.996,123.120"/>
<path class="path-12" d="M241.996,123.120C251.452,122.794,257.886,129.270,265.069,135.626C270.964,141.195,277.299,147.468,283.560,153.313C292.986,162.051,296.930,166.431,300.440,170.614C303.444,173.825,308.105,179.813,311.862,182.674C316.396,186.124,325.422,203.315,327.445,205.266C320.793,207.453,310.356,209.024,305.541,212.830C307.149,218.669,307.424,227.700,307.413,230.409C301.202,230.790,294.008,227.926,282.567,225.752C280.180,232.918,280.142,239.647,275.384,246.902C267.697,244.496,262.345,242.563,252.411,238.043C245.798,243.193,244.261,242.773,233.517,249.212C226.455,244.820,220.838,240.151,213.943,237.253C207.148,240.091,196.403,241.027,192.739,243.925C188.987,236.858,185.547,229.060,182.318,225.662C172.710,227.554,168.576,230.148,161.781,232.559C157.606,227.012,160.654,222.489,156.037,214.349C151.717,213.146,145.049,210.476,139.490,210.322C143.367,205.864,146.319,191.142,152.833,189.327C160.871,187.088,155.875,177.911,160.872,169.755C162.110,167.631,174.016,151.399,175.093,148.739C177.132,144.153,179.361,139.287,183.357,136.483C200.954,124.749,220.906,123.806,241.996,123.120Z"/>
</g>
<g id="clothes">
<path class="path-0" d="M244.353,366.512C239.093,364.889,219.559,366.046,216.491,370.863C214.476,374.246,218.031,375.712,221.459,375.722C225.384,375.733,246.048,374.982,248.649,373.165C252.873,370.139,246.585,367.095,244.353,366.512M191.093,266.179C194.088,253.538,221.037,240.563,234.012,241.561C242.994,242.226,271.274,256.199,275.266,264.517C278.592,271.170,279.590,295.789,279.924,304.107C280.257,319.412,281.061,334.757,282.253,350.019C283.730,361.701,293.331,373.689,289.077,384.670C287.337,387.848,278.984,389.911,275.192,391.140C269.205,393.398,257.536,398.983,251.644,399.031C228.012,399.865,230.288,400.023,208.114,400.437C204.063,400.358,190.889,400.205,188.241,398.469C182.268,393.484,184.971,384.916,186.218,377.529C189.070,364.004,190.333,354.657,191.427,340.038C192.522,323.982,194.088,306.768,194.088,290.134C193.755,284.145,190.429,269.839,191.093,266.179M269.943,247.549C253.640,237.899,237.670,229.915,218.042,235.573C212.718,236.902,186.103,249.877,183.773,253.205C180.115,258.529,183.773,278.821,183.773,286.141C184.107,294.791,184.440,303.773,183.773,312.092C183.442,318.413,182.111,324.069,182.111,330.057C181.777,336.710,181.926,343.910,180.780,350.019C177.573,366.465,166.389,399.238,186.170,409.923C191.105,412.612,198.120,411.898,204.055,411.924C214.067,411.775,224.812,412.139,234.876,410.719C247.308,409.313,259.287,405.402,271.870,403.989C278.580,403.236,300.269,408.243,304.645,402.610C306.839,399.913,305.058,384.593,304.160,380.768C300.608,368.330,293.923,356.749,291.567,344.031C289.713,332.193,289.239,320.410,289.904,308.100C290.237,298.119,291.900,288.471,291.900,278.157C291.567,273.831,292.234,268.510,289.904,264.184C285.912,256.199,277.263,251.873,269.943,247.549Z"/>
<path class="path-13" d="M244.353,366.512C239.093,364.889,219.559,366.046,216.491,370.863"/>
<path class="path-13" d="M216.491,370.863C214.476,374.246,218.031,375.712,221.459,375.722"/>
<path class="path-13" d="M221.459,375.722C225.384,375.733,246.048,374.982,248.649,373.165"/>
<path class="path-13" d="M248.649,373.165C252.873,370.139,246.585,367.095,244.353,366.512"/>
<path class="path-13" d="M191.093,266.179C194.088,253.538,221.037,240.563,234.012,241.561"/>
<path class="path-13" d="M234.012,241.561C242.994,242.226,271.274,256.199,275.266,264.517"/>
<path class="path-13" d="M275.266,264.517C278.592,271.170,279.590,295.789,279.924,304.107"/>
<path class="path-13" d="M279.924,304.107C280.257,319.412,281.061,334.757,282.253,350.019"/>
<path class="path-13" d="M282.253,350.019C283.730,361.701,293.331,373.689,289.077,384.670"/>
<path class="path-13" d="M289.077,384.670C287.337,387.848,278.984,389.911,275.192,391.140"/>
<path class="path-13" d="M275.192,391.140C269.205,393.398,257.536,398.983,251.644,399.031"/>
<path class="path-13" d="M251.644,399.031C228.012,399.865,230.288,400.023,208.114,400.437"/>
<path class="path-13" d="M208.114,400.437C204.063,400.358,190.889,400.205,188.241,398.469"/>
<path class="path-13" d="M188.241,398.469C182.268,393.484,184.971,384.916,186.218,377.529"/>
<path class="path-13" d="M186.218,377.529C189.070,364.004,190.333,354.657,191.427,340.038"/>
<path class="path-13" d="M191.427,340.038C192.522,323.982,194.088,306.768,194.088,290.134"/>
<path class="path-13" d="M194.088,290.134C193.755,284.145,190.429,269.839,191.093,266.179"/>
<path class="path-14" d="M244.353,366.512C239.093,364.889,219.559,366.046,216.491,370.863C214.476,374.246,218.031,375.712,221.459,375.722C225.384,375.733,246.048,374.982,248.649,373.165C252.873,370.139,246.585,367.095,244.353,366.512M191.093,266.179C194.088,253.538,221.037,240.563,234.012,241.561C242.994,242.226,271.274,256.199,275.266,264.517C278.592,271.170,279.590,295.789,279.924,304.107C280.257,319.412,281.061,334.757,282.253,350.019C283.730,361.701,293.331,373.689,289.077,384.670C287.337,387.848,278.984,389.911,275.192,391.140C269.205,393.398,257.536,398.983,251.644,399.031C228.012,399.865,230.288,400.023,208.114,400.437C204.063,400.358,190.889,400.205,188.241,398.469C182.268,393.484,184.971,384.916,186.218,377.529C189.070,364.004,190.333,354.657,191.427,340.038C192.522,323.982,194.088,306.768,194.088,290.134C193.755,284.145,190.429,269.839,191.093,266.179Z"/>
</g>
<g id="neck">
<path class="path-0" d="M229.021,222.597C229.354,219.269,230.353,216.275,234.012,215.942C245.656,213.946,244.657,251.542,234.012,251.542C224.031,251.542,228.356,228.917,229.021,222.597M234.012,206.628C231.351,206.295,228.357,206.959,226.027,208.291C216.711,212.948,218.042,221.599,218.042,230.248C217.708,234.574,218.042,238.567,216.046,242.226C214.383,245.553,209.724,248.879,209.724,252.540C210.057,262.521,237.006,262.521,243.993,262.188C246.653,262.187,255.636,263.185,256.634,259.526C256.634,258.528,249.981,246.883,248.983,242.226C245.989,228.252,255.305,207.626,234.012,206.628Z"/>
<path class="path-15" d="M234.012,215.942C245.656,213.946,244.657,251.542,234.012,251.542"/>
<path class="path-15" d="M234.012,251.542C224.031,251.542,228.356,228.917,229.021,222.597"/>
<path class="path-15" d="M229.021,222.597C229.354,219.269,230.353,216.275,234.012,215.942"/>
<path class="path-16" d="M234.012,215.942C245.656,213.946,244.657,251.542,234.012,251.542C224.031,251.542,228.356,228.917,229.021,222.597C229.354,219.269,230.353,216.275,234.012,215.942Z"/>
</g>
<g id="layer_head">
<g id="right_ear">
<path class="path-0" d="M149.313,193.659C135.083,194.689,119.989,159.747,141.009,161.503C144.623,161.805,147.467,167.933,148.072,170.629C150.166,179.923,159.418,192.933,149.313,193.659M146.497,149.893C143.168,147.911,139.082,147.237,135.535,148.795C124.737,151.607,119.076,164.394,120.994,175.444C123.293,187.888,137.074,201.691,148.614,203.964C151.659,204.579,157.939,206.676,160.836,205.135C167.468,201.062,160.771,190.807,158.799,185.027C156.814,178.768,151.284,153.982,146.497,149.893Z"/>
<path class="path-15" d="M141.009,161.503C144.623,161.805,147.467,167.933,148.072,170.629"/>
<path class="path-15" d="M148.072,170.629C150.166,179.923,159.418,192.933,149.313,193.659"/>
<path class="path-15" d="M149.313,193.659C135.083,194.689,119.989,159.747,141.009,161.503"/>
<path class="path-16" d="M141.009,161.503C144.623,161.805,147.467,167.933,148.072,170.629C150.166,179.923,159.418,192.933,149.313,193.659C135.083,194.689,119.989,159.747,141.009,161.503Z"/>
</g>
<g id="face_Mask">
<g id="face">
<path class="path-0" d="M164.664,104.855C173.150,94.406,205.919,87.221,219.559,85.225C234.864,83.229,250.500,85.558,265.471,90.215C270.795,91.880,278.457,93.863,283.103,97.535C291.037,103.853,295.999,115.144,298.855,124.461C301.118,131.218,305.238,140.277,303.423,146.761C295.251,175.947,291.030,189.345,285.223,197.516C278.009,207.664,264.917,211.471,253.503,216.177C241.383,220.972,229.067,222.857,222.664,222.513C210.243,221.846,183.523,215.445,174.418,207.772C163.975,198.634,162.870,184.857,158.783,172.211C156.294,165.251,152.275,154.757,150.970,147.633C149.121,136.556,157.679,113.376,164.664,104.855M287.121,89.859C273.513,77.628,237.236,74.828,219.602,77.472C211.282,78.462,203.297,79.120,195.643,81.111C189.984,82.773,184.988,85.432,179.661,87.095C168.015,91.419,163.203,89.980,155.373,100.745C149.750,108.280,141.010,137.966,141.935,147.164C142.749,154.046,149.721,169.446,152.046,177.172C155.028,187.297,157.422,201.769,163.849,209.667C170.870,218.043,180.429,222.520,195.147,226.746C206.600,230.035,219.314,231.407,231.581,231.724C236.509,232.154,245.688,229.303,258.873,223.622C270.859,218.279,283.979,213.627,292.183,202.273C301.817,188.939,305.981,167.428,314.005,145.459C320.790,126.882,295.593,97.309,287.121,89.859Z"/>
<path class="path-15" d="M219.559,85.225C234.864,83.229,250.500,85.558,265.471,90.215"/>
<path class="path-15" d="M265.471,90.215C270.795,91.880,278.457,93.863,283.103,97.535"/>
<path class="path-15" d="M283.103,97.535C291.037,103.853,295.999,115.144,298.855,124.461"/>
<path class="path-15" d="M298.855,124.461C301.118,131.218,305.238,140.277,303.423,146.761"/>
<path class="path-15" d="M303.423,146.761C295.251,175.947,291.030,189.345,285.223,197.516"/>
<path class="path-15" d="M285.223,197.516C278.009,207.664,264.917,211.471,253.503,216.177"/>
<path class="path-15" d="M253.503,216.177C241.383,220.972,229.067,222.857,222.664,222.513"/>
<path class="path-15" d="M222.664,222.513C210.243,221.846,183.523,215.445,174.418,207.772"/>
<path class="path-15" d="M174.418,207.772C163.975,198.634,162.870,184.857,158.783,172.211"/>
<path class="path-15" d="M158.783,172.211C156.294,165.251,152.275,154.757,150.970,147.633"/>
<path class="path-15" d="M150.970,147.633C149.121,136.556,157.679,113.376,164.664,104.855"/>
<path class="path-15" d="M164.664,104.855C173.150,94.406,205.919,87.221,219.559,85.225"/>
<path class="path-16" d="M219.559,85.225C234.864,83.229,250.500,85.558,265.471,90.215C270.795,91.880,278.457,93.863,283.103,97.535C291.037,103.853,295.999,115.144,298.855,124.461C301.118,131.218,305.238,140.277,303.423,146.761C295.251,175.947,291.030,189.345,285.223,197.516C278.009,207.664,264.917,211.471,253.503,216.177C241.383,220.972,229.067,222.857,222.664,222.513C210.243,221.846,183.523,215.445,174.418,207.772C163.975,198.634,162.870,184.857,158.783,172.211C156.294,165.251,152.275,154.757,150.970,147.633C149.121,136.556,157.679,113.376,164.664,104.855C173.150,94.406,205.919,87.221,219.559,85.225Z"/>
</g>
</g>
<mask id="mask_target" style="mask-type:alpha;">
<use xlink:href="#face_Mask"/>
</mask>
<g id="mouse">
<path class="path-0" d="M229.461,214.056C234.666,215.160,234.749,219.913,234.276,220.420C234.008,220.706,232.886,219.755,229.926,219.268C224.320,218.346,221.614,219.519,221.417,218.805C221.200,218.021,223.369,212.764,229.461,214.056Z"/>
</g>
<g id="layer_eyes_Mtarget" mask="url(#mask_target)">
<g id="eyes">
<mask style="mask-type:alpha;" id="f3906406-f197-4bf1-91d8-744c09cca836">
<use xlink:href="#cmn_f3906406-f197-4bf1-91d8-744c09cca836"/>
</mask>
<g id="cmn_f3906406-f197-4bf1-91d8-744c09cca836">
<path class="path-0" d="M206.409,174.045C208.183,186.606,199.942,194.949,187.580,191.907C180.240,189.893,176.849,184.357,174.274,177.753C172.737,174.236,165.464,158.087,171.088,160.021C175.577,161.564,205.771,169.527,206.409,174.045M213.108,177.141C213.970,175.629,215.188,173.347,214.915,171.629C214.614,169.729,213.012,166.731,211.075,166.493C205.827,165.731,187.450,159.410,180.798,156.940C174.296,154.678,161.174,146.799,156.824,153.268C154.969,155.904,159.088,156.811,160.485,161.082C166.527,179.545,173.101,197.022,192.694,197.688C209.816,198.269,208.807,184.691,213.108,177.141M256.027,187.034C248.906,186.898,239.474,181.507,239.542,170.410C239.562,167.082,253.032,161.857,259.071,158.645C265.026,155.478,276.365,149.070,279.454,149.159C282.941,149.679,281.207,152.767,281.257,162.398C281.330,176.263,268.978,187.283,256.027,187.034M287.441,168.717C290.469,156.675,290.794,140.524,288.451,139.477C283.441,137.237,270.679,146.593,263.218,150.000C253.488,154.443,238.018,163.808,231.323,165.938C229.371,166.637,227.608,167.182,227.343,168.593C226.819,171.380,232.100,173.210,233.908,175.395C237.079,179.228,238.147,186.189,243.350,189.027C253.304,194.864,260.795,192.718,271.761,187.806C280.170,184.078,285.346,177.052,287.441,168.717Z"/>
<path class="path-17" d="M279.454,149.159C282.941,149.679,281.207,152.767,281.257,162.398"/>
<path class="path-17" d="M281.257,162.398C281.330,176.263,268.978,187.283,256.027,187.034"/>
<path class="path-17" d="M256.027,187.034C248.906,186.898,239.474,181.507,239.542,170.410"/>
<path class="path-17" d="M239.542,170.410C239.562,167.082,253.032,161.857,259.071,158.645"/>
<path class="path-17" d="M259.071,158.645C265.026,155.478,276.365,149.070,279.454,149.159"/>
<path class="path-18" d="M279.454,149.159C282.941,149.679,281.207,152.767,281.257,162.398C281.330,176.263,268.978,187.283,256.027,187.034C248.906,186.898,239.474,181.507,239.542,170.410C239.562,167.082,253.032,161.857,259.071,158.645C265.026,155.478,276.365,149.070,279.454,149.159Z"/>
<path class="path-17" d="M171.088,160.021C175.577,161.564,205.771,169.527,206.409,174.045"/>
<path class="path-17" d="M206.409,174.045C208.183,186.606,199.942,194.949,187.580,191.907"/>
<path class="path-17" d="M187.580,191.907C180.240,189.893,176.849,184.357,174.274,177.753"/>
<path class="path-17" d="M174.274,177.753C172.737,174.236,165.464,158.087,171.088,160.021"/>
<path class="path-18" d="M171.088,160.021C175.577,161.564,205.771,169.527,206.409,174.045C208.183,186.606,199.942,194.949,187.580,191.907C180.240,189.893,176.849,184.357,174.274,177.753C172.737,174.236,165.464,158.087,171.088,160.021Z"/>
</g>
</g>
<g id="pupil">
<path class="path-0" d="M246.768,163.203C249.053,162.633,252.224,165.830,253.059,174.285C253.678,180.548,252.059,183.115,250.326,183.321C248.427,183.546,246.781,180.947,245.498,174.170C244.128,166.938,244.788,163.696,246.768,163.203Z" mask="url(#f3906406-f197-4bf1-91d8-744c09cca836)"/>
<path class="path-0" d="M198.927,166.686C201.279,166.308,203.244,170.176,203.923,179.024C204.302,183.958,203.755,185.978,202.467,186.302C200.914,186.693,198.880,184.708,197.397,178.932C195.352,170.962,196.747,167.036,198.927,166.686Z" mask="url(#f3906406-f197-4bf1-91d8-744c09cca836)"/>
</g>
</g>
<g id="hat">
<path class="path-0" d="M303.017,122.802C305.037,124.098,308.002,126.461,308.342,129.123C309.693,135.454,298.704,134.852,295.370,135.191C288.746,135.200,281.823,134.991,275.496,135.147C270.349,135.743,265.196,136.265,260.038,136.750C251.379,136.887,242.730,136.548,234.073,136.443C219.553,136.837,205.080,136.409,190.521,136.339C189.177,136.386,150.492,140.848,143.956,137.311C135.123,132.634,144.206,125.803,143.851,121.406C143.836,117.799,135.988,116.817,137.949,110.587C139.898,104.720,160.717,100.713,166.907,99.399C179.128,96.738,191.688,93.123,204.581,91.175C222.668,88.591,241.336,89.001,259.740,87.392C272.449,86.384,301.605,94.107,307.338,107.165C312.133,117.702,295.408,107.877,293.417,107.221C291.721,105.983,285.718,103.357,287.127,107.119C288.408,112.966,298.783,119.416,303.017,122.802M185.763,86.647C175.361,89.119,165.692,90.785,155.674,93.106C151.356,94.095,146.083,96.681,142.066,94.479C133.053,89.770,142.877,66.838,147.171,60.922C161.508,41.670,192.420,33.336,217.649,33.324C262.681,33.301,280.318,40.273,295.227,55.369C299.871,59.733,316.347,81.495,307.664,87.481C304.339,89.467,298.359,85.510,295.375,84.173C285.091,79.828,242.810,73.086,185.763,86.647M244.959,23.207C237.376,22.688,235.462,21.088,227.448,21.721C196.171,24.663,154.231,26.527,135.582,56.682C129.600,66.604,129.513,77.847,127.475,88.434C125.790,96.978,120.830,103.535,121.774,112.091C122.740,119.099,125.771,120.765,128.051,126.126C130.657,131.814,129.237,134.478,130.857,138.162C134.391,148.874,144.108,148.398,153.443,148.351C158.281,148.328,176.128,148.176,185.848,148.010C197.708,147.807,213.518,147.408,225.374,147.064C234.576,146.797,246.848,146.451,256.044,146.026C264.501,145.635,275.781,145.108,284.215,144.379C294.421,143.496,316.952,141.691,318.135,140.455C320.251,138.282,324.142,117.114,324.165,113.165C324.184,109.806,322.530,106.440,322.566,101.064C322.334,86.564,322.079,73.072,313.964,59.494C299.048,35.022,271.713,25.700,244.959,23.207Z"/>
<path class="path-19" d="M259.740,87.392C272.449,86.384,301.605,94.107,307.338,107.165"/>
<path class="path-19" d="M307.338,107.165C312.133,117.702,295.408,107.877,293.417,107.221"/>
<path class="path-19" d="M293.417,107.221C291.721,105.983,285.718,103.357,287.127,107.119"/>
<path class="path-19" d="M287.127,107.119C288.408,112.966,298.783,119.416,303.017,122.802"/>
<path class="path-19" d="M303.017,122.802C305.037,124.098,308.002,126.461,308.342,129.123"/>
<path class="path-19" d="M308.342,129.123C309.693,135.454,298.704,134.852,295.370,135.191"/>
<path class="path-19" d="M295.370,135.191C288.746,135.200,281.823,134.991,275.496,135.147"/>
<path class="path-19" d="M275.496,135.147C270.349,135.743,265.196,136.265,260.038,136.750"/>
<path class="path-19" d="M260.038,136.750C251.379,136.887,242.730,136.548,234.073,136.443"/>
<path class="path-19" d="M234.073,136.443C219.553,136.837,205.080,136.409,190.521,136.339"/>
<path class="path-19" d="M190.521,136.339C189.177,136.386,150.492,140.848,143.956,137.311"/>
<path class="path-19" d="M143.956,137.311C135.123,132.634,144.206,125.803,143.851,121.406"/>
<path class="path-19" d="M143.851,121.406C143.836,117.799,135.988,116.817,137.949,110.587"/>
<path class="path-19" d="M137.949,110.587C139.898,104.720,160.717,100.713,166.907,99.399"/>
<path class="path-19" d="M166.907,99.399C179.128,96.738,191.688,93.123,204.581,91.175"/>
<path class="path-19" d="M204.581,91.175C222.668,88.591,241.336,89.001,259.740,87.392"/>
<path class="path-20" d="M259.740,87.392C272.449,86.384,301.605,94.107,307.338,107.165C312.133,117.702,295.408,107.877,293.417,107.221C291.721,105.983,285.718,103.357,287.127,107.119C288.408,112.966,298.783,119.416,303.017,122.802C305.037,124.098,308.002,126.461,308.342,129.123C309.693,135.454,298.704,134.852,295.370,135.191C288.746,135.200,281.823,134.991,275.496,135.147C270.349,135.743,265.196,136.265,260.038,136.750C251.379,136.887,242.730,136.548,234.073,136.443C219.553,136.837,205.080,136.409,190.521,136.339C189.177,136.386,150.492,140.848,143.956,137.311C135.123,132.634,144.206,125.803,143.851,121.406C143.836,117.799,135.988,116.817,137.949,110.587C139.898,104.720,160.717,100.713,166.907,99.399C179.128,96.738,191.688,93.123,204.581,91.175C222.668,88.591,241.336,89.001,259.740,87.392Z"/>
<path class="path-9" d="M217.649,33.324C262.681,33.301,280.318,40.273,295.227,55.369"/>
<path class="path-9" d="M295.227,55.369C299.871,59.733,316.347,81.495,307.664,87.481"/>
<path class="path-9" d="M307.664,87.481C304.339,89.467,298.359,85.510,295.375,84.173"/>
<path class="path-9" d="M295.375,84.173C285.091,79.828,242.810,73.086,185.763,86.647"/>
<path class="path-9" d="M185.763,86.647C175.361,89.119,165.692,90.785,155.674,93.106"/>
<path class="path-9" d="M155.674,93.106C151.356,94.095,146.083,96.681,142.066,94.479"/>
<path class="path-9" d="M142.066,94.479C133.053,89.770,142.877,66.838,147.171,60.922"/>
<path class="path-9" d="M147.171,60.922C161.508,41.670,192.420,33.336,217.649,33.324"/>
<path class="path-10" d="M217.649,33.324C262.681,33.301,280.318,40.273,295.227,55.369C299.871,59.733,316.347,81.495,307.664,87.481C304.339,89.467,298.359,85.510,295.375,84.173C285.091,79.828,242.810,73.086,185.763,86.647C175.361,89.119,165.692,90.785,155.674,93.106C151.356,94.095,146.083,96.681,142.066,94.479C133.053,89.770,142.877,66.838,147.171,60.922C161.508,41.670,192.420,33.336,217.649,33.324Z"/>
</g>
<g id="left_ear">
<path class="path-0" d="M301.573,186.996C300.431,183.060,309.437,158.432,311.095,156.059C316.060,148.931,328.318,159.239,329.589,165.907C330.980,174.127,319.466,182.825,312.764,187.784C307.645,191.453,303.100,192.238,301.573,186.996M338.425,169.805C339.774,156.956,328.013,140.301,315.623,143.584C302.331,147.107,301.981,165.143,298.157,175.865C296.659,180.443,293.898,184.973,293.464,189.535C292.546,197.777,296.668,204.462,305.708,201.961C318.745,198.212,336.485,184.088,338.425,169.805Z"/>
<path class="path-15" d="M311.095,156.059C316.060,148.931,328.318,159.239,329.589,165.907"/>
<path class="path-15" d="M329.589,165.907C330.980,174.127,319.466,182.825,312.764,187.784"/>
<path class="path-15" d="M312.764,187.784C307.645,191.453,303.100,192.238,301.573,186.996"/>
<path class="path-15" d="M301.573,186.996C300.431,183.060,309.437,158.432,311.095,156.059"/>
<path class="path-16" d="M311.095,156.059C316.060,148.931,328.318,159.239,329.589,165.907C330.980,174.127,319.466,182.825,312.764,187.784C307.645,191.453,303.100,192.238,301.573,186.996C300.431,183.060,309.437,158.432,311.095,156.059Z"/>
</g>
<g id="earrings">
<path class="path-0" d="M322.435,204.950C313.534,208.031,311.995,188.310,315.779,188.911C321.005,191.073,325.125,200.970,322.435,204.950M331.077,197.425C324.186,196.321,321.821,187.709,321.602,183.740C329.194,186.081,338.446,192.631,331.077,197.425M339.220,192.471C336.912,184.729,325.949,179.335,318.401,176.501C316.082,175.631,310.650,184.207,310.277,186.786C309.103,190.667,308.093,213.054,321.591,211.216C327.102,210.217,341.086,198.732,339.220,192.471Z"/>
<path class="path-21" d="M321.602,183.740C329.194,186.081,338.446,192.631,331.077,197.425"/>
<path class="path-21" d="M331.077,197.425C324.186,196.321,321.821,187.709,321.602,183.740"/>
<path class="path-22" d="M321.602,183.740C329.194,186.081,338.446,192.631,331.077,197.425C324.186,196.321,321.821,187.709,321.602,183.740Z"/>
<path class="path-21" d="M315.779,188.911C321.005,191.073,325.125,200.970,322.435,204.950"/>
<path class="path-21" d="M322.435,204.950C313.534,208.031,311.995,188.310,315.779,188.911"/>
<path class="path-22" d="M315.779,188.911C321.005,191.073,325.125,200.970,322.435,204.950C313.534,208.031,311.995,188.310,315.779,188.911Z"/>
</g>
</g>
<g id="left_arm">
<path class="path-0" d="M291.873,458.838C296.030,452.651,303.053,458.992,311.374,463.565C313.648,464.792,325.418,462.474,327.167,464.419C330.388,467.662,325.838,473.892,321.510,475.113C311.388,477.478,286.518,466.995,291.873,458.838M279.516,276.423C280.393,273.226,288.864,263.064,293.897,264.184C296.819,264.834,298.222,269.839,299.220,272.502C301.881,280.818,304.543,289.469,306.872,298.119C313.194,320.741,316.031,343.724,322.177,365.988C324.518,375.439,327.873,387.279,331.051,395.931C334.243,404.313,338.339,402.958,340.474,408.573C341.564,411.663,341.140,417.224,343.136,421.881C346.130,429.201,351.785,433.194,354.446,437.851C356.111,440.512,356.490,442.606,353.117,444.173C350.985,446.037,345.138,448.955,342.830,449.999C334.971,451.302,326.803,452.973,318.985,451.471C310.139,450.159,286.126,440.461,281.947,434.387C274.520,423.181,284.861,410.695,286.300,399.924C286.939,396.914,292.139,352.987,291.567,350.019C291.020,343.154,287.387,337.131,285.841,330.057C284.214,320.430,282.539,310.147,281.179,300.115C280.223,291.877,276.733,285.067,279.516,276.423M305.541,254.536C303.213,249.877,295.893,241.561,289.904,242.890C284.914,244.222,284.249,250.210,283.582,254.203C281.920,264.184,279.924,272.502,279.924,282.149C279.590,289.136,280.257,295.458,280.921,302.111C281.586,311.427,279.590,329.392,279.924,340.038C279.924,349.686,282.253,359.667,281.586,367.985C279.590,387.613,271.273,406.246,271.938,425.874C271.939,435.855,274.600,435.855,276.929,443.840C278.592,449.828,277.263,456.150,279.590,461.805C285.579,476.776,302.880,490.416,319.847,487.091C335.483,484.096,336.150,467.129,344.466,458.146C351.786,450.161,366.424,454.154,368.420,445.835C370.416,438.849,360.391,431.439,357.110,425.874C350.985,416.177,357.202,414.332,354.699,406.883C352.888,401.380,347.215,395.607,343.638,388.917C341.269,385.204,338.426,378.695,336.400,373.973C332.637,364.189,329.276,352.759,327.139,342.034C324.953,329.752,324.360,318.752,320.845,306.103C318.039,295.495,310.200,262.852,305.541,254.536Z"/>
<path class="path-1" d="M293.897,264.184C296.819,264.834,298.222,269.839,299.220,272.502"/>
<path class="path-1" d="M299.220,272.502C301.881,280.818,304.543,289.469,306.872,298.119"/>
<path class="path-1" d="M306.872,298.119C313.194,320.741,316.031,343.724,322.177,365.988"/>
<path class="path-1" d="M322.177,365.988C324.518,375.439,327.873,387.279,331.051,395.931"/>
<path class="path-1" d="M331.051,395.931C334.243,404.313,338.339,402.958,340.474,408.573"/>
<path class="path-1" d="M340.474,408.573C341.564,411.663,341.140,417.224,343.136,421.881"/>
<path class="path-1" d="M343.136,421.881C346.130,429.201,351.785,433.194,354.446,437.851"/>
<path class="path-1" d="M354.446,437.851C356.111,440.512,356.490,442.606,353.117,444.173"/>
<path class="path-1" d="M353.117,444.173C350.985,446.037,345.138,448.955,342.830,449.999"/>
<path class="path-1" d="M342.830,449.999C334.971,451.302,326.803,452.973,318.985,451.471"/>
<path class="path-1" d="M318.985,451.471C310.139,450.159,286.126,440.461,281.947,434.387"/>
<path class="path-1" d="M281.947,434.387C274.520,423.181,284.861,410.695,286.300,399.924"/>
<path class="path-1" d="M286.300,399.924C286.939,396.914,292.139,352.987,291.567,350.019"/>
<path class="path-1" d="M291.567,350.019C291.020,343.154,287.387,337.131,285.841,330.057"/>
<path class="path-1" d="M285.841,330.057C284.214,320.430,282.539,310.147,281.179,300.115"/>
<path class="path-1" d="M281.179,300.115C280.223,291.877,276.733,285.067,279.516,276.423"/>
<path class="path-1" d="M279.516,276.423C280.393,273.226,288.864,263.064,293.897,264.184"/>
<path class="path-2" d="M293.897,264.184C296.819,264.834,298.222,269.839,299.220,272.502C301.881,280.818,304.543,289.469,306.872,298.119C313.194,320.741,316.031,343.724,322.177,365.988C324.518,375.439,327.873,387.279,331.051,395.931C334.243,404.313,338.339,402.958,340.474,408.573C341.564,411.663,341.140,417.224,343.136,421.881C346.130,429.201,351.785,433.194,354.446,437.851C356.111,440.512,356.490,442.606,353.117,444.173C350.985,446.037,345.138,448.955,342.830,449.999C334.971,451.302,326.803,452.973,318.985,451.471C310.139,450.159,286.126,440.461,281.947,434.387C274.520,423.181,284.861,410.695,286.300,399.924C286.939,396.914,292.139,352.987,291.567,350.019C291.020,343.154,287.387,337.131,285.841,330.057C284.214,320.430,282.539,310.147,281.179,300.115C280.223,291.877,276.733,285.067,279.516,276.423C280.393,273.226,288.864,263.064,293.897,264.184Z"/>
<path class="path-15" d="M311.374,463.565C313.648,464.792,325.418,462.474,327.167,464.419"/>
<path class="path-15" d="M327.167,464.419C330.388,467.662,325.838,473.892,321.510,475.113"/>
<path class="path-15" d="M321.510,475.113C311.388,477.478,286.518,466.995,291.873,458.838"/>
<path class="path-15" d="M291.873,458.838C296.030,452.651,303.053,458.992,311.374,463.565"/>
<path class="path-16" d="M311.374,463.565C313.648,464.792,325.418,462.474,327.167,464.419C330.388,467.662,325.838,473.892,321.510,475.113C311.388,477.478,286.518,466.995,291.873,458.838C296.030,452.651,303.053,458.992,311.374,463.565Z"/>
</g>
<g id="bone">
<g id="bone1_clothes">
<path class="path-23" d="M233.968,387.398C233.969,387.392,246.201,329.685,246.202,329.680C246.202,329.685,245.027,388.663,245.027,388.668C245.026,388.668,233.969,387.398,233.968,387.398"/>
</g>
<g id="bone2_clothes">
<path class="path-23" d="M232.643,327.823C232.643,327.815,231.275,255.302,231.275,255.295C231.277,255.302,246.322,326.250,246.323,326.257C246.322,326.258,232.644,327.823,232.643,327.823"/>
</g>
<g id="bone3_neck">
<path class="path-23" d="M237.753,253.740C237.752,253.736,232.470,212.372,232.469,212.368C232.469,212.372,231.163,254.052,231.163,254.056C231.164,254.056,237.752,253.740,237.753,253.740"/>
</g>
<g id="bone4_head">
<path class="path-23" d="M230.466,213.249C230.466,213.241,224.807,135.382,224.807,135.374C224.809,135.382,242.785,211.347,242.787,211.355C242.785,211.355,230.467,213.248,230.466,213.249"/>
</g>
<g id="bone5_left_arm">
<path class="path-23" d="M298.144,255.392C298.146,255.401,321.450,344.883,321.452,344.892C321.449,344.884,283.277,260.664,283.273,260.655C283.275,260.655,298.142,255.393,298.144,255.392"/>
</g>
<g id="bone6_left_arm">
<path class="path-23" d="M300.910,349.406C300.911,349.413,310.543,412.417,310.544,412.423C310.544,412.417,311.326,348.685,311.327,348.679C311.326,348.679,300.911,349.406,300.910,349.406"/>
</g>
<g id="bone7_right_arm">
<path class="path-23" d="M169.067,269.924C169.065,269.935,152.835,384.289,152.834,384.300C152.837,384.289,186.906,273.929,186.910,273.918C186.908,273.918,169.069,269.924,169.067,269.924"/>
</g>
<g id="bone8_right_arm">
<path class="path-23" d="M157.209,379.902C157.212,379.907,180.051,434.874,180.053,434.880C180.050,434.875,146.635,385.617,146.631,385.612C146.632,385.611,157.208,379.902,157.209,379.902"/>
</g>
<g id="bone9_left_leg">
<path class="path-23" d="M272.006,385.172C272.007,385.182,283.421,486.204,283.422,486.215C283.419,486.205,254.030,388.880,254.027,388.870C254.029,388.870,272.004,385.172,272.006,385.172"/>
</g>
<g id="bone10_right_leg">
<path class="path-23" d="M209.407,385.449C209.407,385.459,209.480,489.215,209.480,489.225C209.482,489.215,224.870,386.607,224.872,386.596C224.870,386.596,209.409,385.449,209.407,385.449"/>
</g>
<g id="bone11_hair">
<path class="path-23" d="M234.478,156.646C234.479,156.654,246.405,235.946,246.406,235.954C246.404,235.946,220.167,160.176,220.165,160.168C220.166,160.168,234.476,156.646,234.478,156.646"/>
</g>
<g id="bone12_left_leg_S">
<path class="path-23" d="M432.128,212.275C432.124,212.281,389.315,270.600,389.310,270.606C389.316,270.601,441.125,220.108,441.130,220.103C441.129,220.102,432.129,212.276,432.128,212.275"/>
</g>
<g id="bone13_right_leg_S">
<path class="path-23" d="M494.318,210.981C494.312,210.984,428.190,240.338,428.184,240.341C428.191,240.339,498.236,222.248,498.243,222.246C498.243,222.245,494.319,210.982,494.318,210.981"/>
</g>
<g id="bone14_left_arm_S">
<path class="path-23" d="M553.219,209.489C553.212,209.488,481.550,199.576,481.543,199.575C481.550,199.577,550.609,221.129,550.616,221.131C550.617,221.130,553.219,209.490,553.219,209.489"/>
</g>
<g id="bone15_jacket_S">
<path class="path-23" d="M603.008,209.578C603.001,209.581,537.953,241.241,537.946,241.244C537.953,241.242,607.320,220.700,607.326,220.698C607.326,220.697,603.008,209.579,603.008,209.578"/>
</g>
<g id="bone16_pupils_S">
<path class="path-23" d="M442.181,336.535C442.179,336.528,426.081,265.997,426.079,265.990C426.080,265.997,430.371,338.214,430.371,338.221C430.373,338.221,442.179,336.535,442.181,336.535"/>
</g>
<g id="bone17_eyelids_S">
<path class="path-23" d="M502.309,337.358C502.308,337.351,496.345,265.253,496.344,265.246C496.344,265.253,490.380,337.351,490.380,337.358C490.381,337.358,502.308,337.358,502.309,337.358"/>
</g>
<g id="bone18_face_S">
<path class="path-23" d="M557.847,340.105C557.847,340.098,563.806,267.999,563.806,267.992C563.804,267.999,546.081,338.139,546.080,338.146C546.081,338.146,557.846,340.105,557.847,340.105"/>
</g>
</g>
<g id="jacket">
<path class="path-0" d="M202.406,270.837C204.690,275.436,200.066,285.456,199.534,290.134C195.320,308.109,188.671,325.634,190.633,343.560C191.399,349.029,195.667,360.247,191.301,364.957C189.788,366.590,184.883,365.033,184.040,366.482C182.357,369.350,178.044,360.101,177.219,358.560C176.335,356.908,174.122,348.594,173.874,346.155C173.686,341.402,174.125,332.136,174.486,326.147C174.893,320.170,173.907,313.813,175.719,307.460C177.077,300.697,180.390,293.059,181.929,285.520C183.904,280.836,187.085,278.185,186.625,274.621C185.781,270.854,184.370,268.861,187.726,267.301C191.849,265.730,201.334,265.872,202.406,270.837M264.311,273.236C265.883,271.693,280.896,263.870,282.839,263.135C295.408,259.056,296.698,274.896,296.303,282.664C296.171,286.143,295.784,298.435,296.601,300.797C298.064,305.991,302.557,308.149,304.530,312.336C307.859,320.394,307.631,314.942,308.411,322.380C308.625,324.453,308.105,328.911,307.342,330.806C306.318,332.970,301.822,336.232,300.802,338.232C298.247,342.311,298.204,347.969,291.449,350.046C289.972,350.706,276.607,359.882,274.349,361.496C270.163,364.161,265.333,369.394,260.582,366.972C255.716,364.150,255.674,356.108,254.155,350.274C250.418,336.831,250.183,322.643,251.972,308.750C252.856,298.482,257.408,281.603,264.311,273.236M277.286,255.283C274.421,257.283,268.067,258.415,266.208,258.882C261.955,259.711,261.204,255.911,260.827,252.892C260.423,248.335,263.397,241.700,266.610,238.231C269.209,235.425,273.793,232.690,277.985,232.476C282.091,232.119,289.096,235.275,288.594,239.937C288.457,243.008,281.975,252.010,277.286,255.283M202.488,241.806C207.495,249.997,212.993,258.351,207.756,258.450C201.991,258.559,199.060,258.559,189.763,255.866C178.817,252.696,175.138,237.426,180.698,232.268C185.930,227.415,196.682,232.308,202.488,241.806M318.816,334.804C320.386,330.050,322.580,326.770,321.810,321.601C321.055,316.852,318.319,311.679,315.166,308.082C308.584,300.952,306.174,297.757,297.589,290.911C294.941,288.873,291.291,288.486,290.248,285.454C288.911,282.046,292.557,263.216,293.670,260.067C294.598,255.191,299.173,251.635,300.101,247.161C301.014,243.378,302.064,239.351,301.392,235.517C300.774,230.229,295.863,226.921,291.958,224.111C286.354,220.561,281.158,220.346,274.433,221.246C264.840,222.541,259.606,231.412,255.906,237.907C250.671,247.094,252.032,262.284,249.818,272.624C248.556,278.521,246.322,286.620,244.955,292.130C239.318,313.418,231.951,373.111,252.622,381.116C254.408,381.943,266.661,380.232,269.962,378.508C276.940,374.910,279.268,371.484,286.255,368.411C292.682,365.877,301.896,356.223,307.834,349.669C311.504,345.876,317.603,338.473,318.816,334.804M209.019,232.880C203.768,226.699,194.697,215.880,186.603,217.767C182.217,218.940,176.024,222.135,172.848,225.682C169.951,228.919,166.852,234.519,166.975,238.916C167.004,244.494,167.442,251.114,169.569,255.765C171.900,260.862,180.465,264.554,181.751,269.929C182.260,272.350,177.316,283.687,176.700,286.691C175.444,293.815,172.190,300.701,170.726,306.831C169.331,312.670,168.100,320.591,167.123,326.514C165.821,334.407,163.038,344.182,163.274,352.902C163.162,357.058,165.175,366.380,168.043,371.313C169.854,374.428,174.222,379.012,176.452,379.888C177.792,380.415,191.730,383.465,196.215,379.587C203.988,372.865,200.939,360.778,198.291,345.395C195.764,331.177,205.500,319.056,208.574,304.776C210.259,296.707,216.329,274.738,216.537,266.743C216.687,260.949,218.538,257.021,216.872,249.032C215.877,244.886,212.507,236.986,209.019,232.880Z"/>
<path class="path-1" d="M282.839,263.135C295.408,259.056,296.698,274.896,296.303,282.664"/>
<path class="path-1" d="M296.303,282.664C296.171,286.143,295.784,298.435,296.601,300.797"/>
<path class="path-1" d="M296.601,300.797C298.064,305.991,302.557,308.149,304.530,312.336"/>
<path class="path-1" d="M304.530,312.336C307.859,320.394,307.631,314.942,308.411,322.380"/>
<path class="path-1" d="M308.411,322.380C308.625,324.453,308.105,328.911,307.342,330.806"/>
<path class="path-1" d="M307.342,330.806C306.318,332.970,301.822,336.232,300.802,338.232"/>
<path class="path-1" d="M300.802,338.232C298.247,342.311,298.204,347.969,291.449,350.046"/>
<path class="path-1" d="M291.449,350.046C289.972,350.706,276.607,359.882,274.349,361.496"/>
<path class="path-1" d="M274.349,361.496C270.163,364.161,265.333,369.394,260.582,366.972"/>
<path class="path-1" d="M260.582,366.972C255.716,364.150,255.674,356.108,254.155,350.274"/>
<path class="path-1" d="M254.155,350.274C250.418,336.831,250.183,322.643,251.972,308.750"/>
<path class="path-1" d="M251.972,308.750C252.856,298.482,257.408,281.603,264.311,273.236"/>
<path class="path-1" d="M264.311,273.236C265.883,271.693,280.896,263.870,282.839,263.135"/>
<path class="path-2" d="M282.839,263.135C295.408,259.056,296.698,274.896,296.303,282.664C296.171,286.143,295.784,298.435,296.601,300.797C298.064,305.991,302.557,308.149,304.530,312.336C307.859,320.394,307.631,314.942,308.411,322.380C308.625,324.453,308.105,328.911,307.342,330.806C306.318,332.970,301.822,336.232,300.802,338.232C298.247,342.311,298.204,347.969,291.449,350.046C289.972,350.706,276.607,359.882,274.349,361.496C270.163,364.161,265.333,369.394,260.582,366.972C255.716,364.150,255.674,356.108,254.155,350.274C250.418,336.831,250.183,322.643,251.972,308.750C252.856,298.482,257.408,281.603,264.311,273.236C265.883,271.693,280.896,263.870,282.839,263.135Z"/>
<path class="path-1" d="M187.726,267.301C191.849,265.730,201.334,265.872,202.406,270.837"/>
<path class="path-1" d="M202.406,270.837C204.690,275.436,200.066,285.456,199.534,290.134"/>
<path class="path-1" d="M199.534,290.134C195.320,308.109,188.671,325.634,190.633,343.560"/>
<path class="path-1" d="M190.633,343.560C191.399,349.029,195.667,360.247,191.301,364.957"/>
<path class="path-1" d="M191.301,364.957C189.788,366.590,184.883,365.033,184.040,366.482"/>
<path class="path-1" d="M184.040,366.482C182.357,369.350,178.044,360.101,177.219,358.560"/>
<path class="path-1" d="M177.219,358.560C176.335,356.908,174.122,348.594,173.874,346.155"/>
<path class="path-1" d="M173.874,346.155C173.686,341.402,174.125,332.136,174.486,326.147"/>
<path class="path-1" d="M174.486,326.147C174.893,320.170,173.907,313.813,175.719,307.460"/>
<path class="path-1" d="M175.719,307.460C177.077,300.697,180.390,293.059,181.929,285.520"/>
<path class="path-1" d="M181.929,285.520C183.904,280.836,187.085,278.185,186.625,274.621"/>
<path class="path-1" d="M186.625,274.621C185.781,270.854,184.370,268.861,187.726,267.301"/>
<path class="path-2" d="M187.726,267.301C191.849,265.730,201.334,265.872,202.406,270.837C204.690,275.436,200.066,285.456,199.534,290.134C195.320,308.109,188.671,325.634,190.633,343.560C191.399,349.029,195.667,360.247,191.301,364.957C189.788,366.590,184.883,365.033,184.040,366.482C182.357,369.350,178.044,360.101,177.219,358.560C176.335,356.908,174.122,348.594,173.874,346.155C173.686,341.402,174.125,332.136,174.486,326.147C174.893,320.170,173.907,313.813,175.719,307.460C177.077,300.697,180.390,293.059,181.929,285.520C183.904,280.836,187.085,278.185,186.625,274.621C185.781,270.854,184.370,268.861,187.726,267.301Z"/>
<path class="path-1" d="M277.985,232.476C282.091,232.119,289.096,235.275,288.594,239.937"/>
<path class="path-1" d="M288.594,239.937C288.457,243.008,281.975,252.010,277.286,255.283"/>
<path class="path-1" d="M277.286,255.283C274.421,257.283,268.067,258.415,266.208,258.882"/>
<path class="path-1" d="M266.208,258.882C261.955,259.711,261.204,255.911,260.827,252.892"/>
<path class="path-1" d="M260.827,252.892C260.423,248.335,263.397,241.700,266.610,238.231"/>
<path class="path-1" d="M266.610,238.231C269.209,235.425,273.793,232.690,277.985,232.476"/>
<path class="path-2" d="M277.985,232.476C282.091,232.119,289.096,235.275,288.594,239.937C288.457,243.008,281.975,252.010,277.286,255.283C274.421,257.283,268.067,258.415,266.208,258.882C261.955,259.711,261.204,255.911,260.827,252.892C260.423,248.335,263.397,241.700,266.610,238.231C269.209,235.425,273.793,232.690,277.985,232.476Z"/>
<path class="path-1" d="M202.488,241.806C207.495,249.997,212.993,258.351,207.756,258.450"/>
<path class="path-1" d="M207.756,258.450C201.991,258.559,199.060,258.559,189.763,255.866"/>
<path class="path-1" d="M189.763,255.866C178.817,252.696,175.138,237.426,180.698,232.268"/>
<path class="path-1" d="M180.698,232.268C185.930,227.415,196.682,232.308,202.488,241.806"/>
<path class="path-2" d="M202.488,241.806C207.495,249.997,212.993,258.351,207.756,258.450C201.991,258.559,199.060,258.559,189.763,255.866C178.817,252.696,175.138,237.426,180.698,232.268C185.930,227.415,196.682,232.308,202.488,241.806Z"/>
</g>
</g>
<style>
.path-0{fill:#000000;fill-rule:evenodd;stroke:none;}
.path-1{fill:none;stroke:#a60d3f;stroke-width:1;stroke-linecap:butt;stroke-linejoin:round;}
.path-2{fill:#a60d3f;fill-rule:evenodd;stroke:none;}
.path-3{fill:none;stroke:#d88e4b;stroke-width:1;stroke-linecap:butt;stroke-linejoin:round;}
.path-4{fill:#d88e4b;fill-rule:evenodd;stroke:none;}
.path-5{fill:none;stroke:#6e2353;stroke-width:1;stroke-linecap:butt;stroke-linejoin:round;}
.path-6{fill:#6e2353;fill-rule:evenodd;stroke:none;}
.path-7{fill:none;stroke:#392966;stroke-width:1;stroke-linecap:butt;stroke-linejoin:round;}
.path-8{fill:#392966;fill-rule:evenodd;stroke:none;}
.path-9{fill:none;stroke:#cc9bc5;stroke-width:1;stroke-linecap:butt;stroke-linejoin:round;}
.path-10{fill:#cc9bc5;fill-rule:evenodd;stroke:none;}
.path-11{fill:none;stroke:#620527;stroke-width:1;stroke-linecap:butt;stroke-linejoin:round;}
.path-12{fill:#620527;fill-rule:evenodd;stroke:none;}
.path-13{fill:none;stroke:#6a3661;stroke-width:1;stroke-linecap:butt;stroke-linejoin:round;}
.path-14{fill:#6a3661;fill-rule:evenodd;stroke:none;}
.path-15{fill:none;stroke:#f8a087;stroke-width:1;stroke-linecap:butt;stroke-linejoin:round;}
.path-16{fill:#f8a087;fill-rule:evenodd;stroke:none;}
.path-17{fill:none;stroke:#ffffff;stroke-width:1;stroke-linecap:butt;stroke-linejoin:round;}
.path-18{fill:#ffffff;fill-rule:evenodd;stroke:none;}
.path-19{fill:none;stroke:#d89f4a;stroke-width:1;stroke-linecap:butt;stroke-linejoin:round;}
.path-20{fill:#d89f4a;fill-rule:evenodd;stroke:none;}
.path-21{fill:none;stroke:#fafd5b;stroke-width:1;stroke-linecap:butt;stroke-linejoin:round;}
.path-22{fill:#fafd5b;fill-rule:evenodd;stroke:none;}
.path-23{fill:none;stroke:#00ff42;stroke-width:8;stroke-linecap:round;stroke-linejoin:round;}
.path-24{fill:none;stroke:#000000;stroke-width:1;stroke-linecap:butt;stroke-linejoin:round;}
</style>
</svg>
