<svg version="1.1" id="Frame_71" xmlns="http://www.w3.org/2000/svg" xmlns:xlink="http://www.w3.org/1999/xlink" width="480px" height="720px">
<g id="main_bone">
<g id="right_arm">
<path class="path-0" d="M174.126,270.172C175.458,267.511,178.075,262.017,181.778,260.525C188.182,257.943,193.652,263.933,194.431,268.509C196.093,276.447,190.936,287.396,188.470,295.289C182.390,314.329,175.637,333.084,171.132,352.015C170.600,355.317,165.808,376.634,165.808,373.973C165.476,380.626,172.130,386.283,174.459,391.939C177.454,399.590,174.791,406.910,172.795,413.897C168.138,428.535,168.471,433.858,167.804,448.165C167.804,450.492,167.473,458.146,163.812,458.146C160.487,458.146,160.153,452.157,159.488,449.828C159.155,447.167,156.825,441.510,157.492,439.182C157.823,435.190,162.483,436.188,157.492,427.870C151.170,417.555,139.526,409.240,136.532,395.931C134.536,385.285,140.191,375.969,143.186,365.988C149.508,344.695,156.494,323.404,163.812,302.111C167.805,291.132,168.802,281.484,174.126,270.172M193.754,262.188C193.755,253.538,190.761,245.885,180.115,249.546C163.481,255.200,158.822,281.484,154.165,296.122C147.512,316.084,141.855,336.046,136.199,356.007C133.870,364.657,130.544,368.982,129.212,373.973C127.549,379.628,127.881,388.280,128.214,393.935C128.214,411.567,133.869,412.234,140.856,425.874C144.517,433.859,140.525,438.849,142.852,445.835C144.517,450.492,148.176,453.820,150.837,457.813C153.166,461.805,153.499,464.135,155.162,467.793C157.158,472.119,163.481,481.767,169.136,479.771C173.793,478.108,173.793,469.790,174.126,465.797C174.459,459.809,178.119,436.853,179.450,429.866C181.778,418.554,187.435,406.245,185.770,393.935C184.440,384.619,176.122,377.965,176.456,367.985C176.787,362.661,180.115,354.011,181.113,348.023C182.776,338.375,182.776,328.061,184.772,318.081C188.099,300.448,194.421,280.487,193.754,262.188Z"/>
<path class="path-1" d="M181.778,260.525C188.182,257.943,193.652,263.933,194.431,268.509"/>
<path class="path-1" d="M194.431,268.509C196.093,276.447,190.936,287.396,188.470,295.289"/>
<path class="path-1" d="M188.470,295.289C182.390,314.329,175.637,333.084,171.132,352.015"/>
<path class="path-1" d="M171.132,352.015C170.600,355.317,165.808,376.634,165.808,373.973"/>
<path class="path-1" d="M165.808,373.973C165.476,380.626,172.130,386.283,174.459,391.939"/>
<path class="path-1" d="M174.459,391.939C177.454,399.590,174.791,406.910,172.795,413.897"/>
<path class="path-1" d="M172.795,413.897C168.138,428.535,168.471,433.858,167.804,448.165"/>
<path class="path-1" d="M167.804,448.165C167.804,450.492,167.473,458.146,163.812,458.146"/>
<path class="path-1" d="M163.812,458.146C160.487,458.146,160.153,452.157,159.488,449.828"/>
<path class="path-1" d="M159.488,449.828C159.155,447.167,156.825,441.510,157.492,439.182"/>
<path class="path-1" d="M157.492,439.182C157.823,435.190,162.483,436.188,157.492,427.870"/>
<path class="path-1" d="M157.492,427.870C151.170,417.555,139.526,409.240,136.532,395.931"/>
<path class="path-1" d="M136.532,395.931C134.536,385.285,140.191,375.969,143.186,365.988"/>
<path class="path-1" d="M143.186,365.988C149.508,344.695,156.494,323.404,163.812,302.111"/>
<path class="path-1" d="M163.812,302.111C167.805,291.132,168.802,281.484,174.126,270.172"/>
<path class="path-1" d="M174.126,270.172C175.458,267.511,178.075,262.017,181.778,260.525"/>
<path class="path-2" d="M181.778,260.525C188.182,257.943,193.652,263.933,194.431,268.509C196.093,276.447,190.936,287.396,188.470,295.289C182.390,314.329,175.637,333.084,171.132,352.015C170.600,355.317,165.808,376.634,165.808,373.973C165.476,380.626,172.130,386.283,174.459,391.939C177.454,399.590,174.791,406.910,172.795,413.897C168.138,428.535,168.471,433.858,167.804,448.165C167.804,450.492,167.473,458.146,163.812,458.146C160.487,458.146,160.153,452.157,159.488,449.828C159.155,447.167,156.825,441.510,157.492,439.182C157.823,435.190,162.483,436.188,157.492,427.870C151.170,417.555,139.526,409.240,136.532,395.931C134.536,385.285,140.191,375.969,143.186,365.988C149.508,344.695,156.494,323.404,163.812,302.111C167.805,291.132,168.802,281.484,174.126,270.172C175.458,267.511,178.075,262.017,181.778,260.525Z"/>
</g>
<g id="layer_left_leg">
<g id="left_heel">
<path class="path-0" d="M241.518,540.379C233.533,530.065,248.838,508.107,259.817,506.445C273.790,504.115,278.447,528.403,276.784,533.393C274.455,539.715,265.472,543.374,259.817,544.372C255.160,545.037,244.181,544.038,241.518,540.379M282.440,505.780C276.785,498.460,261.813,498.127,253.828,500.790C224.219,509.773,220.227,565.666,261.813,554.020C269.133,552.023,284.104,546.368,287.430,539.381C290.757,533.726,288.761,527.404,287.430,521.416C286.100,516.759,285.434,509.772,282.440,505.780Z"/>
<path class="path-3" d="M259.817,506.445C273.790,504.115,278.447,528.403,276.784,533.393"/>
<path class="path-3" d="M276.784,533.393C274.455,539.715,265.472,543.374,259.817,544.372"/>
<path class="path-3" d="M259.817,544.372C255.160,545.037,244.181,544.038,241.518,540.379"/>
<path class="path-3" d="M241.518,540.379C233.533,530.065,248.838,508.107,259.817,506.445"/>
<path class="path-4" d="M259.817,506.445C273.790,504.115,278.447,528.403,276.784,533.393C274.455,539.715,265.472,543.374,259.817,544.372C255.160,545.037,244.181,544.038,241.518,540.379C233.533,530.065,248.838,508.107,259.817,506.445Z"/>
</g>
<g id="left_sole">
<path class="path-0" d="M257.321,566.838C248.680,566.033,241.880,550.932,245.082,558.290C246.931,562.539,253.949,564.902,257.250,566.534C257.831,566.851,270.873,570.725,272.306,570.948C277.344,572.394,292.816,571.082,293.332,569.811C293.436,569.553,282.542,570.133,279.084,570.525C272.587,571.796,264.143,570.423,257.250,566.534M249.757,553.059C252.290,553.611,258.468,557.547,260.053,559.500C264.905,565.476,278.513,566.435,286.350,563.950C287.355,563.659,287.531,561.303,293.292,560.004C296.468,559.288,277.887,565.891,273.807,564.263C265.158,562.479,246.570,552.364,249.757,553.059M289.502,550.438C287.774,549.716,275.130,539.923,265.197,540.532C257.155,541.074,237.685,546.780,236.375,557.272C235.876,561.345,242.071,571.889,245.323,574.256C256.684,583.176,286.528,577.070,292.166,574.584C294.152,573.708,302.742,555.972,289.502,550.438Z"/>
<path class="path-5" d="M245.082,558.290C246.931,562.539,253.949,564.902,257.250,566.534"/>
<path class="path-5" d="M257.250,566.534C264.143,570.423,272.587,571.796,279.084,570.525"/>
<path class="path-5" d="M279.084,570.525C282.542,570.133,293.436,569.553,293.332,569.811"/>
<path class="path-5" d="M293.332,569.811C292.816,571.082,277.344,572.394,272.306,570.948"/>
<path class="path-5" d="M272.306,570.948C270.873,570.725,257.831,566.851,257.321,566.838"/>
<path class="path-5" d="M257.321,566.838C248.680,566.033,241.880,550.932,245.082,558.290"/>
<path class="path-6" d="M245.082,558.290C246.931,562.539,253.949,564.902,257.250,566.534C264.143,570.423,272.587,571.796,279.084,570.525C282.542,570.133,293.436,569.553,293.332,569.811C292.816,571.082,277.344,572.394,272.306,570.948C270.873,570.725,257.831,566.851,257.321,566.838C248.680,566.033,241.880,550.932,245.082,558.290Z"/>
<path class="path-5" d="M260.053,559.500C264.905,565.476,278.513,566.435,286.350,563.950"/>
<path class="path-5" d="M286.350,563.950C287.355,563.659,287.531,561.303,293.292,560.004"/>
<path class="path-5" d="M293.292,560.004C296.468,559.288,277.887,565.891,273.807,564.263"/>
<path class="path-5" d="M273.807,564.263C265.158,562.479,246.570,552.364,249.757,553.059"/>
<path class="path-5" d="M249.757,553.059C252.290,553.611,258.468,557.547,260.053,559.500"/>
<path class="path-6" d="M260.053,559.500C264.905,565.476,278.513,566.435,286.350,563.950C287.355,563.659,287.531,561.303,293.292,560.004C296.468,559.288,277.887,565.891,273.807,564.263C265.158,562.479,246.570,552.364,249.757,553.059C252.290,553.611,258.468,557.547,260.053,559.500Z"/>
</g>
<g id="left_toe">
<path class="path-0" d="M258.126,584.295C226.852,581.301,240.161,534.725,268.107,537.052C281.747,538.384,284.741,550.361,286.072,561.339C287.070,566.330,288.402,570.655,286.072,575.312C281.415,582.964,266.111,584.960,258.126,584.295M289.400,537.718C282.744,530.732,265.112,528.402,256.129,530.398C231.842,536.054,231.511,553.355,232.176,573.317C232.176,578.307,232.175,582.964,235.169,586.956C241.823,595.275,266.110,596.606,276.091,594.610C283.411,592.613,292.394,588.621,296.053,581.301C300.710,572.319,296.053,545.036,289.400,537.718Z"/>
<path class="path-3" d="M268.107,537.052C281.747,538.384,284.741,550.361,286.072,561.339"/>
<path class="path-3" d="M286.072,561.339C287.070,566.330,288.402,570.655,286.072,575.312"/>
<path class="path-3" d="M286.072,575.312C281.415,582.964,266.111,584.960,258.126,584.295"/>
<path class="path-3" d="M258.126,584.295C226.852,581.301,240.161,534.725,268.107,537.052"/>
<path class="path-4" d="M268.107,537.052C281.747,538.384,284.741,550.361,286.072,561.339C287.070,566.330,288.402,570.655,286.072,575.312C281.415,582.964,266.111,584.960,258.126,584.295C226.852,581.301,240.161,534.725,268.107,537.052Z"/>
</g>
<g id="left_leg">
<path class="path-0" d="M235.675,412.234C234.345,405.912,248.958,405.447,253.973,404.581C258.830,403.982,269.813,404.158,273.735,407.244C287.676,417.477,289.133,465.739,288.678,482.369C287.911,496.046,288.722,508.965,287.451,522.132C286.756,527.885,285.914,533.832,284.532,539.343C283.512,544.277,277.990,550.688,281.309,554.086C282.723,556.157,286.003,554.805,288.318,555.016C292.344,555.638,292.369,552.247,295.152,553.055C305.260,556.328,285.946,578.034,276.701,580.793C269.430,583.230,254.064,580.633,248.421,575.594C246.693,574.051,244.672,572.271,243.430,570.368C226.079,542.307,242.298,492.494,246.474,465.369C248.001,455.453,254.050,476.681,259.886,473.927C268.827,469.654,250.854,434.267,245.324,425.874C242.570,422.345,236.341,416.558,235.675,412.234M283.383,396.777C277.489,392.180,260.813,393.743,253.973,394.933C247.340,396.061,224.695,395.598,221.701,400.589C216.711,408.907,230.949,422.443,233.678,429.866C234.868,433.914,231.905,454.142,231.530,459.809C231.438,472.396,230.470,483.160,230.019,495.740C228.781,521.000,218.103,545.517,224.600,569.599C229.627,587.721,243.394,598.758,265.798,595.556C287.560,592.788,296.037,590.767,304.647,568.684C309.881,555.743,309.808,553.287,306.331,541.804C305.001,537.470,300.161,534.592,298.658,529.972C292.079,511.891,300.191,491.531,298.811,472.228C297.539,454.210,298.392,408.539,283.383,396.777Z"/>
<path class="path-7" d="M253.973,404.581C258.830,403.982,269.813,404.158,273.735,407.244"/>
<path class="path-7" d="M273.735,407.244C287.676,417.477,289.133,465.739,288.678,482.369"/>
<path class="path-7" d="M288.678,482.369C287.911,496.046,288.722,508.965,287.451,522.132"/>
<path class="path-7" d="M287.451,522.132C286.756,527.885,285.914,533.832,284.532,539.343"/>
<path class="path-7" d="M284.532,539.343C283.512,544.277,277.990,550.688,281.309,554.086"/>
<path class="path-7" d="M281.309,554.086C282.723,556.157,286.003,554.805,288.318,555.016"/>
<path class="path-7" d="M288.318,555.016C292.344,555.638,292.369,552.247,295.152,553.055"/>
<path class="path-7" d="M295.152,553.055C305.260,556.328,285.946,578.034,276.701,580.793"/>
<path class="path-7" d="M276.701,580.793C269.430,583.230,254.064,580.633,248.421,575.594"/>
<path class="path-7" d="M248.421,575.594C246.693,574.051,244.672,572.271,243.430,570.368"/>
<path class="path-7" d="M243.430,570.368C226.079,542.307,242.298,492.494,246.474,465.369"/>
<path class="path-7" d="M246.474,465.369C248.001,455.453,254.050,476.681,259.886,473.927"/>
<path class="path-7" d="M259.886,473.927C268.827,469.654,250.854,434.267,245.324,425.874"/>
<path class="path-7" d="M245.324,425.874C242.570,422.345,236.341,416.558,235.675,412.234"/>
<path class="path-7" d="M235.675,412.234C234.345,405.912,248.958,405.447,253.973,404.581"/>
<path class="path-8" d="M253.973,404.581C258.830,403.982,269.813,404.158,273.735,407.244C287.676,417.477,289.133,465.739,288.678,482.369C287.911,496.046,288.722,508.965,287.451,522.132C286.756,527.885,285.914,533.832,284.532,539.343C283.512,544.277,277.990,550.688,281.309,554.086C282.723,556.157,286.003,554.805,288.318,555.016C292.344,555.638,292.369,552.247,295.152,553.055C305.260,556.328,285.946,578.034,276.701,580.793C269.430,583.230,254.064,580.633,248.421,575.594C246.693,574.051,244.672,572.271,243.430,570.368C226.079,542.307,242.298,492.494,246.474,465.369C248.001,455.453,254.050,476.681,259.886,473.927C268.827,469.654,250.854,434.267,245.324,425.874C242.570,422.345,236.341,416.558,235.675,412.234C234.345,405.912,248.958,405.447,253.973,404.581Z"/>
</g>
</g>
<g id="layer_right_leg">
<g id="right_heel">
<path class="path-0" d="M186.437,651.442C188.764,632.478,188.764,617.507,212.053,614.179C222.368,612.516,241.996,615.844,247.651,625.824C250.645,630.815,249.648,638.133,249.981,643.457C250.646,652.773,256.634,670.072,243.659,673.066C242.661,673.399,214.715,675.729,206.065,677.059C200.741,678.390,195.086,680.386,190.761,677.059C185.105,671.737,185.439,658.428,186.437,651.442M258.630,623.829C253.973,611.852,237.671,604.865,226.027,606.528C210.722,608.524,195.086,603.533,185.105,617.840C175.124,632.144,175.458,658.762,178.783,675.396C179.782,681.384,183.442,692.364,188.433,695.691C192.092,698.018,197.747,697.353,202.073,697.353C223.032,697.686,259.629,704.674,259.962,673.399C259.962,662.421,261.958,632.478,258.630,623.829Z"/>
<path class="path-3" d="M212.053,614.179C222.368,612.516,241.996,615.844,247.651,625.824"/>
<path class="path-3" d="M247.651,625.824C250.645,630.815,249.648,638.133,249.981,643.457"/>
<path class="path-3" d="M249.981,643.457C250.646,652.773,256.634,670.072,243.659,673.066"/>
<path class="path-3" d="M243.659,673.066C242.661,673.399,214.715,675.729,206.065,677.059"/>
<path class="path-3" d="M206.065,677.059C200.741,678.390,195.086,680.386,190.761,677.059"/>
<path class="path-3" d="M190.761,677.059C185.105,671.737,185.439,658.428,186.437,651.442"/>
<path class="path-3" d="M186.437,651.442C188.764,632.478,188.764,617.507,212.053,614.179"/>
<path class="path-4" d="M212.053,614.179C222.368,612.516,241.996,615.844,247.651,625.824C250.645,630.815,249.648,638.133,249.981,643.457C250.646,652.773,256.634,670.072,243.659,673.066C242.661,673.399,214.715,675.729,206.065,677.059C200.741,678.390,195.086,680.386,190.761,677.059C185.105,671.737,185.439,658.428,186.437,651.442C188.764,632.478,188.764,617.507,212.053,614.179Z"/>
</g>
<g id="right_leg">
<path class="path-0" d="M182.775,404.914C180.422,398.232,188.924,392.249,195.085,391.369C201.387,390.337,210.857,393.079,217.236,395.282C220.516,396.415,224.770,398.447,227.544,400.532C230.099,402.454,233.416,405.373,234.848,408.291C238.152,415.651,238.434,419.164,238.610,424.010C238.798,429.185,236.188,435.067,235.772,441.036C235.465,458.023,237.761,475.616,240.380,491.890C241.964,502.398,246.047,517.504,246.536,527.342C246.686,536.544,239.796,537.087,240.174,542.537C240.199,546.172,250.921,561.640,253.185,565.961C260.161,578.657,265.883,594.082,265.888,608.640C265.892,621.461,247.050,638.131,235.215,640.101C221.758,642.066,184.312,627.773,172.135,620.937C166.533,618.004,156.957,613.464,155.285,606.897C153.945,602.610,159.196,583.451,161.494,579.152C164.820,573.459,167.481,572.444,169.808,565.084C172.764,554.507,171.809,542.620,172.143,531.386C172.148,516.328,175.851,478.063,180.115,463.803C182.711,454.277,191.245,421.818,189.315,412.868C188.187,407.399,184.264,408.395,182.775,404.914M208.062,381.294C202.406,379.297,198.080,373.973,192.092,375.969C189.775,376.962,185.802,379.935,184.150,381.590C168.820,394.602,168.246,407.299,168.244,425.969C167.912,433.910,167.607,442.177,168.190,449.793C168.473,454.793,169.645,459.142,168.946,463.801C168.582,468.121,166.649,472.452,165.999,477.774C165.362,484.332,167.003,492.196,166.046,503.345C164.414,513.626,162.174,523.248,161.821,533.193C161.809,538.586,162.661,551.385,161.674,555.435C159.684,560.496,155.147,565.332,152.502,569.738C147.931,578.448,146.171,588.408,146.249,597.735C145.974,603.952,145.785,612.132,148.468,617.332C152.461,625.068,160.967,630.136,168.140,634.294C179.974,641.066,192.336,643.185,205.496,647.208C209.582,648.492,213.396,650.625,217.804,651.267C219.432,651.253,232.805,650.196,235.413,649.893C247.670,647.750,267.648,637.291,272.841,625.203C274.268,621.315,274.392,615.773,274.503,611.518C274.604,607.540,274.513,603.557,274.541,599.575C274.372,574.857,264.478,564.830,258.663,544.035C256.669,536.905,255.964,521.659,254.980,513.519C252.730,497.644,248.005,482.397,247.709,465.871C247.716,462.519,247.123,457.899,249.371,454.809C251.288,452.075,255.117,451.737,256.349,448.689C258.133,443.395,251.937,425.773,250.646,419.885C249.991,416.224,250.314,411.567,248.983,407.908C245.324,398.592,231.351,388.280,222.034,385.285C217.377,383.621,212.387,383.290,208.062,381.294Z"/>
<path class="path-7" d="M195.085,391.369C201.387,390.337,210.857,393.079,217.236,395.282"/>
<path class="path-7" d="M217.236,395.282C220.516,396.415,224.770,398.447,227.544,400.532"/>
<path class="path-7" d="M227.544,400.532C230.099,402.454,233.416,405.373,234.848,408.291"/>
<path class="path-7" d="M234.848,408.291C238.152,415.651,238.434,419.164,238.610,424.010"/>
<path class="path-7" d="M238.610,424.010C238.798,429.185,236.188,435.067,235.772,441.036"/>
<path class="path-7" d="M235.772,441.036C235.465,458.023,237.761,475.616,240.380,491.890"/>
<path class="path-7" d="M240.380,491.890C241.964,502.398,246.047,517.504,246.536,527.342"/>
<path class="path-7" d="M246.536,527.342C246.686,536.544,239.796,537.087,240.174,542.537"/>
<path class="path-7" d="M240.174,542.537C240.199,546.172,250.921,561.640,253.185,565.961"/>
<path class="path-7" d="M253.185,565.961C260.161,578.657,265.883,594.082,265.888,608.640"/>
<path class="path-7" d="M265.888,608.640C265.892,621.461,247.050,638.131,235.215,640.101"/>
<path class="path-7" d="M235.215,640.101C221.758,642.066,184.312,627.773,172.135,620.937"/>
<path class="path-7" d="M172.135,620.937C166.533,618.004,156.957,613.464,155.285,606.897"/>
<path class="path-7" d="M155.285,606.897C153.945,602.610,159.196,583.451,161.494,579.152"/>
<path class="path-7" d="M161.494,579.152C164.820,573.459,167.481,572.444,169.808,565.084"/>
<path class="path-7" d="M169.808,565.084C172.764,554.507,171.809,542.620,172.143,531.386"/>
<path class="path-7" d="M172.143,531.386C172.148,516.328,175.851,478.063,180.115,463.803"/>
<path class="path-7" d="M180.115,463.803C182.711,454.277,191.245,421.818,189.315,412.868"/>
<path class="path-7" d="M189.315,412.868C188.187,407.399,184.264,408.395,182.775,404.914"/>
<path class="path-7" d="M182.775,404.914C180.422,398.232,188.924,392.249,195.085,391.369"/>
<path class="path-8" d="M195.085,391.369C201.387,390.337,210.857,393.079,217.236,395.282C220.516,396.415,224.770,398.447,227.544,400.532C230.099,402.454,233.416,405.373,234.848,408.291C238.152,415.651,238.434,419.164,238.610,424.010C238.798,429.185,236.188,435.067,235.772,441.036C235.465,458.023,237.761,475.616,240.380,491.890C241.964,502.398,246.047,517.504,246.536,527.342C246.686,536.544,239.796,537.087,240.174,542.537C240.199,546.172,250.921,561.640,253.185,565.961C260.161,578.657,265.883,594.082,265.888,608.640C265.892,621.461,247.050,638.131,235.215,640.101C221.758,642.066,184.312,627.773,172.135,620.937C166.533,618.004,156.957,613.464,155.285,606.897C153.945,602.610,159.196,583.451,161.494,579.152C164.820,573.459,167.481,572.444,169.808,565.084C172.764,554.507,171.809,542.620,172.143,531.386C172.148,516.328,175.851,478.063,180.115,463.803C182.711,454.277,191.245,421.818,189.315,412.868C188.187,407.399,184.264,408.395,182.775,404.914C180.422,398.232,188.924,392.249,195.085,391.369Z"/>
</g>
<g id="right_toe">
<path class="path-0" d="M153.831,648.636C155.145,630.211,160.014,606.028,182.111,601.292C187.098,599.951,194.423,601.597,200.076,602.603C230.842,607.994,240.046,617.189,241.996,648.636C242.318,656.338,244.342,665.371,239.667,672.413C234.021,680.755,202.086,686.962,192.092,686.955C176.748,687.279,164.791,685.439,156.160,670.740C151.162,662.019,153.176,658.014,153.831,648.636M249.648,618.830C240.672,600.843,198.758,589.039,180.115,593.376C152.004,600.081,147.813,624.626,145.847,648.727C145.193,656.066,142.538,664.057,145.847,670.740C147.844,674.772,152.816,679.857,156.160,682.887C171.410,697.913,182.112,695.202,202.073,694.853C214.053,694.843,234.020,694.147,243.659,686.146C251.013,679.441,251.651,672.073,251.977,662.702C251.969,653.659,253.327,625.530,249.648,618.830Z"/>
<path class="path-3" d="M182.111,601.292C187.098,599.951,194.423,601.597,200.076,602.603"/>
<path class="path-3" d="M200.076,602.603C230.842,607.994,240.046,617.189,241.996,648.636"/>
<path class="path-3" d="M241.996,648.636C242.318,656.338,244.342,665.371,239.667,672.413"/>
<path class="path-3" d="M239.667,672.413C234.021,680.755,202.086,686.962,192.092,686.955"/>
<path class="path-3" d="M192.092,686.955C176.748,687.279,164.791,685.439,156.160,670.740"/>
<path class="path-3" d="M156.160,670.740C151.162,662.019,153.176,658.014,153.831,648.636"/>
<path class="path-3" d="M153.831,648.636C155.145,630.211,160.014,606.028,182.111,601.292"/>
<path class="path-4" d="M182.111,601.292C187.098,599.951,194.423,601.597,200.076,602.603C230.842,607.994,240.046,617.189,241.996,648.636C242.318,656.338,244.342,665.371,239.667,672.413C234.021,680.755,202.086,686.962,192.092,686.955C176.748,687.279,164.791,685.439,156.160,670.740C151.162,662.019,153.176,658.014,153.831,648.636C155.145,630.211,160.014,606.028,182.111,601.292Z"/>
</g>
<g id="right_sole">
<path class="path-0" d="M181.581,689.142C184.128,689.297,200.247,688.936,203.090,689.049C205.441,689.177,214.173,690.026,216.173,690.273C217.435,690.456,225.621,692.282,226.373,693.263C225.480,693.996,216.651,694.571,215.887,694.593C214.346,694.687,184.251,693.452,183.732,693.609C182.156,693.569,172.637,691.903,171.189,691.095C172.440,689.853,179.180,688.993,181.581,689.142M233.205,681.436C234.235,683.104,235.287,687.229,232.521,688.143C229.248,689.242,215.156,687.997,210.772,686.420C206.326,685.662,200.876,685.845,196.815,685.656C188.957,685.290,176.490,688.677,169.787,684.647C168.303,683.360,167.601,681.996,167.864,680.955C168.009,680.383,171.187,679.173,173.421,678.565C180.773,676.562,192.438,677.190,200.249,677.224C207.339,677.254,217.342,677.866,224.588,678.624C225.729,678.773,231.820,679.193,233.205,681.436M239.588,675.444C224.796,667.466,213.166,667.128,196.647,667.388C187.851,667.578,169.164,667.462,161.013,674.720C158.870,676.629,156.522,680.391,156.974,683.392C157.307,685.569,159.905,690.211,162.222,692.256C165.961,695.557,174.306,697.501,177.674,698.392C192.887,703.011,213.381,700.349,229.198,700.369C239.217,700.334,240.369,694.980,242.134,690.412C243.776,686.163,247.537,679.601,239.588,675.444Z"/>
<path class="path-5" d="M181.581,689.142C184.128,689.297,200.247,688.936,203.090,689.049"/>
<path class="path-5" d="M203.090,689.049C205.441,689.177,214.173,690.026,216.173,690.273"/>
<path class="path-5" d="M216.173,690.273C217.435,690.456,225.621,692.282,226.373,693.263"/>
<path class="path-5" d="M226.373,693.263C225.480,693.996,216.651,694.571,215.887,694.593"/>
<path class="path-5" d="M215.887,694.593C214.346,694.687,184.251,693.452,183.732,693.609"/>
<path class="path-5" d="M183.732,693.609C182.156,693.569,172.637,691.903,171.189,691.095"/>
<path class="path-5" d="M171.189,691.095C172.440,689.853,179.180,688.993,181.581,689.142"/>
<path class="path-6" d="M181.581,689.142C184.128,689.297,200.247,688.936,203.090,689.049C205.441,689.177,214.173,690.026,216.173,690.273C217.435,690.456,225.621,692.282,226.373,693.263C225.480,693.996,216.651,694.571,215.887,694.593C214.346,694.687,184.251,693.452,183.732,693.609C182.156,693.569,172.637,691.903,171.189,691.095C172.440,689.853,179.180,688.993,181.581,689.142Z"/>
<path class="path-5" d="M173.421,678.565C180.773,676.562,192.438,677.190,200.249,677.224"/>
<path class="path-5" d="M200.249,677.224C207.339,677.254,217.342,677.866,224.588,678.624"/>
<path class="path-5" d="M224.588,678.624C225.729,678.773,231.820,679.193,233.205,681.436"/>
<path class="path-5" d="M233.205,681.436C234.235,683.104,235.287,687.229,232.521,688.143"/>
<path class="path-5" d="M232.521,688.143C229.248,689.242,215.156,687.997,210.772,686.420"/>
<path class="path-5" d="M210.772,686.420C206.326,685.662,200.876,685.845,196.815,685.656"/>
<path class="path-5" d="M196.815,685.656C188.957,685.290,176.490,688.677,169.787,684.647"/>
<path class="path-5" d="M169.787,684.647C168.303,683.360,167.601,681.996,167.864,680.955"/>
<path class="path-5" d="M167.864,680.955C168.009,680.383,171.187,679.173,173.421,678.565"/>
<path class="path-6" d="M173.421,678.565C180.773,676.562,192.438,677.190,200.249,677.224C207.339,677.254,217.342,677.866,224.588,678.624C225.729,678.773,231.820,679.193,233.205,681.436C234.235,683.104,235.287,687.229,232.521,688.143C229.248,689.242,215.156,687.997,210.772,686.420C206.326,685.662,200.876,685.845,196.815,685.656C188.957,685.290,176.490,688.677,169.787,684.647C168.303,683.360,167.601,681.996,167.864,680.955C168.009,680.383,171.187,679.173,173.421,678.565Z"/>
</g>
</g>
<g id="hat_brim">
<path class="path-0" d="M283.251,150.401C286.910,144.413,295.893,128.110,303.878,128.110C309.201,128.110,320.180,137.760,325.835,140.754C330.826,143.748,336.150,146.410,341.805,149.071C345.017,150.740,348.233,152.403,351.453,154.061C365.760,161.381,361.766,167.703,353.448,166.371C334.818,163.043,331.824,164.375,313.859,155.059C311.529,154.061,305.541,150.735,304.542,155.059C303.213,160.049,312.196,164.375,315.855,166.038C322.508,169.699,329.828,173.691,337.813,174.356C340.142,174.689,348.127,174.022,349.456,176.352C351.453,179.679,341.805,188.329,339.809,190.325C336.481,193.320,333.156,196.314,329.828,198.643C324.837,201.969,319.514,204.963,313.859,205.961C303.213,207.292,269.943,191.988,268.945,180.344C268.280,173.691,279.259,156.723,283.251,150.401M315.855,123.786C310.864,119.461,307.205,113.139,299.885,116.467C294.561,118.796,288.906,126.448,285.247,130.440C271.606,147.074,259.297,166.704,259.962,188.329C260.295,201.969,264.952,201.637,275.931,206.959C292.565,215.277,313.859,217.938,331.824,209.622C343.468,204.299,363.763,186.333,369.087,174.356C370.750,170.364,373.743,161.381,371.414,156.724C368.753,151.067,346.462,141.419,339.809,137.760C331.824,133.434,322.842,129.442,315.855,123.786Z"/>
<path class="path-9" d="M303.878,128.110C309.201,128.110,320.180,137.760,325.835,140.754"/>
<path class="path-9" d="M325.835,140.754C330.826,143.748,336.150,146.410,341.805,149.071"/>
<path class="path-9" d="M341.805,149.071C345.017,150.740,348.233,152.403,351.453,154.061"/>
<path class="path-9" d="M351.453,154.061C365.760,161.381,361.766,167.703,353.448,166.371"/>
<path class="path-9" d="M353.448,166.371C334.818,163.043,331.824,164.375,313.859,155.059"/>
<path class="path-9" d="M313.859,155.059C311.529,154.061,305.541,150.735,304.542,155.059"/>
<path class="path-9" d="M304.542,155.059C303.213,160.049,312.196,164.375,315.855,166.038"/>
<path class="path-9" d="M315.855,166.038C322.508,169.699,329.828,173.691,337.813,174.356"/>
<path class="path-9" d="M337.813,174.356C340.142,174.689,348.127,174.022,349.456,176.352"/>
<path class="path-9" d="M349.456,176.352C351.453,179.679,341.805,188.329,339.809,190.325"/>
<path class="path-9" d="M339.809,190.325C336.481,193.320,333.156,196.314,329.828,198.643"/>
<path class="path-9" d="M329.828,198.643C324.837,201.969,319.514,204.963,313.859,205.961"/>
<path class="path-9" d="M313.859,205.961C303.213,207.292,269.943,191.988,268.945,180.344"/>
<path class="path-9" d="M268.945,180.344C268.280,173.691,279.259,156.723,283.251,150.401"/>
<path class="path-9" d="M283.251,150.401C286.910,144.413,295.893,128.110,303.878,128.110"/>
<path class="path-10" d="M303.878,128.110C309.201,128.110,320.180,137.760,325.835,140.754C330.826,143.748,336.150,146.410,341.805,149.071C345.017,150.740,348.233,152.403,351.453,154.061C365.760,161.381,361.766,167.703,353.448,166.371C334.818,163.043,331.824,164.375,313.859,155.059C311.529,154.061,305.541,150.735,304.542,155.059C303.213,160.049,312.196,164.375,315.855,166.038C322.508,169.699,329.828,173.691,337.813,174.356C340.142,174.689,348.127,174.022,349.456,176.352C351.453,179.679,341.805,188.329,339.809,190.325C336.481,193.320,333.156,196.314,329.828,198.643C324.837,201.969,319.514,204.963,313.859,205.961C303.213,207.292,269.943,191.988,268.945,180.344C268.280,173.691,279.259,156.723,283.251,150.401C286.910,144.413,295.893,128.110,303.878,128.110Z"/>
</g>
<g id="hair">
<path class="path-0" d="M183.357,136.483C200.954,124.749,220.906,123.806,241.996,123.120C251.452,122.794,257.886,129.270,265.069,135.626C270.964,141.195,277.299,147.468,283.560,153.313C292.986,162.051,296.930,166.431,300.440,170.614C303.444,173.825,308.105,179.813,311.862,182.674C316.396,186.124,325.422,203.315,327.445,205.266C320.793,207.453,310.356,209.024,305.541,212.830C307.149,218.669,307.424,227.700,307.413,230.409C301.202,230.790,294.008,227.926,282.567,225.752C280.180,232.918,280.142,239.647,275.384,246.902C267.697,244.496,262.345,242.563,252.411,238.043C245.798,243.193,244.261,242.773,233.517,249.212C226.455,244.820,220.838,240.151,213.943,237.253C207.148,240.091,196.403,241.027,192.739,243.925C188.987,236.858,185.547,229.060,182.318,225.662C172.710,227.554,168.576,230.148,161.781,232.559C157.606,227.012,160.654,222.489,156.037,214.349C151.717,213.146,145.049,210.476,139.490,210.322C143.367,205.864,146.319,191.142,152.833,189.327C160.871,187.088,155.875,177.911,160.872,169.755C162.110,167.631,174.016,151.399,175.093,148.739C177.132,144.153,179.361,139.287,183.357,136.483M269.783,123.041C257.623,113.516,232.973,108.192,219.067,111.311C206.306,114.023,193.787,117.926,182.663,125.006C176.433,128.911,169.531,134.686,165.362,140.754C157.036,152.537,144.935,178.372,138.142,190.325C132.704,200.241,127.646,206.923,122.452,212.283C140.007,218.879,145.124,221.586,150.363,222.441C150.613,230.199,157.711,236.027,156.388,244.572C165.209,243.354,170.475,241.177,178.326,239.302C182.258,243.995,184.942,250.348,188.681,256.586C196.418,254.568,204.305,254.940,212.000,249.563C217.496,252.632,226.229,257.403,235.200,262.448C243.544,258.115,245.325,257.880,253.165,252.908C262.619,255.342,272.515,261.315,282.074,260.399C281.484,252.206,287.600,246.647,286.947,241.388C294.168,239.536,316.196,242.966,319.967,242.683C319.803,236.635,316.595,225.026,318.237,217.838C325.064,216.098,330.837,214.510,341.526,209.520C338.121,202.790,331.974,194.414,326.560,189.403C321.990,185.214,318.291,179.689,313.719,175.326C298.212,160.768,292.275,140.745,269.783,123.041Z"/>
<path class="path-11" d="M241.996,123.120C251.452,122.794,257.886,129.270,265.069,135.626"/>
<path class="path-11" d="M265.069,135.626C270.964,141.195,277.299,147.468,283.560,153.313"/>
<path class="path-11" d="M283.560,153.313C292.986,162.051,296.930,166.431,300.440,170.614"/>
<path class="path-11" d="M300.440,170.614C303.444,173.825,308.105,179.813,311.862,182.674"/>
<path class="path-11" d="M311.862,182.674C316.396,186.124,325.422,203.315,327.445,205.266"/>
<path class="path-11" d="M327.445,205.266C320.793,207.453,310.356,209.024,305.541,212.830"/>
<path class="path-11" d="M305.541,212.830C307.149,218.669,307.424,227.700,307.413,230.409"/>
<path class="path-11" d="M307.413,230.409C301.202,230.790,294.008,227.926,282.567,225.752"/>
<path class="path-11" d="M282.567,225.752C280.180,232.918,280.142,239.647,275.384,246.902"/>
<path class="path-11" d="M275.384,246.902C267.697,244.496,262.345,242.563,252.411,238.043"/>
<path class="path-11" d="M252.411,238.043C245.798,243.193,244.261,242.773,233.517,249.212"/>
<path class="path-11" d="M233.517,249.212C226.455,244.820,220.838,240.151,213.943,237.253"/>
<path class="path-11" d="M213.943,237.253C207.148,240.091,196.403,241.027,192.739,243.925"/>
<path class="path-11" d="M192.739,243.925C188.987,236.858,185.547,229.060,182.318,225.662"/>
<path class="path-11" d="M182.318,225.662C172.710,227.554,168.576,230.148,161.781,232.559"/>
<path class="path-11" d="M161.781,232.559C157.606,227.012,160.654,222.489,156.037,214.349"/>
<path class="path-11" d="M156.037,214.349C151.717,213.146,145.049,210.476,139.490,210.322"/>
<path class="path-11" d="M139.490,210.322C143.367,205.864,146.319,191.142,152.833,189.327"/>
<path class="path-11" d="M152.833,189.327C160.871,187.088,155.875,177.911,160.872,169.755"/>
<path class="path-11" d="M160.872,169.755C162.110,167.631,174.016,151.399,175.093,148.739"/>
<path class="path-11" d="M175.093,148.739C177.132,144.153,179.361,139.287,183.357,136.483"/>
<path class="path-11" d="M183.357,136.483C200.954,124.749,220.906,123.806,241.996,123.120"/>
<path class="path-12" d="M241.996,123.120C251.452,122.794,257.886,129.270,265.069,135.626C270.964,141.195,277.299,147.468,283.560,153.313C292.986,162.051,296.930,166.431,300.440,170.614C303.444,173.825,308.105,179.813,311.862,182.674C316.396,186.124,325.422,203.315,327.445,205.266C320.793,207.453,310.356,209.024,305.541,212.830C307.149,218.669,307.424,227.700,307.413,230.409C301.202,230.790,294.008,227.926,282.567,225.752C280.180,232.918,280.142,239.647,275.384,246.902C267.697,244.496,262.345,242.563,252.411,238.043C245.798,243.193,244.261,242.773,233.517,249.212C226.455,244.820,220.838,240.151,213.943,237.253C207.148,240.091,196.403,241.027,192.739,243.925C188.987,236.858,185.547,229.060,182.318,225.662C172.710,227.554,168.576,230.148,161.781,232.559C157.606,227.012,160.654,222.489,156.037,214.349C151.717,213.146,145.049,210.476,139.490,210.322C143.367,205.864,146.319,191.142,152.833,189.327C160.871,187.088,155.875,177.911,160.872,169.755C162.110,167.631,174.016,151.399,175.093,148.739C177.132,144.153,179.361,139.287,183.357,136.483C200.954,124.749,220.906,123.806,241.996,123.120Z"/>
</g>
<g id="clothes">
<path class="path-0" d="M243.659,369.981C238.998,367.902,221.050,359.678,218.175,364.126C215.742,368.150,220.371,369.050,224.430,369.581C228.025,370.051,246.182,378.217,248.649,376.634C253.207,373.634,245.912,370.870,243.659,369.981M191.093,266.179C194.088,253.538,221.037,240.563,234.012,241.561C242.994,242.226,271.274,256.199,275.266,264.517C278.592,271.170,279.590,295.789,279.924,304.107C280.257,319.412,281.070,334.757,282.253,350.019C283.832,362.560,286.813,374.879,289.573,387.214C290.133,393.516,293.674,410.308,287.710,413.897C279.992,419.055,261.399,405.487,253.973,401.253C227.586,387.148,229.712,385.028,201.674,383.887C198.243,383.617,187.111,386.612,184.772,385.285C180.778,382.368,182.444,376.634,183.442,371.977C186.436,360.333,189.762,352.680,191.427,340.038C193.423,324.069,194.088,306.768,194.088,290.134C193.755,284.145,190.429,269.839,191.093,266.179M269.943,247.549C253.640,237.899,237.670,229.915,218.042,235.573C212.718,236.902,186.103,249.877,183.773,253.205C180.115,258.529,183.773,278.821,183.773,286.141C184.107,294.791,184.440,303.773,183.773,312.092C183.442,318.413,182.111,324.069,182.111,330.057C181.777,336.710,182.444,344.030,180.780,350.019C177.454,361.663,163.299,383.737,176.456,393.270C181.696,397.096,190.237,395.263,197.016,396.264C207.914,397.660,219.533,399.978,230.019,403.783C240.343,407.855,247.896,417.735,258.698,420.816C266.969,423.176,294.615,428.220,300.484,421.283C304.448,416.807,299.865,390.408,298.688,383.754C295.718,370.645,293.004,357.395,291.567,344.031C290.618,332.087,289.239,320.410,289.904,308.100C290.237,298.119,291.900,288.471,291.900,278.157C291.567,273.831,292.234,268.510,289.904,264.184C285.912,256.199,277.263,251.873,269.943,247.549Z"/>
<path class="path-13" d="M243.659,369.981C238.998,367.902,221.050,359.678,218.175,364.126"/>
<path class="path-13" d="M218.175,364.126C215.742,368.150,220.371,369.050,224.430,369.581"/>
<path class="path-13" d="M224.430,369.581C228.025,370.051,246.182,378.217,248.649,376.634"/>
<path class="path-13" d="M248.649,376.634C253.207,373.634,245.912,370.870,243.659,369.981"/>
<path class="path-13" d="M191.093,266.179C194.088,253.538,221.037,240.563,234.012,241.561"/>
<path class="path-13" d="M234.012,241.561C242.994,242.226,271.274,256.199,275.266,264.517"/>
<path class="path-13" d="M275.266,264.517C278.592,271.170,279.590,295.789,279.924,304.107"/>
<path class="path-13" d="M279.924,304.107C280.257,319.412,281.070,334.757,282.253,350.019"/>
<path class="path-13" d="M282.253,350.019C283.832,362.560,286.813,374.879,289.573,387.214"/>
<path class="path-13" d="M289.573,387.214C290.133,393.516,293.674,410.308,287.710,413.897"/>
<path class="path-13" d="M287.710,413.897C279.992,419.055,261.399,405.487,253.973,401.253"/>
<path class="path-13" d="M253.973,401.253C227.586,387.148,229.712,385.028,201.674,383.887"/>
<path class="path-13" d="M201.674,383.887C198.243,383.617,187.111,386.612,184.772,385.285"/>
<path class="path-13" d="M184.772,385.285C180.778,382.368,182.444,376.634,183.442,371.977"/>
<path class="path-13" d="M183.442,371.977C186.436,360.333,189.762,352.680,191.427,340.038"/>
<path class="path-13" d="M191.427,340.038C193.423,324.069,194.088,306.768,194.088,290.134"/>
<path class="path-13" d="M194.088,290.134C193.755,284.145,190.429,269.839,191.093,266.179"/>
<path class="path-14" d="M243.659,369.981C238.998,367.902,221.050,359.678,218.175,364.126C215.742,368.150,220.371,369.050,224.430,369.581C228.025,370.051,246.182,378.217,248.649,376.634C253.207,373.634,245.912,370.870,243.659,369.981M191.093,266.179C194.088,253.538,221.037,240.563,234.012,241.561C242.994,242.226,271.274,256.199,275.266,264.517C278.592,271.170,279.590,295.789,279.924,304.107C280.257,319.412,281.070,334.757,282.253,350.019C283.832,362.560,286.813,374.879,289.573,387.214C290.133,393.516,293.674,410.308,287.710,413.897C279.992,419.055,261.399,405.487,253.973,401.253C227.586,387.148,229.712,385.028,201.674,383.887C198.243,383.617,187.111,386.612,184.772,385.285C180.778,382.368,182.444,376.634,183.442,371.977C186.436,360.333,189.762,352.680,191.427,340.038C193.423,324.069,194.088,306.768,194.088,290.134C193.755,284.145,190.429,269.839,191.093,266.179Z"/>
</g>
<g id="neck">
<path class="path-0" d="M229.021,222.597C229.354,219.269,230.353,216.275,234.012,215.942C245.656,213.946,244.657,251.542,234.012,251.542C224.031,251.542,228.356,228.917,229.021,222.597M234.012,206.628C231.351,206.295,228.357,206.959,226.027,208.291C216.711,212.948,218.042,221.599,218.042,230.248C217.708,234.574,218.042,238.567,216.046,242.226C214.383,245.553,209.724,248.879,209.724,252.540C210.057,262.521,237.006,262.521,243.993,262.188C246.653,262.187,255.636,263.185,256.634,259.526C256.634,258.528,249.981,246.883,248.983,242.226C245.989,228.252,255.305,207.626,234.012,206.628Z"/>
<path class="path-15" d="M234.012,215.942C245.656,213.946,244.657,251.542,234.012,251.542"/>
<path class="path-15" d="M234.012,251.542C224.031,251.542,228.356,228.917,229.021,222.597"/>
<path class="path-15" d="M229.021,222.597C229.354,219.269,230.353,216.275,234.012,215.942"/>
<path class="path-16" d="M234.012,215.942C245.656,213.946,244.657,251.542,234.012,251.542C224.031,251.542,228.356,228.917,229.021,222.597C229.354,219.269,230.353,216.275,234.012,215.942Z"/>
</g>
<g id="layer_head">
<g id="right_ear">
<path class="path-0" d="M149.722,193.599C135.184,194.438,119.942,160.183,141.486,161.299C144.980,161.480,147.922,167.326,148.526,169.922C150.771,179.568,160.120,192.998,149.722,193.599M146.963,149.718C143.638,147.729,139.549,147.066,136.001,148.621C125.120,151.444,119.358,164.327,121.327,175.453C123.662,187.863,137.547,201.526,149.076,203.732C152.120,204.330,158.404,206.406,161.286,204.846C167.914,200.712,161.012,190.481,159.010,184.687C157.015,178.476,151.709,153.792,146.963,149.718Z"/>
<path class="path-15" d="M141.486,161.299C144.980,161.480,147.922,167.326,148.526,169.922"/>
<path class="path-15" d="M148.526,169.922C150.771,179.568,160.120,192.998,149.722,193.599"/>
<path class="path-15" d="M149.722,193.599C135.184,194.438,119.942,160.183,141.486,161.299"/>
<path class="path-16" d="M141.486,161.299C144.980,161.480,147.922,167.326,148.526,169.922C150.771,179.568,160.120,192.998,149.722,193.599C135.184,194.438,119.942,160.183,141.486,161.299Z"/>
</g>
<g id="face_Mask">
<g id="face">
<path class="path-0" d="M165.143,104.823C173.630,94.374,206.398,87.189,220.038,85.193C235.343,83.197,250.979,85.526,265.950,90.183C271.274,91.848,278.925,93.844,283.582,97.503C291.567,103.825,296.675,115.098,299.552,124.451C301.834,131.242,305.940,140.380,304.066,146.886C295.554,176.443,291.623,190.106,285.703,198.365C278.396,208.560,265.163,212.340,253.588,216.888C241.948,221.269,230.138,222.641,224.031,222.264C211.726,221.504,185.217,215.477,176.122,207.957C165.201,198.581,164.054,184.252,159.599,171.206C157.078,164.507,152.809,154.481,151.449,147.601C149.445,136.551,158.158,113.344,165.143,104.823M287.600,89.827C273.982,77.607,237.715,74.796,220.081,77.440C211.762,78.430,203.776,79.088,196.122,81.079C190.463,82.741,185.467,85.400,180.140,87.063C168.494,91.387,163.682,89.948,155.852,100.713C150.229,108.248,141.352,137.949,142.414,147.132C143.333,154.019,150.943,169.213,153.412,176.916C156.626,187.142,159.015,201.883,165.633,209.829C173.099,218.532,183.254,223.061,198.792,227.145C210.034,230.100,222.472,230.941,234.441,231.139C238.833,231.480,246.992,229.011,258.806,224.121C270.904,218.935,284.269,214.626,292.590,203.306C302.501,189.823,306.231,167.622,314.592,145.437C321.524,127.041,296.085,97.277,287.600,89.827Z"/>
<path class="path-15" d="M220.038,85.193C235.343,83.197,250.979,85.526,265.950,90.183"/>
<path class="path-15" d="M265.950,90.183C271.274,91.848,278.925,93.844,283.582,97.503"/>
<path class="path-15" d="M283.582,97.503C291.567,103.825,296.675,115.098,299.552,124.451"/>
<path class="path-15" d="M299.552,124.451C301.834,131.242,305.940,140.380,304.066,146.886"/>
<path class="path-15" d="M304.066,146.886C295.554,176.443,291.623,190.106,285.703,198.365"/>
<path class="path-15" d="M285.703,198.365C278.396,208.560,265.163,212.340,253.588,216.888"/>
<path class="path-15" d="M253.588,216.888C241.948,221.269,230.138,222.641,224.031,222.264"/>
<path class="path-15" d="M224.031,222.264C211.726,221.504,185.217,215.477,176.122,207.957"/>
<path class="path-15" d="M176.122,207.957C165.201,198.581,164.054,184.252,159.599,171.206"/>
<path class="path-15" d="M159.599,171.206C157.078,164.507,152.809,154.481,151.449,147.601"/>
<path class="path-15" d="M151.449,147.601C149.445,136.551,158.158,113.344,165.143,104.823"/>
<path class="path-15" d="M165.143,104.823C173.630,94.374,206.398,87.189,220.038,85.193"/>
<path class="path-16" d="M220.038,85.193C235.343,83.197,250.979,85.526,265.950,90.183C271.274,91.848,278.925,93.844,283.582,97.503C291.567,103.825,296.675,115.098,299.552,124.451C301.834,131.242,305.940,140.380,304.066,146.886C295.554,176.443,291.623,190.106,285.703,198.365C278.396,208.560,265.163,212.340,253.588,216.888C241.948,221.269,230.138,222.641,224.031,222.264C211.726,221.504,185.217,215.477,176.122,207.957C165.201,198.581,164.054,184.252,159.599,171.206C157.078,164.507,152.809,154.481,151.449,147.601C149.445,136.551,158.158,113.344,165.143,104.823C173.630,94.374,206.398,87.189,220.038,85.193Z"/>
</g>
</g>
<mask id="mask_target" style="mask-type:alpha;">
<use xlink:href="#face_Mask"/>
</mask>
<g id="mouse">
<path class="path-0" d="M231.351,214.024C236.556,215.128,236.639,219.881,236.165,220.388C235.898,220.674,234.776,219.723,231.816,219.236C226.210,218.314,223.504,219.487,223.306,218.773C223.090,217.990,225.259,212.732,231.351,214.024Z"/>
</g>
<g id="layer_eyes_Mtarget" mask="url(#mask_target)">
<g id="eyes">
<mask style="mask-type:alpha;" id="f3906406-f197-4bf1-91d8-744c09cca836">
<use xlink:href="#cmn_f3906406-f197-4bf1-91d8-744c09cca836"/>
</mask>
<g id="cmn_f3906406-f197-4bf1-91d8-744c09cca836">
<path class="path-0" d="M209.012,174.909C210.314,186.954,201.382,194.743,189.284,191.657C182.208,189.658,178.307,184.364,175.594,178.029C174.039,174.745,167.027,159.087,172.238,161.309C176.692,163.209,208.520,170.361,209.012,174.909M215.508,177.927C216.314,176.444,217.584,174.046,217.286,172.301C216.966,170.430,215.360,167.479,213.445,167.272C208.043,166.570,188.982,160.651,182.124,158.183C175.668,156.015,163.016,148.379,158.722,154.801C157.012,157.241,160.864,158.057,162.128,162.015C167.696,179.449,175.452,196.557,194.338,197.324C210.928,197.997,211.516,185.274,215.508,177.927M257.977,186.883C251.243,186.700,242.128,181.909,242.134,171.413C242.136,168.104,255.979,163.064,261.759,160.067C267.300,157.194,278.680,150.926,281.559,151.017C284.675,151.467,283.429,154.884,283.366,163.413C283.265,176.937,270.174,187.215,257.977,186.883M289.467,169.489C292.412,158.672,292.641,142.657,290.419,141.636C285.553,139.401,272.975,148.326,265.663,151.581C256.174,155.805,241.171,165.028,234.605,166.878C232.591,167.525,230.729,167.938,230.405,169.366C229.805,172.016,234.797,173.950,236.496,176.072C239.508,179.834,240.580,186.570,245.643,189.279C255.238,194.777,263.454,192.379,273.857,187.681C281.811,184.124,287.277,177.534,289.467,169.489Z"/>
<path class="path-17" d="M281.559,151.017C284.675,151.467,283.429,154.884,283.366,163.413"/>
<path class="path-17" d="M283.366,163.413C283.265,176.937,270.174,187.215,257.977,186.883"/>
<path class="path-17" d="M257.977,186.883C251.243,186.700,242.128,181.909,242.134,171.413"/>
<path class="path-17" d="M242.134,171.413C242.136,168.104,255.979,163.064,261.759,160.067"/>
<path class="path-17" d="M261.759,160.067C267.300,157.194,278.680,150.926,281.559,151.017"/>
<path class="path-18" d="M281.559,151.017C284.675,151.467,283.429,154.884,283.366,163.413C283.265,176.937,270.174,187.215,257.977,186.883C251.243,186.700,242.128,181.909,242.134,171.413C242.136,168.104,255.979,163.064,261.759,160.067C267.300,157.194,278.680,150.926,281.559,151.017Z"/>
<path class="path-17" d="M172.238,161.309C176.692,163.209,208.520,170.361,209.012,174.909"/>
<path class="path-17" d="M209.012,174.909C210.314,186.954,201.382,194.743,189.284,191.657"/>
<path class="path-17" d="M189.284,191.657C182.208,189.658,178.307,184.364,175.594,178.029"/>
<path class="path-17" d="M175.594,178.029C174.039,174.745,167.027,159.087,172.238,161.309"/>
<path class="path-18" d="M172.238,161.309C176.692,163.209,208.520,170.361,209.012,174.909C210.314,186.954,201.382,194.743,189.284,191.657C182.208,189.658,178.307,184.364,175.594,178.029C174.039,174.745,167.027,159.087,172.238,161.309Z"/>
</g>
</g>
<g id="pupil">
<path class="path-0" d="M253.039,162.653C255.311,162.082,258.532,165.215,259.393,173.621C260.043,179.966,258.354,182.571,256.597,182.771C254.697,182.987,253.051,180.398,251.768,173.621C250.399,166.389,251.060,163.151,253.039,162.653Z" mask="url(#f3906406-f197-4bf1-91d8-744c09cca836)"/>
<path class="path-0" d="M201.844,167.169C204.193,166.749,206.412,170.567,207.083,179.433C207.455,184.342,206.786,186.334,205.502,186.646C203.945,187.024,201.923,185.052,200.419,179.275C198.370,171.411,199.697,167.552,201.844,167.169Z" mask="url(#f3906406-f197-4bf1-91d8-744c09cca836)"/>
</g>
</g>
<g id="hat">
<path class="path-0" d="M303.544,122.455C305.540,123.786,308.535,126.114,308.868,128.777C310.199,135.097,299.221,134.432,295.893,134.766C289.240,134.766,282.285,134.572,275.931,134.766C270.847,135.383,265.760,135.960,260.665,136.485C252.444,136.689,244.229,136.478,236.007,136.428C221.369,136.916,206.733,136.478,192.092,136.428C190.803,136.476,151.170,141.086,144.517,137.427C135.866,132.769,144.849,126.114,144.517,121.790C144.517,118.129,136.532,117.132,138.528,110.812C140.524,104.823,161.816,100.831,168.138,99.499C180.448,96.838,193.090,93.177,206.065,91.181C224.364,88.520,243.328,88.853,261.958,87.188C274.269,86.190,302.546,94.175,307.870,106.819C312.527,117.464,295.893,107.484,293.897,106.819C292.565,105.821,287.909,103.825,288.907,106.819C289.905,112.474,299.552,119.127,303.544,122.455M186.103,86.857C175.766,89.428,166.141,91.181,156.160,93.511C151.835,94.509,146.513,97.169,142.521,94.842C133.538,89.851,143.185,66.895,147.511,60.907C161.816,41.610,192.794,33.362,218.042,33.292C262.978,33.167,280.588,39.947,295.560,54.919C300.219,59.242,316.852,80.869,308.203,86.857C304.876,88.853,298.887,84.861,295.893,83.530C285.579,79.204,244.264,72.395,186.103,86.857M243.993,22.647C237.006,22.313,235.343,20.984,228.023,21.649C196.749,24.976,154.498,26.306,135.866,56.582C129.877,66.562,129.877,77.875,127.881,88.520C126.218,97.170,121.228,103.825,122.226,112.475C123.224,119.461,126.218,121.124,128.547,126.448C131.208,132.103,129.877,134.766,131.542,138.425C135.201,149.071,144.849,148.494,154.165,148.406C159.016,148.361,176.910,148.224,186.657,148.047C198.573,147.831,214.460,147.417,226.373,147.032C235.503,146.738,247.677,146.322,256.801,145.855C265.185,145.427,276.367,144.837,284.729,144.087C294.994,143.167,317.662,141.335,318.849,140.088C320.983,137.886,324.838,116.467,324.838,112.475C324.838,109.147,323.175,105.821,323.175,100.497C322.841,85.859,322.508,72.218,314.192,58.578C298.887,33.959,271.274,24.643,243.993,22.647Z"/>
<path class="path-19" d="M261.958,87.188C274.269,86.190,302.546,94.175,307.870,106.819"/>
<path class="path-19" d="M307.870,106.819C312.527,117.464,295.893,107.484,293.897,106.819"/>
<path class="path-19" d="M293.897,106.819C292.565,105.821,287.909,103.825,288.907,106.819"/>
<path class="path-19" d="M288.907,106.819C289.905,112.474,299.552,119.127,303.544,122.455"/>
<path class="path-19" d="M303.544,122.455C305.540,123.786,308.535,126.114,308.868,128.777"/>
<path class="path-19" d="M308.868,128.777C310.199,135.097,299.221,134.432,295.893,134.766"/>
<path class="path-19" d="M295.893,134.766C289.240,134.766,282.285,134.572,275.931,134.766"/>
<path class="path-19" d="M275.931,134.766C270.847,135.383,265.760,135.960,260.665,136.485"/>
<path class="path-19" d="M260.665,136.485C252.444,136.689,244.229,136.478,236.007,136.428"/>
<path class="path-19" d="M236.007,136.428C221.369,136.916,206.733,136.478,192.092,136.428"/>
<path class="path-19" d="M192.092,136.428C190.803,136.476,151.170,141.086,144.517,137.427"/>
<path class="path-19" d="M144.517,137.427C135.866,132.769,144.849,126.114,144.517,121.790"/>
<path class="path-19" d="M144.517,121.790C144.517,118.129,136.532,117.132,138.528,110.812"/>
<path class="path-19" d="M138.528,110.812C140.524,104.823,161.816,100.831,168.138,99.499"/>
<path class="path-19" d="M168.138,99.499C180.448,96.838,193.090,93.177,206.065,91.181"/>
<path class="path-19" d="M206.065,91.181C224.364,88.520,243.328,88.853,261.958,87.188"/>
<path class="path-20" d="M261.958,87.188C274.269,86.190,302.546,94.175,307.870,106.819C312.527,117.464,295.893,107.484,293.897,106.819C292.565,105.821,287.909,103.825,288.907,106.819C289.905,112.474,299.552,119.127,303.544,122.455C305.540,123.786,308.535,126.114,308.868,128.777C310.199,135.097,299.221,134.432,295.893,134.766C289.240,134.766,282.285,134.572,275.931,134.766C270.847,135.383,265.760,135.960,260.665,136.485C252.444,136.689,244.229,136.478,236.007,136.428C221.369,136.916,206.733,136.478,192.092,136.428C190.803,136.476,151.170,141.086,144.517,137.427C135.866,132.769,144.849,126.114,144.517,121.790C144.517,118.129,136.532,117.132,138.528,110.812C140.524,104.823,161.816,100.831,168.138,99.499C180.448,96.838,193.090,93.177,206.065,91.181C224.364,88.520,243.328,88.853,261.958,87.188Z"/>
<path class="path-9" d="M218.042,33.292C262.978,33.167,280.588,39.947,295.560,54.919"/>
<path class="path-9" d="M295.560,54.919C300.219,59.242,316.852,80.869,308.203,86.857"/>
<path class="path-9" d="M308.203,86.857C304.876,88.853,298.887,84.861,295.893,83.530"/>
<path class="path-9" d="M295.893,83.530C285.579,79.204,244.264,72.395,186.103,86.857"/>
<path class="path-9" d="M186.103,86.857C175.766,89.428,166.141,91.181,156.160,93.511"/>
<path class="path-9" d="M156.160,93.511C151.835,94.509,146.513,97.169,142.521,94.842"/>
<path class="path-9" d="M142.521,94.842C133.538,89.851,143.185,66.895,147.511,60.907"/>
<path class="path-9" d="M147.511,60.907C161.816,41.610,192.794,33.362,218.042,33.292"/>
<path class="path-10" d="M218.042,33.292C262.978,33.167,280.588,39.947,295.560,54.919C300.219,59.242,316.852,80.869,308.203,86.857C304.876,88.853,298.887,84.861,295.893,83.530C285.579,79.204,244.264,72.395,186.103,86.857C175.766,89.428,166.141,91.181,156.160,93.511C151.835,94.509,146.513,97.169,142.521,94.842C133.538,89.851,143.185,66.895,147.511,60.907C161.816,41.610,192.794,33.362,218.042,33.292Z"/>
</g>
<g id="left_ear">
<path class="path-0" d="M303.230,187.124C302.118,183.284,311.843,159.031,313.462,156.804C318.398,150.012,329.997,160.437,331.006,166.920C332.098,175.025,320.340,182.962,313.706,187.744C308.875,191.115,304.651,192.029,303.230,187.124M339.322,170.912C340.987,158.270,330.034,141.497,317.698,144.297C304.669,147.254,303.392,164.590,299.399,174.904C297.736,179.561,295.075,184.220,294.408,188.877C293.079,197.195,296.405,204.514,305.721,202.517C319.029,199.523,336.995,185.218,339.322,170.912Z"/>
<path class="path-15" d="M313.462,156.804C318.398,150.012,329.997,160.437,331.006,166.920"/>
<path class="path-15" d="M331.006,166.920C332.098,175.025,320.340,182.962,313.706,187.744"/>
<path class="path-15" d="M313.706,187.744C308.875,191.115,304.651,192.029,303.230,187.124"/>
<path class="path-15" d="M303.230,187.124C302.118,183.284,311.843,159.031,313.462,156.804"/>
<path class="path-16" d="M313.462,156.804C318.398,150.012,329.997,160.437,331.006,166.920C332.098,175.025,320.340,182.962,313.706,187.744C308.875,191.115,304.651,192.029,303.230,187.124C302.118,183.284,311.843,159.031,313.462,156.804Z"/>
</g>
<g id="earrings">
<path class="path-0" d="M324.020,204.829C315.097,207.834,313.607,187.986,317.418,188.617C322.671,190.831,326.544,200.903,324.020,204.829M332.571,197.393C325.681,196.111,323.377,187.572,323.192,183.590C330.783,186.004,340.001,192.652,332.571,197.393M340.474,192.322C338.195,184.620,327.366,179.128,319.847,176.352C317.594,175.520,312.432,183.897,312.060,186.396C310.871,190.266,309.453,212.701,322.941,210.971C328.431,210.019,342.317,198.553,340.474,192.322Z"/>
<path class="path-21" d="M323.192,183.590C330.783,186.004,340.001,192.652,332.571,197.393"/>
<path class="path-21" d="M332.571,197.393C325.681,196.111,323.377,187.572,323.192,183.590"/>
<path class="path-22" d="M323.192,183.590C330.783,186.004,340.001,192.652,332.571,197.393C325.681,196.111,323.377,187.572,323.192,183.590Z"/>
<path class="path-21" d="M317.418,188.617C322.671,190.831,326.544,200.903,324.020,204.829"/>
<path class="path-21" d="M324.020,204.829C315.097,207.834,313.607,187.986,317.418,188.617"/>
<path class="path-22" d="M317.418,188.617C322.671,190.831,326.544,200.903,324.020,204.829C315.097,207.834,313.607,187.986,317.418,188.617Z"/>
</g>
</g>
<g id="jacket">
<path class="path-0" d="M202.406,270.837C205.067,275.163,202.406,285.477,202.406,290.134C200.410,307.101,197.434,323.354,197.747,340.038C197.941,344.002,196.702,350.935,194.788,355.134C193.407,358.164,190.876,362.780,188.100,363.993C184.682,365.424,183.260,358.690,182.335,355.842C181.055,351.902,182.193,344.657,182.444,342.034C183.272,336.825,185.842,326.728,185.696,320.076C185.603,313.545,182.090,307.285,181.406,300.115C180.460,294.759,179.024,288.443,177.893,282.483C177.924,279.336,178.455,277.386,178.523,275.162C178.186,269.677,180.854,268.284,186.103,267.842C190.946,267.780,200.741,265.515,202.406,270.837M258.630,280.487C260.295,276.825,286.209,259.286,289.571,257.530C297.900,253.674,302.055,262.954,301.990,268.356C301.998,277.059,287.239,305.737,288.907,311.758C289.484,314.441,291.567,315.751,293.232,317.416C306.207,331.721,300.219,323.071,313.859,329.392C320.181,332.387,332.072,341.144,337.479,345.362C340.816,348.301,348.479,354.753,350.343,358.483C351.437,361.257,352.451,366.397,348.235,367.577C346.754,368.194,330.582,367.236,327.832,367.320C315.507,367.027,302.215,367.651,291.900,359.335C288.573,356.341,285.912,352.015,283.251,348.023C273.602,334.049,266.949,318.413,261.958,302.111C259.962,296.456,256.634,286.475,258.630,280.487M275.230,255.283C272.183,258.419,266.125,263.498,263.954,264.517C256.051,267.722,254.494,258.172,253.973,252.207C253.708,247.057,256.679,239.764,259.756,235.414C262.467,231.581,266.838,226.324,271.938,225.592C278.373,224.434,289.284,231.254,287.908,238.566C287.494,241.924,279.616,250.769,275.230,255.283M193.136,233.676C198.052,237.591,201.611,242.294,200.791,246.769C200.019,250.988,196.955,253.371,189.763,255.866C178.455,259.789,169.485,242.438,172.988,235.284C175.654,229.838,186.815,228.642,193.136,233.676M364.535,364.392C360.620,358.218,358.703,353.558,353.448,348.023C345.428,339.739,335.816,330.391,325.835,324.734C315.854,319.412,307.900,321.012,301.217,310.096C295.344,300.868,299.587,290.545,301.064,280.153C301.429,276.460,302.038,257.588,302.107,254.203C301.656,250.792,302.060,247.348,301.548,244.222C301.042,240.362,301.548,236.237,300.218,232.578C298.222,225.923,291.236,222.929,285.912,219.603C278.592,215.611,272.268,213.715,263.954,215.611C254.842,217.700,251.739,227.853,249.173,234.602C245.263,244.887,247.348,260.257,247.762,271.253C247.999,277.547,249.081,286.270,249.981,292.130C253.108,314.875,276.596,362.995,297.889,371.977C302.546,374.307,333.950,378.532,343.801,378.630C349.928,378.722,353.052,378.574,358.620,380.696C361.340,381.855,368.082,385.306,370.710,382.580C374.644,378.758,366.685,367.784,364.535,364.392M207.065,233.565C203.773,227.822,198.342,218.282,191.571,217.851C185.171,217.649,175.443,218.962,169.647,222.351C166.155,224.393,160.863,228.165,160.487,232.245C159.787,238.326,162.371,245.593,165.457,250.281C167.228,252.972,171.520,254.876,173.609,257.269C174.707,258.596,178.824,265.900,179.562,267.903C183.619,278.046,179.189,290.113,178.598,299.612C178.106,307.515,176.787,318.000,176.153,325.893C175.428,334.919,174.821,346.159,174.126,356.007C173.842,358.279,173.775,363.345,174.012,366.477C174.260,369.758,174.119,375.887,175.789,377.301C176.633,378.016,186.815,379.404,190.981,377.555C195.190,375.686,198.563,375.559,201.074,365.988C203.959,353.823,205.732,342.699,206.065,330.057C206.065,308.433,212.464,279.358,211.720,266.179C211.381,260.167,212.437,256.170,211.191,247.783C210.571,244.324,209.273,237.419,207.065,233.565Z"/>
<path class="path-1" d="M289.571,257.530C297.900,253.674,302.055,262.954,301.990,268.356"/>
<path class="path-1" d="M301.990,268.356C301.998,277.059,287.239,305.737,288.907,311.758"/>
<path class="path-1" d="M288.907,311.758C289.484,314.441,291.567,315.751,293.232,317.416"/>
<path class="path-1" d="M293.232,317.416C306.207,331.721,300.219,323.071,313.859,329.392"/>
<path class="path-1" d="M313.859,329.392C320.181,332.387,332.072,341.144,337.479,345.362"/>
<path class="path-1" d="M337.479,345.362C340.816,348.301,348.479,354.753,350.343,358.483"/>
<path class="path-1" d="M350.343,358.483C351.437,361.257,352.451,366.397,348.235,367.577"/>
<path class="path-1" d="M348.235,367.577C346.754,368.194,330.582,367.236,327.832,367.320"/>
<path class="path-1" d="M327.832,367.320C315.507,367.027,302.215,367.651,291.900,359.335"/>
<path class="path-1" d="M291.900,359.335C288.573,356.341,285.912,352.015,283.251,348.023"/>
<path class="path-1" d="M283.251,348.023C273.602,334.049,266.949,318.413,261.958,302.111"/>
<path class="path-1" d="M261.958,302.111C259.962,296.456,256.634,286.475,258.630,280.487"/>
<path class="path-1" d="M258.630,280.487C260.295,276.825,286.209,259.286,289.571,257.530"/>
<path class="path-2" d="M289.571,257.530C297.900,253.674,302.055,262.954,301.990,268.356C301.998,277.059,287.239,305.737,288.907,311.758C289.484,314.441,291.567,315.751,293.232,317.416C306.207,331.721,300.219,323.071,313.859,329.392C320.181,332.387,332.072,341.144,337.479,345.362C340.816,348.301,348.479,354.753,350.343,358.483C351.437,361.257,352.451,366.397,348.235,367.577C346.754,368.194,330.582,367.236,327.832,367.320C315.507,367.027,302.215,367.651,291.900,359.335C288.573,356.341,285.912,352.015,283.251,348.023C273.602,334.049,266.949,318.413,261.958,302.111C259.962,296.456,256.634,286.475,258.630,280.487C260.295,276.825,286.209,259.286,289.571,257.530Z"/>
<path class="path-1" d="M186.103,267.842C190.946,267.780,200.741,265.515,202.406,270.837"/>
<path class="path-1" d="M202.406,270.837C205.067,275.163,202.406,285.477,202.406,290.134"/>
<path class="path-1" d="M202.406,290.134C200.410,307.101,197.434,323.354,197.747,340.038"/>
<path class="path-1" d="M197.747,340.038C197.941,344.002,196.702,350.935,194.788,355.134"/>
<path class="path-1" d="M194.788,355.134C193.407,358.164,190.876,362.780,188.100,363.993"/>
<path class="path-1" d="M188.100,363.993C184.682,365.424,183.260,358.690,182.335,355.842"/>
<path class="path-1" d="M182.335,355.842C181.055,351.902,182.193,344.657,182.444,342.034"/>
<path class="path-1" d="M182.444,342.034C183.272,336.825,185.842,326.728,185.696,320.076"/>
<path class="path-1" d="M185.696,320.076C185.603,313.545,182.090,307.285,181.406,300.115"/>
<path class="path-1" d="M181.406,300.115C180.460,294.759,179.024,288.443,177.893,282.483"/>
<path class="path-1" d="M177.893,282.483C177.924,279.336,178.455,277.386,178.523,275.162"/>
<path class="path-1" d="M178.523,275.162C178.186,269.677,180.854,268.284,186.103,267.842"/>
<path class="path-2" d="M186.103,267.842C190.946,267.780,200.741,265.515,202.406,270.837C205.067,275.163,202.406,285.477,202.406,290.134C200.410,307.101,197.434,323.354,197.747,340.038C197.941,344.002,196.702,350.935,194.788,355.134C193.407,358.164,190.876,362.780,188.100,363.993C184.682,365.424,183.260,358.690,182.335,355.842C181.055,351.902,182.193,344.657,182.444,342.034C183.272,336.825,185.842,326.728,185.696,320.076C185.603,313.545,182.090,307.285,181.406,300.115C180.460,294.759,179.024,288.443,177.893,282.483C177.924,279.336,178.455,277.386,178.523,275.162C178.186,269.677,180.854,268.284,186.103,267.842Z"/>
<path class="path-1" d="M271.938,225.592C278.373,224.434,289.284,231.254,287.908,238.566"/>
<path class="path-1" d="M287.908,238.566C287.494,241.924,279.616,250.769,275.230,255.283"/>
<path class="path-1" d="M275.230,255.283C272.183,258.419,266.125,263.498,263.954,264.517"/>
<path class="path-1" d="M263.954,264.517C256.051,267.722,254.494,258.172,253.973,252.207"/>
<path class="path-1" d="M253.973,252.207C253.708,247.057,256.679,239.764,259.756,235.414"/>
<path class="path-1" d="M259.756,235.414C262.467,231.581,266.838,226.324,271.938,225.592"/>
<path class="path-2" d="M271.938,225.592C278.373,224.434,289.284,231.254,287.908,238.566C287.494,241.924,279.616,250.769,275.230,255.283C272.183,258.419,266.125,263.498,263.954,264.517C256.051,267.722,254.494,258.172,253.973,252.207C253.708,247.057,256.679,239.764,259.756,235.414C262.467,231.581,266.838,226.324,271.938,225.592Z"/>
<path class="path-1" d="M193.136,233.676C198.052,237.591,201.611,242.294,200.791,246.769"/>
<path class="path-1" d="M200.791,246.769C200.019,250.988,196.955,253.371,189.763,255.866"/>
<path class="path-1" d="M189.763,255.866C178.455,259.789,169.485,242.438,172.988,235.284"/>
<path class="path-1" d="M172.988,235.284C175.654,229.838,186.815,228.642,193.136,233.676"/>
<path class="path-2" d="M193.136,233.676C198.052,237.591,201.611,242.294,200.791,246.769C200.019,250.988,196.955,253.371,189.763,255.866C178.455,259.789,169.485,242.438,172.988,235.284C175.654,229.838,186.815,228.642,193.136,233.676Z"/>
</g>
<g id="left_arm">
<path class="path-0" d="M290.902,459.809C287.575,454.485,286.245,445.502,293.897,443.175C299.221,441.510,323.174,446.834,327.167,450.826C334.153,457.148,330.161,471.786,321.510,475.113C311.529,478.439,296.226,468.127,290.902,459.809M279.516,276.423C280.393,273.226,288.864,263.064,293.897,264.184C296.819,264.834,298.222,269.839,299.220,272.502C301.881,280.818,304.543,289.469,306.872,298.119C313.194,320.741,317.518,343.366,322.177,365.988C323.839,375.305,323.839,387.613,327.167,395.931C331.159,405.579,337.479,402.253,340.474,408.573C341.805,411.567,341.140,417.224,343.136,421.881C346.130,429.201,351.785,433.194,354.446,437.851C356.111,440.512,356.776,443.506,353.117,444.173C351.121,445.171,345.797,444.173,343.801,444.173C337.144,442.402,330.490,440.627,323.840,438.849C314.857,436.852,287.575,435.521,282.918,429.533C275.931,420.218,286.910,409.240,288.242,399.924C288.907,396.930,292.189,352.967,291.567,350.019C290.899,343.164,287.387,337.131,285.841,330.057C284.214,320.430,282.539,310.147,281.179,300.115C280.223,291.877,276.733,285.067,279.516,276.423M305.541,254.536C303.213,249.877,295.893,241.561,289.904,242.890C284.914,244.222,284.249,250.210,283.582,254.203C281.920,264.184,279.924,272.502,279.924,282.149C279.590,289.136,280.257,295.458,280.921,302.111C281.586,311.427,279.590,329.392,279.924,340.038C279.924,349.686,282.253,359.667,281.586,367.985C279.590,387.613,271.273,406.246,271.938,425.874C271.939,435.855,274.600,435.855,276.929,443.840C278.592,449.828,277.263,456.150,279.590,461.805C285.579,476.776,302.880,490.416,319.847,487.091C335.483,484.096,336.150,467.129,344.466,458.146C351.786,450.161,366.424,454.154,368.420,445.835C370.416,438.849,360.769,431.198,357.110,425.874C349.790,415.893,355.445,413.563,351.786,405.912C349.125,400.257,341.471,395.267,337.813,387.947C335.816,384.619,334.819,378.299,333.487,373.973C330.826,363.992,327.831,352.680,326.169,342.034C324.504,329.724,324.173,318.745,320.845,306.103C318.184,295.458,310.200,262.852,305.541,254.536Z"/>
<path class="path-1" d="M293.897,264.184C296.819,264.834,298.222,269.839,299.220,272.502"/>
<path class="path-1" d="M299.220,272.502C301.881,280.818,304.543,289.469,306.872,298.119"/>
<path class="path-1" d="M306.872,298.119C313.194,320.741,317.518,343.366,322.177,365.988"/>
<path class="path-1" d="M322.177,365.988C323.839,375.305,323.839,387.613,327.167,395.931"/>
<path class="path-1" d="M327.167,395.931C331.159,405.579,337.479,402.253,340.474,408.573"/>
<path class="path-1" d="M340.474,408.573C341.805,411.567,341.140,417.224,343.136,421.881"/>
<path class="path-1" d="M343.136,421.881C346.130,429.201,351.785,433.194,354.446,437.851"/>
<path class="path-1" d="M354.446,437.851C356.111,440.512,356.776,443.506,353.117,444.173"/>
<path class="path-1" d="M353.117,444.173C351.121,445.171,345.797,444.173,343.801,444.173"/>
<path class="path-1" d="M343.801,444.173C337.144,442.402,330.490,440.627,323.840,438.849"/>
<path class="path-1" d="M323.840,438.849C314.857,436.852,287.575,435.521,282.918,429.533"/>
<path class="path-1" d="M282.918,429.533C275.931,420.218,286.910,409.240,288.242,399.924"/>
<path class="path-1" d="M288.242,399.924C288.907,396.930,292.189,352.967,291.567,350.019"/>
<path class="path-1" d="M291.567,350.019C290.899,343.164,287.387,337.131,285.841,330.057"/>
<path class="path-1" d="M285.841,330.057C284.214,320.430,282.539,310.147,281.179,300.115"/>
<path class="path-1" d="M281.179,300.115C280.223,291.877,276.733,285.067,279.516,276.423"/>
<path class="path-1" d="M279.516,276.423C280.393,273.226,288.864,263.064,293.897,264.184"/>
<path class="path-2" d="M293.897,264.184C296.819,264.834,298.222,269.839,299.220,272.502C301.881,280.818,304.543,289.469,306.872,298.119C313.194,320.741,317.518,343.366,322.177,365.988C323.839,375.305,323.839,387.613,327.167,395.931C331.159,405.579,337.479,402.253,340.474,408.573C341.805,411.567,341.140,417.224,343.136,421.881C346.130,429.201,351.785,433.194,354.446,437.851C356.111,440.512,356.776,443.506,353.117,444.173C351.121,445.171,345.797,444.173,343.801,444.173C337.144,442.402,330.490,440.627,323.840,438.849C314.857,436.852,287.575,435.521,282.918,429.533C275.931,420.218,286.910,409.240,288.242,399.924C288.907,396.930,292.189,352.967,291.567,350.019C290.899,343.164,287.387,337.131,285.841,330.057C284.214,320.430,282.539,310.147,281.179,300.115C280.223,291.877,276.733,285.067,279.516,276.423C280.393,273.226,288.864,263.064,293.897,264.184Z"/>
<path class="path-15" d="M293.897,443.175C299.221,441.510,323.174,446.834,327.167,450.826"/>
<path class="path-15" d="M327.167,450.826C334.153,457.148,330.161,471.786,321.510,475.113"/>
<path class="path-15" d="M321.510,475.113C311.529,478.439,296.226,468.127,290.902,459.809"/>
<path class="path-15" d="M290.902,459.809C287.575,454.485,286.245,445.502,293.897,443.175"/>
<path class="path-16" d="M293.897,443.175C299.221,441.510,323.174,446.834,327.167,450.826C334.153,457.148,330.161,471.786,321.510,475.113C311.529,478.439,296.226,468.127,290.902,459.809C287.575,454.485,286.245,445.502,293.897,443.175Z"/>
</g>
<g id="bone">
<g id="bone1_clothes">
<path class="path-23" d="M231.111,386.544C231.111,386.538,236.676,327.812,236.676,327.806C236.677,327.812,242.242,386.538,242.243,386.544C242.242,386.544,231.112,386.544,231.111,386.544"/>
</g>
<g id="bone2_clothes">
<path class="path-23" d="M232.621,327.525C232.621,327.518,234.398,255.014,234.398,255.006C234.400,255.013,246.355,326.547,246.356,326.555C246.355,326.555,232.623,327.525,232.621,327.525"/>
</g>
<g id="bone3_neck">
<path class="path-23" d="M237.762,253.798C237.762,253.794,233.178,212.346,233.178,212.342C233.178,212.346,231.169,253.998,231.168,254.002C231.169,254.002,237.762,253.798,237.762,253.798"/>
</g>
<g id="bone4_head">
<path class="path-23" d="M230.411,212.795C230.411,212.787,230.681,134.723,230.681,134.715C230.682,134.723,242.839,211.834,242.840,211.842C242.839,211.842,230.412,212.794,230.411,212.795"/>
</g>
<g id="bone5_left_arm">
<path class="path-23" d="M298.266,255.897C298.267,255.906,315.447,346.763,315.448,346.772C315.445,346.764,283.075,260.148,283.072,260.139C283.074,260.139,298.264,255.898,298.266,255.897"/>
</g>
<g id="bone6_left_arm">
<path class="path-23" d="M300.876,348.375C300.876,348.381,298.090,412.057,298.090,412.063C298.091,412.057,311.234,349.691,311.236,349.684C311.235,349.684,300.877,348.375,300.876,348.375"/>
</g>
<g id="bone7_right_arm">
<path class="path-23" d="M169.056,269.974C169.055,269.986,153.471,384.429,153.469,384.440C153.472,384.429,186.918,273.879,186.921,273.868C186.920,273.867,169.058,269.975,169.056,269.974"/>
</g>
<g id="bone8_right_arm">
<path class="path-23" d="M157.551,380.660C157.552,380.666,171.964,438.418,171.965,438.424C171.962,438.418,146.244,384.739,146.241,384.734C146.242,384.733,157.550,380.661,157.551,380.660"/>
</g>
<g id="bone9_left_leg">
<path class="path-23" d="M272.125,386.368C272.125,386.379,270.049,488.023,270.049,488.033C270.047,488.023,253.817,387.662,253.815,387.652C253.817,387.651,272.123,386.368,272.125,386.368"/>
</g>
<g id="bone10_right_leg">
<path class="path-23" d="M209.407,385.449C209.407,385.459,209.480,489.215,209.480,489.225C209.482,489.215,224.870,386.607,224.872,386.596C224.870,386.596,209.409,385.449,209.407,385.449"/>
</g>
<g id="bone11_hair">
<path class="path-23" d="M234.571,157.029C234.572,157.037,242.249,236.853,242.250,236.861C242.248,236.853,220.093,159.791,220.091,159.783C220.092,159.783,234.570,157.030,234.571,157.029"/>
</g>
<g id="bone12_left_leg_S">
<path class="path-23" d="M442.356,216.721C442.355,216.714,436.392,144.616,436.391,144.609C436.390,144.616,430.427,216.714,430.426,216.721C430.428,216.721,442.354,216.721,442.356,216.721"/>
</g>
<g id="bone13_right_leg_S">
<path class="path-23" d="M501.486,215.548C501.484,215.541,480.944,146.174,480.942,146.167C480.943,146.174,489.806,217.973,489.807,217.981C489.809,217.980,501.485,215.548,501.486,215.548"/>
</g>
<g id="bone14_left_arm_S">
<path class="path-23" d="M557.459,215.989C557.458,215.981,551.495,143.884,551.494,143.876C551.494,143.884,545.530,215.981,545.530,215.989C545.531,215.989,557.458,215.989,557.459,215.989"/>
</g>
<g id="bone15_jacket_S">
<path class="path-23" d="M610.611,215.989C610.611,215.981,604.647,143.884,604.647,143.876C604.646,143.884,598.683,215.981,598.682,215.989C598.683,215.989,610.610,215.989,610.611,215.989"/>
</g>
<g id="bone16_pupils_S">
<path class="path-23" d="M441.876,335.302C441.872,335.295,410.862,269.934,410.859,269.928C410.861,269.935,430.711,339.502,430.713,339.509C430.714,339.509,441.874,335.302,441.876,335.302"/>
</g>
<g id="bone17_eyelids_S">
<path class="path-23" d="M502.146,335.940C502.144,335.933,478.841,267.445,478.839,267.438C478.840,267.445,490.574,338.832,490.575,338.839C490.576,338.839,502.145,335.941,502.146,335.940"/>
</g>
<g id="bone18_face_S">
<path class="path-23" d="M557.989,339.189C557.989,339.182,552.025,267.084,552.025,267.077C552.024,267.084,546.061,339.182,546.060,339.189C546.061,339.189,557.988,339.189,557.989,339.189"/>
</g>
</g>
</g>
<style>
.path-0{fill:#000000;fill-rule:evenodd;stroke:none;}
.path-1{fill:none;stroke:#a60d3f;stroke-width:1;stroke-linecap:butt;stroke-linejoin:round;}
.path-2{fill:#a60d3f;fill-rule:evenodd;stroke:none;}
.path-3{fill:none;stroke:#d88e4b;stroke-width:1;stroke-linecap:butt;stroke-linejoin:round;}
.path-4{fill:#d88e4b;fill-rule:evenodd;stroke:none;}
.path-5{fill:none;stroke:#6e2353;stroke-width:1;stroke-linecap:butt;stroke-linejoin:round;}
.path-6{fill:#6e2353;fill-rule:evenodd;stroke:none;}
.path-7{fill:none;stroke:#392966;stroke-width:1;stroke-linecap:butt;stroke-linejoin:round;}
.path-8{fill:#392966;fill-rule:evenodd;stroke:none;}
.path-9{fill:none;stroke:#cc9bc5;stroke-width:1;stroke-linecap:butt;stroke-linejoin:round;}
.path-10{fill:#cc9bc5;fill-rule:evenodd;stroke:none;}
.path-11{fill:none;stroke:#620527;stroke-width:1;stroke-linecap:butt;stroke-linejoin:round;}
.path-12{fill:#620527;fill-rule:evenodd;stroke:none;}
.path-13{fill:none;stroke:#6a3661;stroke-width:1;stroke-linecap:butt;stroke-linejoin:round;}
.path-14{fill:#6a3661;fill-rule:evenodd;stroke:none;}
.path-15{fill:none;stroke:#f8a087;stroke-width:1;stroke-linecap:butt;stroke-linejoin:round;}
.path-16{fill:#f8a087;fill-rule:evenodd;stroke:none;}
.path-17{fill:none;stroke:#ffffff;stroke-width:1;stroke-linecap:butt;stroke-linejoin:round;}
.path-18{fill:#ffffff;fill-rule:evenodd;stroke:none;}
.path-19{fill:none;stroke:#d89f4a;stroke-width:1;stroke-linecap:butt;stroke-linejoin:round;}
.path-20{fill:#d89f4a;fill-rule:evenodd;stroke:none;}
.path-21{fill:none;stroke:#fafd5b;stroke-width:1;stroke-linecap:butt;stroke-linejoin:round;}
.path-22{fill:#fafd5b;fill-rule:evenodd;stroke:none;}
.path-23{fill:none;stroke:#00ff42;stroke-width:8;stroke-linecap:round;stroke-linejoin:round;}
.path-24{fill:none;stroke:#000000;stroke-width:1;stroke-linecap:butt;stroke-linejoin:round;}
.path-25{fill:none;stroke:#ececec;stroke-width:1;stroke-linecap:butt;stroke-linejoin:round;}
.path-26{fill:#ececec;fill-rule:evenodd;stroke:none;}
</style>
</svg>
