<svg version="1.1" id="Frame_178" xmlns="http://www.w3.org/2000/svg" xmlns:xlink="http://www.w3.org/1999/xlink" width="480px" height="720px">
<g id="main_bone">
<g id="right_arm">
<path class="path-0" d="M174.126,270.172C175.458,267.511,178.075,262.017,181.778,260.525C188.182,257.943,193.652,263.933,194.431,268.509C196.093,276.447,190.936,287.396,188.470,295.289C182.390,314.329,175.637,333.084,171.132,352.015C170.600,355.317,165.808,376.634,165.808,373.973C165.476,380.626,172.130,386.283,174.459,391.939C177.454,399.590,174.791,406.910,172.795,413.897C168.138,428.535,168.471,433.858,167.804,448.165C167.804,450.492,167.473,458.146,163.812,458.146C160.487,458.146,160.153,452.157,159.488,449.828C159.155,447.167,156.825,441.510,157.492,439.182C157.823,435.190,162.483,436.188,157.492,427.870C151.170,417.555,139.526,409.240,136.532,395.931C134.536,385.285,140.191,375.969,143.186,365.988C149.508,344.695,156.494,323.404,163.812,302.111C167.805,291.132,168.802,281.484,174.126,270.172M193.754,262.188C193.755,253.538,190.761,245.885,180.115,249.546C163.481,255.200,158.822,281.484,154.165,296.122C147.512,316.084,141.855,336.046,136.199,356.007C133.870,364.657,130.544,368.982,129.212,373.973C127.549,379.628,127.881,388.280,128.214,393.935C128.214,411.567,133.869,412.234,140.856,425.874C144.517,433.859,140.525,438.849,142.852,445.835C144.517,450.492,148.176,453.820,150.837,457.813C153.166,461.805,153.499,464.135,155.162,467.793C157.158,472.119,163.481,481.767,169.136,479.771C173.793,478.108,173.793,469.790,174.126,465.797C174.459,459.809,178.119,436.853,179.450,429.866C181.778,418.554,187.435,406.245,185.770,393.935C184.440,384.619,176.122,377.965,176.456,367.985C176.787,362.661,180.115,354.011,181.113,348.023C182.776,338.375,182.776,328.061,184.772,318.081C188.099,300.448,194.421,280.487,193.754,262.188Z"/>
<path class="path-1" d="M181.778,260.525C188.182,257.943,193.652,263.933,194.431,268.509"/>
<path class="path-1" d="M194.431,268.509C196.093,276.447,190.936,287.396,188.470,295.289"/>
<path class="path-1" d="M188.470,295.289C182.390,314.329,175.637,333.084,171.132,352.015"/>
<path class="path-1" d="M171.132,352.015C170.600,355.317,165.808,376.634,165.808,373.973"/>
<path class="path-1" d="M165.808,373.973C165.476,380.626,172.130,386.283,174.459,391.939"/>
<path class="path-1" d="M174.459,391.939C177.454,399.590,174.791,406.910,172.795,413.897"/>
<path class="path-1" d="M172.795,413.897C168.138,428.535,168.471,433.858,167.804,448.165"/>
<path class="path-1" d="M167.804,448.165C167.804,450.492,167.473,458.146,163.812,458.146"/>
<path class="path-1" d="M163.812,458.146C160.487,458.146,160.153,452.157,159.488,449.828"/>
<path class="path-1" d="M159.488,449.828C159.155,447.167,156.825,441.510,157.492,439.182"/>
<path class="path-1" d="M157.492,439.182C157.823,435.190,162.483,436.188,157.492,427.870"/>
<path class="path-1" d="M157.492,427.870C151.170,417.555,139.526,409.240,136.532,395.931"/>
<path class="path-1" d="M136.532,395.931C134.536,385.285,140.191,375.969,143.186,365.988"/>
<path class="path-1" d="M143.186,365.988C149.508,344.695,156.494,323.404,163.812,302.111"/>
<path class="path-1" d="M163.812,302.111C167.805,291.132,168.802,281.484,174.126,270.172"/>
<path class="path-1" d="M174.126,270.172C175.458,267.511,178.075,262.017,181.778,260.525"/>
<path class="path-2" d="M181.778,260.525C188.182,257.943,193.652,263.933,194.431,268.509C196.093,276.447,190.936,287.396,188.470,295.289C182.390,314.329,175.637,333.084,171.132,352.015C170.600,355.317,165.808,376.634,165.808,373.973C165.476,380.626,172.130,386.283,174.459,391.939C177.454,399.590,174.791,406.910,172.795,413.897C168.138,428.535,168.471,433.858,167.804,448.165C167.804,450.492,167.473,458.146,163.812,458.146C160.487,458.146,160.153,452.157,159.488,449.828C159.155,447.167,156.825,441.510,157.492,439.182C157.823,435.190,162.483,436.188,157.492,427.870C151.170,417.555,139.526,409.240,136.532,395.931C134.536,385.285,140.191,375.969,143.186,365.988C149.508,344.695,156.494,323.404,163.812,302.111C167.805,291.132,168.802,281.484,174.126,270.172C175.458,267.511,178.075,262.017,181.778,260.525Z"/>
</g>
<g id="layer_left_leg">
<g id="left_heel">
<path class="path-0" d="M255.746,627.947C248.689,616.382,262.642,597.146,273.961,594.867C291.329,591.181,304.199,617.008,302.037,623.236C298.435,632.642,282.044,632.975,273.459,633.044C268.831,632.929,257.986,631.796,255.746,627.947M302.132,593.769C292.326,584.108,269.852,585.908,258.944,592.084C235.799,604.605,230.800,646.724,264.950,645.585C276.657,645.250,302.463,642.920,309.400,635.660C315.467,630.047,313.532,620.645,311.675,613.143C309.779,607.059,306.744,598.443,302.132,593.769Z"/>
<path class="path-3" d="M273.961,594.867C291.329,591.181,304.199,617.008,302.037,623.236"/>
<path class="path-3" d="M302.037,623.236C298.435,632.642,282.044,632.975,273.459,633.044"/>
<path class="path-3" d="M273.459,633.044C268.831,632.929,257.986,631.796,255.746,627.947"/>
<path class="path-3" d="M255.746,627.947C248.689,616.382,262.642,597.146,273.961,594.867"/>
<path class="path-4" d="M273.961,594.867C291.329,591.181,304.199,617.008,302.037,623.236C298.435,632.642,282.044,632.975,273.459,633.044C268.831,632.929,257.986,631.796,255.746,627.947C248.689,616.382,262.642,597.146,273.961,594.867Z"/>
</g>
<g id="left_leg">
<path class="path-0" d="M238.898,405.789C240.604,401.168,250.098,404.779,253.973,404.581C259.819,404.565,272.976,402.520,277.742,406.099C286.426,412.175,288.617,441.474,289.044,451.661C289.462,483.120,291.330,512.608,292.047,542.980C292.045,549.460,292.000,556.149,292.075,562.503C292.349,567.630,290.663,574.266,294.015,577.758C295.330,579.722,299.981,578.306,300.090,580.494C299.982,588.904,291.996,584.253,287.800,588.518C280.154,595.829,265.985,602.615,256.715,600.094C250.333,598.586,239.592,591.174,237.169,585.175C234.861,579.459,233.328,572.532,232.307,566.573C227.613,539.172,243.405,482.152,236.983,451.547C233.052,432.813,241.634,431.700,249.058,418.850C250.285,416.726,238.396,419.128,236.730,417.280C234.452,415.128,237.683,408.599,238.898,405.789M284.960,397.228C278.682,392.463,261.282,394.513,253.973,394.933C249.961,395.148,237.386,392.156,234.430,393.983C216.601,405.008,223.552,444.790,225.548,461.765C225.791,466.553,224.770,489.415,224.438,495.860C224.640,523.318,218.499,546.789,220.203,574.195C220.574,581.766,220.125,589.260,222.806,596.240C230.000,614.587,247.082,617.729,269.676,616.404C281.529,615.719,307.644,610.378,316.225,588.098C319.641,579.219,314.119,567.216,312.779,564.286C310.577,559.472,307.299,554.787,306.067,549.249C301.503,531.623,308.107,512.878,306.798,494.612C305.147,471.263,304.613,412.210,284.960,397.228Z"/>
<path class="path-7" d="M253.973,404.581C259.819,404.565,272.976,402.520,277.742,406.099"/>
<path class="path-7" d="M277.742,406.099C286.426,412.175,288.617,441.474,289.044,451.661"/>
<path class="path-7" d="M289.044,451.661C289.462,483.120,291.330,512.608,292.047,542.980"/>
<path class="path-7" d="M292.047,542.980C292.045,549.460,292.000,556.149,292.075,562.503"/>
<path class="path-7" d="M292.075,562.503C292.349,567.630,290.663,574.266,294.015,577.758"/>
<path class="path-7" d="M294.015,577.758C295.330,579.722,299.981,578.306,300.090,580.494"/>
<path class="path-7" d="M300.090,580.494C299.982,588.904,291.996,584.253,287.800,588.518"/>
<path class="path-7" d="M287.800,588.518C280.154,595.829,265.985,602.615,256.715,600.094"/>
<path class="path-7" d="M256.715,600.094C250.333,598.586,239.592,591.174,237.169,585.175"/>
<path class="path-7" d="M237.169,585.175C234.861,579.459,233.328,572.532,232.307,566.573"/>
<path class="path-7" d="M232.307,566.573C227.613,539.172,243.405,482.152,236.983,451.547"/>
<path class="path-7" d="M236.983,451.547C233.052,432.813,241.634,431.700,249.058,418.850"/>
<path class="path-7" d="M249.058,418.850C250.285,416.726,238.396,419.128,236.730,417.280"/>
<path class="path-7" d="M236.730,417.280C234.452,415.128,237.683,408.599,238.898,405.789"/>
<path class="path-7" d="M238.898,405.789C240.604,401.168,250.098,404.779,253.973,404.581"/>
<path class="path-8" d="M253.973,404.581C259.819,404.565,272.976,402.520,277.742,406.099C286.426,412.175,288.617,441.474,289.044,451.661C289.462,483.120,291.330,512.608,292.047,542.980C292.045,549.460,292.000,556.149,292.075,562.503C292.349,567.630,290.663,574.266,294.015,577.758C295.330,579.722,299.981,578.306,300.090,580.494C299.982,588.904,291.996,584.253,287.800,588.518C280.154,595.829,265.985,602.615,256.715,600.094C250.333,598.586,239.592,591.174,237.169,585.175C234.861,579.459,233.328,572.532,232.307,566.573C227.613,539.172,243.405,482.152,236.983,451.547C233.052,432.813,241.634,431.700,249.058,418.850C250.285,416.726,238.396,419.128,236.730,417.280C234.452,415.128,237.683,408.599,238.898,405.789C240.604,401.168,250.098,404.779,253.973,404.581Z"/>
</g>
<g id="left_toe">
<path class="path-0" d="M252.237,658.341C225.503,653.486,230.774,618.756,251.068,611.846C271.934,604.883,291.260,616.826,297.245,629.615C300.920,636.305,302.591,643.549,299.025,650.497C291.371,662.784,264.992,660.573,252.237,658.341M313.149,624.583C309.900,610.707,298.414,597.943,287.011,594.157C259.044,584.995,234.607,592.826,225.456,618.049C219.663,632.499,222.859,648.832,232.525,661.037C240.168,670.092,266.618,671.349,277.897,670.341C287.863,668.752,300.298,666.077,307.170,657.635C312.124,651.729,314.815,631.932,313.149,624.583Z"/>
<path class="path-3" d="M251.068,611.846C271.934,604.883,291.260,616.826,297.245,629.615"/>
<path class="path-3" d="M297.245,629.615C300.920,636.305,302.591,643.549,299.025,650.497"/>
<path class="path-3" d="M299.025,650.497C291.371,662.784,264.992,660.573,252.237,658.341"/>
<path class="path-3" d="M252.237,658.341C225.503,653.486,230.774,618.756,251.068,611.846"/>
<path class="path-4" d="M251.068,611.846C271.934,604.883,291.260,616.826,297.245,629.615C300.920,636.305,302.591,643.549,299.025,650.497C291.371,662.784,264.992,660.573,252.237,658.341C225.503,653.486,230.774,618.756,251.068,611.846Z"/>
</g>
<g id="left_sole">
<path class="path-0" d="M256.005,673.307C245.032,672.989,241.820,658.898,240.279,664.093C239.299,667.401,248.444,670.490,252.538,671.646C261.558,674.548,276.799,673.168,285.742,668.832C288.681,667.688,298.089,664.851,298.121,665.101C298.643,669.144,287.447,669.686,283.738,670.131C280.335,670.883,256.904,673.132,256.005,673.307M240.618,664.353C246.016,662.426,256.939,666.702,261.076,667.873C277.471,672.514,287.325,663.356,295.403,662.684C296.155,662.629,298.555,660.864,299.173,662.940C301.313,670.136,269.622,675.815,255.289,671.216C248.257,669.664,238.616,665.067,240.618,664.353M303.865,655.627C300.658,652.922,283.160,660.637,266.051,660.965C257.587,661.154,236.525,649.218,230.843,658.857C229.638,660.910,230.362,668.346,232.080,669.925C243.515,680.777,296.675,677.151,302.891,672.152C304.957,670.490,308.166,659.256,303.865,655.627Z"/>
<path class="path-5" d="M240.279,664.093C239.299,667.401,248.444,670.490,252.538,671.646"/>
<path class="path-5" d="M252.538,671.646C261.558,674.548,276.799,673.168,285.742,668.832"/>
<path class="path-5" d="M285.742,668.832C288.681,667.688,298.089,664.851,298.121,665.101"/>
<path class="path-5" d="M298.121,665.101C298.643,669.144,287.447,669.686,283.738,670.131"/>
<path class="path-5" d="M283.738,670.131C280.335,670.883,256.904,673.132,256.005,673.307"/>
<path class="path-5" d="M256.005,673.307C245.032,672.989,241.820,658.898,240.279,664.093"/>
<path class="path-6" d="M240.279,664.093C239.299,667.401,248.444,670.490,252.538,671.646C261.558,674.548,276.799,673.168,285.742,668.832C288.681,667.688,298.089,664.851,298.121,665.101C298.643,669.144,287.447,669.686,283.738,670.131C280.335,670.883,256.904,673.132,256.005,673.307C245.032,672.989,241.820,658.898,240.279,664.093Z"/>
<path class="path-5" d="M261.076,667.873C277.471,672.514,287.325,663.356,295.403,662.684"/>
<path class="path-5" d="M295.403,662.684C296.155,662.629,298.555,660.864,299.173,662.940"/>
<path class="path-5" d="M299.173,662.940C301.313,670.136,269.622,675.815,255.289,671.216"/>
<path class="path-5" d="M255.289,671.216C248.257,669.664,238.616,665.067,240.618,664.353"/>
<path class="path-5" d="M240.618,664.353C246.016,662.426,256.939,666.702,261.076,667.873"/>
<path class="path-6" d="M261.076,667.873C277.471,672.514,287.325,663.356,295.403,662.684C296.155,662.629,298.555,660.864,299.173,662.940C301.313,670.136,269.622,675.815,255.289,671.216C248.257,669.664,238.616,665.067,240.618,664.353C246.016,662.426,256.939,666.702,261.076,667.873Z"/>
</g>
</g>
<g id="layer_right_leg">
<g id="right_heel">
<path class="path-0" d="M183.480,618.970C184.324,602.622,185.480,589.929,205.429,587.044C214.325,585.595,231.272,588.418,236.165,597.022C238.737,601.294,237.942,607.564,238.185,612.128C238.647,619.563,243.180,633.909,232.703,635.644C232.030,635.823,213.491,636.137,207.705,636.286C200.280,637.169,192.555,637.724,187.185,632.581C184.444,629.377,183.207,622.792,183.480,618.970M245.687,595.312C241.769,584.911,227.480,579.023,217.414,580.489C204.301,582.237,190.878,577.908,182.338,590.181C175.700,599.720,174.935,617.251,176.922,628.378C177.671,633.525,180.915,642.915,185.190,645.766C188.325,647.760,193.170,647.186,196.876,647.190C214.947,647.500,247.218,653.630,246.841,626.667C246.670,619.723,247.734,600.807,245.687,595.312Z"/>
<path class="path-3" d="M205.429,587.044C214.325,585.595,231.272,588.418,236.165,597.022"/>
<path class="path-3" d="M236.165,597.022C238.737,601.294,237.942,607.564,238.185,612.128"/>
<path class="path-3" d="M238.185,612.128C238.647,619.563,243.180,633.909,232.703,635.644"/>
<path class="path-3" d="M232.703,635.644C232.030,635.823,213.491,636.137,207.705,636.286"/>
<path class="path-3" d="M207.705,636.286C200.280,637.169,192.555,637.724,187.185,632.581"/>
<path class="path-3" d="M187.185,632.581C184.444,629.377,183.207,622.792,183.480,618.970"/>
<path class="path-3" d="M183.480,618.970C184.324,602.622,185.480,589.929,205.429,587.044"/>
<path class="path-4" d="M205.429,587.044C214.325,585.595,231.272,588.418,236.165,597.022C238.737,601.294,237.942,607.564,238.185,612.128C238.647,619.563,243.180,633.909,232.703,635.644C232.030,635.823,213.491,636.137,207.705,636.286C200.280,637.169,192.555,637.724,187.185,632.581C184.444,629.377,183.207,622.792,183.480,618.970C184.324,602.622,185.480,589.929,205.429,587.044Z"/>
</g>
<g id="right_leg">
<path class="path-0" d="M182.932,404.810C186.579,392.939,202.274,390.130,212.784,393.055C218.617,394.550,228.358,397.416,231.565,402.912C232.988,405.351,233.553,409.893,232.095,412.312C229.607,416.439,214.185,413.860,217.020,417.856C221.917,424.982,231.872,415.472,236.164,419.313C238.096,421.042,238.261,424.621,238.643,427.593C242.610,449.499,235.626,472.823,235.323,494.418C235.156,501.387,233.363,511.652,234.522,518.008C236.865,533.819,235.021,537.125,235.347,546.607C235.248,550.130,233.348,567.976,234.468,572.570C235.728,577.331,239.001,581.940,239.434,586.871C240.167,595.226,228.071,606.287,220.554,608.544C212.060,610.911,185.904,609.130,177.977,604.755C174.818,603.130,171.002,599.178,169.753,595.582C168.411,592.297,166.747,576.915,167.788,573.206C169.869,566.735,172.359,565.417,174.491,557.749C176.676,548.722,178.976,538.967,178.552,529.472C177.337,510.514,178.342,480.516,180.592,467.041C181.682,459.360,180.126,433.485,181.224,426.375C183.120,414.798,181.098,412.550,182.932,404.810M208.062,381.294C202.406,379.297,198.067,373.933,192.092,375.969C190.277,376.761,187.106,379.025,185.818,380.334C169.845,394.098,171.057,407.924,171.015,427.501C170.707,434.520,170.723,441.817,170.074,448.537C169.422,454.115,167.651,458.699,166.327,463.812C165.521,468.030,164.825,472.544,164.586,477.849C164.477,483.185,165.863,489.453,165.939,498.515C165.307,508.476,165.963,517.887,165.462,527.414C165.339,533.774,162.212,548.485,161.295,553.316C158.993,560.197,155.638,568.125,154.013,574.786C152.393,583.591,153.928,592.912,157.349,600.680C158.950,604.906,161.847,609.942,165.009,612.779C167.076,614.632,169.842,615.757,172.330,616.650C180.311,619.468,187.920,620.797,196.456,621.108C202.261,621.363,207.996,619.821,214.020,620.300C215.040,620.225,223.335,621.940,224.981,622.057C227.901,622.096,232.018,619.534,234.678,617.965C238.166,615.644,244.262,614.881,247.111,611.654C249.495,608.949,250.390,605.213,251.652,601.833C258.759,581.967,252.605,570.815,250.137,552.551C248.770,542.438,246.499,521.622,246.718,510.322C246.703,496.619,249.540,483.393,250.402,469.292C250.766,464.815,251.168,459.444,251.937,454.381C252.611,449.353,251.519,445.282,251.309,440.289C250.917,436.425,251.229,424.035,250.646,419.885C250.273,416.185,250.314,411.567,248.983,407.908C245.324,398.592,231.351,388.280,222.034,385.285C217.377,383.621,212.387,383.290,208.062,381.294Z"/>
<path class="path-7" d="M212.784,393.055C218.617,394.550,228.358,397.416,231.565,402.912"/>
<path class="path-7" d="M231.565,402.912C232.988,405.351,233.553,409.893,232.095,412.312"/>
<path class="path-7" d="M232.095,412.312C229.607,416.439,214.185,413.860,217.020,417.856"/>
<path class="path-7" d="M217.020,417.856C221.917,424.982,231.872,415.472,236.164,419.313"/>
<path class="path-7" d="M236.164,419.313C238.096,421.042,238.261,424.621,238.643,427.593"/>
<path class="path-7" d="M238.643,427.593C242.610,449.499,235.626,472.823,235.323,494.418"/>
<path class="path-7" d="M235.323,494.418C235.156,501.387,233.363,511.652,234.522,518.008"/>
<path class="path-7" d="M234.522,518.008C236.865,533.819,235.021,537.125,235.347,546.607"/>
<path class="path-7" d="M235.347,546.607C235.248,550.130,233.348,567.976,234.468,572.570"/>
<path class="path-7" d="M234.468,572.570C235.728,577.331,239.001,581.940,239.434,586.871"/>
<path class="path-7" d="M239.434,586.871C240.167,595.226,228.071,606.287,220.554,608.544"/>
<path class="path-7" d="M220.554,608.544C212.060,610.911,185.904,609.130,177.977,604.755"/>
<path class="path-7" d="M177.977,604.755C174.818,603.130,171.002,599.178,169.753,595.582"/>
<path class="path-7" d="M169.753,595.582C168.411,592.297,166.747,576.915,167.788,573.206"/>
<path class="path-7" d="M167.788,573.206C169.869,566.735,172.359,565.417,174.491,557.749"/>
<path class="path-7" d="M174.491,557.749C176.676,548.722,178.976,538.967,178.552,529.472"/>
<path class="path-7" d="M178.552,529.472C177.337,510.514,178.342,480.516,180.592,467.041"/>
<path class="path-7" d="M180.592,467.041C181.682,459.360,180.126,433.485,181.224,426.375"/>
<path class="path-7" d="M181.224,426.375C183.120,414.798,181.098,412.550,182.932,404.810"/>
<path class="path-7" d="M182.932,404.810C186.579,392.939,202.274,390.130,212.784,393.055"/>
<path class="path-8" d="M212.784,393.055C218.617,394.550,228.358,397.416,231.565,402.912C232.988,405.351,233.553,409.893,232.095,412.312C229.607,416.439,214.185,413.860,217.020,417.856C221.917,424.982,231.872,415.472,236.164,419.313C238.096,421.042,238.261,424.621,238.643,427.593C242.610,449.499,235.626,472.823,235.323,494.418C235.156,501.387,233.363,511.652,234.522,518.008C236.865,533.819,235.021,537.125,235.347,546.607C235.248,550.130,233.348,567.976,234.468,572.570C235.728,577.331,239.001,581.940,239.434,586.871C240.167,595.226,228.071,606.287,220.554,608.544C212.060,610.911,185.904,609.130,177.977,604.755C174.818,603.130,171.002,599.178,169.753,595.582C168.411,592.297,166.747,576.915,167.788,573.206C169.869,566.735,172.359,565.417,174.491,557.749C176.676,548.722,178.976,538.967,178.552,529.472C177.337,510.514,178.342,480.516,180.592,467.041C181.682,459.360,180.126,433.485,181.224,426.375C183.120,414.798,181.098,412.550,182.932,404.810C186.579,392.939,202.274,390.130,212.784,393.055Z"/>
</g>
<g id="right_toe">
<path class="path-0" d="M166.821,642.784C168.201,629.493,173.511,612.398,189.696,610.101C193.433,609.372,198.693,611.145,202.841,611.992C224.018,616.261,232.276,621.002,232.944,642.784C233.006,648.752,233.894,656.158,229.431,660.943C224.975,665.635,203.972,663.005,197.557,663.276C186.224,664.002,176.458,669.385,168.635,659.493C163.982,653.482,166.096,649.856,166.821,642.784M241.451,620.022C234.461,606.025,201.949,597.650,187.293,600.322C165.425,604.434,158.303,621.588,156.860,640.150C156.296,646.774,155.438,654.055,158.731,659.922C159.907,662.017,162.401,664.818,164.130,666.496C177.169,680.246,186.726,678.556,204.396,678.423C213.739,678.509,229.273,677.674,236.787,671.430C242.413,666.295,242.996,660.699,243.266,653.527C243.279,646.621,244.264,625.138,241.451,620.022Z"/>
<path class="path-3" d="M189.696,610.101C193.433,609.372,198.693,611.145,202.841,611.992"/>
<path class="path-3" d="M202.841,611.992C224.018,616.261,232.276,621.002,232.944,642.784"/>
<path class="path-3" d="M232.944,642.784C233.006,648.752,233.894,656.158,229.431,660.943"/>
<path class="path-3" d="M229.431,660.943C224.975,665.635,203.972,663.005,197.557,663.276"/>
<path class="path-3" d="M197.557,663.276C186.224,664.002,176.458,669.385,168.635,659.493"/>
<path class="path-3" d="M168.635,659.493C163.982,653.482,166.096,649.856,166.821,642.784"/>
<path class="path-3" d="M166.821,642.784C168.201,629.493,173.511,612.398,189.696,610.101"/>
<path class="path-4" d="M189.696,610.101C193.433,609.372,198.693,611.145,202.841,611.992C224.018,616.261,232.276,621.002,232.944,642.784C233.006,648.752,233.894,656.158,229.431,660.943C224.975,665.635,203.972,663.005,197.557,663.276C186.224,664.002,176.458,669.385,168.635,659.493C163.982,653.482,166.096,649.856,166.821,642.784C168.201,629.493,173.511,612.398,189.696,610.101Z"/>
</g>
<g id="right_sole">
<path class="path-0" d="M185.153,675.219C186.680,675.536,202.047,675.400,203.785,675.395C205.184,675.413,213.643,675.435,214.836,675.352C215.578,675.317,223.031,674.990,223.601,675.452C223.085,674.983,215.081,676.460,214.610,676.475C213.683,676.536,187.468,676.381,187.160,676.490C185.963,676.521,174.764,675.559,174.028,674.593C175.226,674.071,183.396,674.852,185.153,675.219M224.570,669.095C224.619,669.372,223.020,671.045,222.603,671.046C221.766,671.053,208.599,672.509,207.493,672.280C206.243,672.245,197.541,673.051,196.414,673.040C194.154,673.018,176.179,671.998,174.254,670.838C174.071,670.679,173.460,669.710,173.490,669.576C173.554,669.295,180.570,669.850,181.662,669.826C183.376,669.789,197.205,669.001,198.962,668.957C200.863,668.910,215.753,669.130,217.700,668.967C218.004,668.949,224.439,668.411,224.570,669.095M230.281,664.116C219.058,660.955,210.194,665.425,200.013,665.749C192.610,666.017,178.404,664.430,169.383,666.180C167.948,666.459,165.207,666.250,164.765,667.730C164.208,669.606,167.811,673.654,170.103,675.167C172.944,677.041,178.869,677.081,181.219,677.441C193.130,679.707,208.290,678.554,220.538,678.048C229.579,677.680,231.847,674.072,232.770,669.731C233.153,667.929,233.787,665.054,230.281,664.116Z"/>
<path class="path-24" d="M185.153,675.219C186.680,675.536,202.047,675.400,203.785,675.395"/>
<path class="path-24" d="M203.785,675.395C205.184,675.413,213.643,675.435,214.836,675.352"/>
<path class="path-24" d="M214.836,675.352C215.578,675.317,223.031,674.990,223.601,675.452"/>
<path class="path-24" d="M223.601,675.452C223.085,674.983,215.081,676.460,214.610,676.475"/>
<path class="path-24" d="M214.610,676.475C213.683,676.536,187.468,676.381,187.160,676.490"/>
<path class="path-24" d="M187.160,676.490C185.963,676.521,174.764,675.559,174.028,674.593"/>
<path class="path-24" d="M174.028,674.593C175.226,674.071,183.396,674.852,185.153,675.219"/>
<path class="path-0" d="M185.153,675.219C186.680,675.536,202.047,675.400,203.785,675.395C205.184,675.413,213.643,675.435,214.836,675.352C215.578,675.317,223.031,674.990,223.601,675.452C223.085,674.983,215.081,676.460,214.610,676.475C213.683,676.536,187.468,676.381,187.160,676.490C185.963,676.521,174.764,675.559,174.028,674.593C175.226,674.071,183.396,674.852,185.153,675.219Z"/>
<path class="path-5" d="M181.662,669.826C183.376,669.789,197.205,669.001,198.962,668.957"/>
<path class="path-5" d="M198.962,668.957C200.863,668.910,215.753,669.130,217.700,668.967"/>
<path class="path-5" d="M217.700,668.967C218.004,668.949,224.439,668.411,224.570,669.095"/>
<path class="path-5" d="M224.570,669.095C224.619,669.372,223.020,671.045,222.603,671.046"/>
<path class="path-5" d="M222.603,671.046C221.766,671.053,208.599,672.509,207.493,672.280"/>
<path class="path-5" d="M207.493,672.280C206.243,672.245,197.541,673.051,196.414,673.040"/>
<path class="path-5" d="M196.414,673.040C194.154,673.018,176.179,671.998,174.254,670.838"/>
<path class="path-5" d="M174.254,670.838C174.071,670.679,173.460,669.710,173.490,669.576"/>
<path class="path-5" d="M173.490,669.576C173.554,669.295,180.570,669.850,181.662,669.826"/>
<path class="path-6" d="M181.662,669.826C183.376,669.789,197.205,669.001,198.962,668.957C200.863,668.910,215.753,669.130,217.700,668.967C218.004,668.949,224.439,668.411,224.570,669.095C224.619,669.372,223.020,671.045,222.603,671.046C221.766,671.053,208.599,672.509,207.493,672.280C206.243,672.245,197.541,673.051,196.414,673.040C194.154,673.018,176.179,671.998,174.254,670.838C174.071,670.679,173.460,669.710,173.490,669.576C173.554,669.295,180.570,669.850,181.662,669.826Z"/>
</g>
</g>
<g id="hat_brim">
<path class="path-0" d="M284.019,143.463C287.678,137.475,296.661,121.172,304.646,121.172C309.970,121.172,320.949,130.821,326.604,133.816C331.594,136.810,336.918,139.471,342.573,142.132C345.786,143.802,349.002,145.465,352.221,147.122C366.528,154.443,362.535,160.765,354.217,159.433C335.587,156.105,332.592,157.437,314.627,148.120C312.297,147.122,306.309,143.797,305.311,148.120C303.981,153.111,312.964,157.437,316.623,159.100C323.276,162.760,330.596,166.753,338.581,167.418C340.910,167.751,348.895,167.084,350.225,169.413C352.221,172.741,342.573,181.391,340.577,183.387C337.250,186.381,333.924,189.375,330.596,191.705C325.606,195.030,320.282,198.025,314.627,199.023C303.981,200.354,270.711,185.050,269.713,173.406C269.048,166.753,280.027,149.785,284.019,143.463M316.623,116.848C311.633,112.522,307.973,106.200,300.653,109.528C295.330,111.858,289.675,119.509,286.016,123.502C272.374,140.136,260.066,159.766,260.730,181.391C261.064,195.030,265.721,194.699,276.699,200.021C293.334,208.339,314.627,211.000,332.593,202.684C344.236,197.360,364.532,179.395,369.855,167.418C371.518,163.425,374.512,154.442,372.182,149.785C369.521,144.128,347.230,134.481,340.577,130.822C332.592,126.496,323.610,122.503,316.623,116.848Z"/>
<path class="path-9" d="M304.646,121.172C309.970,121.172,320.949,130.821,326.604,133.816"/>
<path class="path-9" d="M326.604,133.816C331.594,136.810,336.918,139.471,342.573,142.132"/>
<path class="path-9" d="M342.573,142.132C345.786,143.802,349.002,145.465,352.221,147.122"/>
<path class="path-9" d="M352.221,147.122C366.528,154.443,362.535,160.765,354.217,159.433"/>
<path class="path-9" d="M354.217,159.433C335.587,156.105,332.592,157.437,314.627,148.120"/>
<path class="path-9" d="M314.627,148.120C312.297,147.122,306.309,143.797,305.311,148.120"/>
<path class="path-9" d="M305.311,148.120C303.981,153.111,312.964,157.437,316.623,159.100"/>
<path class="path-9" d="M316.623,159.100C323.276,162.760,330.596,166.753,338.581,167.418"/>
<path class="path-9" d="M338.581,167.418C340.910,167.751,348.895,167.084,350.225,169.413"/>
<path class="path-9" d="M350.225,169.413C352.221,172.741,342.573,181.391,340.577,183.387"/>
<path class="path-9" d="M340.577,183.387C337.250,186.381,333.924,189.375,330.596,191.705"/>
<path class="path-9" d="M330.596,191.705C325.606,195.030,320.282,198.025,314.627,199.023"/>
<path class="path-9" d="M314.627,199.023C303.981,200.354,270.711,185.050,269.713,173.406"/>
<path class="path-9" d="M269.713,173.406C269.048,166.753,280.027,149.785,284.019,143.463"/>
<path class="path-9" d="M284.019,143.463C287.678,137.475,296.661,121.172,304.646,121.172"/>
<path class="path-10" d="M304.646,121.172C309.970,121.172,320.949,130.821,326.604,133.816C331.594,136.810,336.918,139.471,342.573,142.132C345.786,143.802,349.002,145.465,352.221,147.122C366.528,154.443,362.535,160.765,354.217,159.433C335.587,156.105,332.592,157.437,314.627,148.120C312.297,147.122,306.309,143.797,305.311,148.120C303.981,153.111,312.964,157.437,316.623,159.100C323.276,162.760,330.596,166.753,338.581,167.418C340.910,167.751,348.895,167.084,350.225,169.413C352.221,172.741,342.573,181.391,340.577,183.387C337.250,186.381,333.924,189.375,330.596,191.705C325.606,195.030,320.282,198.025,314.627,199.023C303.981,200.354,270.711,185.050,269.713,173.406C269.048,166.753,280.027,149.785,284.019,143.463C287.678,137.475,296.661,121.172,304.646,121.172Z"/>
</g>
<g id="hair">
<path class="path-0" d="M183.357,136.483C200.954,124.749,220.906,123.806,241.996,123.120C251.452,122.794,257.886,129.270,265.069,135.626C270.964,141.195,277.299,147.468,283.560,153.313C292.986,162.051,296.930,166.431,300.440,170.614C303.444,173.825,308.105,179.813,311.862,182.674C316.396,186.124,325.422,203.315,327.445,205.266C320.793,207.453,310.356,209.024,305.541,212.830C307.149,218.669,307.424,227.700,307.413,230.409C301.202,230.790,294.008,227.926,282.567,225.752C280.180,232.918,280.142,239.647,275.384,246.902C267.697,244.496,262.345,242.563,252.411,238.043C245.798,243.193,244.261,242.773,233.517,249.212C226.455,244.820,220.838,240.151,213.943,237.253C207.148,240.091,196.403,241.027,192.739,243.925C188.987,236.858,185.547,229.060,182.318,225.662C172.710,227.554,168.576,230.148,161.781,232.559C157.606,227.012,160.654,222.489,156.037,214.349C151.717,213.146,145.049,210.476,139.490,210.322C143.367,205.864,146.319,191.142,152.833,189.327C160.871,187.088,155.875,177.911,160.872,169.755C162.110,167.631,174.016,151.399,175.093,148.739C177.132,144.153,179.361,139.287,183.357,136.483M269.783,123.041C257.623,113.516,232.973,108.192,219.067,111.311C206.306,114.023,193.787,117.926,182.663,125.006C176.433,128.911,169.531,134.686,165.362,140.754C157.036,152.537,144.935,178.372,138.142,190.325C132.704,200.241,127.646,206.923,122.452,212.283C140.007,218.879,145.124,221.586,150.363,222.441C150.613,230.199,157.711,236.027,156.388,244.572C165.209,243.354,170.475,241.177,178.326,239.302C182.258,243.995,184.942,250.348,188.681,256.586C196.418,254.568,204.305,254.940,212.000,249.563C217.496,252.632,226.229,257.403,235.200,262.448C243.544,258.115,245.325,257.880,253.165,252.908C262.619,255.342,272.515,261.315,282.074,260.399C281.484,252.206,287.600,246.647,286.947,241.388C294.168,239.536,316.196,242.966,319.967,242.683C319.803,236.635,316.595,225.026,318.237,217.838C325.064,216.098,330.837,214.510,341.526,209.520C338.121,202.790,331.974,194.414,326.560,189.403C321.990,185.214,318.291,179.689,313.719,175.326C298.212,160.768,292.275,140.745,269.783,123.041Z"/>
<path class="path-11" d="M241.996,123.120C251.452,122.794,257.886,129.270,265.069,135.626"/>
<path class="path-11" d="M265.069,135.626C270.964,141.195,277.299,147.468,283.560,153.313"/>
<path class="path-11" d="M283.560,153.313C292.986,162.051,296.930,166.431,300.440,170.614"/>
<path class="path-11" d="M300.440,170.614C303.444,173.825,308.105,179.813,311.862,182.674"/>
<path class="path-11" d="M311.862,182.674C316.396,186.124,325.422,203.315,327.445,205.266"/>
<path class="path-11" d="M327.445,205.266C320.793,207.453,310.356,209.024,305.541,212.830"/>
<path class="path-11" d="M305.541,212.830C307.149,218.669,307.424,227.700,307.413,230.409"/>
<path class="path-11" d="M307.413,230.409C301.202,230.790,294.008,227.926,282.567,225.752"/>
<path class="path-11" d="M282.567,225.752C280.180,232.918,280.142,239.647,275.384,246.902"/>
<path class="path-11" d="M275.384,246.902C267.697,244.496,262.345,242.563,252.411,238.043"/>
<path class="path-11" d="M252.411,238.043C245.798,243.193,244.261,242.773,233.517,249.212"/>
<path class="path-11" d="M233.517,249.212C226.455,244.820,220.838,240.151,213.943,237.253"/>
<path class="path-11" d="M213.943,237.253C207.148,240.091,196.403,241.027,192.739,243.925"/>
<path class="path-11" d="M192.739,243.925C188.987,236.858,185.547,229.060,182.318,225.662"/>
<path class="path-11" d="M182.318,225.662C172.710,227.554,168.576,230.148,161.781,232.559"/>
<path class="path-11" d="M161.781,232.559C157.606,227.012,160.654,222.489,156.037,214.349"/>
<path class="path-11" d="M156.037,214.349C151.717,213.146,145.049,210.476,139.490,210.322"/>
<path class="path-11" d="M139.490,210.322C143.367,205.864,146.319,191.142,152.833,189.327"/>
<path class="path-11" d="M152.833,189.327C160.871,187.088,155.875,177.911,160.872,169.755"/>
<path class="path-11" d="M160.872,169.755C162.110,167.631,174.016,151.399,175.093,148.739"/>
<path class="path-11" d="M175.093,148.739C177.132,144.153,179.361,139.287,183.357,136.483"/>
<path class="path-11" d="M183.357,136.483C200.954,124.749,220.906,123.806,241.996,123.120"/>
<path class="path-12" d="M241.996,123.120C251.452,122.794,257.886,129.270,265.069,135.626C270.964,141.195,277.299,147.468,283.560,153.313C292.986,162.051,296.930,166.431,300.440,170.614C303.444,173.825,308.105,179.813,311.862,182.674C316.396,186.124,325.422,203.315,327.445,205.266C320.793,207.453,310.356,209.024,305.541,212.830C307.149,218.669,307.424,227.700,307.413,230.409C301.202,230.790,294.008,227.926,282.567,225.752C280.180,232.918,280.142,239.647,275.384,246.902C267.697,244.496,262.345,242.563,252.411,238.043C245.798,243.193,244.261,242.773,233.517,249.212C226.455,244.820,220.838,240.151,213.943,237.253C207.148,240.091,196.403,241.027,192.739,243.925C188.987,236.858,185.547,229.060,182.318,225.662C172.710,227.554,168.576,230.148,161.781,232.559C157.606,227.012,160.654,222.489,156.037,214.349C151.717,213.146,145.049,210.476,139.490,210.322C143.367,205.864,146.319,191.142,152.833,189.327C160.871,187.088,155.875,177.911,160.872,169.755C162.110,167.631,174.016,151.399,175.093,148.739C177.132,144.153,179.361,139.287,183.357,136.483C200.954,124.749,220.906,123.806,241.996,123.120Z"/>
</g>
<g id="clothes">
<path class="path-0" d="M243.991,368.322C239.118,366.508,220.377,362.868,217.370,367.347C215.062,371.017,219.243,372.280,223.009,372.517C226.704,372.749,246.140,376.606,248.649,374.975C253.082,372.019,246.242,369.050,243.991,368.322M191.093,266.179C194.088,253.538,221.036,240.563,234.012,241.561C242.994,242.226,271.274,256.199,275.266,264.517C278.592,271.170,279.590,295.789,279.924,304.107C280.257,319.412,281.222,334.746,282.253,350.019C283.711,362.609,288.487,374.783,288.864,387.451C288.366,392.327,285.614,404.278,280.699,406.496C273.996,409.913,258.749,402.208,252.314,399.640C227.752,390.603,229.291,392.386,204.753,391.799C201.042,391.569,188.912,393.100,186.430,391.589C181.461,387.715,183.628,380.590,184.769,374.631C187.700,362.105,190.038,353.611,191.427,340.038C192.959,324.018,194.088,306.768,194.088,290.134C193.755,284.145,190.429,269.839,191.093,266.179M269.943,247.549C253.640,237.899,237.670,229.915,218.042,235.573C212.718,236.902,186.103,249.877,183.773,253.205C180.115,258.528,183.773,278.821,183.773,286.141C184.107,294.791,184.440,303.773,183.773,312.092C183.442,318.413,182.111,324.069,182.111,330.057C181.777,336.710,182.152,343.957,180.780,350.019C177.532,363.912,164.839,391.130,181.100,401.232C186.247,404.455,193.990,403.226,200.381,403.751C210.792,404.406,221.839,405.739,232.341,407.099C242.564,408.712,252.331,412.436,262.717,413.798C270.355,414.802,294.642,421.478,300.110,415.450C303.468,411.911,301.207,390.237,300.318,384.796C297.428,371.213,293.280,357.812,291.567,344.031C290.420,332.104,289.239,320.410,289.904,308.100C290.237,298.119,291.900,288.471,291.900,278.157C291.567,273.831,292.234,268.510,289.904,264.184C285.912,256.199,277.263,251.873,269.943,247.549Z"/>
<path class="path-13" d="M243.991,368.322C239.118,366.508,220.377,362.868,217.370,367.347"/>
<path class="path-13" d="M217.370,367.347C215.062,371.017,219.243,372.280,223.009,372.517"/>
<path class="path-13" d="M223.009,372.517C226.704,372.749,246.140,376.606,248.649,374.975"/>
<path class="path-13" d="M248.649,374.975C253.082,372.019,246.242,369.050,243.991,368.322"/>
<path class="path-13" d="M191.093,266.179C194.088,253.538,221.036,240.563,234.012,241.561"/>
<path class="path-13" d="M234.012,241.561C242.994,242.226,271.274,256.199,275.266,264.517"/>
<path class="path-13" d="M275.266,264.517C278.592,271.170,279.590,295.789,279.924,304.107"/>
<path class="path-13" d="M279.924,304.107C280.257,319.412,281.222,334.746,282.253,350.019"/>
<path class="path-13" d="M282.253,350.019C283.711,362.609,288.487,374.783,288.864,387.451"/>
<path class="path-13" d="M288.864,387.451C288.366,392.327,285.614,404.278,280.699,406.496"/>
<path class="path-13" d="M280.699,406.496C273.996,409.913,258.749,402.208,252.314,399.640"/>
<path class="path-13" d="M252.314,399.640C227.752,390.603,229.291,392.386,204.753,391.799"/>
<path class="path-13" d="M204.753,391.799C201.042,391.569,188.912,393.100,186.430,391.589"/>
<path class="path-13" d="M186.430,391.589C181.461,387.715,183.628,380.590,184.769,374.631"/>
<path class="path-13" d="M184.769,374.631C187.700,362.105,190.038,353.611,191.427,340.038"/>
<path class="path-13" d="M191.427,340.038C192.959,324.018,194.088,306.768,194.088,290.134"/>
<path class="path-13" d="M194.088,290.134C193.755,284.145,190.429,269.839,191.093,266.179"/>
<path class="path-14" d="M243.991,368.322C239.118,366.508,220.377,362.868,217.370,367.347C215.062,371.017,219.243,372.280,223.009,372.517C226.704,372.749,246.140,376.606,248.649,374.975C253.082,372.019,246.242,369.050,243.991,368.322M191.093,266.179C194.088,253.538,221.036,240.563,234.012,241.561C242.994,242.226,271.274,256.199,275.266,264.517C278.592,271.170,279.590,295.789,279.924,304.107C280.257,319.412,281.222,334.746,282.253,350.019C283.711,362.609,288.487,374.783,288.864,387.451C288.366,392.327,285.614,404.278,280.699,406.496C273.996,409.913,258.749,402.208,252.314,399.640C227.752,390.603,229.291,392.386,204.753,391.799C201.042,391.569,188.912,393.100,186.430,391.589C181.461,387.715,183.628,380.590,184.769,374.631C187.700,362.105,190.038,353.611,191.427,340.038C192.959,324.018,194.088,306.768,194.088,290.134C193.755,284.145,190.429,269.839,191.093,266.179Z"/>
</g>
<g id="neck">
<path class="path-0" d="M229.021,222.597C229.354,219.269,230.353,216.275,234.012,215.942C245.656,213.946,244.657,251.542,234.012,251.542C224.031,251.542,228.356,228.917,229.021,222.597M234.012,206.628C231.351,206.295,228.357,206.959,226.027,208.291C216.711,212.948,218.042,221.599,218.042,230.248C217.708,234.574,218.042,238.567,216.046,242.226C214.383,245.553,209.724,248.879,209.724,252.540C210.057,262.521,237.006,262.521,243.993,262.188C246.653,262.187,255.636,263.185,256.634,259.526C256.634,258.528,249.981,246.883,248.983,242.226C245.989,228.252,255.305,207.626,234.012,206.628Z"/>
<path class="path-15" d="M234.012,215.942C245.656,213.946,244.657,251.542,234.012,251.542"/>
<path class="path-15" d="M234.012,251.542C224.031,251.542,228.356,228.917,229.021,222.597"/>
<path class="path-15" d="M229.021,222.597C229.354,219.269,230.353,216.275,234.012,215.942"/>
<path class="path-16" d="M234.012,215.942C245.656,213.946,244.657,251.542,234.012,251.542C224.031,251.542,228.356,228.917,229.021,222.597C229.354,219.269,230.353,216.275,234.012,215.942Z"/>
</g>
<g id="layer_head">
<g id="right_ear">
<path class="path-0" d="M155.026,189.133C150.671,189.193,138.879,162.999,144.011,164.039C149.910,165.228,152.731,175.873,154.333,180.169C155.218,182.264,158.969,189.087,155.026,189.133M145.728,149.974C144.027,148.808,141.999,147.410,140.118,148.259C130.992,150.734,134.659,164.775,137.482,173.851C140.972,184.661,148.584,198.349,158.101,202.920C159.552,203.626,162.194,206.026,163.860,205.664C169.820,203.978,164.244,194.206,162.614,189.628C160.221,182.412,150.957,155.053,145.728,149.974Z"/>
<path class="path-15" d="M144.011,164.039C149.910,165.228,152.731,175.873,154.333,180.169"/>
<path class="path-15" d="M154.333,180.169C155.218,182.264,158.969,189.087,155.026,189.133"/>
<path class="path-15" d="M155.026,189.133C150.671,189.193,138.879,162.999,144.011,164.039"/>
<path class="path-16" d="M144.011,164.039C149.910,165.228,152.731,175.873,154.333,180.169C155.218,182.264,158.969,189.087,155.026,189.133C150.671,189.193,138.879,162.999,144.011,164.039Z"/>
</g>
<g id="face_Mask">
<g id="face">
<path class="path-0" d="M148.767,105.915C157.254,95.466,190.023,88.281,203.662,86.285C218.967,84.289,234.603,86.618,249.574,91.275C254.898,92.940,262.847,94.586,267.207,98.595C273.984,104.875,276.579,116.193,277.716,124.997C278.541,130.301,279.159,137.178,278.096,142.138C271.295,173.887,264.550,189.234,257.859,198.029C246.385,213.109,225.888,219.107,207.367,222.265C189.005,225.127,179.947,222.480,162.974,215.601C159.734,214.293,152.646,211.454,150.484,208.902C143.308,200.109,147.112,188.267,144.889,177.626C142.834,169.114,136.661,157.125,135.073,148.693C133.170,137.625,141.783,114.436,148.767,105.915M271.224,90.919C257.750,78.542,221.339,75.888,203.705,78.532C195.386,79.522,187.400,80.180,179.747,82.171C174.087,83.833,169.092,86.492,163.764,88.155C152.118,92.479,147.306,91.040,139.476,101.805C133.853,109.340,125.319,139.008,126.038,148.224C126.758,155.752,134.822,172.619,135.817,181.367C136.839,190.834,132.443,204.445,136.783,212.541C140.687,219.576,148.209,222.835,158.676,227.016C167.340,230.476,176.975,233.666,186.571,234.137C191.513,234.386,197.386,235.275,207.832,232.767C227.490,227.785,247.927,220.815,261.953,204.328C274.727,189.314,292.181,169.201,294.025,138.830C295.224,119.079,278.433,97.398,271.224,90.919Z"/>
<path class="path-15" d="M203.662,86.285C218.967,84.289,234.603,86.618,249.574,91.275"/>
<path class="path-15" d="M249.574,91.275C254.898,92.940,262.847,94.586,267.207,98.595"/>
<path class="path-15" d="M267.207,98.595C273.984,104.875,276.579,116.193,277.716,124.997"/>
<path class="path-15" d="M277.716,124.997C278.541,130.301,279.159,137.178,278.096,142.138"/>
<path class="path-15" d="M278.096,142.138C271.295,173.887,264.550,189.234,257.859,198.029"/>
<path class="path-15" d="M257.859,198.029C246.385,213.109,225.888,219.107,207.367,222.265"/>
<path class="path-15" d="M207.367,222.265C189.005,225.127,179.947,222.480,162.974,215.601"/>
<path class="path-15" d="M162.974,215.601C159.734,214.293,152.646,211.454,150.484,208.902"/>
<path class="path-15" d="M150.484,208.902C143.308,200.109,147.112,188.267,144.889,177.626"/>
<path class="path-15" d="M144.889,177.626C142.834,169.114,136.661,157.125,135.073,148.693"/>
<path class="path-15" d="M135.073,148.693C133.170,137.625,141.783,114.436,148.767,105.915"/>
<path class="path-15" d="M148.767,105.915C157.254,95.466,190.023,88.281,203.662,86.285"/>
<path class="path-16" d="M203.662,86.285C218.967,84.289,234.603,86.618,249.574,91.275C254.898,92.940,262.847,94.586,267.207,98.595C273.984,104.875,276.579,116.193,277.716,124.997C278.541,130.301,279.159,137.178,278.096,142.138C271.295,173.887,264.550,189.234,257.859,198.029C246.385,213.109,225.888,219.107,207.367,222.265C189.005,225.127,179.947,222.480,162.974,215.601C159.734,214.293,152.646,211.454,150.484,208.902C143.308,200.109,147.112,188.267,144.889,177.626C142.834,169.114,136.661,157.125,135.073,148.693C133.170,137.625,141.783,114.436,148.767,105.915C157.254,95.466,190.023,88.281,203.662,86.285Z"/>
</g>
</g>
<mask id="mask_target" style="mask-type:alpha;">
<use xlink:href="#face_Mask"/>
</mask>
<g id="mouse">
<path class="path-0" d="M185.794,213.568C190.998,214.671,191.082,219.424,190.608,219.932C190.341,220.218,189.218,219.266,186.258,218.780C180.652,217.858,177.946,219.031,177.749,218.316C177.532,217.533,179.701,212.275,185.794,213.568Z"/>
</g>
<g id="layer_eyes_Mtarget" mask="url(#mask_target)">
<g id="eyes">
<mask style="mask-type:alpha;" id="f3906406-f197-4bf1-91d8-744c09cca836">
<use xlink:href="#cmn_f3906406-f197-4bf1-91d8-744c09cca836"/>
</mask>
<g id="cmn_f3906406-f197-4bf1-91d8-744c09cca836">
<path class="path-0" d="M132.996,177.946C134.112,185.549,138.255,193.652,137.375,193.045C135.102,191.477,134.528,187.347,134.057,183.791C133.631,181.336,135.955,172.402,132.900,172.152C132.178,172.093,132.895,177.257,132.996,177.946M144.469,181.590C144.495,179.913,144.623,177.355,143.537,176.077C142.738,175.138,140.948,174.626,139.697,174.614C136.825,174.523,130.506,164.883,127.502,162.485C126.461,161.655,121.716,156.080,120.513,156.621C110.624,161.067,120.956,170.768,125.270,185.257C127.174,191.649,139.080,201.023,139.667,200.763C142.538,199.489,144.377,187.519,144.469,181.590M174.999,193.574C167.574,193.270,157.934,186.854,158.779,175.306C158.988,172.459,170.575,168.348,175.824,165.732C182.268,162.521,194.529,155.989,197.825,156.148C201.300,156.736,199.536,159.758,199.603,169.387C199.667,178.705,187.662,194.092,174.999,193.574M206.992,175.706C209.944,163.370,209.735,146.892,207.343,145.820C201.910,143.387,187.992,153.363,179.914,157.087C172.357,160.570,160.533,168.414,155.231,169.737C152.794,170.440,150.608,170.739,150.015,172.392C149.104,174.931,152.902,177.990,154.312,180.290C156.937,184.573,158.657,191.108,163.879,194.031C173.733,199.956,180.809,197.252,192.212,193.601C197.026,192.060,205.086,183.668,206.992,175.706Z"/>
<path class="path-17" d="M197.825,156.148C201.300,156.736,199.536,159.758,199.603,169.387"/>
<path class="path-17" d="M199.603,169.387C199.667,178.705,187.662,194.092,174.999,193.574"/>
<path class="path-17" d="M174.999,193.574C167.574,193.270,157.934,186.854,158.779,175.306"/>
<path class="path-17" d="M158.779,175.306C158.988,172.459,170.575,168.348,175.824,165.732"/>
<path class="path-17" d="M175.824,165.732C182.268,162.521,194.529,155.989,197.825,156.148"/>
<path class="path-18" d="M197.825,156.148C201.300,156.736,199.536,159.758,199.603,169.387C199.667,178.705,187.662,194.092,174.999,193.574C167.574,193.270,157.934,186.854,158.779,175.306C158.988,172.459,170.575,168.348,175.824,165.732C182.268,162.521,194.529,155.989,197.825,156.148Z"/>
<path class="path-17" d="M132.900,172.152C132.178,172.093,132.895,177.257,132.996,177.946"/>
<path class="path-17" d="M132.996,177.946C134.112,185.549,138.255,193.652,137.375,193.045"/>
<path class="path-17" d="M137.375,193.045C135.102,191.477,134.528,187.347,134.057,183.791"/>
<path class="path-17" d="M134.057,183.791C133.631,181.336,135.955,172.402,132.900,172.152"/>
<path class="path-18" d="M132.900,172.152C132.178,172.093,132.895,177.257,132.996,177.946C134.112,185.549,138.255,193.652,137.375,193.045C135.102,191.477,134.528,187.347,134.057,183.791C133.631,181.336,135.955,172.402,132.900,172.152Z"/>
</g>
</g>
<g id="pupil">
<path class="path-0" d="M162.974,169.097C165.248,168.526,168.460,171.671,169.316,180.086C169.960,186.416,168.284,189.014,166.532,189.215C164.632,189.433,162.986,186.842,161.703,180.065C160.334,172.832,160.995,169.594,162.974,169.097Z" mask="url(#f3906406-f197-4bf1-91d8-744c09cca836)"/>
<path class="path-0" d="M133.765,172.495C136.183,172.044,139.781,175.626,139.916,184.791C139.995,190.113,138.325,192.002,136.909,192.187C135.320,192.394,133.228,190.617,131.828,184.816C129.876,176.733,131.571,172.904,133.765,172.495Z" mask="url(#f3906406-f197-4bf1-91d8-744c09cca836)"/>
</g>
</g>
<g id="hat">
<path class="path-0" d="M285.524,134.335C287.768,135.185,290.356,137.978,290.911,140.603C292.933,147.341,281.608,148.812,277.997,149.293C272.330,149.476,266.426,148.479,261.049,147.818C253.740,147.586,246.530,146.039,239.234,145.544C216.172,142.165,193.009,139.773,169.879,136.928C159.351,136.051,149.911,134.139,138.402,133.375C137.260,133.299,127.336,134.066,125.331,133.491C110.143,129.282,122.887,115.529,121.745,108.668C121.582,106.829,118.159,106.432,118.718,103.138C119.088,101.146,124.158,96.926,126.057,96.090C134.860,92.159,145.239,91.117,155.337,90.969C166.042,90.814,175.538,92.715,186.133,94.159C212.214,97.713,255.819,105.502,289.692,118.657C299.261,122.372,279.350,120.426,277.497,120.575C260.393,121.918,188.039,105.187,228.085,117.070C243.498,121.656,271.740,128.593,285.524,134.335M174.466,79.657C162.237,78.439,150.996,77.429,139.547,79.677C135.454,80.471,130.123,81.351,126.975,82.429C120.504,84.645,132.517,64.999,135.874,61.407C152.078,44.487,180.059,32.720,204.627,34.384C253.264,37.678,271.393,51.247,284.195,70.317C288.359,76.046,299.841,102.179,289.773,108.182C286.549,109.829,280.841,107.017,278.174,105.519C268.573,100.395,193.175,81.522,174.466,79.657M277.022,41.792C259.907,31.967,236.246,23.525,208.382,24.128C178.253,24.782,145.508,34.065,126.180,60.010C120.287,68.109,117.719,77.042,113.993,85.584C111.747,90.670,107.329,93.882,106.797,99.352C106.258,107.058,110.947,109.114,111.579,115.442C112.502,122.678,107.925,124.749,108.147,129.436C107.544,141.874,119.273,145.234,129.497,146.536C133.870,147.095,150.170,146.556,159.027,146.770C168.993,147.011,182.281,147.469,192.228,148.124C203.868,148.892,219.319,150.771,230.948,151.686C241.804,152.540,256.279,154.012,267.169,154.064C275.364,154.103,293.389,153.492,294.449,152.625C295.981,151.394,301.322,138.591,301.832,136.082C302.721,131.711,300.577,126.865,302.364,119.880C304.720,109.708,307.591,101.097,306.384,89.884C303.987,69.311,290.247,49.386,277.022,41.792Z"/>
<path class="path-19" d="M186.133,94.159C212.214,97.713,255.819,105.502,289.692,118.657"/>
<path class="path-19" d="M289.692,118.657C299.261,122.372,279.350,120.426,277.497,120.575"/>
<path class="path-19" d="M277.497,120.575C260.393,121.918,188.039,105.187,228.085,117.070"/>
<path class="path-19" d="M228.085,117.070C243.498,121.656,271.740,128.593,285.524,134.335"/>
<path class="path-19" d="M285.524,134.335C287.768,135.185,290.356,137.978,290.911,140.603"/>
<path class="path-19" d="M290.911,140.603C292.933,147.341,281.608,148.812,277.997,149.293"/>
<path class="path-19" d="M277.997,149.293C272.330,149.476,266.426,148.479,261.049,147.818"/>
<path class="path-19" d="M261.049,147.818C253.740,147.586,246.530,146.039,239.234,145.544"/>
<path class="path-19" d="M239.234,145.544C216.172,142.165,193.009,139.773,169.879,136.928"/>
<path class="path-19" d="M169.879,136.928C159.351,136.051,149.911,134.139,138.402,133.375"/>
<path class="path-19" d="M138.402,133.375C137.260,133.299,127.336,134.066,125.331,133.491"/>
<path class="path-19" d="M125.331,133.491C110.143,129.282,122.887,115.529,121.745,108.668"/>
<path class="path-19" d="M121.745,108.668C121.582,106.829,118.159,106.432,118.718,103.138"/>
<path class="path-19" d="M118.718,103.138C119.088,101.146,124.158,96.926,126.057,96.090"/>
<path class="path-19" d="M126.057,96.090C134.860,92.159,145.239,91.117,155.337,90.969"/>
<path class="path-19" d="M155.337,90.969C166.042,90.814,175.538,92.715,186.133,94.159"/>
<path class="path-20" d="M186.133,94.159C212.214,97.713,255.819,105.502,289.692,118.657C299.261,122.372,279.350,120.426,277.497,120.575C260.393,121.918,188.039,105.187,228.085,117.070C243.498,121.656,271.740,128.593,285.524,134.335C287.768,135.185,290.356,137.978,290.911,140.603C292.933,147.341,281.608,148.812,277.997,149.293C272.330,149.476,266.426,148.479,261.049,147.818C253.740,147.586,246.530,146.039,239.234,145.544C216.172,142.165,193.009,139.773,169.879,136.928C159.351,136.051,149.911,134.139,138.402,133.375C137.260,133.299,127.336,134.066,125.331,133.491C110.143,129.282,122.887,115.529,121.745,108.668C121.582,106.829,118.159,106.432,118.718,103.138C119.088,101.146,124.158,96.926,126.057,96.090C134.860,92.159,145.239,91.117,155.337,90.969C166.042,90.814,175.538,92.715,186.133,94.159Z"/>
<path class="path-9" d="M204.627,34.384C253.264,37.678,271.393,51.247,284.195,70.317"/>
<path class="path-9" d="M284.195,70.317C288.359,76.046,299.841,102.179,289.773,108.182"/>
<path class="path-9" d="M289.773,108.182C286.549,109.829,280.841,107.017,278.174,105.519"/>
<path class="path-9" d="M278.174,105.519C268.573,100.395,193.175,81.522,174.466,79.657"/>
<path class="path-9" d="M174.466,79.657C162.237,78.439,150.996,77.429,139.547,79.677"/>
<path class="path-9" d="M139.547,79.677C135.454,80.471,130.123,81.351,126.975,82.429"/>
<path class="path-9" d="M126.975,82.429C120.504,84.645,132.517,64.999,135.874,61.407"/>
<path class="path-9" d="M135.874,61.407C152.078,44.487,180.059,32.720,204.627,34.384"/>
<path class="path-10" d="M204.627,34.384C253.264,37.678,271.393,51.247,284.195,70.317C288.359,76.046,299.841,102.179,289.773,108.182C286.549,109.829,280.841,107.017,278.174,105.519C268.573,100.395,193.175,81.522,174.466,79.657C162.237,78.439,150.996,77.429,139.547,79.677C135.454,80.471,130.123,81.351,126.975,82.429C120.504,84.645,132.517,64.999,135.874,61.407C152.078,44.487,180.059,32.720,204.627,34.384Z"/>
</g>
<g id="left_ear">
<path class="path-0" d="M240.525,178.452C240.960,176.846,243.656,171.953,244.809,170.497C253.262,158.927,269.283,149.657,276.958,157.809C285.615,167.393,271.265,191.970,259.258,196.723C245.518,201.923,237.594,190.845,240.525,178.452M292.035,161.466C289.739,150.256,282.883,142.409,265.610,145.696C248.703,148.914,245.373,172.134,244.412,186.310C244.289,189.309,244.749,192.514,245.612,195.236C248.733,205.665,257.017,210.913,266.927,203.607C278.514,194.879,294.667,176.653,292.035,161.466Z"/>
<path class="path-15" d="M244.809,170.497C253.262,158.927,269.283,149.657,276.958,157.809"/>
<path class="path-15" d="M276.958,157.809C285.615,167.393,271.265,191.970,259.258,196.723"/>
<path class="path-15" d="M259.258,196.723C245.518,201.923,237.594,190.845,240.525,178.452"/>
<path class="path-15" d="M240.525,178.452C240.960,176.846,243.656,171.953,244.809,170.497"/>
<path class="path-16" d="M244.809,170.497C253.262,158.927,269.283,149.657,276.958,157.809C285.615,167.393,271.265,191.970,259.258,196.723C245.518,201.923,237.594,190.845,240.525,178.452C240.960,176.846,243.656,171.953,244.809,170.497Z"/>
</g>
<g id="earrings">
<path class="path-0" d="M270.830,207.466C261.796,212.159,260.792,194.220,264.026,194.445C268.591,195.877,280.231,208.798,270.830,207.466M280.829,200.098C274.204,200.663,270.957,191.674,270.350,187.877C277.888,189.373,287.441,194.752,280.829,200.098M291.483,196.683C288.884,188.572,276.531,184.068,268.656,180.713C265.693,179.451,257.356,189.792,257.017,193.162C255.966,197.269,258.934,219.459,272.849,216.432C278.564,214.923,293.572,203.202,291.483,196.683Z"/>
<path class="path-21" d="M270.350,187.877C277.888,189.373,287.441,194.752,280.829,200.098"/>
<path class="path-21" d="M280.829,200.098C274.204,200.663,270.957,191.674,270.350,187.877"/>
<path class="path-22" d="M270.350,187.877C277.888,189.373,287.441,194.752,280.829,200.098C274.204,200.663,270.957,191.674,270.350,187.877Z"/>
<path class="path-21" d="M264.026,194.445C268.591,195.877,280.231,208.798,270.830,207.466"/>
<path class="path-21" d="M270.830,207.466C261.796,212.159,260.792,194.220,264.026,194.445"/>
<path class="path-22" d="M264.026,194.445C268.591,195.877,280.231,208.798,270.830,207.466C261.796,212.159,260.792,194.220,264.026,194.445Z"/>
</g>
</g>
<g id="jacket">
<path class="path-0" d="M202.406,270.837C204.929,275.253,201.570,285.474,201.378,290.134C198.608,307.481,195.205,324.140,195.201,341.299C195.302,344.679,195.022,351.091,192.531,354.135C190.051,357.163,183.195,357.243,180.535,359.267C177.108,361.815,172.283,354.756,170.729,352.132C169.412,349.909,169.182,343.652,169.255,341.631C169.738,336.734,171.534,327.285,173.182,321.302C174.889,315.281,177.538,309.397,179.371,302.744C180.461,297.047,179.448,290.039,179.338,283.570C180.018,279.841,181.343,277.647,181.423,274.969C181.130,270.277,182.249,268.446,186.684,267.649C191.345,267.148,200.963,265.637,202.406,270.837M260.664,277.891C262.260,274.929,284.500,261.264,287.162,259.536C296.185,254.275,302.637,263.289,303.094,269.420C303.754,276.944,292.777,301.946,292.719,307.367C292.506,310.452,292.912,312.860,293.972,315.291C300.784,333.252,300.936,319.976,311.271,331.526C314.027,334.643,318.542,342.422,319.398,346.410C320.106,351.033,319.497,362.456,316.332,365.493C314.853,366.680,311.986,367.053,310.443,364.735C309.711,363.883,304.430,353.748,302.873,352.612C296.242,347.202,286.254,347.518,280.431,340.399C276.791,335.421,274.653,328.742,271.530,322.917C268.566,317.601,265.454,312.418,263.652,306.579C261.004,299.130,257.507,285.591,260.664,277.891M275.966,255.283C273.018,257.985,266.799,261.692,264.761,262.500C258.101,264.734,256.891,257.363,256.426,252.452C256.137,247.513,259.087,240.470,262.209,236.422C264.873,232.968,269.344,228.591,274.103,228.056C279.711,227.223,289.206,232.691,288.154,239.057C287.824,242.312,280.454,251.169,275.966,255.283M196.484,236.586C201.564,241.909,206.381,247.325,203.284,250.951C200.423,254.300,197.390,255.150,189.763,255.866C178.183,256.952,171.376,240.592,175.748,234.204C179.284,229.037,190.370,230.180,196.484,236.586M313.833,387.543C324.754,377.312,332.997,367.809,333.539,352.194C333.724,344.749,330.814,335.821,326.148,330.064C317.792,320.281,307.880,321.816,301.543,308.708C296.803,299.323,300.780,289.990,301.493,279.927C301.589,276.535,298.843,259.388,299.087,256.302C298.806,252.458,301.056,248.822,301.030,245.274C301.126,241.405,301.742,237.340,300.638,233.630C299.177,227.447,292.884,224.352,288.076,221.217C281.365,217.385,275.466,216.134,267.705,217.628C258.444,219.422,254.545,229.130,251.583,235.785C247.180,245.676,249.024,260.929,248.498,271.744C248.201,277.853,248.009,286.375,248.182,292.130C248.416,308.401,262.672,341.198,274.289,352.747C276.040,354.728,288.289,364.998,291.483,368.848C296.167,374.554,293.656,379.683,297.124,385.968C298.145,388.002,302.502,390.234,305.409,390.450C307.940,390.722,312.472,388.816,313.833,387.543M207.764,233.320C203.775,227.423,197.085,217.585,189.793,217.821C184.128,218.187,175.595,220.026,170.793,223.544C167.486,225.966,162.994,230.485,162.809,234.633C162.411,240.538,164.248,247.527,166.929,252.244C168.937,255.776,174.604,258.284,176.523,261.800C177.359,263.434,178.253,272.372,178.537,274.628C179.994,284.056,178.339,294.288,175.780,302.196C173.226,310.091,164.739,318.321,161.891,326.115C159.433,332.843,157.011,341.821,157.626,349.607C157.707,352.880,161.029,359.570,163.168,363.521C164.749,366.439,167.501,371.627,169.477,372.609C170.887,373.310,185.550,375.168,191.070,371.767C195.623,368.962,198.690,366.553,200.029,356.357C201.433,344.021,205.766,333.508,206.963,321.008C208.191,304.968,213.821,277.697,213.444,266.381C213.247,260.445,214.664,256.468,213.224,248.230C212.465,244.538,210.433,237.266,207.764,233.320Z"/>
<path class="path-1" d="M287.162,259.536C296.185,254.275,302.637,263.289,303.094,269.420"/>
<path class="path-1" d="M303.094,269.420C303.754,276.944,292.777,301.946,292.719,307.367"/>
<path class="path-1" d="M292.719,307.367C292.506,310.452,292.912,312.860,293.972,315.291"/>
<path class="path-1" d="M293.972,315.291C300.784,333.252,300.936,319.976,311.271,331.526"/>
<path class="path-1" d="M311.271,331.526C314.027,334.643,318.542,342.422,319.398,346.410"/>
<path class="path-1" d="M319.398,346.410C320.106,351.033,319.497,362.456,316.332,365.493"/>
<path class="path-1" d="M316.332,365.493C314.853,366.680,311.986,367.053,310.443,364.735"/>
<path class="path-1" d="M310.443,364.735C309.711,363.883,304.430,353.748,302.873,352.612"/>
<path class="path-1" d="M302.873,352.612C296.242,347.202,286.254,347.518,280.431,340.399"/>
<path class="path-1" d="M280.431,340.399C276.791,335.421,274.653,328.742,271.530,322.917"/>
<path class="path-1" d="M271.530,322.917C268.566,317.601,265.454,312.418,263.652,306.579"/>
<path class="path-1" d="M263.652,306.579C261.004,299.130,257.507,285.591,260.664,277.891"/>
<path class="path-1" d="M260.664,277.891C262.260,274.929,284.500,261.264,287.162,259.536"/>
<path class="path-2" d="M287.162,259.536C296.185,254.275,302.637,263.289,303.094,269.420C303.754,276.944,292.777,301.946,292.719,307.367C292.506,310.452,292.912,312.860,293.972,315.291C300.784,333.252,300.936,319.976,311.271,331.526C314.027,334.643,318.542,342.422,319.398,346.410C320.106,351.033,319.497,362.456,316.332,365.493C314.853,366.680,311.986,367.053,310.443,364.735C309.711,363.883,304.430,353.748,302.873,352.612C296.242,347.202,286.254,347.518,280.431,340.399C276.791,335.421,274.653,328.742,271.530,322.917C268.566,317.601,265.454,312.418,263.652,306.579C261.004,299.130,257.507,285.591,260.664,277.891C262.260,274.929,284.500,261.264,287.162,259.536Z"/>
<path class="path-1" d="M186.684,267.649C191.345,267.148,200.963,265.637,202.406,270.837"/>
<path class="path-1" d="M202.406,270.837C204.929,275.253,201.570,285.474,201.378,290.134"/>
<path class="path-1" d="M201.378,290.134C198.608,307.481,195.205,324.140,195.201,341.299"/>
<path class="path-1" d="M195.201,341.299C195.302,344.679,195.022,351.091,192.531,354.135"/>
<path class="path-1" d="M192.531,354.135C190.051,357.163,183.195,357.243,180.535,359.267"/>
<path class="path-1" d="M180.535,359.267C177.108,361.815,172.283,354.756,170.729,352.132"/>
<path class="path-1" d="M170.729,352.132C169.412,349.909,169.182,343.652,169.255,341.631"/>
<path class="path-1" d="M169.255,341.631C169.738,336.734,171.534,327.285,173.182,321.302"/>
<path class="path-1" d="M173.182,321.302C174.889,315.281,177.538,309.397,179.371,302.744"/>
<path class="path-1" d="M179.371,302.744C180.461,297.047,179.448,290.039,179.338,283.570"/>
<path class="path-1" d="M179.338,283.570C180.018,279.841,181.343,277.647,181.423,274.969"/>
<path class="path-1" d="M181.423,274.969C181.130,270.277,182.249,268.446,186.684,267.649"/>
<path class="path-2" d="M186.684,267.649C191.345,267.148,200.963,265.637,202.406,270.837C204.929,275.253,201.570,285.474,201.378,290.134C198.608,307.481,195.205,324.140,195.201,341.299C195.302,344.679,195.022,351.091,192.531,354.135C190.051,357.163,183.195,357.243,180.535,359.267C177.108,361.815,172.283,354.756,170.729,352.132C169.412,349.909,169.182,343.652,169.255,341.631C169.738,336.734,171.534,327.285,173.182,321.302C174.889,315.281,177.538,309.397,179.371,302.744C180.461,297.047,179.448,290.039,179.338,283.570C180.018,279.841,181.343,277.647,181.423,274.969C181.130,270.277,182.249,268.446,186.684,267.649Z"/>
<path class="path-1" d="M274.103,228.056C279.711,227.223,289.206,232.691,288.154,239.057"/>
<path class="path-1" d="M288.154,239.057C287.824,242.312,280.454,251.169,275.966,255.283"/>
<path class="path-1" d="M275.966,255.283C273.018,257.985,266.799,261.692,264.761,262.500"/>
<path class="path-1" d="M264.761,262.500C258.101,264.734,256.891,257.363,256.426,252.452"/>
<path class="path-1" d="M256.426,252.452C256.137,247.513,259.087,240.470,262.209,236.422"/>
<path class="path-1" d="M262.209,236.422C264.873,232.968,269.344,228.591,274.103,228.056"/>
<path class="path-2" d="M274.103,228.056C279.711,227.223,289.206,232.691,288.154,239.057C287.824,242.312,280.454,251.169,275.966,255.283C273.018,257.985,266.799,261.692,264.761,262.500C258.101,264.734,256.891,257.363,256.426,252.452C256.137,247.513,259.087,240.470,262.209,236.422C264.873,232.968,269.344,228.591,274.103,228.056Z"/>
<path class="path-1" d="M196.484,236.586C201.564,241.909,206.381,247.325,203.284,250.951"/>
<path class="path-1" d="M203.284,250.951C200.423,254.300,197.390,255.150,189.763,255.866"/>
<path class="path-1" d="M189.763,255.866C178.183,256.952,171.376,240.592,175.748,234.204"/>
<path class="path-1" d="M175.748,234.204C179.284,229.037,190.370,230.180,196.484,236.586"/>
<path class="path-2" d="M196.484,236.586C201.564,241.909,206.381,247.325,203.284,250.951C200.423,254.300,197.390,255.150,189.763,255.866C178.183,256.952,171.376,240.592,175.748,234.204C179.284,229.037,190.370,230.180,196.484,236.586Z"/>
</g>
<g id="left_arm">
<path class="path-0" d="M290.902,459.809C287.575,454.485,286.245,445.502,293.897,443.175C299.221,441.510,323.174,446.834,327.167,450.826C334.153,457.148,330.161,471.786,321.510,475.113C311.529,478.439,296.226,468.127,290.902,459.809M279.516,276.423C280.393,273.226,288.864,263.064,293.897,264.184C296.819,264.834,298.222,269.839,299.220,272.502C301.881,280.818,304.543,289.469,306.872,298.119C313.194,320.741,317.518,343.366,322.177,365.988C323.839,375.305,323.839,387.613,327.167,395.931C331.159,405.579,337.479,402.253,340.474,408.573C341.805,411.567,341.140,417.224,343.136,421.881C346.130,429.201,351.785,433.194,354.446,437.851C356.111,440.512,356.776,443.506,353.117,444.173C351.121,445.171,345.797,444.173,343.801,444.173C337.144,442.402,330.490,440.627,323.840,438.849C314.857,436.852,287.575,435.521,282.918,429.533C275.931,420.218,286.910,409.240,288.242,399.924C288.907,396.930,292.189,352.967,291.567,350.019C290.899,343.164,287.387,337.131,285.841,330.057C284.214,320.430,282.539,310.147,281.179,300.115C280.223,291.877,276.733,285.067,279.516,276.423M305.541,254.536C303.213,249.877,295.893,241.561,289.904,242.890C284.914,244.222,284.249,250.210,283.582,254.203C281.920,264.184,279.924,272.502,279.924,282.149C279.590,289.136,280.257,295.458,280.921,302.111C281.586,311.427,279.590,329.392,279.924,340.038C279.924,349.686,282.253,359.667,281.586,367.985C279.590,387.613,271.273,406.246,271.938,425.874C271.939,435.855,274.600,435.855,276.929,443.840C278.592,449.828,277.263,456.150,279.590,461.805C285.579,476.776,302.880,490.416,319.847,487.091C335.483,484.096,336.150,467.129,344.466,458.146C351.786,450.161,366.424,454.154,368.420,445.835C370.416,438.849,360.769,431.198,357.110,425.874C349.790,415.893,355.445,413.563,351.786,405.912C349.125,400.257,341.471,395.267,337.813,387.947C335.816,384.619,334.819,378.299,333.487,373.973C330.826,363.992,327.831,352.680,326.169,342.034C324.504,329.724,324.173,318.745,320.845,306.103C318.184,295.458,310.200,262.852,305.541,254.536Z"/>
<path class="path-1" d="M293.897,264.184C296.819,264.834,298.222,269.839,299.220,272.502"/>
<path class="path-1" d="M299.220,272.502C301.881,280.818,304.543,289.469,306.872,298.119"/>
<path class="path-1" d="M306.872,298.119C313.194,320.741,317.518,343.366,322.177,365.988"/>
<path class="path-1" d="M322.177,365.988C323.839,375.305,323.839,387.613,327.167,395.931"/>
<path class="path-1" d="M327.167,395.931C331.159,405.579,337.479,402.253,340.474,408.573"/>
<path class="path-1" d="M340.474,408.573C341.805,411.567,341.140,417.224,343.136,421.881"/>
<path class="path-1" d="M343.136,421.881C346.130,429.201,351.785,433.194,354.446,437.851"/>
<path class="path-1" d="M354.446,437.851C356.111,440.512,356.776,443.506,353.117,444.173"/>
<path class="path-1" d="M353.117,444.173C351.121,445.171,345.797,444.173,343.801,444.173"/>
<path class="path-1" d="M343.801,444.173C337.144,442.402,330.490,440.627,323.840,438.849"/>
<path class="path-1" d="M323.840,438.849C314.857,436.852,287.575,435.521,282.918,429.533"/>
<path class="path-1" d="M282.918,429.533C275.931,420.218,286.910,409.240,288.242,399.924"/>
<path class="path-1" d="M288.242,399.924C288.907,396.930,292.189,352.967,291.567,350.019"/>
<path class="path-1" d="M291.567,350.019C290.899,343.164,287.387,337.131,285.841,330.057"/>
<path class="path-1" d="M285.841,330.057C284.214,320.430,282.539,310.147,281.179,300.115"/>
<path class="path-1" d="M281.179,300.115C280.223,291.877,276.733,285.067,279.516,276.423"/>
<path class="path-1" d="M279.516,276.423C280.393,273.226,288.864,263.064,293.897,264.184"/>
<path class="path-2" d="M293.897,264.184C296.819,264.834,298.222,269.839,299.220,272.502C301.881,280.818,304.543,289.469,306.872,298.119C313.194,320.741,317.518,343.366,322.177,365.988C323.839,375.305,323.839,387.613,327.167,395.931C331.159,405.579,337.479,402.253,340.474,408.573C341.805,411.567,341.140,417.224,343.136,421.881C346.130,429.201,351.785,433.194,354.446,437.851C356.111,440.512,356.776,443.506,353.117,444.173C351.121,445.171,345.797,444.173,343.801,444.173C337.144,442.402,330.490,440.627,323.840,438.849C314.857,436.852,287.575,435.521,282.918,429.533C275.931,420.218,286.910,409.240,288.242,399.924C288.907,396.930,292.189,352.967,291.567,350.019C290.899,343.164,287.387,337.131,285.841,330.057C284.214,320.430,282.539,310.147,281.179,300.115C280.223,291.877,276.733,285.067,279.516,276.423C280.393,273.226,288.864,263.064,293.897,264.184Z"/>
<path class="path-15" d="M293.897,443.175C299.221,441.510,323.174,446.834,327.167,450.826"/>
<path class="path-15" d="M327.167,450.826C334.153,457.148,330.161,471.786,321.510,475.113"/>
<path class="path-15" d="M321.510,475.113C311.529,478.439,296.226,468.127,290.902,459.809"/>
<path class="path-15" d="M290.902,459.809C287.575,454.485,286.245,445.502,293.897,443.175"/>
<path class="path-16" d="M293.897,443.175C299.221,441.510,323.174,446.834,327.167,450.826C334.153,457.148,330.161,471.786,321.510,475.113C311.529,478.439,296.226,468.127,290.902,459.809C287.575,454.485,286.245,445.502,293.897,443.175Z"/>
</g>
<g id="bone">
<g id="bone1_clothes">
<path class="path-23" d="M231.354,385.909C231.355,385.904,246.685,328.942,246.687,328.936C246.686,328.942,242.329,387.770,242.329,387.775C242.327,387.775,231.355,385.909,231.354,385.909"/>
</g>
<g id="bone2_clothes">
<path class="path-23" d="M232.716,328.359C232.715,328.352,225.648,256.170,225.648,256.163C225.650,256.170,246.228,325.716,246.230,325.723C246.229,325.723,232.717,328.359,232.716,328.359"/>
</g>
<g id="bone3_neck">
<path class="path-23" d="M237.590,253.147C237.589,253.143,225.038,213.376,225.037,213.372C225.037,213.376,231.161,254.625,231.162,254.629C231.162,254.629,237.590,253.147,237.590,253.147"/>
</g>
<g id="bone4_head">
<path class="path-23" d="M230.519,211.061C230.522,211.054,253.070,136.317,253.072,136.309C253.071,136.317,242.704,213.689,242.703,213.697C242.701,213.697,230.520,211.061,230.519,211.061"/>
</g>
<g id="bone5_left_arm">
<path class="path-23" d="M298.196,255.589C298.198,255.598,319.116,345.667,319.118,345.676C319.115,345.668,283.194,260.463,283.190,260.455C283.192,260.454,298.194,255.589,298.196,255.589"/>
</g>
<g id="bone6_left_arm">
<path class="path-23" d="M300.870,348.503C300.869,348.510,299.632,412.234,299.632,412.241C299.633,412.234,311.257,349.567,311.258,349.560C311.257,349.560,300.871,348.503,300.870,348.503"/>
</g>
<g id="bone7_right_arm">
<path class="path-23" d="M169.131,269.641C169.129,269.653,149.258,383.430,149.256,383.441C149.259,383.430,186.833,274.214,186.837,274.203C186.835,274.203,169.133,269.642,169.131,269.641"/>
</g>
<g id="bone8_right_arm">
<path class="path-23" d="M157.157,379.808C157.160,379.814,181.052,434.331,181.054,434.336C181.051,434.331,146.694,385.725,146.691,385.720C146.692,385.720,157.156,379.809,157.157,379.808"/>
</g>
<g id="bone9_left_leg">
<path class="path-23" d="M271.630,383.697C271.633,383.707,301.356,485.054,301.359,485.064C301.355,485.054,254.539,390.390,254.534,390.380C254.536,390.380,271.628,383.698,271.630,383.697"/>
</g>
<g id="bone10_right_leg">
<path class="path-23" d="M209.424,385.348C209.424,385.358,208.097,489.037,208.097,489.047C208.098,489.037,224.870,386.715,224.872,386.705C224.870,386.705,209.426,385.348,209.424,385.348"/>
</g>
<g id="bone11_hair">
<path class="path-23" d="M234.081,155.542C234.083,155.550,258.395,231.959,258.398,231.967C258.394,231.960,220.509,161.290,220.505,161.283C220.506,161.282,234.080,155.543,234.081,155.542"/>
</g>
<g id="bone12_left_leg_S">
<path class="path-23" d="M435.446,222.285C435.453,222.285,507.769,224.316,507.776,224.316C507.769,224.315,436.769,210.430,436.762,210.429C436.762,210.430,435.446,222.284,435.446,222.285"/>
</g>
<g id="bone13_right_leg_S">
<path class="path-23" d="M495.280,210.790C495.273,210.791,425.075,228.281,425.068,228.283C425.075,228.282,497.193,222.564,497.200,222.563C497.200,222.562,495.280,210.791,495.280,210.790"/>
</g>
<g id="bone14_left_arm_S">
<path class="path-23" d="M557.459,215.989C557.458,215.981,551.495,143.884,551.494,143.876C551.494,143.884,545.530,215.981,545.530,215.989C545.531,215.989,557.458,215.989,557.459,215.989"/>
</g>
<g id="bone15_jacket_S">
<path class="path-23" d="M606.284,221.175C606.291,221.172,671.003,188.830,671.010,188.827C671.003,188.829,601.856,210.099,601.849,210.101C601.850,210.102,606.284,221.174,606.284,221.175"/>
</g>
<g id="bone16_pupils_S">
<path class="path-23" d="M442.221,337.675C442.220,337.668,440.191,265.352,440.190,265.345C440.189,265.352,430.310,337.019,430.309,337.026C430.310,337.026,442.219,337.675,442.221,337.675"/>
</g>
<g id="bone17_eyelids_S">
<path class="path-23" d="M502.309,337.358C502.308,337.351,496.345,265.253,496.344,265.246C496.344,265.253,490.380,337.351,490.380,337.358C490.381,337.358,502.308,337.358,502.309,337.358"/>
</g>
<g id="bone18_face_S">
<path class="path-23" d="M552.372,344.408C552.379,344.407,623.881,333.402,623.888,333.401C623.881,333.401,551.542,332.508,551.535,332.508C551.535,332.510,552.372,344.407,552.372,344.408"/>
</g>
</g>
</g>
<style>
.path-0{fill:#000000;fill-rule:evenodd;stroke:none;}
.path-1{fill:none;stroke:#a60d3f;stroke-width:1;stroke-linecap:butt;stroke-linejoin:round;}
.path-2{fill:#a60d3f;fill-rule:evenodd;stroke:none;}
.path-3{fill:none;stroke:#d88e4b;stroke-width:1;stroke-linecap:butt;stroke-linejoin:round;}
.path-4{fill:#d88e4b;fill-rule:evenodd;stroke:none;}
.path-5{fill:none;stroke:#6e2353;stroke-width:1;stroke-linecap:butt;stroke-linejoin:round;}
.path-6{fill:#6e2353;fill-rule:evenodd;stroke:none;}
.path-7{fill:none;stroke:#392966;stroke-width:1;stroke-linecap:butt;stroke-linejoin:round;}
.path-8{fill:#392966;fill-rule:evenodd;stroke:none;}
.path-9{fill:none;stroke:#cc9bc5;stroke-width:1;stroke-linecap:butt;stroke-linejoin:round;}
.path-10{fill:#cc9bc5;fill-rule:evenodd;stroke:none;}
.path-11{fill:none;stroke:#620527;stroke-width:1;stroke-linecap:butt;stroke-linejoin:round;}
.path-12{fill:#620527;fill-rule:evenodd;stroke:none;}
.path-13{fill:none;stroke:#6a3661;stroke-width:1;stroke-linecap:butt;stroke-linejoin:round;}
.path-14{fill:#6a3661;fill-rule:evenodd;stroke:none;}
.path-15{fill:none;stroke:#f8a087;stroke-width:1;stroke-linecap:butt;stroke-linejoin:round;}
.path-16{fill:#f8a087;fill-rule:evenodd;stroke:none;}
.path-17{fill:none;stroke:#ffffff;stroke-width:1;stroke-linecap:butt;stroke-linejoin:round;}
.path-18{fill:#ffffff;fill-rule:evenodd;stroke:none;}
.path-19{fill:none;stroke:#d89f4a;stroke-width:1;stroke-linecap:butt;stroke-linejoin:round;}
.path-20{fill:#d89f4a;fill-rule:evenodd;stroke:none;}
.path-21{fill:none;stroke:#fafd5b;stroke-width:1;stroke-linecap:butt;stroke-linejoin:round;}
.path-22{fill:#fafd5b;fill-rule:evenodd;stroke:none;}
.path-23{fill:none;stroke:#00ff42;stroke-width:8;stroke-linecap:round;stroke-linejoin:round;}
.path-24{fill:none;stroke:#000000;stroke-width:1;stroke-linecap:butt;stroke-linejoin:round;}
.path-25{fill:none;stroke:#ececec;stroke-width:1;stroke-linecap:butt;stroke-linejoin:round;}
.path-26{fill:#ececec;fill-rule:evenodd;stroke:none;}
.path-27{fill:none;stroke:#808080;stroke-width:1;stroke-linecap:butt;stroke-linejoin:round;}
.path-28{fill:#808080;fill-rule:evenodd;stroke:none;}
.path-29{fill:none;stroke:#282828;stroke-width:1;stroke-linecap:butt;stroke-linejoin:round;}
.path-30{fill:#282828;fill-rule:evenodd;stroke:none;}
</style>
</svg>
