<svg version="1.1" id="Frame_79" xmlns="http://www.w3.org/2000/svg" xmlns:xlink="http://www.w3.org/1999/xlink" width="480px" height="720px">
<g id="main_bone">
<g id="right_arm">
<path class="path-0" d="M172.876,271.997C174.497,269.410,177.660,264.069,181.562,262.826C188.042,260.762,193.170,266.793,193.585,271.345C194.623,279.358,187.918,289.600,184.795,297.222C177.169,315.519,169.057,333.657,164.277,352.355C163.695,355.619,159.473,376.857,159.416,374.220C159.230,380.824,165.959,386.283,168.419,391.827C171.578,399.299,168.958,406.537,167.431,413.546C163.851,427.919,164.561,433.167,165.963,446.906C166.284,449.054,167.370,456.011,164.035,456.751C160.634,457.505,159.000,451.380,157.872,449.107C157.055,446.535,153.762,441.292,154.108,438.881C153.896,434.937,158.448,435.601,152.928,427.791C145.867,417.996,134.253,409.874,130.878,396.684C128.589,386.179,133.833,376.728,136.789,366.816C143.099,345.434,150.230,324.037,159.000,303.209C163.807,292.335,166.380,282.938,172.876,271.997M193.497,265.090C194.177,256.624,191.604,249.093,180.903,251.865C163.410,256.330,155.686,282.365,149.952,297.071C141.939,316.821,135.442,336.858,129.648,357.059C127.304,365.651,124.312,370.081,123.103,375.071C121.582,380.721,122.092,389.303,122.583,394.905C123.087,412.521,128.300,413.317,136.305,426.377C140.622,434.159,137.348,439.534,140.621,446.239C143.029,450.913,147.375,453.890,150.938,457.540C154.145,461.244,155.189,463.437,157.695,466.882C160.734,471.011,169.423,480.240,174.859,476.762C178.764,474.244,176.901,466.645,176.433,462.910C175.576,457.322,174.760,435.375,175.250,428.688C176.235,417.487,181.765,405.369,179.712,393.451C178.066,384.296,169.705,377.915,169.852,368.046C170.082,362.782,173.159,354.178,174.218,348.275C175.959,338.864,176.296,328.761,178.918,319.162C183.407,301.988,192.704,283.187,193.497,265.090Z"/>
<path class="path-1" d="M181.562,262.826C188.042,260.762,193.170,266.793,193.585,271.345"/>
<path class="path-1" d="M193.585,271.345C194.623,279.358,187.918,289.600,184.795,297.222"/>
<path class="path-1" d="M184.795,297.222C177.169,315.519,169.057,333.657,164.277,352.355"/>
<path class="path-1" d="M164.277,352.355C163.695,355.619,159.473,376.857,159.416,374.220"/>
<path class="path-1" d="M159.416,374.220C159.230,380.824,165.959,386.283,168.419,391.827"/>
<path class="path-1" d="M168.419,391.827C171.578,399.299,168.958,406.537,167.431,413.546"/>
<path class="path-1" d="M167.431,413.546C163.851,427.919,164.561,433.167,165.963,446.906"/>
<path class="path-1" d="M165.963,446.906C166.284,449.054,167.370,456.011,164.035,456.751"/>
<path class="path-1" d="M164.035,456.751C160.634,457.505,159.000,451.380,157.872,449.107"/>
<path class="path-1" d="M157.872,449.107C157.055,446.535,153.762,441.292,154.108,438.881"/>
<path class="path-1" d="M154.108,438.881C153.896,434.937,158.448,435.601,152.928,427.791"/>
<path class="path-1" d="M152.928,427.791C145.867,417.996,134.253,409.874,130.878,396.684"/>
<path class="path-1" d="M130.878,396.684C128.589,386.179,133.833,376.728,136.789,366.816"/>
<path class="path-1" d="M136.789,366.816C143.099,345.434,150.230,324.037,159.000,303.209"/>
<path class="path-1" d="M159.000,303.209C163.807,292.335,166.380,282.938,172.876,271.997"/>
<path class="path-1" d="M172.876,271.997C174.497,269.410,177.660,264.069,181.562,262.826"/>
<path class="path-2" d="M181.562,262.826C188.042,260.762,193.170,266.793,193.585,271.345C194.623,279.358,187.918,289.600,184.795,297.222C177.169,315.519,169.057,333.657,164.277,352.355C163.695,355.619,159.473,376.857,159.416,374.220C159.230,380.824,165.959,386.283,168.419,391.827C171.578,399.299,168.958,406.537,167.431,413.546C163.851,427.919,164.561,433.167,165.963,446.906C166.284,449.054,167.370,456.011,164.035,456.751C160.634,457.505,159.000,451.380,157.872,449.107C157.055,446.535,153.762,441.292,154.108,438.881C153.896,434.937,158.448,435.601,152.928,427.791C145.867,417.996,134.253,409.874,130.878,396.684C128.589,386.179,133.833,376.728,136.789,366.816C143.099,345.434,150.230,324.037,159.000,303.209C163.807,292.335,166.380,282.938,172.876,271.997C174.497,269.410,177.660,264.069,181.562,262.826Z"/>
</g>
<g id="layer_left_leg">
<g id="left_heel">
<path class="path-0" d="M275.059,574.015C269.673,563.629,281.528,552.148,291.309,550.109C303.580,547.542,318.040,551.953,318.743,556.555C320.016,567.097,301.170,572.147,292.432,574.511C288.183,575.512,276.988,577.745,275.059,574.015M312.777,537.262C295.960,533.060,268.735,539.113,260.572,552.651C254.675,562.406,262.050,590.726,271.947,589.618C287.402,587.891,322.915,574.116,328.952,569.426C336.701,563.449,332.851,549.491,326.690,542.726C323.532,539.647,317.170,538.427,312.777,537.262Z"/>
<path class="path-3" d="M291.309,550.109C303.580,547.542,318.040,551.953,318.743,556.555"/>
<path class="path-3" d="M318.743,556.555C320.016,567.097,301.170,572.147,292.432,574.511"/>
<path class="path-3" d="M292.432,574.511C288.183,575.512,276.988,577.745,275.059,574.015"/>
<path class="path-3" d="M275.059,574.015C269.673,563.629,281.528,552.148,291.309,550.109"/>
<path class="path-4" d="M291.309,550.109C303.580,547.542,318.040,551.953,318.743,556.555C320.016,567.097,301.170,572.147,292.432,574.511C288.183,575.512,276.988,577.745,275.059,574.015C269.673,563.629,281.528,552.148,291.309,550.109Z"/>
</g>
<g id="left_leg">
<path class="path-0" d="M239.295,416.195C238.215,411.278,249.990,411.972,253.771,410.773C260.264,409.056,274.275,404.088,280.765,406.275C288.475,408.590,300.350,426.418,304.229,433.120C311.022,445.670,319.346,456.375,325.329,468.788C329.669,478.371,335.444,488.256,336.256,498.538C337.051,505.096,332.761,512.439,334.925,518.279C335.833,523.269,343.966,525.603,342.859,530.173C337.291,548.165,327.079,541.736,317.610,551.213C309.379,558.962,293.072,562.270,283.165,559.581C277.281,558.194,266.196,553.495,263.608,548.121C256.578,533.522,257.013,514.091,254.731,498.362C252.821,485.203,251.205,457.559,253.156,443.323C253.668,439.590,260.674,438.602,260.232,433.735C259.949,430.755,249.561,427.937,247.068,426.205C244.134,424.497,239.830,419.470,239.295,416.195M287.785,396.360C279.055,393.135,259.444,398.137,251.444,401.410C246.474,403.421,229.479,407.316,227.334,411.428C222.369,420.943,236.190,436.140,239.383,444.286C240.551,447.969,239.580,466.575,239.751,471.773C241.889,495.006,237.741,515.997,244.791,538.236C247.474,547.103,251.063,555.490,256.924,562.498C271.916,580.170,291.962,581.063,316.620,568.526C336.353,558.810,348.058,555.765,351.683,529.808C353.880,514.879,351.696,507.525,348.865,497.681C345.160,484.904,340.994,471.625,334.977,458.700C329.391,447.711,323.026,437.144,315.865,427.023C310.240,419.057,297.434,399.949,287.785,396.360Z"/>
<path class="path-7" d="M253.771,410.773C260.264,409.056,274.275,404.088,280.765,406.275"/>
<path class="path-7" d="M280.765,406.275C288.475,408.590,300.350,426.418,304.229,433.120"/>
<path class="path-7" d="M304.229,433.120C311.022,445.670,319.346,456.375,325.329,468.788"/>
<path class="path-7" d="M325.329,468.788C329.669,478.371,335.444,488.256,336.256,498.538"/>
<path class="path-7" d="M336.256,498.538C337.051,505.096,332.761,512.439,334.925,518.279"/>
<path class="path-7" d="M334.925,518.279C335.833,523.269,343.966,525.603,342.859,530.173"/>
<path class="path-7" d="M342.859,530.173C337.291,548.165,327.079,541.736,317.610,551.213"/>
<path class="path-7" d="M317.610,551.213C309.379,558.962,293.072,562.270,283.165,559.581"/>
<path class="path-7" d="M283.165,559.581C277.281,558.194,266.196,553.495,263.608,548.121"/>
<path class="path-7" d="M263.608,548.121C256.578,533.522,257.013,514.091,254.731,498.362"/>
<path class="path-7" d="M254.731,498.362C252.821,485.203,251.205,457.559,253.156,443.323"/>
<path class="path-7" d="M253.156,443.323C253.668,439.590,260.674,438.602,260.232,433.735"/>
<path class="path-7" d="M260.232,433.735C259.949,430.755,249.561,427.937,247.068,426.205"/>
<path class="path-7" d="M247.068,426.205C244.134,424.497,239.830,419.470,239.295,416.195"/>
<path class="path-7" d="M239.295,416.195C238.215,411.278,249.990,411.972,253.771,410.773"/>
<path class="path-8" d="M253.771,410.773C260.264,409.056,274.275,404.088,280.765,406.275C288.475,408.590,300.350,426.418,304.229,433.120C311.022,445.670,319.346,456.375,325.329,468.788C329.669,478.371,335.444,488.256,336.256,498.538C337.051,505.096,332.761,512.439,334.925,518.279C335.833,523.269,343.966,525.603,342.859,530.173C337.291,548.165,327.079,541.736,317.610,551.213C309.379,558.962,293.072,562.270,283.165,559.581C277.281,558.194,266.196,553.495,263.608,548.121C256.578,533.522,257.013,514.091,254.731,498.362C252.821,485.203,251.205,457.559,253.156,443.323C253.668,439.590,260.674,438.602,260.232,433.735C259.949,430.755,249.561,427.937,247.068,426.205C244.134,424.497,239.830,419.470,239.295,416.195C238.215,411.278,249.990,411.972,253.771,410.773Z"/>
</g>
<g id="left_toe">
<path class="path-0" d="M317.573,607.991C284.671,619.157,268.323,591.569,277.145,581.291C294.115,561.521,329.326,557.410,345.747,558.425C356.985,559.120,359.203,576.061,356.747,587.316C352.781,600.237,329.024,604.110,317.573,607.991M346.412,546.324C324.845,549.204,299.813,549.526,276.396,562.404C265.317,568.495,260.915,583.034,265.071,597.385C267.325,606.268,271.263,613.891,278.871,619.000C291.682,627.035,324.310,618.560,337.680,613.077C349.868,607.068,367.785,599.509,370.259,585.063C372.172,574.799,356.527,544.973,346.412,546.324Z"/>
<path class="path-3" d="M277.145,581.291C294.115,561.521,329.326,557.410,345.747,558.425"/>
<path class="path-3" d="M345.747,558.425C356.985,559.120,359.203,576.061,356.747,587.316"/>
<path class="path-3" d="M356.747,587.316C352.781,600.237,329.024,604.110,317.573,607.991"/>
<path class="path-3" d="M317.573,607.991C284.671,619.157,268.323,591.569,277.145,581.291"/>
<path class="path-4" d="M277.145,581.291C294.115,561.521,329.326,557.410,345.747,558.425C356.985,559.120,359.203,576.061,356.747,587.316C352.781,600.237,329.024,604.110,317.573,607.991C284.671,619.157,268.323,591.569,277.145,581.291Z"/>
</g>
<g id="left_sole">
<path class="path-0" d="M304.916,619.941C291.479,617.724,285.163,617.323,284.539,614.990C283.495,611.087,291.318,619.736,296.036,620.110C303.474,620.726,331.419,618.808,343.339,610.763C348.008,608.130,362.715,601.250,362.978,600.913C363.679,600.012,346.150,608.701,341.036,610.989C333.417,614.465,306.039,619.461,304.916,619.941M290.018,616.813C290.728,614.206,295.604,617.284,296.612,617.626C304.385,620.261,351.597,607.485,358.687,598.165C359.219,597.467,362.145,593.889,363.405,593.405C366.987,592.029,354.297,602.734,345.787,607.112C334.414,612.964,289.133,620.061,290.018,616.813M364.321,583.014C357.853,590.273,341.073,605.786,323.788,607.179C299.002,609.176,274.026,605.511,279.040,619.341C280.550,623.475,294.422,625.698,298.724,625.385C317.146,624.439,366.272,607.062,369.324,599.614C371.217,594.995,369.720,576.956,364.321,583.014Z"/>
<path class="path-5" d="M284.539,614.990C283.495,611.087,291.318,619.736,296.036,620.110"/>
<path class="path-5" d="M296.036,620.110C303.474,620.726,331.419,618.808,343.339,610.763"/>
<path class="path-5" d="M343.339,610.763C348.008,608.130,362.715,601.250,362.978,600.913"/>
<path class="path-5" d="M362.978,600.913C363.679,600.012,346.150,608.701,341.036,610.989"/>
<path class="path-5" d="M341.036,610.989C333.417,614.465,306.039,619.461,304.916,619.941"/>
<path class="path-5" d="M304.916,619.941C291.479,617.724,285.163,617.323,284.539,614.990"/>
<path class="path-6" d="M284.539,614.990C283.495,611.087,291.318,619.736,296.036,620.110C303.474,620.726,331.419,618.808,343.339,610.763C348.008,608.130,362.715,601.250,362.978,600.913C363.679,600.012,346.150,608.701,341.036,610.989C333.417,614.465,306.039,619.461,304.916,619.941C291.479,617.724,285.163,617.323,284.539,614.990Z"/>
<path class="path-5" d="M296.612,617.626C304.385,620.261,351.597,607.485,358.687,598.165"/>
<path class="path-5" d="M358.687,598.165C359.219,597.467,362.145,593.889,363.405,593.405"/>
<path class="path-5" d="M363.405,593.405C366.987,592.029,354.297,602.734,345.787,607.112"/>
<path class="path-5" d="M345.787,607.112C334.414,612.964,289.133,620.061,290.018,616.813"/>
<path class="path-5" d="M290.018,616.813C290.728,614.206,295.604,617.284,296.612,617.626"/>
<path class="path-6" d="M296.612,617.626C304.385,620.261,351.597,607.485,358.687,598.165C359.219,597.467,362.145,593.889,363.405,593.405C366.987,592.029,354.297,602.734,345.787,607.112C334.414,612.964,289.133,620.061,290.018,616.813C290.728,614.206,295.604,617.284,296.612,617.626Z"/>
</g>
</g>
<g id="layer_right_leg">
<g id="right_heel">
<path class="path-0" d="M191.658,642.011C192.046,624.863,191.908,611.383,212.619,607.246C221.781,605.245,239.529,607.375,245.066,616.058C247.998,620.413,247.479,627.048,248.001,631.831C248.938,639.769,254.714,654.702,243.635,657.371C242.900,657.625,222.265,659.607,215.829,660.288C208.957,661.667,201.702,662.930,196.370,658.440C192.807,654.778,191.461,646.650,191.658,642.011M254.862,613.739C250.196,603.128,235.076,597.625,224.671,599.701C211.170,602.223,197.037,598.595,188.882,611.803C181.969,622.998,182.589,642.905,185.551,655.354C186.643,660.705,190.443,670.418,195.075,673.185C198.425,675.090,203.417,674.247,207.255,674.046C226.057,673.361,259.650,677.758,257.960,649.738C257.393,641.758,257.558,619.930,254.862,613.739Z"/>
<path class="path-3" d="M212.619,607.246C221.781,605.245,239.529,607.375,245.066,616.058"/>
<path class="path-3" d="M245.066,616.058C247.998,620.413,247.479,627.048,248.001,631.831"/>
<path class="path-3" d="M248.001,631.831C248.938,639.769,254.714,654.702,243.635,657.371"/>
<path class="path-3" d="M243.635,657.371C242.900,657.625,222.265,659.607,215.829,660.288"/>
<path class="path-3" d="M215.829,660.288C208.957,661.667,201.702,662.930,196.370,658.440"/>
<path class="path-3" d="M196.370,658.440C192.807,654.778,191.461,646.650,191.658,642.011"/>
<path class="path-3" d="M191.658,642.011C192.046,624.863,191.908,611.383,212.619,607.246"/>
<path class="path-4" d="M212.619,607.246C221.781,605.245,239.529,607.375,245.066,616.058C247.998,620.413,247.479,627.048,248.001,631.831C248.938,639.769,254.714,654.702,243.635,657.371C242.900,657.625,222.265,659.607,215.829,660.288C208.957,661.667,201.702,662.930,196.370,658.440C192.807,654.778,191.461,646.650,191.658,642.011C192.046,624.863,191.908,611.383,212.619,607.246Z"/>
</g>
<g id="right_leg">
<path class="path-0" d="M178.990,411.209C181.527,399.543,196.409,395.847,206.729,397.720C212.624,398.667,222.580,400.412,226.252,405.543C227.433,407.194,228.288,410.400,227.380,412.215C225.782,415.412,215.427,413.206,216.352,416.720C218.296,424.830,229.783,418.377,233.192,422.487C234.935,424.588,234.787,428.239,235.149,431.373C238.795,453.102,234.413,476.313,236.615,497.575C237.341,505.338,237.991,516.788,239.818,523.780C242.988,537.812,239.502,541.031,240.396,549.524C240.544,553.009,241.737,570.664,243.295,575.079C245.712,581.527,250.905,587.676,251.561,594.565C252.473,604.144,237.701,616.331,228.989,618.606C219.067,620.988,189.518,616.636,179.909,612.459C175.931,610.867,169.753,607.780,168.036,603.521C166.418,600.058,167.153,583.260,168.488,579.332C171.002,572.754,173.579,571.363,175.481,563.340C177.415,553.765,177.677,543.330,177.218,533.343C176.006,516.159,177.357,484.205,179.455,470.645C180.435,463.084,178.362,437.717,179.052,430.682C180.176,420.182,177.929,418.290,178.990,411.209M202.999,386.292C197.246,384.596,192.640,379.489,186.771,381.815C184.824,382.780,181.487,385.457,180.151,386.967C165.048,401.444,166.776,415.020,167.743,434.421C167.801,441.589,168.249,449.022,167.975,455.906C167.649,461.340,166.300,465.899,165.213,470.903C164.575,475.149,163.874,479.663,163.770,484.972C163.796,489.984,165.368,495.829,165.605,504.339C165.174,514.126,165.430,523.341,165.381,532.705C165.566,539.263,163.964,554.653,163.373,559.690C161.637,566.419,159.385,574.301,157.594,580.618C155.517,589.950,154.602,599.910,157.499,608.500C158.737,612.931,161.346,618.388,164.610,621.226C167.751,623.957,172.307,624.809,176.126,625.874C185.529,628.442,194.218,630.116,204.056,630.156C209.899,630.224,215.625,628.333,221.685,628.796C222.782,628.712,231.653,630.904,233.427,630.970C238.114,630.874,244.202,625.660,248.095,622.593C251.527,619.575,258.349,617.975,260.515,613.807C262.190,610.578,261.141,606.555,261.642,602.949C264.269,581.867,260.133,571.753,256.352,553.584C254.346,543.946,251.236,524.021,250.388,513.152C248.996,499.061,248.990,485.213,248.747,470.618C248.761,466.588,248.897,461.735,249.629,457.199C250.322,452.372,249.997,448.438,249.766,443.641C249.335,439.637,248.423,426.848,247.553,422.591C246.951,418.921,246.785,414.302,245.263,410.719C241.119,401.608,226.623,392.044,217.162,389.544C212.424,388.126,207.423,388.058,202.999,386.292Z"/>
<path class="path-7" d="M206.729,397.720C212.624,398.667,222.580,400.412,226.252,405.543"/>
<path class="path-7" d="M226.252,405.543C227.433,407.194,228.288,410.400,227.380,412.215"/>
<path class="path-7" d="M227.380,412.215C225.782,415.412,215.427,413.206,216.352,416.720"/>
<path class="path-7" d="M216.352,416.720C218.296,424.830,229.783,418.377,233.192,422.487"/>
<path class="path-7" d="M233.192,422.487C234.935,424.588,234.787,428.239,235.149,431.373"/>
<path class="path-7" d="M235.149,431.373C238.795,453.102,234.413,476.313,236.615,497.575"/>
<path class="path-7" d="M236.615,497.575C237.341,505.338,237.991,516.788,239.818,523.780"/>
<path class="path-7" d="M239.818,523.780C242.988,537.812,239.502,541.031,240.396,549.524"/>
<path class="path-7" d="M240.396,549.524C240.544,553.009,241.737,570.664,243.295,575.079"/>
<path class="path-7" d="M243.295,575.079C245.712,581.527,250.905,587.676,251.561,594.565"/>
<path class="path-7" d="M251.561,594.565C252.473,604.144,237.701,616.331,228.989,618.606"/>
<path class="path-7" d="M228.989,618.606C219.067,620.988,189.518,616.636,179.909,612.459"/>
<path class="path-7" d="M179.909,612.459C175.931,610.867,169.753,607.780,168.036,603.521"/>
<path class="path-7" d="M168.036,603.521C166.418,600.058,167.153,583.260,168.488,579.332"/>
<path class="path-7" d="M168.488,579.332C171.002,572.754,173.579,571.363,175.481,563.340"/>
<path class="path-7" d="M175.481,563.340C177.415,553.765,177.677,543.330,177.218,533.343"/>
<path class="path-7" d="M177.218,533.343C176.006,516.159,177.357,484.205,179.455,470.645"/>
<path class="path-7" d="M179.455,470.645C180.435,463.084,178.362,437.717,179.052,430.682"/>
<path class="path-7" d="M179.052,430.682C180.176,420.182,177.929,418.290,178.990,411.209"/>
<path class="path-7" d="M178.990,411.209C181.527,399.543,196.409,395.847,206.729,397.720"/>
<path class="path-8" d="M206.729,397.720C212.624,398.667,222.580,400.412,226.252,405.543C227.433,407.194,228.288,410.400,227.380,412.215C225.782,415.412,215.427,413.206,216.352,416.720C218.296,424.830,229.783,418.377,233.192,422.487C234.935,424.588,234.787,428.239,235.149,431.373C238.795,453.102,234.413,476.313,236.615,497.575C237.341,505.338,237.991,516.788,239.818,523.780C242.988,537.812,239.502,541.031,240.396,549.524C240.544,553.009,241.737,570.664,243.295,575.079C245.712,581.527,250.905,587.676,251.561,594.565C252.473,604.144,237.701,616.331,228.989,618.606C219.067,620.988,189.518,616.636,179.909,612.459C175.931,610.867,169.753,607.780,168.036,603.521C166.418,600.058,167.153,583.260,168.488,579.332C171.002,572.754,173.579,571.363,175.481,563.340C177.415,553.765,177.677,543.330,177.218,533.343C176.006,516.159,177.357,484.205,179.455,470.645C180.435,463.084,178.362,437.717,179.052,430.682C180.176,420.182,177.929,418.290,178.990,411.209C181.527,399.543,196.409,395.847,206.729,397.720Z"/>
</g>
<g id="right_toe">
<path class="path-0" d="M168.886,656.633C169.481,641.326,173.636,621.404,191.875,617.099C196.217,615.834,202.654,617.155,207.629,617.884C232.120,621.406,240.595,627.870,242.507,652.757C242.884,659.440,244.609,667.558,240.120,673.364C235.519,679.207,211.341,679.308,203.994,679.994C191.464,681.440,180.865,686.400,171.889,675.644C166.381,668.904,168.581,664.768,168.886,656.633M249.806,626.697C241.295,611.641,204.873,603.914,188.915,607.976C165.034,614.198,159.618,634.273,159.132,654.915C158.913,661.973,157.871,669.786,161.635,675.860C163.223,678.422,166.645,681.677,168.953,683.630C184.113,697.578,194.279,695.011,213.453,693.838C223.479,693.393,240.188,691.929,247.874,684.786C253.845,678.694,253.906,672.318,253.726,664.283C253.275,656.518,253.265,632.289,249.806,626.697Z"/>
<path class="path-3" d="M191.875,617.099C196.217,615.834,202.654,617.155,207.629,617.884"/>
<path class="path-3" d="M207.629,617.884C232.120,621.406,240.595,627.870,242.507,652.757"/>
<path class="path-3" d="M242.507,652.757C242.884,659.440,244.609,667.558,240.120,673.364"/>
<path class="path-3" d="M240.120,673.364C235.519,679.207,211.341,679.308,203.994,679.994"/>
<path class="path-3" d="M203.994,679.994C191.464,681.440,180.865,686.400,171.889,675.644"/>
<path class="path-3" d="M171.889,675.644C166.381,668.904,168.581,664.768,168.886,656.633"/>
<path class="path-3" d="M168.886,656.633C169.481,641.326,173.636,621.404,191.875,617.099"/>
<path class="path-4" d="M191.875,617.099C196.217,615.834,202.654,617.155,207.629,617.884C232.120,621.406,240.595,627.870,242.507,652.757C242.884,659.440,244.609,667.558,240.120,673.364C235.519,679.207,211.341,679.308,203.994,679.994C191.464,681.440,180.865,686.400,171.889,675.644C166.381,668.904,168.581,664.768,168.886,656.633C169.481,641.326,173.636,621.404,191.875,617.099Z"/>
</g>
<g id="right_sole">
<path class="path-0" d="M193.505,690.084C195.231,690.274,211.375,688.970,213.313,688.877C214.797,688.824,223.289,688.799,224.558,688.705C225.359,688.660,233.046,688.144,233.646,688.553C232.932,688.359,224.915,690.065,224.441,690.110C223.422,690.236,195.820,691.419,195.487,691.557C194.362,691.624,183.029,691.205,182.022,690.410C183.281,689.739,191.599,689.871,193.505,690.084M235.765,681.749C235.943,682.190,234.467,684.784,233.768,684.891C232.643,685.069,219.048,687.455,217.536,687.178C215.843,687.170,207.140,687.822,205.615,687.872C202.530,687.975,184.001,689.703,181.455,687.989C180.957,687.510,180.102,685.245,180.242,684.885C180.379,684.533,187.344,683.993,188.785,683.853C191.201,683.619,205.765,683.278,208.250,683.150C210.816,683.018,225.693,682.142,228.310,681.804C228.724,681.761,235.408,680.866,235.765,681.749M240.914,676.812C229.000,673.780,220.245,678.168,209.032,679.043C200.796,679.729,184.616,678.407,174.979,681.904C173.177,682.558,169.763,683.219,169.524,685.233C169.273,687.387,173.280,691.598,175.923,693.108C179.246,695.006,185.906,694.546,188.569,694.782C201.638,696.415,218.088,694.545,231.251,693.095C240.995,692.026,243.137,688.010,243.968,683.259C244.336,681.151,245.011,677.799,240.914,676.812Z"/>
<path class="path-5" d="M193.505,690.084C195.231,690.274,211.375,688.970,213.313,688.877"/>
<path class="path-5" d="M213.313,688.877C214.797,688.824,223.289,688.799,224.558,688.705"/>
<path class="path-5" d="M224.558,688.705C225.359,688.660,233.046,688.144,233.646,688.553"/>
<path class="path-5" d="M233.646,688.553C232.932,688.359,224.915,690.065,224.441,690.110"/>
<path class="path-5" d="M224.441,690.110C223.422,690.236,195.820,691.419,195.487,691.557"/>
<path class="path-5" d="M195.487,691.557C194.362,691.624,183.029,691.205,182.022,690.410"/>
<path class="path-5" d="M182.022,690.410C183.281,689.739,191.599,689.871,193.505,690.084"/>
<path class="path-6" d="M193.505,690.084C195.231,690.274,211.375,688.970,213.313,688.877C214.797,688.824,223.289,688.799,224.558,688.705C225.359,688.660,233.046,688.144,233.646,688.553C232.932,688.359,224.915,690.065,224.441,690.110C223.422,690.236,195.820,691.419,195.487,691.557C194.362,691.624,183.029,691.205,182.022,690.410C183.281,689.739,191.599,689.871,193.505,690.084Z"/>
<path class="path-5" d="M188.785,683.853C191.201,683.619,205.765,683.278,208.250,683.150"/>
<path class="path-5" d="M208.250,683.150C210.816,683.018,225.693,682.142,228.310,681.804"/>
<path class="path-5" d="M228.310,681.804C228.724,681.761,235.408,680.866,235.765,681.749"/>
<path class="path-5" d="M235.765,681.749C235.943,682.190,234.467,684.784,233.768,684.891"/>
<path class="path-5" d="M233.768,684.891C232.643,685.069,219.048,687.455,217.536,687.178"/>
<path class="path-5" d="M217.536,687.178C215.843,687.170,207.140,687.822,205.615,687.872"/>
<path class="path-5" d="M205.615,687.872C202.530,687.975,184.001,689.703,181.455,687.989"/>
<path class="path-5" d="M181.455,687.989C180.957,687.510,180.102,685.245,180.242,684.885"/>
<path class="path-5" d="M180.242,684.885C180.379,684.533,187.344,683.993,188.785,683.853"/>
<path class="path-6" d="M188.785,683.853C191.201,683.619,205.765,683.278,208.250,683.150C210.816,683.018,225.693,682.142,228.310,681.804C228.724,681.761,235.408,680.866,235.765,681.749C235.943,682.190,234.467,684.784,233.768,684.891C232.643,685.069,219.048,687.455,217.536,687.178C215.843,687.170,207.140,687.822,205.615,687.872C202.530,687.975,184.001,689.703,181.455,687.989C180.957,687.510,180.102,685.245,180.242,684.885C180.379,684.533,187.344,683.993,188.785,683.853Z"/>
</g>
</g>
<g id="hat_brim">
<path class="path-0" d="M282.885,154.736C286.559,148.757,295.584,132.478,303.568,132.498C308.892,132.512,319.846,142.189,325.494,145.198C330.477,148.205,335.794,150.880,341.442,153.555C344.650,155.233,347.862,156.904,351.077,158.570C365.365,165.927,361.356,172.239,353.041,170.886C334.420,167.510,331.422,168.834,313.480,159.472C311.153,158.468,305.173,155.127,304.164,159.448C302.822,164.435,311.794,168.784,315.449,170.456C322.092,174.134,329.402,178.145,337.385,178.830C339.714,179.170,347.700,178.523,349.024,180.856C351.011,184.188,341.342,192.813,339.340,194.805C336.005,197.790,332.672,200.776,329.338,203.097C324.339,206.410,319.008,209.390,313.350,210.374C302.701,211.678,269.470,196.289,268.502,184.643C267.854,177.988,278.876,161.048,282.885,154.736M315.557,128.205C310.577,123.866,306.934,117.535,299.605,120.844C294.276,123.160,288.601,130.797,284.932,134.780C271.248,151.380,258.889,170.978,259.499,192.604C259.797,206.245,264.455,205.925,275.420,211.275C292.033,219.636,313.320,222.351,331.307,214.081C342.964,208.787,363.305,190.874,368.659,178.910C370.332,174.922,373.349,165.947,371.031,161.284C368.385,155.620,346.119,145.916,339.475,142.240C331.501,137.893,322.529,133.878,315.557,128.205Z"/>
<path class="path-9" d="M303.568,132.498C308.892,132.512,319.846,142.189,325.494,145.198"/>
<path class="path-9" d="M325.494,145.198C330.477,148.205,335.794,150.880,341.442,153.555"/>
<path class="path-9" d="M341.442,153.555C344.650,155.233,347.862,156.904,351.077,158.570"/>
<path class="path-9" d="M351.077,158.570C365.365,165.927,361.356,172.239,353.041,170.886"/>
<path class="path-9" d="M353.041,170.886C334.420,167.510,331.422,168.834,313.480,159.472"/>
<path class="path-9" d="M313.480,159.472C311.153,158.468,305.173,155.127,304.164,159.448"/>
<path class="path-9" d="M304.164,159.448C302.822,164.435,311.794,168.784,315.449,170.456"/>
<path class="path-9" d="M315.449,170.456C322.092,174.134,329.402,178.145,337.385,178.830"/>
<path class="path-9" d="M337.385,178.830C339.714,179.170,347.700,178.523,349.024,180.856"/>
<path class="path-9" d="M349.024,180.856C351.011,184.188,341.342,192.813,339.340,194.805"/>
<path class="path-9" d="M339.340,194.805C336.005,197.790,332.672,200.776,329.338,203.097"/>
<path class="path-9" d="M329.338,203.097C324.339,206.410,319.008,209.390,313.350,210.374"/>
<path class="path-9" d="M313.350,210.374C302.701,211.678,269.470,196.289,268.502,184.643"/>
<path class="path-9" d="M268.502,184.643C267.854,177.988,278.876,161.048,282.885,154.736"/>
<path class="path-9" d="M282.885,154.736C286.559,148.757,295.584,132.478,303.568,132.498"/>
<path class="path-10" d="M303.568,132.498C308.892,132.512,319.846,142.189,325.494,145.198C330.477,148.205,335.794,150.880,341.442,153.555C344.650,155.233,347.862,156.904,351.077,158.570C365.365,165.927,361.356,172.239,353.041,170.886C334.420,167.510,331.422,168.834,313.480,159.472C311.153,158.468,305.173,155.127,304.164,159.448C302.822,164.435,311.794,168.784,315.449,170.456C322.092,174.134,329.402,178.145,337.385,178.830C339.714,179.170,347.700,178.523,349.024,180.856C351.011,184.188,341.342,192.813,339.340,194.805C336.005,197.790,332.672,200.776,329.338,203.097C324.339,206.410,319.008,209.390,313.350,210.374C302.701,211.678,269.470,196.289,268.502,184.643C267.854,177.988,278.876,161.048,282.885,154.736C286.559,148.757,295.584,132.478,303.568,132.498Z"/>
</g>
<g id="hair">
<path class="path-0" d="M182.005,142.599C199.142,130.201,219.044,128.497,240.092,127.007C249.528,126.320,256.205,132.546,263.625,138.623C269.728,143.963,276.298,149.990,282.778,155.592C292.530,163.964,296.639,168.190,300.306,172.236C303.430,175.330,308.316,181.136,312.180,183.851C316.842,187.125,326.518,203.959,328.614,205.832C322.050,208.270,311.681,210.239,307.014,214.226C308.844,219.999,309.463,229.013,309.556,231.721C303.364,232.339,296.066,229.751,284.550,228.016C282.439,235.267,282.658,241.993,278.180,249.424C270.407,247.313,264.985,245.586,254.886,241.449C248.474,246.847,246.922,246.486,236.432,253.331C229.208,249.211,223.416,244.760,216.415,242.127C209.734,245.223,199.032,246.568,195.482,249.604C191.462,242.686,187.727,235.025,184.371,231.752C174.842,234.009,170.810,236.760,164.113,239.428C159.729,234.045,162.601,229.409,157.677,221.451C153.314,220.413,146.550,218.000,140.989,218.058C144.693,213.456,147.081,198.631,153.521,196.569C161.467,194.025,156.125,185.046,160.806,176.704C161.963,174.535,173.240,157.860,174.215,155.161C176.077,150.501,178.119,145.553,182.005,142.599M267.856,125.867C255.341,116.813,230.505,112.434,216.729,116.082C204.081,119.278,191.720,123.657,180.873,131.156C174.798,135.296,168.121,141.330,164.186,147.553C156.317,159.646,145.211,185.924,138.878,198.127C133.823,208.243,129.024,215.113,124.038,220.668C141.832,226.589,147.048,229.099,152.316,229.753C152.863,237.496,160.178,243.049,159.181,251.638C167.949,250.085,173.128,247.707,180.902,245.534C185.011,250.074,187.935,256.320,191.910,262.411C199.564,260.099,207.460,260.170,214.943,254.503C220.553,257.360,229.461,261.794,238.618,266.493C246.792,261.844,248.562,261.542,256.207,256.274C265.747,258.345,275.864,263.937,285.380,262.656C284.478,254.492,290.377,248.703,289.524,243.473C296.669,241.347,318.812,243.933,322.569,243.507C322.174,237.469,318.526,225.991,319.893,218.746C326.648,216.747,332.356,214.940,342.847,209.545C339.187,202.950,332.726,194.815,327.124,190.014C322.397,186.003,318.490,180.623,313.755,176.437C297.704,162.481,291.007,142.700,267.856,125.867Z"/>
<path class="path-11" d="M240.092,127.007C249.528,126.320,256.205,132.546,263.625,138.623"/>
<path class="path-11" d="M263.625,138.623C269.728,143.963,276.298,149.990,282.778,155.592"/>
<path class="path-11" d="M282.778,155.592C292.530,163.964,296.639,168.190,300.306,172.236"/>
<path class="path-11" d="M300.306,172.236C303.430,175.330,308.316,181.136,312.180,183.851"/>
<path class="path-11" d="M312.180,183.851C316.842,187.125,326.518,203.959,328.614,205.832"/>
<path class="path-11" d="M328.614,205.832C322.050,208.270,311.681,210.239,307.014,214.226"/>
<path class="path-11" d="M307.014,214.226C308.844,219.999,309.463,229.013,309.556,231.721"/>
<path class="path-11" d="M309.556,231.721C303.364,232.339,296.066,229.751,284.550,228.016"/>
<path class="path-11" d="M284.550,228.016C282.439,235.267,282.658,241.993,278.180,249.424"/>
<path class="path-11" d="M278.180,249.424C270.407,247.313,264.985,245.586,254.886,241.449"/>
<path class="path-11" d="M254.886,241.449C248.474,246.847,246.922,246.486,236.432,253.331"/>
<path class="path-11" d="M236.432,253.331C229.208,249.211,223.416,244.760,216.415,242.127"/>
<path class="path-11" d="M216.415,242.127C209.734,245.223,199.032,246.568,195.482,249.604"/>
<path class="path-11" d="M195.482,249.604C191.462,242.686,187.727,235.025,184.371,231.752"/>
<path class="path-11" d="M184.371,231.752C174.842,234.009,170.810,236.760,164.113,239.428"/>
<path class="path-11" d="M164.113,239.428C159.729,234.045,162.601,229.409,157.677,221.451"/>
<path class="path-11" d="M157.677,221.451C153.314,220.413,146.550,218.000,140.989,218.058"/>
<path class="path-11" d="M140.989,218.058C144.693,213.456,147.081,198.631,153.521,196.569"/>
<path class="path-11" d="M153.521,196.569C161.467,194.025,156.125,185.046,160.806,176.704"/>
<path class="path-11" d="M160.806,176.704C161.963,174.535,173.240,157.860,174.215,155.161"/>
<path class="path-11" d="M174.215,155.161C176.077,150.501,178.119,145.553,182.005,142.599"/>
<path class="path-11" d="M182.005,142.599C199.142,130.201,219.044,128.497,240.092,127.007"/>
<path class="path-12" d="M240.092,127.007C249.528,126.320,256.205,132.546,263.625,138.623C269.728,143.963,276.298,149.990,282.778,155.592C292.530,163.964,296.639,168.190,300.306,172.236C303.430,175.330,308.316,181.136,312.180,183.851C316.842,187.125,326.518,203.959,328.614,205.832C322.050,208.270,311.681,210.239,307.014,214.226C308.844,219.999,309.463,229.013,309.556,231.721C303.364,232.339,296.066,229.751,284.550,228.016C282.439,235.267,282.658,241.993,278.180,249.424C270.407,247.313,264.985,245.586,254.886,241.449C248.474,246.847,246.922,246.486,236.432,253.331C229.208,249.211,223.416,244.760,216.415,242.127C209.734,245.223,199.032,246.568,195.482,249.604C191.462,242.686,187.727,235.025,184.371,231.752C174.842,234.009,170.810,236.760,164.113,239.428C159.729,234.045,162.601,229.409,157.677,221.451C153.314,220.413,146.550,218.000,140.989,218.058C144.693,213.456,147.081,198.631,153.521,196.569C161.467,194.025,156.125,185.046,160.806,176.704C161.963,174.535,173.240,157.860,174.215,155.161C176.077,150.501,178.119,145.553,182.005,142.599C199.142,130.201,219.044,128.497,240.092,127.007Z"/>
</g>
<g id="clothes">
<path class="path-0" d="M240.622,373.913C235.968,371.754,217.916,365.065,214.741,369.338C212.161,373.038,216.526,374.367,220.412,374.923C224.024,375.440,242.549,382.256,245.109,380.791C249.752,378.059,242.833,374.825,240.622,373.913M192.735,268.679C196.272,256.199,223.746,244.470,236.644,246.041C245.608,247.107,273.300,262.360,276.923,270.868C279.951,277.676,279.843,302.358,279.789,310.697C279.410,326.002,278.708,341.411,279.921,356.673C281.280,367.299,285.569,377.353,287.568,387.877C287.776,391.576,287.988,400.512,285.048,403.335C278.924,409.798,258.807,410.562,250.878,408.479C221.986,401.724,226.861,393.575,199.173,390.788C195.627,390.294,183.868,392.028,181.530,390.492C177.207,386.876,179.456,380.529,180.793,375.269C184.345,363.339,187.540,355.390,189.685,342.364C192.193,326.478,193.954,309.281,194.699,292.674C194.635,286.693,191.914,272.296,192.735,268.679M272.280,253.628C256.396,243.250,240.764,234.563,220.877,239.363C215.504,240.457,188.365,252.239,185.900,255.463C182.036,260.606,184.874,280.952,184.557,288.234C184.514,296.873,184.420,305.845,183.368,314.106C182.742,320.403,181.140,325.986,180.856,331.966C180.207,338.594,180.368,345.885,178.578,351.835C174.689,364.435,160.101,388.454,174.325,398.976C179.347,402.719,187.510,401.612,194.037,402.684C204.605,404.214,215.575,407.436,226.190,409.629C238.969,412.640,251.062,418.965,264.326,419.764C272.906,420.282,300.893,421.725,305.689,414.015C308.629,409.517,301.908,386.493,300.006,380.725C296.262,370.959,291.264,361.439,289.515,351.127C287.840,339.261,288.328,327.420,289.564,315.152C290.362,305.178,292.470,295.598,292.924,285.274C292.781,280.921,293.669,275.615,291.522,271.175C287.873,263.006,279.417,258.281,272.280,253.628Z"/>
<path class="path-13" d="M240.622,373.913C235.968,371.754,217.916,365.065,214.741,369.338"/>
<path class="path-13" d="M214.741,369.338C212.161,373.038,216.526,374.367,220.412,374.923"/>
<path class="path-13" d="M220.412,374.923C224.024,375.440,242.549,382.256,245.109,380.791"/>
<path class="path-13" d="M245.109,380.791C249.752,378.059,242.833,374.825,240.622,373.913"/>
<path class="path-13" d="M192.735,268.679C196.272,256.199,223.746,244.470,236.644,246.041"/>
<path class="path-13" d="M236.644,246.041C245.608,247.107,273.300,262.360,276.923,270.868"/>
<path class="path-13" d="M276.923,270.868C279.951,277.676,279.843,302.358,279.789,310.697"/>
<path class="path-13" d="M279.789,310.697C279.410,326.002,278.708,341.411,279.921,356.673"/>
<path class="path-13" d="M279.921,356.673C281.280,367.299,285.569,377.353,287.568,387.877"/>
<path class="path-13" d="M287.568,387.877C287.776,391.576,287.988,400.512,285.048,403.335"/>
<path class="path-13" d="M285.048,403.335C278.924,409.798,258.807,410.562,250.878,408.479"/>
<path class="path-13" d="M250.878,408.479C221.986,401.724,226.861,393.575,199.173,390.788"/>
<path class="path-13" d="M199.173,390.788C195.627,390.294,183.868,392.028,181.530,390.492"/>
<path class="path-13" d="M181.530,390.492C177.207,386.876,179.456,380.529,180.793,375.269"/>
<path class="path-13" d="M180.793,375.269C184.345,363.339,187.540,355.390,189.685,342.364"/>
<path class="path-13" d="M189.685,342.364C192.193,326.478,193.954,309.281,194.699,292.674"/>
<path class="path-13" d="M194.699,292.674C194.635,286.693,191.914,272.296,192.735,268.679"/>
<path class="path-14" d="M240.622,373.913C235.968,371.754,217.916,365.065,214.741,369.338C212.161,373.038,216.526,374.367,220.412,374.923C224.024,375.440,242.549,382.256,245.109,380.791C249.752,378.059,242.833,374.825,240.622,373.913M192.735,268.679C196.272,256.199,223.746,244.470,236.644,246.041C245.608,247.107,273.300,262.360,276.923,270.868C279.951,277.676,279.843,302.358,279.789,310.697C279.410,326.002,278.708,341.411,279.921,356.673C281.280,367.299,285.569,377.353,287.568,387.877C287.776,391.576,287.988,400.512,285.048,403.335C278.924,409.798,258.807,410.562,250.878,408.479C221.986,401.724,226.861,393.575,199.173,390.788C195.627,390.294,183.868,392.028,181.530,390.492C177.207,386.876,179.456,380.529,180.793,375.269C184.345,363.339,187.540,355.390,189.685,342.364C192.193,326.478,193.954,309.281,194.699,292.674C194.635,286.693,191.914,272.296,192.735,268.679Z"/>
</g>
<g id="neck">
<path class="path-0" d="M228.901,227.419C229.057,224.078,229.895,221.035,233.531,220.508C245.053,217.896,246.054,255.491,235.423,256.057C225.456,256.588,228.573,233.765,228.901,227.419M233.036,211.207C230.362,211.015,227.407,211.838,225.152,213.292C216.096,218.437,217.885,227.005,218.344,235.642C218.241,239.980,218.787,243.949,216.988,247.709C215.504,251.120,211.028,254.689,211.222,258.345C212.085,268.294,238.996,266.862,245.956,266.158C248.613,266.016,257.635,266.535,258.438,262.829C258.385,261.832,251.122,250.556,249.878,245.959C246.146,232.164,254.353,211.072,233.036,211.207Z"/>
<path class="path-15" d="M233.531,220.508C245.053,217.896,246.054,255.491,235.423,256.057"/>
<path class="path-15" d="M235.423,256.057C225.456,256.588,228.573,233.765,228.901,227.419"/>
<path class="path-15" d="M228.901,227.419C229.057,224.078,229.895,221.035,233.531,220.508"/>
<path class="path-16" d="M233.531,220.508C245.053,217.896,246.054,255.491,235.423,256.057C225.456,256.588,228.573,233.765,228.901,227.419C229.057,224.078,229.895,221.035,233.531,220.508Z"/>
</g>
<g id="layer_head">
<g id="right_ear">
<path class="path-0" d="M149.022,197.831C134.533,198.667,119.406,164.245,140.860,165.535C144.373,165.746,147.282,171.648,147.879,174.263C150.071,183.854,159.371,197.234,149.022,197.831M146.366,153.963C143.046,151.967,138.960,151.292,135.407,152.838C124.533,155.631,118.753,168.482,120.685,179.601C122.981,192.024,136.816,205.745,148.341,207.992C151.384,208.601,157.662,210.696,160.550,209.148C167.190,205.041,160.349,194.788,158.368,188.991C156.390,182.767,151.109,158.052,146.366,153.963Z"/>
<path class="path-15" d="M140.860,165.535C144.373,165.746,147.282,171.648,147.879,174.263"/>
<path class="path-15" d="M147.879,174.263C150.071,183.854,159.371,197.234,149.022,197.831"/>
<path class="path-15" d="M149.022,197.831C134.533,198.667,119.406,164.245,140.860,165.535"/>
<path class="path-16" d="M140.860,165.535C144.373,165.746,147.282,171.648,147.879,174.263C150.071,183.854,159.371,197.234,149.022,197.831C134.533,198.667,119.406,164.245,140.860,165.535Z"/>
</g>
<g id="face_Mask">
<g id="face">
<path class="path-0" d="M164.661,109.090C173.174,98.662,205.961,91.561,219.606,89.600C234.915,87.643,250.546,90.012,265.505,94.707C270.824,96.386,278.473,98.398,283.118,102.072C291.074,108.414,296.114,119.705,298.962,129.056C301.222,135.844,305.309,144.971,303.434,151.467C294.937,180.900,290.892,194.480,284.982,202.700C277.674,212.863,264.469,216.615,252.927,221.178C241.150,225.640,229.204,227.122,223.020,226.739C210.682,225.976,184.126,219.777,175.045,212.192C164.277,202.852,163.174,188.672,158.855,175.722C156.359,168.946,152.185,158.782,150.857,151.833C148.924,140.770,157.654,117.593,164.661,109.090M287.156,94.407C273.572,82.149,237.309,79.248,219.669,81.847C211.346,82.816,203.359,83.454,195.701,85.425C190.037,87.073,185.035,89.719,179.703,91.368C168.046,95.663,163.238,94.211,155.380,104.956C149.738,112.477,140.822,142.151,141.823,151.340C142.696,158.228,150.093,173.498,152.504,181.212C155.629,191.420,157.984,206.094,164.531,214.043C171.854,222.676,181.836,227.214,197.141,231.378C208.434,234.451,220.945,235.472,232.996,235.731C237.532,236.107,245.970,233.552,258.167,228.482C270.247,223.283,283.558,218.916,291.875,207.608C301.745,194.191,305.649,172.187,313.977,150.084C320.920,131.659,295.618,101.878,287.156,94.407Z"/>
<path class="path-15" d="M219.606,89.600C234.915,87.643,250.546,90.012,265.505,94.707"/>
<path class="path-15" d="M265.505,94.707C270.824,96.386,278.473,98.398,283.118,102.072"/>
<path class="path-15" d="M283.118,102.072C291.074,108.414,296.114,119.705,298.962,129.056"/>
<path class="path-15" d="M298.962,129.056C301.222,135.844,305.309,144.971,303.434,151.467"/>
<path class="path-15" d="M303.434,151.467C294.937,180.900,290.892,194.480,284.982,202.700"/>
<path class="path-15" d="M284.982,202.700C277.674,212.863,264.469,216.615,252.927,221.178"/>
<path class="path-15" d="M252.927,221.178C241.150,225.640,229.204,227.122,223.020,226.739"/>
<path class="path-15" d="M223.020,226.739C210.682,225.976,184.126,219.777,175.045,212.192"/>
<path class="path-15" d="M175.045,212.192C164.277,202.852,163.174,188.672,158.855,175.722"/>
<path class="path-15" d="M158.855,175.722C156.359,168.946,152.185,158.782,150.857,151.833"/>
<path class="path-15" d="M150.857,151.833C148.924,140.770,157.654,117.593,164.661,109.090"/>
<path class="path-15" d="M164.661,109.090C173.174,98.662,205.961,91.561,219.606,89.600"/>
<path class="path-16" d="M219.606,89.600C234.915,87.643,250.546,90.012,265.505,94.707C270.824,96.386,278.473,98.398,283.118,102.072C291.074,108.414,296.114,119.705,298.962,129.056C301.222,135.844,305.309,144.971,303.434,151.467C294.937,180.900,290.892,194.480,284.982,202.700C277.674,212.863,264.469,216.615,252.927,221.178C241.150,225.640,229.204,227.122,223.020,226.739C210.682,225.976,184.126,219.777,175.045,212.192C164.277,202.852,163.174,188.672,158.855,175.722C156.359,168.946,152.185,158.782,150.857,151.833C148.924,140.770,157.654,117.593,164.661,109.090C173.174,98.662,205.961,91.561,219.606,89.600Z"/>
</g>
</g>
<mask id="mask_target" style="mask-type:alpha;">
<use xlink:href="#face_Mask"/>
</mask>
<g id="mouse">
<path class="path-0" d="M230.348,218.459C235.549,219.576,235.620,224.329,235.145,224.835C234.877,225.121,233.757,224.167,230.798,223.672C225.195,222.736,222.486,223.902,222.290,223.187C222.076,222.403,224.258,217.151,230.348,218.459Z"/>
</g>
<g id="layer_eyes_Mtarget" mask="url(#mask_target)">
<g id="eyes">
<mask style="mask-type:alpha;" id="f3906406-f197-4bf1-91d8-744c09cca836">
<use xlink:href="#cmn_f3906406-f197-4bf1-91d8-744c09cca836"/>
</mask>
<g id="cmn_f3906406-f197-4bf1-91d8-744c09cca836">
<path class="path-0" d="M207.942,178.332C209.629,191.183,201.226,199.622,188.376,196.231C180.909,194.043,177.542,188.524,174.905,181.829C173.349,178.298,165.821,162.146,171.528,164.034C176.167,165.568,207.331,173.675,207.942,178.332M214.597,181.427C215.486,179.921,216.754,177.651,216.507,175.920C216.231,173.987,214.645,170.908,212.680,170.656C207.348,169.851,188.605,163.622,181.843,161.107C175.117,158.768,161.649,150.619,157.330,157.443C155.674,159.935,159.588,160.647,160.937,164.594C167.368,183.410,173.223,200.991,193.625,201.965C211.286,202.808,210.120,189.010,214.597,181.427M257.295,191.329C250.200,191.180,240.840,185.775,240.914,174.716C240.936,171.385,254.412,166.147,260.456,162.930C266.391,159.771,277.693,153.375,280.773,153.469C284.258,153.996,282.494,157.084,282.517,166.713C282.551,180.989,270.238,191.602,257.295,191.329M288.614,173.048C291.585,160.988,292.020,144.849,289.676,143.802C284.688,141.574,271.990,150.898,264.566,154.296C254.846,158.745,239.396,168.119,232.709,170.258C230.772,170.956,229.024,171.502,228.762,172.903C228.241,175.682,233.509,177.502,235.303,179.686C238.475,183.550,239.466,190.596,244.691,193.454C254.585,199.270,262.058,197.038,272.943,192.106C281.413,188.308,286.523,181.537,288.614,173.048Z"/>
<path class="path-17" d="M280.773,153.469C284.258,153.996,282.494,157.084,282.517,166.713"/>
<path class="path-17" d="M282.517,166.713C282.551,180.989,270.238,191.602,257.295,191.329"/>
<path class="path-17" d="M257.295,191.329C250.200,191.180,240.840,185.775,240.914,174.716"/>
<path class="path-17" d="M240.914,174.716C240.936,171.385,254.412,166.147,260.456,162.930"/>
<path class="path-17" d="M260.456,162.930C266.391,159.771,277.693,153.375,280.773,153.469"/>
<path class="path-18" d="M280.773,153.469C284.258,153.996,282.494,157.084,282.517,166.713C282.551,180.989,270.238,191.602,257.295,191.329C250.200,191.180,240.840,185.775,240.914,174.716C240.936,171.385,254.412,166.147,260.456,162.930C266.391,159.771,277.693,153.375,280.773,153.469Z"/>
<path class="path-17" d="M171.528,164.034C176.167,165.568,207.331,173.675,207.942,178.332"/>
<path class="path-17" d="M207.942,178.332C209.629,191.183,201.226,199.622,188.376,196.231"/>
<path class="path-17" d="M188.376,196.231C180.909,194.043,177.542,188.524,174.905,181.829"/>
<path class="path-17" d="M174.905,181.829C173.349,178.298,165.821,162.146,171.528,164.034"/>
<path class="path-18" d="M171.528,164.034C176.167,165.568,207.331,173.675,207.942,178.332C209.629,191.183,201.226,199.622,188.376,196.231C180.909,194.043,177.542,188.524,174.905,181.829C173.349,178.298,165.821,162.146,171.528,164.034Z"/>
</g>
</g>
<g id="pupil">
<path class="path-0" d="M247.444,167.696C249.720,167.131,252.924,170.283,253.759,178.700C254.387,185.033,252.704,187.627,250.951,187.823C249.050,188.036,247.411,185.441,246.146,178.661C244.795,171.425,245.464,168.188,247.444,167.696Z" mask="url(#f3906406-f197-4bf1-91d8-744c09cca836)"/>
<path class="path-0" d="M200.017,170.794C202.366,170.468,204.254,174.327,204.825,183.143C205.147,188.112,204.577,190.134,203.279,190.450C201.723,190.828,199.637,188.863,198.217,183.066C196.249,175.035,197.819,171.099,200.017,170.794Z" mask="url(#f3906406-f197-4bf1-91d8-744c09cca836)"/>
</g>
</g>
<g id="hat">
<path class="path-0" d="M303.008,127.128C305.005,128.458,307.988,130.800,308.316,133.464C309.634,139.789,298.656,139.106,295.326,139.432C288.678,139.417,281.729,139.203,275.379,139.374C270.283,139.975,265.183,140.530,260.076,141.034C251.782,141.206,243.495,140.952,235.201,140.873C220.581,141.307,205.974,140.834,191.346,140.743C190.048,140.788,150.562,145.271,143.938,141.616C135.268,136.933,144.285,130.272,143.960,125.935C143.967,122.283,136.008,121.267,138.014,114.968C140.017,109.004,161.240,105.064,167.543,103.751C179.846,101.122,192.483,97.501,205.450,95.546C223.720,92.944,242.633,93.339,261.230,91.731C273.609,90.762,302.015,98.776,307.373,111.503C312.025,122.143,295.402,112.146,293.409,111.477C292.020,110.434,287.148,108.321,288.201,111.446C289.229,117.137,298.985,123.780,303.008,127.128M185.690,91.137C175.335,93.665,165.699,95.379,155.706,97.682C151.379,98.667,146.059,101.302,142.068,98.985C133.093,94.019,142.829,71.091,147.164,65.126C161.523,45.873,192.511,37.690,217.756,37.694C262.709,37.701,280.306,44.558,295.229,59.589C299.874,63.931,316.426,85.622,307.756,91.589C304.424,93.574,298.447,89.573,295.458,88.233C285.160,83.878,243.702,76.975,185.690,91.137M243.961,27.204C236.875,26.822,235.175,25.443,227.737,26.083C196.453,29.261,154.252,30.577,135.539,60.785C129.526,70.741,129.483,82.041,127.453,92.672C125.764,101.300,120.762,107.926,121.729,116.562C122.703,123.555,125.699,125.226,128.007,130.562C130.644,136.229,129.291,138.889,130.939,142.556C134.550,153.223,144.211,152.687,153.531,152.630C158.379,152.601,176.266,152.507,186.009,152.357C197.916,152.174,213.791,151.803,225.695,151.455C234.839,151.189,247.030,150.815,256.167,150.379C264.564,149.979,275.764,149.427,284.140,148.703C294.397,147.815,317.047,146.045,318.236,144.803C320.373,142.612,324.289,121.245,324.303,117.260C324.314,113.927,322.661,110.590,322.681,105.257C322.402,90.642,322.116,77.024,313.869,63.374C298.692,38.741,271.149,29.359,243.961,27.204Z"/>
<path class="path-19" d="M261.230,91.731C273.609,90.762,302.015,98.776,307.373,111.503"/>
<path class="path-19" d="M307.373,111.503C312.025,122.143,295.402,112.146,293.409,111.477"/>
<path class="path-19" d="M293.409,111.477C292.020,110.434,287.148,108.321,288.201,111.446"/>
<path class="path-19" d="M288.201,111.446C289.229,117.137,298.985,123.780,303.008,127.128"/>
<path class="path-19" d="M303.008,127.128C305.005,128.458,307.988,130.800,308.316,133.464"/>
<path class="path-19" d="M308.316,133.464C309.634,139.789,298.656,139.106,295.326,139.432"/>
<path class="path-19" d="M295.326,139.432C288.678,139.417,281.729,139.203,275.379,139.374"/>
<path class="path-19" d="M275.379,139.374C270.283,139.975,265.183,140.530,260.076,141.034"/>
<path class="path-19" d="M260.076,141.034C251.782,141.206,243.495,140.952,235.201,140.873"/>
<path class="path-19" d="M235.201,140.873C220.581,141.307,205.974,140.834,191.346,140.743"/>
<path class="path-19" d="M191.346,140.743C190.048,140.788,150.562,145.271,143.938,141.616"/>
<path class="path-19" d="M143.938,141.616C135.268,136.933,144.285,130.272,143.960,125.935"/>
<path class="path-19" d="M143.960,125.935C143.967,122.283,136.008,121.267,138.014,114.968"/>
<path class="path-19" d="M138.014,114.968C140.017,109.004,161.240,105.064,167.543,103.751"/>
<path class="path-19" d="M167.543,103.751C179.846,101.122,192.483,97.501,205.450,95.546"/>
<path class="path-19" d="M205.450,95.546C223.720,92.944,242.633,93.339,261.230,91.731"/>
<path class="path-20" d="M261.230,91.731C273.609,90.762,302.015,98.776,307.373,111.503C312.025,122.143,295.402,112.146,293.409,111.477C292.020,110.434,287.148,108.321,288.201,111.446C289.229,117.137,298.985,123.780,303.008,127.128C305.005,128.458,307.988,130.800,308.316,133.464C309.634,139.789,298.656,139.106,295.326,139.432C288.678,139.417,281.729,139.203,275.379,139.374C270.283,139.975,265.183,140.530,260.076,141.034C251.782,141.206,243.495,140.952,235.201,140.873C220.581,141.307,205.974,140.834,191.346,140.743C190.048,140.788,150.562,145.271,143.938,141.616C135.268,136.933,144.285,130.272,143.960,125.935C143.967,122.283,136.008,121.267,138.014,114.968C140.017,109.004,161.240,105.064,167.543,103.751C179.846,101.122,192.483,97.501,205.450,95.546C223.720,92.944,242.633,93.339,261.230,91.731Z"/>
<path class="path-9" d="M217.756,37.694C262.709,37.701,280.306,44.558,295.229,59.589"/>
<path class="path-9" d="M295.229,59.589C299.874,63.931,316.426,85.622,307.756,91.589"/>
<path class="path-9" d="M307.756,91.589C304.424,93.574,298.447,89.573,295.458,88.233"/>
<path class="path-9" d="M295.458,88.233C285.160,83.878,243.702,76.975,185.690,91.137"/>
<path class="path-9" d="M185.690,91.137C175.335,93.665,165.699,95.379,155.706,97.682"/>
<path class="path-9" d="M155.706,97.682C151.379,98.667,146.059,101.302,142.068,98.985"/>
<path class="path-9" d="M142.068,98.985C133.093,94.019,142.829,71.091,147.164,65.126"/>
<path class="path-9" d="M147.164,65.126C161.523,45.873,192.511,37.690,217.756,37.694"/>
<path class="path-10" d="M217.756,37.694C262.709,37.701,280.306,44.558,295.229,59.589C299.874,63.931,316.426,85.622,307.756,91.589C304.424,93.574,298.447,89.573,295.458,88.233C285.160,83.878,243.702,76.975,185.690,91.137C175.335,93.665,165.699,95.379,155.706,97.682C151.379,98.667,146.059,101.302,142.068,98.985C133.093,94.019,142.829,71.091,147.164,65.126C161.523,45.873,192.511,37.690,217.756,37.694Z"/>
</g>
<g id="left_ear">
<path class="path-0" d="M302.338,191.717C301.230,187.857,310.894,163.561,312.525,161.313C317.483,154.476,329.169,164.911,330.207,171.429C331.329,179.556,319.593,187.595,312.936,192.391C308.046,195.801,303.765,196.684,302.338,191.717M338.603,175.426C340.246,162.752,329.194,145.969,316.841,148.823C303.759,151.844,302.599,169.301,298.609,179.674C296.964,184.314,294.272,188.943,293.634,193.583C292.355,201.880,295.800,209.099,305.070,207.041C318.343,203.951,336.306,189.723,338.603,175.426Z"/>
<path class="path-15" d="M312.525,161.313C317.483,154.476,329.169,164.911,330.207,171.429"/>
<path class="path-15" d="M330.207,171.429C331.329,179.556,319.593,187.595,312.936,192.391"/>
<path class="path-15" d="M312.936,192.391C308.046,195.801,303.765,196.684,302.338,191.717"/>
<path class="path-15" d="M302.338,191.717C301.230,187.857,310.894,163.561,312.525,161.313"/>
<path class="path-16" d="M312.525,161.313C317.483,154.476,329.169,164.911,330.207,171.429C331.329,179.556,319.593,187.595,312.936,192.391C308.046,195.801,303.765,196.684,302.338,191.717C301.230,187.857,310.894,163.561,312.525,161.313Z"/>
</g>
<g id="earrings">
<path class="path-0" d="M323.094,209.517C314.167,212.512,312.719,192.682,316.524,193.317C321.766,195.536,325.655,205.587,323.094,209.517M331.679,202.087C324.792,200.818,322.500,192.260,322.319,188.280C329.905,190.701,339.111,197.356,331.679,202.087M339.637,197.056C337.372,189.342,326.535,183.839,319.017,181.033C316.755,180.189,311.525,188.588,311.146,191.099C309.950,194.968,308.545,217.391,322.039,215.677C327.536,214.731,341.468,203.297,339.637,197.056Z"/>
<path class="path-21" d="M322.319,188.280C329.905,190.701,339.111,197.356,331.679,202.087"/>
<path class="path-21" d="M331.679,202.087C324.792,200.818,322.500,192.260,322.319,188.280"/>
<path class="path-22" d="M322.319,188.280C329.905,190.701,339.111,197.356,331.679,202.087C324.792,200.818,322.500,192.260,322.319,188.280Z"/>
<path class="path-21" d="M316.524,193.317C321.766,195.536,325.655,205.587,323.094,209.517"/>
<path class="path-21" d="M323.094,209.517C314.167,212.512,312.719,192.682,316.524,193.317"/>
<path class="path-22" d="M316.524,193.317C321.766,195.536,325.655,205.587,323.094,209.517C314.167,212.512,312.719,192.682,316.524,193.317Z"/>
</g>
</g>
<g id="jacket">
<path class="path-0" d="M203.874,273.816C206.233,278.307,202.619,288.384,202.265,293.022C198.916,310.126,194.024,326.472,194.087,343.496C194.234,347.844,193.776,355.719,191.295,360.127C189.868,362.662,186.322,365.364,184.193,366.725C181.144,368.622,179.405,360.905,178.598,358.374C177.541,355.061,178.216,347.479,178.458,344.925C179.259,339.857,181.731,330.092,182.004,323.625C182.319,317.294,179.598,310.894,179.981,303.914C179.839,298.248,179.947,291.501,179.854,285.179C180.509,281.639,181.696,279.564,181.902,277.028C181.849,272.140,183.439,270.490,188.099,269.996C192.839,269.831,202.600,268.507,203.874,273.816M261.214,284.253C263.188,281.324,286.498,267.025,289.626,265.880C299.641,262.743,301.925,274.959,300.815,281.036C299.764,287.247,287.325,307.938,289.572,311.862C291.336,315.407,295.823,314.739,298.997,315.950C310.168,320.846,304.002,318.093,313.667,319.368C318.676,320.062,330.326,320.193,333.816,323.715C335.356,325.465,335.287,331.025,335.945,333.110C337.431,339.824,341.822,348.049,334.103,354.557C333.471,355.239,327.624,362.520,326.370,363.505C313.823,372.308,294.234,377.641,280.837,368.058C277.140,365.099,275.616,359.523,273.398,354.958C266.172,340.688,261.082,325.391,259.244,309.437C258.161,302.598,257.796,290.690,261.214,284.253M277.795,261.635C274.729,264.326,268.403,268.132,266.303,268.906C259.184,271.106,258.245,263.070,257.973,257.844C257.892,252.847,261.070,245.853,264.324,241.843C267.114,238.405,271.706,233.971,276.549,233.574C282.431,232.881,292.069,239.154,290.668,245.747C290.186,249.009,282.405,257.588,277.795,261.635M198.354,238.655C203.218,243.774,207.587,249.056,204.897,252.919C202.429,256.461,199.302,257.471,191.805,258.360C180.178,259.739,173.390,242.922,177.791,236.491C181.293,231.372,192.404,232.393,198.354,238.655M357.321,321.088C353.898,314.566,348.123,312.412,340.871,309.852C333.775,307.425,325.071,306.711,317.611,306.542C312.994,306.556,310.466,307.972,305.989,305.279C300.358,302.024,297.847,295.871,297.478,289.641C297.088,285.821,301.130,266.557,301.793,263.116C301.938,259.377,303.507,255.821,303.476,252.377C303.566,248.485,304.286,244.415,303.260,240.659C301.901,234.267,295.540,230.922,290.713,227.522C284.007,223.369,278.061,221.673,270.097,222.963C260.852,224.472,256.846,234.156,253.757,240.698C249.113,250.533,250.457,265.876,249.721,276.728C249.305,282.872,249.101,291.449,249.139,297.246C248.936,319.532,261.269,374.327,282.621,381.209C288.014,383.341,324.718,379.099,333.556,372.601C338.315,369.140,339.689,366.503,343.886,362.614C349.414,357.877,352.652,343.643,355.047,334.635C356.178,330.879,358.655,323.632,357.321,321.088M210.471,236.734C206.863,230.728,200.835,220.751,193.659,220.522C187.787,220.524,178.860,221.817,173.654,225.104C170.216,227.275,165.345,231.396,164.955,235.495C164.259,241.404,166.065,248.499,168.666,253.294C170.496,256.668,175.685,259.204,177.556,262.494C178.393,264.063,179.836,272.621,180.151,274.801C181.832,284.522,177.809,294.719,176.624,303.231C175.604,310.557,173.925,320.279,172.873,327.601C171.623,336.300,169.704,347.082,169.007,356.639C168.661,359.353,168.926,365.437,169.519,369.145C170.028,372.329,170.730,378.166,172.412,379.497C173.347,380.237,184.476,382.775,188.766,380.380C193.794,377.573,196.143,374.664,197.599,363.337C199.011,350.406,204.193,339.551,205.756,326.488C207.465,309.107,214.621,281.612,214.650,269.801C214.665,263.854,216.144,259.933,215.060,251.629C214.472,247.976,212.879,240.742,210.471,236.734Z"/>
<path class="path-1" d="M289.626,265.880C299.641,262.743,301.925,274.959,300.815,281.036"/>
<path class="path-1" d="M300.815,281.036C299.764,287.247,287.325,307.938,289.572,311.862"/>
<path class="path-1" d="M289.572,311.862C291.336,315.407,295.823,314.739,298.997,315.950"/>
<path class="path-1" d="M298.997,315.950C310.168,320.846,304.002,318.093,313.667,319.368"/>
<path class="path-1" d="M313.667,319.368C318.676,320.062,330.326,320.193,333.816,323.715"/>
<path class="path-1" d="M333.816,323.715C335.356,325.465,335.287,331.025,335.945,333.110"/>
<path class="path-1" d="M335.945,333.110C337.431,339.824,341.822,348.049,334.103,354.557"/>
<path class="path-1" d="M334.103,354.557C333.471,355.239,327.624,362.520,326.370,363.505"/>
<path class="path-1" d="M326.370,363.505C313.823,372.308,294.234,377.641,280.837,368.058"/>
<path class="path-1" d="M280.837,368.058C277.140,365.099,275.616,359.523,273.398,354.958"/>
<path class="path-1" d="M273.398,354.958C266.172,340.688,261.082,325.391,259.244,309.437"/>
<path class="path-1" d="M259.244,309.437C258.161,302.598,257.796,290.690,261.214,284.253"/>
<path class="path-1" d="M261.214,284.253C263.188,281.324,286.498,267.025,289.626,265.880"/>
<path class="path-2" d="M289.626,265.880C299.641,262.743,301.925,274.959,300.815,281.036C299.764,287.247,287.325,307.938,289.572,311.862C291.336,315.407,295.823,314.739,298.997,315.950C310.168,320.846,304.002,318.093,313.667,319.368C318.676,320.062,330.326,320.193,333.816,323.715C335.356,325.465,335.287,331.025,335.945,333.110C337.431,339.824,341.822,348.049,334.103,354.557C333.471,355.239,327.624,362.520,326.370,363.505C313.823,372.308,294.234,377.641,280.837,368.058C277.140,365.099,275.616,359.523,273.398,354.958C266.172,340.688,261.082,325.391,259.244,309.437C258.161,302.598,257.796,290.690,261.214,284.253C263.188,281.324,286.498,267.025,289.626,265.880Z"/>
<path class="path-1" d="M188.099,269.996C192.839,269.831,202.600,268.507,203.874,273.816"/>
<path class="path-1" d="M203.874,273.816C206.233,278.307,202.619,288.384,202.265,293.022"/>
<path class="path-1" d="M202.265,293.022C198.916,310.126,194.024,326.472,194.087,343.496"/>
<path class="path-1" d="M194.087,343.496C194.234,347.844,193.776,355.719,191.295,360.127"/>
<path class="path-1" d="M191.295,360.127C189.868,362.662,186.322,365.364,184.193,366.725"/>
<path class="path-1" d="M184.193,366.725C181.144,368.622,179.405,360.905,178.598,358.374"/>
<path class="path-1" d="M178.598,358.374C177.541,355.061,178.216,347.479,178.458,344.925"/>
<path class="path-1" d="M178.458,344.925C179.259,339.857,181.731,330.092,182.004,323.625"/>
<path class="path-1" d="M182.004,323.625C182.319,317.294,179.598,310.894,179.981,303.914"/>
<path class="path-1" d="M179.981,303.914C179.839,298.248,179.947,291.501,179.854,285.179"/>
<path class="path-1" d="M179.854,285.179C180.509,281.639,181.696,279.564,181.902,277.028"/>
<path class="path-1" d="M181.902,277.028C181.849,272.140,183.439,270.490,188.099,269.996"/>
<path class="path-2" d="M188.099,269.996C192.839,269.831,202.600,268.507,203.874,273.816C206.233,278.307,202.619,288.384,202.265,293.022C198.916,310.126,194.024,326.472,194.087,343.496C194.234,347.844,193.776,355.719,191.295,360.127C189.868,362.662,186.322,365.364,184.193,366.725C181.144,368.622,179.405,360.905,178.598,358.374C177.541,355.061,178.216,347.479,178.458,344.925C179.259,339.857,181.731,330.092,182.004,323.625C182.319,317.294,179.598,310.894,179.981,303.914C179.839,298.248,179.947,291.501,179.854,285.179C180.509,281.639,181.696,279.564,181.902,277.028C181.849,272.140,183.439,270.490,188.099,269.996Z"/>
<path class="path-1" d="M276.549,233.574C282.431,232.881,292.069,239.154,290.668,245.747"/>
<path class="path-1" d="M290.668,245.747C290.186,249.009,282.405,257.588,277.795,261.635"/>
<path class="path-1" d="M277.795,261.635C274.729,264.326,268.403,268.132,266.303,268.906"/>
<path class="path-1" d="M266.303,268.906C259.184,271.106,258.245,263.070,257.973,257.844"/>
<path class="path-1" d="M257.973,257.844C257.892,252.847,261.070,245.853,264.324,241.843"/>
<path class="path-1" d="M264.324,241.843C267.114,238.405,271.706,233.971,276.549,233.574"/>
<path class="path-2" d="M276.549,233.574C282.431,232.881,292.069,239.154,290.668,245.747C290.186,249.009,282.405,257.588,277.795,261.635C274.729,264.326,268.403,268.132,266.303,268.906C259.184,271.106,258.245,263.070,257.973,257.844C257.892,252.847,261.070,245.853,264.324,241.843C267.114,238.405,271.706,233.971,276.549,233.574Z"/>
<path class="path-1" d="M198.354,238.655C203.218,243.774,207.587,249.056,204.897,252.919"/>
<path class="path-1" d="M204.897,252.919C202.429,256.461,199.302,257.471,191.805,258.360"/>
<path class="path-1" d="M191.805,258.360C180.178,259.739,173.390,242.922,177.791,236.491"/>
<path class="path-1" d="M177.791,236.491C181.293,231.372,192.404,232.393,198.354,238.655"/>
<path class="path-2" d="M198.354,238.655C203.218,243.774,207.587,249.056,204.897,252.919C202.429,256.461,199.302,257.471,191.805,258.360C180.178,259.739,173.390,242.922,177.791,236.491C181.293,231.372,192.404,232.393,198.354,238.655Z"/>
</g>
<g id="left_arm">
<path class="path-0" d="M324.925,462.712C324.133,458.100,328.558,454.568,334.520,454.546C338.693,454.498,356.706,452.796,360.049,455.379C365.891,459.444,363.200,470.658,357.032,473.973C347.602,478.499,326.690,472.372,324.925,462.712M284.507,284.748C284.797,281.446,291.307,269.929,296.460,270.129C299.452,270.245,301.729,274.917,303.189,277.357C307.298,285.061,311.507,293.077,315.311,301.186C325.547,322.485,333.175,344.395,342.016,365.884C345.422,374.829,348.573,386.657,353.043,394.540C357.938,402.940,362.818,399.858,366.241,405.399C367.895,408.227,368.143,413.864,370.787,418.186C374.802,425.000,380.972,428.139,384.274,432.365C386.304,434.759,387.204,437.171,383.867,438.813C382.075,440.451,376.619,442.123,374.590,442.896C367.335,443.653,360.005,444.434,352.737,443.881C343.710,443.580,317.414,441.994,312.170,436.707C303.539,427.698,312.489,414.556,312.414,404.472C312.626,401.420,310.536,357.478,309.466,354.670C307.753,348.052,303.071,342.838,300.297,336.207C296.982,327.085,293.512,317.326,290.392,307.758C287.973,299.825,283.319,293.751,284.507,284.748M306.185,258.549C303.059,254.383,294.366,247.514,288.713,249.896C284.042,252.101,284.463,258.112,284.523,262.159C284.677,272.277,284.205,280.818,285.935,290.309C286.860,297.242,288.655,303.340,290.497,309.768C292.787,318.710,294.101,336.514,296.190,346.831C297.804,356.319,301.644,365.794,302.238,374.098C303.221,393.711,297.472,413.258,300.936,432.497C302.360,442.303,304.989,441.917,308.421,449.427C310.931,455.113,310.520,461.562,313.636,466.824C321.713,480.780,340.793,491.793,357.107,486.065C372.151,480.855,370.373,463.968,377.312,453.884C383.409,444.930,398.469,446.778,399.250,438.260C400.222,431.059,389.427,425.006,385.189,420.130C377.093,411.370,382.632,408.420,378.459,401.392C375.413,396.189,368.005,391.829,363.389,385.426C360.735,382.284,357.982,376.184,355.696,371.966C351.029,362.508,346.345,351.517,342.699,341.137C338.785,329.215,336.160,318.461,330.489,306.536C325.900,296.568,312.260,265.895,306.185,258.549Z"/>
<path class="path-1" d="M296.460,270.129C299.452,270.245,301.729,274.917,303.189,277.357"/>
<path class="path-1" d="M303.189,277.357C307.298,285.061,311.507,293.077,315.311,301.186"/>
<path class="path-1" d="M315.311,301.186C325.547,322.485,333.175,344.395,342.016,365.884"/>
<path class="path-1" d="M342.016,365.884C345.422,374.829,348.573,386.657,353.043,394.540"/>
<path class="path-1" d="M353.043,394.540C357.938,402.940,362.818,399.858,366.241,405.399"/>
<path class="path-1" d="M366.241,405.399C367.895,408.227,368.143,413.864,370.787,418.186"/>
<path class="path-1" d="M370.787,418.186C374.802,425.000,380.972,428.139,384.274,432.365"/>
<path class="path-1" d="M384.274,432.365C386.304,434.759,387.204,437.171,383.867,438.813"/>
<path class="path-1" d="M383.867,438.813C382.075,440.451,376.619,442.123,374.590,442.896"/>
<path class="path-1" d="M374.590,442.896C367.335,443.653,360.005,444.434,352.737,443.881"/>
<path class="path-1" d="M352.737,443.881C343.710,443.580,317.414,441.994,312.170,436.707"/>
<path class="path-1" d="M312.170,436.707C303.539,427.698,312.489,414.556,312.414,404.472"/>
<path class="path-1" d="M312.414,404.472C312.626,401.420,310.536,357.478,309.466,354.670"/>
<path class="path-1" d="M309.466,354.670C307.753,348.052,303.071,342.838,300.297,336.207"/>
<path class="path-1" d="M300.297,336.207C296.982,327.085,293.512,317.326,290.392,307.758"/>
<path class="path-1" d="M290.392,307.758C287.973,299.825,283.319,293.751,284.507,284.748"/>
<path class="path-1" d="M284.507,284.748C284.797,281.446,291.307,269.929,296.460,270.129"/>
<path class="path-2" d="M296.460,270.129C299.452,270.245,301.729,274.917,303.189,277.357C307.298,285.061,311.507,293.077,315.311,301.186C325.547,322.485,333.175,344.395,342.016,365.884C345.422,374.829,348.573,386.657,353.043,394.540C357.938,402.940,362.818,399.858,366.241,405.399C367.895,408.227,368.143,413.864,370.787,418.186C374.802,425.000,380.972,428.139,384.274,432.365C386.304,434.759,387.204,437.171,383.867,438.813C382.075,440.451,376.619,442.123,374.590,442.896C367.335,443.653,360.005,444.434,352.737,443.881C343.710,443.580,317.414,441.994,312.170,436.707C303.539,427.698,312.489,414.556,312.414,404.472C312.626,401.420,310.536,357.478,309.466,354.670C307.753,348.052,303.071,342.838,300.297,336.207C296.982,327.085,293.512,317.326,290.392,307.758C287.973,299.825,283.319,293.751,284.507,284.748C284.797,281.446,291.307,269.929,296.460,270.129Z"/>
<path class="path-15" d="M334.520,454.546C338.693,454.498,356.706,452.796,360.049,455.379"/>
<path class="path-15" d="M360.049,455.379C365.891,459.444,363.200,470.658,357.032,473.973"/>
<path class="path-15" d="M357.032,473.973C347.602,478.499,326.690,472.372,324.925,462.712"/>
<path class="path-15" d="M324.925,462.712C324.133,458.100,328.558,454.568,334.520,454.546"/>
<path class="path-16" d="M334.520,454.546C338.693,454.498,356.706,452.796,360.049,455.379C365.891,459.444,363.200,470.658,357.032,473.973C347.602,478.499,326.690,472.372,324.925,462.712C324.133,458.100,328.558,454.568,334.520,454.546Z"/>
</g>
<g id="bone">
<g id="bone_B20">
<path class="path-23" d="M222.601,137.733C220.638,125.918,218.674,114.103,216.710,102.288"/>
</g>
<g id="bone_">
<path class="path-23" d="M552.381,338.786C554.476,314.896,556.571,291.006,558.666,267.116"/>
</g>
<g id="bone_">
<path class="path-23" d="M496.479,337.308C496.479,313.696,496.479,290.084,496.479,266.472"/>
</g>
<g id="bone_">
<path class="path-23" d="M436.410,337.308C434.725,313.756,433.039,290.204,431.353,266.653"/>
</g>
<g id="bone_">
<path class="path-23" d="M604.616,215.385C587.232,199.405,569.849,183.426,552.466,167.446"/>
</g>
<g id="bone_">
<path class="path-23" d="M436.410,216.411C413.208,212.033,390.005,207.655,366.802,203.278"/>
</g>
<g id="bone_">
<path class="path-23" d="M551.282,215.385C535.781,197.574,520.279,179.763,504.778,161.952"/>
</g>
<g id="bone_">
<path class="path-23" d="M495.897,216.411C473.158,210.050,450.419,203.690,427.679,197.330"/>
</g>
<g id="bone_B18">
<path class="path-23" d="M212.130,391.192C209.723,423.500,207.316,455.808,204.909,488.116"/>
</g>
<g id="bone_B17">
<path class="path-23" d="M258.285,391.192C268.916,422.828,279.546,454.465,290.177,486.101"/>
</g>
<g id="bone_B16">
<path class="path-23" d="M226.802,163.008C231.894,187.443,236.985,211.877,242.077,236.312"/>
</g>
<g id="bone_B14">
<path class="path-23" d="M146.219,383.054C155.792,399.623,165.366,416.193,174.939,432.762"/>
</g>
<g id="bone_B13">
<path class="path-23" d="M178.891,274.151C168.001,310.452,157.110,346.753,146.219,383.054"/>
</g>
<g id="bone_B11">
<path class="path-23" d="M323.678,351.095C329.190,372.404,334.701,393.714,340.213,415.024"/>
</g>
<g id="bone_B9">
<path class="path-23" d="M292.173,264.051C302.675,293.066,313.177,322.080,323.678,351.095"/>
</g>
<g id="bone_B5">
<path class="path-23" d="M235.732,216.742C231.355,190.406,226.978,164.069,222.601,137.733"/>
</g>
<g id="bone_B4">
<path class="path-23" d="M235.919,258.843C235.857,244.809,235.795,230.776,235.732,216.742"/>
</g>
<g id="bone_B3">
<path class="path-23" d="M238.301,331.805C237.507,307.484,236.713,283.163,235.919,258.843"/>
</g>
<g id="bone_B2">
<path class="path-23" d="M234.695,391.192C235.897,371.396,237.099,351.601,238.301,331.805"/>
</g>
<g id="bone_B1">
<path class="path-23" d="M234.695,391.192C246.672,391.192,258.649,391.192,270.626,391.192"/>
</g>
</g>
</g>
<style>
.path-0{fill:#000000;fill-rule:evenodd;stroke:none;}
.path-1{fill:none;stroke:#a60d3f;stroke-width:1;stroke-linecap:butt;stroke-linejoin:round;}
.path-2{fill:#a60d3f;fill-rule:evenodd;stroke:none;}
.path-3{fill:none;stroke:#d88e4b;stroke-width:1;stroke-linecap:butt;stroke-linejoin:round;}
.path-4{fill:#d88e4b;fill-rule:evenodd;stroke:none;}
.path-5{fill:none;stroke:#6e2353;stroke-width:1;stroke-linecap:butt;stroke-linejoin:round;}
.path-6{fill:#6e2353;fill-rule:evenodd;stroke:none;}
.path-7{fill:none;stroke:#392966;stroke-width:1;stroke-linecap:butt;stroke-linejoin:round;}
.path-8{fill:#392966;fill-rule:evenodd;stroke:none;}
.path-9{fill:none;stroke:#cc9bc5;stroke-width:1;stroke-linecap:butt;stroke-linejoin:round;}
.path-10{fill:#cc9bc5;fill-rule:evenodd;stroke:none;}
.path-11{fill:none;stroke:#620527;stroke-width:1;stroke-linecap:butt;stroke-linejoin:round;}
.path-12{fill:#620527;fill-rule:evenodd;stroke:none;}
.path-13{fill:none;stroke:#6a3661;stroke-width:1;stroke-linecap:butt;stroke-linejoin:round;}
.path-14{fill:#6a3661;fill-rule:evenodd;stroke:none;}
.path-15{fill:none;stroke:#f8a087;stroke-width:1;stroke-linecap:butt;stroke-linejoin:round;}
.path-16{fill:#f8a087;fill-rule:evenodd;stroke:none;}
.path-17{fill:none;stroke:#ffffff;stroke-width:1;stroke-linecap:butt;stroke-linejoin:round;}
.path-18{fill:#ffffff;fill-rule:evenodd;stroke:none;}
.path-19{fill:none;stroke:#d89f4a;stroke-width:1;stroke-linecap:butt;stroke-linejoin:round;}
.path-20{fill:#d89f4a;fill-rule:evenodd;stroke:none;}
.path-21{fill:none;stroke:#fafd5b;stroke-width:1;stroke-linecap:butt;stroke-linejoin:round;}
.path-22{fill:#fafd5b;fill-rule:evenodd;stroke:none;}
.path-23{fill:none;stroke:#00ff00;stroke-width:8;stroke-linecap:round;stroke-linejoin:round;}
.path-24{fill:none;stroke:#000000;stroke-width:1;stroke-linecap:butt;stroke-linejoin:round;}
</style>
</svg>
