<svg version="1.1" id="Frame_136" xmlns="http://www.w3.org/2000/svg" xmlns:xlink="http://www.w3.org/1999/xlink" width="480px" height="720px">
<g id="main_bone">
<g id="right_arm">
<path class="path-0" d="M174.126,270.172C175.458,267.511,178.075,262.017,181.778,260.525C188.182,257.943,193.652,263.933,194.431,268.509C196.093,276.447,190.936,287.396,188.470,295.289C182.390,314.329,175.637,333.084,171.132,352.015C170.600,355.317,165.808,376.634,165.808,373.973C165.476,380.626,172.130,386.283,174.459,391.939C177.454,399.590,174.791,406.910,172.795,413.897C168.138,428.535,168.471,433.858,167.804,448.165C167.804,450.492,167.473,458.146,163.812,458.146C160.487,458.146,160.153,452.157,159.488,449.828C159.155,447.167,156.825,441.510,157.492,439.182C157.823,435.190,162.483,436.188,157.492,427.870C151.170,417.555,139.526,409.240,136.532,395.931C134.536,385.285,140.191,375.969,143.186,365.988C149.508,344.695,156.494,323.404,163.812,302.111C167.805,291.132,168.802,281.484,174.126,270.172M193.754,262.188C193.755,253.538,190.761,245.885,180.115,249.546C163.481,255.200,158.822,281.484,154.165,296.122C147.512,316.084,141.855,336.046,136.199,356.007C133.870,364.657,130.544,368.982,129.212,373.973C127.549,379.628,127.881,388.280,128.214,393.935C128.214,411.567,133.869,412.234,140.856,425.874C144.517,433.859,140.525,438.849,142.852,445.835C144.517,450.492,148.176,453.820,150.837,457.813C153.166,461.805,153.499,464.135,155.162,467.793C157.158,472.119,163.481,481.767,169.136,479.771C173.793,478.108,173.793,469.790,174.126,465.797C174.459,459.809,178.119,436.853,179.450,429.866C181.778,418.554,187.435,406.245,185.770,393.935C184.440,384.619,176.122,377.965,176.456,367.985C176.787,362.661,180.115,354.011,181.113,348.023C182.776,338.375,182.776,328.061,184.772,318.081C188.099,300.448,194.421,280.487,193.754,262.188Z"/>
<path class="path-1" d="M181.778,260.525C188.182,257.943,193.652,263.933,194.431,268.509"/>
<path class="path-1" d="M194.431,268.509C196.093,276.447,190.936,287.396,188.470,295.289"/>
<path class="path-1" d="M188.470,295.289C182.390,314.329,175.637,333.084,171.132,352.015"/>
<path class="path-1" d="M171.132,352.015C170.600,355.317,165.808,376.634,165.808,373.973"/>
<path class="path-1" d="M165.808,373.973C165.476,380.626,172.130,386.283,174.459,391.939"/>
<path class="path-1" d="M174.459,391.939C177.454,399.590,174.791,406.910,172.795,413.897"/>
<path class="path-1" d="M172.795,413.897C168.138,428.535,168.471,433.858,167.804,448.165"/>
<path class="path-1" d="M167.804,448.165C167.804,450.492,167.473,458.146,163.812,458.146"/>
<path class="path-1" d="M163.812,458.146C160.487,458.146,160.153,452.157,159.488,449.828"/>
<path class="path-1" d="M159.488,449.828C159.155,447.167,156.825,441.510,157.492,439.182"/>
<path class="path-1" d="M157.492,439.182C157.823,435.190,162.483,436.188,157.492,427.870"/>
<path class="path-1" d="M157.492,427.870C151.170,417.555,139.526,409.240,136.532,395.931"/>
<path class="path-1" d="M136.532,395.931C134.536,385.285,140.191,375.969,143.186,365.988"/>
<path class="path-1" d="M143.186,365.988C149.508,344.695,156.494,323.404,163.812,302.111"/>
<path class="path-1" d="M163.812,302.111C167.805,291.132,168.802,281.484,174.126,270.172"/>
<path class="path-1" d="M174.126,270.172C175.458,267.511,178.075,262.017,181.778,260.525"/>
<path class="path-2" d="M181.778,260.525C188.182,257.943,193.652,263.933,194.431,268.509C196.093,276.447,190.936,287.396,188.470,295.289C182.390,314.329,175.637,333.084,171.132,352.015C170.600,355.317,165.808,376.634,165.808,373.973C165.476,380.626,172.130,386.283,174.459,391.939C177.454,399.590,174.791,406.910,172.795,413.897C168.138,428.535,168.471,433.858,167.804,448.165C167.804,450.492,167.473,458.146,163.812,458.146C160.487,458.146,160.153,452.157,159.488,449.828C159.155,447.167,156.825,441.510,157.492,439.182C157.823,435.190,162.483,436.188,157.492,427.870C151.170,417.555,139.526,409.240,136.532,395.931C134.536,385.285,140.191,375.969,143.186,365.988C149.508,344.695,156.494,323.404,163.812,302.111C167.805,291.132,168.802,281.484,174.126,270.172C175.458,267.511,178.075,262.017,181.778,260.525Z"/>
</g>
<g id="layer_left_leg">
<g id="left_heel">
<path class="path-0" d="M243.049,548.137C235.118,537.733,250.344,516.000,261.341,514.231C275.579,511.726,280.972,536.261,279.253,541.346C276.803,547.902,267.190,551.299,261.297,552.224C256.636,552.799,245.683,551.809,243.049,548.137M284.446,513.549C278.419,505.979,262.734,505.881,254.435,508.822C225.255,518.289,220.764,572.320,262.185,562.122C269.919,560.272,285.951,555.004,289.626,547.864C293.190,542.195,291.183,535.639,289.810,529.531C288.433,524.751,287.581,517.604,284.446,513.549Z"/>
<path class="path-3" d="M261.341,514.231C275.579,511.726,280.972,536.261,279.253,541.346"/>
<path class="path-3" d="M279.253,541.346C276.803,547.902,267.190,551.299,261.297,552.224"/>
<path class="path-3" d="M261.297,552.224C256.636,552.799,245.683,551.809,243.049,548.137"/>
<path class="path-3" d="M243.049,548.137C235.118,537.733,250.344,516.000,261.341,514.231"/>
<path class="path-4" d="M261.341,514.231C275.579,511.726,280.972,536.261,279.253,541.346C276.803,547.902,267.190,551.299,261.297,552.224C256.636,552.799,245.683,551.809,243.049,548.137C235.118,537.733,250.344,516.000,261.341,514.231Z"/>
</g>
<g id="left_sole">
<path class="path-0" d="M257.361,586.256C248.730,585.947,252.001,577.140,244.531,578.830C240.112,579.830,253.763,584.832,257.225,586.199C257.875,586.234,271.175,589.555,272.664,589.662C277.888,590.694,293.548,587.722,293.767,586.033C293.799,585.781,284.024,587.551,280.924,588.255C274.153,590.375,264.831,589.681,257.225,586.199M247.850,572.903C250.107,574.162,256.090,577.415,257.678,579.245C263.422,585.867,278.270,585.742,286.427,582.528C287.491,582.139,287.564,579.800,293.317,577.826C296.683,576.671,277.172,585.636,272.469,584.023C263.380,582.561,244.933,571.276,247.850,572.903M291.141,569.518C289.390,568.934,276.032,564.657,266.456,565.447C258.690,566.133,238.155,566.105,236.018,576.111C235.270,579.654,240.731,589.170,243.598,591.264C255.438,600.557,287.585,593.572,293.394,590.688C295.187,589.798,302.719,573.375,291.141,569.518Z"/>
<path class="path-5" d="M244.531,578.830C240.112,579.830,253.763,584.832,257.225,586.199"/>
<path class="path-5" d="M257.225,586.199C264.831,589.681,274.153,590.375,280.924,588.255"/>
<path class="path-5" d="M280.924,588.255C284.024,587.551,293.799,585.781,293.767,586.033"/>
<path class="path-5" d="M293.767,586.033C293.548,587.722,277.888,590.694,272.664,589.662"/>
<path class="path-5" d="M272.664,589.662C271.175,589.555,257.875,586.234,257.361,586.256"/>
<path class="path-5" d="M257.361,586.256C248.730,585.947,252.001,577.140,244.531,578.830"/>
<path class="path-6" d="M244.531,578.830C240.112,579.830,253.763,584.832,257.225,586.199C264.831,589.681,274.153,590.375,280.924,588.255C284.024,587.551,293.799,585.781,293.767,586.033C293.548,587.722,277.888,590.694,272.664,589.662C271.175,589.555,257.875,586.234,257.361,586.256C248.730,585.947,252.001,577.140,244.531,578.830Z"/>
<path class="path-5" d="M257.678,579.245C263.422,585.867,278.270,585.742,286.427,582.528"/>
<path class="path-5" d="M286.427,582.528C287.491,582.139,287.564,579.800,293.317,577.826"/>
<path class="path-5" d="M293.317,577.826C296.683,576.671,277.172,585.636,272.469,584.023"/>
<path class="path-5" d="M272.469,584.023C263.380,582.561,244.933,571.276,247.850,572.903"/>
<path class="path-5" d="M247.850,572.903C250.107,574.162,256.090,577.415,257.678,579.245"/>
<path class="path-6" d="M257.678,579.245C263.422,585.867,278.270,585.742,286.427,582.528C287.491,582.139,287.564,579.800,293.317,577.826C296.683,576.671,277.172,585.636,272.469,584.023C263.380,582.561,244.933,571.276,247.850,572.903C250.107,574.162,256.090,577.415,257.678,579.245Z"/>
</g>
<g id="left_toe">
<path class="path-0" d="M258.060,595.137C227.442,591.787,239.185,547.959,266.489,548.202C280.831,548.526,285.612,560.575,287.579,571.825C288.878,576.918,290.252,581.435,287.861,586.252C282.953,594.372,266.508,595.959,258.060,595.137M292.434,550.184C286.239,542.844,269.651,539.114,260.680,540.292C236.025,543.771,232.768,560.530,232.010,580.624C231.562,586.929,231.532,592.927,235.298,598.004C241.996,606.469,266.614,607.704,276.755,605.823C284.328,603.872,293.710,600.058,297.651,592.601C302.362,583.998,298.455,557.645,292.434,550.184Z"/>
<path class="path-3" d="M266.489,548.202C280.831,548.526,285.612,560.575,287.579,571.825"/>
<path class="path-3" d="M287.579,571.825C288.878,576.918,290.252,581.435,287.861,586.252"/>
<path class="path-3" d="M287.861,586.252C282.953,594.372,266.508,595.959,258.060,595.137"/>
<path class="path-3" d="M258.060,595.137C227.442,591.787,239.185,547.959,266.489,548.202"/>
<path class="path-4" d="M266.489,548.202C280.831,548.526,285.612,560.575,287.579,571.825C288.878,576.918,290.252,581.435,287.861,586.252C282.953,594.372,266.508,595.959,258.060,595.137C227.442,591.787,239.185,547.959,266.489,548.202Z"/>
</g>
<g id="left_leg">
<path class="path-0" d="M238.898,405.789C240.604,401.168,250.093,404.656,253.973,404.581C258.948,404.724,270.068,404.048,274.090,407.142C287.218,416.561,289.818,461.409,289.831,476.951C289.290,496.409,291.588,514.818,289.328,533.478C288.670,538.008,287.828,542.715,286.279,546.927C284.932,551.127,278.452,556.356,281.459,559.228C283.528,562.044,288.374,556.153,291.198,557.741C293.024,558.924,293.224,558.989,293.949,560.356C298.312,569.244,280.730,580.715,271.858,582.171C265.057,583.522,251.030,581.380,246.554,576.208C244.743,574.115,242.933,571.431,241.971,568.892C232.718,544.466,240.986,506.431,243.974,460.745C244.448,453.492,252.383,463.287,257.901,462.382C267.600,460.758,238.688,427.060,236.730,417.280C235.871,414.267,237.683,408.599,238.898,405.789M283.475,396.803C277.492,392.283,260.835,393.742,253.973,394.933C247.559,396.021,226.123,395.857,222.763,400.371C216.230,409.147,228.013,426.649,230.690,435.158C231.902,440.149,230.664,464.786,230.487,471.696C230.972,486.273,229.529,498.765,229.328,513.348C228.788,533.376,221.466,552.962,226.882,571.966C231.826,588.859,245.682,595.417,265.841,595.614C275.290,595.706,294.849,587.254,305.155,571.033C309.845,563.650,308.099,551.791,307.109,548.998C305.530,544.539,301.726,540.761,300.543,535.832C295.552,517.807,303.717,498.508,302.501,479.736C301.229,459.820,300.258,409.541,283.475,396.803Z"/>
<path class="path-7" d="M253.973,404.581C258.948,404.724,270.068,404.048,274.090,407.142"/>
<path class="path-7" d="M274.090,407.142C287.218,416.561,289.818,461.409,289.831,476.951"/>
<path class="path-7" d="M289.831,476.951C289.290,496.409,291.588,514.818,289.328,533.478"/>
<path class="path-7" d="M289.328,533.478C288.670,538.008,287.828,542.715,286.279,546.927"/>
<path class="path-7" d="M286.279,546.927C284.932,551.127,278.452,556.356,281.459,559.228"/>
<path class="path-7" d="M281.459,559.228C283.528,562.044,288.374,556.153,291.198,557.741"/>
<path class="path-7" d="M291.198,557.741C293.024,558.924,293.224,558.989,293.949,560.356"/>
<path class="path-7" d="M293.949,560.356C298.312,569.244,280.730,580.715,271.858,582.171"/>
<path class="path-7" d="M271.858,582.171C265.057,583.522,251.030,581.380,246.554,576.208"/>
<path class="path-7" d="M246.554,576.208C244.743,574.115,242.933,571.431,241.971,568.892"/>
<path class="path-7" d="M241.971,568.892C232.718,544.466,240.986,506.431,243.974,460.745"/>
<path class="path-7" d="M243.974,460.745C244.448,453.492,252.383,463.287,257.901,462.382"/>
<path class="path-7" d="M257.901,462.382C267.600,460.758,238.688,427.060,236.730,417.280"/>
<path class="path-7" d="M236.730,417.280C235.871,414.267,237.683,408.599,238.898,405.789"/>
<path class="path-7" d="M238.898,405.789C240.604,401.168,250.093,404.656,253.973,404.581"/>
<path class="path-8" d="M253.973,404.581C258.948,404.724,270.068,404.048,274.090,407.142C287.218,416.561,289.818,461.409,289.831,476.951C289.290,496.409,291.588,514.818,289.328,533.478C288.670,538.008,287.828,542.715,286.279,546.927C284.932,551.127,278.452,556.356,281.459,559.228C283.528,562.044,288.374,556.153,291.198,557.741C293.024,558.924,293.224,558.989,293.949,560.356C298.312,569.244,280.730,580.715,271.858,582.171C265.057,583.522,251.030,581.380,246.554,576.208C244.743,574.115,242.933,571.431,241.971,568.892C232.718,544.466,240.986,506.431,243.974,460.745C244.448,453.492,252.383,463.287,257.901,462.382C267.600,460.758,238.688,427.060,236.730,417.280C235.871,414.267,237.683,408.599,238.898,405.789C240.604,401.168,250.093,404.656,253.973,404.581Z"/>
</g>
</g>
<g id="layer_right_leg">
<g id="right_heel">
<path class="path-0" d="M189.615,602.806C191.545,585.273,191.623,571.491,213.106,568.297C222.777,566.682,241.242,569.721,246.560,579.081C249.339,583.700,248.419,590.480,248.718,595.411C249.309,603.905,254.722,619.790,242.864,622.383C241.985,622.665,217.468,624.509,209.846,625.406C204.132,626.622,198.036,628.234,193.580,624.507C188.966,619.796,188.841,608.749,189.615,602.806M256.729,577.233C252.355,565.992,236.932,559.592,226.011,561.211C211.945,563.122,197.551,558.513,188.394,571.687C179.635,584.286,179.748,607.644,182.596,622.293C183.489,627.834,186.838,638.003,191.445,641.089C194.797,643.230,199.986,642.620,203.953,642.628C223.487,642.978,257.772,649.591,257.961,620.444C257.922,610.873,259.631,584.773,256.729,577.233Z"/>
<path class="path-3" d="M213.106,568.297C222.777,566.682,241.242,569.721,246.560,579.081"/>
<path class="path-3" d="M246.560,579.081C249.339,583.700,248.419,590.480,248.718,595.411"/>
<path class="path-3" d="M248.718,595.411C249.309,603.905,254.722,619.790,242.864,622.383"/>
<path class="path-3" d="M242.864,622.383C241.985,622.665,217.468,624.509,209.846,625.406"/>
<path class="path-3" d="M209.846,625.406C204.132,626.622,198.036,628.234,193.580,624.507"/>
<path class="path-3" d="M193.580,624.507C188.966,619.796,188.841,608.749,189.615,602.806"/>
<path class="path-3" d="M189.615,602.806C191.545,585.273,191.623,571.491,213.106,568.297"/>
<path class="path-4" d="M213.106,568.297C222.777,566.682,241.242,569.721,246.560,579.081C249.339,583.700,248.419,590.480,248.718,595.411C249.309,603.905,254.722,619.790,242.864,622.383C241.985,622.665,217.468,624.509,209.846,625.406C204.132,626.622,198.036,628.234,193.580,624.507C188.966,619.796,188.841,608.749,189.615,602.806C191.545,585.273,191.623,571.491,213.106,568.297Z"/>
</g>
<g id="right_leg">
<path class="path-0" d="M182.773,406.266C186.114,398.350,192.071,392.165,199.610,391.800C205.509,391.393,214.627,392.914,219.983,396.132C223.451,398.216,229.897,402.285,228.938,406.216C228.367,408.557,221.819,407.574,221.866,410.024C221.821,421.524,236.164,420.212,239.705,426.603C241.974,430.698,242.513,436.461,243.067,441.843C245.481,457.381,242.742,473.857,243.338,489.100C243.593,497.859,247.125,511.326,243.869,518.766C241.185,524.384,234.935,520.288,233.952,523.851C232.818,527.143,247.538,539.902,250.038,543.848C256.473,553.573,265.138,567.772,259.967,578.288C256.488,585.364,240.018,579.552,232.956,577.411C224.262,574.586,200.469,564.343,191.324,562.227C186.700,561.299,179.233,562.996,175.111,560.071C173.808,559.247,169.140,554.235,168.848,552.587C168.281,548.508,169.680,547.264,170.255,542.476C170.736,536.865,174.132,530.776,172.380,525.285C167.969,512.455,165.001,478.712,166.949,465.792C167.934,457.952,167.871,431.163,171.079,424.575C176.331,414.030,180.155,413.813,182.773,406.266M208.062,381.294C202.406,379.297,197.779,373.231,192.092,375.969C189.996,377.202,187.417,381.355,185.887,383.012C171.228,396.484,165.560,404.634,161.122,422.579C158.878,430.265,155.778,438.093,154.768,445.721C153.703,452.692,153.155,458.754,152.858,465.380C152.967,470.847,154.741,476.476,155.535,483.191C156.201,487.843,157.435,493.336,157.557,501.316C157.176,508.056,156.621,514.390,156.642,520.843C156.751,523.805,156.535,530.777,156.400,533.063C155.401,538.145,154.126,544.124,152.912,548.864C151.479,556.192,151.040,563.786,152.818,570.639C153.355,573.271,153.898,577.016,155.879,578.581C161.177,582.766,169.598,578.731,176.013,579.158C184.921,579.703,192.957,580.028,201.708,582.161C208.516,583.875,214.236,588.391,221.172,590.675C222.684,590.927,235.208,592.927,237.496,593.865C243.417,595.902,253.529,600.966,259.612,598.350C263.410,596.467,267.701,592.400,269.790,588.576C272.729,583.184,273.821,576.840,274.335,570.716C275.562,553.129,264.037,547.036,258.890,532.521C256.314,525.253,254.726,509.377,254.208,500.854C253.481,491.918,254.068,483.144,254.031,473.901C254.128,467.866,254.112,460.566,255.394,453.805C255.764,451.650,255.880,449.889,255.779,447.739C255.209,442.380,251.857,425.572,250.646,419.885C250.013,416.220,250.314,411.567,248.983,407.908C245.324,398.592,231.351,388.280,222.034,385.285C217.377,383.621,212.387,383.290,208.062,381.294Z"/>
<path class="path-7" d="M199.610,391.800C205.509,391.393,214.627,392.914,219.983,396.132"/>
<path class="path-7" d="M219.983,396.132C223.451,398.216,229.897,402.285,228.938,406.216"/>
<path class="path-7" d="M228.938,406.216C228.367,408.557,221.819,407.574,221.866,410.024"/>
<path class="path-7" d="M221.866,410.024C221.821,421.524,236.164,420.212,239.705,426.603"/>
<path class="path-7" d="M239.705,426.603C241.974,430.698,242.513,436.461,243.067,441.843"/>
<path class="path-7" d="M243.067,441.843C245.481,457.381,242.742,473.857,243.338,489.100"/>
<path class="path-7" d="M243.338,489.100C243.593,497.859,247.125,511.326,243.869,518.766"/>
<path class="path-7" d="M243.869,518.766C241.185,524.384,234.935,520.288,233.952,523.851"/>
<path class="path-7" d="M233.952,523.851C232.818,527.143,247.538,539.902,250.038,543.848"/>
<path class="path-7" d="M250.038,543.848C256.473,553.573,265.138,567.772,259.967,578.288"/>
<path class="path-7" d="M259.967,578.288C256.488,585.364,240.018,579.552,232.956,577.411"/>
<path class="path-7" d="M232.956,577.411C224.262,574.586,200.469,564.343,191.324,562.227"/>
<path class="path-7" d="M191.324,562.227C186.700,561.299,179.233,562.996,175.111,560.071"/>
<path class="path-7" d="M175.111,560.071C173.808,559.247,169.140,554.235,168.848,552.587"/>
<path class="path-7" d="M168.848,552.587C168.281,548.508,169.680,547.264,170.255,542.476"/>
<path class="path-7" d="M170.255,542.476C170.736,536.865,174.132,530.776,172.380,525.285"/>
<path class="path-7" d="M172.380,525.285C167.969,512.455,165.001,478.712,166.949,465.792"/>
<path class="path-7" d="M166.949,465.792C167.934,457.952,167.871,431.163,171.079,424.575"/>
<path class="path-7" d="M171.079,424.575C176.331,414.030,180.155,413.813,182.773,406.266"/>
<path class="path-7" d="M182.773,406.266C186.114,398.350,192.071,392.165,199.610,391.800"/>
<path class="path-8" d="M199.610,391.800C205.509,391.393,214.627,392.914,219.983,396.132C223.451,398.216,229.897,402.285,228.938,406.216C228.367,408.557,221.819,407.574,221.866,410.024C221.821,421.524,236.164,420.212,239.705,426.603C241.974,430.698,242.513,436.461,243.067,441.843C245.481,457.381,242.742,473.857,243.338,489.100C243.593,497.859,247.125,511.326,243.869,518.766C241.185,524.384,234.935,520.288,233.952,523.851C232.818,527.143,247.538,539.902,250.038,543.848C256.473,553.573,265.138,567.772,259.967,578.288C256.488,585.364,240.018,579.552,232.956,577.411C224.262,574.586,200.469,564.343,191.324,562.227C186.700,561.299,179.233,562.996,175.111,560.071C173.808,559.247,169.140,554.235,168.848,552.587C168.281,548.508,169.680,547.264,170.255,542.476C170.736,536.865,174.132,530.776,172.380,525.285C167.969,512.455,165.001,478.712,166.949,465.792C167.934,457.952,167.871,431.163,171.079,424.575C176.331,414.030,180.155,413.813,182.773,406.266C186.114,398.350,192.071,392.165,199.610,391.800Z"/>
</g>
<g id="right_toe">
<path class="path-0" d="M162.170,597.134C163.586,585.382,169.220,572.429,183.229,568.753C188.593,567.045,196.595,567.461,202.843,567.827C230.971,569.402,246.136,575.814,245.602,604.226C245.428,608.705,244.568,613.695,241.425,617.475C235.492,624.482,206.798,629.429,197.687,629.448C183.640,629.783,172.439,629.023,164.320,615.696C159.999,608.434,161.235,604.982,162.170,597.134M250.641,577.367C243.712,561.564,209.891,547.948,193.530,549.465C166.743,552.099,157.183,573.169,154.035,595.469C153.024,602.272,151.204,609.839,154.416,616.013C156.258,619.550,160.761,623.953,163.749,626.613C178.143,640.542,188.040,638.241,206.713,637.783C217.805,637.697,236.203,636.657,245.111,629.230C251.703,623.193,252.561,616.667,252.792,608.248C252.739,601.877,252.996,582.211,250.641,577.367Z"/>
<path class="path-3" d="M183.229,568.753C188.593,567.045,196.595,567.461,202.843,567.827"/>
<path class="path-3" d="M202.843,567.827C230.971,569.402,246.136,575.814,245.602,604.226"/>
<path class="path-3" d="M245.602,604.226C245.428,608.705,244.568,613.695,241.425,617.475"/>
<path class="path-3" d="M241.425,617.475C235.492,624.482,206.798,629.429,197.687,629.448"/>
<path class="path-3" d="M197.687,629.448C183.640,629.783,172.439,629.023,164.320,615.696"/>
<path class="path-3" d="M164.320,615.696C159.999,608.434,161.235,604.982,162.170,597.134"/>
<path class="path-3" d="M162.170,597.134C163.586,585.382,169.220,572.429,183.229,568.753"/>
<path class="path-4" d="M183.229,568.753C188.593,567.045,196.595,567.461,202.843,567.827C230.971,569.402,246.136,575.814,245.602,604.226C245.428,608.705,244.568,613.695,241.425,617.475C235.492,624.482,206.798,629.429,197.687,629.448C183.640,629.783,172.439,629.023,164.320,615.696C159.999,608.434,161.235,604.982,162.170,597.134C163.586,585.382,169.220,572.429,183.229,568.753Z"/>
</g>
<g id="right_sole">
<path class="path-0" d="M189.566,637.557C191.874,638.701,199.752,637.283,202.439,637.522C205.334,637.925,209.824,638.223,212.275,638.194C213.667,638.280,218.521,637.902,218.714,640.640C219.392,642.112,212.992,641.688,211.577,641.560C210.129,641.595,193.468,641.119,192.971,641.227C188.718,641.731,183.420,640.256,184.125,637.889C184.892,636.617,187.363,636.454,189.566,637.557M235.576,630.419C235.258,631.354,235.165,633.511,233.452,633.634C230.118,633.888,217.248,634.284,212.986,632.803C208.339,632.061,203.105,632.212,198.882,631.818C193.059,631.274,185.095,631.194,179.524,629.524C175.296,627.405,172.547,625.260,171.755,623.688C172.140,623.059,175.966,625.175,178.825,625.653C185.770,626.813,195.635,626.737,202.831,627.302C210.005,627.865,219.331,629.354,226.726,629.412C227.891,629.450,233.427,629.211,235.576,630.419M238.395,623.718C216.833,616.483,196.826,623.201,179.738,616.295C176.063,614.819,166.813,616.796,164.000,620.823C162.705,622.678,162.788,626.160,163.731,628.359C164.369,629.836,166.515,632.917,168.214,634.405C172.461,638.125,181.267,641.689,185.037,642.846C198.752,647.605,217.241,644.979,232.103,644.100C242.225,643.465,242.047,636.354,242.368,631.485C242.540,628.873,243.302,625.294,238.395,623.718Z"/>
<path class="path-24" d="M189.566,637.557C191.874,638.701,199.752,637.283,202.439,637.522"/>
<path class="path-24" d="M202.439,637.522C205.334,637.925,209.824,638.223,212.275,638.194"/>
<path class="path-24" d="M212.275,638.194C213.667,638.280,218.521,637.902,218.714,640.640"/>
<path class="path-24" d="M218.714,640.640C219.392,642.112,212.992,641.688,211.577,641.560"/>
<path class="path-24" d="M211.577,641.560C210.129,641.595,193.468,641.119,192.971,641.227"/>
<path class="path-24" d="M192.971,641.227C188.718,641.731,183.420,640.256,184.125,637.889"/>
<path class="path-24" d="M184.125,637.889C184.892,636.617,187.363,636.454,189.566,637.557"/>
<path class="path-0" d="M189.566,637.557C191.874,638.701,199.752,637.283,202.439,637.522C205.334,637.925,209.824,638.223,212.275,638.194C213.667,638.280,218.521,637.902,218.714,640.640C219.392,642.112,212.992,641.688,211.577,641.560C210.129,641.595,193.468,641.119,192.971,641.227C188.718,641.731,183.420,640.256,184.125,637.889C184.892,636.617,187.363,636.454,189.566,637.557Z"/>
<path class="path-5" d="M178.825,625.653C185.770,626.813,195.635,626.737,202.831,627.302"/>
<path class="path-5" d="M202.831,627.302C210.005,627.865,219.331,629.354,226.726,629.412"/>
<path class="path-5" d="M226.726,629.412C227.891,629.450,233.427,629.211,235.576,630.419"/>
<path class="path-5" d="M235.576,630.419C235.258,631.354,235.165,633.511,233.452,633.634"/>
<path class="path-5" d="M233.452,633.634C230.118,633.888,217.248,634.284,212.986,632.803"/>
<path class="path-5" d="M212.986,632.803C208.339,632.061,203.105,632.212,198.882,631.818"/>
<path class="path-5" d="M198.882,631.818C193.059,631.274,185.095,631.194,179.524,629.524"/>
<path class="path-5" d="M179.524,629.524C175.296,627.405,172.547,625.260,171.755,623.688"/>
<path class="path-5" d="M171.755,623.688C172.140,623.059,175.966,625.175,178.825,625.653"/>
<path class="path-6" d="M178.825,625.653C185.770,626.813,195.635,626.737,202.831,627.302C210.005,627.865,219.331,629.354,226.726,629.412C227.891,629.450,233.427,629.211,235.576,630.419C235.258,631.354,235.165,633.511,233.452,633.634C230.118,633.888,217.248,634.284,212.986,632.803C208.339,632.061,203.105,632.212,198.882,631.818C193.059,631.274,185.095,631.194,179.524,629.524C175.296,627.405,172.547,625.260,171.755,623.688C172.140,623.059,175.966,625.175,178.825,625.653Z"/>
</g>
</g>
<g id="hat_brim">
<path class="path-0" d="M289.615,140.561C293.274,134.572,302.257,118.269,310.241,118.270C315.565,118.270,326.544,127.919,332.199,130.913C337.190,133.907,342.514,136.569,348.169,139.230C351.381,140.899,354.597,142.562,357.816,144.220C372.123,151.540,368.130,157.862,359.812,156.530C341.182,153.202,338.188,154.534,320.222,145.218C317.893,144.220,311.904,140.894,310.906,145.218C309.577,150.208,318.560,154.534,322.219,156.197C328.872,159.858,336.192,163.851,344.176,164.515C346.506,164.848,354.491,164.181,355.820,166.511C357.816,169.838,348.169,178.488,346.173,180.484C342.845,183.479,339.519,186.473,336.192,188.802C331.201,192.128,325.877,195.122,320.222,196.120C309.577,197.452,276.307,182.147,275.308,170.503C274.644,163.850,285.622,146.882,289.615,140.561M322.219,113.946C317.228,109.620,313.569,103.298,306.249,106.626C300.925,108.955,295.270,116.607,291.611,120.599C277.970,137.234,265.661,156.864,266.326,178.488C266.659,192.128,271.316,191.796,282.295,197.118C298.929,205.436,320.222,208.098,338.188,199.782C349.832,194.458,370.127,176.492,375.451,164.515C377.113,160.523,380.107,151.540,377.778,146.883C375.117,141.226,352.826,131.578,346.173,127.919C338.188,123.593,329.205,119.601,322.219,113.946Z"/>
<path class="path-9" d="M310.241,118.270C315.565,118.270,326.544,127.919,332.199,130.913"/>
<path class="path-9" d="M332.199,130.913C337.190,133.907,342.514,136.569,348.169,139.230"/>
<path class="path-9" d="M348.169,139.230C351.381,140.899,354.597,142.562,357.816,144.220"/>
<path class="path-9" d="M357.816,144.220C372.123,151.540,368.130,157.862,359.812,156.530"/>
<path class="path-9" d="M359.812,156.530C341.182,153.202,338.188,154.534,320.222,145.218"/>
<path class="path-9" d="M320.222,145.218C317.893,144.220,311.904,140.894,310.906,145.218"/>
<path class="path-9" d="M310.906,145.218C309.577,150.208,318.560,154.534,322.219,156.197"/>
<path class="path-9" d="M322.219,156.197C328.872,159.858,336.192,163.851,344.176,164.515"/>
<path class="path-9" d="M344.176,164.515C346.506,164.848,354.491,164.181,355.820,166.511"/>
<path class="path-9" d="M355.820,166.511C357.816,169.838,348.169,178.488,346.173,180.484"/>
<path class="path-9" d="M346.173,180.484C342.845,183.479,339.519,186.473,336.192,188.802"/>
<path class="path-9" d="M336.192,188.802C331.201,192.128,325.877,195.122,320.222,196.120"/>
<path class="path-9" d="M320.222,196.120C309.577,197.452,276.307,182.147,275.308,170.503"/>
<path class="path-9" d="M275.308,170.503C274.644,163.850,285.622,146.882,289.615,140.561"/>
<path class="path-9" d="M289.615,140.561C293.274,134.572,302.257,118.269,310.241,118.270"/>
<path class="path-10" d="M310.241,118.270C315.565,118.270,326.544,127.919,332.199,130.913C337.190,133.907,342.514,136.569,348.169,139.230C351.381,140.899,354.597,142.562,357.816,144.220C372.123,151.540,368.130,157.862,359.812,156.530C341.182,153.202,338.188,154.534,320.222,145.218C317.893,144.220,311.904,140.894,310.906,145.218C309.577,150.208,318.560,154.534,322.219,156.197C328.872,159.858,336.192,163.851,344.176,164.515C346.506,164.848,354.491,164.181,355.820,166.511C357.816,169.838,348.169,178.488,346.173,180.484C342.845,183.479,339.519,186.473,336.192,188.802C331.201,192.128,325.877,195.122,320.222,196.120C309.577,197.452,276.307,182.147,275.308,170.503C274.644,163.850,285.622,146.882,289.615,140.561C293.274,134.572,302.257,118.269,310.241,118.270Z"/>
</g>
<g id="hair">
<path class="path-0" d="M183.357,136.483C200.954,124.749,220.906,123.806,241.996,123.120C251.452,122.794,257.886,129.270,265.069,135.626C270.964,141.195,277.299,147.468,283.560,153.313C292.986,162.051,296.930,166.431,300.440,170.614C303.444,173.825,308.105,179.813,311.862,182.674C316.396,186.124,325.422,203.315,327.445,205.266C320.793,207.453,310.356,209.024,305.541,212.830C307.149,218.669,307.424,227.700,307.413,230.409C301.202,230.790,294.008,227.926,282.567,225.752C280.180,232.918,280.142,239.647,275.384,246.902C267.697,244.496,262.345,242.563,252.411,238.043C245.798,243.193,244.261,242.773,233.517,249.212C226.455,244.820,220.838,240.151,213.943,237.253C207.148,240.091,196.403,241.027,192.739,243.925C188.987,236.858,185.547,229.060,182.318,225.662C172.710,227.554,168.576,230.148,161.781,232.559C157.606,227.012,160.654,222.489,156.037,214.349C151.717,213.146,145.049,210.476,139.490,210.322C143.367,205.864,146.319,191.142,152.833,189.327C160.871,187.088,155.875,177.911,160.872,169.755C162.110,167.631,174.016,151.399,175.093,148.739C177.132,144.153,179.361,139.287,183.357,136.483M269.783,123.041C257.623,113.516,232.973,108.192,219.067,111.311C206.306,114.023,193.787,117.926,182.663,125.006C176.433,128.911,169.531,134.686,165.362,140.754C157.036,152.537,144.935,178.372,138.142,190.325C132.704,200.241,127.646,206.923,122.452,212.283C140.007,218.879,145.124,221.586,150.363,222.441C150.613,230.199,157.711,236.027,156.388,244.572C165.209,243.354,170.475,241.177,178.326,239.302C182.258,243.995,184.942,250.348,188.681,256.586C196.418,254.568,204.305,254.940,212.000,249.563C217.496,252.632,226.229,257.403,235.200,262.448C243.544,258.115,245.325,257.880,253.165,252.908C262.619,255.342,272.515,261.315,282.074,260.399C281.484,252.206,287.600,246.647,286.947,241.388C294.168,239.536,316.196,242.966,319.967,242.683C319.803,236.635,316.595,225.026,318.237,217.838C325.064,216.098,330.837,214.510,341.526,209.520C338.121,202.790,331.974,194.414,326.560,189.403C321.990,185.214,318.291,179.689,313.719,175.326C298.212,160.768,292.275,140.745,269.783,123.041Z"/>
<path class="path-11" d="M241.996,123.120C251.452,122.794,257.886,129.270,265.069,135.626"/>
<path class="path-11" d="M265.069,135.626C270.964,141.195,277.299,147.468,283.560,153.313"/>
<path class="path-11" d="M283.560,153.313C292.986,162.051,296.930,166.431,300.440,170.614"/>
<path class="path-11" d="M300.440,170.614C303.444,173.825,308.105,179.813,311.862,182.674"/>
<path class="path-11" d="M311.862,182.674C316.396,186.124,325.422,203.315,327.445,205.266"/>
<path class="path-11" d="M327.445,205.266C320.793,207.453,310.356,209.024,305.541,212.830"/>
<path class="path-11" d="M305.541,212.830C307.149,218.669,307.424,227.700,307.413,230.409"/>
<path class="path-11" d="M307.413,230.409C301.202,230.790,294.008,227.926,282.567,225.752"/>
<path class="path-11" d="M282.567,225.752C280.180,232.918,280.142,239.647,275.384,246.902"/>
<path class="path-11" d="M275.384,246.902C267.697,244.496,262.345,242.563,252.411,238.043"/>
<path class="path-11" d="M252.411,238.043C245.798,243.193,244.261,242.773,233.517,249.212"/>
<path class="path-11" d="M233.517,249.212C226.455,244.820,220.838,240.151,213.943,237.253"/>
<path class="path-11" d="M213.943,237.253C207.148,240.091,196.403,241.027,192.739,243.925"/>
<path class="path-11" d="M192.739,243.925C188.987,236.858,185.547,229.060,182.318,225.662"/>
<path class="path-11" d="M182.318,225.662C172.710,227.554,168.576,230.148,161.781,232.559"/>
<path class="path-11" d="M161.781,232.559C157.606,227.012,160.654,222.489,156.037,214.349"/>
<path class="path-11" d="M156.037,214.349C151.717,213.146,145.049,210.476,139.490,210.322"/>
<path class="path-11" d="M139.490,210.322C143.367,205.864,146.319,191.142,152.833,189.327"/>
<path class="path-11" d="M152.833,189.327C160.871,187.088,155.875,177.911,160.872,169.755"/>
<path class="path-11" d="M160.872,169.755C162.110,167.631,174.016,151.399,175.093,148.739"/>
<path class="path-11" d="M175.093,148.739C177.132,144.153,179.361,139.287,183.357,136.483"/>
<path class="path-11" d="M183.357,136.483C200.954,124.749,220.906,123.806,241.996,123.120"/>
<path class="path-12" d="M241.996,123.120C251.452,122.794,257.886,129.270,265.069,135.626C270.964,141.195,277.299,147.468,283.560,153.313C292.986,162.051,296.930,166.431,300.440,170.614C303.444,173.825,308.105,179.813,311.862,182.674C316.396,186.124,325.422,203.315,327.445,205.266C320.793,207.453,310.356,209.024,305.541,212.830C307.149,218.669,307.424,227.700,307.413,230.409C301.202,230.790,294.008,227.926,282.567,225.752C280.180,232.918,280.142,239.647,275.384,246.902C267.697,244.496,262.345,242.563,252.411,238.043C245.798,243.193,244.261,242.773,233.517,249.212C226.455,244.820,220.838,240.151,213.943,237.253C207.148,240.091,196.403,241.027,192.739,243.925C188.987,236.858,185.547,229.060,182.318,225.662C172.710,227.554,168.576,230.148,161.781,232.559C157.606,227.012,160.654,222.489,156.037,214.349C151.717,213.146,145.049,210.476,139.490,210.322C143.367,205.864,146.319,191.142,152.833,189.327C160.871,187.088,155.875,177.911,160.872,169.755C162.110,167.631,174.016,151.399,175.093,148.739C177.132,144.153,179.361,139.287,183.357,136.483C200.954,124.749,220.906,123.806,241.996,123.120Z"/>
</g>
<g id="clothes">
<path class="path-0" d="M243.700,369.777C239.020,367.735,220.979,360.090,218.076,364.521C215.642,368.492,220.231,369.451,224.255,369.941C227.857,370.381,246.178,378.010,248.649,376.430C253.198,373.447,245.954,370.646,243.700,369.777M191.093,266.179C194.088,253.538,221.036,240.563,234.012,241.561C242.994,242.226,271.274,256.199,275.266,264.517C278.592,271.170,279.590,295.789,279.924,304.107C280.257,319.412,281.088,334.755,282.253,350.019C283.817,362.566,286.952,374.856,289.486,387.243C289.916,393.352,292.658,409.587,286.849,412.998C279.260,417.951,261.077,405.082,253.769,401.055C227.621,387.560,229.626,385.970,202.052,384.859C198.590,384.588,187.331,387.407,184.975,386.060C180.858,383.029,182.587,377.120,183.605,372.303C186.592,360.553,189.796,352.793,191.427,340.038C193.362,324.061,194.088,306.768,194.088,290.134C193.755,284.145,190.429,269.839,191.093,266.179M269.943,247.549C253.640,237.899,237.670,229.915,218.042,235.573C212.718,236.902,186.103,249.877,183.773,253.205C180.115,258.529,183.773,278.821,183.773,286.141C184.107,294.791,184.440,303.773,183.773,312.092C183.442,318.413,182.111,324.069,182.111,330.057C181.777,336.710,182.403,344.019,180.780,350.019C177.467,361.933,163.495,384.646,177.026,394.248C182.262,397.993,190.697,396.242,197.429,397.184C208.262,398.489,219.800,400.674,230.304,404.190C240.585,407.951,248.480,417.094,259.184,419.954C267.388,422.148,294.618,427.403,300.438,420.576C304.329,416.215,300.030,390.387,298.885,383.882C295.914,370.718,293.037,357.446,291.567,344.031C290.594,332.089,289.239,320.410,289.904,308.100C290.237,298.119,291.900,288.471,291.900,278.157C291.567,273.831,292.234,268.510,289.904,264.184C285.912,256.199,277.263,251.873,269.943,247.549Z"/>
<path class="path-13" d="M243.700,369.777C239.020,367.735,220.979,360.090,218.076,364.521"/>
<path class="path-13" d="M218.076,364.521C215.642,368.492,220.231,369.451,224.255,369.941"/>
<path class="path-13" d="M224.255,369.941C227.857,370.381,246.178,378.010,248.649,376.430"/>
<path class="path-13" d="M248.649,376.430C253.198,373.447,245.954,370.646,243.700,369.777"/>
<path class="path-13" d="M191.093,266.179C194.088,253.538,221.036,240.563,234.012,241.561"/>
<path class="path-13" d="M234.012,241.561C242.994,242.226,271.274,256.199,275.266,264.517"/>
<path class="path-13" d="M275.266,264.517C278.592,271.170,279.590,295.789,279.924,304.107"/>
<path class="path-13" d="M279.924,304.107C280.257,319.412,281.088,334.755,282.253,350.019"/>
<path class="path-13" d="M282.253,350.019C283.817,362.566,286.952,374.856,289.486,387.243"/>
<path class="path-13" d="M289.486,387.243C289.916,393.352,292.658,409.587,286.849,412.998"/>
<path class="path-13" d="M286.849,412.998C279.260,417.951,261.077,405.082,253.769,401.055"/>
<path class="path-13" d="M253.769,401.055C227.621,387.560,229.626,385.970,202.052,384.859"/>
<path class="path-13" d="M202.052,384.859C198.590,384.588,187.331,387.407,184.975,386.060"/>
<path class="path-13" d="M184.975,386.060C180.858,383.029,182.587,377.120,183.605,372.303"/>
<path class="path-13" d="M183.605,372.303C186.592,360.553,189.796,352.793,191.427,340.038"/>
<path class="path-13" d="M191.427,340.038C193.362,324.061,194.088,306.768,194.088,290.134"/>
<path class="path-13" d="M194.088,290.134C193.755,284.145,190.429,269.839,191.093,266.179"/>
<path class="path-14" d="M243.700,369.777C239.020,367.735,220.979,360.090,218.076,364.521C215.642,368.492,220.231,369.451,224.255,369.941C227.857,370.381,246.178,378.010,248.649,376.430C253.198,373.447,245.954,370.646,243.700,369.777M191.093,266.179C194.088,253.538,221.036,240.563,234.012,241.561C242.994,242.226,271.274,256.199,275.266,264.517C278.592,271.170,279.590,295.789,279.924,304.107C280.257,319.412,281.088,334.755,282.253,350.019C283.817,362.566,286.952,374.856,289.486,387.243C289.916,393.352,292.658,409.587,286.849,412.998C279.260,417.951,261.077,405.082,253.769,401.055C227.621,387.560,229.626,385.970,202.052,384.859C198.590,384.588,187.331,387.407,184.975,386.060C180.858,383.029,182.587,377.120,183.605,372.303C186.592,360.553,189.796,352.793,191.427,340.038C193.362,324.061,194.088,306.768,194.088,290.134C193.755,284.145,190.429,269.839,191.093,266.179Z"/>
</g>
<g id="neck">
<path class="path-0" d="M229.021,222.597C229.354,219.269,230.353,216.275,234.012,215.942C245.656,213.946,244.657,251.542,234.012,251.542C224.031,251.542,228.356,228.917,229.021,222.597M234.012,206.628C231.351,206.295,228.357,206.959,226.027,208.291C216.711,212.948,218.042,221.599,218.042,230.248C217.708,234.574,218.042,238.567,216.046,242.226C214.383,245.553,209.724,248.879,209.724,252.540C210.057,262.521,237.006,262.521,243.993,262.188C246.653,262.187,255.636,263.185,256.634,259.526C256.634,258.528,249.981,246.883,248.983,242.226C245.989,228.252,255.305,207.626,234.012,206.628Z"/>
<path class="path-15" d="M234.012,215.942C245.656,213.946,244.657,251.542,234.012,251.542"/>
<path class="path-15" d="M234.012,251.542C224.031,251.542,228.356,228.917,229.021,222.597"/>
<path class="path-15" d="M229.021,222.597C229.354,219.269,230.353,216.275,234.012,215.942"/>
<path class="path-16" d="M234.012,215.942C245.656,213.946,244.657,251.542,234.012,251.542C224.031,251.542,228.356,228.917,229.021,222.597C229.354,219.269,230.353,216.275,234.012,215.942Z"/>
</g>
<g id="layer_head">
<g id="right_ear">
<path class="path-0" d="M146.616,194.111C134.838,196.094,120.136,159.026,137.005,162.935C141.564,163.984,144.107,172.081,144.907,175.555C146.547,182.311,154.691,192.786,146.616,194.111M142.912,151.062C139.546,149.144,135.467,148.339,131.951,149.965C121.911,152.785,117.618,164.989,119.263,175.341C121.388,187.838,133.741,202.743,145.198,205.493C148.308,206.256,154.715,208.487,157.765,207.023C164.362,203.338,159.063,193.059,157.278,187.404C155.347,180.787,148.018,155.259,142.912,151.062Z"/>
<path class="path-15" d="M137.005,162.935C141.564,163.984,144.107,172.081,144.907,175.555"/>
<path class="path-15" d="M144.907,175.555C146.547,182.311,154.691,192.786,146.616,194.111"/>
<path class="path-15" d="M146.616,194.111C134.838,196.094,120.136,159.026,137.005,162.935"/>
<path class="path-16" d="M137.005,162.935C141.564,163.984,144.107,172.081,144.907,175.555C146.547,182.311,154.691,192.786,146.616,194.111C134.838,196.094,120.136,159.026,137.005,162.935Z"/>
</g>
<g id="face_Mask">
<g id="face">
<path class="path-0" d="M160.575,105.127C169.062,94.678,201.830,87.494,215.470,85.497C230.775,83.501,246.411,85.831,261.382,90.488C266.706,92.152,274.437,94.049,279.015,97.807C286.627,104.105,290.671,115.491,293.363,124.594C295.481,131.132,299.554,139.693,298.118,146.027C291.888,173.506,286.353,185.799,281.099,193.582C274.370,203.552,262.006,207.725,251.280,212.938C236.119,220.041,220.560,224.167,212.330,223.815C199.757,223.277,172.874,215.307,164.135,207.016C156.067,199.071,155.632,187.846,153.104,177.300C150.838,168.992,147.932,156.278,146.881,147.906C145.659,136.742,153.591,113.649,160.575,105.127M283.032,90.132C269.482,77.837,233.147,75.100,215.513,77.744C207.194,78.734,199.208,79.393,191.555,81.384C185.895,83.046,180.900,85.704,175.572,87.367C163.926,91.692,159.114,90.253,151.284,101.018C145.661,108.553,137.590,138.196,137.846,147.436C138.160,154.382,142.144,170.719,143.730,178.656C145.576,188.175,147.737,201.309,153.025,209.025C157.834,215.829,164.318,220.369,175.060,224.939C187.263,230.130,201.193,233.609,214.808,234.686C222.480,235.768,237.254,231.439,257.366,221.387C268.918,215.431,280.768,209.072,288.435,197.509C296.805,184.884,303.167,166.647,309.218,145.464C314.840,125.784,291.395,97.555,283.032,90.132Z"/>
<path class="path-15" d="M215.470,85.497C230.775,83.501,246.411,85.831,261.382,90.488"/>
<path class="path-15" d="M261.382,90.488C266.706,92.152,274.437,94.049,279.015,97.807"/>
<path class="path-15" d="M279.015,97.807C286.627,104.105,290.671,115.491,293.363,124.594"/>
<path class="path-15" d="M293.363,124.594C295.481,131.132,299.554,139.693,298.118,146.027"/>
<path class="path-15" d="M298.118,146.027C291.888,173.506,286.353,185.799,281.099,193.582"/>
<path class="path-15" d="M281.099,193.582C274.370,203.552,262.006,207.725,251.280,212.938"/>
<path class="path-15" d="M251.280,212.938C236.119,220.041,220.560,224.167,212.330,223.815"/>
<path class="path-15" d="M212.330,223.815C199.757,223.277,172.874,215.307,164.135,207.016"/>
<path class="path-15" d="M164.135,207.016C156.067,199.071,155.632,187.846,153.104,177.300"/>
<path class="path-15" d="M153.104,177.300C150.838,168.992,147.932,156.278,146.881,147.906"/>
<path class="path-15" d="M146.881,147.906C145.659,136.742,153.591,113.649,160.575,105.127"/>
<path class="path-15" d="M160.575,105.127C169.062,94.678,201.830,87.494,215.470,85.497"/>
<path class="path-16" d="M215.470,85.497C230.775,83.501,246.411,85.831,261.382,90.488C266.706,92.152,274.437,94.049,279.015,97.807C286.627,104.105,290.671,115.491,293.363,124.594C295.481,131.132,299.554,139.693,298.118,146.027C291.888,173.506,286.353,185.799,281.099,193.582C274.370,203.552,262.006,207.725,251.280,212.938C236.119,220.041,220.560,224.167,212.330,223.815C199.757,223.277,172.874,215.307,164.135,207.016C156.067,199.071,155.632,187.846,153.104,177.300C150.838,168.992,147.932,156.278,146.881,147.906C145.659,136.742,153.591,113.649,160.575,105.127C169.062,94.678,201.830,87.494,215.470,85.497Z"/>
</g>
</g>
<mask id="mask_target" style="mask-type:alpha;">
<use xlink:href="#face_Mask"/>
</mask>
<g id="mouse">
<path class="path-0" d="M215.220,214.329C220.424,215.432,220.508,220.186,220.034,220.693C219.767,220.979,218.644,220.027,215.684,219.541C210.078,218.619,207.372,219.792,207.175,219.077C206.958,218.294,209.127,213.036,215.220,214.329Z"/>
</g>
<g id="layer_eyes_Mtarget" mask="url(#mask_target)">
<g id="eyes">
<mask style="mask-type:alpha;" id="f3906406-f197-4bf1-91d8-744c09cca836">
<use xlink:href="#cmn_f3906406-f197-4bf1-91d8-744c09cca836"/>
</mask>
<g id="cmn_f3906406-f197-4bf1-91d8-744c09cca836">
<path class="path-0" d="M186.716,174.890C188.945,184.999,182.233,192.716,174.182,191.960C168.145,191.274,164.759,185.454,162.849,179.658C161.571,176.247,156.799,160.193,161.568,162.609C164.686,164.188,185.992,171.609,186.716,174.890M193.899,178.146C194.542,176.593,195.387,174.246,194.910,172.633C194.433,171.024,192.765,168.724,191.069,168.566C186.579,168.047,171.658,160.524,166.049,158.264C161.525,156.522,150.699,150.028,147.013,153.955C143.263,157.825,149.101,160.551,150.993,167.822C154.860,182.684,165.580,199.288,178.023,198.293C190.302,197.312,190.955,185.256,193.899,178.146M237.779,188.900C230.459,188.714,220.564,183.203,220.841,171.798C220.921,168.514,234.364,163.701,240.395,160.670C246.585,157.558,258.366,151.277,261.540,151.381C265.031,151.916,263.463,154.969,263.536,164.620C263.616,175.133,250.777,189.230,237.779,188.900M270.310,170.939C273.999,159.097,273.783,142.833,271.465,141.738C266.310,139.302,252.829,148.687,244.988,152.025C235.187,156.196,219.533,165.115,212.798,167.007C210.700,167.678,208.790,168.172,208.464,169.662C207.846,172.490,213.126,174.558,214.979,176.782C218.048,180.466,219.578,186.790,224.568,189.570C234.896,195.749,242.509,194.353,254.226,189.907C261.968,186.995,268.100,178.034,270.310,170.939Z"/>
<path class="path-17" d="M261.540,151.381C265.031,151.916,263.463,154.969,263.536,164.620"/>
<path class="path-17" d="M263.536,164.620C263.616,175.133,250.777,189.230,237.779,188.900"/>
<path class="path-17" d="M237.779,188.900C230.459,188.714,220.564,183.203,220.841,171.798"/>
<path class="path-17" d="M220.841,171.798C220.921,168.514,234.364,163.701,240.395,160.670"/>
<path class="path-17" d="M240.395,160.670C246.585,157.558,258.366,151.277,261.540,151.381"/>
<path class="path-18" d="M261.540,151.381C265.031,151.916,263.463,154.969,263.536,164.620C263.616,175.133,250.777,189.230,237.779,188.900C230.459,188.714,220.564,183.203,220.841,171.798C220.921,168.514,234.364,163.701,240.395,160.670C246.585,157.558,258.366,151.277,261.540,151.381Z"/>
<path class="path-17" d="M161.568,162.609C164.686,164.188,185.992,171.609,186.716,174.890"/>
<path class="path-17" d="M186.716,174.890C188.945,184.999,182.233,192.716,174.182,191.960"/>
<path class="path-17" d="M174.182,191.960C168.145,191.274,164.759,185.454,162.849,179.658"/>
<path class="path-17" d="M162.849,179.658C161.571,176.247,156.799,160.193,161.568,162.609"/>
<path class="path-18" d="M161.568,162.609C164.686,164.188,185.992,171.609,186.716,174.890C188.945,184.999,182.233,192.716,174.182,191.960C168.145,191.274,164.759,185.454,162.849,179.658C161.571,176.247,156.799,160.193,161.568,162.609Z"/>
</g>
</g>
<g id="pupil">
<path class="path-0" d="M221.796,166.256C224.167,165.692,227.002,169.289,227.692,178.056C228.144,183.798,226.932,186.134,225.354,186.374C223.463,186.661,221.808,184.001,220.525,177.224C219.156,169.992,219.811,166.728,221.796,166.256Z" mask="url(#f3906406-f197-4bf1-91d8-744c09cca836)"/>
<path class="path-0" d="M164.457,166.726C166.560,166.358,168.195,169.693,169.501,177.540C170.481,183.427,170.239,186.059,168.687,186.455C167.145,186.848,165.335,184.787,163.708,179.084C161.443,171.147,162.275,167.108,164.457,166.726Z" mask="url(#f3906406-f197-4bf1-91d8-744c09cca836)"/>
</g>
</g>
<g id="hat">
<path class="path-0" d="M298.518,125.769C300.661,126.848,303.461,129.422,303.859,132.076C305.377,138.501,294.298,138.435,290.901,138.818C284.527,138.897,277.869,138.527,271.780,138.406C266.092,138.808,260.386,138.820,254.687,139.011C242.291,138.463,229.952,137.189,217.562,136.568C204.069,136.422,190.949,135.820,177.116,135.577C175.447,135.596,144.643,138.913,139.166,136.329C128.764,131.535,138.720,123.154,138.165,118.130C138.059,114.977,131.345,114.136,133.002,108.671C134.552,103.837,151.336,99.715,156.400,98.548C167.854,95.845,179.726,92.649,191.915,91.122C208.163,89.185,224.342,90.052,240.808,89.133C256.976,88.327,292.464,93.941,302.799,110.121C308.931,119.512,291.298,111.123,289.322,110.656C284.077,108.026,264.550,100.183,271.941,109.679C276.332,116.757,292.054,121.784,298.518,125.769M182.857,84.849C171.925,86.453,161.873,87.388,151.526,89.652C147.267,90.573,142.262,92.548,138.185,91.379C129.238,88.960,140.236,66.353,144.265,61.046C158.925,42.227,189.230,33.136,214.300,33.596C260.181,34.438,278.015,43.063,292.390,59.214C296.904,63.921,312.055,86.834,303.062,92.805C299.760,94.700,293.854,91.044,290.951,89.664C280.902,85.145,230.229,77.897,182.857,84.849M253.206,27.987C241.192,25.602,236.283,21.888,222.544,22.340C191.468,23.711,151.962,28.430,133.164,57.538C127.224,66.968,126.418,77.614,124.007,87.701C122.145,95.340,117.410,101.058,117.922,108.814C118.593,116.012,121.963,117.720,123.814,123.378C125.963,129.382,123.764,132.012,125.016,135.917C127.465,147.163,137.764,147.583,147.284,147.884C152.009,148.035,169.450,147.764,178.950,147.691C190.320,147.603,205.478,147.364,216.849,147.337C226.671,147.314,239.767,147.560,249.589,147.482C258.663,147.409,270.773,147.420,279.830,146.870C289.526,146.281,310.895,144.732,312.043,143.585C314.005,141.659,318.230,122.635,318.421,119.060C318.614,115.433,316.994,111.719,317.370,105.904C317.927,92.571,318.392,80.353,312.014,67.310C300.387,44.050,275.714,32.885,253.206,27.987Z"/>
<path class="path-19" d="M240.808,89.133C256.976,88.327,292.464,93.941,302.799,110.121"/>
<path class="path-19" d="M302.799,110.121C308.931,119.512,291.298,111.123,289.322,110.656"/>
<path class="path-19" d="M289.322,110.656C284.077,108.026,264.550,100.183,271.941,109.679"/>
<path class="path-19" d="M271.941,109.679C276.332,116.757,292.054,121.784,298.518,125.769"/>
<path class="path-19" d="M298.518,125.769C300.661,126.848,303.461,129.422,303.859,132.076"/>
<path class="path-19" d="M303.859,132.076C305.377,138.501,294.298,138.435,290.901,138.818"/>
<path class="path-19" d="M290.901,138.818C284.527,138.897,277.869,138.527,271.780,138.406"/>
<path class="path-19" d="M271.780,138.406C266.092,138.808,260.386,138.820,254.687,139.011"/>
<path class="path-19" d="M254.687,139.011C242.291,138.463,229.952,137.189,217.562,136.568"/>
<path class="path-19" d="M217.562,136.568C204.069,136.422,190.949,135.820,177.116,135.577"/>
<path class="path-19" d="M177.116,135.577C175.447,135.596,144.643,138.913,139.166,136.329"/>
<path class="path-19" d="M139.166,136.329C128.764,131.535,138.720,123.154,138.165,118.130"/>
<path class="path-19" d="M138.165,118.130C138.059,114.977,131.345,114.136,133.002,108.671"/>
<path class="path-19" d="M133.002,108.671C134.552,103.837,151.336,99.715,156.400,98.548"/>
<path class="path-19" d="M156.400,98.548C167.854,95.845,179.726,92.649,191.915,91.122"/>
<path class="path-19" d="M191.915,91.122C208.163,89.185,224.342,90.052,240.808,89.133"/>
<path class="path-20" d="M240.808,89.133C256.976,88.327,292.464,93.941,302.799,110.121C308.931,119.512,291.298,111.123,289.322,110.656C284.077,108.026,264.550,100.183,271.941,109.679C276.332,116.757,292.054,121.784,298.518,125.769C300.661,126.848,303.461,129.422,303.859,132.076C305.377,138.501,294.298,138.435,290.901,138.818C284.527,138.897,277.869,138.527,271.780,138.406C266.092,138.808,260.386,138.820,254.687,139.011C242.291,138.463,229.952,137.189,217.562,136.568C204.069,136.422,190.949,135.820,177.116,135.577C175.447,135.596,144.643,138.913,139.166,136.329C128.764,131.535,138.720,123.154,138.165,118.130C138.059,114.977,131.345,114.136,133.002,108.671C134.552,103.837,151.336,99.715,156.400,98.548C167.854,95.845,179.726,92.649,191.915,91.122C208.163,89.185,224.342,90.052,240.808,89.133Z"/>
<path class="path-9" d="M214.300,33.596C260.181,34.438,278.015,43.063,292.390,59.214"/>
<path class="path-9" d="M292.390,59.214C296.904,63.921,312.055,86.834,303.062,92.805"/>
<path class="path-9" d="M303.062,92.805C299.760,94.700,293.854,91.044,290.951,89.664"/>
<path class="path-9" d="M290.951,89.664C280.902,85.145,230.229,77.897,182.857,84.849"/>
<path class="path-9" d="M182.857,84.849C171.925,86.453,161.873,87.388,151.526,89.652"/>
<path class="path-9" d="M151.526,89.652C147.267,90.573,142.262,92.548,138.185,91.379"/>
<path class="path-9" d="M138.185,91.379C129.238,88.960,140.236,66.353,144.265,61.046"/>
<path class="path-9" d="M144.265,61.046C158.925,42.227,189.230,33.136,214.300,33.596"/>
<path class="path-10" d="M214.300,33.596C260.181,34.438,278.015,43.063,292.390,59.214C296.904,63.921,312.055,86.834,303.062,92.805C299.760,94.700,293.854,91.044,290.951,89.664C280.902,85.145,230.229,77.897,182.857,84.849C171.925,86.453,161.873,87.388,151.526,89.652C147.267,90.573,142.262,92.548,138.185,91.379C129.238,88.960,140.236,66.353,144.265,61.046C158.925,42.227,189.230,33.136,214.300,33.596Z"/>
</g>
<g id="left_ear">
<path class="path-0" d="M288.039,185.816C286.631,181.129,290.729,154.974,292.833,151.443C298.309,142.029,314.770,151.281,317.937,159.180C321.384,168.314,311.588,182.130,304.090,188.382C296.993,194.119,290.380,193.372,288.039,185.816M330.341,162.484C329.337,148.272,312.640,132.993,299.930,139.175C284.774,146.547,290.074,168.702,287.566,182.426C286.961,186.314,284.265,190.290,285.022,193.956C286.800,203.323,296.141,205.287,304.549,198.535C314.685,190.223,330.900,176.400,330.341,162.484Z"/>
<path class="path-15" d="M292.833,151.443C298.309,142.029,314.770,151.281,317.937,159.180"/>
<path class="path-15" d="M317.937,159.180C321.384,168.314,311.588,182.130,304.090,188.382"/>
<path class="path-15" d="M304.090,188.382C296.993,194.119,290.380,193.372,288.039,185.816"/>
<path class="path-15" d="M288.039,185.816C286.631,181.129,290.729,154.974,292.833,151.443"/>
<path class="path-16" d="M292.833,151.443C298.309,142.029,314.770,151.281,317.937,159.180C321.384,168.314,311.588,182.130,304.090,188.382C296.993,194.119,290.380,193.372,288.039,185.816C286.631,181.129,290.729,154.974,292.833,151.443Z"/>
</g>
<g id="earrings">
<path class="path-0" d="M309.774,205.849C300.996,209.525,299.179,190.652,302.771,191.045C307.793,192.842,314.066,201.732,309.774,205.849M319.047,197.697C312.278,197.749,309.382,188.765,308.920,184.894C316.497,186.712,325.962,192.546,319.047,197.697M328.823,193.626C326.314,185.608,314.464,180.817,306.698,177.656C303.929,176.529,296.632,186.446,296.289,189.572C295.230,193.568,296.901,215.620,310.541,213.024C316.188,211.689,330.844,200.084,328.823,193.626Z"/>
<path class="path-21" d="M308.920,184.894C316.497,186.712,325.962,192.546,319.047,197.697"/>
<path class="path-21" d="M319.047,197.697C312.278,197.749,309.382,188.765,308.920,184.894"/>
<path class="path-22" d="M308.920,184.894C316.497,186.712,325.962,192.546,319.047,197.697C312.278,197.749,309.382,188.765,308.920,184.894Z"/>
<path class="path-21" d="M302.771,191.045C307.793,192.842,314.066,201.732,309.774,205.849"/>
<path class="path-21" d="M309.774,205.849C300.996,209.525,299.179,190.652,302.771,191.045"/>
<path class="path-22" d="M302.771,191.045C307.793,192.842,314.066,201.732,309.774,205.849C300.996,209.525,299.179,190.652,302.771,191.045Z"/>
</g>
</g>
<g id="jacket">
<path class="path-0" d="M202.406,270.837C205.050,275.173,202.306,285.477,202.282,290.134C200.195,307.148,197.909,323.453,197.441,340.190C197.448,343.496,196.187,349.381,193.982,352.532C191.728,355.752,186.571,358.715,183.326,360.155C179.496,361.788,176.320,355.667,174.867,352.682C173.360,349.586,173.984,343.182,174.218,340.954C175.079,335.845,178.253,326.210,179.400,319.777C180.538,313.668,180.700,307.268,181.162,300.431C181.095,294.960,179.068,288.633,178.067,282.613C178.172,279.395,178.794,277.414,178.872,275.139C178.560,269.756,181.027,268.302,186.173,267.819C190.996,267.710,200.768,265.529,202.406,270.837M258.875,280.175C260.337,276.513,286.009,259.536,289.282,257.771C297.678,253.746,302.121,262.989,302.123,268.470C302.236,277.038,287.938,305.255,289.358,311.241C289.835,313.944,291.721,315.428,293.310,317.165C306.488,333.064,301.126,322.334,315.140,330.352C320.155,333.275,329.705,341.367,332.706,346.203C334.778,350.031,337.795,359.860,336.602,363.764C336.230,364.683,335.242,365.869,333.903,365.297C332.668,364.940,322.349,356.999,320.278,356.240C310.519,352.055,298.898,352.515,290.867,344.409C287.239,340.327,284.834,334.590,281.540,329.751C275.593,321.317,269.332,313.217,265.086,303.765C262.090,297.787,256.963,286.948,258.875,280.175M275.318,255.283C272.285,258.365,266.205,263.282,264.051,264.275C256.294,267.359,254.782,258.075,254.268,252.236C254.001,247.112,256.968,239.849,260.050,235.535C262.755,231.748,267.140,226.595,272.199,225.888C278.534,224.770,289.274,231.427,287.938,238.625C287.533,241.970,279.716,250.814,275.318,255.283M193.539,234.026C198.483,238.100,202.199,242.834,201.091,247.272C200.055,251.421,196.983,253.587,189.763,255.866C178.394,259.453,169.704,242.216,173.319,235.154C176.088,229.746,187.245,228.839,193.539,234.026M338.963,381.482C342.876,370.769,350.408,363.527,347.759,351.918C345.550,342.658,336.928,334.141,329.359,328.447C318.539,320.735,308.692,323.016,301.256,309.948C295.704,300.575,299.725,290.487,301.115,280.126C301.448,276.472,301.645,257.802,301.744,254.455C301.320,251.001,301.940,247.519,301.486,244.348C301.058,240.483,301.572,236.369,300.269,232.704C298.339,226.105,291.433,223.100,286.172,219.797C278.925,215.824,272.654,214.009,264.404,215.853C255.276,217.906,252.075,228.007,249.463,234.744C245.492,244.982,247.548,260.335,247.850,271.312C248.023,277.581,248.813,286.303,249.765,292.130C252.522,310.847,275.081,346.816,291.447,356.553C294.456,358.618,315.515,365.982,320.921,370.277C325.787,374.185,325.402,378.319,327.592,383.978C328.248,385.893,330.430,390.435,333.020,390.356C336.070,390.362,338.197,383.580,338.963,381.482M207.149,233.536C203.773,227.774,198.192,218.205,191.358,217.847C185.046,217.720,175.459,219.085,169.784,222.495C166.315,224.580,161.118,228.447,160.766,232.532C160.104,238.592,162.603,245.821,165.634,250.517C167.435,253.307,171.875,255.287,173.959,257.813C175.020,259.172,178.757,266.687,179.439,268.711C183.152,278.805,180.315,290.781,178.259,299.922C176.402,308.183,169.462,317.737,167.248,325.910C165.190,333.508,163.344,343.358,163.840,351.926C163.850,354.548,166.017,360.042,167.188,363.445C168.240,366.506,169.384,372.278,171.176,373.469C172.321,374.229,184.762,375.103,190.036,373.051C194.033,371.496,197.926,372.411,200.964,363.836C204.756,352.293,205.725,341.251,206.173,328.970C206.402,308.056,212.626,279.158,211.927,266.204C211.604,260.201,212.708,256.205,211.435,247.836C210.799,244.350,209.413,237.400,207.149,233.536Z"/>
<path class="path-1" d="M289.282,257.771C297.678,253.746,302.121,262.989,302.123,268.470"/>
<path class="path-1" d="M302.123,268.470C302.236,277.038,287.938,305.255,289.358,311.241"/>
<path class="path-1" d="M289.358,311.241C289.835,313.944,291.721,315.428,293.310,317.165"/>
<path class="path-1" d="M293.310,317.165C306.488,333.064,301.126,322.334,315.140,330.352"/>
<path class="path-1" d="M315.140,330.352C320.155,333.275,329.705,341.367,332.706,346.203"/>
<path class="path-1" d="M332.706,346.203C334.778,350.031,337.795,359.860,336.602,363.764"/>
<path class="path-1" d="M336.602,363.764C336.230,364.683,335.242,365.869,333.903,365.297"/>
<path class="path-1" d="M333.903,365.297C332.668,364.940,322.349,356.999,320.278,356.240"/>
<path class="path-1" d="M320.278,356.240C310.519,352.055,298.898,352.515,290.867,344.409"/>
<path class="path-1" d="M290.867,344.409C287.239,340.327,284.834,334.590,281.540,329.751"/>
<path class="path-1" d="M281.540,329.751C275.593,321.317,269.332,313.217,265.086,303.765"/>
<path class="path-1" d="M265.086,303.765C262.090,297.787,256.963,286.948,258.875,280.175"/>
<path class="path-1" d="M258.875,280.175C260.337,276.513,286.009,259.536,289.282,257.771"/>
<path class="path-2" d="M289.282,257.771C297.678,253.746,302.121,262.989,302.123,268.470C302.236,277.038,287.938,305.255,289.358,311.241C289.835,313.944,291.721,315.428,293.310,317.165C306.488,333.064,301.126,322.334,315.140,330.352C320.155,333.275,329.705,341.367,332.706,346.203C334.778,350.031,337.795,359.860,336.602,363.764C336.230,364.683,335.242,365.869,333.903,365.297C332.668,364.940,322.349,356.999,320.278,356.240C310.519,352.055,298.898,352.515,290.867,344.409C287.239,340.327,284.834,334.590,281.540,329.751C275.593,321.317,269.332,313.217,265.086,303.765C262.090,297.787,256.963,286.948,258.875,280.175C260.337,276.513,286.009,259.536,289.282,257.771Z"/>
<path class="path-1" d="M186.173,267.819C190.996,267.710,200.768,265.529,202.406,270.837"/>
<path class="path-1" d="M202.406,270.837C205.050,275.173,202.306,285.477,202.282,290.134"/>
<path class="path-1" d="M202.282,290.134C200.195,307.148,197.909,323.453,197.441,340.190"/>
<path class="path-1" d="M197.441,340.190C197.448,343.496,196.187,349.381,193.982,352.532"/>
<path class="path-1" d="M193.982,352.532C191.728,355.752,186.571,358.715,183.326,360.155"/>
<path class="path-1" d="M183.326,360.155C179.496,361.788,176.320,355.667,174.867,352.682"/>
<path class="path-1" d="M174.867,352.682C173.360,349.586,173.984,343.182,174.218,340.954"/>
<path class="path-1" d="M174.218,340.954C175.079,335.845,178.253,326.210,179.400,319.777"/>
<path class="path-1" d="M179.400,319.777C180.538,313.668,180.700,307.268,181.162,300.431"/>
<path class="path-1" d="M181.162,300.431C181.095,294.960,179.068,288.633,178.067,282.613"/>
<path class="path-1" d="M178.067,282.613C178.172,279.395,178.794,277.414,178.872,275.139"/>
<path class="path-1" d="M178.872,275.139C178.560,269.756,181.027,268.302,186.173,267.819"/>
<path class="path-2" d="M186.173,267.819C190.996,267.710,200.768,265.529,202.406,270.837C205.050,275.173,202.306,285.477,202.282,290.134C200.195,307.148,197.909,323.453,197.441,340.190C197.448,343.496,196.187,349.381,193.982,352.532C191.728,355.752,186.571,358.715,183.326,360.155C179.496,361.788,176.320,355.667,174.867,352.682C173.360,349.586,173.984,343.182,174.218,340.954C175.079,335.845,178.253,326.210,179.400,319.777C180.538,313.668,180.700,307.268,181.162,300.431C181.095,294.960,179.068,288.633,178.067,282.613C178.172,279.395,178.794,277.414,178.872,275.139C178.560,269.756,181.027,268.302,186.173,267.819Z"/>
<path class="path-1" d="M272.199,225.888C278.534,224.770,289.274,231.427,287.938,238.625"/>
<path class="path-1" d="M287.938,238.625C287.533,241.970,279.716,250.814,275.318,255.283"/>
<path class="path-1" d="M275.318,255.283C272.285,258.365,266.205,263.282,264.051,264.275"/>
<path class="path-1" d="M264.051,264.275C256.294,267.359,254.782,258.075,254.268,252.236"/>
<path class="path-1" d="M254.268,252.236C254.001,247.112,256.968,239.849,260.050,235.535"/>
<path class="path-1" d="M260.050,235.535C262.755,231.748,267.140,226.595,272.199,225.888"/>
<path class="path-2" d="M272.199,225.888C278.534,224.770,289.274,231.427,287.938,238.625C287.533,241.970,279.716,250.814,275.318,255.283C272.285,258.365,266.205,263.282,264.051,264.275C256.294,267.359,254.782,258.075,254.268,252.236C254.001,247.112,256.968,239.849,260.050,235.535C262.755,231.748,267.140,226.595,272.199,225.888Z"/>
<path class="path-1" d="M193.539,234.026C198.483,238.100,202.199,242.834,201.091,247.272"/>
<path class="path-1" d="M201.091,247.272C200.055,251.421,196.983,253.587,189.763,255.866"/>
<path class="path-1" d="M189.763,255.866C178.394,259.453,169.704,242.216,173.319,235.154"/>
<path class="path-1" d="M173.319,235.154C176.088,229.746,187.245,228.839,193.539,234.026"/>
<path class="path-2" d="M193.539,234.026C198.483,238.100,202.199,242.834,201.091,247.272C200.055,251.421,196.983,253.587,189.763,255.866C178.394,259.453,169.704,242.216,173.319,235.154C176.088,229.746,187.245,228.839,193.539,234.026Z"/>
</g>
<g id="left_arm">
<path class="path-0" d="M290.957,459.754C288.048,454.605,287.599,446.256,294.881,444.323C300.096,442.895,323.303,447.715,327.167,451.592C333.935,457.735,329.907,471.895,321.510,475.113C311.532,478.424,295.903,468.294,290.957,459.754M279.516,276.423C280.393,273.226,288.864,263.064,293.897,264.184C296.819,264.834,298.222,269.839,299.220,272.502C301.881,280.818,304.543,289.469,306.872,298.119C313.194,320.741,317.431,343.384,322.177,365.988C323.877,375.309,324.060,387.601,327.386,395.931C331.337,405.499,337.529,402.296,340.474,408.573C341.794,411.572,341.140,417.224,343.136,421.881C346.130,429.201,351.785,433.194,354.446,437.851C356.111,440.512,356.764,443.444,353.117,444.173C351.125,445.212,345.754,444.444,343.746,444.501C337.003,442.910,330.264,441.310,323.566,439.560C314.596,437.619,287.492,435.790,282.863,429.806C275.840,420.394,286.797,409.321,288.133,399.924C288.795,396.929,292.186,352.968,291.567,350.019C290.906,343.164,287.387,337.131,285.841,330.057C284.214,320.430,282.539,310.147,281.179,300.115C280.223,291.877,276.733,285.067,279.516,276.423M305.541,254.536C303.213,249.877,295.893,241.561,289.904,242.890C284.914,244.222,284.249,250.210,283.582,254.203C281.920,264.184,279.924,272.502,279.924,282.149C279.590,289.136,280.257,295.458,280.921,302.111C281.586,311.427,279.590,329.392,279.924,340.038C279.924,349.686,282.253,359.667,281.586,367.985C279.590,387.613,271.273,406.246,271.938,425.874C271.939,435.855,274.600,435.855,276.929,443.840C278.592,449.828,277.263,456.150,279.590,461.805C285.579,476.776,302.880,490.416,319.847,487.091C335.483,484.096,336.150,467.129,344.466,458.146C351.786,450.161,366.424,454.154,368.420,445.835C370.416,438.849,360.749,431.211,357.110,425.874C349.859,415.913,355.544,413.606,351.950,405.967C349.337,400.320,341.801,395.280,338.141,388.001C336.122,384.655,335.021,378.320,333.651,373.973C330.922,364.002,327.913,352.684,326.223,342.034C324.529,329.725,324.183,318.745,320.845,306.103C318.176,295.460,310.200,262.852,305.541,254.536Z"/>
<path class="path-1" d="M293.897,264.184C296.819,264.834,298.222,269.839,299.220,272.502"/>
<path class="path-1" d="M299.220,272.502C301.881,280.818,304.543,289.469,306.872,298.119"/>
<path class="path-1" d="M306.872,298.119C313.194,320.741,317.431,343.384,322.177,365.988"/>
<path class="path-1" d="M322.177,365.988C323.877,375.309,324.060,387.601,327.386,395.931"/>
<path class="path-1" d="M327.386,395.931C331.337,405.499,337.529,402.296,340.474,408.573"/>
<path class="path-1" d="M340.474,408.573C341.794,411.572,341.140,417.224,343.136,421.881"/>
<path class="path-1" d="M343.136,421.881C346.130,429.201,351.785,433.194,354.446,437.851"/>
<path class="path-1" d="M354.446,437.851C356.111,440.512,356.764,443.444,353.117,444.173"/>
<path class="path-1" d="M353.117,444.173C351.125,445.212,345.754,444.444,343.746,444.501"/>
<path class="path-1" d="M343.746,444.501C337.003,442.910,330.264,441.310,323.566,439.560"/>
<path class="path-1" d="M323.566,439.560C314.596,437.619,287.492,435.790,282.863,429.806"/>
<path class="path-1" d="M282.863,429.806C275.840,420.394,286.797,409.321,288.133,399.924"/>
<path class="path-1" d="M288.133,399.924C288.795,396.929,292.186,352.968,291.567,350.019"/>
<path class="path-1" d="M291.567,350.019C290.906,343.164,287.387,337.131,285.841,330.057"/>
<path class="path-1" d="M285.841,330.057C284.214,320.430,282.539,310.147,281.179,300.115"/>
<path class="path-1" d="M281.179,300.115C280.223,291.877,276.733,285.067,279.516,276.423"/>
<path class="path-1" d="M279.516,276.423C280.393,273.226,288.864,263.064,293.897,264.184"/>
<path class="path-2" d="M293.897,264.184C296.819,264.834,298.222,269.839,299.220,272.502C301.881,280.818,304.543,289.469,306.872,298.119C313.194,320.741,317.431,343.384,322.177,365.988C323.877,375.309,324.060,387.601,327.386,395.931C331.337,405.499,337.529,402.296,340.474,408.573C341.794,411.572,341.140,417.224,343.136,421.881C346.130,429.201,351.785,433.194,354.446,437.851C356.111,440.512,356.764,443.444,353.117,444.173C351.125,445.212,345.754,444.444,343.746,444.501C337.003,442.910,330.264,441.310,323.566,439.560C314.596,437.619,287.492,435.790,282.863,429.806C275.840,420.394,286.797,409.321,288.133,399.924C288.795,396.929,292.186,352.968,291.567,350.019C290.906,343.164,287.387,337.131,285.841,330.057C284.214,320.430,282.539,310.147,281.179,300.115C280.223,291.877,276.733,285.067,279.516,276.423C280.393,273.226,288.864,263.064,293.897,264.184Z"/>
<path class="path-15" d="M294.881,444.323C300.096,442.895,323.303,447.715,327.167,451.592"/>
<path class="path-15" d="M327.167,451.592C333.935,457.735,329.907,471.895,321.510,475.113"/>
<path class="path-15" d="M321.510,475.113C311.532,478.424,295.903,468.294,290.957,459.754"/>
<path class="path-15" d="M290.957,459.754C288.048,454.605,287.599,446.256,294.881,444.323"/>
<path class="path-16" d="M294.881,444.323C300.096,442.895,323.303,447.715,327.167,451.592C333.935,457.735,329.907,471.895,321.510,475.113C311.532,478.424,295.903,468.294,290.957,459.754C288.048,454.605,287.599,446.256,294.881,444.323Z"/>
</g>
<g id="bone">
<g id="bone1_clothes">
<path class="path-23" d="M233.902,387.759C233.903,387.753,240.606,329.147,240.607,329.141C240.607,329.147,245.032,387.969,245.032,387.975C245.031,387.975,233.903,387.759,233.902,387.759"/>
</g>
<g id="bone2_clothes">
<path class="path-23" d="M232.624,327.574C232.624,327.567,233.889,255.051,233.889,255.044C233.890,255.051,246.350,326.499,246.352,326.506C246.350,326.506,232.625,327.574,232.624,327.574"/>
</g>
<g id="bone3_neck">
<path class="path-23" d="M237.758,253.772C237.758,253.768,232.862,212.356,232.861,212.352C232.861,212.356,231.166,254.022,231.166,254.026C231.166,254.026,237.757,253.772,237.758,253.772"/>
</g>
<g id="bone4_head">
<path class="path-23" d="M230.417,212.865C230.417,212.857,229.771,134.795,229.771,134.788C229.773,134.795,242.833,211.759,242.834,211.766C242.833,211.766,230.419,212.865,230.417,212.865"/>
</g>
<g id="bone5_left_arm">
<path class="path-23" d="M297.696,254.182C297.699,254.190,335.711,338.483,335.715,338.491C335.710,338.483,283.926,261.877,283.921,261.869C283.922,261.868,297.694,254.182,297.696,254.182"/>
</g>
<g id="bone6_left_arm">
<path class="path-23" d="M300.866,348.814C300.866,348.820,303.368,412.507,303.368,412.514C303.369,412.508,311.297,349.266,311.298,349.260C311.297,349.260,300.867,348.814,300.866,348.814"/>
</g>
<g id="bone7_right_arm">
<path class="path-23" d="M169.205,269.357C169.203,269.368,145.654,382.441,145.652,382.453C145.656,382.442,186.750,274.501,186.754,274.490C186.753,274.490,169.207,269.357,169.205,269.357"/>
</g>
<g id="bone8_right_arm">
<path class="path-23" d="M156.676,379.096C156.680,379.101,188.663,429.300,188.667,429.305C188.662,429.301,147.247,386.550,147.242,386.546C147.243,386.545,156.675,379.097,156.676,379.096"/>
</g>
<g id="bone9_left_leg">
<path class="path-23" d="M272.125,386.368C272.125,386.379,270.049,488.023,270.049,488.033C270.047,488.023,253.817,387.662,253.815,387.652C253.817,387.651,272.123,386.368,272.125,386.368"/>
</g>
<g id="bone10_right_leg">
<path class="path-23" d="M209.552,384.760C209.551,384.771,200.043,488.089,200.042,488.099C200.044,488.089,224.842,387.341,224.844,387.331C224.843,387.331,209.553,384.760,209.552,384.760"/>
</g>
<g id="bone11_hair">
<path class="path-23" d="M234.540,156.891C234.541,156.899,243.744,236.553,243.745,236.561C243.743,236.554,220.117,159.929,220.115,159.921C220.116,159.921,234.538,156.891,234.540,156.891"/>
</g>
<g id="bone12_left_leg_S">
<path class="path-23" d="M441.813,218.912C441.815,218.905,463.125,149.771,463.127,149.764C463.124,149.771,430.744,214.464,430.741,214.471C430.742,214.471,441.811,218.912,441.813,218.912"/>
</g>
<g id="bone13_right_leg_S">
<path class="path-23" d="M497.620,221.796C497.626,221.793,562.946,190.697,562.953,190.694C562.946,190.696,493.405,210.638,493.398,210.639C493.398,210.641,497.619,221.795,497.620,221.796"/>
</g>
<g id="bone14_left_arm_S">
<path class="path-23" d="M557.442,214.626C557.440,214.620,535.888,145.560,535.886,145.553C535.887,145.560,545.799,217.222,545.800,217.229C545.801,217.229,557.441,214.627,557.442,214.626"/>
</g>
<g id="bone15_jacket_S">
<path class="path-23" d="M610.018,218.054C610.020,218.047,629.736,148.442,629.738,148.435C629.735,148.441,598.851,213.862,598.847,213.868C598.849,213.868,610.017,218.054,610.018,218.054"/>
</g>
<g id="bone16_pupils_S">
<path class="path-23" d="M439.822,342.025C439.828,342.021,494.343,294.463,494.349,294.458C494.343,294.462,432.754,332.416,432.748,332.420C432.749,332.421,439.822,342.024,439.822,342.025"/>
</g>
<g id="bone17_eyelids_S">
<path class="path-23" d="M502.309,337.358C502.308,337.351,496.345,265.253,496.344,265.246C496.344,265.253,490.380,337.351,490.380,337.358C490.381,337.358,502.308,337.358,502.309,337.358"/>
</g>
<g id="bone18_face_S">
<path class="path-23" d="M556.899,342.133C556.902,342.126,590.517,278.066,590.520,278.059C590.516,278.065,546.833,335.732,546.828,335.738C546.830,335.739,556.898,342.132,556.899,342.133"/>
</g>
</g>
</g>
<style>
.path-0{fill:#000000;fill-rule:evenodd;stroke:none;}
.path-1{fill:none;stroke:#a60d3f;stroke-width:1;stroke-linecap:butt;stroke-linejoin:round;}
.path-2{fill:#a60d3f;fill-rule:evenodd;stroke:none;}
.path-3{fill:none;stroke:#d88e4b;stroke-width:1;stroke-linecap:butt;stroke-linejoin:round;}
.path-4{fill:#d88e4b;fill-rule:evenodd;stroke:none;}
.path-5{fill:none;stroke:#6e2353;stroke-width:1;stroke-linecap:butt;stroke-linejoin:round;}
.path-6{fill:#6e2353;fill-rule:evenodd;stroke:none;}
.path-7{fill:none;stroke:#392966;stroke-width:1;stroke-linecap:butt;stroke-linejoin:round;}
.path-8{fill:#392966;fill-rule:evenodd;stroke:none;}
.path-9{fill:none;stroke:#cc9bc5;stroke-width:1;stroke-linecap:butt;stroke-linejoin:round;}
.path-10{fill:#cc9bc5;fill-rule:evenodd;stroke:none;}
.path-11{fill:none;stroke:#620527;stroke-width:1;stroke-linecap:butt;stroke-linejoin:round;}
.path-12{fill:#620527;fill-rule:evenodd;stroke:none;}
.path-13{fill:none;stroke:#6a3661;stroke-width:1;stroke-linecap:butt;stroke-linejoin:round;}
.path-14{fill:#6a3661;fill-rule:evenodd;stroke:none;}
.path-15{fill:none;stroke:#f8a087;stroke-width:1;stroke-linecap:butt;stroke-linejoin:round;}
.path-16{fill:#f8a087;fill-rule:evenodd;stroke:none;}
.path-17{fill:none;stroke:#ffffff;stroke-width:1;stroke-linecap:butt;stroke-linejoin:round;}
.path-18{fill:#ffffff;fill-rule:evenodd;stroke:none;}
.path-19{fill:none;stroke:#d89f4a;stroke-width:1;stroke-linecap:butt;stroke-linejoin:round;}
.path-20{fill:#d89f4a;fill-rule:evenodd;stroke:none;}
.path-21{fill:none;stroke:#fafd5b;stroke-width:1;stroke-linecap:butt;stroke-linejoin:round;}
.path-22{fill:#fafd5b;fill-rule:evenodd;stroke:none;}
.path-23{fill:none;stroke:#00ff42;stroke-width:8;stroke-linecap:round;stroke-linejoin:round;}
.path-24{fill:none;stroke:#000000;stroke-width:1;stroke-linecap:butt;stroke-linejoin:round;}
.path-25{fill:none;stroke:#ececec;stroke-width:1;stroke-linecap:butt;stroke-linejoin:round;}
.path-26{fill:#ececec;fill-rule:evenodd;stroke:none;}
</style>
</svg>
