<svg version="1.1" id="Frame_177" xmlns="http://www.w3.org/2000/svg" xmlns:xlink="http://www.w3.org/1999/xlink" width="480px" height="720px">
<g id="main_bone">
<g id="right_arm">
<path class="path-0" d="M174.126,270.172C175.458,267.511,178.075,262.017,181.778,260.525C188.182,257.943,193.652,263.933,194.431,268.509C196.093,276.447,190.936,287.396,188.470,295.289C182.390,314.329,175.637,333.084,171.132,352.015C170.600,355.317,165.808,376.634,165.808,373.973C165.476,380.626,172.130,386.283,174.459,391.939C177.454,399.590,174.791,406.910,172.795,413.897C168.138,428.535,168.471,433.858,167.804,448.165C167.804,450.492,167.473,458.146,163.812,458.146C160.487,458.146,160.153,452.157,159.488,449.828C159.155,447.167,156.825,441.510,157.492,439.182C157.823,435.190,162.483,436.188,157.492,427.870C151.170,417.555,139.526,409.240,136.532,395.931C134.536,385.285,140.191,375.969,143.186,365.988C149.508,344.695,156.494,323.404,163.812,302.111C167.805,291.132,168.802,281.484,174.126,270.172M193.754,262.188C193.755,253.538,190.761,245.885,180.115,249.546C163.481,255.200,158.822,281.484,154.165,296.122C147.512,316.084,141.855,336.046,136.199,356.007C133.870,364.657,130.544,368.982,129.212,373.973C127.549,379.628,127.881,388.280,128.214,393.935C128.214,411.567,133.869,412.234,140.856,425.874C144.517,433.859,140.525,438.849,142.852,445.835C144.517,450.492,148.176,453.820,150.837,457.813C153.166,461.805,153.499,464.135,155.162,467.793C157.158,472.119,163.481,481.767,169.136,479.771C173.793,478.108,173.793,469.790,174.126,465.797C174.459,459.809,178.119,436.853,179.450,429.866C181.778,418.554,187.435,406.245,185.770,393.935C184.440,384.619,176.122,377.965,176.456,367.985C176.787,362.661,180.115,354.011,181.113,348.023C182.776,338.375,182.776,328.061,184.772,318.081C188.099,300.448,194.421,280.487,193.754,262.188Z"/>
<path class="path-1" d="M181.778,260.525C188.182,257.943,193.652,263.933,194.431,268.509"/>
<path class="path-1" d="M194.431,268.509C196.093,276.447,190.936,287.396,188.470,295.289"/>
<path class="path-1" d="M188.470,295.289C182.390,314.329,175.637,333.084,171.132,352.015"/>
<path class="path-1" d="M171.132,352.015C170.600,355.317,165.808,376.634,165.808,373.973"/>
<path class="path-1" d="M165.808,373.973C165.476,380.626,172.130,386.283,174.459,391.939"/>
<path class="path-1" d="M174.459,391.939C177.454,399.590,174.791,406.910,172.795,413.897"/>
<path class="path-1" d="M172.795,413.897C168.138,428.535,168.471,433.858,167.804,448.165"/>
<path class="path-1" d="M167.804,448.165C167.804,450.492,167.473,458.146,163.812,458.146"/>
<path class="path-1" d="M163.812,458.146C160.487,458.146,160.153,452.157,159.488,449.828"/>
<path class="path-1" d="M159.488,449.828C159.155,447.167,156.825,441.510,157.492,439.182"/>
<path class="path-1" d="M157.492,439.182C157.823,435.190,162.483,436.188,157.492,427.870"/>
<path class="path-1" d="M157.492,427.870C151.170,417.555,139.526,409.240,136.532,395.931"/>
<path class="path-1" d="M136.532,395.931C134.536,385.285,140.191,375.969,143.186,365.988"/>
<path class="path-1" d="M143.186,365.988C149.508,344.695,156.494,323.404,163.812,302.111"/>
<path class="path-1" d="M163.812,302.111C167.805,291.132,168.802,281.484,174.126,270.172"/>
<path class="path-1" d="M174.126,270.172C175.458,267.511,178.075,262.017,181.778,260.525"/>
<path class="path-2" d="M181.778,260.525C188.182,257.943,193.652,263.933,194.431,268.509C196.093,276.447,190.936,287.396,188.470,295.289C182.390,314.329,175.637,333.084,171.132,352.015C170.600,355.317,165.808,376.634,165.808,373.973C165.476,380.626,172.130,386.283,174.459,391.939C177.454,399.590,174.791,406.910,172.795,413.897C168.138,428.535,168.471,433.858,167.804,448.165C167.804,450.492,167.473,458.146,163.812,458.146C160.487,458.146,160.153,452.157,159.488,449.828C159.155,447.167,156.825,441.510,157.492,439.182C157.823,435.190,162.483,436.188,157.492,427.870C151.170,417.555,139.526,409.240,136.532,395.931C134.536,385.285,140.191,375.969,143.186,365.988C149.508,344.695,156.494,323.404,163.812,302.111C167.805,291.132,168.802,281.484,174.126,270.172C175.458,267.511,178.075,262.017,181.778,260.525Z"/>
</g>
<g id="layer_left_leg">
<g id="left_heel">
<path class="path-0" d="M255.746,627.947C248.689,616.382,262.642,597.146,273.961,594.867C291.329,591.181,304.199,617.008,302.037,623.236C298.435,632.642,282.044,632.975,273.459,633.044C268.831,632.929,257.986,631.796,255.746,627.947M302.132,593.769C292.326,584.108,269.852,585.908,258.944,592.084C235.799,604.605,230.800,646.724,264.950,645.585C276.657,645.250,302.463,642.920,309.400,635.660C315.467,630.047,313.532,620.645,311.675,613.143C309.779,607.059,306.744,598.443,302.132,593.769Z"/>
<path class="path-3" d="M273.961,594.867C291.329,591.181,304.199,617.008,302.037,623.236"/>
<path class="path-3" d="M302.037,623.236C298.435,632.642,282.044,632.975,273.459,633.044"/>
<path class="path-3" d="M273.459,633.044C268.831,632.929,257.986,631.796,255.746,627.947"/>
<path class="path-3" d="M255.746,627.947C248.689,616.382,262.642,597.146,273.961,594.867"/>
<path class="path-4" d="M273.961,594.867C291.329,591.181,304.199,617.008,302.037,623.236C298.435,632.642,282.044,632.975,273.459,633.044C268.831,632.929,257.986,631.796,255.746,627.947C248.689,616.382,262.642,597.146,273.961,594.867Z"/>
</g>
<g id="left_leg">
<path class="path-0" d="M238.898,405.789C240.604,401.168,250.098,404.779,253.973,404.581C259.819,404.565,272.976,402.520,277.742,406.099C286.426,412.175,288.617,441.474,289.044,451.661C289.462,483.120,291.330,512.608,292.047,542.980C292.045,549.460,292.000,556.149,292.075,562.503C292.349,567.630,290.663,574.266,294.015,577.758C295.330,579.722,299.981,578.306,300.090,580.494C299.982,588.904,291.996,584.253,287.800,588.518C280.154,595.829,265.985,602.615,256.715,600.094C250.333,598.586,239.592,591.174,237.169,585.175C234.861,579.459,233.328,572.532,232.307,566.573C227.613,539.172,243.405,482.152,236.983,451.547C233.052,432.813,241.634,431.700,249.058,418.850C250.285,416.726,238.396,419.128,236.730,417.280C234.452,415.128,237.683,408.599,238.898,405.789M284.960,397.228C278.682,392.463,261.282,394.513,253.973,394.933C249.961,395.148,237.386,392.156,234.430,393.983C216.601,405.008,223.552,444.790,225.548,461.765C225.791,466.553,224.770,489.415,224.438,495.860C224.640,523.318,218.499,546.789,220.203,574.195C220.574,581.766,220.125,589.260,222.806,596.240C230.000,614.587,247.082,617.729,269.676,616.404C281.529,615.719,307.644,610.378,316.225,588.098C319.641,579.219,314.119,567.216,312.779,564.286C310.577,559.472,307.299,554.787,306.067,549.249C301.503,531.623,308.107,512.878,306.798,494.612C305.147,471.263,304.613,412.210,284.960,397.228Z"/>
<path class="path-7" d="M253.973,404.581C259.819,404.565,272.976,402.520,277.742,406.099"/>
<path class="path-7" d="M277.742,406.099C286.426,412.175,288.617,441.474,289.044,451.661"/>
<path class="path-7" d="M289.044,451.661C289.462,483.120,291.330,512.608,292.047,542.980"/>
<path class="path-7" d="M292.047,542.980C292.045,549.460,292.000,556.149,292.075,562.503"/>
<path class="path-7" d="M292.075,562.503C292.349,567.630,290.663,574.266,294.015,577.758"/>
<path class="path-7" d="M294.015,577.758C295.330,579.722,299.981,578.306,300.090,580.494"/>
<path class="path-7" d="M300.090,580.494C299.982,588.904,291.996,584.253,287.800,588.518"/>
<path class="path-7" d="M287.800,588.518C280.154,595.829,265.985,602.615,256.715,600.094"/>
<path class="path-7" d="M256.715,600.094C250.333,598.586,239.592,591.174,237.169,585.175"/>
<path class="path-7" d="M237.169,585.175C234.861,579.459,233.328,572.532,232.307,566.573"/>
<path class="path-7" d="M232.307,566.573C227.613,539.172,243.405,482.152,236.983,451.547"/>
<path class="path-7" d="M236.983,451.547C233.052,432.813,241.634,431.700,249.058,418.850"/>
<path class="path-7" d="M249.058,418.850C250.285,416.726,238.396,419.128,236.730,417.280"/>
<path class="path-7" d="M236.730,417.280C234.452,415.128,237.683,408.599,238.898,405.789"/>
<path class="path-7" d="M238.898,405.789C240.604,401.168,250.098,404.779,253.973,404.581"/>
<path class="path-8" d="M253.973,404.581C259.819,404.565,272.976,402.520,277.742,406.099C286.426,412.175,288.617,441.474,289.044,451.661C289.462,483.120,291.330,512.608,292.047,542.980C292.045,549.460,292.000,556.149,292.075,562.503C292.349,567.630,290.663,574.266,294.015,577.758C295.330,579.722,299.981,578.306,300.090,580.494C299.982,588.904,291.996,584.253,287.800,588.518C280.154,595.829,265.985,602.615,256.715,600.094C250.333,598.586,239.592,591.174,237.169,585.175C234.861,579.459,233.328,572.532,232.307,566.573C227.613,539.172,243.405,482.152,236.983,451.547C233.052,432.813,241.634,431.700,249.058,418.850C250.285,416.726,238.396,419.128,236.730,417.280C234.452,415.128,237.683,408.599,238.898,405.789C240.604,401.168,250.098,404.779,253.973,404.581Z"/>
</g>
<g id="left_toe">
<path class="path-0" d="M252.237,658.341C225.503,653.486,230.774,618.756,251.068,611.846C271.934,604.883,291.260,616.826,297.245,629.615C300.920,636.305,302.591,643.549,299.025,650.497C291.371,662.784,264.992,660.573,252.237,658.341M313.149,624.583C309.900,610.707,298.414,597.943,287.011,594.157C259.044,584.995,234.607,592.826,225.456,618.049C219.663,632.499,222.859,648.832,232.525,661.037C240.168,670.092,266.618,671.349,277.897,670.341C287.863,668.752,300.298,666.077,307.170,657.635C312.124,651.729,314.815,631.932,313.149,624.583Z"/>
<path class="path-3" d="M251.068,611.846C271.934,604.883,291.260,616.826,297.245,629.615"/>
<path class="path-3" d="M297.245,629.615C300.920,636.305,302.591,643.549,299.025,650.497"/>
<path class="path-3" d="M299.025,650.497C291.371,662.784,264.992,660.573,252.237,658.341"/>
<path class="path-3" d="M252.237,658.341C225.503,653.486,230.774,618.756,251.068,611.846"/>
<path class="path-4" d="M251.068,611.846C271.934,604.883,291.260,616.826,297.245,629.615C300.920,636.305,302.591,643.549,299.025,650.497C291.371,662.784,264.992,660.573,252.237,658.341C225.503,653.486,230.774,618.756,251.068,611.846Z"/>
</g>
<g id="left_sole">
<path class="path-0" d="M256.005,673.307C245.032,672.989,241.820,658.898,240.279,664.093C239.299,667.401,248.444,670.490,252.538,671.646C261.558,674.548,276.799,673.168,285.742,668.832C288.681,667.688,298.089,664.851,298.121,665.101C298.643,669.144,287.447,669.686,283.738,670.131C280.335,670.883,256.904,673.132,256.005,673.307M240.618,664.353C246.016,662.426,256.939,666.702,261.076,667.873C277.471,672.514,287.325,663.356,295.403,662.684C296.155,662.629,298.555,660.864,299.173,662.940C301.313,670.136,269.622,675.815,255.289,671.216C248.257,669.664,238.616,665.067,240.618,664.353M303.865,655.627C300.658,652.922,283.160,660.637,266.051,660.965C257.587,661.154,236.525,649.218,230.843,658.857C229.638,660.910,230.362,668.346,232.080,669.925C243.515,680.777,296.675,677.151,302.891,672.152C304.957,670.490,308.166,659.256,303.865,655.627Z"/>
<path class="path-5" d="M240.279,664.093C239.299,667.401,248.444,670.490,252.538,671.646"/>
<path class="path-5" d="M252.538,671.646C261.558,674.548,276.799,673.168,285.742,668.832"/>
<path class="path-5" d="M285.742,668.832C288.681,667.688,298.089,664.851,298.121,665.101"/>
<path class="path-5" d="M298.121,665.101C298.643,669.144,287.447,669.686,283.738,670.131"/>
<path class="path-5" d="M283.738,670.131C280.335,670.883,256.904,673.132,256.005,673.307"/>
<path class="path-5" d="M256.005,673.307C245.032,672.989,241.820,658.898,240.279,664.093"/>
<path class="path-6" d="M240.279,664.093C239.299,667.401,248.444,670.490,252.538,671.646C261.558,674.548,276.799,673.168,285.742,668.832C288.681,667.688,298.089,664.851,298.121,665.101C298.643,669.144,287.447,669.686,283.738,670.131C280.335,670.883,256.904,673.132,256.005,673.307C245.032,672.989,241.820,658.898,240.279,664.093Z"/>
<path class="path-5" d="M261.076,667.873C277.471,672.514,287.325,663.356,295.403,662.684"/>
<path class="path-5" d="M295.403,662.684C296.155,662.629,298.555,660.864,299.173,662.940"/>
<path class="path-5" d="M299.173,662.940C301.313,670.136,269.622,675.815,255.289,671.216"/>
<path class="path-5" d="M255.289,671.216C248.257,669.664,238.616,665.067,240.618,664.353"/>
<path class="path-5" d="M240.618,664.353C246.016,662.426,256.939,666.702,261.076,667.873"/>
<path class="path-6" d="M261.076,667.873C277.471,672.514,287.325,663.356,295.403,662.684C296.155,662.629,298.555,660.864,299.173,662.940C301.313,670.136,269.622,675.815,255.289,671.216C248.257,669.664,238.616,665.067,240.618,664.353C246.016,662.426,256.939,666.702,261.076,667.873Z"/>
</g>
</g>
<g id="layer_right_leg">
<g id="right_heel">
<path class="path-0" d="M183.480,618.970C184.324,602.622,185.480,589.929,205.429,587.044C214.325,585.595,231.272,588.418,236.165,597.022C238.737,601.294,237.942,607.564,238.185,612.128C238.647,619.563,243.180,633.909,232.703,635.644C232.030,635.823,213.491,636.137,207.705,636.286C200.280,637.169,192.555,637.724,187.185,632.581C184.444,629.377,183.207,622.792,183.480,618.970M245.687,595.312C241.769,584.911,227.480,579.023,217.414,580.489C204.301,582.237,190.878,577.908,182.338,590.181C175.700,599.720,174.935,617.251,176.922,628.378C177.671,633.525,180.915,642.915,185.190,645.766C188.325,647.760,193.170,647.186,196.876,647.190C214.947,647.500,247.218,653.630,246.841,626.667C246.670,619.723,247.734,600.807,245.687,595.312Z"/>
<path class="path-3" d="M205.429,587.044C214.325,585.595,231.272,588.418,236.165,597.022"/>
<path class="path-3" d="M236.165,597.022C238.737,601.294,237.942,607.564,238.185,612.128"/>
<path class="path-3" d="M238.185,612.128C238.647,619.563,243.180,633.909,232.703,635.644"/>
<path class="path-3" d="M232.703,635.644C232.030,635.823,213.491,636.137,207.705,636.286"/>
<path class="path-3" d="M207.705,636.286C200.280,637.169,192.555,637.724,187.185,632.581"/>
<path class="path-3" d="M187.185,632.581C184.444,629.377,183.207,622.792,183.480,618.970"/>
<path class="path-3" d="M183.480,618.970C184.324,602.622,185.480,589.929,205.429,587.044"/>
<path class="path-4" d="M205.429,587.044C214.325,585.595,231.272,588.418,236.165,597.022C238.737,601.294,237.942,607.564,238.185,612.128C238.647,619.563,243.180,633.909,232.703,635.644C232.030,635.823,213.491,636.137,207.705,636.286C200.280,637.169,192.555,637.724,187.185,632.581C184.444,629.377,183.207,622.792,183.480,618.970C184.324,602.622,185.480,589.929,205.429,587.044Z"/>
</g>
<g id="right_leg">
<path class="path-0" d="M182.932,404.810C186.579,392.939,202.274,390.130,212.784,393.055C218.617,394.550,228.358,397.416,231.565,402.912C232.988,405.351,233.553,409.893,232.095,412.312C229.607,416.439,214.185,413.860,217.020,417.856C221.917,424.982,231.872,415.472,236.164,419.313C238.096,421.042,238.261,424.621,238.643,427.593C242.610,449.499,235.626,472.823,235.323,494.418C235.156,501.387,233.363,511.652,234.522,518.008C236.865,533.819,235.021,537.125,235.347,546.607C235.248,550.130,233.348,567.976,234.468,572.570C235.728,577.331,239.001,581.940,239.434,586.871C240.167,595.226,228.071,606.287,220.554,608.544C212.060,610.911,185.904,609.130,177.977,604.755C174.818,603.130,171.002,599.178,169.753,595.582C168.411,592.297,166.747,576.915,167.788,573.206C169.869,566.735,172.359,565.417,174.491,557.749C176.676,548.722,178.976,538.967,178.552,529.472C177.337,510.514,178.342,480.516,180.592,467.041C181.682,459.360,180.126,433.485,181.224,426.375C183.120,414.798,181.098,412.550,182.932,404.810M208.062,381.294C202.406,379.297,198.067,373.933,192.092,375.969C190.277,376.761,187.106,379.025,185.818,380.334C169.845,394.098,171.057,407.924,171.015,427.501C170.707,434.520,170.723,441.817,170.074,448.537C169.422,454.115,167.651,458.699,166.327,463.812C165.521,468.030,164.825,472.544,164.586,477.849C164.477,483.185,165.863,489.453,165.939,498.515C165.307,508.476,165.963,517.887,165.462,527.414C165.339,533.774,162.212,548.485,161.295,553.316C158.993,560.197,155.638,568.125,154.013,574.786C152.393,583.591,153.928,592.912,157.349,600.680C158.950,604.906,161.847,609.942,165.009,612.779C167.076,614.632,169.842,615.757,172.330,616.650C180.311,619.468,187.920,620.797,196.456,621.108C202.261,621.363,207.996,619.821,214.020,620.300C215.040,620.225,223.335,621.940,224.981,622.057C227.901,622.096,232.018,619.534,234.678,617.965C238.166,615.644,244.262,614.881,247.111,611.654C249.495,608.949,250.390,605.213,251.652,601.833C258.759,581.967,252.605,570.815,250.137,552.551C248.770,542.438,246.499,521.622,246.718,510.322C246.703,496.619,249.540,483.393,250.402,469.292C250.766,464.815,251.168,459.444,251.937,454.381C252.611,449.353,251.519,445.282,251.309,440.289C250.917,436.425,251.229,424.035,250.646,419.885C250.273,416.185,250.314,411.567,248.983,407.908C245.324,398.592,231.351,388.280,222.034,385.285C217.377,383.621,212.387,383.290,208.062,381.294Z"/>
<path class="path-7" d="M212.784,393.055C218.617,394.550,228.358,397.416,231.565,402.912"/>
<path class="path-7" d="M231.565,402.912C232.988,405.351,233.553,409.893,232.095,412.312"/>
<path class="path-7" d="M232.095,412.312C229.607,416.439,214.185,413.860,217.020,417.856"/>
<path class="path-7" d="M217.020,417.856C221.917,424.982,231.872,415.472,236.164,419.313"/>
<path class="path-7" d="M236.164,419.313C238.096,421.042,238.261,424.621,238.643,427.593"/>
<path class="path-7" d="M238.643,427.593C242.610,449.499,235.626,472.823,235.323,494.418"/>
<path class="path-7" d="M235.323,494.418C235.156,501.387,233.363,511.652,234.522,518.008"/>
<path class="path-7" d="M234.522,518.008C236.865,533.819,235.021,537.125,235.347,546.607"/>
<path class="path-7" d="M235.347,546.607C235.248,550.130,233.348,567.976,234.468,572.570"/>
<path class="path-7" d="M234.468,572.570C235.728,577.331,239.001,581.940,239.434,586.871"/>
<path class="path-7" d="M239.434,586.871C240.167,595.226,228.071,606.287,220.554,608.544"/>
<path class="path-7" d="M220.554,608.544C212.060,610.911,185.904,609.130,177.977,604.755"/>
<path class="path-7" d="M177.977,604.755C174.818,603.130,171.002,599.178,169.753,595.582"/>
<path class="path-7" d="M169.753,595.582C168.411,592.297,166.747,576.915,167.788,573.206"/>
<path class="path-7" d="M167.788,573.206C169.869,566.735,172.359,565.417,174.491,557.749"/>
<path class="path-7" d="M174.491,557.749C176.676,548.722,178.976,538.967,178.552,529.472"/>
<path class="path-7" d="M178.552,529.472C177.337,510.514,178.342,480.516,180.592,467.041"/>
<path class="path-7" d="M180.592,467.041C181.682,459.360,180.126,433.485,181.224,426.375"/>
<path class="path-7" d="M181.224,426.375C183.120,414.798,181.098,412.550,182.932,404.810"/>
<path class="path-7" d="M182.932,404.810C186.579,392.939,202.274,390.130,212.784,393.055"/>
<path class="path-8" d="M212.784,393.055C218.617,394.550,228.358,397.416,231.565,402.912C232.988,405.351,233.553,409.893,232.095,412.312C229.607,416.439,214.185,413.860,217.020,417.856C221.917,424.982,231.872,415.472,236.164,419.313C238.096,421.042,238.261,424.621,238.643,427.593C242.610,449.499,235.626,472.823,235.323,494.418C235.156,501.387,233.363,511.652,234.522,518.008C236.865,533.819,235.021,537.125,235.347,546.607C235.248,550.130,233.348,567.976,234.468,572.570C235.728,577.331,239.001,581.940,239.434,586.871C240.167,595.226,228.071,606.287,220.554,608.544C212.060,610.911,185.904,609.130,177.977,604.755C174.818,603.130,171.002,599.178,169.753,595.582C168.411,592.297,166.747,576.915,167.788,573.206C169.869,566.735,172.359,565.417,174.491,557.749C176.676,548.722,178.976,538.967,178.552,529.472C177.337,510.514,178.342,480.516,180.592,467.041C181.682,459.360,180.126,433.485,181.224,426.375C183.120,414.798,181.098,412.550,182.932,404.810C186.579,392.939,202.274,390.130,212.784,393.055Z"/>
</g>
<g id="right_toe">
<path class="path-0" d="M166.821,642.784C168.201,629.493,173.511,612.398,189.696,610.101C193.433,609.372,198.693,611.145,202.841,611.992C224.018,616.261,232.276,621.002,232.944,642.784C233.006,648.752,233.894,656.158,229.431,660.943C224.975,665.635,203.972,663.005,197.557,663.276C186.224,664.002,176.458,669.385,168.635,659.493C163.982,653.482,166.096,649.856,166.821,642.784M241.451,620.022C234.461,606.025,201.949,597.650,187.293,600.322C165.425,604.434,158.303,621.588,156.860,640.150C156.296,646.774,155.438,654.055,158.731,659.922C159.907,662.017,162.401,664.818,164.130,666.496C177.169,680.246,186.726,678.556,204.396,678.423C213.739,678.509,229.273,677.674,236.787,671.430C242.413,666.295,242.996,660.699,243.266,653.527C243.279,646.621,244.264,625.138,241.451,620.022Z"/>
<path class="path-3" d="M189.696,610.101C193.433,609.372,198.693,611.145,202.841,611.992"/>
<path class="path-3" d="M202.841,611.992C224.018,616.261,232.276,621.002,232.944,642.784"/>
<path class="path-3" d="M232.944,642.784C233.006,648.752,233.894,656.158,229.431,660.943"/>
<path class="path-3" d="M229.431,660.943C224.975,665.635,203.972,663.005,197.557,663.276"/>
<path class="path-3" d="M197.557,663.276C186.224,664.002,176.458,669.385,168.635,659.493"/>
<path class="path-3" d="M168.635,659.493C163.982,653.482,166.096,649.856,166.821,642.784"/>
<path class="path-3" d="M166.821,642.784C168.201,629.493,173.511,612.398,189.696,610.101"/>
<path class="path-4" d="M189.696,610.101C193.433,609.372,198.693,611.145,202.841,611.992C224.018,616.261,232.276,621.002,232.944,642.784C233.006,648.752,233.894,656.158,229.431,660.943C224.975,665.635,203.972,663.005,197.557,663.276C186.224,664.002,176.458,669.385,168.635,659.493C163.982,653.482,166.096,649.856,166.821,642.784C168.201,629.493,173.511,612.398,189.696,610.101Z"/>
</g>
<g id="right_sole">
<path class="path-0" d="M185.153,675.219C186.680,675.536,202.047,675.400,203.785,675.395C205.184,675.413,213.643,675.435,214.836,675.352C215.578,675.317,223.031,674.990,223.601,675.452C223.085,674.983,215.081,676.460,214.610,676.475C213.683,676.536,187.468,676.381,187.160,676.490C185.963,676.521,174.764,675.559,174.028,674.593C175.226,674.071,183.396,674.852,185.153,675.219M224.570,669.095C224.619,669.372,223.020,671.045,222.603,671.046C221.766,671.053,208.599,672.509,207.493,672.280C206.243,672.245,197.541,673.051,196.414,673.040C194.154,673.018,176.179,671.998,174.254,670.838C174.071,670.679,173.460,669.710,173.490,669.576C173.554,669.295,180.570,669.850,181.662,669.826C183.376,669.789,197.205,669.001,198.962,668.957C200.863,668.910,215.753,669.130,217.700,668.967C218.004,668.949,224.439,668.411,224.570,669.095M230.281,664.116C219.058,660.955,210.194,665.425,200.013,665.749C192.610,666.017,178.404,664.430,169.383,666.180C167.948,666.459,165.207,666.250,164.765,667.730C164.208,669.606,167.811,673.654,170.103,675.167C172.944,677.041,178.869,677.081,181.219,677.441C193.130,679.707,208.290,678.554,220.538,678.048C229.579,677.680,231.847,674.072,232.770,669.731C233.153,667.929,233.787,665.054,230.281,664.116Z"/>
<path class="path-24" d="M185.153,675.219C186.680,675.536,202.047,675.400,203.785,675.395"/>
<path class="path-24" d="M203.785,675.395C205.184,675.413,213.643,675.435,214.836,675.352"/>
<path class="path-24" d="M214.836,675.352C215.578,675.317,223.031,674.990,223.601,675.452"/>
<path class="path-24" d="M223.601,675.452C223.085,674.983,215.081,676.460,214.610,676.475"/>
<path class="path-24" d="M214.610,676.475C213.683,676.536,187.468,676.381,187.160,676.490"/>
<path class="path-24" d="M187.160,676.490C185.963,676.521,174.764,675.559,174.028,674.593"/>
<path class="path-24" d="M174.028,674.593C175.226,674.071,183.396,674.852,185.153,675.219"/>
<path class="path-0" d="M185.153,675.219C186.680,675.536,202.047,675.400,203.785,675.395C205.184,675.413,213.643,675.435,214.836,675.352C215.578,675.317,223.031,674.990,223.601,675.452C223.085,674.983,215.081,676.460,214.610,676.475C213.683,676.536,187.468,676.381,187.160,676.490C185.963,676.521,174.764,675.559,174.028,674.593C175.226,674.071,183.396,674.852,185.153,675.219Z"/>
<path class="path-5" d="M181.662,669.826C183.376,669.789,197.205,669.001,198.962,668.957"/>
<path class="path-5" d="M198.962,668.957C200.863,668.910,215.753,669.130,217.700,668.967"/>
<path class="path-5" d="M217.700,668.967C218.004,668.949,224.439,668.411,224.570,669.095"/>
<path class="path-5" d="M224.570,669.095C224.619,669.372,223.020,671.045,222.603,671.046"/>
<path class="path-5" d="M222.603,671.046C221.766,671.053,208.599,672.509,207.493,672.280"/>
<path class="path-5" d="M207.493,672.280C206.243,672.245,197.541,673.051,196.414,673.040"/>
<path class="path-5" d="M196.414,673.040C194.154,673.018,176.179,671.998,174.254,670.838"/>
<path class="path-5" d="M174.254,670.838C174.071,670.679,173.460,669.710,173.490,669.576"/>
<path class="path-5" d="M173.490,669.576C173.554,669.295,180.570,669.850,181.662,669.826"/>
<path class="path-6" d="M181.662,669.826C183.376,669.789,197.205,669.001,198.962,668.957C200.863,668.910,215.753,669.130,217.700,668.967C218.004,668.949,224.439,668.411,224.570,669.095C224.619,669.372,223.020,671.045,222.603,671.046C221.766,671.053,208.599,672.509,207.493,672.280C206.243,672.245,197.541,673.051,196.414,673.040C194.154,673.018,176.179,671.998,174.254,670.838C174.071,670.679,173.460,669.710,173.490,669.576C173.554,669.295,180.570,669.850,181.662,669.826Z"/>
</g>
</g>
<g id="hat_brim">
<path class="path-0" d="M284.421,142.950C288.080,136.961,297.063,120.659,305.048,120.659C310.371,120.659,321.350,130.308,327.005,133.302C331.996,136.297,337.320,138.958,342.975,141.619C346.187,143.288,349.403,144.951,352.623,146.609C366.929,153.929,362.936,160.251,354.618,158.920C335.988,155.591,332.994,156.923,315.029,147.607C312.699,146.609,306.710,143.283,305.712,147.607C304.383,152.598,313.366,156.923,317.025,158.586C323.678,162.247,330.998,166.240,338.982,166.904C341.312,167.238,349.297,166.570,350.626,168.900C352.623,172.227,342.975,180.877,340.979,182.873C337.651,185.868,334.325,188.862,330.998,191.192C326.007,194.517,320.684,197.511,315.029,198.509C304.383,199.841,271.113,184.536,270.115,172.893C269.450,166.239,280.429,149.272,284.421,142.950M317.025,116.335C312.034,112.009,308.375,105.687,301.055,109.015C295.731,111.345,290.076,118.996,286.417,122.988C272.776,139.623,260.467,159.253,261.132,180.877C261.465,194.517,266.122,194.186,277.101,199.507C293.735,207.826,315.028,210.487,332.994,202.171C344.638,196.847,364.933,178.881,370.257,166.904C371.920,162.912,374.913,153.929,372.584,149.272C369.923,143.615,347.632,133.967,340.979,130.308C332.994,125.983,324.012,121.990,317.025,116.335Z"/>
<path class="path-9" d="M305.048,120.659C310.371,120.659,321.350,130.308,327.005,133.302"/>
<path class="path-9" d="M327.005,133.302C331.996,136.297,337.320,138.958,342.975,141.619"/>
<path class="path-9" d="M342.975,141.619C346.187,143.288,349.403,144.951,352.623,146.609"/>
<path class="path-9" d="M352.623,146.609C366.929,153.929,362.936,160.251,354.618,158.920"/>
<path class="path-9" d="M354.618,158.920C335.988,155.591,332.994,156.923,315.029,147.607"/>
<path class="path-9" d="M315.029,147.607C312.699,146.609,306.710,143.283,305.712,147.607"/>
<path class="path-9" d="M305.712,147.607C304.383,152.598,313.366,156.923,317.025,158.586"/>
<path class="path-9" d="M317.025,158.586C323.678,162.247,330.998,166.240,338.982,166.904"/>
<path class="path-9" d="M338.982,166.904C341.312,167.238,349.297,166.570,350.626,168.900"/>
<path class="path-9" d="M350.626,168.900C352.623,172.227,342.975,180.877,340.979,182.873"/>
<path class="path-9" d="M340.979,182.873C337.651,185.868,334.325,188.862,330.998,191.192"/>
<path class="path-9" d="M330.998,191.192C326.007,194.517,320.684,197.511,315.029,198.509"/>
<path class="path-9" d="M315.029,198.509C304.383,199.841,271.113,184.536,270.115,172.893"/>
<path class="path-9" d="M270.115,172.893C269.450,166.239,280.429,149.272,284.421,142.950"/>
<path class="path-9" d="M284.421,142.950C288.080,136.961,297.063,120.659,305.048,120.659"/>
<path class="path-10" d="M305.048,120.659C310.371,120.659,321.350,130.308,327.005,133.302C331.996,136.297,337.320,138.958,342.975,141.619C346.187,143.288,349.403,144.951,352.623,146.609C366.929,153.929,362.936,160.251,354.618,158.920C335.988,155.591,332.994,156.923,315.029,147.607C312.699,146.609,306.710,143.283,305.712,147.607C304.383,152.598,313.366,156.923,317.025,158.586C323.678,162.247,330.998,166.240,338.982,166.904C341.312,167.238,349.297,166.570,350.626,168.900C352.623,172.227,342.975,180.877,340.979,182.873C337.651,185.868,334.325,188.862,330.998,191.192C326.007,194.517,320.684,197.511,315.029,198.509C304.383,199.841,271.113,184.536,270.115,172.893C269.450,166.239,280.429,149.272,284.421,142.950C288.080,136.961,297.063,120.659,305.048,120.659Z"/>
</g>
<g id="hair">
<path class="path-0" d="M183.357,136.483C200.954,124.749,220.906,123.806,241.996,123.120C251.452,122.794,257.886,129.270,265.069,135.626C270.964,141.195,277.299,147.468,283.560,153.313C292.986,162.051,296.930,166.431,300.440,170.614C303.444,173.825,308.105,179.813,311.862,182.674C316.396,186.124,325.422,203.315,327.445,205.266C320.793,207.453,310.356,209.024,305.541,212.830C307.149,218.669,307.424,227.700,307.413,230.409C301.202,230.790,294.008,227.926,282.567,225.752C280.180,232.918,280.142,239.647,275.384,246.902C267.697,244.496,262.345,242.563,252.411,238.043C245.798,243.193,244.261,242.773,233.517,249.212C226.455,244.820,220.838,240.151,213.943,237.253C207.148,240.091,196.403,241.027,192.739,243.925C188.987,236.858,185.547,229.060,182.318,225.662C172.710,227.554,168.576,230.148,161.781,232.559C157.606,227.012,160.654,222.489,156.037,214.349C151.717,213.146,145.049,210.476,139.490,210.322C143.367,205.864,146.319,191.142,152.833,189.327C160.871,187.088,155.875,177.911,160.872,169.755C162.110,167.631,174.016,151.399,175.093,148.739C177.132,144.153,179.361,139.287,183.357,136.483M269.783,123.041C257.623,113.516,232.973,108.192,219.067,111.311C206.306,114.023,193.787,117.926,182.663,125.006C176.433,128.911,169.531,134.686,165.362,140.754C157.036,152.537,144.935,178.372,138.142,190.325C132.704,200.241,127.646,206.923,122.452,212.283C140.007,218.879,145.124,221.586,150.363,222.441C150.613,230.199,157.711,236.027,156.388,244.572C165.209,243.354,170.475,241.177,178.326,239.302C182.258,243.995,184.942,250.348,188.681,256.586C196.418,254.568,204.305,254.940,212.000,249.563C217.496,252.632,226.229,257.403,235.200,262.448C243.544,258.115,245.325,257.880,253.165,252.908C262.619,255.342,272.515,261.315,282.074,260.399C281.484,252.206,287.600,246.647,286.947,241.388C294.168,239.536,316.196,242.966,319.967,242.683C319.803,236.635,316.595,225.026,318.237,217.838C325.064,216.098,330.837,214.510,341.526,209.520C338.121,202.790,331.974,194.414,326.560,189.403C321.990,185.214,318.291,179.689,313.719,175.326C298.212,160.768,292.275,140.745,269.783,123.041Z"/>
<path class="path-11" d="M241.996,123.120C251.452,122.794,257.886,129.270,265.069,135.626"/>
<path class="path-11" d="M265.069,135.626C270.964,141.195,277.299,147.468,283.560,153.313"/>
<path class="path-11" d="M283.560,153.313C292.986,162.051,296.930,166.431,300.440,170.614"/>
<path class="path-11" d="M300.440,170.614C303.444,173.825,308.105,179.813,311.862,182.674"/>
<path class="path-11" d="M311.862,182.674C316.396,186.124,325.422,203.315,327.445,205.266"/>
<path class="path-11" d="M327.445,205.266C320.793,207.453,310.356,209.024,305.541,212.830"/>
<path class="path-11" d="M305.541,212.830C307.149,218.669,307.424,227.700,307.413,230.409"/>
<path class="path-11" d="M307.413,230.409C301.202,230.790,294.008,227.926,282.567,225.752"/>
<path class="path-11" d="M282.567,225.752C280.180,232.918,280.142,239.647,275.384,246.902"/>
<path class="path-11" d="M275.384,246.902C267.697,244.496,262.345,242.563,252.411,238.043"/>
<path class="path-11" d="M252.411,238.043C245.798,243.193,244.261,242.773,233.517,249.212"/>
<path class="path-11" d="M233.517,249.212C226.455,244.820,220.838,240.151,213.943,237.253"/>
<path class="path-11" d="M213.943,237.253C207.148,240.091,196.403,241.027,192.739,243.925"/>
<path class="path-11" d="M192.739,243.925C188.987,236.858,185.547,229.060,182.318,225.662"/>
<path class="path-11" d="M182.318,225.662C172.710,227.554,168.576,230.148,161.781,232.559"/>
<path class="path-11" d="M161.781,232.559C157.606,227.012,160.654,222.489,156.037,214.349"/>
<path class="path-11" d="M156.037,214.349C151.717,213.146,145.049,210.476,139.490,210.322"/>
<path class="path-11" d="M139.490,210.322C143.367,205.864,146.319,191.142,152.833,189.327"/>
<path class="path-11" d="M152.833,189.327C160.871,187.088,155.875,177.911,160.872,169.755"/>
<path class="path-11" d="M160.872,169.755C162.110,167.631,174.016,151.399,175.093,148.739"/>
<path class="path-11" d="M175.093,148.739C177.132,144.153,179.361,139.287,183.357,136.483"/>
<path class="path-11" d="M183.357,136.483C200.954,124.749,220.906,123.806,241.996,123.120"/>
<path class="path-12" d="M241.996,123.120C251.452,122.794,257.886,129.270,265.069,135.626C270.964,141.195,277.299,147.468,283.560,153.313C292.986,162.051,296.930,166.431,300.440,170.614C303.444,173.825,308.105,179.813,311.862,182.674C316.396,186.124,325.422,203.315,327.445,205.266C320.793,207.453,310.356,209.024,305.541,212.830C307.149,218.669,307.424,227.700,307.413,230.409C301.202,230.790,294.008,227.926,282.567,225.752C280.180,232.918,280.142,239.647,275.384,246.902C267.697,244.496,262.345,242.563,252.411,238.043C245.798,243.193,244.261,242.773,233.517,249.212C226.455,244.820,220.838,240.151,213.943,237.253C207.148,240.091,196.403,241.027,192.739,243.925C188.987,236.858,185.547,229.060,182.318,225.662C172.710,227.554,168.576,230.148,161.781,232.559C157.606,227.012,160.654,222.489,156.037,214.349C151.717,213.146,145.049,210.476,139.490,210.322C143.367,205.864,146.319,191.142,152.833,189.327C160.871,187.088,155.875,177.911,160.872,169.755C162.110,167.631,174.016,151.399,175.093,148.739C177.132,144.153,179.361,139.287,183.357,136.483C200.954,124.749,220.906,123.806,241.996,123.120Z"/>
</g>
<g id="clothes">
<path class="path-0" d="M243.881,368.873C239.094,366.980,220.618,361.845,217.637,366.277C215.261,370.048,219.615,371.216,223.481,371.541C227.131,371.849,246.157,377.125,248.649,375.526C253.135,372.574,246.134,369.653,243.881,368.873M191.093,266.179C194.088,253.538,221.037,240.563,234.012,241.561C242.994,242.226,271.274,256.199,275.266,264.517C278.592,271.170,279.590,295.789,279.924,304.107C280.257,319.412,281.171,334.749,282.253,350.019C283.751,362.592,287.783,374.779,289.099,387.372C288.954,392.678,288.232,406.325,283.028,408.975C275.996,412.987,259.637,403.292,252.865,400.176C227.728,389.426,229.356,390.016,203.730,389.171C200.117,388.914,188.312,390.941,185.879,389.495C181.227,385.946,183.229,379.275,184.328,373.750C187.282,361.520,189.947,353.299,191.427,340.038C193.106,324.032,194.088,306.768,194.088,290.134C193.755,284.145,190.429,269.839,191.093,266.179M269.943,247.549C253.640,237.899,237.670,229.915,218.042,235.573C212.718,236.902,186.103,249.877,183.773,253.205C180.115,258.529,183.773,278.821,183.773,286.141C184.107,294.791,184.440,303.774,183.773,312.092C183.442,318.413,182.111,324.069,182.111,330.057C181.777,336.710,182.238,343.977,180.780,350.019C177.511,363.153,164.342,388.673,179.557,398.587C184.748,401.996,192.740,400.582,199.263,401.264C209.824,402.164,221.035,403.808,231.570,405.997C241.760,408.410,250.943,414.217,261.368,416.131C269.240,417.578,294.634,423.741,300.234,417.407C303.796,413.556,300.762,390.294,299.770,384.450C296.830,371.031,293.187,357.672,291.567,344.031C290.485,332.098,289.239,320.410,289.904,308.100C290.237,298.119,291.900,288.471,291.900,278.157C291.567,273.831,292.234,268.510,289.904,264.184C285.912,256.199,277.263,251.873,269.943,247.549Z"/>
<path class="path-13" d="M243.881,368.873C239.094,366.980,220.618,361.845,217.637,366.277"/>
<path class="path-13" d="M217.637,366.277C215.261,370.048,219.615,371.216,223.481,371.541"/>
<path class="path-13" d="M223.481,371.541C227.131,371.849,246.157,377.125,248.649,375.526"/>
<path class="path-13" d="M248.649,375.526C253.135,372.574,246.134,369.653,243.881,368.873"/>
<path class="path-13" d="M191.093,266.179C194.088,253.538,221.037,240.563,234.012,241.561"/>
<path class="path-13" d="M234.012,241.561C242.994,242.226,271.274,256.199,275.266,264.517"/>
<path class="path-13" d="M275.266,264.517C278.592,271.170,279.590,295.789,279.924,304.107"/>
<path class="path-13" d="M279.924,304.107C280.257,319.412,281.171,334.749,282.253,350.019"/>
<path class="path-13" d="M282.253,350.019C283.751,362.592,287.783,374.779,289.099,387.372"/>
<path class="path-13" d="M289.099,387.372C288.954,392.678,288.232,406.325,283.028,408.975"/>
<path class="path-13" d="M283.028,408.975C275.996,412.987,259.637,403.292,252.865,400.176"/>
<path class="path-13" d="M252.865,400.176C227.728,389.426,229.356,390.016,203.730,389.171"/>
<path class="path-13" d="M203.730,389.171C200.117,388.914,188.312,390.941,185.879,389.495"/>
<path class="path-13" d="M185.879,389.495C181.227,385.946,183.229,379.275,184.328,373.750"/>
<path class="path-13" d="M184.328,373.750C187.282,361.520,189.947,353.299,191.427,340.038"/>
<path class="path-13" d="M191.427,340.038C193.106,324.032,194.088,306.768,194.088,290.134"/>
<path class="path-13" d="M194.088,290.134C193.755,284.145,190.429,269.839,191.093,266.179"/>
<path class="path-14" d="M243.881,368.873C239.094,366.980,220.618,361.845,217.637,366.277C215.261,370.048,219.615,371.216,223.481,371.541C227.131,371.849,246.157,377.125,248.649,375.526C253.135,372.574,246.134,369.653,243.881,368.873M191.093,266.179C194.088,253.538,221.037,240.563,234.012,241.561C242.994,242.226,271.274,256.199,275.266,264.517C278.592,271.170,279.590,295.789,279.924,304.107C280.257,319.412,281.171,334.749,282.253,350.019C283.751,362.592,287.783,374.779,289.099,387.372C288.954,392.678,288.232,406.325,283.028,408.975C275.996,412.987,259.637,403.292,252.865,400.176C227.728,389.426,229.356,390.016,203.730,389.171C200.117,388.914,188.312,390.941,185.879,389.495C181.227,385.946,183.229,379.275,184.328,373.750C187.282,361.520,189.947,353.299,191.427,340.038C193.106,324.032,194.088,306.768,194.088,290.134C193.755,284.145,190.429,269.839,191.093,266.179Z"/>
</g>
<g id="neck">
<path class="path-0" d="M229.021,222.597C229.354,219.269,230.353,216.275,234.012,215.942C245.656,213.946,244.657,251.542,234.012,251.542C224.031,251.542,228.356,228.917,229.021,222.597M234.012,206.628C231.351,206.295,228.357,206.959,226.027,208.291C216.711,212.948,218.042,221.599,218.042,230.248C217.708,234.574,218.042,238.567,216.046,242.226C214.383,245.553,209.724,248.879,209.724,252.540C210.057,262.521,237.006,262.521,243.993,262.188C246.653,262.187,255.636,263.185,256.634,259.526C256.634,258.528,249.981,246.883,248.983,242.226C245.989,228.252,255.305,207.626,234.012,206.628Z"/>
<path class="path-15" d="M234.012,215.942C245.656,213.946,244.657,251.542,234.012,251.542"/>
<path class="path-15" d="M234.012,251.542C224.031,251.542,228.356,228.917,229.021,222.597"/>
<path class="path-15" d="M229.021,222.597C229.354,219.269,230.353,216.275,234.012,215.942"/>
<path class="path-16" d="M234.012,215.942C245.656,213.946,244.657,251.542,234.012,251.542C224.031,251.542,228.356,228.917,229.021,222.597C229.354,219.269,230.353,216.275,234.012,215.942Z"/>
</g>
<g id="layer_head">
<g id="right_ear">
<path class="path-0" d="M154.787,189.380C150.301,189.436,138.414,162.961,143.737,164.039C149.618,165.223,152.457,175.818,154.058,180.100C154.979,182.279,158.869,189.340,154.787,189.380M145.561,150.095C143.823,148.908,141.747,147.493,139.830,148.364C130.729,150.854,134.294,164.822,137.083,173.886C140.552,184.744,148.161,198.554,157.741,203.076C159.228,203.787,161.959,206.186,163.656,205.800C169.651,204.039,164.056,194.240,162.412,189.621C160.027,182.427,150.782,155.150,145.561,150.095Z"/>
<path class="path-15" d="M143.737,164.039C149.618,165.223,152.457,175.818,154.058,180.100"/>
<path class="path-15" d="M154.058,180.100C154.979,182.279,158.869,189.340,154.787,189.380"/>
<path class="path-15" d="M154.787,189.380C150.301,189.436,138.414,162.961,143.737,164.039"/>
<path class="path-16" d="M143.737,164.039C149.618,165.223,152.457,175.818,154.058,180.100C154.979,182.279,158.869,189.340,154.787,189.380C150.301,189.436,138.414,162.961,143.737,164.039Z"/>
</g>
<g id="face_Mask">
<g id="face">
<path class="path-0" d="M148.865,105.908C157.351,95.459,190.120,88.275,203.760,86.278C219.065,84.282,234.701,86.611,249.672,91.268C254.996,92.933,262.943,94.581,267.304,98.588C274.088,104.868,276.677,116.189,277.845,124.994C278.691,130.315,279.379,137.219,278.322,142.199C271.619,173.763,264.823,188.977,258.184,197.724C246.829,212.684,226.540,218.608,208.210,221.899C189.839,224.929,180.464,222.448,163.647,215.831C160.211,214.484,152.710,211.512,150.424,208.819C143.320,200.125,146.997,188.423,144.829,177.891C142.786,169.315,136.733,157.182,135.171,148.686C133.314,137.611,141.880,114.430,148.865,105.908M271.322,90.913C257.847,78.535,221.437,75.881,203.803,78.525C195.483,79.515,187.497,80.174,179.844,82.165C174.184,83.827,169.189,86.485,163.862,88.148C152.216,92.473,147.404,91.034,139.574,101.798C133.951,109.334,125.456,138.998,126.136,148.217C126.822,155.726,134.611,172.623,135.610,181.345C136.638,190.788,132.541,204.361,136.882,212.431C140.740,219.360,148.061,222.673,158.348,226.872C167.161,230.469,176.975,233.864,186.767,234.303C191.872,234.545,198.010,235.179,208.827,232.413C228.251,227.187,248.495,220.321,262.364,203.932C274.995,189.005,292.268,169.066,294.172,138.959C295.423,119.174,278.550,97.409,271.322,90.913Z"/>
<path class="path-15" d="M203.760,86.278C219.065,84.282,234.701,86.611,249.672,91.268"/>
<path class="path-15" d="M249.672,91.268C254.996,92.933,262.943,94.581,267.304,98.588"/>
<path class="path-15" d="M267.304,98.588C274.088,104.868,276.677,116.189,277.845,124.994"/>
<path class="path-15" d="M277.845,124.994C278.691,130.315,279.379,137.219,278.322,142.199"/>
<path class="path-15" d="M278.322,142.199C271.619,173.763,264.823,188.977,258.184,197.724"/>
<path class="path-15" d="M258.184,197.724C246.829,212.684,226.540,218.608,208.210,221.899"/>
<path class="path-15" d="M208.210,221.899C189.839,224.929,180.464,222.448,163.647,215.831"/>
<path class="path-15" d="M163.647,215.831C160.211,214.484,152.710,211.512,150.424,208.819"/>
<path class="path-15" d="M150.424,208.819C143.320,200.125,146.997,188.423,144.829,177.891"/>
<path class="path-15" d="M144.829,177.891C142.786,169.315,136.733,157.182,135.171,148.686"/>
<path class="path-15" d="M135.171,148.686C133.314,137.611,141.880,114.430,148.865,105.908"/>
<path class="path-15" d="M148.865,105.908C157.351,95.459,190.120,88.275,203.760,86.278"/>
<path class="path-16" d="M203.760,86.278C219.065,84.282,234.701,86.611,249.672,91.268C254.996,92.933,262.943,94.581,267.304,98.588C274.088,104.868,276.677,116.189,277.845,124.994C278.691,130.315,279.379,137.219,278.322,142.199C271.619,173.763,264.823,188.977,258.184,197.724C246.829,212.684,226.540,218.608,208.210,221.899C189.839,224.929,180.464,222.448,163.647,215.831C160.211,214.484,152.710,211.512,150.424,208.819C143.320,200.125,146.997,188.423,144.829,177.891C142.786,169.315,136.733,157.182,135.171,148.686C133.314,137.611,141.880,114.430,148.865,105.908C157.351,95.459,190.120,88.275,203.760,86.278Z"/>
</g>
</g>
<mask id="mask_target" style="mask-type:alpha;">
<use xlink:href="#face_Mask"/>
</mask>
<g id="mouse">
<path class="path-0" d="M186.046,213.598C191.250,214.702,191.334,219.455,190.860,219.962C190.593,220.248,189.470,219.297,186.510,218.810C180.904,217.888,178.198,219.061,178.001,218.346C177.784,217.563,179.953,212.306,186.046,213.598Z"/>
</g>
<g id="layer_eyes_Mtarget" mask="url(#mask_target)">
<g id="eyes">
<mask style="mask-type:alpha;" id="f3906406-f197-4bf1-91d8-744c09cca836">
<use xlink:href="#cmn_f3906406-f197-4bf1-91d8-744c09cca836"/>
</mask>
<g id="cmn_f3906406-f197-4bf1-91d8-744c09cca836">
<path class="path-0" d="M133.595,177.927C134.865,185.467,138.763,193.487,137.771,193.016C135.264,191.825,134.827,187.328,134.339,183.761C133.900,181.295,136.193,171.258,133.211,172.057C132.502,172.247,133.478,177.231,133.595,177.927M144.997,181.565C145.030,179.890,145.164,177.333,144.084,176.050C143.288,175.105,141.498,174.574,140.244,174.562C137.357,174.471,130.934,164.849,127.897,162.461C126.835,161.628,122.012,156.059,120.795,156.619C111.002,161.131,121.259,170.681,125.539,185.091C127.456,191.543,139.436,201.004,140.066,200.726C142.982,199.442,144.881,187.496,144.997,181.565M175.775,193.525C168.356,193.221,158.708,186.830,159.546,175.292C159.754,172.438,171.380,168.326,176.638,165.710C183.073,162.508,195.336,155.985,198.626,156.143C202.094,156.729,200.347,159.759,200.412,169.366C200.475,178.578,188.429,194.044,175.775,193.525M207.799,175.680C210.782,163.382,210.555,146.906,208.166,145.834C202.738,143.398,188.820,153.356,180.740,157.068C173.148,160.556,161.259,168.405,155.934,169.730C153.499,170.430,151.313,170.729,150.723,172.381C149.815,174.923,153.633,177.972,155.049,180.270C157.679,184.537,159.403,191.053,164.614,193.970C174.476,199.899,181.578,197.223,192.990,193.575C197.824,192.030,205.881,183.590,207.799,175.680Z"/>
<path class="path-17" d="M198.626,156.143C202.094,156.729,200.347,159.759,200.412,169.366"/>
<path class="path-17" d="M200.412,169.366C200.475,178.578,188.429,194.044,175.775,193.525"/>
<path class="path-17" d="M175.775,193.525C168.356,193.221,158.708,186.830,159.546,175.292"/>
<path class="path-17" d="M159.546,175.292C159.754,172.438,171.380,168.326,176.638,165.710"/>
<path class="path-17" d="M176.638,165.710C183.073,162.508,195.336,155.985,198.626,156.143"/>
<path class="path-18" d="M198.626,156.143C202.094,156.729,200.347,159.759,200.412,169.366C200.475,178.578,188.429,194.044,175.775,193.525C168.356,193.221,158.708,186.830,159.546,175.292C159.754,172.438,171.380,168.326,176.638,165.710C183.073,162.508,195.336,155.985,198.626,156.143Z"/>
<path class="path-17" d="M133.211,172.057C132.502,172.247,133.478,177.231,133.595,177.927"/>
<path class="path-17" d="M133.595,177.927C134.865,185.467,138.763,193.487,137.771,193.016"/>
<path class="path-17" d="M137.771,193.016C135.264,191.825,134.827,187.328,134.339,183.761"/>
<path class="path-17" d="M134.339,183.761C133.900,181.295,136.193,171.258,133.211,172.057"/>
<path class="path-18" d="M133.211,172.057C132.502,172.247,133.478,177.231,133.595,177.927C134.865,185.467,138.763,193.487,137.771,193.016C135.264,191.825,134.827,187.328,134.339,183.761C133.900,181.295,136.193,171.258,133.211,172.057Z"/>
</g>
</g>
<g id="pupil">
<path class="path-0" d="M163.717,169.065C165.994,168.494,169.194,171.653,170.045,180.079C170.682,186.391,169.022,188.980,167.275,189.182C165.375,189.403,163.729,186.809,162.446,180.032C161.077,172.800,161.737,169.561,163.717,169.065Z" mask="url(#f3906406-f197-4bf1-91d8-744c09cca836)"/>
<path class="path-0" d="M134.274,172.446C136.690,171.992,140.256,175.581,140.414,184.742C140.506,190.053,138.866,191.949,137.453,192.138C135.866,192.350,133.783,190.566,132.375,184.767C130.414,176.691,132.082,172.858,134.274,172.446Z" mask="url(#f3906406-f197-4bf1-91d8-744c09cca836)"/>
</g>
</g>
<g id="hat">
<path class="path-0" d="M285.631,134.265C287.875,135.115,290.464,137.907,291.018,140.533C293.035,147.268,281.712,148.727,278.103,149.206C272.431,149.390,266.520,148.398,261.137,147.740C253.843,147.514,246.644,145.979,239.362,145.490C216.387,142.138,193.314,139.745,170.273,136.925C159.720,136.053,150.251,134.153,138.721,133.393C137.566,133.317,127.481,134.101,125.445,133.514C110.299,129.292,123.017,115.592,121.880,108.746C121.717,106.897,118.264,106.495,118.836,103.184C119.216,101.171,124.384,96.948,126.307,96.110C135.143,92.207,145.523,91.131,155.639,90.971C166.391,90.801,175.939,92.691,186.585,94.117C212.590,97.605,256.153,105.291,289.800,118.586C299.355,122.360,279.449,120.349,277.594,120.493C260.580,121.750,188.728,105.030,228.447,117.009C243.772,121.658,271.911,128.535,285.631,134.265M174.535,79.700C162.315,78.507,151.085,77.512,139.646,79.760C135.552,80.554,130.228,81.438,127.067,82.503C120.569,84.695,132.582,65.010,135.943,61.404C152.129,44.462,180.135,32.722,204.707,34.377C253.319,37.651,271.447,51.179,284.262,70.225C288.429,75.945,299.941,102.053,289.883,108.055C286.658,109.704,280.948,106.885,278.280,105.389C268.676,100.269,193.481,81.551,174.535,79.700M276.826,41.678C259.703,31.917,236.262,23.515,208.499,24.113C178.361,24.768,145.561,34.018,126.238,59.989C120.345,68.099,117.789,77.045,114.075,85.602C111.832,90.707,107.414,93.942,106.889,99.430C106.363,107.132,111.039,109.184,111.680,115.508C112.613,122.731,108.055,124.810,108.286,129.489C107.707,141.919,119.427,145.254,129.644,146.548C134.020,147.103,150.329,146.566,159.191,146.778C169.169,147.016,182.473,147.467,192.431,148.118C204.056,148.878,219.488,150.744,231.102,151.651C241.943,152.498,256.399,153.958,267.273,154.004C275.481,154.039,293.534,153.420,294.594,152.551C296.130,151.314,301.461,138.459,301.969,135.942C302.850,131.576,300.716,126.742,302.488,119.765C304.831,109.569,307.680,100.928,306.430,89.698C303.957,69.109,290.109,49.256,276.826,41.678Z"/>
<path class="path-19" d="M186.585,94.117C212.590,97.605,256.153,105.291,289.800,118.586"/>
<path class="path-19" d="M289.800,118.586C299.355,122.360,279.449,120.349,277.594,120.493"/>
<path class="path-19" d="M277.594,120.493C260.580,121.750,188.728,105.030,228.447,117.009"/>
<path class="path-19" d="M228.447,117.009C243.772,121.658,271.911,128.535,285.631,134.265"/>
<path class="path-19" d="M285.631,134.265C287.875,135.115,290.464,137.907,291.018,140.533"/>
<path class="path-19" d="M291.018,140.533C293.035,147.268,281.712,148.727,278.103,149.206"/>
<path class="path-19" d="M278.103,149.206C272.431,149.390,266.520,148.398,261.137,147.740"/>
<path class="path-19" d="M261.137,147.740C253.843,147.514,246.644,145.979,239.362,145.490"/>
<path class="path-19" d="M239.362,145.490C216.387,142.138,193.314,139.745,170.273,136.925"/>
<path class="path-19" d="M170.273,136.925C159.720,136.053,150.251,134.153,138.721,133.393"/>
<path class="path-19" d="M138.721,133.393C137.566,133.317,127.481,134.101,125.445,133.514"/>
<path class="path-19" d="M125.445,133.514C110.299,129.292,123.017,115.592,121.880,108.746"/>
<path class="path-19" d="M121.880,108.746C121.717,106.897,118.264,106.495,118.836,103.184"/>
<path class="path-19" d="M118.836,103.184C119.216,101.171,124.384,96.948,126.307,96.110"/>
<path class="path-19" d="M126.307,96.110C135.143,92.207,145.523,91.131,155.639,90.971"/>
<path class="path-19" d="M155.639,90.971C166.391,90.801,175.939,92.691,186.585,94.117"/>
<path class="path-20" d="M186.585,94.117C212.590,97.605,256.153,105.291,289.800,118.586C299.355,122.360,279.449,120.349,277.594,120.493C260.580,121.750,188.728,105.030,228.447,117.009C243.772,121.658,271.911,128.535,285.631,134.265C287.875,135.115,290.464,137.907,291.018,140.533C293.035,147.268,281.712,148.727,278.103,149.206C272.431,149.390,266.520,148.398,261.137,147.740C253.843,147.514,246.644,145.979,239.362,145.490C216.387,142.138,193.314,139.745,170.273,136.925C159.720,136.053,150.251,134.153,138.721,133.393C137.566,133.317,127.481,134.101,125.445,133.514C110.299,129.292,123.017,115.592,121.880,108.746C121.717,106.897,118.264,106.495,118.836,103.184C119.216,101.171,124.384,96.948,126.307,96.110C135.143,92.207,145.523,91.131,155.639,90.971C166.391,90.801,175.939,92.691,186.585,94.117Z"/>
<path class="path-9" d="M204.707,34.377C253.319,37.651,271.447,51.179,284.262,70.225"/>
<path class="path-9" d="M284.262,70.225C288.429,75.945,299.941,102.053,289.883,108.055"/>
<path class="path-9" d="M289.883,108.055C286.658,109.704,280.948,106.885,278.280,105.389"/>
<path class="path-9" d="M278.280,105.389C268.676,100.269,193.481,81.551,174.535,79.700"/>
<path class="path-9" d="M174.535,79.700C162.315,78.507,151.085,77.512,139.646,79.760"/>
<path class="path-9" d="M139.646,79.760C135.552,80.554,130.228,81.438,127.067,82.503"/>
<path class="path-9" d="M127.067,82.503C120.569,84.695,132.582,65.010,135.943,61.404"/>
<path class="path-9" d="M135.943,61.404C152.129,44.462,180.135,32.722,204.707,34.377"/>
<path class="path-10" d="M204.707,34.377C253.319,37.651,271.447,51.179,284.262,70.225C288.429,75.945,299.941,102.053,289.883,108.055C286.658,109.704,280.948,106.885,278.280,105.389C268.676,100.269,193.481,81.551,174.535,79.700C162.315,78.507,151.085,77.512,139.646,79.760C135.552,80.554,130.228,81.438,127.067,82.503C120.569,84.695,132.582,65.010,135.943,61.404C152.129,44.462,180.135,32.722,204.707,34.377Z"/>
</g>
<g id="left_ear">
<path class="path-0" d="M241.109,178.713C241.515,176.971,244.129,171.528,245.328,169.938C253.474,158.228,269.842,149.482,277.456,157.623C286.079,167.234,271.844,191.750,259.870,196.584C246.301,201.823,238.639,191.078,241.109,178.713M292.540,161.203C290.205,149.922,283.017,141.927,265.927,145.342C248.967,148.732,245.931,172.086,244.965,186.332C244.839,189.385,245.231,192.662,246.131,195.426C249.358,205.904,257.944,210.862,267.796,203.333C279.186,194.444,295.196,176.324,292.540,161.203Z"/>
<path class="path-15" d="M245.328,169.938C253.474,158.228,269.842,149.482,277.456,157.623"/>
<path class="path-15" d="M277.456,157.623C286.079,167.234,271.844,191.750,259.870,196.584"/>
<path class="path-15" d="M259.870,196.584C246.301,201.823,238.639,191.078,241.109,178.713"/>
<path class="path-15" d="M241.109,178.713C241.515,176.971,244.129,171.528,245.328,169.938"/>
<path class="path-16" d="M245.328,169.938C253.474,158.228,269.842,149.482,277.456,157.623C286.079,167.234,271.844,191.750,259.870,196.584C246.301,201.823,238.639,191.078,241.109,178.713C241.515,176.971,244.129,171.528,245.328,169.938Z"/>
</g>
<g id="earrings">
<path class="path-0" d="M271.276,207.454C262.194,212.144,261.212,194.117,264.463,194.350C269.049,195.800,280.683,208.610,271.276,207.454M281.271,200.053C274.641,200.616,271.394,191.617,270.789,187.817C278.332,189.317,287.892,194.705,281.271,200.053M291.935,196.650C289.335,188.536,276.970,184.054,269.100,180.680C266.154,179.416,257.800,189.658,257.448,193.012C256.375,197.131,259.326,219.435,273.298,216.403C279.015,214.897,294.026,203.171,291.935,196.650Z"/>
<path class="path-21" d="M270.789,187.817C278.332,189.317,287.892,194.705,281.271,200.053"/>
<path class="path-21" d="M281.271,200.053C274.641,200.616,271.394,191.617,270.789,187.817"/>
<path class="path-22" d="M270.789,187.817C278.332,189.317,287.892,194.705,281.271,200.053C274.641,200.616,271.394,191.617,270.789,187.817Z"/>
<path class="path-21" d="M264.463,194.350C269.049,195.800,280.683,208.610,271.276,207.454"/>
<path class="path-21" d="M271.276,207.454C262.194,212.144,261.212,194.117,264.463,194.350"/>
<path class="path-22" d="M264.463,194.350C269.049,195.800,280.683,208.610,271.276,207.454C262.194,212.144,261.212,194.117,264.463,194.350Z"/>
</g>
</g>
<g id="jacket">
<path class="path-0" d="M202.406,270.837C204.975,275.222,201.853,285.476,201.725,290.134C199.219,307.355,196.551,323.882,196.060,340.873C196.064,344.003,195.214,349.771,192.910,352.588C190.292,355.787,183.551,356.653,180.503,358.584C176.776,360.882,172.227,354.300,170.570,351.481C169.163,349.086,169.125,342.997,169.250,340.983C169.869,336.013,172.291,326.529,174.056,320.465C175.851,314.473,178.473,308.570,180.058,301.857C180.914,296.267,179.292,289.495,178.850,283.203C179.303,279.667,180.349,277.552,180.445,275.034C180.176,270.091,181.791,268.388,186.488,267.714C191.216,267.375,200.889,265.595,202.406,270.837M259.977,278.767C261.492,275.517,285.088,260.621,287.975,258.859C296.732,254.071,302.434,263.167,302.722,269.035C303.215,276.968,290.998,303.177,291.419,308.868C291.464,311.760,292.434,313.884,293.701,316.017C303.192,333.926,301.557,320.443,313.526,331.300C316.804,334.315,322.314,342.286,323.447,346.502C324.411,351.186,324.468,363.473,320.825,366.087C319.426,366.915,317.135,366.461,316.047,364.337C315.361,363.324,309.441,352.405,307.750,351.161C300.821,345.462,290.549,345.453,284.411,338.018C280.785,333.107,278.693,326.452,275.157,320.948C271.804,315.912,267.689,311.441,265.269,305.869C261.963,299.060,257.388,286.302,259.977,278.767M275.717,255.283C272.740,258.128,266.570,262.303,264.488,263.181C257.402,265.732,256.081,257.636,255.598,252.369C255.319,247.359,258.275,240.233,261.381,236.082C264.061,232.501,268.500,227.824,273.372,227.224C279.260,226.285,289.231,232.206,288.071,238.891C287.711,242.181,280.169,251.029,275.717,255.283M195.354,235.604C200.397,240.433,204.820,245.496,202.443,249.540C200.260,253.255,197.193,254.552,189.763,255.866C178.213,257.907,170.719,241.213,174.816,234.569C178.054,229.317,189.175,229.688,195.354,235.604M317.322,389.389C328.747,379.062,337.582,369.154,337.716,353.076C337.705,345.250,333.937,336.043,328.707,330.275C319.309,320.432,308.504,322.892,301.433,309.212C296.369,299.820,300.367,290.195,301.348,280.003C301.535,276.516,299.902,258.774,300.106,255.594C299.783,251.914,301.397,248.314,301.205,244.919C301.110,241.045,301.677,236.966,300.497,233.275C298.860,226.930,292.327,223.871,287.346,220.672C280.429,216.787,274.389,215.323,266.439,216.947C257.232,218.840,253.597,228.700,250.770,235.386C246.531,245.410,248.456,260.696,248.250,271.578C248.132,277.745,248.269,286.347,248.789,292.130C249.986,308.274,267.700,338.967,279.582,350.120C281.463,352.129,294.183,362.920,297.252,367.128C301.868,373.524,299.186,378.580,301.241,385.969C301.729,388.034,304.479,391.768,307.091,392.519C309.998,393.459,315.661,390.888,317.322,389.389M207.528,233.403C203.775,227.558,197.511,217.836,190.393,217.831C184.480,218.017,175.539,219.656,170.406,223.141C167.036,225.430,162.274,229.708,162.025,233.827C161.530,239.792,163.626,246.866,166.432,251.582C168.364,254.827,173.534,257.133,175.540,260.271C176.454,261.790,178.447,270.206,178.883,272.359C181.139,282.102,179.371,293.020,176.731,301.324C174.111,309.566,164.904,317.932,161.884,326.036C159.380,332.753,156.907,341.764,157.620,349.548C157.737,352.643,161.168,358.832,163.137,362.599C164.664,365.521,167.030,370.889,168.967,371.914C170.341,372.641,184.589,374.003,190.286,371.085C194.524,368.914,198.226,368.109,200.381,358.837C202.906,346.922,205.752,336.347,206.660,324.062C207.592,306.223,213.359,278.257,212.862,266.313C212.614,260.351,213.918,256.367,212.538,248.079C211.826,244.467,210.042,237.318,207.528,233.403Z"/>
<path class="path-1" d="M287.975,258.859C296.732,254.071,302.434,263.167,302.722,269.035"/>
<path class="path-1" d="M302.722,269.035C303.215,276.968,290.998,303.177,291.419,308.868"/>
<path class="path-1" d="M291.419,308.868C291.464,311.760,292.434,313.884,293.701,316.017"/>
<path class="path-1" d="M293.701,316.017C303.192,333.926,301.557,320.443,313.526,331.300"/>
<path class="path-1" d="M313.526,331.300C316.804,334.315,322.314,342.286,323.447,346.502"/>
<path class="path-1" d="M323.447,346.502C324.411,351.186,324.468,363.473,320.825,366.087"/>
<path class="path-1" d="M320.825,366.087C319.426,366.915,317.135,366.461,316.047,364.337"/>
<path class="path-1" d="M316.047,364.337C315.361,363.324,309.441,352.405,307.750,351.161"/>
<path class="path-1" d="M307.750,351.161C300.821,345.462,290.549,345.453,284.411,338.018"/>
<path class="path-1" d="M284.411,338.018C280.785,333.107,278.693,326.452,275.157,320.948"/>
<path class="path-1" d="M275.157,320.948C271.804,315.912,267.689,311.441,265.269,305.869"/>
<path class="path-1" d="M265.269,305.869C261.963,299.060,257.388,286.302,259.977,278.767"/>
<path class="path-1" d="M259.977,278.767C261.492,275.517,285.088,260.621,287.975,258.859"/>
<path class="path-2" d="M287.975,258.859C296.732,254.071,302.434,263.167,302.722,269.035C303.215,276.968,290.998,303.177,291.419,308.868C291.464,311.760,292.434,313.884,293.701,316.017C303.192,333.926,301.557,320.443,313.526,331.300C316.804,334.315,322.314,342.286,323.447,346.502C324.411,351.186,324.468,363.473,320.825,366.087C319.426,366.915,317.135,366.461,316.047,364.337C315.361,363.324,309.441,352.405,307.750,351.161C300.821,345.462,290.549,345.453,284.411,338.018C280.785,333.107,278.693,326.452,275.157,320.948C271.804,315.912,267.689,311.441,265.269,305.869C261.963,299.060,257.388,286.302,259.977,278.767C261.492,275.517,285.088,260.621,287.975,258.859Z"/>
<path class="path-1" d="M186.488,267.714C191.216,267.375,200.889,265.595,202.406,270.837"/>
<path class="path-1" d="M202.406,270.837C204.975,275.222,201.853,285.476,201.725,290.134"/>
<path class="path-1" d="M201.725,290.134C199.219,307.355,196.551,323.882,196.060,340.873"/>
<path class="path-1" d="M196.060,340.873C196.064,344.003,195.214,349.771,192.910,352.588"/>
<path class="path-1" d="M192.910,352.588C190.292,355.787,183.551,356.653,180.503,358.584"/>
<path class="path-1" d="M180.503,358.584C176.776,360.882,172.227,354.300,170.570,351.481"/>
<path class="path-1" d="M170.570,351.481C169.163,349.086,169.125,342.997,169.250,340.983"/>
<path class="path-1" d="M169.250,340.983C169.869,336.013,172.291,326.529,174.056,320.465"/>
<path class="path-1" d="M174.056,320.465C175.851,314.473,178.473,308.570,180.058,301.857"/>
<path class="path-1" d="M180.058,301.857C180.914,296.267,179.292,289.495,178.850,283.203"/>
<path class="path-1" d="M178.850,283.203C179.303,279.667,180.349,277.552,180.445,275.034"/>
<path class="path-1" d="M180.445,275.034C180.176,270.091,181.791,268.388,186.488,267.714"/>
<path class="path-2" d="M186.488,267.714C191.216,267.375,200.889,265.595,202.406,270.837C204.975,275.222,201.853,285.476,201.725,290.134C199.219,307.355,196.551,323.882,196.060,340.873C196.064,344.003,195.214,349.771,192.910,352.588C190.292,355.787,183.551,356.653,180.503,358.584C176.776,360.882,172.227,354.300,170.570,351.481C169.163,349.086,169.125,342.997,169.250,340.983C169.869,336.013,172.291,326.529,174.056,320.465C175.851,314.473,178.473,308.570,180.058,301.857C180.914,296.267,179.292,289.495,178.850,283.203C179.303,279.667,180.349,277.552,180.445,275.034C180.176,270.091,181.791,268.388,186.488,267.714Z"/>
<path class="path-1" d="M273.372,227.224C279.260,226.285,289.231,232.206,288.071,238.891"/>
<path class="path-1" d="M288.071,238.891C287.711,242.181,280.169,251.029,275.717,255.283"/>
<path class="path-1" d="M275.717,255.283C272.740,258.128,266.570,262.303,264.488,263.181"/>
<path class="path-1" d="M264.488,263.181C257.402,265.732,256.081,257.636,255.598,252.369"/>
<path class="path-1" d="M255.598,252.369C255.319,247.359,258.275,240.233,261.381,236.082"/>
<path class="path-1" d="M261.381,236.082C264.061,232.501,268.500,227.824,273.372,227.224"/>
<path class="path-2" d="M273.372,227.224C279.260,226.285,289.231,232.206,288.071,238.891C287.711,242.181,280.169,251.029,275.717,255.283C272.740,258.128,266.570,262.303,264.488,263.181C257.402,265.732,256.081,257.636,255.598,252.369C255.319,247.359,258.275,240.233,261.381,236.082C264.061,232.501,268.500,227.824,273.372,227.224Z"/>
<path class="path-1" d="M195.354,235.604C200.397,240.433,204.820,245.496,202.443,249.540"/>
<path class="path-1" d="M202.443,249.540C200.260,253.255,197.193,254.552,189.763,255.866"/>
<path class="path-1" d="M189.763,255.866C178.213,257.907,170.719,241.213,174.816,234.569"/>
<path class="path-1" d="M174.816,234.569C178.054,229.317,189.175,229.688,195.354,235.604"/>
<path class="path-2" d="M195.354,235.604C200.397,240.433,204.820,245.496,202.443,249.540C200.260,253.255,197.193,254.552,189.763,255.866C178.213,257.907,170.719,241.213,174.816,234.569C178.054,229.317,189.175,229.688,195.354,235.604Z"/>
</g>
<g id="left_arm">
<path class="path-0" d="M290.902,459.809C287.575,454.485,286.245,445.502,293.897,443.175C299.221,441.510,323.174,446.834,327.167,450.826C334.153,457.148,330.161,471.786,321.510,475.113C311.529,478.439,296.226,468.127,290.902,459.809M279.516,276.423C280.393,273.226,288.864,263.064,293.897,264.184C296.819,264.834,298.222,269.839,299.220,272.502C301.881,280.818,304.543,289.469,306.872,298.119C313.194,320.741,317.518,343.366,322.177,365.988C323.839,375.305,323.839,387.613,327.167,395.931C331.159,405.579,337.479,402.253,340.474,408.573C341.805,411.567,341.140,417.224,343.136,421.881C346.130,429.201,351.785,433.194,354.446,437.851C356.111,440.512,356.776,443.506,353.117,444.173C351.121,445.171,345.797,444.173,343.801,444.173C337.144,442.402,330.490,440.627,323.840,438.849C314.857,436.852,287.575,435.521,282.918,429.533C275.931,420.218,286.910,409.240,288.242,399.924C288.907,396.930,292.189,352.967,291.567,350.019C290.899,343.164,287.387,337.131,285.841,330.057C284.214,320.430,282.539,310.147,281.179,300.115C280.223,291.877,276.733,285.067,279.516,276.423M305.541,254.536C303.213,249.877,295.893,241.561,289.904,242.890C284.914,244.222,284.249,250.210,283.582,254.203C281.920,264.184,279.924,272.502,279.924,282.149C279.590,289.136,280.257,295.458,280.921,302.111C281.586,311.427,279.590,329.392,279.924,340.038C279.924,349.686,282.253,359.667,281.586,367.985C279.590,387.613,271.273,406.246,271.938,425.874C271.939,435.855,274.600,435.855,276.929,443.840C278.592,449.828,277.263,456.150,279.590,461.805C285.579,476.776,302.880,490.416,319.847,487.091C335.483,484.096,336.150,467.129,344.466,458.146C351.786,450.161,366.424,454.154,368.420,445.835C370.416,438.849,360.769,431.198,357.110,425.874C349.790,415.893,355.445,413.563,351.786,405.912C349.125,400.257,341.471,395.267,337.813,387.947C335.816,384.619,334.819,378.299,333.487,373.973C330.826,363.992,327.831,352.680,326.169,342.034C324.504,329.724,324.173,318.745,320.845,306.103C318.184,295.458,310.200,262.852,305.541,254.536Z"/>
<path class="path-1" d="M293.897,264.184C296.819,264.834,298.222,269.839,299.220,272.502"/>
<path class="path-1" d="M299.220,272.502C301.881,280.818,304.543,289.469,306.872,298.119"/>
<path class="path-1" d="M306.872,298.119C313.194,320.741,317.518,343.366,322.177,365.988"/>
<path class="path-1" d="M322.177,365.988C323.839,375.305,323.839,387.613,327.167,395.931"/>
<path class="path-1" d="M327.167,395.931C331.159,405.579,337.479,402.253,340.474,408.573"/>
<path class="path-1" d="M340.474,408.573C341.805,411.567,341.140,417.224,343.136,421.881"/>
<path class="path-1" d="M343.136,421.881C346.130,429.201,351.785,433.194,354.446,437.851"/>
<path class="path-1" d="M354.446,437.851C356.111,440.512,356.776,443.506,353.117,444.173"/>
<path class="path-1" d="M353.117,444.173C351.121,445.171,345.797,444.173,343.801,444.173"/>
<path class="path-1" d="M343.801,444.173C337.144,442.402,330.490,440.627,323.840,438.849"/>
<path class="path-1" d="M323.840,438.849C314.857,436.852,287.575,435.521,282.918,429.533"/>
<path class="path-1" d="M282.918,429.533C275.931,420.218,286.910,409.240,288.242,399.924"/>
<path class="path-1" d="M288.242,399.924C288.907,396.930,292.189,352.967,291.567,350.019"/>
<path class="path-1" d="M291.567,350.019C290.899,343.164,287.387,337.131,285.841,330.057"/>
<path class="path-1" d="M285.841,330.057C284.214,320.430,282.539,310.147,281.179,300.115"/>
<path class="path-1" d="M281.179,300.115C280.223,291.877,276.733,285.067,279.516,276.423"/>
<path class="path-1" d="M279.516,276.423C280.393,273.226,288.864,263.064,293.897,264.184"/>
<path class="path-2" d="M293.897,264.184C296.819,264.834,298.222,269.839,299.220,272.502C301.881,280.818,304.543,289.469,306.872,298.119C313.194,320.741,317.518,343.366,322.177,365.988C323.839,375.305,323.839,387.613,327.167,395.931C331.159,405.579,337.479,402.253,340.474,408.573C341.805,411.567,341.140,417.224,343.136,421.881C346.130,429.201,351.785,433.194,354.446,437.851C356.111,440.512,356.776,443.506,353.117,444.173C351.121,445.171,345.797,444.173,343.801,444.173C337.144,442.402,330.490,440.627,323.840,438.849C314.857,436.852,287.575,435.521,282.918,429.533C275.931,420.218,286.910,409.240,288.242,399.924C288.907,396.930,292.189,352.967,291.567,350.019C290.899,343.164,287.387,337.131,285.841,330.057C284.214,320.430,282.539,310.147,281.179,300.115C280.223,291.877,276.733,285.067,279.516,276.423C280.393,273.226,288.864,263.064,293.897,264.184Z"/>
<path class="path-15" d="M293.897,443.175C299.221,441.510,323.174,446.834,327.167,450.826"/>
<path class="path-15" d="M327.167,450.826C334.153,457.148,330.161,471.786,321.510,475.113"/>
<path class="path-15" d="M321.510,475.113C311.529,478.439,296.226,468.127,290.902,459.809"/>
<path class="path-15" d="M290.902,459.809C287.575,454.485,286.245,445.502,293.897,443.175"/>
<path class="path-16" d="M293.897,443.175C299.221,441.510,323.174,446.834,327.167,450.826C334.153,457.148,330.161,471.786,321.510,475.113C311.529,478.439,296.226,468.127,290.902,459.809C287.575,454.485,286.245,445.502,293.897,443.175Z"/>
</g>
<g id="bone">
<g id="bone1_clothes">
<path class="path-23" d="M231.372,385.840C231.374,385.835,246.727,328.879,246.729,328.873C246.729,328.879,242.347,387.705,242.346,387.711C242.345,387.711,231.373,385.841,231.372,385.840"/>
</g>
<g id="bone2_clothes">
<path class="path-23" d="M232.716,328.364C232.716,328.357,225.598,256.180,225.597,256.173C225.600,256.180,246.227,325.711,246.229,325.718C246.228,325.718,232.718,328.363,232.716,328.364"/>
</g>
<g id="bone3_neck">
<path class="path-23" d="M237.573,253.101C237.572,253.097,224.455,213.513,224.454,213.509C224.455,213.513,231.165,254.670,231.166,254.674C231.167,254.674,237.572,253.101,237.573,253.101"/>
</g>
<g id="bone4_head">
<path class="path-23" d="M230.538,210.976C230.540,210.969,254.166,136.565,254.168,136.558C254.167,136.566,242.683,213.780,242.682,213.788C242.681,213.787,230.539,210.976,230.538,210.976"/>
</g>
<g id="bone5_left_arm">
<path class="path-23" d="M298.231,255.737C298.233,255.746,317.351,346.215,317.353,346.224C317.350,346.215,283.135,260.312,283.132,260.303C283.133,260.303,298.230,255.738,298.231,255.737"/>
</g>
<g id="bone6_left_arm">
<path class="path-23" d="M300.874,348.410C300.874,348.416,298.506,412.109,298.506,412.115C298.507,412.109,311.241,349.657,311.242,349.651C311.241,349.651,300.875,348.410,300.874,348.410"/>
</g>
<g id="bone7_right_arm">
<path class="path-23" d="M169.131,269.641C169.129,269.653,149.258,383.430,149.256,383.441C149.259,383.430,186.833,274.214,186.837,274.203C186.835,274.203,169.133,269.642,169.131,269.641"/>
</g>
<g id="bone8_right_arm">
<path class="path-23" d="M157.157,379.808C157.160,379.814,181.052,434.331,181.054,434.336C181.051,434.331,146.694,385.725,146.691,385.720C146.692,385.720,157.156,379.809,157.157,379.808"/>
</g>
<g id="bone9_left_leg">
<path class="path-23" d="M271.638,383.721C271.641,383.731,301.078,485.161,301.081,485.172C301.077,485.162,254.528,390.366,254.524,390.356C254.526,390.355,271.636,383.722,271.638,383.721"/>
</g>
<g id="bone10_right_leg">
<path class="path-23" d="M209.427,385.331C209.427,385.341,207.865,489.045,207.865,489.056C207.866,489.046,224.870,386.733,224.872,386.722C224.870,386.722,209.429,385.331,209.427,385.331"/>
</g>
<g id="bone11_hair">
<path class="path-23" d="M234.079,155.537C234.081,155.545,258.448,231.937,258.451,231.944C258.447,231.937,220.511,161.295,220.507,161.288C220.508,161.287,234.077,155.538,234.079,155.537"/>
</g>
<g id="bone12_left_leg_S">
<path class="path-23" d="M435.412,222.279C435.420,222.280,507.723,224.722,507.730,224.722C507.723,224.720,436.803,210.432,436.796,210.431C436.796,210.432,435.412,222.278,435.412,222.279"/>
</g>
<g id="bone13_right_leg_S">
<path class="path-23" d="M495.260,210.792C495.253,210.794,425.118,228.535,425.111,228.537C425.118,228.536,497.215,222.559,497.222,222.559C497.222,222.557,495.260,210.793,495.260,210.792"/>
</g>
<g id="bone14_left_arm_S">
<path class="path-23" d="M557.459,215.989C557.458,215.981,551.495,143.884,551.494,143.876C551.494,143.884,545.530,215.981,545.530,215.989C545.531,215.989,557.458,215.989,557.459,215.989"/>
</g>
<g id="bone15_jacket_S">
<path class="path-23" d="M607.724,220.547C607.729,220.543,661.890,172.581,661.895,172.576C661.889,172.580,600.584,210.991,600.578,210.995C600.579,210.996,607.723,220.547,607.724,220.547"/>
</g>
<g id="bone16_pupils_S">
<path class="path-23" d="M442.221,337.675C442.220,337.668,440.191,265.352,440.190,265.345C440.189,265.352,430.310,337.019,430.309,337.026C430.310,337.026,442.219,337.675,442.221,337.675"/>
</g>
<g id="bone17_eyelids_S">
<path class="path-23" d="M502.303,337.044C502.302,337.037,492.465,265.365,492.465,265.358C492.464,265.365,490.392,337.679,490.391,337.687C490.392,337.687,502.302,337.044,502.303,337.044"/>
</g>
<g id="bone18_face_S">
<path class="path-23" d="M552.502,344.407C552.509,344.406,623.736,331.741,623.744,331.739C623.736,331.739,551.396,332.530,551.389,332.530C551.389,332.531,552.502,344.406,552.502,344.407"/>
</g>
</g>
</g>
<style>
.path-0{fill:#000000;fill-rule:evenodd;stroke:none;}
.path-1{fill:none;stroke:#a60d3f;stroke-width:1;stroke-linecap:butt;stroke-linejoin:round;}
.path-2{fill:#a60d3f;fill-rule:evenodd;stroke:none;}
.path-3{fill:none;stroke:#d88e4b;stroke-width:1;stroke-linecap:butt;stroke-linejoin:round;}
.path-4{fill:#d88e4b;fill-rule:evenodd;stroke:none;}
.path-5{fill:none;stroke:#6e2353;stroke-width:1;stroke-linecap:butt;stroke-linejoin:round;}
.path-6{fill:#6e2353;fill-rule:evenodd;stroke:none;}
.path-7{fill:none;stroke:#392966;stroke-width:1;stroke-linecap:butt;stroke-linejoin:round;}
.path-8{fill:#392966;fill-rule:evenodd;stroke:none;}
.path-9{fill:none;stroke:#cc9bc5;stroke-width:1;stroke-linecap:butt;stroke-linejoin:round;}
.path-10{fill:#cc9bc5;fill-rule:evenodd;stroke:none;}
.path-11{fill:none;stroke:#620527;stroke-width:1;stroke-linecap:butt;stroke-linejoin:round;}
.path-12{fill:#620527;fill-rule:evenodd;stroke:none;}
.path-13{fill:none;stroke:#6a3661;stroke-width:1;stroke-linecap:butt;stroke-linejoin:round;}
.path-14{fill:#6a3661;fill-rule:evenodd;stroke:none;}
.path-15{fill:none;stroke:#f8a087;stroke-width:1;stroke-linecap:butt;stroke-linejoin:round;}
.path-16{fill:#f8a087;fill-rule:evenodd;stroke:none;}
.path-17{fill:none;stroke:#ffffff;stroke-width:1;stroke-linecap:butt;stroke-linejoin:round;}
.path-18{fill:#ffffff;fill-rule:evenodd;stroke:none;}
.path-19{fill:none;stroke:#d89f4a;stroke-width:1;stroke-linecap:butt;stroke-linejoin:round;}
.path-20{fill:#d89f4a;fill-rule:evenodd;stroke:none;}
.path-21{fill:none;stroke:#fafd5b;stroke-width:1;stroke-linecap:butt;stroke-linejoin:round;}
.path-22{fill:#fafd5b;fill-rule:evenodd;stroke:none;}
.path-23{fill:none;stroke:#00ff42;stroke-width:8;stroke-linecap:round;stroke-linejoin:round;}
.path-24{fill:none;stroke:#000000;stroke-width:1;stroke-linecap:butt;stroke-linejoin:round;}
.path-25{fill:none;stroke:#ececec;stroke-width:1;stroke-linecap:butt;stroke-linejoin:round;}
.path-26{fill:#ececec;fill-rule:evenodd;stroke:none;}
.path-27{fill:none;stroke:#808080;stroke-width:1;stroke-linecap:butt;stroke-linejoin:round;}
.path-28{fill:#808080;fill-rule:evenodd;stroke:none;}
.path-29{fill:none;stroke:#282828;stroke-width:1;stroke-linecap:butt;stroke-linejoin:round;}
.path-30{fill:#282828;fill-rule:evenodd;stroke:none;}
</style>
</svg>
