<svg version="1.1" id="Frame_229" xmlns="http://www.w3.org/2000/svg" xmlns:xlink="http://www.w3.org/1999/xlink" width="480px" height="720px">
<g id="main_bone">
<g id="right_arm">
<path class="path-0" d="M174.126,270.172C175.458,267.511,178.075,262.017,181.778,260.525C188.182,257.943,193.652,263.933,194.431,268.509C196.093,276.447,190.936,287.396,188.470,295.289C182.390,314.329,175.637,333.084,171.132,352.015C170.600,355.317,165.808,376.634,165.808,373.973C165.476,380.626,172.130,386.283,174.459,391.939C177.454,399.590,174.791,406.910,172.795,413.897C168.138,428.535,168.471,433.858,167.804,448.165C167.804,450.492,167.473,458.146,163.812,458.146C160.487,458.146,160.153,452.157,159.488,449.828C159.155,447.167,156.825,441.510,157.492,439.182C157.823,435.190,162.483,436.188,157.492,427.870C151.170,417.555,139.526,409.240,136.532,395.931C134.536,385.285,140.191,375.969,143.186,365.988C149.508,344.695,156.494,323.404,163.812,302.111C167.805,291.132,168.802,281.484,174.126,270.172M193.754,262.188C193.755,253.538,190.761,245.885,180.115,249.546C163.481,255.200,158.822,281.484,154.165,296.122C147.512,316.084,141.855,336.046,136.199,356.007C133.870,364.657,130.544,368.982,129.212,373.973C127.549,379.628,127.881,388.280,128.214,393.935C128.214,411.567,133.869,412.234,140.856,425.874C144.517,433.859,140.525,438.849,142.852,445.835C144.517,450.492,148.176,453.820,150.837,457.813C153.166,461.805,153.499,464.135,155.162,467.793C157.158,472.119,163.481,481.767,169.136,479.771C173.793,478.108,173.793,469.790,174.126,465.797C174.459,459.809,178.119,436.853,179.450,429.866C181.778,418.554,187.435,406.245,185.770,393.935C184.440,384.619,176.122,377.965,176.456,367.985C176.787,362.661,180.115,354.011,181.113,348.023C182.776,338.375,182.776,328.061,184.772,318.081C188.099,300.448,194.421,280.487,193.754,262.188Z"/>
<path class="path-1" d="M181.778,260.525C188.182,257.943,193.652,263.933,194.431,268.509"/>
<path class="path-1" d="M194.431,268.509C196.093,276.447,190.936,287.396,188.470,295.289"/>
<path class="path-1" d="M188.470,295.289C182.390,314.329,175.637,333.084,171.132,352.015"/>
<path class="path-1" d="M171.132,352.015C170.600,355.317,165.808,376.634,165.808,373.973"/>
<path class="path-1" d="M165.808,373.973C165.476,380.626,172.130,386.283,174.459,391.939"/>
<path class="path-1" d="M174.459,391.939C177.454,399.590,174.791,406.910,172.795,413.897"/>
<path class="path-1" d="M172.795,413.897C168.138,428.535,168.471,433.858,167.804,448.165"/>
<path class="path-1" d="M167.804,448.165C167.804,450.492,167.473,458.146,163.812,458.146"/>
<path class="path-1" d="M163.812,458.146C160.487,458.146,160.153,452.157,159.488,449.828"/>
<path class="path-1" d="M159.488,449.828C159.155,447.167,156.825,441.510,157.492,439.182"/>
<path class="path-1" d="M157.492,439.182C157.823,435.190,162.483,436.188,157.492,427.870"/>
<path class="path-1" d="M157.492,427.870C151.170,417.555,139.526,409.240,136.532,395.931"/>
<path class="path-1" d="M136.532,395.931C134.536,385.285,140.191,375.969,143.186,365.988"/>
<path class="path-1" d="M143.186,365.988C149.508,344.695,156.494,323.404,163.812,302.111"/>
<path class="path-1" d="M163.812,302.111C167.805,291.132,168.802,281.484,174.126,270.172"/>
<path class="path-1" d="M174.126,270.172C175.458,267.511,178.075,262.017,181.778,260.525"/>
<path class="path-2" d="M181.778,260.525C188.182,257.943,193.652,263.933,194.431,268.509C196.093,276.447,190.936,287.396,188.470,295.289C182.390,314.329,175.637,333.084,171.132,352.015C170.600,355.317,165.808,376.634,165.808,373.973C165.476,380.626,172.130,386.283,174.459,391.939C177.454,399.590,174.791,406.910,172.795,413.897C168.138,428.535,168.471,433.858,167.804,448.165C167.804,450.492,167.473,458.146,163.812,458.146C160.487,458.146,160.153,452.157,159.488,449.828C159.155,447.167,156.825,441.510,157.492,439.182C157.823,435.190,162.483,436.188,157.492,427.870C151.170,417.555,139.526,409.240,136.532,395.931C134.536,385.285,140.191,375.969,143.186,365.988C149.508,344.695,156.494,323.404,163.812,302.111C167.805,291.132,168.802,281.484,174.126,270.172C175.458,267.511,178.075,262.017,181.778,260.525Z"/>
</g>
<g id="layer_left_leg">
<g id="left_heel">
<path class="path-0" d="M255.926,635.517C249.031,623.798,262.758,604.906,274.128,602.664C291.848,598.989,305.482,624.668,303.296,631.022C299.601,640.755,282.486,640.750,273.613,640.723C268.985,640.556,258.110,639.400,255.926,635.517M302.545,601.458C292.385,591.776,269.492,593.633,258.499,600.154C236.325,612.772,231.716,654.195,264.360,653.532C276.326,653.343,302.772,651.037,309.938,644.134C316.369,638.617,314.676,628.798,312.770,621.109C310.824,614.869,307.355,606.173,302.545,601.458Z"/>
<path class="path-3" d="M274.128,602.664C291.848,598.989,305.482,624.668,303.296,631.022"/>
<path class="path-3" d="M303.296,631.022C299.601,640.755,282.486,640.750,273.613,640.723"/>
<path class="path-3" d="M273.613,640.723C268.985,640.556,258.110,639.400,255.926,635.517"/>
<path class="path-3" d="M255.926,635.517C249.031,623.798,262.758,604.906,274.128,602.664"/>
<path class="path-4" d="M274.128,602.664C291.848,598.989,305.482,624.668,303.296,631.022C299.601,640.755,282.486,640.750,273.613,640.723C268.985,640.556,258.110,639.400,255.926,635.517C249.031,623.798,262.758,604.906,274.128,602.664Z"/>
</g>
<g id="left_leg">
<path class="path-0" d="M238.898,405.789C240.604,401.168,250.098,404.795,253.973,404.581C259.954,404.540,273.462,402.232,278.304,405.938C286.489,411.779,287.859,439.694,288.196,449.360C288.390,480.324,290.536,509.339,291.708,539.217C291.827,546.924,291.597,554.903,292.269,562.430C293.011,568.073,293.608,574.447,296.556,578.932C297.584,581.319,301.883,582.171,301.307,584.511C298.502,593.453,292.050,588.209,287.198,592.779C279.216,599.847,264.857,606.488,255.594,603.673C249.127,601.942,238.396,593.970,236.194,587.743C233.510,580.153,232.526,570.901,231.541,563.067C228.162,536.169,243.039,479.331,236.926,450.937C232.964,432.541,241.764,431.868,247.929,418.718C248.874,416.700,238.259,418.944,236.730,417.280C234.431,415.150,237.683,408.599,238.898,405.789M285.223,397.303C278.922,392.456,261.346,394.530,253.973,394.933C249.987,395.135,237.501,392.103,234.563,393.915C216.924,404.797,224.297,444.133,225.943,460.950C226.096,465.860,223.944,489.218,223.461,495.813C223.067,523.665,217.087,547.483,219.039,575.270C219.533,583.945,219.235,592.542,222.455,600.484C230.140,619.062,247.360,622.270,270.423,620.698C282.884,619.864,309.730,615.009,317.904,591.461C321.466,581.182,315.087,567.616,313.461,564.309C311.064,559.432,307.467,554.765,306.055,549.115C301.028,531.594,307.223,512.693,305.842,494.411C304.111,471.192,304.674,412.334,285.223,397.303Z"/>
<path class="path-7" d="M253.973,404.581C259.954,404.540,273.462,402.232,278.304,405.938"/>
<path class="path-7" d="M278.304,405.938C286.489,411.779,287.859,439.694,288.196,449.360"/>
<path class="path-7" d="M288.196,449.360C288.390,480.324,290.536,509.339,291.708,539.217"/>
<path class="path-7" d="M291.708,539.217C291.827,546.924,291.597,554.903,292.269,562.430"/>
<path class="path-7" d="M292.269,562.430C293.011,568.073,293.608,574.447,296.556,578.932"/>
<path class="path-7" d="M296.556,578.932C297.584,581.319,301.883,582.171,301.307,584.511"/>
<path class="path-7" d="M301.307,584.511C298.502,593.453,292.050,588.209,287.198,592.779"/>
<path class="path-7" d="M287.198,592.779C279.216,599.847,264.857,606.488,255.594,603.673"/>
<path class="path-7" d="M255.594,603.673C249.127,601.942,238.396,593.970,236.194,587.743"/>
<path class="path-7" d="M236.194,587.743C233.510,580.153,232.526,570.901,231.541,563.067"/>
<path class="path-7" d="M231.541,563.067C228.162,536.169,243.039,479.331,236.926,450.937"/>
<path class="path-7" d="M236.926,450.937C232.964,432.541,241.764,431.868,247.929,418.718"/>
<path class="path-7" d="M247.929,418.718C248.874,416.700,238.259,418.944,236.730,417.280"/>
<path class="path-7" d="M236.730,417.280C234.431,415.150,237.683,408.599,238.898,405.789"/>
<path class="path-7" d="M238.898,405.789C240.604,401.168,250.098,404.795,253.973,404.581"/>
<path class="path-8" d="M253.973,404.581C259.954,404.540,273.462,402.232,278.304,405.938C286.489,411.779,287.859,439.694,288.196,449.360C288.390,480.324,290.536,509.339,291.708,539.217C291.827,546.924,291.597,554.903,292.269,562.430C293.011,568.073,293.608,574.447,296.556,578.932C297.584,581.319,301.883,582.171,301.307,584.511C298.502,593.453,292.050,588.209,287.198,592.779C279.216,599.847,264.857,606.488,255.594,603.673C249.127,601.942,238.396,593.970,236.194,587.743C233.510,580.153,232.526,570.901,231.541,563.067C228.162,536.169,243.039,479.331,236.926,450.937C232.964,432.541,241.764,431.868,247.929,418.718C248.874,416.700,238.259,418.944,236.730,417.280C234.431,415.150,237.683,408.599,238.898,405.789C240.604,401.168,250.098,404.795,253.973,404.581Z"/>
</g>
<g id="left_toe">
<path class="path-0" d="M251.118,662.237C223.811,656.655,230.334,620.462,250.791,613.805C272.222,606.949,292.568,618.248,298.617,630.763C302.868,638.342,304.431,646.751,300.197,654.569C291.901,667.255,264.417,664.879,251.118,662.237M314.851,627.695C311.378,612.532,298.930,599.330,286.448,595.692C258.289,587.580,233.412,595.496,224.451,621.227C218.775,635.932,222.049,652.375,231.866,664.708C239.645,673.879,266.451,675.136,277.904,674.187C288.161,672.621,300.959,670.037,308.143,661.457C313.304,655.475,316.536,635.231,314.851,627.695Z"/>
<path class="path-3" d="M250.791,613.805C272.222,606.949,292.568,618.248,298.617,630.763"/>
<path class="path-3" d="M298.617,630.763C302.868,638.342,304.431,646.751,300.197,654.569"/>
<path class="path-3" d="M300.197,654.569C291.901,667.255,264.417,664.879,251.118,662.237"/>
<path class="path-3" d="M251.118,662.237C223.811,656.655,230.334,620.462,250.791,613.805"/>
<path class="path-4" d="M250.791,613.805C272.222,606.949,292.568,618.248,298.617,630.763C302.868,638.342,304.431,646.751,300.197,654.569C291.901,667.255,264.417,664.879,251.118,662.237C223.811,656.655,230.334,620.462,250.791,613.805Z"/>
</g>
<g id="left_sole">
<path class="path-0" d="M255.405,677.802C244.700,677.123,241.408,664.021,240.189,668.740C239.379,671.874,247.919,675.007,251.954,676.164C260.908,679.062,276.907,677.865,286.170,673.511C289.009,672.445,298.078,669.891,298.130,670.127C299.060,674.306,287.862,674.320,284.328,674.739C280.632,675.534,256.343,677.629,255.405,677.802M240.257,668.991C245.621,666.964,256.789,669.796,261.007,670.690C278.550,674.408,287.666,666.310,295.415,666.517C296.403,666.553,299.977,665.003,300.034,667.601C300.207,675.452,269.827,680.251,254.159,675.407C247.294,673.883,238.367,669.706,240.257,668.991M305.389,660.870C302.251,657.493,283.803,662.020,265.613,662.267C257.136,662.405,235.325,653.681,230.283,663.701C229.281,665.704,230.158,672.645,231.835,674.060C243.364,684.061,298.017,681.383,304.054,676.213C306.049,674.505,308.596,664.323,305.389,660.870Z"/>
<path class="path-5" d="M240.189,668.740C239.379,671.874,247.919,675.007,251.954,676.164"/>
<path class="path-5" d="M251.954,676.164C260.908,679.062,276.907,677.865,286.170,673.511"/>
<path class="path-5" d="M286.170,673.511C289.009,672.445,298.078,669.891,298.130,670.127"/>
<path class="path-5" d="M298.130,670.127C299.060,674.306,287.862,674.320,284.328,674.739"/>
<path class="path-5" d="M284.328,674.739C280.632,675.534,256.343,677.629,255.405,677.802"/>
<path class="path-5" d="M255.405,677.802C244.700,677.123,241.408,664.021,240.189,668.740"/>
<path class="path-6" d="M240.189,668.740C239.379,671.874,247.919,675.007,251.954,676.164C260.908,679.062,276.907,677.865,286.170,673.511C289.009,672.445,298.078,669.891,298.130,670.127C299.060,674.306,287.862,674.320,284.328,674.739C280.632,675.534,256.343,677.629,255.405,677.802C244.700,677.123,241.408,664.021,240.189,668.740Z"/>
<path class="path-5" d="M261.007,670.690C278.550,674.408,287.666,666.310,295.415,666.517"/>
<path class="path-5" d="M295.415,666.517C296.403,666.553,299.977,665.003,300.034,667.601"/>
<path class="path-5" d="M300.034,667.601C300.207,675.452,269.827,680.251,254.159,675.407"/>
<path class="path-5" d="M254.159,675.407C247.294,673.883,238.367,669.706,240.257,668.991"/>
<path class="path-5" d="M240.257,668.991C245.621,666.964,256.789,669.796,261.007,670.690"/>
<path class="path-6" d="M261.007,670.690C278.550,674.408,287.666,666.310,295.415,666.517C296.403,666.553,299.977,665.003,300.034,667.601C300.207,675.452,269.827,680.251,254.159,675.407C247.294,673.883,238.367,669.706,240.257,668.991C245.621,666.964,256.789,669.796,261.007,670.690Z"/>
</g>
</g>
<g id="layer_right_leg">
<g id="right_heel">
<path class="path-0" d="M183.148,621.996C184.031,605.547,185.158,592.761,205.234,589.869C214.166,588.419,231.174,591.270,236.081,599.910C238.667,604.210,237.859,610.518,238.106,615.111C238.573,622.602,243.165,637.044,232.612,638.811C231.933,638.993,213.222,639.349,207.382,639.512C199.967,640.409,192.243,640.990,186.876,635.856C184.085,632.597,182.862,625.884,183.148,621.996M245.622,598.189C241.698,587.755,227.388,581.812,217.290,583.273C204.095,585.019,190.591,580.677,182.000,593.026C175.283,602.679,174.533,620.423,176.549,631.680C177.306,636.860,180.567,646.309,184.869,649.178C188.024,651.184,192.899,650.608,196.628,650.611C214.773,650.914,247.147,657.033,246.779,629.959C246.609,622.923,247.694,603.758,245.622,598.189Z"/>
<path class="path-3" d="M205.234,589.869C214.166,588.419,231.174,591.270,236.081,599.910"/>
<path class="path-3" d="M236.081,599.910C238.667,604.210,237.859,610.518,238.106,615.111"/>
<path class="path-3" d="M238.106,615.111C238.573,622.602,243.165,637.044,232.612,638.811"/>
<path class="path-3" d="M232.612,638.811C231.933,638.993,213.222,639.349,207.382,639.512"/>
<path class="path-3" d="M207.382,639.512C199.967,640.409,192.243,640.990,186.876,635.856"/>
<path class="path-3" d="M186.876,635.856C184.085,632.597,182.862,625.884,183.148,621.996"/>
<path class="path-3" d="M183.148,621.996C184.031,605.547,185.158,592.761,205.234,589.869"/>
<path class="path-4" d="M205.234,589.869C214.166,588.419,231.174,591.270,236.081,599.910C238.667,604.210,237.859,610.518,238.106,615.111C238.573,622.602,243.165,637.044,232.612,638.811C231.933,638.993,213.222,639.349,207.382,639.512C199.967,640.409,192.243,640.990,186.876,635.856C184.085,632.597,182.862,625.884,183.148,621.996C184.031,605.547,185.158,592.761,205.234,589.869Z"/>
</g>
<g id="right_leg">
<path class="path-0" d="M182.834,404.875C186.525,392.971,202.237,390.118,212.784,393.055C218.619,394.551,228.401,397.405,231.565,402.929C232.870,405.209,233.373,409.442,231.989,411.675C229.488,415.711,214.482,412.615,216.993,416.738C221.409,424.252,231.886,414.974,236.112,418.907C237.974,420.640,238.145,424.124,238.517,427.040C242.499,449.128,235.435,472.645,235.323,494.418C235.217,501.473,233.645,511.877,234.856,518.303C237.271,533.992,235.256,537.291,235.576,546.708C235.475,550.230,233.605,568.085,234.760,572.670C236.096,577.563,239.659,582.248,240.069,587.328C240.757,595.842,227.898,606.682,220.197,608.820C211.317,611.097,184.192,608.916,175.988,604.300C172.893,602.675,169.100,598.810,167.911,595.257C166.576,591.880,165.324,576.086,166.467,572.314C168.712,565.793,171.288,564.503,173.517,556.741C175.820,547.567,177.970,537.618,177.656,527.943C176.676,509.363,177.981,479.350,180.293,465.985C181.397,458.522,179.900,433.350,180.997,426.440C182.941,414.866,180.980,412.614,182.834,404.875M208.062,381.294C202.406,379.297,198.068,373.937,192.092,375.969C190.252,376.770,187.037,379.065,185.732,380.393C169.755,394.167,170.977,407.999,170.934,427.586C170.626,434.595,170.705,441.891,169.986,448.596C169.275,454.170,167.333,458.708,165.929,463.803C165.060,468.001,164.329,472.503,164.043,477.796C163.892,482.902,165.157,488.914,165.178,497.590C164.496,507.407,165.121,516.688,164.593,526.080C164.444,532.613,161.141,547.711,160.216,552.677C157.909,559.642,154.756,567.734,153.069,574.458C151.363,583.410,152.465,592.941,155.856,600.889C157.391,605.084,160.241,610.099,163.399,612.868C165.458,614.674,168.241,615.678,170.711,616.520C179.065,619.320,186.978,620.690,195.867,620.945C201.794,621.161,207.650,619.396,213.787,620.007C214.806,619.953,223.000,622.079,224.639,622.236C227.627,622.350,231.853,619.681,234.589,618.095C238.288,615.674,244.885,615.072,247.780,611.569C250.045,608.825,250.465,604.972,251.594,601.595C257.970,581.594,252.884,570.730,250.476,552.551C249.132,542.406,246.787,521.544,246.939,510.211C246.841,496.487,249.418,483.208,250.238,469.083C250.582,464.674,250.991,459.386,251.780,454.407C252.489,449.369,251.481,445.278,251.298,440.271C250.928,436.408,251.227,424.031,250.646,419.885C250.274,416.185,250.314,411.567,248.983,407.908C245.324,398.592,231.351,388.280,222.034,385.285C217.377,383.621,212.387,383.290,208.062,381.294Z"/>
<path class="path-7" d="M212.784,393.055C218.619,394.551,228.401,397.405,231.565,402.929"/>
<path class="path-7" d="M231.565,402.929C232.870,405.209,233.373,409.442,231.989,411.675"/>
<path class="path-7" d="M231.989,411.675C229.488,415.711,214.482,412.615,216.993,416.738"/>
<path class="path-7" d="M216.993,416.738C221.409,424.252,231.886,414.974,236.112,418.907"/>
<path class="path-7" d="M236.112,418.907C237.974,420.640,238.145,424.124,238.517,427.040"/>
<path class="path-7" d="M238.517,427.040C242.499,449.128,235.435,472.645,235.323,494.418"/>
<path class="path-7" d="M235.323,494.418C235.217,501.473,233.645,511.877,234.856,518.303"/>
<path class="path-7" d="M234.856,518.303C237.271,533.992,235.256,537.291,235.576,546.708"/>
<path class="path-7" d="M235.576,546.708C235.475,550.230,233.605,568.085,234.760,572.670"/>
<path class="path-7" d="M234.760,572.670C236.096,577.563,239.659,582.248,240.069,587.328"/>
<path class="path-7" d="M240.069,587.328C240.757,595.842,227.898,606.682,220.197,608.820"/>
<path class="path-7" d="M220.197,608.820C211.317,611.097,184.192,608.916,175.988,604.300"/>
<path class="path-7" d="M175.988,604.300C172.893,602.675,169.100,598.810,167.911,595.257"/>
<path class="path-7" d="M167.911,595.257C166.576,591.880,165.324,576.086,166.467,572.314"/>
<path class="path-7" d="M166.467,572.314C168.712,565.793,171.288,564.503,173.517,556.741"/>
<path class="path-7" d="M173.517,556.741C175.820,547.567,177.970,537.618,177.656,527.943"/>
<path class="path-7" d="M177.656,527.943C176.676,509.363,177.981,479.350,180.293,465.985"/>
<path class="path-7" d="M180.293,465.985C181.397,458.522,179.900,433.350,180.997,426.440"/>
<path class="path-7" d="M180.997,426.440C182.941,414.866,180.980,412.614,182.834,404.875"/>
<path class="path-7" d="M182.834,404.875C186.525,392.971,202.237,390.118,212.784,393.055"/>
<path class="path-8" d="M212.784,393.055C218.619,394.551,228.401,397.405,231.565,402.929C232.870,405.209,233.373,409.442,231.989,411.675C229.488,415.711,214.482,412.615,216.993,416.738C221.409,424.252,231.886,414.974,236.112,418.907C237.974,420.640,238.145,424.124,238.517,427.040C242.499,449.128,235.435,472.645,235.323,494.418C235.217,501.473,233.645,511.877,234.856,518.303C237.271,533.992,235.256,537.291,235.576,546.708C235.475,550.230,233.605,568.085,234.760,572.670C236.096,577.563,239.659,582.248,240.069,587.328C240.757,595.842,227.898,606.682,220.197,608.820C211.317,611.097,184.192,608.916,175.988,604.300C172.893,602.675,169.100,598.810,167.911,595.257C166.576,591.880,165.324,576.086,166.467,572.314C168.712,565.793,171.288,564.503,173.517,556.741C175.820,547.567,177.970,537.618,177.656,527.943C176.676,509.363,177.981,479.350,180.293,465.985C181.397,458.522,179.900,433.350,180.997,426.440C182.941,414.866,180.980,412.614,182.834,404.875C186.525,392.971,202.237,390.118,212.784,393.055Z"/>
</g>
<g id="right_toe">
<path class="path-0" d="M165.528,643.625C166.931,630.111,172.265,612.686,188.723,610.348C192.506,609.609,197.831,611.408,202.028,612.273C223.518,616.646,231.842,621.513,232.490,643.625C232.545,649.710,233.455,657.263,228.901,662.140C224.390,666.886,203.138,664.229,196.647,664.512C185.177,665.261,175.296,670.747,167.366,660.744C162.592,654.593,164.786,650.870,165.528,643.625M241.154,620.416C234.064,606.239,201.116,597.763,186.273,600.495C164.114,604.702,157.004,622.139,155.541,640.954C154.969,647.659,154.072,655.023,157.383,660.975C158.572,663.112,161.096,665.979,162.852,667.692C176.014,681.646,185.717,679.892,203.604,679.797C213.064,679.905,228.813,679.149,236.427,672.833C242.164,667.606,242.724,661.886,242.993,654.578C242.999,647.537,244.024,625.631,241.154,620.416Z"/>
<path class="path-3" d="M188.723,610.348C192.506,609.609,197.831,611.408,202.028,612.273"/>
<path class="path-3" d="M202.028,612.273C223.518,616.646,231.842,621.513,232.490,643.625"/>
<path class="path-3" d="M232.490,643.625C232.545,649.710,233.455,657.263,228.901,662.140"/>
<path class="path-3" d="M228.901,662.140C224.390,666.886,203.138,664.229,196.647,664.512"/>
<path class="path-3" d="M196.647,664.512C185.177,665.261,175.296,670.747,167.366,660.744"/>
<path class="path-3" d="M167.366,660.744C162.592,654.593,164.786,650.870,165.528,643.625"/>
<path class="path-3" d="M165.528,643.625C166.931,630.111,172.265,612.686,188.723,610.348"/>
<path class="path-4" d="M188.723,610.348C192.506,609.609,197.831,611.408,202.028,612.273C223.518,616.646,231.842,621.513,232.490,643.625C232.545,649.710,233.455,657.263,228.901,662.140C224.390,666.886,203.138,664.229,196.647,664.512C185.177,665.261,175.296,670.747,167.366,660.744C162.592,654.593,164.786,650.870,165.528,643.625C166.931,630.111,172.265,612.686,188.723,610.348Z"/>
</g>
<g id="right_sole">
<path class="path-0" d="M184.265,676.396C185.817,676.703,201.293,676.428,203.057,676.427C204.463,676.447,212.904,676.603,214.103,676.529C214.854,676.499,222.351,676.155,222.924,676.611C222.375,676.172,214.358,677.622,213.887,677.638C212.947,677.701,186.559,677.541,186.247,677.652C185.060,677.681,173.804,676.737,173.043,675.777C174.262,675.253,182.484,676.041,184.265,676.396M224.248,670.836C224.303,671.118,222.676,672.869,222.250,672.873C221.406,672.886,207.983,674.381,206.871,674.135C205.607,674.084,196.678,674.630,195.538,674.618C193.300,674.594,175.260,674.161,173.337,673.042C173.092,672.836,172.277,671.539,172.318,671.363C172.386,671.081,179.522,671.180,180.621,671.135C182.344,671.064,196.431,670.729,198.199,670.707C200.115,670.682,215.295,670.855,217.257,670.692C217.564,670.674,224.111,670.147,224.248,670.836M230.006,665.517C218.626,662.279,209.693,666.833,199.292,667.173C191.790,667.453,177.395,665.849,168.254,667.628C166.779,667.915,163.960,667.703,163.508,669.226C162.947,671.131,166.601,675.239,168.928,676.775C171.812,678.678,177.827,678.719,180.212,679.084C192.305,681.384,207.707,680.242,220.129,679.700C229.286,679.306,231.570,675.654,232.516,671.257C232.912,669.420,233.579,666.484,230.006,665.517Z"/>
<path class="path-24" d="M184.265,676.396C185.817,676.703,201.293,676.428,203.057,676.427"/>
<path class="path-24" d="M203.057,676.427C204.463,676.447,212.904,676.603,214.103,676.529"/>
<path class="path-24" d="M214.103,676.529C214.854,676.499,222.351,676.155,222.924,676.611"/>
<path class="path-24" d="M222.924,676.611C222.375,676.172,214.358,677.622,213.887,677.638"/>
<path class="path-24" d="M213.887,677.638C212.947,677.701,186.559,677.541,186.247,677.652"/>
<path class="path-24" d="M186.247,677.652C185.060,677.681,173.804,676.737,173.043,675.777"/>
<path class="path-24" d="M173.043,675.777C174.262,675.253,182.484,676.041,184.265,676.396"/>
<path class="path-0" d="M184.265,676.396C185.817,676.703,201.293,676.428,203.057,676.427C204.463,676.447,212.904,676.603,214.103,676.529C214.854,676.499,222.351,676.155,222.924,676.611C222.375,676.172,214.358,677.622,213.887,677.638C212.947,677.701,186.559,677.541,186.247,677.652C185.060,677.681,173.804,676.737,173.043,675.777C174.262,675.253,182.484,676.041,184.265,676.396Z"/>
<path class="path-5" d="M180.621,671.135C182.344,671.064,196.431,670.729,198.199,670.707"/>
<path class="path-5" d="M198.199,670.707C200.115,670.682,215.295,670.855,217.257,670.692"/>
<path class="path-5" d="M217.257,670.692C217.564,670.674,224.111,670.147,224.248,670.836"/>
<path class="path-5" d="M224.248,670.836C224.303,671.118,222.676,672.869,222.250,672.873"/>
<path class="path-5" d="M222.250,672.873C221.406,672.886,207.983,674.381,206.871,674.135"/>
<path class="path-5" d="M206.871,674.135C205.607,674.084,196.678,674.630,195.538,674.618"/>
<path class="path-5" d="M195.538,674.618C193.300,674.594,175.260,674.161,173.337,673.042"/>
<path class="path-5" d="M173.337,673.042C173.092,672.836,172.277,671.539,172.318,671.363"/>
<path class="path-5" d="M172.318,671.363C172.386,671.081,179.522,671.180,180.621,671.135"/>
<path class="path-6" d="M180.621,671.135C182.344,671.064,196.431,670.729,198.199,670.707C200.115,670.682,215.295,670.855,217.257,670.692C217.564,670.674,224.111,670.147,224.248,670.836C224.303,671.118,222.676,672.869,222.250,672.873C221.406,672.886,207.983,674.381,206.871,674.135C205.607,674.084,196.678,674.630,195.538,674.618C193.300,674.594,175.260,674.161,173.337,673.042C173.092,672.836,172.277,671.539,172.318,671.363C172.386,671.081,179.522,671.180,180.621,671.135Z"/>
</g>
</g>
<g id="hat_brim">
<path class="path-0" d="M283.584,149.900C287.243,143.912,296.226,127.609,304.211,127.609C309.535,127.609,320.514,137.259,326.169,140.253C331.159,143.247,336.483,145.909,342.139,148.570C345.351,150.239,348.567,151.902,351.786,153.560C366.093,160.880,362.100,167.202,353.782,165.870C335.152,162.542,332.157,163.874,314.192,154.558C311.863,153.560,305.874,150.234,304.876,154.558C303.546,159.548,312.529,163.874,316.188,165.537C322.842,169.198,330.161,173.190,338.146,173.855C340.475,174.188,348.460,173.521,349.790,175.851C351.786,179.178,342.138,187.828,340.142,189.824C336.815,192.819,333.489,195.813,330.161,198.142C325.171,201.468,319.847,204.462,314.192,205.460C303.547,206.791,270.276,191.487,269.278,179.843C268.613,173.190,279.592,156.222,283.584,149.900M316.188,123.285C311.198,118.960,307.539,112.638,300.218,115.966C294.895,118.295,289.240,125.947,285.581,129.939C271.939,146.573,259.631,166.203,260.295,187.828C260.629,201.468,265.286,201.136,276.265,206.458C292.899,214.776,314.192,217.437,332.158,209.121C343.801,203.798,364.097,185.832,369.420,173.855C371.083,169.863,374.077,160.880,371.747,156.223C369.086,150.566,346.795,140.918,340.142,137.259C332.158,132.933,323.175,128.941,316.188,123.285Z"/>
<path class="path-9" d="M304.211,127.609C309.535,127.609,320.514,137.259,326.169,140.253"/>
<path class="path-9" d="M326.169,140.253C331.159,143.247,336.483,145.909,342.139,148.570"/>
<path class="path-9" d="M342.139,148.570C345.351,150.239,348.567,151.902,351.786,153.560"/>
<path class="path-9" d="M351.786,153.560C366.093,160.880,362.100,167.202,353.782,165.870"/>
<path class="path-9" d="M353.782,165.870C335.152,162.542,332.157,163.874,314.192,154.558"/>
<path class="path-9" d="M314.192,154.558C311.863,153.560,305.874,150.234,304.876,154.558"/>
<path class="path-9" d="M304.876,154.558C303.546,159.548,312.529,163.874,316.188,165.537"/>
<path class="path-9" d="M316.188,165.537C322.842,169.198,330.161,173.190,338.146,173.855"/>
<path class="path-9" d="M338.146,173.855C340.475,174.188,348.460,173.521,349.790,175.851"/>
<path class="path-9" d="M349.790,175.851C351.786,179.178,342.138,187.828,340.142,189.824"/>
<path class="path-9" d="M340.142,189.824C336.815,192.819,333.489,195.813,330.161,198.142"/>
<path class="path-9" d="M330.161,198.142C325.171,201.468,319.847,204.462,314.192,205.460"/>
<path class="path-9" d="M314.192,205.460C303.547,206.791,270.276,191.487,269.278,179.843"/>
<path class="path-9" d="M269.278,179.843C268.613,173.190,279.592,156.222,283.584,149.900"/>
<path class="path-9" d="M283.584,149.900C287.243,143.912,296.226,127.609,304.211,127.609"/>
<path class="path-10" d="M304.211,127.609C309.535,127.609,320.514,137.259,326.169,140.253C331.159,143.247,336.483,145.909,342.139,148.570C345.351,150.239,348.567,151.902,351.786,153.560C366.093,160.880,362.100,167.202,353.782,165.870C335.152,162.542,332.157,163.874,314.192,154.558C311.863,153.560,305.874,150.234,304.876,154.558C303.546,159.548,312.529,163.874,316.188,165.537C322.842,169.198,330.161,173.190,338.146,173.855C340.475,174.188,348.460,173.521,349.790,175.851C351.786,179.178,342.138,187.828,340.142,189.824C336.815,192.819,333.489,195.813,330.161,198.142C325.171,201.468,319.847,204.462,314.192,205.460C303.547,206.791,270.276,191.487,269.278,179.843C268.613,173.190,279.592,156.222,283.584,149.900C287.243,143.912,296.226,127.609,304.211,127.609Z"/>
</g>
<g id="hair">
<path class="path-0" d="M183.357,136.483C200.954,124.749,220.906,123.806,241.996,123.120C251.452,122.794,257.886,129.270,265.069,135.626C270.964,141.195,277.299,147.468,283.560,153.313C292.986,162.051,296.930,166.431,300.440,170.614C303.444,173.825,308.105,179.813,311.862,182.674C316.396,186.124,325.422,203.315,327.445,205.266C320.793,207.453,310.356,209.024,305.541,212.830C307.149,218.669,307.424,227.700,307.413,230.409C301.202,230.790,294.008,227.926,282.567,225.752C280.180,232.918,280.142,239.647,275.384,246.902C267.697,244.496,262.345,242.563,252.411,238.043C245.798,243.193,244.261,242.773,233.517,249.212C226.455,244.820,220.838,240.151,213.943,237.253C207.148,240.091,196.403,241.027,192.739,243.925C188.987,236.858,185.547,229.060,182.318,225.662C172.710,227.554,168.576,230.148,161.781,232.559C157.606,227.012,160.654,222.489,156.037,214.349C151.717,213.146,145.049,210.476,139.490,210.322C143.367,205.864,146.319,191.142,152.833,189.327C160.871,187.088,155.875,177.911,160.872,169.755C162.110,167.631,174.016,151.399,175.093,148.739C177.132,144.153,179.361,139.287,183.357,136.483M269.783,123.041C257.623,113.516,232.973,108.192,219.067,111.311C206.306,114.023,193.787,117.926,182.663,125.006C176.433,128.911,169.531,134.686,165.362,140.754C157.036,152.537,144.935,178.372,138.142,190.325C132.704,200.241,127.646,206.923,122.452,212.283C140.007,218.879,145.124,221.586,150.363,222.441C150.613,230.199,157.711,236.027,156.388,244.572C165.209,243.354,170.475,241.177,178.326,239.302C182.258,243.995,184.942,250.348,188.681,256.586C196.418,254.568,204.305,254.940,212.000,249.563C217.496,252.632,226.229,257.403,235.200,262.448C243.544,258.115,245.325,257.880,253.165,252.908C262.619,255.342,272.515,261.315,282.074,260.399C281.484,252.206,287.600,246.647,286.947,241.388C294.168,239.536,316.196,242.966,319.967,242.683C319.803,236.635,316.595,225.026,318.237,217.838C325.064,216.098,330.837,214.510,341.526,209.520C338.121,202.790,331.974,194.414,326.560,189.403C321.990,185.214,318.291,179.689,313.719,175.326C298.212,160.768,292.275,140.745,269.783,123.041Z"/>
<path class="path-11" d="M241.996,123.120C251.452,122.794,257.886,129.270,265.069,135.626"/>
<path class="path-11" d="M265.069,135.626C270.964,141.195,277.299,147.468,283.560,153.313"/>
<path class="path-11" d="M283.560,153.313C292.986,162.051,296.930,166.431,300.440,170.614"/>
<path class="path-11" d="M300.440,170.614C303.444,173.825,308.105,179.813,311.862,182.674"/>
<path class="path-11" d="M311.862,182.674C316.396,186.124,325.422,203.315,327.445,205.266"/>
<path class="path-11" d="M327.445,205.266C320.793,207.453,310.356,209.024,305.541,212.830"/>
<path class="path-11" d="M305.541,212.830C307.149,218.669,307.424,227.700,307.413,230.409"/>
<path class="path-11" d="M307.413,230.409C301.202,230.790,294.008,227.926,282.567,225.752"/>
<path class="path-11" d="M282.567,225.752C280.180,232.918,280.142,239.647,275.384,246.902"/>
<path class="path-11" d="M275.384,246.902C267.697,244.496,262.345,242.563,252.411,238.043"/>
<path class="path-11" d="M252.411,238.043C245.798,243.193,244.261,242.773,233.517,249.212"/>
<path class="path-11" d="M233.517,249.212C226.455,244.820,220.838,240.151,213.943,237.253"/>
<path class="path-11" d="M213.943,237.253C207.148,240.091,196.403,241.027,192.739,243.925"/>
<path class="path-11" d="M192.739,243.925C188.987,236.858,185.547,229.060,182.318,225.662"/>
<path class="path-11" d="M182.318,225.662C172.710,227.554,168.576,230.148,161.781,232.559"/>
<path class="path-11" d="M161.781,232.559C157.606,227.012,160.654,222.489,156.037,214.349"/>
<path class="path-11" d="M156.037,214.349C151.717,213.146,145.049,210.476,139.490,210.322"/>
<path class="path-11" d="M139.490,210.322C143.367,205.864,146.319,191.142,152.833,189.327"/>
<path class="path-11" d="M152.833,189.327C160.871,187.088,155.875,177.911,160.872,169.755"/>
<path class="path-11" d="M160.872,169.755C162.110,167.631,174.016,151.399,175.093,148.739"/>
<path class="path-11" d="M175.093,148.739C177.132,144.153,179.361,139.287,183.357,136.483"/>
<path class="path-11" d="M183.357,136.483C200.954,124.749,220.906,123.806,241.996,123.120"/>
<path class="path-12" d="M241.996,123.120C251.452,122.794,257.886,129.270,265.069,135.626C270.964,141.195,277.299,147.468,283.560,153.313C292.986,162.051,296.930,166.431,300.440,170.614C303.444,173.825,308.105,179.813,311.862,182.674C316.396,186.124,325.422,203.315,327.445,205.266C320.793,207.453,310.356,209.024,305.541,212.830C307.149,218.669,307.424,227.700,307.413,230.409C301.202,230.790,294.008,227.926,282.567,225.752C280.180,232.918,280.142,239.647,275.384,246.902C267.697,244.496,262.345,242.563,252.411,238.043C245.798,243.193,244.261,242.773,233.517,249.212C226.455,244.820,220.838,240.151,213.943,237.253C207.148,240.091,196.403,241.027,192.739,243.925C188.987,236.858,185.547,229.060,182.318,225.662C172.710,227.554,168.576,230.148,161.781,232.559C157.606,227.012,160.654,222.489,156.037,214.349C151.717,213.146,145.049,210.476,139.490,210.322C143.367,205.864,146.319,191.142,152.833,189.327C160.871,187.088,155.875,177.911,160.872,169.755C162.110,167.631,174.016,151.399,175.093,148.739C177.132,144.153,179.361,139.287,183.357,136.483C200.954,124.749,220.906,123.806,241.996,123.120Z"/>
</g>
<g id="clothes">
<path class="path-0" d="M244.410,366.228C239.076,364.626,219.433,366.524,216.353,371.413C214.386,374.753,217.842,376.239,221.216,376.223C225.188,376.204,246.028,374.736,248.649,372.881C252.839,369.842,246.637,366.793,244.410,366.228M191.093,266.179C194.088,253.538,221.037,240.563,234.012,241.561C242.994,242.226,271.274,256.199,275.266,264.517C278.592,271.170,279.590,295.789,279.924,304.107C280.257,319.412,281.412,334.734,282.253,350.019C283.558,362.676,292.209,375.753,287.969,387.750C285.983,391.648,276.556,395.813,271.849,396.812C266.454,398.226,255.323,398.174,250.220,397.603C227.610,395.697,229.900,400.852,208.640,401.788C204.534,401.813,191.199,401.319,188.524,399.546C182.400,394.382,185.185,385.593,186.445,377.982C189.284,364.298,190.378,354.823,191.427,340.038C192.460,323.978,194.088,306.768,194.088,290.134C193.755,284.145,190.429,269.839,191.093,266.179M269.943,247.549C253.640,237.899,237.670,229.915,218.042,235.573C212.718,236.902,186.103,249.877,183.773,253.205C180.115,258.529,183.773,278.821,183.773,286.141C184.107,294.791,184.440,303.773,183.773,312.092C183.442,318.413,182.111,324.069,182.111,330.057C181.777,336.710,181.897,343.905,180.780,350.019C177.576,366.872,166.622,400.514,186.964,411.284C191.859,413.898,198.770,413.252,204.631,413.203C214.593,412.928,225.283,412.886,235.273,411.285C246.280,409.832,256.805,405.497,268.027,404.912C274.551,404.573,294.654,412.545,299.638,407.771C302.201,405.423,302.920,390.016,302.482,386.112C300.184,371.815,293.646,358.361,291.567,344.031C290.177,332.130,289.239,320.410,289.904,308.100C290.237,298.119,291.900,288.471,291.900,278.157C291.567,273.831,292.234,268.510,289.904,264.184C285.912,256.199,277.263,251.873,269.943,247.549Z"/>
<path class="path-13" d="M244.410,366.228C239.076,364.626,219.433,366.524,216.353,371.413"/>
<path class="path-13" d="M216.353,371.413C214.386,374.753,217.842,376.239,221.216,376.223"/>
<path class="path-13" d="M221.216,376.223C225.188,376.204,246.028,374.736,248.649,372.881"/>
<path class="path-13" d="M248.649,372.881C252.839,369.842,246.637,366.793,244.410,366.228"/>
<path class="path-13" d="M191.093,266.179C194.088,253.538,221.037,240.563,234.012,241.561"/>
<path class="path-13" d="M234.012,241.561C242.994,242.226,271.274,256.199,275.266,264.517"/>
<path class="path-13" d="M275.266,264.517C278.592,271.170,279.590,295.789,279.924,304.107"/>
<path class="path-13" d="M279.924,304.107C280.257,319.412,281.412,334.734,282.253,350.019"/>
<path class="path-13" d="M282.253,350.019C283.558,362.676,292.209,375.753,287.969,387.750"/>
<path class="path-13" d="M287.969,387.750C285.983,391.648,276.556,395.813,271.849,396.812"/>
<path class="path-13" d="M271.849,396.812C266.454,398.226,255.323,398.174,250.220,397.603"/>
<path class="path-13" d="M250.220,397.603C227.610,395.697,229.900,400.852,208.640,401.788"/>
<path class="path-13" d="M208.640,401.788C204.534,401.813,191.199,401.319,188.524,399.546"/>
<path class="path-13" d="M188.524,399.546C182.400,394.382,185.185,385.593,186.445,377.982"/>
<path class="path-13" d="M186.445,377.982C189.284,364.298,190.378,354.823,191.427,340.038"/>
<path class="path-13" d="M191.427,340.038C192.460,323.978,194.088,306.768,194.088,290.134"/>
<path class="path-13" d="M194.088,290.134C193.755,284.145,190.429,269.839,191.093,266.179"/>
<path class="path-14" d="M244.410,366.228C239.076,364.626,219.433,366.524,216.353,371.413C214.386,374.753,217.842,376.239,221.216,376.223C225.188,376.204,246.028,374.736,248.649,372.881C252.839,369.842,246.637,366.793,244.410,366.228M191.093,266.179C194.088,253.538,221.037,240.563,234.012,241.561C242.994,242.226,271.274,256.199,275.266,264.517C278.592,271.170,279.590,295.789,279.924,304.107C280.257,319.412,281.412,334.734,282.253,350.019C283.558,362.676,292.209,375.753,287.969,387.750C285.983,391.648,276.556,395.813,271.849,396.812C266.454,398.226,255.323,398.174,250.220,397.603C227.610,395.697,229.900,400.852,208.640,401.788C204.534,401.813,191.199,401.319,188.524,399.546C182.400,394.382,185.185,385.593,186.445,377.982C189.284,364.298,190.378,354.823,191.427,340.038C192.460,323.978,194.088,306.768,194.088,290.134C193.755,284.145,190.429,269.839,191.093,266.179Z"/>
</g>
<g id="neck">
<path class="path-0" d="M229.021,222.597C229.354,219.269,230.353,216.275,234.012,215.942C245.656,213.946,244.657,251.542,234.012,251.542C224.031,251.542,228.356,228.917,229.021,222.597M234.012,206.628C231.351,206.295,228.357,206.959,226.027,208.291C216.711,212.948,218.042,221.599,218.042,230.248C217.708,234.574,218.042,238.567,216.046,242.226C214.383,245.553,209.724,248.879,209.724,252.540C210.057,262.521,237.006,262.521,243.993,262.188C246.653,262.187,255.636,263.185,256.634,259.526C256.634,258.528,249.981,246.883,248.983,242.226C245.989,228.252,255.305,207.626,234.012,206.628Z"/>
<path class="path-15" d="M234.012,215.942C245.656,213.946,244.657,251.542,234.012,251.542"/>
<path class="path-15" d="M234.012,251.542C224.031,251.542,228.356,228.917,229.021,222.597"/>
<path class="path-15" d="M229.021,222.597C229.354,219.269,230.353,216.275,234.012,215.942"/>
<path class="path-16" d="M234.012,215.942C245.656,213.946,244.657,251.542,234.012,251.542C224.031,251.542,228.356,228.917,229.021,222.597C229.354,219.269,230.353,216.275,234.012,215.942Z"/>
</g>
<g id="layer_head">
<g id="right_ear">
<path class="path-0" d="M149.566,193.621C135.143,194.535,119.959,160.005,141.309,161.376C144.847,161.603,147.751,167.556,148.354,170.190C150.538,179.703,159.853,192.972,149.566,193.621M146.788,149.784C143.462,147.798,139.374,147.131,135.826,148.687C124.976,151.505,119.248,164.352,121.198,175.449C123.519,187.874,137.368,201.589,148.902,203.820C151.946,204.425,158.228,206.508,161.116,204.956C167.745,200.845,160.921,190.605,158.931,184.816C156.939,178.586,151.550,153.864,146.788,149.784Z"/>
<path class="path-15" d="M141.309,161.376C144.847,161.603,147.751,167.556,148.354,170.190"/>
<path class="path-15" d="M148.354,170.190C150.538,179.703,159.853,192.972,149.566,193.621"/>
<path class="path-15" d="M149.566,193.621C135.143,194.535,119.959,160.005,141.309,161.376"/>
<path class="path-16" d="M141.309,161.376C144.847,161.603,147.751,167.556,148.354,170.190C150.538,179.703,159.853,192.972,149.566,193.621C135.143,194.535,119.959,160.005,141.309,161.376Z"/>
</g>
<g id="face_Mask">
<g id="face">
<path class="path-0" d="M164.966,104.835C173.452,94.386,206.221,87.201,219.861,85.205C235.165,83.209,250.801,85.538,265.773,90.195C271.097,91.860,278.753,93.850,283.405,97.515C291.366,103.835,296.407,115.116,299.274,124.453C301.548,131.229,305.662,140.330,303.815,146.826C295.460,176.207,291.392,189.745,285.525,197.962C278.262,208.134,265.095,211.925,253.596,216.549C241.737,221.123,229.695,222.738,223.452,222.378C211.088,221.665,184.474,215.459,175.371,207.867C164.674,198.602,163.542,184.534,159.263,171.675C156.757,164.854,152.606,154.607,151.272,147.613C149.341,136.549,157.981,113.356,164.966,104.835M287.423,89.839C273.809,77.614,237.538,74.808,219.904,77.451C211.584,78.442,203.598,79.100,195.945,81.091C190.285,82.753,185.290,85.412,179.963,87.074C168.316,91.399,163.505,89.960,155.675,100.725C150.051,108.260,141.239,137.954,142.236,147.144C143.106,154.028,150.415,169.320,152.817,177.033C155.922,187.212,158.315,201.827,164.845,209.749C172.102,218.298,181.978,222.800,197.131,226.954C208.473,230.064,221.043,231.159,233.153,231.411C237.796,231.792,246.430,229.140,258.886,223.882C270.930,218.621,284.181,214.152,292.446,202.816C302.226,189.403,306.160,167.527,314.365,145.446C321.232,126.967,295.902,97.289,287.423,89.839Z"/>
<path class="path-15" d="M219.861,85.205C235.165,83.209,250.801,85.538,265.773,90.195"/>
<path class="path-15" d="M265.773,90.195C271.097,91.860,278.753,93.850,283.405,97.515"/>
<path class="path-15" d="M283.405,97.515C291.366,103.835,296.407,115.116,299.274,124.453"/>
<path class="path-15" d="M299.274,124.453C301.548,131.229,305.662,140.330,303.815,146.826"/>
<path class="path-15" d="M303.815,146.826C295.460,176.207,291.392,189.745,285.525,197.962"/>
<path class="path-15" d="M285.525,197.962C278.262,208.134,265.095,211.925,253.596,216.549"/>
<path class="path-15" d="M253.596,216.549C241.737,221.123,229.695,222.738,223.452,222.378"/>
<path class="path-15" d="M223.452,222.378C211.088,221.665,184.474,215.459,175.371,207.867"/>
<path class="path-15" d="M175.371,207.867C164.674,198.602,163.542,184.534,159.263,171.675"/>
<path class="path-15" d="M159.263,171.675C156.757,164.854,152.606,154.607,151.272,147.613"/>
<path class="path-15" d="M151.272,147.613C149.341,136.549,157.981,113.356,164.966,104.835"/>
<path class="path-15" d="M164.966,104.835C173.452,94.386,206.221,87.201,219.861,85.205"/>
<path class="path-16" d="M219.861,85.205C235.165,83.209,250.801,85.538,265.773,90.195C271.097,91.860,278.753,93.850,283.405,97.515C291.366,103.835,296.407,115.116,299.274,124.453C301.548,131.229,305.662,140.330,303.815,146.826C295.460,176.207,291.392,189.745,285.525,197.962C278.262,208.134,265.095,211.925,253.596,216.549C241.737,221.123,229.695,222.738,223.452,222.378C211.088,221.665,184.474,215.459,175.371,207.867C164.674,198.602,163.542,184.534,159.263,171.675C156.757,164.854,152.606,154.607,151.272,147.613C149.341,136.549,157.981,113.356,164.966,104.835C173.452,94.386,206.221,87.201,219.861,85.205Z"/>
</g>
</g>
<mask id="mask_target" style="mask-type:alpha;">
<use xlink:href="#face_Mask"/>
</mask>
<g id="mouse">
<path class="path-0" d="M230.641,214.036C235.845,215.140,235.929,219.893,235.455,220.400C235.188,220.686,234.066,219.735,231.106,219.248C225.500,218.326,222.794,219.499,222.596,218.784C222.380,218.001,224.549,212.744,230.641,214.036Z"/>
</g>
<g id="layer_eyes_Mtarget" mask="url(#mask_target)">
<g id="eyes">
<mask style="mask-type:alpha;" id="f3906406-f197-4bf1-91d8-744c09cca836">
<use xlink:href="#cmn_f3906406-f197-4bf1-91d8-744c09cca836"/>
</mask>
<g id="cmn_f3906406-f197-4bf1-91d8-744c09cca836">
<path class="path-0" d="M208.478,181.907C207.507,188.730,195.484,191.195,188.589,189.838C184.125,188.899,176.833,185.996,173.971,181.946C172.801,180.358,169.953,170.393,171.561,173.007C173.821,176.682,208.975,178.422,208.478,181.907M213.844,184.524C214.167,183.363,215.351,179.876,214.601,178.081C214.025,176.701,212.275,174.815,210.761,174.903C205.062,175.109,184.555,170.600,177.253,168.391C173.280,167.281,166.404,163.260,162.986,166.451C160.414,168.750,164.066,170.749,164.875,175.490C166.295,183.810,183.044,195.417,191.841,195.237C201.247,195.045,212.352,189.897,213.844,184.524M254.884,187.657C250.620,187.388,243.760,186.631,243.105,180.007C242.790,176.828,259.597,173.835,263.587,172.321C266.686,171.146,278.357,166.616,280.008,166.654C281.078,166.742,282.186,170.370,282.076,172.986C281.730,181.247,262.569,188.142,254.884,187.657M288.225,177.310C290.273,173.498,290.307,160.338,288.976,159.522C284.981,157.072,272.975,162.930,266.279,164.981C258.376,167.402,245.923,174.448,240.501,174.698C237.795,174.921,235.254,174.323,234.369,175.980C233.393,177.808,236.057,180.534,237.106,182.320C238.871,185.327,240.536,189.689,244.299,191.448C251.641,195.018,265.398,191.629,272.588,188.961C277.429,187.175,285.567,182.256,288.225,177.310Z"/>
<path class="path-17" d="M280.008,166.654C281.078,166.742,282.186,170.370,282.076,172.986"/>
<path class="path-17" d="M282.076,172.986C281.730,181.247,262.569,188.142,254.884,187.657"/>
<path class="path-17" d="M254.884,187.657C250.620,187.388,243.760,186.631,243.105,180.007"/>
<path class="path-17" d="M243.105,180.007C242.790,176.828,259.597,173.835,263.587,172.321"/>
<path class="path-17" d="M263.587,172.321C266.686,171.146,278.357,166.616,280.008,166.654"/>
<path class="path-18" d="M280.008,166.654C281.078,166.742,282.186,170.370,282.076,172.986C281.730,181.247,262.569,188.142,254.884,187.657C250.620,187.388,243.760,186.631,243.105,180.007C242.790,176.828,259.597,173.835,263.587,172.321C266.686,171.146,278.357,166.616,280.008,166.654Z"/>
<path class="path-17" d="M171.561,173.007C173.821,176.682,208.975,178.422,208.478,181.907"/>
<path class="path-17" d="M208.478,181.907C207.507,188.730,195.484,191.195,188.589,189.838"/>
<path class="path-17" d="M188.589,189.838C184.125,188.899,176.833,185.996,173.971,181.946"/>
<path class="path-17" d="M173.971,181.946C172.801,180.358,169.953,170.393,171.561,173.007"/>
<path class="path-18" d="M171.561,173.007C173.821,176.682,208.975,178.422,208.478,181.907C207.507,188.730,195.484,191.195,188.589,189.838C184.125,188.899,176.833,185.996,173.971,181.946C172.801,180.358,169.953,170.393,171.561,173.007Z"/>
</g>
</g>
<g id="pupil">
<path class="path-0" d="M246.243,167.428C248.520,166.858,251.722,170.015,252.573,178.440C253.211,184.754,251.549,187.344,249.801,187.546C247.902,187.766,246.256,185.173,244.973,178.396C243.603,171.164,244.264,167.924,246.243,167.428Z" mask="url(#f3906406-f197-4bf1-91d8-744c09cca836)"/>
<path class="path-0" d="M199.451,168.981C201.785,168.688,203.534,172.529,204.115,181.277C204.448,186.296,203.935,188.349,202.625,188.673C201.070,189.058,198.954,187.101,197.547,181.302C195.587,173.225,197.237,169.259,199.451,168.981Z" mask="url(#f3906406-f197-4bf1-91d8-744c09cca836)"/>
</g>
</g>
<g id="hat">
<path class="path-0" d="M303.349,122.584C305.354,123.902,308.337,126.243,308.673,128.906C310.011,135.229,299.029,134.588,295.699,134.923C289.057,134.927,282.114,134.728,275.770,134.907C270.662,135.516,265.551,136.073,260.432,136.583C252.049,136.762,243.674,136.504,235.291,136.434C220.696,136.886,206.121,136.452,191.510,136.395C190.200,136.443,150.919,140.997,144.309,137.384C135.591,132.719,144.611,125.999,144.270,121.648C144.265,118.007,136.331,117.015,138.314,110.729C140.292,104.785,161.409,100.787,167.682,99.462C179.959,96.801,192.571,93.157,205.515,91.179C223.736,88.546,242.590,88.909,261.136,87.264C273.594,86.261,302.200,94.149,307.673,106.947C312.380,117.553,295.713,107.631,293.719,106.968C292.254,105.879,287.106,103.650,288.247,106.930C289.346,112.657,299.268,119.235,303.349,122.584M185.977,86.779C175.616,89.313,165.975,91.035,155.980,93.361C151.657,94.356,146.354,96.988,142.352,94.707C133.357,89.821,143.071,66.874,147.385,60.912C161.701,41.632,192.655,33.352,217.896,33.304C262.868,33.217,280.488,40.068,295.436,55.086C300.090,59.424,316.665,81.101,308.003,87.088C304.677,89.081,298.692,85.102,295.701,83.768C285.398,79.436,243.726,72.654,185.977,86.779M244.351,22.854C237.141,22.453,235.387,21.023,227.810,21.675C196.533,24.851,154.399,26.388,135.761,56.619C129.774,66.578,129.742,77.864,127.731,88.488C126.059,97.099,121.080,103.717,122.058,112.332C123.045,119.327,126.052,120.991,128.363,126.328C131.004,131.996,129.640,134.659,131.288,138.327C134.901,148.998,144.574,148.459,153.897,148.386C158.744,148.349,176.620,148.206,186.357,148.033C198.253,147.822,214.111,147.414,226.003,147.044C235.160,146.760,247.370,146.370,256.520,145.919C264.931,145.504,276.150,144.937,284.538,144.195C294.781,143.289,317.399,141.467,318.584,140.224C320.712,138.033,324.580,116.707,324.588,112.731C324.595,109.391,322.936,106.050,322.949,100.707C322.654,86.120,322.349,72.534,314.107,58.917C298.947,34.353,271.436,25.044,244.351,22.854Z"/>
<path class="path-19" d="M261.136,87.264C273.594,86.261,302.200,94.149,307.673,106.947"/>
<path class="path-19" d="M307.673,106.947C312.380,117.553,295.713,107.631,293.719,106.968"/>
<path class="path-19" d="M293.719,106.968C292.254,105.879,287.106,103.650,288.247,106.930"/>
<path class="path-19" d="M288.247,106.930C289.346,112.657,299.268,119.235,303.349,122.584"/>
<path class="path-19" d="M303.349,122.584C305.354,123.902,308.337,126.243,308.673,128.906"/>
<path class="path-19" d="M308.673,128.906C310.011,135.229,299.029,134.588,295.699,134.923"/>
<path class="path-19" d="M295.699,134.923C289.057,134.927,282.114,134.728,275.770,134.907"/>
<path class="path-19" d="M275.770,134.907C270.662,135.516,265.551,136.073,260.432,136.583"/>
<path class="path-19" d="M260.432,136.583C252.049,136.762,243.674,136.504,235.291,136.434"/>
<path class="path-19" d="M235.291,136.434C220.696,136.886,206.121,136.452,191.510,136.395"/>
<path class="path-19" d="M191.510,136.395C190.200,136.443,150.919,140.997,144.309,137.384"/>
<path class="path-19" d="M144.309,137.384C135.591,132.719,144.611,125.999,144.270,121.648"/>
<path class="path-19" d="M144.270,121.648C144.265,118.007,136.331,117.015,138.314,110.729"/>
<path class="path-19" d="M138.314,110.729C140.292,104.785,161.409,100.787,167.682,99.462"/>
<path class="path-19" d="M167.682,99.462C179.959,96.801,192.571,93.157,205.515,91.179"/>
<path class="path-19" d="M205.515,91.179C223.736,88.546,242.590,88.909,261.136,87.264"/>
<path class="path-20" d="M261.136,87.264C273.594,86.261,302.200,94.149,307.673,106.947C312.380,117.553,295.713,107.631,293.719,106.968C292.254,105.879,287.106,103.650,288.247,106.930C289.346,112.657,299.268,119.235,303.349,122.584C305.354,123.902,308.337,126.243,308.673,128.906C310.011,135.229,299.029,134.588,295.699,134.923C289.057,134.927,282.114,134.728,275.770,134.907C270.662,135.516,265.551,136.073,260.432,136.583C252.049,136.762,243.674,136.504,235.291,136.434C220.696,136.886,206.121,136.452,191.510,136.395C190.200,136.443,150.919,140.997,144.309,137.384C135.591,132.719,144.611,125.999,144.270,121.648C144.265,118.007,136.331,117.015,138.314,110.729C140.292,104.785,161.409,100.787,167.682,99.462C179.959,96.801,192.571,93.157,205.515,91.179C223.736,88.546,242.590,88.909,261.136,87.264Z"/>
<path class="path-9" d="M217.896,33.304C262.868,33.217,280.488,40.068,295.436,55.086"/>
<path class="path-9" d="M295.436,55.086C300.090,59.424,316.665,81.101,308.003,87.088"/>
<path class="path-9" d="M308.003,87.088C304.677,89.081,298.692,85.102,295.701,83.768"/>
<path class="path-9" d="M295.701,83.768C285.398,79.436,243.726,72.654,185.977,86.779"/>
<path class="path-9" d="M185.977,86.779C175.616,89.313,165.975,91.035,155.980,93.361"/>
<path class="path-9" d="M155.980,93.361C151.657,94.356,146.354,96.988,142.352,94.707"/>
<path class="path-9" d="M142.352,94.707C133.357,89.821,143.071,66.874,147.385,60.912"/>
<path class="path-9" d="M147.385,60.912C161.701,41.632,192.655,33.352,217.896,33.304"/>
<path class="path-10" d="M217.896,33.304C262.868,33.217,280.488,40.068,295.436,55.086C300.090,59.424,316.665,81.101,308.003,87.088C304.677,89.081,298.692,85.102,295.701,83.768C285.398,79.436,243.726,72.654,185.977,86.779C175.616,89.313,165.975,91.035,155.980,93.361C151.657,94.356,146.354,96.988,142.352,94.707C133.357,89.821,143.071,66.874,147.385,60.912C161.701,41.632,192.655,33.352,217.896,33.304Z"/>
</g>
<g id="left_ear">
<path class="path-0" d="M302.613,187.077C301.489,183.201,310.942,158.801,312.575,156.519C317.521,149.600,329.371,159.981,330.479,166.534C331.684,174.683,320.018,182.909,313.360,187.758C308.420,191.242,304.074,192.110,302.613,187.077M338.992,170.491C340.538,157.770,329.276,141.039,316.919,144.024C303.791,147.196,302.867,164.801,298.939,175.269C297.340,179.897,294.639,184.505,294.061,189.127C292.888,197.409,296.516,204.489,305.721,202.305C318.933,199.026,336.812,184.790,338.992,170.491Z"/>
<path class="path-15" d="M312.575,156.519C317.521,149.600,329.371,159.981,330.479,166.534"/>
<path class="path-15" d="M330.479,166.534C331.684,174.683,320.018,182.909,313.360,187.758"/>
<path class="path-15" d="M313.360,187.758C308.420,191.242,304.074,192.110,302.613,187.077"/>
<path class="path-15" d="M302.613,187.077C301.489,183.201,310.942,158.801,312.575,156.519"/>
<path class="path-16" d="M312.575,156.519C317.521,149.600,329.371,159.981,330.479,166.534C331.684,174.683,320.018,182.909,313.360,187.758C308.420,191.242,304.074,192.110,302.613,187.077C301.489,183.201,310.942,158.801,312.575,156.519Z"/>
</g>
<g id="earrings">
<path class="path-0" d="M323.428,204.875C314.514,207.908,313.005,188.108,316.806,188.728C322.048,190.922,326.013,200.928,323.428,204.875M332.013,197.405C325.123,196.190,322.796,187.623,322.598,183.646C330.190,186.033,339.421,192.644,332.013,197.405M340.007,192.378C337.718,184.661,326.838,179.206,319.308,176.408C317.030,175.561,311.766,184.014,311.393,186.543C310.210,190.417,308.947,212.834,322.438,211.063C327.936,210.093,341.860,198.620,340.007,192.378Z"/>
<path class="path-21" d="M322.598,183.646C330.190,186.033,339.421,192.644,332.013,197.405"/>
<path class="path-21" d="M332.013,197.405C325.123,196.190,322.796,187.623,322.598,183.646"/>
<path class="path-22" d="M322.598,183.646C330.190,186.033,339.421,192.644,332.013,197.405C325.123,196.190,322.796,187.623,322.598,183.646Z"/>
<path class="path-21" d="M316.806,188.728C322.048,190.922,326.013,200.928,323.428,204.875"/>
<path class="path-21" d="M323.428,204.875C314.514,207.908,313.005,188.108,316.806,188.728"/>
<path class="path-22" d="M316.806,188.728C322.048,190.922,326.013,200.928,323.428,204.875C314.514,207.908,313.005,188.108,316.806,188.728Z"/>
</g>
</g>
<g id="jacket">
<path class="path-0" d="M202.406,270.837C204.748,275.388,200.437,285.462,199.989,290.134C196.136,307.960,190.313,325.247,191.759,343.003C192.270,347.568,194.858,356.892,191.218,360.804C189.060,363.125,182.250,360.727,180.834,362.746C178.635,365.848,172.982,357.212,171.837,355.351C170.842,353.732,169.472,346.557,169.355,344.423C169.390,339.714,169.914,330.504,171.106,324.686C172.386,318.680,174.213,312.628,176.619,306.297C178.461,299.976,180.149,292.295,181.291,285.039C182.937,280.580,185.591,278.058,185.343,274.707C184.686,270.786,183.905,268.736,187.469,267.387C191.760,266.102,201.246,265.812,202.406,270.837M263.412,274.384C265.019,272.487,282.028,263.654,283.905,262.248C294.318,255.192,303.530,263.979,304.587,271.307C305.499,277.090,298.989,296.997,298.095,301.103C296.903,305.371,295.393,308.461,295.329,312.262C294.209,329.279,298.306,318.298,302.102,332.206C302.999,335.530,304.580,342.619,304.743,345.991C304.699,349.995,303.571,358.924,301.913,362.294C300.087,365.306,295.949,369.945,291.848,366.795C291.259,366.448,286.801,361.115,285.748,360.600C279.284,356.993,270.259,358.862,265.052,352.848C261.225,347.911,259.317,340.887,257.677,334.396C255.452,326.166,256.111,317.555,256.601,309.008C256.746,299.337,257.683,282.800,263.412,274.384M276.961,255.283C274.089,257.446,267.746,259.229,265.851,259.774C260.983,260.895,260.139,256.269,259.742,252.784C259.380,248.131,262.335,241.402,265.525,237.785C268.137,234.824,272.703,231.674,277.028,231.386C281.506,230.928,289.119,234.637,288.485,239.720C288.295,242.837,281.601,251.788,276.961,255.283M201.008,240.519C206.070,247.971,211.653,255.527,206.654,256.602C201.455,257.719,198.584,257.663,189.763,255.866C178.585,253.589,174.177,238.180,179.478,232.745C184.272,227.829,195.127,231.861,201.008,240.519M305.673,377.152C311.447,366.945,317.605,360.388,318.580,348.183C319.021,341.885,318.090,334.332,315.379,328.664C310.688,319.472,305.379,317.399,301.984,306.225C298.997,296.977,302.489,288.937,302.073,279.620C301.804,276.536,294.762,261.953,295.006,259.139C294.700,254.490,299.650,250.930,300.330,246.696C301.068,242.888,301.989,238.851,301.206,235.052C300.394,229.539,295.126,226.285,291.001,223.398C285.122,219.779,279.759,219.323,272.774,220.354C263.271,221.768,258.355,230.850,254.840,237.384C249.804,246.744,251.296,261.932,249.493,272.407C248.471,278.342,246.839,286.566,245.751,292.130C241.932,310.150,241.678,353.298,254.924,366.272C256.584,368.122,269.799,375.448,274.110,377.327C280.189,380.014,281.733,383.886,287.857,385.949C291.225,387.232,298.114,383.613,301.931,381.020C303.230,380.199,305.118,378.132,305.673,377.152M208.710,232.988C203.771,226.878,195.316,216.368,187.390,217.780C182.699,218.773,175.896,221.599,172.342,225.155C169.325,228.173,165.897,233.539,165.948,237.860C165.887,243.519,166.668,250.222,168.919,254.897C171.184,259.602,179.014,262.983,180.462,267.925C181.043,270.130,177.521,280.915,177.153,283.717C176.356,291.449,174.224,299.302,171.972,305.688C169.678,312.193,164.170,319.862,162.039,326.422C159.812,333.275,157.419,342.201,157.730,350.052C157.671,354.130,160.455,363.100,163.509,367.790C165.509,370.860,170.133,375.311,172.425,376.137C173.930,376.680,189.359,379.651,194.375,375.379C200.909,369.815,200.159,360.908,198.673,347.097C197.104,333.581,205.652,322.307,208.177,308.778C209.907,299.002,215.702,275.463,215.774,266.654C215.822,260.823,217.595,256.882,215.973,248.834C215.034,244.804,211.997,237.055,208.710,232.988Z"/>
<path class="path-1" d="M283.905,262.248C294.318,255.192,303.530,263.979,304.587,271.307"/>
<path class="path-1" d="M304.587,271.307C305.499,277.090,298.989,296.997,298.095,301.103"/>
<path class="path-1" d="M298.095,301.103C296.903,305.371,295.393,308.461,295.329,312.262"/>
<path class="path-1" d="M295.329,312.262C294.209,329.279,298.306,318.298,302.102,332.206"/>
<path class="path-1" d="M302.102,332.206C302.999,335.530,304.580,342.619,304.743,345.991"/>
<path class="path-1" d="M304.743,345.991C304.699,349.995,303.571,358.924,301.913,362.294"/>
<path class="path-1" d="M301.913,362.294C300.087,365.306,295.949,369.945,291.848,366.795"/>
<path class="path-1" d="M291.848,366.795C291.259,366.448,286.801,361.115,285.748,360.600"/>
<path class="path-1" d="M285.748,360.600C279.284,356.993,270.259,358.862,265.052,352.848"/>
<path class="path-1" d="M265.052,352.848C261.225,347.911,259.317,340.887,257.677,334.396"/>
<path class="path-1" d="M257.677,334.396C255.452,326.166,256.111,317.555,256.601,309.008"/>
<path class="path-1" d="M256.601,309.008C256.746,299.337,257.683,282.800,263.412,274.384"/>
<path class="path-1" d="M263.412,274.384C265.019,272.487,282.028,263.654,283.905,262.248"/>
<path class="path-2" d="M283.905,262.248C294.318,255.192,303.530,263.979,304.587,271.307C305.499,277.090,298.989,296.997,298.095,301.103C296.903,305.371,295.393,308.461,295.329,312.262C294.209,329.279,298.306,318.298,302.102,332.206C302.999,335.530,304.580,342.619,304.743,345.991C304.699,349.995,303.571,358.924,301.913,362.294C300.087,365.306,295.949,369.945,291.848,366.795C291.259,366.448,286.801,361.115,285.748,360.600C279.284,356.993,270.259,358.862,265.052,352.848C261.225,347.911,259.317,340.887,257.677,334.396C255.452,326.166,256.111,317.555,256.601,309.008C256.746,299.337,257.683,282.800,263.412,274.384C265.019,272.487,282.028,263.654,283.905,262.248Z"/>
<path class="path-1" d="M187.469,267.387C191.760,266.102,201.246,265.812,202.406,270.837"/>
<path class="path-1" d="M202.406,270.837C204.748,275.388,200.437,285.462,199.989,290.134"/>
<path class="path-1" d="M199.989,290.134C196.136,307.960,190.313,325.247,191.759,343.003"/>
<path class="path-1" d="M191.759,343.003C192.270,347.568,194.858,356.892,191.218,360.804"/>
<path class="path-1" d="M191.218,360.804C189.060,363.125,182.250,360.727,180.834,362.746"/>
<path class="path-1" d="M180.834,362.746C178.635,365.848,172.982,357.212,171.837,355.351"/>
<path class="path-1" d="M171.837,355.351C170.842,353.732,169.472,346.557,169.355,344.423"/>
<path class="path-1" d="M169.355,344.423C169.390,339.714,169.914,330.504,171.106,324.686"/>
<path class="path-1" d="M171.106,324.686C172.386,318.680,174.213,312.628,176.619,306.297"/>
<path class="path-1" d="M176.619,306.297C178.461,299.976,180.149,292.295,181.291,285.039"/>
<path class="path-1" d="M181.291,285.039C182.937,280.580,185.591,278.058,185.343,274.707"/>
<path class="path-1" d="M185.343,274.707C184.686,270.786,183.905,268.736,187.469,267.387"/>
<path class="path-2" d="M187.469,267.387C191.760,266.102,201.246,265.812,202.406,270.837C204.748,275.388,200.437,285.462,199.989,290.134C196.136,307.960,190.313,325.247,191.759,343.003C192.270,347.568,194.858,356.892,191.218,360.804C189.060,363.125,182.250,360.727,180.834,362.746C178.635,365.848,172.982,357.212,171.837,355.351C170.842,353.732,169.472,346.557,169.355,344.423C169.390,339.714,169.914,330.504,171.106,324.686C172.386,318.680,174.213,312.628,176.619,306.297C178.461,299.976,180.149,292.295,181.291,285.039C182.937,280.580,185.591,278.058,185.343,274.707C184.686,270.786,183.905,268.736,187.469,267.387Z"/>
<path class="path-1" d="M277.028,231.386C281.506,230.928,289.119,234.637,288.485,239.720"/>
<path class="path-1" d="M288.485,239.720C288.295,242.837,281.601,251.788,276.961,255.283"/>
<path class="path-1" d="M276.961,255.283C274.089,257.446,267.746,259.229,265.851,259.774"/>
<path class="path-1" d="M265.851,259.774C260.983,260.895,260.139,256.269,259.742,252.784"/>
<path class="path-1" d="M259.742,252.784C259.380,248.131,262.335,241.402,265.525,237.785"/>
<path class="path-1" d="M265.525,237.785C268.137,234.824,272.703,231.674,277.028,231.386"/>
<path class="path-2" d="M277.028,231.386C281.506,230.928,289.119,234.637,288.485,239.720C288.295,242.837,281.601,251.788,276.961,255.283C274.089,257.446,267.746,259.229,265.851,259.774C260.983,260.895,260.139,256.269,259.742,252.784C259.380,248.131,262.335,241.402,265.525,237.785C268.137,234.824,272.703,231.674,277.028,231.386Z"/>
<path class="path-1" d="M201.008,240.519C206.070,247.971,211.653,255.527,206.654,256.602"/>
<path class="path-1" d="M206.654,256.602C201.455,257.719,198.584,257.663,189.763,255.866"/>
<path class="path-1" d="M189.763,255.866C178.585,253.589,174.177,238.180,179.478,232.745"/>
<path class="path-1" d="M179.478,232.745C184.272,227.829,195.127,231.861,201.008,240.519"/>
<path class="path-2" d="M201.008,240.519C206.070,247.971,211.653,255.527,206.654,256.602C201.455,257.719,198.584,257.663,189.763,255.866C178.585,253.589,174.177,238.180,179.478,232.745C184.272,227.829,195.127,231.861,201.008,240.519Z"/>
</g>
<g id="left_arm">
<path class="path-0" d="M290.902,459.809C287.575,454.485,286.245,445.502,293.897,443.175C299.221,441.510,323.174,446.834,327.167,450.826C334.153,457.148,330.161,471.786,321.510,475.113C311.529,478.439,296.226,468.127,290.902,459.809M279.516,276.423C280.393,273.226,288.864,263.064,293.897,264.184C296.819,264.834,298.222,269.839,299.220,272.502C301.881,280.818,304.543,289.469,306.872,298.119C313.194,320.741,317.518,343.366,322.177,365.988C323.839,375.305,323.839,387.613,327.167,395.931C331.159,405.579,337.479,402.253,340.474,408.573C341.805,411.567,341.140,417.224,343.136,421.881C346.130,429.201,351.785,433.194,354.446,437.851C356.111,440.512,356.776,443.506,353.117,444.173C351.121,445.171,345.797,444.173,343.801,444.173C337.144,442.402,330.490,440.627,323.840,438.849C314.857,436.852,287.575,435.521,282.918,429.533C275.931,420.218,286.910,409.240,288.242,399.924C288.907,396.930,292.189,352.967,291.567,350.019C290.899,343.164,287.387,337.131,285.841,330.057C284.214,320.430,282.539,310.147,281.179,300.115C280.223,291.877,276.733,285.067,279.516,276.423M305.541,254.536C303.213,249.877,295.893,241.561,289.904,242.890C284.914,244.222,284.249,250.210,283.582,254.203C281.920,264.184,279.924,272.502,279.924,282.149C279.590,289.136,280.257,295.458,280.921,302.111C281.586,311.427,279.590,329.392,279.924,340.038C279.924,349.686,282.253,359.667,281.586,367.985C279.590,387.613,271.273,406.246,271.938,425.874C271.939,435.855,274.600,435.855,276.929,443.840C278.592,449.828,277.263,456.150,279.590,461.805C285.579,476.776,302.880,490.416,319.847,487.091C335.483,484.096,336.150,467.129,344.466,458.146C351.786,450.161,366.424,454.154,368.420,445.835C370.416,438.849,360.769,431.198,357.110,425.874C349.790,415.893,355.445,413.563,351.786,405.912C349.125,400.257,341.471,395.267,337.813,387.947C335.816,384.619,334.819,378.299,333.487,373.973C330.826,363.992,327.831,352.680,326.169,342.034C324.504,329.724,324.173,318.745,320.845,306.103C318.184,295.458,310.200,262.852,305.541,254.536Z"/>
<path class="path-1" d="M293.897,264.184C296.819,264.834,298.222,269.839,299.220,272.502"/>
<path class="path-1" d="M299.220,272.502C301.881,280.818,304.543,289.469,306.872,298.119"/>
<path class="path-1" d="M306.872,298.119C313.194,320.741,317.518,343.366,322.177,365.988"/>
<path class="path-1" d="M322.177,365.988C323.839,375.305,323.839,387.613,327.167,395.931"/>
<path class="path-1" d="M327.167,395.931C331.159,405.579,337.479,402.253,340.474,408.573"/>
<path class="path-1" d="M340.474,408.573C341.805,411.567,341.140,417.224,343.136,421.881"/>
<path class="path-1" d="M343.136,421.881C346.130,429.201,351.785,433.194,354.446,437.851"/>
<path class="path-1" d="M354.446,437.851C356.111,440.512,356.776,443.506,353.117,444.173"/>
<path class="path-1" d="M353.117,444.173C351.121,445.171,345.797,444.173,343.801,444.173"/>
<path class="path-1" d="M343.801,444.173C337.144,442.402,330.490,440.627,323.840,438.849"/>
<path class="path-1" d="M323.840,438.849C314.857,436.852,287.575,435.521,282.918,429.533"/>
<path class="path-1" d="M282.918,429.533C275.931,420.218,286.910,409.240,288.242,399.924"/>
<path class="path-1" d="M288.242,399.924C288.907,396.930,292.189,352.967,291.567,350.019"/>
<path class="path-1" d="M291.567,350.019C290.899,343.164,287.387,337.131,285.841,330.057"/>
<path class="path-1" d="M285.841,330.057C284.214,320.430,282.539,310.147,281.179,300.115"/>
<path class="path-1" d="M281.179,300.115C280.223,291.877,276.733,285.067,279.516,276.423"/>
<path class="path-1" d="M279.516,276.423C280.393,273.226,288.864,263.064,293.897,264.184"/>
<path class="path-2" d="M293.897,264.184C296.819,264.834,298.222,269.839,299.220,272.502C301.881,280.818,304.543,289.469,306.872,298.119C313.194,320.741,317.518,343.366,322.177,365.988C323.839,375.305,323.839,387.613,327.167,395.931C331.159,405.579,337.479,402.253,340.474,408.573C341.805,411.567,341.140,417.224,343.136,421.881C346.130,429.201,351.785,433.194,354.446,437.851C356.111,440.512,356.776,443.506,353.117,444.173C351.121,445.171,345.797,444.173,343.801,444.173C337.144,442.402,330.490,440.627,323.840,438.849C314.857,436.852,287.575,435.521,282.918,429.533C275.931,420.218,286.910,409.240,288.242,399.924C288.907,396.930,292.189,352.967,291.567,350.019C290.899,343.164,287.387,337.131,285.841,330.057C284.214,320.430,282.539,310.147,281.179,300.115C280.223,291.877,276.733,285.067,279.516,276.423C280.393,273.226,288.864,263.064,293.897,264.184Z"/>
<path class="path-15" d="M293.897,443.175C299.221,441.510,323.174,446.834,327.167,450.826"/>
<path class="path-15" d="M327.167,450.826C334.153,457.148,330.161,471.786,321.510,475.113"/>
<path class="path-15" d="M321.510,475.113C311.529,478.439,296.226,468.127,290.902,459.809"/>
<path class="path-15" d="M290.902,459.809C287.575,454.485,286.245,445.502,293.897,443.175"/>
<path class="path-16" d="M293.897,443.175C299.221,441.510,323.174,446.834,327.167,450.826C334.153,457.148,330.161,471.786,321.510,475.113C311.529,478.439,296.226,468.127,290.902,459.809C287.575,454.485,286.245,445.502,293.897,443.175Z"/>
</g>
<g id="bone">
<g id="bone1_clothes">
<path class="path-23" d="M250.328,389.260C250.329,389.255,261.567,331.346,261.569,331.341C261.568,331.346,261.407,390.335,261.407,390.341C261.406,390.341,250.329,389.260,250.328,389.260"/>
</g>
<g id="bone2_clothes">
<path class="path-23" d="M232.641,327.800C232.641,327.793,231.511,255.275,231.511,255.268C231.513,255.275,246.325,326.273,246.326,326.280C246.325,326.280,232.642,327.800,232.641,327.800"/>
</g>
<g id="bone3_neck">
<path class="path-23" d="M237.740,253.673C237.739,253.669,231.636,212.418,231.635,212.414C231.635,212.418,231.158,254.115,231.158,254.120C231.158,254.120,237.739,253.673,237.740,253.673"/>
</g>
<g id="bone4_head">
<path class="path-23" d="M230.407,212.748C230.408,212.740,231.286,134.681,231.286,134.673C231.287,134.680,242.842,211.884,242.843,211.892C242.842,211.892,230.409,212.748,230.407,212.748"/>
</g>
<g id="bone5_left_arm">
<path class="path-23" d="M298.163,255.461C298.165,255.470,320.627,345.167,320.630,345.176C320.626,345.168,283.247,260.593,283.243,260.585C283.245,260.584,298.161,255.462,298.163,255.461"/>
</g>
<g id="bone6_left_arm">
<path class="path-23" d="M300.881,349.128C300.882,349.134,307.164,412.560,307.165,412.567C307.165,412.560,311.321,348.959,311.321,348.953C311.320,348.953,300.882,349.128,300.881,349.128"/>
</g>
<g id="bone7_right_arm">
<path class="path-23" d="M169.131,269.641C169.129,269.653,149.258,383.430,149.256,383.441C149.259,383.430,186.833,274.214,186.837,274.203C186.835,274.203,169.133,269.642,169.131,269.641"/>
</g>
<g id="bone8_right_arm">
<path class="path-23" d="M157.157,379.808C157.160,379.814,181.052,434.331,181.054,434.336C181.051,434.331,146.694,385.725,146.691,385.720C146.692,385.720,157.156,379.809,157.157,379.808"/>
</g>
<g id="bone9_left_leg">
<path class="path-23" d="M271.776,384.161C271.779,384.170,294.778,483.525,294.780,483.535C294.776,483.526,254.343,389.902,254.339,389.893C254.341,389.892,271.775,384.161,271.776,384.161"/>
</g>
<g id="bone10_right_leg">
<path class="path-23" d="M209.621,384.511C209.620,384.521,196.620,487.298,196.619,487.308C196.622,487.298,224.814,387.612,224.817,387.602C224.815,387.602,209.622,384.511,209.621,384.511"/>
</g>
<g id="bone11_hair">
<path class="path-23" d="M234.511,156.774C234.512,156.782,245.018,236.275,245.019,236.282C245.017,236.275,220.140,160.047,220.138,160.040C220.139,160.039,234.510,156.774,234.511,156.774"/>
</g>
<g id="bone12_left_leg_S">
<path class="path-23" d="M434.455,222.034C434.463,222.035,505.366,236.401,505.373,236.403C505.366,236.400,437.787,210.580,437.780,210.577C437.780,210.578,434.456,222.032,434.455,222.034"/>
</g>
<g id="bone13_right_leg_S">
<path class="path-23" d="M495.621,210.763C495.614,210.764,424.487,223.981,424.480,223.982C424.487,223.982,496.819,222.631,496.826,222.631C496.826,222.630,495.621,210.764,495.621,210.763"/>
</g>
<g id="bone14_left_arm_S">
<path class="path-23" d="M557.459,215.989C557.458,215.981,551.495,143.884,551.494,143.876C551.494,143.884,545.530,215.981,545.530,215.989C545.531,215.989,557.458,215.989,557.459,215.989"/>
</g>
<g id="bone15_jacket_S">
<path class="path-23" d="M601.142,220.309C601.148,220.312,666.859,250.574,666.865,250.577C666.860,250.573,607.014,209.926,607.008,209.922C607.007,209.923,601.142,220.308,601.142,220.309"/>
</g>
<g id="bone16_pupils_S">
<path class="path-23" d="M442.221,337.675C442.220,337.668,440.191,265.352,440.190,265.345C440.189,265.352,430.310,337.019,430.309,337.026C430.310,337.026,442.219,337.675,442.221,337.675"/>
</g>
<g id="bone17_eyelids_S">
<path class="path-23" d="M500.565,333.149C500.559,333.145,444.556,287.349,444.550,287.344C444.555,287.350,492.273,341.725,492.278,341.730C492.279,341.729,500.564,333.150,500.565,333.149"/>
</g>
<g id="bone18_face_S">
<path class="path-23" d="M557.895,339.886C557.895,339.879,560.976,267.600,560.977,267.593C560.975,267.600,546.061,338.390,546.059,338.397C546.060,338.398,557.894,339.886,557.895,339.886"/>
</g>
</g>
</g>
<style>
.path-0{fill:#000000;fill-rule:evenodd;stroke:none;}
.path-1{fill:none;stroke:#a60d3f;stroke-width:1;stroke-linecap:butt;stroke-linejoin:round;}
.path-2{fill:#a60d3f;fill-rule:evenodd;stroke:none;}
.path-3{fill:none;stroke:#d88e4b;stroke-width:1;stroke-linecap:butt;stroke-linejoin:round;}
.path-4{fill:#d88e4b;fill-rule:evenodd;stroke:none;}
.path-5{fill:none;stroke:#6e2353;stroke-width:1;stroke-linecap:butt;stroke-linejoin:round;}
.path-6{fill:#6e2353;fill-rule:evenodd;stroke:none;}
.path-7{fill:none;stroke:#392966;stroke-width:1;stroke-linecap:butt;stroke-linejoin:round;}
.path-8{fill:#392966;fill-rule:evenodd;stroke:none;}
.path-9{fill:none;stroke:#cc9bc5;stroke-width:1;stroke-linecap:butt;stroke-linejoin:round;}
.path-10{fill:#cc9bc5;fill-rule:evenodd;stroke:none;}
.path-11{fill:none;stroke:#620527;stroke-width:1;stroke-linecap:butt;stroke-linejoin:round;}
.path-12{fill:#620527;fill-rule:evenodd;stroke:none;}
.path-13{fill:none;stroke:#6a3661;stroke-width:1;stroke-linecap:butt;stroke-linejoin:round;}
.path-14{fill:#6a3661;fill-rule:evenodd;stroke:none;}
.path-15{fill:none;stroke:#f8a087;stroke-width:1;stroke-linecap:butt;stroke-linejoin:round;}
.path-16{fill:#f8a087;fill-rule:evenodd;stroke:none;}
.path-17{fill:none;stroke:#ffffff;stroke-width:1;stroke-linecap:butt;stroke-linejoin:round;}
.path-18{fill:#ffffff;fill-rule:evenodd;stroke:none;}
.path-19{fill:none;stroke:#d89f4a;stroke-width:1;stroke-linecap:butt;stroke-linejoin:round;}
.path-20{fill:#d89f4a;fill-rule:evenodd;stroke:none;}
.path-21{fill:none;stroke:#fafd5b;stroke-width:1;stroke-linecap:butt;stroke-linejoin:round;}
.path-22{fill:#fafd5b;fill-rule:evenodd;stroke:none;}
.path-23{fill:none;stroke:#00ff42;stroke-width:8;stroke-linecap:round;stroke-linejoin:round;}
.path-24{fill:none;stroke:#000000;stroke-width:1;stroke-linecap:butt;stroke-linejoin:round;}
.path-25{fill:none;stroke:#ececec;stroke-width:1;stroke-linecap:butt;stroke-linejoin:round;}
.path-26{fill:#ececec;fill-rule:evenodd;stroke:none;}
.path-27{fill:none;stroke:#808080;stroke-width:1;stroke-linecap:butt;stroke-linejoin:round;}
.path-28{fill:#808080;fill-rule:evenodd;stroke:none;}
.path-29{fill:none;stroke:#282828;stroke-width:1;stroke-linecap:butt;stroke-linejoin:round;}
.path-30{fill:#282828;fill-rule:evenodd;stroke:none;}
.path-31{fill:none;stroke:#bdbdbd;stroke-width:1;stroke-linecap:butt;stroke-linejoin:round;}
.path-32{fill:#bdbdbd;fill-rule:evenodd;stroke:none;}
</style>
</svg>
