<svg version="1.1" id="Frame_159" xmlns="http://www.w3.org/2000/svg" xmlns:xlink="http://www.w3.org/1999/xlink" width="480px" height="720px">
<g id="main_bone">
<g id="right_arm">
<path class="path-0" d="M174.126,270.172C175.458,267.511,178.075,262.017,181.778,260.525C188.182,257.943,193.652,263.933,194.431,268.509C196.093,276.447,190.936,287.396,188.470,295.289C182.390,314.329,175.637,333.084,171.132,352.015C170.600,355.317,165.808,376.634,165.808,373.973C165.476,380.626,172.130,386.283,174.459,391.939C177.454,399.590,174.791,406.910,172.795,413.897C168.138,428.535,168.471,433.858,167.804,448.165C167.804,450.492,167.473,458.146,163.812,458.146C160.487,458.146,160.153,452.157,159.488,449.828C159.155,447.167,156.825,441.510,157.492,439.182C157.823,435.190,162.483,436.188,157.492,427.870C151.170,417.555,139.526,409.240,136.532,395.931C134.536,385.285,140.191,375.969,143.186,365.988C149.508,344.695,156.494,323.404,163.812,302.111C167.805,291.132,168.802,281.484,174.126,270.172M193.754,262.188C193.755,253.538,190.761,245.885,180.115,249.546C163.481,255.200,158.822,281.484,154.165,296.122C147.512,316.084,141.855,336.046,136.199,356.007C133.870,364.657,130.544,368.982,129.212,373.973C127.549,379.628,127.881,388.280,128.214,393.935C128.214,411.567,133.869,412.234,140.856,425.874C144.517,433.859,140.525,438.849,142.852,445.835C144.517,450.492,148.176,453.820,150.837,457.813C153.166,461.805,153.499,464.135,155.162,467.793C157.158,472.119,163.481,481.767,169.136,479.771C173.793,478.108,173.793,469.790,174.126,465.797C174.459,459.809,178.119,436.853,179.450,429.866C181.778,418.554,187.435,406.245,185.770,393.935C184.440,384.619,176.122,377.965,176.456,367.985C176.787,362.661,180.115,354.011,181.113,348.023C182.776,338.375,182.776,328.061,184.772,318.081C188.099,300.448,194.421,280.487,193.754,262.188Z"/>
<path class="path-1" d="M181.778,260.525C188.182,257.943,193.652,263.933,194.431,268.509"/>
<path class="path-1" d="M194.431,268.509C196.093,276.447,190.936,287.396,188.470,295.289"/>
<path class="path-1" d="M188.470,295.289C182.390,314.329,175.637,333.084,171.132,352.015"/>
<path class="path-1" d="M171.132,352.015C170.600,355.317,165.808,376.634,165.808,373.973"/>
<path class="path-1" d="M165.808,373.973C165.476,380.626,172.130,386.283,174.459,391.939"/>
<path class="path-1" d="M174.459,391.939C177.454,399.590,174.791,406.910,172.795,413.897"/>
<path class="path-1" d="M172.795,413.897C168.138,428.535,168.471,433.858,167.804,448.165"/>
<path class="path-1" d="M167.804,448.165C167.804,450.492,167.473,458.146,163.812,458.146"/>
<path class="path-1" d="M163.812,458.146C160.487,458.146,160.153,452.157,159.488,449.828"/>
<path class="path-1" d="M159.488,449.828C159.155,447.167,156.825,441.510,157.492,439.182"/>
<path class="path-1" d="M157.492,439.182C157.823,435.190,162.483,436.188,157.492,427.870"/>
<path class="path-1" d="M157.492,427.870C151.170,417.555,139.526,409.240,136.532,395.931"/>
<path class="path-1" d="M136.532,395.931C134.536,385.285,140.191,375.969,143.186,365.988"/>
<path class="path-1" d="M143.186,365.988C149.508,344.695,156.494,323.404,163.812,302.111"/>
<path class="path-1" d="M163.812,302.111C167.805,291.132,168.802,281.484,174.126,270.172"/>
<path class="path-1" d="M174.126,270.172C175.458,267.511,178.075,262.017,181.778,260.525"/>
<path class="path-2" d="M181.778,260.525C188.182,257.943,193.652,263.933,194.431,268.509C196.093,276.447,190.936,287.396,188.470,295.289C182.390,314.329,175.637,333.084,171.132,352.015C170.600,355.317,165.808,376.634,165.808,373.973C165.476,380.626,172.130,386.283,174.459,391.939C177.454,399.590,174.791,406.910,172.795,413.897C168.138,428.535,168.471,433.858,167.804,448.165C167.804,450.492,167.473,458.146,163.812,458.146C160.487,458.146,160.153,452.157,159.488,449.828C159.155,447.167,156.825,441.510,157.492,439.182C157.823,435.190,162.483,436.188,157.492,427.870C151.170,417.555,139.526,409.240,136.532,395.931C134.536,385.285,140.191,375.969,143.186,365.988C149.508,344.695,156.494,323.404,163.812,302.111C167.805,291.132,168.802,281.484,174.126,270.172C175.458,267.511,178.075,262.017,181.778,260.525Z"/>
</g>
<g id="layer_right_leg">
<g id="right_sole">
<path class="path-0" d="M199.401,652.560C200.746,652.911,215.251,652.543,216.794,652.569C218.104,652.619,226.493,652.852,227.609,652.787C228.287,652.770,235.387,652.790,235.915,653.359C235.824,652.706,227.767,654.348,227.283,654.352C226.457,654.400,201.993,654.220,201.718,654.311C200.418,654.371,190.065,653.073,189.532,652.099C190.463,651.530,197.885,652.161,199.401,652.560M232.478,648.659C232.487,648.936,231.260,650.107,230.840,650.092C229.976,650.064,219.797,651.302,218.679,650.971C217.392,650.827,210.910,650.291,209.746,650.202C207.484,650.029,194.503,649.768,192.361,649.060C192.105,648.922,191.324,648.344,191.290,648.192C191.271,647.904,196.637,647.777,197.746,647.743C199.539,647.688,210.017,648.348,211.855,648.403C213.818,648.461,224.924,648.762,226.935,648.597C227.249,648.579,232.307,647.966,232.478,648.659M236.704,646.228C227.568,643.337,219.611,646.046,211.794,646.043C205.520,646.052,193.043,643.802,185.864,646.805C184.763,647.266,182.858,648.008,182.737,649.264C182.585,650.870,185.248,654.148,187.137,655.395C189.479,656.941,194.363,656.974,196.301,657.270C206.120,659.138,218.527,658.010,228.713,657.771C236.171,657.603,237.932,654.467,238.711,650.914C239.038,649.420,239.587,647.099,236.704,646.228Z"/>
<path class="path-24" d="M199.401,652.560C200.746,652.911,215.251,652.543,216.794,652.569"/>
<path class="path-24" d="M216.794,652.569C218.104,652.619,226.493,652.852,227.609,652.787"/>
<path class="path-24" d="M227.609,652.787C228.287,652.770,235.387,652.790,235.915,653.359"/>
<path class="path-24" d="M235.915,653.359C235.824,652.706,227.767,654.348,227.283,654.352"/>
<path class="path-24" d="M227.283,654.352C226.457,654.400,201.993,654.220,201.718,654.311"/>
<path class="path-24" d="M201.718,654.311C200.418,654.371,190.065,653.073,189.532,652.099"/>
<path class="path-24" d="M189.532,652.099C190.463,651.530,197.885,652.161,199.401,652.560"/>
<path class="path-0" d="M199.401,652.560C200.746,652.911,215.251,652.543,216.794,652.569C218.104,652.619,226.493,652.852,227.609,652.787C228.287,652.770,235.387,652.790,235.915,653.359C235.824,652.706,227.767,654.348,227.283,654.352C226.457,654.400,201.993,654.220,201.718,654.311C200.418,654.371,190.065,653.073,189.532,652.099C190.463,651.530,197.885,652.161,199.401,652.560Z"/>
<path class="path-24" d="M197.746,647.743C199.539,647.688,210.017,648.348,211.855,648.403"/>
<path class="path-24" d="M211.855,648.403C213.818,648.461,224.924,648.762,226.935,648.597"/>
<path class="path-24" d="M226.935,648.597C227.249,648.579,232.307,647.966,232.478,648.659"/>
<path class="path-24" d="M232.478,648.659C232.487,648.936,231.260,650.107,230.840,650.092"/>
<path class="path-24" d="M230.840,650.092C229.976,650.064,219.797,651.302,218.679,650.971"/>
<path class="path-24" d="M218.679,650.971C217.392,650.827,210.910,650.291,209.746,650.202"/>
<path class="path-24" d="M209.746,650.202C207.484,650.029,194.503,649.768,192.361,649.060"/>
<path class="path-24" d="M192.361,649.060C192.105,648.922,191.324,648.344,191.290,648.192"/>
<path class="path-24" d="M191.290,648.192C191.271,647.904,196.637,647.777,197.746,647.743"/>
<path class="path-0" d="M197.746,647.743C199.539,647.688,210.017,648.348,211.855,648.403C213.818,648.461,224.924,648.762,226.935,648.597C227.249,648.579,232.307,647.966,232.478,648.659C232.487,648.936,231.260,650.107,230.840,650.092C229.976,650.064,219.797,651.302,218.679,650.971C217.392,650.827,210.910,650.291,209.746,650.202C207.484,650.029,194.503,649.768,192.361,649.060C192.105,648.922,191.324,648.344,191.290,648.192C191.271,647.904,196.637,647.777,197.746,647.743Z"/>
</g>
<g id="right_heel">
<path class="path-0" d="M189.339,578.328C190.014,563.018,191.225,551.158,209.900,548.449C218.249,547.085,234.157,549.716,238.755,557.787C241.166,561.785,240.435,567.653,240.659,571.925C241.083,578.851,245.261,592.257,235.492,593.816C234.871,593.977,217.791,594.140,212.459,594.240C205.334,595.036,197.952,595.477,192.809,590.538C190.347,587.651,189.119,581.770,189.339,578.328M247.729,556.187C244.047,546.412,230.586,540.926,221.128,542.315C208.846,543.966,196.272,539.891,188.270,551.385C182.175,560.139,181.389,576.213,183.196,586.427C183.889,591.247,186.938,600.033,190.941,602.701C193.878,604.568,198.417,604.028,201.889,604.034C218.853,604.333,249.217,610.138,248.817,584.827C248.650,578.484,249.599,561.206,247.729,556.187Z"/>
<path class="path-3" d="M209.900,548.449C218.249,547.085,234.157,549.716,238.755,557.787"/>
<path class="path-3" d="M238.755,557.787C241.166,561.785,240.435,567.653,240.659,571.925"/>
<path class="path-3" d="M240.659,571.925C241.083,578.851,245.261,592.257,235.492,593.816"/>
<path class="path-3" d="M235.492,593.816C234.871,593.977,217.791,594.140,212.459,594.240"/>
<path class="path-3" d="M212.459,594.240C205.334,595.036,197.952,595.477,192.809,590.538"/>
<path class="path-3" d="M192.809,590.538C190.347,587.651,189.119,581.770,189.339,578.328"/>
<path class="path-3" d="M189.339,578.328C190.014,563.018,191.225,551.158,209.900,548.449"/>
<path class="path-4" d="M209.900,548.449C218.249,547.085,234.157,549.716,238.755,557.787C241.166,561.785,240.435,567.653,240.659,571.925C241.083,578.851,245.261,592.257,235.492,593.816C234.871,593.977,217.791,594.140,212.459,594.240C205.334,595.036,197.952,595.477,192.809,590.538C190.347,587.651,189.119,581.770,189.339,578.328C190.014,563.018,191.225,551.158,209.900,548.449Z"/>
</g>
<g id="right_toe">
<path class="path-0" d="M184.223,631.788C185.188,620.737,190.066,607.093,203.446,604.820C206.783,604.074,211.563,605.352,215.319,605.942C234.054,608.834,241.516,612.715,242.883,631.788C243.117,636.323,243.982,641.811,240.901,645.722C237.042,650.530,216.975,650.635,210.858,650.681C200.692,650.979,192.145,652.678,185.789,643.340C182.868,638.952,183.801,636.701,184.223,631.788M248.652,614.322C242.649,602.237,214.562,595.297,201.897,597.459C183.344,600.731,176.486,614.752,175.221,630.464C174.738,635.958,174.063,642.118,177.037,646.841C178.245,648.760,180.921,651.105,182.649,652.582C194.281,663.401,201.868,662.435,216.661,661.672C224.850,661.386,238.110,659.332,244.625,653.769C248.954,649.710,249.911,645.614,250.219,640.031C250.321,634.731,250.802,618.254,248.652,614.322Z"/>
<path class="path-3" d="M203.446,604.820C206.783,604.074,211.563,605.352,215.319,605.942"/>
<path class="path-3" d="M215.319,605.942C234.054,608.834,241.516,612.715,242.883,631.788"/>
<path class="path-3" d="M242.883,631.788C243.117,636.323,243.982,641.811,240.901,645.722"/>
<path class="path-3" d="M240.901,645.722C237.042,650.530,216.975,650.635,210.858,650.681"/>
<path class="path-3" d="M210.858,650.681C200.692,650.979,192.145,652.678,185.789,643.340"/>
<path class="path-3" d="M185.789,643.340C182.868,638.952,183.801,636.701,184.223,631.788"/>
<path class="path-3" d="M184.223,631.788C185.188,620.737,190.066,607.093,203.446,604.820"/>
<path class="path-4" d="M203.446,604.820C206.783,604.074,211.563,605.352,215.319,605.942C234.054,608.834,241.516,612.715,242.883,631.788C243.117,636.323,243.982,641.811,240.901,645.722C237.042,650.530,216.975,650.635,210.858,650.681C200.692,650.979,192.145,652.678,185.789,643.340C182.868,638.952,183.801,636.701,184.223,631.788C185.188,620.737,190.066,607.093,203.446,604.820Z"/>
</g>
<g id="right_leg">
<path class="path-0" d="M185.072,403.383C187.822,392.271,203.079,390.422,212.784,393.055C218.557,394.495,228.138,397.085,231.565,402.357C234.394,406.710,234.413,414.736,232.669,419.625C230.543,425.583,211.662,433.993,218.041,434.812C226.941,435.999,232.557,424.055,237.827,427.548C240.918,429.597,239.777,435.443,239.953,439.724C241.642,457.909,237.028,476.782,235.323,494.418C234.662,500.615,231.375,509.525,232.047,515.261C233.403,531.488,232.309,534.747,232.862,544.397C232.844,547.815,232.385,565.076,233.174,569.595C234.123,574.458,234.796,579.718,235.715,584.611C237.027,591.605,233.582,603.690,228.403,607.876C224.941,610.563,212.687,615.748,208.301,614.745C203.375,613.768,198.496,607.318,195.703,602.718C194.305,600.673,188.826,591.446,188.529,588.774C188.156,583.705,188.417,582.112,188.916,576.183C189.253,569.493,193.643,562.599,192.345,555.868C187.659,532.428,186.334,500.858,187.822,485.510C188.655,473.983,185.545,435.643,186.219,424.948C187.062,413.267,183.674,411.199,185.072,403.383M208.062,381.294C202.406,379.297,198.043,373.865,192.092,375.969C190.496,376.687,187.730,378.732,186.592,379.889C171.039,393.298,171.748,406.586,171.635,425.652C171.278,433.136,169.981,440.932,170.741,448.092C171.275,454.315,173.158,459.522,173.323,465.393C173.847,471.022,173.715,477.021,174.284,483.989C175.175,492.350,178.012,502.042,178.879,516.296C178.745,528.325,179.241,539.629,179.370,551.126C179.511,554.291,178.867,561.733,178.621,564.169C177.485,568.886,175.438,574.287,174.705,578.812C174.087,584.783,176.324,590.650,178.537,595.895C180.490,601.300,183.179,608.095,186.748,612.152C189.570,615.358,193.613,617.505,197.155,619.505C200.954,621.622,204.433,623.468,208.653,624.676C211.995,625.660,215.377,626.925,218.994,626.722C220.294,626.446,230.512,622.476,232.478,621.624C233.968,620.874,235.379,618.521,236.645,617.293C238.169,615.645,241.251,614.906,243.088,613.510C246.524,610.897,250.622,608.740,252.932,605.090C264.782,585.771,249.847,572.045,246.786,552.485C245.309,543.047,244.373,523.403,245.203,512.856C246.009,498.959,250.981,485.897,252.219,471.600C252.778,466.365,253.150,460.072,253.668,454.092C253.997,449.332,252.209,445.644,251.718,440.970C251.062,437.007,251.286,424.171,250.646,419.885C250.240,416.188,250.314,411.567,248.983,407.908C245.324,398.592,231.351,388.280,222.034,385.285C217.377,383.621,212.387,383.290,208.062,381.294Z"/>
<path class="path-7" d="M212.784,393.055C218.557,394.495,228.138,397.085,231.565,402.357"/>
<path class="path-7" d="M231.565,402.357C234.394,406.710,234.413,414.736,232.669,419.625"/>
<path class="path-7" d="M232.669,419.625C230.543,425.583,211.662,433.993,218.041,434.812"/>
<path class="path-7" d="M218.041,434.812C226.941,435.999,232.557,424.055,237.827,427.548"/>
<path class="path-7" d="M237.827,427.548C240.918,429.597,239.777,435.443,239.953,439.724"/>
<path class="path-7" d="M239.953,439.724C241.642,457.909,237.028,476.782,235.323,494.418"/>
<path class="path-7" d="M235.323,494.418C234.662,500.615,231.375,509.525,232.047,515.261"/>
<path class="path-7" d="M232.047,515.261C233.403,531.488,232.309,534.747,232.862,544.397"/>
<path class="path-7" d="M232.862,544.397C232.844,547.815,232.385,565.076,233.174,569.595"/>
<path class="path-7" d="M233.174,569.595C234.123,574.458,234.796,579.718,235.715,584.611"/>
<path class="path-7" d="M235.715,584.611C237.027,591.605,233.582,603.690,228.403,607.876"/>
<path class="path-7" d="M228.403,607.876C224.941,610.563,212.687,615.748,208.301,614.745"/>
<path class="path-7" d="M208.301,614.745C203.375,613.768,198.496,607.318,195.703,602.718"/>
<path class="path-7" d="M195.703,602.718C194.305,600.673,188.826,591.446,188.529,588.774"/>
<path class="path-7" d="M188.529,588.774C188.156,583.705,188.417,582.112,188.916,576.183"/>
<path class="path-7" d="M188.916,576.183C189.253,569.493,193.643,562.599,192.345,555.868"/>
<path class="path-7" d="M192.345,555.868C187.659,532.428,186.334,500.858,187.822,485.510"/>
<path class="path-7" d="M187.822,485.510C188.655,473.983,185.545,435.643,186.219,424.948"/>
<path class="path-7" d="M186.219,424.948C187.062,413.267,183.674,411.199,185.072,403.383"/>
<path class="path-7" d="M185.072,403.383C187.822,392.271,203.079,390.422,212.784,393.055"/>
<path class="path-8" d="M212.784,393.055C218.557,394.495,228.138,397.085,231.565,402.357C234.394,406.710,234.413,414.736,232.669,419.625C230.543,425.583,211.662,433.993,218.041,434.812C226.941,435.999,232.557,424.055,237.827,427.548C240.918,429.597,239.777,435.443,239.953,439.724C241.642,457.909,237.028,476.782,235.323,494.418C234.662,500.615,231.375,509.525,232.047,515.261C233.403,531.488,232.309,534.747,232.862,544.397C232.844,547.815,232.385,565.076,233.174,569.595C234.123,574.458,234.796,579.718,235.715,584.611C237.027,591.605,233.582,603.690,228.403,607.876C224.941,610.563,212.687,615.748,208.301,614.745C203.375,613.768,198.496,607.318,195.703,602.718C194.305,600.673,188.826,591.446,188.529,588.774C188.156,583.705,188.417,582.112,188.916,576.183C189.253,569.493,193.643,562.599,192.345,555.868C187.659,532.428,186.334,500.858,187.822,485.510C188.655,473.983,185.545,435.643,186.219,424.948C187.062,413.267,183.674,411.199,185.072,403.383C187.822,392.271,203.079,390.422,212.784,393.055Z"/>
</g>
</g>
<g id="layer_left_leg">
<g id="left_heel">
<path class="path-0" d="M252.258,681.301C246.813,668.995,258.811,652.885,270.149,651.077C289.859,647.827,308.094,671.186,305.888,678.267C301.809,690.041,280.207,687.965,269.610,687.264C265.024,686.809,254.010,685.374,252.258,681.301M301.668,648.645C288.097,637.333,258.820,640.404,246.225,650.434C230.530,662.688,228.012,699.883,250.350,701.861C265.705,703.258,301.352,701.970,310.078,696.635C318.794,691.669,317.242,678.645,314.825,669.582C312.531,662.656,307.375,653.541,301.668,648.645Z"/>
<path class="path-3" d="M270.149,651.077C289.859,647.827,308.094,671.186,305.888,678.267"/>
<path class="path-3" d="M305.888,678.267C301.809,690.041,280.207,687.965,269.610,687.264"/>
<path class="path-3" d="M269.610,687.264C265.024,686.809,254.010,685.374,252.258,681.301"/>
<path class="path-3" d="M252.258,681.301C246.813,668.995,258.811,652.885,270.149,651.077"/>
<path class="path-4" d="M270.149,651.077C289.859,647.827,308.094,671.186,305.888,678.267C301.809,690.041,280.207,687.965,269.610,687.264C265.024,686.809,254.010,685.374,252.258,681.301C246.813,668.995,258.811,652.885,270.149,651.077Z"/>
</g>
<g id="left_leg">
<path class="path-0" d="M238.898,405.789C240.604,401.168,250.103,404.860,253.973,404.581C260.611,404.424,275.994,400.626,281.020,405.162C286.625,409.890,283.869,430.473,283.720,437.525C282.419,463.624,287.354,488.054,289.786,513.169C290.946,529.113,289.400,546.247,294.371,561.112C297.692,569.818,307.080,575.723,310.776,583.693C313.798,595.076,319.737,608.336,312.876,616.828C299.951,630.924,294.741,624.902,283.222,632.137C272.882,638.197,254.749,638.251,245.642,632.293C239.435,628.522,230.548,617.553,229.318,610.493C223.560,577.444,226.846,538.757,227.626,505.862C228.006,489.794,240.696,456.747,236.807,439.941C235.199,432.990,234.591,430.489,238.431,425.887C239.538,424.556,236.942,419.023,236.730,417.280C236.103,414.210,237.683,408.599,238.898,405.789M287.050,397.825C280.591,392.419,261.774,394.352,253.973,394.933C249.835,395.225,236.695,392.763,233.772,394.844C222.861,402.613,228.361,427.307,228.662,438.223C228.330,446.769,216.936,486.190,215.297,497.585C212.953,525.423,209.333,549.521,212.005,577.329C213.615,596.780,213.280,616.596,222.453,633.520C232.855,652.391,250.803,653.431,275.648,650.337C292.567,648.306,322.516,649.863,328.902,620.113C333.607,598.135,322.051,570.677,317.797,564.364C314.119,558.906,307.929,554.719,305.231,548.202C297.275,530.720,302.082,510.007,300.411,490.761C298.527,468.820,304.845,412.786,287.050,397.825Z"/>
<path class="path-7" d="M253.973,404.581C260.611,404.424,275.994,400.626,281.020,405.162"/>
<path class="path-7" d="M281.020,405.162C286.625,409.890,283.869,430.473,283.720,437.525"/>
<path class="path-7" d="M283.720,437.525C282.419,463.624,287.354,488.054,289.786,513.169"/>
<path class="path-7" d="M289.786,513.169C290.946,529.113,289.400,546.247,294.371,561.112"/>
<path class="path-7" d="M294.371,561.112C297.692,569.818,307.080,575.723,310.776,583.693"/>
<path class="path-7" d="M310.776,583.693C313.798,595.076,319.737,608.336,312.876,616.828"/>
<path class="path-7" d="M312.876,616.828C299.951,630.924,294.741,624.902,283.222,632.137"/>
<path class="path-7" d="M283.222,632.137C272.882,638.197,254.749,638.251,245.642,632.293"/>
<path class="path-7" d="M245.642,632.293C239.435,628.522,230.548,617.553,229.318,610.493"/>
<path class="path-7" d="M229.318,610.493C223.560,577.444,226.846,538.757,227.626,505.862"/>
<path class="path-7" d="M227.626,505.862C228.006,489.794,240.696,456.747,236.807,439.941"/>
<path class="path-7" d="M236.807,439.941C235.199,432.990,234.591,430.489,238.431,425.887"/>
<path class="path-7" d="M238.431,425.887C239.538,424.556,236.942,419.023,236.730,417.280"/>
<path class="path-7" d="M236.730,417.280C236.103,414.210,237.683,408.599,238.898,405.789"/>
<path class="path-7" d="M238.898,405.789C240.604,401.168,250.103,404.860,253.973,404.581"/>
<path class="path-8" d="M253.973,404.581C260.611,404.424,275.994,400.626,281.020,405.162C286.625,409.890,283.869,430.473,283.720,437.525C282.419,463.624,287.354,488.054,289.786,513.169C290.946,529.113,289.400,546.247,294.371,561.112C297.692,569.818,307.080,575.723,310.776,583.693C313.798,595.076,319.737,608.336,312.876,616.828C299.951,630.924,294.741,624.902,283.222,632.137C272.882,638.197,254.749,638.251,245.642,632.293C239.435,628.522,230.548,617.553,229.318,610.493C223.560,577.444,226.846,538.757,227.626,505.862C228.006,489.794,240.696,456.747,236.807,439.941C235.199,432.990,234.591,430.489,238.431,425.887C239.538,424.556,236.942,419.023,236.730,417.280C236.103,414.210,237.683,408.599,238.898,405.789C240.604,401.168,250.103,404.860,253.973,404.581Z"/>
</g>
<g id="left_toe">
<path class="path-0" d="M244.278,671.120C212.882,658.282,236.896,610.090,259.228,609.545C284.935,608.910,303.383,620.837,307.933,631.182C313.198,642.505,312.632,654.932,305.253,665.363C293.234,679.673,259.757,677.433,244.278,671.120M318.225,626.103C308.839,606.584,288.622,591.628,269.134,592.806C243.406,594.361,223.027,608.572,218.378,634.984C215.106,650.524,217.473,666.167,227.509,678.475C236.202,688.482,265.574,689.806,278.220,689.083C290.168,687.571,305.777,685.964,313.928,675.851C321.251,667.036,323.084,636.196,318.225,626.103Z"/>
<path class="path-3" d="M259.228,609.545C284.935,608.910,303.383,620.837,307.933,631.182"/>
<path class="path-3" d="M307.933,631.182C313.198,642.505,312.632,654.932,305.253,665.363"/>
<path class="path-3" d="M305.253,665.363C293.234,679.673,259.757,677.433,244.278,671.120"/>
<path class="path-3" d="M244.278,671.120C212.882,658.282,236.896,610.090,259.228,609.545"/>
<path class="path-4" d="M259.228,609.545C284.935,608.910,303.383,620.837,307.933,631.182C313.198,642.505,312.632,654.932,305.253,665.363C293.234,679.673,259.757,677.433,244.278,671.120C212.882,658.282,236.896,610.090,259.228,609.545Z"/>
</g>
<g id="left_sole">
<path class="path-0" d="M250.535,689.861C243.999,688.616,240.264,687.628,240.553,686.274C241.068,683.867,249.289,686.621,253.702,686.552C262.027,686.587,280.688,689.546,291.583,686.556C292.932,686.300,297.132,686.337,297.209,686.415C300.791,690.053,288.542,690.016,285.625,690.414C279.961,691.561,251.659,689.614,250.535,689.861M237.373,678.056C238.161,674.580,248.200,670.812,251.483,670.166C277.514,665.044,285.684,671.022,292.880,672.752C296.171,673.547,305.635,673.201,305.140,678.518C304.405,686.397,278.517,680.951,259.061,679.745C247.614,679.201,236.714,680.960,237.373,678.056M314.835,677.572C313.201,669.235,290.843,656.029,263.192,657.101C253.271,657.491,229.780,665.238,227.349,678.208C226.777,681.301,229.066,690.823,231.810,692.229C243.079,698.022,306.085,695.557,311.284,689.820C313.249,687.652,315.178,679.324,314.835,677.572Z"/>
<path class="path-5" d="M240.553,686.274C241.068,683.867,249.289,686.621,253.702,686.552"/>
<path class="path-5" d="M253.702,686.552C262.027,686.587,280.688,689.546,291.583,686.556"/>
<path class="path-5" d="M291.583,686.556C292.932,686.300,297.132,686.337,297.209,686.415"/>
<path class="path-5" d="M297.209,686.415C300.791,690.053,288.542,690.016,285.625,690.414"/>
<path class="path-5" d="M285.625,690.414C279.961,691.561,251.659,689.614,250.535,689.861"/>
<path class="path-5" d="M250.535,689.861C243.999,688.616,240.264,687.628,240.553,686.274"/>
<path class="path-6" d="M240.553,686.274C241.068,683.867,249.289,686.621,253.702,686.552C262.027,686.587,280.688,689.546,291.583,686.556C292.932,686.300,297.132,686.337,297.209,686.415C300.791,690.053,288.542,690.016,285.625,690.414C279.961,691.561,251.659,689.614,250.535,689.861C243.999,688.616,240.264,687.628,240.553,686.274Z"/>
<path class="path-5" d="M251.483,670.166C277.514,665.044,285.684,671.022,292.880,672.752"/>
<path class="path-5" d="M292.880,672.752C296.171,673.547,305.635,673.201,305.140,678.518"/>
<path class="path-5" d="M305.140,678.518C304.405,686.397,278.517,680.951,259.061,679.745"/>
<path class="path-5" d="M259.061,679.745C247.614,679.201,236.714,680.960,237.373,678.056"/>
<path class="path-5" d="M237.373,678.056C238.161,674.580,248.200,670.812,251.483,670.166"/>
<path class="path-6" d="M251.483,670.166C277.514,665.044,285.684,671.022,292.880,672.752C296.171,673.547,305.635,673.201,305.140,678.518C304.405,686.397,278.517,680.951,259.061,679.745C247.614,679.201,236.714,680.960,237.373,678.056C238.161,674.580,248.200,670.812,251.483,670.166Z"/>
</g>
</g>
<g id="hat_brim">
<path class="path-0" d="M290.771,138.634C294.430,132.645,303.413,116.343,311.398,116.343C316.721,116.343,327.700,125.992,333.355,128.986C338.346,131.981,343.670,134.642,349.325,137.303C352.537,138.972,355.753,140.635,358.973,142.293C373.279,149.613,369.286,155.935,360.968,154.604C342.338,151.275,339.344,152.607,321.379,143.291C319.049,142.293,313.060,138.967,312.062,143.291C310.733,148.282,319.716,152.607,323.375,154.270C330.028,157.931,337.348,161.924,345.332,162.588C347.662,162.922,355.647,162.254,356.976,164.584C358.973,167.911,349.325,176.561,347.329,178.557C344.001,181.552,340.675,184.546,337.348,186.876C332.357,190.201,327.034,193.195,321.379,194.193C310.733,195.525,277.463,180.220,276.465,168.577C275.800,161.923,286.779,144.956,290.771,138.634M323.375,112.019C318.384,107.693,314.725,101.371,307.405,104.699C302.081,107.029,296.426,114.680,292.767,118.672C279.126,135.307,266.817,154.937,267.482,176.561C267.815,190.201,272.472,189.870,283.451,195.191C300.085,203.510,321.379,206.171,339.344,197.855C350.988,192.531,371.283,174.565,376.607,162.588C378.270,158.596,381.263,149.613,378.934,144.956C376.273,139.299,353.982,129.651,347.329,125.992C339.344,121.667,330.362,117.674,323.375,112.019Z"/>
<path class="path-9" d="M311.398,116.343C316.721,116.343,327.700,125.992,333.355,128.986"/>
<path class="path-9" d="M333.355,128.986C338.346,131.981,343.670,134.642,349.325,137.303"/>
<path class="path-9" d="M349.325,137.303C352.537,138.972,355.753,140.635,358.973,142.293"/>
<path class="path-9" d="M358.973,142.293C373.279,149.613,369.286,155.935,360.968,154.604"/>
<path class="path-9" d="M360.968,154.604C342.338,151.275,339.344,152.607,321.379,143.291"/>
<path class="path-9" d="M321.379,143.291C319.049,142.293,313.060,138.967,312.062,143.291"/>
<path class="path-9" d="M312.062,143.291C310.733,148.282,319.716,152.607,323.375,154.270"/>
<path class="path-9" d="M323.375,154.270C330.028,157.931,337.348,161.924,345.332,162.588"/>
<path class="path-9" d="M345.332,162.588C347.662,162.922,355.647,162.254,356.976,164.584"/>
<path class="path-9" d="M356.976,164.584C358.973,167.911,349.325,176.561,347.329,178.557"/>
<path class="path-9" d="M347.329,178.557C344.001,181.552,340.675,184.546,337.348,186.876"/>
<path class="path-9" d="M337.348,186.876C332.357,190.201,327.034,193.195,321.379,194.193"/>
<path class="path-9" d="M321.379,194.193C310.733,195.525,277.463,180.220,276.465,168.577"/>
<path class="path-9" d="M276.465,168.577C275.800,161.923,286.779,144.956,290.771,138.634"/>
<path class="path-9" d="M290.771,138.634C294.430,132.645,303.413,116.343,311.398,116.343"/>
<path class="path-10" d="M311.398,116.343C316.721,116.343,327.700,125.992,333.355,128.986C338.346,131.981,343.670,134.642,349.325,137.303C352.537,138.972,355.753,140.635,358.973,142.293C373.279,149.613,369.286,155.935,360.968,154.604C342.338,151.275,339.344,152.607,321.379,143.291C319.049,142.293,313.060,138.967,312.062,143.291C310.733,148.282,319.716,152.607,323.375,154.270C330.028,157.931,337.348,161.924,345.332,162.588C347.662,162.922,355.647,162.254,356.976,164.584C358.973,167.911,349.325,176.561,347.329,178.557C344.001,181.552,340.675,184.546,337.348,186.876C332.357,190.201,327.034,193.195,321.379,194.193C310.733,195.525,277.463,180.220,276.465,168.577C275.800,161.923,286.779,144.956,290.771,138.634C294.430,132.645,303.413,116.343,311.398,116.343Z"/>
</g>
<g id="hair">
<path class="path-0" d="M183.357,136.483C200.954,124.749,220.906,123.806,241.996,123.120C251.452,122.794,257.886,129.270,265.069,135.626C270.964,141.195,277.299,147.468,283.560,153.313C292.986,162.051,296.930,166.431,300.440,170.614C303.444,173.825,308.105,179.813,311.862,182.674C316.396,186.124,325.422,203.315,327.445,205.266C320.793,207.453,310.356,209.024,305.541,212.830C307.149,218.669,307.424,227.700,307.413,230.409C301.202,230.790,294.008,227.926,282.567,225.752C280.180,232.918,280.142,239.647,275.384,246.902C267.697,244.496,262.345,242.563,252.411,238.043C245.798,243.193,244.261,242.773,233.517,249.212C226.455,244.820,220.838,240.151,213.943,237.253C207.148,240.091,196.403,241.027,192.739,243.925C188.987,236.858,185.547,229.060,182.318,225.662C172.710,227.554,168.576,230.148,161.781,232.559C157.606,227.012,160.654,222.489,156.037,214.349C151.717,213.146,145.049,210.476,139.490,210.322C143.367,205.864,146.319,191.142,152.833,189.327C160.871,187.088,155.875,177.911,160.872,169.755C162.110,167.631,174.016,151.399,175.093,148.739C177.132,144.153,179.361,139.287,183.357,136.483M269.783,123.041C257.623,113.516,232.973,108.192,219.067,111.311C206.306,114.023,193.787,117.926,182.663,125.006C176.433,128.911,169.531,134.686,165.362,140.754C157.036,152.537,144.935,178.372,138.142,190.325C132.704,200.241,127.646,206.923,122.452,212.283C140.007,218.879,145.124,221.586,150.363,222.441C150.613,230.199,157.711,236.027,156.388,244.572C165.209,243.354,170.475,241.177,178.326,239.302C182.258,243.995,184.942,250.348,188.681,256.586C196.418,254.568,204.305,254.940,212.000,249.563C217.496,252.632,226.229,257.403,235.200,262.448C243.544,258.115,245.325,257.880,253.165,252.908C262.619,255.342,272.515,261.315,282.074,260.399C281.484,252.206,287.600,246.647,286.947,241.388C294.168,239.536,316.196,242.966,319.967,242.683C319.803,236.635,316.595,225.026,318.237,217.838C325.064,216.098,330.837,214.510,341.526,209.520C338.121,202.790,331.974,194.414,326.560,189.403C321.990,185.214,318.291,179.689,313.719,175.326C298.212,160.768,292.275,140.745,269.783,123.041Z"/>
<path class="path-11" d="M241.996,123.120C251.452,122.794,257.886,129.270,265.069,135.626"/>
<path class="path-11" d="M265.069,135.626C270.964,141.195,277.299,147.468,283.560,153.313"/>
<path class="path-11" d="M283.560,153.313C292.986,162.051,296.930,166.431,300.440,170.614"/>
<path class="path-11" d="M300.440,170.614C303.444,173.825,308.105,179.813,311.862,182.674"/>
<path class="path-11" d="M311.862,182.674C316.396,186.124,325.422,203.315,327.445,205.266"/>
<path class="path-11" d="M327.445,205.266C320.793,207.453,310.356,209.024,305.541,212.830"/>
<path class="path-11" d="M305.541,212.830C307.149,218.669,307.424,227.700,307.413,230.409"/>
<path class="path-11" d="M307.413,230.409C301.202,230.790,294.008,227.926,282.567,225.752"/>
<path class="path-11" d="M282.567,225.752C280.180,232.918,280.142,239.647,275.384,246.902"/>
<path class="path-11" d="M275.384,246.902C267.697,244.496,262.345,242.563,252.411,238.043"/>
<path class="path-11" d="M252.411,238.043C245.798,243.193,244.261,242.773,233.517,249.212"/>
<path class="path-11" d="M233.517,249.212C226.455,244.820,220.838,240.151,213.943,237.253"/>
<path class="path-11" d="M213.943,237.253C207.148,240.091,196.403,241.027,192.739,243.925"/>
<path class="path-11" d="M192.739,243.925C188.987,236.858,185.547,229.060,182.318,225.662"/>
<path class="path-11" d="M182.318,225.662C172.710,227.554,168.576,230.148,161.781,232.559"/>
<path class="path-11" d="M161.781,232.559C157.606,227.012,160.654,222.489,156.037,214.349"/>
<path class="path-11" d="M156.037,214.349C151.717,213.146,145.049,210.476,139.490,210.322"/>
<path class="path-11" d="M139.490,210.322C143.367,205.864,146.319,191.142,152.833,189.327"/>
<path class="path-11" d="M152.833,189.327C160.871,187.088,155.875,177.911,160.872,169.755"/>
<path class="path-11" d="M160.872,169.755C162.110,167.631,174.016,151.399,175.093,148.739"/>
<path class="path-11" d="M175.093,148.739C177.132,144.153,179.361,139.287,183.357,136.483"/>
<path class="path-11" d="M183.357,136.483C200.954,124.749,220.906,123.806,241.996,123.120"/>
<path class="path-12" d="M241.996,123.120C251.452,122.794,257.886,129.270,265.069,135.626C270.964,141.195,277.299,147.468,283.560,153.313C292.986,162.051,296.930,166.431,300.440,170.614C303.444,173.825,308.105,179.813,311.862,182.674C316.396,186.124,325.422,203.315,327.445,205.266C320.793,207.453,310.356,209.024,305.541,212.830C307.149,218.669,307.424,227.700,307.413,230.409C301.202,230.790,294.008,227.926,282.567,225.752C280.180,232.918,280.142,239.647,275.384,246.902C267.697,244.496,262.345,242.563,252.411,238.043C245.798,243.193,244.261,242.773,233.517,249.212C226.455,244.820,220.838,240.151,213.943,237.253C207.148,240.091,196.403,241.027,192.739,243.925C188.987,236.858,185.547,229.060,182.318,225.662C172.710,227.554,168.576,230.148,161.781,232.559C157.606,227.012,160.654,222.489,156.037,214.349C151.717,213.146,145.049,210.476,139.490,210.322C143.367,205.864,146.319,191.142,152.833,189.327C160.871,187.088,155.875,177.911,160.872,169.755C162.110,167.631,174.016,151.399,175.093,148.739C177.132,144.153,179.361,139.287,183.357,136.483C200.954,124.749,220.906,123.806,241.996,123.120Z"/>
</g>
<g id="clothes">
<path class="path-0" d="M244.680,364.877C238.950,363.338,218.856,368.754,215.697,374.037C213.952,377.166,216.942,378.722,220.059,378.615C224.290,378.471,245.911,373.583,248.649,371.530C252.680,368.433,246.883,365.366,244.680,364.877M191.093,266.179C194.088,253.538,221.036,240.563,234.012,241.561C242.994,242.226,271.274,256.199,275.266,264.517C278.592,271.170,279.590,295.789,279.924,304.107C280.257,319.412,281.535,334.728,282.253,350.019C283.461,362.722,294.344,377.243,287.391,387.943C284.113,391.775,271.617,388.762,266.137,389.627C261.467,390.593,253.202,395.581,248.869,396.289C227.769,400.327,231.168,405.960,211.149,408.235C206.785,408.563,192.682,406.635,189.876,404.681C183.043,398.648,186.221,388.824,187.526,380.144C190.302,365.693,190.593,355.623,191.427,340.038C192.181,323.962,194.088,306.768,194.088,290.134C193.755,284.145,190.429,269.839,191.093,266.179M269.943,247.549C253.640,237.899,237.670,229.915,218.042,235.573C212.718,236.902,186.103,249.877,183.773,253.205C180.115,258.529,183.773,278.821,183.773,286.141C184.107,294.791,184.440,303.773,183.773,312.092C183.442,318.413,182.111,324.069,182.111,330.057C181.777,336.710,181.777,343.884,180.780,350.019C177.585,368.827,167.697,406.638,190.747,417.770C195.434,420.054,201.880,419.690,207.373,419.303C217.157,418.425,227.696,417.116,237.165,413.987C249.266,410.356,259.443,400.922,272.101,399.104C277.679,398.304,294.683,405.671,299.333,401.952C301.325,400.431,304.223,389.793,304.166,386.961C303.154,372.093,293.930,358.744,291.567,344.031C289.996,332.152,289.239,320.410,289.904,308.100C290.237,298.119,291.900,288.471,291.900,278.157C291.567,273.831,292.234,268.510,289.904,264.184C285.912,256.199,277.263,251.873,269.943,247.549Z"/>
<path class="path-13" d="M244.680,364.877C238.950,363.338,218.856,368.754,215.697,374.037"/>
<path class="path-13" d="M215.697,374.037C213.952,377.166,216.942,378.722,220.059,378.615"/>
<path class="path-13" d="M220.059,378.615C224.290,378.471,245.911,373.583,248.649,371.530"/>
<path class="path-13" d="M248.649,371.530C252.680,368.433,246.883,365.366,244.680,364.877"/>
<path class="path-13" d="M191.093,266.179C194.088,253.538,221.036,240.563,234.012,241.561"/>
<path class="path-13" d="M234.012,241.561C242.994,242.226,271.274,256.199,275.266,264.517"/>
<path class="path-13" d="M275.266,264.517C278.592,271.170,279.590,295.789,279.924,304.107"/>
<path class="path-13" d="M279.924,304.107C280.257,319.412,281.535,334.728,282.253,350.019"/>
<path class="path-13" d="M282.253,350.019C283.461,362.722,294.344,377.243,287.391,387.943"/>
<path class="path-13" d="M287.391,387.943C284.113,391.775,271.617,388.762,266.137,389.627"/>
<path class="path-13" d="M266.137,389.627C261.467,390.593,253.202,395.581,248.869,396.289"/>
<path class="path-13" d="M248.869,396.289C227.769,400.327,231.168,405.960,211.149,408.235"/>
<path class="path-13" d="M211.149,408.235C206.785,408.563,192.682,406.635,189.876,404.681"/>
<path class="path-13" d="M189.876,404.681C183.043,398.648,186.221,388.824,187.526,380.144"/>
<path class="path-13" d="M187.526,380.144C190.302,365.693,190.593,355.623,191.427,340.038"/>
<path class="path-13" d="M191.427,340.038C192.181,323.962,194.088,306.768,194.088,290.134"/>
<path class="path-13" d="M194.088,290.134C193.755,284.145,190.429,269.839,191.093,266.179"/>
<path class="path-14" d="M244.680,364.877C238.950,363.338,218.856,368.754,215.697,374.037C213.952,377.166,216.942,378.722,220.059,378.615C224.290,378.471,245.911,373.583,248.649,371.530C252.680,368.433,246.883,365.366,244.680,364.877M191.093,266.179C194.088,253.538,221.036,240.563,234.012,241.561C242.994,242.226,271.274,256.199,275.266,264.517C278.592,271.170,279.590,295.789,279.924,304.107C280.257,319.412,281.535,334.728,282.253,350.019C283.461,362.722,294.344,377.243,287.391,387.943C284.113,391.775,271.617,388.762,266.137,389.627C261.467,390.593,253.202,395.581,248.869,396.289C227.769,400.327,231.168,405.960,211.149,408.235C206.785,408.563,192.682,406.635,189.876,404.681C183.043,398.648,186.221,388.824,187.526,380.144C190.302,365.693,190.593,355.623,191.427,340.038C192.181,323.962,194.088,306.768,194.088,290.134C193.755,284.145,190.429,269.839,191.093,266.179Z"/>
</g>
<g id="neck">
<path class="path-0" d="M229.021,222.597C229.354,219.269,230.353,216.275,234.012,215.942C245.656,213.946,244.657,251.542,234.012,251.542C224.031,251.542,228.356,228.917,229.021,222.597M234.012,206.628C231.351,206.295,228.357,206.959,226.027,208.291C216.711,212.948,218.042,221.599,218.042,230.248C217.708,234.574,218.042,238.567,216.046,242.226C214.383,245.553,209.724,248.879,209.724,252.540C210.057,262.521,237.006,262.521,243.993,262.188C246.653,262.187,255.636,263.185,256.634,259.526C256.634,258.528,249.981,246.883,248.983,242.226C245.989,228.252,255.305,207.626,234.012,206.628Z"/>
<path class="path-15" d="M234.012,215.942C245.656,213.946,244.657,251.542,234.012,251.542"/>
<path class="path-15" d="M234.012,251.542C224.031,251.542,228.356,228.917,229.021,222.597"/>
<path class="path-15" d="M229.021,222.597C229.354,219.269,230.353,216.275,234.012,215.942"/>
<path class="path-16" d="M234.012,215.942C245.656,213.946,244.657,251.542,234.012,251.542C224.031,251.542,228.356,228.917,229.021,222.597C229.354,219.269,230.353,216.275,234.012,215.942Z"/>
</g>
<g id="layer_head">
<g id="right_ear">
<path class="path-0" d="M145.988,194.244C134.970,196.318,119.987,159.500,135.640,163.311C140.512,164.486,143.143,173.139,144.085,176.839C145.728,182.908,153.549,192.861,145.988,194.244M141.819,151.346C138.441,149.448,134.354,148.581,130.857,150.248C121.098,153.117,117.471,165.199,119.086,175.294C121.212,187.724,132.851,202.973,144.212,205.852C147.368,206.668,153.881,208.925,156.995,207.457C163.552,203.856,158.604,193.635,156.859,188.029C154.927,181.308,147.024,155.573,141.819,151.346Z"/>
<path class="path-15" d="M135.640,163.311C140.512,164.486,143.143,173.139,144.085,176.839"/>
<path class="path-15" d="M144.085,176.839C145.728,182.908,153.549,192.861,145.988,194.244"/>
<path class="path-15" d="M145.988,194.244C134.970,196.318,119.987,159.500,135.640,163.311"/>
<path class="path-16" d="M135.640,163.311C140.512,164.486,143.143,173.139,144.085,176.839C145.728,182.908,153.549,192.861,145.988,194.244C134.970,196.318,119.987,159.500,135.640,163.311Z"/>
</g>
<g id="face_Mask">
<g id="face">
<path class="path-0" d="M159.157,105.222C167.643,94.773,200.412,87.588,214.052,85.592C229.356,83.596,244.992,85.925,259.964,90.582C265.288,92.247,273.043,94.115,277.596,97.902C285.103,104.194,288.849,115.604,291.475,124.641C293.536,131.106,297.540,139.508,296.234,145.785C290.583,172.946,284.787,185.086,279.660,192.808C273.053,202.760,260.848,207.061,250.238,212.324C234.086,220.050,217.427,224.555,208.629,224.117C196.218,223.499,169.738,215.250,161.264,206.902C153.745,199.215,153.582,188.531,151.364,178.475C149.180,169.850,146.463,156.660,145.463,148.000C144.350,136.825,152.172,113.743,159.157,105.222M281.614,90.226C268.080,77.913,231.729,75.195,214.095,77.839C205.775,78.829,197.789,79.488,190.136,81.479C184.476,83.141,179.481,85.799,174.154,87.462C162.507,91.786,157.696,90.348,149.866,101.112C144.242,108.647,136.310,138.288,136.427,147.531C136.638,154.517,140.038,171.057,141.443,179.072C143.027,188.420,145.009,201.247,149.964,208.935C154.266,215.404,160.024,220.004,169.896,224.592C182.130,230.278,196.279,234.075,210.114,235.359C218.448,236.650,234.680,232.124,256.468,220.975C267.952,214.917,279.533,208.206,287.085,196.587C295.206,184.091,302.128,166.545,307.563,145.395C312.707,125.374,289.931,97.631,281.614,90.226Z"/>
<path class="path-15" d="M214.052,85.592C229.356,83.596,244.992,85.925,259.964,90.582"/>
<path class="path-15" d="M259.964,90.582C265.288,92.247,273.043,94.115,277.596,97.902"/>
<path class="path-15" d="M277.596,97.902C285.103,104.194,288.849,115.604,291.475,124.641"/>
<path class="path-15" d="M291.475,124.641C293.536,131.106,297.540,139.508,296.234,145.785"/>
<path class="path-15" d="M296.234,145.785C290.583,172.946,284.787,185.086,279.660,192.808"/>
<path class="path-15" d="M279.660,192.808C273.053,202.760,260.848,207.061,250.238,212.324"/>
<path class="path-15" d="M250.238,212.324C234.086,220.050,217.427,224.555,208.629,224.117"/>
<path class="path-15" d="M208.629,224.117C196.218,223.499,169.738,215.250,161.264,206.902"/>
<path class="path-15" d="M161.264,206.902C153.745,199.215,153.582,188.531,151.364,178.475"/>
<path class="path-15" d="M151.364,178.475C149.180,169.850,146.463,156.660,145.463,148.000"/>
<path class="path-15" d="M145.463,148.000C144.350,136.825,152.172,113.743,159.157,105.222"/>
<path class="path-15" d="M159.157,105.222C167.643,94.773,200.412,87.588,214.052,85.592"/>
<path class="path-16" d="M214.052,85.592C229.356,83.596,244.992,85.925,259.964,90.582C265.288,92.247,273.043,94.115,277.596,97.902C285.103,104.194,288.849,115.604,291.475,124.641C293.536,131.106,297.540,139.508,296.234,145.785C290.583,172.946,284.787,185.086,279.660,192.808C273.053,202.760,260.848,207.061,250.238,212.324C234.086,220.050,217.427,224.555,208.629,224.117C196.218,223.499,169.738,215.250,161.264,206.902C153.745,199.215,153.582,188.531,151.364,178.475C149.180,169.850,146.463,156.660,145.463,148.000C144.350,136.825,152.172,113.743,159.157,105.222C167.643,94.773,200.412,87.588,214.052,85.592Z"/>
</g>
</g>
<mask id="mask_target" style="mask-type:alpha;">
<use xlink:href="#face_Mask"/>
</mask>
<g id="mouse">
<path class="path-0" d="M211.002,214.423C216.206,215.527,216.289,220.280,215.816,220.787C215.548,221.073,214.426,220.122,211.466,219.635C205.860,218.713,203.154,219.886,202.957,219.172C202.740,218.389,204.909,213.131,211.002,214.423Z"/>
</g>
<g id="layer_eyes_Mtarget" mask="url(#mask_target)">
<g id="eyes">
<mask style="mask-type:alpha;" id="f3906406-f197-4bf1-91d8-744c09cca836">
<use xlink:href="#cmn_f3906406-f197-4bf1-91d8-744c09cca836"/>
</mask>
<g id="cmn_f3906406-f197-4bf1-91d8-744c09cca836">
<path class="path-0" d="M180.656,175.172C183.008,184.625,176.846,192.299,169.994,192.009C164.381,191.674,161.040,185.757,159.310,180.215C158.109,176.846,154.000,160.921,158.482,163.450C161.210,164.989,179.929,172.250,180.656,175.172M188.051,178.474C188.628,176.907,189.370,174.542,188.829,172.962C188.307,171.437,186.619,169.341,184.989,169.205C180.714,168.752,166.812,160.896,161.503,158.685C157.523,157.091,147.242,150.843,143.908,154.190C139.589,158.405,145.891,161.674,147.980,169.824C151.505,183.568,163.082,199.743,173.500,198.505C184.357,197.214,185.485,185.444,188.051,178.474M231.854,189.460C224.485,189.259,214.484,183.699,214.825,172.218C214.922,168.955,228.317,164.256,234.328,161.275C240.580,158.176,252.475,151.918,255.672,152.027C259.164,152.567,257.630,155.611,257.709,165.266C257.788,174.961,244.856,189.814,231.854,189.460M264.636,171.585C268.463,159.784,268.121,143.482,265.807,142.377C260.611,139.894,246.952,149.303,239.014,152.630C229.249,156.724,213.638,165.511,206.926,167.334C204.786,167.999,202.834,168.476,202.489,169.989C201.843,172.819,207.087,174.968,208.941,177.202C211.980,180.864,213.616,187.046,218.564,189.812C228.976,196.063,236.593,194.799,248.487,190.500C255.950,187.823,262.423,178.410,264.636,171.585Z"/>
<path class="path-17" d="M255.672,152.027C259.164,152.567,257.630,155.611,257.709,165.266"/>
<path class="path-17" d="M257.709,165.266C257.788,174.961,244.856,189.814,231.854,189.460"/>
<path class="path-17" d="M231.854,189.460C224.485,189.259,214.484,183.699,214.825,172.218"/>
<path class="path-17" d="M214.825,172.218C214.922,168.955,228.317,164.256,234.328,161.275"/>
<path class="path-17" d="M234.328,161.275C240.580,158.176,252.475,151.918,255.672,152.027"/>
<path class="path-18" d="M255.672,152.027C259.164,152.567,257.630,155.611,257.709,165.266C257.788,174.961,244.856,189.814,231.854,189.460C224.485,189.259,214.484,183.699,214.825,172.218C214.922,168.955,228.317,164.256,234.328,161.275C240.580,158.176,252.475,151.918,255.672,152.027Z"/>
<path class="path-17" d="M158.482,163.450C161.210,164.989,179.929,172.250,180.656,175.172"/>
<path class="path-17" d="M180.656,175.172C183.008,184.625,176.846,192.299,169.994,192.009"/>
<path class="path-17" d="M169.994,192.009C164.381,191.674,161.040,185.757,159.310,180.215"/>
<path class="path-17" d="M159.310,180.215C158.109,176.846,154.000,160.921,158.482,163.450"/>
<path class="path-18" d="M158.482,163.450C161.210,164.989,179.929,172.250,180.656,175.172C183.008,184.625,176.846,192.299,169.994,192.009C164.381,191.674,161.040,185.757,159.310,180.215C158.109,176.846,154.000,160.921,158.482,163.450Z"/>
</g>
</g>
<g id="pupil">
<path class="path-0" d="M215.611,166.687C218.002,166.123,220.761,169.803,221.424,178.638C221.847,184.271,220.715,186.558,219.169,186.805C217.281,187.106,215.624,184.432,214.341,177.655C212.971,170.423,213.625,167.156,215.611,166.687Z" mask="url(#f3906406-f197-4bf1-91d8-744c09cca836)"/>
<path class="path-0" d="M160.332,167.267C162.458,166.857,164.134,170.258,165.503,178.208C166.501,184.006,166.292,186.602,164.765,187.002C163.227,187.405,161.473,185.314,159.804,179.631C157.479,171.715,158.157,167.686,160.332,167.267Z" mask="url(#f3906406-f197-4bf1-91d8-744c09cca836)"/>
</g>
</g>
<g id="hat">
<path class="path-0" d="M296.956,126.798C299.123,127.829,301.885,130.450,302.303,133.101C303.881,139.560,292.771,139.679,289.351,140.076C283.063,140.176,276.496,139.741,270.491,139.537C264.612,139.870,258.718,139.695,252.830,139.796C239.141,138.967,225.520,137.433,211.833,136.611C198.698,136.340,186.036,135.617,172.464,135.312C170.744,135.318,142.592,138.275,137.503,135.988C126.547,131.181,136.817,122.236,136.192,116.993C136.066,113.998,129.738,113.207,131.286,108.007C132.697,103.528,148.080,99.371,152.754,98.253C163.937,95.515,175.578,92.481,187.520,91.104C203.120,89.388,218.452,90.367,234.239,89.737C251.623,89.133,288.795,94.175,301.224,111.147C307.858,120.039,289.871,112.240,287.901,111.848C281.281,109.039,256.379,99.532,266.672,110.567C272.299,117.861,289.668,122.588,296.956,126.798M181.849,84.225C170.741,85.515,160.555,86.203,150.087,88.454C145.848,89.354,140.879,91.136,136.838,90.304C128.038,88.613,139.316,66.186,143.257,61.090C158.050,42.440,188.125,33.074,213.138,33.691C259.327,34.831,277.218,44.036,291.405,60.548C295.876,65.375,310.574,88.684,301.466,94.653C298.171,96.517,292.291,92.965,289.416,91.569C279.439,86.985,225.810,79.121,181.849,84.225M256.067,29.646C242.814,26.499,236.474,22.131,220.843,22.555C189.868,23.700,151.179,29.096,132.325,57.835C126.396,67.097,125.351,77.536,122.804,87.447C120.885,94.774,116.214,100.200,116.585,107.677C117.143,114.941,120.644,116.672,122.344,122.424C124.340,128.553,121.862,131.150,122.989,135.139C125.060,146.553,135.556,147.300,145.147,147.722C149.832,147.930,167.133,147.620,176.556,147.580C187.756,147.533,202.690,147.360,213.890,147.432C223.929,147.496,237.311,147.946,247.350,147.987C256.638,148.025,269.034,148.219,278.309,147.734C287.826,147.236,308.793,145.787,309.929,144.671C311.838,142.830,316.187,124.551,316.428,121.105C316.687,117.385,315.059,113.549,315.567,107.583C316.371,94.651,317.104,82.872,311.338,70.023C300.837,47.158,277.228,35.033,256.067,29.646Z"/>
<path class="path-19" d="M234.239,89.737C251.623,89.133,288.795,94.175,301.224,111.147"/>
<path class="path-19" d="M301.224,111.147C307.858,120.039,289.871,112.240,287.901,111.848"/>
<path class="path-19" d="M287.901,111.848C281.281,109.039,256.379,99.532,266.672,110.567"/>
<path class="path-19" d="M266.672,110.567C272.299,117.861,289.668,122.588,296.956,126.798"/>
<path class="path-19" d="M296.956,126.798C299.123,127.829,301.885,130.450,302.303,133.101"/>
<path class="path-19" d="M302.303,133.101C303.881,139.560,292.771,139.679,289.351,140.076"/>
<path class="path-19" d="M289.351,140.076C283.063,140.176,276.496,139.741,270.491,139.537"/>
<path class="path-19" d="M270.491,139.537C264.612,139.870,258.718,139.695,252.830,139.796"/>
<path class="path-19" d="M252.830,139.796C239.141,138.967,225.520,137.433,211.833,136.611"/>
<path class="path-19" d="M211.833,136.611C198.698,136.340,186.036,135.617,172.464,135.312"/>
<path class="path-19" d="M172.464,135.312C170.744,135.318,142.592,138.275,137.503,135.988"/>
<path class="path-19" d="M137.503,135.988C126.547,131.181,136.817,122.236,136.192,116.993"/>
<path class="path-19" d="M136.192,116.993C136.066,113.998,129.738,113.207,131.286,108.007"/>
<path class="path-19" d="M131.286,108.007C132.697,103.528,148.080,99.371,152.754,98.253"/>
<path class="path-19" d="M152.754,98.253C163.937,95.515,175.578,92.481,187.520,91.104"/>
<path class="path-19" d="M187.520,91.104C203.120,89.388,218.452,90.367,234.239,89.737"/>
<path class="path-20" d="M234.239,89.737C251.623,89.133,288.795,94.175,301.224,111.147C307.858,120.039,289.871,112.240,287.901,111.848C281.281,109.039,256.379,99.532,266.672,110.567C272.299,117.861,289.668,122.588,296.956,126.798C299.123,127.829,301.885,130.450,302.303,133.101C303.881,139.560,292.771,139.679,289.351,140.076C283.063,140.176,276.496,139.741,270.491,139.537C264.612,139.870,258.718,139.695,252.830,139.796C239.141,138.967,225.520,137.433,211.833,136.611C198.698,136.340,186.036,135.617,172.464,135.312C170.744,135.318,142.592,138.275,137.503,135.988C126.547,131.181,136.817,122.236,136.192,116.993C136.066,113.998,129.738,113.207,131.286,108.007C132.697,103.528,148.080,99.371,152.754,98.253C163.937,95.515,175.578,92.481,187.520,91.104C203.120,89.388,218.452,90.367,234.239,89.737Z"/>
<path class="path-9" d="M213.138,33.691C259.327,34.831,277.218,44.036,291.405,60.548"/>
<path class="path-9" d="M291.405,60.548C295.876,65.375,310.574,88.684,301.466,94.653"/>
<path class="path-9" d="M301.466,94.653C298.171,96.517,292.291,92.965,289.416,91.569"/>
<path class="path-9" d="M289.416,91.569C279.439,86.985,225.810,79.121,181.849,84.225"/>
<path class="path-9" d="M181.849,84.225C170.741,85.515,160.555,86.203,150.087,88.454"/>
<path class="path-9" d="M150.087,88.454C145.848,89.354,140.879,91.136,136.838,90.304"/>
<path class="path-9" d="M136.838,90.304C128.038,88.613,139.316,66.186,143.257,61.090"/>
<path class="path-9" d="M143.257,61.090C158.050,42.440,188.125,33.074,213.138,33.691"/>
<path class="path-10" d="M213.138,33.691C259.327,34.831,277.218,44.036,291.405,60.548C295.876,65.375,310.574,88.684,301.466,94.653C298.171,96.517,292.291,92.965,289.416,91.569C279.439,86.985,225.810,79.121,181.849,84.225C170.741,85.515,160.555,86.203,150.087,88.454C145.848,89.354,140.879,91.136,136.838,90.304C128.038,88.613,139.316,66.186,143.257,61.090C158.050,42.440,188.125,33.074,213.138,33.691Z"/>
</g>
<g id="left_ear">
<path class="path-0" d="M283.575,185.373C282.103,180.470,284.935,154.381,287.241,150.509C292.990,140.548,310.393,149.378,314.067,157.580C318.049,166.983,308.656,182.121,300.835,188.687C293.182,194.915,286.128,193.536,283.575,185.373M327.374,160.755C325.685,146.279,308.024,131.497,295.258,138.285C279.650,146.583,285.969,169.591,283.897,184.076C283.469,187.760,281.047,191.620,281.946,195.032C284.442,205.180,295.201,206.015,303.747,197.851C313.059,188.772,328.558,174.524,327.374,160.755Z"/>
<path class="path-15" d="M287.241,150.509C292.990,140.548,310.393,149.378,314.067,157.580"/>
<path class="path-15" d="M314.067,157.580C318.049,166.983,308.656,182.121,300.835,188.687"/>
<path class="path-15" d="M300.835,188.687C293.182,194.915,286.128,193.536,283.575,185.373"/>
<path class="path-15" d="M283.575,185.373C282.103,180.470,284.935,154.381,287.241,150.509"/>
<path class="path-16" d="M287.241,150.509C292.990,140.548,310.393,149.378,314.067,157.580C318.049,166.983,308.656,182.121,300.835,188.687C293.182,194.915,286.128,193.536,283.575,185.373C282.103,180.470,284.935,154.381,287.241,150.509Z"/>
</g>
<g id="earrings">
<path class="path-0" d="M305.712,206.110C296.948,209.972,295.094,191.303,298.632,191.643C303.593,193.345,310.626,202.102,305.712,206.110M315.151,197.792C308.446,198.107,305.389,189.087,304.861,185.248C312.423,186.921,321.931,192.551,315.151,197.792M325.332,193.980C322.773,185.894,310.708,181.240,302.883,178.010C300.001,176.821,292.232,187.069,291.907,190.333C290.879,194.365,293.193,216.334,306.888,213.541C312.565,212.120,327.392,200.488,325.332,193.980Z"/>
<path class="path-21" d="M304.861,185.248C312.423,186.921,321.931,192.551,315.151,197.792"/>
<path class="path-21" d="M315.151,197.792C308.446,198.107,305.389,189.087,304.861,185.248"/>
<path class="path-22" d="M304.861,185.248C312.423,186.921,321.931,192.551,315.151,197.792C308.446,198.107,305.389,189.087,304.861,185.248Z"/>
<path class="path-21" d="M298.632,191.643C303.593,193.345,310.626,202.102,305.712,206.110"/>
<path class="path-21" d="M305.712,206.110C296.948,209.972,295.094,191.303,298.632,191.643"/>
<path class="path-22" d="M298.632,191.643C303.593,193.345,310.626,202.102,305.712,206.110C296.948,209.972,295.094,191.303,298.632,191.643Z"/>
</g>
</g>
<g id="left_arm">
<path class="path-0" d="M291.927,458.784C296.619,452.428,303.577,459.782,312.353,464.707C314.474,465.876,325.539,463.348,327.167,465.181C330.193,468.262,325.616,474.021,321.510,475.113C311.360,477.323,286.221,466.691,291.927,458.784M279.516,276.423C280.393,273.226,288.864,263.064,293.897,264.184C296.819,264.834,298.222,269.839,299.220,272.502C301.881,280.818,304.543,289.469,306.872,298.119C313.194,320.741,315.951,343.746,322.177,365.988C324.557,375.449,328.107,387.253,331.268,395.931C334.412,404.253,338.386,402.992,340.474,408.573C341.548,411.669,341.140,417.224,343.136,421.881C346.130,429.201,351.785,433.194,354.446,437.851C356.111,440.512,356.473,442.570,353.117,444.173C350.967,446.093,345.105,449.220,342.776,450.325C334.862,451.787,326.614,453.678,318.713,452.178C309.867,450.885,286.047,440.748,281.892,434.659C274.454,423.338,284.745,410.777,286.191,399.924C286.829,396.913,292.136,352.988,291.567,350.019C291.026,343.153,287.387,337.131,285.841,330.057C284.214,320.430,282.539,310.147,281.179,300.115C280.223,291.877,276.733,285.067,279.516,276.423M305.541,254.536C303.213,249.877,295.893,241.561,289.904,242.890C284.914,244.222,284.249,250.210,283.582,254.203C281.920,264.184,279.924,272.502,279.924,282.149C279.590,289.136,280.257,295.458,280.921,302.111C281.586,311.427,279.590,329.392,279.924,340.038C279.924,349.686,282.253,359.667,281.586,367.985C279.590,387.613,271.273,406.246,271.938,425.874C271.939,435.855,274.600,435.855,276.929,443.840C278.592,449.828,277.263,456.150,279.590,461.805C285.579,476.776,302.880,490.416,319.847,487.091C335.483,484.096,336.150,467.129,344.466,458.146C351.786,450.161,366.424,454.154,368.420,445.835C370.416,438.849,360.367,431.452,357.110,425.874C351.049,416.189,357.301,414.376,354.862,406.937C353.099,401.443,347.531,395.632,343.964,388.972C341.576,385.233,338.629,378.718,336.563,373.973C332.744,364.200,329.358,352.763,327.194,342.034C324.978,329.754,324.371,318.753,320.845,306.103C318.031,295.497,310.200,262.852,305.541,254.536Z"/>
<path class="path-1" d="M293.897,264.184C296.819,264.834,298.222,269.839,299.220,272.502"/>
<path class="path-1" d="M299.220,272.502C301.881,280.818,304.543,289.469,306.872,298.119"/>
<path class="path-1" d="M306.872,298.119C313.194,320.741,315.951,343.746,322.177,365.988"/>
<path class="path-1" d="M322.177,365.988C324.557,375.449,328.107,387.253,331.268,395.931"/>
<path class="path-1" d="M331.268,395.931C334.412,404.253,338.386,402.992,340.474,408.573"/>
<path class="path-1" d="M340.474,408.573C341.548,411.669,341.140,417.224,343.136,421.881"/>
<path class="path-1" d="M343.136,421.881C346.130,429.201,351.785,433.194,354.446,437.851"/>
<path class="path-1" d="M354.446,437.851C356.111,440.512,356.473,442.570,353.117,444.173"/>
<path class="path-1" d="M353.117,444.173C350.967,446.093,345.105,449.220,342.776,450.325"/>
<path class="path-1" d="M342.776,450.325C334.862,451.787,326.614,453.678,318.713,452.178"/>
<path class="path-1" d="M318.713,452.178C309.867,450.885,286.047,440.748,281.892,434.659"/>
<path class="path-1" d="M281.892,434.659C274.454,423.338,284.745,410.777,286.191,399.924"/>
<path class="path-1" d="M286.191,399.924C286.829,396.913,292.136,352.988,291.567,350.019"/>
<path class="path-1" d="M291.567,350.019C291.026,343.153,287.387,337.131,285.841,330.057"/>
<path class="path-1" d="M285.841,330.057C284.214,320.430,282.539,310.147,281.179,300.115"/>
<path class="path-1" d="M281.179,300.115C280.223,291.877,276.733,285.067,279.516,276.423"/>
<path class="path-1" d="M279.516,276.423C280.393,273.226,288.864,263.064,293.897,264.184"/>
<path class="path-2" d="M293.897,264.184C296.819,264.834,298.222,269.839,299.220,272.502C301.881,280.818,304.543,289.469,306.872,298.119C313.194,320.741,315.951,343.746,322.177,365.988C324.557,375.449,328.107,387.253,331.268,395.931C334.412,404.253,338.386,402.992,340.474,408.573C341.548,411.669,341.140,417.224,343.136,421.881C346.130,429.201,351.785,433.194,354.446,437.851C356.111,440.512,356.473,442.570,353.117,444.173C350.967,446.093,345.105,449.220,342.776,450.325C334.862,451.787,326.614,453.678,318.713,452.178C309.867,450.885,286.047,440.748,281.892,434.659C274.454,423.338,284.745,410.777,286.191,399.924C286.829,396.913,292.136,352.988,291.567,350.019C291.026,343.153,287.387,337.131,285.841,330.057C284.214,320.430,282.539,310.147,281.179,300.115C280.223,291.877,276.733,285.067,279.516,276.423C280.393,273.226,288.864,263.064,293.897,264.184Z"/>
<path class="path-15" d="M312.353,464.707C314.474,465.876,325.539,463.348,327.167,465.181"/>
<path class="path-15" d="M327.167,465.181C330.193,468.262,325.616,474.021,321.510,475.113"/>
<path class="path-15" d="M321.510,475.113C311.360,477.323,286.221,466.691,291.927,458.784"/>
<path class="path-15" d="M291.927,458.784C296.619,452.428,303.577,459.782,312.353,464.707"/>
<path class="path-16" d="M312.353,464.707C314.474,465.876,325.539,463.348,327.167,465.181C330.193,468.262,325.616,474.021,321.510,475.113C311.360,477.323,286.221,466.691,291.927,458.784C296.619,452.428,303.577,459.782,312.353,464.707Z"/>
</g>
<g id="bone">
<g id="bone1_clothes">
<path class="path-23" d="M238.722,386.044C238.723,386.038,251.953,328.552,251.954,328.546C251.954,328.552,249.758,387.500,249.758,387.506C249.756,387.506,238.723,386.044,238.722,386.044"/>
</g>
<g id="bone2_clothes">
<path class="path-23" d="M232.647,327.868C232.647,327.860,230.804,255.357,230.804,255.350C230.806,255.357,246.315,326.206,246.317,326.213C246.316,326.213,232.649,327.867,232.647,327.868"/>
</g>
<g id="bone3_neck">
<path class="path-23" d="M237.748,253.718C237.748,253.713,232.188,212.386,232.187,212.382C232.187,212.386,231.161,254.073,231.161,254.078C231.162,254.078,237.748,253.718,237.748,253.718"/>
</g>
<g id="bone4_head">
<path class="path-23" d="M230.485,213.360C230.484,213.352,223.367,135.613,223.366,135.605C223.368,135.613,242.766,211.228,242.768,211.235C242.767,211.236,230.486,213.360,230.485,213.360"/>
</g>
<g id="bone5_left_arm">
<path class="path-23" d="M298.240,255.778C298.242,255.787,316.861,346.360,316.863,346.369C316.860,346.361,283.119,260.270,283.116,260.261C283.117,260.260,298.239,255.779,298.240,255.778"/>
</g>
<g id="bone6_left_arm">
<path class="path-23" d="M300.887,349.194C300.887,349.200,307.966,412.543,307.967,412.549C307.967,412.543,311.324,348.894,311.324,348.888C311.323,348.888,300.888,349.194,300.887,349.194"/>
</g>
<g id="bone7_right_arm">
<path class="path-23" d="M169.052,269.995C169.051,270.006,153.729,384.485,153.728,384.496C153.731,384.485,186.923,273.858,186.926,273.847C186.924,273.847,169.054,269.995,169.052,269.995"/>
</g>
<g id="bone8_right_arm">
<path class="path-23" d="M157.410,380.310C157.412,380.315,175.700,436.959,175.702,436.965C175.699,436.960,146.405,385.145,146.402,385.139C146.403,385.139,157.409,380.310,157.410,380.310"/>
</g>
<g id="bone9_left_leg">
<path class="path-23" d="M272.124,386.338C272.124,386.348,270.392,487.998,270.392,488.009C270.390,487.999,253.820,387.693,253.818,387.683C253.820,387.683,272.122,386.338,272.124,386.338"/>
</g>
<g id="bone10_right_leg">
<path class="path-23" d="M209.437,385.276C209.437,385.286,207.112,489.015,207.112,489.025C207.114,489.015,224.869,386.790,224.871,386.780C224.870,386.780,209.439,385.276,209.437,385.276"/>
</g>
<g id="bone11_hair">
<path class="path-23" d="M234.450,156.546C234.451,156.554,247.483,235.672,247.484,235.680C247.482,235.673,220.190,160.276,220.188,160.268C220.189,160.268,234.448,156.547,234.450,156.546"/>
</g>
<g id="bone12_left_leg_S">
<path class="path-23" d="M430.640,217.876C430.643,217.883,457.705,284.975,457.708,284.981C457.706,284.974,442.035,214.348,442.034,214.341C442.033,214.341,430.642,217.876,430.640,217.876"/>
</g>
<g id="bone13_right_leg_S">
<path class="path-23" d="M492.032,212.284C492.027,212.289,446.353,268.392,446.349,268.398C446.354,268.393,500.625,220.557,500.630,220.552C500.630,220.551,492.032,212.284,492.032,212.284"/>
</g>
<g id="bone14_left_arm_S">
<path class="path-23" d="M551.983,209.219C551.975,209.219,479.793,214.052,479.786,214.053C479.793,214.054,551.789,221.146,551.796,221.146C551.796,221.145,551.983,209.220,551.983,209.219"/>
</g>
<g id="bone15_jacket_S">
<path class="path-23" d="M598.590,215.460C598.592,215.467,612.631,286.436,612.632,286.443C612.632,286.436,610.444,214.125,610.444,214.117C610.443,214.118,598.592,215.460,598.590,215.460"/>
</g>
<g id="bone16_pupils_S">
<path class="path-23" d="M440.115,341.799C440.120,341.794,491.508,290.874,491.514,290.869C491.508,290.873,432.451,332.658,432.445,332.662C432.446,332.663,440.114,341.798,440.115,341.799"/>
</g>
<g id="bone17_eyelids_S">
<path class="path-23" d="M502.309,337.358C502.308,337.351,496.345,265.253,496.344,265.246C496.344,265.253,490.380,337.351,490.380,337.358C490.381,337.358,502.308,337.358,502.309,337.358"/>
</g>
<g id="bone18_face_S">
<path class="path-23" d="M556.551,342.557C556.555,342.551,596.249,282.069,596.253,282.063C596.248,282.068,547.157,335.206,547.152,335.212C547.153,335.212,556.550,342.556,556.551,342.557"/>
</g>
</g>
<g id="jacket">
<path class="path-0" d="M202.406,270.837C204.602,275.511,199.500,285.444,198.841,290.134C194.069,308.326,186.772,326.165,188.917,344.409C189.765,350.131,195.434,362.501,190.254,366.793C188.245,368.457,182.303,364.640,181.570,366.356C180.237,369.467,174.440,359.894,173.634,358.614C172.910,357.465,170.046,349.257,169.729,346.928C169.393,342.328,169.434,333.289,170.222,327.526C171.081,321.588,171.794,315.334,174.347,309.231C176.657,302.182,180.761,294.245,182.903,286.253C185.383,281.239,189.449,278.348,188.579,274.491C187.398,270.852,184.994,269.092,188.117,267.171C191.939,265.179,201.464,265.965,202.406,270.837M265.681,271.488C267.036,270.336,279.860,265.475,281.215,264.487C293.491,256.402,304.382,265.481,305.820,274.012C306.551,278.026,303.814,292.247,303.107,295.090C301.343,300.750,298.916,304.518,297.359,309.359C290.650,327.187,297.177,316.246,293.943,332.636C293.369,335.542,292.403,341.680,292.069,344.565C291.544,347.539,290.966,354.174,290.225,356.907C288.219,362.354,284.948,369.512,276.458,368.766C275.960,368.783,270.991,369.193,270.140,369.278C264.196,369.554,257.164,370.557,252.678,365.999C248.609,361.392,247.638,353.917,246.630,347.407C244.540,335.235,247.496,322.875,250.196,310.773C252.237,299.380,257.279,280.310,265.681,271.488M277.782,255.283C274.905,257.050,268.568,257.161,266.751,257.523C263.460,257.996,262.826,255.367,262.480,253.057C261.980,248.649,265.016,242.148,268.263,238.911C270.846,236.336,275.442,234.250,279.444,234.136C282.980,233.909,289.067,236.247,288.759,240.268C288.719,243.267,282.537,252.362,277.782,255.283M204.744,243.767C209.632,253.120,214.692,262.654,209.436,261.268C203.096,259.595,199.806,260.007,189.763,255.866C179.190,251.507,176.626,236.310,182.558,231.541C188.480,226.779,199.061,232.892,204.744,243.767M302.165,362.404C302.748,354.762,305.544,349.990,305.759,341.991C305.850,336.687,305.941,330.582,304.992,325.389C303.136,316.532,303.172,312.833,302.348,302.625C301.516,294.170,303.765,287.430,302.552,279.368C301.982,276.428,291.515,264.211,291.635,261.482C291.048,256.058,298.427,252.713,299.752,247.870C300.908,244.124,302.167,240.116,301.675,236.226C301.334,231.282,296.992,227.893,293.417,225.198C288.234,221.752,283.285,221.886,276.960,222.605C267.222,223.725,261.515,232.268,257.529,238.704C252.000,247.631,253.137,262.840,250.314,272.954C248.680,278.812,245.692,286.747,243.743,292.130C236.008,312.495,223.092,366.440,239.999,380.405C241.747,382.049,256.050,386.166,260.591,386.164C269.711,386.207,274.103,387.298,282.857,385.881C288.787,385.156,297.530,375.863,300.925,369.008C301.833,367.317,302.057,363.805,302.165,362.404M209.490,232.715C203.762,226.425,193.690,215.035,185.405,217.747C181.460,219.181,176.251,222.957,173.621,226.486C170.944,230.077,168.315,235.994,168.540,240.525C168.687,245.983,168.611,252.477,170.561,257.088C172.972,262.788,182.665,266.970,183.714,272.982C184.120,275.751,177.061,287.917,176.010,291.222C174.223,297.436,170.824,303.304,168.827,308.572C166.792,313.942,164.060,321.118,162.588,326.669C160.696,333.806,157.922,342.824,158.117,350.872C157.975,355.671,160.526,366.618,164.475,371.891C166.950,375.197,173.105,379.053,175.751,379.787C177.262,380.206,192.495,383.574,197.275,379.229C206.019,371.280,201.007,355.629,197.584,339.841C194.446,325.441,205.193,313.044,209.179,298.679C210.774,292.904,217.294,273.643,217.698,266.878C218.040,261.145,219.961,257.236,218.242,249.333C217.165,245.007,213.284,236.881,209.490,232.715Z"/>
<path class="path-1" d="M281.215,264.487C293.491,256.402,304.382,265.481,305.820,274.012"/>
<path class="path-1" d="M305.820,274.012C306.551,278.026,303.814,292.247,303.107,295.090"/>
<path class="path-1" d="M303.107,295.090C301.343,300.750,298.916,304.518,297.359,309.359"/>
<path class="path-1" d="M297.359,309.359C290.650,327.187,297.177,316.246,293.943,332.636"/>
<path class="path-1" d="M293.943,332.636C293.369,335.542,292.403,341.680,292.069,344.565"/>
<path class="path-1" d="M292.069,344.565C291.544,347.539,290.966,354.174,290.225,356.907"/>
<path class="path-1" d="M290.225,356.907C288.219,362.354,284.948,369.512,276.458,368.766"/>
<path class="path-1" d="M276.458,368.766C275.960,368.783,270.991,369.193,270.140,369.278"/>
<path class="path-1" d="M270.140,369.278C264.196,369.554,257.164,370.557,252.678,365.999"/>
<path class="path-1" d="M252.678,365.999C248.609,361.392,247.638,353.917,246.630,347.407"/>
<path class="path-1" d="M246.630,347.407C244.540,335.235,247.496,322.875,250.196,310.773"/>
<path class="path-1" d="M250.196,310.773C252.237,299.380,257.279,280.310,265.681,271.488"/>
<path class="path-1" d="M265.681,271.488C267.036,270.336,279.860,265.475,281.215,264.487"/>
<path class="path-2" d="M281.215,264.487C293.491,256.402,304.382,265.481,305.820,274.012C306.551,278.026,303.814,292.247,303.107,295.090C301.343,300.750,298.916,304.518,297.359,309.359C290.650,327.187,297.177,316.246,293.943,332.636C293.369,335.542,292.403,341.680,292.069,344.565C291.544,347.539,290.966,354.174,290.225,356.907C288.219,362.354,284.948,369.512,276.458,368.766C275.960,368.783,270.991,369.193,270.140,369.278C264.196,369.554,257.164,370.557,252.678,365.999C248.609,361.392,247.638,353.917,246.630,347.407C244.540,335.235,247.496,322.875,250.196,310.773C252.237,299.380,257.279,280.310,265.681,271.488C267.036,270.336,279.860,265.475,281.215,264.487Z"/>
<path class="path-1" d="M188.117,267.171C191.939,265.179,201.464,265.965,202.406,270.837"/>
<path class="path-1" d="M202.406,270.837C204.602,275.511,199.500,285.444,198.841,290.134"/>
<path class="path-1" d="M198.841,290.134C194.069,308.326,186.772,326.165,188.917,344.409"/>
<path class="path-1" d="M188.917,344.409C189.765,350.131,195.434,362.501,190.254,366.793"/>
<path class="path-1" d="M190.254,366.793C188.245,368.457,182.303,364.640,181.570,366.356"/>
<path class="path-1" d="M181.570,366.356C180.237,369.467,174.440,359.894,173.634,358.614"/>
<path class="path-1" d="M173.634,358.614C172.910,357.465,170.046,349.257,169.729,346.928"/>
<path class="path-1" d="M169.729,346.928C169.393,342.328,169.434,333.289,170.222,327.526"/>
<path class="path-1" d="M170.222,327.526C171.081,321.588,171.794,315.334,174.347,309.231"/>
<path class="path-1" d="M174.347,309.231C176.657,302.182,180.761,294.245,182.903,286.253"/>
<path class="path-1" d="M182.903,286.253C185.383,281.239,189.449,278.348,188.579,274.491"/>
<path class="path-1" d="M188.579,274.491C187.398,270.852,184.994,269.092,188.117,267.171"/>
<path class="path-2" d="M188.117,267.171C191.939,265.179,201.464,265.965,202.406,270.837C204.602,275.511,199.500,285.444,198.841,290.134C194.069,308.326,186.772,326.165,188.917,344.409C189.765,350.131,195.434,362.501,190.254,366.793C188.245,368.457,182.303,364.640,181.570,366.356C180.237,369.467,174.440,359.894,173.634,358.614C172.910,357.465,170.046,349.257,169.729,346.928C169.393,342.328,169.434,333.289,170.222,327.526C171.081,321.588,171.794,315.334,174.347,309.231C176.657,302.182,180.761,294.245,182.903,286.253C185.383,281.239,189.449,278.348,188.579,274.491C187.398,270.852,184.994,269.092,188.117,267.171Z"/>
<path class="path-1" d="M279.444,234.136C282.980,233.909,289.067,236.247,288.759,240.268"/>
<path class="path-1" d="M288.759,240.268C288.719,243.267,282.537,252.362,277.782,255.283"/>
<path class="path-1" d="M277.782,255.283C274.905,257.050,268.568,257.161,266.751,257.523"/>
<path class="path-1" d="M266.751,257.523C263.460,257.996,262.826,255.367,262.480,253.057"/>
<path class="path-1" d="M262.480,253.057C261.980,248.649,265.016,242.148,268.263,238.911"/>
<path class="path-1" d="M268.263,238.911C270.846,236.336,275.442,234.250,279.444,234.136"/>
<path class="path-2" d="M279.444,234.136C282.980,233.909,289.067,236.247,288.759,240.268C288.719,243.267,282.537,252.362,277.782,255.283C274.905,257.050,268.568,257.161,266.751,257.523C263.460,257.996,262.826,255.367,262.480,253.057C261.980,248.649,265.016,242.148,268.263,238.911C270.846,236.336,275.442,234.250,279.444,234.136Z"/>
<path class="path-1" d="M204.744,243.767C209.632,253.120,214.692,262.654,209.436,261.268"/>
<path class="path-1" d="M209.436,261.268C203.096,259.595,199.806,260.007,189.763,255.866"/>
<path class="path-1" d="M189.763,255.866C179.190,251.507,176.626,236.310,182.558,231.541"/>
<path class="path-1" d="M182.558,231.541C188.480,226.779,199.061,232.892,204.744,243.767"/>
<path class="path-2" d="M204.744,243.767C209.632,253.120,214.692,262.654,209.436,261.268C203.096,259.595,199.806,260.007,189.763,255.866C179.190,251.507,176.626,236.310,182.558,231.541C188.480,226.779,199.061,232.892,204.744,243.767Z"/>
</g>
</g>
<style>
.path-0{fill:#000000;fill-rule:evenodd;stroke:none;}
.path-1{fill:none;stroke:#a60d3f;stroke-width:1;stroke-linecap:butt;stroke-linejoin:round;}
.path-2{fill:#a60d3f;fill-rule:evenodd;stroke:none;}
.path-3{fill:none;stroke:#d88e4b;stroke-width:1;stroke-linecap:butt;stroke-linejoin:round;}
.path-4{fill:#d88e4b;fill-rule:evenodd;stroke:none;}
.path-5{fill:none;stroke:#6e2353;stroke-width:1;stroke-linecap:butt;stroke-linejoin:round;}
.path-6{fill:#6e2353;fill-rule:evenodd;stroke:none;}
.path-7{fill:none;stroke:#392966;stroke-width:1;stroke-linecap:butt;stroke-linejoin:round;}
.path-8{fill:#392966;fill-rule:evenodd;stroke:none;}
.path-9{fill:none;stroke:#cc9bc5;stroke-width:1;stroke-linecap:butt;stroke-linejoin:round;}
.path-10{fill:#cc9bc5;fill-rule:evenodd;stroke:none;}
.path-11{fill:none;stroke:#620527;stroke-width:1;stroke-linecap:butt;stroke-linejoin:round;}
.path-12{fill:#620527;fill-rule:evenodd;stroke:none;}
.path-13{fill:none;stroke:#6a3661;stroke-width:1;stroke-linecap:butt;stroke-linejoin:round;}
.path-14{fill:#6a3661;fill-rule:evenodd;stroke:none;}
.path-15{fill:none;stroke:#f8a087;stroke-width:1;stroke-linecap:butt;stroke-linejoin:round;}
.path-16{fill:#f8a087;fill-rule:evenodd;stroke:none;}
.path-17{fill:none;stroke:#ffffff;stroke-width:1;stroke-linecap:butt;stroke-linejoin:round;}
.path-18{fill:#ffffff;fill-rule:evenodd;stroke:none;}
.path-19{fill:none;stroke:#d89f4a;stroke-width:1;stroke-linecap:butt;stroke-linejoin:round;}
.path-20{fill:#d89f4a;fill-rule:evenodd;stroke:none;}
.path-21{fill:none;stroke:#fafd5b;stroke-width:1;stroke-linecap:butt;stroke-linejoin:round;}
.path-22{fill:#fafd5b;fill-rule:evenodd;stroke:none;}
.path-23{fill:none;stroke:#00ff42;stroke-width:8;stroke-linecap:round;stroke-linejoin:round;}
.path-24{fill:none;stroke:#000000;stroke-width:1;stroke-linecap:butt;stroke-linejoin:round;}
.path-25{fill:none;stroke:#ececec;stroke-width:1;stroke-linecap:butt;stroke-linejoin:round;}
.path-26{fill:#ececec;fill-rule:evenodd;stroke:none;}
</style>
</svg>
