<svg version="1.1" id="Frame_217" xmlns="http://www.w3.org/2000/svg" xmlns:xlink="http://www.w3.org/1999/xlink" width="480px" height="720px">
<g id="main_bone">
<g id="right_arm">
<path class="path-0" d="M174.126,270.172C175.458,267.511,178.075,262.017,181.778,260.525C188.182,257.943,193.652,263.933,194.431,268.509C196.093,276.447,190.936,287.396,188.470,295.289C182.390,314.329,175.637,333.084,171.132,352.015C170.600,355.317,165.808,376.634,165.808,373.973C165.476,380.626,172.130,386.283,174.459,391.939C177.454,399.590,174.791,406.910,172.795,413.897C168.138,428.535,168.471,433.858,167.804,448.165C167.804,450.492,167.473,458.146,163.812,458.146C160.487,458.146,160.153,452.157,159.488,449.828C159.155,447.167,156.825,441.510,157.492,439.182C157.823,435.190,162.483,436.188,157.492,427.870C151.170,417.555,139.526,409.240,136.532,395.931C134.536,385.285,140.191,375.969,143.186,365.988C149.508,344.695,156.494,323.404,163.812,302.111C167.805,291.132,168.802,281.484,174.126,270.172M193.754,262.188C193.755,253.538,190.761,245.885,180.115,249.546C163.481,255.200,158.822,281.484,154.165,296.122C147.512,316.084,141.855,336.046,136.199,356.007C133.870,364.657,130.544,368.982,129.212,373.973C127.549,379.628,127.881,388.280,128.214,393.935C128.214,411.567,133.869,412.234,140.856,425.874C144.517,433.859,140.525,438.849,142.852,445.835C144.517,450.492,148.176,453.820,150.837,457.813C153.166,461.805,153.499,464.135,155.162,467.793C157.158,472.119,163.481,481.767,169.136,479.771C173.793,478.108,173.793,469.790,174.126,465.797C174.459,459.809,178.119,436.853,179.450,429.866C181.778,418.554,187.435,406.245,185.770,393.935C184.440,384.619,176.122,377.965,176.456,367.985C176.787,362.661,180.115,354.011,181.113,348.023C182.776,338.375,182.776,328.061,184.772,318.081C188.099,300.448,194.421,280.487,193.754,262.188Z"/>
<path class="path-1" d="M181.778,260.525C188.182,257.943,193.652,263.933,194.431,268.509"/>
<path class="path-1" d="M194.431,268.509C196.093,276.447,190.936,287.396,188.470,295.289"/>
<path class="path-1" d="M188.470,295.289C182.390,314.329,175.637,333.084,171.132,352.015"/>
<path class="path-1" d="M171.132,352.015C170.600,355.317,165.808,376.634,165.808,373.973"/>
<path class="path-1" d="M165.808,373.973C165.476,380.626,172.130,386.283,174.459,391.939"/>
<path class="path-1" d="M174.459,391.939C177.454,399.590,174.791,406.910,172.795,413.897"/>
<path class="path-1" d="M172.795,413.897C168.138,428.535,168.471,433.858,167.804,448.165"/>
<path class="path-1" d="M167.804,448.165C167.804,450.492,167.473,458.146,163.812,458.146"/>
<path class="path-1" d="M163.812,458.146C160.487,458.146,160.153,452.157,159.488,449.828"/>
<path class="path-1" d="M159.488,449.828C159.155,447.167,156.825,441.510,157.492,439.182"/>
<path class="path-1" d="M157.492,439.182C157.823,435.190,162.483,436.188,157.492,427.870"/>
<path class="path-1" d="M157.492,427.870C151.170,417.555,139.526,409.240,136.532,395.931"/>
<path class="path-1" d="M136.532,395.931C134.536,385.285,140.191,375.969,143.186,365.988"/>
<path class="path-1" d="M143.186,365.988C149.508,344.695,156.494,323.404,163.812,302.111"/>
<path class="path-1" d="M163.812,302.111C167.805,291.132,168.802,281.484,174.126,270.172"/>
<path class="path-1" d="M174.126,270.172C175.458,267.511,178.075,262.017,181.778,260.525"/>
<path class="path-2" d="M181.778,260.525C188.182,257.943,193.652,263.933,194.431,268.509C196.093,276.447,190.936,287.396,188.470,295.289C182.390,314.329,175.637,333.084,171.132,352.015C170.600,355.317,165.808,376.634,165.808,373.973C165.476,380.626,172.130,386.283,174.459,391.939C177.454,399.590,174.791,406.910,172.795,413.897C168.138,428.535,168.471,433.858,167.804,448.165C167.804,450.492,167.473,458.146,163.812,458.146C160.487,458.146,160.153,452.157,159.488,449.828C159.155,447.167,156.825,441.510,157.492,439.182C157.823,435.190,162.483,436.188,157.492,427.870C151.170,417.555,139.526,409.240,136.532,395.931C134.536,385.285,140.191,375.969,143.186,365.988C149.508,344.695,156.494,323.404,163.812,302.111C167.805,291.132,168.802,281.484,174.126,270.172C175.458,267.511,178.075,262.017,181.778,260.525Z"/>
</g>
<g id="layer_left_leg">
<g id="left_heel">
<path class="path-0" d="M255.453,624.650C248.336,613.151,262.375,593.784,273.671,591.497C290.890,587.815,303.443,613.674,301.293,619.848C297.735,629.117,281.651,629.593,273.189,629.703C268.558,629.611,257.716,628.489,255.453,624.650M301.625,590.434C291.966,580.826,269.735,582.579,258.888,588.598C235.363,601.050,230.194,643.481,264.915,642.129C276.490,641.735,301.957,639.351,308.796,631.994C314.739,626.361,312.802,617.114,310.970,609.681C309.098,603.651,306.171,595.087,301.625,590.434Z"/>
<path class="path-3" d="M273.671,591.497C290.890,587.815,303.443,613.674,301.293,619.848"/>
<path class="path-3" d="M301.293,619.848C297.735,629.117,281.651,629.593,273.189,629.703"/>
<path class="path-3" d="M273.189,629.703C268.558,629.611,257.716,628.489,255.453,624.650"/>
<path class="path-3" d="M255.453,624.650C248.336,613.151,262.375,593.784,273.671,591.497"/>
<path class="path-4" d="M273.671,591.497C290.890,587.815,303.443,613.674,301.293,619.848C297.735,629.117,281.651,629.593,273.189,629.703C268.558,629.611,257.716,628.489,255.453,624.650C248.336,613.151,262.375,593.784,273.671,591.497Z"/>
</g>
<g id="left_leg">
<path class="path-0" d="M238.898,405.789C240.604,401.168,250.097,404.773,253.973,404.581C259.765,404.574,272.784,402.632,277.518,406.163C286.403,412.338,288.912,442.199,289.372,452.598C289.867,484.215,291.685,513.857,292.174,544.388C292.126,550.408,292.129,556.623,291.992,562.525C292.083,567.457,289.600,574.107,293.014,577.265C294.518,579.245,299.426,576.791,299.788,579.067C300.571,587.257,292.063,583.065,288.031,587.306C280.530,594.728,266.264,601.262,257.005,598.798C250.701,597.345,239.986,590.229,237.529,584.338C235.252,578.875,233.690,572.242,232.665,566.528C227.756,539.163,243.818,484.968,237.006,451.484C233.305,433.292,241.135,431.317,249.421,419.240C250.855,417.150,238.419,419.217,236.730,417.280C234.488,415.091,237.683,408.599,238.898,405.789M284.859,397.199C278.589,392.465,261.255,394.471,253.973,394.933C249.900,395.176,237.105,392.301,234.118,394.182C216.531,405.262,223.262,444.589,225.380,461.404C225.667,466.262,225.044,489.476,224.765,496.020C225.203,523.200,218.906,546.454,220.715,573.578C221.102,580.827,220.764,587.993,223.339,594.674C230.433,612.702,247.164,615.768,269.373,614.596C280.961,613.992,306.715,608.647,315.512,586.977C318.915,578.586,313.746,567.081,312.508,564.275C310.391,559.477,307.227,554.789,306.064,549.290C301.685,531.622,308.438,512.936,307.157,494.673C305.539,471.277,304.586,412.161,284.859,397.199Z"/>
<path class="path-7" d="M253.973,404.581C259.765,404.574,272.784,402.632,277.518,406.163"/>
<path class="path-7" d="M277.518,406.163C286.403,412.338,288.912,442.199,289.372,452.598"/>
<path class="path-7" d="M289.372,452.598C289.867,484.215,291.685,513.857,292.174,544.388"/>
<path class="path-7" d="M292.174,544.388C292.126,550.408,292.129,556.623,291.992,562.525"/>
<path class="path-7" d="M291.992,562.525C292.083,567.457,289.600,574.107,293.014,577.265"/>
<path class="path-7" d="M293.014,577.265C294.518,579.245,299.426,576.791,299.788,579.067"/>
<path class="path-7" d="M299.788,579.067C300.571,587.257,292.063,583.065,288.031,587.306"/>
<path class="path-7" d="M288.031,587.306C280.530,594.728,266.264,601.262,257.005,598.798"/>
<path class="path-7" d="M257.005,598.798C250.701,597.345,239.986,590.229,237.529,584.338"/>
<path class="path-7" d="M237.529,584.338C235.252,578.875,233.690,572.242,232.665,566.528"/>
<path class="path-7" d="M232.665,566.528C227.756,539.163,243.818,484.968,237.006,451.484"/>
<path class="path-7" d="M237.006,451.484C233.305,433.292,241.135,431.317,249.421,419.240"/>
<path class="path-7" d="M249.421,419.240C250.855,417.150,238.419,419.217,236.730,417.280"/>
<path class="path-7" d="M236.730,417.280C234.488,415.091,237.683,408.599,238.898,405.789"/>
<path class="path-7" d="M238.898,405.789C240.604,401.168,250.097,404.773,253.973,404.581"/>
<path class="path-8" d="M253.973,404.581C259.765,404.574,272.784,402.632,277.518,406.163C286.403,412.338,288.912,442.199,289.372,452.598C289.867,484.215,291.685,513.857,292.174,544.388C292.126,550.408,292.129,556.623,291.992,562.525C292.083,567.457,289.600,574.107,293.014,577.265C294.518,579.245,299.426,576.791,299.788,579.067C300.571,587.257,292.063,583.065,288.031,587.306C280.530,594.728,266.264,601.262,257.005,598.798C250.701,597.345,239.986,590.229,237.529,584.338C235.252,578.875,233.690,572.242,232.665,566.528C227.756,539.163,243.818,484.968,237.006,451.484C233.305,433.292,241.135,431.317,249.421,419.240C250.855,417.150,238.419,419.217,236.730,417.280C234.488,415.091,237.683,408.599,238.898,405.789C240.604,401.168,250.097,404.773,253.973,404.581Z"/>
</g>
<g id="left_toe">
<path class="path-0" d="M252.696,656.336C225.891,651.647,231.039,616.983,251.551,610.052C272.117,603.252,290.842,615.291,296.745,628.108C300.290,634.636,301.990,641.645,298.552,648.423C291.101,660.510,265.222,658.441,252.696,656.336M312.352,622.346C309.044,608.932,297.683,596.403,286.585,592.711C258.726,583.574,234.883,591.805,225.904,616.764C220.229,631.028,223.289,647.117,232.806,659.162C240.394,668.173,266.704,669.430,277.913,668.392C287.756,666.791,300.052,664.081,306.773,655.683C311.709,649.699,314.110,629.722,312.352,622.346Z"/>
<path class="path-3" d="M251.551,610.052C272.117,603.252,290.842,615.291,296.745,628.108"/>
<path class="path-3" d="M296.745,628.108C300.290,634.636,301.990,641.645,298.552,648.423"/>
<path class="path-3" d="M298.552,648.423C291.101,660.510,265.222,658.441,252.696,656.336"/>
<path class="path-3" d="M252.696,656.336C225.891,651.647,231.039,616.983,251.551,610.052"/>
<path class="path-4" d="M251.551,610.052C272.117,603.252,290.842,615.291,296.745,628.108C300.290,634.636,301.990,641.645,298.552,648.423C291.101,660.510,265.222,658.441,252.696,656.336C225.891,651.647,231.039,616.983,251.551,610.052Z"/>
</g>
<g id="left_sole">
<path class="path-0" d="M256.205,671.209C245.263,671.044,242.197,656.846,240.416,662.139C239.293,665.479,248.752,668.505,252.851,669.643C261.905,672.523,276.867,671.131,285.666,666.761C288.597,665.588,297.938,662.592,297.997,662.837C298.950,666.766,287.022,667.713,283.185,668.172C279.929,668.897,257.079,671.035,256.205,671.209M240.764,662.120C246.039,660.252,256.697,664.704,260.713,665.956C276.613,670.914,286.898,662.169,295.041,660.909C295.758,660.807,297.566,658.898,298.735,660.713C302.692,666.854,269.764,673.628,256.051,669.233C248.820,667.677,238.684,662.856,240.764,662.120M303.232,653.372C300.053,650.900,282.932,659.130,266.294,659.533C257.825,659.766,236.862,647.181,231.120,656.788C229.886,658.863,230.674,666.397,232.409,668.007C243.881,679.024,296.157,674.984,302.414,670.068C304.465,668.456,307.899,657.000,303.232,653.372Z"/>
<path class="path-5" d="M240.416,662.139C239.293,665.479,248.752,668.505,252.851,669.643"/>
<path class="path-5" d="M252.851,669.643C261.905,672.523,276.867,671.131,285.666,666.761"/>
<path class="path-5" d="M285.666,666.761C288.597,665.588,297.938,662.592,297.997,662.837"/>
<path class="path-5" d="M297.997,662.837C298.950,666.766,287.022,667.713,283.185,668.172"/>
<path class="path-5" d="M283.185,668.172C279.929,668.897,257.079,671.035,256.205,671.209"/>
<path class="path-5" d="M256.205,671.209C245.263,671.044,242.197,656.846,240.416,662.139"/>
<path class="path-6" d="M240.416,662.139C239.293,665.479,248.752,668.505,252.851,669.643C261.905,672.523,276.867,671.131,285.666,666.761C288.597,665.588,297.938,662.592,297.997,662.837C298.950,666.766,287.022,667.713,283.185,668.172C279.929,668.897,257.079,671.035,256.205,671.209C245.263,671.044,242.197,656.846,240.416,662.139Z"/>
<path class="path-5" d="M260.713,665.956C276.613,670.914,286.898,662.169,295.041,660.909"/>
<path class="path-5" d="M295.041,660.909C295.758,660.807,297.566,658.898,298.735,660.713"/>
<path class="path-5" d="M298.735,660.713C302.692,666.854,269.764,673.628,256.051,669.233"/>
<path class="path-5" d="M256.051,669.233C248.820,667.677,238.684,662.856,240.764,662.120"/>
<path class="path-5" d="M240.764,662.120C246.039,660.252,256.697,664.704,260.713,665.956"/>
<path class="path-6" d="M260.713,665.956C276.613,670.914,286.898,662.169,295.041,660.909C295.758,660.807,297.566,658.898,298.735,660.713C302.692,666.854,269.764,673.628,256.051,669.233C248.820,667.677,238.684,662.856,240.764,662.120C246.039,660.252,256.697,664.704,260.713,665.956Z"/>
</g>
</g>
<g id="layer_right_leg">
<g id="right_heel">
<path class="path-0" d="M183.306,620.515C184.169,604.116,185.311,591.377,205.324,588.488C214.239,587.038,231.218,589.875,236.118,598.498C238.697,602.784,237.896,609.073,238.141,613.652C238.605,621.114,243.167,635.509,232.652,637.259C231.976,637.439,213.352,637.774,207.539,637.930C200.118,638.819,192.392,639.387,187.023,634.248C184.258,631.017,183.027,624.370,183.306,620.515M245.651,596.783C241.729,586.364,227.428,580.449,217.345,581.913C204.191,583.660,190.727,579.324,182.161,591.635C175.485,601.230,174.727,618.866,176.728,630.057C177.481,635.221,180.733,644.640,185.022,647.500C188.167,649.500,193.027,648.925,196.745,648.929C214.854,649.235,247.179,655.361,246.807,628.341C246.636,621.352,247.710,602.313,245.651,596.783Z"/>
<path class="path-3" d="M205.324,588.488C214.239,587.038,231.218,589.875,236.118,598.498"/>
<path class="path-3" d="M236.118,598.498C238.697,602.784,237.896,609.073,238.141,613.652"/>
<path class="path-3" d="M238.141,613.652C238.605,621.114,243.167,635.509,232.652,637.259"/>
<path class="path-3" d="M232.652,637.259C231.976,637.439,213.352,637.774,207.539,637.930"/>
<path class="path-3" d="M207.539,637.930C200.118,638.819,192.392,639.387,187.023,634.248"/>
<path class="path-3" d="M187.023,634.248C184.258,631.017,183.027,624.370,183.306,620.515"/>
<path class="path-3" d="M183.306,620.515C184.169,604.116,185.311,591.377,205.324,588.488"/>
<path class="path-4" d="M205.324,588.488C214.239,587.038,231.218,589.875,236.118,598.498C238.697,602.784,237.896,609.073,238.141,613.652C238.605,621.114,243.167,635.509,232.652,637.259C231.976,637.439,213.352,637.774,207.539,637.930C200.118,638.819,192.392,639.387,187.023,634.248C184.258,631.017,183.027,624.370,183.306,620.515C184.169,604.116,185.311,591.377,205.324,588.488Z"/>
</g>
<g id="right_leg">
<path class="path-0" d="M182.878,404.846C186.549,392.956,202.254,390.124,212.784,393.055C218.618,394.551,228.378,397.412,231.565,402.921C232.928,405.279,233.464,409.663,232.043,411.986C229.549,416.066,214.334,413.215,217.005,417.279C221.661,424.603,231.876,415.211,236.135,419.096C238.029,420.824,238.201,424.348,238.579,427.287C242.566,449.291,235.532,472.724,235.323,494.418C235.186,501.430,233.500,511.763,234.685,518.154C237.066,533.908,235.141,537.211,235.464,546.663C235.364,550.185,233.471,568.036,234.609,572.626C235.906,577.448,239.323,582.090,239.745,587.091C240.455,595.526,227.967,606.476,220.356,608.671C211.661,610.994,184.999,609.005,176.928,604.503C173.806,602.878,170.007,598.973,168.791,595.402C167.452,592.068,165.999,576.467,167.093,572.725C169.261,566.228,171.796,564.925,173.979,557.210C176.227,548.108,178.455,538.253,178.088,528.666C176.995,509.903,178.145,479.909,180.426,466.495C181.523,458.926,179.999,433.417,181.098,426.411C183.021,414.836,181.033,412.586,182.878,404.846M208.062,381.294C202.406,379.297,198.068,373.935,192.092,375.969C190.265,376.766,187.072,379.045,185.775,380.363C169.799,394.133,171.017,407.963,170.975,427.547C170.667,434.560,170.718,441.855,170.030,448.566C169.346,454.143,167.480,458.702,166.113,463.807C165.274,468.013,164.563,472.520,164.299,477.818C164.169,483.033,165.491,489.167,165.539,498.028C164.881,507.911,165.525,517.251,165.009,526.705C164.872,533.157,161.647,548.073,160.723,552.976C158.413,559.904,155.147,567.919,153.490,574.617C151.826,583.499,153.156,592.931,156.568,600.791C158.137,604.999,161.013,610.019,164.172,612.821C166.232,614.647,169.001,615.712,171.476,616.578C179.649,619.391,187.418,620.737,196.137,621.018C202.008,621.251,207.808,619.591,213.894,620.138C214.913,620.073,223.150,622.001,224.791,622.140C227.749,622.219,231.927,619.604,234.629,618.025C238.223,615.656,244.564,614.969,247.439,611.607C249.764,608.884,250.424,605.086,251.620,601.709C258.368,581.777,252.746,570.771,250.308,552.551C248.952,542.420,246.642,521.579,246.827,510.261C246.771,496.549,249.479,483.298,250.320,469.187C250.674,464.744,251.079,459.415,251.859,454.394C252.550,449.361,251.499,445.279,251.303,440.279C250.922,436.415,251.228,424.033,250.646,419.885C250.273,416.185,250.314,411.567,248.983,407.908C245.324,398.592,231.351,388.280,222.034,385.285C217.377,383.621,212.387,383.290,208.062,381.294Z"/>
<path class="path-7" d="M212.784,393.055C218.618,394.551,228.378,397.412,231.565,402.921"/>
<path class="path-7" d="M231.565,402.921C232.928,405.279,233.464,409.663,232.043,411.986"/>
<path class="path-7" d="M232.043,411.986C229.549,416.066,214.334,413.215,217.005,417.279"/>
<path class="path-7" d="M217.005,417.279C221.661,424.603,231.876,415.211,236.135,419.096"/>
<path class="path-7" d="M236.135,419.096C238.029,420.824,238.201,424.348,238.579,427.287"/>
<path class="path-7" d="M238.579,427.287C242.566,449.291,235.532,472.724,235.323,494.418"/>
<path class="path-7" d="M235.323,494.418C235.186,501.430,233.500,511.763,234.685,518.154"/>
<path class="path-7" d="M234.685,518.154C237.066,533.908,235.141,537.211,235.464,546.663"/>
<path class="path-7" d="M235.464,546.663C235.364,550.185,233.471,568.036,234.609,572.626"/>
<path class="path-7" d="M234.609,572.626C235.906,577.448,239.323,582.090,239.745,587.091"/>
<path class="path-7" d="M239.745,587.091C240.455,595.526,227.967,606.476,220.356,608.671"/>
<path class="path-7" d="M220.356,608.671C211.661,610.994,184.999,609.005,176.928,604.503"/>
<path class="path-7" d="M176.928,604.503C173.806,602.878,170.007,598.973,168.791,595.402"/>
<path class="path-7" d="M168.791,595.402C167.452,592.068,165.999,576.467,167.093,572.725"/>
<path class="path-7" d="M167.093,572.725C169.261,566.228,171.796,564.925,173.979,557.210"/>
<path class="path-7" d="M173.979,557.210C176.227,548.108,178.455,538.253,178.088,528.666"/>
<path class="path-7" d="M178.088,528.666C176.995,509.903,178.145,479.909,180.426,466.495"/>
<path class="path-7" d="M180.426,466.495C181.523,458.926,179.999,433.417,181.098,426.411"/>
<path class="path-7" d="M181.098,426.411C183.021,414.836,181.033,412.586,182.878,404.846"/>
<path class="path-7" d="M182.878,404.846C186.549,392.956,202.254,390.124,212.784,393.055"/>
<path class="path-8" d="M212.784,393.055C218.618,394.551,228.378,397.412,231.565,402.921C232.928,405.279,233.464,409.663,232.043,411.986C229.549,416.066,214.334,413.215,217.005,417.279C221.661,424.603,231.876,415.211,236.135,419.096C238.029,420.824,238.201,424.348,238.579,427.287C242.566,449.291,235.532,472.724,235.323,494.418C235.186,501.430,233.500,511.763,234.685,518.154C237.066,533.908,235.141,537.211,235.464,546.663C235.364,550.185,233.471,568.036,234.609,572.626C235.906,577.448,239.323,582.090,239.745,587.091C240.455,595.526,227.967,606.476,220.356,608.671C211.661,610.994,184.999,609.005,176.928,604.503C173.806,602.878,170.007,598.973,168.791,595.402C167.452,592.068,165.999,576.467,167.093,572.725C169.261,566.228,171.796,564.925,173.979,557.210C176.227,548.108,178.455,538.253,178.088,528.666C176.995,509.903,178.145,479.909,180.426,466.495C181.523,458.926,179.999,433.417,181.098,426.411C183.021,414.836,181.033,412.586,182.878,404.846C186.549,392.956,202.254,390.124,212.784,393.055Z"/>
</g>
<g id="right_toe">
<path class="path-0" d="M166.159,643.199C167.551,629.796,172.874,612.536,189.196,610.219C192.956,609.486,198.247,611.272,202.419,612.128C223.751,616.450,232.042,621.254,232.699,643.199C232.757,649.226,233.655,656.707,229.145,661.538C224.661,666.255,203.539,663.602,197.087,663.880C185.686,664.618,175.864,670.063,167.984,660.117C163.269,654.035,165.425,650.359,166.159,643.199M241.289,620.209C234.248,606.123,201.517,597.702,186.767,600.404C164.755,604.564,157.636,621.855,156.182,640.543C155.614,647.209,154.738,654.532,158.040,660.443C159.222,662.558,161.729,665.391,163.471,667.086C176.571,680.942,186.204,679.220,203.985,679.107C213.387,679.204,229.029,678.410,236.593,672.130C242.275,666.949,242.846,661.289,243.116,654.048C243.125,647.073,244.131,625.376,241.289,620.209Z"/>
<path class="path-3" d="M189.196,610.219C192.956,609.486,198.247,611.272,202.419,612.128"/>
<path class="path-3" d="M202.419,612.128C223.751,616.450,232.042,621.254,232.699,643.199"/>
<path class="path-3" d="M232.699,643.199C232.757,649.226,233.655,656.707,229.145,661.538"/>
<path class="path-3" d="M229.145,661.538C224.661,666.255,203.539,663.602,197.087,663.880"/>
<path class="path-3" d="M197.087,663.880C185.686,664.618,175.864,670.063,167.984,660.117"/>
<path class="path-3" d="M167.984,660.117C163.269,654.035,165.425,650.359,166.159,643.199"/>
<path class="path-3" d="M166.159,643.199C167.551,629.796,172.874,612.536,189.196,610.219"/>
<path class="path-4" d="M189.196,610.219C192.956,609.486,198.247,611.272,202.419,612.128C223.751,616.450,232.042,621.254,232.699,643.199C232.757,649.226,233.655,656.707,229.145,661.538C224.661,666.255,203.539,663.602,197.087,663.880C185.686,664.618,175.864,670.063,167.984,660.117C163.269,654.035,165.425,650.359,166.159,643.199C167.551,629.796,172.874,612.536,189.196,610.219Z"/>
</g>
<g id="right_sole">
<path class="path-0" d="M184.676,675.842C186.215,676.155,201.636,675.952,203.387,675.949C204.789,675.968,213.239,676.053,214.435,675.975C215.181,675.942,222.656,675.604,223.228,676.063C222.695,675.609,214.685,677.073,214.214,677.088C213.281,677.150,186.980,676.993,186.670,677.103C185.478,677.133,174.247,676.181,173.500,675.218C174.709,674.696,182.906,675.481,184.676,675.842M224.391,669.990C224.443,670.268,222.828,671.977,222.407,671.980C221.566,671.990,208.263,673.466,207.153,673.229C205.898,673.185,197.091,673.860,195.959,673.849C193.711,673.827,175.690,673.105,173.764,671.968C173.550,671.785,172.834,670.653,172.869,670.498C172.935,670.216,180.016,670.538,181.111,670.503C182.828,670.448,196.788,669.889,198.550,669.856C200.459,669.820,215.501,670.018,217.456,669.854C217.761,669.836,224.257,669.303,224.391,669.990M230.128,664.825C218.824,661.628,209.926,666.144,199.634,666.477C192.181,666.752,177.880,665.160,168.797,666.918C167.342,667.199,164.563,666.984,164.114,668.485C163.554,670.376,167.184,674.454,169.494,675.979C172.357,677.868,178.327,677.908,180.695,678.270C192.698,680.554,207.980,679.405,220.317,678.882C229.417,678.502,231.695,674.871,232.629,670.502C233.018,668.682,233.667,665.777,230.128,664.825Z"/>
<path class="path-24" d="M184.676,675.842C186.215,676.155,201.636,675.952,203.387,675.949"/>
<path class="path-24" d="M203.387,675.949C204.789,675.968,213.239,676.053,214.435,675.975"/>
<path class="path-24" d="M214.435,675.975C215.181,675.942,222.656,675.604,223.228,676.063"/>
<path class="path-24" d="M223.228,676.063C222.695,675.609,214.685,677.073,214.214,677.088"/>
<path class="path-24" d="M214.214,677.088C213.281,677.150,186.980,676.993,186.670,677.103"/>
<path class="path-24" d="M186.670,677.103C185.478,677.133,174.247,676.181,173.500,675.218"/>
<path class="path-24" d="M173.500,675.218C174.709,674.696,182.906,675.481,184.676,675.842"/>
<path class="path-0" d="M184.676,675.842C186.215,676.155,201.636,675.952,203.387,675.949C204.789,675.968,213.239,676.053,214.435,675.975C215.181,675.942,222.656,675.604,223.228,676.063C222.695,675.609,214.685,677.073,214.214,677.088C213.281,677.150,186.980,676.993,186.670,677.103C185.478,677.133,174.247,676.181,173.500,675.218C174.709,674.696,182.906,675.481,184.676,675.842Z"/>
<path class="path-5" d="M181.111,670.503C182.828,670.448,196.788,669.889,198.550,669.856"/>
<path class="path-5" d="M198.550,669.856C200.459,669.820,215.501,670.018,217.456,669.854"/>
<path class="path-5" d="M217.456,669.854C217.761,669.836,224.257,669.303,224.391,669.990"/>
<path class="path-5" d="M224.391,669.990C224.443,670.268,222.828,671.977,222.407,671.980"/>
<path class="path-5" d="M222.407,671.980C221.566,671.990,208.263,673.466,207.153,673.229"/>
<path class="path-5" d="M207.153,673.229C205.898,673.185,197.091,673.860,195.959,673.849"/>
<path class="path-5" d="M195.959,673.849C193.711,673.827,175.690,673.105,173.764,671.968"/>
<path class="path-5" d="M173.764,671.968C173.550,671.785,172.834,670.653,172.869,670.498"/>
<path class="path-5" d="M172.869,670.498C172.935,670.216,180.016,670.538,181.111,670.503"/>
<path class="path-6" d="M181.111,670.503C182.828,670.448,196.788,669.889,198.550,669.856C200.459,669.820,215.501,670.018,217.456,669.854C217.761,669.836,224.257,669.303,224.391,669.990C224.443,670.268,222.828,671.977,222.407,671.980C221.566,671.990,208.263,673.466,207.153,673.229C205.898,673.185,197.091,673.860,195.959,673.849C193.711,673.827,175.690,673.105,173.764,671.968C173.550,671.785,172.834,670.653,172.869,670.498C172.935,670.216,180.016,670.538,181.111,670.503Z"/>
</g>
</g>
<g id="hat_brim">
<path class="path-0" d="M288.031,139.411C291.690,133.423,300.673,117.120,308.658,117.120C313.982,117.120,324.961,126.769,330.616,129.764C335.606,132.758,340.930,135.419,346.586,138.080C349.798,139.750,353.014,141.413,356.233,143.070C370.540,150.391,366.547,156.713,358.229,155.381C339.599,152.053,336.604,153.385,318.639,144.069C316.309,143.071,310.321,139.745,309.323,144.069C307.993,149.059,316.976,153.385,320.635,155.048C327.288,158.709,334.608,162.701,342.593,163.366C344.922,163.699,352.907,163.032,354.237,165.361C356.233,168.689,346.585,177.339,344.589,179.335C341.262,182.329,337.936,185.324,334.608,187.653C329.618,190.979,324.294,193.973,318.639,194.971C307.993,196.302,274.723,180.998,273.725,169.354C273.060,162.701,284.039,145.733,288.031,139.411M320.635,112.796C315.645,108.471,311.986,102.149,304.665,105.476C299.342,107.806,293.687,115.458,290.028,119.450C276.386,136.084,264.078,155.714,264.742,177.339C265.076,190.979,269.733,190.647,280.712,195.969C297.346,204.287,318.639,206.948,336.605,198.632C348.248,193.309,368.544,175.343,373.867,163.366C375.530,159.373,378.524,150.391,376.194,145.734C373.533,140.077,351.242,130.429,344.589,126.770C336.605,122.444,327.622,118.451,320.635,112.796Z"/>
<path class="path-9" d="M308.658,117.120C313.982,117.120,324.961,126.769,330.616,129.764"/>
<path class="path-9" d="M330.616,129.764C335.606,132.758,340.930,135.419,346.586,138.080"/>
<path class="path-9" d="M346.586,138.080C349.798,139.750,353.014,141.413,356.233,143.070"/>
<path class="path-9" d="M356.233,143.070C370.540,150.391,366.547,156.713,358.229,155.381"/>
<path class="path-9" d="M358.229,155.381C339.599,152.053,336.604,153.385,318.639,144.069"/>
<path class="path-9" d="M318.639,144.069C316.309,143.071,310.321,139.745,309.323,144.069"/>
<path class="path-9" d="M309.323,144.069C307.993,149.059,316.976,153.385,320.635,155.048"/>
<path class="path-9" d="M320.635,155.048C327.288,158.709,334.608,162.701,342.593,163.366"/>
<path class="path-9" d="M342.593,163.366C344.922,163.699,352.907,163.032,354.237,165.361"/>
<path class="path-9" d="M354.237,165.361C356.233,168.689,346.585,177.339,344.589,179.335"/>
<path class="path-9" d="M344.589,179.335C341.262,182.329,337.936,185.324,334.608,187.653"/>
<path class="path-9" d="M334.608,187.653C329.618,190.979,324.294,193.973,318.639,194.971"/>
<path class="path-9" d="M318.639,194.971C307.993,196.302,274.723,180.998,273.725,169.354"/>
<path class="path-9" d="M273.725,169.354C273.060,162.701,284.039,145.733,288.031,139.411"/>
<path class="path-9" d="M288.031,139.411C291.690,133.423,300.673,117.120,308.658,117.120"/>
<path class="path-10" d="M308.658,117.120C313.982,117.120,324.961,126.769,330.616,129.764C335.606,132.758,340.930,135.419,346.586,138.080C349.798,139.750,353.014,141.413,356.233,143.070C370.540,150.391,366.547,156.713,358.229,155.381C339.599,152.053,336.604,153.385,318.639,144.069C316.309,143.071,310.321,139.745,309.323,144.069C307.993,149.059,316.976,153.385,320.635,155.048C327.288,158.709,334.608,162.701,342.593,163.366C344.922,163.699,352.907,163.032,354.237,165.361C356.233,168.689,346.585,177.339,344.589,179.335C341.262,182.329,337.936,185.324,334.608,187.653C329.618,190.979,324.294,193.973,318.639,194.971C307.993,196.302,274.723,180.998,273.725,169.354C273.060,162.701,284.039,145.733,288.031,139.411C291.690,133.423,300.673,117.120,308.658,117.120Z"/>
</g>
<g id="hair">
<path class="path-0" d="M183.357,136.483C200.954,124.749,220.906,123.806,241.996,123.120C251.452,122.794,257.886,129.270,265.069,135.626C270.964,141.195,277.299,147.468,283.560,153.313C292.986,162.051,296.930,166.431,300.440,170.614C303.444,173.825,308.105,179.813,311.862,182.674C316.396,186.124,325.422,203.315,327.445,205.266C320.793,207.453,310.356,209.024,305.541,212.830C307.149,218.669,307.424,227.700,307.413,230.409C301.202,230.790,294.008,227.926,282.567,225.752C280.180,232.918,280.142,239.647,275.384,246.902C267.697,244.496,262.345,242.563,252.411,238.043C245.798,243.193,244.261,242.773,233.517,249.212C226.455,244.820,220.838,240.151,213.943,237.253C207.148,240.091,196.403,241.027,192.739,243.925C188.987,236.858,185.547,229.060,182.318,225.662C172.710,227.554,168.576,230.148,161.781,232.559C157.606,227.012,160.654,222.489,156.037,214.349C151.717,213.146,145.049,210.476,139.490,210.322C143.367,205.864,146.319,191.142,152.833,189.327C160.871,187.088,155.875,177.911,160.872,169.755C162.110,167.631,174.016,151.399,175.093,148.739C177.132,144.153,179.361,139.287,183.357,136.483M269.783,123.041C257.623,113.516,232.973,108.192,219.067,111.311C206.306,114.023,193.787,117.926,182.663,125.006C176.433,128.911,169.531,134.686,165.362,140.754C157.036,152.537,144.935,178.372,138.142,190.325C132.704,200.241,127.646,206.923,122.452,212.283C140.007,218.879,145.124,221.586,150.363,222.441C150.613,230.199,157.711,236.027,156.388,244.572C165.209,243.354,170.475,241.177,178.326,239.302C182.258,243.995,184.942,250.348,188.681,256.586C196.418,254.568,204.305,254.940,212.000,249.563C217.496,252.632,226.229,257.403,235.200,262.448C243.544,258.115,245.325,257.880,253.165,252.908C262.619,255.342,272.515,261.315,282.074,260.399C281.484,252.206,287.600,246.647,286.947,241.388C294.168,239.536,316.196,242.966,319.967,242.683C319.803,236.635,316.595,225.026,318.237,217.838C325.064,216.098,330.837,214.510,341.526,209.520C338.121,202.790,331.974,194.414,326.560,189.403C321.990,185.214,318.291,179.689,313.719,175.326C298.212,160.768,292.275,140.745,269.783,123.041Z"/>
<path class="path-11" d="M241.996,123.120C251.452,122.794,257.886,129.270,265.069,135.626"/>
<path class="path-11" d="M265.069,135.626C270.964,141.195,277.299,147.468,283.560,153.313"/>
<path class="path-11" d="M283.560,153.313C292.986,162.051,296.930,166.431,300.440,170.614"/>
<path class="path-11" d="M300.440,170.614C303.444,173.825,308.105,179.813,311.862,182.674"/>
<path class="path-11" d="M311.862,182.674C316.396,186.124,325.422,203.315,327.445,205.266"/>
<path class="path-11" d="M327.445,205.266C320.793,207.453,310.356,209.024,305.541,212.830"/>
<path class="path-11" d="M305.541,212.830C307.149,218.669,307.424,227.700,307.413,230.409"/>
<path class="path-11" d="M307.413,230.409C301.202,230.790,294.008,227.926,282.567,225.752"/>
<path class="path-11" d="M282.567,225.752C280.180,232.918,280.142,239.647,275.384,246.902"/>
<path class="path-11" d="M275.384,246.902C267.697,244.496,262.345,242.563,252.411,238.043"/>
<path class="path-11" d="M252.411,238.043C245.798,243.193,244.261,242.773,233.517,249.212"/>
<path class="path-11" d="M233.517,249.212C226.455,244.820,220.838,240.151,213.943,237.253"/>
<path class="path-11" d="M213.943,237.253C207.148,240.091,196.403,241.027,192.739,243.925"/>
<path class="path-11" d="M192.739,243.925C188.987,236.858,185.547,229.060,182.318,225.662"/>
<path class="path-11" d="M182.318,225.662C172.710,227.554,168.576,230.148,161.781,232.559"/>
<path class="path-11" d="M161.781,232.559C157.606,227.012,160.654,222.489,156.037,214.349"/>
<path class="path-11" d="M156.037,214.349C151.717,213.146,145.049,210.476,139.490,210.322"/>
<path class="path-11" d="M139.490,210.322C143.367,205.864,146.319,191.142,152.833,189.327"/>
<path class="path-11" d="M152.833,189.327C160.871,187.088,155.875,177.911,160.872,169.755"/>
<path class="path-11" d="M160.872,169.755C162.110,167.631,174.016,151.399,175.093,148.739"/>
<path class="path-11" d="M175.093,148.739C177.132,144.153,179.361,139.287,183.357,136.483"/>
<path class="path-11" d="M183.357,136.483C200.954,124.749,220.906,123.806,241.996,123.120"/>
<path class="path-12" d="M241.996,123.120C251.452,122.794,257.886,129.270,265.069,135.626C270.964,141.195,277.299,147.468,283.560,153.313C292.986,162.051,296.930,166.431,300.440,170.614C303.444,173.825,308.105,179.813,311.862,182.674C316.396,186.124,325.422,203.315,327.445,205.266C320.793,207.453,310.356,209.024,305.541,212.830C307.149,218.669,307.424,227.700,307.413,230.409C301.202,230.790,294.008,227.926,282.567,225.752C280.180,232.918,280.142,239.647,275.384,246.902C267.697,244.496,262.345,242.563,252.411,238.043C245.798,243.193,244.261,242.773,233.517,249.212C226.455,244.820,220.838,240.151,213.943,237.253C207.148,240.091,196.403,241.027,192.739,243.925C188.987,236.858,185.547,229.060,182.318,225.662C172.710,227.554,168.576,230.148,161.781,232.559C157.606,227.012,160.654,222.489,156.037,214.349C151.717,213.146,145.049,210.476,139.490,210.322C143.367,205.864,146.319,191.142,152.833,189.327C160.871,187.088,155.875,177.911,160.872,169.755C162.110,167.631,174.016,151.399,175.093,148.739C177.132,144.153,179.361,139.287,183.357,136.483C200.954,124.749,220.906,123.806,241.996,123.120Z"/>
</g>
<g id="clothes">
<path class="path-0" d="M244.614,365.205C238.987,363.656,218.992,368.220,215.856,373.400C214.059,376.582,217.160,378.124,220.339,378.035C224.503,377.918,245.943,373.860,248.649,371.858C252.717,368.774,246.824,365.710,244.614,365.205M191.093,266.179C194.088,253.538,221.037,240.563,234.012,241.561C242.994,242.226,271.274,256.199,275.266,264.517C278.592,271.170,279.590,295.789,279.924,304.107C280.257,319.412,281.409,334.734,282.253,350.019C283.533,362.403,294.279,376.272,287.854,386.936C284.945,390.581,273.363,388.661,268.322,389.612C263.273,390.815,254.319,396.351,249.585,396.998C228.034,400.544,230.941,404.844,210.540,406.671C206.237,406.892,192.322,405.345,189.548,403.435C182.885,397.615,185.968,388.040,187.263,379.620C190.055,365.356,190.541,355.428,191.427,340.038C192.246,323.965,194.088,306.768,194.088,290.134C193.755,284.145,190.429,269.839,191.093,266.179M269.943,247.549C253.640,237.899,237.670,229.915,218.042,235.573C212.718,236.902,186.103,249.877,183.773,253.205C180.115,258.528,183.773,278.821,183.773,286.141C184.107,294.791,184.440,303.773,183.773,312.092C183.442,318.413,182.111,324.069,182.111,330.057C181.777,336.710,181.804,343.888,180.780,350.019C177.584,368.350,167.441,405.146,189.829,416.196C194.569,418.557,201.124,418.131,206.707,417.823C216.527,417.092,227.109,416.127,236.706,413.331C248.930,410.134,259.606,401.827,272.264,399.993C278.122,399.145,296.415,406.087,300.968,401.801C302.980,399.990,304.541,388.157,304.255,385.111C302.237,370.934,293.943,358.153,291.567,344.031C289.909,332.164,289.239,320.410,289.904,308.100C290.237,298.119,291.900,288.471,291.900,278.157C291.567,273.831,292.234,268.510,289.904,264.184C285.912,256.199,277.263,251.873,269.943,247.549Z"/>
<path class="path-13" d="M244.614,365.205C238.987,363.656,218.992,368.220,215.856,373.400"/>
<path class="path-13" d="M215.856,373.400C214.059,376.582,217.160,378.124,220.339,378.035"/>
<path class="path-13" d="M220.339,378.035C224.503,377.918,245.943,373.860,248.649,371.858"/>
<path class="path-13" d="M248.649,371.858C252.717,368.774,246.824,365.710,244.614,365.205"/>
<path class="path-13" d="M191.093,266.179C194.088,253.538,221.037,240.563,234.012,241.561"/>
<path class="path-13" d="M234.012,241.561C242.994,242.226,271.274,256.199,275.266,264.517"/>
<path class="path-13" d="M275.266,264.517C278.592,271.170,279.590,295.789,279.924,304.107"/>
<path class="path-13" d="M279.924,304.107C280.257,319.412,281.409,334.734,282.253,350.019"/>
<path class="path-13" d="M282.253,350.019C283.533,362.403,294.279,376.272,287.854,386.936"/>
<path class="path-13" d="M287.854,386.936C284.945,390.581,273.363,388.661,268.322,389.612"/>
<path class="path-13" d="M268.322,389.612C263.273,390.815,254.319,396.351,249.585,396.998"/>
<path class="path-13" d="M249.585,396.998C228.034,400.544,230.941,404.844,210.540,406.671"/>
<path class="path-13" d="M210.540,406.671C206.237,406.892,192.322,405.345,189.548,403.435"/>
<path class="path-13" d="M189.548,403.435C182.885,397.615,185.968,388.040,187.263,379.620"/>
<path class="path-13" d="M187.263,379.620C190.055,365.356,190.541,355.428,191.427,340.038"/>
<path class="path-13" d="M191.427,340.038C192.246,323.965,194.088,306.768,194.088,290.134"/>
<path class="path-13" d="M194.088,290.134C193.755,284.145,190.429,269.839,191.093,266.179"/>
<path class="path-14" d="M244.614,365.205C238.987,363.656,218.992,368.220,215.856,373.400C214.059,376.582,217.160,378.124,220.339,378.035C224.503,377.918,245.943,373.860,248.649,371.858C252.717,368.774,246.824,365.710,244.614,365.205M191.093,266.179C194.088,253.538,221.037,240.563,234.012,241.561C242.994,242.226,271.274,256.199,275.266,264.517C278.592,271.170,279.590,295.789,279.924,304.107C280.257,319.412,281.409,334.734,282.253,350.019C283.533,362.403,294.279,376.272,287.854,386.936C284.945,390.581,273.363,388.661,268.322,389.612C263.273,390.815,254.319,396.351,249.585,396.998C228.034,400.544,230.941,404.844,210.540,406.671C206.237,406.892,192.322,405.345,189.548,403.435C182.885,397.615,185.968,388.040,187.263,379.620C190.055,365.356,190.541,355.428,191.427,340.038C192.246,323.965,194.088,306.768,194.088,290.134C193.755,284.145,190.429,269.839,191.093,266.179Z"/>
</g>
<g id="neck">
<path class="path-0" d="M229.021,222.597C229.354,219.269,230.353,216.275,234.012,215.942C245.656,213.946,244.657,251.542,234.012,251.542C224.031,251.542,228.356,228.917,229.021,222.597M234.012,206.628C231.351,206.295,228.357,206.959,226.027,208.291C216.711,212.948,218.042,221.599,218.042,230.248C217.708,234.574,218.042,238.567,216.046,242.226C214.383,245.553,209.724,248.879,209.724,252.540C210.057,262.521,237.006,262.521,243.993,262.188C246.653,262.187,255.636,263.185,256.634,259.526C256.634,258.528,249.981,246.883,248.983,242.226C245.989,228.252,255.305,207.626,234.012,206.628Z"/>
<path class="path-15" d="M234.012,215.942C245.656,213.946,244.657,251.542,234.012,251.542"/>
<path class="path-15" d="M234.012,251.542C224.031,251.542,228.356,228.917,229.021,222.597"/>
<path class="path-15" d="M229.021,222.597C229.354,219.269,230.353,216.275,234.012,215.942"/>
<path class="path-16" d="M234.012,215.942C245.656,213.946,244.657,251.542,234.012,251.542C224.031,251.542,228.356,228.917,229.021,222.597C229.354,219.269,230.353,216.275,234.012,215.942Z"/>
</g>
<g id="layer_head">
<g id="right_ear">
<path class="path-0" d="M150.757,191.631C144.672,192.088,131.425,162.292,139.142,164.019C144.907,165.290,147.836,175.537,149.411,179.750C150.676,182.789,155.991,191.276,150.757,191.631M142.839,150.994C140.498,149.558,137.642,148.172,135.193,149.413C126.278,152.265,127.894,165.277,130.231,174.390C133.283,185.781,141.346,200.787,151.633,204.570C153.752,205.362,158.005,207.746,160.256,206.942C166.446,204.288,161.253,194.471,159.558,189.465C157.338,182.407,148.170,155.674,142.839,150.994Z"/>
<path class="path-15" d="M139.142,164.019C144.907,165.290,147.836,175.537,149.411,179.750"/>
<path class="path-15" d="M149.411,179.750C150.676,182.789,155.991,191.276,150.757,191.631"/>
<path class="path-15" d="M150.757,191.631C144.672,192.088,131.425,162.292,139.142,164.019"/>
<path class="path-16" d="M139.142,164.019C144.907,165.290,147.836,175.537,149.411,179.750C150.676,182.789,155.991,191.276,150.757,191.631C144.672,192.088,131.425,162.292,139.142,164.019Z"/>
</g>
<g id="face_Mask">
<g id="face">
<path class="path-0" d="M150.803,105.779C159.289,95.330,192.058,88.145,205.698,86.149C221.003,84.153,236.639,86.482,251.610,91.139C256.934,92.804,264.843,94.494,269.242,98.459C276.157,104.737,278.728,116.112,280.406,124.927C281.634,130.583,283.510,137.908,282.539,143.291C277.193,172.936,270.119,186.792,264.121,195.062C254.625,208.157,237.395,213.159,222.018,217.718C203.603,222.894,190.016,222.748,175.838,219.179C169.446,217.576,155.746,212.720,151.565,207.997C144.750,200.003,146.945,189.203,145.029,179.327C143.019,170.445,138.406,157.385,137.109,148.557C135.652,137.422,143.818,114.300,150.803,105.779M273.260,90.783C259.781,78.411,223.375,75.752,205.741,78.396C197.421,79.386,189.435,80.045,181.782,82.036C176.122,83.698,171.127,86.356,165.800,88.019C154.154,92.343,149.342,90.905,141.512,101.669C135.889,109.204,127.736,138.850,128.074,148.088C128.470,155.415,133.871,172.433,134.925,180.910C136.018,190.133,134.527,203.249,138.901,211.069C142.606,217.473,148.730,221.280,158.119,225.676C168.110,230.354,179.395,234.757,190.736,235.433C197.951,236.058,208.353,234.044,224.828,227.806C241.063,221.426,258.147,214.880,269.576,200.182C280.366,186.303,294.298,167.939,297.001,141.207C299.055,120.892,280.834,97.586,273.260,90.783Z"/>
<path class="path-15" d="M205.698,86.149C221.003,84.153,236.639,86.482,251.610,91.139"/>
<path class="path-15" d="M251.610,91.139C256.934,92.804,264.843,94.494,269.242,98.459"/>
<path class="path-15" d="M269.242,98.459C276.157,104.737,278.728,116.112,280.406,124.927"/>
<path class="path-15" d="M280.406,124.927C281.634,130.583,283.510,137.908,282.539,143.291"/>
<path class="path-15" d="M282.539,143.291C277.193,172.936,270.119,186.792,264.121,195.062"/>
<path class="path-15" d="M264.121,195.062C254.625,208.157,237.395,213.159,222.018,217.718"/>
<path class="path-15" d="M222.018,217.718C203.603,222.894,190.016,222.748,175.838,219.179"/>
<path class="path-15" d="M175.838,219.179C169.446,217.576,155.746,212.720,151.565,207.997"/>
<path class="path-15" d="M151.565,207.997C144.750,200.003,146.945,189.203,145.029,179.327"/>
<path class="path-15" d="M145.029,179.327C143.019,170.445,138.406,157.385,137.109,148.557"/>
<path class="path-15" d="M137.109,148.557C135.652,137.422,143.818,114.300,150.803,105.779"/>
<path class="path-15" d="M150.803,105.779C159.289,95.330,192.058,88.145,205.698,86.149"/>
<path class="path-16" d="M205.698,86.149C221.003,84.153,236.639,86.482,251.610,91.139C256.934,92.804,264.843,94.494,269.242,98.459C276.157,104.737,278.728,116.112,280.406,124.927C281.634,130.583,283.510,137.908,282.539,143.291C277.193,172.936,270.119,186.792,264.121,195.062C254.625,208.157,237.395,213.159,222.018,217.718C203.603,222.894,190.016,222.748,175.838,219.179C169.446,217.576,155.746,212.720,151.565,207.997C144.750,200.003,146.945,189.203,145.029,179.327C143.019,170.445,138.406,157.385,137.109,148.557C135.652,137.422,143.818,114.300,150.803,105.779C159.289,95.330,192.058,88.145,205.698,86.149Z"/>
</g>
</g>
<mask id="mask_target" style="mask-type:alpha;">
<use xlink:href="#face_Mask"/>
</mask>
<g id="mouse">
<path class="path-0" d="M190.945,214.092C196.149,215.196,196.232,219.949,195.759,220.456C195.491,220.742,194.369,219.791,191.409,219.304C185.803,218.382,183.097,219.555,182.900,218.841C182.683,218.058,184.852,212.800,190.945,214.092Z"/>
</g>
<g id="layer_eyes_Mtarget" mask="url(#mask_target)">
<g id="eyes">
<mask style="mask-type:alpha;" id="f3906406-f197-4bf1-91d8-744c09cca836">
<use xlink:href="#cmn_f3906406-f197-4bf1-91d8-744c09cca836"/>
</mask>
<g id="cmn_f3906406-f197-4bf1-91d8-744c09cca836">
<path class="path-0" d="M145.659,192.831C146.030,192.243,144.255,188.244,145.065,188.643C144.615,188.435,138.055,189.764,137.341,191.561C137.001,192.417,139.659,196.024,138.527,195.722C137.763,195.518,145.384,193.267,145.659,192.831M153.273,195.470C153.287,194.885,152.810,188.828,150.570,188.124C149.331,187.735,147.744,189.279,146.729,190.118C143.931,192.330,124.976,188.873,126.198,184.260C126.635,182.596,134.871,181.349,136.485,182.049C146.342,186.361,123.413,206.052,137.632,210.828C138.186,211.014,145.543,192.526,143.641,195.420C142.531,197.110,153.235,196.990,153.273,195.470M185.049,194.107C182.799,194.222,180.678,195.481,177.653,193.698C175.155,192.226,195.603,192.191,197.436,191.924C198.643,191.749,211.071,190.526,211.683,190.053C211.804,189.959,213.968,189.742,214.146,189.683C213.815,189.792,189.008,193.906,185.049,194.107M221.523,192.071C221.863,191.740,222.169,185.404,221.701,184.996C218.266,182.006,205.829,185.553,199.029,185.850C194.437,186.050,186.681,187.222,183.726,186.602C179.748,185.916,176.678,184.920,174.410,186.553C172.629,187.835,171.289,191.311,171.894,193.420C172.445,195.343,174.835,196.852,177.103,197.584C181.898,199.130,202.651,195.875,206.205,195.621C206.512,195.598,219.351,194.187,221.523,192.071Z"/>
<path class="path-24" d="M211.683,190.053C211.804,189.959,213.968,189.742,214.146,189.683"/>
<path class="path-24" d="M214.146,189.683C213.815,189.792,189.008,193.906,185.049,194.107"/>
<path class="path-24" d="M185.049,194.107C182.799,194.222,180.678,195.481,177.653,193.698"/>
<path class="path-24" d="M177.653,193.698C175.155,192.226,195.603,192.191,197.436,191.924"/>
<path class="path-24" d="M197.436,191.924C198.643,191.749,211.071,190.526,211.683,190.053"/>
<path class="path-0" d="M211.683,190.053C211.804,189.959,213.968,189.742,214.146,189.683C213.815,189.792,189.008,193.906,185.049,194.107C182.799,194.222,180.678,195.481,177.653,193.698C175.155,192.226,195.603,192.191,197.436,191.924C198.643,191.749,211.071,190.526,211.683,190.053Z"/>
<path class="path-24" d="M138.527,195.722C137.763,195.518,145.384,193.267,145.659,192.831"/>
<path class="path-24" d="M145.659,192.831C146.030,192.243,144.255,188.244,145.065,188.643"/>
<path class="path-24" d="M145.065,188.643C144.615,188.435,138.055,189.764,137.341,191.561"/>
<path class="path-24" d="M137.341,191.561C137.001,192.417,139.659,196.024,138.527,195.722"/>
<path class="path-0" d="M138.527,195.722C137.763,195.518,145.384,193.267,145.659,192.831C146.030,192.243,144.255,188.244,145.065,188.643C144.615,188.435,138.055,189.764,137.341,191.561C137.001,192.417,139.659,196.024,138.527,195.722Z"/>
</g>
</g>
<g id="pupil">
<path class="path-0" d="M177.388,175.897C179.717,175.332,182.720,178.734,183.478,187.345C184.006,193.343,182.600,195.792,180.946,196.015C179.051,196.271,177.401,193.642,176.118,186.865C174.748,179.633,175.405,176.379,177.388,175.897Z" mask="url(#f3906406-f197-4bf1-91d8-744c09cca836)"/>
<path class="path-0" d="M143.767,176.664C146.157,176.157,149.148,179.874,149.707,188.961C150.023,194.087,148.901,196.099,147.547,196.356C145.979,196.654,144.055,194.731,142.523,188.985C140.396,181.008,141.600,177.125,143.767,176.664Z" mask="url(#f3906406-f197-4bf1-91d8-744c09cca836)"/>
</g>
</g>
<g id="hat">
<path class="path-0" d="M287.764,132.859C289.999,133.730,292.613,136.503,293.143,139.133C295.076,145.813,283.792,147.020,280.221,147.487C274.434,147.663,268.399,146.783,262.899,146.196C255.873,146.083,248.914,144.800,241.898,144.418C220.659,141.593,199.392,139.216,178.099,136.866C167.064,136.085,157.008,134.424,145.076,133.754C143.688,133.684,130.354,134.825,127.716,133.980C113.380,129.530,125.615,116.842,124.575,110.299C124.408,108.235,120.376,107.754,121.180,104.092C121.759,101.644,128.866,97.390,131.287,96.514C140.680,93.061,151.175,91.412,161.642,90.996C173.322,90.544,183.916,92.213,195.558,93.292C220.015,95.586,262.786,101.561,291.951,117.185C301.144,122.089,281.421,118.819,279.535,118.865C264.370,118.609,202.300,102.367,235.645,115.796C249.178,121.546,275.302,127.387,287.764,132.859M175.913,80.552C163.877,79.852,152.857,79.162,141.612,81.397C137.492,82.205,132.295,83.181,128.907,83.972C121.869,85.637,133.860,65.225,137.320,61.345C153.177,43.999,181.637,32.775,206.295,34.248C254.426,37.124,272.534,49.823,285.607,68.403C289.830,73.952,301.931,99.542,292.064,105.531C288.824,107.219,283.084,104.265,280.377,102.786C270.724,97.777,199.569,81.929,175.913,80.552M272.917,39.412C255.812,30.939,236.519,23.297,210.824,23.820C180.520,24.497,146.612,33.078,127.384,59.584C121.492,67.901,119.184,77.120,115.719,85.949C113.526,91.464,109.086,95.128,108.715,100.983C108.439,108.613,112.856,110.580,113.689,116.810C114.818,123.804,110.655,126.014,111.055,130.553C110.956,142.815,122.478,145.639,132.563,146.769C136.999,147.267,153.493,146.767,162.461,146.929C172.668,147.113,186.279,147.431,196.472,147.989C207.797,148.609,222.844,150.217,234.162,150.961C244.710,151.655,258.780,152.887,269.351,152.824C277.807,152.773,296.408,151.986,297.482,151.067C299.086,149.718,304.224,135.837,304.692,133.148C305.431,128.897,303.466,124.276,304.951,117.471C307.027,106.793,309.454,97.568,307.354,85.993C303.371,65.075,287.434,46.662,272.917,39.412Z"/>
<path class="path-19" d="M195.558,93.292C220.015,95.586,262.786,101.561,291.951,117.185"/>
<path class="path-19" d="M291.951,117.185C301.144,122.089,281.421,118.819,279.535,118.865"/>
<path class="path-19" d="M279.535,118.865C264.370,118.609,202.300,102.367,235.645,115.796"/>
<path class="path-19" d="M235.645,115.796C249.178,121.546,275.302,127.387,287.764,132.859"/>
<path class="path-19" d="M287.764,132.859C289.999,133.730,292.613,136.503,293.143,139.133"/>
<path class="path-19" d="M293.143,139.133C295.076,145.813,283.792,147.020,280.221,147.487"/>
<path class="path-19" d="M280.221,147.487C274.434,147.663,268.399,146.783,262.899,146.196"/>
<path class="path-19" d="M262.899,146.196C255.873,146.083,248.914,144.800,241.898,144.418"/>
<path class="path-19" d="M241.898,144.418C220.659,141.593,199.392,139.216,178.099,136.866"/>
<path class="path-19" d="M178.099,136.866C167.064,136.085,157.008,134.424,145.076,133.754"/>
<path class="path-19" d="M145.076,133.754C143.688,133.684,130.354,134.825,127.716,133.980"/>
<path class="path-19" d="M127.716,133.980C113.380,129.530,125.615,116.842,124.575,110.299"/>
<path class="path-19" d="M124.575,110.299C124.408,108.235,120.376,107.754,121.180,104.092"/>
<path class="path-19" d="M121.180,104.092C121.759,101.644,128.866,97.390,131.287,96.514"/>
<path class="path-19" d="M131.287,96.514C140.680,93.061,151.175,91.412,161.642,90.996"/>
<path class="path-19" d="M161.642,90.996C173.322,90.544,183.916,92.213,195.558,93.292"/>
<path class="path-20" d="M195.558,93.292C220.015,95.586,262.786,101.561,291.951,117.185C301.144,122.089,281.421,118.819,279.535,118.865C264.370,118.609,202.300,102.367,235.645,115.796C249.178,121.546,275.302,127.387,287.764,132.859C289.999,133.730,292.613,136.503,293.143,139.133C295.076,145.813,283.792,147.020,280.221,147.487C274.434,147.663,268.399,146.783,262.899,146.196C255.873,146.083,248.914,144.800,241.898,144.418C220.659,141.593,199.392,139.216,178.099,136.866C167.064,136.085,157.008,134.424,145.076,133.754C143.688,133.684,130.354,134.825,127.716,133.980C113.380,129.530,125.615,116.842,124.575,110.299C124.408,108.235,120.376,107.754,121.180,104.092C121.759,101.644,128.866,97.390,131.287,96.514C140.680,93.061,151.175,91.412,161.642,90.996C173.322,90.544,183.916,92.213,195.558,93.292Z"/>
<path class="path-9" d="M206.295,34.248C254.426,37.124,272.534,49.823,285.607,68.403"/>
<path class="path-9" d="M285.607,68.403C289.830,73.952,301.931,99.542,292.064,105.531"/>
<path class="path-9" d="M292.064,105.531C288.824,107.219,283.084,104.265,280.377,102.786"/>
<path class="path-9" d="M280.377,102.786C270.724,97.777,199.569,81.929,175.913,80.552"/>
<path class="path-9" d="M175.913,80.552C163.877,79.852,152.857,79.162,141.612,81.397"/>
<path class="path-9" d="M141.612,81.397C137.492,82.205,132.295,83.181,128.907,83.972"/>
<path class="path-9" d="M128.907,83.972C121.869,85.637,133.860,65.225,137.320,61.345"/>
<path class="path-9" d="M137.320,61.345C153.177,43.999,181.637,32.775,206.295,34.248"/>
<path class="path-10" d="M206.295,34.248C254.426,37.124,272.534,49.823,285.607,68.403C289.830,73.952,301.931,99.542,292.064,105.531C288.824,107.219,283.084,104.265,280.377,102.786C270.724,97.777,199.569,81.929,175.913,80.552C163.877,79.852,152.857,79.162,141.612,81.397C137.492,82.205,132.295,83.181,128.907,83.972C121.869,85.637,133.860,65.225,137.320,61.345C153.177,43.999,181.637,32.775,206.295,34.248Z"/>
</g>
<g id="left_ear">
<path class="path-0" d="M251.836,181.094C251.716,177.702,253.135,165.208,255.030,162.092C261.554,150.512,280.240,148.376,286.613,156.578C293.947,166.430,281.858,188.414,270.976,194.109C259.373,199.958,252.543,192.336,251.836,181.094M301.756,159.768C299.133,147.115,287.448,136.438,271.991,141.830C255.115,147.716,256.005,171.609,255.067,186.352C254.944,189.669,254.519,193.331,255.602,196.297C259.449,207.390,270.432,209.916,279.918,200.624C289.606,190.939,304.277,174.104,301.756,159.768Z"/>
<path class="path-15" d="M255.030,162.092C261.554,150.512,280.240,148.376,286.613,156.578"/>
<path class="path-15" d="M286.613,156.578C293.947,166.430,281.858,188.414,270.976,194.109"/>
<path class="path-15" d="M270.976,194.109C259.373,199.958,252.543,192.336,251.836,181.094"/>
<path class="path-15" d="M251.836,181.094C251.716,177.702,253.135,165.208,255.030,162.092"/>
<path class="path-16" d="M255.030,162.092C261.554,150.512,280.240,148.376,286.613,156.578C293.947,166.430,281.858,188.414,270.976,194.109C259.373,199.958,252.543,192.336,251.836,181.094C251.716,177.702,253.135,165.208,255.030,162.092Z"/>
</g>
<g id="earrings">
<path class="path-0" d="M279.544,207.223C270.396,211.824,269.237,193.460,272.582,193.711C277.296,195.221,288.400,206.434,279.544,207.223M289.471,199.275C282.868,199.885,279.566,190.941,278.935,187.159C286.463,188.598,296.029,193.897,289.471,199.275M300.270,196.032C297.645,187.872,285.205,183.485,277.327,180.062C274.371,178.778,265.852,188.968,265.486,192.338C264.390,196.486,267.503,218.938,281.578,215.840C287.306,214.312,302.378,202.588,300.270,196.032Z"/>
<path class="path-21" d="M278.935,187.159C286.463,188.598,296.029,193.897,289.471,199.275"/>
<path class="path-21" d="M289.471,199.275C282.868,199.885,279.566,190.941,278.935,187.159"/>
<path class="path-22" d="M278.935,187.159C286.463,188.598,296.029,193.897,289.471,199.275C282.868,199.885,279.566,190.941,278.935,187.159Z"/>
<path class="path-21" d="M272.582,193.711C277.296,195.221,288.400,206.434,279.544,207.223"/>
<path class="path-21" d="M279.544,207.223C270.396,211.824,269.237,193.460,272.582,193.711"/>
<path class="path-22" d="M272.582,193.711C277.296,195.221,288.400,206.434,279.544,207.223C270.396,211.824,269.237,193.460,272.582,193.711Z"/>
</g>
</g>
<g id="jacket">
<path class="path-0" d="M202.406,270.837C204.587,275.525,199.403,285.442,198.723,290.134C193.855,308.362,186.409,326.260,188.624,344.555C189.523,350.480,195.678,363.394,190.223,367.732C188.380,369.197,183.035,365.644,182.394,367.185C181.137,370.204,175.745,360.530,174.997,359.327C174.294,358.196,170.978,349.728,170.587,347.319C170.133,342.718,170.017,333.660,170.642,327.862C171.327,321.934,171.644,315.634,174.113,309.534C176.367,302.369,180.825,294.450,183.069,286.378C185.636,281.309,189.861,278.371,188.913,274.468C187.669,270.839,185.090,269.137,188.184,267.148C191.951,265.090,201.486,265.981,202.406,270.837M265.915,271.189C267.240,270.112,279.591,265.601,280.938,264.718C293.747,257.166,303.609,267.914,304.851,276.579C305.373,279.910,304.092,291.718,303.708,294.109C302.419,299.936,300.943,304.101,299.389,308.979C292.785,326.684,299.251,315.938,293.642,331.599C292.750,334.091,290.766,339.282,290.104,341.791C289.343,344.108,288.144,349.331,287.556,351.540C285.267,357.855,282.957,365.372,273.217,366.918C272.541,367.112,266.234,370.285,265.085,370.654C260.664,371.815,255.144,372.449,251.524,369.129C247.316,364.829,246.682,357.277,245.664,350.910C243.311,337.612,246.093,324.024,249.152,310.816C251.326,299.224,257.156,279.986,265.915,271.189M277.867,255.283C274.985,257.013,268.655,256.945,266.844,257.291C263.720,257.715,263.103,255.274,262.763,253.086C262.241,248.703,265.293,242.224,268.545,239.027C271.126,236.491,275.722,234.518,279.693,234.420C283.132,234.212,289.063,236.413,288.787,240.324C288.766,243.311,282.631,252.424,277.867,255.283M205.129,244.102C209.993,253.657,214.944,263.384,209.723,261.749C203.327,259.746,199.933,260.264,189.763,255.866C179.253,251.321,176.882,236.123,182.876,231.416C188.919,226.670,199.469,232.980,205.129,244.102M302.807,352.082C303.030,346.130,304.065,342.232,303.950,336.015C303.814,331.229,304.121,325.732,303.383,321.025C301.825,312.535,302.605,308.960,301.793,299.226C301.091,292.275,301.955,286.756,301.031,280.116C300.496,277.191,291.076,264.429,291.288,261.723C290.879,256.197,298.298,252.898,299.693,247.991C300.887,244.251,302.184,240.247,301.723,236.347C301.427,231.462,297.186,228.060,293.666,225.384C288.555,221.956,283.648,222.147,277.392,222.837C267.628,223.928,261.842,232.415,257.807,238.840C252.228,247.723,253.323,262.938,250.399,273.011C248.700,278.864,245.550,286.759,243.536,292.130C235.268,313.167,220.987,369.831,239.027,383.696C240.552,385.033,252.814,388.105,256.635,387.752C266.622,386.881,271.425,386.518,280.797,383.841C287.931,382.099,297.007,369.627,300.937,361.084C302.112,358.736,302.735,354.003,302.807,352.082M209.571,232.686C203.761,226.378,193.508,214.877,185.200,217.743C181.328,219.221,176.293,223.097,173.752,226.623C171.119,230.278,168.566,236.244,168.807,240.800C168.972,246.238,168.810,252.711,170.731,257.314C173.153,263.118,183.039,267.385,184.050,273.504C184.438,276.334,177.026,288.643,175.892,291.996C174.029,298.059,170.344,303.659,168.503,308.870C166.656,314.096,164.869,321.289,163.636,326.693C161.948,334.096,158.880,343.323,159.125,351.599C159.008,356.421,161.697,367.364,165.643,372.678C168.068,375.946,174.039,379.872,176.640,380.619C178.114,381.043,193.011,384.402,197.693,380.160C206.781,371.929,201.141,355.322,197.484,339.290C194.162,324.744,205.107,312.139,209.282,297.637C210.841,292.212,217.460,273.457,217.897,266.902C218.277,261.180,220.203,257.273,218.476,249.385C217.385,245.027,213.417,236.863,209.571,232.686Z"/>
<path class="path-1" d="M280.938,264.718C293.747,257.166,303.609,267.914,304.851,276.579"/>
<path class="path-1" d="M304.851,276.579C305.373,279.910,304.092,291.718,303.708,294.109"/>
<path class="path-1" d="M303.708,294.109C302.419,299.936,300.943,304.101,299.389,308.979"/>
<path class="path-1" d="M299.389,308.979C292.785,326.684,299.251,315.938,293.642,331.599"/>
<path class="path-1" d="M293.642,331.599C292.750,334.091,290.766,339.282,290.104,341.791"/>
<path class="path-1" d="M290.104,341.791C289.343,344.108,288.144,349.331,287.556,351.540"/>
<path class="path-1" d="M287.556,351.540C285.267,357.855,282.957,365.372,273.217,366.918"/>
<path class="path-1" d="M273.217,366.918C272.541,367.112,266.234,370.285,265.085,370.654"/>
<path class="path-1" d="M265.085,370.654C260.664,371.815,255.144,372.449,251.524,369.129"/>
<path class="path-1" d="M251.524,369.129C247.316,364.829,246.682,357.277,245.664,350.910"/>
<path class="path-1" d="M245.664,350.910C243.311,337.612,246.093,324.024,249.152,310.816"/>
<path class="path-1" d="M249.152,310.816C251.326,299.224,257.156,279.986,265.915,271.189"/>
<path class="path-1" d="M265.915,271.189C267.240,270.112,279.591,265.601,280.938,264.718"/>
<path class="path-2" d="M280.938,264.718C293.747,257.166,303.609,267.914,304.851,276.579C305.373,279.910,304.092,291.718,303.708,294.109C302.419,299.936,300.943,304.101,299.389,308.979C292.785,326.684,299.251,315.938,293.642,331.599C292.750,334.091,290.766,339.282,290.104,341.791C289.343,344.108,288.144,349.331,287.556,351.540C285.267,357.855,282.957,365.372,273.217,366.918C272.541,367.112,266.234,370.285,265.085,370.654C260.664,371.815,255.144,372.449,251.524,369.129C247.316,364.829,246.682,357.277,245.664,350.910C243.311,337.612,246.093,324.024,249.152,310.816C251.326,299.224,257.156,279.986,265.915,271.189C267.240,270.112,279.591,265.601,280.938,264.718Z"/>
<path class="path-1" d="M188.184,267.148C191.951,265.090,201.486,265.981,202.406,270.837"/>
<path class="path-1" d="M202.406,270.837C204.587,275.525,199.403,285.442,198.723,290.134"/>
<path class="path-1" d="M198.723,290.134C193.855,308.362,186.409,326.260,188.624,344.555"/>
<path class="path-1" d="M188.624,344.555C189.523,350.480,195.678,363.394,190.223,367.732"/>
<path class="path-1" d="M190.223,367.732C188.380,369.197,183.035,365.644,182.394,367.185"/>
<path class="path-1" d="M182.394,367.185C181.137,370.204,175.745,360.530,174.997,359.327"/>
<path class="path-1" d="M174.997,359.327C174.294,358.196,170.978,349.728,170.587,347.319"/>
<path class="path-1" d="M170.587,347.319C170.133,342.718,170.017,333.660,170.642,327.862"/>
<path class="path-1" d="M170.642,327.862C171.327,321.934,171.644,315.634,174.113,309.534"/>
<path class="path-1" d="M174.113,309.534C176.367,302.369,180.825,294.450,183.069,286.378"/>
<path class="path-1" d="M183.069,286.378C185.636,281.309,189.861,278.371,188.913,274.468"/>
<path class="path-1" d="M188.913,274.468C187.669,270.839,185.090,269.137,188.184,267.148"/>
<path class="path-2" d="M188.184,267.148C191.951,265.090,201.486,265.981,202.406,270.837C204.587,275.525,199.403,285.442,198.723,290.134C193.855,308.362,186.409,326.260,188.624,344.555C189.523,350.480,195.678,363.394,190.223,367.732C188.380,369.197,183.035,365.644,182.394,367.185C181.137,370.204,175.745,360.530,174.997,359.327C174.294,358.196,170.978,349.728,170.587,347.319C170.133,342.718,170.017,333.660,170.642,327.862C171.327,321.934,171.644,315.634,174.113,309.534C176.367,302.369,180.825,294.450,183.069,286.378C185.636,281.309,189.861,278.371,188.913,274.468C187.669,270.839,185.090,269.137,188.184,267.148Z"/>
<path class="path-1" d="M279.693,234.420C283.132,234.212,289.063,236.413,288.787,240.324"/>
<path class="path-1" d="M288.787,240.324C288.766,243.311,282.631,252.424,277.867,255.283"/>
<path class="path-1" d="M277.867,255.283C274.985,257.013,268.655,256.945,266.844,257.291"/>
<path class="path-1" d="M266.844,257.291C263.720,257.715,263.103,255.274,262.763,253.086"/>
<path class="path-1" d="M262.763,253.086C262.241,248.703,265.293,242.224,268.545,239.027"/>
<path class="path-1" d="M268.545,239.027C271.126,236.491,275.722,234.518,279.693,234.420"/>
<path class="path-2" d="M279.693,234.420C283.132,234.212,289.063,236.413,288.787,240.324C288.766,243.311,282.631,252.424,277.867,255.283C274.985,257.013,268.655,256.945,266.844,257.291C263.720,257.715,263.103,255.274,262.763,253.086C262.241,248.703,265.293,242.224,268.545,239.027C271.126,236.491,275.722,234.518,279.693,234.420Z"/>
<path class="path-1" d="M205.129,244.102C209.993,253.657,214.944,263.384,209.723,261.749"/>
<path class="path-1" d="M209.723,261.749C203.327,259.746,199.933,260.264,189.763,255.866"/>
<path class="path-1" d="M189.763,255.866C179.253,251.321,176.882,236.123,182.876,231.416"/>
<path class="path-1" d="M182.876,231.416C188.919,226.670,199.469,232.980,205.129,244.102"/>
<path class="path-2" d="M205.129,244.102C209.993,253.657,214.944,263.384,209.723,261.749C203.327,259.746,199.933,260.264,189.763,255.866C179.253,251.321,176.882,236.123,182.876,231.416C188.919,226.670,199.469,232.980,205.129,244.102Z"/>
</g>
<g id="left_arm">
<path class="path-0" d="M290.902,459.809C287.575,454.485,286.245,445.502,293.897,443.175C299.221,441.510,323.174,446.834,327.167,450.826C334.153,457.148,330.161,471.786,321.510,475.113C311.529,478.439,296.226,468.127,290.902,459.809M279.516,276.423C280.393,273.226,288.864,263.064,293.897,264.184C296.819,264.834,298.222,269.839,299.220,272.502C301.881,280.818,304.543,289.469,306.872,298.119C313.194,320.741,317.518,343.366,322.177,365.988C323.839,375.305,323.839,387.613,327.167,395.931C331.159,405.579,337.479,402.253,340.474,408.573C341.805,411.567,341.140,417.224,343.136,421.881C346.130,429.201,351.785,433.194,354.446,437.851C356.111,440.512,356.776,443.506,353.117,444.173C351.121,445.171,345.797,444.173,343.801,444.173C337.144,442.402,330.490,440.627,323.840,438.849C314.857,436.852,287.575,435.521,282.918,429.533C275.931,420.218,286.910,409.240,288.242,399.924C288.907,396.930,292.189,352.967,291.567,350.019C290.899,343.164,287.387,337.131,285.841,330.057C284.214,320.430,282.539,310.147,281.179,300.115C280.223,291.877,276.733,285.067,279.516,276.423M305.541,254.536C303.213,249.877,295.893,241.561,289.904,242.890C284.914,244.222,284.249,250.210,283.582,254.203C281.920,264.184,279.924,272.502,279.924,282.149C279.590,289.136,280.257,295.458,280.921,302.111C281.586,311.427,279.590,329.392,279.924,340.038C279.924,349.686,282.253,359.667,281.586,367.985C279.590,387.613,271.273,406.246,271.938,425.874C271.939,435.855,274.600,435.855,276.929,443.840C278.592,449.828,277.263,456.150,279.590,461.805C285.579,476.776,302.880,490.416,319.847,487.091C335.483,484.096,336.150,467.129,344.466,458.146C351.786,450.161,366.424,454.154,368.420,445.835C370.416,438.849,360.769,431.198,357.110,425.874C349.790,415.893,355.445,413.563,351.786,405.912C349.125,400.257,341.471,395.267,337.813,387.947C335.816,384.619,334.819,378.299,333.487,373.973C330.826,363.992,327.831,352.680,326.169,342.034C324.504,329.724,324.173,318.745,320.845,306.103C318.184,295.458,310.200,262.852,305.541,254.536Z"/>
<path class="path-1" d="M293.897,264.184C296.819,264.834,298.222,269.839,299.220,272.502"/>
<path class="path-1" d="M299.220,272.502C301.881,280.818,304.543,289.469,306.872,298.119"/>
<path class="path-1" d="M306.872,298.119C313.194,320.741,317.518,343.366,322.177,365.988"/>
<path class="path-1" d="M322.177,365.988C323.839,375.305,323.839,387.613,327.167,395.931"/>
<path class="path-1" d="M327.167,395.931C331.159,405.579,337.479,402.253,340.474,408.573"/>
<path class="path-1" d="M340.474,408.573C341.805,411.567,341.140,417.224,343.136,421.881"/>
<path class="path-1" d="M343.136,421.881C346.130,429.201,351.785,433.194,354.446,437.851"/>
<path class="path-1" d="M354.446,437.851C356.111,440.512,356.776,443.506,353.117,444.173"/>
<path class="path-1" d="M353.117,444.173C351.121,445.171,345.797,444.173,343.801,444.173"/>
<path class="path-1" d="M343.801,444.173C337.144,442.402,330.490,440.627,323.840,438.849"/>
<path class="path-1" d="M323.840,438.849C314.857,436.852,287.575,435.521,282.918,429.533"/>
<path class="path-1" d="M282.918,429.533C275.931,420.218,286.910,409.240,288.242,399.924"/>
<path class="path-1" d="M288.242,399.924C288.907,396.930,292.189,352.967,291.567,350.019"/>
<path class="path-1" d="M291.567,350.019C290.899,343.164,287.387,337.131,285.841,330.057"/>
<path class="path-1" d="M285.841,330.057C284.214,320.430,282.539,310.147,281.179,300.115"/>
<path class="path-1" d="M281.179,300.115C280.223,291.877,276.733,285.067,279.516,276.423"/>
<path class="path-1" d="M279.516,276.423C280.393,273.226,288.864,263.064,293.897,264.184"/>
<path class="path-2" d="M293.897,264.184C296.819,264.834,298.222,269.839,299.220,272.502C301.881,280.818,304.543,289.469,306.872,298.119C313.194,320.741,317.518,343.366,322.177,365.988C323.839,375.305,323.839,387.613,327.167,395.931C331.159,405.579,337.479,402.253,340.474,408.573C341.805,411.567,341.140,417.224,343.136,421.881C346.130,429.201,351.785,433.194,354.446,437.851C356.111,440.512,356.776,443.506,353.117,444.173C351.121,445.171,345.797,444.173,343.801,444.173C337.144,442.402,330.490,440.627,323.840,438.849C314.857,436.852,287.575,435.521,282.918,429.533C275.931,420.218,286.910,409.240,288.242,399.924C288.907,396.930,292.189,352.967,291.567,350.019C290.899,343.164,287.387,337.131,285.841,330.057C284.214,320.430,282.539,310.147,281.179,300.115C280.223,291.877,276.733,285.067,279.516,276.423C280.393,273.226,288.864,263.064,293.897,264.184Z"/>
<path class="path-15" d="M293.897,443.175C299.221,441.510,323.174,446.834,327.167,450.826"/>
<path class="path-15" d="M327.167,450.826C334.153,457.148,330.161,471.786,321.510,475.113"/>
<path class="path-15" d="M321.510,475.113C311.529,478.439,296.226,468.127,290.902,459.809"/>
<path class="path-15" d="M290.902,459.809C287.575,454.485,286.245,445.502,293.897,443.175"/>
<path class="path-16" d="M293.897,443.175C299.221,441.510,323.174,446.834,327.167,450.826C334.153,457.148,330.161,471.786,321.510,475.113C311.529,478.439,296.226,468.127,290.902,459.809C287.575,454.485,286.245,445.502,293.897,443.175Z"/>
</g>
<g id="bone">
<g id="bone1_clothes">
<path class="path-23" d="M236.275,389.910C236.276,389.904,248.223,332.138,248.224,332.132C248.224,332.138,247.340,391.120,247.340,391.126C247.339,391.126,236.276,389.910,236.275,389.910"/>
</g>
<g id="bone2_clothes">
<path class="path-23" d="M232.650,327.892C232.650,327.885,230.547,255.389,230.546,255.382C230.548,255.389,246.312,326.181,246.313,326.188C246.312,326.188,232.651,327.892,232.650,327.892"/>
</g>
<g id="bone3_neck">
<path class="path-23" d="M237.800,254.128C237.800,254.124,237.232,212.428,237.232,212.424C237.232,212.428,231.217,253.692,231.217,253.696C231.217,253.696,237.799,254.128,237.800,254.128"/>
</g>
<g id="bone4_head">
<path class="path-23" d="M230.463,213.229C230.462,213.221,225.062,135.344,225.062,135.336C225.064,135.344,242.788,211.368,242.790,211.376C242.789,211.376,230.464,213.229,230.463,213.229"/>
</g>
<g id="bone5_left_arm">
<path class="path-23" d="M298.163,255.461C298.165,255.470,320.627,345.167,320.630,345.176C320.626,345.168,283.247,260.593,283.243,260.585C283.245,260.584,298.161,255.462,298.163,255.461"/>
</g>
<g id="bone6_left_arm">
<path class="path-23" d="M300.881,349.128C300.882,349.134,307.164,412.560,307.165,412.567C307.165,412.560,311.321,348.959,311.321,348.953C311.320,348.953,300.882,349.128,300.881,349.128"/>
</g>
<g id="bone7_right_arm">
<path class="path-23" d="M169.131,269.641C169.129,269.653,149.258,383.430,149.256,383.441C149.259,383.430,186.833,274.214,186.837,274.203C186.835,274.203,169.133,269.642,169.131,269.641"/>
</g>
<g id="bone8_right_arm">
<path class="path-23" d="M157.157,379.808C157.160,379.814,181.052,434.331,181.054,434.336C181.051,434.331,146.694,385.725,146.691,385.720C146.692,385.720,157.156,379.809,157.157,379.808"/>
</g>
<g id="bone9_left_leg">
<path class="path-23" d="M271.610,383.641C271.613,383.651,301.649,483.992,301.652,484.003C301.648,483.993,254.561,390.440,254.556,390.431C254.558,390.430,271.608,383.642,271.610,383.641"/>
</g>
<g id="bone10_right_leg">
<path class="path-23" d="M209.445,385.238C209.445,385.248,206.622,487.419,206.621,487.430C206.623,487.419,224.867,386.851,224.869,386.841C224.868,386.840,209.447,385.238,209.445,385.238"/>
</g>
<g id="bone11_hair">
<path class="path-23" d="M234.234,155.907C234.236,155.915,254.424,233.516,254.426,233.524C254.423,233.516,220.374,160.920,220.371,160.913C220.372,160.913,234.233,155.907,234.234,155.907"/>
</g>
<g id="bone12_left_leg_S">
<path class="path-23" d="M435.742,222.326C435.749,222.326,508.076,220.723,508.083,220.723C508.076,220.722,436.469,210.420,436.462,210.419C436.462,210.420,435.742,222.325,435.742,222.326"/>
</g>
<g id="bone13_right_leg_S">
<path class="path-23" d="M495.565,210.766C495.558,210.767,424.565,224.684,424.558,224.686C424.565,224.685,496.880,222.622,496.887,222.621C496.887,222.620,495.565,210.767,495.565,210.766"/>
</g>
<g id="bone14_left_arm_S">
<path class="path-23" d="M557.459,215.989C557.458,215.981,551.495,143.884,551.494,143.876C551.494,143.884,545.530,215.981,545.530,215.989C545.531,215.989,557.458,215.989,557.459,215.989"/>
</g>
<g id="bone15_jacket_S">
<path class="path-23" d="M599.713,211.882C599.710,211.888,569.057,277.418,569.054,277.424C569.058,277.418,610.061,217.816,610.065,217.810C610.064,217.809,599.714,211.882,599.713,211.882"/>
</g>
<g id="bone16_pupils_S">
<path class="path-23" d="M442.221,337.675C442.220,337.668,440.191,265.352,440.190,265.345C440.189,265.352,430.310,337.019,430.309,337.026C430.310,337.026,442.219,337.675,442.221,337.675"/>
</g>
<g id="bone17_eyelids_S">
<path class="path-23" d="M496.529,331.478C496.522,331.478,424.424,337.442,424.417,337.442C424.424,337.443,496.522,343.406,496.529,343.407C496.529,343.406,496.529,331.479,496.529,331.478"/>
</g>
<g id="bone18_face_S">
<path class="path-23" d="M553.915,344.195C553.921,344.192,619.659,313.990,619.666,313.987C619.659,313.989,549.852,332.980,549.845,332.982C549.845,332.983,553.914,344.194,553.915,344.195"/>
</g>
</g>
</g>
<style>
.path-0{fill:#000000;fill-rule:evenodd;stroke:none;}
.path-1{fill:none;stroke:#a60d3f;stroke-width:1;stroke-linecap:butt;stroke-linejoin:round;}
.path-2{fill:#a60d3f;fill-rule:evenodd;stroke:none;}
.path-3{fill:none;stroke:#d88e4b;stroke-width:1;stroke-linecap:butt;stroke-linejoin:round;}
.path-4{fill:#d88e4b;fill-rule:evenodd;stroke:none;}
.path-5{fill:none;stroke:#6e2353;stroke-width:1;stroke-linecap:butt;stroke-linejoin:round;}
.path-6{fill:#6e2353;fill-rule:evenodd;stroke:none;}
.path-7{fill:none;stroke:#392966;stroke-width:1;stroke-linecap:butt;stroke-linejoin:round;}
.path-8{fill:#392966;fill-rule:evenodd;stroke:none;}
.path-9{fill:none;stroke:#cc9bc5;stroke-width:1;stroke-linecap:butt;stroke-linejoin:round;}
.path-10{fill:#cc9bc5;fill-rule:evenodd;stroke:none;}
.path-11{fill:none;stroke:#620527;stroke-width:1;stroke-linecap:butt;stroke-linejoin:round;}
.path-12{fill:#620527;fill-rule:evenodd;stroke:none;}
.path-13{fill:none;stroke:#6a3661;stroke-width:1;stroke-linecap:butt;stroke-linejoin:round;}
.path-14{fill:#6a3661;fill-rule:evenodd;stroke:none;}
.path-15{fill:none;stroke:#f8a087;stroke-width:1;stroke-linecap:butt;stroke-linejoin:round;}
.path-16{fill:#f8a087;fill-rule:evenodd;stroke:none;}
.path-17{fill:none;stroke:#ffffff;stroke-width:1;stroke-linecap:butt;stroke-linejoin:round;}
.path-18{fill:#ffffff;fill-rule:evenodd;stroke:none;}
.path-19{fill:none;stroke:#d89f4a;stroke-width:1;stroke-linecap:butt;stroke-linejoin:round;}
.path-20{fill:#d89f4a;fill-rule:evenodd;stroke:none;}
.path-21{fill:none;stroke:#fafd5b;stroke-width:1;stroke-linecap:butt;stroke-linejoin:round;}
.path-22{fill:#fafd5b;fill-rule:evenodd;stroke:none;}
.path-23{fill:none;stroke:#00ff42;stroke-width:8;stroke-linecap:round;stroke-linejoin:round;}
.path-24{fill:none;stroke:#000000;stroke-width:1;stroke-linecap:butt;stroke-linejoin:round;}
.path-25{fill:none;stroke:#ececec;stroke-width:1;stroke-linecap:butt;stroke-linejoin:round;}
.path-26{fill:#ececec;fill-rule:evenodd;stroke:none;}
.path-27{fill:none;stroke:#808080;stroke-width:1;stroke-linecap:butt;stroke-linejoin:round;}
.path-28{fill:#808080;fill-rule:evenodd;stroke:none;}
.path-29{fill:none;stroke:#282828;stroke-width:1;stroke-linecap:butt;stroke-linejoin:round;}
.path-30{fill:#282828;fill-rule:evenodd;stroke:none;}
</style>
</svg>
