<svg version="1.1" id="Frame_172" xmlns="http://www.w3.org/2000/svg" xmlns:xlink="http://www.w3.org/1999/xlink" width="480px" height="720px">
<g id="main_bone">
<g id="right_arm">
<path class="path-0" d="M174.126,270.172C175.458,267.511,178.075,262.017,181.778,260.525C188.182,257.943,193.652,263.933,194.431,268.509C196.093,276.447,190.936,287.396,188.470,295.289C182.390,314.329,175.637,333.084,171.132,352.015C170.600,355.317,165.808,376.634,165.808,373.973C165.476,380.626,172.130,386.283,174.459,391.939C177.454,399.590,174.791,406.910,172.795,413.897C168.138,428.535,168.471,433.858,167.804,448.165C167.804,450.492,167.473,458.146,163.812,458.146C160.487,458.146,160.153,452.157,159.488,449.828C159.155,447.167,156.825,441.510,157.492,439.182C157.823,435.190,162.483,436.188,157.492,427.870C151.170,417.555,139.526,409.240,136.532,395.931C134.536,385.285,140.191,375.969,143.186,365.988C149.508,344.695,156.494,323.404,163.812,302.111C167.805,291.132,168.802,281.484,174.126,270.172M193.754,262.188C193.755,253.538,190.761,245.885,180.115,249.546C163.481,255.200,158.822,281.484,154.165,296.122C147.512,316.084,141.855,336.046,136.199,356.007C133.870,364.657,130.544,368.982,129.212,373.973C127.549,379.628,127.881,388.280,128.214,393.935C128.214,411.567,133.869,412.234,140.856,425.874C144.517,433.859,140.525,438.849,142.852,445.835C144.517,450.492,148.176,453.820,150.837,457.813C153.166,461.805,153.499,464.135,155.162,467.793C157.158,472.119,163.481,481.767,169.136,479.771C173.793,478.108,173.793,469.790,174.126,465.797C174.459,459.809,178.119,436.853,179.450,429.866C181.778,418.554,187.435,406.245,185.770,393.935C184.440,384.619,176.122,377.965,176.456,367.985C176.787,362.661,180.115,354.011,181.113,348.023C182.776,338.375,182.776,328.061,184.772,318.081C188.099,300.448,194.421,280.487,193.754,262.188Z"/>
<path class="path-1" d="M181.778,260.525C188.182,257.943,193.652,263.933,194.431,268.509"/>
<path class="path-1" d="M194.431,268.509C196.093,276.447,190.936,287.396,188.470,295.289"/>
<path class="path-1" d="M188.470,295.289C182.390,314.329,175.637,333.084,171.132,352.015"/>
<path class="path-1" d="M171.132,352.015C170.600,355.317,165.808,376.634,165.808,373.973"/>
<path class="path-1" d="M165.808,373.973C165.476,380.626,172.130,386.283,174.459,391.939"/>
<path class="path-1" d="M174.459,391.939C177.454,399.590,174.791,406.910,172.795,413.897"/>
<path class="path-1" d="M172.795,413.897C168.138,428.535,168.471,433.858,167.804,448.165"/>
<path class="path-1" d="M167.804,448.165C167.804,450.492,167.473,458.146,163.812,458.146"/>
<path class="path-1" d="M163.812,458.146C160.487,458.146,160.153,452.157,159.488,449.828"/>
<path class="path-1" d="M159.488,449.828C159.155,447.167,156.825,441.510,157.492,439.182"/>
<path class="path-1" d="M157.492,439.182C157.823,435.190,162.483,436.188,157.492,427.870"/>
<path class="path-1" d="M157.492,427.870C151.170,417.555,139.526,409.240,136.532,395.931"/>
<path class="path-1" d="M136.532,395.931C134.536,385.285,140.191,375.969,143.186,365.988"/>
<path class="path-1" d="M143.186,365.988C149.508,344.695,156.494,323.404,163.812,302.111"/>
<path class="path-1" d="M163.812,302.111C167.805,291.132,168.802,281.484,174.126,270.172"/>
<path class="path-1" d="M174.126,270.172C175.458,267.511,178.075,262.017,181.778,260.525"/>
<path class="path-2" d="M181.778,260.525C188.182,257.943,193.652,263.933,194.431,268.509C196.093,276.447,190.936,287.396,188.470,295.289C182.390,314.329,175.637,333.084,171.132,352.015C170.600,355.317,165.808,376.634,165.808,373.973C165.476,380.626,172.130,386.283,174.459,391.939C177.454,399.590,174.791,406.910,172.795,413.897C168.138,428.535,168.471,433.858,167.804,448.165C167.804,450.492,167.473,458.146,163.812,458.146C160.487,458.146,160.153,452.157,159.488,449.828C159.155,447.167,156.825,441.510,157.492,439.182C157.823,435.190,162.483,436.188,157.492,427.870C151.170,417.555,139.526,409.240,136.532,395.931C134.536,385.285,140.191,375.969,143.186,365.988C149.508,344.695,156.494,323.404,163.812,302.111C167.805,291.132,168.802,281.484,174.126,270.172C175.458,267.511,178.075,262.017,181.778,260.525Z"/>
</g>
<g id="layer_left_leg">
<g id="left_heel">
<path class="path-0" d="M255.863,629.503C248.837,617.906,262.746,598.734,274.076,596.462C291.516,592.777,304.538,618.582,302.370,624.835C298.748,634.308,282.210,634.573,273.566,634.622C268.939,634.496,258.092,633.358,255.863,629.503M302.352,595.345C292.476,585.663,269.891,587.482,258.958,593.734C236.005,606.285,231.100,648.260,264.958,647.217C276.725,646.910,302.686,644.600,309.665,637.394C315.794,631.793,313.859,622.314,311.990,614.779C310.083,608.669,306.995,600.029,302.352,595.345Z"/>
<path class="path-3" d="M274.076,596.462C291.516,592.777,304.538,618.582,302.370,624.835"/>
<path class="path-3" d="M302.370,624.835C298.748,634.308,282.210,634.573,273.566,634.622"/>
<path class="path-3" d="M273.566,634.622C268.939,634.496,258.092,633.358,255.863,629.503"/>
<path class="path-3" d="M255.863,629.503C248.837,617.906,262.746,598.734,274.076,596.462"/>
<path class="path-4" d="M274.076,596.462C291.516,592.777,304.538,618.582,302.370,624.835C298.748,634.308,282.210,634.573,273.566,634.622C268.939,634.496,258.092,633.358,255.863,629.503C248.837,617.906,262.746,598.734,274.076,596.462Z"/>
</g>
<g id="left_leg">
<path class="path-0" d="M238.898,405.789C240.604,401.168,250.098,404.782,253.973,404.581C259.846,404.560,273.072,402.463,277.855,406.066C286.438,412.094,288.468,441.114,288.878,451.196C289.253,482.567,291.161,511.970,291.981,542.254C292.003,548.971,291.927,555.907,292.115,562.490C292.482,567.717,291.226,574.318,294.519,578.000C295.754,579.993,300.303,579.061,300.283,581.235C299.673,589.763,291.983,584.925,287.683,589.227C279.968,596.485,265.807,603.323,256.535,600.760C250.125,599.217,239.383,591.674,236.984,585.628C234.661,579.773,233.158,572.679,232.143,566.585C227.573,539.163,243.283,481.235,236.969,451.564C232.953,432.690,241.791,431.824,248.859,418.713C250.003,416.592,238.379,419.085,236.730,417.280C234.439,415.143,237.683,408.599,238.898,405.789M285.012,397.243C278.729,392.462,261.295,394.525,253.973,394.933C249.979,395.140,237.470,392.116,234.523,393.929C216.631,404.938,223.696,444.839,225.629,461.859C225.851,466.629,224.622,489.393,224.263,495.811C224.344,523.391,218.272,546.960,219.962,574.488C220.334,582.232,219.857,589.902,222.605,597.038C229.867,615.502,247.075,618.660,269.824,617.268C281.803,616.546,308.080,611.256,316.566,588.699C319.998,579.564,314.308,567.288,312.915,564.291C310.673,559.466,307.335,554.784,306.068,549.225C301.411,531.621,307.936,512.846,306.613,494.578C304.946,471.253,304.626,412.235,285.012,397.243Z"/>
<path class="path-7" d="M253.973,404.581C259.846,404.560,273.072,402.463,277.855,406.066"/>
<path class="path-7" d="M277.855,406.066C286.438,412.094,288.468,441.114,288.878,451.196"/>
<path class="path-7" d="M288.878,451.196C289.253,482.567,291.161,511.970,291.981,542.254"/>
<path class="path-7" d="M291.981,542.254C292.003,548.971,291.927,555.907,292.115,562.490"/>
<path class="path-7" d="M292.115,562.490C292.482,567.717,291.226,574.318,294.519,578.000"/>
<path class="path-7" d="M294.519,578.000C295.754,579.993,300.303,579.061,300.283,581.235"/>
<path class="path-7" d="M300.283,581.235C299.673,589.763,291.983,584.925,287.683,589.227"/>
<path class="path-7" d="M287.683,589.227C279.968,596.485,265.807,603.323,256.535,600.760"/>
<path class="path-7" d="M256.535,600.760C250.125,599.217,239.383,591.674,236.984,585.628"/>
<path class="path-7" d="M236.984,585.628C234.661,579.773,233.158,572.679,232.143,566.585"/>
<path class="path-7" d="M232.143,566.585C227.573,539.163,243.283,481.235,236.969,451.564"/>
<path class="path-7" d="M236.969,451.564C232.953,432.690,241.791,431.824,248.859,418.713"/>
<path class="path-7" d="M248.859,418.713C250.003,416.592,238.379,419.085,236.730,417.280"/>
<path class="path-7" d="M236.730,417.280C234.439,415.143,237.683,408.599,238.898,405.789"/>
<path class="path-7" d="M238.898,405.789C240.604,401.168,250.098,404.782,253.973,404.581"/>
<path class="path-8" d="M253.973,404.581C259.846,404.560,273.072,402.463,277.855,406.066C286.438,412.094,288.468,441.114,288.878,451.196C289.253,482.567,291.161,511.970,291.981,542.254C292.003,548.971,291.927,555.907,292.115,562.490C292.482,567.717,291.226,574.318,294.519,578.000C295.754,579.993,300.303,579.061,300.283,581.235C299.673,589.763,291.983,584.925,287.683,589.227C279.968,596.485,265.807,603.323,256.535,600.760C250.125,599.217,239.383,591.674,236.984,585.628C234.661,579.773,233.158,572.679,232.143,566.585C227.573,539.163,243.283,481.235,236.969,451.564C232.953,432.690,241.791,431.824,248.859,418.713C250.003,416.592,238.379,419.085,236.730,417.280C234.439,415.143,237.683,408.599,238.898,405.789C240.604,401.168,250.098,404.782,253.973,404.581Z"/>
</g>
<g id="left_toe">
<path class="path-0" d="M252.012,659.246C225.303,654.292,230.689,619.498,250.891,612.621C271.897,605.608,291.492,617.490,297.503,630.252C301.244,637.032,302.895,644.400,299.258,651.439C291.498,663.820,264.878,661.550,252.012,659.246M313.517,625.558C310.278,611.451,298.691,598.593,287.123,594.783C259.115,585.677,234.442,593.346,225.243,618.683C219.419,633.201,222.671,649.611,232.390,661.868C240.061,670.946,266.579,672.202,277.892,671.207C287.919,669.624,300.425,666.967,307.367,658.500C312.330,652.626,315.151,632.896,313.517,625.558Z"/>
<path class="path-3" d="M250.891,612.621C271.897,605.608,291.492,617.490,297.503,630.252"/>
<path class="path-3" d="M297.503,630.252C301.244,637.032,302.895,644.400,299.258,651.439"/>
<path class="path-3" d="M299.258,651.439C291.498,663.820,264.878,661.550,252.012,659.246"/>
<path class="path-3" d="M252.012,659.246C225.303,654.292,230.689,619.498,250.891,612.621"/>
<path class="path-4" d="M250.891,612.621C271.897,605.608,291.492,617.490,297.503,630.252C301.244,637.032,302.895,644.400,299.258,651.439C291.498,663.820,264.878,661.550,252.012,659.246C225.303,654.292,230.689,619.498,250.891,612.621Z"/>
</g>
<g id="left_sole">
<path class="path-0" d="M255.898,674.297C244.934,673.905,241.625,659.915,240.224,665.056C239.327,668.348,248.312,671.444,252.401,672.604C261.404,675.506,276.782,674.146,285.791,669.823C288.728,668.693,298.140,665.928,298.163,666.178C298.533,670.261,287.623,670.649,283.968,671.087C280.496,671.853,256.808,674.121,255.898,674.297M240.542,665.390C245.981,663.450,256.994,667.609,261.172,668.736C277.815,673.226,287.488,663.947,295.519,663.519C296.299,663.486,298.952,661.813,299.372,663.978C300.818,671.435,269.592,676.824,254.964,672.141C248.007,670.594,238.572,666.092,240.542,665.390M304.176,656.718C300.962,653.891,283.284,661.328,265.945,661.623C257.482,661.792,236.349,650.192,230.715,659.861C229.534,661.899,230.242,669.256,231.948,670.812C243.374,681.557,296.937,678.115,303.126,673.075C305.188,671.396,308.276,660.324,304.176,656.718Z"/>
<path class="path-5" d="M240.224,665.056C239.327,668.348,248.312,671.444,252.401,672.604"/>
<path class="path-5" d="M252.401,672.604C261.404,675.506,276.782,674.146,285.791,669.823"/>
<path class="path-5" d="M285.791,669.823C288.728,668.693,298.140,665.928,298.163,666.178"/>
<path class="path-5" d="M298.163,666.178C298.533,670.261,287.623,670.649,283.968,671.087"/>
<path class="path-5" d="M283.968,671.087C280.496,671.853,256.808,674.121,255.898,674.297"/>
<path class="path-5" d="M255.898,674.297C244.934,673.905,241.625,659.915,240.224,665.056"/>
<path class="path-6" d="M240.224,665.056C239.327,668.348,248.312,671.444,252.401,672.604C261.404,675.506,276.782,674.146,285.791,669.823C288.728,668.693,298.140,665.928,298.163,666.178C298.533,670.261,287.623,670.649,283.968,671.087C280.496,671.853,256.808,674.121,255.898,674.297C244.934,673.905,241.625,659.915,240.224,665.056Z"/>
<path class="path-5" d="M261.172,668.736C277.815,673.226,287.488,663.947,295.519,663.519"/>
<path class="path-5" d="M295.519,663.519C296.299,663.486,298.952,661.813,299.372,663.978"/>
<path class="path-5" d="M299.372,663.978C300.818,671.435,269.592,676.824,254.964,672.141"/>
<path class="path-5" d="M254.964,672.141C248.007,670.594,238.572,666.092,240.542,665.390"/>
<path class="path-5" d="M240.542,665.390C245.981,663.450,256.994,667.609,261.172,668.736"/>
<path class="path-6" d="M261.172,668.736C277.815,673.226,287.488,663.947,295.519,663.519C296.299,663.486,298.952,661.813,299.372,663.978C300.818,671.435,269.592,676.824,254.964,672.141C248.007,670.594,238.572,666.092,240.542,665.390C245.981,663.450,256.994,667.609,261.172,668.736Z"/>
</g>
</g>
<g id="layer_right_leg">
<g id="right_heel">
<path class="path-0" d="M183.668,617.365C184.493,601.068,185.662,588.421,205.548,585.541C214.425,584.092,231.337,586.902,236.221,595.487C238.786,599.745,237.997,605.995,238.239,610.545C238.698,617.952,243.203,632.250,232.764,633.970C232.094,634.147,213.640,634.443,207.880,634.586C200.454,635.462,192.730,636.005,187.361,630.860C184.643,627.681,183.400,621.156,183.668,617.365M245.730,593.782C241.818,583.401,227.545,577.538,217.497,579.007C204.425,580.755,191.043,576.433,182.530,588.668C175.929,598.152,175.157,615.582,177.130,626.646C177.876,631.777,181.111,641.137,185.373,643.978C188.498,645.966,193.328,645.393,197.022,645.398C215.053,645.710,247.264,651.843,246.883,624.941C246.712,618.040,247.766,599.242,245.730,593.782Z"/>
<path class="path-3" d="M205.548,585.541C214.425,584.092,231.337,586.902,236.221,595.487"/>
<path class="path-3" d="M236.221,595.487C238.786,599.745,237.997,605.995,238.239,610.545"/>
<path class="path-3" d="M238.239,610.545C238.698,617.952,243.203,632.250,232.764,633.970"/>
<path class="path-3" d="M232.764,633.970C232.094,634.147,213.640,634.443,207.880,634.586"/>
<path class="path-3" d="M207.880,634.586C200.454,635.462,192.730,636.005,187.361,630.860"/>
<path class="path-3" d="M187.361,630.860C184.643,627.681,183.400,621.156,183.668,617.365"/>
<path class="path-3" d="M183.668,617.365C184.493,601.068,185.662,588.421,205.548,585.541"/>
<path class="path-4" d="M205.548,585.541C214.425,584.092,231.337,586.902,236.221,595.487C238.786,599.745,237.997,605.995,238.239,610.545C238.698,617.952,243.203,632.250,232.764,633.970C232.094,634.147,213.640,634.443,207.880,634.586C200.454,635.462,192.730,636.005,187.361,630.860C184.643,627.681,183.400,621.156,183.668,617.365C184.493,601.068,185.662,588.421,205.548,585.541Z"/>
</g>
<g id="right_leg">
<path class="path-0" d="M182.996,404.767C186.614,392.918,202.299,390.138,212.784,393.055C218.616,394.549,228.338,397.417,231.565,402.900C233.051,405.426,233.640,410.131,232.143,412.651C229.664,416.827,214.037,414.548,217.038,418.469C222.177,425.388,231.873,415.758,236.199,419.558C238.174,421.293,238.324,424.942,238.708,427.955C242.633,449.747,235.717,472.940,235.323,494.418C235.127,501.346,233.232,511.542,234.366,517.865C236.669,533.726,234.896,537.033,235.227,546.541C235.129,550.064,233.234,567.905,234.336,572.503C235.562,577.212,238.691,581.798,239.136,586.668C239.892,594.940,228.208,606.115,220.789,608.436C212.510,610.847,186.899,609.290,179.124,605.053C175.922,603.428,172.079,599.422,170.791,595.795C169.445,592.564,167.561,577.422,168.544,573.753C170.534,567.308,172.974,565.973,175.048,558.353C177.163,549.405,179.530,539.753,179.048,530.356C177.701,511.190,178.570,481.170,180.789,467.625C181.872,459.822,180.277,433.555,181.373,426.332C183.237,414.754,181.176,412.508,182.996,404.767M208.062,381.294C202.406,379.297,198.066,373.931,192.092,375.969C190.290,376.756,187.140,379.005,185.860,380.306C169.893,394.062,171.096,407.880,171.055,427.449C170.746,434.475,170.722,441.777,170.116,448.509C169.502,454.087,167.844,458.699,166.567,463.820C165.799,468.053,165.115,472.577,164.901,477.893C164.814,483.357,166.270,489.770,166.376,499.051C165.769,509.100,166.434,518.590,165.950,528.201C165.843,534.458,162.831,548.942,161.928,553.694C159.643,560.519,156.221,568.352,154.630,574.965C153.056,583.683,154.772,592.884,158.192,600.558C159.823,604.806,162.737,609.868,165.906,612.743C167.984,614.628,170.758,615.813,173.266,616.736C181.044,619.550,188.480,620.870,196.820,621.214C202.550,621.494,208.212,620.083,214.164,620.492C215.187,620.405,223.551,621.895,225.204,621.987C228.081,621.982,232.125,619.472,234.737,617.913C238.118,615.639,243.978,614.806,246.797,611.709C249.240,609.020,250.362,605.350,251.691,601.966C259.145,582.164,252.462,570.864,249.962,552.551C248.584,542.458,246.359,521.673,246.612,510.395C246.639,496.697,249.602,483.492,250.486,469.398C250.859,464.886,251.258,459.473,252.017,454.368C252.673,449.345,251.541,445.286,251.317,440.302C250.913,436.436,251.230,424.038,250.646,419.885C250.272,416.185,250.314,411.567,248.983,407.908C245.324,398.592,231.351,388.280,222.034,385.285C217.377,383.621,212.387,383.290,208.062,381.294Z"/>
<path class="path-7" d="M212.784,393.055C218.616,394.549,228.338,397.417,231.565,402.900"/>
<path class="path-7" d="M231.565,402.900C233.051,405.426,233.640,410.131,232.143,412.651"/>
<path class="path-7" d="M232.143,412.651C229.664,416.827,214.037,414.548,217.038,418.469"/>
<path class="path-7" d="M217.038,418.469C222.177,425.388,231.873,415.758,236.199,419.558"/>
<path class="path-7" d="M236.199,419.558C238.174,421.293,238.324,424.942,238.708,427.955"/>
<path class="path-7" d="M238.708,427.955C242.633,449.747,235.717,472.940,235.323,494.418"/>
<path class="path-7" d="M235.323,494.418C235.127,501.346,233.232,511.542,234.366,517.865"/>
<path class="path-7" d="M234.366,517.865C236.669,533.726,234.896,537.033,235.227,546.541"/>
<path class="path-7" d="M235.227,546.541C235.129,550.064,233.234,567.905,234.336,572.503"/>
<path class="path-7" d="M234.336,572.503C235.562,577.212,238.691,581.798,239.136,586.668"/>
<path class="path-7" d="M239.136,586.668C239.892,594.940,228.208,606.115,220.789,608.436"/>
<path class="path-7" d="M220.789,608.436C212.510,610.847,186.899,609.290,179.124,605.053"/>
<path class="path-7" d="M179.124,605.053C175.922,603.428,172.079,599.422,170.791,595.795"/>
<path class="path-7" d="M170.791,595.795C169.445,592.564,167.561,577.422,168.544,573.753"/>
<path class="path-7" d="M168.544,573.753C170.534,567.308,172.974,565.973,175.048,558.353"/>
<path class="path-7" d="M175.048,558.353C177.163,549.405,179.530,539.753,179.048,530.356"/>
<path class="path-7" d="M179.048,530.356C177.701,511.190,178.570,481.170,180.789,467.625"/>
<path class="path-7" d="M180.789,467.625C181.872,459.822,180.277,433.555,181.373,426.332"/>
<path class="path-7" d="M181.373,426.332C183.237,414.754,181.176,412.508,182.996,404.767"/>
<path class="path-7" d="M182.996,404.767C186.614,392.918,202.299,390.138,212.784,393.055"/>
<path class="path-8" d="M212.784,393.055C218.616,394.549,228.338,397.417,231.565,402.900C233.051,405.426,233.640,410.131,232.143,412.651C229.664,416.827,214.037,414.548,217.038,418.469C222.177,425.388,231.873,415.758,236.199,419.558C238.174,421.293,238.324,424.942,238.708,427.955C242.633,449.747,235.717,472.940,235.323,494.418C235.127,501.346,233.232,511.542,234.366,517.865C236.669,533.726,234.896,537.033,235.227,546.541C235.129,550.064,233.234,567.905,234.336,572.503C235.562,577.212,238.691,581.798,239.136,586.668C239.892,594.940,228.208,606.115,220.789,608.436C212.510,610.847,186.899,609.290,179.124,605.053C175.922,603.428,172.079,599.422,170.791,595.795C169.445,592.564,167.561,577.422,168.544,573.753C170.534,567.308,172.974,565.973,175.048,558.353C177.163,549.405,179.530,539.753,179.048,530.356C177.701,511.190,178.570,481.170,180.789,467.625C181.872,459.822,180.277,433.555,181.373,426.332C183.237,414.754,181.176,412.508,182.996,404.767C186.614,392.918,202.299,390.138,212.784,393.055Z"/>
</g>
<g id="right_toe">
<path class="path-0" d="M167.512,642.379C168.879,629.200,174.174,612.271,190.223,609.991C193.937,609.265,199.166,611.023,203.289,611.861C224.317,616.076,232.540,620.756,233.224,642.379C233.291,648.285,234.168,655.611,229.756,660.352C225.329,665.024,204.434,662.432,198.053,662.696C186.788,663.410,177.079,668.712,169.314,658.870C164.729,652.932,166.798,649.359,167.512,642.379M241.640,619.849C234.701,605.941,202.409,597.605,187.846,600.247C166.121,604.313,159.003,621.335,157.572,639.773C157.013,646.353,156.172,653.589,159.454,659.411C160.624,661.487,163.109,664.257,164.827,665.919C177.803,679.556,187.281,677.900,204.834,677.745C214.119,677.819,229.543,676.940,237.007,670.731C242.575,665.644,243.172,660.112,243.442,653.011C243.458,646.176,244.421,624.914,241.640,619.849Z"/>
<path class="path-3" d="M190.223,609.991C193.937,609.265,199.166,611.023,203.289,611.861"/>
<path class="path-3" d="M203.289,611.861C224.317,616.076,232.540,620.756,233.224,642.379"/>
<path class="path-3" d="M233.224,642.379C233.291,648.285,234.168,655.611,229.756,660.352"/>
<path class="path-3" d="M229.756,660.352C225.329,665.024,204.434,662.432,198.053,662.696"/>
<path class="path-3" d="M198.053,662.696C186.788,663.410,177.079,668.712,169.314,658.870"/>
<path class="path-3" d="M169.314,658.870C164.729,652.932,166.798,649.359,167.512,642.379"/>
<path class="path-3" d="M167.512,642.379C168.879,629.200,174.174,612.271,190.223,609.991"/>
<path class="path-4" d="M190.223,609.991C193.937,609.265,199.166,611.023,203.289,611.861C224.317,616.076,232.540,620.756,233.224,642.379C233.291,648.285,234.168,655.611,229.756,660.352C225.329,665.024,204.434,662.432,198.053,662.696C186.788,663.410,177.079,668.712,169.314,658.870C164.729,652.932,166.798,649.359,167.512,642.379C168.879,629.200,174.174,612.271,190.223,609.991Z"/>
</g>
<g id="right_sole">
<path class="path-0" d="M185.689,674.483C187.205,674.804,202.521,674.717,204.247,674.711C205.642,674.729,214.108,674.704,215.298,674.618C216.036,674.582,223.468,674.268,224.037,674.734C223.538,674.250,215.539,675.740,215.067,675.755C214.145,675.816,188.016,675.661,187.710,675.769C186.508,675.802,175.343,674.826,174.618,673.859C175.804,673.336,183.944,674.111,185.689,674.483M224.784,668.167C224.832,668.442,223.249,670.083,222.835,670.084C222.001,670.088,208.982,671.524,207.879,671.302C206.628,671.275,197.997,672.201,196.869,672.190C194.602,672.168,176.724,670.865,174.805,669.681C174.651,669.544,174.142,668.728,174.166,668.615C174.229,668.334,181.174,669.111,182.264,669.097C183.976,669.076,197.669,668.079,199.424,668.024C201.318,667.966,216.043,668.208,217.984,668.045C218.286,668.027,224.655,667.486,224.784,668.167M230.462,663.389C219.323,660.260,210.495,664.676,200.427,664.990C193.074,665.251,178.964,663.663,170.008,665.417C168.592,665.695,165.891,665.500,165.456,666.962C164.906,668.824,168.478,672.839,170.752,674.339C173.571,676.199,179.449,676.239,181.781,676.596C193.599,678.844,208.634,677.688,220.791,677.198C229.768,676.843,232.025,673.257,232.936,668.947C233.314,667.161,233.935,664.316,230.462,663.389Z"/>
<path class="path-24" d="M185.689,674.483C187.205,674.804,202.521,674.717,204.247,674.711"/>
<path class="path-24" d="M204.247,674.711C205.642,674.729,214.108,674.704,215.298,674.618"/>
<path class="path-24" d="M215.298,674.618C216.036,674.582,223.468,674.268,224.037,674.734"/>
<path class="path-24" d="M224.037,674.734C223.538,674.250,215.539,675.740,215.067,675.755"/>
<path class="path-24" d="M215.067,675.755C214.145,675.816,188.016,675.661,187.710,675.769"/>
<path class="path-24" d="M187.710,675.769C186.508,675.802,175.343,674.826,174.618,673.859"/>
<path class="path-24" d="M174.618,673.859C175.804,673.336,183.944,674.111,185.689,674.483"/>
<path class="path-0" d="M185.689,674.483C187.205,674.804,202.521,674.717,204.247,674.711C205.642,674.729,214.108,674.704,215.298,674.618C216.036,674.582,223.468,674.268,224.037,674.734C223.538,674.250,215.539,675.740,215.067,675.755C214.145,675.816,188.016,675.661,187.710,675.769C186.508,675.802,175.343,674.826,174.618,673.859C175.804,673.336,183.944,674.111,185.689,674.483Z"/>
<path class="path-5" d="M182.264,669.097C183.976,669.076,197.669,668.079,199.424,668.024"/>
<path class="path-5" d="M199.424,668.024C201.318,667.966,216.043,668.208,217.984,668.045"/>
<path class="path-5" d="M217.984,668.045C218.286,668.027,224.655,667.486,224.784,668.167"/>
<path class="path-5" d="M224.784,668.167C224.832,668.442,223.249,670.083,222.835,670.084"/>
<path class="path-5" d="M222.835,670.084C222.001,670.088,208.982,671.524,207.879,671.302"/>
<path class="path-5" d="M207.879,671.302C206.628,671.275,197.997,672.201,196.869,672.190"/>
<path class="path-5" d="M196.869,672.190C194.602,672.168,176.724,670.865,174.805,669.681"/>
<path class="path-5" d="M174.805,669.681C174.651,669.544,174.142,668.728,174.166,668.615"/>
<path class="path-5" d="M174.166,668.615C174.229,668.334,181.174,669.111,182.264,669.097"/>
<path class="path-6" d="M182.264,669.097C183.976,669.076,197.669,668.079,199.424,668.024C201.318,667.966,216.043,668.208,217.984,668.045C218.286,668.027,224.655,667.486,224.784,668.167C224.832,668.442,223.249,670.083,222.835,670.084C222.001,670.088,208.982,671.524,207.879,671.302C206.628,671.275,197.997,672.201,196.869,672.190C194.602,672.168,176.724,670.865,174.805,669.681C174.651,669.544,174.142,668.728,174.166,668.615C174.229,668.334,181.174,669.111,182.264,669.097Z"/>
</g>
</g>
<g id="hat_brim">
<path class="path-0" d="M286.651,140.604C290.310,134.616,299.293,118.313,307.278,118.313C312.601,118.313,323.580,127.963,329.235,130.957C334.226,133.951,339.550,136.613,345.205,139.274C348.417,140.943,351.633,142.606,354.853,144.264C369.160,151.584,365.166,157.906,356.848,156.574C338.218,153.246,335.224,154.578,317.259,145.262C314.929,144.264,308.941,140.938,307.942,145.262C306.613,150.252,315.596,154.578,319.255,156.241C325.908,159.902,333.228,163.894,341.212,164.559C343.542,164.892,351.527,164.225,352.856,166.555C354.853,169.882,345.205,178.532,343.209,180.528C339.881,183.523,336.556,186.517,333.228,188.846C328.237,192.172,322.914,195.166,317.259,196.164C306.613,197.495,273.343,182.191,272.345,170.547C271.680,163.894,282.659,146.926,286.651,140.604M319.255,113.989C314.264,109.664,310.605,103.342,303.285,106.670C297.961,108.999,292.306,116.651,288.647,120.643C275.006,137.277,262.697,156.907,263.362,178.532C263.695,192.172,268.352,191.840,279.331,197.162C295.965,205.480,317.259,208.141,335.224,199.825C346.868,194.502,367.163,176.536,372.487,164.559C374.150,160.567,377.143,151.584,374.814,146.927C372.153,141.270,349.862,131.622,343.209,127.963C335.224,123.637,326.242,119.645,319.255,113.989Z"/>
<path class="path-9" d="M307.278,118.313C312.601,118.313,323.580,127.963,329.235,130.957"/>
<path class="path-9" d="M329.235,130.957C334.226,133.951,339.550,136.613,345.205,139.274"/>
<path class="path-9" d="M345.205,139.274C348.417,140.943,351.633,142.606,354.853,144.264"/>
<path class="path-9" d="M354.853,144.264C369.160,151.584,365.166,157.906,356.848,156.574"/>
<path class="path-9" d="M356.848,156.574C338.218,153.246,335.224,154.578,317.259,145.262"/>
<path class="path-9" d="M317.259,145.262C314.929,144.264,308.941,140.938,307.942,145.262"/>
<path class="path-9" d="M307.942,145.262C306.613,150.252,315.596,154.578,319.255,156.241"/>
<path class="path-9" d="M319.255,156.241C325.908,159.902,333.228,163.894,341.212,164.559"/>
<path class="path-9" d="M341.212,164.559C343.542,164.892,351.527,164.225,352.856,166.555"/>
<path class="path-9" d="M352.856,166.555C354.853,169.882,345.205,178.532,343.209,180.528"/>
<path class="path-9" d="M343.209,180.528C339.881,183.523,336.556,186.517,333.228,188.846"/>
<path class="path-9" d="M333.228,188.846C328.237,192.172,322.914,195.166,317.259,196.164"/>
<path class="path-9" d="M317.259,196.164C306.613,197.495,273.343,182.191,272.345,170.547"/>
<path class="path-9" d="M272.345,170.547C271.680,163.894,282.659,146.926,286.651,140.604"/>
<path class="path-9" d="M286.651,140.604C290.310,134.616,299.293,118.313,307.278,118.313"/>
<path class="path-10" d="M307.278,118.313C312.601,118.313,323.580,127.963,329.235,130.957C334.226,133.951,339.550,136.613,345.205,139.274C348.417,140.943,351.633,142.606,354.853,144.264C369.160,151.584,365.166,157.906,356.848,156.574C338.218,153.246,335.224,154.578,317.259,145.262C314.929,144.264,308.941,140.938,307.942,145.262C306.613,150.252,315.596,154.578,319.255,156.241C325.908,159.902,333.228,163.894,341.212,164.559C343.542,164.892,351.527,164.225,352.856,166.555C354.853,169.882,345.205,178.532,343.209,180.528C339.881,183.523,336.556,186.517,333.228,188.846C328.237,192.172,322.914,195.166,317.259,196.164C306.613,197.495,273.343,182.191,272.345,170.547C271.680,163.894,282.659,146.926,286.651,140.604C290.310,134.616,299.293,118.313,307.278,118.313Z"/>
</g>
<g id="hair">
<path class="path-0" d="M183.357,136.483C200.954,124.749,220.906,123.806,241.996,123.120C251.452,122.794,257.886,129.270,265.069,135.626C270.964,141.195,277.299,147.468,283.560,153.313C292.986,162.051,296.930,166.431,300.440,170.614C303.444,173.825,308.105,179.813,311.862,182.674C316.396,186.124,325.422,203.315,327.445,205.266C320.793,207.453,310.356,209.024,305.541,212.830C307.149,218.669,307.424,227.700,307.413,230.409C301.202,230.790,294.008,227.926,282.567,225.752C280.180,232.918,280.142,239.647,275.384,246.902C267.697,244.496,262.345,242.563,252.411,238.043C245.798,243.193,244.261,242.773,233.517,249.212C226.455,244.820,220.838,240.151,213.943,237.253C207.148,240.091,196.403,241.027,192.739,243.925C188.987,236.858,185.547,229.060,182.318,225.662C172.710,227.554,168.576,230.148,161.781,232.559C157.606,227.012,160.654,222.489,156.037,214.349C151.717,213.146,145.049,210.476,139.490,210.322C143.367,205.864,146.319,191.142,152.833,189.327C160.871,187.088,155.875,177.911,160.872,169.755C162.110,167.631,174.016,151.399,175.093,148.739C177.132,144.153,179.361,139.287,183.357,136.483M269.783,123.041C257.623,113.516,232.973,108.192,219.067,111.311C206.306,114.023,193.787,117.926,182.663,125.006C176.433,128.911,169.531,134.686,165.362,140.754C157.036,152.537,144.935,178.372,138.142,190.325C132.704,200.241,127.646,206.923,122.452,212.283C140.007,218.879,145.124,221.586,150.363,222.441C150.613,230.199,157.711,236.027,156.388,244.572C165.209,243.354,170.475,241.177,178.326,239.302C182.258,243.995,184.942,250.348,188.681,256.586C196.418,254.568,204.305,254.940,212.000,249.563C217.496,252.632,226.229,257.403,235.200,262.448C243.544,258.115,245.325,257.880,253.165,252.908C262.619,255.342,272.515,261.315,282.074,260.399C281.484,252.206,287.600,246.647,286.947,241.388C294.168,239.536,316.196,242.966,319.967,242.683C319.803,236.635,316.595,225.026,318.237,217.838C325.064,216.098,330.837,214.510,341.526,209.520C338.121,202.790,331.974,194.414,326.560,189.403C321.990,185.214,318.291,179.689,313.719,175.326C298.212,160.768,292.275,140.745,269.783,123.041Z"/>
<path class="path-11" d="M241.996,123.120C251.452,122.794,257.886,129.270,265.069,135.626"/>
<path class="path-11" d="M265.069,135.626C270.964,141.195,277.299,147.468,283.560,153.313"/>
<path class="path-11" d="M283.560,153.313C292.986,162.051,296.930,166.431,300.440,170.614"/>
<path class="path-11" d="M300.440,170.614C303.444,173.825,308.105,179.813,311.862,182.674"/>
<path class="path-11" d="M311.862,182.674C316.396,186.124,325.422,203.315,327.445,205.266"/>
<path class="path-11" d="M327.445,205.266C320.793,207.453,310.356,209.024,305.541,212.830"/>
<path class="path-11" d="M305.541,212.830C307.149,218.669,307.424,227.700,307.413,230.409"/>
<path class="path-11" d="M307.413,230.409C301.202,230.790,294.008,227.926,282.567,225.752"/>
<path class="path-11" d="M282.567,225.752C280.180,232.918,280.142,239.647,275.384,246.902"/>
<path class="path-11" d="M275.384,246.902C267.697,244.496,262.345,242.563,252.411,238.043"/>
<path class="path-11" d="M252.411,238.043C245.798,243.193,244.261,242.773,233.517,249.212"/>
<path class="path-11" d="M233.517,249.212C226.455,244.820,220.838,240.151,213.943,237.253"/>
<path class="path-11" d="M213.943,237.253C207.148,240.091,196.403,241.027,192.739,243.925"/>
<path class="path-11" d="M192.739,243.925C188.987,236.858,185.547,229.060,182.318,225.662"/>
<path class="path-11" d="M182.318,225.662C172.710,227.554,168.576,230.148,161.781,232.559"/>
<path class="path-11" d="M161.781,232.559C157.606,227.012,160.654,222.489,156.037,214.349"/>
<path class="path-11" d="M156.037,214.349C151.717,213.146,145.049,210.476,139.490,210.322"/>
<path class="path-11" d="M139.490,210.322C143.367,205.864,146.319,191.142,152.833,189.327"/>
<path class="path-11" d="M152.833,189.327C160.871,187.088,155.875,177.911,160.872,169.755"/>
<path class="path-11" d="M160.872,169.755C162.110,167.631,174.016,151.399,175.093,148.739"/>
<path class="path-11" d="M175.093,148.739C177.132,144.153,179.361,139.287,183.357,136.483"/>
<path class="path-11" d="M183.357,136.483C200.954,124.749,220.906,123.806,241.996,123.120"/>
<path class="path-12" d="M241.996,123.120C251.452,122.794,257.886,129.270,265.069,135.626C270.964,141.195,277.299,147.468,283.560,153.313C292.986,162.051,296.930,166.431,300.440,170.614C303.444,173.825,308.105,179.813,311.862,182.674C316.396,186.124,325.422,203.315,327.445,205.266C320.793,207.453,310.356,209.024,305.541,212.830C307.149,218.669,307.424,227.700,307.413,230.409C301.202,230.790,294.008,227.926,282.567,225.752C280.180,232.918,280.142,239.647,275.384,246.902C267.697,244.496,262.345,242.563,252.411,238.043C245.798,243.193,244.261,242.773,233.517,249.212C226.455,244.820,220.838,240.151,213.943,237.253C207.148,240.091,196.403,241.027,192.739,243.925C188.987,236.858,185.547,229.060,182.318,225.662C172.710,227.554,168.576,230.148,161.781,232.559C157.606,227.012,160.654,222.489,156.037,214.349C151.717,213.146,145.049,210.476,139.490,210.322C143.367,205.864,146.319,191.142,152.833,189.327C160.871,187.088,155.875,177.911,160.872,169.755C162.110,167.631,174.016,151.399,175.093,148.739C177.132,144.153,179.361,139.287,183.357,136.483C200.954,124.749,220.906,123.806,241.996,123.120Z"/>
</g>
<g id="clothes">
<path class="path-0" d="M243.670,369.928C239.004,367.858,221.032,359.786,218.149,364.229C215.715,368.239,220.334,369.154,224.384,369.675C227.981,370.137,246.181,378.162,248.649,376.581C253.205,373.585,245.923,370.812,243.670,369.928M191.093,266.179C194.088,253.538,221.037,240.563,234.012,241.561C242.994,242.226,271.274,256.199,275.266,264.517C278.592,271.170,279.590,295.789,279.924,304.107C280.257,319.412,281.074,334.756,282.253,350.019C283.828,362.561,286.848,374.873,289.550,387.222C290.076,393.473,293.408,410.120,287.485,413.663C279.801,418.768,261.315,405.381,253.920,401.202C227.596,387.255,229.688,385.275,201.772,384.141C198.334,383.870,187.168,386.819,184.825,385.487C180.799,382.541,182.481,376.761,183.485,372.062C186.477,360.391,189.771,352.709,191.427,340.038C193.407,324.067,194.088,306.768,194.088,290.134C193.755,284.145,190.429,269.839,191.093,266.179M269.943,247.549C253.640,237.899,237.670,229.915,218.042,235.573C212.718,236.902,186.103,249.877,183.773,253.205C180.115,258.529,183.773,278.821,183.773,286.141C184.107,294.791,184.440,303.773,183.773,312.092C183.442,318.413,182.111,324.069,182.111,330.057C181.777,336.710,182.433,344.027,180.780,350.019C177.458,361.733,163.350,383.974,176.605,393.525C181.844,397.330,190.357,395.519,197.123,396.504C208.005,397.876,219.603,400.159,230.093,403.889C240.405,407.880,248.049,417.568,258.824,420.591C267.078,422.908,294.616,428.007,300.472,421.099C304.417,416.653,299.908,390.402,298.739,383.788C295.769,370.664,293.012,357.409,291.567,344.031C290.612,332.087,289.239,320.410,289.904,308.100C290.237,298.119,291.900,288.471,291.900,278.157C291.567,273.831,292.234,268.510,289.904,264.184C285.912,256.199,277.263,251.873,269.943,247.549Z"/>
<path class="path-13" d="M243.670,369.928C239.004,367.858,221.032,359.786,218.149,364.229"/>
<path class="path-13" d="M218.149,364.229C215.715,368.239,220.334,369.154,224.384,369.675"/>
<path class="path-13" d="M224.384,369.675C227.981,370.137,246.181,378.162,248.649,376.581"/>
<path class="path-13" d="M248.649,376.581C253.205,373.585,245.923,370.812,243.670,369.928"/>
<path class="path-13" d="M191.093,266.179C194.088,253.538,221.037,240.563,234.012,241.561"/>
<path class="path-13" d="M234.012,241.561C242.994,242.226,271.274,256.199,275.266,264.517"/>
<path class="path-13" d="M275.266,264.517C278.592,271.170,279.590,295.789,279.924,304.107"/>
<path class="path-13" d="M279.924,304.107C280.257,319.412,281.074,334.756,282.253,350.019"/>
<path class="path-13" d="M282.253,350.019C283.828,362.561,286.848,374.873,289.550,387.222"/>
<path class="path-13" d="M289.550,387.222C290.076,393.473,293.408,410.120,287.485,413.663"/>
<path class="path-13" d="M287.485,413.663C279.801,418.768,261.315,405.381,253.920,401.202"/>
<path class="path-13" d="M253.920,401.202C227.596,387.255,229.688,385.275,201.772,384.141"/>
<path class="path-13" d="M201.772,384.141C198.334,383.870,187.168,386.819,184.825,385.487"/>
<path class="path-13" d="M184.825,385.487C180.799,382.541,182.481,376.761,183.485,372.062"/>
<path class="path-13" d="M183.485,372.062C186.477,360.391,189.771,352.709,191.427,340.038"/>
<path class="path-13" d="M191.427,340.038C193.407,324.067,194.088,306.768,194.088,290.134"/>
<path class="path-13" d="M194.088,290.134C193.755,284.145,190.429,269.839,191.093,266.179"/>
<path class="path-14" d="M243.670,369.928C239.004,367.858,221.032,359.786,218.149,364.229C215.715,368.239,220.334,369.154,224.384,369.675C227.981,370.137,246.181,378.162,248.649,376.581C253.205,373.585,245.923,370.812,243.670,369.928M191.093,266.179C194.088,253.538,221.037,240.563,234.012,241.561C242.994,242.226,271.274,256.199,275.266,264.517C278.592,271.170,279.590,295.789,279.924,304.107C280.257,319.412,281.074,334.756,282.253,350.019C283.828,362.561,286.848,374.873,289.550,387.222C290.076,393.473,293.408,410.120,287.485,413.663C279.801,418.768,261.315,405.381,253.920,401.202C227.596,387.255,229.688,385.275,201.772,384.141C198.334,383.870,187.168,386.819,184.825,385.487C180.799,382.541,182.481,376.761,183.485,372.062C186.477,360.391,189.771,352.709,191.427,340.038C193.407,324.067,194.088,306.768,194.088,290.134C193.755,284.145,190.429,269.839,191.093,266.179Z"/>
</g>
<g id="neck">
<path class="path-0" d="M229.021,222.597C229.354,219.269,230.353,216.275,234.012,215.942C245.656,213.946,244.657,251.542,234.012,251.542C224.031,251.542,228.356,228.917,229.021,222.597M234.012,206.628C231.351,206.295,228.357,206.959,226.027,208.291C216.711,212.948,218.042,221.599,218.042,230.248C217.708,234.574,218.042,238.567,216.046,242.226C214.383,245.553,209.724,248.879,209.724,252.540C210.057,262.521,237.006,262.521,243.993,262.188C246.653,262.187,255.636,263.185,256.634,259.526C256.634,258.528,249.981,246.883,248.983,242.226C245.989,228.252,255.305,207.626,234.012,206.628Z"/>
<path class="path-15" d="M234.012,215.942C245.656,213.946,244.657,251.542,234.012,251.542"/>
<path class="path-15" d="M234.012,251.542C224.031,251.542,228.356,228.917,229.021,222.597"/>
<path class="path-15" d="M229.021,222.597C229.354,219.269,230.353,216.275,234.012,215.942"/>
<path class="path-16" d="M234.012,215.942C245.656,213.946,244.657,251.542,234.012,251.542C224.031,251.542,228.356,228.917,229.021,222.597C229.354,219.269,230.353,216.275,234.012,215.942Z"/>
</g>
<g id="layer_head">
<g id="right_ear">
<path class="path-0" d="M152.571,190.758C147.191,190.981,134.555,162.611,141.204,164.032C147.010,165.258,149.913,175.629,151.505,179.861C152.634,182.539,157.370,190.588,152.571,190.758M144.044,150.680C141.977,149.350,139.472,147.921,137.262,148.996C128.300,151.706,130.819,165.104,133.350,174.167C136.601,185.337,144.382,199.908,154.397,203.984C156.222,204.737,159.785,207.134,161.778,206.519C167.903,204.207,162.480,194.398,160.795,189.545C158.500,182.441,149.321,155.515,144.044,150.680Z"/>
<path class="path-15" d="M141.204,164.032C147.010,165.258,149.913,175.629,151.505,179.861"/>
<path class="path-15" d="M151.505,179.861C152.634,182.539,157.370,190.588,152.571,190.758"/>
<path class="path-15" d="M152.571,190.758C147.191,190.981,134.555,162.611,141.204,164.032"/>
<path class="path-16" d="M141.204,164.032C147.010,165.258,149.913,175.629,151.505,179.861C152.634,182.539,157.370,190.588,152.571,190.758C147.191,190.981,134.555,162.611,141.204,164.032Z"/>
</g>
<g id="face_Mask">
<g id="face">
<path class="path-0" d="M149.860,105.842C158.346,95.393,191.115,88.208,204.755,86.212C220.060,84.216,235.696,86.545,250.667,91.202C255.991,92.867,263.918,94.537,268.299,98.522C275.150,104.801,277.709,116.150,279.160,124.960C280.211,130.457,281.547,137.593,280.540,142.786C274.643,173.217,267.611,187.612,261.340,196.070C251.009,210.004,232.419,215.358,215.717,219.461C197.317,223.703,185.549,222.454,170.141,217.697C165.083,216.142,154.158,212.148,150.836,208.325C143.956,200.100,146.777,188.998,144.802,178.920C142.792,170.116,137.571,157.356,136.166,148.620C134.558,137.505,142.875,114.363,149.860,105.842M272.317,90.846C258.841,78.471,222.432,75.815,204.798,78.459C196.478,79.449,188.493,80.107,180.839,82.099C175.180,83.760,170.184,86.419,164.857,88.082C153.211,92.406,148.399,90.967,140.569,101.732C134.946,109.267,126.663,138.919,127.131,148.151C127.635,155.550,133.938,172.548,134.968,181.120C136.032,190.424,133.554,203.735,137.907,211.651C141.631,218.195,148.131,221.806,157.759,226.121C167.308,230.400,178.025,234.580,188.791,235.057C195.153,235.440,203.577,234.489,217.555,229.797C235.161,223.642,253.704,217.121,266.227,201.647C277.814,187.328,293.284,168.358,295.644,140.175C297.327,120.087,279.731,97.508,272.317,90.846Z"/>
<path class="path-15" d="M204.755,86.212C220.060,84.216,235.696,86.545,250.667,91.202"/>
<path class="path-15" d="M250.667,91.202C255.991,92.867,263.918,94.537,268.299,98.522"/>
<path class="path-15" d="M268.299,98.522C275.150,104.801,277.709,116.150,279.160,124.960"/>
<path class="path-15" d="M279.160,124.960C280.211,130.457,281.547,137.593,280.540,142.786"/>
<path class="path-15" d="M280.540,142.786C274.643,173.217,267.611,187.612,261.340,196.070"/>
<path class="path-15" d="M261.340,196.070C251.009,210.004,232.419,215.358,215.717,219.461"/>
<path class="path-15" d="M215.717,219.461C197.317,223.703,185.549,222.454,170.141,217.697"/>
<path class="path-15" d="M170.141,217.697C165.083,216.142,154.158,212.148,150.836,208.325"/>
<path class="path-15" d="M150.836,208.325C143.956,200.100,146.777,188.998,144.802,178.920"/>
<path class="path-15" d="M144.802,178.920C142.792,170.116,137.571,157.356,136.166,148.620"/>
<path class="path-15" d="M136.166,148.620C134.558,137.505,142.875,114.363,149.860,105.842"/>
<path class="path-15" d="M149.860,105.842C158.346,95.393,191.115,88.208,204.755,86.212"/>
<path class="path-16" d="M204.755,86.212C220.060,84.216,235.696,86.545,250.667,91.202C255.991,92.867,263.918,94.537,268.299,98.522C275.150,104.801,277.709,116.150,279.160,124.960C280.211,130.457,281.547,137.593,280.540,142.786C274.643,173.217,267.611,187.612,261.340,196.070C251.009,210.004,232.419,215.358,215.717,219.461C197.317,223.703,185.549,222.454,170.141,217.697C165.083,216.142,154.158,212.148,150.836,208.325C143.956,200.100,146.777,188.998,144.802,178.920C142.792,170.116,137.571,157.356,136.166,148.620C134.558,137.505,142.875,114.363,149.860,105.842C158.346,95.393,191.115,88.208,204.755,86.212Z"/>
</g>
</g>
<mask id="mask_target" style="mask-type:alpha;">
<use xlink:href="#face_Mask"/>
</mask>
<g id="mouse">
<path class="path-0" d="M188.584,213.873C193.788,214.977,193.872,219.730,193.398,220.237C193.131,220.523,192.008,219.572,189.048,219.085C183.442,218.163,180.737,219.336,180.539,218.622C180.323,217.839,182.492,212.581,188.584,213.873Z"/>
</g>
<g id="layer_eyes_Mtarget" mask="url(#mask_target)">
<g id="eyes">
<mask style="mask-type:alpha;" id="f3906406-f197-4bf1-91d8-744c09cca836">
<use xlink:href="#cmn_f3906406-f197-4bf1-91d8-744c09cca836"/>
</mask>
<g id="cmn_f3906406-f197-4bf1-91d8-744c09cca836">
<path class="path-0" d="M140.241,190.492C140.568,190.326,141.532,189.168,141.570,189.469C141.483,188.870,135.822,188.933,135.173,190.461C135.008,190.857,136.381,192.329,135.846,192.355C135.338,192.380,139.919,190.656,140.241,190.492M148.858,193.326C148.816,192.481,148.436,187.083,146.339,186.293C145.175,185.854,143.541,187.144,142.499,187.856C139.750,189.645,123.453,185.144,124.174,180.816C124.391,179.499,130.952,177.519,132.247,177.886C142.920,180.930,119.588,202.061,134.058,207.543C135.023,207.908,141.844,194.426,140.727,196.498C140.052,197.751,148.938,194.913,148.858,193.326M179.190,194.293C176.311,194.085,171.501,195.121,170.381,190.765C169.678,188.032,187.044,188.269,189.474,187.754C191.369,187.353,204.009,184.750,205.071,184.528C205.357,184.474,207.231,185.941,207.385,186.480C207.685,187.527,184.279,194.661,179.190,194.293M214.780,189.540C215.684,188.454,215.683,179.088,214.908,178.509C211.105,175.668,198.446,180.255,191.421,181.241C186.537,181.926,178.407,184.291,175.194,183.882C171.447,183.542,168.488,182.585,166.523,184.294C164.880,185.722,164.382,189.291,164.979,191.385C165.669,193.808,168.130,196.214,170.920,197.321C176.604,199.612,194.737,196.109,199.694,195.452C200.459,195.349,212.420,192.376,214.780,189.540Z"/>
<path class="path-17" d="M205.071,184.528C205.357,184.474,207.231,185.941,207.385,186.480"/>
<path class="path-17" d="M207.385,186.480C207.685,187.527,184.279,194.661,179.190,194.293"/>
<path class="path-17" d="M179.190,194.293C176.311,194.085,171.501,195.121,170.381,190.765"/>
<path class="path-17" d="M170.381,190.765C169.678,188.032,187.044,188.269,189.474,187.754"/>
<path class="path-17" d="M189.474,187.754C191.369,187.353,204.009,184.750,205.071,184.528"/>
<path class="path-18" d="M205.071,184.528C205.357,184.474,207.231,185.941,207.385,186.480C207.685,187.527,184.279,194.661,179.190,194.293C176.311,194.085,171.501,195.121,170.381,190.765C169.678,188.032,187.044,188.269,189.474,187.754C191.369,187.353,204.009,184.750,205.071,184.528Z"/>
<path class="path-17" d="M135.846,192.355C135.338,192.380,139.919,190.656,140.241,190.492"/>
<path class="path-17" d="M140.241,190.492C140.568,190.326,141.532,189.168,141.570,189.469"/>
<path class="path-17" d="M141.570,189.469C141.483,188.870,135.822,188.933,135.173,190.461"/>
<path class="path-17" d="M135.173,190.461C135.008,190.857,136.381,192.329,135.846,192.355"/>
<path class="path-18" d="M135.846,192.355C135.338,192.380,139.919,190.656,140.241,190.492C140.568,190.326,141.532,189.168,141.570,189.469C141.483,188.870,135.822,188.933,135.173,190.461C135.008,190.857,136.381,192.329,135.846,192.355Z"/>
</g>
</g>
<g id="pupil">
<path class="path-0" d="M170.957,174.965C173.262,174.397,176.355,177.690,177.154,186.217C177.730,192.357,176.211,194.868,174.515,195.082C172.618,195.322,170.969,192.709,169.686,185.932C168.317,178.700,168.975,175.452,170.957,174.965Z" mask="url(#f3906406-f197-4bf1-91d8-744c09cca836)"/>
<path class="path-0" d="M139.272,176.247C141.675,175.763,144.934,179.419,145.307,188.543C145.520,193.749,144.160,195.713,142.781,195.939C141.203,196.197,139.209,194.338,137.733,188.568C135.681,180.548,137.095,176.686,139.272,176.247Z" mask="url(#f3906406-f197-4bf1-91d8-744c09cca836)"/>
</g>
</g>
<g id="hat">
<path class="path-0" d="M286.726,133.543C288.966,134.404,291.568,137.186,292.109,139.814C294.083,146.521,282.780,147.850,279.191,148.323C273.460,148.503,267.485,147.569,262.042,146.947C254.885,146.780,247.809,145.374,240.664,144.939C218.580,141.860,196.436,139.466,174.292,136.895C163.491,136.069,153.722,134.291,141.984,133.579C140.703,133.505,128.958,134.469,126.611,133.753C111.882,129.406,124.351,116.234,123.264,109.543C123.098,107.584,119.343,107.141,120.040,103.650C120.522,101.417,126.688,97.173,128.865,96.318C138.001,92.670,148.424,91.278,158.722,90.984C169.950,90.669,180.034,92.442,191.193,93.694C216.411,96.538,259.562,103.264,290.905,117.867C300.288,122.227,280.462,119.563,278.591,119.657C262.511,120.094,195.729,103.555,232.143,116.386C246.557,121.636,273.655,127.943,286.726,133.543M175.242,80.138C163.116,79.199,151.994,78.360,140.656,80.600C136.548,81.401,131.291,82.328,128.012,83.257C121.234,85.190,133.239,65.120,136.650,61.373C152.663,44.218,180.906,32.748,205.522,34.311C253.886,37.381,272.005,50.482,284.953,69.289C289.149,74.922,300.962,100.764,291.003,106.759C287.770,108.428,282.045,105.540,279.357,104.052C269.729,98.990,196.606,81.792,175.242,80.138M274.818,40.515C257.664,31.410,236.407,23.405,209.693,23.962C179.469,24.626,146.100,33.535,126.826,59.781C120.934,67.997,118.503,77.082,114.919,85.780C112.701,91.095,108.273,94.552,107.827,100.228C107.432,107.893,111.973,109.900,112.712,116.177C113.745,123.281,109.390,125.429,109.708,130.035C109.374,142.381,120.994,145.451,131.143,146.661C135.550,147.188,151.954,146.669,160.870,146.855C170.965,147.066,184.427,147.447,194.507,148.052C205.977,148.739,221.211,150.473,232.673,151.297C243.364,152.065,257.622,153.409,268.340,153.398C276.675,153.389,295.010,152.684,296.077,151.789C297.648,150.495,302.880,137.112,303.367,134.507C304.173,130.200,302.132,125.477,303.753,118.587C305.959,108.146,308.590,99.205,306.905,87.795C303.655,67.044,288.721,47.926,274.818,40.515Z"/>
<path class="path-19" d="M191.193,93.694C216.411,96.538,259.562,103.264,290.905,117.867"/>
<path class="path-19" d="M290.905,117.867C300.288,122.227,280.462,119.563,278.591,119.657"/>
<path class="path-19" d="M278.591,119.657C262.511,120.094,195.729,103.555,232.143,116.386"/>
<path class="path-19" d="M232.143,116.386C246.557,121.636,273.655,127.943,286.726,133.543"/>
<path class="path-19" d="M286.726,133.543C288.966,134.404,291.568,137.186,292.109,139.814"/>
<path class="path-19" d="M292.109,139.814C294.083,146.521,282.780,147.850,279.191,148.323"/>
<path class="path-19" d="M279.191,148.323C273.460,148.503,267.485,147.569,262.042,146.947"/>
<path class="path-19" d="M262.042,146.947C254.885,146.780,247.809,145.374,240.664,144.939"/>
<path class="path-19" d="M240.664,144.939C218.580,141.860,196.436,139.466,174.292,136.895"/>
<path class="path-19" d="M174.292,136.895C163.491,136.069,153.722,134.291,141.984,133.579"/>
<path class="path-19" d="M141.984,133.579C140.703,133.505,128.958,134.469,126.611,133.753"/>
<path class="path-19" d="M126.611,133.753C111.882,129.406,124.351,116.234,123.264,109.543"/>
<path class="path-19" d="M123.264,109.543C123.098,107.584,119.343,107.141,120.040,103.650"/>
<path class="path-19" d="M120.040,103.650C120.522,101.417,126.688,97.173,128.865,96.318"/>
<path class="path-19" d="M128.865,96.318C138.001,92.670,148.424,91.278,158.722,90.984"/>
<path class="path-19" d="M158.722,90.984C169.950,90.669,180.034,92.442,191.193,93.694"/>
<path class="path-20" d="M191.193,93.694C216.411,96.538,259.562,103.264,290.905,117.867C300.288,122.227,280.462,119.563,278.591,119.657C262.511,120.094,195.729,103.555,232.143,116.386C246.557,121.636,273.655,127.943,286.726,133.543C288.966,134.404,291.568,137.186,292.109,139.814C294.083,146.521,282.780,147.850,279.191,148.323C273.460,148.503,267.485,147.569,262.042,146.947C254.885,146.780,247.809,145.374,240.664,144.939C218.580,141.860,196.436,139.466,174.292,136.895C163.491,136.069,153.722,134.291,141.984,133.579C140.703,133.505,128.958,134.469,126.611,133.753C111.882,129.406,124.351,116.234,123.264,109.543C123.098,107.584,119.343,107.141,120.040,103.650C120.522,101.417,126.688,97.173,128.865,96.318C138.001,92.670,148.424,91.278,158.722,90.984C169.950,90.669,180.034,92.442,191.193,93.694Z"/>
<path class="path-9" d="M205.522,34.311C253.886,37.381,272.005,50.482,284.953,69.289"/>
<path class="path-9" d="M284.953,69.289C289.149,74.922,300.962,100.764,291.003,106.759"/>
<path class="path-9" d="M291.003,106.759C287.770,108.428,282.045,105.540,279.357,104.052"/>
<path class="path-9" d="M279.357,104.052C269.729,98.990,196.606,81.792,175.242,80.138"/>
<path class="path-9" d="M175.242,80.138C163.116,79.199,151.994,78.360,140.656,80.600"/>
<path class="path-9" d="M140.656,80.600C136.548,81.401,131.291,82.328,128.012,83.257"/>
<path class="path-9" d="M128.012,83.257C121.234,85.190,133.239,65.120,136.650,61.373"/>
<path class="path-9" d="M136.650,61.373C152.663,44.218,180.906,32.748,205.522,34.311"/>
<path class="path-10" d="M205.522,34.311C253.886,37.381,272.005,50.482,284.953,69.289C289.149,74.922,300.962,100.764,291.003,106.759C287.770,108.428,282.045,105.540,279.357,104.052C269.729,98.990,196.606,81.792,175.242,80.138C163.116,79.199,151.994,78.360,140.656,80.600C136.548,81.401,131.291,82.328,128.012,83.257C121.234,85.190,133.239,65.120,136.650,61.373C152.663,44.218,180.906,32.748,205.522,34.311Z"/>
</g>
<g id="left_ear">
<path class="path-0" d="M246.794,180.163C246.937,177.459,248.860,168.044,250.436,165.537C257.299,153.692,275.363,148.747,282.304,156.887C290.292,166.655,277.217,189.913,265.785,195.254C253.361,200.829,246.518,191.964,246.794,180.163M297.439,160.182C294.913,148.160,285.233,138.678,269.086,143.226C252.083,148.015,251.281,171.814,250.329,186.375C250.202,189.622,250.126,193.179,251.166,196.091C254.835,206.922,264.950,210.360,274.558,201.702C284.876,192.211,300.058,174.846,297.439,160.182Z"/>
<path class="path-15" d="M250.436,165.537C257.299,153.692,275.363,148.747,282.304,156.887"/>
<path class="path-15" d="M282.304,156.887C290.292,166.655,277.217,189.913,265.785,195.254"/>
<path class="path-15" d="M265.785,195.254C253.361,200.829,246.518,191.964,246.794,180.163"/>
<path class="path-15" d="M246.794,180.163C246.937,177.459,248.860,168.044,250.436,165.537"/>
<path class="path-16" d="M250.436,165.537C257.299,153.692,275.363,148.747,282.304,156.887C290.292,166.655,277.217,189.913,265.785,195.254C253.361,200.829,246.518,191.964,246.794,180.163C246.937,177.459,248.860,168.044,250.436,165.537Z"/>
</g>
<g id="earrings">
<path class="path-0" d="M275.639,207.336C266.463,211.985,265.428,193.684,268.744,193.936C273.417,195.435,284.832,207.347,275.639,207.336M285.602,199.631C278.977,200.215,275.704,191.232,275.086,187.437C282.630,188.912,292.200,194.265,285.602,199.631M296.347,196.325C293.732,188.184,281.312,183.780,273.447,180.355C270.516,179.079,262.056,189.168,261.681,192.509C260.567,196.657,263.581,219.183,277.677,216.111C283.402,214.596,298.448,202.866,296.347,196.325Z"/>
<path class="path-21" d="M275.086,187.437C282.630,188.912,292.200,194.265,285.602,199.631"/>
<path class="path-21" d="M285.602,199.631C278.977,200.215,275.704,191.232,275.086,187.437"/>
<path class="path-22" d="M275.086,187.437C282.630,188.912,292.200,194.265,285.602,199.631C278.977,200.215,275.704,191.232,275.086,187.437Z"/>
<path class="path-21" d="M268.744,193.936C273.417,195.435,284.832,207.347,275.639,207.336"/>
<path class="path-21" d="M275.639,207.336C266.463,211.985,265.428,193.684,268.744,193.936"/>
<path class="path-22" d="M268.744,193.936C273.417,195.435,284.832,207.347,275.639,207.336C266.463,211.985,265.428,193.684,268.744,193.936Z"/>
</g>
</g>
<g id="jacket">
<path class="path-0" d="M202.406,270.837C205.062,275.165,202.380,285.477,202.374,290.134C200.354,307.114,197.586,323.376,197.668,340.077C197.799,343.824,196.600,350.429,194.532,354.267C192.876,357.341,189.435,361.453,186.525,362.714C182.983,364.185,180.963,357.677,179.867,354.789C178.479,351.132,179.485,344.164,179.736,341.674C180.584,336.504,183.365,326.578,183.640,319.977C183.954,313.614,181.654,307.215,181.343,300.197C180.669,294.792,179.035,288.493,177.938,282.517C177.989,279.351,178.543,277.393,178.614,275.156C178.283,269.698,180.899,268.288,186.121,267.836C190.959,267.762,200.748,265.519,202.406,270.837M258.694,280.406C260.284,276.734,286.158,259.351,289.496,257.593C297.842,253.693,302.072,262.963,302.024,268.385C302.061,277.053,287.421,305.611,289.023,311.624C289.575,314.312,291.607,315.667,293.252,317.351C306.347,332.136,300.475,322.908,314.286,329.703C320.195,332.671,331.385,341.111,336.021,345.643C338.893,348.804,344.701,356.433,345.936,360.243C346.434,362.409,346.887,366.307,343.665,366.817C342.271,367.217,327.967,363.820,325.485,363.627C313.842,362.084,301.200,362.632,291.668,354.360C288.217,351.021,285.619,346.229,282.785,341.932C274.456,329.745,267.871,316.636,263.001,302.638C260.715,296.867,256.740,286.640,258.694,280.406M275.253,255.283C272.209,258.405,266.145,263.442,263.979,264.454C256.114,267.628,254.569,258.147,254.049,252.214C253.784,247.072,256.754,239.786,259.832,235.445C262.542,231.624,266.916,226.394,272.006,225.669C278.414,224.521,289.281,231.299,287.916,238.582C287.504,241.936,279.642,250.781,275.253,255.283M193.241,233.767C198.164,237.723,201.763,242.432,200.869,246.900C200.028,251.101,196.961,253.427,189.763,255.866C178.438,259.702,169.542,242.380,173.074,235.250C175.767,229.814,186.927,228.694,193.241,233.767M356.183,370.089C354.007,362.539,355.863,356.384,351.691,349.321C346.084,340.038,336.191,331.641,327.010,325.971C316.670,319.950,308.163,321.687,301.227,310.058C295.467,300.773,299.623,290.530,301.077,280.146C301.434,276.463,301.936,257.644,302.013,254.268C301.569,250.846,302.029,247.392,301.532,244.255C301.046,240.393,301.554,236.271,300.232,232.611C298.253,225.970,291.287,222.973,285.980,219.654C278.678,215.666,272.368,213.792,264.071,215.674C254.955,217.753,251.826,227.893,249.248,234.639C245.323,244.912,247.400,260.277,247.785,271.268C248.005,277.556,249.004,286.280,249.925,292.130C252.949,313.546,276.139,357.709,295.905,366.836C299.999,369.057,327.811,373.932,336.413,375.846C341.786,377.070,344.099,378.706,348.490,381.776C350.495,383.297,355.740,387.081,358.337,385.172C361.925,382.711,357.064,373.150,356.183,370.089M207.087,233.558C203.773,227.809,198.303,218.262,191.516,217.850C185.139,217.668,175.447,218.994,169.683,222.389C166.197,224.441,160.929,228.238,160.559,232.319C159.869,238.396,162.432,245.652,165.503,250.343C167.282,253.059,171.612,254.983,173.700,257.410C174.788,258.746,178.807,266.105,179.530,268.113C183.497,278.244,179.618,290.279,178.510,299.693C177.573,307.657,174.364,317.959,173.221,325.897C171.986,334.469,170.946,345.219,170.740,354.659C170.561,357.026,171.233,362.253,171.761,365.466C172.289,368.677,172.550,374.686,174.251,376.024C175.191,376.762,186.137,377.987,190.666,376.053C194.781,374.296,198.348,374.538,201.048,365.345C204.255,353.386,205.729,342.294,206.093,329.775C206.157,308.336,212.506,279.306,211.774,266.186C211.438,260.176,212.507,256.179,211.255,247.797C210.630,244.331,209.309,237.414,207.087,233.558Z"/>
<path class="path-1" d="M289.496,257.593C297.842,253.693,302.072,262.963,302.024,268.385"/>
<path class="path-1" d="M302.024,268.385C302.061,277.053,287.421,305.611,289.023,311.624"/>
<path class="path-1" d="M289.023,311.624C289.575,314.312,291.607,315.667,293.252,317.351"/>
<path class="path-1" d="M293.252,317.351C306.347,332.136,300.475,322.908,314.286,329.703"/>
<path class="path-1" d="M314.286,329.703C320.195,332.671,331.385,341.111,336.021,345.643"/>
<path class="path-1" d="M336.021,345.643C338.893,348.804,344.701,356.433,345.936,360.243"/>
<path class="path-1" d="M345.936,360.243C346.434,362.409,346.887,366.307,343.665,366.817"/>
<path class="path-1" d="M343.665,366.817C342.271,367.217,327.967,363.820,325.485,363.627"/>
<path class="path-1" d="M325.485,363.627C313.842,362.084,301.200,362.632,291.668,354.360"/>
<path class="path-1" d="M291.668,354.360C288.217,351.021,285.619,346.229,282.785,341.932"/>
<path class="path-1" d="M282.785,341.932C274.456,329.745,267.871,316.636,263.001,302.638"/>
<path class="path-1" d="M263.001,302.638C260.715,296.867,256.740,286.640,258.694,280.406"/>
<path class="path-1" d="M258.694,280.406C260.284,276.734,286.158,259.351,289.496,257.593"/>
<path class="path-2" d="M289.496,257.593C297.842,253.693,302.072,262.963,302.024,268.385C302.061,277.053,287.421,305.611,289.023,311.624C289.575,314.312,291.607,315.667,293.252,317.351C306.347,332.136,300.475,322.908,314.286,329.703C320.195,332.671,331.385,341.111,336.021,345.643C338.893,348.804,344.701,356.433,345.936,360.243C346.434,362.409,346.887,366.307,343.665,366.817C342.271,367.217,327.967,363.820,325.485,363.627C313.842,362.084,301.200,362.632,291.668,354.360C288.217,351.021,285.619,346.229,282.785,341.932C274.456,329.745,267.871,316.636,263.001,302.638C260.715,296.867,256.740,286.640,258.694,280.406C260.284,276.734,286.158,259.351,289.496,257.593Z"/>
<path class="path-1" d="M186.121,267.836C190.959,267.762,200.748,265.519,202.406,270.837"/>
<path class="path-1" d="M202.406,270.837C205.062,275.165,202.380,285.477,202.374,290.134"/>
<path class="path-1" d="M202.374,290.134C200.354,307.114,197.586,323.376,197.668,340.077"/>
<path class="path-1" d="M197.668,340.077C197.799,343.824,196.600,350.429,194.532,354.267"/>
<path class="path-1" d="M194.532,354.267C192.876,357.341,189.435,361.453,186.525,362.714"/>
<path class="path-1" d="M186.525,362.714C182.983,364.185,180.963,357.677,179.867,354.789"/>
<path class="path-1" d="M179.867,354.789C178.479,351.132,179.485,344.164,179.736,341.674"/>
<path class="path-1" d="M179.736,341.674C180.584,336.504,183.365,326.578,183.640,319.977"/>
<path class="path-1" d="M183.640,319.977C183.954,313.614,181.654,307.215,181.343,300.197"/>
<path class="path-1" d="M181.343,300.197C180.669,294.792,179.035,288.493,177.938,282.517"/>
<path class="path-1" d="M177.938,282.517C177.989,279.351,178.543,277.393,178.614,275.156"/>
<path class="path-1" d="M178.614,275.156C178.283,269.698,180.899,268.288,186.121,267.836"/>
<path class="path-2" d="M186.121,267.836C190.959,267.762,200.748,265.519,202.406,270.837C205.062,275.165,202.380,285.477,202.374,290.134C200.354,307.114,197.586,323.376,197.668,340.077C197.799,343.824,196.600,350.429,194.532,354.267C192.876,357.341,189.435,361.453,186.525,362.714C182.983,364.185,180.963,357.677,179.867,354.789C178.479,351.132,179.485,344.164,179.736,341.674C180.584,336.504,183.365,326.578,183.640,319.977C183.954,313.614,181.654,307.215,181.343,300.197C180.669,294.792,179.035,288.493,177.938,282.517C177.989,279.351,178.543,277.393,178.614,275.156C178.283,269.698,180.899,268.288,186.121,267.836Z"/>
<path class="path-1" d="M272.006,225.669C278.414,224.521,289.281,231.299,287.916,238.582"/>
<path class="path-1" d="M287.916,238.582C287.504,241.936,279.642,250.781,275.253,255.283"/>
<path class="path-1" d="M275.253,255.283C272.209,258.405,266.145,263.442,263.979,264.454"/>
<path class="path-1" d="M263.979,264.454C256.114,267.628,254.569,258.147,254.049,252.214"/>
<path class="path-1" d="M254.049,252.214C253.784,247.072,256.754,239.786,259.832,235.445"/>
<path class="path-1" d="M259.832,235.445C262.542,231.624,266.916,226.394,272.006,225.669"/>
<path class="path-2" d="M272.006,225.669C278.414,224.521,289.281,231.299,287.916,238.582C287.504,241.936,279.642,250.781,275.253,255.283C272.209,258.405,266.145,263.442,263.979,264.454C256.114,267.628,254.569,258.147,254.049,252.214C253.784,247.072,256.754,239.786,259.832,235.445C262.542,231.624,266.916,226.394,272.006,225.669Z"/>
<path class="path-1" d="M193.241,233.767C198.164,237.723,201.763,242.432,200.869,246.900"/>
<path class="path-1" d="M200.869,246.900C200.028,251.101,196.961,253.427,189.763,255.866"/>
<path class="path-1" d="M189.763,255.866C178.438,259.702,169.542,242.380,173.074,235.250"/>
<path class="path-1" d="M173.074,235.250C175.767,229.814,186.927,228.694,193.241,233.767"/>
<path class="path-2" d="M193.241,233.767C198.164,237.723,201.763,242.432,200.869,246.900C200.028,251.101,196.961,253.427,189.763,255.866C178.438,259.702,169.542,242.380,173.074,235.250C175.767,229.814,186.927,228.694,193.241,233.767Z"/>
</g>
<g id="left_arm">
<path class="path-0" d="M290.921,459.790C287.737,454.528,286.710,445.759,294.232,443.566C299.519,441.981,323.218,447.134,327.167,451.087C334.079,457.348,330.074,471.823,321.510,475.113C311.530,478.434,296.122,468.183,290.921,459.790M279.516,276.423C280.393,273.226,288.864,263.064,293.897,264.184C296.819,264.834,298.222,269.839,299.220,272.502C301.881,280.818,304.543,289.469,306.872,298.119C313.194,320.741,317.488,343.372,322.177,365.988C323.852,375.306,323.914,387.609,327.241,395.931C331.220,405.551,337.496,402.268,340.474,408.573C341.801,411.569,341.140,417.224,343.136,421.881C346.130,429.201,351.785,433.194,354.446,437.851C356.111,440.512,356.772,443.485,353.117,444.173C351.123,445.185,345.782,444.266,343.782,444.285C337.095,442.575,330.413,440.859,323.746,439.091C314.768,437.114,287.547,435.613,282.899,429.626C275.900,420.278,286.872,409.268,288.205,399.924C288.869,396.929,292.188,352.967,291.567,350.019C290.901,343.164,287.387,337.131,285.841,330.057C284.214,320.430,282.539,310.147,281.179,300.115C280.223,291.877,276.733,285.067,279.516,276.423M305.541,254.536C303.213,249.877,295.893,241.561,289.904,242.890C284.914,244.222,284.249,250.210,283.582,254.203C281.920,264.184,279.924,272.502,279.924,282.149C279.590,289.136,280.257,295.458,280.921,302.111C281.586,311.427,279.590,329.392,279.924,340.038C279.924,349.686,282.253,359.667,281.586,367.985C279.590,387.613,271.273,406.246,271.938,425.874C271.939,435.855,274.600,435.855,276.929,443.840C278.592,449.828,277.263,456.150,279.590,461.805C285.579,476.776,302.880,490.416,319.847,487.091C335.483,484.096,336.150,467.129,344.466,458.146C351.786,450.161,366.424,454.154,368.420,445.835C370.416,438.849,360.762,431.202,357.110,425.874C349.813,415.900,355.479,413.578,351.842,405.931C349.197,400.278,341.584,395.271,337.924,387.965C335.921,384.631,334.887,378.306,333.543,373.973C330.859,363.996,327.859,352.681,326.187,342.034C324.512,329.724,324.176,318.745,320.845,306.103C318.181,295.458,310.200,262.852,305.541,254.536Z"/>
<path class="path-1" d="M293.897,264.184C296.819,264.834,298.222,269.839,299.220,272.502"/>
<path class="path-1" d="M299.220,272.502C301.881,280.818,304.543,289.469,306.872,298.119"/>
<path class="path-1" d="M306.872,298.119C313.194,320.741,317.488,343.372,322.177,365.988"/>
<path class="path-1" d="M322.177,365.988C323.852,375.306,323.914,387.609,327.241,395.931"/>
<path class="path-1" d="M327.241,395.931C331.220,405.551,337.496,402.268,340.474,408.573"/>
<path class="path-1" d="M340.474,408.573C341.801,411.569,341.140,417.224,343.136,421.881"/>
<path class="path-1" d="M343.136,421.881C346.130,429.201,351.785,433.194,354.446,437.851"/>
<path class="path-1" d="M354.446,437.851C356.111,440.512,356.772,443.485,353.117,444.173"/>
<path class="path-1" d="M353.117,444.173C351.123,445.185,345.782,444.266,343.782,444.285"/>
<path class="path-1" d="M343.782,444.285C337.095,442.575,330.413,440.859,323.746,439.091"/>
<path class="path-1" d="M323.746,439.091C314.768,437.114,287.547,435.613,282.899,429.626"/>
<path class="path-1" d="M282.899,429.626C275.900,420.278,286.872,409.268,288.205,399.924"/>
<path class="path-1" d="M288.205,399.924C288.869,396.929,292.188,352.967,291.567,350.019"/>
<path class="path-1" d="M291.567,350.019C290.901,343.164,287.387,337.131,285.841,330.057"/>
<path class="path-1" d="M285.841,330.057C284.214,320.430,282.539,310.147,281.179,300.115"/>
<path class="path-1" d="M281.179,300.115C280.223,291.877,276.733,285.067,279.516,276.423"/>
<path class="path-1" d="M279.516,276.423C280.393,273.226,288.864,263.064,293.897,264.184"/>
<path class="path-2" d="M293.897,264.184C296.819,264.834,298.222,269.839,299.220,272.502C301.881,280.818,304.543,289.469,306.872,298.119C313.194,320.741,317.488,343.372,322.177,365.988C323.852,375.306,323.914,387.609,327.241,395.931C331.220,405.551,337.496,402.268,340.474,408.573C341.801,411.569,341.140,417.224,343.136,421.881C346.130,429.201,351.785,433.194,354.446,437.851C356.111,440.512,356.772,443.485,353.117,444.173C351.123,445.185,345.782,444.266,343.782,444.285C337.095,442.575,330.413,440.859,323.746,439.091C314.768,437.114,287.547,435.613,282.899,429.626C275.900,420.278,286.872,409.268,288.205,399.924C288.869,396.929,292.188,352.967,291.567,350.019C290.901,343.164,287.387,337.131,285.841,330.057C284.214,320.430,282.539,310.147,281.179,300.115C280.223,291.877,276.733,285.067,279.516,276.423C280.393,273.226,288.864,263.064,293.897,264.184Z"/>
<path class="path-15" d="M294.232,443.566C299.519,441.981,323.218,447.134,327.167,451.087"/>
<path class="path-15" d="M327.167,451.087C334.079,457.348,330.074,471.823,321.510,475.113"/>
<path class="path-15" d="M321.510,475.113C311.530,478.434,296.122,468.183,290.921,459.790"/>
<path class="path-15" d="M290.921,459.790C287.737,454.528,286.710,445.759,294.232,443.566"/>
<path class="path-16" d="M294.232,443.566C299.519,441.981,323.218,447.134,327.167,451.087C334.079,457.348,330.074,471.823,321.510,475.113C311.530,478.434,296.122,468.183,290.921,459.790C287.737,454.528,286.710,445.759,294.232,443.566Z"/>
</g>
<g id="bone">
<g id="bone1_clothes">
<path class="path-23" d="M232.907,386.483C232.908,386.477,247.691,329.371,247.692,329.365C247.692,329.371,243.899,388.238,243.899,388.244C243.898,388.243,232.908,386.483,232.907,386.483"/>
</g>
<g id="bone2_clothes">
<path class="path-23" d="M232.709,328.320C232.708,328.312,226.062,256.091,226.061,256.084C226.063,256.091,246.236,325.755,246.238,325.762C246.237,325.762,232.710,328.319,232.709,328.320"/>
</g>
<g id="bone3_neck">
<path class="path-23" d="M237.573,253.101C237.571,253.097,224.455,213.513,224.454,213.509C224.454,213.514,231.165,254.670,231.166,254.674C231.167,254.674,237.572,253.101,237.573,253.101"/>
</g>
<g id="bone4_head">
<path class="path-23" d="M230.502,211.145C230.504,211.137,251.989,136.088,251.991,136.080C251.990,136.088,242.723,213.600,242.722,213.607C242.721,213.607,230.504,211.145,230.502,211.145"/>
</g>
<g id="bone5_left_arm">
<path class="path-23" d="M297.896,254.647C297.899,254.655,330.255,341.276,330.259,341.285C330.254,341.277,283.647,261.415,283.643,261.407C283.644,261.406,297.894,254.647,297.896,254.647"/>
</g>
<g id="bone6_left_arm">
<path class="path-23" d="M300.865,348.679C300.865,348.686,301.749,412.416,301.749,412.423C301.750,412.416,311.282,349.396,311.283,349.390C311.282,349.390,300.866,348.679,300.865,348.679"/>
</g>
<g id="bone7_right_arm">
<path class="path-23" d="M169.131,269.641C169.129,269.653,149.258,383.430,149.256,383.441C149.259,383.430,186.833,274.214,186.837,274.203C186.835,274.203,169.133,269.642,169.131,269.641"/>
</g>
<g id="bone8_right_arm">
<path class="path-23" d="M157.157,379.808C157.160,379.814,181.052,434.331,181.054,434.336C181.051,434.331,146.694,385.725,146.691,385.720C146.692,385.720,157.156,379.809,157.157,379.808"/>
</g>
<g id="bone9_left_leg">
<path class="path-23" d="M271.731,384.007C271.734,384.017,297.612,485.898,297.615,485.909C297.610,485.899,254.409,390.077,254.405,390.067C254.407,390.067,271.729,384.007,271.731,384.007"/>
</g>
<g id="bone10_right_leg">
<path class="path-23" d="M209.475,385.092C209.474,385.103,204.662,487.149,204.662,487.159C204.664,487.149,224.862,387.006,224.864,386.996C224.863,386.996,209.476,385.093,209.475,385.092"/>
</g>
<g id="bone11_hair">
<path class="path-23" d="M234.120,155.630C234.122,155.638,257.436,232.358,257.438,232.366C257.434,232.359,220.474,161.201,220.470,161.194C220.472,161.193,234.119,155.631,234.120,155.630"/>
</g>
<g id="bone12_left_leg_S">
<path class="path-23" d="M435.247,222.249C435.254,222.249,507.459,226.734,507.466,226.734C507.459,226.733,436.972,210.446,436.965,210.444C436.965,210.445,435.247,222.248,435.247,222.249"/>
</g>
<g id="bone13_right_leg_S">
<path class="path-23" d="M495.133,210.808C495.126,210.810,425.409,230.126,425.402,230.128C425.409,230.128,497.353,222.528,497.360,222.527C497.360,222.526,495.134,210.809,495.133,210.808"/>
</g>
<g id="bone14_left_arm_S">
<path class="path-23" d="M557.485,215.186C557.484,215.179,542.260,144.455,542.259,144.448C542.259,144.455,545.656,216.719,545.656,216.726C545.657,216.726,557.484,215.186,557.485,215.186"/>
</g>
<g id="bone15_jacket_S">
<path class="path-23" d="M610.418,217.011C610.418,217.004,616.949,144.955,616.950,144.948C616.948,144.955,598.668,214.952,598.667,214.959C598.668,214.959,610.417,217.011,610.418,217.011"/>
</g>
<g id="bone16_pupils_S">
<path class="path-23" d="M442.221,337.675C442.220,337.668,440.191,265.352,440.190,265.345C440.189,265.352,430.310,337.019,430.309,337.026C430.310,337.026,442.219,337.675,442.221,337.675"/>
</g>
<g id="bone17_eyelids_S">
<path class="path-23" d="M498.834,331.975C498.827,331.972,430.264,308.891,430.257,308.889C430.263,308.892,494.103,342.925,494.109,342.928C494.110,342.927,498.834,331.976,498.834,331.975"/>
</g>
<g id="bone18_face_S">
<path class="path-23" d="M553.343,344.325C553.350,344.323,621.875,321.128,621.882,321.126C621.875,321.127,550.470,332.748,550.463,332.749C550.463,332.750,553.343,344.324,553.343,344.325"/>
</g>
</g>
</g>
<style>
.path-0{fill:#000000;fill-rule:evenodd;stroke:none;}
.path-1{fill:none;stroke:#a60d3f;stroke-width:1;stroke-linecap:butt;stroke-linejoin:round;}
.path-2{fill:#a60d3f;fill-rule:evenodd;stroke:none;}
.path-3{fill:none;stroke:#d88e4b;stroke-width:1;stroke-linecap:butt;stroke-linejoin:round;}
.path-4{fill:#d88e4b;fill-rule:evenodd;stroke:none;}
.path-5{fill:none;stroke:#6e2353;stroke-width:1;stroke-linecap:butt;stroke-linejoin:round;}
.path-6{fill:#6e2353;fill-rule:evenodd;stroke:none;}
.path-7{fill:none;stroke:#392966;stroke-width:1;stroke-linecap:butt;stroke-linejoin:round;}
.path-8{fill:#392966;fill-rule:evenodd;stroke:none;}
.path-9{fill:none;stroke:#cc9bc5;stroke-width:1;stroke-linecap:butt;stroke-linejoin:round;}
.path-10{fill:#cc9bc5;fill-rule:evenodd;stroke:none;}
.path-11{fill:none;stroke:#620527;stroke-width:1;stroke-linecap:butt;stroke-linejoin:round;}
.path-12{fill:#620527;fill-rule:evenodd;stroke:none;}
.path-13{fill:none;stroke:#6a3661;stroke-width:1;stroke-linecap:butt;stroke-linejoin:round;}
.path-14{fill:#6a3661;fill-rule:evenodd;stroke:none;}
.path-15{fill:none;stroke:#f8a087;stroke-width:1;stroke-linecap:butt;stroke-linejoin:round;}
.path-16{fill:#f8a087;fill-rule:evenodd;stroke:none;}
.path-17{fill:none;stroke:#ffffff;stroke-width:1;stroke-linecap:butt;stroke-linejoin:round;}
.path-18{fill:#ffffff;fill-rule:evenodd;stroke:none;}
.path-19{fill:none;stroke:#d89f4a;stroke-width:1;stroke-linecap:butt;stroke-linejoin:round;}
.path-20{fill:#d89f4a;fill-rule:evenodd;stroke:none;}
.path-21{fill:none;stroke:#fafd5b;stroke-width:1;stroke-linecap:butt;stroke-linejoin:round;}
.path-22{fill:#fafd5b;fill-rule:evenodd;stroke:none;}
.path-23{fill:none;stroke:#00ff42;stroke-width:8;stroke-linecap:round;stroke-linejoin:round;}
.path-24{fill:none;stroke:#000000;stroke-width:1;stroke-linecap:butt;stroke-linejoin:round;}
.path-25{fill:none;stroke:#ececec;stroke-width:1;stroke-linecap:butt;stroke-linejoin:round;}
.path-26{fill:#ececec;fill-rule:evenodd;stroke:none;}
.path-27{fill:none;stroke:#808080;stroke-width:1;stroke-linecap:butt;stroke-linejoin:round;}
.path-28{fill:#808080;fill-rule:evenodd;stroke:none;}
.path-29{fill:none;stroke:#282828;stroke-width:1;stroke-linecap:butt;stroke-linejoin:round;}
.path-30{fill:#282828;fill-rule:evenodd;stroke:none;}
</style>
</svg>
