<svg version="1.1" id="Frame_127" xmlns="http://www.w3.org/2000/svg" xmlns:xlink="http://www.w3.org/1999/xlink" width="480px" height="720px">
<g id="main_bone">
<g id="right_arm">
<path class="path-0" d="M191.894,271.642C193.816,269.272,197.602,264.357,201.624,263.598C208.309,262.337,212.664,268.953,212.522,273.524C212.578,281.602,204.692,290.960,200.668,298.146C190.875,315.385,180.618,332.403,173.578,350.376C172.599,353.545,165.784,374.105,166.053,371.481C165.052,378.013,171.058,384.263,172.814,390.071C175.026,397.879,171.534,404.742,169.147,411.510C163.803,425.338,163.855,430.635,163.514,444.453C163.561,446.628,163.754,453.677,160.347,453.987C156.881,454.302,156.039,448.026,155.208,445.631C154.723,442.977,152.120,437.360,152.767,435.012C153.052,431.071,157.490,432.296,152.984,423.856C147.196,413.257,136.669,403.762,134.950,390.253C133.977,379.543,140.352,370.811,144.507,361.336C153.401,340.892,163.108,320.536,174.349,300.931C180.443,290.728,184.123,281.710,191.894,271.642M213.193,267.302C214.897,258.978,213.263,251.185,202.300,252.636C184.405,254.941,173.592,279.839,166.113,293.728C155.754,312.350,146.857,331.437,138.624,350.769C135.240,359.009,131.719,363.034,129.902,367.839C127.695,373.260,127.141,381.841,126.936,387.462C125.257,405.009,130.342,406.438,136.659,420.395C139.973,428.654,136.048,433.578,138.453,440.640C140.253,445.573,144.186,449.070,147.255,453.136C149.964,457.211,150.716,459.520,152.763,463.250C155.250,467.725,162.690,477.958,168.518,475.206C172.716,473.204,171.840,465.422,171.852,461.654C171.713,455.994,173.693,434.096,175.019,427.515C177.403,416.519,184.385,405.169,183.822,393.080C183.322,383.788,175.810,376.420,177.174,366.641C178.053,361.444,182.171,353.282,183.947,347.552C186.833,338.422,188.404,328.431,192.176,319.217C198.722,302.716,210.207,285.171,213.193,267.302Z"/>
<path class="path-1" d="M201.624,263.598C208.309,262.337,212.664,268.953,212.522,273.524"/>
<path class="path-1" d="M212.522,273.524C212.578,281.602,204.692,290.960,200.668,298.146"/>
<path class="path-1" d="M200.668,298.146C190.875,315.385,180.618,332.403,173.578,350.376"/>
<path class="path-1" d="M173.578,350.376C172.599,353.545,165.784,374.105,166.053,371.481"/>
<path class="path-1" d="M166.053,371.481C165.052,378.013,171.058,384.263,172.814,390.071"/>
<path class="path-1" d="M172.814,390.071C175.026,397.879,171.534,404.742,169.147,411.510"/>
<path class="path-1" d="M169.147,411.510C163.803,425.338,163.855,430.635,163.514,444.453"/>
<path class="path-1" d="M163.514,444.453C163.561,446.628,163.754,453.677,160.347,453.987"/>
<path class="path-1" d="M160.347,453.987C156.881,454.302,156.039,448.026,155.208,445.631"/>
<path class="path-1" d="M155.208,445.631C154.723,442.977,152.120,437.360,152.767,435.012"/>
<path class="path-1" d="M152.767,435.012C153.052,431.071,157.490,432.296,152.984,423.856"/>
<path class="path-1" d="M152.984,423.856C147.196,413.257,136.669,403.762,134.950,390.253"/>
<path class="path-1" d="M134.950,390.253C133.977,379.543,140.352,370.811,144.507,361.336"/>
<path class="path-1" d="M144.507,361.336C153.401,340.892,163.108,320.536,174.349,300.931"/>
<path class="path-1" d="M174.349,300.931C180.443,290.728,184.123,281.710,191.894,271.642"/>
<path class="path-1" d="M191.894,271.642C193.816,269.272,197.602,264.357,201.624,263.598"/>
<path class="path-2" d="M201.624,263.598C208.309,262.337,212.664,268.953,212.522,273.524C212.578,281.602,204.692,290.960,200.668,298.146C190.875,315.385,180.618,332.403,173.578,350.376C172.599,353.545,165.784,374.105,166.053,371.481C165.052,378.013,171.058,384.263,172.814,390.071C175.026,397.879,171.534,404.742,169.147,411.510C163.803,425.338,163.855,430.635,163.514,444.453C163.561,446.628,163.754,453.677,160.347,453.987C156.881,454.302,156.039,448.026,155.208,445.631C154.723,442.977,152.120,437.360,152.767,435.012C153.052,431.071,157.490,432.296,152.984,423.856C147.196,413.257,136.669,403.762,134.950,390.253C133.977,379.543,140.352,370.811,144.507,361.336C153.401,340.892,163.108,320.536,174.349,300.931C180.443,290.728,184.123,281.710,191.894,271.642C193.816,269.272,197.602,264.357,201.624,263.598Z"/>
</g>
<g id="layer_right_leg">
<g id="right_sole">
<path class="path-0" d="M196.664,613.038C197.831,613.607,211.801,614.328,213.225,614.509C214.460,614.701,222.590,615.831,223.651,615.859C224.279,615.901,230.938,616.606,231.358,617.304C231.673,616.755,223.572,617.560,223.077,617.507C222.312,617.475,199.218,615.101,198.955,615.158C197.519,615.133,187.693,612.848,187.539,611.768C188.463,611.378,195.309,612.373,196.664,613.038M227.183,611.934C227.120,612.221,226.064,613.031,225.612,612.956C224.676,612.804,216.249,612.992,215.053,612.540C213.650,612.277,208.576,611.788,207.307,611.582C205.136,611.229,196.281,609.674,194.241,608.888C193.602,608.504,192.157,607.491,192.081,607.128C192.117,606.833,195.981,608.567,197.108,608.791C199.068,609.181,207.461,609.631,209.500,609.843C211.630,610.065,220.194,611.394,222.395,611.435C222.741,611.450,227.001,611.182,227.183,611.934M233.304,610.905C225.137,607.254,217.124,609.173,210.230,608.001C204.395,607.007,192.622,603.900,185.796,606.604C184.742,607.021,183.040,607.836,182.895,609.026C182.715,610.525,184.778,613.820,186.441,615.133C188.487,616.749,193.059,616.981,194.805,617.498C203.527,620.424,214.445,623.680,223.865,624.264C232.428,624.806,233.731,619.666,234.717,615.623C235.068,614.187,235.975,612.058,233.304,610.905Z"/>
<path class="path-5" d="M196.664,613.038C197.831,613.607,211.801,614.328,213.225,614.509"/>
<path class="path-5" d="M213.225,614.509C214.460,614.701,222.590,615.831,223.651,615.859"/>
<path class="path-5" d="M223.651,615.859C224.279,615.901,230.938,616.606,231.358,617.304"/>
<path class="path-5" d="M231.358,617.304C231.673,616.755,223.572,617.560,223.077,617.507"/>
<path class="path-5" d="M223.077,617.507C222.312,617.475,199.218,615.101,198.955,615.158"/>
<path class="path-5" d="M198.955,615.158C197.519,615.133,187.693,612.848,187.539,611.768"/>
<path class="path-5" d="M187.539,611.768C188.463,611.378,195.309,612.373,196.664,613.038"/>
<path class="path-6" d="M196.664,613.038C197.831,613.607,211.801,614.328,213.225,614.509C214.460,614.701,222.590,615.831,223.651,615.859C224.279,615.901,230.938,616.606,231.358,617.304C231.673,616.755,223.572,617.560,223.077,617.507C222.312,617.475,199.218,615.101,198.955,615.158C197.519,615.133,187.693,612.848,187.539,611.768C188.463,611.378,195.309,612.373,196.664,613.038Z"/>
<path class="path-5" d="M197.108,608.791C199.068,609.181,207.461,609.631,209.500,609.843"/>
<path class="path-5" d="M209.500,609.843C211.630,610.065,220.194,611.394,222.395,611.435"/>
<path class="path-5" d="M222.395,611.435C222.741,611.450,227.001,611.182,227.183,611.934"/>
<path class="path-5" d="M227.183,611.934C227.120,612.221,226.064,613.031,225.612,612.956"/>
<path class="path-5" d="M225.612,612.956C224.676,612.804,216.249,612.992,215.053,612.540"/>
<path class="path-5" d="M215.053,612.540C213.650,612.277,208.576,611.788,207.307,611.582"/>
<path class="path-5" d="M207.307,611.582C205.136,611.229,196.281,609.674,194.241,608.888"/>
<path class="path-5" d="M194.241,608.888C193.602,608.504,192.157,607.491,192.081,607.128"/>
<path class="path-5" d="M192.081,607.128C192.117,606.833,195.981,608.567,197.108,608.791"/>
<path class="path-6" d="M197.108,608.791C199.068,609.181,207.461,609.631,209.500,609.843C211.630,610.065,220.194,611.394,222.395,611.435C222.741,611.450,227.001,611.182,227.183,611.934C227.120,612.221,226.064,613.031,225.612,612.956C224.676,612.804,216.249,612.992,215.053,612.540C213.650,612.277,208.576,611.788,207.307,611.582C205.136,611.229,196.281,609.674,194.241,608.888C193.602,608.504,192.157,607.491,192.081,607.128C192.117,606.833,195.981,608.567,197.108,608.791Z"/>
</g>
<g id="right_heel">
<path class="path-0" d="M187.850,552.036C190.026,537.415,192.133,526.074,210.315,525.216C218.380,524.690,233.254,528.685,236.882,536.785C238.823,540.847,237.559,546.411,237.391,550.534C237.175,557.259,240.073,570.547,230.504,571.230C229.886,571.334,213.233,570.066,208.031,569.715C201.325,569.884,194.374,569.740,190.011,564.693C187.801,561.555,187.269,555.476,187.850,552.036M245.499,536.053C242.906,526.451,230.732,519.915,221.639,520.346C209.701,520.765,198.004,515.760,189.280,526.064C182.472,534.104,180.292,549.864,181.137,560.075C181.373,564.766,183.489,573.482,187.090,576.409C189.739,578.469,194.146,578.370,197.479,578.687C213.605,580.477,241.891,588.603,243.839,564.475C244.279,558.187,246.868,541.194,245.499,536.053Z"/>
<path class="path-3" d="M210.315,525.216C218.380,524.690,233.254,528.685,236.882,536.785"/>
<path class="path-3" d="M236.882,536.785C238.823,540.847,237.559,546.411,237.391,550.534"/>
<path class="path-3" d="M237.391,550.534C237.175,557.259,240.073,570.547,230.504,571.230"/>
<path class="path-3" d="M230.504,571.230C229.886,571.334,213.233,570.066,208.031,569.715"/>
<path class="path-3" d="M208.031,569.715C201.325,569.884,194.374,569.740,190.011,564.693"/>
<path class="path-3" d="M190.011,564.693C187.801,561.555,187.269,555.476,187.850,552.036"/>
<path class="path-3" d="M187.850,552.036C190.026,537.415,192.133,526.074,210.315,525.216"/>
<path class="path-4" d="M210.315,525.216C218.380,524.690,233.254,528.685,236.882,536.785C238.823,540.847,237.559,546.411,237.391,550.534C237.175,557.259,240.073,570.547,230.504,571.230C229.886,571.334,213.233,570.066,208.031,569.715C201.325,569.884,194.374,569.740,190.011,564.693C187.801,561.555,187.269,555.476,187.850,552.036C190.026,537.415,192.133,526.074,210.315,525.216Z"/>
</g>
<g id="right_toe">
<path class="path-0" d="M184.092,595.702C185.825,585.500,191.762,573.524,204.371,572.396C207.634,571.933,212.144,573.431,215.715,574.252C233.281,578.244,240.013,582.475,240.060,600.646C239.988,604.752,240.468,609.739,237.483,613.110C233.401,617.636,213.544,616.733,207.528,616.109C197.723,615.308,189.703,615.041,184.666,605.345C182.693,601.448,183.413,599.731,184.092,595.702M246.325,585.843C241.511,574.289,215.336,567.965,203.454,568.883C186.816,570.262,178.329,580.413,175.558,594.104C174.515,599.067,173.476,604.731,175.908,609.250C176.957,611.198,179.512,613.569,181.107,615.111C191.326,625.850,198.253,625.767,212.072,626.088C219.887,626.399,232.532,625.107,239.219,620.400C243.381,617.172,244.808,613.786,245.608,608.888C246.205,604.181,248.012,589.483,246.325,585.843Z"/>
<path class="path-3" d="M204.371,572.396C207.634,571.933,212.144,573.431,215.715,574.252"/>
<path class="path-3" d="M215.715,574.252C233.281,578.244,240.013,582.475,240.060,600.646"/>
<path class="path-3" d="M240.060,600.646C239.988,604.752,240.468,609.739,237.483,613.110"/>
<path class="path-3" d="M237.483,613.110C233.401,617.636,213.544,616.733,207.528,616.109"/>
<path class="path-3" d="M207.528,616.109C197.723,615.308,189.703,615.041,184.666,605.345"/>
<path class="path-3" d="M184.666,605.345C182.693,601.448,183.413,599.731,184.092,595.702"/>
<path class="path-3" d="M184.092,595.702C185.825,585.500,191.762,573.524,204.371,572.396"/>
<path class="path-4" d="M204.371,572.396C207.634,571.933,212.144,573.431,215.715,574.252C233.281,578.244,240.013,582.475,240.060,600.646C239.988,604.752,240.468,609.739,237.483,613.110C233.401,617.636,213.544,616.733,207.528,616.109C197.723,615.308,189.703,615.041,184.666,605.345C182.693,601.448,183.413,599.731,184.092,595.702C185.825,585.500,191.762,573.524,204.371,572.396Z"/>
</g>
<g id="right_leg">
<path class="path-0" d="M192.734,406.650C197.753,396.551,211.536,395.968,220.902,399.200C226.642,401.050,236.528,403.782,239.536,409.401C242.255,414.478,239.660,422.998,238.123,428.549C235.686,437.350,215.154,458.546,223.917,455.473C233.821,452.003,240.122,436.217,245.258,441.820C247.024,443.746,244.106,447.393,243.512,450.353C240.808,468.651,235.398,487.395,235.333,505.339C235.223,513.455,235.802,525.377,237.296,532.749C239.600,546.450,236.394,549.352,236.356,557.599C236.202,559.885,235.792,571.406,235.588,574.474C235.329,579.985,232.591,585.495,231.456,590.922C230.163,597.100,223.356,605.185,218.153,607.983C214.818,609.692,204.632,614.306,200.860,613.543C196.209,612.744,190.556,607.503,188.400,602.927C187.322,600.924,185.727,591.293,185.356,588.852C184.861,584.499,180.783,583.408,182.174,578.471C183.292,573.922,195.144,574.133,193.541,569.614C188.655,555.821,185.412,532.042,185.802,521.361C185.891,513.873,182.783,489.048,183.691,482.164C189.456,441.327,181.954,432.454,192.734,406.650M217.311,387.045C211.870,384.523,207.995,378.532,201.916,380.236C200.270,380.848,197.466,382.865,196.228,383.924C179.913,395.719,177.444,407.650,175.269,426.215C173.624,436.514,171.880,447.261,171.805,457.283C171.296,475.804,170.484,491.816,171.985,509.177C172.720,513.998,175.336,518.676,176.480,524.597C177.419,528.889,177.899,534.088,178.555,541.521C178.644,546.939,181.744,552.290,179.953,557.150C179.309,559.095,174.626,561.607,173.834,562.978C171.252,566.310,170.430,571.549,169.557,575.436C168.797,580.037,170.496,584.620,171.770,588.855C173.313,595.178,174.969,603.249,178.175,608.462C180.729,612.615,184.623,616.068,188.290,618.915C191.381,621.287,194.384,623.146,198.008,624.673C201.219,626.054,204.412,628.081,208.046,628.003C209.317,627.779,219.010,623.293,220.828,622.278C222.298,621.343,223.117,618.391,224.524,617.202C225.880,615.924,228.773,616.387,230.513,615.587C234.430,613.782,238.605,611.986,241.557,608.837C256.724,592.198,248.016,576.224,247.523,556.564C247.314,548.196,246.532,531.041,247.435,521.815C248.439,508.816,252.309,496.512,254.071,483.187C254.963,477.343,256.422,470.407,257.301,463.724C257.791,459.417,255.989,456.038,255.706,451.778C255.176,447.569,256.366,434.053,256.059,429.487C255.954,425.770,256.515,421.175,255.535,417.407C252.772,407.787,239.836,396.200,230.845,392.339C226.366,390.242,221.429,389.441,217.311,387.045Z"/>
<path class="path-7" d="M220.902,399.200C226.642,401.050,236.528,403.782,239.536,409.401"/>
<path class="path-7" d="M239.536,409.401C242.255,414.478,239.660,422.998,238.123,428.549"/>
<path class="path-7" d="M238.123,428.549C235.686,437.350,215.154,458.546,223.917,455.473"/>
<path class="path-7" d="M223.917,455.473C233.821,452.003,240.122,436.217,245.258,441.820"/>
<path class="path-7" d="M245.258,441.820C247.024,443.746,244.106,447.393,243.512,450.353"/>
<path class="path-7" d="M243.512,450.353C240.808,468.651,235.398,487.395,235.333,505.339"/>
<path class="path-7" d="M235.333,505.339C235.223,513.455,235.802,525.377,237.296,532.749"/>
<path class="path-7" d="M237.296,532.749C239.600,546.450,236.394,549.352,236.356,557.599"/>
<path class="path-7" d="M236.356,557.599C236.202,559.885,235.792,571.406,235.588,574.474"/>
<path class="path-7" d="M235.588,574.474C235.329,579.985,232.591,585.495,231.456,590.922"/>
<path class="path-7" d="M231.456,590.922C230.163,597.100,223.356,605.185,218.153,607.983"/>
<path class="path-7" d="M218.153,607.983C214.818,609.692,204.632,614.306,200.860,613.543"/>
<path class="path-7" d="M200.860,613.543C196.209,612.744,190.556,607.503,188.400,602.927"/>
<path class="path-7" d="M188.400,602.927C187.322,600.924,185.727,591.293,185.356,588.852"/>
<path class="path-7" d="M185.356,588.852C184.861,584.499,180.783,583.408,182.174,578.471"/>
<path class="path-7" d="M182.174,578.471C183.292,573.922,195.144,574.133,193.541,569.614"/>
<path class="path-7" d="M193.541,569.614C188.655,555.821,185.412,532.042,185.802,521.361"/>
<path class="path-7" d="M185.802,521.361C185.891,513.873,182.783,489.048,183.691,482.164"/>
<path class="path-7" d="M183.691,482.164C189.456,441.327,181.954,432.454,192.734,406.650"/>
<path class="path-7" d="M192.734,406.650C197.753,396.551,211.536,395.968,220.902,399.200"/>
<path class="path-8" d="M220.902,399.200C226.642,401.050,236.528,403.782,239.536,409.401C242.255,414.478,239.660,422.998,238.123,428.549C235.686,437.350,215.154,458.546,223.917,455.473C233.821,452.003,240.122,436.217,245.258,441.820C247.024,443.746,244.106,447.393,243.512,450.353C240.808,468.651,235.398,487.395,235.333,505.339C235.223,513.455,235.802,525.377,237.296,532.749C239.600,546.450,236.394,549.352,236.356,557.599C236.202,559.885,235.792,571.406,235.588,574.474C235.329,579.985,232.591,585.495,231.456,590.922C230.163,597.100,223.356,605.185,218.153,607.983C214.818,609.692,204.632,614.306,200.860,613.543C196.209,612.744,190.556,607.503,188.400,602.927C187.322,600.924,185.727,591.293,185.356,588.852C184.861,584.499,180.783,583.408,182.174,578.471C183.292,573.922,195.144,574.133,193.541,569.614C188.655,555.821,185.412,532.042,185.802,521.361C185.891,513.873,182.783,489.048,183.691,482.164C189.456,441.327,181.954,432.454,192.734,406.650C197.753,396.551,211.536,395.968,220.902,399.200Z"/>
</g>
</g>
<g id="layer_left_leg">
<g id="left_heel">
<path class="path-0" d="M258.137,677.245C252.473,665.016,265.161,648.379,276.516,646.589C295.696,643.437,312.309,667.835,309.991,674.670C305.835,685.767,285.588,683.962,275.510,683.297C270.912,682.841,259.952,681.302,258.137,677.245M306.987,644.963C294.647,634.045,267.469,636.442,255.255,645.170C237.625,657.451,233.870,695.309,259.091,697.218C273.269,698.334,305.677,697.381,314.127,691.807C322.390,686.803,321.214,674.617,319.114,665.833C317.050,659.016,312.413,649.904,306.987,644.963Z"/>
<path class="path-3" d="M276.516,646.589C295.696,643.437,312.309,667.835,309.991,674.670"/>
<path class="path-3" d="M309.991,674.670C305.835,685.767,285.588,683.962,275.510,683.297"/>
<path class="path-3" d="M275.510,683.297C270.912,682.841,259.952,681.302,258.137,677.245"/>
<path class="path-3" d="M258.137,677.245C252.473,665.016,265.161,648.379,276.516,646.589"/>
<path class="path-4" d="M276.516,646.589C295.696,643.437,312.309,667.835,309.991,674.670C305.835,685.767,285.588,683.962,275.510,683.297C270.912,682.841,259.952,681.302,258.137,677.245C252.473,665.016,265.161,648.379,276.516,646.589Z"/>
</g>
<g id="left_leg">
<path class="path-0" d="M247.306,411.975C249.083,407.381,258.523,411.208,262.398,411.001C268.903,410.970,283.923,407.745,288.880,412.152C295.013,417.249,292.706,439.613,292.534,447.282C291.121,474.924,295.036,500.880,296.823,527.547C297.412,541.221,295.809,555.774,299.415,568.701C302.018,576.727,309.796,582.745,312.922,590.061C315.020,599.059,320.219,609.337,314.881,616.037C303.889,628.190,299.019,622.401,289.340,628.896C279.541,635.045,262.231,636.763,253.156,631.470C246.902,628.098,237.742,617.616,236.433,610.729C231.520,584.870,234.761,554.450,235.048,528.635C235.262,509.352,248.743,469.629,244.643,449.358C242.545,438.981,243.869,436.553,248.951,429.651C249.815,428.475,245.416,424.838,244.959,423.431C243.756,420.538,246.047,414.766,247.306,411.975M295.027,404.595C288.703,399.250,270.228,400.973,262.548,401.355C258.476,401.542,245.672,398.634,242.715,400.555C229.547,409.112,235.455,438.482,235.689,451.284C235.332,458.699,225.842,492.992,224.341,502.872C221.764,530.825,217.321,554.938,219.493,582.926C220.568,599.618,220.159,616.457,227.446,631.258C236.937,650.198,254.589,652.213,279.013,649.950C294.594,648.560,324.153,648.709,331.392,620.393C336.223,601.437,325.918,577.382,322.454,571.734C319.230,566.479,313.899,562.098,311.664,555.879C304.696,538.405,309.989,518.375,308.657,499.500C307.096,477.067,313.125,419.960,295.027,404.595Z"/>
<path class="path-7" d="M262.398,411.001C268.903,410.970,283.923,407.745,288.880,412.152"/>
<path class="path-7" d="M288.880,412.152C295.013,417.249,292.706,439.613,292.534,447.282"/>
<path class="path-7" d="M292.534,447.282C291.121,474.924,295.036,500.880,296.823,527.547"/>
<path class="path-7" d="M296.823,527.547C297.412,541.221,295.809,555.774,299.415,568.701"/>
<path class="path-7" d="M299.415,568.701C302.018,576.727,309.796,582.745,312.922,590.061"/>
<path class="path-7" d="M312.922,590.061C315.020,599.059,320.219,609.337,314.881,616.037"/>
<path class="path-7" d="M314.881,616.037C303.889,628.190,299.019,622.401,289.340,628.896"/>
<path class="path-7" d="M289.340,628.896C279.541,635.045,262.231,636.763,253.156,631.470"/>
<path class="path-7" d="M253.156,631.470C246.902,628.098,237.742,617.616,236.433,610.729"/>
<path class="path-7" d="M236.433,610.729C231.520,584.870,234.761,554.450,235.048,528.635"/>
<path class="path-7" d="M235.048,528.635C235.262,509.352,248.743,469.629,244.643,449.358"/>
<path class="path-7" d="M244.643,449.358C242.545,438.981,243.869,436.553,248.951,429.651"/>
<path class="path-7" d="M248.951,429.651C249.815,428.475,245.416,424.838,244.959,423.431"/>
<path class="path-7" d="M244.959,423.431C243.756,420.538,246.047,414.766,247.306,411.975"/>
<path class="path-7" d="M247.306,411.975C249.083,407.381,258.523,411.208,262.398,411.001"/>
<path class="path-8" d="M262.398,411.001C268.903,410.970,283.923,407.745,288.880,412.152C295.013,417.249,292.706,439.613,292.534,447.282C291.121,474.924,295.036,500.880,296.823,527.547C297.412,541.221,295.809,555.774,299.415,568.701C302.018,576.727,309.796,582.745,312.922,590.061C315.020,599.059,320.219,609.337,314.881,616.037C303.889,628.190,299.019,622.401,289.340,628.896C279.541,635.045,262.231,636.763,253.156,631.470C246.902,628.098,237.742,617.616,236.433,610.729C231.520,584.870,234.761,554.450,235.048,528.635C235.262,509.352,248.743,469.629,244.643,449.358C242.545,438.981,243.869,436.553,248.951,429.651C249.815,428.475,245.416,424.838,244.959,423.431C243.756,420.538,246.047,414.766,247.306,411.975C249.083,407.381,258.523,411.208,262.398,411.001Z"/>
</g>
<g id="left_toe">
<path class="path-0" d="M250.212,675.473C222.317,665.222,238.797,625.228,259.027,621.479C282.266,617.186,305.068,625.765,310.658,636.633C316.534,647.111,316.401,659.369,309.588,669.600C298.276,683.865,265.509,681.060,250.212,675.473M324.709,638.370C317.283,616.174,294.990,602.838,275.520,603.247C250.537,603.778,230.851,615.196,225.298,639.825C221.430,654.662,223.447,669.951,232.853,682.060C241.088,692.004,269.753,693.756,282.077,693.172C293.573,691.830,308.164,689.951,316.454,680.618C323.123,673.329,327.772,647.528,324.709,638.370Z"/>
<path class="path-3" d="M259.027,621.479C282.266,617.186,305.068,625.765,310.658,636.633"/>
<path class="path-3" d="M310.658,636.633C316.534,647.111,316.401,659.369,309.588,669.600"/>
<path class="path-3" d="M309.588,669.600C298.276,683.865,265.509,681.060,250.212,675.473"/>
<path class="path-3" d="M250.212,675.473C222.317,665.222,238.797,625.228,259.027,621.479"/>
<path class="path-4" d="M259.027,621.479C282.266,617.186,305.068,625.765,310.658,636.633C316.534,647.111,316.401,659.369,309.588,669.600C298.276,683.865,265.509,681.060,250.212,675.473C222.317,665.222,238.797,625.228,259.027,621.479Z"/>
</g>
<g id="left_sole">
<path class="path-0" d="M255.704,694.025C248.313,692.545,245.505,687.268,244.628,689.063C243.651,691.060,251.066,693.306,254.640,694.168C263.482,696.519,283.199,698.358,293.834,693.503C295.410,692.931,300.281,691.499,300.414,691.514C305.299,692.057,291.621,695.385,288.613,695.700C283.606,696.596,256.771,693.851,255.704,694.025M243.273,683.995C245.661,681.191,255.060,680.151,258.268,680.051C280.493,679.362,287.650,680.507,294.367,681.332C297.452,681.718,306.166,679.124,306.784,684.687C307.731,693.213,276.840,694.574,256.905,689.763C249.464,688.213,241.971,685.525,243.273,683.995M316.055,684.288C314.122,677.471,293.160,668.596,268.806,668.878C259.435,668.996,235.696,672.358,232.808,684.462C232.282,686.692,233.881,693.612,235.818,694.747C247.121,701.424,307.800,700.448,313.237,694.923C314.890,693.243,316.583,686.150,316.055,684.288Z"/>
<path class="path-5" d="M244.628,689.063C243.651,691.060,251.066,693.306,254.640,694.168"/>
<path class="path-5" d="M254.640,694.168C263.482,696.519,283.199,698.358,293.834,693.503"/>
<path class="path-5" d="M293.834,693.503C295.410,692.931,300.281,691.499,300.414,691.514"/>
<path class="path-5" d="M300.414,691.514C305.299,692.057,291.621,695.385,288.613,695.700"/>
<path class="path-5" d="M288.613,695.700C283.606,696.596,256.771,693.851,255.704,694.025"/>
<path class="path-5" d="M255.704,694.025C248.313,692.545,245.505,687.268,244.628,689.063"/>
<path class="path-6" d="M244.628,689.063C243.651,691.060,251.066,693.306,254.640,694.168C263.482,696.519,283.199,698.358,293.834,693.503C295.410,692.931,300.281,691.499,300.414,691.514C305.299,692.057,291.621,695.385,288.613,695.700C283.606,696.596,256.771,693.851,255.704,694.025C248.313,692.545,245.505,687.268,244.628,689.063Z"/>
<path class="path-5" d="M258.268,680.051C280.493,679.362,287.650,680.507,294.367,681.332"/>
<path class="path-5" d="M294.367,681.332C297.452,681.718,306.166,679.124,306.784,684.687"/>
<path class="path-5" d="M306.784,684.687C307.731,693.213,276.840,694.574,256.905,689.763"/>
<path class="path-5" d="M256.905,689.763C249.464,688.213,241.971,685.525,243.273,683.995"/>
<path class="path-5" d="M243.273,683.995C245.661,681.191,255.060,680.151,258.268,680.051"/>
<path class="path-6" d="M258.268,680.051C280.493,679.362,287.650,680.507,294.367,681.332C297.452,681.718,306.166,679.124,306.784,684.687C307.731,693.213,276.840,694.574,256.905,689.763C249.464,688.213,241.971,685.525,243.273,683.995C245.661,681.191,255.060,680.151,258.268,680.051Z"/>
</g>
</g>
<g id="hat_brim">
<path class="path-0" d="M301.479,156.128C305.038,150.080,313.749,133.630,321.733,133.498C327.056,133.409,338.193,142.875,343.897,145.775C348.937,148.686,354.304,151.258,360.003,153.825C363.243,155.441,366.486,157.050,369.732,158.654C384.159,165.736,380.271,172.123,371.932,170.930C353.249,167.911,350.277,169.293,332.160,160.276C329.814,159.317,323.771,156.091,322.845,160.431C321.599,165.443,330.652,169.619,334.338,171.221C341.051,174.771,348.436,178.641,356.431,179.173C358.766,179.468,366.738,178.668,368.106,180.975C370.158,184.269,360.655,193.078,358.692,195.107C355.415,198.156,352.139,201.205,348.851,203.590C343.916,206.998,338.643,210.080,333.005,211.172C322.383,212.680,288.863,197.930,287.672,186.304C286.897,179.663,297.592,162.515,301.479,156.128M333.637,128.975C328.575,124.733,324.811,118.473,317.547,121.922C312.263,124.339,306.736,132.084,303.144,136.136C289.780,152.995,277.799,172.827,278.823,194.437C279.383,208.069,284.034,207.661,295.100,212.800C311.870,220.840,333.204,223.147,351.029,214.534C362.583,209.018,382.577,190.718,387.701,178.654C389.297,174.634,392.141,165.603,389.735,160.985C386.980,155.373,364.532,146.097,357.819,142.549C349.764,138.357,340.716,134.514,333.637,128.975Z"/>
<path class="path-9" d="M321.733,133.498C327.056,133.409,338.193,142.875,343.897,145.775"/>
<path class="path-9" d="M343.897,145.775C348.937,148.686,354.304,151.258,360.003,153.825"/>
<path class="path-9" d="M360.003,153.825C363.243,155.441,366.486,157.050,369.732,158.654"/>
<path class="path-9" d="M369.732,158.654C384.159,165.736,380.271,172.123,371.932,170.930"/>
<path class="path-9" d="M371.932,170.930C353.249,167.911,350.277,169.293,332.160,160.276"/>
<path class="path-9" d="M332.160,160.276C329.814,159.317,323.771,156.091,322.845,160.431"/>
<path class="path-9" d="M322.845,160.431C321.599,165.443,330.652,169.619,334.338,171.221"/>
<path class="path-9" d="M334.338,171.221C341.051,174.771,348.436,178.641,356.431,179.173"/>
<path class="path-9" d="M356.431,179.173C358.766,179.468,366.738,178.668,368.106,180.975"/>
<path class="path-9" d="M368.106,180.975C370.158,184.269,360.655,193.078,358.692,195.107"/>
<path class="path-9" d="M358.692,195.107C355.415,198.156,352.139,201.205,348.851,203.590"/>
<path class="path-9" d="M348.851,203.590C343.916,206.998,338.643,210.080,333.005,211.172"/>
<path class="path-9" d="M333.005,211.172C322.383,212.680,288.863,197.930,287.672,186.304"/>
<path class="path-9" d="M287.672,186.304C286.897,179.663,297.592,162.515,301.479,156.128"/>
<path class="path-9" d="M301.479,156.128C305.038,150.080,313.749,133.630,321.733,133.498"/>
<path class="path-10" d="M321.733,133.498C327.056,133.409,338.193,142.875,343.897,145.775C348.937,148.686,354.304,151.258,360.003,153.825C363.243,155.441,366.486,157.050,369.732,158.654C384.159,165.736,380.271,172.123,371.932,170.930C353.249,167.911,350.277,169.293,332.160,160.276C329.814,159.317,323.771,156.091,322.845,160.431C321.599,165.443,330.652,169.619,334.338,171.221C341.051,174.771,348.436,178.641,356.431,179.173C358.766,179.468,366.738,178.668,368.106,180.975C370.158,184.269,360.655,193.078,358.692,195.107C355.415,198.156,352.139,201.205,348.851,203.590C343.916,206.998,338.643,210.080,333.005,211.172C322.383,212.680,288.863,197.930,287.672,186.304C286.897,179.663,297.592,162.515,301.479,156.128C305.038,150.080,313.749,133.630,321.733,133.498Z"/>
</g>
<g id="hair">
<path class="path-0" d="M200.203,146.352C216.979,133.470,236.824,131.198,257.821,129.106C267.233,128.151,274.085,134.183,281.677,140.046C287.929,145.209,294.669,151.046,301.306,156.460C311.294,164.550,315.522,168.657,319.302,172.597C322.514,175.600,327.564,181.264,331.504,183.868C336.257,187.008,346.410,203.559,348.559,205.370C342.067,207.995,331.759,210.259,327.208,214.378C329.202,220.097,330.078,229.089,330.248,231.793C324.077,232.588,316.708,230.209,305.147,228.804C303.244,236.113,303.655,242.830,299.391,250.386C291.561,248.498,286.092,246.926,275.879,243.079C269.623,248.659,268.062,248.342,257.772,255.484C250.433,251.572,244.516,247.288,237.443,244.857C230.853,248.142,220.194,249.792,216.732,252.929C212.516,246.128,208.564,238.577,205.116,235.401C195.655,237.930,191.703,240.794,185.085,243.653C180.549,238.397,183.288,233.681,178.138,225.867C173.748,224.954,166.917,222.735,161.360,222.953C164.931,218.246,166.894,203.359,173.273,201.114C181.143,198.344,175.546,189.521,179.988,181.049C181.082,178.848,191.878,161.858,192.776,159.131C194.504,154.420,196.403,149.416,200.203,146.352M285.541,127.174C272.772,118.482,247.822,114.814,234.155,118.854C221.603,122.410,209.373,127.141,198.745,134.947C192.790,139.258,186.288,145.481,182.533,151.813C175.013,164.126,164.662,190.711,158.681,203.090C153.917,213.346,149.316,220.351,144.491,226.045C162.446,231.456,167.732,233.816,173.017,234.319C173.784,242.043,181.255,247.384,180.504,255.999C189.225,254.196,194.334,251.671,202.042,249.277C206.279,253.697,209.381,259.857,213.527,265.832C221.112,263.303,229.007,263.148,236.325,257.269C242.015,259.965,251.046,264.142,260.333,268.578C268.371,263.698,270.131,263.345,277.623,257.861C287.218,259.658,297.490,264.959,306.967,263.407C305.832,255.271,311.563,249.316,310.561,244.113C317.642,241.784,339.850,243.736,343.593,243.203C343.026,237.178,339.051,225.809,340.210,218.528C346.906,216.337,352.560,214.367,362.892,208.675C359.046,202.187,352.354,194.240,346.618,189.602C341.779,185.727,337.719,180.461,332.867,176.412C316.423,162.921,309.163,143.338,285.541,127.174Z"/>
<path class="path-11" d="M257.821,129.106C267.233,128.151,274.085,134.183,281.677,140.046"/>
<path class="path-11" d="M281.677,140.046C287.929,145.209,294.669,151.046,301.306,156.460"/>
<path class="path-11" d="M301.306,156.460C311.294,164.550,315.522,168.657,319.302,172.597"/>
<path class="path-11" d="M319.302,172.597C322.514,175.600,327.564,181.264,331.504,183.868"/>
<path class="path-11" d="M331.504,183.868C336.257,187.008,346.410,203.559,348.559,205.370"/>
<path class="path-11" d="M348.559,205.370C342.067,207.995,331.759,210.259,327.208,214.378"/>
<path class="path-11" d="M327.208,214.378C329.202,220.097,330.078,229.089,330.248,231.793"/>
<path class="path-11" d="M330.248,231.793C324.077,232.588,316.708,230.209,305.147,228.804"/>
<path class="path-11" d="M305.147,228.804C303.244,236.113,303.655,242.830,299.391,250.386"/>
<path class="path-11" d="M299.391,250.386C291.561,248.498,286.092,246.926,275.879,243.079"/>
<path class="path-11" d="M275.879,243.079C269.623,248.659,268.062,248.342,257.772,255.484"/>
<path class="path-11" d="M257.772,255.484C250.433,251.572,244.516,247.288,237.443,244.857"/>
<path class="path-11" d="M237.443,244.857C230.853,248.142,220.194,249.792,216.732,252.929"/>
<path class="path-11" d="M216.732,252.929C212.516,246.128,208.564,238.577,205.116,235.401"/>
<path class="path-11" d="M205.116,235.401C195.655,237.930,191.703,240.794,185.085,243.653"/>
<path class="path-11" d="M185.085,243.653C180.549,238.397,183.288,233.681,178.138,225.867"/>
<path class="path-11" d="M178.138,225.867C173.748,224.954,166.917,222.735,161.360,222.953"/>
<path class="path-11" d="M161.360,222.953C164.931,218.246,166.894,203.359,173.273,201.114"/>
<path class="path-11" d="M173.273,201.114C181.143,198.344,175.546,189.521,179.988,181.049"/>
<path class="path-11" d="M179.988,181.049C181.082,178.848,191.878,161.858,192.776,159.131"/>
<path class="path-11" d="M192.776,159.131C194.504,154.420,196.403,149.416,200.203,146.352"/>
<path class="path-11" d="M200.203,146.352C216.979,133.470,236.824,131.198,257.821,129.106"/>
<path class="path-12" d="M257.821,129.106C267.233,128.151,274.085,134.183,281.677,140.046C287.929,145.209,294.669,151.046,301.306,156.460C311.294,164.550,315.522,168.657,319.302,172.597C322.514,175.600,327.564,181.264,331.504,183.868C336.257,187.008,346.410,203.559,348.559,205.370C342.067,207.995,331.759,210.259,327.208,214.378C329.202,220.097,330.078,229.089,330.248,231.793C324.077,232.588,316.708,230.209,305.147,228.804C303.244,236.113,303.655,242.830,299.391,250.386C291.561,248.498,286.092,246.926,275.879,243.079C269.623,248.659,268.062,248.342,257.772,255.484C250.433,251.572,244.516,247.288,237.443,244.857C230.853,248.142,220.194,249.792,216.732,252.929C212.516,246.128,208.564,238.577,205.116,235.401C195.655,237.930,191.703,240.794,185.085,243.653C180.549,238.397,183.288,233.681,178.138,225.867C173.748,224.954,166.917,222.735,161.360,222.953C164.931,218.246,166.894,203.359,173.273,201.114C181.143,198.344,175.546,189.521,179.988,181.049C181.082,178.848,191.878,161.858,192.776,159.131C194.504,154.420,196.403,149.416,200.203,146.352C216.979,133.470,236.824,131.198,257.821,129.106Z"/>
</g>
<g id="clothes">
<path class="path-0" d="M256.462,373.074C251.189,371.005,231.223,372.128,227.683,376.820C225.494,379.911,228.657,381.716,231.944,381.968C235.973,382.278,257.176,381.734,259.990,380.077C264.392,377.414,258.623,373.814,256.462,373.074M212.034,269.213C216.047,256.898,243.939,246.297,256.746,248.376C265.677,249.799,292.793,266.171,296.077,274.833C298.834,281.767,297.735,306.461,297.335,314.802C296.322,330.079,296.112,345.444,295.510,360.743C295.618,373.496,303.664,387.769,297.510,398.939C294.817,402.593,284.099,404.012,279.123,404.442C273.929,405.140,263.567,405.473,258.786,404.813C236.720,402.380,238.800,408.145,217.988,407.527C213.819,407.244,200.414,405.096,197.886,403.028C192.100,397.061,195.844,388.302,197.840,380.551C201.929,366.981,203.650,357.455,205.982,342.605C208.371,326.712,211.675,309.758,213.081,293.206C213.255,287.242,211.076,272.787,212.034,269.213M292.055,257.374C276.574,246.363,261.270,237.062,241.185,241.087C235.779,241.970,208.220,252.670,205.637,255.796C201.598,260.772,203.707,281.137,203.111,288.374C202.733,296.988,202.259,305.932,200.867,314.127C199.980,320.390,198.141,325.898,197.605,331.857C196.676,338.449,196.118,345.611,194.487,351.604C189.731,368.611,175.948,402.217,195.913,414.978C200.469,417.914,207.221,417.999,212.932,418.383C222.829,418.858,233.464,419.462,243.455,418.303C254.802,417.303,265.692,412.479,277.221,412.641C283.512,412.731,301.892,422.506,307.214,418.526C309.861,416.639,312.710,402.528,312.730,398.854C312.112,384.252,306.162,370.194,305.334,355.602C304.988,343.623,305.165,331.867,306.909,319.660C308.121,309.712,310.622,300.210,311.484,289.895C311.511,285.526,312.597,280.242,310.618,275.708C307.283,267.388,299.016,262.315,292.055,257.374Z"/>
<path class="path-13" d="M256.462,373.074C251.189,371.005,231.223,372.128,227.683,376.820"/>
<path class="path-13" d="M227.683,376.820C225.494,379.911,228.657,381.716,231.944,381.968"/>
<path class="path-13" d="M231.944,381.968C235.973,382.278,257.176,381.734,259.990,380.077"/>
<path class="path-13" d="M259.990,380.077C264.392,377.414,258.623,373.814,256.462,373.074"/>
<path class="path-13" d="M212.034,269.213C216.047,256.898,243.939,246.297,256.746,248.376"/>
<path class="path-13" d="M256.746,248.376C265.677,249.799,292.793,266.171,296.077,274.833"/>
<path class="path-13" d="M296.077,274.833C298.834,281.767,297.735,306.461,297.335,314.802"/>
<path class="path-13" d="M297.335,314.802C296.322,330.079,296.112,345.444,295.510,360.743"/>
<path class="path-13" d="M295.510,360.743C295.618,373.496,303.664,387.769,297.510,398.939"/>
<path class="path-13" d="M297.510,398.939C294.817,402.593,284.099,404.012,279.123,404.442"/>
<path class="path-13" d="M279.123,404.442C273.929,405.140,263.567,405.473,258.786,404.813"/>
<path class="path-13" d="M258.786,404.813C236.720,402.380,238.800,408.145,217.988,407.527"/>
<path class="path-13" d="M217.988,407.527C213.819,407.244,200.414,405.096,197.886,403.028"/>
<path class="path-13" d="M197.886,403.028C192.100,397.061,195.844,388.302,197.840,380.551"/>
<path class="path-13" d="M197.840,380.551C201.929,366.981,203.650,357.455,205.982,342.605"/>
<path class="path-13" d="M205.982,342.605C208.371,326.712,211.675,309.758,213.081,293.206"/>
<path class="path-13" d="M213.081,293.206C213.255,287.242,211.076,272.787,212.034,269.213"/>
<path class="path-14" d="M256.462,373.074C251.189,371.005,231.223,372.128,227.683,376.820C225.494,379.911,228.657,381.716,231.944,381.968C235.973,382.278,257.176,381.734,259.990,380.077C264.392,377.414,258.623,373.814,256.462,373.074M212.034,269.213C216.047,256.898,243.939,246.297,256.746,248.376C265.677,249.799,292.793,266.171,296.077,274.833C298.834,281.767,297.735,306.461,297.335,314.802C296.322,330.079,296.112,345.444,295.510,360.743C295.618,373.496,303.664,387.769,297.510,398.939C294.817,402.593,284.099,404.012,279.123,404.442C273.929,405.140,263.567,405.473,258.786,404.813C236.720,402.380,238.800,408.145,217.988,407.527C213.819,407.244,200.414,405.096,197.886,403.028C192.100,397.061,195.844,388.302,197.840,380.551C201.929,366.981,203.650,357.455,205.982,342.605C208.371,326.712,211.675,309.758,213.081,293.206C213.255,287.242,211.076,272.787,212.034,269.213Z"/>
</g>
<g id="neck">
<path class="path-0" d="M248.530,229.597C248.737,226.259,249.622,223.229,253.265,222.758C264.825,220.322,265.252,257.928,254.614,258.332C244.640,258.710,248.105,235.938,248.530,229.597M252.913,213.450C250.241,213.218,247.274,213.996,244.997,215.414C235.864,220.421,237.521,229.015,237.849,237.659C237.680,241.994,238.164,245.971,236.308,249.703C234.773,253.091,230.242,256.591,230.381,260.249C231.092,270.211,258.022,269.190,264.991,268.592C267.650,268.491,276.664,269.148,277.522,265.454C277.484,264.457,270.395,253.071,269.221,248.455C265.700,234.605,274.228,213.641,252.913,213.450Z"/>
<path class="path-15" d="M253.265,222.758C264.825,220.322,265.252,257.928,254.614,258.332"/>
<path class="path-15" d="M254.614,258.332C244.640,258.710,248.105,235.938,248.530,229.597"/>
<path class="path-15" d="M248.530,229.597C248.737,226.259,249.622,223.229,253.265,222.758"/>
<path class="path-16" d="M253.265,222.758C264.825,220.322,265.252,257.928,254.614,258.332C244.640,258.710,248.105,235.938,248.530,229.597C248.737,226.259,249.622,223.229,253.265,222.758Z"/>
</g>
<g id="layer_head">
<g id="right_ear">
<path class="path-0" d="M168.467,201.780C153.997,202.894,138.213,168.768,159.687,169.646C163.203,169.790,166.225,175.635,166.872,178.238C169.248,187.786,178.802,200.985,168.467,201.780M164.971,157.971C161.613,156.039,157.514,155.442,153.992,157.056C143.174,160.057,137.641,173.017,139.785,184.096C142.319,196.473,156.415,209.927,167.981,211.952C171.035,212.503,177.352,214.478,180.210,212.874C186.769,208.640,179.733,198.521,177.641,192.763C175.545,186.577,169.791,161.968,164.971,157.971Z"/>
<path class="path-15" d="M159.687,169.646C163.203,169.790,166.225,175.635,166.872,178.238"/>
<path class="path-15" d="M166.872,178.238C169.248,187.786,178.802,200.985,168.467,201.780"/>
<path class="path-15" d="M168.467,201.780C153.997,202.894,138.213,168.768,159.687,169.646"/>
<path class="path-16" d="M159.687,169.646C163.203,169.790,166.225,175.635,166.872,178.238C169.248,187.786,178.802,200.985,168.467,201.780C153.997,202.894,138.213,168.768,159.687,169.646Z"/>
</g>
<g id="face_Mask">
<g id="face">
<path class="path-0" d="M182.402,112.755C190.714,102.167,223.359,94.439,236.963,92.216C252.233,89.966,267.905,92.036,282.952,96.443C288.303,98.019,295.989,99.885,300.703,103.469C308.779,109.657,314.035,120.849,317.061,130.144C319.451,136.887,323.712,145.935,321.962,152.465C314.030,182.056,310.246,195.711,304.495,204.042C297.383,214.344,284.253,218.348,272.800,223.131C261.111,227.818,249.195,229.529,243.005,229.265C230.655,228.738,203.985,223.049,194.760,215.639C183.815,206.508,182.441,192.351,177.874,179.486C175.249,172.760,170.881,162.677,169.420,155.755C167.276,144.731,175.560,121.391,182.402,112.755M304.593,95.728C290.777,83.733,254.465,81.527,236.878,84.463C228.576,85.592,220.602,86.383,212.983,88.501C207.351,90.256,202.401,92.997,197.102,94.748C185.529,99.266,180.694,97.907,173.044,108.800C167.547,116.428,159.201,146.267,160.379,155.436C161.383,162.305,169.071,177.431,171.629,185.098C174.949,195.243,177.585,209.870,184.283,217.692C191.771,226.183,201.838,230.528,217.220,234.399C228.569,237.255,241.098,238.036,253.151,238.064C257.694,238.353,266.081,235.637,278.179,230.334C290.158,224.904,303.382,220.283,311.481,208.818C321.092,195.214,324.574,173.140,332.477,150.881C339.065,132.326,313.197,103.036,304.593,95.728Z"/>
<path class="path-15" d="M236.963,92.216C252.233,89.966,267.905,92.036,282.952,96.443"/>
<path class="path-15" d="M282.952,96.443C288.303,98.019,295.989,99.885,300.703,103.469"/>
<path class="path-15" d="M300.703,103.469C308.779,109.657,314.035,120.849,317.061,130.144"/>
<path class="path-15" d="M317.061,130.144C319.451,136.887,323.712,145.935,321.962,152.465"/>
<path class="path-15" d="M321.962,152.465C314.030,182.056,310.246,195.711,304.495,204.042"/>
<path class="path-15" d="M304.495,204.042C297.383,214.344,284.253,218.348,272.800,223.131"/>
<path class="path-15" d="M272.800,223.131C261.111,227.818,249.195,229.529,243.005,229.265"/>
<path class="path-15" d="M243.005,229.265C230.655,228.738,203.985,223.049,194.760,215.639"/>
<path class="path-15" d="M194.760,215.639C183.815,206.508,182.441,192.351,177.874,179.486"/>
<path class="path-15" d="M177.874,179.486C175.249,172.760,170.881,162.677,169.420,155.755"/>
<path class="path-15" d="M169.420,155.755C167.276,144.731,175.560,121.391,182.402,112.755"/>
<path class="path-15" d="M182.402,112.755C190.714,102.167,223.359,94.439,236.963,92.216"/>
<path class="path-16" d="M236.963,92.216C252.233,89.966,267.905,92.036,282.952,96.443C288.303,98.019,295.989,99.885,300.703,103.469C308.779,109.657,314.035,120.849,317.061,130.144C319.451,136.887,323.712,145.935,321.962,152.465C314.030,182.056,310.246,195.711,304.495,204.042C297.383,214.344,284.253,218.348,272.800,223.131C261.111,227.818,249.195,229.529,243.005,229.265C230.655,228.738,203.985,223.049,194.760,215.639C183.815,206.508,182.441,192.351,177.874,179.486C175.249,172.760,170.881,162.677,169.420,155.755C167.276,144.731,175.560,121.391,182.402,112.755C190.714,102.167,223.359,94.439,236.963,92.216Z"/>
</g>
</g>
<mask id="mask_target" style="mask-type:alpha;">
<use xlink:href="#face_Mask"/>
</mask>
<g id="mouse">
<path class="path-0" d="M250.173,220.846C255.394,221.863,255.557,226.614,255.092,227.129C254.829,227.419,253.691,226.487,250.723,226.050C245.103,225.221,242.417,226.438,242.208,225.727C241.978,224.948,244.060,219.655,250.173,220.846Z"/>
</g>
<g id="layer_eyes_Mtarget" mask="url(#mask_target)">
<g id="eyes">
<mask style="mask-type:alpha;" id="f3906406-f197-4bf1-91d8-744c09cca836">
<use xlink:href="#cmn_f3906406-f197-4bf1-91d8-744c09cca836"/>
</mask>
<g id="cmn_f3906406-f197-4bf1-91d8-744c09cca836">
<path class="path-0" d="M227.002,181.155C228.936,193.972,220.695,202.570,207.783,199.427C200.275,197.382,196.803,191.928,194.039,185.285C192.414,181.785,184.579,165.779,190.321,167.558C194.988,169.003,226.302,176.511,227.002,181.155M233.715,184.123C234.576,182.600,235.799,180.306,235.519,178.579C235.206,176.652,233.561,173.604,231.592,173.390C226.246,172.688,207.387,166.819,200.578,164.434C193.808,162.224,180.186,154.335,175.999,161.241C174.392,163.764,178.318,164.401,179.742,168.321C186.533,187.010,192.724,204.475,213.141,205.058C230.815,205.563,229.384,191.790,233.715,184.123M276.595,193.204C269.498,193.191,260.036,187.966,259.898,176.909C259.857,173.577,273.230,168.082,279.211,164.750C285.085,161.478,296.262,154.866,299.344,154.902C302.837,155.362,301.133,158.483,301.341,168.110C301.648,182.382,289.541,193.229,276.595,193.204M307.558,174.326C310.297,162.212,310.423,146.067,308.060,145.065C303.030,142.933,290.512,152.499,283.155,156.038C273.522,160.673,258.255,170.342,251.610,172.609C249.687,173.343,247.950,173.923,247.714,175.328C247.247,178.117,252.548,179.835,254.384,181.985C257.630,185.787,258.756,192.813,264.034,195.570C274.038,201.196,281.466,198.821,292.255,193.681C300.651,189.722,305.630,182.854,307.558,174.326Z"/>
<path class="path-17" d="M299.344,154.902C302.837,155.362,301.133,158.483,301.341,168.110"/>
<path class="path-17" d="M301.341,168.110C301.648,182.382,289.541,193.229,276.595,193.204"/>
<path class="path-17" d="M276.595,193.204C269.498,193.191,260.036,187.966,259.898,176.909"/>
<path class="path-17" d="M259.898,176.909C259.857,173.577,273.230,168.082,279.211,164.750"/>
<path class="path-17" d="M279.211,164.750C285.085,161.478,296.262,154.866,299.344,154.902"/>
<path class="path-18" d="M299.344,154.902C302.837,155.362,301.133,158.483,301.341,168.110C301.648,182.382,289.541,193.229,276.595,193.204C269.498,193.191,260.036,187.966,259.898,176.909C259.857,173.577,273.230,168.082,279.211,164.750C285.085,161.478,296.262,154.866,299.344,154.902Z"/>
<path class="path-17" d="M190.321,167.558C194.988,169.003,226.302,176.511,227.002,181.155"/>
<path class="path-17" d="M227.002,181.155C228.936,193.972,220.695,202.570,207.783,199.427"/>
<path class="path-17" d="M207.783,199.427C200.275,197.382,196.803,191.928,194.039,185.285"/>
<path class="path-17" d="M194.039,185.285C192.414,181.785,184.579,165.779,190.321,167.558"/>
<path class="path-18" d="M190.321,167.558C194.988,169.003,226.302,176.511,227.002,181.155C228.936,193.972,220.695,202.570,207.783,199.427C200.275,197.382,196.803,191.928,194.039,185.285C192.414,181.785,184.579,165.779,190.321,167.558Z"/>
</g>
</g>
<g id="pupil">
<path class="path-0" d="M261.757,171.262C264.022,170.653,267.286,173.744,268.282,182.143C269.032,188.462,267.398,191.088,265.649,191.318C263.753,191.568,262.065,189.004,260.669,182.249C259.180,175.041,259.787,171.792,261.757,171.262Z" mask="url(#f3906406-f197-4bf1-91d8-744c09cca836)"/>
<path class="path-0" d="M197.372,172.504C199.378,172.279,201.019,175.305,202.099,182.749C203.007,189.008,202.484,191.766,200.831,192.150C199.271,192.513,197.123,190.643,195.629,184.864C193.544,176.808,195.153,172.753,197.372,172.504Z" mask="url(#f3906406-f197-4bf1-91d8-744c09cca836)"/>
</g>
</g>
<g id="hat">
<path class="path-0" d="M321.070,128.139C323.092,129.431,326.119,131.715,326.498,134.372C327.937,140.671,316.948,140.199,313.625,140.588C306.977,140.700,300.026,140.620,293.680,140.912C288.596,141.611,283.508,142.263,278.412,142.866C270.122,143.196,261.832,143.101,253.538,143.181C238.929,143.895,224.316,143.702,209.689,143.892C208.392,143.961,169.000,149.200,162.306,145.673C153.548,141.157,162.436,134.324,162.028,129.994C161.965,126.342,153.988,125.480,155.873,119.143C157.762,113.142,178.905,108.796,185.182,107.363C197.432,104.498,209.997,100.635,222.924,98.432C241.141,95.481,260.059,95.513,278.621,93.549C290.979,92.343,319.533,99.811,325.134,112.433C329.990,122.982,313.178,113.305,311.172,112.675C309.763,111.659,304.852,109.639,305.965,112.744C307.102,118.414,316.983,124.869,321.070,128.139M203.083,94.403C192.779,97.129,183.177,99.028,173.230,101.521C168.923,102.589,163.654,105.325,159.620,103.085C150.551,98.292,159.846,75.182,164.066,69.135C178.054,49.611,208.879,40.835,234.120,40.355C279.064,39.501,296.790,46.020,311.997,60.762C316.725,65.014,333.690,86.384,325.135,92.515C321.842,94.564,315.790,90.678,312.775,89.396C302.396,85.239,260.813,79.132,203.083,94.403M260.119,29.365C253.026,29.119,251.300,27.773,243.876,28.555C212.659,32.332,170.490,34.457,152.360,65.018C146.539,75.087,146.712,86.386,144.886,97.054C143.363,105.712,138.489,112.433,139.621,121.049C140.730,128.022,143.757,129.635,146.167,134.926C148.912,140.542,147.610,143.227,149.328,146.862C153.143,157.457,162.792,156.737,172.108,156.501C176.956,156.379,194.837,155.943,204.575,155.606C216.477,155.194,232.342,154.519,244.237,153.944C253.374,153.502,265.556,152.895,274.682,152.284C283.071,151.722,294.258,150.956,302.618,150.071C312.856,148.987,335.468,146.784,336.634,145.519C338.728,143.287,342.234,121.849,342.171,117.864C342.119,114.532,340.402,111.227,340.320,105.896C339.761,91.288,339.214,77.678,330.707,64.188C315.061,39.851,287.343,30.998,260.119,29.365Z"/>
<path class="path-19" d="M278.621,93.549C290.979,92.343,319.533,99.811,325.134,112.433"/>
<path class="path-19" d="M325.134,112.433C329.990,122.982,313.178,113.305,311.172,112.675"/>
<path class="path-19" d="M311.172,112.675C309.763,111.659,304.852,109.639,305.965,112.744"/>
<path class="path-19" d="M305.965,112.744C307.102,118.414,316.983,124.869,321.070,128.139"/>
<path class="path-19" d="M321.070,128.139C323.092,129.431,326.119,131.715,326.498,134.372"/>
<path class="path-19" d="M326.498,134.372C327.937,140.671,316.948,140.199,313.625,140.588"/>
<path class="path-19" d="M313.625,140.588C306.977,140.700,300.026,140.620,293.680,140.912"/>
<path class="path-19" d="M293.680,140.912C288.596,141.611,283.508,142.263,278.412,142.866"/>
<path class="path-19" d="M278.412,142.866C270.122,143.196,261.832,143.101,253.538,143.181"/>
<path class="path-19" d="M253.538,143.181C238.929,143.895,224.316,143.702,209.689,143.892"/>
<path class="path-19" d="M209.689,143.892C208.392,143.961,169.000,149.200,162.306,145.673"/>
<path class="path-19" d="M162.306,145.673C153.548,141.157,162.436,134.324,162.028,129.994"/>
<path class="path-19" d="M162.028,129.994C161.965,126.342,153.988,125.480,155.873,119.143"/>
<path class="path-19" d="M155.873,119.143C157.762,113.142,178.905,108.796,185.182,107.363"/>
<path class="path-19" d="M185.182,107.363C197.432,104.498,209.997,100.635,222.924,98.432"/>
<path class="path-19" d="M222.924,98.432C241.141,95.481,260.059,95.513,278.621,93.549"/>
<path class="path-20" d="M278.621,93.549C290.979,92.343,319.533,99.811,325.134,112.433C329.990,122.982,313.178,113.305,311.172,112.675C309.763,111.659,304.852,109.639,305.965,112.744C307.102,118.414,316.983,124.869,321.070,128.139C323.092,129.431,326.119,131.715,326.498,134.372C327.937,140.671,316.948,140.199,313.625,140.588C306.977,140.700,300.026,140.620,293.680,140.912C288.596,141.611,283.508,142.263,278.412,142.866C270.122,143.196,261.832,143.101,253.538,143.181C238.929,143.895,224.316,143.702,209.689,143.892C208.392,143.961,169.000,149.200,162.306,145.673C153.548,141.157,162.436,134.324,162.028,129.994C161.965,126.342,153.988,125.480,155.873,119.143C157.762,113.142,178.905,108.796,185.182,107.363C197.432,104.498,209.997,100.635,222.924,98.432C241.141,95.481,260.059,95.513,278.621,93.549Z"/>
<path class="path-9" d="M234.120,40.355C279.064,39.501,296.790,46.020,311.997,60.762"/>
<path class="path-9" d="M311.997,60.762C316.725,65.014,333.690,86.384,325.135,92.515"/>
<path class="path-9" d="M325.135,92.515C321.842,94.564,315.790,90.678,312.775,89.396"/>
<path class="path-9" d="M312.775,89.396C302.396,85.239,260.813,79.132,203.083,94.403"/>
<path class="path-9" d="M203.083,94.403C192.779,97.129,183.177,99.028,173.230,101.521"/>
<path class="path-9" d="M173.230,101.521C168.923,102.589,163.654,105.325,159.620,103.085"/>
<path class="path-9" d="M159.620,103.085C150.551,98.292,159.846,75.182,164.066,69.135"/>
<path class="path-9" d="M164.066,69.135C178.054,49.611,208.879,40.835,234.120,40.355"/>
<path class="path-10" d="M234.120,40.355C279.064,39.501,296.790,46.020,311.997,60.762C316.725,65.014,333.690,86.384,325.135,92.515C321.842,94.564,315.790,90.678,312.775,89.396C302.396,85.239,260.813,79.132,203.083,94.403C192.779,97.129,183.177,99.028,173.230,101.521C168.923,102.589,163.654,105.325,159.620,103.085C150.551,98.292,159.846,75.182,164.066,69.135C178.054,49.611,208.879,40.835,234.120,40.355Z"/>
</g>
<g id="left_ear">
<path class="path-0" d="M321.638,192.729C320.456,188.891,329.652,164.414,331.239,162.135C336.066,155.205,347.950,165.414,349.112,171.910C350.390,180.015,338.810,188.277,332.246,193.199C327.423,196.703,323.159,197.668,321.638,192.729M357.583,175.746C358.983,163.043,347.612,146.475,335.316,149.565C322.294,152.837,321.469,170.312,317.679,180.760C316.122,185.431,313.520,190.110,312.971,194.761C311.851,203.081,315.434,210.233,324.663,207.998C337.874,204.654,355.561,190.085,357.583,175.746Z"/>
<path class="path-15" d="M331.239,162.135C336.066,155.205,347.950,165.414,349.112,171.910"/>
<path class="path-15" d="M349.112,171.910C350.390,180.015,338.810,188.277,332.246,193.199"/>
<path class="path-15" d="M332.246,193.199C327.423,196.703,323.159,197.668,321.638,192.729"/>
<path class="path-15" d="M321.638,192.729C320.456,188.891,329.652,164.414,331.239,162.135"/>
<path class="path-16" d="M331.239,162.135C336.066,155.205,347.950,165.414,349.112,171.910C350.390,180.015,338.810,188.277,332.246,193.199C327.423,196.703,323.159,197.668,321.638,192.729C320.456,188.891,329.652,164.414,331.239,162.135Z"/>
</g>
<g id="earrings">
<path class="path-0" d="M342.730,210.128C333.863,213.293,332.035,193.494,335.851,194.057C341.135,196.175,345.216,206.150,342.730,210.128M351.172,202.535C344.262,201.398,341.806,192.886,341.549,188.910C349.179,191.185,358.512,197.662,351.172,202.535M359.031,197.352C356.620,189.683,345.679,184.389,338.109,181.728C335.831,180.927,330.763,189.424,330.432,191.942C329.311,195.833,328.336,218.280,341.794,216.307C347.271,215.256,360.982,203.557,359.031,197.352Z"/>
<path class="path-21" d="M341.549,188.910C349.179,191.185,358.512,197.662,351.172,202.535"/>
<path class="path-21" d="M351.172,202.535C344.262,201.398,341.806,192.886,341.549,188.910"/>
<path class="path-22" d="M341.549,188.910C349.179,191.185,358.512,197.662,351.172,202.535C344.262,201.398,341.806,192.886,341.549,188.910Z"/>
<path class="path-21" d="M335.851,194.057C341.135,196.175,345.216,206.150,342.730,210.128"/>
<path class="path-21" d="M342.730,210.128C333.863,213.293,332.035,193.494,335.851,194.057"/>
<path class="path-22" d="M335.851,194.057C341.135,196.175,345.216,206.150,342.730,210.128C333.863,213.293,332.035,193.494,335.851,194.057Z"/>
</g>
</g>
<g id="left_arm">
<path class="path-0" d="M324.360,467.504C328.412,461.248,335.541,467.470,343.937,471.902C346.232,473.091,357.961,470.575,359.742,472.491C363.018,475.679,358.573,481.984,354.266,483.279C344.185,485.814,319.142,475.750,324.360,467.504M302.094,288.365C302.602,285.089,309.861,274.029,314.989,274.569C317.967,274.883,319.930,279.695,321.225,282.227C324.815,290.187,328.552,298.436,331.742,306.807C340.446,329.017,345.768,351.876,353.097,374.158C355.893,383.484,359.150,395.350,362.474,403.947C365.806,412.274,369.878,410.850,372.108,416.429C373.250,419.500,372.920,425.068,374.994,429.690C378.111,436.959,383.832,440.855,386.571,445.467C388.281,448.100,388.694,450.187,385.348,451.811C383.248,453.710,377.451,456.727,375.161,457.809C367.325,459.245,359.185,461.052,351.343,459.682C342.476,458.519,318.305,449.226,314.023,443.224C306.409,432.144,316.532,419.485,317.796,408.692C318.380,405.703,323.017,362.126,322.243,359.237C321.230,352.562,316.684,347.173,314.375,340.461C311.686,331.237,308.899,321.369,306.442,311.714C304.552,303.639,300.313,297.269,302.094,288.365M325.460,263.659C322.617,259.295,314.398,251.866,308.600,253.868C303.793,255.759,303.814,261.784,303.606,265.827C303.090,275.932,302.054,284.423,303.151,294.008C303.615,300.987,305.011,307.189,306.414,313.726C308.061,322.622,308.304,340.100,309.473,350.350C310.260,359.896,313.049,369.682,312.688,377.959C311.422,397.400,302.931,415.875,303.919,435.243C304.087,445.029,306.736,444.973,309.166,452.759C310.939,458.716,309.706,465.062,312.129,470.677C318.368,485.546,335.896,498.893,352.805,495.282C368.388,492.025,368.769,475.049,376.933,465.927C384.118,457.820,398.821,461.566,400.677,453.215C402.555,446.196,392.407,438.956,389.033,433.447C382.745,423.855,388.931,421.906,386.303,414.499C384.400,409.027,378.630,403.351,374.941,396.722C372.510,393.049,369.574,386.582,367.453,381.902C363.337,371.816,360.020,359.917,357.053,348.948C353.974,336.565,351.568,325.598,346.533,313.150C342.545,302.927,331.035,271.391,325.460,263.659Z"/>
<path class="path-1" d="M314.989,274.569C317.967,274.883,319.930,279.695,321.225,282.227"/>
<path class="path-1" d="M321.225,282.227C324.815,290.187,328.552,298.436,331.742,306.807"/>
<path class="path-1" d="M331.742,306.807C340.446,329.017,345.768,351.876,353.097,374.158"/>
<path class="path-1" d="M353.097,374.158C355.893,383.484,359.150,395.350,362.474,403.947"/>
<path class="path-1" d="M362.474,403.947C365.806,412.274,369.878,410.850,372.108,416.429"/>
<path class="path-1" d="M372.108,416.429C373.250,419.500,372.920,425.068,374.994,429.690"/>
<path class="path-1" d="M374.994,429.690C378.111,436.959,383.832,440.855,386.571,445.467"/>
<path class="path-1" d="M386.571,445.467C388.281,448.100,388.694,450.187,385.348,451.811"/>
<path class="path-1" d="M385.348,451.811C383.248,453.710,377.451,456.727,375.161,457.809"/>
<path class="path-1" d="M375.161,457.809C367.325,459.245,359.185,461.052,351.343,459.682"/>
<path class="path-1" d="M351.343,459.682C342.476,458.519,318.305,449.226,314.023,443.224"/>
<path class="path-1" d="M314.023,443.224C306.409,432.144,316.532,419.485,317.796,408.692"/>
<path class="path-1" d="M317.796,408.692C318.380,405.703,323.017,362.126,322.243,359.237"/>
<path class="path-1" d="M322.243,359.237C321.230,352.562,316.684,347.173,314.375,340.461"/>
<path class="path-1" d="M314.375,340.461C311.686,331.237,308.899,321.369,306.442,311.714"/>
<path class="path-1" d="M306.442,311.714C304.552,303.639,300.313,297.269,302.094,288.365"/>
<path class="path-1" d="M302.094,288.365C302.602,285.089,309.861,274.029,314.989,274.569"/>
<path class="path-2" d="M314.989,274.569C317.967,274.883,319.930,279.695,321.225,282.227C324.815,290.187,328.552,298.436,331.742,306.807C340.446,329.017,345.768,351.876,353.097,374.158C355.893,383.484,359.150,395.350,362.474,403.947C365.806,412.274,369.878,410.850,372.108,416.429C373.250,419.500,372.920,425.068,374.994,429.690C378.111,436.959,383.832,440.855,386.571,445.467C388.281,448.100,388.694,450.187,385.348,451.811C383.248,453.710,377.451,456.727,375.161,457.809C367.325,459.245,359.185,461.052,351.343,459.682C342.476,458.519,318.305,449.226,314.023,443.224C306.409,432.144,316.532,419.485,317.796,408.692C318.380,405.703,323.017,362.126,322.243,359.237C321.230,352.562,316.684,347.173,314.375,340.461C311.686,331.237,308.899,321.369,306.442,311.714C304.552,303.639,300.313,297.269,302.094,288.365C302.602,285.089,309.861,274.029,314.989,274.569Z"/>
<path class="path-15" d="M343.937,471.902C346.232,473.091,357.961,470.575,359.742,472.491"/>
<path class="path-15" d="M359.742,472.491C363.018,475.679,358.573,481.984,354.266,483.279"/>
<path class="path-15" d="M354.266,483.279C344.185,485.814,319.142,475.750,324.360,467.504"/>
<path class="path-15" d="M324.360,467.504C328.412,461.248,335.541,467.470,343.937,471.902"/>
<path class="path-16" d="M343.937,471.902C346.232,473.091,357.961,470.575,359.742,472.491C363.018,475.679,358.573,481.984,354.266,483.279C344.185,485.814,319.142,475.750,324.360,467.504C328.412,461.248,335.541,467.470,343.937,471.902Z"/>
</g>
<g id="bone">
<g id="bone_B20">
<path class="path-23" d="M240.881,140.283C238.691,128.508,236.501,116.732,234.312,104.957"/>
</g>
<g id="bone_">
<path class="path-23" d="M552.381,338.786C553.955,314.856,555.529,290.926,557.102,266.996"/>
</g>
<g id="bone_">
<path class="path-23" d="M496.479,337.308C496.479,313.696,496.479,290.084,496.479,266.472"/>
</g>
<g id="bone_">
<path class="path-23" d="M436.410,337.308C458.531,329.049,480.651,320.789,502.772,312.530"/>
</g>
<g id="bone_">
<path class="path-23" d="M604.616,215.385C623.204,229.945,641.793,244.505,660.381,259.065"/>
</g>
<g id="bone_">
<path class="path-23" d="M436.410,216.411C449.494,236.066,462.577,255.722,475.660,275.378"/>
</g>
<g id="bone_">
<path class="path-23" d="M551.282,215.385C528.239,210.233,505.196,205.081,482.153,199.929"/>
</g>
<g id="bone_">
<path class="path-23" d="M495.897,216.411C491.808,239.666,487.718,262.921,483.629,286.176"/>
</g>
<g id="bone_B18">
<path class="path-23" d="M225.625,393.231C218.505,424.837,211.384,456.442,204.263,488.048"/>
</g>
<g id="bone_B17">
<path class="path-23" d="M271.780,393.231C273.946,426.536,276.113,459.840,278.280,493.145"/>
</g>
<g id="bone_B16">
<path class="path-23" d="M245.565,165.473C251.353,189.752,257.140,214.031,262.928,238.311"/>
</g>
<g id="bone_B14">
<path class="path-23" d="M151.862,378.619C159.255,396.269,166.648,413.920,174.042,431.570"/>
</g>
<g id="bone_B13">
<path class="path-23" d="M197.557,274.507C182.325,309.211,167.094,343.915,151.862,378.619"/>
</g>
<g id="bone_B11">
<path class="path-23" d="M336.786,357.160C339.547,378.997,342.308,400.834,345.069,422.671"/>
</g>
<g id="bone_B9">
<path class="path-23" d="M311.114,268.221C319.671,297.867,328.229,327.513,336.786,357.160"/>
</g>
<g id="bone_B5">
<path class="path-23" d="M255.524,219.026C250.643,192.778,245.762,166.531,240.881,140.283"/>
</g>
<g id="bone_B4">
<path class="path-23" d="M255.067,261.124C255.219,247.092,255.371,233.059,255.524,219.026"/>
</g>
<g id="bone_B3">
<path class="path-23" d="M254.995,334.126C255.019,309.792,255.043,285.458,255.067,261.124"/>
</g>
<g id="bone_B2">
<path class="path-23" d="M248.189,393.231C250.458,373.529,252.727,353.827,254.995,334.126"/>
</g>
<g id="bone_B1">
<path class="path-23" d="M248.189,393.231C260.166,393.231,272.144,393.231,284.121,393.231"/>
</g>
</g>
<g id="jacket">
<path class="path-0" d="M223.000,274.773C224.908,279.510,219.594,289.097,218.693,293.692C213.076,311.173,205.273,327.935,205.310,345.869C205.466,350.735,207.833,360.987,203.523,364.659C201.210,366.629,194.798,363.217,193.406,365.068C191.178,368.005,186.249,358.685,185.349,356.891C184.561,355.320,183.573,347.823,183.610,345.654C183.983,340.992,185.188,331.906,186.804,326.233C188.517,320.389,190.644,314.476,193.643,308.468C196.167,302.205,199.080,294.686,201.082,287.425C203.304,283.013,206.463,280.672,206.382,277.181C205.937,273.341,204.957,271.252,208.468,270.068C212.788,268.945,222.310,269.681,223.000,274.773M284.169,283.034C285.851,281.479,302.229,274.902,304.050,273.740C315.399,267.238,324.358,276.860,324.896,284.540C325.353,290.038,318.187,308.392,316.946,312.153C315.189,316.594,313.090,319.631,312.342,323.659C308.390,340.375,313.902,330.094,314.978,344.709C315.217,348.057,315.644,355.100,315.414,358.383C314.920,362.185,313.199,370.563,311.512,373.738C309.333,377.089,304.720,382.348,300.058,378.781C299.533,378.472,295.345,373.935,294.409,373.468C288.146,369.910,279.324,370.977,274.760,364.724C271.356,359.485,270.255,352.225,269.415,345.582C268.092,336.346,270.283,327.094,272.116,317.907C273.673,307.914,277.152,291.040,284.169,283.034M298.670,265.730C295.692,267.561,289.307,268.424,287.421,268.770C282.827,269.360,282.389,265.144,282.242,261.895C282.199,257.292,285.548,250.837,288.979,247.542C291.740,244.891,296.456,242.336,300.657,242.405C304.959,242.322,311.941,246.312,311.023,251.123C310.636,254.183,303.559,262.724,298.670,265.730M224.529,245.522C228.972,253.770,233.992,262.203,228.806,262.273C223.219,262.348,220.369,261.931,211.460,258.902C200.693,255.242,197.683,239.827,203.486,234.968C208.901,230.435,219.350,235.904,224.529,245.522M315.862,387.131C321.050,377.542,327.219,371.999,329.064,360.767C329.994,354.731,329.973,347.456,328.164,341.655C324.969,332.265,321.065,329.257,319.224,318.185C317.494,308.793,321.470,301.312,321.586,292.148C321.494,289.059,314.677,274.300,315.111,271.514C315.125,266.647,320.902,263.523,322.043,259.191C323.163,255.437,324.424,251.452,323.986,247.559C323.685,242.105,318.890,238.408,315.104,235.243C309.694,231.238,304.483,230.478,297.613,230.923C288.059,231.554,282.410,240.127,278.360,246.314C272.558,255.180,272.910,270.441,270.022,280.635C268.380,286.431,265.697,294.380,263.898,299.758C257.540,317.817,250.137,362.822,262.741,377.400C264.264,379.410,277.301,387.615,281.709,389.439C288.148,392.143,290.267,395.537,296.806,397.364C300.629,398.594,308.198,394.452,312.292,391.341C313.578,390.429,315.312,388.146,315.862,387.131M232.207,237.708C227.474,231.170,219.343,219.850,211.147,220.964C206.572,221.737,199.905,224.252,196.322,227.544C193.164,230.445,189.544,235.675,189.332,240.013C188.936,245.560,189.098,252.175,190.929,256.934C192.892,262.031,200.916,266.185,201.871,271.485C202.230,273.843,197.013,284.541,196.259,287.398C194.578,294.565,191.548,301.632,188.848,307.449C186.068,313.439,180.537,320.506,177.998,326.603C175.221,333.270,171.974,341.932,171.538,349.794C171.075,354.010,172.912,363.645,175.737,368.733C177.553,372.005,182.148,376.683,184.427,377.682C185.888,378.323,200.980,382.781,206.299,378.921C213.857,373.437,213.117,362.921,212.439,348.406C211.700,334.555,221.897,323.927,225.950,310.495C228.439,302.024,236.336,280.106,237.154,271.868C237.725,266.112,239.815,262.335,238.743,254.261C238.063,250.092,235.338,242.032,232.207,237.708Z"/>
<path class="path-1" d="M304.050,273.740C315.399,267.238,324.358,276.860,324.896,284.540"/>
<path class="path-1" d="M324.896,284.540C325.353,290.038,318.187,308.392,316.946,312.153"/>
<path class="path-1" d="M316.946,312.153C315.189,316.594,313.090,319.631,312.342,323.659"/>
<path class="path-1" d="M312.342,323.659C308.390,340.375,313.902,330.094,314.978,344.709"/>
<path class="path-1" d="M314.978,344.709C315.217,348.057,315.644,355.100,315.414,358.383"/>
<path class="path-1" d="M315.414,358.383C314.920,362.185,313.199,370.563,311.512,373.738"/>
<path class="path-1" d="M311.512,373.738C309.333,377.089,304.720,382.348,300.058,378.781"/>
<path class="path-1" d="M300.058,378.781C299.533,378.472,295.345,373.935,294.409,373.468"/>
<path class="path-1" d="M294.409,373.468C288.146,369.910,279.324,370.977,274.760,364.724"/>
<path class="path-1" d="M274.760,364.724C271.356,359.485,270.255,352.225,269.415,345.582"/>
<path class="path-1" d="M269.415,345.582C268.092,336.346,270.283,327.094,272.116,317.907"/>
<path class="path-1" d="M272.116,317.907C273.673,307.914,277.152,291.040,284.169,283.034"/>
<path class="path-1" d="M284.169,283.034C285.851,281.479,302.229,274.902,304.050,273.740"/>
<path class="path-2" d="M304.050,273.740C315.399,267.238,324.358,276.860,324.896,284.540C325.353,290.038,318.187,308.392,316.946,312.153C315.189,316.594,313.090,319.631,312.342,323.659C308.390,340.375,313.902,330.094,314.978,344.709C315.217,348.057,315.644,355.100,315.414,358.383C314.920,362.185,313.199,370.563,311.512,373.738C309.333,377.089,304.720,382.348,300.058,378.781C299.533,378.472,295.345,373.935,294.409,373.468C288.146,369.910,279.324,370.977,274.760,364.724C271.356,359.485,270.255,352.225,269.415,345.582C268.092,336.346,270.283,327.094,272.116,317.907C273.673,307.914,277.152,291.040,284.169,283.034C285.851,281.479,302.229,274.902,304.050,273.740Z"/>
<path class="path-1" d="M208.468,270.068C212.788,268.945,222.310,269.681,223.000,274.773"/>
<path class="path-1" d="M223.000,274.773C224.908,279.510,219.594,289.097,218.693,293.692"/>
<path class="path-1" d="M218.693,293.692C213.076,311.173,205.273,327.935,205.310,345.869"/>
<path class="path-1" d="M205.310,345.869C205.466,350.735,207.833,360.987,203.523,364.659"/>
<path class="path-1" d="M203.523,364.659C201.210,366.629,194.798,363.217,193.406,365.068"/>
<path class="path-1" d="M193.406,365.068C191.178,368.005,186.249,358.685,185.349,356.891"/>
<path class="path-1" d="M185.349,356.891C184.561,355.320,183.573,347.823,183.610,345.654"/>
<path class="path-1" d="M183.610,345.654C183.983,340.992,185.188,331.906,186.804,326.233"/>
<path class="path-1" d="M186.804,326.233C188.517,320.389,190.644,314.476,193.643,308.468"/>
<path class="path-1" d="M193.643,308.468C196.167,302.205,199.080,294.686,201.082,287.425"/>
<path class="path-1" d="M201.082,287.425C203.304,283.013,206.463,280.672,206.382,277.181"/>
<path class="path-1" d="M206.382,277.181C205.937,273.341,204.957,271.252,208.468,270.068"/>
<path class="path-2" d="M208.468,270.068C212.788,268.945,222.310,269.681,223.000,274.773C224.908,279.510,219.594,289.097,218.693,293.692C213.076,311.173,205.273,327.935,205.310,345.869C205.466,350.735,207.833,360.987,203.523,364.659C201.210,366.629,194.798,363.217,193.406,365.068C191.178,368.005,186.249,358.685,185.349,356.891C184.561,355.320,183.573,347.823,183.610,345.654C183.983,340.992,185.188,331.906,186.804,326.233C188.517,320.389,190.644,314.476,193.643,308.468C196.167,302.205,199.080,294.686,201.082,287.425C203.304,283.013,206.463,280.672,206.382,277.181C205.937,273.341,204.957,271.252,208.468,270.068Z"/>
<path class="path-1" d="M300.657,242.405C304.959,242.322,311.941,246.312,311.023,251.123"/>
<path class="path-1" d="M311.023,251.123C310.636,254.183,303.559,262.724,298.670,265.730"/>
<path class="path-1" d="M298.670,265.730C295.692,267.561,289.307,268.424,287.421,268.770"/>
<path class="path-1" d="M287.421,268.770C282.827,269.360,282.389,265.144,282.242,261.895"/>
<path class="path-1" d="M282.242,261.895C282.199,257.292,285.548,250.837,288.979,247.542"/>
<path class="path-1" d="M288.979,247.542C291.740,244.891,296.456,242.336,300.657,242.405"/>
<path class="path-2" d="M300.657,242.405C304.959,242.322,311.941,246.312,311.023,251.123C310.636,254.183,303.559,262.724,298.670,265.730C295.692,267.561,289.307,268.424,287.421,268.770C282.827,269.360,282.389,265.144,282.242,261.895C282.199,257.292,285.548,250.837,288.979,247.542C291.740,244.891,296.456,242.336,300.657,242.405Z"/>
<path class="path-1" d="M224.529,245.522C228.972,253.770,233.992,262.203,228.806,262.273"/>
<path class="path-1" d="M228.806,262.273C223.219,262.348,220.369,261.931,211.460,258.902"/>
<path class="path-1" d="M211.460,258.902C200.693,255.242,197.683,239.827,203.486,234.968"/>
<path class="path-1" d="M203.486,234.968C208.901,230.435,219.350,235.904,224.529,245.522"/>
<path class="path-2" d="M224.529,245.522C228.972,253.770,233.992,262.203,228.806,262.273C223.219,262.348,220.369,261.931,211.460,258.902C200.693,255.242,197.683,239.827,203.486,234.968C208.901,230.435,219.350,235.904,224.529,245.522Z"/>
</g>
</g>
<style>
.path-0{fill:#000000;fill-rule:evenodd;stroke:none;}
.path-1{fill:none;stroke:#a60d3f;stroke-width:1;stroke-linecap:butt;stroke-linejoin:round;}
.path-2{fill:#a60d3f;fill-rule:evenodd;stroke:none;}
.path-3{fill:none;stroke:#d88e4b;stroke-width:1;stroke-linecap:butt;stroke-linejoin:round;}
.path-4{fill:#d88e4b;fill-rule:evenodd;stroke:none;}
.path-5{fill:none;stroke:#6e2353;stroke-width:1;stroke-linecap:butt;stroke-linejoin:round;}
.path-6{fill:#6e2353;fill-rule:evenodd;stroke:none;}
.path-7{fill:none;stroke:#392966;stroke-width:1;stroke-linecap:butt;stroke-linejoin:round;}
.path-8{fill:#392966;fill-rule:evenodd;stroke:none;}
.path-9{fill:none;stroke:#cc9bc5;stroke-width:1;stroke-linecap:butt;stroke-linejoin:round;}
.path-10{fill:#cc9bc5;fill-rule:evenodd;stroke:none;}
.path-11{fill:none;stroke:#620527;stroke-width:1;stroke-linecap:butt;stroke-linejoin:round;}
.path-12{fill:#620527;fill-rule:evenodd;stroke:none;}
.path-13{fill:none;stroke:#6a3661;stroke-width:1;stroke-linecap:butt;stroke-linejoin:round;}
.path-14{fill:#6a3661;fill-rule:evenodd;stroke:none;}
.path-15{fill:none;stroke:#f8a087;stroke-width:1;stroke-linecap:butt;stroke-linejoin:round;}
.path-16{fill:#f8a087;fill-rule:evenodd;stroke:none;}
.path-17{fill:none;stroke:#ffffff;stroke-width:1;stroke-linecap:butt;stroke-linejoin:round;}
.path-18{fill:#ffffff;fill-rule:evenodd;stroke:none;}
.path-19{fill:none;stroke:#d89f4a;stroke-width:1;stroke-linecap:butt;stroke-linejoin:round;}
.path-20{fill:#d89f4a;fill-rule:evenodd;stroke:none;}
.path-21{fill:none;stroke:#fafd5b;stroke-width:1;stroke-linecap:butt;stroke-linejoin:round;}
.path-22{fill:#fafd5b;fill-rule:evenodd;stroke:none;}
.path-23{fill:none;stroke:#00ff00;stroke-width:8;stroke-linecap:round;stroke-linejoin:round;}
.path-24{fill:none;stroke:#fafafa;stroke-width:1;stroke-linecap:butt;stroke-linejoin:round;}
.path-25{fill:#fafafa;fill-rule:evenodd;stroke:none;}
.path-26{fill:none;stroke:#ececec;stroke-width:1;stroke-linecap:butt;stroke-linejoin:round;}
.path-27{fill:#ececec;fill-rule:evenodd;stroke:none;}
.path-28{fill:none;stroke:#d7d7d7;stroke-width:1;stroke-linecap:butt;stroke-linejoin:round;}
.path-29{fill:#d7d7d7;fill-rule:evenodd;stroke:none;}
.path-30{fill:none;stroke:#bdbdbd;stroke-width:1;stroke-linecap:butt;stroke-linejoin:round;}
.path-31{fill:#bdbdbd;fill-rule:evenodd;stroke:none;}
.path-32{fill:none;stroke:#9f9f9f;stroke-width:1;stroke-linecap:butt;stroke-linejoin:round;}
.path-33{fill:#9f9f9f;fill-rule:evenodd;stroke:none;}
.path-34{fill:none;stroke:#808080;stroke-width:1;stroke-linecap:butt;stroke-linejoin:round;}
.path-35{fill:#808080;fill-rule:evenodd;stroke:none;}
.path-36{fill:none;stroke:#606060;stroke-width:1;stroke-linecap:butt;stroke-linejoin:round;}
.path-37{fill:#606060;fill-rule:evenodd;stroke:none;}
.path-38{fill:none;stroke:#424242;stroke-width:1;stroke-linecap:butt;stroke-linejoin:round;}
.path-39{fill:#424242;fill-rule:evenodd;stroke:none;}
.path-40{fill:none;stroke:#282828;stroke-width:1;stroke-linecap:butt;stroke-linejoin:round;}
.path-41{fill:#282828;fill-rule:evenodd;stroke:none;}
.path-42{fill:none;stroke:#131313;stroke-width:1;stroke-linecap:butt;stroke-linejoin:round;}
.path-43{fill:#131313;fill-rule:evenodd;stroke:none;}
.path-44{fill:none;stroke:#050505;stroke-width:1;stroke-linecap:butt;stroke-linejoin:round;}
.path-45{fill:#050505;fill-rule:evenodd;stroke:none;}
.path-46{fill:none;stroke:#000000;stroke-width:1;stroke-linecap:butt;stroke-linejoin:round;}
</style>
</svg>
