<svg version="1.1" id="Frame_3" xmlns="http://www.w3.org/2000/svg" xmlns:xlink="http://www.w3.org/1999/xlink" width="480px" height="720px">
<g id="main_bone">
<g id="right_arm">
<path class="path-0" d="M168.878,271.844C170.253,269.183,172.948,263.694,176.686,262.216C183.081,259.687,188.545,265.604,189.289,270.166C190.892,278.096,185.455,288.932,182.921,296.782C176.678,315.722,169.819,334.415,165.523,353.350C165.026,356.654,160.716,378.049,160.659,375.392C160.470,382.045,167.240,387.552,169.697,393.148C172.860,400.713,170.318,408.059,168.560,415.094C164.430,429.751,164.961,435.052,165.103,449.250C165.233,451.530,165.433,459.004,161.852,459.283C158.492,459.544,157.696,453.507,156.862,451.197C156.347,448.559,153.650,443.040,154.191,440.674C154.304,436.679,158.956,437.511,153.678,429.401C146.976,419.313,135.199,411.220,131.889,397.971C129.644,387.382,135.046,377.928,137.882,367.907C143.883,346.476,150.588,325.036,158.019,303.735C162.076,292.733,163.386,283.128,168.878,271.844M188.684,263.872C188.749,255.267,185.760,247.697,175.143,251.264C158.351,256.839,153.188,283.125,148.443,297.848C141.685,317.872,136.087,337.956,130.690,358.083C128.483,366.764,125.316,371.176,124.093,376.193C122.555,381.880,123.070,390.519,123.535,396.161C123.948,413.815,129.490,414.431,136.990,427.822C140.967,435.707,137.245,440.882,139.959,447.770C141.909,452.417,145.823,455.598,148.811,459.467C151.457,463.350,152.034,465.651,153.998,469.233C156.364,473.489,163.510,482.940,169.106,480.439C173.531,478.443,172.867,470.310,172.907,466.377C172.805,460.477,174.825,437.683,175.807,430.754C177.584,419.411,183.017,407.059,181.049,394.868C179.484,385.605,171.041,379.148,171.169,369.180C171.391,363.861,174.519,355.164,175.444,349.176C176.983,339.566,176.918,329.306,178.945,319.391C182.334,301.849,189.211,282.097,188.684,263.872Z"/>
<path class="path-1" d="M176.686,262.216C183.081,259.687,188.545,265.604,189.289,270.166"/>
<path class="path-1" d="M189.289,270.166C190.892,278.096,185.455,288.932,182.921,296.782"/>
<path class="path-1" d="M182.921,296.782C176.678,315.722,169.819,334.415,165.523,353.350"/>
<path class="path-1" d="M165.523,353.350C165.026,356.654,160.716,378.049,160.659,375.392"/>
<path class="path-1" d="M160.659,375.392C160.470,382.045,167.240,387.552,169.697,393.148"/>
<path class="path-1" d="M169.697,393.148C172.860,400.713,170.318,408.059,168.560,415.094"/>
<path class="path-1" d="M168.560,415.094C164.430,429.751,164.961,435.052,165.103,449.250"/>
<path class="path-1" d="M165.103,449.250C165.233,451.530,165.433,459.004,161.852,459.283"/>
<path class="path-1" d="M161.852,459.283C158.492,459.544,157.696,453.507,156.862,451.197"/>
<path class="path-1" d="M156.862,451.197C156.347,448.559,153.650,443.040,154.191,440.674"/>
<path class="path-1" d="M154.191,440.674C154.304,436.679,158.956,437.511,153.678,429.401"/>
<path class="path-1" d="M153.678,429.401C146.976,419.313,135.199,411.220,131.889,397.971"/>
<path class="path-1" d="M131.889,397.971C129.644,387.382,135.046,377.928,137.882,367.907"/>
<path class="path-1" d="M137.882,367.907C143.883,346.476,150.588,325.036,158.019,303.735"/>
<path class="path-1" d="M158.019,303.735C162.076,292.733,163.386,283.128,168.878,271.844"/>
<path class="path-1" d="M168.878,271.844C170.253,269.183,172.948,263.694,176.686,262.216"/>
<path class="path-2" d="M176.686,262.216C183.081,259.687,188.545,265.604,189.289,270.166C190.892,278.096,185.455,288.932,182.921,296.782C176.678,315.722,169.819,334.415,165.523,353.350C165.026,356.654,160.716,378.049,160.659,375.392C160.470,382.045,167.240,387.552,169.697,393.148C172.860,400.713,170.318,408.059,168.560,415.094C164.430,429.751,164.961,435.052,165.103,449.250C165.233,451.530,165.433,459.004,161.852,459.283C158.492,459.544,157.696,453.507,156.862,451.197C156.347,448.559,153.650,443.040,154.191,440.674C154.304,436.679,158.956,437.511,153.678,429.401C146.976,419.313,135.199,411.220,131.889,397.971C129.644,387.382,135.046,377.928,137.882,367.907C143.883,346.476,150.588,325.036,158.019,303.735C162.076,292.733,163.386,283.128,168.878,271.844C170.253,269.183,172.948,263.694,176.686,262.216Z"/>
</g>
<g id="layer_left_leg">
<g id="left_heel">
<path class="path-0" d="M244.407,544.109C235.980,534.196,249.582,511.501,260.441,509.308C274.329,506.290,280.096,530.468,278.667,535.548C276.646,541.953,267.915,546.096,262.326,547.330C257.830,548.168,247.158,547.542,244.407,544.109M282.980,507.621C277.018,500.603,262.109,500.884,254.304,503.933C225.382,514.346,224.342,570.499,264.855,556.863C272.042,554.497,286.595,547.952,289.584,540.920C292.645,535.153,290.328,528.954,288.722,523.065C287.167,518.458,286.168,511.485,282.980,507.621Z"/>
<path class="path-3" d="M260.441,509.308C274.329,506.290,280.096,530.468,278.667,535.548"/>
<path class="path-3" d="M278.667,535.548C276.646,541.953,267.915,546.096,262.326,547.330"/>
<path class="path-3" d="M262.326,547.330C257.830,548.168,247.158,547.542,244.407,544.109"/>
<path class="path-3" d="M244.407,544.109C235.980,534.196,249.582,511.501,260.441,509.308"/>
<path class="path-4" d="M260.441,509.308C274.329,506.290,280.096,530.468,278.667,535.548C276.646,541.953,267.915,546.096,262.326,547.330C257.830,548.168,247.158,547.542,244.407,544.109C235.980,534.196,249.582,511.501,260.441,509.308Z"/>
</g>
<g id="left_sole">
<path class="path-0" d="M260.654,571.023C251.995,570.712,251.952,556.758,248.081,563.081C245.775,566.848,256.712,569.102,259.971,570.485C267.472,574.152,276.684,574.683,283.504,572.877C286.748,572.292,297.054,571.278,296.947,571.518C296.395,572.745,281.400,574.725,276.367,573.874C274.542,573.764,261.178,571.001,260.654,571.023M252.691,558.250C255.664,558.242,261.257,561.932,262.882,563.677C268.189,569.377,282.151,569.425,289.897,566.428C290.874,566.077,291.286,563.596,296.582,562.174C299.701,561.337,282.365,568.748,277.621,567.474C268.827,566.518,249.423,558.259,252.691,558.250M292.728,552.849C290.761,552.179,276.310,544.916,265.411,544.506C257.854,544.261,240.311,552.676,239.905,562.586C239.750,566.593,246.664,576.323,250.007,578.390C261.853,586.316,290.956,578.639,296.267,575.763C298.459,574.576,305.675,557.260,292.728,552.849Z"/>
<path class="path-5" d="M248.081,563.081C245.775,566.848,256.712,569.102,259.971,570.485"/>
<path class="path-5" d="M259.971,570.485C267.472,574.152,276.684,574.683,283.504,572.877"/>
<path class="path-5" d="M283.504,572.877C286.748,572.292,297.054,571.278,296.947,571.518"/>
<path class="path-5" d="M296.947,571.518C296.395,572.745,281.400,574.725,276.367,573.874"/>
<path class="path-5" d="M276.367,573.874C274.542,573.764,261.178,571.001,260.654,571.023"/>
<path class="path-5" d="M260.654,571.023C251.995,570.712,251.952,556.758,248.081,563.081"/>
<path class="path-6" d="M248.081,563.081C245.775,566.848,256.712,569.102,259.971,570.485C267.472,574.152,276.684,574.683,283.504,572.877C286.748,572.292,297.054,571.278,296.947,571.518C296.395,572.745,281.400,574.725,276.367,573.874C274.542,573.764,261.178,571.001,260.654,571.023C251.995,570.712,251.952,556.758,248.081,563.081Z"/>
<path class="path-5" d="M262.882,563.677C268.189,569.377,282.151,569.425,289.897,566.428"/>
<path class="path-5" d="M289.897,566.428C290.874,566.077,291.286,563.596,296.582,562.174"/>
<path class="path-5" d="M296.582,562.174C299.701,561.337,282.365,568.748,277.621,567.474"/>
<path class="path-5" d="M277.621,567.474C268.827,566.518,249.423,558.259,252.691,558.250"/>
<path class="path-5" d="M252.691,558.250C255.664,558.242,261.257,561.932,262.882,563.677"/>
<path class="path-6" d="M262.882,563.677C268.189,569.377,282.151,569.425,289.897,566.428C290.874,566.077,291.286,563.596,296.582,562.174C299.701,561.337,282.365,568.748,277.621,567.474C268.827,566.518,249.423,558.259,252.691,558.250C255.664,558.242,261.257,561.932,262.882,563.677Z"/>
</g>
<g id="left_toe">
<path class="path-0" d="M262.795,586.291C232.281,584.475,243.446,538.973,268.832,540.630C281.847,541.651,286.613,551.958,289.491,562.083C291.215,566.846,292.215,571.238,290.118,575.978C285.849,583.800,270.757,586.675,262.795,586.291M291.665,539.767C284.058,533.716,266.924,532.577,257.793,534.430C234.344,539.413,234.966,557.438,236.445,576.581C236.663,581.563,236.911,586.211,240.093,590.052C247.122,598.020,271.390,598.217,281.234,595.727C288.401,593.379,297.123,588.943,300.356,581.479C304.376,572.565,299.016,545.877,291.665,539.767Z"/>
<path class="path-3" d="M268.832,540.630C281.847,541.651,286.613,551.958,289.491,562.083"/>
<path class="path-3" d="M289.491,562.083C291.215,566.846,292.215,571.238,290.118,575.978"/>
<path class="path-3" d="M290.118,575.978C285.849,583.800,270.757,586.675,262.795,586.291"/>
<path class="path-3" d="M262.795,586.291C232.281,584.475,243.446,538.973,268.832,540.630"/>
<path class="path-4" d="M268.832,540.630C281.847,541.651,286.613,551.958,289.491,562.083C291.215,566.846,292.215,571.238,290.118,575.978C285.849,583.800,270.757,586.675,262.795,586.291C232.281,584.475,243.446,538.973,268.832,540.630Z"/>
</g>
<g id="left_leg">
<path class="path-0" d="M231.869,415.509C230.065,409.306,244.813,408.105,249.777,406.982C254.763,406.105,266.114,405.686,270.337,408.655C284.020,417.605,288.466,462.882,289.103,478.598C289.272,492.839,291.379,506.198,290.634,519.932C290.146,526.164,289.127,532.563,287.847,538.557C286.997,543.541,281.849,550.272,285.362,553.495C286.826,555.407,289.906,553.826,292.127,554.048C295.549,554.608,295.719,551.991,298.048,552.801C307.535,556.430,289.631,576.751,280.864,579.615C273.496,582.297,257.420,580.380,251.823,575.042C249.991,573.295,248.106,571.052,246.847,568.913C231.459,541.485,241.889,492.236,245.490,465.440C246.709,456.373,254.103,475.231,259.329,471.902C267.164,466.858,248.265,435.246,242.425,427.813C239.477,424.623,232.831,419.643,231.869,415.509M279.478,397.933C273.224,393.520,256.251,395.806,249.311,397.345C242.737,398.777,220.100,399.422,217.350,404.551C212.767,413.101,227.617,425.945,230.726,433.217C232.122,437.196,230.331,457.543,230.222,463.219C230.723,475.802,229.982,486.605,230.112,499.197C230.043,523.594,221.132,547.810,228.771,570.627C235.072,589.015,250.349,599.470,273.166,594.332C293.931,589.992,301.725,587.325,308.599,565.439C312.574,553.321,311.499,551.425,308.867,540.809C307.674,536.074,303.774,532.115,302.400,527.065C296.574,508.253,301.427,487.699,298.709,468.079C296.383,451.179,294.171,408.348,279.478,397.933Z"/>
<path class="path-7" d="M249.777,406.982C254.763,406.105,266.114,405.686,270.337,408.655"/>
<path class="path-7" d="M270.337,408.655C284.020,417.605,288.466,462.882,289.103,478.598"/>
<path class="path-7" d="M289.103,478.598C289.272,492.839,291.379,506.198,290.634,519.932"/>
<path class="path-7" d="M290.634,519.932C290.146,526.164,289.127,532.563,287.847,538.557"/>
<path class="path-7" d="M287.847,538.557C286.997,543.541,281.849,550.272,285.362,553.495"/>
<path class="path-7" d="M285.362,553.495C286.826,555.407,289.906,553.826,292.127,554.048"/>
<path class="path-7" d="M292.127,554.048C295.549,554.608,295.719,551.991,298.048,552.801"/>
<path class="path-7" d="M298.048,552.801C307.535,556.430,289.631,576.751,280.864,579.615"/>
<path class="path-7" d="M280.864,579.615C273.496,582.297,257.420,580.380,251.823,575.042"/>
<path class="path-7" d="M251.823,575.042C249.991,573.295,248.106,571.052,246.847,568.913"/>
<path class="path-7" d="M246.847,568.913C231.459,541.485,241.889,492.236,245.490,465.440"/>
<path class="path-7" d="M245.490,465.440C246.709,456.373,254.103,475.231,259.329,471.902"/>
<path class="path-7" d="M259.329,471.902C267.164,466.858,248.265,435.246,242.425,427.813"/>
<path class="path-7" d="M242.425,427.813C239.477,424.623,232.831,419.643,231.869,415.509"/>
<path class="path-7" d="M231.869,415.509C230.065,409.306,244.813,408.105,249.777,406.982"/>
<path class="path-8" d="M249.777,406.982C254.763,406.105,266.114,405.686,270.337,408.655C284.020,417.605,288.466,462.882,289.103,478.598C289.272,492.839,291.379,506.198,290.634,519.932C290.146,526.164,289.127,532.563,287.847,538.557C286.997,543.541,281.849,550.272,285.362,553.495C286.826,555.407,289.906,553.826,292.127,554.048C295.549,554.608,295.719,551.991,298.048,552.801C307.535,556.430,289.631,576.751,280.864,579.615C273.496,582.297,257.420,580.380,251.823,575.042C249.991,573.295,248.106,571.052,246.847,568.913C231.459,541.485,241.889,492.236,245.490,465.440C246.709,456.373,254.103,475.231,259.329,471.902C267.164,466.858,248.265,435.246,242.425,427.813C239.477,424.623,232.831,419.643,231.869,415.509C230.065,409.306,244.813,408.105,249.777,406.982Z"/>
</g>
</g>
<g id="layer_right_leg">
<g id="right_heel">
<path class="path-0" d="M195.129,654.168C196.415,635.204,195.641,620.323,218.603,615.793C228.762,613.598,248.436,615.885,254.576,625.505C257.813,630.309,257.206,637.635,257.814,642.909C258.957,652.112,265.792,668.972,253.076,672.596C252.110,672.975,224.699,676.696,216.237,678.404C210.911,680.003,205.276,682.238,200.743,679.071C194.952,674.102,194.523,661.077,195.129,654.168M265.384,622.947C260.133,611.284,243.558,605.193,232.073,607.457C216.986,610.242,201.204,606.114,192.049,620.839C182.952,635.469,184.632,661.696,188.763,677.933C190.064,683.833,194.270,694.555,199.402,697.602C203.155,699.721,208.733,698.767,213.026,698.541C233.866,697.776,270.608,702.790,269.278,671.704C268.700,660.891,269.107,631.296,265.384,622.947Z"/>
<path class="path-3" d="M218.603,615.793C228.762,613.598,248.436,615.885,254.576,625.505"/>
<path class="path-3" d="M254.576,625.505C257.813,630.309,257.206,637.635,257.814,642.909"/>
<path class="path-3" d="M257.814,642.909C258.957,652.112,265.792,668.972,253.076,672.596"/>
<path class="path-3" d="M253.076,672.596C252.110,672.975,224.699,676.696,216.237,678.404"/>
<path class="path-3" d="M216.237,678.404C210.911,680.003,205.276,682.238,200.743,679.071"/>
<path class="path-3" d="M200.743,679.071C194.952,674.102,194.523,661.077,195.129,654.168"/>
<path class="path-3" d="M195.129,654.168C196.415,635.204,195.641,620.323,218.603,615.793"/>
<path class="path-4" d="M218.603,615.793C228.762,613.598,248.436,615.885,254.576,625.505C257.813,630.309,257.206,637.635,257.814,642.909C258.957,652.112,265.792,668.972,253.076,672.596C252.110,672.975,224.699,676.696,216.237,678.404C210.911,680.003,205.276,682.238,200.743,679.071C194.952,674.102,194.523,661.077,195.129,654.168C196.415,635.204,195.641,620.323,218.603,615.793Z"/>
</g>
<g id="right_leg">
<path class="path-0" d="M178.711,408.667C177.291,400.674,187.215,395.239,194.323,394.664C200.526,394.035,209.816,396.107,215.942,398.533C218.586,399.580,222.092,401.391,224.036,403.466C225.524,405.055,226.409,407.916,227.493,409.846C231.048,416.667,233.861,419.017,234.834,423.589C235.778,428.029,233.833,433.438,233.778,438.683C234.527,456.889,236.354,475.767,239.693,493.127C241.484,502.973,245.372,517.091,246.849,526.248C248.137,536.367,241.795,538.016,242.634,544.013C242.905,547.547,252.059,563.199,254.290,567.401C260.504,578.571,267.083,591.471,267.798,604.297C268.475,616.440,251.039,632.827,239.928,635.289C227.348,637.817,191.233,626.936,179.317,621.314C173.837,618.922,164.483,615.311,162.464,609.229C160.876,605.186,164.721,586.354,166.660,582.057C169.652,576.040,172.243,574.819,174.169,567.190C176.433,556.760,175.098,545.288,174.844,534.368C174.040,518.942,175.905,481.905,179.152,467.647C181.000,458.502,185.008,427.568,183.981,418.978C183.292,412.736,179.728,412.802,178.711,408.667M202.720,383.749C196.967,382.053,192.367,376.962,186.492,379.272C184.289,380.358,180.560,383.440,179.040,385.138C164.317,399.095,164.792,412.004,165.774,430.815C165.855,438.584,166.077,446.646,166.728,454.084C167.069,459.130,167.827,463.520,167.232,468.239C166.971,472.556,165.523,477.000,165.215,482.339C165.011,488.530,166.950,495.815,166.718,506.333C165.755,516.546,164.404,526.151,164.494,535.956C164.736,541.625,165.656,555.028,164.939,559.355C163.248,564.823,159.496,570.578,157.177,575.463C153.468,584.594,151.930,594.584,152.875,603.882C153.156,609.671,153.953,617.247,156.967,621.786C161.267,628.260,169.298,631.892,176.005,635.020C187.540,640.322,198.967,642.180,211.577,644.447C216.115,645.299,220.573,646.376,225.363,646.699C226.847,646.572,239.103,645.928,241.485,645.620C252.027,643.636,267.636,633.141,272.902,623.095C274.553,619.483,276.239,614.469,276.601,610.403C276.948,606.494,276.289,602.559,276.228,598.632C275.527,574.852,266.777,565.122,260.618,545.274C258.256,537.661,256.492,521.363,255.128,512.642C252.404,497.283,248.023,482.501,247.044,466.450C246.902,462.988,246.372,458.492,248.090,454.935C249.558,451.753,252.540,450.043,253.237,446.662C253.984,441.527,248.692,425.465,247.274,420.049C246.474,416.417,246.506,411.760,244.984,408.176C240.840,399.065,226.344,389.501,216.883,387.001C212.145,385.584,207.145,385.515,202.720,383.749Z"/>
<path class="path-7" d="M194.323,394.664C200.526,394.035,209.816,396.107,215.942,398.533"/>
<path class="path-7" d="M215.942,398.533C218.586,399.580,222.092,401.391,224.036,403.466"/>
<path class="path-7" d="M224.036,403.466C225.524,405.055,226.409,407.916,227.493,409.846"/>
<path class="path-7" d="M227.493,409.846C231.048,416.667,233.861,419.017,234.834,423.589"/>
<path class="path-7" d="M234.834,423.589C235.778,428.029,233.833,433.438,233.778,438.683"/>
<path class="path-7" d="M233.778,438.683C234.527,456.889,236.354,475.767,239.693,493.127"/>
<path class="path-7" d="M239.693,493.127C241.484,502.973,245.372,517.091,246.849,526.248"/>
<path class="path-7" d="M246.849,526.248C248.137,536.367,241.795,538.016,242.634,544.013"/>
<path class="path-7" d="M242.634,544.013C242.905,547.547,252.059,563.199,254.290,567.401"/>
<path class="path-7" d="M254.290,567.401C260.504,578.571,267.083,591.471,267.798,604.297"/>
<path class="path-7" d="M267.798,604.297C268.475,616.440,251.039,632.827,239.928,635.289"/>
<path class="path-7" d="M239.928,635.289C227.348,637.817,191.233,626.936,179.317,621.314"/>
<path class="path-7" d="M179.317,621.314C173.837,618.922,164.483,615.311,162.464,609.229"/>
<path class="path-7" d="M162.464,609.229C160.876,605.186,164.721,586.354,166.660,582.057"/>
<path class="path-7" d="M166.660,582.057C169.652,576.040,172.243,574.819,174.169,567.190"/>
<path class="path-7" d="M174.169,567.190C176.433,556.760,175.098,545.288,174.844,534.368"/>
<path class="path-7" d="M174.844,534.368C174.040,518.942,175.905,481.905,179.152,467.647"/>
<path class="path-7" d="M179.152,467.647C181.000,458.502,185.008,427.568,183.981,418.978"/>
<path class="path-7" d="M183.981,418.978C183.292,412.736,179.728,412.802,178.711,408.667"/>
<path class="path-7" d="M178.711,408.667C177.291,400.674,187.215,395.239,194.323,394.664"/>
<path class="path-8" d="M194.323,394.664C200.526,394.035,209.816,396.107,215.942,398.533C218.586,399.580,222.092,401.391,224.036,403.466C225.524,405.055,226.409,407.916,227.493,409.846C231.048,416.667,233.861,419.017,234.834,423.589C235.778,428.029,233.833,433.438,233.778,438.683C234.527,456.889,236.354,475.767,239.693,493.127C241.484,502.973,245.372,517.091,246.849,526.248C248.137,536.367,241.795,538.016,242.634,544.013C242.905,547.547,252.059,563.199,254.290,567.401C260.504,578.571,267.083,591.471,267.798,604.297C268.475,616.440,251.039,632.827,239.928,635.289C227.348,637.817,191.233,626.936,179.317,621.314C173.837,618.922,164.483,615.311,162.464,609.229C160.876,605.186,164.721,586.354,166.660,582.057C169.652,576.040,172.243,574.819,174.169,567.190C176.433,556.760,175.098,545.288,174.844,534.368C174.040,518.942,175.905,481.905,179.152,467.647C181.000,458.502,185.008,427.568,183.981,418.978C183.292,412.736,179.728,412.802,178.711,408.667C177.291,400.674,187.215,395.239,194.323,394.664Z"/>
</g>
<g id="right_toe">
<path class="path-0" d="M163.302,662.965C163.679,644.747,167.418,620.749,188.955,614.993C193.857,613.407,201.236,614.678,206.921,615.382C237.473,619.086,247.161,627.521,250.691,658.364C251.404,665.948,253.859,674.798,249.537,681.945C244.335,690.375,213.087,697.309,203.274,697.857C188.204,699.029,176.176,698.561,166.762,684.662C161.275,676.378,163.123,672.256,163.302,662.965M256.839,628.555C246.988,611.192,204.782,601.837,186.511,607.079C159.114,615.105,155.949,639.393,155.233,663.270C154.959,670.606,152.776,678.715,156.456,685.169C158.634,688.986,163.795,693.635,167.220,696.409C183.282,710.567,193.773,707.378,213.691,706.001C225.548,705.381,245.280,703.685,254.411,695.273C261.325,688.281,261.583,680.977,261.423,671.713C260.948,662.793,260.821,634.971,256.839,628.555Z"/>
<path class="path-3" d="M188.955,614.993C193.857,613.407,201.236,614.678,206.921,615.382"/>
<path class="path-3" d="M206.921,615.382C237.473,619.086,247.161,627.521,250.691,658.364"/>
<path class="path-3" d="M250.691,658.364C251.404,665.948,253.859,674.798,249.537,681.945"/>
<path class="path-3" d="M249.537,681.945C244.335,690.375,213.087,697.309,203.274,697.857"/>
<path class="path-3" d="M203.274,697.857C188.204,699.029,176.176,698.561,166.762,684.662"/>
<path class="path-3" d="M166.762,684.662C161.275,676.378,163.123,672.256,163.302,662.965"/>
<path class="path-3" d="M163.302,662.965C163.679,644.747,167.418,620.749,188.955,614.993"/>
<path class="path-4" d="M188.955,614.993C193.857,613.407,201.236,614.678,206.921,615.382C237.473,619.086,247.161,627.521,250.691,658.364C251.404,665.948,253.859,674.798,249.537,681.945C244.335,690.375,213.087,697.309,203.274,697.857C188.204,699.029,176.176,698.561,166.762,684.662C161.275,676.378,163.123,672.256,163.302,662.965C163.679,644.747,167.418,620.749,188.955,614.993Z"/>
</g>
<g id="right_sole">
<path class="path-0" d="M192.636,703.411C194.690,703.470,211.510,702.268,213.808,702.172C215.572,702.113,224.389,702.252,225.903,702.227C226.888,702.224,235.335,702.246,236.003,702.702C235.213,703.095,226.461,704.349,225.925,704.405C224.703,704.556,194.943,705.583,194.543,705.747C193.438,705.786,182.155,705.137,180.847,704.593C182.163,703.628,190.500,703.348,192.636,703.411M240.569,691.034C241.312,692.325,240.525,695.955,238.380,696.498C235.926,697.130,223.542,699.724,220.174,699.140C216.299,699.158,209.900,700.068,206.408,700.136C199.358,700.274,183.626,703.859,178.570,699.001C177.241,697.186,177.324,694.555,178.036,693.549C178.466,692.941,183.871,693.380,186.784,693.250C192.351,693.001,203.649,693.037,209.353,692.712C215.137,692.382,226.235,691.305,232.153,690.650C233.080,690.572,239.505,689.186,240.569,691.034M247.059,686.211C233.582,681.746,223.950,684.052,210.180,684.724C201.233,685.212,182.962,683.828,173.447,689.574C170.821,691.160,166.553,694.144,166.835,697.376C167.056,699.836,171.163,704.597,174.188,706.291C177.789,708.307,184.965,707.776,187.838,708.017C202.540,709.794,221.152,707.646,235.823,705.997C247.011,704.739,249.424,700.281,250.618,694.855C251.220,692.116,252.324,687.880,247.059,686.211Z"/>
<path class="path-5" d="M192.636,703.411C194.690,703.470,211.510,702.268,213.808,702.172"/>
<path class="path-5" d="M213.808,702.172C215.572,702.113,224.389,702.252,225.903,702.227"/>
<path class="path-5" d="M225.903,702.227C226.888,702.224,235.335,702.246,236.003,702.702"/>
<path class="path-5" d="M236.003,702.702C235.213,703.095,226.461,704.349,225.925,704.405"/>
<path class="path-5" d="M225.925,704.405C224.703,704.556,194.943,705.583,194.543,705.747"/>
<path class="path-5" d="M194.543,705.747C193.438,705.786,182.155,705.137,180.847,704.593"/>
<path class="path-5" d="M180.847,704.593C182.163,703.628,190.500,703.348,192.636,703.411"/>
<path class="path-6" d="M192.636,703.411C194.690,703.470,211.510,702.268,213.808,702.172C215.572,702.113,224.389,702.252,225.903,702.227C226.888,702.224,235.335,702.246,236.003,702.702C235.213,703.095,226.461,704.349,225.925,704.405C224.703,704.556,194.943,705.583,194.543,705.747C193.438,705.786,182.155,705.137,180.847,704.593C182.163,703.628,190.500,703.348,192.636,703.411Z"/>
<path class="path-5" d="M186.784,693.250C192.351,693.001,203.649,693.037,209.353,692.712"/>
<path class="path-5" d="M209.353,692.712C215.137,692.382,226.235,691.305,232.153,690.650"/>
<path class="path-5" d="M232.153,690.650C233.080,690.572,239.505,689.186,240.569,691.034"/>
<path class="path-5" d="M240.569,691.034C241.312,692.325,240.525,695.955,238.380,696.498"/>
<path class="path-5" d="M238.380,696.498C235.926,697.130,223.542,699.724,220.174,699.140"/>
<path class="path-5" d="M220.174,699.140C216.299,699.158,209.900,700.068,206.408,700.136"/>
<path class="path-5" d="M206.408,700.136C199.358,700.274,183.626,703.859,178.570,699.001"/>
<path class="path-5" d="M178.570,699.001C177.241,697.186,177.324,694.555,178.036,693.549"/>
<path class="path-5" d="M178.036,693.549C178.466,692.941,183.871,693.380,186.784,693.250"/>
<path class="path-6" d="M186.784,693.250C192.351,693.001,203.649,693.037,209.353,692.712C215.137,692.382,226.235,691.305,232.153,690.650C233.080,690.572,239.505,689.186,240.569,691.034C241.312,692.325,240.525,695.955,238.380,696.498C235.926,697.130,223.542,699.724,220.174,699.140C216.299,699.158,209.900,700.068,206.408,700.136C199.358,700.274,183.626,703.859,178.570,699.001C177.241,697.186,177.324,694.555,178.036,693.549C178.466,692.941,183.871,693.380,186.784,693.250Z"/>
</g>
</g>
<g id="hat_brim">
<path class="path-0" d="M276.067,152.867C279.793,146.920,288.958,130.719,296.942,130.809C302.266,130.868,313.136,140.640,318.757,143.697C323.714,146.747,329.007,149.468,334.633,152.192C337.826,153.897,341.023,155.597,344.224,157.290C358.448,164.770,354.384,171.047,346.081,169.622C327.490,166.085,324.481,167.384,306.621,157.867C304.303,156.843,298.352,153.450,297.305,157.763C295.920,162.738,304.854,167.164,308.494,168.868C315.106,172.603,322.380,176.677,330.357,177.431C332.683,177.791,340.674,177.213,341.978,179.557C343.937,182.907,334.193,191.448,332.174,193.422C328.813,196.379,325.454,199.335,322.101,201.628C317.074,204.897,311.717,207.831,306.051,208.766C295.391,209.978,262.294,194.302,261.426,182.648C260.836,175.988,272.004,159.144,276.067,152.867M308.967,126.619C304.025,122.238,300.437,115.875,293.080,119.121C287.731,121.391,281.990,128.978,278.287,132.929C264.460,149.410,251.932,168.901,252.355,190.531C252.535,204.174,257.196,203.895,268.114,209.339C284.654,217.843,305.916,220.743,323.974,212.628C335.677,207.435,356.172,189.698,361.630,177.782C363.337,173.808,366.431,164.859,364.154,160.177C361.556,154.490,339.375,144.593,332.763,140.860C324.827,136.445,315.890,132.352,308.967,126.619Z"/>
<path class="path-9" d="M296.942,130.809C302.266,130.868,313.136,140.640,318.757,143.697"/>
<path class="path-9" d="M318.757,143.697C323.714,146.747,329.007,149.468,334.633,152.192"/>
<path class="path-9" d="M334.633,152.192C337.826,153.897,341.023,155.597,344.224,157.290"/>
<path class="path-9" d="M344.224,157.290C358.448,164.770,354.384,171.047,346.081,169.622"/>
<path class="path-9" d="M346.081,169.622C327.490,166.085,324.481,167.384,306.621,157.867"/>
<path class="path-9" d="M306.621,157.867C304.303,156.843,298.352,153.450,297.305,157.763"/>
<path class="path-9" d="M297.305,157.763C295.920,162.738,304.854,167.164,308.494,168.868"/>
<path class="path-9" d="M308.494,168.868C315.106,172.603,322.380,176.677,330.357,177.431"/>
<path class="path-9" d="M330.357,177.431C332.683,177.791,340.674,177.213,341.978,179.557"/>
<path class="path-9" d="M341.978,179.557C343.937,182.907,334.193,191.448,332.174,193.422"/>
<path class="path-9" d="M332.174,193.422C328.813,196.379,325.454,199.335,322.101,201.628"/>
<path class="path-9" d="M322.101,201.628C317.074,204.897,311.717,207.831,306.051,208.766"/>
<path class="path-9" d="M306.051,208.766C295.391,209.978,262.294,194.302,261.426,182.648"/>
<path class="path-9" d="M261.426,182.648C260.836,175.988,272.004,159.144,276.067,152.867"/>
<path class="path-9" d="M276.067,152.867C279.793,146.920,288.958,130.719,296.942,130.809"/>
<path class="path-10" d="M296.942,130.809C302.266,130.868,313.136,140.640,318.757,143.697C323.714,146.747,329.007,149.468,334.633,152.192C337.826,153.897,341.023,155.597,344.224,157.290C358.448,164.770,354.384,171.047,346.081,169.622C327.490,166.085,324.481,167.384,306.621,157.867C304.303,156.843,298.352,153.450,297.305,157.763C295.920,162.738,304.854,167.164,308.494,168.868C315.106,172.603,322.380,176.677,330.357,177.431C332.683,177.791,340.674,177.213,341.978,179.557C343.937,182.907,334.193,191.448,332.174,193.422C328.813,196.379,325.454,199.335,322.101,201.628C317.074,204.897,311.717,207.831,306.051,208.766C295.391,209.978,262.294,194.302,261.426,182.648C260.836,175.988,272.004,159.144,276.067,152.867C279.793,146.920,288.958,130.719,296.942,130.809Z"/>
</g>
<g id="hair">
<path class="path-0" d="M175.664,139.180C193.030,127.107,212.960,125.776,234.033,124.681C243.480,124.171,250.039,130.521,257.344,136.736C263.346,142.190,269.801,148.339,276.175,154.061C285.769,162.615,289.798,166.917,293.388,171.031C296.454,174.183,301.230,180.080,305.042,182.867C309.642,186.228,319.000,203.241,321.061,205.152C314.452,207.468,304.048,209.241,299.307,213.140C301.029,218.946,301.479,227.971,301.520,230.680C295.318,231.181,288.070,228.457,276.589,226.506C274.342,233.717,274.434,240.445,269.818,247.791C262.086,245.535,256.698,243.706,246.678,239.380C240.165,244.657,238.620,244.267,228.004,250.914C220.858,246.660,215.151,242.100,208.201,239.337C201.462,242.307,190.737,243.451,187.131,246.420C183.242,239.427,179.651,231.698,176.357,228.363C166.787,230.441,162.705,233.115,155.958,235.657C151.676,230.193,154.635,225.611,149.861,217.563C145.519,216.443,138.801,213.903,133.239,213.858C137.029,209.325,139.695,194.548,146.172,192.607C154.165,190.212,148.992,181.135,153.829,172.882C155.026,170.735,166.615,154.275,167.640,151.594C169.589,146.970,171.723,142.062,175.664,139.180M261.813,124.062C249.470,114.775,224.721,109.931,210.879,113.320C198.173,116.278,185.732,120.425,174.747,127.719C168.595,131.744,161.806,137.652,157.755,143.800C149.660,155.743,138.063,181.808,131.503,193.890C126.259,203.909,121.332,210.689,116.243,216.148C133.922,222.403,139.091,225.010,144.345,225.763C144.746,233.515,151.956,239.203,150.799,247.773C159.595,246.384,164.817,244.104,172.630,242.077C176.653,246.693,179.460,252.993,183.319,259.157C191.016,256.989,198.909,257.208,206.497,251.682C212.053,254.645,220.876,259.245,229.943,264.115C238.202,259.620,239.978,259.351,247.720,254.228C257.220,256.477,267.230,262.258,276.769,261.156C276.020,252.976,282.026,247.299,281.272,242.054C288.456,240.062,310.546,243.063,314.311,242.708C314.029,236.663,310.596,225.119,312.099,217.900C318.890,216.028,324.632,214.329,335.221,209.132C331.686,202.469,325.379,194.214,319.868,189.310C315.217,185.210,311.412,179.758,306.756,175.484C290.969,161.230,284.645,141.326,261.813,124.062Z"/>
<path class="path-11" d="M234.033,124.681C243.480,124.171,250.039,130.521,257.344,136.736"/>
<path class="path-11" d="M257.344,136.736C263.346,142.190,269.801,148.339,276.175,154.061"/>
<path class="path-11" d="M276.175,154.061C285.769,162.615,289.798,166.917,293.388,171.031"/>
<path class="path-11" d="M293.388,171.031C296.454,174.183,301.230,180.080,305.042,182.867"/>
<path class="path-11" d="M305.042,182.867C309.642,186.228,319.000,203.241,321.061,205.152"/>
<path class="path-11" d="M321.061,205.152C314.452,207.468,304.048,209.241,299.307,213.140"/>
<path class="path-11" d="M299.307,213.140C301.029,218.946,301.479,227.971,301.520,230.680"/>
<path class="path-11" d="M301.520,230.680C295.318,231.181,288.070,228.457,276.589,226.506"/>
<path class="path-11" d="M276.589,226.506C274.342,233.717,274.434,240.445,269.818,247.791"/>
<path class="path-11" d="M269.818,247.791C262.086,245.535,256.698,243.706,246.678,239.380"/>
<path class="path-11" d="M246.678,239.380C240.165,244.657,238.620,244.267,228.004,250.914"/>
<path class="path-11" d="M228.004,250.914C220.858,246.660,215.151,242.100,208.201,239.337"/>
<path class="path-11" d="M208.201,239.337C201.462,242.307,190.737,243.451,187.131,246.420"/>
<path class="path-11" d="M187.131,246.420C183.242,239.427,179.651,231.698,176.357,228.363"/>
<path class="path-11" d="M176.357,228.363C166.787,230.441,162.705,233.115,155.958,235.657"/>
<path class="path-11" d="M155.958,235.657C151.676,230.193,154.635,225.611,149.861,217.563"/>
<path class="path-11" d="M149.861,217.563C145.519,216.443,138.801,213.903,133.239,213.858"/>
<path class="path-11" d="M133.239,213.858C137.029,209.325,139.695,194.548,146.172,192.607"/>
<path class="path-11" d="M146.172,192.607C154.165,190.212,148.992,181.135,153.829,172.882"/>
<path class="path-11" d="M153.829,172.882C155.026,170.735,166.615,154.275,167.640,151.594"/>
<path class="path-11" d="M167.640,151.594C169.589,146.970,171.723,142.062,175.664,139.180"/>
<path class="path-11" d="M175.664,139.180C193.030,127.107,212.960,125.776,234.033,124.681"/>
<path class="path-12" d="M234.033,124.681C243.480,124.171,250.039,130.521,257.344,136.736C263.346,142.190,269.801,148.339,276.175,154.061C285.769,162.615,289.798,166.917,293.388,171.031C296.454,174.183,301.230,180.080,305.042,182.867C309.642,186.228,319.000,203.241,321.061,205.152C314.452,207.468,304.048,209.241,299.307,213.140C301.029,218.946,301.479,227.971,301.520,230.680C295.318,231.181,288.070,228.457,276.589,226.506C274.342,233.717,274.434,240.445,269.818,247.791C262.086,245.535,256.698,243.706,246.678,239.380C240.165,244.657,238.620,244.267,228.004,250.914C220.858,246.660,215.151,242.100,208.201,239.337C201.462,242.307,190.737,243.451,187.131,246.420C183.242,239.427,179.651,231.698,176.357,228.363C166.787,230.441,162.705,233.115,155.958,235.657C151.676,230.193,154.635,225.611,149.861,217.563C145.519,216.443,138.801,213.903,133.239,213.858C137.029,209.325,139.695,194.548,146.172,192.607C154.165,190.212,148.992,181.135,153.829,172.882C155.026,170.735,166.615,154.275,167.640,151.594C169.589,146.970,171.723,142.062,175.664,139.180C193.030,127.107,212.960,125.776,234.033,124.681Z"/>
</g>
<g id="clothes">
<path class="path-0" d="M238.719,371.975C234.066,369.878,216.148,361.599,213.254,366.034C210.805,370.048,215.429,370.967,219.485,371.514C223.078,371.998,241.207,380.220,243.681,378.648C248.250,375.667,240.969,372.873,238.719,371.975M186.558,267.978C189.598,255.349,216.594,242.478,229.563,243.524C238.545,244.223,266.778,258.305,270.740,266.639C274.041,273.306,274.946,297.932,275.247,306.252C275.521,321.559,275.168,337.028,277.392,352.174C279.399,362.408,283.104,372.309,287.446,381.791C289.002,386.858,295.630,399.037,292.133,403.703C286.407,412.146,261.642,409.961,252.689,407.118C221.413,398.115,227.152,387.617,196.685,385.745C193.260,385.403,182.106,388.405,179.772,387.068C175.788,384.132,177.480,378.400,178.498,373.744C181.540,362.110,184.893,354.467,186.607,341.829C188.666,325.868,189.404,308.571,189.466,291.938C189.155,285.950,185.880,271.634,186.558,267.978M265.473,249.647C249.204,239.936,233.261,231.892,213.609,237.478C208.281,238.788,181.620,251.664,179.279,254.983C175.602,260.292,179.192,280.590,179.166,287.908C179.467,296.557,179.765,305.540,179.065,313.854C178.709,320.174,177.355,325.824,177.331,331.812C176.971,338.464,177.608,345.786,175.921,351.768C172.548,363.404,158.307,385.435,171.433,395.023C176.657,398.868,185.202,397.072,191.974,398.099C202.865,399.537,214.242,402.598,224.942,405.739C237.782,409.896,248.541,420.545,262.130,421.937C271.686,422.918,303.019,421.090,307.753,412.115C310.908,406.448,300.321,379.444,297.560,372.654C293.561,364.022,288.766,355.516,286.731,346.222C284.494,334.451,284.498,322.592,285.211,310.284C285.584,300.303,287.284,290.660,287.322,280.344C287.005,276.016,287.690,270.695,285.375,266.360C281.411,258.359,272.778,253.999,265.473,249.647Z"/>
<path class="path-13" d="M238.719,371.975C234.066,369.878,216.148,361.599,213.254,366.034"/>
<path class="path-13" d="M213.254,366.034C210.805,370.048,215.429,370.967,219.485,371.514"/>
<path class="path-13" d="M219.485,371.514C223.078,371.998,241.207,380.220,243.681,378.648"/>
<path class="path-13" d="M243.681,378.648C248.250,375.667,240.969,372.873,238.719,371.975"/>
<path class="path-13" d="M186.558,267.978C189.598,255.349,216.594,242.478,229.563,243.524"/>
<path class="path-13" d="M229.563,243.524C238.545,244.223,266.778,258.305,270.740,266.639"/>
<path class="path-13" d="M270.740,266.639C274.041,273.306,274.946,297.932,275.247,306.252"/>
<path class="path-13" d="M275.247,306.252C275.521,321.559,275.168,337.028,277.392,352.174"/>
<path class="path-13" d="M277.392,352.174C279.399,362.408,283.104,372.309,287.446,381.791"/>
<path class="path-13" d="M287.446,381.791C289.002,386.858,295.630,399.037,292.133,403.703"/>
<path class="path-13" d="M292.133,403.703C286.407,412.146,261.642,409.961,252.689,407.118"/>
<path class="path-13" d="M252.689,407.118C221.413,398.115,227.152,387.617,196.685,385.745"/>
<path class="path-13" d="M196.685,385.745C193.260,385.403,182.106,388.405,179.772,387.068"/>
<path class="path-13" d="M179.772,387.068C175.788,384.132,177.480,378.400,178.498,373.744"/>
<path class="path-13" d="M178.498,373.744C181.540,362.110,184.893,354.467,186.607,341.829"/>
<path class="path-13" d="M186.607,341.829C188.666,325.868,189.404,308.571,189.466,291.938"/>
<path class="path-13" d="M189.466,291.938C189.155,285.950,185.880,271.634,186.558,267.978"/>
<path class="path-14" d="M238.719,371.975C234.066,369.878,216.148,361.599,213.254,366.034C210.805,370.048,215.429,370.967,219.485,371.514C223.078,371.998,241.207,380.220,243.681,378.648C248.250,375.667,240.969,372.873,238.719,371.975M186.558,267.978C189.598,255.349,216.594,242.478,229.563,243.524C238.545,244.223,266.778,258.305,270.740,266.639C274.041,273.306,274.946,297.932,275.247,306.252C275.521,321.559,275.168,337.028,277.392,352.174C279.399,362.408,283.104,372.309,287.446,381.791C289.002,386.858,295.630,399.037,292.133,403.703C286.407,412.146,261.642,409.961,252.689,407.118C221.413,398.115,227.152,387.617,196.685,385.745C193.260,385.403,182.106,388.405,179.772,387.068C175.788,384.132,177.480,378.400,178.498,373.744C181.540,362.110,184.893,354.467,186.607,341.829C188.666,325.868,189.404,308.571,189.466,291.938C189.155,285.950,185.880,271.634,186.558,267.978Z"/>
</g>
<g id="neck">
<path class="path-0" d="M221.985,225.087C222.054,221.743,222.812,218.679,226.434,218.058C237.883,215.146,239.864,252.703,229.252,253.546C219.303,254.336,221.823,231.440,221.985,225.087M225.696,208.773C223.017,208.651,220.085,209.551,217.868,211.063C208.950,216.443,210.962,224.961,211.647,233.583C211.657,237.922,212.306,241.876,210.605,245.681C209.211,249.130,204.830,252.814,205.120,256.464C206.242,266.387,233.106,264.253,240.045,263.368C242.697,263.157,251.730,263.441,252.436,259.714C252.357,258.719,244.802,247.637,243.439,243.073C239.348,229.381,247.002,208.082,225.696,208.773Z"/>
<path class="path-15" d="M226.434,218.058C237.883,215.146,239.864,252.703,229.252,253.546"/>
<path class="path-15" d="M229.252,253.546C219.303,254.336,221.823,231.440,221.985,225.087"/>
<path class="path-15" d="M221.985,225.087C222.054,221.743,222.812,218.679,226.434,218.058"/>
<path class="path-16" d="M226.434,218.058C237.883,215.146,239.864,252.703,229.252,253.546C219.303,254.336,221.823,231.440,221.985,225.087C222.054,221.743,222.812,218.679,226.434,218.058Z"/>
</g>
<g id="layer_head">
<g id="right_ear">
<path class="path-0" d="M142.063,194.566C127.516,195.243,112.659,160.819,134.189,162.176C137.680,162.396,140.557,168.275,141.133,170.878C143.269,180.548,152.467,194.082,142.063,194.566M139.795,150.657C136.493,148.631,132.412,147.922,128.846,149.437C117.935,152.139,112.028,164.956,113.872,176.103C116.068,188.539,129.800,202.357,141.303,204.691C144.340,205.324,150.601,207.469,153.500,205.943C160.174,201.882,153.387,191.575,151.451,185.759C149.525,179.526,144.496,154.784,139.795,150.657Z"/>
<path class="path-15" d="M134.189,162.176C137.680,162.396,140.557,168.275,141.133,170.878"/>
<path class="path-15" d="M141.133,170.878C143.269,180.548,152.467,194.082,142.063,194.566"/>
<path class="path-15" d="M142.063,194.566C127.516,195.243,112.659,160.819,134.189,162.176"/>
<path class="path-16" d="M134.189,162.176C137.680,162.396,140.557,168.275,141.133,170.878C143.269,180.548,152.467,194.082,142.063,194.566C127.516,195.243,112.659,160.819,134.189,162.176Z"/>
</g>
<g id="face_Mask">
<g id="face">
<path class="path-0" d="M158.477,105.968C167.080,95.615,199.927,88.798,213.589,86.955C228.915,85.130,244.524,87.634,259.442,92.459C264.747,94.183,272.376,96.264,276.991,99.976C284.903,106.386,289.880,117.717,292.651,127.100C294.856,133.915,298.860,143.097,296.916,149.580C288.083,179.028,283.990,192.638,277.982,200.827C270.564,210.938,257.294,214.570,245.674,218.993C233.971,223.257,222.132,224.513,216.020,224.068C203.720,223.174,177.273,216.838,168.262,209.212C157.461,199.722,156.476,185.398,152.179,172.316C149.734,165.581,145.586,155.493,144.305,148.591C142.429,137.518,151.397,114.411,158.477,105.968M281.095,92.345C267.615,79.973,231.381,76.756,213.719,79.202C205.388,80.099,197.396,80.668,189.720,82.574C184.043,84.172,179.018,86.774,173.672,88.377C161.978,92.571,157.183,91.079,149.233,101.755C143.526,109.227,134.321,138.826,135.276,148.020C136.114,154.917,143.533,170.202,145.911,177.933C149.003,188.191,151.228,202.949,157.750,210.967C165.104,219.742,175.189,224.383,190.654,228.645C201.869,231.736,214.306,232.734,226.281,233.069C230.686,233.463,238.904,231.073,250.815,226.291C262.967,221.236,276.372,217.066,284.815,205.839C294.868,192.472,298.860,170.337,307.458,148.254C314.593,129.931,289.495,99.889,281.095,92.345Z"/>
<path class="path-15" d="M213.589,86.955C228.915,85.130,244.524,87.634,259.442,92.459"/>
<path class="path-15" d="M259.442,92.459C264.747,94.183,272.376,96.264,276.991,99.976"/>
<path class="path-15" d="M276.991,99.976C284.903,106.386,289.880,117.717,292.651,127.100"/>
<path class="path-15" d="M292.651,127.100C294.856,133.915,298.860,143.097,296.916,149.580"/>
<path class="path-15" d="M296.916,149.580C288.083,179.028,283.990,192.638,277.982,200.827"/>
<path class="path-15" d="M277.982,200.827C270.564,210.938,257.294,214.570,245.674,218.993"/>
<path class="path-15" d="M245.674,218.993C233.971,223.257,222.132,224.513,216.020,224.068"/>
<path class="path-15" d="M216.020,224.068C203.720,223.174,177.273,216.838,168.262,209.212"/>
<path class="path-15" d="M168.262,209.212C157.461,199.722,156.476,185.398,152.179,172.316"/>
<path class="path-15" d="M152.179,172.316C149.734,165.581,145.586,155.493,144.305,148.591"/>
<path class="path-15" d="M144.305,148.591C142.429,137.518,151.397,114.411,158.477,105.968"/>
<path class="path-15" d="M158.477,105.968C167.080,95.615,199.927,88.798,213.589,86.955"/>
<path class="path-16" d="M213.589,86.955C228.915,85.130,244.524,87.634,259.442,92.459C264.747,94.183,272.376,96.264,276.991,99.976C284.903,106.386,289.880,117.717,292.651,127.100C294.856,133.915,298.860,143.097,296.916,149.580C288.083,179.028,283.990,192.638,277.982,200.827C270.564,210.938,257.294,214.570,245.674,218.993C233.971,223.257,222.132,224.513,216.020,224.068C203.720,223.174,177.273,216.838,168.262,209.212C157.461,199.722,156.476,185.398,152.179,172.316C149.734,165.581,145.586,155.493,144.305,148.591C142.429,137.518,151.397,114.411,158.477,105.968C167.080,95.615,199.927,88.798,213.589,86.955Z"/>
</g>
</g>
<mask id="mask_target" style="mask-type:alpha;">
<use xlink:href="#face_Mask"/>
</mask>
<g id="mouse">
<path class="path-0" d="M223.458,215.904C228.650,217.066,228.680,221.820,228.201,222.322C227.930,222.605,226.819,221.641,223.864,221.121C218.269,220.137,215.550,221.279,215.361,220.563C215.153,219.777,217.381,214.544,223.458,215.904Z"/>
</g>
<g id="layer_eyes_Mtarget" mask="url(#mask_target)">
<g id="eyes">
<mask style="mask-type:alpha;" id="f3906406-f197-4bf1-91d8-744c09cca836">
<use xlink:href="#cmn_f3906406-f197-4bf1-91d8-744c09cca836"/>
</mask>
<g id="cmn_f3906406-f197-4bf1-91d8-744c09cca836">
<path class="path-0" d="M201.511,175.574C203.075,188.499,194.569,196.889,181.648,193.320C174.174,191.035,170.857,185.492,168.262,178.758C166.730,175.211,159.281,158.998,164.990,160.922C169.646,162.492,200.943,170.884,201.511,175.574M208.132,178.723C209.039,177.226,210.335,174.968,210.107,173.233C209.852,171.291,208.294,168.183,206.326,167.912C200.983,167.055,182.217,160.691,175.452,158.113C168.700,155.702,155.221,147.385,150.858,154.250C149.225,156.700,153.090,157.402,154.398,161.293C160.765,180.231,166.320,197.881,186.879,199.087C204.642,200.129,203.557,186.276,208.132,178.723M250.699,188.973C243.610,188.763,234.310,183.279,234.475,172.230C234.524,168.898,248.044,163.767,254.114,160.598C260.070,157.489,271.417,151.187,274.494,151.308C277.973,151.865,276.178,154.938,276.117,164.566C276.027,178.927,263.638,189.355,250.699,188.973M282.145,170.953C285.201,158.914,285.790,142.781,283.455,141.716C278.490,139.450,265.730,148.664,258.286,152.000C248.533,156.371,233.013,165.622,226.311,167.709C224.371,168.390,222.622,168.922,222.348,170.319C221.806,173.092,227.055,174.952,228.829,177.151C231.970,181.047,232.888,188.118,238.094,191.023C247.927,196.915,255.414,194.725,266.322,189.877C274.835,186.133,279.986,179.458,282.145,170.953Z"/>
<path class="path-17" d="M274.494,151.308C277.973,151.865,276.178,154.938,276.117,164.566"/>
<path class="path-17" d="M276.117,164.566C276.027,178.927,263.638,189.355,250.699,188.973"/>
<path class="path-17" d="M250.699,188.973C243.610,188.763,234.310,183.279,234.475,172.230"/>
<path class="path-17" d="M234.475,172.230C234.524,168.898,248.044,163.767,254.114,160.598"/>
<path class="path-17" d="M254.114,160.598C260.070,157.489,271.417,151.187,274.494,151.308"/>
<path class="path-18" d="M274.494,151.308C277.973,151.865,276.178,154.938,276.117,164.566C276.027,178.927,263.638,189.355,250.699,188.973C243.610,188.763,234.310,183.279,234.475,172.230C234.524,168.898,248.044,163.767,254.114,160.598C260.070,157.489,271.417,151.187,274.494,151.308Z"/>
<path class="path-17" d="M164.990,160.922C169.646,162.492,200.943,170.884,201.511,175.574"/>
<path class="path-17" d="M201.511,175.574C203.075,188.499,194.569,196.889,181.648,193.320"/>
<path class="path-17" d="M181.648,193.320C174.174,191.035,170.857,185.492,168.262,178.758"/>
<path class="path-17" d="M168.262,178.758C166.730,175.211,159.281,158.998,164.990,160.922"/>
<path class="path-18" d="M164.990,160.922C169.646,162.492,200.943,170.884,201.511,175.574C203.075,188.499,194.569,196.889,181.648,193.320C174.174,191.035,170.857,185.492,168.262,178.758C166.730,175.211,159.281,158.998,164.990,160.922Z"/>
</g>
</g>
<g id="pupil">
<path class="path-0" d="M240.716,165.344C242.994,164.798,246.180,167.966,246.947,176.382C247.526,182.734,245.808,185.320,244.048,185.500C242.146,185.695,240.530,183.087,239.323,176.296C238.035,169.049,238.732,165.819,240.716,165.344Z" mask="url(#f3906406-f197-4bf1-91d8-744c09cca836)"/>
<path class="path-0" d="M193.482,167.911C195.830,167.622,197.645,171.492,198.116,180.294C198.383,185.280,197.799,187.302,196.494,187.606C194.934,187.969,192.848,185.992,191.494,180.178C189.614,172.109,191.275,168.181,193.482,167.911Z" mask="url(#f3906406-f197-4bf1-91d8-744c09cca836)"/>
</g>
</g>
<g id="hat">
<path class="path-0" d="M296.672,125.150C298.653,126.503,301.621,128.865,301.925,131.531C303.185,137.866,292.215,137.078,288.884,137.374C282.231,137.299,275.279,137.028,268.923,137.150C263.832,137.711,258.739,138.231,253.638,138.698C245.415,138.810,237.204,138.507,228.983,138.366C214.340,138.689,199.710,138.087,185.070,137.874C183.781,137.907,144.099,142.072,137.488,138.339C128.889,133.585,137.946,127.031,137.663,122.704C137.704,119.043,129.730,117.956,131.797,111.659C133.860,105.693,155.195,101.939,161.531,100.679C173.871,98.156,186.553,94.637,199.550,92.786C217.877,90.330,236.836,90.876,255.484,89.420C267.805,88.560,295.991,96.861,301.172,109.563C305.710,120.260,289.189,110.094,287.200,109.407C285.880,108.394,281.246,106.346,282.211,109.351C283.145,115.017,292.718,121.777,296.672,125.150M179.637,88.239C169.272,90.693,159.628,92.339,149.622,94.557C145.285,95.506,139.934,98.107,135.968,95.735C127.042,90.644,136.946,67.798,141.338,61.858C155.858,42.722,186.927,34.822,212.174,35.034C257.108,35.413,274.642,42.390,289.445,57.528C294.055,61.904,310.445,83.715,301.729,89.606C298.380,91.565,292.437,87.506,289.457,86.141C279.192,81.700,237.957,74.429,179.637,88.239M238.242,24.681C231.260,24.269,229.612,22.921,222.285,23.504C190.975,26.481,148.712,27.337,129.742,57.402C123.642,67.315,123.516,78.627,121.400,89.249C119.641,97.880,114.576,104.479,115.477,113.139C116.396,120.136,119.372,121.833,121.642,127.182C124.239,132.867,122.878,135.515,124.502,139.192C128.041,149.878,137.695,149.410,147.011,149.426C151.863,149.435,169.757,149.499,179.505,149.431C191.424,149.348,207.314,149.112,219.230,148.861C228.363,148.669,240.542,148.389,249.670,148.025C258.058,147.691,269.246,147.225,277.615,146.569C287.890,145.764,310.577,144.186,311.778,142.953C313.937,140.775,318.031,119.401,318.076,115.408C318.113,112.081,316.488,108.737,316.548,103.413C316.378,88.773,316.198,75.128,308.035,61.396C293.007,36.607,265.500,26.982,238.242,24.681Z"/>
<path class="path-19" d="M255.484,89.420C267.805,88.560,295.991,96.861,301.172,109.563"/>
<path class="path-19" d="M301.172,109.563C305.710,120.260,289.189,110.094,287.200,109.407"/>
<path class="path-19" d="M287.200,109.407C285.880,108.394,281.246,106.346,282.211,109.351"/>
<path class="path-19" d="M282.211,109.351C283.145,115.017,292.718,121.777,296.672,125.150"/>
<path class="path-19" d="M296.672,125.150C298.653,126.503,301.621,128.865,301.925,131.531"/>
<path class="path-19" d="M301.925,131.531C303.185,137.866,292.215,137.078,288.884,137.374"/>
<path class="path-19" d="M288.884,137.374C282.231,137.299,275.279,137.028,268.923,137.150"/>
<path class="path-19" d="M268.923,137.150C263.832,137.711,258.739,138.231,253.638,138.698"/>
<path class="path-19" d="M253.638,138.698C245.415,138.810,237.204,138.507,228.983,138.366"/>
<path class="path-19" d="M228.983,138.366C214.340,138.689,199.710,138.087,185.070,137.874"/>
<path class="path-19" d="M185.070,137.874C183.781,137.907,144.099,142.072,137.488,138.339"/>
<path class="path-19" d="M137.488,138.339C128.889,133.585,137.946,127.031,137.663,122.704"/>
<path class="path-19" d="M137.663,122.704C137.704,119.043,129.730,117.956,131.797,111.659"/>
<path class="path-19" d="M131.797,111.659C133.860,105.693,155.195,101.939,161.531,100.679"/>
<path class="path-19" d="M161.531,100.679C173.871,98.156,186.553,94.637,199.550,92.786"/>
<path class="path-19" d="M199.550,92.786C217.877,90.330,236.836,90.876,255.484,89.420"/>
<path class="path-20" d="M255.484,89.420C267.805,88.560,295.991,96.861,301.172,109.563C305.710,120.260,289.189,110.094,287.200,109.407C285.880,108.394,281.246,106.346,282.211,109.351C283.145,115.017,292.718,121.777,296.672,125.150C298.653,126.503,301.621,128.865,301.925,131.531C303.185,137.866,292.215,137.078,288.884,137.374C282.231,137.299,275.279,137.028,268.923,137.150C263.832,137.711,258.739,138.231,253.638,138.698C245.415,138.810,237.204,138.507,228.983,138.366C214.340,138.689,199.710,138.087,185.070,137.874C183.781,137.907,144.099,142.072,137.488,138.339C128.889,133.585,137.946,127.031,137.663,122.704C137.704,119.043,129.730,117.956,131.797,111.659C133.860,105.693,155.195,101.939,161.531,100.679C173.871,98.156,186.553,94.637,199.550,92.786C217.877,90.330,236.836,90.876,255.484,89.420Z"/>
<path class="path-9" d="M212.174,35.034C257.108,35.413,274.642,42.390,289.445,57.528"/>
<path class="path-9" d="M289.445,57.528C294.055,61.904,310.445,83.715,301.729,89.606"/>
<path class="path-9" d="M301.729,89.606C298.380,91.565,292.437,87.506,289.457,86.141"/>
<path class="path-9" d="M289.457,86.141C279.192,81.700,237.957,74.429,179.637,88.239"/>
<path class="path-9" d="M179.637,88.239C169.272,90.693,159.628,92.339,149.622,94.557"/>
<path class="path-9" d="M149.622,94.557C145.285,95.506,139.934,98.107,135.968,95.735"/>
<path class="path-9" d="M135.968,95.735C127.042,90.644,136.946,67.798,141.338,61.858"/>
<path class="path-9" d="M141.338,61.858C155.858,42.722,186.927,34.822,212.174,35.034"/>
<path class="path-10" d="M212.174,35.034C257.108,35.413,274.642,42.390,289.445,57.528C294.055,61.904,310.445,83.715,301.729,89.606C298.380,91.565,292.437,87.506,289.457,86.141C279.192,81.700,237.957,74.429,179.637,88.239C169.272,90.693,159.628,92.339,149.622,94.557C145.285,95.506,139.934,98.107,135.968,95.735C127.042,90.644,136.946,67.798,141.338,61.858C155.858,42.722,186.927,34.822,212.174,35.034Z"/>
</g>
<g id="left_ear">
<path class="path-0" d="M295.634,189.812C294.564,185.959,304.561,161.816,306.205,159.607C311.217,152.872,322.698,163.425,323.635,169.919C324.635,178.036,312.789,185.841,306.102,190.548C301.233,193.865,297.000,194.732,295.634,189.812M331.905,174.004C333.712,161.382,322.947,144.487,310.581,147.149C297.519,149.960,296.048,167.280,291.940,177.549C290.225,182.187,287.512,186.816,286.793,191.465C285.370,199.768,288.614,207.123,297.952,205.231C311.293,202.386,329.418,188.284,331.905,174.004Z"/>
<path class="path-15" d="M306.205,159.607C311.217,152.872,322.698,163.425,323.635,169.919"/>
<path class="path-15" d="M323.635,169.919C324.635,178.036,312.789,185.841,306.102,190.548"/>
<path class="path-15" d="M306.102,190.548C301.233,193.865,297.000,194.732,295.634,189.812"/>
<path class="path-15" d="M295.634,189.812C294.564,185.959,304.561,161.816,306.205,159.607"/>
<path class="path-16" d="M306.205,159.607C311.217,152.872,322.698,163.425,323.635,169.919C324.635,178.036,312.789,185.841,306.102,190.548C301.233,193.865,297.000,194.732,295.634,189.812C294.564,185.959,304.561,161.816,306.205,159.607Z"/>
</g>
<g id="earrings">
<path class="path-0" d="M316.224,207.748C307.268,210.653,306.000,190.789,309.804,191.463C315.032,193.736,318.792,203.850,316.224,207.748M324.858,200.408C317.983,199.049,315.775,190.484,315.634,186.501C323.198,189.000,332.341,195.750,324.858,200.408M332.817,195.425C330.624,187.699,319.858,182.086,312.370,179.225C310.127,178.368,304.871,186.688,304.471,189.182C303.239,193.038,301.569,215.456,315.076,213.877C320.576,212.987,334.591,201.677,332.817,195.425Z"/>
<path class="path-21" d="M315.634,186.501C323.198,189.000,332.341,195.750,324.858,200.408"/>
<path class="path-21" d="M324.858,200.408C317.983,199.049,315.775,190.484,315.634,186.501"/>
<path class="path-22" d="M315.634,186.501C323.198,189.000,332.341,195.750,324.858,200.408C317.983,199.049,315.775,190.484,315.634,186.501Z"/>
<path class="path-21" d="M309.804,191.463C315.032,193.736,318.792,203.850,316.224,207.748"/>
<path class="path-21" d="M316.224,207.748C307.268,210.653,306.000,190.789,309.804,191.463"/>
<path class="path-22" d="M309.804,191.463C315.032,193.736,318.792,203.850,316.224,207.748C307.268,210.653,306.000,190.789,309.804,191.463Z"/>
</g>
</g>
<g id="jacket">
<path class="path-0" d="M197.857,272.676C200.501,277.012,197.799,287.314,197.780,291.970C195.714,308.931,192.663,325.173,192.914,341.860C193.093,345.827,191.833,352.762,189.901,356.956C188.509,359.978,185.953,364.570,183.176,365.774C179.756,367.196,178.358,360.451,177.444,357.602C176.180,353.662,177.341,346.419,177.602,343.798C178.449,338.592,181.055,328.507,180.936,321.857C180.869,315.327,177.385,309.054,176.734,301.884C175.813,296.523,174.408,290.201,173.305,284.235C173.351,281.086,173.892,279.137,173.969,276.912C173.653,271.431,176.318,270.046,181.564,269.622C186.408,269.575,196.213,267.348,197.857,272.676M254.058,282.533C255.739,278.883,281.685,261.452,285.052,259.713C293.407,255.891,297.517,265.211,297.425,270.619C297.390,279.300,282.526,307.858,284.201,313.861C284.785,316.548,286.896,317.839,288.569,319.501C301.526,333.696,295.512,325.139,309.087,331.435C315.387,334.421,327.264,343.113,332.640,347.333C335.949,350.264,343.496,356.748,345.348,360.457C346.458,363.278,347.514,368.506,343.228,369.709C341.755,370.324,325.658,369.403,322.921,369.490C310.583,369.217,297.251,369.889,286.943,361.543C283.620,358.541,280.987,354.192,278.344,350.186C268.764,336.174,262.177,320.517,257.271,304.197C255.302,298.526,252.032,288.518,254.058,282.533M270.738,257.403C267.682,260.526,261.607,265.575,259.433,266.586C251.524,269.759,250.005,260.211,249.504,254.247C249.256,249.099,252.247,241.816,255.337,237.478C258.058,233.656,262.444,228.419,267.544,227.705C273.979,226.569,284.860,233.424,283.462,240.729C283.037,244.084,275.138,252.905,270.738,257.403M188.721,235.509C193.626,239.447,197.182,244.160,196.335,248.632C195.537,252.844,192.461,255.202,185.261,257.664C173.937,261.535,165.029,244.166,168.559,237.027C171.248,231.590,182.416,230.448,188.721,235.509M359.602,366.179C355.703,359.998,353.744,355.364,348.480,349.841C340.487,341.619,330.910,332.344,320.981,326.721C311.081,321.447,303.201,323.012,296.578,312.183C290.740,302.999,294.947,292.728,296.440,282.392C296.815,278.698,297.509,259.817,297.592,256.429C297.155,253.013,297.578,249.567,297.077,246.437C296.587,242.573,297.105,238.449,295.788,234.784C293.816,228.123,286.843,225.103,281.532,221.759C274.229,217.742,267.914,215.825,259.597,217.691C250.480,219.749,247.345,229.890,244.758,236.628C240.813,246.899,242.848,262.275,243.218,273.272C243.430,279.566,244.471,288.292,245.344,294.156C248.365,316.909,271.582,365.198,292.855,374.213C297.514,376.553,328.965,380.758,338.828,380.819C344.924,380.888,348.010,380.768,353.583,382.787C356.301,383.893,363.051,387.074,365.626,384.338C369.499,380.484,361.736,369.563,359.602,366.179M202.639,235.431C199.360,229.675,193.948,220.118,187.174,219.668C180.778,219.450,171.051,220.729,165.248,224.100C161.751,226.131,156.451,229.888,156.062,233.965C155.345,240.042,157.906,247.312,160.974,252.009C162.739,254.709,167.032,256.630,169.114,259.034C170.206,260.366,174.284,267.690,175.012,269.696C179.019,279.847,174.552,291.883,173.923,301.370C173.400,309.267,172.040,319.741,171.375,327.627C170.613,336.647,169.955,347.882,169.224,357.725C168.932,359.998,168.849,365.070,169.076,368.207C169.314,371.488,169.156,377.612,170.820,379.031C171.662,379.750,181.845,381.183,186.019,379.344C190.239,377.485,193.606,377.350,196.144,367.778C199.062,355.617,200.902,344.502,201.290,331.858C201.384,310.267,207.893,281.226,207.198,268.056C206.881,262.045,207.953,258.051,206.732,249.663C206.122,246.201,204.839,239.291,202.639,235.431Z"/>
<path class="path-1" d="M285.052,259.713C293.407,255.891,297.517,265.211,297.425,270.619"/>
<path class="path-1" d="M297.425,270.619C297.390,279.300,282.526,307.858,284.201,313.861"/>
<path class="path-1" d="M284.201,313.861C284.785,316.548,286.896,317.839,288.569,319.501"/>
<path class="path-1" d="M288.569,319.501C301.526,333.696,295.512,325.139,309.087,331.435"/>
<path class="path-1" d="M309.087,331.435C315.387,334.421,327.264,343.113,332.640,347.333"/>
<path class="path-1" d="M332.640,347.333C335.949,350.264,343.496,356.748,345.348,360.457"/>
<path class="path-1" d="M345.348,360.457C346.458,363.278,347.514,368.506,343.228,369.709"/>
<path class="path-1" d="M343.228,369.709C341.755,370.324,325.658,369.403,322.921,369.490"/>
<path class="path-1" d="M322.921,369.490C310.583,369.217,297.251,369.889,286.943,361.543"/>
<path class="path-1" d="M286.943,361.543C283.620,358.541,280.987,354.192,278.344,350.186"/>
<path class="path-1" d="M278.344,350.186C268.764,336.174,262.177,320.517,257.271,304.197"/>
<path class="path-1" d="M257.271,304.197C255.302,298.526,252.032,288.518,254.058,282.533"/>
<path class="path-1" d="M254.058,282.533C255.739,278.883,281.685,261.452,285.052,259.713"/>
<path class="path-2" d="M285.052,259.713C293.407,255.891,297.517,265.211,297.425,270.619C297.390,279.300,282.526,307.858,284.201,313.861C284.785,316.548,286.896,317.839,288.569,319.501C301.526,333.696,295.512,325.139,309.087,331.435C315.387,334.421,327.264,343.113,332.640,347.333C335.949,350.264,343.496,356.748,345.348,360.457C346.458,363.278,347.514,368.506,343.228,369.709C341.755,370.324,325.658,369.403,322.921,369.490C310.583,369.217,297.251,369.889,286.943,361.543C283.620,358.541,280.987,354.192,278.344,350.186C268.764,336.174,262.177,320.517,257.271,304.197C255.302,298.526,252.032,288.518,254.058,282.533C255.739,278.883,281.685,261.452,285.052,259.713Z"/>
<path class="path-1" d="M181.564,269.622C186.408,269.575,196.213,267.348,197.857,272.676"/>
<path class="path-1" d="M197.857,272.676C200.501,277.012,197.799,287.314,197.780,291.970"/>
<path class="path-1" d="M197.780,291.970C195.714,308.931,192.663,325.173,192.914,341.860"/>
<path class="path-1" d="M192.914,341.860C193.093,345.827,191.833,352.762,189.901,356.956"/>
<path class="path-1" d="M189.901,356.956C188.509,359.978,185.953,364.570,183.176,365.774"/>
<path class="path-1" d="M183.176,365.774C179.756,367.196,178.358,360.451,177.444,357.602"/>
<path class="path-1" d="M177.444,357.602C176.180,353.662,177.341,346.419,177.602,343.798"/>
<path class="path-1" d="M177.602,343.798C178.449,338.592,181.055,328.507,180.936,321.857"/>
<path class="path-1" d="M180.936,321.857C180.869,315.327,177.385,309.054,176.734,301.884"/>
<path class="path-1" d="M176.734,301.884C175.813,296.523,174.408,290.201,173.305,284.235"/>
<path class="path-1" d="M173.305,284.235C173.351,281.086,173.892,279.137,173.969,276.912"/>
<path class="path-1" d="M173.969,276.912C173.653,271.431,176.318,270.046,181.564,269.622"/>
<path class="path-2" d="M181.564,269.622C186.408,269.575,196.213,267.348,197.857,272.676C200.501,277.012,197.799,287.314,197.780,291.970C195.714,308.931,192.663,325.173,192.914,341.860C193.093,345.827,191.833,352.762,189.901,356.956C188.509,359.978,185.953,364.570,183.176,365.774C179.756,367.196,178.358,360.451,177.444,357.602C176.180,353.662,177.341,346.419,177.602,343.798C178.449,338.592,181.055,328.507,180.936,321.857C180.869,315.327,177.385,309.054,176.734,301.884C175.813,296.523,174.408,290.201,173.305,284.235C173.351,281.086,173.892,279.137,173.969,276.912C173.653,271.431,176.318,270.046,181.564,269.622Z"/>
<path class="path-1" d="M267.544,227.705C273.979,226.569,284.860,233.424,283.462,240.729"/>
<path class="path-1" d="M283.462,240.729C283.037,244.084,275.138,252.905,270.738,257.403"/>
<path class="path-1" d="M270.738,257.403C267.682,260.526,261.607,265.575,259.433,266.586"/>
<path class="path-1" d="M259.433,266.586C251.524,269.759,250.005,260.211,249.504,254.247"/>
<path class="path-1" d="M249.504,254.247C249.256,249.099,252.247,241.816,255.337,237.478"/>
<path class="path-1" d="M255.337,237.478C258.058,233.656,262.444,228.419,267.544,227.705"/>
<path class="path-2" d="M267.544,227.705C273.979,226.569,284.860,233.424,283.462,240.729C283.037,244.084,275.138,252.905,270.738,257.403C267.682,260.526,261.607,265.575,259.433,266.586C251.524,269.759,250.005,260.211,249.504,254.247C249.256,249.099,252.247,241.816,255.337,237.478C258.058,233.656,262.444,228.419,267.544,227.705Z"/>
<path class="path-1" d="M188.721,235.509C193.626,239.447,197.182,244.160,196.335,248.632"/>
<path class="path-1" d="M196.335,248.632C195.537,252.844,192.461,255.202,185.261,257.664"/>
<path class="path-1" d="M185.261,257.664C173.937,261.535,165.029,244.166,168.559,237.027"/>
<path class="path-1" d="M168.559,237.027C171.248,231.590,182.416,230.448,188.721,235.509"/>
<path class="path-2" d="M188.721,235.509C193.626,239.447,197.182,244.160,196.335,248.632C195.537,252.844,192.461,255.202,185.261,257.664C173.937,261.535,165.029,244.166,168.559,237.027C171.248,231.590,182.416,230.448,188.721,235.509Z"/>
</g>
<g id="left_arm">
<path class="path-0" d="M290.774,457.444C287.888,451.905,287.306,442.909,295.073,441.190C300.495,439.946,323.924,446.992,327.597,451.260C334.075,458.068,329.002,472.326,320.150,474.991C309.949,477.563,295.430,466.152,290.774,457.444M277.742,279.959C278.163,276.671,285.123,265.421,290.264,265.824C293.249,266.058,295.340,270.817,296.702,273.313C300.503,281.174,304.594,289.267,307.872,297.603C316.952,320.072,324.261,342.855,328.950,366.220C330.565,375.545,329.015,387.909,331.713,396.453C334.972,406.364,341.510,403.528,344.021,410.050C345.125,413.135,344.041,418.727,345.684,423.520C348.124,431.042,353.466,435.445,355.773,440.288C357.235,443.065,357.674,446.096,353.976,446.493C351.911,447.343,346.670,445.971,344.678,445.827C338.163,443.580,331.652,441.328,325.148,439.062C316.340,436.406,289.252,433.003,285.056,426.684C278.781,416.867,290.542,406.727,292.570,397.531C293.436,394.665,300.248,352.057,299.507,349.212C298.564,342.693,293.710,337.621,291.265,331.142C288.363,322.180,285.378,312.581,282.712,303.184C280.603,295.164,276.199,288.908,277.742,279.959M300.439,254.639C297.481,250.352,289.067,243.145,283.324,245.301C278.569,247.320,278.752,253.342,278.652,257.389C278.406,267.504,277.596,276.020,278.950,285.572C279.600,292.536,281.179,298.694,282.737,305.196C284.523,313.703,285.408,330.452,286.413,340.313C287.078,349.748,289.318,359.558,288.409,367.689C285.872,386.702,275.179,403.925,274.415,423.004C273.710,432.531,276.340,432.701,278.025,440.482C279.261,446.573,277.440,452.783,279.339,458.595C284.195,473.971,300.431,488.863,317.599,486.811C333.415,484.991,335.344,468.120,344.307,459.782C352.202,452.365,366.502,457.438,369.112,449.292C371.624,442.473,362.571,434.125,359.321,428.543C352.772,418.046,358.587,416.147,355.515,408.245C353.287,402.409,346.037,396.858,342.933,389.289C341.189,385.820,340.700,379.431,339.648,375.026C337.464,364.054,335.858,351.507,333.573,340.063C331.286,327.248,328.131,316.179,322.827,303.549C318.704,293.380,306.219,262.219,300.439,254.639Z"/>
<path class="path-1" d="M290.264,265.824C293.249,266.058,295.340,270.817,296.702,273.313"/>
<path class="path-1" d="M296.702,273.313C300.503,281.174,304.594,289.267,307.872,297.603"/>
<path class="path-1" d="M307.872,297.603C316.952,320.072,324.261,342.855,328.950,366.220"/>
<path class="path-1" d="M328.950,366.220C330.565,375.545,329.015,387.909,331.713,396.453"/>
<path class="path-1" d="M331.713,396.453C334.972,406.364,341.510,403.528,344.021,410.050"/>
<path class="path-1" d="M344.021,410.050C345.125,413.135,344.041,418.727,345.684,423.520"/>
<path class="path-1" d="M345.684,423.520C348.124,431.042,353.466,435.445,355.773,440.288"/>
<path class="path-1" d="M355.773,440.288C357.235,443.065,357.674,446.096,353.976,446.493"/>
<path class="path-1" d="M353.976,446.493C351.911,447.343,346.670,445.971,344.678,445.827"/>
<path class="path-1" d="M344.678,445.827C338.163,443.580,331.652,441.328,325.148,439.062"/>
<path class="path-1" d="M325.148,439.062C316.340,436.406,289.252,433.003,285.056,426.684"/>
<path class="path-1" d="M285.056,426.684C278.781,416.867,290.542,406.727,292.570,397.531"/>
<path class="path-1" d="M292.570,397.531C293.436,394.665,300.248,352.057,299.507,349.212"/>
<path class="path-1" d="M299.507,349.212C298.564,342.693,293.710,337.621,291.265,331.142"/>
<path class="path-1" d="M291.265,331.142C288.363,322.180,285.378,312.581,282.712,303.184"/>
<path class="path-1" d="M282.712,303.184C280.603,295.164,276.199,288.908,277.742,279.959"/>
<path class="path-1" d="M277.742,279.959C278.163,276.671,285.123,265.421,290.264,265.824"/>
<path class="path-2" d="M290.264,265.824C293.249,266.058,295.340,270.817,296.702,273.313C300.503,281.174,304.594,289.267,307.872,297.603C316.952,320.072,324.261,342.855,328.950,366.220C330.565,375.545,329.015,387.909,331.713,396.453C334.972,406.364,341.510,403.528,344.021,410.050C345.125,413.135,344.041,418.727,345.684,423.520C348.124,431.042,353.466,435.445,355.773,440.288C357.235,443.065,357.674,446.096,353.976,446.493C351.911,447.343,346.670,445.971,344.678,445.827C338.163,443.580,331.652,441.328,325.148,439.062C316.340,436.406,289.252,433.003,285.056,426.684C278.781,416.867,290.542,406.727,292.570,397.531C293.436,394.665,300.248,352.057,299.507,349.212C298.564,342.693,293.710,337.621,291.265,331.142C288.363,322.180,285.378,312.581,282.712,303.184C280.603,295.164,276.199,288.908,277.742,279.959C278.163,276.671,285.123,265.421,290.264,265.824Z"/>
<path class="path-15" d="M295.073,441.190C300.495,439.946,323.924,446.992,327.597,451.260"/>
<path class="path-15" d="M327.597,451.260C334.075,458.068,329.002,472.326,320.150,474.991"/>
<path class="path-15" d="M320.150,474.991C309.949,477.563,295.430,466.152,290.774,457.444"/>
<path class="path-15" d="M290.774,457.444C287.888,451.905,287.306,442.909,295.073,441.190"/>
<path class="path-16" d="M295.073,441.190C300.495,439.946,323.924,446.992,327.597,451.260C334.075,458.068,329.002,472.326,320.150,474.991C309.949,477.563,295.430,466.152,290.774,457.444C287.888,451.905,287.306,442.909,295.073,441.190Z"/>
</g>
<g id="bone">
<g id="bone_B20">
<path class="path-23" d="M216.088,135.116C214.226,123.284,212.365,111.453,210.504,99.621"/>
</g>
<g id="bone_">
<path class="path-23" d="M552.381,338.786C552.557,314.805,552.733,290.824,552.909,266.843"/>
</g>
<g id="bone_">
<path class="path-23" d="M496.479,337.308C496.479,313.696,496.479,290.084,496.479,266.472"/>
</g>
<g id="bone_">
<path class="path-23" d="M436.410,337.308C435.537,313.712,434.663,290.116,433.789,266.520"/>
</g>
<g id="bone_">
<path class="path-23" d="M604.616,215.385C603.232,191.814,601.848,168.242,600.464,144.671"/>
</g>
<g id="bone_">
<path class="path-23" d="M436.410,216.411C433.589,192.968,430.768,169.525,427.947,146.082"/>
</g>
<g id="bone_">
<path class="path-23" d="M551.282,215.385C549.864,191.816,548.445,168.246,547.027,144.677"/>
</g>
<g id="bone_">
<path class="path-23" d="M495.897,216.411C484.015,196.006,472.133,175.602,460.251,155.197"/>
</g>
<g id="bone_B18">
<path class="path-23" d="M211.852,388.649C209.444,420.957,207.037,453.266,204.630,485.574"/>
</g>
<g id="bone_B17">
<path class="path-23" d="M258.006,388.649C262.293,421.748,266.579,454.846,270.866,487.945"/>
</g>
<g id="bone_B16">
<path class="path-23" d="M220.070,160.426C224.702,184.952,229.335,209.478,233.967,234.004"/>
</g>
<g id="bone_B14">
<path class="path-23" d="M147.358,384.270C154.791,401.904,162.224,419.538,169.657,437.171"/>
</g>
<g id="bone_B13">
<path class="path-23" d="M173.355,273.584C164.689,310.479,156.024,347.375,147.358,384.270"/>
</g>
<g id="bone_B11">
<path class="path-23" d="M314.258,347.803C315.014,369.801,315.769,391.799,316.525,413.797"/>
</g>
<g id="bone_B9">
<path class="path-23" d="M286.221,259.582C295.567,288.989,304.913,318.396,314.258,347.803"/>
</g>
<g id="bone_B5">
<path class="path-23" d="M228.536,214.236C224.386,187.863,220.237,161.489,216.088,135.116"/>
</g>
<g id="bone_B4">
<path class="path-23" d="M229.821,256.317C229.392,242.290,228.964,228.263,228.536,214.236"/>
</g>
<g id="bone_B3">
<path class="path-23" d="M234.718,329.154C233.086,304.875,231.453,280.596,229.821,256.317"/>
</g>
<g id="bone_B2">
<path class="path-23" d="M234.416,388.649C234.517,368.818,234.617,348.986,234.718,329.154"/>
</g>
<g id="bone_B1">
<path class="path-23" d="M234.416,388.649C246.393,388.649,258.370,388.649,270.347,388.649"/>
</g>
</g>
</g>
<style>
.path-0{fill:#000000;fill-rule:evenodd;stroke:none;}
.path-1{fill:none;stroke:#a60d3f;stroke-width:1;stroke-linecap:butt;stroke-linejoin:round;}
.path-2{fill:#a60d3f;fill-rule:evenodd;stroke:none;}
.path-3{fill:none;stroke:#d88e4b;stroke-width:1;stroke-linecap:butt;stroke-linejoin:round;}
.path-4{fill:#d88e4b;fill-rule:evenodd;stroke:none;}
.path-5{fill:none;stroke:#6e2353;stroke-width:1;stroke-linecap:butt;stroke-linejoin:round;}
.path-6{fill:#6e2353;fill-rule:evenodd;stroke:none;}
.path-7{fill:none;stroke:#392966;stroke-width:1;stroke-linecap:butt;stroke-linejoin:round;}
.path-8{fill:#392966;fill-rule:evenodd;stroke:none;}
.path-9{fill:none;stroke:#cc9bc5;stroke-width:1;stroke-linecap:butt;stroke-linejoin:round;}
.path-10{fill:#cc9bc5;fill-rule:evenodd;stroke:none;}
.path-11{fill:none;stroke:#620527;stroke-width:1;stroke-linecap:butt;stroke-linejoin:round;}
.path-12{fill:#620527;fill-rule:evenodd;stroke:none;}
.path-13{fill:none;stroke:#6a3661;stroke-width:1;stroke-linecap:butt;stroke-linejoin:round;}
.path-14{fill:#6a3661;fill-rule:evenodd;stroke:none;}
.path-15{fill:none;stroke:#f8a087;stroke-width:1;stroke-linecap:butt;stroke-linejoin:round;}
.path-16{fill:#f8a087;fill-rule:evenodd;stroke:none;}
.path-17{fill:none;stroke:#ffffff;stroke-width:1;stroke-linecap:butt;stroke-linejoin:round;}
.path-18{fill:#ffffff;fill-rule:evenodd;stroke:none;}
.path-19{fill:none;stroke:#d89f4a;stroke-width:1;stroke-linecap:butt;stroke-linejoin:round;}
.path-20{fill:#d89f4a;fill-rule:evenodd;stroke:none;}
.path-21{fill:none;stroke:#fafd5b;stroke-width:1;stroke-linecap:butt;stroke-linejoin:round;}
.path-22{fill:#fafd5b;fill-rule:evenodd;stroke:none;}
.path-23{fill:none;stroke:#00ff00;stroke-width:8;stroke-linecap:round;stroke-linejoin:round;}
.path-24{fill:none;stroke:#fafafa;stroke-width:1;stroke-linecap:butt;stroke-linejoin:round;}
.path-25{fill:#fafafa;fill-rule:evenodd;stroke:none;}
.path-26{fill:none;stroke:#ececec;stroke-width:1;stroke-linecap:butt;stroke-linejoin:round;}
.path-27{fill:#ececec;fill-rule:evenodd;stroke:none;}
.path-28{fill:none;stroke:#d7d7d7;stroke-width:1;stroke-linecap:butt;stroke-linejoin:round;}
.path-29{fill:#d7d7d7;fill-rule:evenodd;stroke:none;}
.path-30{fill:none;stroke:#bdbdbd;stroke-width:1;stroke-linecap:butt;stroke-linejoin:round;}
.path-31{fill:#bdbdbd;fill-rule:evenodd;stroke:none;}
.path-32{fill:none;stroke:#9f9f9f;stroke-width:1;stroke-linecap:butt;stroke-linejoin:round;}
.path-33{fill:#9f9f9f;fill-rule:evenodd;stroke:none;}
.path-34{fill:none;stroke:#808080;stroke-width:1;stroke-linecap:butt;stroke-linejoin:round;}
.path-35{fill:#808080;fill-rule:evenodd;stroke:none;}
.path-36{fill:none;stroke:#606060;stroke-width:1;stroke-linecap:butt;stroke-linejoin:round;}
.path-37{fill:#606060;fill-rule:evenodd;stroke:none;}
.path-38{fill:none;stroke:#424242;stroke-width:1;stroke-linecap:butt;stroke-linejoin:round;}
.path-39{fill:#424242;fill-rule:evenodd;stroke:none;}
.path-40{fill:none;stroke:#282828;stroke-width:1;stroke-linecap:butt;stroke-linejoin:round;}
.path-41{fill:#282828;fill-rule:evenodd;stroke:none;}
.path-42{fill:none;stroke:#131313;stroke-width:1;stroke-linecap:butt;stroke-linejoin:round;}
.path-43{fill:#131313;fill-rule:evenodd;stroke:none;}
.path-44{fill:none;stroke:#050505;stroke-width:1;stroke-linecap:butt;stroke-linejoin:round;}
.path-45{fill:#050505;fill-rule:evenodd;stroke:none;}
.path-46{fill:none;stroke:#000000;stroke-width:1;stroke-linecap:butt;stroke-linejoin:round;}
</style>
</svg>
