<svg version="1.1" id="Frame_171" xmlns="http://www.w3.org/2000/svg" xmlns:xlink="http://www.w3.org/1999/xlink" width="480px" height="720px">
<g id="main_bone">
<g id="right_arm">
<path class="path-0" d="M174.126,270.172C175.458,267.511,178.075,262.017,181.778,260.525C188.182,257.943,193.652,263.933,194.431,268.509C196.093,276.447,190.936,287.396,188.470,295.289C182.390,314.329,175.637,333.084,171.132,352.015C170.600,355.317,165.808,376.634,165.808,373.973C165.476,380.626,172.130,386.283,174.459,391.939C177.454,399.590,174.791,406.910,172.795,413.897C168.138,428.535,168.471,433.858,167.804,448.165C167.804,450.492,167.473,458.146,163.812,458.146C160.487,458.146,160.153,452.157,159.488,449.828C159.155,447.167,156.825,441.510,157.492,439.182C157.823,435.190,162.483,436.188,157.492,427.870C151.170,417.555,139.526,409.240,136.532,395.931C134.536,385.285,140.191,375.969,143.186,365.988C149.508,344.695,156.494,323.404,163.812,302.111C167.805,291.132,168.802,281.484,174.126,270.172M193.754,262.188C193.755,253.538,190.761,245.885,180.115,249.546C163.481,255.200,158.822,281.484,154.165,296.122C147.512,316.084,141.855,336.046,136.199,356.007C133.870,364.657,130.544,368.982,129.212,373.973C127.549,379.628,127.881,388.280,128.214,393.935C128.214,411.567,133.869,412.234,140.856,425.874C144.517,433.859,140.525,438.849,142.852,445.835C144.517,450.492,148.176,453.820,150.837,457.813C153.166,461.805,153.499,464.135,155.162,467.793C157.158,472.119,163.481,481.767,169.136,479.771C173.793,478.108,173.793,469.790,174.126,465.797C174.459,459.809,178.119,436.853,179.450,429.866C181.778,418.554,187.435,406.245,185.770,393.935C184.440,384.619,176.122,377.965,176.456,367.985C176.787,362.661,180.115,354.011,181.113,348.023C182.776,338.375,182.776,328.061,184.772,318.081C188.099,300.448,194.421,280.487,193.754,262.188Z"/>
<path class="path-1" d="M181.778,260.525C188.182,257.943,193.652,263.933,194.431,268.509"/>
<path class="path-1" d="M194.431,268.509C196.093,276.447,190.936,287.396,188.470,295.289"/>
<path class="path-1" d="M188.470,295.289C182.390,314.329,175.637,333.084,171.132,352.015"/>
<path class="path-1" d="M171.132,352.015C170.600,355.317,165.808,376.634,165.808,373.973"/>
<path class="path-1" d="M165.808,373.973C165.476,380.626,172.130,386.283,174.459,391.939"/>
<path class="path-1" d="M174.459,391.939C177.454,399.590,174.791,406.910,172.795,413.897"/>
<path class="path-1" d="M172.795,413.897C168.138,428.535,168.471,433.858,167.804,448.165"/>
<path class="path-1" d="M167.804,448.165C167.804,450.492,167.473,458.146,163.812,458.146"/>
<path class="path-1" d="M163.812,458.146C160.487,458.146,160.153,452.157,159.488,449.828"/>
<path class="path-1" d="M159.488,449.828C159.155,447.167,156.825,441.510,157.492,439.182"/>
<path class="path-1" d="M157.492,439.182C157.823,435.190,162.483,436.188,157.492,427.870"/>
<path class="path-1" d="M157.492,427.870C151.170,417.555,139.526,409.240,136.532,395.931"/>
<path class="path-1" d="M136.532,395.931C134.536,385.285,140.191,375.969,143.186,365.988"/>
<path class="path-1" d="M143.186,365.988C149.508,344.695,156.494,323.404,163.812,302.111"/>
<path class="path-1" d="M163.812,302.111C167.805,291.132,168.802,281.484,174.126,270.172"/>
<path class="path-1" d="M174.126,270.172C175.458,267.511,178.075,262.017,181.778,260.525"/>
<path class="path-2" d="M181.778,260.525C188.182,257.943,193.652,263.933,194.431,268.509C196.093,276.447,190.936,287.396,188.470,295.289C182.390,314.329,175.637,333.084,171.132,352.015C170.600,355.317,165.808,376.634,165.808,373.973C165.476,380.626,172.130,386.283,174.459,391.939C177.454,399.590,174.791,406.910,172.795,413.897C168.138,428.535,168.471,433.858,167.804,448.165C167.804,450.492,167.473,458.146,163.812,458.146C160.487,458.146,160.153,452.157,159.488,449.828C159.155,447.167,156.825,441.510,157.492,439.182C157.823,435.190,162.483,436.188,157.492,427.870C151.170,417.555,139.526,409.240,136.532,395.931C134.536,385.285,140.191,375.969,143.186,365.988C149.508,344.695,156.494,323.404,163.812,302.111C167.805,291.132,168.802,281.484,174.126,270.172C175.458,267.511,178.075,262.017,181.778,260.525Z"/>
</g>
<g id="layer_left_leg">
<g id="left_heel">
<path class="path-0" d="M255.863,629.503C248.837,617.906,262.746,598.734,274.076,596.462C291.516,592.777,304.538,618.582,302.370,624.835C298.748,634.308,282.210,634.573,273.566,634.622C268.939,634.496,258.092,633.358,255.863,629.503M302.352,595.345C292.476,585.663,269.891,587.482,258.958,593.734C236.005,606.285,231.100,648.260,264.958,647.217C276.725,646.910,302.686,644.600,309.665,637.394C315.794,631.793,313.859,622.314,311.990,614.779C310.083,608.669,306.995,600.029,302.352,595.345Z"/>
<path class="path-3" d="M274.076,596.462C291.516,592.777,304.538,618.582,302.370,624.835"/>
<path class="path-3" d="M302.370,624.835C298.748,634.308,282.210,634.573,273.566,634.622"/>
<path class="path-3" d="M273.566,634.622C268.939,634.496,258.092,633.358,255.863,629.503"/>
<path class="path-3" d="M255.863,629.503C248.837,617.906,262.746,598.734,274.076,596.462"/>
<path class="path-4" d="M274.076,596.462C291.516,592.777,304.538,618.582,302.370,624.835C298.748,634.308,282.210,634.573,273.566,634.622C268.939,634.496,258.092,633.358,255.863,629.503C248.837,617.906,262.746,598.734,274.076,596.462Z"/>
</g>
<g id="left_leg">
<path class="path-0" d="M238.898,405.789C240.604,401.168,250.098,404.782,253.973,404.581C259.846,404.560,273.072,402.463,277.855,406.066C286.438,412.094,288.468,441.114,288.878,451.196C289.253,482.567,291.161,511.970,291.981,542.254C292.003,548.971,291.927,555.907,292.115,562.490C292.482,567.717,291.226,574.318,294.519,578.000C295.754,579.993,300.303,579.061,300.283,581.235C299.673,589.763,291.983,584.925,287.683,589.227C279.968,596.485,265.807,603.323,256.535,600.760C250.125,599.217,239.383,591.674,236.984,585.628C234.661,579.773,233.158,572.679,232.143,566.585C227.573,539.163,243.283,481.235,236.969,451.564C232.953,432.690,241.791,431.824,248.859,418.713C250.003,416.592,238.379,419.085,236.730,417.280C234.439,415.143,237.683,408.599,238.898,405.789M285.012,397.243C278.729,392.462,261.295,394.525,253.973,394.933C249.979,395.140,237.470,392.116,234.523,393.929C216.631,404.938,223.696,444.839,225.629,461.859C225.851,466.629,224.622,489.393,224.263,495.811C224.344,523.391,218.272,546.960,219.962,574.488C220.334,582.232,219.857,589.902,222.605,597.038C229.867,615.502,247.075,618.660,269.824,617.268C281.803,616.546,308.080,611.256,316.566,588.699C319.998,579.564,314.308,567.288,312.915,564.291C310.673,559.466,307.335,554.784,306.068,549.225C301.411,531.621,307.936,512.846,306.613,494.578C304.946,471.253,304.626,412.235,285.012,397.243Z"/>
<path class="path-7" d="M253.973,404.581C259.846,404.560,273.072,402.463,277.855,406.066"/>
<path class="path-7" d="M277.855,406.066C286.438,412.094,288.468,441.114,288.878,451.196"/>
<path class="path-7" d="M288.878,451.196C289.253,482.567,291.161,511.970,291.981,542.254"/>
<path class="path-7" d="M291.981,542.254C292.003,548.971,291.927,555.907,292.115,562.490"/>
<path class="path-7" d="M292.115,562.490C292.482,567.717,291.226,574.318,294.519,578.000"/>
<path class="path-7" d="M294.519,578.000C295.754,579.993,300.303,579.061,300.283,581.235"/>
<path class="path-7" d="M300.283,581.235C299.673,589.763,291.983,584.925,287.683,589.227"/>
<path class="path-7" d="M287.683,589.227C279.968,596.485,265.807,603.323,256.535,600.760"/>
<path class="path-7" d="M256.535,600.760C250.125,599.217,239.383,591.674,236.984,585.628"/>
<path class="path-7" d="M236.984,585.628C234.661,579.773,233.158,572.679,232.143,566.585"/>
<path class="path-7" d="M232.143,566.585C227.573,539.163,243.283,481.235,236.969,451.564"/>
<path class="path-7" d="M236.969,451.564C232.953,432.690,241.791,431.824,248.859,418.713"/>
<path class="path-7" d="M248.859,418.713C250.003,416.592,238.379,419.085,236.730,417.280"/>
<path class="path-7" d="M236.730,417.280C234.439,415.143,237.683,408.599,238.898,405.789"/>
<path class="path-7" d="M238.898,405.789C240.604,401.168,250.098,404.782,253.973,404.581"/>
<path class="path-8" d="M253.973,404.581C259.846,404.560,273.072,402.463,277.855,406.066C286.438,412.094,288.468,441.114,288.878,451.196C289.253,482.567,291.161,511.970,291.981,542.254C292.003,548.971,291.927,555.907,292.115,562.490C292.482,567.717,291.226,574.318,294.519,578.000C295.754,579.993,300.303,579.061,300.283,581.235C299.673,589.763,291.983,584.925,287.683,589.227C279.968,596.485,265.807,603.323,256.535,600.760C250.125,599.217,239.383,591.674,236.984,585.628C234.661,579.773,233.158,572.679,232.143,566.585C227.573,539.163,243.283,481.235,236.969,451.564C232.953,432.690,241.791,431.824,248.859,418.713C250.003,416.592,238.379,419.085,236.730,417.280C234.439,415.143,237.683,408.599,238.898,405.789C240.604,401.168,250.098,404.782,253.973,404.581Z"/>
</g>
<g id="left_toe">
<path class="path-0" d="M252.012,659.246C225.303,654.292,230.689,619.498,250.891,612.621C271.897,605.608,291.492,617.490,297.503,630.252C301.244,637.032,302.895,644.400,299.258,651.439C291.498,663.820,264.878,661.550,252.012,659.246M313.517,625.558C310.278,611.451,298.691,598.593,287.123,594.783C259.115,585.677,234.442,593.346,225.243,618.683C219.419,633.201,222.671,649.611,232.390,661.868C240.061,670.946,266.579,672.202,277.892,671.207C287.919,669.624,300.425,666.967,307.367,658.500C312.330,652.626,315.151,632.896,313.517,625.558Z"/>
<path class="path-3" d="M250.891,612.621C271.897,605.608,291.492,617.490,297.503,630.252"/>
<path class="path-3" d="M297.503,630.252C301.244,637.032,302.895,644.400,299.258,651.439"/>
<path class="path-3" d="M299.258,651.439C291.498,663.820,264.878,661.550,252.012,659.246"/>
<path class="path-3" d="M252.012,659.246C225.303,654.292,230.689,619.498,250.891,612.621"/>
<path class="path-4" d="M250.891,612.621C271.897,605.608,291.492,617.490,297.503,630.252C301.244,637.032,302.895,644.400,299.258,651.439C291.498,663.820,264.878,661.550,252.012,659.246C225.303,654.292,230.689,619.498,250.891,612.621Z"/>
</g>
<g id="left_sole">
<path class="path-0" d="M255.898,674.297C244.934,673.905,241.625,659.915,240.224,665.056C239.327,668.348,248.312,671.444,252.401,672.604C261.404,675.506,276.782,674.146,285.791,669.823C288.728,668.693,298.140,665.928,298.163,666.178C298.533,670.261,287.623,670.649,283.968,671.087C280.496,671.853,256.808,674.121,255.898,674.297M240.542,665.390C245.981,663.450,256.994,667.609,261.172,668.736C277.815,673.226,287.488,663.947,295.519,663.519C296.299,663.486,298.952,661.813,299.372,663.978C300.818,671.435,269.592,676.824,254.964,672.141C248.007,670.594,238.572,666.092,240.542,665.390M304.176,656.718C300.962,653.891,283.284,661.328,265.945,661.623C257.482,661.792,236.349,650.192,230.715,659.861C229.534,661.899,230.242,669.256,231.948,670.812C243.374,681.557,296.937,678.115,303.126,673.075C305.188,671.396,308.276,660.324,304.176,656.718Z"/>
<path class="path-5" d="M240.224,665.056C239.327,668.348,248.312,671.444,252.401,672.604"/>
<path class="path-5" d="M252.401,672.604C261.404,675.506,276.782,674.146,285.791,669.823"/>
<path class="path-5" d="M285.791,669.823C288.728,668.693,298.140,665.928,298.163,666.178"/>
<path class="path-5" d="M298.163,666.178C298.533,670.261,287.623,670.649,283.968,671.087"/>
<path class="path-5" d="M283.968,671.087C280.496,671.853,256.808,674.121,255.898,674.297"/>
<path class="path-5" d="M255.898,674.297C244.934,673.905,241.625,659.915,240.224,665.056"/>
<path class="path-6" d="M240.224,665.056C239.327,668.348,248.312,671.444,252.401,672.604C261.404,675.506,276.782,674.146,285.791,669.823C288.728,668.693,298.140,665.928,298.163,666.178C298.533,670.261,287.623,670.649,283.968,671.087C280.496,671.853,256.808,674.121,255.898,674.297C244.934,673.905,241.625,659.915,240.224,665.056Z"/>
<path class="path-5" d="M261.172,668.736C277.815,673.226,287.488,663.947,295.519,663.519"/>
<path class="path-5" d="M295.519,663.519C296.299,663.486,298.952,661.813,299.372,663.978"/>
<path class="path-5" d="M299.372,663.978C300.818,671.435,269.592,676.824,254.964,672.141"/>
<path class="path-5" d="M254.964,672.141C248.007,670.594,238.572,666.092,240.542,665.390"/>
<path class="path-5" d="M240.542,665.390C245.981,663.450,256.994,667.609,261.172,668.736"/>
<path class="path-6" d="M261.172,668.736C277.815,673.226,287.488,663.947,295.519,663.519C296.299,663.486,298.952,661.813,299.372,663.978C300.818,671.435,269.592,676.824,254.964,672.141C248.007,670.594,238.572,666.092,240.542,665.390C245.981,663.450,256.994,667.609,261.172,668.736Z"/>
</g>
</g>
<g id="layer_right_leg">
<g id="right_heel">
<path class="path-0" d="M183.869,615.703C184.678,599.458,185.859,586.856,205.680,583.981C214.536,582.534,231.412,585.331,236.286,593.895C238.844,598.140,238.060,604.370,238.301,608.906C238.757,616.285,243.236,630.535,232.834,632.240C232.168,632.416,213.797,632.694,208.064,632.832C200.638,633.701,192.918,634.234,187.551,629.088C184.855,625.934,183.608,619.465,183.869,615.703M245.781,592.196C241.874,581.835,227.621,575.999,217.593,577.468C204.563,579.215,191.222,574.901,182.735,587.098C176.171,596.530,175.393,613.862,177.353,624.865C178.095,629.980,181.320,639.309,185.569,642.142C188.684,644.123,193.499,643.552,197.182,643.557C215.169,643.871,247.316,650.004,246.932,623.165C246.761,616.306,247.805,597.623,245.781,592.196Z"/>
<path class="path-3" d="M205.680,583.981C214.536,582.534,231.412,585.331,236.286,593.895"/>
<path class="path-3" d="M236.286,593.895C238.844,598.140,238.060,604.370,238.301,608.906"/>
<path class="path-3" d="M238.301,608.906C238.757,616.285,243.236,630.535,232.834,632.240"/>
<path class="path-3" d="M232.834,632.240C232.168,632.416,213.797,632.694,208.064,632.832"/>
<path class="path-3" d="M208.064,632.832C200.638,633.701,192.918,634.234,187.551,629.088"/>
<path class="path-3" d="M187.551,629.088C184.855,625.934,183.608,619.465,183.869,615.703"/>
<path class="path-3" d="M183.869,615.703C184.678,599.458,185.859,586.856,205.680,583.981"/>
<path class="path-4" d="M205.680,583.981C214.536,582.534,231.412,585.331,236.286,593.895C238.844,598.140,238.060,604.370,238.301,608.906C238.757,616.285,243.236,630.535,232.834,632.240C232.168,632.416,213.797,632.694,208.064,632.832C200.638,633.701,192.918,634.234,187.551,629.088C184.855,625.934,183.608,619.465,183.869,615.703C184.678,599.458,185.859,586.856,205.680,583.981Z"/>
</g>
<g id="right_leg">
<path class="path-0" d="M183.068,404.719C186.654,392.894,202.326,390.147,212.784,393.055C218.614,394.548,228.321,397.417,231.565,402.886C233.116,405.502,233.724,410.377,232.190,413.002C229.719,417.229,213.890,415.277,217.059,419.116C222.440,425.817,231.881,416.066,236.239,419.828C238.262,421.575,238.390,425.304,238.775,428.368C242.638,450.033,235.806,473.074,235.323,494.418C235.099,501.306,233.107,511.435,234.216,517.725C236.476,533.629,234.768,536.936,235.103,546.466C235.007,549.988,233.129,567.823,234.213,572.426C235.408,577.090,238.394,581.663,238.852,586.480C239.631,594.669,228.374,605.956,221.056,608.346C213.004,610.799,187.976,609.481,180.361,605.393C177.107,603.767,173.229,599.701,171.897,596.038C170.547,592.865,168.436,577.985,169.358,574.357C171.248,567.941,173.635,566.587,175.646,559.018C177.684,550.152,180.115,540.607,179.573,531.312C178.084,511.929,178.827,481.867,181.014,468.244C182.090,460.311,180.452,433.626,181.543,426.284C183.371,414.704,181.264,412.461,183.068,404.719M208.062,381.294C202.406,379.297,198.066,373.929,192.092,375.969C190.302,376.752,187.174,378.986,185.903,380.278C169.943,394.024,171.135,407.833,171.094,427.391C170.785,434.427,170.714,441.735,170.158,448.481C169.586,454.060,168.057,458.702,166.832,463.832C166.104,468.083,165.431,472.620,165.241,477.950C165.180,483.552,166.710,490.119,166.848,499.632C166.266,509.778,166.934,519.356,166.470,529.060C166.382,535.204,163.499,549.441,162.616,554.108C160.357,560.867,156.888,568.598,155.334,575.151C153.806,583.777,155.683,592.847,159.091,600.423C160.751,604.699,163.678,609.795,166.855,612.711C168.951,614.635,171.740,615.878,174.275,616.833C181.841,619.635,189.093,620.955,197.227,621.336C202.873,621.643,208.454,620.373,214.325,620.710C215.352,620.612,223.796,621.863,225.460,621.929C228.286,621.878,232.246,619.415,234.804,617.869C238.078,615.639,243.712,614.744,246.496,611.772C248.999,609.097,250.341,605.498,251.734,602.107C259.523,582.365,252.317,570.915,249.785,552.550C248.396,542.481,246.222,521.732,246.510,510.478C246.579,496.782,249.665,483.595,250.569,469.504C250.953,464.957,251.348,459.502,252.096,454.354C252.736,449.338,251.564,445.291,251.326,440.316C250.910,436.449,251.231,424.041,250.646,419.885C250.271,416.185,250.314,411.567,248.983,407.908C245.324,398.592,231.351,388.280,222.034,385.285C217.377,383.621,212.387,383.290,208.062,381.294Z"/>
<path class="path-7" d="M212.784,393.055C218.614,394.548,228.321,397.417,231.565,402.886"/>
<path class="path-7" d="M231.565,402.886C233.116,405.502,233.724,410.377,232.190,413.002"/>
<path class="path-7" d="M232.190,413.002C229.719,417.229,213.890,415.277,217.059,419.116"/>
<path class="path-7" d="M217.059,419.116C222.440,425.817,231.881,416.066,236.239,419.828"/>
<path class="path-7" d="M236.239,419.828C238.262,421.575,238.390,425.304,238.775,428.368"/>
<path class="path-7" d="M238.775,428.368C242.638,450.033,235.806,473.074,235.323,494.418"/>
<path class="path-7" d="M235.323,494.418C235.099,501.306,233.107,511.435,234.216,517.725"/>
<path class="path-7" d="M234.216,517.725C236.476,533.629,234.768,536.936,235.103,546.466"/>
<path class="path-7" d="M235.103,546.466C235.007,549.988,233.129,567.823,234.213,572.426"/>
<path class="path-7" d="M234.213,572.426C235.408,577.090,238.394,581.663,238.852,586.480"/>
<path class="path-7" d="M238.852,586.480C239.631,594.669,228.374,605.956,221.056,608.346"/>
<path class="path-7" d="M221.056,608.346C213.004,610.799,187.976,609.481,180.361,605.393"/>
<path class="path-7" d="M180.361,605.393C177.107,603.767,173.229,599.701,171.897,596.038"/>
<path class="path-7" d="M171.897,596.038C170.547,592.865,168.436,577.985,169.358,574.357"/>
<path class="path-7" d="M169.358,574.357C171.248,567.941,173.635,566.587,175.646,559.018"/>
<path class="path-7" d="M175.646,559.018C177.684,550.152,180.115,540.607,179.573,531.312"/>
<path class="path-7" d="M179.573,531.312C178.084,511.929,178.827,481.867,181.014,468.244"/>
<path class="path-7" d="M181.014,468.244C182.090,460.311,180.452,433.626,181.543,426.284"/>
<path class="path-7" d="M181.543,426.284C183.371,414.704,181.264,412.461,183.068,404.719"/>
<path class="path-7" d="M183.068,404.719C186.654,392.894,202.326,390.147,212.784,393.055"/>
<path class="path-8" d="M212.784,393.055C218.614,394.548,228.321,397.417,231.565,402.886C233.116,405.502,233.724,410.377,232.190,413.002C229.719,417.229,213.890,415.277,217.059,419.116C222.440,425.817,231.881,416.066,236.239,419.828C238.262,421.575,238.390,425.304,238.775,428.368C242.638,450.033,235.806,473.074,235.323,494.418C235.099,501.306,233.107,511.435,234.216,517.725C236.476,533.629,234.768,536.936,235.103,546.466C235.007,549.988,233.129,567.823,234.213,572.426C235.408,577.090,238.394,581.663,238.852,586.480C239.631,594.669,228.374,605.956,221.056,608.346C213.004,610.799,187.976,609.481,180.361,605.393C177.107,603.767,173.229,599.701,171.897,596.038C170.547,592.865,168.436,577.985,169.358,574.357C171.248,567.941,173.635,566.587,175.646,559.018C177.684,550.152,180.115,540.607,179.573,531.312C178.084,511.929,178.827,481.867,181.014,468.244C182.090,460.311,180.452,433.626,181.543,426.284C183.371,414.704,181.264,412.461,183.068,404.719C186.654,392.894,202.326,390.147,212.784,393.055Z"/>
</g>
<g id="right_toe">
<path class="path-0" d="M168.231,641.979C169.584,628.912,174.861,612.150,190.773,609.885C194.465,609.162,199.664,610.904,203.764,611.732C224.646,615.891,232.835,620.513,233.536,641.979C233.608,647.822,234.477,655.066,230.119,659.761C225.721,664.417,204.924,661.880,198.574,662.138C187.376,662.837,177.723,668.041,170.020,658.246C165.507,652.381,167.528,648.865,168.231,641.979M241.853,619.689C234.966,605.868,202.896,597.565,188.426,600.177C166.844,604.197,159.734,621.094,158.316,639.408C157.762,645.942,156.935,653.132,160.206,658.905C161.373,660.964,163.850,663.705,165.560,665.351C178.472,678.869,187.867,677.249,205.298,677.070C214.524,677.130,229.839,676.204,237.252,670.031C242.760,664.993,243.371,659.528,243.643,652.499C243.663,645.736,244.603,624.701,241.853,619.689Z"/>
<path class="path-3" d="M190.773,609.885C194.465,609.162,199.664,610.904,203.764,611.732"/>
<path class="path-3" d="M203.764,611.732C224.646,615.891,232.835,620.513,233.536,641.979"/>
<path class="path-3" d="M233.536,641.979C233.608,647.822,234.477,655.066,230.119,659.761"/>
<path class="path-3" d="M230.119,659.761C225.721,664.417,204.924,661.880,198.574,662.138"/>
<path class="path-3" d="M198.574,662.138C187.376,662.837,177.723,668.041,170.020,658.246"/>
<path class="path-3" d="M170.020,658.246C165.507,652.381,167.528,648.865,168.231,641.979"/>
<path class="path-3" d="M168.231,641.979C169.584,628.912,174.861,612.150,190.773,609.885"/>
<path class="path-4" d="M190.773,609.885C194.465,609.162,199.664,610.904,203.764,611.732C224.646,615.891,232.835,620.513,233.536,641.979C233.608,647.822,234.477,655.066,230.119,659.761C225.721,664.417,204.924,661.880,198.574,662.138C187.376,662.837,177.723,668.041,170.020,658.246C165.507,652.381,167.528,648.865,168.231,641.979C169.584,628.912,174.861,612.150,190.773,609.885Z"/>
</g>
<g id="right_sole">
<path class="path-0" d="M186.277,673.593C187.783,673.917,203.053,673.850,204.768,673.845C206.158,673.863,214.627,673.818,215.813,673.731C216.547,673.695,223.961,673.395,224.527,673.864C224.047,673.366,216.049,674.870,215.578,674.883C214.661,674.944,188.616,674.790,188.312,674.896C187.106,674.930,175.977,673.941,175.261,672.973C176.435,672.448,184.545,673.218,186.277,673.593M225.032,667.220C225.078,667.493,223.513,669.106,223.101,669.105C222.270,669.108,209.402,670.523,208.302,670.308C207.041,670.287,198.428,671.312,197.291,671.300C195.023,671.275,177.326,669.728,175.418,668.527C175.289,668.410,174.867,667.726,174.886,667.630C174.948,667.350,181.817,668.313,182.906,668.309C184.618,668.303,198.170,667.135,199.924,667.072C201.813,667.004,216.367,667.265,218.302,667.102C218.604,667.085,224.903,666.541,225.032,667.220M230.669,662.646C219.619,659.545,210.827,663.900,200.873,664.203C193.572,664.455,179.556,662.858,170.669,664.630C169.273,664.908,166.610,664.736,166.184,666.179C165.644,668.028,169.183,672.009,171.438,673.497C174.234,675.343,180.065,675.382,182.377,675.736C194.100,677.966,209.009,676.807,221.072,676.333C229.984,675.990,232.225,672.426,233.127,668.149C233.500,666.379,234.109,663.563,230.669,662.646Z"/>
<path class="path-24" d="M186.277,673.593C187.783,673.917,203.053,673.850,204.768,673.845"/>
<path class="path-24" d="M204.768,673.845C206.158,673.863,214.627,673.818,215.813,673.731"/>
<path class="path-24" d="M215.813,673.731C216.547,673.695,223.961,673.395,224.527,673.864"/>
<path class="path-24" d="M224.527,673.864C224.047,673.366,216.049,674.870,215.578,674.883"/>
<path class="path-24" d="M215.578,674.883C214.661,674.944,188.616,674.790,188.312,674.896"/>
<path class="path-24" d="M188.312,674.896C187.106,674.930,175.977,673.941,175.261,672.973"/>
<path class="path-24" d="M175.261,672.973C176.435,672.448,184.545,673.218,186.277,673.593"/>
<path class="path-0" d="M186.277,673.593C187.783,673.917,203.053,673.850,204.768,673.845C206.158,673.863,214.627,673.818,215.813,673.731C216.547,673.695,223.961,673.395,224.527,673.864C224.047,673.366,216.049,674.870,215.578,674.883C214.661,674.944,188.616,674.790,188.312,674.896C187.106,674.930,175.977,673.941,175.261,672.973C176.435,672.448,184.545,673.218,186.277,673.593Z"/>
<path class="path-5" d="M182.906,668.309C184.618,668.303,198.170,667.135,199.924,667.072"/>
<path class="path-5" d="M199.924,667.072C201.813,667.004,216.367,667.265,218.302,667.102"/>
<path class="path-5" d="M218.302,667.102C218.604,667.085,224.903,666.541,225.032,667.220"/>
<path class="path-5" d="M225.032,667.220C225.078,667.493,223.513,669.106,223.101,669.105"/>
<path class="path-5" d="M223.101,669.105C222.270,669.108,209.402,670.523,208.302,670.308"/>
<path class="path-5" d="M208.302,670.308C207.041,670.287,198.428,671.312,197.291,671.300"/>
<path class="path-5" d="M197.291,671.300C195.023,671.275,177.326,669.728,175.418,668.527"/>
<path class="path-5" d="M175.418,668.527C175.289,668.410,174.867,667.726,174.886,667.630"/>
<path class="path-5" d="M174.886,667.630C174.948,667.350,181.817,668.313,182.906,668.309"/>
<path class="path-6" d="M182.906,668.309C184.618,668.303,198.170,667.135,199.924,667.072C201.813,667.004,216.367,667.265,218.302,667.102C218.604,667.085,224.903,666.541,225.032,667.220C225.078,667.493,223.513,669.106,223.101,669.105C222.270,669.108,209.402,670.523,208.302,670.308C207.041,670.287,198.428,671.312,197.291,671.300C195.023,671.275,177.326,669.728,175.418,668.527C175.289,668.410,174.867,667.726,174.886,667.630C174.948,667.350,181.817,668.313,182.906,668.309Z"/>
</g>
</g>
<g id="hat_brim">
<path class="path-0" d="M287.115,140.187C290.774,134.198,299.757,117.896,307.742,117.896C313.065,117.896,324.044,127.545,329.699,130.539C334.690,133.534,340.014,136.195,345.669,138.856C348.882,140.525,352.097,142.189,355.317,143.846C369.624,151.166,365.631,157.489,357.312,156.157C338.682,152.828,335.688,154.160,317.723,144.844C315.393,143.846,309.405,140.520,308.407,144.844C307.077,149.835,316.060,154.160,319.719,155.823C326.372,159.484,333.692,163.477,341.677,164.141C344.006,164.475,351.991,163.807,353.320,166.137C355.317,169.465,345.669,178.114,343.673,180.111C340.345,183.105,337.020,186.099,333.692,188.429C328.702,191.754,323.378,194.748,317.723,195.746C307.077,197.078,273.807,181.773,272.809,170.130C272.144,163.476,283.123,146.509,287.115,140.187M319.719,113.572C314.729,109.246,311.069,102.924,303.749,106.252C298.425,108.582,292.770,116.233,289.111,120.226C275.470,136.860,263.161,156.490,263.826,178.114C264.159,191.754,268.816,191.423,279.795,196.745C296.429,205.063,317.723,207.724,335.688,199.408C347.332,194.084,367.627,176.119,372.951,164.141C374.614,160.149,377.608,151.166,375.278,146.509C372.617,140.852,350.326,131.205,343.673,127.546C335.688,123.220,326.706,119.227,319.719,113.572Z"/>
<path class="path-9" d="M307.742,117.896C313.065,117.896,324.044,127.545,329.699,130.539"/>
<path class="path-9" d="M329.699,130.539C334.690,133.534,340.014,136.195,345.669,138.856"/>
<path class="path-9" d="M345.669,138.856C348.882,140.525,352.097,142.189,355.317,143.846"/>
<path class="path-9" d="M355.317,143.846C369.624,151.166,365.631,157.489,357.312,156.157"/>
<path class="path-9" d="M357.312,156.157C338.682,152.828,335.688,154.160,317.723,144.844"/>
<path class="path-9" d="M317.723,144.844C315.393,143.846,309.405,140.520,308.407,144.844"/>
<path class="path-9" d="M308.407,144.844C307.077,149.835,316.060,154.160,319.719,155.823"/>
<path class="path-9" d="M319.719,155.823C326.372,159.484,333.692,163.477,341.677,164.141"/>
<path class="path-9" d="M341.677,164.141C344.006,164.475,351.991,163.807,353.320,166.137"/>
<path class="path-9" d="M353.320,166.137C355.317,169.465,345.669,178.114,343.673,180.111"/>
<path class="path-9" d="M343.673,180.111C340.345,183.105,337.020,186.099,333.692,188.429"/>
<path class="path-9" d="M333.692,188.429C328.702,191.754,323.378,194.748,317.723,195.746"/>
<path class="path-9" d="M317.723,195.746C307.077,197.078,273.807,181.773,272.809,170.130"/>
<path class="path-9" d="M272.809,170.130C272.144,163.476,283.123,146.509,287.115,140.187"/>
<path class="path-9" d="M287.115,140.187C290.774,134.198,299.757,117.896,307.742,117.896"/>
<path class="path-10" d="M307.742,117.896C313.065,117.896,324.044,127.545,329.699,130.539C334.690,133.534,340.014,136.195,345.669,138.856C348.882,140.525,352.097,142.189,355.317,143.846C369.624,151.166,365.631,157.489,357.312,156.157C338.682,152.828,335.688,154.160,317.723,144.844C315.393,143.846,309.405,140.520,308.407,144.844C307.077,149.835,316.060,154.160,319.719,155.823C326.372,159.484,333.692,163.477,341.677,164.141C344.006,164.475,351.991,163.807,353.320,166.137C355.317,169.465,345.669,178.114,343.673,180.111C340.345,183.105,337.020,186.099,333.692,188.429C328.702,191.754,323.378,194.748,317.723,195.746C307.077,197.078,273.807,181.773,272.809,170.130C272.144,163.476,283.123,146.509,287.115,140.187C290.774,134.198,299.757,117.896,307.742,117.896Z"/>
</g>
<g id="hair">
<path class="path-0" d="M183.357,136.483C200.954,124.749,220.906,123.806,241.996,123.120C251.452,122.794,257.886,129.270,265.069,135.626C270.964,141.195,277.299,147.468,283.560,153.313C292.986,162.051,296.930,166.431,300.440,170.614C303.444,173.825,308.105,179.813,311.862,182.674C316.396,186.124,325.422,203.315,327.445,205.266C320.793,207.453,310.356,209.024,305.541,212.830C307.149,218.669,307.424,227.700,307.413,230.409C301.202,230.790,294.008,227.926,282.567,225.752C280.180,232.918,280.142,239.647,275.384,246.902C267.697,244.496,262.345,242.563,252.411,238.043C245.798,243.193,244.261,242.773,233.517,249.212C226.455,244.820,220.838,240.151,213.943,237.253C207.148,240.091,196.403,241.027,192.739,243.925C188.987,236.858,185.547,229.060,182.318,225.662C172.710,227.554,168.576,230.148,161.781,232.559C157.606,227.012,160.654,222.489,156.037,214.349C151.717,213.146,145.049,210.476,139.490,210.322C143.367,205.864,146.319,191.142,152.833,189.327C160.871,187.088,155.875,177.911,160.872,169.755C162.110,167.631,174.016,151.399,175.093,148.739C177.132,144.153,179.361,139.287,183.357,136.483M269.783,123.041C257.623,113.516,232.973,108.192,219.067,111.311C206.306,114.023,193.787,117.926,182.663,125.006C176.433,128.911,169.531,134.686,165.362,140.754C157.036,152.537,144.935,178.372,138.142,190.325C132.704,200.241,127.646,206.923,122.452,212.283C140.007,218.879,145.124,221.586,150.363,222.441C150.613,230.199,157.711,236.027,156.388,244.572C165.209,243.354,170.475,241.177,178.326,239.302C182.258,243.995,184.942,250.348,188.681,256.586C196.418,254.568,204.305,254.940,212.000,249.563C217.496,252.632,226.229,257.403,235.200,262.448C243.544,258.115,245.325,257.880,253.165,252.908C262.619,255.342,272.515,261.315,282.074,260.399C281.484,252.206,287.600,246.647,286.947,241.388C294.168,239.536,316.196,242.966,319.967,242.683C319.803,236.635,316.595,225.026,318.237,217.838C325.064,216.098,330.837,214.510,341.526,209.520C338.121,202.790,331.974,194.414,326.560,189.403C321.990,185.214,318.291,179.689,313.719,175.326C298.212,160.768,292.275,140.745,269.783,123.041Z"/>
<path class="path-11" d="M241.996,123.120C251.452,122.794,257.886,129.270,265.069,135.626"/>
<path class="path-11" d="M265.069,135.626C270.964,141.195,277.299,147.468,283.560,153.313"/>
<path class="path-11" d="M283.560,153.313C292.986,162.051,296.930,166.431,300.440,170.614"/>
<path class="path-11" d="M300.440,170.614C303.444,173.825,308.105,179.813,311.862,182.674"/>
<path class="path-11" d="M311.862,182.674C316.396,186.124,325.422,203.315,327.445,205.266"/>
<path class="path-11" d="M327.445,205.266C320.793,207.453,310.356,209.024,305.541,212.830"/>
<path class="path-11" d="M305.541,212.830C307.149,218.669,307.424,227.700,307.413,230.409"/>
<path class="path-11" d="M307.413,230.409C301.202,230.790,294.008,227.926,282.567,225.752"/>
<path class="path-11" d="M282.567,225.752C280.180,232.918,280.142,239.647,275.384,246.902"/>
<path class="path-11" d="M275.384,246.902C267.697,244.496,262.345,242.563,252.411,238.043"/>
<path class="path-11" d="M252.411,238.043C245.798,243.193,244.261,242.773,233.517,249.212"/>
<path class="path-11" d="M233.517,249.212C226.455,244.820,220.838,240.151,213.943,237.253"/>
<path class="path-11" d="M213.943,237.253C207.148,240.091,196.403,241.027,192.739,243.925"/>
<path class="path-11" d="M192.739,243.925C188.987,236.858,185.547,229.060,182.318,225.662"/>
<path class="path-11" d="M182.318,225.662C172.710,227.554,168.576,230.148,161.781,232.559"/>
<path class="path-11" d="M161.781,232.559C157.606,227.012,160.654,222.489,156.037,214.349"/>
<path class="path-11" d="M156.037,214.349C151.717,213.146,145.049,210.476,139.490,210.322"/>
<path class="path-11" d="M139.490,210.322C143.367,205.864,146.319,191.142,152.833,189.327"/>
<path class="path-11" d="M152.833,189.327C160.871,187.088,155.875,177.911,160.872,169.755"/>
<path class="path-11" d="M160.872,169.755C162.110,167.631,174.016,151.399,175.093,148.739"/>
<path class="path-11" d="M175.093,148.739C177.132,144.153,179.361,139.287,183.357,136.483"/>
<path class="path-11" d="M183.357,136.483C200.954,124.749,220.906,123.806,241.996,123.120"/>
<path class="path-12" d="M241.996,123.120C251.452,122.794,257.886,129.270,265.069,135.626C270.964,141.195,277.299,147.468,283.560,153.313C292.986,162.051,296.930,166.431,300.440,170.614C303.444,173.825,308.105,179.813,311.862,182.674C316.396,186.124,325.422,203.315,327.445,205.266C320.793,207.453,310.356,209.024,305.541,212.830C307.149,218.669,307.424,227.700,307.413,230.409C301.202,230.790,294.008,227.926,282.567,225.752C280.180,232.918,280.142,239.647,275.384,246.902C267.697,244.496,262.345,242.563,252.411,238.043C245.798,243.193,244.261,242.773,233.517,249.212C226.455,244.820,220.838,240.151,213.943,237.253C207.148,240.091,196.403,241.027,192.739,243.925C188.987,236.858,185.547,229.060,182.318,225.662C172.710,227.554,168.576,230.148,161.781,232.559C157.606,227.012,160.654,222.489,156.037,214.349C151.717,213.146,145.049,210.476,139.490,210.322C143.367,205.864,146.319,191.142,152.833,189.327C160.871,187.088,155.875,177.911,160.872,169.755C162.110,167.631,174.016,151.399,175.093,148.739C177.132,144.153,179.361,139.287,183.357,136.483C200.954,124.749,220.906,123.806,241.996,123.120Z"/>
</g>
<g id="clothes">
<path class="path-0" d="M243.700,369.777C239.020,367.735,220.979,360.090,218.076,364.521C215.642,368.492,220.231,369.451,224.255,369.941C227.857,370.381,246.178,378.010,248.649,376.430C253.198,373.447,245.954,370.646,243.700,369.777M191.093,266.179C194.088,253.538,221.036,240.563,234.012,241.561C242.994,242.226,271.274,256.199,275.266,264.517C278.592,271.170,279.590,295.789,279.924,304.107C280.257,319.412,281.088,334.755,282.253,350.019C283.817,362.566,286.952,374.856,289.486,387.243C289.916,393.352,292.658,409.587,286.849,412.998C279.260,417.951,261.077,405.082,253.769,401.055C227.621,387.560,229.626,385.970,202.052,384.859C198.590,384.588,187.331,387.407,184.975,386.060C180.858,383.029,182.587,377.120,183.605,372.303C186.592,360.553,189.796,352.793,191.427,340.038C193.362,324.061,194.088,306.768,194.088,290.134C193.755,284.145,190.429,269.839,191.093,266.179M269.943,247.549C253.640,237.899,237.670,229.915,218.042,235.573C212.718,236.902,186.103,249.877,183.773,253.205C180.115,258.529,183.773,278.821,183.773,286.141C184.107,294.791,184.440,303.773,183.773,312.092C183.442,318.413,182.111,324.069,182.111,330.057C181.777,336.710,182.403,344.019,180.780,350.019C177.467,361.933,163.495,384.646,177.026,394.248C182.262,397.993,190.697,396.242,197.429,397.184C208.262,398.489,219.800,400.674,230.304,404.190C240.585,407.951,248.480,417.094,259.184,419.954C267.388,422.148,294.618,427.403,300.438,420.576C304.329,416.215,300.030,390.387,298.885,383.882C295.914,370.718,293.037,357.446,291.567,344.031C290.594,332.089,289.239,320.410,289.904,308.100C290.237,298.119,291.900,288.471,291.900,278.157C291.567,273.831,292.234,268.510,289.904,264.184C285.912,256.199,277.263,251.873,269.943,247.549Z"/>
<path class="path-13" d="M243.700,369.777C239.020,367.735,220.979,360.090,218.076,364.521"/>
<path class="path-13" d="M218.076,364.521C215.642,368.492,220.231,369.451,224.255,369.941"/>
<path class="path-13" d="M224.255,369.941C227.857,370.381,246.178,378.010,248.649,376.430"/>
<path class="path-13" d="M248.649,376.430C253.198,373.447,245.954,370.646,243.700,369.777"/>
<path class="path-13" d="M191.093,266.179C194.088,253.538,221.036,240.563,234.012,241.561"/>
<path class="path-13" d="M234.012,241.561C242.994,242.226,271.274,256.199,275.266,264.517"/>
<path class="path-13" d="M275.266,264.517C278.592,271.170,279.590,295.789,279.924,304.107"/>
<path class="path-13" d="M279.924,304.107C280.257,319.412,281.088,334.755,282.253,350.019"/>
<path class="path-13" d="M282.253,350.019C283.817,362.566,286.952,374.856,289.486,387.243"/>
<path class="path-13" d="M289.486,387.243C289.916,393.352,292.658,409.587,286.849,412.998"/>
<path class="path-13" d="M286.849,412.998C279.260,417.951,261.077,405.082,253.769,401.055"/>
<path class="path-13" d="M253.769,401.055C227.621,387.560,229.626,385.970,202.052,384.859"/>
<path class="path-13" d="M202.052,384.859C198.590,384.588,187.331,387.407,184.975,386.060"/>
<path class="path-13" d="M184.975,386.060C180.858,383.029,182.587,377.120,183.605,372.303"/>
<path class="path-13" d="M183.605,372.303C186.592,360.553,189.796,352.793,191.427,340.038"/>
<path class="path-13" d="M191.427,340.038C193.362,324.061,194.088,306.768,194.088,290.134"/>
<path class="path-13" d="M194.088,290.134C193.755,284.145,190.429,269.839,191.093,266.179"/>
<path class="path-14" d="M243.700,369.777C239.020,367.735,220.979,360.090,218.076,364.521C215.642,368.492,220.231,369.451,224.255,369.941C227.857,370.381,246.178,378.010,248.649,376.430C253.198,373.447,245.954,370.646,243.700,369.777M191.093,266.179C194.088,253.538,221.036,240.563,234.012,241.561C242.994,242.226,271.274,256.199,275.266,264.517C278.592,271.170,279.590,295.789,279.924,304.107C280.257,319.412,281.088,334.755,282.253,350.019C283.817,362.566,286.952,374.856,289.486,387.243C289.916,393.352,292.658,409.587,286.849,412.998C279.260,417.951,261.077,405.082,253.769,401.055C227.621,387.560,229.626,385.970,202.052,384.859C198.590,384.588,187.331,387.407,184.975,386.060C180.858,383.029,182.587,377.120,183.605,372.303C186.592,360.553,189.796,352.793,191.427,340.038C193.362,324.061,194.088,306.768,194.088,290.134C193.755,284.145,190.429,269.839,191.093,266.179Z"/>
</g>
<g id="neck">
<path class="path-0" d="M229.021,222.597C229.354,219.269,230.353,216.275,234.012,215.942C245.656,213.946,244.657,251.542,234.012,251.542C224.031,251.542,228.356,228.917,229.021,222.597M234.012,206.628C231.351,206.295,228.357,206.959,226.027,208.291C216.711,212.948,218.042,221.599,218.042,230.248C217.708,234.574,218.042,238.567,216.046,242.226C214.383,245.553,209.724,248.879,209.724,252.540C210.057,262.521,237.006,262.521,243.993,262.188C246.653,262.187,255.636,263.185,256.634,259.526C256.634,258.528,249.981,246.883,248.983,242.226C245.989,228.252,255.305,207.626,234.012,206.628Z"/>
<path class="path-15" d="M234.012,215.942C245.656,213.946,244.657,251.542,234.012,251.542"/>
<path class="path-15" d="M234.012,251.542C224.031,251.542,228.356,228.917,229.021,222.597"/>
<path class="path-15" d="M229.021,222.597C229.354,219.269,230.353,216.275,234.012,215.942"/>
<path class="path-16" d="M234.012,215.942C245.656,213.946,244.657,251.542,234.012,251.542C224.031,251.542,228.356,228.917,229.021,222.597C229.354,219.269,230.353,216.275,234.012,215.942Z"/>
</g>
<g id="layer_head">
<g id="right_ear">
<path class="path-0" d="M151.989,191.049C146.385,191.340,133.556,162.513,140.540,164.029C146.333,165.270,149.245,175.599,150.833,179.825C152.007,182.617,156.933,190.824,151.989,191.049M143.653,150.788C141.499,149.425,138.881,148.006,136.596,149.135C127.654,151.895,129.887,165.163,132.355,174.239C135.544,185.481,143.404,200.205,153.512,204.179C155.430,204.945,159.213,207.338,161.287,206.663C167.434,204.233,162.082,194.425,160.393,189.521C158.122,182.433,148.949,155.572,143.653,150.788Z"/>
<path class="path-15" d="M140.540,164.029C146.333,165.270,149.245,175.599,150.833,179.825"/>
<path class="path-15" d="M150.833,179.825C152.007,182.617,156.933,190.824,151.989,191.049"/>
<path class="path-15" d="M151.989,191.049C146.385,191.340,133.556,162.513,140.540,164.029"/>
<path class="path-16" d="M140.540,164.029C146.333,165.270,149.245,175.599,150.833,179.825C152.007,182.617,156.933,190.824,151.989,191.049C146.385,191.340,133.556,162.513,140.540,164.029Z"/>
</g>
<g id="face_Mask">
<g id="face">
<path class="path-0" d="M150.149,105.823C158.635,95.374,191.404,88.189,205.044,86.193C220.349,84.197,235.985,86.526,250.956,91.183C256.280,92.848,264.201,94.524,268.588,98.503C275.458,104.781,278.017,116.138,279.541,124.950C280.649,130.497,282.156,137.693,281.163,142.946C275.453,173.120,268.395,187.335,262.212,195.730C252.147,209.396,233.992,214.627,217.714,218.892C199.309,223.433,186.950,222.524,171.929,218.173C166.448,216.591,154.637,212.328,151.044,208.216C144.191,200.073,146.807,189.077,144.856,179.072C142.848,170.238,137.824,157.371,136.455,148.601C134.898,137.479,143.164,114.344,150.149,105.823M272.606,90.827C259.129,78.452,222.721,75.796,205.087,78.439C196.767,79.430,188.781,80.088,181.128,82.079C175.468,83.741,170.473,86.400,165.146,88.063C153.500,92.387,148.688,90.948,140.858,101.713C135.235,109.248,126.996,138.897,127.420,148.132C127.888,155.507,133.886,172.515,134.924,181.056C135.996,190.331,133.851,203.579,138.210,211.462C141.923,217.954,148.289,221.629,157.826,225.971C167.522,230.384,178.426,234.659,189.385,235.190C196.035,235.641,205.077,234.336,219.864,229.154C237.024,222.898,255.108,216.386,267.280,201.158C278.611,186.983,293.592,168.216,296.064,140.502C297.862,120.340,280.071,97.533,272.606,90.827Z"/>
<path class="path-15" d="M205.044,86.193C220.349,84.197,235.985,86.526,250.956,91.183"/>
<path class="path-15" d="M250.956,91.183C256.280,92.848,264.201,94.524,268.588,98.503"/>
<path class="path-15" d="M268.588,98.503C275.458,104.781,278.017,116.138,279.541,124.950"/>
<path class="path-15" d="M279.541,124.950C280.649,130.497,282.156,137.693,281.163,142.946"/>
<path class="path-15" d="M281.163,142.946C275.453,173.120,268.395,187.335,262.212,195.730"/>
<path class="path-15" d="M262.212,195.730C252.147,209.396,233.992,214.627,217.714,218.892"/>
<path class="path-15" d="M217.714,218.892C199.309,223.433,186.950,222.524,171.929,218.173"/>
<path class="path-15" d="M171.929,218.173C166.448,216.591,154.637,212.328,151.044,208.216"/>
<path class="path-15" d="M151.044,208.216C144.191,200.073,146.807,189.077,144.856,179.072"/>
<path class="path-15" d="M144.856,179.072C142.848,170.238,137.824,157.371,136.455,148.601"/>
<path class="path-15" d="M136.455,148.601C134.898,137.479,143.164,114.344,150.149,105.823"/>
<path class="path-15" d="M150.149,105.823C158.635,95.374,191.404,88.189,205.044,86.193"/>
<path class="path-16" d="M205.044,86.193C220.349,84.197,235.985,86.526,250.956,91.183C256.280,92.848,264.201,94.524,268.588,98.503C275.458,104.781,278.017,116.138,279.541,124.950C280.649,130.497,282.156,137.693,281.163,142.946C275.453,173.120,268.395,187.335,262.212,195.730C252.147,209.396,233.992,214.627,217.714,218.892C199.309,223.433,186.950,222.524,171.929,218.173C166.448,216.591,154.637,212.328,151.044,208.216C144.191,200.073,146.807,189.077,144.856,179.072C142.848,170.238,137.824,157.371,136.455,148.601C134.898,137.479,143.164,114.344,150.149,105.823C158.635,95.374,191.404,88.189,205.044,86.193Z"/>
</g>
</g>
<mask id="mask_target" style="mask-type:alpha;">
<use xlink:href="#face_Mask"/>
</mask>
<g id="mouse">
<path class="path-0" d="M189.311,213.944C194.515,215.048,194.599,219.801,194.125,220.308C193.858,220.594,192.736,219.643,189.776,219.156C184.170,218.234,181.464,219.407,181.266,218.693C181.050,217.910,183.219,212.652,189.311,213.944Z"/>
</g>
<g id="layer_eyes_Mtarget" mask="url(#mask_target)">
<g id="eyes">
<mask style="mask-type:alpha;" id="f3906406-f197-4bf1-91d8-744c09cca836">
<use xlink:href="#cmn_f3906406-f197-4bf1-91d8-744c09cca836"/>
</mask>
<g id="cmn_f3906406-f197-4bf1-91d8-744c09cca836">
<path class="path-0" d="M141.996,192.318C142.389,191.839,142.068,188.460,142.649,188.924C142.257,188.625,136.385,189.776,135.675,191.407C135.341,192.178,137.690,195.366,136.643,195.228C136.016,195.146,141.728,192.645,141.996,192.318M150.118,195.027C150.126,194.364,149.607,188.463,147.386,187.767C146.149,187.380,144.574,188.928,143.546,189.748C140.839,191.814,123.182,187.942,124.146,183.489C124.492,181.874,132.753,180.404,134.310,181.016C144.610,185.092,120.814,206.430,135.672,210.638C136.368,210.835,143.059,192.948,141.351,195.829C140.418,197.401,150.100,196.475,150.118,195.027M180.671,194.343C178.287,194.350,175.176,195.994,172.946,193.024C171.232,190.741,190.402,191.297,192.390,190.971C193.779,190.743,206.284,189.124,207.027,188.699C207.176,188.614,209.204,188.847,209.427,188.971C209.505,189.014,184.932,194.330,180.671,194.343M216.820,191.545C217.296,191.048,217.487,183.792,216.930,183.334C213.373,180.409,200.898,184.289,194.032,184.775C189.498,185.096,181.860,186.507,178.926,185.955C174.995,185.362,171.958,184.388,169.752,186.033C167.983,187.352,166.805,190.863,167.377,192.994C167.936,195.078,170.355,196.890,172.781,197.741C177.798,199.509,197.728,196.034,201.660,195.691C202.028,195.658,214.562,193.903,216.820,191.545Z"/>
<path class="path-17" d="M207.027,188.699C207.176,188.614,209.204,188.847,209.427,188.971"/>
<path class="path-17" d="M209.427,188.971C209.505,189.014,184.932,194.330,180.671,194.343"/>
<path class="path-17" d="M180.671,194.343C178.287,194.350,175.176,195.994,172.946,193.024"/>
<path class="path-17" d="M172.946,193.024C171.232,190.741,190.402,191.297,192.390,190.971"/>
<path class="path-17" d="M192.390,190.971C193.779,190.743,206.284,189.124,207.027,188.699"/>
<path class="path-18" d="M207.027,188.699C207.176,188.614,209.204,188.847,209.427,188.971C209.505,189.014,184.932,194.330,180.671,194.343C178.287,194.350,175.176,195.994,172.946,193.024C171.232,190.741,190.402,191.297,192.390,190.971C193.779,190.743,206.284,189.124,207.027,188.699Z"/>
<path class="path-17" d="M136.643,195.228C136.016,195.146,141.728,192.645,141.996,192.318"/>
<path class="path-17" d="M141.996,192.318C142.389,191.839,142.068,188.460,142.649,188.924"/>
<path class="path-17" d="M142.649,188.924C142.257,188.625,136.385,189.776,135.675,191.407"/>
<path class="path-17" d="M135.675,191.407C135.341,192.178,137.690,195.366,136.643,195.228"/>
<path class="path-18" d="M136.643,195.228C136.016,195.146,141.728,192.645,141.996,192.318C142.389,191.839,142.068,188.460,142.649,188.924C142.257,188.625,136.385,189.776,135.675,191.407C135.341,192.178,137.690,195.366,136.643,195.228Z"/>
</g>
</g>
<g id="pupil">
<path class="path-0" d="M172.762,175.854C175.074,175.287,178.139,178.615,178.925,187.169C179.484,193.263,178.002,195.755,176.320,195.972C174.423,196.216,172.774,193.598,171.491,186.821C170.122,179.589,170.780,176.339,172.762,175.854Z" mask="url(#f3906406-f197-4bf1-91d8-744c09cca836)"/>
<path class="path-0" d="M140.355,176.706C142.750,176.218,145.911,179.885,146.350,188.982C146.601,194.179,145.318,196.169,143.942,196.406C142.367,196.677,140.394,194.798,138.902,189.035C136.826,181.023,138.179,177.149,140.355,176.706Z" mask="url(#f3906406-f197-4bf1-91d8-744c09cca836)"/>
</g>
</g>
<g id="hat">
<path class="path-0" d="M287.044,133.333C289.282,134.197,291.888,136.977,292.426,139.606C294.387,146.304,283.090,147.595,279.507,148.067C273.758,148.246,267.765,147.329,262.304,146.717C255.188,146.566,248.148,145.198,241.042,144.780C219.217,141.779,197.342,139.388,175.458,136.886C164.586,136.074,154.728,134.332,142.931,133.633C141.616,133.559,129.386,134.577,126.950,133.823C112.341,129.443,124.739,116.420,123.666,109.775C123.499,107.783,119.658,107.329,120.389,103.786C120.901,101.487,127.356,97.239,129.607,96.378C138.825,92.794,149.267,91.319,159.616,90.987C170.983,90.631,181.223,92.371,192.530,93.571C217.516,96.241,260.552,102.720,291.225,117.658C300.553,122.186,280.756,119.335,278.880,119.414C263.077,119.630,197.748,103.170,233.216,116.206C247.362,121.616,274.160,127.772,287.044,133.333M175.448,80.265C163.349,79.399,152.259,78.606,140.949,80.845C136.837,81.648,131.599,82.588,128.286,83.476C121.428,85.330,133.429,65.152,136.856,61.365C152.819,44.150,181.130,32.756,205.759,34.292C254.051,37.302,272.167,50.280,285.154,69.018C289.358,74.625,301.259,100.390,291.328,106.383C288.093,108.058,282.363,105.149,279.669,103.664C270.034,98.619,197.513,81.843,175.448,80.265M274.236,40.177C257.088,31.265,236.444,23.372,210.039,23.919C179.791,24.586,146.257,33.395,126.997,59.721C121.105,67.968,118.711,77.093,115.164,85.832C112.954,91.208,108.522,94.728,108.099,100.459C107.741,108.114,112.244,110.108,113.011,116.371C114.074,123.441,109.778,125.608,110.121,130.194C109.859,142.514,121.449,145.509,131.578,146.694C135.994,147.212,152.426,146.699,161.358,146.878C171.487,147.080,184.995,147.442,195.109,148.032C206.535,148.699,221.712,150.395,233.129,151.194C243.777,151.940,257.976,153.249,268.650,153.222C277.022,153.201,295.438,152.470,296.507,151.568C298.088,150.257,303.291,136.721,303.773,134.091C304.558,129.800,302.541,125.109,304.120,118.245C306.286,107.732,308.854,98.704,307.042,87.243C303.568,66.442,288.324,47.540,274.236,40.177Z"/>
<path class="path-19" d="M192.530,93.571C217.516,96.241,260.552,102.720,291.225,117.658"/>
<path class="path-19" d="M291.225,117.658C300.553,122.186,280.756,119.335,278.880,119.414"/>
<path class="path-19" d="M278.880,119.414C263.077,119.630,197.748,103.170,233.216,116.206"/>
<path class="path-19" d="M233.216,116.206C247.362,121.616,274.160,127.772,287.044,133.333"/>
<path class="path-19" d="M287.044,133.333C289.282,134.197,291.888,136.977,292.426,139.606"/>
<path class="path-19" d="M292.426,139.606C294.387,146.304,283.090,147.595,279.507,148.067"/>
<path class="path-19" d="M279.507,148.067C273.758,148.246,267.765,147.329,262.304,146.717"/>
<path class="path-19" d="M262.304,146.717C255.188,146.566,248.148,145.198,241.042,144.780"/>
<path class="path-19" d="M241.042,144.780C219.217,141.779,197.342,139.388,175.458,136.886"/>
<path class="path-19" d="M175.458,136.886C164.586,136.074,154.728,134.332,142.931,133.633"/>
<path class="path-19" d="M142.931,133.633C141.616,133.559,129.386,134.577,126.950,133.823"/>
<path class="path-19" d="M126.950,133.823C112.341,129.443,124.739,116.420,123.666,109.775"/>
<path class="path-19" d="M123.666,109.775C123.499,107.783,119.658,107.329,120.389,103.786"/>
<path class="path-19" d="M120.389,103.786C120.901,101.487,127.356,97.239,129.607,96.378"/>
<path class="path-19" d="M129.607,96.378C138.825,92.794,149.267,91.319,159.616,90.987"/>
<path class="path-19" d="M159.616,90.987C170.983,90.631,181.223,92.371,192.530,93.571"/>
<path class="path-20" d="M192.530,93.571C217.516,96.241,260.552,102.720,291.225,117.658C300.553,122.186,280.756,119.335,278.880,119.414C263.077,119.630,197.748,103.170,233.216,116.206C247.362,121.616,274.160,127.772,287.044,133.333C289.282,134.197,291.888,136.977,292.426,139.606C294.387,146.304,283.090,147.595,279.507,148.067C273.758,148.246,267.765,147.329,262.304,146.717C255.188,146.566,248.148,145.198,241.042,144.780C219.217,141.779,197.342,139.388,175.458,136.886C164.586,136.074,154.728,134.332,142.931,133.633C141.616,133.559,129.386,134.577,126.950,133.823C112.341,129.443,124.739,116.420,123.666,109.775C123.499,107.783,119.658,107.329,120.389,103.786C120.901,101.487,127.356,97.239,129.607,96.378C138.825,92.794,149.267,91.319,159.616,90.987C170.983,90.631,181.223,92.371,192.530,93.571Z"/>
<path class="path-9" d="M205.759,34.292C254.051,37.302,272.167,50.280,285.154,69.018"/>
<path class="path-9" d="M285.154,69.018C289.358,74.625,301.259,100.390,291.328,106.383"/>
<path class="path-9" d="M291.328,106.383C288.093,108.058,282.363,105.149,279.669,103.664"/>
<path class="path-9" d="M279.669,103.664C270.034,98.619,197.513,81.843,175.448,80.265"/>
<path class="path-9" d="M175.448,80.265C163.349,79.399,152.259,78.606,140.949,80.845"/>
<path class="path-9" d="M140.949,80.845C136.837,81.648,131.599,82.588,128.286,83.476"/>
<path class="path-9" d="M128.286,83.476C121.428,85.330,133.429,65.152,136.856,61.365"/>
<path class="path-9" d="M136.856,61.365C152.819,44.150,181.130,32.756,205.759,34.292"/>
<path class="path-10" d="M205.759,34.292C254.051,37.302,272.167,50.280,285.154,69.018C289.358,74.625,301.259,100.390,291.328,106.383C288.093,108.058,282.363,105.149,279.669,103.664C270.034,98.619,197.513,81.843,175.448,80.265C163.349,79.399,152.259,78.606,140.949,80.845C136.837,81.648,131.599,82.588,128.286,83.476C121.428,85.330,133.429,65.152,136.856,61.365C152.819,44.150,181.130,32.756,205.759,34.292Z"/>
</g>
<g id="left_ear">
<path class="path-0" d="M248.371,180.472C248.435,177.540,250.190,167.142,251.866,164.429C258.581,152.655,276.892,148.620,283.651,156.774C291.437,166.573,278.678,189.435,267.414,194.892C255.258,200.555,248.451,192.096,248.371,180.472M298.792,160.029C296.232,147.806,285.914,137.935,269.984,142.763C253.012,147.906,252.759,171.749,251.812,186.370C251.687,189.645,251.499,193.242,252.556,196.174C256.293,207.090,266.705,210.221,276.271,201.344C286.374,191.776,301.383,174.586,298.792,160.029Z"/>
<path class="path-15" d="M251.866,164.429C258.581,152.655,276.892,148.620,283.651,156.774"/>
<path class="path-15" d="M283.651,156.774C291.437,166.573,278.678,189.435,267.414,194.892"/>
<path class="path-15" d="M267.414,194.892C255.258,200.555,248.451,192.096,248.371,180.472"/>
<path class="path-15" d="M248.371,180.472C248.435,177.540,250.190,167.142,251.866,164.429"/>
<path class="path-16" d="M251.866,164.429C258.581,152.655,276.892,148.620,283.651,156.774C291.437,166.573,278.678,189.435,267.414,194.892C255.258,200.555,248.451,192.096,248.371,180.472C248.435,177.540,250.190,167.142,251.866,164.429Z"/>
</g>
<g id="earrings">
<path class="path-0" d="M276.857,207.302C267.684,211.936,266.614,193.608,269.940,193.860C274.628,195.364,285.955,207.050,276.857,207.302M286.809,199.518C280.191,200.110,276.908,191.139,276.286,187.347C283.825,188.811,293.395,194.148,286.809,199.518M297.573,196.234C294.955,188.087,282.526,183.690,274.658,180.264C271.720,178.985,263.240,189.096,262.866,192.445C261.756,196.594,264.800,219.109,278.895,216.027C284.621,214.508,299.676,202.780,297.573,196.234Z"/>
<path class="path-21" d="M276.286,187.347C283.825,188.811,293.395,194.148,286.809,199.518"/>
<path class="path-21" d="M286.809,199.518C280.191,200.110,276.908,191.139,276.286,187.347"/>
<path class="path-22" d="M276.286,187.347C283.825,188.811,293.395,194.148,286.809,199.518C280.191,200.110,276.908,191.139,276.286,187.347Z"/>
<path class="path-21" d="M269.940,193.860C274.628,195.364,285.955,207.050,276.857,207.302"/>
<path class="path-21" d="M276.857,207.302C267.684,211.936,266.614,193.608,269.940,193.860"/>
<path class="path-22" d="M269.940,193.860C274.628,195.364,285.955,207.050,276.857,207.302C267.684,211.936,266.614,193.608,269.940,193.860Z"/>
</g>
</g>
<g id="jacket">
<path class="path-0" d="M202.406,270.837C205.050,275.173,202.306,285.477,202.282,290.134C200.195,307.148,197.909,323.453,197.441,340.190C197.448,343.496,196.187,349.381,193.982,352.532C191.728,355.752,186.571,358.715,183.326,360.155C179.496,361.788,176.320,355.667,174.867,352.682C173.360,349.586,173.984,343.182,174.218,340.954C175.079,335.845,178.253,326.210,179.400,319.777C180.538,313.668,180.700,307.268,181.162,300.431C181.095,294.960,179.068,288.633,178.067,282.613C178.172,279.395,178.794,277.414,178.872,275.139C178.560,269.756,181.027,268.302,186.173,267.819C190.996,267.710,200.768,265.529,202.406,270.837M258.875,280.175C260.337,276.513,286.009,259.536,289.282,257.771C297.678,253.746,302.121,262.989,302.123,268.470C302.236,277.038,287.938,305.255,289.358,311.241C289.835,313.944,291.721,315.428,293.310,317.165C306.488,333.064,301.126,322.334,315.140,330.352C320.155,333.275,329.705,341.367,332.706,346.203C334.778,350.031,337.795,359.860,336.602,363.764C336.230,364.683,335.242,365.869,333.903,365.297C332.668,364.940,322.349,356.999,320.278,356.240C310.519,352.055,298.898,352.515,290.867,344.409C287.239,340.327,284.834,334.590,281.540,329.751C275.593,321.317,269.332,313.217,265.086,303.765C262.090,297.787,256.963,286.948,258.875,280.175M275.318,255.283C272.285,258.365,266.205,263.282,264.051,264.275C256.294,267.359,254.782,258.075,254.268,252.236C254.001,247.112,256.968,239.849,260.050,235.535C262.755,231.748,267.140,226.595,272.199,225.888C278.534,224.770,289.274,231.427,287.938,238.625C287.533,241.970,279.716,250.814,275.318,255.283M193.539,234.026C198.483,238.100,202.199,242.834,201.091,247.272C200.055,251.421,196.983,253.587,189.763,255.866C178.394,259.453,169.704,242.216,173.319,235.154C176.088,229.746,187.245,228.839,193.539,234.026M338.963,381.482C342.876,370.769,350.408,363.527,347.759,351.918C345.550,342.658,336.928,334.141,329.359,328.447C318.539,320.735,308.692,323.016,301.256,309.948C295.704,300.575,299.725,290.487,301.115,280.126C301.448,276.472,301.645,257.802,301.744,254.455C301.320,251.001,301.940,247.519,301.486,244.348C301.058,240.483,301.572,236.369,300.269,232.704C298.339,226.105,291.433,223.100,286.172,219.797C278.925,215.824,272.654,214.009,264.404,215.853C255.276,217.906,252.075,228.007,249.463,234.744C245.492,244.982,247.548,260.335,247.850,271.312C248.023,277.581,248.813,286.303,249.765,292.130C252.522,310.847,275.081,346.816,291.447,356.553C294.456,358.618,315.515,365.982,320.921,370.277C325.787,374.185,325.402,378.319,327.592,383.978C328.248,385.893,330.430,390.435,333.020,390.356C336.070,390.362,338.197,383.580,338.963,381.482M207.149,233.536C203.773,227.774,198.192,218.205,191.358,217.847C185.046,217.720,175.459,219.085,169.784,222.495C166.315,224.580,161.118,228.447,160.766,232.532C160.104,238.592,162.603,245.821,165.634,250.517C167.435,253.307,171.875,255.287,173.959,257.813C175.020,259.172,178.757,266.687,179.439,268.711C183.152,278.805,180.315,290.781,178.259,299.922C176.402,308.183,169.462,317.737,167.248,325.910C165.190,333.508,163.344,343.358,163.840,351.926C163.850,354.548,166.017,360.042,167.188,363.445C168.240,366.506,169.384,372.278,171.176,373.469C172.321,374.229,184.762,375.103,190.036,373.051C194.033,371.496,197.926,372.411,200.964,363.836C204.756,352.293,205.725,341.251,206.173,328.970C206.402,308.056,212.626,279.158,211.927,266.204C211.604,260.201,212.708,256.205,211.435,247.836C210.799,244.350,209.413,237.400,207.149,233.536Z"/>
<path class="path-1" d="M289.282,257.771C297.678,253.746,302.121,262.989,302.123,268.470"/>
<path class="path-1" d="M302.123,268.470C302.236,277.038,287.938,305.255,289.358,311.241"/>
<path class="path-1" d="M289.358,311.241C289.835,313.944,291.721,315.428,293.310,317.165"/>
<path class="path-1" d="M293.310,317.165C306.488,333.064,301.126,322.334,315.140,330.352"/>
<path class="path-1" d="M315.140,330.352C320.155,333.275,329.705,341.367,332.706,346.203"/>
<path class="path-1" d="M332.706,346.203C334.778,350.031,337.795,359.860,336.602,363.764"/>
<path class="path-1" d="M336.602,363.764C336.230,364.683,335.242,365.869,333.903,365.297"/>
<path class="path-1" d="M333.903,365.297C332.668,364.940,322.349,356.999,320.278,356.240"/>
<path class="path-1" d="M320.278,356.240C310.519,352.055,298.898,352.515,290.867,344.409"/>
<path class="path-1" d="M290.867,344.409C287.239,340.327,284.834,334.590,281.540,329.751"/>
<path class="path-1" d="M281.540,329.751C275.593,321.317,269.332,313.217,265.086,303.765"/>
<path class="path-1" d="M265.086,303.765C262.090,297.787,256.963,286.948,258.875,280.175"/>
<path class="path-1" d="M258.875,280.175C260.337,276.513,286.009,259.536,289.282,257.771"/>
<path class="path-2" d="M289.282,257.771C297.678,253.746,302.121,262.989,302.123,268.470C302.236,277.038,287.938,305.255,289.358,311.241C289.835,313.944,291.721,315.428,293.310,317.165C306.488,333.064,301.126,322.334,315.140,330.352C320.155,333.275,329.705,341.367,332.706,346.203C334.778,350.031,337.795,359.860,336.602,363.764C336.230,364.683,335.242,365.869,333.903,365.297C332.668,364.940,322.349,356.999,320.278,356.240C310.519,352.055,298.898,352.515,290.867,344.409C287.239,340.327,284.834,334.590,281.540,329.751C275.593,321.317,269.332,313.217,265.086,303.765C262.090,297.787,256.963,286.948,258.875,280.175C260.337,276.513,286.009,259.536,289.282,257.771Z"/>
<path class="path-1" d="M186.173,267.819C190.996,267.710,200.768,265.529,202.406,270.837"/>
<path class="path-1" d="M202.406,270.837C205.050,275.173,202.306,285.477,202.282,290.134"/>
<path class="path-1" d="M202.282,290.134C200.195,307.148,197.909,323.453,197.441,340.190"/>
<path class="path-1" d="M197.441,340.190C197.448,343.496,196.187,349.381,193.982,352.532"/>
<path class="path-1" d="M193.982,352.532C191.728,355.752,186.571,358.715,183.326,360.155"/>
<path class="path-1" d="M183.326,360.155C179.496,361.788,176.320,355.667,174.867,352.682"/>
<path class="path-1" d="M174.867,352.682C173.360,349.586,173.984,343.182,174.218,340.954"/>
<path class="path-1" d="M174.218,340.954C175.079,335.845,178.253,326.210,179.400,319.777"/>
<path class="path-1" d="M179.400,319.777C180.538,313.668,180.700,307.268,181.162,300.431"/>
<path class="path-1" d="M181.162,300.431C181.095,294.960,179.068,288.633,178.067,282.613"/>
<path class="path-1" d="M178.067,282.613C178.172,279.395,178.794,277.414,178.872,275.139"/>
<path class="path-1" d="M178.872,275.139C178.560,269.756,181.027,268.302,186.173,267.819"/>
<path class="path-2" d="M186.173,267.819C190.996,267.710,200.768,265.529,202.406,270.837C205.050,275.173,202.306,285.477,202.282,290.134C200.195,307.148,197.909,323.453,197.441,340.190C197.448,343.496,196.187,349.381,193.982,352.532C191.728,355.752,186.571,358.715,183.326,360.155C179.496,361.788,176.320,355.667,174.867,352.682C173.360,349.586,173.984,343.182,174.218,340.954C175.079,335.845,178.253,326.210,179.400,319.777C180.538,313.668,180.700,307.268,181.162,300.431C181.095,294.960,179.068,288.633,178.067,282.613C178.172,279.395,178.794,277.414,178.872,275.139C178.560,269.756,181.027,268.302,186.173,267.819Z"/>
<path class="path-1" d="M272.199,225.888C278.534,224.770,289.274,231.427,287.938,238.625"/>
<path class="path-1" d="M287.938,238.625C287.533,241.970,279.716,250.814,275.318,255.283"/>
<path class="path-1" d="M275.318,255.283C272.285,258.365,266.205,263.282,264.051,264.275"/>
<path class="path-1" d="M264.051,264.275C256.294,267.359,254.782,258.075,254.268,252.236"/>
<path class="path-1" d="M254.268,252.236C254.001,247.112,256.968,239.849,260.050,235.535"/>
<path class="path-1" d="M260.050,235.535C262.755,231.748,267.140,226.595,272.199,225.888"/>
<path class="path-2" d="M272.199,225.888C278.534,224.770,289.274,231.427,287.938,238.625C287.533,241.970,279.716,250.814,275.318,255.283C272.285,258.365,266.205,263.282,264.051,264.275C256.294,267.359,254.782,258.075,254.268,252.236C254.001,247.112,256.968,239.849,260.050,235.535C262.755,231.748,267.140,226.595,272.199,225.888Z"/>
<path class="path-1" d="M193.539,234.026C198.483,238.100,202.199,242.834,201.091,247.272"/>
<path class="path-1" d="M201.091,247.272C200.055,251.421,196.983,253.587,189.763,255.866"/>
<path class="path-1" d="M189.763,255.866C178.394,259.453,169.704,242.216,173.319,235.154"/>
<path class="path-1" d="M173.319,235.154C176.088,229.746,187.245,228.839,193.539,234.026"/>
<path class="path-2" d="M193.539,234.026C198.483,238.100,202.199,242.834,201.091,247.272C200.055,251.421,196.983,253.587,189.763,255.866C178.394,259.453,169.704,242.216,173.319,235.154C176.088,229.746,187.245,228.839,193.539,234.026Z"/>
</g>
<g id="left_arm">
<path class="path-0" d="M290.957,459.754C288.048,454.605,287.599,446.256,294.881,444.323C300.096,442.895,323.303,447.715,327.167,451.592C333.935,457.735,329.907,471.895,321.510,475.113C311.532,478.424,295.903,468.294,290.957,459.754M279.516,276.423C280.393,273.226,288.864,263.064,293.897,264.184C296.819,264.834,298.222,269.839,299.220,272.502C301.881,280.818,304.543,289.469,306.872,298.119C313.194,320.741,317.431,343.384,322.177,365.988C323.877,375.309,324.060,387.601,327.386,395.931C331.337,405.499,337.529,402.296,340.474,408.573C341.794,411.572,341.140,417.224,343.136,421.881C346.130,429.201,351.785,433.194,354.446,437.851C356.111,440.512,356.764,443.444,353.117,444.173C351.125,445.212,345.754,444.444,343.746,444.501C337.003,442.910,330.264,441.310,323.566,439.560C314.596,437.619,287.492,435.790,282.863,429.806C275.840,420.394,286.797,409.321,288.133,399.924C288.795,396.929,292.186,352.968,291.567,350.019C290.906,343.164,287.387,337.131,285.841,330.057C284.214,320.430,282.539,310.147,281.179,300.115C280.223,291.877,276.733,285.067,279.516,276.423M305.541,254.536C303.213,249.877,295.893,241.561,289.904,242.890C284.914,244.222,284.249,250.210,283.582,254.203C281.920,264.184,279.924,272.502,279.924,282.149C279.590,289.136,280.257,295.458,280.921,302.111C281.586,311.427,279.590,329.392,279.924,340.038C279.924,349.686,282.253,359.667,281.586,367.985C279.590,387.613,271.273,406.246,271.938,425.874C271.939,435.855,274.600,435.855,276.929,443.840C278.592,449.828,277.263,456.150,279.590,461.805C285.579,476.776,302.880,490.416,319.847,487.091C335.483,484.096,336.150,467.129,344.466,458.146C351.786,450.161,366.424,454.154,368.420,445.835C370.416,438.849,360.749,431.211,357.110,425.874C349.859,415.913,355.544,413.606,351.950,405.967C349.337,400.320,341.801,395.280,338.141,388.001C336.122,384.655,335.021,378.320,333.651,373.973C330.922,364.002,327.913,352.684,326.223,342.034C324.529,329.725,324.183,318.745,320.845,306.103C318.176,295.460,310.200,262.852,305.541,254.536Z"/>
<path class="path-1" d="M293.897,264.184C296.819,264.834,298.222,269.839,299.220,272.502"/>
<path class="path-1" d="M299.220,272.502C301.881,280.818,304.543,289.469,306.872,298.119"/>
<path class="path-1" d="M306.872,298.119C313.194,320.741,317.431,343.384,322.177,365.988"/>
<path class="path-1" d="M322.177,365.988C323.877,375.309,324.060,387.601,327.386,395.931"/>
<path class="path-1" d="M327.386,395.931C331.337,405.499,337.529,402.296,340.474,408.573"/>
<path class="path-1" d="M340.474,408.573C341.794,411.572,341.140,417.224,343.136,421.881"/>
<path class="path-1" d="M343.136,421.881C346.130,429.201,351.785,433.194,354.446,437.851"/>
<path class="path-1" d="M354.446,437.851C356.111,440.512,356.764,443.444,353.117,444.173"/>
<path class="path-1" d="M353.117,444.173C351.125,445.212,345.754,444.444,343.746,444.501"/>
<path class="path-1" d="M343.746,444.501C337.003,442.910,330.264,441.310,323.566,439.560"/>
<path class="path-1" d="M323.566,439.560C314.596,437.619,287.492,435.790,282.863,429.806"/>
<path class="path-1" d="M282.863,429.806C275.840,420.394,286.797,409.321,288.133,399.924"/>
<path class="path-1" d="M288.133,399.924C288.795,396.929,292.186,352.968,291.567,350.019"/>
<path class="path-1" d="M291.567,350.019C290.906,343.164,287.387,337.131,285.841,330.057"/>
<path class="path-1" d="M285.841,330.057C284.214,320.430,282.539,310.147,281.179,300.115"/>
<path class="path-1" d="M281.179,300.115C280.223,291.877,276.733,285.067,279.516,276.423"/>
<path class="path-1" d="M279.516,276.423C280.393,273.226,288.864,263.064,293.897,264.184"/>
<path class="path-2" d="M293.897,264.184C296.819,264.834,298.222,269.839,299.220,272.502C301.881,280.818,304.543,289.469,306.872,298.119C313.194,320.741,317.431,343.384,322.177,365.988C323.877,375.309,324.060,387.601,327.386,395.931C331.337,405.499,337.529,402.296,340.474,408.573C341.794,411.572,341.140,417.224,343.136,421.881C346.130,429.201,351.785,433.194,354.446,437.851C356.111,440.512,356.764,443.444,353.117,444.173C351.125,445.212,345.754,444.444,343.746,444.501C337.003,442.910,330.264,441.310,323.566,439.560C314.596,437.619,287.492,435.790,282.863,429.806C275.840,420.394,286.797,409.321,288.133,399.924C288.795,396.929,292.186,352.968,291.567,350.019C290.906,343.164,287.387,337.131,285.841,330.057C284.214,320.430,282.539,310.147,281.179,300.115C280.223,291.877,276.733,285.067,279.516,276.423C280.393,273.226,288.864,263.064,293.897,264.184Z"/>
<path class="path-15" d="M294.881,444.323C300.096,442.895,323.303,447.715,327.167,451.592"/>
<path class="path-15" d="M327.167,451.592C333.935,457.735,329.907,471.895,321.510,475.113"/>
<path class="path-15" d="M321.510,475.113C311.532,478.424,295.903,468.294,290.957,459.754"/>
<path class="path-15" d="M290.957,459.754C288.048,454.605,287.599,446.256,294.881,444.323"/>
<path class="path-16" d="M294.881,444.323C300.096,442.895,323.303,447.715,327.167,451.592C333.935,457.735,329.907,471.895,321.510,475.113C311.532,478.424,295.903,468.294,290.957,459.754C288.048,454.605,287.599,446.256,294.881,444.323Z"/>
</g>
<g id="bone">
<g id="bone1_clothes">
<path class="path-23" d="M233.977,387.055C233.978,387.049,248.133,329.784,248.134,329.778C248.134,329.784,244.988,388.689,244.988,388.695C244.986,388.695,233.978,387.055,233.977,387.055"/>
</g>
<g id="bone2_clothes">
<path class="path-23" d="M232.699,328.262C232.699,328.255,226.661,255.981,226.660,255.973C226.662,255.980,246.248,325.812,246.250,325.819C246.249,325.819,232.701,328.262,232.699,328.262"/>
</g>
<g id="bone3_neck">
<path class="path-23" d="M237.606,253.189C237.604,253.185,225.572,213.258,225.571,213.255C225.571,213.259,231.158,254.583,231.158,254.587C231.159,254.587,237.605,253.189,237.606,253.189"/>
</g>
<g id="bone4_head">
<path class="path-23" d="M230.452,211.440C230.454,211.432,248.180,135.407,248.182,135.400C248.181,135.408,242.780,213.284,242.779,213.292C242.778,213.292,230.453,211.440,230.452,211.440"/>
</g>
<g id="bone5_left_arm">
<path class="path-23" d="M297.696,254.182C297.699,254.190,335.711,338.483,335.715,338.491C335.710,338.483,283.926,261.877,283.921,261.869C283.922,261.868,297.694,254.182,297.696,254.182"/>
</g>
<g id="bone6_left_arm">
<path class="path-23" d="M300.866,348.814C300.866,348.820,303.368,412.507,303.368,412.514C303.369,412.508,311.297,349.266,311.298,349.260C311.297,349.260,300.867,348.814,300.866,348.814"/>
</g>
<g id="bone7_right_arm">
<path class="path-23" d="M169.133,269.634C169.131,269.646,149.165,383.406,149.163,383.418C149.167,383.407,186.831,274.222,186.835,274.211C186.833,274.210,169.135,269.635,169.133,269.634"/>
</g>
<g id="bone8_right_arm">
<path class="path-23" d="M157.153,379.800C157.155,379.806,181.135,434.285,181.137,434.290C181.134,434.285,146.699,385.734,146.696,385.729C146.697,385.729,157.152,379.801,157.153,379.800"/>
</g>
<g id="bone9_left_leg">
<path class="path-23" d="M271.782,384.178C271.784,384.188,295.464,486.064,295.467,486.074C295.463,486.064,254.342,389.901,254.338,389.892C254.340,389.891,271.780,384.179,271.782,384.178"/>
</g>
<g id="bone10_right_leg">
<path class="path-23" d="M209.509,384.938C209.509,384.949,202.666,485.483,202.666,485.493C202.668,485.483,224.852,387.188,224.854,387.179C224.852,387.178,209.511,384.939,209.509,384.938"/>
</g>
<g id="bone11_hair">
<path class="path-23" d="M234.154,155.710C234.157,155.718,256.566,232.707,256.568,232.715C256.564,232.708,220.444,161.120,220.440,161.113C220.442,161.112,234.153,155.711,234.154,155.710"/>
</g>
<g id="bone12_left_leg_S">
<path class="path-23" d="M435.212,222.242C435.219,222.242,507.397,227.155,507.404,227.155C507.397,227.154,437.008,210.449,437.001,210.448C437.000,210.449,435.212,222.241,435.212,222.242"/>
</g>
<g id="bone13_right_leg_S">
<path class="path-23" d="M495.025,210.824C495.018,210.826,425.687,231.485,425.680,231.487C425.687,231.487,497.471,222.499,497.478,222.498C497.478,222.497,495.026,210.825,495.025,210.824"/>
</g>
<g id="bone14_left_arm_S">
<path class="path-23" d="M557.442,214.626C557.440,214.620,535.888,145.560,535.886,145.553C535.887,145.560,545.799,217.222,545.800,217.229C545.801,217.229,557.441,214.627,557.442,214.626"/>
</g>
<g id="bone15_jacket_S">
<path class="path-23" d="M610.018,218.054C610.020,218.047,629.736,148.442,629.738,148.435C629.735,148.441,598.851,213.862,598.847,213.868C598.849,213.868,610.017,218.054,610.018,218.054"/>
</g>
<g id="bone16_pupils_S">
<path class="path-23" d="M442.216,337.745C442.216,337.738,441.061,265.403,441.061,265.396C441.060,265.403,430.314,336.945,430.313,336.952C430.314,336.952,442.215,337.745,442.216,337.745"/>
</g>
<g id="bone17_eyelids_S">
<path class="path-23" d="M497.676,331.602C497.669,331.601,425.809,323.249,425.801,323.248C425.808,323.250,495.320,343.295,495.327,343.297C495.327,343.296,497.676,331.603,497.676,331.602"/>
</g>
<g id="bone18_face_S">
<path class="path-23" d="M553.537,344.288C553.544,344.286,621.212,318.699,621.219,318.697C621.212,318.698,550.259,332.819,550.252,332.820C550.253,332.821,553.537,344.287,553.537,344.288"/>
</g>
</g>
</g>
<style>
.path-0{fill:#000000;fill-rule:evenodd;stroke:none;}
.path-1{fill:none;stroke:#a60d3f;stroke-width:1;stroke-linecap:butt;stroke-linejoin:round;}
.path-2{fill:#a60d3f;fill-rule:evenodd;stroke:none;}
.path-3{fill:none;stroke:#d88e4b;stroke-width:1;stroke-linecap:butt;stroke-linejoin:round;}
.path-4{fill:#d88e4b;fill-rule:evenodd;stroke:none;}
.path-5{fill:none;stroke:#6e2353;stroke-width:1;stroke-linecap:butt;stroke-linejoin:round;}
.path-6{fill:#6e2353;fill-rule:evenodd;stroke:none;}
.path-7{fill:none;stroke:#392966;stroke-width:1;stroke-linecap:butt;stroke-linejoin:round;}
.path-8{fill:#392966;fill-rule:evenodd;stroke:none;}
.path-9{fill:none;stroke:#cc9bc5;stroke-width:1;stroke-linecap:butt;stroke-linejoin:round;}
.path-10{fill:#cc9bc5;fill-rule:evenodd;stroke:none;}
.path-11{fill:none;stroke:#620527;stroke-width:1;stroke-linecap:butt;stroke-linejoin:round;}
.path-12{fill:#620527;fill-rule:evenodd;stroke:none;}
.path-13{fill:none;stroke:#6a3661;stroke-width:1;stroke-linecap:butt;stroke-linejoin:round;}
.path-14{fill:#6a3661;fill-rule:evenodd;stroke:none;}
.path-15{fill:none;stroke:#f8a087;stroke-width:1;stroke-linecap:butt;stroke-linejoin:round;}
.path-16{fill:#f8a087;fill-rule:evenodd;stroke:none;}
.path-17{fill:none;stroke:#ffffff;stroke-width:1;stroke-linecap:butt;stroke-linejoin:round;}
.path-18{fill:#ffffff;fill-rule:evenodd;stroke:none;}
.path-19{fill:none;stroke:#d89f4a;stroke-width:1;stroke-linecap:butt;stroke-linejoin:round;}
.path-20{fill:#d89f4a;fill-rule:evenodd;stroke:none;}
.path-21{fill:none;stroke:#fafd5b;stroke-width:1;stroke-linecap:butt;stroke-linejoin:round;}
.path-22{fill:#fafd5b;fill-rule:evenodd;stroke:none;}
.path-23{fill:none;stroke:#00ff42;stroke-width:8;stroke-linecap:round;stroke-linejoin:round;}
.path-24{fill:none;stroke:#000000;stroke-width:1;stroke-linecap:butt;stroke-linejoin:round;}
.path-25{fill:none;stroke:#ececec;stroke-width:1;stroke-linecap:butt;stroke-linejoin:round;}
.path-26{fill:#ececec;fill-rule:evenodd;stroke:none;}
.path-27{fill:none;stroke:#808080;stroke-width:1;stroke-linecap:butt;stroke-linejoin:round;}
.path-28{fill:#808080;fill-rule:evenodd;stroke:none;}
.path-29{fill:none;stroke:#282828;stroke-width:1;stroke-linecap:butt;stroke-linejoin:round;}
.path-30{fill:#282828;fill-rule:evenodd;stroke:none;}
</style>
</svg>
