<svg version="1.1" id="Frame_206" xmlns="http://www.w3.org/2000/svg" xmlns:xlink="http://www.w3.org/1999/xlink" width="480px" height="720px">
<g id="main_bone">
<g id="right_arm">
<path class="path-0" d="M179.727,270.714C181.361,268.167,184.570,262.905,188.458,261.737C195.005,259.771,199.999,265.990,200.345,270.572C201.259,278.597,194.627,288.811,191.408,296.391C183.525,314.638,175.116,332.658,169.679,351.231C168.982,354.486,163.731,375.592,163.797,372.944C163.302,379.560,169.793,385.353,171.993,391.033C174.803,398.693,171.880,405.856,169.925,412.801C165.430,427.122,165.821,432.420,166.019,446.413C166.154,448.630,166.522,455.850,163.049,456.232C159.636,456.609,158.655,450.460,157.764,448.123C157.200,445.488,154.418,439.978,154.961,437.606C155.076,433.634,159.638,434.585,154.594,426.391C148.152,416.145,136.845,407.494,134.114,394.123C132.335,383.477,138.086,374.274,141.453,364.450C148.620,343.344,156.553,322.264,165.717,301.612C170.698,290.905,173.161,281.512,179.727,270.714M200.322,264.290C201.128,255.785,198.727,248.119,187.921,250.739C170.524,254.894,162.701,280.707,156.722,295.157C148.332,314.674,141.301,334.437,134.746,354.332C132.060,362.855,128.787,367.134,127.339,372.079C125.548,377.673,125.659,386.302,125.877,391.944C125.520,409.597,130.842,410.561,138.012,424.130C141.815,432.152,138.095,437.281,140.809,444.211C142.797,448.978,146.811,452.240,149.949,456.146C152.733,460.069,153.469,462.355,155.574,465.969C158.123,470.287,165.691,479.989,171.356,477.203C175.597,475.099,174.624,467.198,174.556,463.363C174.295,457.605,175.759,435.284,176.779,428.526C178.639,417.319,184.689,405.358,183.233,393.226C182.050,383.950,173.952,377.146,174.552,367.241C175.024,361.964,178.525,353.465,179.801,347.573C181.893,338.157,182.524,327.998,185.337,318.372C190.141,301.245,199.267,282.412,200.322,264.290Z"/>
<path class="path-1" d="M188.458,261.737C195.005,259.771,199.999,265.990,200.345,270.572"/>
<path class="path-1" d="M200.345,270.572C201.259,278.597,194.627,288.811,191.408,296.391"/>
<path class="path-1" d="M191.408,296.391C183.525,314.638,175.116,332.658,169.679,351.231"/>
<path class="path-1" d="M169.679,351.231C168.982,354.486,163.731,375.592,163.797,372.944"/>
<path class="path-1" d="M163.797,372.944C163.302,379.560,169.793,385.353,171.993,391.033"/>
<path class="path-1" d="M171.993,391.033C174.803,398.693,171.880,405.856,169.925,412.801"/>
<path class="path-1" d="M169.925,412.801C165.430,427.122,165.821,432.420,166.019,446.413"/>
<path class="path-1" d="M166.019,446.413C166.154,448.630,166.522,455.850,163.049,456.232"/>
<path class="path-1" d="M163.049,456.232C159.636,456.609,158.655,450.460,157.764,448.123"/>
<path class="path-1" d="M157.764,448.123C157.200,445.488,154.418,439.978,154.961,437.606"/>
<path class="path-1" d="M154.961,437.606C155.076,433.634,159.638,434.585,154.594,426.391"/>
<path class="path-1" d="M154.594,426.391C148.152,416.145,136.845,407.494,134.114,394.123"/>
<path class="path-1" d="M134.114,394.123C132.335,383.477,138.086,374.274,141.453,364.450"/>
<path class="path-1" d="M141.453,364.450C148.620,343.344,156.553,322.264,165.717,301.612"/>
<path class="path-1" d="M165.717,301.612C170.698,290.905,173.161,281.512,179.727,270.714"/>
<path class="path-1" d="M179.727,270.714C181.361,268.167,184.570,262.905,188.458,261.737"/>
<path class="path-2" d="M188.458,261.737C195.005,259.771,199.999,265.990,200.345,270.572C201.259,278.597,194.627,288.811,191.408,296.391C183.525,314.638,175.116,332.658,169.679,351.231C168.982,354.486,163.731,375.592,163.797,372.944C163.302,379.560,169.793,385.353,171.993,391.033C174.803,398.693,171.880,405.856,169.925,412.801C165.430,427.122,165.821,432.420,166.019,446.413C166.154,448.630,166.522,455.850,163.049,456.232C159.636,456.609,158.655,450.460,157.764,448.123C157.200,445.488,154.418,439.978,154.961,437.606C155.076,433.634,159.638,434.585,154.594,426.391C148.152,416.145,136.845,407.494,134.114,394.123C132.335,383.477,138.086,374.274,141.453,364.450C148.620,343.344,156.553,322.264,165.717,301.612C170.698,290.905,173.161,281.512,179.727,270.714C181.361,268.167,184.570,262.905,188.458,261.737Z"/>
</g>
<g id="layer_left_leg">
<g id="left_heel">
<path class="path-0" d="M329.003,626.012C318.464,616.901,325.532,593.397,335.524,587.662C350.640,578.758,370.860,600.460,370.824,607.183C370.458,617.345,355.481,622.791,347.533,625.507C343.098,626.855,332.417,629.093,329.003,626.012M361.678,578.056C349.439,571.560,328.971,580.068,320.617,589.255C302.095,608.803,310.989,652.441,343.820,640.212C354.628,636.250,377.901,626.079,381.945,616.690C385.702,609.314,380.868,600.866,376.725,594.128C373.000,588.781,367.485,581.245,361.678,578.056Z"/>
<path class="path-3" d="M335.524,587.662C350.640,578.758,370.860,600.460,370.824,607.183"/>
<path class="path-3" d="M370.824,607.183C370.458,617.345,355.481,622.791,347.533,625.507"/>
<path class="path-3" d="M347.533,625.507C343.098,626.855,332.417,629.093,329.003,626.012"/>
<path class="path-3" d="M329.003,626.012C318.464,616.901,325.532,593.397,335.524,587.662"/>
<path class="path-4" d="M335.524,587.662C350.640,578.758,370.860,600.460,370.824,607.183C370.458,617.345,355.481,622.791,347.533,625.507C343.098,626.855,332.417,629.093,329.003,626.012C318.464,616.901,325.532,593.397,335.524,587.662Z"/>
</g>
<g id="left_leg">
<path class="path-0" d="M242.642,416.875C242.760,411.791,252.968,412.421,256.595,411.041C262.081,409.264,273.790,403.409,279.422,405.416C290.002,408.790,302.363,437.704,306.241,447.919C317.073,479.014,328.479,507.763,338.799,537.838C340.622,543.579,342.593,549.479,344.219,555.155C345.796,559.927,345.245,567.334,349.482,569.263C351.672,570.762,355.509,566.243,356.737,568.407C360.477,576.036,350.898,574.838,348.505,580.254C343.876,589.918,332.291,600.596,322.688,601.032C316.268,601.546,303.826,597.981,299.579,592.989C295.682,588.408,292.076,582.474,289.275,577.262C275.603,551.823,273.988,495.194,255.731,462.485C246.538,446.018,252.715,441.208,257.282,427.102C258.093,424.599,246.586,430.314,244.324,428.878C241.491,427.380,242.402,420.022,242.642,416.875M283.530,394.248C276.030,391.524,260.207,398.802,253.450,401.524C249.620,403.049,236.389,404.282,234.153,407.101C221.202,423.429,240.225,459.861,247.739,475.669C249.633,480.414,256.869,503.690,258.782,510.292C268.116,536.780,269.584,561.566,280.176,587.580C282.876,594.461,284.913,601.461,289.459,607.132C301.991,622.546,318.685,620.432,339.253,612.588C349.967,608.510,372.559,595.407,374.088,571.608C374.670,562.512,366.248,552.922,364.222,550.577C360.688,546.489,356.199,542.820,353.338,537.763C343.493,521.635,343.905,501.129,336.747,483.504C327.589,460.897,307.211,402.911,283.530,394.248Z"/>
<path class="path-7" d="M256.595,411.041C262.081,409.264,273.790,403.409,279.422,405.416"/>
<path class="path-7" d="M279.422,405.416C290.002,408.790,302.363,437.704,306.241,447.919"/>
<path class="path-7" d="M306.241,447.919C317.073,479.014,328.479,507.763,338.799,537.838"/>
<path class="path-7" d="M338.799,537.838C340.622,543.579,342.593,549.479,344.219,555.155"/>
<path class="path-7" d="M344.219,555.155C345.796,559.927,345.245,567.334,349.482,569.263"/>
<path class="path-7" d="M349.482,569.263C351.672,570.762,355.509,566.243,356.737,568.407"/>
<path class="path-7" d="M356.737,568.407C360.477,576.036,350.898,574.838,348.505,580.254"/>
<path class="path-7" d="M348.505,580.254C343.876,589.918,332.291,600.596,322.688,601.032"/>
<path class="path-7" d="M322.688,601.032C316.268,601.546,303.826,597.981,299.579,592.989"/>
<path class="path-7" d="M299.579,592.989C295.682,588.408,292.076,582.474,289.275,577.262"/>
<path class="path-7" d="M289.275,577.262C275.603,551.823,273.988,495.194,255.731,462.485"/>
<path class="path-7" d="M255.731,462.485C246.538,446.018,252.715,441.208,257.282,427.102"/>
<path class="path-7" d="M257.282,427.102C258.093,424.599,246.586,430.314,244.324,428.878"/>
<path class="path-7" d="M244.324,428.878C241.491,427.380,242.402,420.022,242.642,416.875"/>
<path class="path-7" d="M242.642,416.875C242.760,411.791,252.968,412.421,256.595,411.041"/>
<path class="path-8" d="M256.595,411.041C262.081,409.264,273.790,403.409,279.422,405.416C290.002,408.790,302.363,437.704,306.241,447.919C317.073,479.014,328.479,507.763,338.799,537.838C340.622,543.579,342.593,549.479,344.219,555.155C345.796,559.927,345.245,567.334,349.482,569.263C351.672,570.762,355.509,566.243,356.737,568.407C360.477,576.036,350.898,574.838,348.505,580.254C343.876,589.918,332.291,600.596,322.688,601.032C316.268,601.546,303.826,597.981,299.579,592.989C295.682,588.408,292.076,582.474,289.275,577.262C275.603,551.823,273.988,495.194,255.731,462.485C246.538,446.018,252.715,441.208,257.282,427.102C258.093,424.599,246.586,430.314,244.324,428.878C241.491,427.380,242.402,420.022,242.642,416.875C242.760,411.791,252.968,412.421,256.595,411.041Z"/>
</g>
<g id="left_toe">
<path class="path-0" d="M337.304,658.625C310.245,662.337,303.832,626.563,321.218,613.381C338.457,600.499,359.901,606.744,369.647,617.589C375.062,622.883,378.937,629.162,377.903,636.810C374.812,650.894,349.780,656.824,337.304,658.625M382.319,606.770C374.829,594.798,360.004,586.069,348.395,585.867C318.991,585.490,299.396,601.073,299.052,628.277C298.344,643.952,306.372,658.744,319.231,667.620C329.355,674.159,354.737,667.317,365.027,662.837C373.811,658.239,384.556,651.783,388.147,641.474C390.871,634.007,386.457,613.503,382.319,606.770Z"/>
<path class="path-3" d="M321.218,613.381C338.457,600.499,359.901,606.744,369.647,617.589"/>
<path class="path-3" d="M369.647,617.589C375.062,622.883,378.937,629.162,377.903,636.810"/>
<path class="path-3" d="M377.903,636.810C374.812,650.894,349.780,656.824,337.304,658.625"/>
<path class="path-3" d="M337.304,658.625C310.245,662.337,303.832,626.563,321.218,613.381"/>
<path class="path-4" d="M321.218,613.381C338.457,600.499,359.901,606.744,369.647,617.589C375.062,622.883,378.937,629.162,377.903,636.810C374.812,650.894,349.780,656.824,337.304,658.625C310.245,662.337,303.832,626.563,321.218,613.381Z"/>
</g>
<g id="left_sole">
<path class="path-0" d="M345.353,672.241C334.946,675.513,327.453,662.426,327.395,668.272C327.358,671.947,337.479,671.919,341.747,671.765C351.310,671.793,364.965,665.864,371.834,658.844C374.226,656.774,382.055,650.877,382.205,651.090C384.613,654.506,373.248,659.501,369.682,661.165C366.888,662.845,346.114,671.805,345.353,672.241M327.647,667.953C332.001,664.560,343.447,665.778,347.618,665.836C364.181,666.068,371.445,654.463,378.692,650.390C379.327,650.044,380.118,647.700,382.068,648.813C388.468,652.464,359.039,670.382,344.900,670.287C337.398,671.015,325.865,669.342,327.647,667.953M383.880,640.235C380.104,638.881,366.757,652.441,351.295,657.930C343.317,660.794,319.191,654.520,316.845,665.765C316.342,668.201,319.602,675.399,321.785,676.459C336.338,683.845,384.244,663.685,388.623,656.945C390.044,654.758,389.653,642.305,383.880,640.235Z"/>
<path class="path-5" d="M327.395,668.272C327.358,671.947,337.479,671.919,341.747,671.765"/>
<path class="path-5" d="M341.747,671.765C351.310,671.793,364.965,665.864,371.834,658.844"/>
<path class="path-5" d="M371.834,658.844C374.226,656.774,382.055,650.877,382.205,651.090"/>
<path class="path-5" d="M382.205,651.090C384.613,654.506,373.248,659.501,369.682,661.165"/>
<path class="path-5" d="M369.682,661.165C366.888,662.845,346.114,671.805,345.353,672.241"/>
<path class="path-5" d="M345.353,672.241C334.946,675.513,327.453,662.426,327.395,668.272"/>
<path class="path-6" d="M327.395,668.272C327.358,671.947,337.479,671.919,341.747,671.765C351.310,671.793,364.965,665.864,371.834,658.844C374.226,656.774,382.055,650.877,382.205,651.090C384.613,654.506,373.248,659.501,369.682,661.165C366.888,662.845,346.114,671.805,345.353,672.241C334.946,675.513,327.453,662.426,327.395,668.272Z"/>
<path class="path-5" d="M347.618,665.836C364.181,666.068,371.445,654.463,378.692,650.390"/>
<path class="path-5" d="M378.692,650.390C379.327,650.044,380.118,647.700,382.068,648.813"/>
<path class="path-5" d="M382.068,648.813C388.468,652.464,359.039,670.382,344.900,670.287"/>
<path class="path-5" d="M344.900,670.287C337.398,671.015,325.865,669.342,327.647,667.953"/>
<path class="path-5" d="M327.647,667.953C332.001,664.560,343.447,665.778,347.618,665.836"/>
<path class="path-6" d="M347.618,665.836C364.181,666.068,371.445,654.463,378.692,650.390C379.327,650.044,380.118,647.700,382.068,648.813C388.468,652.464,359.039,670.382,344.900,670.287C337.398,671.015,325.865,669.342,327.647,667.953C332.001,664.560,343.447,665.778,347.618,665.836Z"/>
</g>
</g>
<g id="layer_right_leg">
<g id="right_heel">
<path class="path-0" d="M194.528,621.672C194.351,605.555,194.684,593.006,214.472,588.980C223.276,587.027,240.399,588.791,245.835,596.945C248.681,600.990,248.279,607.199,248.814,611.670C249.750,618.953,255.214,632.783,244.831,635.126C244.168,635.343,225.604,636.785,219.813,637.284C212.464,638.600,204.790,639.618,199.106,634.904C196.142,631.904,194.494,625.465,194.528,621.672M255.240,594.695C250.667,584.722,236.021,579.782,226.051,581.820C213.035,584.318,199.325,580.875,191.557,593.448C185.502,603.247,185.862,620.570,188.568,631.414C189.646,636.427,193.488,645.461,197.949,648.006C201.214,649.778,206.028,648.924,209.738,648.706C227.829,647.923,260.474,651.992,258.392,625.543C257.779,618.706,257.645,599.990,255.240,594.695Z"/>
<path class="path-3" d="M214.472,588.980C223.276,587.027,240.399,588.791,245.835,596.945"/>
<path class="path-3" d="M245.835,596.945C248.681,600.990,248.279,607.199,248.814,611.670"/>
<path class="path-3" d="M248.814,611.670C249.750,618.953,255.214,632.783,244.831,635.126"/>
<path class="path-3" d="M244.831,635.126C244.168,635.343,225.604,636.785,219.813,637.284"/>
<path class="path-3" d="M219.813,637.284C212.464,638.600,204.790,639.618,199.106,634.904"/>
<path class="path-3" d="M199.106,634.904C196.142,631.904,194.494,625.465,194.528,621.672"/>
<path class="path-3" d="M194.528,621.672C194.351,605.555,194.684,593.006,214.472,588.980"/>
<path class="path-4" d="M214.472,588.980C223.276,587.027,240.399,588.791,245.835,596.945C248.681,600.990,248.279,607.199,248.814,611.670C249.750,618.953,255.214,632.783,244.831,635.126C244.168,635.343,225.604,636.785,219.813,637.284C212.464,638.600,204.790,639.618,199.106,634.904C196.142,631.904,194.494,625.465,194.528,621.672C194.351,605.555,194.684,593.006,214.472,588.980Z"/>
</g>
<g id="right_leg">
<path class="path-0" d="M180.443,410.411C183.354,398.544,198.846,394.830,209.541,397.071C215.457,398.188,225.378,400.408,228.907,405.615C230.417,407.843,231.229,412.106,229.958,414.467C227.727,418.614,212.364,416.729,215.286,420.551C220.396,427.448,229.995,417.636,234.491,421.187C236.491,422.767,236.886,426.209,237.449,429.066C242.821,450.385,237.286,473.762,238.451,495.028C238.758,501.905,237.731,512.130,239.318,518.320C242.692,533.611,240.979,536.962,241.900,546.203C242.023,549.660,241.265,567.261,242.691,571.689C244.291,576.336,247.995,580.679,248.732,585.553C249.976,593.774,238.207,605.248,230.751,607.854C222.221,610.649,195.488,610.295,187.150,606.367C183.930,604.962,179.892,601.363,178.453,597.937C176.906,594.752,174.468,579.555,175.323,575.823C177.074,569.328,179.521,567.900,181.212,560.211C182.879,551.159,184.478,541.372,183.504,532.001C181.226,513.685,180.474,484.232,181.901,470.954C182.516,463.474,179.380,438.574,180.033,431.644C181.218,420.189,179.092,418.104,180.443,410.411M204.083,385.832C198.313,384.214,193.644,379.221,187.809,381.570C186.036,382.460,182.995,384.884,181.784,386.253C166.713,400.698,168.804,414.174,170.003,433.363C170.139,440.251,170.652,447.396,170.391,454.011C170.061,459.515,168.488,464.094,167.447,469.176C166.877,473.347,166.452,477.805,166.524,483.011C166.724,488.128,168.432,494.058,169.041,502.736C169.011,512.458,170.245,521.570,170.328,530.863C170.600,537.192,168.326,551.998,167.715,556.856C165.848,563.781,163.097,571.828,161.867,578.490C160.769,587.291,162.694,596.451,166.597,603.948C168.429,607.976,171.616,612.723,174.946,615.278C177.117,616.945,179.949,617.822,182.473,618.523C190.808,620.790,198.645,621.644,207.364,621.398C213.238,621.276,218.920,619.302,225.028,619.474C226.041,619.350,234.383,620.747,236.029,620.784C238.986,620.684,242.990,617.873,245.586,616.165C249.022,613.629,255.307,612.577,257.963,609.111C260.110,606.304,260.529,602.544,261.509,599.164C266.980,579.234,260.673,568.787,257.086,551.084C255.092,541.240,251.466,520.960,250.935,509.861C250.010,496.431,251.873,483.288,251.819,469.413C251.891,465.039,251.958,459.794,252.418,454.829C252.789,449.856,251.482,445.920,250.969,441.033C250.344,437.271,249.866,425.122,249.022,421.093C248.416,417.491,248.165,412.964,246.604,409.459C242.363,400.551,227.766,391.284,218.279,388.907C213.527,387.555,208.526,387.529,204.083,385.832Z"/>
<path class="path-7" d="M209.541,397.071C215.457,398.188,225.378,400.408,228.907,405.615"/>
<path class="path-7" d="M228.907,405.615C230.417,407.843,231.229,412.106,229.958,414.467"/>
<path class="path-7" d="M229.958,414.467C227.727,418.614,212.364,416.729,215.286,420.551"/>
<path class="path-7" d="M215.286,420.551C220.396,427.448,229.995,417.636,234.491,421.187"/>
<path class="path-7" d="M234.491,421.187C236.491,422.767,236.886,426.209,237.449,429.066"/>
<path class="path-7" d="M237.449,429.066C242.821,450.385,237.286,473.762,238.451,495.028"/>
<path class="path-7" d="M238.451,495.028C238.758,501.905,237.731,512.130,239.318,518.320"/>
<path class="path-7" d="M239.318,518.320C242.692,533.611,240.979,536.962,241.900,546.203"/>
<path class="path-7" d="M241.900,546.203C242.023,549.660,241.265,567.261,242.691,571.689"/>
<path class="path-7" d="M242.691,571.689C244.291,576.336,247.995,580.679,248.732,585.553"/>
<path class="path-7" d="M248.732,585.553C249.976,593.774,238.207,605.248,230.751,607.854"/>
<path class="path-7" d="M230.751,607.854C222.221,610.649,195.488,610.295,187.150,606.367"/>
<path class="path-7" d="M187.150,606.367C183.930,604.962,179.892,601.363,178.453,597.937"/>
<path class="path-7" d="M178.453,597.937C176.906,594.752,174.468,579.555,175.323,575.823"/>
<path class="path-7" d="M175.323,575.823C177.074,569.328,179.521,567.900,181.212,560.211"/>
<path class="path-7" d="M181.212,560.211C182.879,551.159,184.478,541.372,183.504,532.001"/>
<path class="path-7" d="M183.504,532.001C181.226,513.685,180.474,484.232,181.901,470.954"/>
<path class="path-7" d="M181.901,470.954C182.516,463.474,179.380,438.574,180.033,431.644"/>
<path class="path-7" d="M180.033,431.644C181.218,420.189,179.092,418.104,180.443,410.411"/>
<path class="path-7" d="M180.443,410.411C183.354,398.544,198.846,394.830,209.541,397.071"/>
<path class="path-8" d="M209.541,397.071C215.457,398.188,225.378,400.408,228.907,405.615C230.417,407.843,231.229,412.106,229.958,414.467C227.727,418.614,212.364,416.729,215.286,420.551C220.396,427.448,229.995,417.636,234.491,421.187C236.491,422.767,236.886,426.209,237.449,429.066C242.821,450.385,237.286,473.762,238.451,495.028C238.758,501.905,237.731,512.130,239.318,518.320C242.692,533.611,240.979,536.962,241.900,546.203C242.023,549.660,241.265,567.261,242.691,571.689C244.291,576.336,247.995,580.679,248.732,585.553C249.976,593.774,238.207,605.248,230.751,607.854C222.221,610.649,195.488,610.295,187.150,606.367C183.930,604.962,179.892,601.363,178.453,597.937C176.906,594.752,174.468,579.555,175.323,575.823C177.074,569.328,179.521,567.900,181.212,560.211C182.879,551.159,184.478,541.372,183.504,532.001C181.226,513.685,180.474,484.232,181.901,470.954C182.516,463.474,179.380,438.574,180.033,431.644C181.218,420.189,179.092,418.104,180.443,410.411C183.354,398.544,198.846,394.830,209.541,397.071Z"/>
</g>
<g id="right_toe">
<path class="path-0" d="M178.853,644.921C179.393,631.707,183.612,614.479,199.753,611.234C203.459,610.290,208.853,611.724,213.070,612.314C234.631,615.272,243.209,619.482,245.254,640.943C245.694,646.844,247.064,654.119,242.869,659.122C238.693,664.011,217.447,662.675,211.027,663.332C199.696,664.737,190.239,670.659,181.746,661.385C176.655,655.710,178.574,651.979,178.853,644.921M252.370,617.906C244.453,604.527,211.256,598.234,196.708,601.763C175.005,607.154,168.996,624.520,168.729,642.915C168.584,649.479,168.173,656.706,171.843,662.299C173.156,664.301,175.837,666.927,177.683,668.483C191.634,681.274,201.137,679.011,218.874,677.837C228.263,677.370,243.822,675.658,250.973,669.053C256.315,663.637,256.526,658.058,256.336,650.948C255.904,644.115,255.533,622.798,252.370,617.906Z"/>
<path class="path-3" d="M199.753,611.234C203.459,610.290,208.853,611.724,213.070,612.314"/>
<path class="path-3" d="M213.070,612.314C234.631,615.272,243.209,619.482,245.254,640.943"/>
<path class="path-3" d="M245.254,640.943C245.694,646.844,247.064,654.119,242.869,659.122"/>
<path class="path-3" d="M242.869,659.122C238.693,664.011,217.447,662.675,211.027,663.332"/>
<path class="path-3" d="M211.027,663.332C199.696,664.737,190.239,670.659,181.746,661.385"/>
<path class="path-3" d="M181.746,661.385C176.655,655.710,178.574,651.979,178.853,644.921"/>
<path class="path-3" d="M178.853,644.921C179.393,631.707,183.612,614.479,199.753,611.234"/>
<path class="path-4" d="M199.753,611.234C203.459,610.290,208.853,611.724,213.070,612.314C234.631,615.272,243.209,619.482,245.254,640.943C245.694,646.844,247.064,654.119,242.869,659.122C238.693,664.011,217.447,662.675,211.027,663.332C199.696,664.737,190.239,670.659,181.746,661.385C176.655,655.710,178.574,651.979,178.853,644.921C179.393,631.707,183.612,614.479,199.753,611.234Z"/>
</g>
<g id="right_sole">
<path class="path-0" d="M199.398,675.794C200.949,676.046,216.330,674.887,218.077,674.779C219.477,674.714,227.915,674.293,229.104,674.144C229.847,674.068,237.284,673.290,237.884,673.705C237.324,673.292,229.423,675.205,228.954,675.248C228.026,675.365,201.771,676.784,201.468,676.909C200.280,677.010,188.987,676.789,188.206,675.850C189.434,675.347,197.592,675.497,199.398,675.794M238.660,667.686C238.729,667.956,237.227,669.726,236.806,669.754C235.968,669.814,222.786,672.056,221.663,671.889C220.408,671.922,211.662,673.110,210.532,673.166C208.287,673.279,190.258,673.649,188.264,672.650C188.039,672.484,187.253,671.418,187.278,671.263C187.326,670.984,194.412,670.876,195.502,670.776C197.213,670.620,211.109,669.237,212.865,669.100C214.767,668.951,229.791,668.244,231.731,667.967C232.035,667.932,238.483,667.020,238.660,667.686M244.059,662.283C232.576,659.827,223.982,664.783,213.732,665.725C206.312,666.439,191.941,665.734,182.987,668.000C181.554,668.362,178.766,668.318,178.414,669.815C177.974,671.701,181.855,675.479,184.257,676.835C187.233,678.514,193.194,678.197,195.580,678.410C207.702,679.930,222.880,677.891,235.157,676.641C244.215,675.724,246.258,672.031,246.913,667.695C247.186,665.889,247.650,663.004,244.059,662.283Z"/>
<path class="path-5" d="M199.398,675.794C200.949,676.046,216.330,674.887,218.077,674.779"/>
<path class="path-5" d="M218.077,674.779C219.477,674.714,227.915,674.293,229.104,674.144"/>
<path class="path-5" d="M229.104,674.144C229.847,674.068,237.284,673.290,237.884,673.705"/>
<path class="path-5" d="M237.884,673.705C237.324,673.292,229.423,675.205,228.954,675.248"/>
<path class="path-5" d="M228.954,675.248C228.026,675.365,201.771,676.784,201.468,676.909"/>
<path class="path-5" d="M201.468,676.909C200.280,677.010,188.987,676.789,188.206,675.850"/>
<path class="path-5" d="M188.206,675.850C189.434,675.347,197.592,675.497,199.398,675.794"/>
<path class="path-6" d="M199.398,675.794C200.949,676.046,216.330,674.887,218.077,674.779C219.477,674.714,227.915,674.293,229.104,674.144C229.847,674.068,237.284,673.290,237.884,673.705C237.324,673.292,229.423,675.205,228.954,675.248C228.026,675.365,201.771,676.784,201.468,676.909C200.280,677.010,188.987,676.789,188.206,675.850C189.434,675.347,197.592,675.497,199.398,675.794Z"/>
<path class="path-5" d="M195.502,670.776C197.213,670.620,211.109,669.237,212.865,669.100"/>
<path class="path-5" d="M212.865,669.100C214.767,668.951,229.791,668.244,231.731,667.967"/>
<path class="path-5" d="M231.731,667.967C232.035,667.932,238.483,667.020,238.660,667.686"/>
<path class="path-5" d="M238.660,667.686C238.729,667.956,237.227,669.726,236.806,669.754"/>
<path class="path-5" d="M236.806,669.754C235.968,669.814,222.786,672.056,221.663,671.889"/>
<path class="path-5" d="M221.663,671.889C220.408,671.922,211.662,673.110,210.532,673.166"/>
<path class="path-5" d="M210.532,673.166C208.287,673.279,190.258,673.649,188.264,672.650"/>
<path class="path-5" d="M188.264,672.650C188.039,672.484,187.253,671.418,187.278,671.263"/>
<path class="path-5" d="M187.278,671.263C187.326,670.984,194.412,670.876,195.502,670.776"/>
<path class="path-6" d="M195.502,670.776C197.213,670.620,211.109,669.237,212.865,669.100C214.767,668.951,229.791,668.244,231.731,667.967C232.035,667.932,238.483,667.020,238.660,667.686C238.729,667.956,237.227,669.726,236.806,669.754C235.968,669.814,222.786,672.056,221.663,671.889C220.408,671.922,211.662,673.110,210.532,673.166C208.287,673.279,190.258,673.649,188.264,672.650C188.039,672.484,187.253,671.418,187.278,671.263C187.326,670.984,194.412,670.876,195.502,670.776Z"/>
</g>
</g>
<g id="hat_brim">
<path class="path-0" d="M303.331,154.935C307.636,149.394,318.387,134.198,326.321,135.091C331.611,135.687,341.442,146.503,346.727,150.111C351.351,153.645,356.344,156.885,361.666,160.162C364.672,162.180,367.681,164.193,370.695,166.200C384.093,175.075,379.418,180.910,371.301,178.657C353.160,173.265,350.036,174.254,333.225,162.987C331.022,161.734,325.443,157.760,323.967,161.945C322.088,166.755,330.531,172.059,333.981,174.120C340.183,178.502,347.010,183.289,354.870,184.842C357.148,185.434,365.157,185.664,366.218,188.128C367.830,191.658,357.275,199.174,355.068,200.935C351.426,203.538,347.787,206.141,344.219,208.084C338.888,210.831,333.263,213.210,327.532,213.570C316.804,213.702,285.454,194.772,285.765,183.090C285.849,176.404,298.656,160.771,303.331,154.935M338.707,132.134C334.231,127.277,331.302,120.586,323.656,123.074C318.105,124.793,311.630,131.764,307.547,135.323C292.131,150.327,277.704,168.457,275.945,190.020C274.751,203.611,279.416,203.803,289.731,210.319C305.330,220.446,326.192,225.472,344.975,219.218C357.141,215.230,379.319,199.647,385.949,188.340C388.047,184.559,392.027,175.967,390.233,171.079C388.222,165.160,367.150,153.080,360.947,148.699C353.497,143.508,345.017,138.535,338.707,132.134Z"/>
<path class="path-9" d="M326.321,135.091C331.611,135.687,341.442,146.503,346.727,150.111"/>
<path class="path-9" d="M346.727,150.111C351.351,153.645,356.344,156.885,361.666,160.162"/>
<path class="path-9" d="M361.666,160.162C364.672,162.180,367.681,164.193,370.695,166.200"/>
<path class="path-9" d="M370.695,166.200C384.093,175.075,379.418,180.910,371.301,178.657"/>
<path class="path-9" d="M371.301,178.657C353.160,173.265,350.036,174.254,333.225,162.987"/>
<path class="path-9" d="M333.225,162.987C331.022,161.734,325.443,157.760,323.967,161.945"/>
<path class="path-9" d="M323.967,161.945C322.088,166.755,330.531,172.059,333.981,174.120"/>
<path class="path-9" d="M333.981,174.120C340.183,178.502,347.010,183.289,354.870,184.842"/>
<path class="path-9" d="M354.870,184.842C357.148,185.434,365.157,185.664,366.218,188.128"/>
<path class="path-9" d="M366.218,188.128C367.830,191.658,357.275,199.174,355.068,200.935"/>
<path class="path-9" d="M355.068,200.935C351.426,203.538,347.787,206.141,344.219,208.084"/>
<path class="path-9" d="M344.219,208.084C338.888,210.831,333.263,213.210,327.532,213.570"/>
<path class="path-9" d="M327.532,213.570C316.804,213.702,285.454,194.772,285.765,183.090"/>
<path class="path-9" d="M285.765,183.090C285.849,176.404,298.656,160.771,303.331,154.935"/>
<path class="path-9" d="M303.331,154.935C307.636,149.394,318.387,134.198,326.321,135.091"/>
<path class="path-10" d="M326.321,135.091C331.611,135.687,341.442,146.503,346.727,150.111C351.351,153.645,356.344,156.885,361.666,160.162C364.672,162.180,367.681,164.193,370.695,166.200C384.093,175.075,379.418,180.910,371.301,178.657C353.160,173.265,350.036,174.254,333.225,162.987C331.022,161.734,325.443,157.760,323.967,161.945C322.088,166.755,330.531,172.059,333.981,174.120C340.183,178.502,347.010,183.289,354.870,184.842C357.148,185.434,365.157,185.664,366.218,188.128C367.830,191.658,357.275,199.174,355.068,200.935C351.426,203.538,347.787,206.141,344.219,208.084C338.888,210.831,333.263,213.210,327.532,213.570C316.804,213.702,285.454,194.772,285.765,183.090C285.849,176.404,298.656,160.771,303.331,154.935C307.636,149.394,318.387,134.198,326.321,135.091Z"/>
</g>
<g id="hair">
<path class="path-0" d="M200.027,145.475C216.239,131.892,235.970,128.779,256.859,125.796C266.222,124.441,273.325,130.177,281.158,135.711C287.625,140.604,294.606,146.149,301.468,151.277C311.791,158.935,316.189,162.858,320.134,166.633C323.470,169.497,328.756,174.942,332.803,177.375C337.686,180.311,348.533,196.415,350.757,198.133C344.383,201.032,334.180,203.732,329.808,208.041C332.044,213.669,333.302,222.617,333.586,225.311C327.455,226.367,319.991,224.304,308.381,223.391C306.790,230.775,307.486,237.468,303.548,245.198C295.644,243.645,290.114,242.307,279.746,238.898C273.733,244.738,272.160,244.488,262.183,252.061C254.684,248.465,248.590,244.437,241.421,242.308C234.976,245.871,224.397,247.972,221.071,251.253C216.570,244.638,212.301,237.262,208.721,234.236C199.376,237.164,195.550,240.194,189.059,243.331C184.303,238.273,186.839,233.445,181.362,225.857C176.937,225.132,170.018,223.205,164.475,223.658C167.843,218.804,169.171,203.848,175.449,201.333C183.194,198.230,177.227,189.654,181.305,181.001C182.304,178.755,192.368,161.321,193.149,158.559C194.675,153.778,196.360,148.699,200.027,145.475M284.472,122.687C271.345,114.545,246.261,111.941,232.779,116.559C220.390,120.646,208.371,125.892,198.085,134.142C192.319,138.703,186.087,145.197,182.605,151.683C175.614,164.304,166.403,191.305,160.954,203.928C156.630,214.377,152.331,221.571,147.752,227.465C165.922,232.108,171.303,234.240,176.604,234.519C177.699,242.204,185.390,247.222,185.007,255.861C193.643,253.688,198.640,250.949,206.239,248.229C210.660,252.466,214.021,258.488,218.418,264.281C225.889,261.431,233.770,260.941,240.832,254.757C246.631,257.208,255.831,260.998,265.299,265.035C273.121,259.817,274.865,259.390,282.116,253.592C291.780,254.980,302.268,259.839,311.670,257.885C310.190,249.806,315.663,243.613,314.440,238.457C321.416,235.828,343.687,236.835,347.405,236.143C346.582,230.148,342.127,218.958,342.975,211.634C349.572,209.160,355.137,206.952,365.218,200.826C361.099,194.507,354.076,186.852,348.148,182.461C343.148,178.796,338.868,173.707,333.848,169.869C316.846,157.088,308.760,137.833,284.472,122.687Z"/>
<path class="path-11" d="M256.859,125.796C266.222,124.441,273.325,130.177,281.158,135.711"/>
<path class="path-11" d="M281.158,135.711C287.625,140.604,294.606,146.149,301.468,151.277"/>
<path class="path-11" d="M301.468,151.277C311.791,158.935,316.189,162.858,320.134,166.633"/>
<path class="path-11" d="M320.134,166.633C323.470,169.497,328.756,174.942,332.803,177.375"/>
<path class="path-11" d="M332.803,177.375C337.686,180.311,348.533,196.415,350.757,198.133"/>
<path class="path-11" d="M350.757,198.133C344.383,201.032,334.180,203.732,329.808,208.041"/>
<path class="path-11" d="M329.808,208.041C332.044,213.669,333.302,222.617,333.586,225.311"/>
<path class="path-11" d="M333.586,225.311C327.455,226.367,319.991,224.304,308.381,223.391"/>
<path class="path-11" d="M308.381,223.391C306.790,230.775,307.486,237.468,303.548,245.198"/>
<path class="path-11" d="M303.548,245.198C295.644,243.645,290.114,242.307,279.746,238.898"/>
<path class="path-11" d="M279.746,238.898C273.733,244.738,272.160,244.488,262.183,252.061"/>
<path class="path-11" d="M262.183,252.061C254.684,248.465,248.590,244.437,241.421,242.308"/>
<path class="path-11" d="M241.421,242.308C234.976,245.871,224.397,247.972,221.071,251.253"/>
<path class="path-11" d="M221.071,251.253C216.570,244.638,212.301,237.262,208.721,234.236"/>
<path class="path-11" d="M208.721,234.236C199.376,237.164,195.550,240.194,189.059,243.331"/>
<path class="path-11" d="M189.059,243.331C184.303,238.273,186.839,233.445,181.362,225.857"/>
<path class="path-11" d="M181.362,225.857C176.937,225.132,170.018,223.205,164.475,223.658"/>
<path class="path-11" d="M164.475,223.658C167.843,218.804,169.171,203.848,175.449,201.333"/>
<path class="path-11" d="M175.449,201.333C183.194,198.230,177.227,189.654,181.305,181.001"/>
<path class="path-11" d="M181.305,181.001C182.304,178.755,192.368,161.321,193.149,158.559"/>
<path class="path-11" d="M193.149,158.559C194.675,153.778,196.360,148.699,200.027,145.475"/>
<path class="path-11" d="M200.027,145.475C216.239,131.892,235.970,128.779,256.859,125.796"/>
<path class="path-12" d="M256.859,125.796C266.222,124.441,273.325,130.177,281.158,135.711C287.625,140.604,294.606,146.149,301.468,151.277C311.791,158.935,316.189,162.858,320.134,166.633C323.470,169.497,328.756,174.942,332.803,177.375C337.686,180.311,348.533,196.415,350.757,198.133C344.383,201.032,334.180,203.732,329.808,208.041C332.044,213.669,333.302,222.617,333.586,225.311C327.455,226.367,319.991,224.304,308.381,223.391C306.790,230.775,307.486,237.468,303.548,245.198C295.644,243.645,290.114,242.307,279.746,238.898C273.733,244.738,272.160,244.488,262.183,252.061C254.684,248.465,248.590,244.437,241.421,242.308C234.976,245.871,224.397,247.972,221.071,251.253C216.570,244.638,212.301,237.262,208.721,234.236C199.376,237.164,195.550,240.194,189.059,243.331C184.303,238.273,186.839,233.445,181.362,225.857C176.937,225.132,170.018,223.205,164.475,223.658C167.843,218.804,169.171,203.848,175.449,201.333C183.194,198.230,177.227,189.654,181.305,181.001C182.304,178.755,192.368,161.321,193.149,158.559C194.675,153.778,196.360,148.699,200.027,145.475C216.239,131.892,235.970,128.779,256.859,125.796Z"/>
</g>
<g id="clothes">
<path class="path-0" d="M244.957,370.734C239.753,368.672,219.949,369.207,216.445,373.839C214.222,376.969,217.479,378.755,220.810,379.021C224.789,379.339,245.766,379.358,248.551,377.728C252.972,375.070,247.121,371.484,244.957,370.734M200.050,266.967C203.936,254.644,231.697,243.861,244.489,245.830C253.455,247.183,280.777,263.380,284.136,272.039C286.950,278.966,286.036,303.718,285.681,312.078C284.751,327.357,284.316,342.712,284.028,358.017C284.376,370.013,293.202,383.475,287.203,393.869C284.772,397.034,275.123,397.052,270.798,397.806C264.993,399.105,253.892,403.716,248.420,403.480C225.538,403.116,227.706,404.858,206.271,403.764C202.163,403.398,188.882,401.609,186.375,399.583C180.712,393.814,184.355,385.261,186.301,377.724C190.354,364.305,192.177,354.908,194.477,340.221C196.856,324.347,200.074,307.394,201.349,290.853C201.476,284.911,199.129,270.535,200.050,266.967M279.869,254.543C264.268,243.644,248.848,234.468,228.766,238.685C223.376,239.616,195.949,250.545,193.407,253.696C189.448,258.688,191.845,278.913,191.321,286.113C191.028,294.705,190.591,303.625,189.245,311.803C188.392,318.065,186.573,323.575,186.061,329.531C185.161,336.121,184.660,343.287,183.026,349.274C178.366,365.888,164.546,398.630,183.985,411.202C188.561,414.185,195.381,414.214,201.132,414.658C211.052,415.233,221.697,416.132,231.739,415.174C244.125,414.338,256.094,410.141,268.653,409.746C275.116,409.543,295.025,417.062,299.962,412.341C302.384,410.126,303.319,395.630,302.977,391.937C301.112,378.690,295.030,366.152,293.835,352.828C293.097,340.869,293.589,329.099,295.266,316.885C296.426,306.908,298.872,297.367,299.645,287.023C299.634,282.633,300.658,277.315,298.627,272.778C295.206,264.467,286.890,259.439,279.869,254.543Z"/>
<path class="path-13" d="M244.957,370.734C239.753,368.672,219.949,369.207,216.445,373.839"/>
<path class="path-13" d="M216.445,373.839C214.222,376.969,217.479,378.755,220.810,379.021"/>
<path class="path-13" d="M220.810,379.021C224.789,379.339,245.766,379.358,248.551,377.728"/>
<path class="path-13" d="M248.551,377.728C252.972,375.070,247.121,371.484,244.957,370.734"/>
<path class="path-13" d="M200.050,266.967C203.936,254.644,231.697,243.861,244.489,245.830"/>
<path class="path-13" d="M244.489,245.830C253.455,247.183,280.777,263.380,284.136,272.039"/>
<path class="path-13" d="M284.136,272.039C286.950,278.966,286.036,303.718,285.681,312.078"/>
<path class="path-13" d="M285.681,312.078C284.751,327.357,284.316,342.712,284.028,358.017"/>
<path class="path-13" d="M284.028,358.017C284.376,370.013,293.202,383.475,287.203,393.869"/>
<path class="path-13" d="M287.203,393.869C284.772,397.034,275.123,397.052,270.798,397.806"/>
<path class="path-13" d="M270.798,397.806C264.993,399.105,253.892,403.716,248.420,403.480"/>
<path class="path-13" d="M248.420,403.480C225.538,403.116,227.706,404.858,206.271,403.764"/>
<path class="path-13" d="M206.271,403.764C202.163,403.398,188.882,401.609,186.375,399.583"/>
<path class="path-13" d="M186.375,399.583C180.712,393.814,184.355,385.261,186.301,377.724"/>
<path class="path-13" d="M186.301,377.724C190.354,364.305,192.177,354.908,194.477,340.221"/>
<path class="path-13" d="M194.477,340.221C196.856,324.347,200.074,307.394,201.349,290.853"/>
<path class="path-13" d="M201.349,290.853C201.476,284.911,199.129,270.535,200.050,266.967"/>
<path class="path-14" d="M244.957,370.734C239.753,368.672,219.949,369.207,216.445,373.839C214.222,376.969,217.479,378.755,220.810,379.021C224.789,379.339,245.766,379.358,248.551,377.728C252.972,375.070,247.121,371.484,244.957,370.734M200.050,266.967C203.936,254.644,231.697,243.861,244.489,245.830C253.455,247.183,280.777,263.380,284.136,272.039C286.950,278.966,286.036,303.718,285.681,312.078C284.751,327.357,284.316,342.712,284.028,358.017C284.376,370.013,293.202,383.475,287.203,393.869C284.772,397.034,275.123,397.052,270.798,397.806C264.993,399.105,253.892,403.716,248.420,403.480C225.538,403.116,227.706,404.858,206.271,403.764C202.163,403.398,188.882,401.609,186.375,399.583C180.712,393.814,184.355,385.261,186.301,377.724C190.354,364.305,192.177,354.908,194.477,340.221C196.856,324.347,200.074,307.394,201.349,290.853C201.476,284.911,199.129,270.535,200.050,266.967Z"/>
</g>
<g id="neck">
<path class="path-0" d="M240.628,226.409C241.346,223.142,242.685,220.284,246.358,220.379C258.155,219.750,252.794,256.974,242.220,255.737C232.307,254.578,239.233,232.609,240.628,226.409M247.441,211.128C244.837,210.488,241.786,210.800,239.317,211.851C229.523,215.394,229.839,224.141,228.834,232.732C228.000,236.990,227.867,240.994,225.459,244.396C223.421,247.508,218.407,250.269,217.981,253.906C217.152,263.858,243.918,266.990,250.896,267.471C253.539,267.780,262.345,269.815,263.761,266.297C263.877,265.306,258.623,252.966,258.173,248.224C256.823,233.998,268.474,214.594,247.441,211.128Z"/>
<path class="path-15" d="M246.358,220.379C258.155,219.750,252.794,256.974,242.220,255.737"/>
<path class="path-15" d="M242.220,255.737C232.307,254.578,239.233,232.609,240.628,226.409"/>
<path class="path-15" d="M240.628,226.409C241.346,223.142,242.685,220.284,246.358,220.379"/>
<path class="path-16" d="M246.358,220.379C258.155,219.750,252.794,256.974,242.220,255.737C232.307,254.578,239.233,232.609,240.628,226.409C241.346,223.142,242.685,220.284,246.358,220.379Z"/>
</g>
<g id="layer_head">
<g id="right_ear">
<path class="path-0" d="M171.134,184.492C167.000,184.138,158.284,157.241,162.974,158.773C168.738,160.655,170.292,171.645,171.408,176.128C172.004,178.145,174.790,184.805,171.134,184.492M166.191,144.738C164.663,143.425,162.842,141.863,160.927,142.484C151.537,143.947,153.664,158.388,155.495,167.763C157.780,178.824,163.861,193.105,172.727,198.725C174.063,199.581,176.344,202.253,178.012,202.097C184.031,201.157,179.681,190.944,178.600,186.288C177.033,178.801,170.863,150.390,166.191,144.738Z"/>
<path class="path-15" d="M162.974,158.773C168.738,160.655,170.292,171.645,171.408,176.128"/>
<path class="path-15" d="M171.408,176.128C172.004,178.145,174.790,184.805,171.134,184.492"/>
<path class="path-15" d="M171.134,184.492C167.000,184.138,158.284,157.241,162.974,158.773"/>
<path class="path-16" d="M162.974,158.773C168.738,160.655,170.292,171.645,171.408,176.128C172.004,178.145,174.790,184.805,171.134,184.492C167.000,184.138,158.284,157.241,162.974,158.773Z"/>
</g>
<g id="face_Mask">
<g id="face">
<path class="path-0" d="M173.890,101.516C183.492,92.082,216.859,88.607,230.636,88.149C246.068,87.878,261.346,91.941,275.702,98.244C280.806,100.493,288.523,103.016,292.405,107.490C298.432,114.488,299.751,126.024,299.870,134.897C300.080,140.242,299.864,147.116,298.256,151.909C287.819,183.002,279.462,197.727,271.740,205.791C258.516,219.603,237.230,223.319,218.289,224.160C199.773,224.718,191.524,220.835,175.292,211.778C172.439,210.192,166.163,206.820,164.417,204.228C158.106,194.477,163.451,182.846,162.328,171.778C161.194,163.234,156.188,150.910,155.497,142.494C154.755,131.288,165.996,109.203,173.890,101.516M297.256,100.312C285.250,86.504,249.365,79.795,231.546,80.450C223.168,80.503,215.159,80.264,207.331,81.387C201.521,82.405,196.259,84.488,190.780,85.545C178.723,88.540,174.102,86.572,165.117,96.393C158.686,103.252,146.815,131.777,146.571,141.017C146.504,148.618,153.147,166.274,153.144,175.123C153.085,184.684,146.635,197.712,150.038,206.286C153.217,213.969,160.778,217.999,171.130,223.344C179.081,227.450,187.993,231.236,197.074,232.809C201.767,233.622,207.166,235.556,217.407,234.545C237.719,232.282,259.039,227.507,274.994,212.631C289.577,199.034,309.331,180.700,314.526,150.355C317.859,130.881,303.680,107.540,297.256,100.312Z"/>
<path class="path-15" d="M230.636,88.149C246.068,87.878,261.346,91.941,275.702,98.244"/>
<path class="path-15" d="M275.702,98.244C280.806,100.493,288.523,103.016,292.405,107.490"/>
<path class="path-15" d="M292.405,107.490C298.432,114.488,299.751,126.024,299.870,134.897"/>
<path class="path-15" d="M299.870,134.897C300.080,140.242,299.864,147.116,298.256,151.909"/>
<path class="path-15" d="M298.256,151.909C287.819,183.002,279.462,197.727,271.740,205.791"/>
<path class="path-15" d="M271.740,205.791C258.516,219.603,237.230,223.319,218.289,224.160"/>
<path class="path-15" d="M218.289,224.160C199.773,224.718,191.524,220.835,175.292,211.778"/>
<path class="path-15" d="M175.292,211.778C172.439,210.192,166.163,206.820,164.417,204.228"/>
<path class="path-15" d="M164.417,204.228C158.106,194.477,163.451,182.846,162.328,171.778"/>
<path class="path-15" d="M162.328,171.778C161.194,163.234,156.188,150.910,155.497,142.494"/>
<path class="path-15" d="M155.497,142.494C154.755,131.288,165.996,109.203,173.890,101.516"/>
<path class="path-15" d="M173.890,101.516C183.492,92.082,216.859,88.607,230.636,88.149"/>
<path class="path-16" d="M230.636,88.149C246.068,87.878,261.346,91.941,275.702,98.244C280.806,100.493,288.523,103.016,292.405,107.490C298.432,114.488,299.751,126.024,299.870,134.897C300.080,140.242,299.864,147.116,298.256,151.909C287.819,183.002,279.462,197.727,271.740,205.791C258.516,219.603,237.230,223.319,218.289,224.160C199.773,224.718,191.524,220.835,175.292,211.778C172.439,210.192,166.163,206.820,164.417,204.228C158.106,194.477,163.451,182.846,162.328,171.778C161.194,163.234,156.188,150.910,155.497,142.494C154.755,131.288,165.996,109.203,173.890,101.516C183.492,92.082,216.859,88.607,230.636,88.149Z"/>
</g>
</g>
<mask id="mask_target" style="mask-type:alpha;">
<use xlink:href="#face_Mask"/>
</mask>
<g id="mouse">
<path class="path-0" d="M198.520,212.590C203.568,214.269,203.119,219.001,202.592,219.452C202.294,219.707,201.285,218.636,198.398,217.821C192.930,216.278,190.110,217.141,189.994,216.409C189.866,215.606,192.610,210.624,198.520,212.590Z"/>
</g>
<g id="layer_eyes_Mtarget" mask="url(#mask_target)">
<g id="eyes">
<mask style="mask-type:alpha;" id="f3906406-f197-4bf1-91d8-744c09cca836">
<use xlink:href="#cmn_f3906406-f197-4bf1-91d8-744c09cca836"/>
</mask>
<g id="cmn_f3906406-f197-4bf1-91d8-744c09cca836">
<path class="path-0" d="M149.332,179.241C150.615,180.889,152.232,185.209,152.743,184.763C152.117,185.324,149.263,182.912,148.703,181.458C148.482,180.917,149.013,178.036,148.782,178.716C148.754,178.798,149.288,179.186,149.332,179.241M159.137,183.546C159.055,182.292,159.459,178.087,157.803,176.912C156.852,176.237,155.058,176.766,153.919,177.087C151.094,177.817,140.231,170.217,140.172,166.314C140.161,165.543,143.111,162.603,143.868,162.504C155.223,161.024,133.525,180.657,143.456,193.156C144.376,194.313,152.948,191.378,152.228,192.125C151.780,192.590,159.301,186.050,159.137,183.546M186.948,192.016C182.550,190.985,175.536,188.408,176.523,181.439C176.908,178.725,191.405,178.804,194.990,178.057C198.539,177.318,211.844,174.091,213.628,174.366C214.677,174.592,215.371,178.303,214.964,180.888C214.299,185.116,194.263,193.731,186.948,192.016M221.842,186.013C224.379,182.320,225.289,168.676,223.998,167.702C219.872,164.585,206.068,169.714,198.459,171.061C192.681,172.084,183.195,175.649,179.359,175.279C176.108,175.083,173.445,174.125,171.856,175.724C170.275,177.317,170.925,181.016,171.460,183.197C172.298,186.619,174.158,190.910,177.716,193.138C184.554,197.567,198.409,195.617,206.012,194.734C207.921,194.508,218.868,190.342,221.842,186.013Z"/>
<path class="path-17" d="M213.628,174.366C214.677,174.592,215.371,178.303,214.964,180.888"/>
<path class="path-17" d="M214.964,180.888C214.299,185.116,194.263,193.731,186.948,192.016"/>
<path class="path-17" d="M186.948,192.016C182.550,190.985,175.536,188.408,176.523,181.439"/>
<path class="path-17" d="M176.523,181.439C176.908,178.725,191.405,178.804,194.990,178.057"/>
<path class="path-17" d="M194.990,178.057C198.539,177.318,211.844,174.091,213.628,174.366"/>
<path class="path-18" d="M213.628,174.366C214.677,174.592,215.371,178.303,214.964,180.888C214.299,185.116,194.263,193.731,186.948,192.016C182.550,190.985,175.536,188.408,176.523,181.439C176.908,178.725,191.405,178.804,194.990,178.057C198.539,177.318,211.844,174.091,213.628,174.366Z"/>
<path class="path-17" d="M148.782,178.716C148.754,178.798,149.288,179.186,149.332,179.241"/>
<path class="path-17" d="M149.332,179.241C150.615,180.889,152.232,185.209,152.743,184.763"/>
<path class="path-17" d="M152.743,184.763C152.117,185.324,149.263,182.912,148.703,181.458"/>
<path class="path-17" d="M148.703,181.458C148.482,180.917,149.013,178.036,148.782,178.716"/>
<path class="path-18" d="M148.782,178.716C148.754,178.798,149.288,179.186,149.332,179.241C150.615,180.889,152.232,185.209,152.743,184.763C152.117,185.324,149.263,182.912,148.703,181.458C148.482,180.917,149.013,178.036,148.782,178.716Z"/>
</g>
</g>
<g id="pupil">
<path class="path-0" d="M179.969,169.702C182.291,169.388,185.141,172.862,185.057,181.312C184.993,187.690,183.023,190.089,181.254,190.092C179.342,190.094,177.997,187.337,177.480,180.459C176.928,173.119,177.947,169.975,179.969,169.702Z" mask="url(#f3906406-f197-4bf1-91d8-744c09cca836)"/>
<path class="path-0" d="M150.892,168.644C153.347,168.470,156.548,172.429,155.639,181.552C155.110,186.858,153.215,188.539,151.784,188.561C150.182,188.585,148.294,186.591,147.557,180.667C146.531,172.413,148.666,168.803,150.892,168.644Z" mask="url(#f3906406-f197-4bf1-91d8-744c09cca836)"/>
</g>
</g>
<g id="hat">
<path class="path-0" d="M306.596,145.106C308.731,146.201,310.989,149.266,311.248,151.937C312.507,158.862,301.086,159.067,297.442,159.141C291.795,158.690,286.045,157.034,280.781,155.774C273.534,154.720,266.533,152.364,259.328,151.051C236.720,145.084,213.895,140.109,191.160,134.666C180.815,132.616,171.673,129.653,160.339,127.604C159.224,127.402,149.410,127.055,147.506,126.272C132.850,120.397,147.076,108.116,146.706,101.157C146.749,99.321,143.416,98.549,144.328,95.352C144.909,93.430,150.339,89.796,152.299,89.177C161.463,86.228,171.888,86.382,181.924,87.374C192.540,88.424,201.720,91.381,212.045,94.009C237.620,100.520,280.105,113.227,312.490,129.992C321.602,134.708,302.022,130.600,300.165,130.544C282.938,130.027,212.501,105.255,251.241,121.494C266.122,127.731,293.490,137.842,306.596,145.106M202.392,78.260C190.371,75.660,179.307,73.386,167.670,74.340C163.515,74.670,158.113,74.945,154.873,75.675C148.216,77.176,162.347,59.029,166.079,55.845C184.086,40.863,213.191,32.275,237.415,36.684C285.396,45.415,301.890,60.961,312.466,81.361C315.960,87.527,324.421,114.799,313.737,119.638C310.349,120.913,304.992,117.485,302.511,115.698C293.546,109.527,220.581,82.194,202.392,78.260M308.743,52.256C292.847,40.528,270.102,29.439,242.262,26.915C212.256,24.195,178.720,29.790,156.610,53.388C149.849,60.769,146.290,69.346,141.622,77.406C138.821,82.191,134.075,84.872,132.930,90.232C131.521,97.830,135.962,100.403,135.874,106.765C135.972,114.067,131.176,115.606,130.865,120.293C128.854,132.591,140.140,137.264,150.159,139.709C154.439,140.754,170.690,142.040,179.462,143.245C189.329,144.600,202.470,146.545,212.271,148.312C223.763,150.384,238.922,153.992,250.387,156.210C261.091,158.281,275.325,161.373,286.152,162.649C294.281,163.606,312.238,165.021,313.387,164.279C315.045,163.232,321.788,151.149,322.576,148.721C323.954,144.472,322.359,139.407,324.929,132.660C328.417,122.836,332.248,114.626,332.336,103.367C332.316,82.674,320.985,61.289,308.743,52.256Z"/>
<path class="path-19" d="M212.045,94.009C237.620,100.520,280.105,113.227,312.490,129.992"/>
<path class="path-19" d="M312.490,129.992C321.602,134.708,302.022,130.600,300.165,130.544"/>
<path class="path-19" d="M300.165,130.544C282.938,130.027,212.501,105.255,251.241,121.494"/>
<path class="path-19" d="M251.241,121.494C266.122,127.731,293.490,137.842,306.596,145.106"/>
<path class="path-19" d="M306.596,145.106C308.731,146.201,310.989,149.266,311.248,151.937"/>
<path class="path-19" d="M311.248,151.937C312.507,158.862,301.086,159.067,297.442,159.141"/>
<path class="path-19" d="M297.442,159.141C291.795,158.690,286.045,157.034,280.781,155.774"/>
<path class="path-19" d="M280.781,155.774C273.534,154.720,266.533,152.364,259.328,151.051"/>
<path class="path-19" d="M259.328,151.051C236.720,145.084,213.895,140.109,191.160,134.666"/>
<path class="path-19" d="M191.160,134.666C180.815,132.616,171.673,129.653,160.339,127.604"/>
<path class="path-19" d="M160.339,127.604C159.224,127.402,149.410,127.055,147.506,126.272"/>
<path class="path-19" d="M147.506,126.272C132.850,120.397,147.076,108.116,146.706,101.157"/>
<path class="path-19" d="M146.706,101.157C146.749,99.321,143.416,98.549,144.328,95.352"/>
<path class="path-19" d="M144.328,95.352C144.909,93.430,150.339,89.796,152.299,89.177"/>
<path class="path-19" d="M152.299,89.177C161.463,86.228,171.888,86.382,181.924,87.374"/>
<path class="path-19" d="M181.924,87.374C192.540,88.424,201.720,91.381,212.045,94.009"/>
<path class="path-20" d="M212.045,94.009C237.620,100.520,280.105,113.227,312.490,129.992C321.602,134.708,302.022,130.600,300.165,130.544C282.938,130.027,212.501,105.255,251.241,121.494C266.122,127.731,293.490,137.842,306.596,145.106C308.731,146.201,310.989,149.266,311.248,151.937C312.507,158.862,301.086,159.067,297.442,159.141C291.795,158.690,286.045,157.034,280.781,155.774C273.534,154.720,266.533,152.364,259.328,151.051C236.720,145.084,213.895,140.109,191.160,134.666C180.815,132.616,171.673,129.653,160.339,127.604C159.224,127.402,149.410,127.055,147.506,126.272C132.850,120.397,147.076,108.116,146.706,101.157C146.749,99.321,143.416,98.549,144.328,95.352C144.909,93.430,150.339,89.796,152.299,89.177C161.463,86.228,171.888,86.382,181.924,87.374C192.540,88.424,201.720,91.381,212.045,94.009Z"/>
<path class="path-9" d="M237.415,36.684C285.396,45.415,301.890,60.961,312.466,81.361"/>
<path class="path-9" d="M312.466,81.361C315.960,87.527,324.421,114.799,313.737,119.638"/>
<path class="path-9" d="M313.737,119.638C310.349,120.913,304.992,117.485,302.511,115.698"/>
<path class="path-9" d="M302.511,115.698C293.546,109.527,220.581,82.194,202.392,78.260"/>
<path class="path-9" d="M202.392,78.260C190.371,75.660,179.307,73.386,167.670,74.340"/>
<path class="path-9" d="M167.670,74.340C163.515,74.670,158.113,74.945,154.873,75.675"/>
<path class="path-9" d="M154.873,75.675C148.216,77.176,162.347,59.029,166.079,55.845"/>
<path class="path-9" d="M166.079,55.845C184.086,40.863,213.191,32.275,237.415,36.684"/>
<path class="path-10" d="M237.415,36.684C285.396,45.415,301.890,60.961,312.466,81.361C315.960,87.527,324.421,114.799,313.737,119.638C310.349,120.913,304.992,117.485,302.511,115.698C293.546,109.527,220.581,82.194,202.392,78.260C190.371,75.660,179.307,73.386,167.670,74.340C163.515,74.670,158.113,74.945,154.873,75.675C148.216,77.176,162.347,59.029,166.079,55.845C184.086,40.863,213.191,32.275,237.415,36.684Z"/>
</g>
<g id="left_ear">
<path class="path-0" d="M256.609,183.333C257.234,181.983,260.459,178.207,261.679,177.076C271.835,166.899,288.358,158.804,295.094,167.795C302.582,178.231,285.515,200.924,273.089,204.176C258.603,207.733,251.559,195.237,256.609,183.333M309.640,173.288C308.690,161.940,303.210,153.503,285.303,154.693C268.315,155.822,262.068,178.164,259.572,191.996C259.136,194.839,259.353,197.929,259.835,200.622C261.559,211.238,268.560,217.866,279.301,212.154C292.103,205.178,310.463,188.759,309.640,173.288Z"/>
<path class="path-15" d="M261.679,177.076C271.835,166.899,288.358,158.804,295.094,167.795"/>
<path class="path-15" d="M295.094,167.795C302.582,178.231,285.515,200.924,273.089,204.176"/>
<path class="path-15" d="M273.089,204.176C258.603,207.733,251.559,195.237,256.609,183.333"/>
<path class="path-15" d="M256.609,183.333C257.234,181.983,260.459,178.207,261.679,177.076"/>
<path class="path-16" d="M261.679,177.076C271.835,166.899,288.358,158.804,295.094,167.795C302.582,178.231,285.515,200.924,273.089,204.176C258.603,207.733,251.559,195.237,256.609,183.333C257.234,181.983,260.459,178.207,261.679,177.076Z"/>
</g>
<g id="earrings">
<path class="path-0" d="M283.539,216.054C274.164,219.725,275.066,201.991,278.219,202.551C282.554,204.436,292.643,218.705,283.539,216.054M294.298,209.880C287.673,209.717,285.436,200.455,285.249,196.627C292.554,198.931,301.434,205.304,294.298,209.880M305.260,207.666C303.586,199.318,291.845,193.411,284.369,189.244C281.517,187.654,272.068,197.283,271.386,200.650C269.946,204.591,270.520,226.668,284.538,225.205C290.383,224.333,306.606,214.376,305.260,207.666Z"/>
<path class="path-21" d="M285.249,196.627C292.554,198.931,301.434,205.304,294.298,209.880"/>
<path class="path-21" d="M294.298,209.880C287.673,209.717,285.436,200.455,285.249,196.627"/>
<path class="path-22" d="M285.249,196.627C292.554,198.931,301.434,205.304,294.298,209.880C287.673,209.717,285.436,200.455,285.249,196.627Z"/>
<path class="path-21" d="M278.219,202.551C282.554,204.436,292.643,218.705,283.539,216.054"/>
<path class="path-21" d="M283.539,216.054C274.164,219.725,275.066,201.991,278.219,202.551"/>
<path class="path-22" d="M278.219,202.551C282.554,204.436,292.643,218.705,283.539,216.054C274.164,219.725,275.066,201.991,278.219,202.551Z"/>
</g>
</g>
<g id="jacket">
<path class="path-0" d="M211.118,272.413C212.998,277.162,207.463,286.680,206.506,291.265C200.615,308.881,192.105,325.822,192.610,343.959C192.940,349.637,196.878,361.836,191.731,365.990C189.993,367.392,185.171,364.707,184.286,366.095C182.522,368.846,178.720,359.164,178.053,357.699C177.365,356.188,175.508,347.665,175.417,345.237C175.534,340.536,176.546,331.415,177.489,325.560C178.476,319.712,178.460,313.386,180.989,307.355C183.195,300.636,187.528,293.265,189.892,285.739C192.427,281.120,196.129,278.648,195.783,274.939C195.088,271.235,193.443,269.232,196.750,267.778C200.904,266.293,210.467,267.376,211.118,272.413M273.401,279.260C274.956,278.025,289.096,272.314,290.858,271.676C303.635,267.728,305.849,282.938,305.375,290.796C305.213,294.218,304.249,306.190,304.607,308.623C305.065,313.830,308.077,317.143,308.539,321.603C309.127,332.406,310.468,325.805,308.490,334.965C307.989,337.271,306.217,341.940,305.101,343.967C303.808,346.016,299.639,349.528,298.485,351.486C295.416,355.784,294.291,361.684,286.654,363.037C285.276,363.460,272.591,370.393,270.372,371.486C266.392,373.186,261.420,376.337,257.630,373.640C253.109,370.038,253.749,362.004,252.930,355.863C250.882,342.238,252.933,328.346,256.362,314.944C258.602,304.340,265.260,287.254,273.401,279.260M286.934,262.898C284.021,264.602,277.741,264.862,275.913,265.157C271.949,265.579,271.495,262.162,271.288,259.370C271.116,254.867,274.313,248.436,277.690,245.230C280.353,242.702,284.972,240.491,289.001,240.556C292.941,240.480,299.411,243.831,298.719,248.261C298.440,251.278,291.799,260.050,286.934,262.898M213.497,244.717C217.957,253.654,222.907,262.804,217.666,261.931C211.661,260.930,208.703,260.593,199.309,256.719C188.813,252.390,186.163,237.259,192.101,232.586C197.899,228.023,208.280,234.262,213.497,244.717M315.763,350.520C317.779,345.564,320.203,342.366,320.302,336.781C320.340,331.974,319.262,326.323,317.069,322.073C312.610,313.953,310.565,310.837,304.826,302.065C302.728,298.977,299.931,296.927,299.441,293.378C298.825,289.985,300.440,272.279,301.555,269.337C302.642,264.250,308.119,261.055,309.459,256.459C310.687,252.700,311.998,248.687,311.613,244.751C311.402,239.513,306.926,235.828,303.295,232.787C298.115,228.944,293.053,228.473,286.471,228.915C276.895,229.568,271.150,238.012,267.045,244.185C261.209,252.964,261.704,268.224,258.521,278.273C256.697,284.031,253.439,291.798,251.388,297.102C243.047,317.705,228.057,375.038,246.875,387.141C248.368,388.244,259.934,389.606,263.337,388.735C271.759,386.623,275.184,383.940,283.273,381.523C289.913,379.817,299.259,370.037,305.362,363.729C308.812,360.390,314.438,353.776,315.763,350.520M220.021,235.312C214.822,228.739,205.812,217.151,197.406,218.912C193.135,219.951,187.102,222.960,183.941,226.315C180.954,229.484,177.732,234.996,177.666,239.407C177.462,244.849,177.447,251.314,179.236,255.975C181.335,261.442,190.173,265.830,191.013,271.544C191.319,274.110,184.791,285.299,183.774,288.337C181.803,294.818,177.872,300.798,175.835,306.337C173.836,311.769,171.847,319.242,170.320,324.826C168.248,332.404,164.510,341.695,164.032,350.248C163.555,354.581,164.958,364.543,167.741,369.838C169.453,373.097,173.902,377.782,176.132,378.793C177.471,379.400,191.391,383.758,196.262,380.165C205.091,373.652,202.377,359.727,200.721,343.868C199.152,329.335,210.436,317.997,215.075,303.959C217.303,297.128,225.228,276.962,226.028,269.578C226.646,263.880,228.721,260.094,227.473,252.121C226.670,247.831,223.443,239.638,220.021,235.312Z"/>
<path class="path-1" d="M290.858,271.676C303.635,267.728,305.849,282.938,305.375,290.796"/>
<path class="path-1" d="M305.375,290.796C305.213,294.218,304.249,306.190,304.607,308.623"/>
<path class="path-1" d="M304.607,308.623C305.065,313.830,308.077,317.143,308.539,321.603"/>
<path class="path-1" d="M308.539,321.603C309.127,332.406,310.468,325.805,308.490,334.965"/>
<path class="path-1" d="M308.490,334.965C307.989,337.271,306.217,341.940,305.101,343.967"/>
<path class="path-1" d="M305.101,343.967C303.808,346.016,299.639,349.528,298.485,351.486"/>
<path class="path-1" d="M298.485,351.486C295.416,355.784,294.291,361.684,286.654,363.037"/>
<path class="path-1" d="M286.654,363.037C285.276,363.460,272.591,370.393,270.372,371.486"/>
<path class="path-1" d="M270.372,371.486C266.392,373.186,261.420,376.337,257.630,373.640"/>
<path class="path-1" d="M257.630,373.640C253.109,370.038,253.749,362.004,252.930,355.863"/>
<path class="path-1" d="M252.930,355.863C250.882,342.238,252.933,328.346,256.362,314.944"/>
<path class="path-1" d="M256.362,314.944C258.602,304.340,265.260,287.254,273.401,279.260"/>
<path class="path-1" d="M273.401,279.260C274.956,278.025,289.096,272.314,290.858,271.676"/>
<path class="path-2" d="M290.858,271.676C303.635,267.728,305.849,282.938,305.375,290.796C305.213,294.218,304.249,306.190,304.607,308.623C305.065,313.830,308.077,317.143,308.539,321.603C309.127,332.406,310.468,325.805,308.490,334.965C307.989,337.271,306.217,341.940,305.101,343.967C303.808,346.016,299.639,349.528,298.485,351.486C295.416,355.784,294.291,361.684,286.654,363.037C285.276,363.460,272.591,370.393,270.372,371.486C266.392,373.186,261.420,376.337,257.630,373.640C253.109,370.038,253.749,362.004,252.930,355.863C250.882,342.238,252.933,328.346,256.362,314.944C258.602,304.340,265.260,287.254,273.401,279.260C274.956,278.025,289.096,272.314,290.858,271.676Z"/>
<path class="path-1" d="M196.750,267.778C200.904,266.293,210.467,267.376,211.118,272.413"/>
<path class="path-1" d="M211.118,272.413C212.998,277.162,207.463,286.680,206.506,291.265"/>
<path class="path-1" d="M206.506,291.265C200.615,308.881,192.105,325.822,192.610,343.959"/>
<path class="path-1" d="M192.610,343.959C192.940,349.637,196.878,361.836,191.731,365.990"/>
<path class="path-1" d="M191.731,365.990C189.993,367.392,185.171,364.707,184.286,366.095"/>
<path class="path-1" d="M184.286,366.095C182.522,368.846,178.720,359.164,178.053,357.699"/>
<path class="path-1" d="M178.053,357.699C177.365,356.188,175.508,347.665,175.417,345.237"/>
<path class="path-1" d="M175.417,345.237C175.534,340.536,176.546,331.415,177.489,325.560"/>
<path class="path-1" d="M177.489,325.560C178.476,319.712,178.460,313.386,180.989,307.355"/>
<path class="path-1" d="M180.989,307.355C183.195,300.636,187.528,293.265,189.892,285.739"/>
<path class="path-1" d="M189.892,285.739C192.427,281.120,196.129,278.648,195.783,274.939"/>
<path class="path-1" d="M195.783,274.939C195.088,271.235,193.443,269.232,196.750,267.778"/>
<path class="path-2" d="M196.750,267.778C200.904,266.293,210.467,267.376,211.118,272.413C212.998,277.162,207.463,286.680,206.506,291.265C200.615,308.881,192.105,325.822,192.610,343.959C192.940,349.637,196.878,361.836,191.731,365.990C189.993,367.392,185.171,364.707,184.286,366.095C182.522,368.846,178.720,359.164,178.053,357.699C177.365,356.188,175.508,347.665,175.417,345.237C175.534,340.536,176.546,331.415,177.489,325.560C178.476,319.712,178.460,313.386,180.989,307.355C183.195,300.636,187.528,293.265,189.892,285.739C192.427,281.120,196.129,278.648,195.783,274.939C195.088,271.235,193.443,269.232,196.750,267.778Z"/>
<path class="path-1" d="M289.001,240.556C292.941,240.480,299.411,243.831,298.719,248.261"/>
<path class="path-1" d="M298.719,248.261C298.440,251.278,291.799,260.050,286.934,262.898"/>
<path class="path-1" d="M286.934,262.898C284.021,264.602,277.741,264.862,275.913,265.157"/>
<path class="path-1" d="M275.913,265.157C271.949,265.579,271.495,262.162,271.288,259.370"/>
<path class="path-1" d="M271.288,259.370C271.116,254.867,274.313,248.436,277.690,245.230"/>
<path class="path-1" d="M277.690,245.230C280.353,242.702,284.972,240.491,289.001,240.556"/>
<path class="path-2" d="M289.001,240.556C292.941,240.480,299.411,243.831,298.719,248.261C298.440,251.278,291.799,260.050,286.934,262.898C284.021,264.602,277.741,264.862,275.913,265.157C271.949,265.579,271.495,262.162,271.288,259.370C271.116,254.867,274.313,248.436,277.690,245.230C280.353,242.702,284.972,240.491,289.001,240.556Z"/>
<path class="path-1" d="M213.497,244.717C217.957,253.654,222.907,262.804,217.666,261.931"/>
<path class="path-1" d="M217.666,261.931C211.661,260.930,208.703,260.593,199.309,256.719"/>
<path class="path-1" d="M199.309,256.719C188.813,252.390,186.163,237.259,192.101,232.586"/>
<path class="path-1" d="M192.101,232.586C197.899,228.023,208.280,234.262,213.497,244.717"/>
<path class="path-2" d="M213.497,244.717C217.957,253.654,222.907,262.804,217.666,261.931C211.661,260.930,208.703,260.593,199.309,256.719C188.813,252.390,186.163,237.259,192.101,232.586C197.899,228.023,208.280,234.262,213.497,244.717Z"/>
</g>
<g id="left_arm">
<path class="path-0" d="M309.317,465.038C305.936,459.747,304.518,450.778,312.145,448.375C317.452,446.657,341.458,451.742,345.490,455.694C352.539,461.946,348.693,476.623,340.075,480.037C330.128,483.462,314.723,473.303,309.317,465.038M289.243,284.769C289.773,281.497,297.108,270.487,302.232,271.063C305.208,271.397,307.138,276.223,308.415,278.763C311.950,286.747,315.631,295.023,318.763,303.415C327.314,325.684,333.977,348.152,339.655,370.911C341.702,380.150,341.533,392.518,344.943,400.802C349.032,410.410,355.318,407.021,358.375,413.311C359.737,416.292,359.128,421.955,361.170,426.592C364.237,433.882,369.932,437.818,372.639,442.448C374.331,445.092,375.025,448.080,371.373,448.783C369.387,449.801,364.053,448.856,362.057,448.876C355.382,447.171,348.711,445.462,342.044,443.751C333.041,441.844,305.747,440.785,301.031,434.843C293.952,425.599,304.818,414.511,306.060,405.182C306.689,402.214,309.707,358.649,308.905,355.778C307.819,349.115,303.428,343.677,301.166,336.949C298.540,327.706,295.821,317.820,293.430,308.148C291.596,300.060,287.401,293.661,289.243,284.769M312.777,260.225C309.965,255.841,301.797,248.356,295.985,250.318C291.165,252.176,291.145,258.201,290.909,262.242C290.324,272.344,289.229,280.828,290.261,290.420C290.677,297.402,292.030,303.613,293.388,310.160C294.974,319.067,295.098,336.546,296.196,346.804C296.917,356.355,299.639,366.160,299.221,374.434C297.822,393.866,289.204,412.282,290.059,431.657C290.160,441.444,292.810,441.406,295.185,449.209C296.918,455.177,295.642,461.515,298.025,467.147C304.163,482.057,321.598,495.524,338.532,492.030C354.137,488.880,354.635,471.907,362.861,462.842C370.101,454.784,384.778,458.631,386.692,450.293C388.618,443.287,378.895,435.732,375.183,430.445C367.764,420.538,373.396,418.152,369.661,410.538C366.944,404.909,359.241,399.995,355.509,392.712C353.480,389.404,352.438,383.088,351.045,378.782C348.135,368.463,345.226,356.703,342.815,345.781C340.334,333.335,338.268,322.337,333.510,309.859C329.728,299.558,318.299,267.995,312.777,260.225Z"/>
<path class="path-1" d="M302.232,271.063C305.208,271.397,307.138,276.223,308.415,278.763"/>
<path class="path-1" d="M308.415,278.763C311.950,286.747,315.631,295.023,318.763,303.415"/>
<path class="path-1" d="M318.763,303.415C327.314,325.684,333.977,348.152,339.655,370.911"/>
<path class="path-1" d="M339.655,370.911C341.702,380.150,341.533,392.518,344.943,400.802"/>
<path class="path-1" d="M344.943,400.802C349.032,410.410,355.318,407.021,358.375,413.311"/>
<path class="path-1" d="M358.375,413.311C359.737,416.292,359.128,421.955,361.170,426.592"/>
<path class="path-1" d="M361.170,426.592C364.237,433.882,369.932,437.818,372.639,442.448"/>
<path class="path-1" d="M372.639,442.448C374.331,445.092,375.025,448.080,371.373,448.783"/>
<path class="path-1" d="M371.373,448.783C369.387,449.801,364.053,448.856,362.057,448.876"/>
<path class="path-1" d="M362.057,448.876C355.382,447.171,348.711,445.462,342.044,443.751"/>
<path class="path-1" d="M342.044,443.751C333.041,441.844,305.747,440.785,301.031,434.843"/>
<path class="path-1" d="M301.031,434.843C293.952,425.599,304.818,414.511,306.060,405.182"/>
<path class="path-1" d="M306.060,405.182C306.689,402.214,309.707,358.649,308.905,355.778"/>
<path class="path-1" d="M308.905,355.778C307.819,349.115,303.428,343.677,301.166,336.949"/>
<path class="path-1" d="M301.166,336.949C298.540,327.706,295.821,317.820,293.430,308.148"/>
<path class="path-1" d="M293.430,308.148C291.596,300.060,287.401,293.661,289.243,284.769"/>
<path class="path-1" d="M289.243,284.769C289.773,281.497,297.108,270.487,302.232,271.063"/>
<path class="path-2" d="M302.232,271.063C305.208,271.397,307.138,276.223,308.415,278.763C311.950,286.747,315.631,295.023,318.763,303.415C327.314,325.684,333.977,348.152,339.655,370.911C341.702,380.150,341.533,392.518,344.943,400.802C349.032,410.410,355.318,407.021,358.375,413.311C359.737,416.292,359.128,421.955,361.170,426.592C364.237,433.882,369.932,437.818,372.639,442.448C374.331,445.092,375.025,448.080,371.373,448.783C369.387,449.801,364.053,448.856,362.057,448.876C355.382,447.171,348.711,445.462,342.044,443.751C333.041,441.844,305.747,440.785,301.031,434.843C293.952,425.599,304.818,414.511,306.060,405.182C306.689,402.214,309.707,358.649,308.905,355.778C307.819,349.115,303.428,343.677,301.166,336.949C298.540,327.706,295.821,317.820,293.430,308.148C291.596,300.060,287.401,293.661,289.243,284.769C289.773,281.497,297.108,270.487,302.232,271.063Z"/>
<path class="path-15" d="M312.145,448.375C317.452,446.657,341.458,451.742,345.490,455.694"/>
<path class="path-15" d="M345.490,455.694C352.539,461.946,348.693,476.623,340.075,480.037"/>
<path class="path-15" d="M340.075,480.037C330.128,483.462,314.723,473.303,309.317,465.038"/>
<path class="path-15" d="M309.317,465.038C305.936,459.747,304.518,450.778,312.145,448.375"/>
<path class="path-16" d="M312.145,448.375C317.452,446.657,341.458,451.742,345.490,455.694C352.539,461.946,348.693,476.623,340.075,480.037C330.128,483.462,314.723,473.303,309.317,465.038C305.936,459.747,304.518,450.778,312.145,448.375Z"/>
</g>
<g id="bone">
<g id="bone_B20">
<path class="path-23" d="M244.747,137.068C244.087,125.109,243.427,113.150,242.767,101.191"/>
</g>
<g id="bone_">
<path class="path-23" d="M552.381,338.786C576.363,338.786,600.344,338.786,624.326,338.786"/>
</g>
<g id="bone_">
<path class="path-23" d="M496.479,337.308C479.494,320.905,462.510,304.502,445.525,288.099"/>
</g>
<g id="bone_">
<path class="path-23" d="M436.410,337.308C437.696,313.731,438.981,290.154,440.267,266.577"/>
</g>
<g id="bone_">
<path class="path-23" d="M604.616,215.385C584.493,227.738,564.370,240.092,544.248,252.445"/>
</g>
<g id="bone_">
<path class="path-23" d="M436.410,216.411C460.015,217.018,483.619,217.624,507.223,218.231"/>
</g>
<g id="bone_">
<path class="path-23" d="M551.282,215.385C551.282,191.773,551.282,168.161,551.282,144.549"/>
</g>
<g id="bone_">
<path class="path-23" d="M495.897,216.411C472.469,219.348,449.040,222.286,425.612,225.224"/>
</g>
<g id="bone_B18">
<path class="path-23" d="M213.266,390.566C211.207,422.295,209.148,454.024,207.089,485.753"/>
</g>
<g id="bone_B17">
<path class="path-23" d="M259.420,390.566C272.818,422.554,286.217,454.543,299.615,486.531"/>
</g>
<g id="bone_B16">
<path class="path-23" d="M246.161,162.650C252.975,186.662,259.790,210.673,266.604,234.685"/>
</g>
<g id="bone_B14">
<path class="path-23" d="M150.144,381.180C157.990,398.634,165.836,416.088,173.682,433.542"/>
</g>
<g id="bone_B13">
<path class="path-23" d="M184.970,272.947C173.362,309.024,161.753,345.102,150.144,381.180"/>
</g>
<g id="bone_B11">
<path class="path-23" d="M323.461,353.801C326.072,375.656,328.683,397.512,331.294,419.367"/>
</g>
<g id="bone_B9">
<path class="path-23" d="M298.401,264.688C306.754,294.392,315.108,324.097,323.461,353.801"/>
</g>
<g id="bone_B5">
<path class="path-23" d="M249.164,217.039C247.692,190.382,246.219,163.725,244.747,137.068"/>
</g>
<g id="bone_B4">
<path class="path-23" d="M242.239,258.566C244.547,244.724,246.855,230.881,249.164,217.039"/>
</g>
<g id="bone_B3">
<path class="path-23" d="M243.436,331.558C243.037,307.227,242.638,282.897,242.239,258.566"/>
</g>
<g id="bone_B2">
<path class="path-23" d="M235.830,390.566C238.365,370.897,240.900,351.227,243.436,331.558"/>
</g>
<g id="bone_B1">
<path class="path-23" d="M235.830,390.566C247.807,390.566,259.784,390.566,271.761,390.566"/>
</g>
</g>
</g>
<style>
.path-0{fill:#000000;fill-rule:evenodd;stroke:none;}
.path-1{fill:none;stroke:#a60d3f;stroke-width:1;stroke-linecap:butt;stroke-linejoin:round;}
.path-2{fill:#a60d3f;fill-rule:evenodd;stroke:none;}
.path-3{fill:none;stroke:#d88e4b;stroke-width:1;stroke-linecap:butt;stroke-linejoin:round;}
.path-4{fill:#d88e4b;fill-rule:evenodd;stroke:none;}
.path-5{fill:none;stroke:#6e2353;stroke-width:1;stroke-linecap:butt;stroke-linejoin:round;}
.path-6{fill:#6e2353;fill-rule:evenodd;stroke:none;}
.path-7{fill:none;stroke:#392966;stroke-width:1;stroke-linecap:butt;stroke-linejoin:round;}
.path-8{fill:#392966;fill-rule:evenodd;stroke:none;}
.path-9{fill:none;stroke:#cc9bc5;stroke-width:1;stroke-linecap:butt;stroke-linejoin:round;}
.path-10{fill:#cc9bc5;fill-rule:evenodd;stroke:none;}
.path-11{fill:none;stroke:#620527;stroke-width:1;stroke-linecap:butt;stroke-linejoin:round;}
.path-12{fill:#620527;fill-rule:evenodd;stroke:none;}
.path-13{fill:none;stroke:#6a3661;stroke-width:1;stroke-linecap:butt;stroke-linejoin:round;}
.path-14{fill:#6a3661;fill-rule:evenodd;stroke:none;}
.path-15{fill:none;stroke:#f8a087;stroke-width:1;stroke-linecap:butt;stroke-linejoin:round;}
.path-16{fill:#f8a087;fill-rule:evenodd;stroke:none;}
.path-17{fill:none;stroke:#ffffff;stroke-width:1;stroke-linecap:butt;stroke-linejoin:round;}
.path-18{fill:#ffffff;fill-rule:evenodd;stroke:none;}
.path-19{fill:none;stroke:#d89f4a;stroke-width:1;stroke-linecap:butt;stroke-linejoin:round;}
.path-20{fill:#d89f4a;fill-rule:evenodd;stroke:none;}
.path-21{fill:none;stroke:#fafd5b;stroke-width:1;stroke-linecap:butt;stroke-linejoin:round;}
.path-22{fill:#fafd5b;fill-rule:evenodd;stroke:none;}
.path-23{fill:none;stroke:#00ff00;stroke-width:8;stroke-linecap:round;stroke-linejoin:round;}
.path-24{fill:none;stroke:#fafafa;stroke-width:1;stroke-linecap:butt;stroke-linejoin:round;}
.path-25{fill:#fafafa;fill-rule:evenodd;stroke:none;}
.path-26{fill:none;stroke:#ececec;stroke-width:1;stroke-linecap:butt;stroke-linejoin:round;}
.path-27{fill:#ececec;fill-rule:evenodd;stroke:none;}
.path-28{fill:none;stroke:#d7d7d7;stroke-width:1;stroke-linecap:butt;stroke-linejoin:round;}
.path-29{fill:#d7d7d7;fill-rule:evenodd;stroke:none;}
.path-30{fill:none;stroke:#bdbdbd;stroke-width:1;stroke-linecap:butt;stroke-linejoin:round;}
.path-31{fill:#bdbdbd;fill-rule:evenodd;stroke:none;}
.path-32{fill:none;stroke:#9f9f9f;stroke-width:1;stroke-linecap:butt;stroke-linejoin:round;}
.path-33{fill:#9f9f9f;fill-rule:evenodd;stroke:none;}
.path-34{fill:none;stroke:#808080;stroke-width:1;stroke-linecap:butt;stroke-linejoin:round;}
.path-35{fill:#808080;fill-rule:evenodd;stroke:none;}
.path-36{fill:none;stroke:#606060;stroke-width:1;stroke-linecap:butt;stroke-linejoin:round;}
.path-37{fill:#606060;fill-rule:evenodd;stroke:none;}
.path-38{fill:none;stroke:#424242;stroke-width:1;stroke-linecap:butt;stroke-linejoin:round;}
.path-39{fill:#424242;fill-rule:evenodd;stroke:none;}
.path-40{fill:none;stroke:#282828;stroke-width:1;stroke-linecap:butt;stroke-linejoin:round;}
.path-41{fill:#282828;fill-rule:evenodd;stroke:none;}
.path-42{fill:none;stroke:#131313;stroke-width:1;stroke-linecap:butt;stroke-linejoin:round;}
.path-43{fill:#131313;fill-rule:evenodd;stroke:none;}
.path-44{fill:none;stroke:#050505;stroke-width:1;stroke-linecap:butt;stroke-linejoin:round;}
.path-45{fill:#050505;fill-rule:evenodd;stroke:none;}
.path-46{fill:none;stroke:#000000;stroke-width:1;stroke-linecap:butt;stroke-linejoin:round;}
</style>
</svg>
