<svg version="1.1" id="Frame_145" xmlns="http://www.w3.org/2000/svg" xmlns:xlink="http://www.w3.org/1999/xlink" width="480px" height="720px">
<g id="main_bone">
<g id="right_arm">
<path class="path-0" d="M168.137,275.682C169.597,273.042,172.451,267.596,176.247,266.189C182.667,263.809,188.033,269.741,188.671,274.299C190.093,282.252,184.207,292.892,181.483,300.666C174.787,319.401,167.531,337.923,163.149,356.792C162.636,360.086,158.482,381.462,158.409,378.810C158.260,385.451,165.051,390.904,167.544,396.470C170.752,403.987,168.220,411.311,166.593,418.353C162.764,432.934,163.403,438.213,164.131,452.250C164.351,454.478,164.954,461.752,161.466,462.242C158.084,462.717,156.917,456.642,155.952,454.349C155.299,451.736,152.329,446.334,152.778,443.945C152.738,439.964,157.359,440.702,151.932,432.734C145.021,422.792,133.252,414.749,129.836,401.530C127.511,390.977,132.799,381.486,135.629,371.483C141.634,350.024,148.386,328.552,156.244,307.375C160.539,296.403,162.305,286.862,168.137,275.682M188.236,268.021C188.499,259.465,185.634,251.928,174.994,255.237C157.951,260.471,151.897,286.696,146.840,301.440C139.682,321.411,133.837,341.521,128.394,361.718C126.179,370.384,123.106,374.825,121.917,379.843C120.417,385.530,120.980,394.150,121.488,399.779C122.039,417.432,127.457,418.088,135.245,431.316C139.407,439.145,135.888,444.430,138.872,451.238C141.033,455.891,145.142,458.972,148.389,462.744C151.283,466.545,152.064,468.807,154.268,472.328C156.931,476.528,164.749,485.857,170.286,482.936C174.495,480.696,173.302,472.770,173.115,468.912C172.675,463.125,173.424,440.622,174.168,433.780C175.566,422.469,180.968,410.170,178.893,398.088C177.240,388.869,168.785,382.485,168.863,372.547C169.057,367.245,172.118,358.560,173.063,352.595C174.628,343.051,174.662,332.848,176.873,323.039C180.600,305.627,188.341,286.193,188.236,268.021Z"/>
<path class="path-1" d="M176.247,266.189C182.667,263.809,188.033,269.741,188.671,274.299"/>
<path class="path-1" d="M188.671,274.299C190.093,282.252,184.207,292.892,181.483,300.666"/>
<path class="path-1" d="M181.483,300.666C174.787,319.401,167.531,337.923,163.149,356.792"/>
<path class="path-1" d="M163.149,356.792C162.636,360.086,158.482,381.462,158.409,378.810"/>
<path class="path-1" d="M158.409,378.810C158.260,385.451,165.051,390.904,167.544,396.470"/>
<path class="path-1" d="M167.544,396.470C170.752,403.987,168.220,411.311,166.593,418.353"/>
<path class="path-1" d="M166.593,418.353C162.764,432.934,163.403,438.213,164.131,452.250"/>
<path class="path-1" d="M164.131,452.250C164.351,454.478,164.954,461.752,161.466,462.242"/>
<path class="path-1" d="M161.466,462.242C158.084,462.717,156.917,456.642,155.952,454.349"/>
<path class="path-1" d="M155.952,454.349C155.299,451.736,152.329,446.334,152.778,443.945"/>
<path class="path-1" d="M152.778,443.945C152.738,439.964,157.359,440.702,151.932,432.734"/>
<path class="path-1" d="M151.932,432.734C145.021,422.792,133.252,414.749,129.836,401.530"/>
<path class="path-1" d="M129.836,401.530C127.511,390.977,132.799,381.486,135.629,371.483"/>
<path class="path-1" d="M135.629,371.483C141.634,350.024,148.386,328.552,156.244,307.375"/>
<path class="path-1" d="M156.244,307.375C160.539,296.403,162.305,286.862,168.137,275.682"/>
<path class="path-1" d="M168.137,275.682C169.597,273.042,172.451,267.596,176.247,266.189"/>
<path class="path-2" d="M176.247,266.189C182.667,263.809,188.033,269.741,188.671,274.299C190.093,282.252,184.207,292.892,181.483,300.666C174.787,319.401,167.531,337.923,163.149,356.792C162.636,360.086,158.482,381.462,158.409,378.810C158.260,385.451,165.051,390.904,167.544,396.470C170.752,403.987,168.220,411.311,166.593,418.353C162.764,432.934,163.403,438.213,164.131,452.250C164.351,454.478,164.954,461.752,161.466,462.242C158.084,462.717,156.917,456.642,155.952,454.349C155.299,451.736,152.329,446.334,152.778,443.945C152.738,439.964,157.359,440.702,151.932,432.734C145.021,422.792,133.252,414.749,129.836,401.530C127.511,390.977,132.799,381.486,135.629,371.483C141.634,350.024,148.386,328.552,156.244,307.375C160.539,296.403,162.305,286.862,168.137,275.682C169.597,273.042,172.451,267.596,176.247,266.189Z"/>
</g>
<g id="layer_left_leg">
<g id="left_heel">
<path class="path-0" d="M260.573,558.440C252.181,549.071,258.170,526.622,268.431,523.535C282.138,519.230,289.663,543.526,288.608,548.755C287.089,555.224,279.030,560.576,273.488,561.741C270.191,562.321,262.664,560.889,260.573,558.440M290.703,520.333C284.350,513.861,269.562,514.679,262.282,518.573C237.063,531.351,242.364,586.140,276.983,571.008C283.870,568.043,297.222,559.268,299.870,552.943C302.763,547.212,299.669,541.161,297.658,535.506C295.736,530.971,294.205,524.005,290.703,520.333Z"/>
<path class="path-3" d="M268.431,523.535C282.138,519.230,289.663,543.526,288.608,548.755"/>
<path class="path-3" d="M288.608,548.755C287.089,555.224,279.030,560.576,273.488,561.741"/>
<path class="path-3" d="M273.488,561.741C270.191,562.321,262.664,560.889,260.573,558.440"/>
<path class="path-3" d="M260.573,558.440C252.181,549.071,258.170,526.622,268.431,523.535"/>
<path class="path-4" d="M268.431,523.535C282.138,519.230,289.663,543.526,288.608,548.755C287.089,555.224,279.030,560.576,273.488,561.741C270.191,562.321,262.664,560.889,260.573,558.440C252.181,549.071,258.170,526.622,268.431,523.535Z"/>
</g>
<g id="left_sole">
<path class="path-0" d="M272.494,596.797C263.783,597.446,259.335,592.115,259.552,589.863C259.790,587.382,263.850,593.858,265.893,594.581C277.263,599.191,293.767,594.277,304.022,589.097C305.412,588.530,309.983,587.354,309.956,587.471C309.721,588.489,297.724,591.750,294.011,593.022C289.438,594.642,273.190,596.625,272.494,596.797M265.925,590.393C262.901,587.444,271.237,590.024,272.387,590.594C279.983,594.357,297.071,591.582,304.849,586.580C305.650,586.088,308.819,582.499,310.498,582.147C313.252,581.570,302.330,587.608,295.895,589.696C286.487,592.974,268.563,592.967,265.925,590.393M311.100,573.067C306.273,572.409,277.523,582.990,259.382,573.393C255.668,571.432,254.084,585.942,257.026,590.600C258.857,593.484,267.541,598.052,270.837,598.641C283.749,601.408,309.621,590.075,313.000,586.084C315.313,583.354,318.615,574.091,311.100,573.067Z"/>
<path class="path-5" d="M259.552,589.863C259.790,587.382,263.850,593.858,265.893,594.581"/>
<path class="path-5" d="M265.893,594.581C277.263,599.191,293.767,594.277,304.022,589.097"/>
<path class="path-5" d="M304.022,589.097C305.412,588.530,309.983,587.354,309.956,587.471"/>
<path class="path-5" d="M309.956,587.471C309.721,588.489,297.724,591.750,294.011,593.022"/>
<path class="path-5" d="M294.011,593.022C289.438,594.642,273.190,596.625,272.494,596.797"/>
<path class="path-5" d="M272.494,596.797C263.783,597.446,259.335,592.115,259.552,589.863"/>
<path class="path-6" d="M259.552,589.863C259.790,587.382,263.850,593.858,265.893,594.581C277.263,599.191,293.767,594.277,304.022,589.097C305.412,588.530,309.983,587.354,309.956,587.471C309.721,588.489,297.724,591.750,294.011,593.022C289.438,594.642,273.190,596.625,272.494,596.797C263.783,597.446,259.335,592.115,259.552,589.863Z"/>
<path class="path-5" d="M272.387,590.594C279.983,594.357,297.071,591.582,304.849,586.580"/>
<path class="path-5" d="M304.849,586.580C305.650,586.088,308.819,582.499,310.498,582.147"/>
<path class="path-5" d="M310.498,582.147C313.252,581.570,302.330,587.608,295.895,589.696"/>
<path class="path-5" d="M295.895,589.696C286.487,592.974,268.563,592.967,265.925,590.393"/>
<path class="path-5" d="M265.925,590.393C262.901,587.444,271.237,590.024,272.387,590.594"/>
<path class="path-6" d="M272.387,590.594C279.983,594.357,297.071,591.582,304.849,586.580C305.650,586.088,308.819,582.499,310.498,582.147C313.252,581.570,302.330,587.608,295.895,589.696C286.487,592.974,268.563,592.967,265.925,590.393C262.901,587.444,271.237,590.024,272.387,590.594Z"/>
</g>
<g id="left_toe">
<path class="path-0" d="M279.203,590.652C256.787,591.565,257.635,563.754,266.402,564.851C277.580,566.271,295.123,562.579,303.583,564.697C308.435,565.859,306.830,573.500,305.117,578.309C301.504,586.288,287.030,590.322,279.203,590.652M304.197,555.524C293.718,558.165,276.936,560.217,266.497,556.762C252.168,552.034,251.349,570.977,252.508,583.006C252.820,587.975,253.726,592.551,257.190,596.127C264.756,603.465,288.790,601.915,298.310,598.624C305.112,595.736,313.728,590.730,315.690,583.004C317.471,576.404,310.682,553.910,304.197,555.524Z"/>
<path class="path-3" d="M266.402,564.851C277.580,566.271,295.123,562.579,303.583,564.697"/>
<path class="path-3" d="M303.583,564.697C308.435,565.859,306.830,573.500,305.117,578.309"/>
<path class="path-3" d="M305.117,578.309C301.504,586.288,287.030,590.322,279.203,590.652"/>
<path class="path-3" d="M279.203,590.652C256.787,591.565,257.635,563.754,266.402,564.851"/>
<path class="path-4" d="M266.402,564.851C277.580,566.271,295.123,562.579,303.583,564.697C308.435,565.859,306.830,573.500,305.117,578.309C301.504,586.288,287.030,590.322,279.203,590.652C256.787,591.565,257.635,563.754,266.402,564.851Z"/>
</g>
<g id="left_leg">
<path class="path-0" d="M232.652,421.955C229.254,416.462,245.014,413.669,249.842,412.060C256.157,410.290,270.403,408.732,276.554,411.355C284.097,414.279,296.781,431.498,299.696,438.715C306.387,456.744,313.137,474.240,313.599,492.804C313.610,503.400,309.335,513.911,307.445,524.127C306.699,529.368,302.531,536.658,306.291,539.942C307.259,541.144,309.891,539.408,310.585,540.660C312.762,545.247,309.590,545.816,308.768,549.333C306.998,555.985,297.397,561.257,291.174,561.832C281.451,563.062,260.606,560.086,255.865,551.660C252.889,546.372,253.075,538.982,252.063,533.116C248.437,511.843,244.002,467.760,250.512,445.927C251.944,441.124,264.221,444.162,263.979,437.774C263.803,433.625,249.122,429.802,245.175,428.331C241.554,427.302,234.416,425.185,232.652,421.955M285.052,401.692C276.667,397.807,256.876,400.114,248.628,402.489C242.156,404.325,219.666,406.834,217.324,412.161C213.421,421.041,229.022,432.801,232.891,439.698C234.702,443.498,236.255,463.767,236.463,469.428C237.679,482.104,234.280,493.101,235.339,505.790C236.488,522.139,235.426,538.907,243.050,553.160C255.224,575.537,281.749,586.925,306.946,569.516C320.413,560.509,323.019,555.318,322.054,537.649C321.946,535.111,321.211,534.912,321.037,532.790C320.045,521.142,326.714,509.327,326.280,496.805C324.663,473.475,319.262,449.833,308.534,428.899C304.696,421.395,293.118,405.452,285.052,401.692Z"/>
<path class="path-7" d="M249.842,412.060C256.157,410.290,270.403,408.732,276.554,411.355"/>
<path class="path-7" d="M276.554,411.355C284.097,414.279,296.781,431.498,299.696,438.715"/>
<path class="path-7" d="M299.696,438.715C306.387,456.744,313.137,474.240,313.599,492.804"/>
<path class="path-7" d="M313.599,492.804C313.610,503.400,309.335,513.911,307.445,524.127"/>
<path class="path-7" d="M307.445,524.127C306.699,529.368,302.531,536.658,306.291,539.942"/>
<path class="path-7" d="M306.291,539.942C307.259,541.144,309.891,539.408,310.585,540.660"/>
<path class="path-7" d="M310.585,540.660C312.762,545.247,309.590,545.816,308.768,549.333"/>
<path class="path-7" d="M308.768,549.333C306.998,555.985,297.397,561.257,291.174,561.832"/>
<path class="path-7" d="M291.174,561.832C281.451,563.062,260.606,560.086,255.865,551.660"/>
<path class="path-7" d="M255.865,551.660C252.889,546.372,253.075,538.982,252.063,533.116"/>
<path class="path-7" d="M252.063,533.116C248.437,511.843,244.002,467.760,250.512,445.927"/>
<path class="path-7" d="M250.512,445.927C251.944,441.124,264.221,444.162,263.979,437.774"/>
<path class="path-7" d="M263.979,437.774C263.803,433.625,249.122,429.802,245.175,428.331"/>
<path class="path-7" d="M245.175,428.331C241.554,427.302,234.416,425.185,232.652,421.955"/>
<path class="path-7" d="M232.652,421.955C229.254,416.462,245.014,413.669,249.842,412.060"/>
<path class="path-8" d="M249.842,412.060C256.157,410.290,270.403,408.732,276.554,411.355C284.097,414.279,296.781,431.498,299.696,438.715C306.387,456.744,313.137,474.240,313.599,492.804C313.610,503.400,309.335,513.911,307.445,524.127C306.699,529.368,302.531,536.658,306.291,539.942C307.259,541.144,309.891,539.408,310.585,540.660C312.762,545.247,309.590,545.816,308.768,549.333C306.998,555.985,297.397,561.257,291.174,561.832C281.451,563.062,260.606,560.086,255.865,551.660C252.889,546.372,253.075,538.982,252.063,533.116C248.437,511.843,244.002,467.760,250.512,445.927C251.944,441.124,264.221,444.162,263.979,437.774C263.803,433.625,249.122,429.802,245.175,428.331C241.554,427.302,234.416,425.185,232.652,421.955C229.254,416.462,245.014,413.669,249.842,412.060Z"/>
</g>
</g>
<g id="layer_right_leg">
<g id="right_heel">
<path class="path-0" d="M192.777,655.916C193.857,637.415,193.170,622.874,215.552,618.433C225.455,616.283,244.633,618.546,250.618,627.926C253.779,632.620,253.194,639.775,253.781,644.928C254.872,653.814,261.439,670.184,249.134,673.574C248.228,673.919,222.606,677.250,214.659,678.631C208.946,680.178,202.874,682.152,198.151,678.638C192.991,673.938,192.282,662.240,192.777,655.916M261.177,625.427C256.070,614.023,239.852,608.070,228.633,610.294C213.981,613.014,198.651,609.040,189.776,623.355C181.246,637.111,182.670,661.716,186.492,676.987C187.739,682.749,191.823,693.225,196.827,696.205C200.467,698.268,205.885,697.346,210.053,697.127C230.369,696.384,266.287,701.216,264.868,670.917C264.288,660.829,264.635,633.224,261.177,625.427Z"/>
<path class="path-3" d="M215.552,618.433C225.455,616.283,244.633,618.546,250.618,627.926"/>
<path class="path-3" d="M250.618,627.926C253.779,632.620,253.194,639.775,253.781,644.928"/>
<path class="path-3" d="M253.781,644.928C254.872,653.814,261.439,670.184,249.134,673.574"/>
<path class="path-3" d="M249.134,673.574C248.228,673.919,222.606,677.250,214.659,678.631"/>
<path class="path-3" d="M214.659,678.631C208.946,680.178,202.874,682.152,198.151,678.638"/>
<path class="path-3" d="M198.151,678.638C192.991,673.938,192.282,662.240,192.777,655.916"/>
<path class="path-3" d="M192.777,655.916C193.857,637.415,193.170,622.874,215.552,618.433"/>
<path class="path-4" d="M215.552,618.433C225.455,616.283,244.633,618.546,250.618,627.926C253.779,632.620,253.194,639.775,253.781,644.928C254.872,653.814,261.439,670.184,249.134,673.574C248.228,673.919,222.606,677.250,214.659,678.631C208.946,680.178,202.874,682.152,198.151,678.638C192.991,673.938,192.282,662.240,192.777,655.916C193.857,637.415,193.170,622.874,215.552,618.433Z"/>
</g>
<g id="right_leg">
<path class="path-0" d="M177.324,413.160C177.354,403.763,189.033,399.157,197.286,399.341C203.386,399.353,212.589,401.225,218.146,404.490C220.118,405.649,223.026,407.586,223.624,409.793C224.063,411.415,221.793,413.606,222.305,415.236C224.363,422.530,231.120,422.400,232.758,426.775C234.112,430.391,232.649,435.185,232.697,439.647C233.909,459.181,233.979,479.574,237.102,498.304C238.539,507.490,241.396,520.762,243.177,529.194C245.171,540.478,239.543,542.794,240.494,549.530C240.765,553.003,247.292,569.427,249.261,573.666C254.027,583.419,260.449,593.965,261.125,604.854C261.830,616.220,245.069,631.203,234.674,633.554C222.954,635.961,189.078,626.870,177.874,621.832C172.763,619.712,164.107,616.463,162.115,610.877C160.505,607.028,163.706,588.846,165.480,584.679C168.398,578.482,170.976,577.192,172.892,569.404C175.022,559.284,174.050,548.185,173.774,537.605C172.913,521.695,174.852,486.244,177.769,472.216C179.338,463.621,180.818,434.614,180.765,426.512C180.784,419.035,177.640,418.220,177.324,413.160M201.333,388.243C195.581,386.546,190.979,381.451,185.105,383.765C182.973,384.817,179.350,387.782,177.883,389.429C163.043,403.560,163.946,416.691,164.924,435.693C164.998,443.263,165.310,451.104,165.616,458.373C165.730,463.518,165.777,467.994,165.021,472.776C164.625,477.070,163.448,481.537,163.210,486.864C163.094,492.633,164.912,499.400,164.832,509.199C164.025,519.260,163.128,528.732,163.151,538.380C163.365,544.359,163.551,558.479,162.890,563.056C161.215,568.905,158.031,575.393,155.830,580.703C152.593,589.983,150.892,599.951,152.355,609.156C152.915,614.474,154.330,621.360,157.416,625.330C161.517,630.605,168.604,633.201,174.490,635.619C185.307,639.993,195.717,642.019,207.416,643.352C212.402,643.958,217.367,644.045,222.582,644.343C223.922,644.214,235.018,644.701,237.182,644.531C245.877,643.342,257.774,634.121,263.257,626.636C265.439,623.292,269.068,619.172,269.981,615.172C270.835,611.419,269.845,607.472,269.939,603.621C270.178,580.789,263.183,570.869,257.837,551.653C255.531,543.366,253.404,525.843,252.140,516.401C249.828,501.462,246.788,486.934,246.030,471.368C245.926,467.757,245.701,463.252,247.033,459.356C248.221,455.668,250.166,452.960,250.505,449.160C250.648,444.396,247.109,429.536,245.887,424.542C245.146,420.898,245.119,416.253,243.597,412.669C239.453,403.558,224.957,393.995,215.497,391.494C210.759,390.077,205.758,390.008,201.333,388.243Z"/>
<path class="path-7" d="M197.286,399.341C203.386,399.353,212.589,401.225,218.146,404.490"/>
<path class="path-7" d="M218.146,404.490C220.118,405.649,223.026,407.586,223.624,409.793"/>
<path class="path-7" d="M223.624,409.793C224.063,411.415,221.793,413.606,222.305,415.236"/>
<path class="path-7" d="M222.305,415.236C224.363,422.530,231.120,422.400,232.758,426.775"/>
<path class="path-7" d="M232.758,426.775C234.112,430.391,232.649,435.185,232.697,439.647"/>
<path class="path-7" d="M232.697,439.647C233.909,459.181,233.979,479.574,237.102,498.304"/>
<path class="path-7" d="M237.102,498.304C238.539,507.490,241.396,520.762,243.177,529.194"/>
<path class="path-7" d="M243.177,529.194C245.171,540.478,239.543,542.794,240.494,549.530"/>
<path class="path-7" d="M240.494,549.530C240.765,553.003,247.292,569.427,249.261,573.666"/>
<path class="path-7" d="M249.261,573.666C254.027,583.419,260.449,593.965,261.125,604.854"/>
<path class="path-7" d="M261.125,604.854C261.830,616.220,245.069,631.203,234.674,633.554"/>
<path class="path-7" d="M234.674,633.554C222.954,635.961,189.078,626.870,177.874,621.832"/>
<path class="path-7" d="M177.874,621.832C172.763,619.712,164.107,616.463,162.115,610.877"/>
<path class="path-7" d="M162.115,610.877C160.505,607.028,163.706,588.846,165.480,584.679"/>
<path class="path-7" d="M165.480,584.679C168.398,578.482,170.976,577.192,172.892,569.404"/>
<path class="path-7" d="M172.892,569.404C175.022,559.284,174.050,548.185,173.774,537.605"/>
<path class="path-7" d="M173.774,537.605C172.913,521.695,174.852,486.244,177.769,472.216"/>
<path class="path-7" d="M177.769,472.216C179.338,463.621,180.818,434.614,180.765,426.512"/>
<path class="path-7" d="M180.765,426.512C180.784,419.035,177.640,418.220,177.324,413.160"/>
<path class="path-7" d="M177.324,413.160C177.354,403.763,189.033,399.157,197.286,399.341"/>
<path class="path-8" d="M197.286,399.341C203.386,399.353,212.589,401.225,218.146,404.490C220.118,405.649,223.026,407.586,223.624,409.793C224.063,411.415,221.793,413.606,222.305,415.236C224.363,422.530,231.120,422.400,232.758,426.775C234.112,430.391,232.649,435.185,232.697,439.647C233.909,459.181,233.979,479.574,237.102,498.304C238.539,507.490,241.396,520.762,243.177,529.194C245.171,540.478,239.543,542.794,240.494,549.530C240.765,553.003,247.292,569.427,249.261,573.666C254.027,583.419,260.449,593.965,261.125,604.854C261.830,616.220,245.069,631.203,234.674,633.554C222.954,635.961,189.078,626.870,177.874,621.832C172.763,619.712,164.107,616.463,162.115,610.877C160.505,607.028,163.706,588.846,165.480,584.679C168.398,578.482,170.976,577.192,172.892,569.404C175.022,559.284,174.050,548.185,173.774,537.605C172.913,521.695,174.852,486.244,177.769,472.216C179.338,463.621,180.818,434.614,180.765,426.512C180.784,419.035,177.640,418.220,177.324,413.160C177.354,403.763,189.033,399.157,197.286,399.341Z"/>
</g>
<g id="right_toe">
<path class="path-0" d="M162.869,665.560C163.295,647.987,167.118,624.924,187.913,619.443C192.736,617.900,199.987,619.149,205.571,619.872C234.670,623.560,243.961,631.698,246.997,661.130C247.609,668.517,249.909,677.219,245.512,684.054C240.433,691.794,210.917,696.693,201.751,697.311C187.372,698.594,175.568,699.722,166.224,686.692C160.667,678.771,162.662,674.608,162.869,665.560M253.452,632.152C243.918,615.320,203.060,606.324,185.320,611.284C158.734,618.877,154.983,642.193,154.346,665.319C154.091,672.609,152.178,680.681,155.901,687.055C157.948,690.558,162.691,694.854,165.844,697.427C181.814,711.608,192.282,708.566,212.154,707.224C223.520,706.648,242.449,705.029,251.185,696.949C257.876,690.157,258.045,683.054,257.869,674.072C257.389,665.410,257.316,638.387,253.452,632.152Z"/>
<path class="path-3" d="M187.913,619.443C192.736,617.900,199.987,619.149,205.571,619.872"/>
<path class="path-3" d="M205.571,619.872C234.670,623.560,243.961,631.698,246.997,661.130"/>
<path class="path-3" d="M246.997,661.130C247.609,668.517,249.909,677.219,245.512,684.054"/>
<path class="path-3" d="M245.512,684.054C240.433,691.794,210.917,696.693,201.751,697.311"/>
<path class="path-3" d="M201.751,697.311C187.372,698.594,175.568,699.722,166.224,686.692"/>
<path class="path-3" d="M166.224,686.692C160.667,678.771,162.662,674.608,162.869,665.560"/>
<path class="path-3" d="M162.869,665.560C163.295,647.987,167.118,624.924,187.913,619.443"/>
<path class="path-4" d="M187.913,619.443C192.736,617.900,199.987,619.149,205.571,619.872C234.670,623.560,243.961,631.698,246.997,661.130C247.609,668.517,249.909,677.219,245.512,684.054C240.433,691.794,210.917,696.693,201.751,697.311C187.372,698.594,175.568,699.722,166.224,686.692C160.667,678.771,162.662,674.608,162.869,665.560C163.295,647.987,167.118,624.924,187.913,619.443Z"/>
</g>
<g id="right_sole">
<path class="path-0" d="M191.404,703.166C193.344,703.264,210.006,702.024,212.177,701.928C213.831,701.871,222.529,701.964,223.948,701.917C224.863,701.900,233.055,701.744,233.691,702.173C232.884,702.349,224.431,703.773,223.923,703.825C222.776,703.967,193.707,705.056,193.332,705.211C192.240,705.256,180.930,704.670,179.709,704.066C180.997,703.194,189.358,703.061,191.404,703.166M237.406,692.034C237.916,692.995,236.802,696.352,235.225,696.707C233.248,697.162,220.450,699.796,217.753,699.329C214.675,699.344,207.410,700.161,204.637,700.228C198.998,700.363,182.092,703.250,177.916,699.506C176.897,698.211,176.706,695.514,177.190,694.747C177.524,694.216,183.536,694.390,185.976,694.252C190.393,694.002,202.940,693.991,207.470,693.742C212.088,693.488,224.590,692.424,229.308,691.851C230.050,691.780,236.605,690.525,237.406,692.034M243.375,688.105C230.507,684.214,221.260,686.854,208.432,687.556C199.671,688.087,181.967,686.702,172.398,691.898C169.928,693.238,165.684,695.599,165.822,698.568C165.940,700.983,170.105,705.617,173.085,707.240C176.604,709.157,183.570,708.507,186.360,708.715C200.491,710.283,218.300,708.219,232.424,706.650C243.318,705.441,245.784,701.128,246.832,695.824C247.323,693.335,248.176,689.490,243.375,688.105Z"/>
<path class="path-5" d="M191.404,703.166C193.344,703.264,210.006,702.024,212.177,701.928"/>
<path class="path-5" d="M212.177,701.928C213.831,701.871,222.529,701.964,223.948,701.917"/>
<path class="path-5" d="M223.948,701.917C224.863,701.900,233.055,701.744,233.691,702.173"/>
<path class="path-5" d="M233.691,702.173C232.884,702.349,224.431,703.773,223.923,703.825"/>
<path class="path-5" d="M223.923,703.825C222.776,703.967,193.707,705.056,193.332,705.211"/>
<path class="path-5" d="M193.332,705.211C192.240,705.256,180.930,704.670,179.709,704.066"/>
<path class="path-5" d="M179.709,704.066C180.997,703.194,189.358,703.061,191.404,703.166"/>
<path class="path-6" d="M191.404,703.166C193.344,703.264,210.006,702.024,212.177,701.928C213.831,701.871,222.529,701.964,223.948,701.917C224.863,701.900,233.055,701.744,233.691,702.173C232.884,702.349,224.431,703.773,223.923,703.825C222.776,703.967,193.707,705.056,193.332,705.211C192.240,705.256,180.930,704.670,179.709,704.066C180.997,703.194,189.358,703.061,191.404,703.166Z"/>
<path class="path-5" d="M185.976,694.252C190.393,694.002,202.940,693.991,207.470,693.742"/>
<path class="path-5" d="M207.470,693.742C212.088,693.488,224.590,692.424,229.308,691.851"/>
<path class="path-5" d="M229.308,691.851C230.050,691.780,236.605,690.525,237.406,692.034"/>
<path class="path-5" d="M237.406,692.034C237.916,692.995,236.802,696.352,235.225,696.707"/>
<path class="path-5" d="M235.225,696.707C233.248,697.162,220.450,699.796,217.753,699.329"/>
<path class="path-5" d="M217.753,699.329C214.675,699.344,207.410,700.161,204.637,700.228"/>
<path class="path-5" d="M204.637,700.228C198.998,700.363,182.092,703.250,177.916,699.506"/>
<path class="path-5" d="M177.916,699.506C176.897,698.211,176.706,695.514,177.190,694.747"/>
<path class="path-5" d="M177.190,694.747C177.524,694.216,183.536,694.390,185.976,694.252"/>
<path class="path-6" d="M185.976,694.252C190.393,694.002,202.940,693.991,207.470,693.742C212.088,693.488,224.590,692.424,229.308,691.851C230.050,691.780,236.605,690.525,237.406,692.034C237.916,692.995,236.802,696.352,235.225,696.707C233.248,697.162,220.450,699.796,217.753,699.329C214.675,699.344,207.410,700.161,204.637,700.228C198.998,700.363,182.092,703.250,177.916,699.506C176.897,698.211,176.706,695.514,177.190,694.747C177.524,694.216,183.536,694.390,185.976,694.252Z"/>
</g>
</g>
<g id="hat_brim">
<path class="path-0" d="M283.277,146.005C286.978,140.042,296.077,123.804,304.061,123.861C309.385,123.898,320.295,133.625,325.929,136.659C330.898,139.689,336.203,142.388,341.839,145.089C345.039,146.781,348.243,148.467,351.451,150.148C365.706,157.569,361.668,163.863,353.359,162.472C334.753,159.012,331.750,160.322,313.851,150.879C311.528,149.864,305.564,146.496,304.535,150.813C303.170,155.794,312.122,160.183,315.769,161.872C322.396,165.580,329.688,169.624,337.667,170.346C339.994,170.696,347.984,170.085,349.297,172.424C351.269,175.766,341.561,184.347,339.550,186.329C336.201,189.299,332.855,192.270,329.511,194.576C324.497,197.866,319.152,200.822,313.490,201.780C302.835,203.036,269.674,187.496,268.759,175.845C268.141,169.188,279.240,152.298,283.277,146.005M316.069,119.622C311.109,115.261,307.495,108.913,300.151,112.189C294.811,114.481,289.102,122.092,285.415,126.058C271.656,142.595,259.208,162.137,259.719,183.766C259.956,197.408,264.615,197.110,275.556,202.509C292.131,210.945,313.405,213.757,331.429,205.569C343.110,200.328,363.532,182.507,368.941,170.568C370.632,166.587,373.689,157.626,371.393,152.952C368.772,147.277,346.550,137.471,339.923,133.765C331.969,129.383,323.015,125.326,316.069,119.622Z"/>
<path class="path-9" d="M304.061,123.861C309.385,123.898,320.295,133.625,325.929,136.659"/>
<path class="path-9" d="M325.929,136.659C330.898,139.689,336.203,142.388,341.839,145.089"/>
<path class="path-9" d="M341.839,145.089C345.039,146.781,348.243,148.467,351.451,150.148"/>
<path class="path-9" d="M351.451,150.148C365.706,157.569,361.668,163.863,353.359,162.472"/>
<path class="path-9" d="M353.359,162.472C334.753,159.012,331.750,160.322,313.851,150.879"/>
<path class="path-9" d="M313.851,150.879C311.528,149.864,305.564,146.496,304.535,150.813"/>
<path class="path-9" d="M304.535,150.813C303.170,155.794,312.122,160.183,315.769,161.872"/>
<path class="path-9" d="M315.769,161.872C322.396,165.580,329.688,169.624,337.667,170.346"/>
<path class="path-9" d="M337.667,170.346C339.994,170.696,347.984,170.085,349.297,172.424"/>
<path class="path-9" d="M349.297,172.424C351.269,175.766,341.561,184.347,339.550,186.329"/>
<path class="path-9" d="M339.550,186.329C336.201,189.299,332.855,192.270,329.511,194.576"/>
<path class="path-9" d="M329.511,194.576C324.497,197.866,319.152,200.822,313.490,201.780"/>
<path class="path-9" d="M313.490,201.780C302.835,203.036,269.674,187.496,268.759,175.845"/>
<path class="path-9" d="M268.759,175.845C268.141,169.188,279.240,152.298,283.277,146.005"/>
<path class="path-9" d="M283.277,146.005C286.978,140.042,296.077,123.804,304.061,123.861"/>
<path class="path-10" d="M304.061,123.861C309.385,123.898,320.295,133.625,325.929,136.659C330.898,139.689,336.203,142.388,341.839,145.089C345.039,146.781,348.243,148.467,351.451,150.148C365.706,157.569,361.668,163.863,353.359,162.472C334.753,159.012,331.750,160.322,313.851,150.879C311.528,149.864,305.564,146.496,304.535,150.813C303.170,155.794,312.122,160.183,315.769,161.872C322.396,165.580,329.688,169.624,337.667,170.346C339.994,170.696,347.984,170.085,349.297,172.424C351.269,175.766,341.561,184.347,339.550,186.329C336.201,189.299,332.855,192.270,329.511,194.576C324.497,197.866,319.152,200.822,313.490,201.780C302.835,203.036,269.674,187.496,268.759,175.845C268.141,169.188,279.240,152.298,283.277,146.005C286.978,140.042,296.077,123.804,304.061,123.861Z"/>
</g>
<g id="hair">
<path class="path-0" d="M176.156,142.652C193.797,130.984,213.753,130.115,234.845,129.508C244.301,129.217,250.711,135.717,257.871,142.100C263.744,147.691,270.056,153.988,276.295,159.857C285.689,168.630,289.617,173.024,293.110,177.220C296.103,180.443,300.741,186.448,304.488,189.323C309.008,192.790,317.970,210.015,319.986,211.973C313.326,214.135,302.883,215.667,298.053,219.455C299.640,225.300,299.881,234.332,299.860,237.041C293.648,237.399,286.464,234.507,275.031,232.291C272.618,239.448,272.555,246.177,267.770,253.414C260.091,250.979,254.747,249.026,244.830,244.470C238.197,249.594,236.662,249.169,225.895,255.568C218.849,251.149,213.249,246.459,206.365,243.535C199.559,246.349,188.811,247.243,185.136,250.128C181.410,243.048,178.000,235.237,174.784,231.826C165.168,233.682,161.025,236.261,154.221,238.646C150.067,233.084,153.131,228.573,148.545,220.416C144.229,219.196,137.572,216.501,132.013,216.327C135.907,211.883,138.914,197.172,145.435,195.381C153.481,193.172,148.519,183.977,153.546,175.839C154.793,173.720,166.759,157.533,167.846,154.876C169.902,150.299,172.149,145.441,176.156,142.652M262.632,129.533C250.508,119.962,225.877,114.546,211.960,117.614C199.189,120.277,186.656,124.134,175.504,131.172C169.261,135.054,162.337,140.803,158.145,146.855C149.775,158.608,137.578,184.397,130.740,196.325C125.265,206.220,120.182,212.883,114.968,218.223C132.498,224.885,137.605,227.611,142.840,228.486C143.062,236.245,150.138,242.099,148.783,250.639C157.608,249.455,162.882,247.297,170.740,245.451C174.655,250.159,177.315,256.522,181.031,262.774C188.775,260.785,196.661,261.187,204.376,255.838C209.861,258.928,218.575,263.731,227.527,268.810C235.888,264.508,237.669,264.280,245.528,259.337C254.974,261.806,264.847,267.817,274.409,266.936C273.850,258.741,279.986,253.204,279.353,247.944C286.581,246.119,308.596,249.631,312.368,249.362C312.226,243.313,309.062,231.692,310.731,224.510C317.564,222.796,323.343,221.230,334.050,216.279C330.671,209.537,324.556,201.138,319.160,196.107C314.606,191.901,310.928,186.362,306.372,181.982C290.920,167.366,285.057,147.321,262.632,129.533Z"/>
<path class="path-11" d="M234.845,129.508C244.301,129.217,250.711,135.717,257.871,142.100"/>
<path class="path-11" d="M257.871,142.100C263.744,147.691,270.056,153.988,276.295,159.857"/>
<path class="path-11" d="M276.295,159.857C285.689,168.630,289.617,173.024,293.110,177.220"/>
<path class="path-11" d="M293.110,177.220C296.103,180.443,300.741,186.448,304.488,189.323"/>
<path class="path-11" d="M304.488,189.323C309.008,192.790,317.970,210.015,319.986,211.973"/>
<path class="path-11" d="M319.986,211.973C313.326,214.135,302.883,215.667,298.053,219.455"/>
<path class="path-11" d="M298.053,219.455C299.640,225.300,299.881,234.332,299.860,237.041"/>
<path class="path-11" d="M299.860,237.041C293.648,237.399,286.464,234.507,275.031,232.291"/>
<path class="path-11" d="M275.031,232.291C272.618,239.448,272.555,246.177,267.770,253.414"/>
<path class="path-11" d="M267.770,253.414C260.091,250.979,254.747,249.026,244.830,244.470"/>
<path class="path-11" d="M244.830,244.470C238.197,249.594,236.662,249.169,225.895,255.568"/>
<path class="path-11" d="M225.895,255.568C218.849,251.149,213.249,246.459,206.365,243.535"/>
<path class="path-11" d="M206.365,243.535C199.559,246.349,188.811,247.243,185.136,250.128"/>
<path class="path-11" d="M185.136,250.128C181.410,243.048,178.000,235.237,174.784,231.826"/>
<path class="path-11" d="M174.784,231.826C165.168,233.682,161.025,236.261,154.221,238.646"/>
<path class="path-11" d="M154.221,238.646C150.067,233.084,153.131,228.573,148.545,220.416"/>
<path class="path-11" d="M148.545,220.416C144.229,219.196,137.572,216.501,132.013,216.327"/>
<path class="path-11" d="M132.013,216.327C135.907,211.883,138.914,197.172,145.435,195.381"/>
<path class="path-11" d="M145.435,195.381C153.481,193.172,148.519,183.977,153.546,175.839"/>
<path class="path-11" d="M153.546,175.839C154.793,173.720,166.759,157.533,167.846,154.876"/>
<path class="path-11" d="M167.846,154.876C169.902,150.299,172.149,145.441,176.156,142.652"/>
<path class="path-11" d="M176.156,142.652C193.797,130.984,213.753,130.115,234.845,129.508"/>
<path class="path-12" d="M234.845,129.508C244.301,129.217,250.711,135.717,257.871,142.100C263.744,147.691,270.056,153.988,276.295,159.857C285.689,168.630,289.617,173.024,293.110,177.220C296.103,180.443,300.741,186.448,304.488,189.323C309.008,192.790,317.970,210.015,319.986,211.973C313.326,214.135,302.883,215.667,298.053,219.455C299.640,225.300,299.881,234.332,299.860,237.041C293.648,237.399,286.464,234.507,275.031,232.291C272.618,239.448,272.555,246.177,267.770,253.414C260.091,250.979,254.747,249.026,244.830,244.470C238.197,249.594,236.662,249.169,225.895,255.568C218.849,251.149,213.249,246.459,206.365,243.535C199.559,246.349,188.811,247.243,185.136,250.128C181.410,243.048,178.000,235.237,174.784,231.826C165.168,233.682,161.025,236.261,154.221,238.646C150.067,233.084,153.131,228.573,148.545,220.416C144.229,219.196,137.572,216.501,132.013,216.327C135.907,211.883,138.914,197.172,145.435,195.381C153.481,193.172,148.519,183.977,153.546,175.839C154.793,173.720,166.759,157.533,167.846,154.876C169.902,150.299,172.149,145.441,176.156,142.652C193.797,130.984,213.753,130.115,234.845,129.508Z"/>
</g>
<g id="clothes">
<path class="path-0" d="M237.696,376.431C233.058,374.299,215.187,366.077,212.234,370.473C209.740,374.436,214.337,375.431,218.372,376.003C221.963,376.512,240.075,384.701,242.567,383.157C247.165,380.234,239.936,377.344,237.696,376.431M186.601,271.995C189.763,259.401,216.880,246.806,229.834,247.980C238.813,248.768,266.919,263.138,270.799,271.516C274.034,278.218,274.693,302.861,274.907,311.188C275.022,326.497,274.552,341.955,276.562,357.132C278.428,367.413,282.142,377.315,286.121,386.977C287.373,391.699,292.571,403.148,289.269,407.387C283.537,415.512,259.647,414.144,250.896,411.455C219.936,402.859,225.705,392.402,195.648,390.249C192.213,389.871,180.974,392.674,178.648,391.303C174.646,388.275,176.431,382.491,177.509,377.780C180.677,366.136,184.059,358.484,185.894,345.818C188.096,329.879,189.050,312.597,189.279,295.967C189.028,289.980,185.888,275.642,186.601,271.995M265.682,254.461C249.505,244.586,233.635,236.384,213.923,241.780C208.583,243.037,181.801,255.648,179.429,258.945C175.707,264.214,179.113,284.527,179.015,291.837C179.233,300.484,179.435,309.466,178.649,317.769C178.227,324.085,176.813,329.719,176.725,335.706C176.295,342.354,176.837,349.677,175.103,355.645C171.610,367.355,157.200,389.493,170.375,399.252C175.554,403.118,184.070,401.449,190.810,402.524C201.656,404.041,212.933,407.305,223.639,410.305C236.529,414.304,247.696,424.120,261.299,425.375C270.660,426.241,301.327,425.029,306.062,416.299C309.163,410.878,299.390,384.729,296.799,378.164C292.831,369.362,287.951,360.726,285.964,351.278C283.826,339.487,283.986,327.624,284.827,315.324C285.303,305.342,287.103,295.713,287.242,285.394C286.967,281.059,287.701,275.741,285.428,271.379C281.540,263.336,272.948,258.887,265.682,254.461Z"/>
<path class="path-13" d="M237.696,376.431C233.058,374.299,215.187,366.077,212.234,370.473"/>
<path class="path-13" d="M212.234,370.473C209.740,374.436,214.337,375.431,218.372,376.003"/>
<path class="path-13" d="M218.372,376.003C221.963,376.512,240.075,384.701,242.567,383.157"/>
<path class="path-13" d="M242.567,383.157C247.165,380.234,239.936,377.344,237.696,376.431"/>
<path class="path-13" d="M186.601,271.995C189.763,259.401,216.880,246.806,229.834,247.980"/>
<path class="path-13" d="M229.834,247.980C238.813,248.768,266.919,263.138,270.799,271.516"/>
<path class="path-13" d="M270.799,271.516C274.034,278.218,274.693,302.861,274.907,311.188"/>
<path class="path-13" d="M274.907,311.188C275.022,326.497,274.552,341.955,276.562,357.132"/>
<path class="path-13" d="M276.562,357.132C278.428,367.413,282.142,377.315,286.121,386.977"/>
<path class="path-13" d="M286.121,386.977C287.373,391.699,292.571,403.148,289.269,407.387"/>
<path class="path-13" d="M289.269,407.387C283.537,415.512,259.647,414.144,250.896,411.455"/>
<path class="path-13" d="M250.896,411.455C219.936,402.859,225.705,392.402,195.648,390.249"/>
<path class="path-13" d="M195.648,390.249C192.213,389.871,180.974,392.674,178.648,391.303"/>
<path class="path-13" d="M178.648,391.303C174.646,388.275,176.431,382.491,177.509,377.780"/>
<path class="path-13" d="M177.509,377.780C180.677,366.136,184.059,358.484,185.894,345.818"/>
<path class="path-13" d="M185.894,345.818C188.096,329.879,189.050,312.597,189.279,295.967"/>
<path class="path-13" d="M189.279,295.967C189.028,289.980,185.888,275.642,186.601,271.995"/>
<path class="path-14" d="M237.696,376.431C233.058,374.299,215.187,366.077,212.234,370.473C209.740,374.436,214.337,375.431,218.372,376.003C221.963,376.512,240.075,384.701,242.567,383.157C247.165,380.234,239.936,377.344,237.696,376.431M186.601,271.995C189.763,259.401,216.880,246.806,229.834,247.980C238.813,248.768,266.919,263.138,270.799,271.516C274.034,278.218,274.693,302.861,274.907,311.188C275.022,326.497,274.552,341.955,276.562,357.132C278.428,367.413,282.142,377.315,286.121,386.977C287.373,391.699,292.571,403.148,289.269,407.387C283.537,415.512,259.647,414.144,250.896,411.455C219.936,402.859,225.705,392.402,195.648,390.249C192.213,389.871,180.974,392.674,178.648,391.303C174.646,388.275,176.431,382.491,177.509,377.780C180.677,366.136,184.059,358.484,185.894,345.818C188.096,329.879,189.050,312.597,189.279,295.967C189.028,289.980,185.888,275.642,186.601,271.995Z"/>
</g>
<g id="neck">
<path class="path-0" d="M222.149,229.518C222.232,226.175,223.003,223.114,226.626,222.508C238.088,219.645,239.911,257.209,229.295,258.007C219.342,258.756,221.959,235.870,222.149,229.518M225.928,213.220C223.250,213.087,220.314,213.974,218.091,215.477C209.150,220.819,211.125,229.346,211.774,237.971C211.766,242.310,212.398,246.266,210.682,250.064C209.273,253.507,204.876,257.173,205.150,260.823C206.231,270.751,233.104,268.731,240.046,267.875C242.699,267.675,251.731,267.997,252.452,264.274C252.378,263.278,244.870,252.164,243.526,247.595C239.493,233.886,247.236,212.619,225.928,213.220Z"/>
<path class="path-15" d="M226.626,222.508C238.088,219.645,239.911,257.209,229.295,258.007"/>
<path class="path-15" d="M229.295,258.007C219.342,258.756,221.959,235.870,222.149,229.518"/>
<path class="path-15" d="M222.149,229.518C222.232,226.175,223.003,223.114,226.626,222.508"/>
<path class="path-16" d="M226.626,222.508C238.088,219.645,239.911,257.209,229.295,258.007C219.342,258.756,221.959,235.870,222.149,229.518C222.232,226.175,223.003,223.114,226.626,222.508Z"/>
</g>
<g id="layer_head">
<g id="right_ear">
<path class="path-0" d="M138.648,199.957C127.363,201.933,112.763,164.883,128.788,168.877C133.546,170.052,136.075,178.540,136.939,182.173C138.530,188.476,146.381,198.641,138.648,199.957M134.951,156.986C131.591,155.058,127.514,154.184,123.998,155.811C114.123,158.590,110.170,170.682,111.719,180.876C113.752,193.349,125.541,208.567,136.918,211.485C140.052,212.305,146.508,214.601,149.610,213.158C156.208,209.578,151.222,199.298,149.505,193.663C147.622,186.962,140.093,161.240,134.951,156.986Z"/>
<path class="path-15" d="M128.788,168.877C133.546,170.052,136.075,178.540,136.939,182.173"/>
<path class="path-15" d="M136.939,182.173C138.530,188.476,146.381,198.641,138.648,199.957"/>
<path class="path-15" d="M138.648,199.957C127.363,201.933,112.763,164.883,128.788,168.877"/>
<path class="path-16" d="M128.788,168.877C133.546,170.052,136.075,178.540,136.939,182.173C138.530,188.476,146.381,198.641,138.648,199.957C127.363,201.933,112.763,164.883,128.788,168.877Z"/>
</g>
<g id="face_Mask">
<g id="face">
<path class="path-0" d="M152.736,111.044C161.296,100.656,194.115,93.703,207.769,91.804C223.087,89.916,238.706,92.357,253.644,97.120C258.956,98.822,266.689,100.755,271.224,104.564C278.722,110.911,282.488,122.341,285.072,131.419C287.107,137.923,291.078,146.406,289.683,152.694C283.645,179.904,277.841,192.042,272.620,199.744C265.904,209.651,253.621,213.824,242.941,219.000C227.072,226.413,210.756,230.695,202.151,230.231C189.676,229.557,163.087,221.202,154.575,212.802C146.940,204.983,146.763,194.131,144.522,183.907C142.371,175.366,139.693,162.302,138.739,153.724C137.673,142.544,145.691,119.516,152.736,111.044M275.296,96.917C261.845,84.514,225.519,81.533,207.867,84.051C199.540,84.982,191.550,85.584,183.883,87.521C178.211,89.143,173.197,91.766,167.858,93.391C156.182,97.633,151.380,96.160,143.474,106.868C137.798,114.364,129.614,143.947,129.707,153.191C129.899,160.164,133.354,176.666,134.760,184.664C136.360,194.079,138.318,207.016,143.326,214.748C147.740,221.351,153.691,225.974,163.797,230.629C175.993,236.248,190.054,240.055,203.820,241.370C211.937,242.650,227.735,238.288,249.068,227.634C260.613,221.687,272.321,215.164,279.990,203.617C288.274,191.143,295.141,173.434,300.934,152.329C306.387,132.461,283.577,104.388,275.296,96.917Z"/>
<path class="path-15" d="M207.769,91.804C223.087,89.916,238.706,92.357,253.644,97.120"/>
<path class="path-15" d="M253.644,97.120C258.956,98.822,266.689,100.755,271.224,104.564"/>
<path class="path-15" d="M271.224,104.564C278.722,110.911,282.488,122.341,285.072,131.419"/>
<path class="path-15" d="M285.072,131.419C287.107,137.923,291.078,146.406,289.683,152.694"/>
<path class="path-15" d="M289.683,152.694C283.645,179.904,277.841,192.042,272.620,199.744"/>
<path class="path-15" d="M272.620,199.744C265.904,209.651,253.621,213.824,242.941,219.000"/>
<path class="path-15" d="M242.941,219.000C227.072,226.413,210.756,230.695,202.151,230.231"/>
<path class="path-15" d="M202.151,230.231C189.676,229.557,163.087,221.202,154.575,212.802"/>
<path class="path-15" d="M154.575,212.802C146.940,204.983,146.763,194.131,144.522,183.907"/>
<path class="path-15" d="M144.522,183.907C142.371,175.366,139.693,162.302,138.739,153.724"/>
<path class="path-15" d="M138.739,153.724C137.673,142.544,145.691,119.516,152.736,111.044"/>
<path class="path-15" d="M152.736,111.044C161.296,100.656,194.115,93.703,207.769,91.804"/>
<path class="path-16" d="M207.769,91.804C223.087,89.916,238.706,92.357,253.644,97.120C258.956,98.822,266.689,100.755,271.224,104.564C278.722,110.911,282.488,122.341,285.072,131.419C287.107,137.923,291.078,146.406,289.683,152.694C283.645,179.904,277.841,192.042,272.620,199.744C265.904,209.651,253.621,213.824,242.941,219.000C227.072,226.413,210.756,230.695,202.151,230.231C189.676,229.557,163.087,221.202,154.575,212.802C146.940,204.983,146.763,194.131,144.522,183.907C142.371,175.366,139.693,162.302,138.739,153.724C137.673,142.544,145.691,119.516,152.736,111.044C161.296,100.656,194.115,93.703,207.769,91.804Z"/>
</g>
</g>
<mask id="mask_target" style="mask-type:alpha;">
<use xlink:href="#face_Mask"/>
</mask>
<g id="mouse">
<path class="path-0" d="M204.711,220.617C209.907,221.757,209.957,226.511,209.480,227.015C209.211,227.299,208.095,226.340,205.139,225.832C199.539,224.870,196.825,226.024,196.633,225.308C196.422,224.524,198.628,219.281,204.711,220.617Z"/>
</g>
<g id="layer_eyes_Mtarget" mask="url(#mask_target)">
<g id="eyes">
<mask style="mask-type:alpha;" id="f3906406-f197-4bf1-91d8-744c09cca836">
<use xlink:href="#cmn_f3906406-f197-4bf1-91d8-744c09cca836"/>
</mask>
<g id="cmn_f3906406-f197-4bf1-91d8-744c09cca836">
<path class="path-0" d="M175.269,181.093C177.512,190.773,171.111,198.410,163.870,197.926C158.118,197.437,154.801,191.530,153.052,185.891C151.850,182.498,147.642,166.493,152.203,169.019C155.047,170.594,174.563,178.048,175.269,181.093M182.565,184.432C183.175,182.873,183.968,180.520,183.459,178.925C182.963,177.369,181.296,175.194,179.646,175.039C175.304,174.534,161.123,166.686,155.731,164.421C151.586,162.749,141.173,156.352,137.695,159.859C133.535,163.932,139.664,167.065,141.630,174.941C145.159,189.079,156.348,205.486,167.437,204.394C178.773,203.277,179.827,191.429,182.565,184.432M226.342,195.653C218.990,195.406,209.061,189.792,209.462,178.337C209.577,175.067,223.024,170.427,229.064,167.473C235.318,164.413,247.221,158.234,250.409,158.363C253.898,158.927,252.332,161.962,252.341,171.616C252.350,181.568,239.341,196.092,226.342,195.653M259.174,177.984C263.043,166.198,262.856,149.907,260.549,148.789C255.383,146.284,241.714,155.587,233.784,158.861C223.973,162.910,208.279,171.630,201.544,173.428C199.413,174.079,197.471,174.549,197.122,176.051C196.465,178.877,201.708,181.036,203.547,183.280C206.570,186.969,208.129,193.205,213.070,196.011C223.412,202.314,231.039,201.067,242.908,196.803C250.488,194.103,256.911,184.875,259.174,177.984Z"/>
<path class="path-17" d="M250.409,158.363C253.898,158.927,252.332,161.962,252.341,171.616"/>
<path class="path-17" d="M252.341,171.616C252.350,181.568,239.341,196.092,226.342,195.653"/>
<path class="path-17" d="M226.342,195.653C218.990,195.406,209.061,189.792,209.462,178.337"/>
<path class="path-17" d="M209.462,178.337C209.577,175.067,223.024,170.427,229.064,167.473"/>
<path class="path-17" d="M229.064,167.473C235.318,164.413,247.221,158.234,250.409,158.363"/>
<path class="path-18" d="M250.409,158.363C253.898,158.927,252.332,161.962,252.341,171.616C252.350,181.568,239.341,196.092,226.342,195.653C218.990,195.406,209.061,189.792,209.462,178.337C209.577,175.067,223.024,170.427,229.064,167.473C235.318,164.413,247.221,158.234,250.409,158.363Z"/>
<path class="path-17" d="M152.203,169.019C155.047,170.594,174.563,178.048,175.269,181.093"/>
<path class="path-17" d="M175.269,181.093C177.512,190.773,171.111,198.410,163.870,197.926"/>
<path class="path-17" d="M163.870,197.926C158.118,197.437,154.801,191.530,153.052,185.891"/>
<path class="path-17" d="M153.052,185.891C151.850,182.498,147.642,166.493,152.203,169.019"/>
<path class="path-18" d="M152.203,169.019C155.047,170.594,174.563,178.048,175.269,181.093C177.512,190.773,171.111,198.410,163.870,197.926C158.118,197.437,154.801,191.530,153.052,185.891C151.850,182.498,147.642,166.493,152.203,169.019Z"/>
</g>
</g>
<g id="pupil">
<path class="path-0" d="M210.365,172.799C212.754,172.251,215.510,175.926,216.118,184.745C216.509,190.414,215.338,192.708,213.780,192.941C211.889,193.225,210.252,190.543,209.017,183.757C207.699,176.515,208.376,173.254,210.365,172.799Z" mask="url(#f3906406-f197-4bf1-91d8-744c09cca836)"/>
<path class="path-0" d="M154.777,172.982C156.905,172.599,158.540,176.008,159.829,183.960C160.770,189.768,160.539,192.359,159.008,192.748C157.467,193.138,155.710,191.042,154.094,185.342C151.844,177.402,152.598,173.375,154.777,172.982Z" mask="url(#f3906406-f197-4bf1-91d8-744c09cca836)"/>
</g>
</g>
<g id="hat">
<path class="path-0" d="M290.430,133.279C292.582,134.341,295.337,136.966,295.730,139.621C297.241,146.079,286.142,146.057,282.727,146.425C276.409,146.474,269.815,146.014,263.782,145.795C257.966,146.110,252.137,145.958,246.313,146.048C233.068,145.223,219.894,143.680,206.654,142.834C193.400,142.509,180.587,141.739,166.928,141.358C165.222,141.356,136.152,144.228,130.947,141.804C120.214,136.924,130.439,128.245,129.874,123.072C129.776,120.023,123.323,119.169,124.946,113.890C126.436,109.301,142.325,105.268,147.140,104.168C158.434,101.523,170.175,98.516,182.211,97.173C198.044,95.494,213.656,96.547,229.679,95.931C246.654,95.371,283.244,100.852,294.813,117.660C301.211,126.774,283.403,118.641,281.434,118.210C275.307,115.399,252.332,106.284,261.522,116.891C266.671,124.162,283.454,129.097,290.430,133.279M175.435,90.452C164.377,91.771,154.231,92.471,143.789,94.652C139.537,95.529,134.546,97.340,130.496,96.366C121.653,94.369,133.002,71.956,137.010,66.817C151.888,48.213,182.108,39.155,207.136,39.897C253.210,41.263,271.019,50.396,285.153,66.886C289.605,71.704,304.292,94.983,295.181,100.889C291.871,102.740,286.007,99.111,283.132,97.699C273.165,93.067,220.598,85.065,175.435,90.452M248.728,35.615C235.898,32.642,230.099,28.451,215.103,28.776C184.085,29.769,145.083,34.667,126.044,63.398C120.046,72.674,119.007,83.177,116.436,93.130C114.483,100.549,109.752,106.041,110.117,113.616C110.663,120.862,114.106,122.609,115.817,128.342C117.821,134.441,115.420,137.033,116.562,141.002C118.681,152.375,129.105,153.084,138.669,153.533C143.366,153.755,160.716,153.581,170.165,153.597C181.424,153.616,196.435,153.526,207.693,153.645C217.657,153.750,230.939,154.224,240.904,154.296C250.119,154.362,262.416,154.581,271.621,154.139C281.202,153.678,302.315,152.344,303.463,151.226C305.404,149.369,309.842,130.868,310.090,127.380C310.353,123.694,308.756,119.888,309.260,113.976C310.074,100.914,310.800,88.991,304.916,76.033C294.197,52.958,270.302,40.999,248.728,35.615Z"/>
<path class="path-19" d="M229.679,95.931C246.654,95.371,283.244,100.852,294.813,117.660"/>
<path class="path-19" d="M294.813,117.660C301.211,126.774,283.403,118.641,281.434,118.210"/>
<path class="path-19" d="M281.434,118.210C275.307,115.399,252.332,106.284,261.522,116.891"/>
<path class="path-19" d="M261.522,116.891C266.671,124.162,283.454,129.097,290.430,133.279"/>
<path class="path-19" d="M290.430,133.279C292.582,134.341,295.337,136.966,295.730,139.621"/>
<path class="path-19" d="M295.730,139.621C297.241,146.079,286.142,146.057,282.727,146.425"/>
<path class="path-19" d="M282.727,146.425C276.409,146.474,269.815,146.014,263.782,145.795"/>
<path class="path-19" d="M263.782,145.795C257.966,146.110,252.137,145.958,246.313,146.048"/>
<path class="path-19" d="M246.313,146.048C233.068,145.223,219.894,143.680,206.654,142.834"/>
<path class="path-19" d="M206.654,142.834C193.400,142.509,180.587,141.739,166.928,141.358"/>
<path class="path-19" d="M166.928,141.358C165.222,141.356,136.152,144.228,130.947,141.804"/>
<path class="path-19" d="M130.947,141.804C120.214,136.924,130.439,128.245,129.874,123.072"/>
<path class="path-19" d="M129.874,123.072C129.776,120.023,123.323,119.169,124.946,113.890"/>
<path class="path-19" d="M124.946,113.890C126.436,109.301,142.325,105.268,147.140,104.168"/>
<path class="path-19" d="M147.140,104.168C158.434,101.523,170.175,98.516,182.211,97.173"/>
<path class="path-19" d="M182.211,97.173C198.044,95.494,213.656,96.547,229.679,95.931"/>
<path class="path-20" d="M229.679,95.931C246.654,95.371,283.244,100.852,294.813,117.660C301.211,126.774,283.403,118.641,281.434,118.210C275.307,115.399,252.332,106.284,261.522,116.891C266.671,124.162,283.454,129.097,290.430,133.279C292.582,134.341,295.337,136.966,295.730,139.621C297.241,146.079,286.142,146.057,282.727,146.425C276.409,146.474,269.815,146.014,263.782,145.795C257.966,146.110,252.137,145.958,246.313,146.048C233.068,145.223,219.894,143.680,206.654,142.834C193.400,142.509,180.587,141.739,166.928,141.358C165.222,141.356,136.152,144.228,130.947,141.804C120.214,136.924,130.439,128.245,129.874,123.072C129.776,120.023,123.323,119.169,124.946,113.890C126.436,109.301,142.325,105.268,147.140,104.168C158.434,101.523,170.175,98.516,182.211,97.173C198.044,95.494,213.656,96.547,229.679,95.931Z"/>
<path class="path-9" d="M207.136,39.897C253.210,41.263,271.019,50.396,285.153,66.886"/>
<path class="path-9" d="M285.153,66.886C289.605,71.704,304.292,94.983,295.181,100.889"/>
<path class="path-9" d="M295.181,100.889C291.871,102.740,286.007,99.111,283.132,97.699"/>
<path class="path-9" d="M283.132,97.699C273.165,93.067,220.598,85.065,175.435,90.452"/>
<path class="path-9" d="M175.435,90.452C164.377,91.771,154.231,92.471,143.789,94.652"/>
<path class="path-9" d="M143.789,94.652C139.537,95.529,134.546,97.340,130.496,96.366"/>
<path class="path-9" d="M130.496,96.366C121.653,94.369,133.002,71.956,137.010,66.817"/>
<path class="path-9" d="M137.010,66.817C151.888,48.213,182.108,39.155,207.136,39.897"/>
<path class="path-10" d="M207.136,39.897C253.210,41.263,271.019,50.396,285.153,66.886C289.605,71.704,304.292,94.983,295.181,100.889C291.871,102.740,286.007,99.111,283.132,97.699C273.165,93.067,220.598,85.065,175.435,90.452C164.377,91.771,154.231,92.471,143.789,94.652C139.537,95.529,134.546,97.340,130.496,96.366C121.653,94.369,133.002,71.956,137.010,66.817C151.888,48.213,182.108,39.155,207.136,39.897Z"/>
</g>
<g id="left_ear">
<path class="path-0" d="M277.602,192.268C276.183,187.424,279.605,161.301,281.866,157.556C287.587,147.804,304.635,156.904,308.090,165.035C311.835,174.378,302.215,189.023,294.459,195.439C286.947,201.463,280.034,200.253,277.602,192.268M321.088,168.341C319.725,153.930,302.452,138.859,289.655,145.373C274.131,153.275,280.000,176.065,277.683,190.297C277.174,194.043,274.625,197.923,275.460,201.422C277.653,211.312,287.936,212.562,296.480,204.928C306.113,196.141,321.974,182.167,321.088,168.341Z"/>
<path class="path-15" d="M281.866,157.556C287.587,147.804,304.635,156.904,308.090,165.035"/>
<path class="path-15" d="M308.090,165.035C311.835,174.378,302.215,189.023,294.459,195.439"/>
<path class="path-15" d="M294.459,195.439C286.947,201.463,280.034,200.253,277.602,192.268"/>
<path class="path-15" d="M277.602,192.268C276.183,187.424,279.605,161.301,281.866,157.556"/>
<path class="path-16" d="M281.866,157.556C287.587,147.804,304.635,156.904,308.090,165.035C311.835,174.378,302.215,189.023,294.459,195.439C286.947,201.463,280.034,200.253,277.602,192.268C276.183,187.424,279.605,161.301,281.866,157.556Z"/>
</g>
<g id="earrings">
<path class="path-0" d="M299.451,212.922C290.657,216.660,288.944,197.914,292.497,198.296C297.466,200.064,304.178,208.900,299.451,212.922M308.895,204.724C302.167,204.910,299.226,195.876,298.746,192.023C306.302,193.796,315.756,199.560,308.895,204.724M318.976,200.898C316.490,192.816,304.526,188.034,296.743,184.770C293.905,183.580,286.213,193.670,285.859,196.888C284.793,200.901,286.749,222.910,300.445,220.277C306.122,218.923,320.977,207.405,318.976,200.898Z"/>
<path class="path-21" d="M298.746,192.023C306.302,193.796,315.756,199.560,308.895,204.724"/>
<path class="path-21" d="M308.895,204.724C302.167,204.910,299.226,195.876,298.746,192.023"/>
<path class="path-22" d="M298.746,192.023C306.302,193.796,315.756,199.560,308.895,204.724C302.167,204.910,299.226,195.876,298.746,192.023Z"/>
<path class="path-21" d="M292.497,198.296C297.466,200.064,304.178,208.900,299.451,212.922"/>
<path class="path-21" d="M299.451,212.922C290.657,216.660,288.944,197.914,292.497,198.296"/>
<path class="path-22" d="M292.497,198.296C297.466,200.064,304.178,208.900,299.451,212.922C290.657,216.660,288.944,197.914,292.497,198.296Z"/>
</g>
</g>
<g id="jacket">
<path class="path-0" d="M197.863,276.801C200.452,281.166,197.597,291.430,197.516,296.084C195.219,313.050,191.870,329.286,192.005,346.008C192.159,350.014,190.935,357.034,188.929,361.242C187.517,364.203,184.817,368.575,182.106,369.788C178.714,371.245,177.325,364.385,176.440,361.565C175.222,357.685,176.378,350.414,176.653,347.802C177.528,342.616,180.182,332.582,180.144,325.949C180.156,319.442,176.784,313.135,176.286,305.977C175.475,300.582,174.258,294.202,173.296,288.194C173.420,285.004,174.036,283.043,174.142,280.789C173.896,275.370,176.449,273.974,181.633,273.575C186.468,273.547,196.287,271.462,197.863,276.801M254.126,287.049C255.870,283.487,281.619,266.516,284.979,264.873C293.534,261.182,297.398,270.859,297.156,276.339C296.896,284.707,281.863,312.186,283.829,317.866C284.600,320.599,287.123,321.559,288.981,323.134C302.160,335.458,295.600,328.269,308.585,333.730C314.717,336.367,326.709,343.786,331.850,347.835C334.903,350.547,341.231,357.104,343.012,360.494C344.427,363.877,346.198,370.138,341.080,371.809C339.730,372.441,324.687,372.622,322.139,372.861C309.600,373.358,295.758,375.145,285.166,366.796C281.786,363.821,279.330,359.283,276.752,355.203C267.510,341.093,261.140,325.452,256.682,309.114C254.833,303.313,251.926,293.068,254.126,287.049M270.935,262.274C267.863,265.335,261.732,270.223,259.561,271.196C251.710,274.223,250.313,264.818,249.868,258.926C249.665,253.792,252.706,246.555,255.833,242.265C258.579,238.499,263.011,233.367,268.085,232.712C274.472,231.656,285.187,238.517,283.750,245.743C283.301,249.086,275.379,257.844,270.935,262.274M189.286,239.801C194.175,243.881,197.803,248.638,196.735,253.079C195.735,257.237,192.628,259.418,185.394,261.678C173.998,265.238,165.396,247.884,169.058,240.832C171.858,235.440,183.037,234.588,189.286,239.801M358.329,363.299C354.400,357.154,351.751,352.940,346.146,347.785C338.206,340.623,328.721,332.653,319.233,327.840C310.161,323.528,303.271,324.971,296.995,315.494C291.253,307.141,294.530,297.409,295.834,287.770C296.177,284.054,297.327,265.111,297.492,261.710C297.133,258.256,297.689,254.791,297.251,251.625C296.842,247.750,297.397,243.633,296.128,239.949C294.254,233.301,287.357,230.208,282.112,226.827C274.893,222.756,268.628,220.825,260.336,222.588C251.201,224.542,247.932,234.623,245.261,241.325C241.193,251.535,243.084,266.917,243.279,277.905C243.391,284.186,244.248,292.907,244.999,298.772C247.547,321.501,269.224,370.954,290.575,379.566C295.345,381.859,327.554,384.665,337.531,383.820C343.246,383.365,345.974,383.498,351.528,383.976C354.409,384.337,361.158,383.938,363.108,380.772C365.964,376.460,360.368,366.492,358.329,363.299M203.016,239.611C199.726,233.814,194.290,224.193,187.474,223.731C181.134,223.506,171.482,224.726,165.723,228.058C162.224,230.083,156.950,233.850,156.543,237.924C155.799,243.977,158.251,251.237,161.246,255.958C163.007,258.736,167.379,260.738,169.439,263.243C170.496,264.603,174.273,272.085,174.948,274.110C178.646,284.255,174.163,296.053,173.420,305.431C172.800,313.266,171.343,323.652,170.588,331.475C169.722,340.458,168.852,351.644,168.074,361.453C167.765,363.768,167.693,368.941,167.935,372.137C168.182,375.405,168.070,381.496,169.724,382.915C170.571,383.642,180.846,385.258,185.039,383.375C189.335,381.446,192.618,381.035,195.084,371.311C197.886,359.070,200.177,348.008,200.760,335.320C201.186,314.184,207.925,285.327,207.381,272.295C207.131,266.289,208.267,262.309,207.099,253.926C206.507,250.443,205.220,243.495,203.016,239.611Z"/>
<path class="path-1" d="M284.979,264.873C293.534,261.182,297.398,270.859,297.156,276.339"/>
<path class="path-1" d="M297.156,276.339C296.896,284.707,281.863,312.186,283.829,317.866"/>
<path class="path-1" d="M283.829,317.866C284.600,320.599,287.123,321.559,288.981,323.134"/>
<path class="path-1" d="M288.981,323.134C302.160,335.458,295.600,328.269,308.585,333.730"/>
<path class="path-1" d="M308.585,333.730C314.717,336.367,326.709,343.786,331.850,347.835"/>
<path class="path-1" d="M331.850,347.835C334.903,350.547,341.231,357.104,343.012,360.494"/>
<path class="path-1" d="M343.012,360.494C344.427,363.877,346.198,370.138,341.080,371.809"/>
<path class="path-1" d="M341.080,371.809C339.730,372.441,324.687,372.622,322.139,372.861"/>
<path class="path-1" d="M322.139,372.861C309.600,373.358,295.758,375.145,285.166,366.796"/>
<path class="path-1" d="M285.166,366.796C281.786,363.821,279.330,359.283,276.752,355.203"/>
<path class="path-1" d="M276.752,355.203C267.510,341.093,261.140,325.452,256.682,309.114"/>
<path class="path-1" d="M256.682,309.114C254.833,303.313,251.926,293.068,254.126,287.049"/>
<path class="path-1" d="M254.126,287.049C255.870,283.487,281.619,266.516,284.979,264.873"/>
<path class="path-2" d="M284.979,264.873C293.534,261.182,297.398,270.859,297.156,276.339C296.896,284.707,281.863,312.186,283.829,317.866C284.600,320.599,287.123,321.559,288.981,323.134C302.160,335.458,295.600,328.269,308.585,333.730C314.717,336.367,326.709,343.786,331.850,347.835C334.903,350.547,341.231,357.104,343.012,360.494C344.427,363.877,346.198,370.138,341.080,371.809C339.730,372.441,324.687,372.622,322.139,372.861C309.600,373.358,295.758,375.145,285.166,366.796C281.786,363.821,279.330,359.283,276.752,355.203C267.510,341.093,261.140,325.452,256.682,309.114C254.833,303.313,251.926,293.068,254.126,287.049C255.870,283.487,281.619,266.516,284.979,264.873Z"/>
<path class="path-1" d="M181.633,273.575C186.468,273.547,196.287,271.462,197.863,276.801"/>
<path class="path-1" d="M197.863,276.801C200.452,281.166,197.597,291.430,197.516,296.084"/>
<path class="path-1" d="M197.516,296.084C195.219,313.050,191.870,329.286,192.005,346.008"/>
<path class="path-1" d="M192.005,346.008C192.159,350.014,190.935,357.034,188.929,361.242"/>
<path class="path-1" d="M188.929,361.242C187.517,364.203,184.817,368.575,182.106,369.788"/>
<path class="path-1" d="M182.106,369.788C178.714,371.245,177.325,364.385,176.440,361.565"/>
<path class="path-1" d="M176.440,361.565C175.222,357.685,176.378,350.414,176.653,347.802"/>
<path class="path-1" d="M176.653,347.802C177.528,342.616,180.182,332.582,180.144,325.949"/>
<path class="path-1" d="M180.144,325.949C180.156,319.442,176.784,313.135,176.286,305.977"/>
<path class="path-1" d="M176.286,305.977C175.475,300.582,174.258,294.202,173.296,288.194"/>
<path class="path-1" d="M173.296,288.194C173.420,285.004,174.036,283.043,174.142,280.789"/>
<path class="path-1" d="M174.142,280.789C173.896,275.370,176.449,273.974,181.633,273.575"/>
<path class="path-2" d="M181.633,273.575C186.468,273.547,196.287,271.462,197.863,276.801C200.452,281.166,197.597,291.430,197.516,296.084C195.219,313.050,191.870,329.286,192.005,346.008C192.159,350.014,190.935,357.034,188.929,361.242C187.517,364.203,184.817,368.575,182.106,369.788C178.714,371.245,177.325,364.385,176.440,361.565C175.222,357.685,176.378,350.414,176.653,347.802C177.528,342.616,180.182,332.582,180.144,325.949C180.156,319.442,176.784,313.135,176.286,305.977C175.475,300.582,174.258,294.202,173.296,288.194C173.420,285.004,174.036,283.043,174.142,280.789C173.896,275.370,176.449,273.974,181.633,273.575Z"/>
<path class="path-1" d="M268.085,232.712C274.472,231.656,285.187,238.517,283.750,245.743"/>
<path class="path-1" d="M283.750,245.743C283.301,249.086,275.379,257.844,270.935,262.274"/>
<path class="path-1" d="M270.935,262.274C267.863,265.335,261.732,270.223,259.561,271.196"/>
<path class="path-1" d="M259.561,271.196C251.710,274.223,250.313,264.818,249.868,258.926"/>
<path class="path-1" d="M249.868,258.926C249.665,253.792,252.706,246.555,255.833,242.265"/>
<path class="path-1" d="M255.833,242.265C258.579,238.499,263.011,233.367,268.085,232.712"/>
<path class="path-2" d="M268.085,232.712C274.472,231.656,285.187,238.517,283.750,245.743C283.301,249.086,275.379,257.844,270.935,262.274C267.863,265.335,261.732,270.223,259.561,271.196C251.710,274.223,250.313,264.818,249.868,258.926C249.665,253.792,252.706,246.555,255.833,242.265C258.579,238.499,263.011,233.367,268.085,232.712Z"/>
<path class="path-1" d="M189.286,239.801C194.175,243.881,197.803,248.638,196.735,253.079"/>
<path class="path-1" d="M196.735,253.079C195.735,257.237,192.628,259.418,185.394,261.678"/>
<path class="path-1" d="M185.394,261.678C173.998,265.238,165.396,247.884,169.058,240.832"/>
<path class="path-1" d="M169.058,240.832C171.858,235.440,183.037,234.588,189.286,239.801"/>
<path class="path-2" d="M189.286,239.801C194.175,243.881,197.803,248.638,196.735,253.079C195.735,257.237,192.628,259.418,185.394,261.678C173.998,265.238,165.396,247.884,169.058,240.832C171.858,235.440,183.037,234.588,189.286,239.801Z"/>
</g>
<g id="left_arm">
<path class="path-0" d="M302.342,463.148C299.387,458.025,298.864,449.680,306.129,447.683C311.331,446.208,334.580,450.821,338.478,454.663C345.301,460.746,341.399,474.942,333.031,478.234C323.083,481.634,307.364,471.644,302.342,463.148M278.278,285.112C278.612,281.813,285.278,270.386,290.427,270.655C293.417,270.811,295.632,275.513,297.058,277.974C301.063,285.732,305.298,293.744,308.857,301.964C318.623,323.951,326.490,346.287,332.725,369.108C334.980,378.310,334.801,390.702,338.201,399.003C342.237,408.535,348.400,405.278,351.401,411.528C352.748,414.515,352.145,420.173,354.182,424.812C357.241,432.105,362.932,436.046,365.634,440.680C367.323,443.326,368.002,446.252,364.361,447.014C362.379,448.070,357.001,447.350,354.994,447.425C348.237,445.894,341.484,444.354,334.770,442.664C325.784,440.803,298.665,439.216,293.982,433.273C286.875,423.924,297.728,412.753,298.985,403.345C299.611,400.397,302.872,357.108,301.984,354.284C300.701,347.741,295.843,342.693,293.207,336.199C290.055,327.224,286.787,317.614,283.851,308.199C281.536,300.235,276.969,294.098,278.278,285.112M300.308,259.208C297.239,255.000,288.639,248.014,282.955,250.320C278.254,252.461,278.593,258.477,278.599,262.525C278.616,272.643,278.029,281.177,279.631,290.691C280.462,297.636,282.192,303.753,283.929,310.210C285.988,318.832,287.236,335.900,288.712,345.901C289.806,355.360,292.694,365.060,292.370,373.290C291.198,392.582,282.260,410.807,283.093,430.029C283.184,439.695,285.826,439.652,288.174,447.359C289.907,453.328,288.617,459.666,290.995,465.300C297.116,480.217,314.538,493.703,331.475,490.226C347.084,487.092,347.599,470.120,355.835,461.063C363.083,453.013,377.757,456.875,379.678,448.539C381.612,441.535,371.878,433.984,368.191,428.680C360.852,418.783,366.515,416.426,362.854,408.819C360.191,403.196,352.610,398.223,348.885,390.977C346.837,387.650,345.710,381.314,344.271,376.990C341.205,366.455,338.425,354.374,335.578,343.290C332.636,330.768,329.536,319.853,323.961,307.518C319.567,297.464,306.283,266.635,300.308,259.208Z"/>
<path class="path-1" d="M290.427,270.655C293.417,270.811,295.632,275.513,297.058,277.974"/>
<path class="path-1" d="M297.058,277.974C301.063,285.732,305.298,293.744,308.857,301.964"/>
<path class="path-1" d="M308.857,301.964C318.623,323.951,326.490,346.287,332.725,369.108"/>
<path class="path-1" d="M332.725,369.108C334.980,378.310,334.801,390.702,338.201,399.003"/>
<path class="path-1" d="M338.201,399.003C342.237,408.535,348.400,405.278,351.401,411.528"/>
<path class="path-1" d="M351.401,411.528C352.748,414.515,352.145,420.173,354.182,424.812"/>
<path class="path-1" d="M354.182,424.812C357.241,432.105,362.932,436.046,365.634,440.680"/>
<path class="path-1" d="M365.634,440.680C367.323,443.326,368.002,446.252,364.361,447.014"/>
<path class="path-1" d="M364.361,447.014C362.379,448.070,357.001,447.350,354.994,447.425"/>
<path class="path-1" d="M354.994,447.425C348.237,445.894,341.484,444.354,334.770,442.664"/>
<path class="path-1" d="M334.770,442.664C325.784,440.803,298.665,439.216,293.982,433.273"/>
<path class="path-1" d="M293.982,433.273C286.875,423.924,297.728,412.753,298.985,403.345"/>
<path class="path-1" d="M298.985,403.345C299.611,400.397,302.872,357.108,301.984,354.284"/>
<path class="path-1" d="M301.984,354.284C300.701,347.741,295.843,342.693,293.207,336.199"/>
<path class="path-1" d="M293.207,336.199C290.055,327.224,286.787,317.614,283.851,308.199"/>
<path class="path-1" d="M283.851,308.199C281.536,300.235,276.969,294.098,278.278,285.112"/>
<path class="path-1" d="M278.278,285.112C278.612,281.813,285.278,270.386,290.427,270.655"/>
<path class="path-2" d="M290.427,270.655C293.417,270.811,295.632,275.513,297.058,277.974C301.063,285.732,305.298,293.744,308.857,301.964C318.623,323.951,326.490,346.287,332.725,369.108C334.980,378.310,334.801,390.702,338.201,399.003C342.237,408.535,348.400,405.278,351.401,411.528C352.748,414.515,352.145,420.173,354.182,424.812C357.241,432.105,362.932,436.046,365.634,440.680C367.323,443.326,368.002,446.252,364.361,447.014C362.379,448.070,357.001,447.350,354.994,447.425C348.237,445.894,341.484,444.354,334.770,442.664C325.784,440.803,298.665,439.216,293.982,433.273C286.875,423.924,297.728,412.753,298.985,403.345C299.611,400.397,302.872,357.108,301.984,354.284C300.701,347.741,295.843,342.693,293.207,336.199C290.055,327.224,286.787,317.614,283.851,308.199C281.536,300.235,276.969,294.098,278.278,285.112C278.612,281.813,285.278,270.386,290.427,270.655Z"/>
<path class="path-15" d="M306.129,447.683C311.331,446.208,334.580,450.821,338.478,454.663"/>
<path class="path-15" d="M338.478,454.663C345.301,460.746,341.399,474.942,333.031,478.234"/>
<path class="path-15" d="M333.031,478.234C323.083,481.634,307.364,471.644,302.342,463.148"/>
<path class="path-15" d="M302.342,463.148C299.387,458.025,298.864,449.680,306.129,447.683"/>
<path class="path-16" d="M306.129,447.683C311.331,446.208,334.580,450.821,338.478,454.663C345.301,460.746,341.399,474.942,333.031,478.234C323.083,481.634,307.364,471.644,302.342,463.148C299.387,458.025,298.864,449.680,306.129,447.683Z"/>
</g>
<g id="bone">
<g id="bone1_clothes">
<path class="path-23" d="M227.515,392.917C227.516,392.911,234.173,334.299,234.174,334.293C234.175,334.299,238.645,393.118,238.645,393.124C238.644,393.124,227.516,392.917,227.515,392.917"/>
</g>
<g id="bone2_clothes">
<path class="path-23" d="M227.268,333.932C227.268,333.925,229.884,261.446,229.884,261.438C229.885,261.445,241.012,333.113,241.013,333.120C241.012,333.120,227.269,333.932,227.268,333.932"/>
</g>
<g id="bone3_neck">
<path class="path-23" d="M233.256,260.233C233.256,260.229,228.721,218.776,228.721,218.772C228.721,218.776,226.662,260.426,226.662,260.430C226.662,260.430,233.255,260.233,233.256,260.233"/>
</g>
<g id="bone4_head">
<path class="path-23" d="M222.811,219.708C222.811,219.701,216.319,141.907,216.319,141.899C216.320,141.906,235.109,217.675,235.111,217.683C235.110,217.683,222.813,219.708,222.811,219.708"/>
</g>
<g id="bone5_left_arm">
<path class="path-23" d="M293.605,262.503C293.607,262.512,316.582,352.079,316.585,352.088C316.581,352.080,278.719,267.720,278.715,267.712C278.716,267.711,293.603,262.504,293.605,262.503"/>
</g>
<g id="bone6_left_arm">
<path class="path-23" d="M311.350,352.947C311.351,352.953,324.316,415.357,324.318,415.363C324.317,415.357,321.713,351.673,321.713,351.667C321.712,351.667,311.351,352.947,311.350,352.947"/>
</g>
<g id="bone7_right_arm">
<path class="path-23" d="M164.409,275.491C164.407,275.502,145.455,389.436,145.453,389.447C145.457,389.436,182.148,279.920,182.151,279.909C182.150,279.909,164.411,275.491,164.409,275.491"/>
</g>
<g id="bone8_right_arm">
<path class="path-23" d="M150.174,385.253C150.176,385.258,171.227,440.935,171.229,440.940C171.226,440.935,139.420,390.623,139.417,390.618C139.418,390.617,150.173,385.253,150.174,385.253"/>
</g>
<g id="bone9_left_leg">
<path class="path-23" d="M265.534,391.569C265.536,391.579,277.841,492.497,277.842,492.507C277.839,492.497,247.592,395.436,247.589,395.426C247.591,395.426,265.533,391.569,265.534,391.569"/>
</g>
<g id="bone10_right_leg">
<path class="path-23" d="M202.949,391.925C202.949,391.935,203.022,495.690,203.022,495.701C203.024,495.690,218.412,393.082,218.414,393.072C218.412,393.072,202.951,391.925,202.949,391.925"/>
</g>
<g id="bone11_hair">
<path class="path-23" d="M227.336,163.612C227.337,163.620,232.267,243.652,232.268,243.660C232.266,243.652,212.772,165.874,212.770,165.866C212.771,165.866,227.335,163.612,227.336,163.612"/>
</g>
<g id="bone12_left_leg_S">
<path class="path-23" d="M441.933,214.188C441.930,214.182,406.155,151.302,406.151,151.296C406.154,151.303,431.111,219.206,431.114,219.212C431.115,219.212,441.932,214.189,441.933,214.188"/>
</g>
<g id="bone13_right_leg_S">
<path class="path-23" d="M500.048,212.570C500.042,212.565,444.218,166.550,444.213,166.546C444.217,166.551,491.722,221.113,491.727,221.118C491.728,221.117,500.047,212.571,500.048,212.570"/>
</g>
<g id="bone14_left_arm_S">
<path class="path-23" d="M557.442,214.626C557.440,214.620,535.888,145.560,535.886,145.553C535.887,145.560,545.799,217.222,545.800,217.229C545.801,217.229,557.441,214.627,557.442,214.626"/>
</g>
<g id="bone15_jacket_S">
<path class="path-23" d="M610.594,214.634C610.592,214.627,588.671,145.684,588.669,145.677C588.670,145.684,598.966,217.292,598.967,217.299C598.968,217.299,610.593,214.634,610.594,214.634"/>
</g>
<g id="bone16_pupils_S">
<path class="path-23" d="M440.060,341.844C440.065,341.839,492.066,291.544,492.072,291.539C492.066,291.543,432.508,332.611,432.502,332.615C432.503,332.616,440.059,341.843,440.060,341.844"/>
</g>
<g id="bone17_eyelids_S">
<path class="path-23" d="M502.309,337.358C502.308,337.351,496.345,265.253,496.344,265.246C496.344,265.253,490.380,337.351,490.380,337.358C490.381,337.358,502.308,337.358,502.309,337.358"/>
</g>
<g id="bone18_face_S">
<path class="path-23" d="M556.669,342.422C556.673,342.416,594.419,280.699,594.423,280.693C594.418,280.698,547.045,335.375,547.040,335.380C547.041,335.381,556.669,342.421,556.669,342.422"/>
</g>
</g>
</g>
<style>
.path-0{fill:#000000;fill-rule:evenodd;stroke:none;}
.path-1{fill:none;stroke:#a60d3f;stroke-width:1;stroke-linecap:butt;stroke-linejoin:round;}
.path-2{fill:#a60d3f;fill-rule:evenodd;stroke:none;}
.path-3{fill:none;stroke:#d88e4b;stroke-width:1;stroke-linecap:butt;stroke-linejoin:round;}
.path-4{fill:#d88e4b;fill-rule:evenodd;stroke:none;}
.path-5{fill:none;stroke:#6e2353;stroke-width:1;stroke-linecap:butt;stroke-linejoin:round;}
.path-6{fill:#6e2353;fill-rule:evenodd;stroke:none;}
.path-7{fill:none;stroke:#392966;stroke-width:1;stroke-linecap:butt;stroke-linejoin:round;}
.path-8{fill:#392966;fill-rule:evenodd;stroke:none;}
.path-9{fill:none;stroke:#cc9bc5;stroke-width:1;stroke-linecap:butt;stroke-linejoin:round;}
.path-10{fill:#cc9bc5;fill-rule:evenodd;stroke:none;}
.path-11{fill:none;stroke:#620527;stroke-width:1;stroke-linecap:butt;stroke-linejoin:round;}
.path-12{fill:#620527;fill-rule:evenodd;stroke:none;}
.path-13{fill:none;stroke:#6a3661;stroke-width:1;stroke-linecap:butt;stroke-linejoin:round;}
.path-14{fill:#6a3661;fill-rule:evenodd;stroke:none;}
.path-15{fill:none;stroke:#f8a087;stroke-width:1;stroke-linecap:butt;stroke-linejoin:round;}
.path-16{fill:#f8a087;fill-rule:evenodd;stroke:none;}
.path-17{fill:none;stroke:#ffffff;stroke-width:1;stroke-linecap:butt;stroke-linejoin:round;}
.path-18{fill:#ffffff;fill-rule:evenodd;stroke:none;}
.path-19{fill:none;stroke:#d89f4a;stroke-width:1;stroke-linecap:butt;stroke-linejoin:round;}
.path-20{fill:#d89f4a;fill-rule:evenodd;stroke:none;}
.path-21{fill:none;stroke:#fafd5b;stroke-width:1;stroke-linecap:butt;stroke-linejoin:round;}
.path-22{fill:#fafd5b;fill-rule:evenodd;stroke:none;}
.path-23{fill:none;stroke:#00ff42;stroke-width:8;stroke-linecap:round;stroke-linejoin:round;}
.path-24{fill:none;stroke:#000000;stroke-width:1;stroke-linecap:butt;stroke-linejoin:round;}
.path-25{fill:none;stroke:#ececec;stroke-width:1;stroke-linecap:butt;stroke-linejoin:round;}
.path-26{fill:#ececec;fill-rule:evenodd;stroke:none;}
</style>
</svg>
