<svg version="1.1" id="Frame_204" xmlns="http://www.w3.org/2000/svg" xmlns:xlink="http://www.w3.org/1999/xlink" width="480px" height="720px">
<g id="main_bone">
<g id="right_arm">
<path class="path-0" d="M179.957,270.566C181.590,268.019,184.796,262.755,188.684,261.586C195.230,259.617,200.227,265.833,200.575,270.415C201.492,278.440,194.865,288.657,191.649,296.238C183.775,314.489,175.374,332.513,169.945,351.087C169.249,354.344,164.008,375.452,164.073,372.803C163.581,379.419,170.075,385.210,172.277,390.889C175.091,398.547,172.171,405.712,170.219,412.658C165.731,426.981,166.124,432.278,166.329,446.271C166.465,448.488,166.835,455.708,163.363,456.092C159.950,456.470,158.967,450.322,158.074,447.985C157.509,445.351,154.725,439.842,155.267,437.470C155.380,433.497,159.942,434.446,154.894,426.255C148.447,416.012,137.137,407.366,134.400,393.996C132.616,383.351,138.363,374.145,141.726,364.320C148.883,343.210,156.806,322.127,165.961,301.470C170.937,290.761,173.396,281.367,179.957,270.566M200.549,264.133C201.351,255.628,198.946,247.962,188.142,250.588C170.747,254.751,162.935,280.567,156.963,295.020C148.581,314.541,141.560,334.307,135.014,354.205C132.331,362.729,129.060,367.009,127.615,371.955C125.826,377.550,125.941,386.179,126.162,391.821C125.813,409.474,131.135,410.436,138.311,424.001C142.118,432.021,138.400,437.152,141.118,444.081C143.108,448.847,147.123,452.107,150.263,456.012C153.048,459.933,153.786,462.219,155.893,465.832C158.444,470.149,166.015,479.847,171.679,477.059C175.919,474.953,174.943,467.052,174.873,463.217C174.610,457.459,176.063,435.138,177.081,428.379C178.935,417.171,184.980,405.208,183.518,393.076C182.331,383.801,174.230,377.001,174.826,367.095C175.295,361.819,178.793,353.318,180.066,347.425C182.154,338.008,182.779,327.849,185.588,318.222C190.385,301.093,199.502,282.255,200.549,264.133Z"/>
<path class="path-1" d="M188.684,261.586C195.230,259.617,200.227,265.833,200.575,270.415"/>
<path class="path-1" d="M200.575,270.415C201.492,278.440,194.865,288.657,191.649,296.238"/>
<path class="path-1" d="M191.649,296.238C183.775,314.489,175.374,332.513,169.945,351.087"/>
<path class="path-1" d="M169.945,351.087C169.249,354.344,164.008,375.452,164.073,372.803"/>
<path class="path-1" d="M164.073,372.803C163.581,379.419,170.075,385.210,172.277,390.889"/>
<path class="path-1" d="M172.277,390.889C175.091,398.547,172.171,405.712,170.219,412.658"/>
<path class="path-1" d="M170.219,412.658C165.731,426.981,166.124,432.278,166.329,446.271"/>
<path class="path-1" d="M166.329,446.271C166.465,448.488,166.835,455.708,163.363,456.092"/>
<path class="path-1" d="M163.363,456.092C159.950,456.470,158.967,450.322,158.074,447.985"/>
<path class="path-1" d="M158.074,447.985C157.509,445.351,154.725,439.842,155.267,437.470"/>
<path class="path-1" d="M155.267,437.470C155.380,433.497,159.942,434.446,154.894,426.255"/>
<path class="path-1" d="M154.894,426.255C148.447,416.012,137.137,407.366,134.400,393.996"/>
<path class="path-1" d="M134.400,393.996C132.616,383.351,138.363,374.145,141.726,364.320"/>
<path class="path-1" d="M141.726,364.320C148.883,343.210,156.806,322.127,165.961,301.470"/>
<path class="path-1" d="M165.961,301.470C170.937,290.761,173.396,281.367,179.957,270.566"/>
<path class="path-1" d="M179.957,270.566C181.590,268.019,184.796,262.755,188.684,261.586"/>
<path class="path-2" d="M188.684,261.586C195.230,259.617,200.227,265.833,200.575,270.415C201.492,278.440,194.865,288.657,191.649,296.238C183.775,314.489,175.374,332.513,169.945,351.087C169.249,354.344,164.008,375.452,164.073,372.803C163.581,379.419,170.075,385.210,172.277,390.889C175.091,398.547,172.171,405.712,170.219,412.658C165.731,426.981,166.124,432.278,166.329,446.271C166.465,448.488,166.835,455.708,163.363,456.092C159.950,456.470,158.967,450.322,158.074,447.985C157.509,445.351,154.725,439.842,155.267,437.470C155.380,433.497,159.942,434.446,154.894,426.255C148.447,416.012,137.137,407.366,134.400,393.996C132.616,383.351,138.363,374.145,141.726,364.320C148.883,343.210,156.806,322.127,165.961,301.470C170.937,290.761,173.396,281.367,179.957,270.566C181.590,268.019,184.796,262.755,188.684,261.586Z"/>
</g>
<g id="layer_left_leg">
<g id="left_heel">
<path class="path-0" d="M329.010,625.816C318.472,616.704,325.543,593.200,335.536,587.467C350.653,578.565,370.870,600.270,370.833,606.993C370.466,617.155,355.489,622.599,347.539,625.314C343.104,626.662,332.423,628.897,329.010,625.816M361.691,577.865C349.453,571.367,328.984,579.873,320.629,589.058C302.104,608.604,310.992,652.243,343.825,640.018C354.633,636.058,377.908,625.890,381.953,616.501C385.711,609.126,380.878,600.677,376.736,593.939C373.012,588.592,367.498,581.054,361.691,577.865Z"/>
<path class="path-3" d="M335.536,587.467C350.653,578.565,370.870,600.270,370.833,606.993"/>
<path class="path-3" d="M370.833,606.993C370.466,617.155,355.489,622.599,347.539,625.314"/>
<path class="path-3" d="M347.539,625.314C343.104,626.662,332.423,628.897,329.010,625.816"/>
<path class="path-3" d="M329.010,625.816C318.472,616.704,325.543,593.200,335.536,587.467"/>
<path class="path-4" d="M335.536,587.467C350.653,578.565,370.870,600.270,370.833,606.993C370.466,617.155,355.489,622.599,347.539,625.314C343.104,626.662,332.423,628.897,329.010,625.816C318.472,616.704,325.543,593.200,335.536,587.467Z"/>
</g>
<g id="left_leg">
<path class="path-0" d="M242.677,416.667C242.796,411.584,253.004,412.215,256.631,410.835C262.117,409.059,273.827,403.206,279.459,405.213C290.039,408.589,302.396,437.504,306.272,447.721C317.100,478.817,328.502,507.568,338.818,537.644C340.640,543.385,342.610,549.286,344.236,554.962C345.812,559.734,345.260,567.141,349.496,569.070C351.686,570.569,355.524,566.051,356.751,568.215C360.491,575.845,350.912,574.645,348.518,580.061C343.888,589.724,332.301,600.401,322.698,600.836C316.279,601.349,303.837,597.782,299.590,592.789C295.694,588.208,292.089,582.273,289.288,577.061C275.620,551.620,274.013,494.991,255.760,462.280C246.570,445.811,252.746,441.002,257.316,426.897C258.127,424.393,246.620,430.107,244.358,428.671C241.525,427.173,242.437,419.814,242.677,416.667M283.568,394.047C276.069,391.321,260.245,398.597,253.488,401.318C249.657,402.842,236.426,404.074,234.190,406.892C221.237,423.219,240.254,459.654,247.766,475.462C249.660,480.208,256.892,503.484,258.805,510.087C268.135,536.576,269.599,561.362,280.188,587.378C282.887,594.259,284.923,601.259,289.468,606.931C301.998,622.347,318.693,620.235,339.262,612.393C349.976,608.317,372.570,595.217,374.102,571.418C374.685,562.323,366.265,552.732,364.239,550.386C360.706,546.297,356.217,542.628,353.357,537.571C343.514,521.441,343.929,500.935,336.773,483.309C327.618,460.701,307.248,402.712,283.568,394.047Z"/>
<path class="path-7" d="M256.631,410.835C262.117,409.059,273.827,403.206,279.459,405.213"/>
<path class="path-7" d="M279.459,405.213C290.039,408.589,302.396,437.504,306.272,447.721"/>
<path class="path-7" d="M306.272,447.721C317.100,478.817,328.502,507.568,338.818,537.644"/>
<path class="path-7" d="M338.818,537.644C340.640,543.385,342.610,549.286,344.236,554.962"/>
<path class="path-7" d="M344.236,554.962C345.812,559.734,345.260,567.141,349.496,569.070"/>
<path class="path-7" d="M349.496,569.070C351.686,570.569,355.524,566.051,356.751,568.215"/>
<path class="path-7" d="M356.751,568.215C360.491,575.845,350.912,574.645,348.518,580.061"/>
<path class="path-7" d="M348.518,580.061C343.888,589.724,332.301,600.401,322.698,600.836"/>
<path class="path-7" d="M322.698,600.836C316.279,601.349,303.837,597.782,299.590,592.789"/>
<path class="path-7" d="M299.590,592.789C295.694,588.208,292.089,582.273,289.288,577.061"/>
<path class="path-7" d="M289.288,577.061C275.620,551.620,274.013,494.991,255.760,462.280"/>
<path class="path-7" d="M255.760,462.280C246.570,445.811,252.746,441.002,257.316,426.897"/>
<path class="path-7" d="M257.316,426.897C258.127,424.393,246.620,430.107,244.358,428.671"/>
<path class="path-7" d="M244.358,428.671C241.525,427.173,242.437,419.814,242.677,416.667"/>
<path class="path-7" d="M242.677,416.667C242.796,411.584,253.004,412.215,256.631,410.835"/>
<path class="path-8" d="M256.631,410.835C262.117,409.059,273.827,403.206,279.459,405.213C290.039,408.589,302.396,437.504,306.272,447.721C317.100,478.817,328.502,507.568,338.818,537.644C340.640,543.385,342.610,549.286,344.236,554.962C345.812,559.734,345.260,567.141,349.496,569.070C351.686,570.569,355.524,566.051,356.751,568.215C360.491,575.845,350.912,574.645,348.518,580.061C343.888,589.724,332.301,600.401,322.698,600.836C316.279,601.349,303.837,597.782,299.590,592.789C295.694,588.208,292.089,582.273,289.288,577.061C275.620,551.620,274.013,494.991,255.760,462.280C246.570,445.811,252.746,441.002,257.316,426.897C258.127,424.393,246.620,430.107,244.358,428.671C241.525,427.173,242.437,419.814,242.677,416.667C242.796,411.584,253.004,412.215,256.631,410.835Z"/>
</g>
<g id="left_toe">
<path class="path-0" d="M337.307,658.431C310.247,662.138,303.839,626.364,321.226,613.185C338.467,600.305,359.911,606.553,369.654,617.398C375.070,622.693,378.943,628.973,377.908,636.621C374.815,650.704,349.782,656.631,337.307,658.431M382.328,606.582C374.840,594.608,360.016,585.877,348.407,585.674C319.003,585.293,299.406,600.873,299.058,628.077C298.349,643.752,306.375,658.546,319.232,667.423C329.355,673.963,354.738,667.125,365.029,662.646C373.813,658.049,384.559,651.594,388.152,641.286C390.877,633.820,386.465,613.315,382.328,606.582Z"/>
<path class="path-3" d="M321.226,613.185C338.467,600.305,359.911,606.553,369.654,617.398"/>
<path class="path-3" d="M369.654,617.398C375.070,622.693,378.943,628.973,377.908,636.621"/>
<path class="path-3" d="M377.908,636.621C374.815,650.704,349.782,656.631,337.307,658.431"/>
<path class="path-3" d="M337.307,658.431C310.247,662.138,303.839,626.364,321.226,613.185"/>
<path class="path-4" d="M321.226,613.185C338.467,600.305,359.911,606.553,369.654,617.398C375.070,622.693,378.943,628.973,377.908,636.621C374.815,650.704,349.782,656.631,337.307,658.431C310.247,662.138,303.839,626.364,321.226,613.185Z"/>
</g>
<g id="left_sole">
<path class="path-0" d="M345.353,672.048C334.946,675.318,327.454,662.230,327.396,668.076C327.359,671.751,337.479,671.724,341.748,671.571C351.311,671.600,364.967,665.673,371.836,658.654C374.228,656.584,382.058,650.689,382.209,650.902C384.615,654.318,373.251,659.312,369.684,660.975C366.889,662.654,346.115,671.612,345.353,672.048M327.648,667.757C332.003,664.365,343.448,665.584,347.619,665.643C364.182,665.877,371.448,654.273,378.696,650.201C379.330,649.855,380.121,647.511,382.071,648.624C388.471,652.276,359.040,670.190,344.900,670.093C337.398,670.821,325.866,669.146,327.648,667.757M383.885,640.047C380.109,638.692,366.760,652.250,351.298,657.738C343.319,660.601,319.194,654.323,316.846,665.568C316.344,668.003,319.602,675.202,321.785,676.263C336.337,683.650,384.245,663.497,388.626,656.757C390.047,654.571,389.657,642.117,383.885,640.047Z"/>
<path class="path-5" d="M327.396,668.076C327.359,671.751,337.479,671.724,341.748,671.571"/>
<path class="path-5" d="M341.748,671.571C351.311,671.600,364.967,665.673,371.836,658.654"/>
<path class="path-5" d="M371.836,658.654C374.228,656.584,382.058,650.689,382.209,650.902"/>
<path class="path-5" d="M382.209,650.902C384.615,654.318,373.251,659.312,369.684,660.975"/>
<path class="path-5" d="M369.684,660.975C366.889,662.654,346.115,671.612,345.353,672.048"/>
<path class="path-5" d="M345.353,672.048C334.946,675.318,327.454,662.230,327.396,668.076"/>
<path class="path-6" d="M327.396,668.076C327.359,671.751,337.479,671.724,341.748,671.571C351.311,671.600,364.967,665.673,371.836,658.654C374.228,656.584,382.058,650.689,382.209,650.902C384.615,654.318,373.251,659.312,369.684,660.975C366.889,662.654,346.115,671.612,345.353,672.048C334.946,675.318,327.454,662.230,327.396,668.076Z"/>
<path class="path-5" d="M347.619,665.643C364.182,665.877,371.448,654.273,378.696,650.201"/>
<path class="path-5" d="M378.696,650.201C379.330,649.855,380.121,647.511,382.071,648.624"/>
<path class="path-5" d="M382.071,648.624C388.471,652.276,359.040,670.190,344.900,670.093"/>
<path class="path-5" d="M344.900,670.093C337.398,670.821,325.866,669.146,327.648,667.757"/>
<path class="path-5" d="M327.648,667.757C332.003,664.365,343.448,665.584,347.619,665.643"/>
<path class="path-6" d="M347.619,665.643C364.182,665.877,371.448,654.273,378.696,650.201C379.330,649.855,380.121,647.511,382.071,648.624C388.471,652.276,359.040,670.190,344.900,670.093C337.398,670.821,325.866,669.146,327.648,667.757C332.003,664.365,343.448,665.584,347.619,665.643Z"/>
</g>
</g>
<g id="layer_right_leg">
<g id="right_heel">
<path class="path-0" d="M194.531,621.646C194.356,605.516,194.690,592.957,214.479,588.929C223.284,586.975,240.407,588.741,245.842,596.902C248.687,600.951,248.284,607.164,248.818,611.639C249.753,618.927,255.214,632.768,244.832,635.113C244.169,635.330,225.604,636.771,219.813,637.271C212.464,638.587,204.790,639.606,199.107,634.888C196.143,631.885,194.495,625.442,194.531,621.646M255.246,594.651C250.675,584.670,236.030,579.725,226.060,581.764C213.043,584.263,199.334,580.817,191.564,593.399C185.507,603.206,185.864,620.542,188.568,631.394C189.646,636.412,193.486,645.453,197.948,648.000C201.212,649.773,206.026,648.919,209.736,648.701C227.827,647.919,260.472,651.993,258.394,625.523C257.782,618.680,257.651,599.950,255.246,594.651Z"/>
<path class="path-3" d="M214.479,588.929C223.284,586.975,240.407,588.741,245.842,596.902"/>
<path class="path-3" d="M245.842,596.902C248.687,600.951,248.284,607.164,248.818,611.639"/>
<path class="path-3" d="M248.818,611.639C249.753,618.927,255.214,632.768,244.832,635.113"/>
<path class="path-3" d="M244.832,635.113C244.169,635.330,225.604,636.771,219.813,637.271"/>
<path class="path-3" d="M219.813,637.271C212.464,638.587,204.790,639.606,199.107,634.888"/>
<path class="path-3" d="M199.107,634.888C196.143,631.885,194.495,625.442,194.531,621.646"/>
<path class="path-3" d="M194.531,621.646C194.356,605.516,194.690,592.957,214.479,588.929"/>
<path class="path-4" d="M214.479,588.929C223.284,586.975,240.407,588.741,245.842,596.902C248.687,600.951,248.284,607.164,248.818,611.639C249.753,618.927,255.214,632.768,244.832,635.113C244.169,635.330,225.604,636.771,219.813,637.271C212.464,638.587,204.790,639.606,199.107,634.888C196.143,631.885,194.495,625.442,194.531,621.646C194.356,605.516,194.690,592.957,214.479,588.929Z"/>
</g>
<g id="right_leg">
<path class="path-0" d="M180.478,410.220C183.391,398.343,198.884,394.627,209.578,396.871C215.495,397.989,225.415,400.211,228.943,405.422C230.453,407.652,231.264,411.918,229.993,414.281C227.761,418.431,212.398,416.544,215.320,420.369C220.429,427.272,230.030,417.453,234.525,421.007C236.525,422.588,236.919,426.033,237.482,428.892C242.850,450.228,237.311,473.623,238.474,494.906C238.780,501.788,237.750,512.020,239.337,518.215C242.708,533.519,240.995,536.872,241.914,546.120C242.037,549.580,241.276,567.194,242.702,571.626C244.300,576.277,248.004,580.624,248.740,585.502C249.982,593.729,238.212,605.211,230.755,607.819C222.225,610.616,195.492,610.260,187.154,606.328C183.935,604.922,179.898,601.320,178.459,597.891C176.912,594.703,174.477,579.494,175.332,575.759C177.084,569.260,179.532,567.831,181.224,560.136C182.892,551.077,184.493,541.283,183.520,531.904C181.245,513.574,180.498,484.098,181.927,470.809C182.543,463.323,179.411,438.404,180.065,431.469C181.252,420.005,179.126,417.918,180.478,410.220M204.122,385.622C198.353,384.003,193.684,379.006,187.849,381.357C186.076,382.247,183.034,384.672,181.823,386.043C166.750,400.498,168.839,413.985,170.034,433.188C170.170,440.082,170.682,447.232,170.419,453.853C170.089,459.361,168.515,463.943,167.473,469.029C166.902,473.204,166.476,477.665,166.548,482.875C166.748,487.996,168.455,493.931,169.062,502.616C169.030,512.345,170.263,521.464,170.344,530.764C170.616,537.098,168.339,551.915,167.727,556.777C165.859,563.708,163.107,571.761,161.876,578.428C160.777,587.235,162.700,596.403,166.602,603.905C168.434,607.937,171.620,612.688,174.949,615.245C177.120,616.913,179.951,617.791,182.476,618.493C190.810,620.762,198.647,621.618,207.366,621.372C213.240,621.250,218.923,619.275,225.031,619.447C226.044,619.323,234.386,620.721,236.032,620.759C238.989,620.659,242.993,617.846,245.589,616.137C249.026,613.599,255.311,612.547,257.967,609.078C260.115,606.269,260.534,602.507,261.515,599.124C266.989,579.178,260.684,568.723,257.100,551.006C255.107,541.154,251.485,520.858,250.955,509.751C250.032,496.310,251.898,483.157,251.845,469.271C251.918,464.894,251.986,459.645,252.446,454.676C252.818,449.699,251.512,445.760,251.000,440.870C250.376,437.104,249.899,424.946,249.056,420.914C248.451,417.308,248.200,412.779,246.640,409.271C242.400,400.356,227.805,391.080,218.318,388.701C213.566,387.347,208.565,387.321,204.122,385.622Z"/>
<path class="path-7" d="M209.578,396.871C215.495,397.989,225.415,400.211,228.943,405.422"/>
<path class="path-7" d="M228.943,405.422C230.453,407.652,231.264,411.918,229.993,414.281"/>
<path class="path-7" d="M229.993,414.281C227.761,418.431,212.398,416.544,215.320,420.369"/>
<path class="path-7" d="M215.320,420.369C220.429,427.272,230.030,417.453,234.525,421.007"/>
<path class="path-7" d="M234.525,421.007C236.525,422.588,236.919,426.033,237.482,428.892"/>
<path class="path-7" d="M237.482,428.892C242.850,450.228,237.311,473.623,238.474,494.906"/>
<path class="path-7" d="M238.474,494.906C238.780,501.788,237.750,512.020,239.337,518.215"/>
<path class="path-7" d="M239.337,518.215C242.708,533.519,240.995,536.872,241.914,546.120"/>
<path class="path-7" d="M241.914,546.120C242.037,549.580,241.276,567.194,242.702,571.626"/>
<path class="path-7" d="M242.702,571.626C244.300,576.277,248.004,580.624,248.740,585.502"/>
<path class="path-7" d="M248.740,585.502C249.982,593.729,238.212,605.211,230.755,607.819"/>
<path class="path-7" d="M230.755,607.819C222.225,610.616,195.492,610.260,187.154,606.328"/>
<path class="path-7" d="M187.154,606.328C183.935,604.922,179.898,601.320,178.459,597.891"/>
<path class="path-7" d="M178.459,597.891C176.912,594.703,174.477,579.494,175.332,575.759"/>
<path class="path-7" d="M175.332,575.759C177.084,569.260,179.532,567.831,181.224,560.136"/>
<path class="path-7" d="M181.224,560.136C182.892,551.077,184.493,541.283,183.520,531.904"/>
<path class="path-7" d="M183.520,531.904C181.245,513.574,180.498,484.098,181.927,470.809"/>
<path class="path-7" d="M181.927,470.809C182.543,463.323,179.411,438.404,180.065,431.469"/>
<path class="path-7" d="M180.065,431.469C181.252,420.005,179.126,417.918,180.478,410.220"/>
<path class="path-7" d="M180.478,410.220C183.391,398.343,198.884,394.627,209.578,396.871"/>
<path class="path-8" d="M209.578,396.871C215.495,397.989,225.415,400.211,228.943,405.422C230.453,407.652,231.264,411.918,229.993,414.281C227.761,418.431,212.398,416.544,215.320,420.369C220.429,427.272,230.030,417.453,234.525,421.007C236.525,422.588,236.919,426.033,237.482,428.892C242.850,450.228,237.311,473.623,238.474,494.906C238.780,501.788,237.750,512.020,239.337,518.215C242.708,533.519,240.995,536.872,241.914,546.120C242.037,549.580,241.276,567.194,242.702,571.626C244.300,576.277,248.004,580.624,248.740,585.502C249.982,593.729,238.212,605.211,230.755,607.819C222.225,610.616,195.492,610.260,187.154,606.328C183.935,604.922,179.898,601.320,178.459,597.891C176.912,594.703,174.477,579.494,175.332,575.759C177.084,569.260,179.532,567.831,181.224,560.136C182.892,551.077,184.493,541.283,183.520,531.904C181.245,513.574,180.498,484.098,181.927,470.809C182.543,463.323,179.411,438.404,180.065,431.469C181.252,420.005,179.126,417.918,180.478,410.220C183.391,398.343,198.884,394.627,209.578,396.871Z"/>
</g>
<g id="right_toe">
<path class="path-0" d="M178.851,644.911C179.394,631.687,183.616,614.446,199.757,611.199C203.463,610.255,208.857,611.691,213.074,612.281C234.635,615.243,243.212,619.457,245.253,640.934C245.693,646.840,247.061,654.121,242.865,659.127C238.689,664.020,217.443,662.681,211.022,663.339C199.692,664.744,190.233,670.670,181.742,661.389C176.652,655.708,178.571,651.975,178.851,644.911M252.374,617.880C244.458,604.490,211.262,598.190,196.714,601.721C175.010,607.115,168.998,624.494,168.728,642.903C168.581,649.473,168.170,656.705,171.839,662.303C173.152,664.306,175.833,666.934,177.678,668.492C191.627,681.293,201.130,679.029,218.868,677.856C228.256,677.389,243.815,675.675,250.968,669.066C256.311,663.647,256.523,658.063,256.334,650.948C255.903,644.109,255.536,622.776,252.374,617.880Z"/>
<path class="path-3" d="M199.757,611.199C203.463,610.255,208.857,611.691,213.074,612.281"/>
<path class="path-3" d="M213.074,612.281C234.635,615.243,243.212,619.457,245.253,640.934"/>
<path class="path-3" d="M245.253,640.934C245.693,646.840,247.061,654.121,242.865,659.127"/>
<path class="path-3" d="M242.865,659.127C238.689,664.020,217.443,662.681,211.022,663.339"/>
<path class="path-3" d="M211.022,663.339C199.692,664.744,190.233,670.670,181.742,661.389"/>
<path class="path-3" d="M181.742,661.389C176.652,655.708,178.571,651.975,178.851,644.911"/>
<path class="path-3" d="M178.851,644.911C179.394,631.687,183.616,614.446,199.757,611.199"/>
<path class="path-4" d="M199.757,611.199C203.463,610.255,208.857,611.691,213.074,612.281C234.635,615.243,243.212,619.457,245.253,640.934C245.693,646.840,247.061,654.121,242.865,659.127C238.689,664.020,217.443,662.681,211.022,663.339C199.692,664.744,190.233,670.670,181.742,661.389C176.652,655.708,178.571,651.975,178.851,644.911C179.394,631.687,183.616,614.446,199.757,611.199Z"/>
</g>
<g id="right_sole">
<path class="path-0" d="M199.392,675.809C200.942,676.062,216.324,674.903,218.072,674.795C219.471,674.730,227.909,674.309,229.098,674.160C229.841,674.084,237.279,673.306,237.878,673.721C237.318,673.307,229.417,675.222,228.948,675.265C228.020,675.382,201.764,676.800,201.462,676.926C200.274,677.027,188.981,676.804,188.200,675.865C189.428,675.362,197.586,675.512,199.392,675.809M238.655,667.697C238.725,667.967,237.222,669.739,236.801,669.767C235.963,669.827,222.780,672.069,221.658,671.903C220.403,671.936,211.657,673.124,210.527,673.180C208.281,673.293,190.252,673.662,188.259,672.663C188.033,672.496,187.247,671.429,187.273,671.275C187.320,670.995,194.407,670.888,195.497,670.788C197.208,670.631,211.104,669.249,212.860,669.111C214.762,668.962,229.786,668.256,231.726,667.979C232.030,667.943,238.479,667.031,238.655,667.697M244.055,662.291C232.572,659.832,223.977,664.792,213.728,665.733C206.307,666.448,191.936,665.742,182.982,668.008C181.549,668.371,178.761,668.327,178.408,669.825C177.969,671.712,181.849,675.494,184.250,676.850C187.227,678.531,193.187,678.214,195.573,678.428C207.696,679.949,222.873,677.910,235.151,676.659C244.209,675.742,246.252,672.046,246.909,667.707C247.182,665.899,247.646,663.012,244.055,662.291Z"/>
<path class="path-5" d="M199.392,675.809C200.942,676.062,216.324,674.903,218.072,674.795"/>
<path class="path-5" d="M218.072,674.795C219.471,674.730,227.909,674.309,229.098,674.160"/>
<path class="path-5" d="M229.098,674.160C229.841,674.084,237.279,673.306,237.878,673.721"/>
<path class="path-5" d="M237.878,673.721C237.318,673.307,229.417,675.222,228.948,675.265"/>
<path class="path-5" d="M228.948,675.265C228.020,675.382,201.764,676.800,201.462,676.926"/>
<path class="path-5" d="M201.462,676.926C200.274,677.027,188.981,676.804,188.200,675.865"/>
<path class="path-5" d="M188.200,675.865C189.428,675.362,197.586,675.512,199.392,675.809"/>
<path class="path-6" d="M199.392,675.809C200.942,676.062,216.324,674.903,218.072,674.795C219.471,674.730,227.909,674.309,229.098,674.160C229.841,674.084,237.279,673.306,237.878,673.721C237.318,673.307,229.417,675.222,228.948,675.265C228.020,675.382,201.764,676.800,201.462,676.926C200.274,677.027,188.981,676.804,188.200,675.865C189.428,675.362,197.586,675.512,199.392,675.809Z"/>
<path class="path-5" d="M195.497,670.788C197.208,670.631,211.104,669.249,212.860,669.111"/>
<path class="path-5" d="M212.860,669.111C214.762,668.962,229.786,668.256,231.726,667.979"/>
<path class="path-5" d="M231.726,667.979C232.030,667.943,238.479,667.031,238.655,667.697"/>
<path class="path-5" d="M238.655,667.697C238.725,667.967,237.222,669.739,236.801,669.767"/>
<path class="path-5" d="M236.801,669.767C235.963,669.827,222.780,672.069,221.658,671.903"/>
<path class="path-5" d="M221.658,671.903C220.403,671.936,211.657,673.124,210.527,673.180"/>
<path class="path-5" d="M210.527,673.180C208.281,673.293,190.252,673.662,188.259,672.663"/>
<path class="path-5" d="M188.259,672.663C188.033,672.496,187.247,671.429,187.273,671.275"/>
<path class="path-5" d="M187.273,671.275C187.320,670.995,194.407,670.888,195.497,670.788"/>
<path class="path-6" d="M195.497,670.788C197.208,670.631,211.104,669.249,212.860,669.111C214.762,668.962,229.786,668.256,231.726,667.979C232.030,667.943,238.479,667.031,238.655,667.697C238.725,667.967,237.222,669.739,236.801,669.767C235.963,669.827,222.780,672.069,221.658,671.903C220.403,671.936,211.657,673.124,210.527,673.180C208.281,673.293,190.252,673.662,188.259,672.663C188.033,672.496,187.247,671.429,187.273,671.275C187.320,670.995,194.407,670.888,195.497,670.788Z"/>
</g>
</g>
<g id="hat_brim">
<path class="path-0" d="M303.508,154.732C307.811,149.188,318.555,133.988,326.490,134.877C331.780,135.470,341.616,146.282,346.902,149.888C351.528,153.420,356.522,156.657,361.846,159.932C364.852,161.949,367.863,163.960,370.878,165.966C384.280,174.834,379.607,180.672,371.489,178.422C353.346,173.039,350.222,174.029,333.406,162.770C331.202,161.518,325.622,157.546,324.148,161.732C322.271,166.543,330.716,171.843,334.167,173.903C340.371,178.282,347.201,183.065,355.061,184.615C357.339,185.206,365.349,185.432,366.410,187.896C368.024,191.425,357.472,198.946,355.266,200.707C351.626,203.312,347.987,205.917,344.421,207.862C339.091,210.611,333.467,212.993,327.736,213.355C317.008,213.492,285.650,194.577,285.955,182.894C286.036,176.208,298.836,160.569,303.508,154.732M338.874,131.914C334.396,127.060,331.464,120.369,323.819,122.861C318.269,124.583,311.797,131.557,307.716,135.117C292.306,150.128,277.887,168.265,276.139,189.829C274.951,203.421,279.615,203.610,289.933,210.122C305.537,220.241,326.401,225.258,345.182,218.995C357.346,215.001,379.516,199.409,386.141,188.099C388.238,184.317,392.214,175.724,390.418,170.836C388.404,164.918,367.326,152.847,361.122,148.469C353.669,143.281,345.187,138.313,338.874,131.914Z"/>
<path class="path-9" d="M326.490,134.877C331.780,135.470,341.616,146.282,346.902,149.888"/>
<path class="path-9" d="M346.902,149.888C351.528,153.420,356.522,156.657,361.846,159.932"/>
<path class="path-9" d="M361.846,159.932C364.852,161.949,367.863,163.960,370.878,165.966"/>
<path class="path-9" d="M370.878,165.966C384.280,174.834,379.607,180.672,371.489,178.422"/>
<path class="path-9" d="M371.489,178.422C353.346,173.039,350.222,174.029,333.406,162.770"/>
<path class="path-9" d="M333.406,162.770C331.202,161.518,325.622,157.546,324.148,161.732"/>
<path class="path-9" d="M324.148,161.732C322.271,166.543,330.716,171.843,334.167,173.903"/>
<path class="path-9" d="M334.167,173.903C340.371,178.282,347.201,183.065,355.061,184.615"/>
<path class="path-9" d="M355.061,184.615C357.339,185.206,365.349,185.432,366.410,187.896"/>
<path class="path-9" d="M366.410,187.896C368.024,191.425,357.472,198.946,355.266,200.707"/>
<path class="path-9" d="M355.266,200.707C351.626,203.312,347.987,205.917,344.421,207.862"/>
<path class="path-9" d="M344.421,207.862C339.091,210.611,333.467,212.993,327.736,213.355"/>
<path class="path-9" d="M327.736,213.355C317.008,213.492,285.650,194.577,285.955,182.894"/>
<path class="path-9" d="M285.955,182.894C286.036,176.208,298.836,160.569,303.508,154.732"/>
<path class="path-9" d="M303.508,154.732C307.811,149.188,318.555,133.988,326.490,134.877"/>
<path class="path-10" d="M326.490,134.877C331.780,135.470,341.616,146.282,346.902,149.888C351.528,153.420,356.522,156.657,361.846,159.932C364.852,161.949,367.863,163.960,370.878,165.966C384.280,174.834,379.607,180.672,371.489,178.422C353.346,173.039,350.222,174.029,333.406,162.770C331.202,161.518,325.622,157.546,324.148,161.732C322.271,166.543,330.716,171.843,334.167,173.903C340.371,178.282,347.201,183.065,355.061,184.615C357.339,185.206,365.349,185.432,366.410,187.896C368.024,191.425,357.472,198.946,355.266,200.707C351.626,203.312,347.987,205.917,344.421,207.862C339.091,210.611,333.467,212.993,327.736,213.355C317.008,213.492,285.650,194.577,285.955,182.894C286.036,176.208,298.836,160.569,303.508,154.732C307.811,149.188,318.555,133.988,326.490,134.877Z"/>
</g>
<g id="hair">
<path class="path-0" d="M200.200,145.319C216.406,131.728,236.135,128.605,257.023,125.613C266.386,124.254,273.491,129.986,281.327,135.518C287.796,140.408,294.780,145.949,301.644,151.074C311.970,158.727,316.370,162.649,320.317,166.422C323.655,169.285,328.943,174.726,332.991,177.158C337.875,180.091,348.730,196.190,350.954,197.908C344.581,200.810,334.380,203.514,330.010,207.825C332.248,213.453,333.510,222.399,333.796,225.094C327.664,226.153,320.200,224.093,308.590,223.185C307.002,230.570,307.701,237.263,303.766,244.995C295.862,243.445,290.331,242.110,279.961,238.705C273.952,244.548,272.378,244.299,262.404,251.876C254.904,248.284,248.808,244.258,241.638,242.132C235.194,245.698,224.616,247.804,221.292,251.087C216.789,244.473,212.515,237.099,208.934,234.075C199.590,237.008,195.766,240.039,189.276,243.179C184.518,238.123,187.052,233.294,181.572,225.708C177.146,224.985,170.226,223.062,164.683,223.518C168.049,218.662,169.371,203.705,175.647,201.187C183.391,198.081,177.421,189.507,181.494,180.852C182.492,178.606,192.549,161.168,193.328,158.405C194.852,153.624,196.535,148.544,200.200,145.319M284.634,122.492C271.505,114.356,246.419,111.763,232.939,116.387C220.552,120.480,208.536,125.731,198.253,133.986C192.489,138.550,186.260,145.046,182.781,151.534C175.796,164.159,166.597,191.163,161.153,203.788C156.834,214.240,152.539,221.436,147.963,227.332C166.134,231.966,171.517,234.097,176.818,234.373C177.917,242.057,185.610,247.072,185.230,255.711C193.865,253.534,198.861,250.793,206.459,248.069C210.882,252.304,214.246,258.325,218.645,264.116C226.114,261.263,233.995,260.769,241.054,254.581C246.854,257.030,256.057,260.816,265.526,264.849C273.346,259.627,275.090,259.199,282.339,253.398C292.003,254.782,302.493,259.636,311.894,257.678C310.411,249.599,315.880,243.403,314.656,238.248C321.631,235.616,343.902,236.613,347.619,235.919C346.793,229.925,342.333,218.737,343.179,211.412C349.774,208.936,355.338,206.725,365.416,200.594C361.295,194.277,354.268,186.625,348.338,182.237C343.336,178.574,339.054,173.487,334.032,169.651C317.024,156.879,308.930,137.626,284.634,122.492Z"/>
<path class="path-11" d="M257.023,125.613C266.386,124.254,273.491,129.986,281.327,135.518"/>
<path class="path-11" d="M281.327,135.518C287.796,140.408,294.780,145.949,301.644,151.074"/>
<path class="path-11" d="M301.644,151.074C311.970,158.727,316.370,162.649,320.317,166.422"/>
<path class="path-11" d="M320.317,166.422C323.655,169.285,328.943,174.726,332.991,177.158"/>
<path class="path-11" d="M332.991,177.158C337.875,180.091,348.730,196.190,350.954,197.908"/>
<path class="path-11" d="M350.954,197.908C344.581,200.810,334.380,203.514,330.010,207.825"/>
<path class="path-11" d="M330.010,207.825C332.248,213.453,333.510,222.399,333.796,225.094"/>
<path class="path-11" d="M333.796,225.094C327.664,226.153,320.200,224.093,308.590,223.185"/>
<path class="path-11" d="M308.590,223.185C307.002,230.570,307.701,237.263,303.766,244.995"/>
<path class="path-11" d="M303.766,244.995C295.862,243.445,290.331,242.110,279.961,238.705"/>
<path class="path-11" d="M279.961,238.705C273.952,244.548,272.378,244.299,262.404,251.876"/>
<path class="path-11" d="M262.404,251.876C254.904,248.284,248.808,244.258,241.638,242.132"/>
<path class="path-11" d="M241.638,242.132C235.194,245.698,224.616,247.804,221.292,251.087"/>
<path class="path-11" d="M221.292,251.087C216.789,244.473,212.515,237.099,208.934,234.075"/>
<path class="path-11" d="M208.934,234.075C199.590,237.008,195.766,240.039,189.276,243.179"/>
<path class="path-11" d="M189.276,243.179C184.518,238.123,187.052,233.294,181.572,225.708"/>
<path class="path-11" d="M181.572,225.708C177.146,224.985,170.226,223.062,164.683,223.518"/>
<path class="path-11" d="M164.683,223.518C168.049,218.662,169.371,203.705,175.647,201.187"/>
<path class="path-11" d="M175.647,201.187C183.391,198.081,177.421,189.507,181.494,180.852"/>
<path class="path-11" d="M181.494,180.852C182.492,178.606,192.549,161.168,193.328,158.405"/>
<path class="path-11" d="M193.328,158.405C194.852,153.624,196.535,148.544,200.200,145.319"/>
<path class="path-11" d="M200.200,145.319C216.406,131.728,236.135,128.605,257.023,125.613"/>
<path class="path-12" d="M257.023,125.613C266.386,124.254,273.491,129.986,281.327,135.518C287.796,140.408,294.780,145.949,301.644,151.074C311.970,158.727,316.370,162.649,320.317,166.422C323.655,169.285,328.943,174.726,332.991,177.158C337.875,180.091,348.730,196.190,350.954,197.908C344.581,200.810,334.380,203.514,330.010,207.825C332.248,213.453,333.510,222.399,333.796,225.094C327.664,226.153,320.200,224.093,308.590,223.185C307.002,230.570,307.701,237.263,303.766,244.995C295.862,243.445,290.331,242.110,279.961,238.705C273.952,244.548,272.378,244.299,262.404,251.876C254.904,248.284,248.808,244.258,241.638,242.132C235.194,245.698,224.616,247.804,221.292,251.087C216.789,244.473,212.515,237.099,208.934,234.075C199.590,237.008,195.766,240.039,189.276,243.179C184.518,238.123,187.052,233.294,181.572,225.708C177.146,224.985,170.226,223.062,164.683,223.518C168.049,218.662,169.371,203.705,175.647,201.187C183.391,198.081,177.421,189.507,181.494,180.852C182.492,178.606,192.549,161.168,193.328,158.405C194.852,153.624,196.535,148.544,200.200,145.319C216.406,131.728,236.135,128.605,257.023,125.613Z"/>
</g>
<g id="clothes">
<path class="path-0" d="M245.158,370.556C239.957,368.487,220.155,368.994,216.644,373.621C214.417,376.747,217.670,378.538,221.000,378.809C224.978,379.132,245.953,379.180,248.740,377.555C253.165,374.904,247.321,371.309,245.158,370.556M200.373,266.753C204.265,254.436,232.028,243.682,244.815,245.660C253.783,247.020,281.101,263.245,284.453,271.910C287.262,278.841,286.327,303.598,285.961,311.960C285.014,327.238,284.556,342.591,284.245,357.895C284.575,369.892,293.375,383.369,287.360,393.756C284.922,396.920,275.263,396.924,270.932,397.672C265.129,398.961,254.028,403.550,248.560,403.306C225.684,402.905,227.849,404.653,206.421,403.527C202.314,403.154,189.038,401.344,186.534,399.314C180.883,393.538,184.540,384.993,186.498,377.461C190.572,364.052,192.407,354.658,194.726,339.976C197.126,324.109,200.372,307.164,201.661,290.627C201.792,284.688,199.450,270.319,200.373,266.753M280.187,254.402C264.591,243.489,249.173,234.300,229.083,238.505C223.694,239.432,196.265,250.340,193.722,253.489C189.765,258.476,192.162,278.686,191.634,285.881C191.336,294.469,190.887,303.384,189.533,311.557C188.672,317.817,186.845,323.324,186.326,329.279C185.417,335.867,184.907,343.032,183.264,349.016C178.582,365.617,164.714,398.324,184.127,410.925C188.695,413.913,195.510,413.954,201.257,414.407C211.175,414.998,221.817,415.914,231.860,414.972C244.241,414.157,256.212,409.982,268.765,409.608C275.227,409.417,295.114,416.967,300.061,412.259C302.492,410.049,303.472,395.542,303.139,391.844C301.304,378.593,295.235,366.045,294.060,352.719C293.339,340.758,293.848,328.991,295.539,316.778C296.711,306.800,299.167,297.259,299.948,286.912C299.940,282.520,300.965,277.199,298.936,272.658C295.519,264.341,287.206,259.304,280.187,254.402Z"/>
<path class="path-13" d="M245.158,370.556C239.957,368.487,220.155,368.994,216.644,373.621"/>
<path class="path-13" d="M216.644,373.621C214.417,376.747,217.670,378.538,221.000,378.809"/>
<path class="path-13" d="M221.000,378.809C224.978,379.132,245.953,379.180,248.740,377.555"/>
<path class="path-13" d="M248.740,377.555C253.165,374.904,247.321,371.309,245.158,370.556"/>
<path class="path-13" d="M200.373,266.753C204.265,254.436,232.028,243.682,244.815,245.660"/>
<path class="path-13" d="M244.815,245.660C253.783,247.020,281.101,263.245,284.453,271.910"/>
<path class="path-13" d="M284.453,271.910C287.262,278.841,286.327,303.598,285.961,311.960"/>
<path class="path-13" d="M285.961,311.960C285.014,327.238,284.556,342.591,284.245,357.895"/>
<path class="path-13" d="M284.245,357.895C284.575,369.892,293.375,383.369,287.360,393.756"/>
<path class="path-13" d="M287.360,393.756C284.922,396.920,275.263,396.924,270.932,397.672"/>
<path class="path-13" d="M270.932,397.672C265.129,398.961,254.028,403.550,248.560,403.306"/>
<path class="path-13" d="M248.560,403.306C225.684,402.905,227.849,404.653,206.421,403.527"/>
<path class="path-13" d="M206.421,403.527C202.314,403.154,189.038,401.344,186.534,399.314"/>
<path class="path-13" d="M186.534,399.314C180.883,393.538,184.540,384.993,186.498,377.461"/>
<path class="path-13" d="M186.498,377.461C190.572,364.052,192.407,354.658,194.726,339.976"/>
<path class="path-13" d="M194.726,339.976C197.126,324.109,200.372,307.164,201.661,290.627"/>
<path class="path-13" d="M201.661,290.627C201.792,284.688,199.450,270.319,200.373,266.753"/>
<path class="path-14" d="M245.158,370.556C239.957,368.487,220.155,368.994,216.644,373.621C214.417,376.747,217.670,378.538,221.000,378.809C224.978,379.132,245.953,379.180,248.740,377.555C253.165,374.904,247.321,371.309,245.158,370.556M200.373,266.753C204.265,254.436,232.028,243.682,244.815,245.660C253.783,247.020,281.101,263.245,284.453,271.910C287.262,278.841,286.327,303.598,285.961,311.960C285.014,327.238,284.556,342.591,284.245,357.895C284.575,369.892,293.375,383.369,287.360,393.756C284.922,396.920,275.263,396.924,270.932,397.672C265.129,398.961,254.028,403.550,248.560,403.306C225.684,402.905,227.849,404.653,206.421,403.527C202.314,403.154,189.038,401.344,186.534,399.314C180.883,393.538,184.540,384.993,186.498,377.461C190.572,364.052,192.407,354.658,194.726,339.976C197.126,324.109,200.372,307.164,201.661,290.627C201.792,284.688,199.450,270.319,200.373,266.753Z"/>
</g>
<g id="neck">
<path class="path-0" d="M240.838,226.234C241.554,222.967,242.892,220.108,246.565,220.201C258.362,219.567,253.018,256.794,242.443,255.561C232.530,254.406,239.445,232.434,240.838,226.234M247.644,210.950C245.039,210.310,241.988,210.624,239.520,211.677C229.728,215.224,230.048,223.971,229.046,232.562C228.214,236.820,228.084,240.824,225.677,244.228C223.640,247.341,218.627,250.104,218.203,253.741C217.379,263.693,244.146,266.813,251.125,267.291C253.768,267.599,262.574,269.630,263.989,266.112C264.105,265.120,258.845,252.783,258.393,248.041C257.036,233.815,268.678,214.406,247.644,210.950Z"/>
<path class="path-15" d="M246.565,220.201C258.362,219.567,253.018,256.794,242.443,255.561"/>
<path class="path-15" d="M242.443,255.561C232.530,254.406,239.445,232.434,240.838,226.234"/>
<path class="path-15" d="M240.838,226.234C241.554,222.967,242.892,220.108,246.565,220.201"/>
<path class="path-16" d="M246.565,220.201C258.362,219.567,253.018,256.794,242.443,255.561C232.530,254.406,239.445,232.434,240.838,226.234C241.554,222.967,242.892,220.108,246.565,220.201Z"/>
</g>
<g id="layer_head">
<g id="right_ear">
<path class="path-0" d="M171.325,184.348C167.190,183.996,158.462,157.103,163.153,158.633C168.918,160.513,170.477,171.501,171.595,175.984C172.192,178.001,174.981,184.659,171.325,184.348M166.363,144.596C164.836,143.285,163.014,141.723,161.099,142.345C151.710,143.812,153.843,158.252,155.678,167.626C157.968,178.686,164.056,192.964,172.925,198.580C174.260,199.436,176.543,202.107,178.211,201.950C184.229,201.007,179.874,190.797,178.792,186.141C177.221,178.655,171.039,150.247,166.363,144.596Z"/>
<path class="path-15" d="M163.153,158.633C168.918,160.513,170.477,171.501,171.595,175.984"/>
<path class="path-15" d="M171.595,175.984C172.192,178.001,174.981,184.659,171.325,184.348"/>
<path class="path-15" d="M171.325,184.348C167.190,183.996,158.462,157.103,163.153,158.633"/>
<path class="path-16" d="M163.153,158.633C168.918,160.513,170.477,171.501,171.595,175.984C172.192,178.001,174.981,184.659,171.325,184.348C167.190,183.996,158.462,157.103,163.153,158.633Z"/>
</g>
<g id="face_Mask">
<g id="face">
<path class="path-0" d="M174.044,101.371C183.641,91.933,217.006,88.443,230.784,87.979C246.215,87.700,261.495,91.757,275.854,98.052C280.959,100.300,288.677,102.819,292.561,107.291C298.591,114.286,299.915,125.822,300.039,134.695C300.251,140.040,300.038,146.914,298.432,151.707C288.009,182.805,279.658,197.534,271.941,205.601C258.722,219.419,237.438,223.145,218.497,223.995C199.982,224.561,191.731,220.682,175.495,211.632C172.641,210.047,166.364,206.678,164.617,204.088C158.301,194.339,163.641,182.706,162.513,171.638C161.376,163.095,156.364,150.773,155.669,142.357C154.922,131.152,166.153,109.061,174.044,101.371M297.409,100.111C285.397,86.309,249.509,79.616,231.690,80.279C223.312,80.336,215.302,80.101,207.475,81.227C201.665,82.248,196.405,84.333,190.926,85.392C178.870,88.392,174.249,86.426,165.268,96.252C158.840,103.114,146.982,131.644,146.742,140.885C146.679,148.485,153.330,166.138,153.330,174.987C153.276,184.549,146.831,197.580,150.238,206.152C153.421,213.833,160.984,217.860,171.338,223.201C179.292,227.303,188.205,231.084,197.287,232.654C201.980,233.465,207.380,235.396,217.620,234.380C237.932,232.108,259.249,227.324,275.198,212.440C289.774,198.837,309.520,180.494,314.701,150.146C318.026,130.671,303.836,107.336,297.409,100.111Z"/>
<path class="path-15" d="M230.784,87.979C246.215,87.700,261.495,91.757,275.854,98.052"/>
<path class="path-15" d="M275.854,98.052C280.959,100.300,288.677,102.819,292.561,107.291"/>
<path class="path-15" d="M292.561,107.291C298.591,114.286,299.915,125.822,300.039,134.695"/>
<path class="path-15" d="M300.039,134.695C300.251,140.040,300.038,146.914,298.432,151.707"/>
<path class="path-15" d="M298.432,151.707C288.009,182.805,279.658,197.534,271.941,205.601"/>
<path class="path-15" d="M271.941,205.601C258.722,219.419,237.438,223.145,218.497,223.995"/>
<path class="path-15" d="M218.497,223.995C199.982,224.561,191.731,220.682,175.495,211.632"/>
<path class="path-15" d="M175.495,211.632C172.641,210.047,166.364,206.678,164.617,204.088"/>
<path class="path-15" d="M164.617,204.088C158.301,194.339,163.641,182.706,162.513,171.638"/>
<path class="path-15" d="M162.513,171.638C161.376,163.095,156.364,150.773,155.669,142.357"/>
<path class="path-15" d="M155.669,142.357C154.922,131.152,166.153,109.061,174.044,101.371"/>
<path class="path-15" d="M174.044,101.371C183.641,91.933,217.006,88.443,230.784,87.979"/>
<path class="path-16" d="M230.784,87.979C246.215,87.700,261.495,91.757,275.854,98.052C280.959,100.300,288.677,102.819,292.561,107.291C298.591,114.286,299.915,125.822,300.039,134.695C300.251,140.040,300.038,146.914,298.432,151.707C288.009,182.805,279.658,197.534,271.941,205.601C258.722,219.419,237.438,223.145,218.497,223.995C199.982,224.561,191.731,220.682,175.495,211.632C172.641,210.047,166.364,206.678,164.617,204.088C158.301,194.339,163.641,182.706,162.513,171.638C161.376,163.095,156.364,150.773,155.669,142.357C154.922,131.152,166.153,109.061,174.044,101.371C183.641,91.933,217.006,88.443,230.784,87.979Z"/>
</g>
</g>
<mask id="mask_target" style="mask-type:alpha;">
<use xlink:href="#face_Mask"/>
</mask>
<g id="mouse">
<path class="path-0" d="M198.723,212.433C203.772,214.110,203.326,218.843,202.798,219.294C202.501,219.549,201.491,218.478,198.604,217.665C193.135,216.124,190.316,216.988,190.199,216.256C190.071,215.454,192.813,210.471,198.723,212.433Z"/>
</g>
<g id="layer_eyes_Mtarget" mask="url(#mask_target)">
<g id="eyes">
<mask style="mask-type:alpha;" id="f3906406-f197-4bf1-91d8-744c09cca836">
<use xlink:href="#cmn_f3906406-f197-4bf1-91d8-744c09cca836"/>
</mask>
<g id="cmn_f3906406-f197-4bf1-91d8-744c09cca836">
<path class="path-0" d="M149.520,179.107C150.804,180.755,152.423,185.074,152.934,184.628C152.308,185.189,149.453,182.778,148.892,181.324C148.672,180.783,149.201,177.902,148.970,178.582C148.943,178.664,149.477,179.052,149.520,179.107M159.328,183.407C159.245,182.154,159.646,177.949,157.991,176.774C157.039,176.099,155.245,176.629,154.106,176.951C151.282,177.682,140.415,170.087,140.355,166.184C140.343,165.413,143.292,162.472,144.049,162.373C155.403,160.888,133.714,180.530,143.651,193.025C144.571,194.181,153.141,191.243,152.423,191.990C151.975,192.454,159.493,185.912,159.328,183.407M187.142,191.865C182.743,190.836,175.728,188.262,176.713,181.292C177.096,178.579,191.593,178.651,195.178,177.903C198.727,177.161,212.030,173.929,213.815,174.203C214.864,174.428,215.559,178.139,215.153,180.724C214.490,184.953,194.458,193.577,187.142,191.865M222.033,185.847C224.569,182.152,225.473,168.508,224.182,167.534C220.054,164.419,206.253,169.554,198.644,170.905C192.866,171.931,183.382,175.499,179.546,175.131C176.294,174.937,173.631,173.980,172.043,175.580C170.462,177.174,171.115,180.873,171.650,183.053C172.490,186.475,174.352,190.765,177.911,192.991C184.751,197.418,198.605,195.461,206.207,194.574C208.116,194.348,219.061,190.177,222.033,185.847Z"/>
<path class="path-17" d="M213.815,174.203C214.864,174.428,215.559,178.139,215.153,180.724"/>
<path class="path-17" d="M215.153,180.724C214.490,184.953,194.458,193.577,187.142,191.865"/>
<path class="path-17" d="M187.142,191.865C182.743,190.836,175.728,188.262,176.713,181.292"/>
<path class="path-17" d="M176.713,181.292C177.096,178.579,191.593,178.651,195.178,177.903"/>
<path class="path-17" d="M195.178,177.903C198.727,177.161,212.030,173.929,213.815,174.203"/>
<path class="path-18" d="M213.815,174.203C214.864,174.428,215.559,178.139,215.153,180.724C214.490,184.953,194.458,193.577,187.142,191.865C182.743,190.836,175.728,188.262,176.713,181.292C177.096,178.579,191.593,178.651,195.178,177.903C198.727,177.161,212.030,173.929,213.815,174.203Z"/>
<path class="path-17" d="M148.970,178.582C148.943,178.664,149.477,179.052,149.520,179.107"/>
<path class="path-17" d="M149.520,179.107C150.804,180.755,152.423,185.074,152.934,184.628"/>
<path class="path-17" d="M152.934,184.628C152.308,185.189,149.453,182.778,148.892,181.324"/>
<path class="path-17" d="M148.892,181.324C148.672,180.783,149.201,177.902,148.970,178.582"/>
<path class="path-18" d="M148.970,178.582C148.943,178.664,149.477,179.052,149.520,179.107C150.804,180.755,152.423,185.074,152.934,184.628C152.308,185.189,149.453,182.778,148.892,181.324C148.672,180.783,149.201,177.902,148.970,178.582Z"/>
</g>
</g>
<g id="pupil">
<path class="path-0" d="M180.153,169.554C182.475,169.239,185.327,172.712,185.246,181.161C185.185,187.540,183.216,189.940,181.448,189.943C179.536,189.947,178.189,187.190,177.669,180.312C177.114,172.972,178.131,169.828,180.153,169.554Z" mask="url(#f3906406-f197-4bf1-91d8-744c09cca836)"/>
<path class="path-0" d="M151.076,168.510C153.530,168.334,156.733,172.292,155.828,181.415C155.302,186.722,153.408,188.403,151.977,188.426C150.375,188.451,148.485,186.458,147.746,180.534C146.716,172.280,148.849,168.669,151.076,168.510Z" mask="url(#f3906406-f197-4bf1-91d8-744c09cca836)"/>
</g>
</g>
<g id="hat">
<path class="path-0" d="M306.769,144.901C308.904,145.995,311.164,149.059,311.424,151.730C312.686,158.654,301.265,158.864,297.622,158.940C291.974,158.492,286.224,156.838,280.958,155.581C273.711,154.530,266.709,152.177,259.504,150.867C236.893,144.910,214.065,139.945,191.328,134.514C180.982,132.468,171.839,129.509,160.504,127.465C159.389,127.264,149.575,126.921,147.670,126.139C133.011,120.271,147.232,107.983,146.859,101.024C146.901,99.188,143.568,98.418,144.478,95.220C145.058,93.298,150.487,89.662,152.446,89.042C161.609,86.089,172.035,86.238,182.071,87.226C192.687,88.271,201.868,91.223,212.194,93.847C237.773,100.346,280.264,113.034,312.657,129.784C321.770,134.496,302.188,130.396,300.331,130.342C283.104,129.833,212.656,105.093,251.404,121.314C266.287,127.544,293.659,137.643,306.769,144.901M202.535,78.102C190.513,75.507,179.447,73.238,167.811,74.197C163.656,74.529,158.254,74.807,155.014,75.539C148.358,77.042,162.481,58.889,166.212,55.704C184.212,40.714,213.313,32.112,237.539,36.510C285.524,45.220,302.025,60.758,312.610,81.154C316.107,87.317,324.580,114.586,313.898,119.429C310.511,120.706,305.153,117.280,302.671,115.495C293.703,109.328,220.726,82.028,202.535,78.102M308.873,52.050C292.972,40.329,270.222,29.250,242.382,26.739C212.374,24.033,178.841,29.643,156.742,53.251C149.984,60.635,146.429,69.213,141.764,77.275C138.966,82.062,134.221,84.745,133.078,90.105C131.672,97.704,136.114,100.275,136.029,106.638C136.131,113.940,131.336,115.481,131.027,120.168C129.021,132.466,140.309,137.134,150.329,139.574C154.610,140.618,170.861,141.896,179.634,143.097C189.502,144.448,202.643,146.387,212.445,148.150C223.939,150.217,239.099,153.817,250.565,156.030C261.270,158.096,275.505,161.182,286.333,162.453C294.463,163.407,312.420,164.813,313.569,164.071C315.226,163.023,321.963,150.937,322.750,148.508C324.127,144.259,322.530,139.195,325.097,132.447C328.580,122.621,332.407,114.409,332.490,103.150C332.461,82.457,321.120,61.077,308.873,52.050Z"/>
<path class="path-19" d="M212.194,93.847C237.773,100.346,280.264,113.034,312.657,129.784"/>
<path class="path-19" d="M312.657,129.784C321.770,134.496,302.188,130.396,300.331,130.342"/>
<path class="path-19" d="M300.331,130.342C283.104,129.833,212.656,105.093,251.404,121.314"/>
<path class="path-19" d="M251.404,121.314C266.287,127.544,293.659,137.643,306.769,144.901"/>
<path class="path-19" d="M306.769,144.901C308.904,145.995,311.164,149.059,311.424,151.730"/>
<path class="path-19" d="M311.424,151.730C312.686,158.654,301.265,158.864,297.622,158.940"/>
<path class="path-19" d="M297.622,158.940C291.974,158.492,286.224,156.838,280.958,155.581"/>
<path class="path-19" d="M280.958,155.581C273.711,154.530,266.709,152.177,259.504,150.867"/>
<path class="path-19" d="M259.504,150.867C236.893,144.910,214.065,139.945,191.328,134.514"/>
<path class="path-19" d="M191.328,134.514C180.982,132.468,171.839,129.509,160.504,127.465"/>
<path class="path-19" d="M160.504,127.465C159.389,127.264,149.575,126.921,147.670,126.139"/>
<path class="path-19" d="M147.670,126.139C133.011,120.271,147.232,107.983,146.859,101.024"/>
<path class="path-19" d="M146.859,101.024C146.901,99.188,143.568,98.418,144.478,95.220"/>
<path class="path-19" d="M144.478,95.220C145.058,93.298,150.487,89.662,152.446,89.042"/>
<path class="path-19" d="M152.446,89.042C161.609,86.089,172.035,86.238,182.071,87.226"/>
<path class="path-19" d="M182.071,87.226C192.687,88.271,201.868,91.223,212.194,93.847"/>
<path class="path-20" d="M212.194,93.847C237.773,100.346,280.264,113.034,312.657,129.784C321.770,134.496,302.188,130.396,300.331,130.342C283.104,129.833,212.656,105.093,251.404,121.314C266.287,127.544,293.659,137.643,306.769,144.901C308.904,145.995,311.164,149.059,311.424,151.730C312.686,158.654,301.265,158.864,297.622,158.940C291.974,158.492,286.224,156.838,280.958,155.581C273.711,154.530,266.709,152.177,259.504,150.867C236.893,144.910,214.065,139.945,191.328,134.514C180.982,132.468,171.839,129.509,160.504,127.465C159.389,127.264,149.575,126.921,147.670,126.139C133.011,120.271,147.232,107.983,146.859,101.024C146.901,99.188,143.568,98.418,144.478,95.220C145.058,93.298,150.487,89.662,152.446,89.042C161.609,86.089,172.035,86.238,182.071,87.226C192.687,88.271,201.868,91.223,212.194,93.847Z"/>
<path class="path-9" d="M237.539,36.510C285.524,45.220,302.025,60.758,312.610,81.154"/>
<path class="path-9" d="M312.610,81.154C316.107,87.317,324.580,114.586,313.898,119.429"/>
<path class="path-9" d="M313.898,119.429C310.511,120.706,305.153,117.280,302.671,115.495"/>
<path class="path-9" d="M302.671,115.495C293.703,109.328,220.726,82.028,202.535,78.102"/>
<path class="path-9" d="M202.535,78.102C190.513,75.507,179.447,73.238,167.811,74.197"/>
<path class="path-9" d="M167.811,74.197C163.656,74.529,158.254,74.807,155.014,75.539"/>
<path class="path-9" d="M155.014,75.539C148.358,77.042,162.481,58.889,166.212,55.704"/>
<path class="path-9" d="M166.212,55.704C184.212,40.714,213.313,32.112,237.539,36.510"/>
<path class="path-10" d="M237.539,36.510C285.524,45.220,302.025,60.758,312.610,81.154C316.107,87.317,324.580,114.586,313.898,119.429C310.511,120.706,305.153,117.280,302.671,115.495C293.703,109.328,220.726,82.028,202.535,78.102C190.513,75.507,179.447,73.238,167.811,74.197C163.656,74.529,158.254,74.807,155.014,75.539C148.358,77.042,162.481,58.889,166.212,55.704C184.212,40.714,213.313,32.112,237.539,36.510Z"/>
</g>
<g id="left_ear">
<path class="path-0" d="M256.799,183.150C257.423,181.800,260.647,178.023,261.867,176.891C272.018,166.710,288.537,158.607,295.277,167.595C302.770,178.028,285.713,200.728,273.289,203.986C258.804,207.549,251.755,195.057,256.799,183.150M309.826,173.082C308.871,161.733,303.386,153.299,285.480,154.497C268.492,155.634,262.256,177.979,259.766,191.812C259.332,194.655,259.550,197.745,260.034,200.438C261.762,211.054,268.766,217.678,279.504,211.962C292.304,204.979,310.656,188.552,309.826,173.082Z"/>
<path class="path-15" d="M261.867,176.891C272.018,166.710,288.537,158.607,295.277,167.595"/>
<path class="path-15" d="M295.277,167.595C302.770,178.028,285.713,200.728,273.289,203.986"/>
<path class="path-15" d="M273.289,203.986C258.804,207.549,251.755,195.057,256.799,183.150"/>
<path class="path-15" d="M256.799,183.150C257.423,181.800,260.647,178.023,261.867,176.891"/>
<path class="path-16" d="M261.867,176.891C272.018,166.710,288.537,158.607,295.277,167.595C302.770,178.028,285.713,200.728,273.289,203.986C258.804,207.549,251.755,195.057,256.799,183.150C257.423,181.800,260.647,178.023,261.867,176.891Z"/>
</g>
<g id="earrings">
<path class="path-0" d="M283.744,215.860C274.371,219.534,275.265,201.800,278.419,202.358C282.753,204.242,292.850,218.507,283.744,215.860M294.501,209.680C287.875,209.520,285.634,200.259,285.445,196.431C292.752,198.732,301.634,205.101,294.501,209.680M305.462,207.462C303.784,199.114,292.040,193.213,284.562,189.049C281.709,187.460,272.265,197.094,271.584,200.460C270.146,204.402,270.730,226.479,284.748,225.010C290.592,224.135,306.811,214.171,305.462,207.462Z"/>
<path class="path-21" d="M285.445,196.431C292.752,198.732,301.634,205.101,294.501,209.680"/>
<path class="path-21" d="M294.501,209.680C287.875,209.520,285.634,200.259,285.445,196.431"/>
<path class="path-22" d="M285.445,196.431C292.752,198.732,301.634,205.101,294.501,209.680C287.875,209.520,285.634,200.259,285.445,196.431Z"/>
<path class="path-21" d="M278.419,202.358C282.753,204.242,292.850,218.507,283.744,215.860"/>
<path class="path-21" d="M283.744,215.860C274.371,219.534,275.265,201.800,278.419,202.358"/>
<path class="path-22" d="M278.419,202.358C282.753,204.242,292.850,218.507,283.744,215.860C274.371,219.534,275.265,201.800,278.419,202.358Z"/>
</g>
</g>
<g id="jacket">
<path class="path-0" d="M211.445,272.204C213.320,276.953,207.780,286.462,206.819,291.044C200.910,308.651,192.374,325.577,192.854,343.712C193.176,349.390,197.098,361.593,191.945,365.739C190.204,367.139,185.387,364.447,184.499,365.833C182.733,368.580,178.945,358.898,178.280,357.433C177.594,355.922,175.750,347.399,175.662,344.972C175.785,340.272,176.809,331.153,177.760,325.300C178.755,319.456,178.749,313.133,181.284,307.107C183.497,300.393,187.835,293.029,190.204,285.508C192.741,280.892,196.443,278.423,196.099,274.716C195.408,271.014,193.766,269.012,197.071,267.561C201.227,266.077,210.797,267.164,211.445,272.204M273.724,279.126C275.279,277.892,289.404,272.185,291.165,271.548C303.946,267.601,306.151,282.823,305.671,290.682C305.507,294.108,304.533,306.091,304.888,308.527C305.341,313.734,308.349,317.050,308.804,321.510C309.377,332.314,310.726,325.715,308.734,334.872C308.229,337.179,306.448,341.850,305.328,343.878C304.031,345.928,299.856,349.440,298.701,351.399C295.627,355.698,294.499,361.603,286.858,362.950C285.479,363.372,272.791,370.293,270.570,371.380C266.587,373.070,261.607,376.193,257.826,373.487C253.314,369.873,253.961,361.844,253.150,355.701C251.122,342.074,253.194,328.185,256.641,314.788C258.895,304.186,265.580,287.115,273.724,279.126M287.251,262.765C284.342,264.469,278.068,264.727,276.242,265.021C272.274,265.443,271.822,262.020,271.614,259.226C271.442,254.723,274.627,248.289,278.001,245.080C280.659,242.553,285.271,240.340,289.296,240.403C293.239,240.326,299.712,243.685,299.019,248.120C298.741,251.136,292.115,259.916,287.251,262.765M213.799,244.530C218.261,253.465,223.221,262.613,217.981,261.739C211.976,260.738,209.022,260.385,199.629,256.512C189.135,252.185,186.463,237.069,192.396,232.393C198.193,227.824,208.576,234.072,213.799,244.530M315.976,350.439C317.996,345.482,320.424,342.285,320.530,336.697C320.573,331.891,319.506,326.239,317.319,321.986C312.874,313.863,310.832,310.745,305.108,301.968C303.014,298.875,300.223,296.819,299.736,293.269C299.123,289.873,300.739,272.154,301.855,269.209C302.941,264.121,308.417,260.922,309.755,256.324C310.982,252.562,312.289,248.545,311.903,244.606C311.690,239.364,307.212,235.675,303.579,232.631C298.400,228.788,293.339,228.312,286.758,228.755C277.189,229.411,271.457,237.859,267.359,244.030C261.528,252.811,262.032,268.072,258.844,278.119C257.018,283.876,253.749,291.638,251.692,296.939C243.326,317.533,228.270,374.813,247.050,386.977C248.541,388.086,260.111,389.505,263.518,388.641C271.946,386.551,275.369,383.856,283.459,381.443C290.099,379.741,299.447,369.962,305.553,363.657C309.009,360.316,314.647,353.699,315.976,350.439M220.332,235.128C215.125,228.554,206.103,216.966,197.692,218.730C193.420,219.771,187.385,222.775,184.223,226.130C181.237,229.298,178.016,234.807,177.953,239.216C177.752,244.653,177.748,251.113,179.539,255.769C181.641,261.235,190.482,265.619,191.322,271.332C191.629,273.897,185.103,285.080,184.085,288.114C182.112,294.588,178.174,300.555,176.131,306.086C174.125,311.513,172.125,318.981,170.591,324.560C168.509,332.135,164.757,341.419,164.268,349.970C163.786,354.301,165.178,364.262,167.953,369.559C169.661,372.817,174.101,377.503,176.328,378.516C177.665,379.124,191.577,383.500,196.452,379.914C205.289,373.414,202.597,359.487,200.964,343.627C199.415,329.093,210.717,317.774,215.373,303.742C217.608,296.917,225.555,276.767,226.357,269.386C226.977,263.691,229.048,259.905,227.798,251.936C226.992,247.645,223.758,239.453,220.332,235.128Z"/>
<path class="path-1" d="M291.165,271.548C303.946,267.601,306.151,282.823,305.671,290.682"/>
<path class="path-1" d="M305.671,290.682C305.507,294.108,304.533,306.091,304.888,308.527"/>
<path class="path-1" d="M304.888,308.527C305.341,313.734,308.349,317.050,308.804,321.510"/>
<path class="path-1" d="M308.804,321.510C309.377,332.314,310.726,325.715,308.734,334.872"/>
<path class="path-1" d="M308.734,334.872C308.229,337.179,306.448,341.850,305.328,343.878"/>
<path class="path-1" d="M305.328,343.878C304.031,345.928,299.856,349.440,298.701,351.399"/>
<path class="path-1" d="M298.701,351.399C295.627,355.698,294.499,361.603,286.858,362.950"/>
<path class="path-1" d="M286.858,362.950C285.479,363.372,272.791,370.293,270.570,371.380"/>
<path class="path-1" d="M270.570,371.380C266.587,373.070,261.607,376.193,257.826,373.487"/>
<path class="path-1" d="M257.826,373.487C253.314,369.873,253.961,361.844,253.150,355.701"/>
<path class="path-1" d="M253.150,355.701C251.122,342.074,253.194,328.185,256.641,314.788"/>
<path class="path-1" d="M256.641,314.788C258.895,304.186,265.580,287.115,273.724,279.126"/>
<path class="path-1" d="M273.724,279.126C275.279,277.892,289.404,272.185,291.165,271.548"/>
<path class="path-2" d="M291.165,271.548C303.946,267.601,306.151,282.823,305.671,290.682C305.507,294.108,304.533,306.091,304.888,308.527C305.341,313.734,308.349,317.050,308.804,321.510C309.377,332.314,310.726,325.715,308.734,334.872C308.229,337.179,306.448,341.850,305.328,343.878C304.031,345.928,299.856,349.440,298.701,351.399C295.627,355.698,294.499,361.603,286.858,362.950C285.479,363.372,272.791,370.293,270.570,371.380C266.587,373.070,261.607,376.193,257.826,373.487C253.314,369.873,253.961,361.844,253.150,355.701C251.122,342.074,253.194,328.185,256.641,314.788C258.895,304.186,265.580,287.115,273.724,279.126C275.279,277.892,289.404,272.185,291.165,271.548Z"/>
<path class="path-1" d="M197.071,267.561C201.227,266.077,210.797,267.164,211.445,272.204"/>
<path class="path-1" d="M211.445,272.204C213.320,276.953,207.780,286.462,206.819,291.044"/>
<path class="path-1" d="M206.819,291.044C200.910,308.651,192.374,325.577,192.854,343.712"/>
<path class="path-1" d="M192.854,343.712C193.176,349.390,197.098,361.593,191.945,365.739"/>
<path class="path-1" d="M191.945,365.739C190.204,367.139,185.387,364.447,184.499,365.833"/>
<path class="path-1" d="M184.499,365.833C182.733,368.580,178.945,358.898,178.280,357.433"/>
<path class="path-1" d="M178.280,357.433C177.594,355.922,175.750,347.399,175.662,344.972"/>
<path class="path-1" d="M175.662,344.972C175.785,340.272,176.809,331.153,177.760,325.300"/>
<path class="path-1" d="M177.760,325.300C178.755,319.456,178.749,313.133,181.284,307.107"/>
<path class="path-1" d="M181.284,307.107C183.497,300.393,187.835,293.029,190.204,285.508"/>
<path class="path-1" d="M190.204,285.508C192.741,280.892,196.443,278.423,196.099,274.716"/>
<path class="path-1" d="M196.099,274.716C195.408,271.014,193.766,269.012,197.071,267.561"/>
<path class="path-2" d="M197.071,267.561C201.227,266.077,210.797,267.164,211.445,272.204C213.320,276.953,207.780,286.462,206.819,291.044C200.910,308.651,192.374,325.577,192.854,343.712C193.176,349.390,197.098,361.593,191.945,365.739C190.204,367.139,185.387,364.447,184.499,365.833C182.733,368.580,178.945,358.898,178.280,357.433C177.594,355.922,175.750,347.399,175.662,344.972C175.785,340.272,176.809,331.153,177.760,325.300C178.755,319.456,178.749,313.133,181.284,307.107C183.497,300.393,187.835,293.029,190.204,285.508C192.741,280.892,196.443,278.423,196.099,274.716C195.408,271.014,193.766,269.012,197.071,267.561Z"/>
<path class="path-1" d="M289.296,240.403C293.239,240.326,299.712,243.685,299.019,248.120"/>
<path class="path-1" d="M299.019,248.120C298.741,251.136,292.115,259.916,287.251,262.765"/>
<path class="path-1" d="M287.251,262.765C284.342,264.469,278.068,264.727,276.242,265.021"/>
<path class="path-1" d="M276.242,265.021C272.274,265.443,271.822,262.020,271.614,259.226"/>
<path class="path-1" d="M271.614,259.226C271.442,254.723,274.627,248.289,278.001,245.080"/>
<path class="path-1" d="M278.001,245.080C280.659,242.553,285.271,240.340,289.296,240.403"/>
<path class="path-2" d="M289.296,240.403C293.239,240.326,299.712,243.685,299.019,248.120C298.741,251.136,292.115,259.916,287.251,262.765C284.342,264.469,278.068,264.727,276.242,265.021C272.274,265.443,271.822,262.020,271.614,259.226C271.442,254.723,274.627,248.289,278.001,245.080C280.659,242.553,285.271,240.340,289.296,240.403Z"/>
<path class="path-1" d="M213.799,244.530C218.261,253.465,223.221,262.613,217.981,261.739"/>
<path class="path-1" d="M217.981,261.739C211.976,260.738,209.022,260.385,199.629,256.512"/>
<path class="path-1" d="M199.629,256.512C189.135,252.185,186.463,237.069,192.396,232.393"/>
<path class="path-1" d="M192.396,232.393C198.193,227.824,208.576,234.072,213.799,244.530"/>
<path class="path-2" d="M213.799,244.530C218.261,253.465,223.221,262.613,217.981,261.739C211.976,260.738,209.022,260.385,199.629,256.512C189.135,252.185,186.463,237.069,192.396,232.393C198.193,227.824,208.576,234.072,213.799,244.530Z"/>
</g>
<g id="left_arm">
<path class="path-0" d="M309.635,464.831C306.252,459.543,304.829,450.574,312.456,448.167C317.762,446.447,341.770,451.521,345.804,455.472C352.856,461.720,349.016,476.399,340.400,479.816C330.454,483.246,315.045,473.094,309.635,464.831M289.479,284.572C290.008,281.299,297.338,270.286,302.462,270.859C305.438,271.192,307.370,276.017,308.649,278.557C312.187,286.540,315.872,294.813,319.008,303.204C327.569,325.469,334.242,347.934,339.931,370.690C341.982,379.929,341.818,392.297,345.232,400.580C349.325,410.185,355.610,406.794,358.670,413.082C360.032,416.063,359.426,421.726,361.471,426.362C364.541,433.651,370.237,437.584,372.947,442.213C374.639,444.856,375.335,447.844,371.683,448.549C369.698,449.568,364.364,448.625,362.367,448.646C355.692,446.944,349.020,445.238,342.352,443.530C333.349,441.627,306.054,440.580,301.335,434.640C294.252,425.399,305.113,414.306,306.351,404.977C306.979,402.008,309.977,358.443,309.173,355.572C308.084,348.909,303.691,343.473,301.425,336.746C298.796,327.505,296.073,317.619,293.677,307.949C291.839,299.862,287.641,293.465,289.479,284.572M313.002,260.017C310.188,255.635,302.017,248.153,296.205,250.118C291.387,251.978,291.369,258.003,291.135,262.044C290.555,272.146,289.464,280.630,290.500,290.222C290.919,297.204,292.275,303.414,293.636,309.960C295.226,318.867,295.357,336.346,296.460,346.604C297.186,356.154,299.912,365.958,299.498,374.232C298.108,393.665,289.498,412.085,290.362,431.459C290.467,441.246,293.117,441.207,295.496,449.009C297.232,454.976,295.958,461.315,298.344,466.945C304.488,481.853,321.930,495.313,338.862,491.810C354.466,488.654,354.956,471.680,363.178,462.611C370.414,454.550,385.093,458.390,387.003,450.052C388.926,443.045,379.199,435.495,375.485,430.209C368.062,420.305,373.693,417.917,369.954,410.304C367.234,404.677,359.529,399.766,355.794,392.485C353.763,389.178,352.719,382.862,351.324,378.557C348.409,368.239,345.494,356.480,343.079,345.560C340.592,333.115,338.521,322.118,333.758,309.642C329.971,299.342,318.528,267.784,313.002,260.017Z"/>
<path class="path-1" d="M302.462,270.859C305.438,271.192,307.370,276.017,308.649,278.557"/>
<path class="path-1" d="M308.649,278.557C312.187,286.540,315.872,294.813,319.008,303.204"/>
<path class="path-1" d="M319.008,303.204C327.569,325.469,334.242,347.934,339.931,370.690"/>
<path class="path-1" d="M339.931,370.690C341.982,379.929,341.818,392.297,345.232,400.580"/>
<path class="path-1" d="M345.232,400.580C349.325,410.185,355.610,406.794,358.670,413.082"/>
<path class="path-1" d="M358.670,413.082C360.032,416.063,359.426,421.726,361.471,426.362"/>
<path class="path-1" d="M361.471,426.362C364.541,433.651,370.237,437.584,372.947,442.213"/>
<path class="path-1" d="M372.947,442.213C374.639,444.856,375.335,447.844,371.683,448.549"/>
<path class="path-1" d="M371.683,448.549C369.698,449.568,364.364,448.625,362.367,448.646"/>
<path class="path-1" d="M362.367,448.646C355.692,446.944,349.020,445.238,342.352,443.530"/>
<path class="path-1" d="M342.352,443.530C333.349,441.627,306.054,440.580,301.335,434.640"/>
<path class="path-1" d="M301.335,434.640C294.252,425.399,305.113,414.306,306.351,404.977"/>
<path class="path-1" d="M306.351,404.977C306.979,402.008,309.977,358.443,309.173,355.572"/>
<path class="path-1" d="M309.173,355.572C308.084,348.909,303.691,343.473,301.425,336.746"/>
<path class="path-1" d="M301.425,336.746C298.796,327.505,296.073,317.619,293.677,307.949"/>
<path class="path-1" d="M293.677,307.949C291.839,299.862,287.641,293.465,289.479,284.572"/>
<path class="path-1" d="M289.479,284.572C290.008,281.299,297.338,270.286,302.462,270.859"/>
<path class="path-2" d="M302.462,270.859C305.438,271.192,307.370,276.017,308.649,278.557C312.187,286.540,315.872,294.813,319.008,303.204C327.569,325.469,334.242,347.934,339.931,370.690C341.982,379.929,341.818,392.297,345.232,400.580C349.325,410.185,355.610,406.794,358.670,413.082C360.032,416.063,359.426,421.726,361.471,426.362C364.541,433.651,370.237,437.584,372.947,442.213C374.639,444.856,375.335,447.844,371.683,448.549C369.698,449.568,364.364,448.625,362.367,448.646C355.692,446.944,349.020,445.238,342.352,443.530C333.349,441.627,306.054,440.580,301.335,434.640C294.252,425.399,305.113,414.306,306.351,404.977C306.979,402.008,309.977,358.443,309.173,355.572C308.084,348.909,303.691,343.473,301.425,336.746C298.796,327.505,296.073,317.619,293.677,307.949C291.839,299.862,287.641,293.465,289.479,284.572C290.008,281.299,297.338,270.286,302.462,270.859Z"/>
<path class="path-15" d="M312.456,448.167C317.762,446.447,341.770,451.521,345.804,455.472"/>
<path class="path-15" d="M345.804,455.472C352.856,461.720,349.016,476.399,340.400,479.816"/>
<path class="path-15" d="M340.400,479.816C330.454,483.246,315.045,473.094,309.635,464.831"/>
<path class="path-15" d="M309.635,464.831C306.252,459.543,304.829,450.574,312.456,448.167"/>
<path class="path-16" d="M312.456,448.167C317.762,446.447,341.770,451.521,345.804,455.472C352.856,461.720,349.016,476.399,340.400,479.816C330.454,483.246,315.045,473.094,309.635,464.831C306.252,459.543,304.829,450.574,312.456,448.167Z"/>
</g>
<g id="bone">
<g id="bone1_clothes">
<path class="path-23" d="M230.416,389.513C230.417,389.508,243.657,332.024,243.658,332.018C243.658,332.024,241.452,390.972,241.451,390.977C241.450,390.977,230.417,389.514,230.416,389.513"/>
</g>
<g id="bone2_clothes">
<path class="path-23" d="M236.818,331.369C236.819,331.362,242.467,259.056,242.468,259.048C242.468,259.056,250.585,331.126,250.585,331.133C250.584,331.133,236.820,331.369,236.818,331.369"/>
</g>
<g id="bone3_neck">
<path class="path-23" d="M245.909,258.499C245.910,258.495,249.331,216.935,249.331,216.931C249.330,216.935,239.399,257.436,239.398,257.440C239.399,257.440,245.909,258.499,245.909,258.499"/>
</g>
<g id="bone4_head">
<path class="path-23" d="M243.363,217.249C243.363,217.241,245.024,139.194,245.025,139.186C245.026,139.194,255.805,216.510,255.806,216.518C255.805,216.518,243.364,217.249,243.363,217.249"/>
</g>
<g id="bone5_left_arm">
<path class="path-23" d="M306.117,262.910C306.118,262.919,323.756,353.688,323.758,353.697C323.754,353.688,290.948,267.237,290.945,267.228C290.946,267.228,306.115,262.910,306.117,262.910"/>
</g>
<g id="bone6_left_arm">
<path class="path-23" d="M318.531,354.561C318.532,354.568,331.591,416.952,331.592,416.958C331.592,416.952,328.892,353.273,328.892,353.266C328.891,353.267,318.532,354.561,318.531,354.561"/>
</g>
<g id="bone7_right_arm">
<path class="path-23" d="M176.511,270.175C176.509,270.187,150.586,382.739,150.584,382.751C150.588,382.740,193.944,275.687,193.949,275.677C193.947,275.676,176.513,270.176,176.511,270.175"/>
</g>
<g id="bone8_right_arm">
<path class="path-23" d="M155.486,378.703C155.488,378.709,174.757,435.026,174.759,435.032C174.756,435.027,144.567,383.728,144.564,383.723C144.565,383.722,155.485,378.704,155.486,378.703"/>
</g>
<g id="bone9_left_leg">
<path class="path-23" d="M267.922,387.144C267.925,387.154,300.578,487.595,300.581,487.605C300.576,487.596,251.032,394.330,251.028,394.321C251.029,394.320,267.920,387.145,267.922,387.144"/>
</g>
<g id="bone10_right_leg">
<path class="path-23" d="M205.777,389.226C205.777,389.236,206.952,491.147,206.952,491.157C206.953,491.147,221.250,390.237,221.252,390.227C221.250,390.227,205.779,389.226,205.777,389.226"/>
</g>
<g id="bone11_hair">
<path class="path-23" d="M253.425,160.348C253.426,160.356,267.387,239.316,267.388,239.323C267.386,239.316,239.210,164.245,239.207,164.238C239.209,164.237,253.423,160.349,253.425,160.348"/>
</g>
<g id="bone12_left_leg_S">
<path class="path-23" d="M435.936,222.345C435.943,222.344,508.178,218.378,508.185,218.377C508.178,218.376,436.273,210.421,436.266,210.420C436.266,210.421,435.936,222.344,435.936,222.345"/>
</g>
<g id="bone13_right_leg_S">
<path class="path-23" d="M495.478,210.771C495.471,210.773,424.701,225.779,424.693,225.780C424.701,225.780,496.975,222.606,496.982,222.605C496.982,222.604,495.479,210.773,495.478,210.771"/>
</g>
<g id="bone14_left_arm_S">
<path class="path-23" d="M557.459,215.989C557.458,215.981,551.495,143.884,551.494,143.876C551.494,143.884,545.530,215.981,545.530,215.989C545.531,215.989,557.458,215.989,557.459,215.989"/>
</g>
<g id="bone15_jacket_S">
<path class="path-23" d="M601.993,209.960C601.988,209.964,543.664,252.766,543.658,252.771C543.665,252.767,608.228,220.129,608.234,220.126C608.234,220.125,601.994,209.961,601.993,209.960"/>
</g>
<g id="bone16_pupils_S">
<path class="path-23" d="M442.221,337.675C442.220,337.668,440.191,265.352,440.190,265.345C440.189,265.352,430.310,337.019,430.309,337.026C430.310,337.026,442.219,337.675,442.221,337.675"/>
</g>
<g id="bone17_eyelids_S">
<path class="path-23" d="M500.565,333.149C500.559,333.145,444.556,287.349,444.550,287.344C444.555,287.350,492.273,341.725,492.278,341.730C492.279,341.729,500.564,333.150,500.565,333.149"/>
</g>
<g id="bone18_face_S">
<path class="path-23" d="M551.977,344.394C551.984,344.393,624.082,338.430,624.090,338.429C624.082,338.428,551.984,332.465,551.977,332.465C551.977,332.466,551.977,344.392,551.977,344.394"/>
</g>
</g>
</g>
<style>
.path-0{fill:#000000;fill-rule:evenodd;stroke:none;}
.path-1{fill:none;stroke:#a60d3f;stroke-width:1;stroke-linecap:butt;stroke-linejoin:round;}
.path-2{fill:#a60d3f;fill-rule:evenodd;stroke:none;}
.path-3{fill:none;stroke:#d88e4b;stroke-width:1;stroke-linecap:butt;stroke-linejoin:round;}
.path-4{fill:#d88e4b;fill-rule:evenodd;stroke:none;}
.path-5{fill:none;stroke:#6e2353;stroke-width:1;stroke-linecap:butt;stroke-linejoin:round;}
.path-6{fill:#6e2353;fill-rule:evenodd;stroke:none;}
.path-7{fill:none;stroke:#392966;stroke-width:1;stroke-linecap:butt;stroke-linejoin:round;}
.path-8{fill:#392966;fill-rule:evenodd;stroke:none;}
.path-9{fill:none;stroke:#cc9bc5;stroke-width:1;stroke-linecap:butt;stroke-linejoin:round;}
.path-10{fill:#cc9bc5;fill-rule:evenodd;stroke:none;}
.path-11{fill:none;stroke:#620527;stroke-width:1;stroke-linecap:butt;stroke-linejoin:round;}
.path-12{fill:#620527;fill-rule:evenodd;stroke:none;}
.path-13{fill:none;stroke:#6a3661;stroke-width:1;stroke-linecap:butt;stroke-linejoin:round;}
.path-14{fill:#6a3661;fill-rule:evenodd;stroke:none;}
.path-15{fill:none;stroke:#f8a087;stroke-width:1;stroke-linecap:butt;stroke-linejoin:round;}
.path-16{fill:#f8a087;fill-rule:evenodd;stroke:none;}
.path-17{fill:none;stroke:#ffffff;stroke-width:1;stroke-linecap:butt;stroke-linejoin:round;}
.path-18{fill:#ffffff;fill-rule:evenodd;stroke:none;}
.path-19{fill:none;stroke:#d89f4a;stroke-width:1;stroke-linecap:butt;stroke-linejoin:round;}
.path-20{fill:#d89f4a;fill-rule:evenodd;stroke:none;}
.path-21{fill:none;stroke:#fafd5b;stroke-width:1;stroke-linecap:butt;stroke-linejoin:round;}
.path-22{fill:#fafd5b;fill-rule:evenodd;stroke:none;}
.path-23{fill:none;stroke:#00ff42;stroke-width:8;stroke-linecap:round;stroke-linejoin:round;}
.path-24{fill:none;stroke:#000000;stroke-width:1;stroke-linecap:butt;stroke-linejoin:round;}
.path-25{fill:none;stroke:#ececec;stroke-width:1;stroke-linecap:butt;stroke-linejoin:round;}
.path-26{fill:#ececec;fill-rule:evenodd;stroke:none;}
.path-27{fill:none;stroke:#808080;stroke-width:1;stroke-linecap:butt;stroke-linejoin:round;}
.path-28{fill:#808080;fill-rule:evenodd;stroke:none;}
.path-29{fill:none;stroke:#282828;stroke-width:1;stroke-linecap:butt;stroke-linejoin:round;}
.path-30{fill:#282828;fill-rule:evenodd;stroke:none;}
</style>
</svg>
