<svg version="1.1" id="Frame_144" xmlns="http://www.w3.org/2000/svg" xmlns:xlink="http://www.w3.org/1999/xlink" width="480px" height="720px">
<g id="main_bone">
<g id="right_arm">
<path class="path-0" d="M174.126,270.172C175.458,267.511,178.075,262.017,181.778,260.525C188.182,257.943,193.652,263.933,194.431,268.509C196.093,276.447,190.936,287.396,188.470,295.289C182.390,314.329,175.637,333.084,171.132,352.015C170.600,355.317,165.808,376.634,165.808,373.973C165.476,380.626,172.130,386.283,174.459,391.939C177.454,399.590,174.791,406.910,172.795,413.897C168.138,428.535,168.471,433.858,167.804,448.165C167.804,450.492,167.473,458.146,163.812,458.146C160.487,458.146,160.153,452.157,159.488,449.828C159.155,447.167,156.825,441.510,157.492,439.182C157.823,435.190,162.483,436.188,157.492,427.870C151.170,417.555,139.526,409.240,136.532,395.931C134.536,385.285,140.191,375.969,143.186,365.988C149.508,344.695,156.494,323.404,163.812,302.111C167.805,291.132,168.802,281.484,174.126,270.172M193.754,262.188C193.755,253.538,190.761,245.885,180.115,249.546C163.481,255.200,158.822,281.484,154.165,296.122C147.512,316.084,141.855,336.046,136.199,356.007C133.870,364.657,130.544,368.982,129.212,373.973C127.549,379.628,127.881,388.280,128.214,393.935C128.214,411.567,133.869,412.234,140.856,425.874C144.517,433.859,140.525,438.849,142.852,445.835C144.517,450.492,148.176,453.820,150.837,457.813C153.166,461.805,153.499,464.135,155.162,467.793C157.158,472.119,163.481,481.767,169.136,479.771C173.793,478.108,173.793,469.790,174.126,465.797C174.459,459.809,178.119,436.853,179.450,429.866C181.778,418.554,187.435,406.245,185.770,393.935C184.440,384.619,176.122,377.965,176.456,367.985C176.787,362.661,180.115,354.011,181.113,348.023C182.776,338.375,182.776,328.061,184.772,318.081C188.099,300.448,194.421,280.487,193.754,262.188Z"/>
<path class="path-1" d="M181.778,260.525C188.182,257.943,193.652,263.933,194.431,268.509"/>
<path class="path-1" d="M194.431,268.509C196.093,276.447,190.936,287.396,188.470,295.289"/>
<path class="path-1" d="M188.470,295.289C182.390,314.329,175.637,333.084,171.132,352.015"/>
<path class="path-1" d="M171.132,352.015C170.600,355.317,165.808,376.634,165.808,373.973"/>
<path class="path-1" d="M165.808,373.973C165.476,380.626,172.130,386.283,174.459,391.939"/>
<path class="path-1" d="M174.459,391.939C177.454,399.590,174.791,406.910,172.795,413.897"/>
<path class="path-1" d="M172.795,413.897C168.138,428.535,168.471,433.858,167.804,448.165"/>
<path class="path-1" d="M167.804,448.165C167.804,450.492,167.473,458.146,163.812,458.146"/>
<path class="path-1" d="M163.812,458.146C160.487,458.146,160.153,452.157,159.488,449.828"/>
<path class="path-1" d="M159.488,449.828C159.155,447.167,156.825,441.510,157.492,439.182"/>
<path class="path-1" d="M157.492,439.182C157.823,435.190,162.483,436.188,157.492,427.870"/>
<path class="path-1" d="M157.492,427.870C151.170,417.555,139.526,409.240,136.532,395.931"/>
<path class="path-1" d="M136.532,395.931C134.536,385.285,140.191,375.969,143.186,365.988"/>
<path class="path-1" d="M143.186,365.988C149.508,344.695,156.494,323.404,163.812,302.111"/>
<path class="path-1" d="M163.812,302.111C167.805,291.132,168.802,281.484,174.126,270.172"/>
<path class="path-1" d="M174.126,270.172C175.458,267.511,178.075,262.017,181.778,260.525"/>
<path class="path-2" d="M181.778,260.525C188.182,257.943,193.652,263.933,194.431,268.509C196.093,276.447,190.936,287.396,188.470,295.289C182.390,314.329,175.637,333.084,171.132,352.015C170.600,355.317,165.808,376.634,165.808,373.973C165.476,380.626,172.130,386.283,174.459,391.939C177.454,399.590,174.791,406.910,172.795,413.897C168.138,428.535,168.471,433.858,167.804,448.165C167.804,450.492,167.473,458.146,163.812,458.146C160.487,458.146,160.153,452.157,159.488,449.828C159.155,447.167,156.825,441.510,157.492,439.182C157.823,435.190,162.483,436.188,157.492,427.870C151.170,417.555,139.526,409.240,136.532,395.931C134.536,385.285,140.191,375.969,143.186,365.988C149.508,344.695,156.494,323.404,163.812,302.111C167.805,291.132,168.802,281.484,174.126,270.172C175.458,267.511,178.075,262.017,181.778,260.525Z"/>
</g>
<g id="layer_left_leg">
<g id="left_heel">
<path class="path-0" d="M243.613,544.600C235.861,534.343,248.416,512.263,259.227,510.529C273.354,508.063,277.785,532.962,276.086,538.009C273.764,544.248,265.022,548.170,259.408,548.988C255.316,549.448,245.914,547.825,243.613,544.600M281.741,510.118C276.232,502.885,261.512,502.154,253.685,504.838C224.904,513.895,221.843,570.326,261.669,558.624C268.888,556.552,283.413,550.221,286.731,543.635C290.087,538.141,288.021,531.887,286.731,526.008C285.396,521.278,284.751,514.190,281.741,510.118Z"/>
<path class="path-3" d="M259.227,510.529C273.354,508.063,277.785,532.962,276.086,538.009"/>
<path class="path-3" d="M276.086,538.009C273.764,544.248,265.022,548.170,259.408,548.988"/>
<path class="path-3" d="M259.408,548.988C255.316,549.448,245.914,547.825,243.613,544.600"/>
<path class="path-3" d="M243.613,544.600C235.861,534.343,248.416,512.263,259.227,510.529"/>
<path class="path-4" d="M259.227,510.529C273.354,508.063,277.785,532.962,276.086,538.009C273.764,544.248,265.022,548.170,259.408,548.988C255.316,549.448,245.914,547.825,243.613,544.600C235.861,534.343,248.416,512.263,259.227,510.529Z"/>
</g>
<g id="left_sole">
<path class="path-0" d="M255.541,576.521C246.929,576.044,247.972,571.060,243.539,568.008C240.512,565.924,250.104,573.757,252.840,575.031C261.605,579.670,273.354,579.173,281.689,576.964C284.296,576.493,292.645,576.076,292.525,576.249C291.814,577.275,277.865,578.608,273.185,578.390C270.343,578.451,256.123,576.493,255.541,576.521M248.932,565.590C252.072,563.297,256.167,568.291,257.536,569.676C263.221,575.430,278.290,575.408,286.386,572.318C287.335,571.981,289.074,569.199,293.044,568.466C296.110,567.900,280.827,574.010,274.976,573.278C265.946,573.084,246.236,567.558,248.932,565.590M291.171,559.188C288.427,558.254,268.729,555.517,255.309,550.546C249.695,548.488,236.934,559.747,237.385,567.578C237.607,571.297,244.804,579.644,248.009,581.395C259.799,588.391,287.991,581.518,292.785,578.506C295.573,576.754,301.933,562.851,291.171,559.188Z"/>
<path class="path-5" d="M243.539,568.008C240.512,565.924,250.104,573.757,252.840,575.031"/>
<path class="path-5" d="M252.840,575.031C261.605,579.670,273.354,579.173,281.689,576.964"/>
<path class="path-5" d="M281.689,576.964C284.296,576.493,292.645,576.076,292.525,576.249"/>
<path class="path-5" d="M292.525,576.249C291.814,577.275,277.865,578.608,273.185,578.390"/>
<path class="path-5" d="M273.185,578.390C270.343,578.451,256.123,576.493,255.541,576.521"/>
<path class="path-5" d="M255.541,576.521C246.929,576.044,247.972,571.060,243.539,568.008"/>
<path class="path-6" d="M243.539,568.008C240.512,565.924,250.104,573.757,252.840,575.031C261.605,579.670,273.354,579.173,281.689,576.964C284.296,576.493,292.645,576.076,292.525,576.249C291.814,577.275,277.865,578.608,273.185,578.390C270.343,578.451,256.123,576.493,255.541,576.521C246.929,576.044,247.972,571.060,243.539,568.008Z"/>
<path class="path-5" d="M257.536,569.676C263.221,575.430,278.290,575.408,286.386,572.318"/>
<path class="path-5" d="M286.386,572.318C287.335,571.981,289.074,569.199,293.044,568.466"/>
<path class="path-5" d="M293.044,568.466C296.110,567.900,280.827,574.010,274.976,573.278"/>
<path class="path-5" d="M274.976,573.278C265.946,573.084,246.236,567.558,248.932,565.590"/>
<path class="path-5" d="M248.932,565.590C252.072,563.297,256.167,568.291,257.536,569.676"/>
<path class="path-6" d="M257.536,569.676C263.221,575.430,278.290,575.408,286.386,572.318C287.335,571.981,289.074,569.199,293.044,568.466C296.110,567.900,280.827,574.010,274.976,573.278C265.946,573.084,246.236,567.558,248.932,565.590C252.072,563.297,256.167,568.291,257.536,569.676Z"/>
</g>
<g id="left_toe">
<path class="path-0" d="M259.063,584.475C231.927,580.767,243.758,542.447,261.082,545.850C272.456,548.190,281.283,554.114,286.581,561.760C289.624,565.729,288.722,570.924,286.414,575.492C281.816,582.978,266.856,585.480,259.063,584.475M289.468,544.525C280.283,540.526,264.466,539.553,254.705,538.803C234.110,537.344,233.306,556.991,233.487,573.526C233.375,578.505,233.493,583.152,236.480,587.136C243.072,595.379,267.142,596.846,277.016,594.789C284.155,592.782,292.972,588.744,296.323,581.481C300.052,573.703,297.149,548.003,289.468,544.525Z"/>
<path class="path-3" d="M261.082,545.850C272.456,548.190,281.283,554.114,286.581,561.760"/>
<path class="path-3" d="M286.581,561.760C289.624,565.729,288.722,570.924,286.414,575.492"/>
<path class="path-3" d="M286.414,575.492C281.816,582.978,266.856,585.480,259.063,584.475"/>
<path class="path-3" d="M259.063,584.475C231.927,580.767,243.758,542.447,261.082,545.850"/>
<path class="path-4" d="M261.082,545.850C272.456,548.190,281.283,554.114,286.581,561.760C289.624,565.729,288.722,570.924,286.414,575.492C281.816,582.978,266.856,585.480,259.063,584.475C231.927,580.767,243.758,542.447,261.082,545.850Z"/>
</g>
<g id="left_leg">
<path class="path-0" d="M235.675,412.234C233.741,406.070,248.969,405.510,253.973,404.581C259.560,403.820,272.167,403.830,276.794,407.244C287.615,414.682,292.835,450.301,293.657,462.906C294.246,479.025,297.607,494.219,295.871,509.698C294.809,517.484,291.826,525.150,289.630,532.536C288.375,537.506,283.040,544.172,286.483,547.564C287.681,549.249,290.676,547.279,292.256,548.364C293.983,549.718,294.368,549.520,295.152,550.870C299.273,558.496,284.357,569.348,276.611,570.743C268.317,572.525,250.505,569.027,246.042,561.946C244.145,558.936,243.389,554.802,242.497,551.428C235.823,524.748,241.553,478.405,248.222,453.717C250.017,447.073,258.224,460.037,262.070,455.850C266.897,450.545,251.189,428.497,246.303,423.107C243.335,420.316,236.658,416.092,235.675,412.234M286.441,397.651C279.880,392.625,261.547,393.687,253.973,394.933C247.330,395.999,224.695,395.598,221.701,400.589C216.711,408.907,230.841,422.484,233.678,429.866C234.925,433.890,232.816,454.154,232.404,459.809C232.227,472.431,229.863,483.129,229.312,495.740C228.101,517.046,220.381,538.129,226.785,558.179C233.523,578.774,251.829,590.782,276.856,583.489C295.137,578.465,301.060,575.160,306.664,555.381C309.141,547.037,307.269,545.947,307.361,538.530C307.422,531.541,307.906,524.284,307.834,516.793C306.899,495.600,307.050,474.331,303.676,453.261C301.530,439.776,297.866,406.442,286.441,397.651Z"/>
<path class="path-7" d="M253.973,404.581C259.560,403.820,272.167,403.830,276.794,407.244"/>
<path class="path-7" d="M276.794,407.244C287.615,414.682,292.835,450.301,293.657,462.906"/>
<path class="path-7" d="M293.657,462.906C294.246,479.025,297.607,494.219,295.871,509.698"/>
<path class="path-7" d="M295.871,509.698C294.809,517.484,291.826,525.150,289.630,532.536"/>
<path class="path-7" d="M289.630,532.536C288.375,537.506,283.040,544.172,286.483,547.564"/>
<path class="path-7" d="M286.483,547.564C287.681,549.249,290.676,547.279,292.256,548.364"/>
<path class="path-7" d="M292.256,548.364C293.983,549.718,294.368,549.520,295.152,550.870"/>
<path class="path-7" d="M295.152,550.870C299.273,558.496,284.357,569.348,276.611,570.743"/>
<path class="path-7" d="M276.611,570.743C268.317,572.525,250.505,569.027,246.042,561.946"/>
<path class="path-7" d="M246.042,561.946C244.145,558.936,243.389,554.802,242.497,551.428"/>
<path class="path-7" d="M242.497,551.428C235.823,524.748,241.553,478.405,248.222,453.717"/>
<path class="path-7" d="M248.222,453.717C250.017,447.073,258.224,460.037,262.070,455.850"/>
<path class="path-7" d="M262.070,455.850C266.897,450.545,251.189,428.497,246.303,423.107"/>
<path class="path-7" d="M246.303,423.107C243.335,420.316,236.658,416.092,235.675,412.234"/>
<path class="path-7" d="M235.675,412.234C233.741,406.070,248.969,405.510,253.973,404.581"/>
<path class="path-8" d="M253.973,404.581C259.560,403.820,272.167,403.830,276.794,407.244C287.615,414.682,292.835,450.301,293.657,462.906C294.246,479.025,297.607,494.219,295.871,509.698C294.809,517.484,291.826,525.150,289.630,532.536C288.375,537.506,283.040,544.172,286.483,547.564C287.681,549.249,290.676,547.279,292.256,548.364C293.983,549.718,294.368,549.520,295.152,550.870C299.273,558.496,284.357,569.348,276.611,570.743C268.317,572.525,250.505,569.027,246.042,561.946C244.145,558.936,243.389,554.802,242.497,551.428C235.823,524.748,241.553,478.405,248.222,453.717C250.017,447.073,258.224,460.037,262.070,455.850C266.897,450.545,251.189,428.497,246.303,423.107C243.335,420.316,236.658,416.092,235.675,412.234C233.741,406.070,248.969,405.510,253.973,404.581Z"/>
</g>
</g>
<g id="layer_right_leg">
<g id="right_heel">
<path class="path-0" d="M185.917,649.838C188.104,631.156,188.137,616.397,211.062,613.104C221.215,611.459,240.535,614.758,246.101,624.584C249.052,629.504,248.074,636.717,248.398,641.966C249.041,651.083,254.879,668.069,242.166,670.932C241.207,671.247,214.396,673.405,206.077,674.533C200.515,675.820,194.593,677.637,190.162,674.087C184.903,668.940,185.009,656.464,185.917,649.838M256.925,622.617C252.348,610.804,236.261,603.915,224.784,605.561C209.756,607.532,194.400,602.655,184.610,616.713C175.012,630.493,175.242,656.090,178.405,672.113C179.374,678.014,182.964,688.838,187.877,692.120C191.467,694.408,197.019,693.759,201.265,693.759C221.898,694.088,257.985,700.932,258.237,670.145C258.211,659.618,260.105,630.914,256.925,622.617Z"/>
<path class="path-3" d="M211.062,613.104C221.215,611.459,240.535,614.758,246.101,624.584"/>
<path class="path-3" d="M246.101,624.584C249.052,629.504,248.074,636.717,248.398,641.966"/>
<path class="path-3" d="M248.398,641.966C249.041,651.083,254.879,668.069,242.166,670.932"/>
<path class="path-3" d="M242.166,670.932C241.207,671.247,214.396,673.405,206.077,674.533"/>
<path class="path-3" d="M206.077,674.533C200.515,675.820,194.593,677.637,190.162,674.087"/>
<path class="path-3" d="M190.162,674.087C184.903,668.940,185.009,656.464,185.917,649.838"/>
<path class="path-3" d="M185.917,649.838C188.104,631.156,188.137,616.397,211.062,613.104"/>
<path class="path-4" d="M211.062,613.104C221.215,611.459,240.535,614.758,246.101,624.584C249.052,629.504,248.074,636.717,248.398,641.966C249.041,651.083,254.879,668.069,242.166,670.932C241.207,671.247,214.396,673.405,206.077,674.533C200.515,675.820,194.593,677.637,190.162,674.087C184.903,668.940,185.009,656.464,185.917,649.838C188.104,631.156,188.137,616.397,211.062,613.104Z"/>
</g>
<g id="right_leg">
<path class="path-0" d="M182.775,404.914C182.520,396.194,193.551,391.767,201.212,391.952C207.377,391.976,216.469,394.440,222.196,397.546C224.440,398.762,227.517,400.747,228.731,402.992C229.590,404.580,228.886,407.250,229.581,408.950C232.240,416.064,236.689,417.587,237.735,422.113C238.682,426.213,236.688,431.222,236.421,436.076C236.356,454.952,236.336,474.596,238.629,492.765C239.745,502.369,242.404,516.241,243.589,525.123C244.659,535.859,238.542,537.531,239.113,543.910C239.206,547.418,246.241,563.847,248.117,568.167C253.054,578.948,258.962,591.028,259.028,602.944C259.094,614.739,241.165,629.528,230.281,631.363C218.000,633.184,183.544,621.308,172.262,615.373C167.076,612.835,158.222,608.943,156.522,602.993C155.133,598.964,159.666,580.657,161.749,576.527C165.028,570.588,167.675,569.470,169.998,561.874C172.733,551.725,172.156,540.389,172.460,529.636C172.458,513.962,176.282,477.832,180.115,463.867C182.294,455.091,186.582,425.287,186.533,416.903C186.555,410.090,183.213,409.513,182.775,404.914M208.062,381.294C202.406,379.297,198.079,373.969,192.092,375.969C189.868,376.924,186.034,379.753,184.453,381.347C168.957,394.591,168.953,407.625,168.939,426.553C168.613,434.219,168.461,442.176,168.555,449.550C168.518,454.645,168.699,459.097,167.779,463.801C167.226,468.084,165.678,472.463,165.124,477.774C164.649,483.743,166.156,490.865,165.463,501.011C164.042,511.090,162.404,520.557,161.948,530.275C161.869,536.099,161.720,549.862,160.798,554.268C158.823,559.818,155.032,565.740,152.502,570.698C148.537,579.713,146.372,589.589,147.064,598.902C147.183,604.477,147.896,611.770,150.716,616.190C154.618,622.304,162.037,625.824,168.204,628.936C179.122,634.373,189.926,636.915,201.994,639.341C206.701,640.324,211.377,641.176,216.346,641.739C217.763,641.683,229.448,642.214,231.732,642.094C241.466,641.017,255.713,631.837,261.624,623.336C263.703,619.972,266.584,615.496,267.418,611.518C268.214,607.711,267.590,603.738,267.805,599.851C268.771,576.553,261.409,566.320,256.678,546.508C254.757,538.459,253.718,521.491,252.875,512.366C251.147,497.097,248.179,482.256,248.137,466.414C248.198,462.882,248.059,458.383,249.779,454.741C251.285,451.402,253.893,449.308,254.598,445.771C255.282,440.836,251.692,425.158,250.646,419.885C250.065,416.212,250.314,411.567,248.983,407.908C245.324,398.592,231.351,388.280,222.034,385.285C217.377,383.621,212.387,383.290,208.062,381.294Z"/>
<path class="path-7" d="M201.212,391.952C207.377,391.976,216.469,394.440,222.196,397.546"/>
<path class="path-7" d="M222.196,397.546C224.440,398.762,227.517,400.747,228.731,402.992"/>
<path class="path-7" d="M228.731,402.992C229.590,404.580,228.886,407.250,229.581,408.950"/>
<path class="path-7" d="M229.581,408.950C232.240,416.064,236.689,417.587,237.735,422.113"/>
<path class="path-7" d="M237.735,422.113C238.682,426.213,236.688,431.222,236.421,436.076"/>
<path class="path-7" d="M236.421,436.076C236.356,454.952,236.336,474.596,238.629,492.765"/>
<path class="path-7" d="M238.629,492.765C239.745,502.369,242.404,516.241,243.589,525.123"/>
<path class="path-7" d="M243.589,525.123C244.659,535.859,238.542,537.531,239.113,543.910"/>
<path class="path-7" d="M239.113,543.910C239.206,547.418,246.241,563.847,248.117,568.167"/>
<path class="path-7" d="M248.117,568.167C253.054,578.948,258.962,591.028,259.028,602.944"/>
<path class="path-7" d="M259.028,602.944C259.094,614.739,241.165,629.528,230.281,631.363"/>
<path class="path-7" d="M230.281,631.363C218.000,633.184,183.544,621.308,172.262,615.373"/>
<path class="path-7" d="M172.262,615.373C167.076,612.835,158.222,608.943,156.522,602.993"/>
<path class="path-7" d="M156.522,602.993C155.133,598.964,159.666,580.657,161.749,576.527"/>
<path class="path-7" d="M161.749,576.527C165.028,570.588,167.675,569.470,169.998,561.874"/>
<path class="path-7" d="M169.998,561.874C172.733,551.725,172.156,540.389,172.460,529.636"/>
<path class="path-7" d="M172.460,529.636C172.458,513.962,176.282,477.832,180.115,463.867"/>
<path class="path-7" d="M180.115,463.867C182.294,455.091,186.582,425.287,186.533,416.903"/>
<path class="path-7" d="M186.533,416.903C186.555,410.090,183.213,409.513,182.775,404.914"/>
<path class="path-7" d="M182.775,404.914C182.520,396.194,193.551,391.767,201.212,391.952"/>
<path class="path-8" d="M201.212,391.952C207.377,391.976,216.469,394.440,222.196,397.546C224.440,398.762,227.517,400.747,228.731,402.992C229.590,404.580,228.886,407.250,229.581,408.950C232.240,416.064,236.689,417.587,237.735,422.113C238.682,426.213,236.688,431.222,236.421,436.076C236.356,454.952,236.336,474.596,238.629,492.765C239.745,502.369,242.404,516.241,243.589,525.123C244.659,535.859,238.542,537.531,239.113,543.910C239.206,547.418,246.241,563.847,248.117,568.167C253.054,578.948,258.962,591.028,259.028,602.944C259.094,614.739,241.165,629.528,230.281,631.363C218.000,633.184,183.544,621.308,172.262,615.373C167.076,612.835,158.222,608.943,156.522,602.993C155.133,598.964,159.666,580.657,161.749,576.527C165.028,570.588,167.675,569.470,169.998,561.874C172.733,551.725,172.156,540.389,172.460,529.636C172.458,513.962,176.282,477.832,180.115,463.867C182.294,455.091,186.582,425.287,186.533,416.903C186.555,410.090,183.213,409.513,182.775,404.914C182.520,396.194,193.551,391.767,201.212,391.952Z"/>
</g>
<g id="right_toe">
<path class="path-0" d="M154.430,657.302C155.771,639.393,160.780,616.009,182.281,611.486C187.230,610.174,194.486,611.818,200.089,612.826C229.805,618.095,238.871,626.908,240.594,657.302C240.869,664.831,242.799,673.737,238.077,680.515C232.501,688.368,201.693,692.773,192.137,692.851C177.324,693.296,165.380,692.914,156.713,678.921C151.624,670.510,153.756,666.473,154.430,657.302M248.412,628.203C239.606,610.570,198.496,599.184,180.198,603.353C152.759,609.766,148.097,633.444,146.178,656.944C145.527,664.238,143.033,672.213,146.390,678.821C148.317,682.614,153.062,687.372,156.228,690.233C171.493,705.229,182.129,702.656,202.080,702.342C213.747,702.353,233.203,701.712,242.590,693.922C249.766,687.380,250.364,680.179,250.677,671.034C250.664,662.206,252.007,634.743,248.412,628.203Z"/>
<path class="path-3" d="M182.281,611.486C187.230,610.174,194.486,611.818,200.089,612.826"/>
<path class="path-3" d="M200.089,612.826C229.805,618.095,238.871,626.908,240.594,657.302"/>
<path class="path-3" d="M240.594,657.302C240.869,664.831,242.799,673.737,238.077,680.515"/>
<path class="path-3" d="M238.077,680.515C232.501,688.368,201.693,692.773,192.137,692.851"/>
<path class="path-3" d="M192.137,692.851C177.324,693.296,165.380,692.914,156.713,678.921"/>
<path class="path-3" d="M156.713,678.921C151.624,670.510,153.756,666.473,154.430,657.302"/>
<path class="path-3" d="M154.430,657.302C155.771,639.393,160.780,616.009,182.281,611.486"/>
<path class="path-4" d="M182.281,611.486C187.230,610.174,194.486,611.818,200.089,612.826C229.805,618.095,238.871,626.908,240.594,657.302C240.869,664.831,242.799,673.737,238.077,680.515C232.501,688.368,201.693,692.773,192.137,692.851C177.324,693.296,165.380,692.914,156.713,678.921C151.624,670.510,153.756,666.473,154.430,657.302C155.771,639.393,160.780,616.009,182.281,611.486Z"/>
</g>
<g id="right_sole">
<path class="path-0" d="M181.386,697.737C183.375,697.914,200.159,697.583,202.394,697.604C204.102,697.636,212.842,698.211,214.307,698.253C215.255,698.293,223.572,698.664,224.199,699.139C223.380,699.379,214.722,700.265,214.199,700.292C213.009,700.376,183.580,699.887,183.185,700.026C182.089,700.010,170.840,698.792,169.605,698.161C170.945,697.303,179.307,697.550,181.386,697.737M228.904,688.427C229.467,689.583,228.322,693.026,226.444,693.372C224.201,693.796,211.512,695.765,208.508,695.084C205.029,694.921,198.163,695.430,195.025,695.333C188.672,695.137,172.211,697.503,167.825,692.951C166.735,691.336,166.835,688.659,167.479,687.805C167.894,687.254,173.578,687.881,176.274,687.891C181.272,687.909,193.153,688.554,198.278,688.536C203.495,688.518,215.323,688.063,220.673,687.721C221.512,687.688,228.062,686.698,228.904,688.427M235.365,684.561C222.431,679.703,212.889,681.594,199.571,681.572C190.707,681.609,172.822,679.310,163.016,684.287C160.365,685.633,155.920,688.117,155.976,691.260C156.024,693.713,159.928,698.635,162.856,700.448C166.304,702.582,173.374,702.338,176.182,702.704C190.487,705.100,208.765,703.945,223.218,703.102C234.353,702.452,237.052,698.204,238.453,692.881C239.131,690.307,240.297,686.342,235.365,684.561Z"/>
<path class="path-24" d="M181.386,697.737C183.375,697.914,200.159,697.583,202.394,697.604"/>
<path class="path-24" d="M202.394,697.604C204.102,697.636,212.842,698.211,214.307,698.253"/>
<path class="path-24" d="M214.307,698.253C215.255,698.293,223.572,698.664,224.199,699.139"/>
<path class="path-24" d="M224.199,699.139C223.380,699.379,214.722,700.265,214.199,700.292"/>
<path class="path-24" d="M214.199,700.292C213.009,700.376,183.580,699.887,183.185,700.026"/>
<path class="path-24" d="M183.185,700.026C182.089,700.010,170.840,698.792,169.605,698.161"/>
<path class="path-24" d="M169.605,698.161C170.945,697.303,179.307,697.550,181.386,697.737"/>
<path class="path-0" d="M181.386,697.737C183.375,697.914,200.159,697.583,202.394,697.604C204.102,697.636,212.842,698.211,214.307,698.253C215.255,698.293,223.572,698.664,224.199,699.139C223.380,699.379,214.722,700.265,214.199,700.292C213.009,700.376,183.580,699.887,183.185,700.026C182.089,700.010,170.840,698.792,169.605,698.161C170.945,697.303,179.307,697.550,181.386,697.737Z"/>
<path class="path-5" d="M176.274,687.891C181.272,687.909,193.153,688.554,198.278,688.536"/>
<path class="path-5" d="M198.278,688.536C203.495,688.518,215.323,688.063,220.673,687.721"/>
<path class="path-5" d="M220.673,687.721C221.512,687.688,228.062,686.698,228.904,688.427"/>
<path class="path-5" d="M228.904,688.427C229.467,689.583,228.322,693.026,226.444,693.372"/>
<path class="path-5" d="M226.444,693.372C224.201,693.796,211.512,695.765,208.508,695.084"/>
<path class="path-5" d="M208.508,695.084C205.029,694.921,198.163,695.430,195.025,695.333"/>
<path class="path-5" d="M195.025,695.333C188.672,695.137,172.211,697.503,167.825,692.951"/>
<path class="path-5" d="M167.825,692.951C166.735,691.336,166.835,688.659,167.479,687.805"/>
<path class="path-5" d="M167.479,687.805C167.894,687.254,173.578,687.881,176.274,687.891"/>
<path class="path-6" d="M176.274,687.891C181.272,687.909,193.153,688.554,198.278,688.536C203.495,688.518,215.323,688.063,220.673,687.721C221.512,687.688,228.062,686.698,228.904,688.427C229.467,689.583,228.322,693.026,226.444,693.372C224.201,693.796,211.512,695.765,208.508,695.084C205.029,694.921,198.163,695.430,195.025,695.333C188.672,695.137,172.211,697.503,167.825,692.951C166.735,691.336,166.835,688.659,167.479,687.805C167.894,687.254,173.578,687.881,176.274,687.891Z"/>
</g>
</g>
<g id="hat_brim">
<path class="path-0" d="M290.425,139.224C294.084,133.235,303.067,116.933,311.052,116.933C316.376,116.933,327.354,126.582,333.009,129.576C338.000,132.571,343.324,135.232,348.979,137.893C352.192,139.562,355.408,141.225,358.627,142.883C372.934,150.203,368.941,156.525,360.623,155.194C341.993,151.865,338.998,153.197,321.033,143.881C318.703,142.883,312.715,139.557,311.717,143.881C310.387,148.872,319.370,153.197,323.029,154.860C329.682,158.521,337.002,162.514,344.987,163.178C347.316,163.512,355.301,162.844,356.631,165.174C358.627,168.501,348.979,177.151,346.983,179.147C343.655,182.142,340.330,185.136,337.002,187.466C332.012,190.791,326.688,193.785,321.033,194.783C310.387,196.115,277.117,180.810,276.119,169.167C275.454,162.513,286.433,145.546,290.425,139.224M323.029,112.609C318.039,108.283,314.379,101.961,307.059,105.289C301.735,107.618,296.081,115.270,292.422,119.262C278.780,135.897,266.471,155.527,267.136,177.151C267.470,190.791,272.127,190.460,283.105,195.781C299.739,204.100,321.033,206.761,338.998,198.445C350.642,193.121,370.938,175.155,376.261,163.178C377.924,159.186,380.918,150.203,378.588,145.546C375.927,139.889,353.636,130.241,346.983,126.582C338.998,122.257,330.016,118.264,323.029,112.609Z"/>
<path class="path-9" d="M311.052,116.933C316.376,116.933,327.354,126.582,333.009,129.576"/>
<path class="path-9" d="M333.009,129.576C338.000,132.571,343.324,135.232,348.979,137.893"/>
<path class="path-9" d="M348.979,137.893C352.192,139.562,355.408,141.225,358.627,142.883"/>
<path class="path-9" d="M358.627,142.883C372.934,150.203,368.941,156.525,360.623,155.194"/>
<path class="path-9" d="M360.623,155.194C341.993,151.865,338.998,153.197,321.033,143.881"/>
<path class="path-9" d="M321.033,143.881C318.703,142.883,312.715,139.557,311.717,143.881"/>
<path class="path-9" d="M311.717,143.881C310.387,148.872,319.370,153.197,323.029,154.860"/>
<path class="path-9" d="M323.029,154.860C329.682,158.521,337.002,162.514,344.987,163.178"/>
<path class="path-9" d="M344.987,163.178C347.316,163.512,355.301,162.844,356.631,165.174"/>
<path class="path-9" d="M356.631,165.174C358.627,168.501,348.979,177.151,346.983,179.147"/>
<path class="path-9" d="M346.983,179.147C343.655,182.142,340.330,185.136,337.002,187.466"/>
<path class="path-9" d="M337.002,187.466C332.012,190.791,326.688,193.785,321.033,194.783"/>
<path class="path-9" d="M321.033,194.783C310.387,196.115,277.117,180.810,276.119,169.167"/>
<path class="path-9" d="M276.119,169.167C275.454,162.513,286.433,145.546,290.425,139.224"/>
<path class="path-9" d="M290.425,139.224C294.084,133.235,303.067,116.933,311.052,116.933"/>
<path class="path-10" d="M311.052,116.933C316.376,116.933,327.354,126.582,333.009,129.576C338.000,132.571,343.324,135.232,348.979,137.893C352.192,139.562,355.408,141.225,358.627,142.883C372.934,150.203,368.941,156.525,360.623,155.194C341.993,151.865,338.998,153.197,321.033,143.881C318.703,142.883,312.715,139.557,311.717,143.881C310.387,148.872,319.370,153.197,323.029,154.860C329.682,158.521,337.002,162.514,344.987,163.178C347.316,163.512,355.301,162.844,356.631,165.174C358.627,168.501,348.979,177.151,346.983,179.147C343.655,182.142,340.330,185.136,337.002,187.466C332.012,190.791,326.688,193.785,321.033,194.783C310.387,196.115,277.117,180.810,276.119,169.167C275.454,162.513,286.433,145.546,290.425,139.224C294.084,133.235,303.067,116.933,311.052,116.933Z"/>
</g>
<g id="hair">
<path class="path-0" d="M183.357,136.483C200.954,124.749,220.906,123.806,241.996,123.120C251.452,122.794,257.886,129.270,265.069,135.626C270.964,141.195,277.299,147.468,283.560,153.313C292.986,162.051,296.930,166.431,300.440,170.614C303.444,173.825,308.105,179.813,311.862,182.674C316.396,186.124,325.422,203.315,327.445,205.266C320.793,207.453,310.356,209.024,305.541,212.830C307.149,218.669,307.424,227.700,307.413,230.409C301.202,230.790,294.008,227.926,282.567,225.752C280.180,232.918,280.142,239.647,275.384,246.902C267.697,244.496,262.345,242.563,252.411,238.043C245.798,243.193,244.261,242.773,233.517,249.212C226.455,244.820,220.838,240.151,213.943,237.253C207.148,240.091,196.403,241.027,192.739,243.925C188.987,236.858,185.547,229.060,182.318,225.662C172.710,227.554,168.576,230.148,161.781,232.559C157.606,227.012,160.654,222.489,156.037,214.349C151.717,213.146,145.049,210.476,139.490,210.322C143.367,205.864,146.319,191.142,152.833,189.327C160.871,187.088,155.875,177.911,160.872,169.755C162.110,167.631,174.016,151.399,175.093,148.739C177.132,144.153,179.361,139.287,183.357,136.483M269.783,123.041C257.623,113.516,232.973,108.192,219.067,111.311C206.306,114.023,193.787,117.926,182.663,125.006C176.433,128.911,169.531,134.686,165.362,140.754C157.036,152.537,144.935,178.372,138.142,190.325C132.704,200.241,127.646,206.923,122.452,212.283C140.007,218.879,145.124,221.586,150.363,222.441C150.613,230.199,157.711,236.027,156.388,244.572C165.209,243.354,170.475,241.177,178.326,239.302C182.258,243.995,184.942,250.348,188.681,256.586C196.418,254.568,204.305,254.940,212.000,249.563C217.496,252.632,226.229,257.403,235.200,262.448C243.544,258.115,245.325,257.880,253.165,252.908C262.619,255.342,272.515,261.315,282.074,260.399C281.484,252.206,287.600,246.647,286.947,241.388C294.168,239.536,316.196,242.966,319.967,242.683C319.803,236.635,316.595,225.026,318.237,217.838C325.064,216.098,330.837,214.510,341.526,209.520C338.121,202.790,331.974,194.414,326.560,189.403C321.990,185.214,318.291,179.689,313.719,175.326C298.212,160.768,292.275,140.745,269.783,123.041Z"/>
<path class="path-11" d="M241.996,123.120C251.452,122.794,257.886,129.270,265.069,135.626"/>
<path class="path-11" d="M265.069,135.626C270.964,141.195,277.299,147.468,283.560,153.313"/>
<path class="path-11" d="M283.560,153.313C292.986,162.051,296.930,166.431,300.440,170.614"/>
<path class="path-11" d="M300.440,170.614C303.444,173.825,308.105,179.813,311.862,182.674"/>
<path class="path-11" d="M311.862,182.674C316.396,186.124,325.422,203.315,327.445,205.266"/>
<path class="path-11" d="M327.445,205.266C320.793,207.453,310.356,209.024,305.541,212.830"/>
<path class="path-11" d="M305.541,212.830C307.149,218.669,307.424,227.700,307.413,230.409"/>
<path class="path-11" d="M307.413,230.409C301.202,230.790,294.008,227.926,282.567,225.752"/>
<path class="path-11" d="M282.567,225.752C280.180,232.918,280.142,239.647,275.384,246.902"/>
<path class="path-11" d="M275.384,246.902C267.697,244.496,262.345,242.563,252.411,238.043"/>
<path class="path-11" d="M252.411,238.043C245.798,243.193,244.261,242.773,233.517,249.212"/>
<path class="path-11" d="M233.517,249.212C226.455,244.820,220.838,240.151,213.943,237.253"/>
<path class="path-11" d="M213.943,237.253C207.148,240.091,196.403,241.027,192.739,243.925"/>
<path class="path-11" d="M192.739,243.925C188.987,236.858,185.547,229.060,182.318,225.662"/>
<path class="path-11" d="M182.318,225.662C172.710,227.554,168.576,230.148,161.781,232.559"/>
<path class="path-11" d="M161.781,232.559C157.606,227.012,160.654,222.489,156.037,214.349"/>
<path class="path-11" d="M156.037,214.349C151.717,213.146,145.049,210.476,139.490,210.322"/>
<path class="path-11" d="M139.490,210.322C143.367,205.864,146.319,191.142,152.833,189.327"/>
<path class="path-11" d="M152.833,189.327C160.871,187.088,155.875,177.911,160.872,169.755"/>
<path class="path-11" d="M160.872,169.755C162.110,167.631,174.016,151.399,175.093,148.739"/>
<path class="path-11" d="M175.093,148.739C177.132,144.153,179.361,139.287,183.357,136.483"/>
<path class="path-11" d="M183.357,136.483C200.954,124.749,220.906,123.806,241.996,123.120"/>
<path class="path-12" d="M241.996,123.120C251.452,122.794,257.886,129.270,265.069,135.626C270.964,141.195,277.299,147.468,283.560,153.313C292.986,162.051,296.930,166.431,300.440,170.614C303.444,173.825,308.105,179.813,311.862,182.674C316.396,186.124,325.422,203.315,327.445,205.266C320.793,207.453,310.356,209.024,305.541,212.830C307.149,218.669,307.424,227.700,307.413,230.409C301.202,230.790,294.008,227.926,282.567,225.752C280.180,232.918,280.142,239.647,275.384,246.902C267.697,244.496,262.345,242.563,252.411,238.043C245.798,243.193,244.261,242.773,233.517,249.212C226.455,244.820,220.838,240.151,213.943,237.253C207.148,240.091,196.403,241.027,192.739,243.925C188.987,236.858,185.547,229.060,182.318,225.662C172.710,227.554,168.576,230.148,161.781,232.559C157.606,227.012,160.654,222.489,156.037,214.349C151.717,213.146,145.049,210.476,139.490,210.322C143.367,205.864,146.319,191.142,152.833,189.327C160.871,187.088,155.875,177.911,160.872,169.755C162.110,167.631,174.016,151.399,175.093,148.739C177.132,144.153,179.361,139.287,183.357,136.483C200.954,124.749,220.906,123.806,241.996,123.120Z"/>
</g>
<g id="clothes">
<path class="path-0" d="M243.664,369.957C239.001,367.882,221.042,359.727,218.163,364.172C215.729,368.190,220.354,369.097,224.409,369.623C228.005,370.090,246.182,378.192,248.649,376.610C253.206,373.612,245.917,370.844,243.664,369.957M191.093,266.179C194.088,253.538,221.036,240.563,234.012,241.561C242.994,242.226,271.274,256.199,275.266,264.517C278.592,271.170,279.590,295.789,279.924,304.107C280.257,319.412,279.980,334.880,282.253,350.019C284.293,360.247,288.071,370.116,292.382,379.614C293.880,384.553,300.152,396.435,296.762,400.990C291.110,409.389,266.585,407.680,257.671,404.954C226.402,396.317,232.093,385.735,201.718,384.001C198.289,383.674,187.137,386.705,184.796,385.377C180.787,382.446,182.461,376.691,183.461,372.016C186.455,360.359,189.766,352.693,191.427,340.038C193.416,324.068,194.088,306.768,194.088,290.134C193.755,284.145,190.429,269.839,191.093,266.179M269.943,247.549C253.640,237.899,237.670,229.915,218.042,235.573C212.718,236.902,186.103,249.877,183.773,253.205C180.115,258.528,183.773,278.821,183.773,286.141C184.107,294.791,184.440,303.773,183.773,312.092C183.442,318.413,182.111,324.069,182.111,330.057C181.777,336.710,182.439,344.029,180.780,350.019C177.456,361.694,163.322,383.844,176.523,393.385C181.762,397.201,190.291,395.378,197.064,396.372C207.955,397.758,219.323,400.813,230.053,403.831C242.952,407.847,253.940,418.152,267.559,419.392C277.061,420.259,308.177,418.375,312.837,409.437C315.926,403.824,305.374,377.188,302.612,370.495C298.552,361.849,293.659,353.350,291.567,344.031C289.269,332.272,289.239,320.410,289.904,308.100C290.237,298.119,291.900,288.471,291.900,278.157C291.567,273.831,292.234,268.510,289.904,264.184C285.912,256.199,277.263,251.873,269.943,247.549Z"/>
<path class="path-13" d="M243.664,369.957C239.001,367.882,221.042,359.727,218.163,364.172"/>
<path class="path-13" d="M218.163,364.172C215.729,368.190,220.354,369.097,224.409,369.623"/>
<path class="path-13" d="M224.409,369.623C228.005,370.090,246.182,378.192,248.649,376.610"/>
<path class="path-13" d="M248.649,376.610C253.206,373.612,245.917,370.844,243.664,369.957"/>
<path class="path-13" d="M191.093,266.179C194.088,253.538,221.036,240.563,234.012,241.561"/>
<path class="path-13" d="M234.012,241.561C242.994,242.226,271.274,256.199,275.266,264.517"/>
<path class="path-13" d="M275.266,264.517C278.592,271.170,279.590,295.789,279.924,304.107"/>
<path class="path-13" d="M279.924,304.107C280.257,319.412,279.980,334.880,282.253,350.019"/>
<path class="path-13" d="M282.253,350.019C284.293,360.247,288.071,370.116,292.382,379.614"/>
<path class="path-13" d="M292.382,379.614C293.880,384.553,300.152,396.435,296.762,400.990"/>
<path class="path-13" d="M296.762,400.990C291.110,409.389,266.585,407.680,257.671,404.954"/>
<path class="path-13" d="M257.671,404.954C226.402,396.317,232.093,385.735,201.718,384.001"/>
<path class="path-13" d="M201.718,384.001C198.289,383.674,187.137,386.705,184.796,385.377"/>
<path class="path-13" d="M184.796,385.377C180.787,382.446,182.461,376.691,183.461,372.016"/>
<path class="path-13" d="M183.461,372.016C186.455,360.359,189.766,352.693,191.427,340.038"/>
<path class="path-13" d="M191.427,340.038C193.416,324.068,194.088,306.768,194.088,290.134"/>
<path class="path-13" d="M194.088,290.134C193.755,284.145,190.429,269.839,191.093,266.179"/>
<path class="path-14" d="M243.664,369.957C239.001,367.882,221.042,359.727,218.163,364.172C215.729,368.190,220.354,369.097,224.409,369.623C228.005,370.090,246.182,378.192,248.649,376.610C253.206,373.612,245.917,370.844,243.664,369.957M191.093,266.179C194.088,253.538,221.036,240.563,234.012,241.561C242.994,242.226,271.274,256.199,275.266,264.517C278.592,271.170,279.590,295.789,279.924,304.107C280.257,319.412,279.980,334.880,282.253,350.019C284.293,360.247,288.071,370.116,292.382,379.614C293.880,384.553,300.152,396.435,296.762,400.990C291.110,409.389,266.585,407.680,257.671,404.954C226.402,396.317,232.093,385.735,201.718,384.001C198.289,383.674,187.137,386.705,184.796,385.377C180.787,382.446,182.461,376.691,183.461,372.016C186.455,360.359,189.766,352.693,191.427,340.038C193.416,324.068,194.088,306.768,194.088,290.134C193.755,284.145,190.429,269.839,191.093,266.179Z"/>
</g>
<g id="neck">
<path class="path-0" d="M229.021,222.597C229.354,219.269,230.353,216.275,234.012,215.942C245.656,213.946,244.657,251.542,234.012,251.542C224.031,251.542,228.356,228.917,229.021,222.597M234.012,206.628C231.351,206.295,228.357,206.959,226.027,208.291C216.711,212.948,218.042,221.599,218.042,230.248C217.708,234.574,218.042,238.567,216.046,242.226C214.383,245.553,209.724,248.879,209.724,252.540C210.057,262.521,237.006,262.521,243.993,262.188C246.653,262.187,255.636,263.185,256.634,259.526C256.634,258.528,249.981,246.883,248.983,242.226C245.989,228.252,255.305,207.626,234.012,206.628Z"/>
<path class="path-15" d="M234.012,215.942C245.656,213.946,244.657,251.542,234.012,251.542"/>
<path class="path-15" d="M234.012,251.542C224.031,251.542,228.356,228.917,229.021,222.597"/>
<path class="path-15" d="M229.021,222.597C229.354,219.269,230.353,216.275,234.012,215.942"/>
<path class="path-16" d="M234.012,215.942C245.656,213.946,244.657,251.542,234.012,251.542C224.031,251.542,228.356,228.917,229.021,222.597C229.354,219.269,230.353,216.275,234.012,215.942Z"/>
</g>
<g id="layer_head">
<g id="right_ear">
<path class="path-0" d="M146.182,194.200C134.911,196.257,120.050,159.311,136.103,163.191C140.869,164.332,143.457,172.802,144.347,176.429C145.983,182.720,153.906,192.830,146.182,194.200M142.181,151.257C138.808,149.353,134.724,148.508,131.219,150.160C121.364,153.009,117.498,165.128,119.119,175.311C121.241,187.769,133.137,202.903,144.535,205.740C147.674,206.539,154.146,208.788,157.238,207.324C163.811,203.697,158.752,193.452,156.995,187.829C155.064,181.142,147.353,155.475,142.181,151.257Z"/>
<path class="path-15" d="M136.103,163.191C140.869,164.332,143.457,172.802,144.347,176.429"/>
<path class="path-15" d="M144.347,176.429C145.983,182.720,153.906,192.830,146.182,194.200"/>
<path class="path-15" d="M146.182,194.200C134.911,196.257,120.050,159.311,136.103,163.191"/>
<path class="path-16" d="M136.103,163.191C140.869,164.332,143.457,172.802,144.347,176.429C145.983,182.720,153.906,192.830,146.182,194.200C134.911,196.257,120.050,159.311,136.103,163.191Z"/>
</g>
<g id="face_Mask">
<g id="face">
<path class="path-0" d="M159.639,105.190C168.126,94.741,200.894,87.556,214.534,85.560C229.839,83.564,245.475,85.893,260.446,90.550C265.770,92.215,273.517,94.092,278.079,97.870C285.621,104.164,289.468,115.566,292.117,124.625C294.198,131.115,298.229,139.570,296.878,145.867C291.034,173.120,285.316,185.298,280.150,193.037C273.504,202.992,261.251,207.252,250.608,212.503C234.792,220.028,218.507,224.427,209.898,224.023C197.419,223.437,170.772,215.271,162.200,206.932C154.510,199.167,154.256,188.317,151.942,178.110C149.731,169.583,146.960,156.539,145.945,147.968C144.800,136.796,152.654,113.711,159.639,105.190M282.096,90.194C268.557,77.887,232.211,75.163,214.577,77.807C206.258,78.797,198.272,79.455,190.618,81.446C184.959,83.108,179.964,85.767,174.636,87.430C162.990,91.754,158.178,90.315,150.348,101.080C144.725,108.615,136.751,138.256,136.910,147.499C137.152,154.471,140.723,170.947,142.186,178.936C143.852,188.339,145.902,201.261,150.965,208.958C155.426,215.529,161.409,220.110,171.548,224.694C183.784,230.225,197.872,233.933,211.647,235.151C219.772,236.373,235.539,231.899,256.796,221.094C268.299,215.065,279.960,208.459,287.547,196.858C295.743,184.326,302.483,166.569,308.126,145.423C313.438,125.516,290.430,97.606,282.096,90.194Z"/>
<path class="path-15" d="M214.534,85.560C229.839,83.564,245.475,85.893,260.446,90.550"/>
<path class="path-15" d="M260.446,90.550C265.770,92.215,273.517,94.092,278.079,97.870"/>
<path class="path-15" d="M278.079,97.870C285.621,104.164,289.468,115.566,292.117,124.625"/>
<path class="path-15" d="M292.117,124.625C294.198,131.115,298.229,139.570,296.878,145.867"/>
<path class="path-15" d="M296.878,145.867C291.034,173.120,285.316,185.298,280.150,193.037"/>
<path class="path-15" d="M280.150,193.037C273.504,202.992,261.251,207.252,250.608,212.503"/>
<path class="path-15" d="M250.608,212.503C234.792,220.028,218.507,224.427,209.898,224.023"/>
<path class="path-15" d="M209.898,224.023C197.419,223.437,170.772,215.271,162.200,206.932"/>
<path class="path-15" d="M162.200,206.932C154.510,199.167,154.256,188.317,151.942,178.110"/>
<path class="path-15" d="M151.942,178.110C149.731,169.583,146.960,156.539,145.945,147.968"/>
<path class="path-15" d="M145.945,147.968C144.800,136.796,152.654,113.711,159.639,105.190"/>
<path class="path-15" d="M159.639,105.190C168.126,94.741,200.894,87.556,214.534,85.560"/>
<path class="path-16" d="M214.534,85.560C229.839,83.564,245.475,85.893,260.446,90.550C265.770,92.215,273.517,94.092,278.079,97.870C285.621,104.164,289.468,115.566,292.117,124.625C294.198,131.115,298.229,139.570,296.878,145.867C291.034,173.120,285.316,185.298,280.150,193.037C273.504,202.992,261.251,207.252,250.608,212.503C234.792,220.028,218.507,224.427,209.898,224.023C197.419,223.437,170.772,215.271,162.200,206.932C154.510,199.167,154.256,188.317,151.942,178.110C149.731,169.583,146.960,156.539,145.945,147.968C144.800,136.796,152.654,113.711,159.639,105.190C168.126,94.741,200.894,87.556,214.534,85.560Z"/>
</g>
</g>
<mask id="mask_target" style="mask-type:alpha;">
<use xlink:href="#face_Mask"/>
</mask>
<g id="mouse">
<path class="path-0" d="M212.391,214.391C217.595,215.495,217.679,220.248,217.205,220.755C216.938,221.041,215.815,220.090,212.855,219.603C207.249,218.681,204.543,219.854,204.346,219.140C204.129,218.357,206.298,213.099,212.391,214.391Z"/>
</g>
<g id="layer_eyes_Mtarget" mask="url(#mask_target)">
<g id="eyes">
<mask style="mask-type:alpha;" id="f3906406-f197-4bf1-91d8-744c09cca836">
<use xlink:href="#cmn_f3906406-f197-4bf1-91d8-744c09cca836"/>
</mask>
<g id="cmn_f3906406-f197-4bf1-91d8-744c09cca836">
<path class="path-0" d="M182.668,175.077C184.981,184.741,178.634,192.423,171.390,191.991C165.634,191.542,162.275,185.659,160.487,180.032C159.260,176.649,154.939,160.674,159.518,163.167C162.373,164.722,181.941,172.037,182.668,175.077M189.989,178.364C190.588,176.801,191.363,174.442,190.843,172.851C190.336,171.299,188.654,169.136,187.003,168.993C182.658,168.519,168.421,160.771,163.013,158.544C158.857,156.901,148.399,150.578,144.945,154.110C140.814,158.213,146.965,161.302,148.987,169.164C152.617,183.277,163.921,199.604,175.003,198.433C186.330,197.236,187.300,185.380,189.989,178.364M233.844,189.275C226.490,189.079,216.522,183.536,216.842,172.079C216.933,168.808,230.347,164.072,236.366,161.075C242.598,157.972,254.457,151.708,257.646,151.815C261.138,152.354,259.594,155.400,259.671,165.054C259.751,175.005,246.845,189.621,233.844,189.275M266.549,171.373C270.335,159.560,270.032,143.271,267.717,142.169C262.534,139.701,248.931,149.101,241.024,152.430C231.243,156.549,215.611,165.380,208.889,167.226C206.763,167.892,204.824,168.375,204.485,169.880C203.849,172.711,209.107,174.832,210.962,177.063C214.011,180.731,215.614,186.956,220.574,189.726C230.961,195.956,238.579,194.655,250.418,190.307C257.978,187.553,264.336,178.280,266.549,171.373Z"/>
<path class="path-17" d="M257.646,151.815C261.138,152.354,259.594,155.400,259.671,165.054"/>
<path class="path-17" d="M259.671,165.054C259.751,175.005,246.845,189.621,233.844,189.275"/>
<path class="path-17" d="M233.844,189.275C226.490,189.079,216.522,183.536,216.842,172.079"/>
<path class="path-17" d="M216.842,172.079C216.933,168.808,230.347,164.072,236.366,161.075"/>
<path class="path-17" d="M236.366,161.075C242.598,157.972,254.457,151.708,257.646,151.815"/>
<path class="path-18" d="M257.646,151.815C261.138,152.354,259.594,155.400,259.671,165.054C259.751,175.005,246.845,189.621,233.844,189.275C226.490,189.079,216.522,183.536,216.842,172.079C216.933,168.808,230.347,164.072,236.366,161.075C242.598,157.972,254.457,151.708,257.646,151.815Z"/>
<path class="path-17" d="M159.518,163.167C162.373,164.722,181.941,172.037,182.668,175.077"/>
<path class="path-17" d="M182.668,175.077C184.981,184.741,178.634,192.423,171.390,191.991"/>
<path class="path-17" d="M171.390,191.991C165.634,191.542,162.275,185.659,160.487,180.032"/>
<path class="path-17" d="M160.487,180.032C159.260,176.649,154.939,160.674,159.518,163.167"/>
<path class="path-18" d="M159.518,163.167C162.373,164.722,181.941,172.037,182.668,175.077C184.981,184.741,178.634,192.423,171.390,191.991C165.634,191.542,162.275,185.659,160.487,180.032C159.260,176.649,154.939,160.674,159.518,163.167Z"/>
</g>
</g>
<g id="pupil">
<path class="path-0" d="M217.705,166.534C220.090,165.970,222.872,169.625,223.543,178.440C223.974,184.105,222.819,186.407,221.263,186.652C219.374,186.949,217.718,184.279,216.434,177.502C215.065,170.269,215.719,167.004,217.705,166.534Z" mask="url(#f3906406-f197-4bf1-91d8-744c09cca836)"/>
<path class="path-0" d="M162.120,167.112C164.245,166.713,165.904,170.110,167.249,178.053C168.232,183.855,168.019,186.448,166.491,186.847C164.952,187.248,163.181,185.165,161.525,179.476C159.218,171.553,159.943,167.520,162.120,167.112Z" mask="url(#f3906406-f197-4bf1-91d8-744c09cca836)"/>
</g>
</g>
<g id="hat">
<path class="path-0" d="M297.488,126.448C299.647,127.494,302.421,130.100,302.833,132.752C304.390,139.199,293.290,139.255,289.878,139.648C283.561,139.741,276.963,139.329,270.929,139.153C265.116,139.509,259.285,139.398,253.462,139.529C240.212,138.798,227.028,137.348,213.782,136.596C200.525,136.365,187.708,135.686,174.047,135.402C172.341,135.413,143.291,138.490,138.069,136.104C127.302,131.300,137.465,122.548,136.864,117.380C136.744,114.331,130.285,113.523,131.870,108.233C133.328,103.633,149.188,99.488,153.994,98.353C165.270,95.629,176.989,92.539,189.016,91.110C204.836,89.319,220.455,90.261,236.474,89.531C253.444,88.851,290.072,94.073,301.760,110.798C308.223,119.866,290.357,111.860,288.385,111.442C282.239,108.676,259.200,99.723,268.465,110.265C273.664,117.499,290.482,122.315,297.488,126.448M182.192,84.437C171.144,85.835,161.003,86.607,150.577,88.862C146.331,89.769,141.353,91.615,137.296,90.670C128.439,88.735,139.629,66.243,143.600,61.075C158.346,42.367,188.501,33.094,213.533,33.659C259.617,34.697,277.489,43.705,291.740,60.094C296.226,64.880,311.077,88.054,302.009,94.024C298.712,95.899,292.823,92.311,289.938,90.920C279.938,86.359,227.315,78.730,182.192,84.437M255.094,29.081C242.244,26.200,236.415,22.050,221.422,22.482C190.411,23.694,151.445,28.869,132.610,57.734C126.678,67.053,125.713,77.562,123.213,87.533C121.313,94.966,116.621,100.492,117.040,108.064C117.637,115.306,121.092,117.028,122.845,122.749C124.892,128.834,122.509,131.443,123.679,135.404C125.879,146.761,136.307,147.397,145.874,147.778C150.573,147.966,167.922,147.669,177.370,147.618C188.628,147.557,203.639,147.361,214.897,147.400C224.862,147.434,238.147,147.814,248.112,147.815C257.327,147.815,269.626,147.947,278.827,147.440C288.405,146.912,309.508,145.428,310.648,144.302C312.576,142.431,316.882,123.899,317.106,120.409C317.342,116.721,315.719,112.927,316.180,107.012C316.902,93.944,317.543,82.016,311.568,69.100C300.685,46.102,276.705,34.312,255.094,29.081Z"/>
<path class="path-19" d="M236.474,89.531C253.444,88.851,290.072,94.073,301.760,110.798"/>
<path class="path-19" d="M301.760,110.798C308.223,119.866,290.357,111.860,288.385,111.442"/>
<path class="path-19" d="M288.385,111.442C282.239,108.676,259.200,99.723,268.465,110.265"/>
<path class="path-19" d="M268.465,110.265C273.664,117.499,290.482,122.315,297.488,126.448"/>
<path class="path-19" d="M297.488,126.448C299.647,127.494,302.421,130.100,302.833,132.752"/>
<path class="path-19" d="M302.833,132.752C304.390,139.199,293.290,139.255,289.878,139.648"/>
<path class="path-19" d="M289.878,139.648C283.561,139.741,276.963,139.329,270.929,139.153"/>
<path class="path-19" d="M270.929,139.153C265.116,139.509,259.285,139.398,253.462,139.529"/>
<path class="path-19" d="M253.462,139.529C240.212,138.798,227.028,137.348,213.782,136.596"/>
<path class="path-19" d="M213.782,136.596C200.525,136.365,187.708,135.686,174.047,135.402"/>
<path class="path-19" d="M174.047,135.402C172.341,135.413,143.291,138.490,138.069,136.104"/>
<path class="path-19" d="M138.069,136.104C127.302,131.300,137.465,122.548,136.864,117.380"/>
<path class="path-19" d="M136.864,117.380C136.744,114.331,130.285,113.523,131.870,108.233"/>
<path class="path-19" d="M131.870,108.233C133.328,103.633,149.188,99.488,153.994,98.353"/>
<path class="path-19" d="M153.994,98.353C165.270,95.629,176.989,92.539,189.016,91.110"/>
<path class="path-19" d="M189.016,91.110C204.836,89.319,220.455,90.261,236.474,89.531"/>
<path class="path-20" d="M236.474,89.531C253.444,88.851,290.072,94.073,301.760,110.798C308.223,119.866,290.357,111.860,288.385,111.442C282.239,108.676,259.200,99.723,268.465,110.265C273.664,117.499,290.482,122.315,297.488,126.448C299.647,127.494,302.421,130.100,302.833,132.752C304.390,139.199,293.290,139.255,289.878,139.648C283.561,139.741,276.963,139.329,270.929,139.153C265.116,139.509,259.285,139.398,253.462,139.529C240.212,138.798,227.028,137.348,213.782,136.596C200.525,136.365,187.708,135.686,174.047,135.402C172.341,135.413,143.291,138.490,138.069,136.104C127.302,131.300,137.465,122.548,136.864,117.380C136.744,114.331,130.285,113.523,131.870,108.233C133.328,103.633,149.188,99.488,153.994,98.353C165.270,95.629,176.989,92.539,189.016,91.110C204.836,89.319,220.455,90.261,236.474,89.531Z"/>
<path class="path-9" d="M213.533,33.659C259.617,34.697,277.489,43.705,291.740,60.094"/>
<path class="path-9" d="M291.740,60.094C296.226,64.880,311.077,88.054,302.009,94.024"/>
<path class="path-9" d="M302.009,94.024C298.712,95.899,292.823,92.311,289.938,90.920"/>
<path class="path-9" d="M289.938,90.920C279.938,86.359,227.315,78.730,182.192,84.437"/>
<path class="path-9" d="M182.192,84.437C171.144,85.835,161.003,86.607,150.577,88.862"/>
<path class="path-9" d="M150.577,88.862C146.331,89.769,141.353,91.615,137.296,90.670"/>
<path class="path-9" d="M137.296,90.670C128.439,88.735,139.629,66.243,143.600,61.075"/>
<path class="path-9" d="M143.600,61.075C158.346,42.367,188.501,33.094,213.533,33.659"/>
<path class="path-10" d="M213.533,33.659C259.617,34.697,277.489,43.705,291.740,60.094C296.226,64.880,311.077,88.054,302.009,94.024C298.712,95.899,292.823,92.311,289.938,90.920C279.938,86.359,227.315,78.730,182.192,84.437C171.144,85.835,161.003,86.607,150.577,88.862C146.331,89.769,141.353,91.615,137.296,90.670C128.439,88.735,139.629,66.243,143.600,61.075C158.346,42.367,188.501,33.094,213.533,33.659Z"/>
</g>
<g id="left_ear">
<path class="path-0" d="M285.079,185.526C283.625,180.692,286.861,154.546,289.096,150.784C294.747,140.993,311.860,149.971,315.373,158.078C319.184,167.394,309.668,182.107,301.958,188.577C294.488,194.654,287.567,193.493,285.079,185.526M328.394,161.292C326.928,146.890,309.550,131.942,296.798,138.547C281.331,146.559,287.362,169.307,285.145,183.554C284.663,187.305,282.141,191.202,283.002,194.695C285.265,204.569,295.556,205.746,304.046,198.052C313.616,189.197,329.378,175.111,328.394,161.292Z"/>
<path class="path-15" d="M289.096,150.784C294.747,140.993,311.860,149.971,315.373,158.078"/>
<path class="path-15" d="M315.373,158.078C319.184,167.394,309.668,182.107,301.958,188.577"/>
<path class="path-15" d="M301.958,188.577C294.488,194.654,287.567,193.493,285.079,185.526"/>
<path class="path-15" d="M285.079,185.526C283.625,180.692,286.861,154.546,289.096,150.784"/>
<path class="path-16" d="M289.096,150.784C294.747,140.993,311.860,149.971,315.373,158.078C319.184,167.394,309.668,182.107,301.958,188.577C294.488,194.654,287.567,193.493,285.079,185.526C283.625,180.692,286.861,154.546,289.096,150.784Z"/>
</g>
<g id="earrings">
<path class="path-0" d="M307.073,206.025C298.306,209.825,296.461,191.092,300.016,191.448C304.997,193.181,311.771,201.969,307.073,206.025M316.459,197.760C309.732,197.994,306.727,188.981,306.220,185.131C313.788,186.851,323.283,192.547,316.459,197.760M326.513,193.863C323.969,185.798,311.972,181.101,304.166,177.893C301.319,176.722,293.699,186.867,293.368,190.087C292.330,194.107,294.442,216.103,308.119,213.372C313.787,211.978,328.560,200.355,326.513,193.863Z"/>
<path class="path-21" d="M306.220,185.131C313.788,186.851,323.283,192.547,316.459,197.760"/>
<path class="path-21" d="M316.459,197.760C309.732,197.994,306.727,188.981,306.220,185.131"/>
<path class="path-22" d="M306.220,185.131C313.788,186.851,323.283,192.547,316.459,197.760C309.732,197.994,306.727,188.981,306.220,185.131Z"/>
<path class="path-21" d="M300.016,191.448C304.997,193.181,311.771,201.969,307.073,206.025"/>
<path class="path-21" d="M307.073,206.025C298.306,209.825,296.461,191.092,300.016,191.448"/>
<path class="path-22" d="M300.016,191.448C304.997,193.181,311.771,201.969,307.073,206.025C298.306,209.825,296.461,191.092,300.016,191.448Z"/>
</g>
</g>
<g id="jacket">
<path class="path-0" d="M202.406,270.837C205.064,275.164,202.389,285.477,202.385,290.134C200.372,307.110,197.363,323.371,197.694,340.064C197.893,344.038,196.684,350.998,194.762,355.208C193.385,358.225,190.827,362.788,188.072,364.011C184.666,365.463,183.227,358.701,182.301,355.862C181.023,351.943,182.138,344.686,182.385,342.065C183.206,336.859,185.759,326.768,185.616,320.122C185.526,313.596,182.025,307.336,181.364,300.170C180.433,294.806,179.031,288.476,177.923,282.506C177.967,279.346,178.514,277.391,178.584,275.158C178.251,269.691,180.884,268.287,186.115,267.838C190.955,267.768,200.746,265.518,202.406,270.837M258.673,280.432C260.346,276.790,286.164,259.310,289.521,257.572C297.894,253.731,302.007,263.098,301.915,268.520C301.881,277.133,287.133,305.536,288.913,311.458C289.554,314.147,291.765,315.353,293.487,316.984C306.603,330.681,300.393,322.472,313.879,328.505C320.161,331.378,332.118,339.726,337.469,343.877C340.740,346.741,348.054,353.205,349.921,356.831C351.119,359.764,352.367,365.214,347.909,366.542C346.467,367.172,330.587,366.573,327.891,366.710C315.513,366.669,302.083,367.667,291.668,359.392C288.314,356.417,285.690,352.045,283.035,348.040C273.438,334.066,266.797,318.454,261.884,302.159C259.904,296.474,256.646,286.436,258.673,280.432M275.245,255.283C272.201,258.410,266.139,263.460,263.971,264.475C256.093,267.659,254.544,258.156,254.024,252.212C253.759,247.067,256.729,239.779,259.807,235.435C262.517,231.610,266.890,226.371,271.984,225.643C278.401,224.492,289.282,231.284,287.914,238.577C287.500,241.932,279.633,250.777,275.245,255.283M193.206,233.737C198.127,237.679,201.713,242.386,200.843,246.857C200.025,251.064,196.959,253.408,189.763,255.866C178.444,259.731,169.523,242.399,173.045,235.261C175.729,229.822,186.890,228.677,193.206,233.737M364.433,361.828C360.487,355.683,358.347,351.154,352.976,345.742C344.941,337.801,335.334,328.861,325.470,323.471C315.718,318.465,308.065,320.048,301.455,309.552C295.588,300.586,299.528,290.410,300.923,280.222C301.271,276.523,301.961,257.635,302.044,254.247C301.606,250.827,302.039,247.377,301.537,244.244C301.045,240.383,301.552,236.260,300.227,232.600C298.243,225.955,291.270,222.959,285.957,219.637C278.650,215.648,272.335,213.766,264.032,215.653C254.917,217.736,251.797,227.880,249.224,234.626C245.303,244.904,247.383,260.271,247.777,271.263C248.003,277.553,249.060,286.272,249.943,292.130C253.006,314.861,276.209,363.253,297.556,372.046C302.252,374.345,333.884,378.045,343.775,377.861C349.782,377.779,352.764,377.703,358.368,379.353C361.102,380.274,367.903,382.608,370.299,379.796C373.932,375.804,366.567,365.155,364.433,361.828M207.079,233.560C203.773,227.813,198.316,218.269,191.534,217.850C185.150,217.662,175.446,218.983,169.671,222.376C166.183,224.425,160.907,228.214,160.535,232.294C159.842,238.373,162.412,245.632,165.488,250.322C167.264,253.030,171.581,254.948,173.670,257.363C174.761,258.696,178.812,266.037,179.540,268.044C183.537,278.178,179.136,290.193,178.539,299.666C178.042,307.554,176.727,318.020,176.091,325.898C175.363,334.916,174.730,346.146,174.051,355.987C173.770,358.271,173.721,363.365,173.971,366.513C174.232,369.791,174.122,375.911,175.794,377.320C176.642,378.035,186.854,379.444,191.020,377.570C195.244,375.669,198.592,375.455,201.054,365.836C203.869,353.640,205.734,342.524,206.084,329.868C206.115,308.368,212.492,279.323,211.756,266.184C211.419,260.173,212.484,256.176,211.234,247.792C210.611,244.328,209.297,237.416,207.079,233.560Z"/>
<path class="path-1" d="M289.521,257.572C297.894,253.731,302.007,263.098,301.915,268.520"/>
<path class="path-1" d="M301.915,268.520C301.881,277.133,287.133,305.536,288.913,311.458"/>
<path class="path-1" d="M288.913,311.458C289.554,314.147,291.765,315.353,293.487,316.984"/>
<path class="path-1" d="M293.487,316.984C306.603,330.681,300.393,322.472,313.879,328.505"/>
<path class="path-1" d="M313.879,328.505C320.161,331.378,332.118,339.726,337.469,343.877"/>
<path class="path-1" d="M337.469,343.877C340.740,346.741,348.054,353.205,349.921,356.831"/>
<path class="path-1" d="M349.921,356.831C351.119,359.764,352.367,365.214,347.909,366.542"/>
<path class="path-1" d="M347.909,366.542C346.467,367.172,330.587,366.573,327.891,366.710"/>
<path class="path-1" d="M327.891,366.710C315.513,366.669,302.083,367.667,291.668,359.392"/>
<path class="path-1" d="M291.668,359.392C288.314,356.417,285.690,352.045,283.035,348.040"/>
<path class="path-1" d="M283.035,348.040C273.438,334.066,266.797,318.454,261.884,302.159"/>
<path class="path-1" d="M261.884,302.159C259.904,296.474,256.646,286.436,258.673,280.432"/>
<path class="path-1" d="M258.673,280.432C260.346,276.790,286.164,259.310,289.521,257.572"/>
<path class="path-2" d="M289.521,257.572C297.894,253.731,302.007,263.098,301.915,268.520C301.881,277.133,287.133,305.536,288.913,311.458C289.554,314.147,291.765,315.353,293.487,316.984C306.603,330.681,300.393,322.472,313.879,328.505C320.161,331.378,332.118,339.726,337.469,343.877C340.740,346.741,348.054,353.205,349.921,356.831C351.119,359.764,352.367,365.214,347.909,366.542C346.467,367.172,330.587,366.573,327.891,366.710C315.513,366.669,302.083,367.667,291.668,359.392C288.314,356.417,285.690,352.045,283.035,348.040C273.438,334.066,266.797,318.454,261.884,302.159C259.904,296.474,256.646,286.436,258.673,280.432C260.346,276.790,286.164,259.310,289.521,257.572Z"/>
<path class="path-1" d="M186.115,267.838C190.955,267.768,200.746,265.518,202.406,270.837"/>
<path class="path-1" d="M202.406,270.837C205.064,275.164,202.389,285.477,202.385,290.134"/>
<path class="path-1" d="M202.385,290.134C200.372,307.110,197.363,323.371,197.694,340.064"/>
<path class="path-1" d="M197.694,340.064C197.893,344.038,196.684,350.998,194.762,355.208"/>
<path class="path-1" d="M194.762,355.208C193.385,358.225,190.827,362.788,188.072,364.011"/>
<path class="path-1" d="M188.072,364.011C184.666,365.463,183.227,358.701,182.301,355.862"/>
<path class="path-1" d="M182.301,355.862C181.023,351.943,182.138,344.686,182.385,342.065"/>
<path class="path-1" d="M182.385,342.065C183.206,336.859,185.759,326.768,185.616,320.122"/>
<path class="path-1" d="M185.616,320.122C185.526,313.596,182.025,307.336,181.364,300.170"/>
<path class="path-1" d="M181.364,300.170C180.433,294.806,179.031,288.476,177.923,282.506"/>
<path class="path-1" d="M177.923,282.506C177.967,279.346,178.514,277.391,178.584,275.158"/>
<path class="path-1" d="M178.584,275.158C178.251,269.691,180.884,268.287,186.115,267.838"/>
<path class="path-2" d="M186.115,267.838C190.955,267.768,200.746,265.518,202.406,270.837C205.064,275.164,202.389,285.477,202.385,290.134C200.372,307.110,197.363,323.371,197.694,340.064C197.893,344.038,196.684,350.998,194.762,355.208C193.385,358.225,190.827,362.788,188.072,364.011C184.666,365.463,183.227,358.701,182.301,355.862C181.023,351.943,182.138,344.686,182.385,342.065C183.206,336.859,185.759,326.768,185.616,320.122C185.526,313.596,182.025,307.336,181.364,300.170C180.433,294.806,179.031,288.476,177.923,282.506C177.967,279.346,178.514,277.391,178.584,275.158C178.251,269.691,180.884,268.287,186.115,267.838Z"/>
<path class="path-1" d="M271.984,225.643C278.401,224.492,289.282,231.284,287.914,238.577"/>
<path class="path-1" d="M287.914,238.577C287.500,241.932,279.633,250.777,275.245,255.283"/>
<path class="path-1" d="M275.245,255.283C272.201,258.410,266.139,263.460,263.971,264.475"/>
<path class="path-1" d="M263.971,264.475C256.093,267.659,254.544,258.156,254.024,252.212"/>
<path class="path-1" d="M254.024,252.212C253.759,247.067,256.729,239.779,259.807,235.435"/>
<path class="path-1" d="M259.807,235.435C262.517,231.610,266.890,226.371,271.984,225.643"/>
<path class="path-2" d="M271.984,225.643C278.401,224.492,289.282,231.284,287.914,238.577C287.500,241.932,279.633,250.777,275.245,255.283C272.201,258.410,266.139,263.460,263.971,264.475C256.093,267.659,254.544,258.156,254.024,252.212C253.759,247.067,256.729,239.779,259.807,235.435C262.517,231.610,266.890,226.371,271.984,225.643Z"/>
<path class="path-1" d="M193.206,233.737C198.127,237.679,201.713,242.386,200.843,246.857"/>
<path class="path-1" d="M200.843,246.857C200.025,251.064,196.959,253.408,189.763,255.866"/>
<path class="path-1" d="M189.763,255.866C178.444,259.731,169.523,242.399,173.045,235.261"/>
<path class="path-1" d="M173.045,235.261C175.729,229.822,186.890,228.677,193.206,233.737"/>
<path class="path-2" d="M193.206,233.737C198.127,237.679,201.713,242.386,200.843,246.857C200.025,251.064,196.959,253.408,189.763,255.866C178.444,259.731,169.523,242.399,173.045,235.261C175.729,229.822,186.890,228.677,193.206,233.737Z"/>
</g>
<g id="left_arm">
<path class="path-0" d="M290.921,459.790C287.737,454.528,286.710,445.759,294.232,443.566C299.519,441.981,323.218,447.134,327.167,451.087C334.079,457.348,330.074,471.823,321.510,475.113C311.530,478.434,296.122,468.183,290.921,459.790M279.516,276.423C280.393,273.226,288.864,263.064,293.897,264.184C296.819,264.834,298.222,269.839,299.220,272.502C301.881,280.818,304.543,289.469,306.872,298.119C313.194,320.741,317.488,343.372,322.177,365.988C323.852,375.306,323.914,387.609,327.241,395.931C331.220,405.551,337.496,402.268,340.474,408.573C341.801,411.569,341.140,417.224,343.136,421.881C346.130,429.201,351.785,433.194,354.446,437.851C356.111,440.512,356.772,443.485,353.117,444.173C351.123,445.185,345.782,444.266,343.782,444.285C337.095,442.575,330.413,440.859,323.746,439.091C314.768,437.114,287.547,435.613,282.899,429.626C275.900,420.278,286.872,409.268,288.205,399.924C288.869,396.929,292.188,352.967,291.567,350.019C290.901,343.164,287.387,337.131,285.841,330.057C284.214,320.430,282.539,310.147,281.179,300.115C280.223,291.877,276.733,285.067,279.516,276.423M305.541,254.536C303.213,249.877,295.893,241.561,289.904,242.890C284.914,244.222,284.249,250.210,283.582,254.203C281.920,264.184,279.924,272.502,279.924,282.149C279.590,289.136,280.257,295.458,280.921,302.111C281.586,311.427,279.590,329.392,279.924,340.038C279.924,349.686,282.253,359.667,281.586,367.985C279.590,387.613,271.273,406.246,271.938,425.874C271.939,435.855,274.600,435.855,276.929,443.840C278.592,449.828,277.263,456.150,279.590,461.805C285.579,476.776,302.880,490.416,319.847,487.091C335.483,484.096,336.150,467.129,344.466,458.146C351.786,450.161,366.424,454.154,368.420,445.835C370.416,438.849,360.762,431.202,357.110,425.874C349.813,415.900,355.479,413.578,351.842,405.931C349.197,400.278,341.584,395.271,337.924,387.965C335.921,384.631,334.887,378.306,333.543,373.973C330.859,363.996,327.859,352.681,326.187,342.034C324.512,329.724,324.176,318.745,320.845,306.103C318.181,295.458,310.200,262.852,305.541,254.536Z"/>
<path class="path-1" d="M293.897,264.184C296.819,264.834,298.222,269.839,299.220,272.502"/>
<path class="path-1" d="M299.220,272.502C301.881,280.818,304.543,289.469,306.872,298.119"/>
<path class="path-1" d="M306.872,298.119C313.194,320.741,317.488,343.372,322.177,365.988"/>
<path class="path-1" d="M322.177,365.988C323.852,375.306,323.914,387.609,327.241,395.931"/>
<path class="path-1" d="M327.241,395.931C331.220,405.551,337.496,402.268,340.474,408.573"/>
<path class="path-1" d="M340.474,408.573C341.801,411.569,341.140,417.224,343.136,421.881"/>
<path class="path-1" d="M343.136,421.881C346.130,429.201,351.785,433.194,354.446,437.851"/>
<path class="path-1" d="M354.446,437.851C356.111,440.512,356.772,443.485,353.117,444.173"/>
<path class="path-1" d="M353.117,444.173C351.123,445.185,345.782,444.266,343.782,444.285"/>
<path class="path-1" d="M343.782,444.285C337.095,442.575,330.413,440.859,323.746,439.091"/>
<path class="path-1" d="M323.746,439.091C314.768,437.114,287.547,435.613,282.899,429.626"/>
<path class="path-1" d="M282.899,429.626C275.900,420.278,286.872,409.268,288.205,399.924"/>
<path class="path-1" d="M288.205,399.924C288.869,396.929,292.188,352.967,291.567,350.019"/>
<path class="path-1" d="M291.567,350.019C290.901,343.164,287.387,337.131,285.841,330.057"/>
<path class="path-1" d="M285.841,330.057C284.214,320.430,282.539,310.147,281.179,300.115"/>
<path class="path-1" d="M281.179,300.115C280.223,291.877,276.733,285.067,279.516,276.423"/>
<path class="path-1" d="M279.516,276.423C280.393,273.226,288.864,263.064,293.897,264.184"/>
<path class="path-2" d="M293.897,264.184C296.819,264.834,298.222,269.839,299.220,272.502C301.881,280.818,304.543,289.469,306.872,298.119C313.194,320.741,317.488,343.372,322.177,365.988C323.852,375.306,323.914,387.609,327.241,395.931C331.220,405.551,337.496,402.268,340.474,408.573C341.801,411.569,341.140,417.224,343.136,421.881C346.130,429.201,351.785,433.194,354.446,437.851C356.111,440.512,356.772,443.485,353.117,444.173C351.123,445.185,345.782,444.266,343.782,444.285C337.095,442.575,330.413,440.859,323.746,439.091C314.768,437.114,287.547,435.613,282.899,429.626C275.900,420.278,286.872,409.268,288.205,399.924C288.869,396.929,292.188,352.967,291.567,350.019C290.901,343.164,287.387,337.131,285.841,330.057C284.214,320.430,282.539,310.147,281.179,300.115C280.223,291.877,276.733,285.067,279.516,276.423C280.393,273.226,288.864,263.064,293.897,264.184Z"/>
<path class="path-15" d="M294.232,443.566C299.519,441.981,323.218,447.134,327.167,451.087"/>
<path class="path-15" d="M327.167,451.087C334.079,457.348,330.074,471.823,321.510,475.113"/>
<path class="path-15" d="M321.510,475.113C311.530,478.434,296.122,468.183,290.921,459.790"/>
<path class="path-15" d="M290.921,459.790C287.737,454.528,286.710,445.759,294.232,443.566"/>
<path class="path-16" d="M294.232,443.566C299.519,441.981,323.218,447.134,327.167,451.087C334.079,457.348,330.074,471.823,321.510,475.113C311.530,478.434,296.122,468.183,290.921,459.790C287.737,454.528,286.710,445.759,294.232,443.566Z"/>
</g>
<g id="bone">
<g id="bone1_clothes">
<path class="path-23" d="M228.108,390.189C228.109,390.183,234.317,331.522,234.318,331.516C234.318,331.522,239.239,390.305,239.240,390.311C239.239,390.311,228.110,390.189,228.108,390.189"/>
</g>
<g id="bone2_clothes">
<path class="path-23" d="M232.623,327.554C232.623,327.547,234.098,255.035,234.098,255.028C234.100,255.035,246.352,326.519,246.354,326.526C246.352,326.526,232.624,327.554,232.623,327.554"/>
</g>
<g id="bone3_neck">
<path class="path-23" d="M237.758,253.769C237.757,253.765,232.821,212.358,232.821,212.354C232.820,212.358,231.166,254.025,231.165,254.029C231.166,254.029,237.757,253.769,237.758,253.769"/>
</g>
<g id="bone4_head">
<path class="path-23" d="M230.415,212.836C230.415,212.829,230.141,134.765,230.141,134.757C230.142,134.765,242.835,211.789,242.837,211.797C242.835,211.797,230.416,212.836,230.415,212.836"/>
</g>
<g id="bone5_left_arm">
<path class="path-23" d="M298.161,255.454C298.163,255.463,320.720,345.136,320.722,345.145C320.718,345.137,283.250,260.601,283.247,260.592C283.248,260.592,298.159,255.454,298.161,255.454"/>
</g>
<g id="bone6_left_arm">
<path class="path-23" d="M300.866,348.641C300.866,348.647,301.288,412.383,301.288,412.389C301.289,412.383,311.277,349.434,311.278,349.427C311.277,349.427,300.867,348.641,300.866,348.641"/>
</g>
<g id="bone7_right_arm">
<path class="path-23" d="M169.080,269.862C169.078,269.873,152.044,384.109,152.042,384.121C152.046,384.110,186.891,273.992,186.894,273.981C186.893,273.981,169.082,269.862,169.080,269.862"/>
</g>
<g id="bone8_right_arm">
<path class="path-23" d="M157.331,380.140C157.333,380.145,177.514,436.143,177.516,436.148C177.513,436.143,146.495,385.341,146.492,385.336C146.493,385.336,157.330,380.140,157.331,380.140"/>
</g>
<g id="bone9_left_leg">
<path class="path-23" d="M272.048,385.446C272.048,385.456,280.363,486.781,280.363,486.791C280.361,486.781,253.967,388.602,253.964,388.592C253.966,388.592,272.046,385.446,272.048,385.446"/>
</g>
<g id="bone10_right_leg">
<path class="path-23" d="M209.407,385.449C209.407,385.459,209.480,489.215,209.480,489.225C209.482,489.215,224.870,386.607,224.872,386.596C224.870,386.596,209.409,385.449,209.407,385.449"/>
</g>
<g id="bone11_hair">
<path class="path-23" d="M234.571,157.029C234.572,157.037,242.249,236.853,242.250,236.861C242.248,236.853,220.093,159.791,220.091,159.783C220.092,159.783,234.570,157.030,234.571,157.029"/>
</g>
<g id="bone12_left_leg_S">
<path class="path-23" d="M442.239,215.200C442.237,215.193,418.142,146.979,418.140,146.972C418.141,146.979,430.701,218.225,430.702,218.232C430.703,218.232,442.238,215.200,442.239,215.200"/>
</g>
<g id="bone13_right_leg_S">
<path class="path-23" d="M500.511,213.141C500.506,213.136,451.124,160.267,451.119,160.262C451.123,160.268,491.148,220.531,491.152,220.537C491.152,220.537,500.510,213.142,500.511,213.141"/>
</g>
<g id="bone14_left_arm_S">
<path class="path-23" d="M557.485,215.186C557.484,215.179,542.260,144.455,542.259,144.448C542.259,144.455,545.656,216.719,545.656,216.726C545.657,216.726,557.484,215.186,557.485,215.186"/>
</g>
<g id="bone15_jacket_S">
<path class="path-23" d="M610.639,215.210C610.637,215.203,595.425,144.477,595.423,144.470C595.423,144.477,598.809,216.742,598.809,216.749C598.811,216.749,610.638,215.211,610.639,215.210"/>
</g>
<g id="bone16_pupils_S">
<path class="path-23" d="M440.060,341.844C440.065,341.839,492.066,291.544,492.072,291.539C492.066,291.543,432.508,332.611,432.502,332.615C432.503,332.616,440.059,341.843,440.060,341.844"/>
</g>
<g id="bone17_eyelids_S">
<path class="path-23" d="M502.309,337.358C502.308,337.351,496.345,265.253,496.344,265.246C496.344,265.253,490.380,337.351,490.380,337.358C490.381,337.358,502.308,337.358,502.309,337.358"/>
</g>
<g id="bone18_face_S">
<path class="path-23" d="M556.669,342.422C556.673,342.416,594.419,280.699,594.423,280.693C594.418,280.698,547.045,335.375,547.040,335.380C547.041,335.381,556.669,342.421,556.669,342.422"/>
</g>
</g>
</g>
<style>
.path-0{fill:#000000;fill-rule:evenodd;stroke:none;}
.path-1{fill:none;stroke:#a60d3f;stroke-width:1;stroke-linecap:butt;stroke-linejoin:round;}
.path-2{fill:#a60d3f;fill-rule:evenodd;stroke:none;}
.path-3{fill:none;stroke:#d88e4b;stroke-width:1;stroke-linecap:butt;stroke-linejoin:round;}
.path-4{fill:#d88e4b;fill-rule:evenodd;stroke:none;}
.path-5{fill:none;stroke:#6e2353;stroke-width:1;stroke-linecap:butt;stroke-linejoin:round;}
.path-6{fill:#6e2353;fill-rule:evenodd;stroke:none;}
.path-7{fill:none;stroke:#392966;stroke-width:1;stroke-linecap:butt;stroke-linejoin:round;}
.path-8{fill:#392966;fill-rule:evenodd;stroke:none;}
.path-9{fill:none;stroke:#cc9bc5;stroke-width:1;stroke-linecap:butt;stroke-linejoin:round;}
.path-10{fill:#cc9bc5;fill-rule:evenodd;stroke:none;}
.path-11{fill:none;stroke:#620527;stroke-width:1;stroke-linecap:butt;stroke-linejoin:round;}
.path-12{fill:#620527;fill-rule:evenodd;stroke:none;}
.path-13{fill:none;stroke:#6a3661;stroke-width:1;stroke-linecap:butt;stroke-linejoin:round;}
.path-14{fill:#6a3661;fill-rule:evenodd;stroke:none;}
.path-15{fill:none;stroke:#f8a087;stroke-width:1;stroke-linecap:butt;stroke-linejoin:round;}
.path-16{fill:#f8a087;fill-rule:evenodd;stroke:none;}
.path-17{fill:none;stroke:#ffffff;stroke-width:1;stroke-linecap:butt;stroke-linejoin:round;}
.path-18{fill:#ffffff;fill-rule:evenodd;stroke:none;}
.path-19{fill:none;stroke:#d89f4a;stroke-width:1;stroke-linecap:butt;stroke-linejoin:round;}
.path-20{fill:#d89f4a;fill-rule:evenodd;stroke:none;}
.path-21{fill:none;stroke:#fafd5b;stroke-width:1;stroke-linecap:butt;stroke-linejoin:round;}
.path-22{fill:#fafd5b;fill-rule:evenodd;stroke:none;}
.path-23{fill:none;stroke:#00ff42;stroke-width:8;stroke-linecap:round;stroke-linejoin:round;}
.path-24{fill:none;stroke:#000000;stroke-width:1;stroke-linecap:butt;stroke-linejoin:round;}
.path-25{fill:none;stroke:#ececec;stroke-width:1;stroke-linecap:butt;stroke-linejoin:round;}
.path-26{fill:#ececec;fill-rule:evenodd;stroke:none;}
</style>
</svg>
