<svg version="1.1" id="Frame_153" xmlns="http://www.w3.org/2000/svg" xmlns:xlink="http://www.w3.org/1999/xlink" width="480px" height="720px">
<g id="main_bone">
<g id="right_arm">
<path class="path-0" d="M174.126,270.172C175.458,267.511,178.075,262.017,181.778,260.525C188.182,257.943,193.652,263.933,194.431,268.509C196.093,276.447,190.936,287.396,188.470,295.289C182.390,314.329,175.637,333.084,171.132,352.015C170.600,355.317,165.808,376.634,165.808,373.973C165.476,380.626,172.130,386.283,174.459,391.939C177.454,399.590,174.791,406.910,172.795,413.897C168.138,428.535,168.471,433.858,167.804,448.165C167.804,450.492,167.473,458.146,163.812,458.146C160.487,458.146,160.153,452.157,159.488,449.828C159.155,447.167,156.825,441.510,157.492,439.182C157.823,435.190,162.483,436.188,157.492,427.870C151.170,417.555,139.526,409.240,136.532,395.931C134.536,385.285,140.191,375.969,143.186,365.988C149.508,344.695,156.494,323.404,163.812,302.111C167.805,291.132,168.802,281.484,174.126,270.172M193.754,262.188C193.755,253.538,190.761,245.885,180.115,249.546C163.481,255.200,158.822,281.484,154.165,296.122C147.512,316.084,141.855,336.046,136.199,356.007C133.870,364.657,130.544,368.982,129.212,373.973C127.549,379.628,127.881,388.280,128.214,393.935C128.214,411.567,133.869,412.234,140.856,425.874C144.517,433.858,140.525,438.849,142.852,445.835C144.517,450.492,148.176,453.820,150.837,457.813C153.166,461.805,153.499,464.135,155.162,467.793C157.158,472.119,163.481,481.767,169.136,479.771C173.793,478.108,173.793,469.790,174.126,465.797C174.459,459.809,178.119,436.853,179.450,429.866C181.778,418.554,187.435,406.245,185.770,393.935C184.440,384.619,176.122,377.965,176.456,367.985C176.787,362.661,180.115,354.011,181.113,348.023C182.776,338.375,182.776,328.061,184.772,318.081C188.099,300.448,194.421,280.487,193.754,262.188Z"/>
<path class="path-1" d="M181.778,260.525C188.182,257.943,193.652,263.933,194.431,268.509"/>
<path class="path-1" d="M194.431,268.509C196.093,276.447,190.936,287.396,188.470,295.289"/>
<path class="path-1" d="M188.470,295.289C182.390,314.329,175.637,333.084,171.132,352.015"/>
<path class="path-1" d="M171.132,352.015C170.600,355.317,165.808,376.634,165.808,373.973"/>
<path class="path-1" d="M165.808,373.973C165.476,380.626,172.130,386.283,174.459,391.939"/>
<path class="path-1" d="M174.459,391.939C177.454,399.590,174.791,406.910,172.795,413.897"/>
<path class="path-1" d="M172.795,413.897C168.138,428.535,168.471,433.858,167.804,448.165"/>
<path class="path-1" d="M167.804,448.165C167.804,450.492,167.473,458.146,163.812,458.146"/>
<path class="path-1" d="M163.812,458.146C160.487,458.146,160.153,452.157,159.488,449.828"/>
<path class="path-1" d="M159.488,449.828C159.155,447.167,156.825,441.510,157.492,439.182"/>
<path class="path-1" d="M157.492,439.182C157.823,435.190,162.483,436.188,157.492,427.870"/>
<path class="path-1" d="M157.492,427.870C151.170,417.555,139.526,409.240,136.532,395.931"/>
<path class="path-1" d="M136.532,395.931C134.536,385.285,140.191,375.969,143.186,365.988"/>
<path class="path-1" d="M143.186,365.988C149.508,344.695,156.494,323.404,163.812,302.111"/>
<path class="path-1" d="M163.812,302.111C167.805,291.132,168.802,281.484,174.126,270.172"/>
<path class="path-1" d="M174.126,270.172C175.458,267.511,178.075,262.017,181.778,260.525"/>
<path class="path-2" d="M181.778,260.525C188.182,257.943,193.652,263.933,194.431,268.509C196.093,276.447,190.936,287.396,188.470,295.289C182.390,314.329,175.637,333.084,171.132,352.015C170.600,355.317,165.808,376.634,165.808,373.973C165.476,380.626,172.130,386.283,174.459,391.939C177.454,399.590,174.791,406.910,172.795,413.897C168.138,428.535,168.471,433.858,167.804,448.165C167.804,450.492,167.473,458.146,163.812,458.146C160.487,458.146,160.153,452.157,159.488,449.828C159.155,447.167,156.825,441.510,157.492,439.182C157.823,435.190,162.483,436.188,157.492,427.870C151.170,417.555,139.526,409.240,136.532,395.931C134.536,385.285,140.191,375.969,143.186,365.988C149.508,344.695,156.494,323.404,163.812,302.111C167.805,291.132,168.802,281.484,174.126,270.172C175.458,267.511,178.075,262.017,181.778,260.525Z"/>
</g>
<g id="layer_left_leg">
<g id="left_heel">
<path class="path-0" d="M254.416,615.494C247.155,604.158,261.403,584.462,272.643,582.172C289.461,578.545,301.148,604.414,299.037,610.444C295.602,619.345,280.344,620.204,272.215,620.424C267.576,620.398,256.737,619.305,254.416,615.494M300.001,581.190C290.761,571.760,269.243,573.358,258.608,578.960C234.155,591.192,228.661,634.549,264.744,632.538C275.917,631.974,300.383,629.388,306.914,621.848C312.535,616.178,310.587,607.323,308.820,600.070C307.013,594.193,304.370,585.779,300.001,581.190Z"/>
<path class="path-3" d="M272.643,582.172C289.461,578.545,301.148,604.414,299.037,610.444"/>
<path class="path-3" d="M299.037,610.444C295.602,619.345,280.344,620.204,272.215,620.424"/>
<path class="path-3" d="M272.215,620.424C267.576,620.398,256.737,619.305,254.416,615.494"/>
<path class="path-3" d="M254.416,615.494C247.155,604.158,261.403,584.462,272.643,582.172"/>
<path class="path-4" d="M272.643,582.172C289.461,578.545,301.148,604.414,299.037,610.444C295.602,619.345,280.344,620.204,272.215,620.424C267.576,620.398,256.737,619.305,254.416,615.494C247.155,604.158,261.403,584.462,272.643,582.172Z"/>
</g>
<g id="left_leg">
<path class="path-0" d="M238.898,405.789C240.604,401.168,250.096,404.756,253.973,404.581C259.632,404.598,272.318,402.901,276.966,406.320C286.353,412.754,289.612,444.035,290.148,454.969C290.798,486.873,292.700,516.799,292.463,547.613C292.306,552.579,292.349,557.728,291.760,562.564C291.403,567.045,287.310,573.284,290.582,575.977C292.617,578.357,298.453,573.046,299.407,575.787C301.618,583.698,292.429,580.788,288.594,585.196C281.468,592.895,266.657,598.193,257.445,595.767C251.422,594.394,240.858,588.173,238.387,582.602C236.186,577.637,234.702,571.554,233.698,566.322C228.452,539.008,245.342,496.301,237.061,451.196C234.178,435.494,239.602,429.647,250.174,420.888C252.289,419.135,238.430,419.487,236.730,417.280C234.625,414.959,237.683,408.599,238.898,405.789M284.616,397.129C278.369,392.470,261.183,394.301,253.973,394.933C249.630,395.297,235.861,392.961,232.749,395.088C216.285,406.341,222.583,443.565,224.947,459.651C225.360,464.840,225.628,489.678,225.471,496.683C226.430,522.956,219.715,545.538,222.110,571.720C222.628,578.349,222.765,584.864,225.238,590.939C232.242,607.806,247.666,610.520,268.601,609.799C279.487,609.429,304.172,604.505,313.608,584.572C317.058,577.279,312.835,566.787,311.834,564.244C309.953,559.466,307.028,554.776,306.027,549.365C302.101,531.595,309.186,513.046,307.973,494.782C306.435,471.283,304.511,412.039,284.616,397.129Z"/>
<path class="path-7" d="M253.973,404.581C259.632,404.598,272.318,402.901,276.966,406.320"/>
<path class="path-7" d="M276.966,406.320C286.353,412.754,289.612,444.035,290.148,454.969"/>
<path class="path-7" d="M290.148,454.969C290.798,486.873,292.700,516.799,292.463,547.613"/>
<path class="path-7" d="M292.463,547.613C292.306,552.579,292.349,557.728,291.760,562.564"/>
<path class="path-7" d="M291.760,562.564C291.403,567.045,287.310,573.284,290.582,575.977"/>
<path class="path-7" d="M290.582,575.977C292.617,578.357,298.453,573.046,299.407,575.787"/>
<path class="path-7" d="M299.407,575.787C301.618,583.698,292.429,580.788,288.594,585.196"/>
<path class="path-7" d="M288.594,585.196C281.468,592.895,266.657,598.193,257.445,595.767"/>
<path class="path-7" d="M257.445,595.767C251.422,594.394,240.858,588.173,238.387,582.602"/>
<path class="path-7" d="M238.387,582.602C236.186,577.637,234.702,571.554,233.698,566.322"/>
<path class="path-7" d="M233.698,566.322C228.452,539.008,245.342,496.301,237.061,451.196"/>
<path class="path-7" d="M237.061,451.196C234.178,435.494,239.602,429.647,250.174,420.888"/>
<path class="path-7" d="M250.174,420.888C252.289,419.135,238.430,419.487,236.730,417.280"/>
<path class="path-7" d="M236.730,417.280C234.625,414.959,237.683,408.599,238.898,405.789"/>
<path class="path-7" d="M238.898,405.789C240.604,401.168,250.096,404.756,253.973,404.581"/>
<path class="path-8" d="M253.973,404.581C259.632,404.598,272.318,402.901,276.966,406.320C286.353,412.754,289.612,444.035,290.148,454.969C290.798,486.873,292.700,516.799,292.463,547.613C292.306,552.579,292.349,557.728,291.760,562.564C291.403,567.045,287.310,573.284,290.582,575.977C292.617,578.357,298.453,573.046,299.407,575.787C301.618,583.698,292.429,580.788,288.594,585.196C281.468,592.895,266.657,598.193,257.445,595.767C251.422,594.394,240.858,588.173,238.387,582.602C236.186,577.637,234.702,571.554,233.698,566.322C228.452,539.008,245.342,496.301,237.061,451.196C234.178,435.494,239.602,429.647,250.174,420.888C252.289,419.135,238.430,419.487,236.730,417.280C234.625,414.959,237.683,408.599,238.898,405.789C240.604,401.168,250.096,404.756,253.973,404.581Z"/>
</g>
<g id="left_toe">
<path class="path-0" d="M253.869,650.385C226.773,645.958,232.115,611.105,253.357,604.371C273.073,598.286,290.019,610.436,295.583,623.203C298.808,629.402,300.518,635.907,297.333,642.308C290.345,653.846,265.792,652.241,253.869,650.385M310.075,615.363C306.453,603.087,295.006,591.388,284.538,588.139C257.057,579.760,235.299,589.300,227.104,613.453C222.000,626.996,224.612,642.053,233.549,653.437C240.994,662.336,266.958,663.592,277.988,662.469C287.514,660.830,299.458,658.024,305.767,649.724C310.670,643.468,312.200,622.835,310.075,615.363Z"/>
<path class="path-3" d="M253.357,604.371C273.073,598.286,290.019,610.436,295.583,623.203"/>
<path class="path-3" d="M295.583,623.203C298.808,629.402,300.518,635.907,297.333,642.308"/>
<path class="path-3" d="M297.333,642.308C290.345,653.846,265.792,652.241,253.869,650.385"/>
<path class="path-3" d="M253.869,650.385C226.773,645.958,232.115,611.105,253.357,604.371"/>
<path class="path-4" d="M253.357,604.371C273.073,598.286,290.019,610.436,295.583,623.203C298.808,629.402,300.518,635.907,297.333,642.308C290.345,653.846,265.792,652.241,253.869,650.385C226.773,645.958,232.115,611.105,253.357,604.371Z"/>
</g>
<g id="left_sole">
<path class="path-0" d="M256.628,665.271C245.986,665.482,243.218,651.522,240.882,656.962C239.421,660.362,249.707,663.033,253.804,664.085C262.930,666.819,277.191,665.544,285.583,661.045C288.426,659.803,297.348,656.376,297.492,656.578C299.792,659.820,285.622,662.442,281.393,662.932C278.527,663.572,257.426,665.101,256.628,665.271M241.126,655.657C245.960,654.267,255.504,658.716,259.063,660.127C273.691,665.928,285.413,658.656,293.540,655.849C294.290,655.601,294.920,654.111,297.483,654.316C304.166,654.853,270.528,667.265,258.457,663.517C250.541,661.984,238.749,656.340,241.126,655.657M301.608,647.269C298.557,645.330,282.452,654.549,267.022,655.181C258.537,655.559,237.605,641.545,231.909,651.201C230.682,653.293,231.796,660.817,233.544,662.429C245.193,673.607,294.901,668.368,301.198,663.660C303.116,662.227,306.972,650.679,301.608,647.269Z"/>
<path class="path-5" d="M240.882,656.962C239.421,660.362,249.707,663.033,253.804,664.085"/>
<path class="path-5" d="M253.804,664.085C262.930,666.819,277.191,665.544,285.583,661.045"/>
<path class="path-5" d="M285.583,661.045C288.426,659.803,297.348,656.376,297.492,656.578"/>
<path class="path-5" d="M297.492,656.578C299.792,659.820,285.622,662.442,281.393,662.932"/>
<path class="path-5" d="M281.393,662.932C278.527,663.572,257.426,665.101,256.628,665.271"/>
<path class="path-5" d="M256.628,665.271C245.986,665.482,243.218,651.522,240.882,656.962"/>
<path class="path-6" d="M240.882,656.962C239.421,660.362,249.707,663.033,253.804,664.085C262.930,666.819,277.191,665.544,285.583,661.045C288.426,659.803,297.348,656.376,297.492,656.578C299.792,659.820,285.622,662.442,281.393,662.932C278.527,663.572,257.426,665.101,256.628,665.271C245.986,665.482,243.218,651.522,240.882,656.962Z"/>
<path class="path-5" d="M259.063,660.127C273.691,665.928,285.413,658.656,293.540,655.849"/>
<path class="path-5" d="M293.540,655.849C294.290,655.601,294.920,654.111,297.483,654.316"/>
<path class="path-5" d="M297.483,654.316C304.166,654.853,270.528,667.265,258.457,663.517"/>
<path class="path-5" d="M258.457,663.517C250.541,661.984,238.749,656.340,241.126,655.657"/>
<path class="path-5" d="M241.126,655.657C245.960,654.267,255.504,658.716,259.063,660.127"/>
<path class="path-6" d="M259.063,660.127C273.691,665.928,285.413,658.656,293.540,655.849C294.290,655.601,294.920,654.111,297.483,654.316C304.166,654.853,270.528,667.265,258.457,663.517C250.541,661.984,238.749,656.340,241.126,655.657C245.960,654.267,255.504,658.716,259.063,660.127Z"/>
</g>
</g>
<g id="layer_right_leg">
<g id="right_heel">
<path class="path-0" d="M186.437,651.442C188.764,632.478,188.764,617.507,212.053,614.179C222.368,612.516,241.996,615.844,247.651,625.824C250.645,630.815,249.648,638.133,249.981,643.457C250.646,652.773,256.634,670.072,243.659,673.066C242.661,673.399,214.715,675.729,206.065,677.059C200.741,678.390,195.086,680.386,190.761,677.059C185.105,671.737,185.439,658.428,186.437,651.442M258.630,623.829C253.973,611.852,237.671,604.865,226.027,606.528C210.722,608.524,195.086,603.533,185.105,617.840C175.124,632.144,175.458,658.762,178.783,675.396C179.782,681.384,183.442,692.364,188.433,695.691C192.092,698.018,197.747,697.353,202.073,697.353C223.032,697.686,259.629,704.674,259.962,673.399C259.962,662.421,261.958,632.478,258.630,623.829Z"/>
<path class="path-3" d="M212.053,614.179C222.368,612.516,241.996,615.844,247.651,625.824"/>
<path class="path-3" d="M247.651,625.824C250.645,630.815,249.648,638.133,249.981,643.457"/>
<path class="path-3" d="M249.981,643.457C250.646,652.773,256.634,670.072,243.659,673.066"/>
<path class="path-3" d="M243.659,673.066C242.661,673.399,214.715,675.729,206.065,677.059"/>
<path class="path-3" d="M206.065,677.059C200.741,678.390,195.086,680.386,190.761,677.059"/>
<path class="path-3" d="M190.761,677.059C185.105,671.737,185.439,658.428,186.437,651.442"/>
<path class="path-3" d="M186.437,651.442C188.764,632.478,188.764,617.507,212.053,614.179"/>
<path class="path-4" d="M212.053,614.179C222.368,612.516,241.996,615.844,247.651,625.824C250.645,630.815,249.648,638.133,249.981,643.457C250.646,652.773,256.634,670.072,243.659,673.066C242.661,673.399,214.715,675.729,206.065,677.059C200.741,678.390,195.086,680.386,190.761,677.059C185.105,671.737,185.439,658.428,186.437,651.442C188.764,632.478,188.764,617.507,212.053,614.179Z"/>
</g>
<g id="right_leg">
<path class="path-0" d="M182.775,404.914C180.114,398.592,188.153,392.314,194.088,391.274C200.394,390.035,209.968,392.834,216.429,394.927C219.889,396.047,224.379,398.086,227.360,400.168C230.211,402.159,234.168,405.044,235.675,408.242C238.907,415.768,238.707,419.408,238.752,424.318C238.802,429.656,236.104,435.690,235.675,441.843C235.371,458.528,238.004,475.778,240.665,491.747C242.329,502.393,246.653,517.698,246.986,527.678C246.987,536.661,240.000,536.995,240.333,542.317C240.333,545.978,251.643,561.280,253.973,565.606C261.293,578.581,266.948,594.550,266.948,609.522C266.948,622.497,247.985,639.465,236.007,641.461C222.368,643.457,184.441,628.819,172.130,621.833C166.475,618.838,156.825,614.179,155.162,607.525C153.831,603.200,159.155,583.905,161.485,579.580C164.810,573.924,167.473,572.926,169.801,565.606C172.795,554.960,171.797,542.983,172.130,531.671C172.130,516.700,175.789,478.107,180.115,463.801C182.776,454.153,192.092,421.217,189.763,412.234C188.433,406.910,184.440,408.242,182.775,404.914M208.062,381.294C202.406,379.297,198.080,373.973,192.092,375.969C189.762,376.967,185.770,379.962,184.107,381.625C168.803,394.600,168.138,407.244,168.138,425.874C167.804,433.859,167.473,442.177,168.138,449.828C168.471,454.818,169.801,459.144,169.136,463.801C168.802,468.127,166.806,472.450,166.141,477.774C165.477,484.428,167.139,492.412,166.141,503.725C164.479,514.039,162.149,523.687,161.816,533.667C161.816,538.991,162.814,551.633,161.816,555.625C159.820,560.616,155.163,565.273,152.502,569.599C147.843,578.248,146.180,588.229,146.179,597.545C145.846,603.867,145.515,612.183,148.176,617.506C152.168,625.491,160.818,630.815,168.138,635.138C180.115,642.125,192.757,644.122,206.065,648.447C210.057,649.779,213.716,652.106,218.042,652.773C219.705,652.773,233.346,651.442,236.007,651.108C248.649,648.781,269.609,638.133,274.600,625.491C275.931,621.499,275.598,615.844,275.598,611.518C275.595,607.527,275.595,603.535,275.598,599.541C275.266,574.589,264.952,564.608,258.964,543.648C256.968,536.662,256.303,521.690,255.305,513.706C252.975,497.736,247.984,482.431,247.651,465.797C247.651,462.469,246.987,457.812,249.316,454.818C251.312,452.157,255.305,452.157,256.634,449.163C258.630,443.839,251.977,425.874,250.646,419.885C249.981,416.226,250.314,411.567,248.983,407.908C245.324,398.592,231.351,388.280,222.034,385.285C217.377,383.621,212.387,383.290,208.062,381.294Z"/>
<path class="path-7" d="M194.088,391.274C200.394,390.035,209.968,392.834,216.429,394.927"/>
<path class="path-7" d="M216.429,394.927C219.889,396.047,224.379,398.086,227.360,400.168"/>
<path class="path-7" d="M227.360,400.168C230.211,402.159,234.168,405.044,235.675,408.242"/>
<path class="path-7" d="M235.675,408.242C238.907,415.768,238.707,419.408,238.752,424.318"/>
<path class="path-7" d="M238.752,424.318C238.802,429.656,236.104,435.690,235.675,441.843"/>
<path class="path-7" d="M235.675,441.843C235.371,458.528,238.004,475.778,240.665,491.747"/>
<path class="path-7" d="M240.665,491.747C242.329,502.393,246.653,517.698,246.986,527.678"/>
<path class="path-7" d="M246.986,527.678C246.987,536.661,240.000,536.995,240.333,542.317"/>
<path class="path-7" d="M240.333,542.317C240.333,545.978,251.643,561.280,253.973,565.606"/>
<path class="path-7" d="M253.973,565.606C261.293,578.581,266.948,594.550,266.948,609.522"/>
<path class="path-7" d="M266.948,609.522C266.948,622.497,247.985,639.465,236.007,641.461"/>
<path class="path-7" d="M236.007,641.461C222.368,643.457,184.441,628.819,172.130,621.833"/>
<path class="path-7" d="M172.130,621.833C166.475,618.838,156.825,614.179,155.162,607.525"/>
<path class="path-7" d="M155.162,607.525C153.831,603.200,159.155,583.905,161.485,579.580"/>
<path class="path-7" d="M161.485,579.580C164.810,573.924,167.473,572.926,169.801,565.606"/>
<path class="path-7" d="M169.801,565.606C172.795,554.960,171.797,542.983,172.130,531.671"/>
<path class="path-7" d="M172.130,531.671C172.130,516.700,175.789,478.107,180.115,463.801"/>
<path class="path-7" d="M180.115,463.801C182.776,454.153,192.092,421.217,189.763,412.234"/>
<path class="path-7" d="M189.763,412.234C188.433,406.910,184.440,408.242,182.775,404.914"/>
<path class="path-7" d="M182.775,404.914C180.114,398.592,188.153,392.314,194.088,391.274"/>
<path class="path-8" d="M194.088,391.274C200.394,390.035,209.968,392.834,216.429,394.927C219.889,396.047,224.379,398.086,227.360,400.168C230.211,402.159,234.168,405.044,235.675,408.242C238.907,415.768,238.707,419.408,238.752,424.318C238.802,429.656,236.104,435.690,235.675,441.843C235.371,458.528,238.004,475.778,240.665,491.747C242.329,502.393,246.653,517.698,246.986,527.678C246.987,536.661,240.000,536.995,240.333,542.317C240.333,545.978,251.643,561.280,253.973,565.606C261.293,578.581,266.948,594.550,266.948,609.522C266.948,622.497,247.985,639.465,236.007,641.461C222.368,643.457,184.441,628.819,172.130,621.833C166.475,618.838,156.825,614.179,155.162,607.525C153.831,603.200,159.155,583.905,161.485,579.580C164.810,573.924,167.473,572.926,169.801,565.606C172.795,554.960,171.797,542.983,172.130,531.671C172.130,516.700,175.789,478.107,180.115,463.801C182.776,454.153,192.092,421.217,189.763,412.234C188.433,406.910,184.440,408.242,182.775,404.914C180.114,398.592,188.153,392.314,194.088,391.274Z"/>
</g>
<g id="right_toe">
<path class="path-0" d="M153.831,633.476C155.163,615.177,160.153,591.223,182.111,586.566C187.101,585.235,194.421,586.900,200.076,587.898C230.684,593.220,240.000,602.202,241.996,633.476C242.330,641.128,244.326,650.110,239.667,657.097C234.011,665.415,202.072,671.403,192.092,671.403C176.787,671.736,164.810,670.072,156.160,655.434C151.170,646.784,153.167,642.792,153.831,633.476M249.648,603.867C240.665,585.901,198.745,574.256,180.115,578.581C152.169,585.235,147.843,609.522,145.847,633.476C145.182,640.796,142.521,648.781,145.847,655.434C147.843,659.426,152.833,664.417,156.160,667.411C171.465,682.383,182.111,679.721,202.073,679.388C214.050,679.388,234.012,678.723,243.659,670.738C250.979,664.083,251.644,656.765,251.977,647.449C251.977,638.466,253.309,610.520,249.648,603.867Z"/>
<path class="path-3" d="M182.111,586.566C187.101,585.235,194.421,586.900,200.076,587.898"/>
<path class="path-3" d="M200.076,587.898C230.684,593.220,240.000,602.202,241.996,633.476"/>
<path class="path-3" d="M241.996,633.476C242.330,641.128,244.326,650.110,239.667,657.097"/>
<path class="path-3" d="M239.667,657.097C234.011,665.415,202.072,671.403,192.092,671.403"/>
<path class="path-3" d="M192.092,671.403C176.787,671.736,164.810,670.072,156.160,655.434"/>
<path class="path-3" d="M156.160,655.434C151.170,646.784,153.167,642.792,153.831,633.476"/>
<path class="path-3" d="M153.831,633.476C155.163,615.177,160.153,591.223,182.111,586.566"/>
<path class="path-4" d="M182.111,586.566C187.101,585.235,194.421,586.900,200.076,587.898C230.684,593.220,240.000,602.202,241.996,633.476C242.330,641.128,244.326,650.110,239.667,657.097C234.011,665.415,202.072,671.403,192.092,671.403C176.787,671.736,164.810,670.072,156.160,655.434C151.170,646.784,153.167,642.792,153.831,633.476C155.163,615.177,160.153,591.223,182.111,586.566Z"/>
</g>
<g id="right_sole">
<path class="path-0" d="M182.775,670.405C187.671,670.817,198.802,669.557,204.069,670.405C209.332,671.549,214.496,672.321,218.910,673.225C221.944,674.106,232.740,677.014,228.687,681.717C226.919,683.918,220.705,683.697,218.042,683.380C215.051,683.399,187.146,680.704,186.103,680.833C180.439,681.143,177.856,679.365,177.371,676.479C176.966,674.073,178.422,670.020,182.775,670.405M236.596,663.625C237.999,665.591,241.830,669.709,238.668,671.403C234.814,673.489,217.922,667.360,212.705,664.576C208.370,663.169,203.313,662.477,199.212,662.243C191.847,661.823,181.951,662.996,174.682,663.992C172.395,663.907,170.879,664.840,169.980,663.972C169.521,663.528,169.308,659.649,170.864,657.680C176.686,650.314,193.007,652.864,202.629,653.143C210.387,653.368,220.416,655.696,228.023,658.095C229.286,658.529,234.817,661.134,236.596,663.625M241.663,658.428C224.994,647.721,211.565,642.999,192.092,644.455C183.648,645.136,165.013,648.728,159.707,657.797C158.250,660.288,158.661,664.464,159.452,667.411C159.928,669.171,160.746,673.411,162.282,675.458C166.077,680.518,176.001,685.098,180.115,686.708C195.403,693.340,217.500,689.245,234.012,690.700C242.178,691.316,241.940,685.196,243.429,681.549C246.059,675.108,253.283,665.684,241.663,658.428Z"/>
<path class="path-5" d="M182.775,670.405C187.671,670.817,198.802,669.557,204.069,670.405"/>
<path class="path-5" d="M204.069,670.405C209.332,671.549,214.496,672.321,218.910,673.225"/>
<path class="path-5" d="M218.910,673.225C221.944,674.106,232.740,677.014,228.687,681.717"/>
<path class="path-5" d="M228.687,681.717C226.919,683.918,220.705,683.697,218.042,683.380"/>
<path class="path-5" d="M218.042,683.380C215.051,683.399,187.146,680.704,186.103,680.833"/>
<path class="path-5" d="M186.103,680.833C180.439,681.143,177.856,679.365,177.371,676.479"/>
<path class="path-5" d="M177.371,676.479C176.966,674.073,178.422,670.020,182.775,670.405"/>
<path class="path-6" d="M182.775,670.405C187.671,670.817,198.802,669.557,204.069,670.405C209.332,671.549,214.496,672.321,218.910,673.225C221.944,674.106,232.740,677.014,228.687,681.717C226.919,683.918,220.705,683.697,218.042,683.380C215.051,683.399,187.146,680.704,186.103,680.833C180.439,681.143,177.856,679.365,177.371,676.479C176.966,674.073,178.422,670.020,182.775,670.405Z"/>
<path class="path-5" d="M170.864,657.680C176.686,650.314,193.007,652.864,202.629,653.143"/>
<path class="path-5" d="M202.629,653.143C210.387,653.368,220.416,655.696,228.023,658.095"/>
<path class="path-5" d="M228.023,658.095C229.286,658.529,234.817,661.134,236.596,663.625"/>
<path class="path-5" d="M236.596,663.625C237.999,665.591,241.830,669.709,238.668,671.403"/>
<path class="path-5" d="M238.668,671.403C234.814,673.489,217.922,667.360,212.705,664.576"/>
<path class="path-5" d="M212.705,664.576C208.370,663.169,203.313,662.477,199.212,662.243"/>
<path class="path-5" d="M199.212,662.243C191.847,661.823,181.951,662.996,174.682,663.992"/>
<path class="path-5" d="M174.682,663.992C172.395,663.907,170.879,664.840,169.980,663.972"/>
<path class="path-5" d="M169.980,663.972C169.521,663.528,169.308,659.649,170.864,657.680"/>
<path class="path-6" d="M170.864,657.680C176.686,650.314,193.007,652.864,202.629,653.143C210.387,653.368,220.416,655.696,228.023,658.095C229.286,658.529,234.817,661.134,236.596,663.625C237.999,665.591,241.830,669.709,238.668,671.403C234.814,673.489,217.922,667.360,212.705,664.576C208.370,663.169,203.313,662.477,199.212,662.243C191.847,661.823,181.951,662.996,174.682,663.992C172.395,663.907,170.879,664.840,169.980,663.972C169.521,663.528,169.308,659.649,170.864,657.680Z"/>
</g>
</g>
<g id="hat_brim">
<path class="path-0" d="M283.251,150.401C286.910,144.413,295.893,128.110,303.878,128.110C309.201,128.110,320.180,137.760,325.835,140.754C330.826,143.748,336.150,146.410,341.805,149.071C345.017,150.740,348.233,152.403,351.453,154.061C365.760,161.381,361.766,167.703,353.448,166.371C334.818,163.043,331.824,164.375,313.859,155.059C311.529,154.061,305.541,150.735,304.542,155.059C303.213,160.049,312.196,164.375,315.855,166.038C322.508,169.699,329.828,173.691,337.813,174.356C340.142,174.689,348.127,174.022,349.456,176.352C351.453,179.679,341.805,188.329,339.809,190.325C336.481,193.320,333.156,196.314,329.828,198.643C324.837,201.969,319.514,204.963,313.859,205.961C303.213,207.292,269.943,191.988,268.945,180.344C268.280,173.691,279.259,156.723,283.251,150.401M315.855,123.786C310.864,119.461,307.205,113.139,299.885,116.467C294.561,118.796,288.906,126.448,285.247,130.440C271.606,147.074,259.297,166.704,259.962,188.329C260.295,201.969,264.952,201.637,275.931,206.959C292.565,215.277,313.859,217.938,331.824,209.622C343.468,204.299,363.763,186.333,369.087,174.356C370.750,170.364,373.743,161.381,371.414,156.724C368.753,151.067,346.462,141.419,339.809,137.760C331.824,133.434,322.842,129.442,315.855,123.786Z"/>
<path class="path-9" d="M303.878,128.110C309.201,128.110,320.180,137.760,325.835,140.754"/>
<path class="path-9" d="M325.835,140.754C330.826,143.748,336.150,146.410,341.805,149.071"/>
<path class="path-9" d="M341.805,149.071C345.017,150.740,348.233,152.403,351.453,154.061"/>
<path class="path-9" d="M351.453,154.061C365.760,161.381,361.766,167.703,353.448,166.371"/>
<path class="path-9" d="M353.448,166.371C334.818,163.043,331.824,164.375,313.859,155.059"/>
<path class="path-9" d="M313.859,155.059C311.529,154.061,305.541,150.735,304.542,155.059"/>
<path class="path-9" d="M304.542,155.059C303.213,160.049,312.196,164.375,315.855,166.038"/>
<path class="path-9" d="M315.855,166.038C322.508,169.699,329.828,173.691,337.813,174.356"/>
<path class="path-9" d="M337.813,174.356C340.142,174.689,348.127,174.022,349.456,176.352"/>
<path class="path-9" d="M349.456,176.352C351.453,179.679,341.805,188.329,339.809,190.325"/>
<path class="path-9" d="M339.809,190.325C336.481,193.320,333.156,196.314,329.828,198.643"/>
<path class="path-9" d="M329.828,198.643C324.837,201.969,319.514,204.963,313.859,205.961"/>
<path class="path-9" d="M313.859,205.961C303.213,207.292,269.943,191.988,268.945,180.344"/>
<path class="path-9" d="M268.945,180.344C268.280,173.691,279.259,156.723,283.251,150.401"/>
<path class="path-9" d="M283.251,150.401C286.910,144.413,295.893,128.110,303.878,128.110"/>
<path class="path-10" d="M303.878,128.110C309.201,128.110,320.180,137.760,325.835,140.754C330.826,143.748,336.150,146.410,341.805,149.071C345.017,150.740,348.233,152.403,351.453,154.061C365.760,161.381,361.766,167.703,353.448,166.371C334.818,163.043,331.824,164.375,313.859,155.059C311.529,154.061,305.541,150.735,304.542,155.059C303.213,160.049,312.196,164.375,315.855,166.038C322.508,169.699,329.828,173.691,337.813,174.356C340.142,174.689,348.127,174.022,349.456,176.352C351.453,179.679,341.805,188.329,339.809,190.325C336.481,193.320,333.156,196.314,329.828,198.643C324.837,201.969,319.514,204.963,313.859,205.961C303.213,207.292,269.943,191.988,268.945,180.344C268.280,173.691,279.259,156.723,283.251,150.401C286.910,144.413,295.893,128.110,303.878,128.110Z"/>
</g>
<g id="hair">
<path class="path-0" d="M183.357,136.483C200.954,124.749,220.906,123.806,241.996,123.120C251.452,122.794,257.886,129.270,265.069,135.626C270.964,141.195,277.299,147.468,283.560,153.313C292.986,162.051,296.930,166.431,300.440,170.614C303.444,173.825,308.105,179.813,311.862,182.674C316.396,186.124,325.422,203.315,327.445,205.266C320.793,207.453,310.356,209.024,305.541,212.830C307.149,218.669,307.424,227.700,307.413,230.409C301.202,230.790,294.008,227.926,282.567,225.752C280.180,232.918,280.142,239.647,275.384,246.902C267.697,244.496,262.345,242.563,252.411,238.043C245.798,243.193,244.261,242.773,233.517,249.212C226.455,244.820,220.838,240.151,213.943,237.253C207.148,240.091,196.403,241.027,192.739,243.925C188.987,236.858,185.547,229.060,182.318,225.662C172.710,227.554,168.576,230.148,161.781,232.559C157.606,227.012,160.654,222.489,156.037,214.349C151.717,213.146,145.049,210.476,139.490,210.322C143.367,205.864,146.319,191.142,152.833,189.327C160.871,187.088,155.875,177.911,160.872,169.755C162.110,167.631,174.016,151.399,175.093,148.739C177.132,144.153,179.361,139.287,183.357,136.483M269.783,123.041C257.623,113.516,232.973,108.192,219.067,111.311C206.306,114.023,193.787,117.926,182.663,125.006C176.433,128.911,169.531,134.686,165.362,140.754C157.036,152.537,144.935,178.372,138.142,190.325C132.704,200.241,127.646,206.923,122.452,212.283C140.007,218.879,145.124,221.586,150.363,222.441C150.613,230.199,157.711,236.027,156.388,244.572C165.209,243.354,170.475,241.177,178.326,239.302C182.258,243.995,184.942,250.348,188.681,256.586C196.418,254.568,204.305,254.940,212.000,249.563C217.496,252.632,226.229,257.403,235.200,262.448C243.544,258.115,245.325,257.880,253.165,252.908C262.619,255.342,272.515,261.315,282.074,260.399C281.484,252.206,287.600,246.647,286.947,241.388C294.168,239.536,316.196,242.966,319.967,242.683C319.803,236.635,316.595,225.026,318.237,217.838C325.064,216.098,330.837,214.510,341.526,209.520C338.121,202.790,331.974,194.414,326.560,189.403C321.990,185.214,318.291,179.689,313.719,175.326C298.212,160.768,292.275,140.745,269.783,123.041Z"/>
<path class="path-11" d="M241.996,123.120C251.452,122.794,257.886,129.270,265.069,135.626"/>
<path class="path-11" d="M265.069,135.626C270.964,141.195,277.299,147.468,283.560,153.313"/>
<path class="path-11" d="M283.560,153.313C292.986,162.051,296.930,166.431,300.440,170.614"/>
<path class="path-11" d="M300.440,170.614C303.444,173.825,308.105,179.813,311.862,182.674"/>
<path class="path-11" d="M311.862,182.674C316.396,186.124,325.422,203.315,327.445,205.266"/>
<path class="path-11" d="M327.445,205.266C320.793,207.453,310.356,209.024,305.541,212.830"/>
<path class="path-11" d="M305.541,212.830C307.149,218.669,307.424,227.700,307.413,230.409"/>
<path class="path-11" d="M307.413,230.409C301.202,230.790,294.008,227.926,282.567,225.752"/>
<path class="path-11" d="M282.567,225.752C280.180,232.918,280.142,239.647,275.384,246.902"/>
<path class="path-11" d="M275.384,246.902C267.697,244.496,262.345,242.563,252.411,238.043"/>
<path class="path-11" d="M252.411,238.043C245.798,243.193,244.261,242.773,233.517,249.212"/>
<path class="path-11" d="M233.517,249.212C226.455,244.820,220.838,240.151,213.943,237.253"/>
<path class="path-11" d="M213.943,237.253C207.148,240.091,196.403,241.027,192.739,243.925"/>
<path class="path-11" d="M192.739,243.925C188.987,236.858,185.547,229.060,182.318,225.662"/>
<path class="path-11" d="M182.318,225.662C172.710,227.554,168.576,230.148,161.781,232.559"/>
<path class="path-11" d="M161.781,232.559C157.606,227.012,160.654,222.489,156.037,214.349"/>
<path class="path-11" d="M156.037,214.349C151.717,213.146,145.049,210.476,139.490,210.322"/>
<path class="path-11" d="M139.490,210.322C143.367,205.864,146.319,191.142,152.833,189.327"/>
<path class="path-11" d="M152.833,189.327C160.871,187.088,155.875,177.911,160.872,169.755"/>
<path class="path-11" d="M160.872,169.755C162.110,167.631,174.016,151.399,175.093,148.739"/>
<path class="path-11" d="M175.093,148.739C177.132,144.153,179.361,139.287,183.357,136.483"/>
<path class="path-11" d="M183.357,136.483C200.954,124.749,220.906,123.806,241.996,123.120"/>
<path class="path-12" d="M241.996,123.120C251.452,122.794,257.886,129.270,265.069,135.626C270.964,141.195,277.299,147.468,283.560,153.313C292.986,162.051,296.930,166.431,300.440,170.614C303.444,173.825,308.105,179.813,311.862,182.674C316.396,186.124,325.422,203.315,327.445,205.266C320.793,207.453,310.356,209.024,305.541,212.830C307.149,218.669,307.424,227.700,307.413,230.409C301.202,230.790,294.008,227.926,282.567,225.752C280.180,232.918,280.142,239.647,275.384,246.902C267.697,244.496,262.345,242.563,252.411,238.043C245.798,243.193,244.261,242.773,233.517,249.212C226.455,244.820,220.838,240.151,213.943,237.253C207.148,240.091,196.403,241.027,192.739,243.925C188.987,236.858,185.547,229.060,182.318,225.662C172.710,227.554,168.576,230.148,161.781,232.559C157.606,227.012,160.654,222.489,156.037,214.349C151.717,213.146,145.049,210.476,139.490,210.322C143.367,205.864,146.319,191.142,152.833,189.327C160.871,187.088,155.875,177.911,160.872,169.755C162.110,167.631,174.016,151.399,175.093,148.739C177.132,144.153,179.361,139.287,183.357,136.483C200.954,124.749,220.906,123.806,241.996,123.120Z"/>
</g>
<g id="clothes">
<path class="path-0" d="M243.659,369.981C238.998,367.902,221.050,359.678,218.175,364.126C215.742,368.150,220.371,369.050,224.430,369.581C228.025,370.051,246.182,378.217,248.649,376.634C253.207,373.634,245.912,370.870,243.659,369.981M191.093,266.179C194.088,253.538,221.037,240.563,234.012,241.561C242.994,242.226,271.274,256.199,275.266,264.517C278.592,271.170,279.590,295.789,279.924,304.107C280.257,319.412,281.070,334.757,282.253,350.019C283.832,362.560,286.813,374.879,289.573,387.214C290.133,393.516,293.674,410.308,287.710,413.897C279.992,419.055,261.399,405.487,253.973,401.253C227.586,387.148,229.712,385.028,201.674,383.887C198.243,383.617,187.111,386.612,184.772,385.285C180.778,382.368,182.444,376.634,183.442,371.977C186.436,360.333,189.762,352.680,191.427,340.038C193.423,324.069,194.088,306.768,194.088,290.134C193.755,284.145,190.429,269.839,191.093,266.179M269.943,247.549C253.640,237.899,237.670,229.915,218.042,235.573C212.718,236.902,186.103,249.877,183.773,253.205C180.115,258.529,183.773,278.821,183.773,286.141C184.107,294.791,184.440,303.774,183.773,312.092C183.442,318.413,182.111,324.069,182.111,330.057C181.777,336.710,182.444,344.030,180.780,350.019C177.454,361.663,163.299,383.737,176.456,393.270C181.696,397.096,190.237,395.263,197.016,396.264C207.914,397.660,219.533,399.978,230.019,403.783C240.343,407.855,247.896,417.735,258.698,420.816C266.969,423.176,294.615,428.220,300.484,421.283C304.448,416.807,299.865,390.408,298.688,383.754C295.718,370.645,293.004,357.395,291.567,344.031C290.618,332.087,289.239,320.410,289.904,308.100C290.237,298.119,291.900,288.471,291.900,278.157C291.567,273.831,292.234,268.510,289.904,264.184C285.912,256.199,277.263,251.873,269.943,247.549Z"/>
<path class="path-13" d="M243.659,369.981C238.998,367.902,221.050,359.678,218.175,364.126"/>
<path class="path-13" d="M218.175,364.126C215.742,368.150,220.371,369.050,224.430,369.581"/>
<path class="path-13" d="M224.430,369.581C228.025,370.051,246.182,378.217,248.649,376.634"/>
<path class="path-13" d="M248.649,376.634C253.207,373.634,245.912,370.870,243.659,369.981"/>
<path class="path-13" d="M191.093,266.179C194.088,253.538,221.037,240.563,234.012,241.561"/>
<path class="path-13" d="M234.012,241.561C242.994,242.226,271.274,256.199,275.266,264.517"/>
<path class="path-13" d="M275.266,264.517C278.592,271.170,279.590,295.789,279.924,304.107"/>
<path class="path-13" d="M279.924,304.107C280.257,319.412,281.070,334.757,282.253,350.019"/>
<path class="path-13" d="M282.253,350.019C283.832,362.560,286.813,374.879,289.573,387.214"/>
<path class="path-13" d="M289.573,387.214C290.133,393.516,293.674,410.308,287.710,413.897"/>
<path class="path-13" d="M287.710,413.897C279.992,419.055,261.399,405.487,253.973,401.253"/>
<path class="path-13" d="M253.973,401.253C227.586,387.148,229.712,385.028,201.674,383.887"/>
<path class="path-13" d="M201.674,383.887C198.243,383.617,187.111,386.612,184.772,385.285"/>
<path class="path-13" d="M184.772,385.285C180.778,382.368,182.444,376.634,183.442,371.977"/>
<path class="path-13" d="M183.442,371.977C186.436,360.333,189.762,352.680,191.427,340.038"/>
<path class="path-13" d="M191.427,340.038C193.423,324.069,194.088,306.768,194.088,290.134"/>
<path class="path-13" d="M194.088,290.134C193.755,284.145,190.429,269.839,191.093,266.179"/>
<path class="path-14" d="M243.659,369.981C238.998,367.902,221.050,359.678,218.175,364.126C215.742,368.150,220.371,369.050,224.430,369.581C228.025,370.051,246.182,378.217,248.649,376.634C253.207,373.634,245.912,370.870,243.659,369.981M191.093,266.179C194.088,253.538,221.037,240.563,234.012,241.561C242.994,242.226,271.274,256.199,275.266,264.517C278.592,271.170,279.590,295.789,279.924,304.107C280.257,319.412,281.070,334.757,282.253,350.019C283.832,362.560,286.813,374.879,289.573,387.214C290.133,393.516,293.674,410.308,287.710,413.897C279.992,419.055,261.399,405.487,253.973,401.253C227.586,387.148,229.712,385.028,201.674,383.887C198.243,383.617,187.111,386.612,184.772,385.285C180.778,382.368,182.444,376.634,183.442,371.977C186.436,360.333,189.762,352.680,191.427,340.038C193.423,324.069,194.088,306.768,194.088,290.134C193.755,284.145,190.429,269.839,191.093,266.179Z"/>
</g>
<g id="neck">
<path class="path-0" d="M229.021,222.597C229.354,219.269,230.353,216.275,234.012,215.942C245.656,213.946,244.657,251.542,234.012,251.542C224.031,251.542,228.356,228.917,229.021,222.597M234.012,206.628C231.351,206.295,228.357,206.959,226.027,208.291C216.711,212.948,218.042,221.599,218.042,230.248C217.708,234.574,218.042,238.567,216.046,242.226C214.383,245.553,209.724,248.879,209.724,252.540C210.057,262.521,237.006,262.521,243.993,262.188C246.653,262.187,255.636,263.185,256.634,259.526C256.634,258.528,249.981,246.883,248.983,242.226C245.989,228.252,255.305,207.626,234.012,206.628Z"/>
<path class="path-15" d="M234.012,215.942C245.656,213.946,244.657,251.542,234.012,251.542"/>
<path class="path-15" d="M234.012,251.542C224.031,251.542,228.356,228.917,229.021,222.597"/>
<path class="path-15" d="M229.021,222.597C229.354,219.269,230.353,216.275,234.012,215.942"/>
<path class="path-16" d="M234.012,215.942C245.656,213.946,244.657,251.542,234.012,251.542C224.031,251.542,228.356,228.917,229.021,222.597C229.354,219.269,230.353,216.275,234.012,215.942Z"/>
</g>
<g id="layer_head">
<g id="right_ear">
<path class="path-0" d="M149.722,193.599C135.184,194.438,119.942,160.183,141.486,161.299C144.980,161.480,147.922,167.326,148.526,169.922C150.771,179.568,160.120,192.998,149.722,193.599M146.963,149.718C143.638,147.729,139.549,147.066,136.001,148.621C125.120,151.444,119.358,164.327,121.327,175.453C123.662,187.863,137.547,201.526,149.076,203.732C152.120,204.330,158.404,206.406,161.286,204.846C167.914,200.712,161.012,190.481,159.010,184.687C157.015,178.476,151.709,153.792,146.963,149.718Z"/>
<path class="path-15" d="M141.486,161.299C144.980,161.480,147.922,167.326,148.526,169.922"/>
<path class="path-15" d="M148.526,169.922C150.771,179.568,160.120,192.998,149.722,193.599"/>
<path class="path-15" d="M149.722,193.599C135.184,194.438,119.942,160.183,141.486,161.299"/>
<path class="path-16" d="M141.486,161.299C144.980,161.480,147.922,167.326,148.526,169.922C150.771,179.568,160.120,192.998,149.722,193.599C135.184,194.438,119.942,160.183,141.486,161.299Z"/>
</g>
<g id="face_Mask">
<g id="face">
<path class="path-0" d="M165.143,104.823C173.630,94.374,206.398,87.189,220.038,85.193C235.343,83.197,250.979,85.526,265.950,90.183C271.274,91.848,278.925,93.844,283.582,97.503C291.567,103.825,296.675,115.098,299.552,124.451C301.834,131.242,305.940,140.380,304.066,146.886C295.554,176.443,291.623,190.106,285.703,198.365C278.396,208.560,265.163,212.340,253.588,216.888C241.948,221.269,230.138,222.641,224.031,222.264C211.726,221.504,185.217,215.477,176.122,207.957C165.201,198.581,164.054,184.252,159.599,171.206C157.078,164.507,152.809,154.481,151.449,147.601C149.445,136.551,158.158,113.344,165.143,104.823M287.600,89.827C273.982,77.607,237.715,74.796,220.081,77.440C211.762,78.430,203.776,79.088,196.122,81.079C190.463,82.741,185.467,85.400,180.140,87.063C168.494,91.387,163.682,89.948,155.852,100.713C150.229,108.248,141.352,137.949,142.414,147.132C143.333,154.019,150.943,169.213,153.412,176.916C156.626,187.142,159.015,201.883,165.633,209.829C173.099,218.532,183.254,223.061,198.792,227.145C210.034,230.100,222.472,230.941,234.441,231.139C238.833,231.480,246.992,229.011,258.806,224.121C270.904,218.935,284.269,214.626,292.590,203.306C302.501,189.823,306.231,167.622,314.592,145.437C321.524,127.041,296.085,97.277,287.600,89.827Z"/>
<path class="path-15" d="M220.038,85.193C235.343,83.197,250.979,85.526,265.950,90.183"/>
<path class="path-15" d="M265.950,90.183C271.274,91.848,278.925,93.844,283.582,97.503"/>
<path class="path-15" d="M283.582,97.503C291.567,103.825,296.675,115.098,299.552,124.451"/>
<path class="path-15" d="M299.552,124.451C301.834,131.242,305.940,140.380,304.066,146.886"/>
<path class="path-15" d="M304.066,146.886C295.554,176.443,291.623,190.106,285.703,198.365"/>
<path class="path-15" d="M285.703,198.365C278.396,208.560,265.163,212.340,253.588,216.888"/>
<path class="path-15" d="M253.588,216.888C241.948,221.269,230.138,222.641,224.031,222.264"/>
<path class="path-15" d="M224.031,222.264C211.726,221.504,185.217,215.477,176.122,207.957"/>
<path class="path-15" d="M176.122,207.957C165.201,198.581,164.054,184.252,159.599,171.206"/>
<path class="path-15" d="M159.599,171.206C157.078,164.507,152.809,154.481,151.449,147.601"/>
<path class="path-15" d="M151.449,147.601C149.445,136.551,158.158,113.344,165.143,104.823"/>
<path class="path-15" d="M165.143,104.823C173.630,94.374,206.398,87.189,220.038,85.193"/>
<path class="path-16" d="M220.038,85.193C235.343,83.197,250.979,85.526,265.950,90.183C271.274,91.848,278.925,93.844,283.582,97.503C291.567,103.825,296.675,115.098,299.552,124.451C301.834,131.242,305.940,140.380,304.066,146.886C295.554,176.443,291.623,190.106,285.703,198.365C278.396,208.560,265.163,212.340,253.588,216.888C241.948,221.269,230.138,222.641,224.031,222.264C211.726,221.504,185.217,215.477,176.122,207.957C165.201,198.581,164.054,184.252,159.599,171.206C157.078,164.507,152.809,154.481,151.449,147.601C149.445,136.551,158.158,113.344,165.143,104.823C173.630,94.374,206.398,87.189,220.038,85.193Z"/>
</g>
</g>
<mask id="mask_target" style="mask-type:alpha;">
<use xlink:href="#face_Mask"/>
</mask>
<g id="mouse">
<path class="path-0" d="M231.351,214.024C236.556,215.128,236.639,219.881,236.165,220.388C235.898,220.674,234.776,219.723,231.816,219.236C226.210,218.314,223.504,219.487,223.306,218.773C223.090,217.990,225.259,212.732,231.351,214.024Z"/>
</g>
<g id="layer_eyes_Mtarget" mask="url(#mask_target)">
<g id="eyes">
<mask style="mask-type:alpha;" id="f3906406-f197-4bf1-91d8-744c09cca836">
<use xlink:href="#cmn_f3906406-f197-4bf1-91d8-744c09cca836"/>
</mask>
<g id="cmn_f3906406-f197-4bf1-91d8-744c09cca836">
<path class="path-0" d="M208.953,173.942C210.662,186.848,202.251,195.333,189.291,191.910C181.791,189.708,178.413,184.203,175.743,177.498C174.171,173.969,166.541,157.840,172.270,159.700C176.945,161.218,208.333,169.259,208.953,173.942M215.609,177.017C216.499,175.510,217.770,173.238,217.523,171.504C217.247,169.566,215.654,166.475,213.683,166.226C208.331,165.429,189.494,159.276,182.701,156.773C175.922,154.439,162.351,146.273,158.065,153.187C156.459,155.655,160.332,156.314,161.684,160.190C168.262,179.055,174.015,196.641,194.586,197.617C212.360,198.460,211.119,184.620,215.609,177.017M258.289,186.789C251.198,186.659,241.837,181.279,241.878,170.229C241.890,166.897,255.351,161.615,261.385,158.378C267.307,155.202,278.582,148.774,281.660,148.860C285.146,149.378,283.385,152.471,283.432,162.099C283.502,176.461,271.231,187.027,258.289,186.789M289.531,168.418C292.452,156.345,292.861,140.207,290.513,139.168C285.523,136.958,272.867,146.314,265.462,149.733C255.758,154.213,240.342,163.638,233.664,165.799C231.732,166.503,229.989,167.054,229.731,168.454C229.219,171.232,234.490,173.034,236.288,175.213C239.473,179.073,240.469,186.134,245.707,188.980C255.606,194.761,263.068,192.488,273.921,187.518C282.391,183.680,287.468,176.946,289.531,168.418Z"/>
<path class="path-17" d="M281.660,148.860C285.146,149.378,283.385,152.471,283.432,162.099"/>
<path class="path-17" d="M283.432,162.099C283.502,176.461,271.231,187.027,258.289,186.789"/>
<path class="path-17" d="M258.289,186.789C251.198,186.659,241.837,181.279,241.878,170.229"/>
<path class="path-17" d="M241.878,170.229C241.890,166.897,255.351,161.615,261.385,158.378"/>
<path class="path-17" d="M261.385,158.378C267.307,155.202,278.582,148.774,281.660,148.860"/>
<path class="path-18" d="M281.660,148.860C285.146,149.378,283.385,152.471,283.432,162.099C283.502,176.461,271.231,187.027,258.289,186.789C251.198,186.659,241.837,181.279,241.878,170.229C241.890,166.897,255.351,161.615,261.385,158.378C267.307,155.202,278.582,148.774,281.660,148.860Z"/>
<path class="path-17" d="M172.270,159.700C176.945,161.218,208.333,169.259,208.953,173.942"/>
<path class="path-17" d="M208.953,173.942C210.662,186.848,202.251,195.333,189.291,191.910"/>
<path class="path-17" d="M189.291,191.910C181.791,189.708,178.413,184.203,175.743,177.498"/>
<path class="path-17" d="M175.743,177.498C174.171,173.969,166.541,157.840,172.270,159.700"/>
<path class="path-18" d="M172.270,159.700C176.945,161.218,208.333,169.259,208.953,173.942C210.662,186.848,202.251,195.333,189.291,191.910C181.791,189.708,178.413,184.203,175.743,177.498C174.171,173.969,166.541,157.840,172.270,159.700Z"/>
</g>
</g>
<g id="pupil">
<path class="path-0" d="M247.391,163.421C249.663,162.849,252.884,165.982,253.745,174.388C254.395,180.734,252.706,183.338,250.949,183.539C249.049,183.755,247.404,181.165,246.121,174.388C244.751,167.156,245.412,163.918,247.391,163.421Z" mask="url(#f3906406-f197-4bf1-91d8-744c09cca836)"/>
<path class="path-0" d="M200.579,166.291C202.916,166.004,204.683,169.845,205.232,178.602C205.545,183.611,205.011,185.653,203.702,185.973C202.146,186.354,200.015,184.406,198.619,178.602C196.675,170.522,198.365,166.563,200.579,166.291Z" mask="url(#f3906406-f197-4bf1-91d8-744c09cca836)"/>
</g>
</g>
<g id="hat">
<path class="path-0" d="M303.544,122.455C305.540,123.786,308.535,126.114,308.868,128.777C310.199,135.097,299.221,134.432,295.893,134.766C289.240,134.766,282.285,134.572,275.931,134.766C270.847,135.383,265.760,135.960,260.665,136.485C252.444,136.689,244.229,136.478,236.007,136.428C221.369,136.916,206.733,136.478,192.092,136.428C190.803,136.476,151.170,141.086,144.517,137.427C135.866,132.769,144.849,126.114,144.517,121.790C144.517,118.129,136.532,117.132,138.528,110.812C140.524,104.823,161.816,100.831,168.138,99.499C180.448,96.838,193.090,93.177,206.065,91.181C224.364,88.520,243.328,88.853,261.958,87.188C274.269,86.190,302.546,94.175,307.870,106.819C312.527,117.464,295.893,107.484,293.897,106.819C292.565,105.821,287.909,103.825,288.907,106.819C289.905,112.474,299.552,119.127,303.544,122.455M186.103,86.857C175.766,89.428,166.141,91.181,156.160,93.511C151.835,94.509,146.513,97.169,142.521,94.842C133.538,89.851,143.185,66.895,147.511,60.907C161.816,41.610,192.794,33.362,218.042,33.292C262.978,33.167,280.588,39.947,295.560,54.919C300.219,59.242,316.852,80.869,308.203,86.857C304.876,88.853,298.887,84.861,295.893,83.530C285.579,79.204,244.264,72.395,186.103,86.857M243.993,22.647C237.006,22.313,235.343,20.984,228.023,21.649C196.749,24.976,154.498,26.306,135.866,56.582C129.877,66.562,129.877,77.875,127.881,88.520C126.218,97.170,121.228,103.825,122.226,112.475C123.224,119.461,126.218,121.124,128.547,126.448C131.208,132.103,129.877,134.766,131.542,138.425C135.201,149.071,144.849,148.494,154.165,148.406C159.016,148.361,176.910,148.224,186.657,148.047C198.573,147.831,214.460,147.417,226.373,147.032C235.503,146.738,247.677,146.322,256.801,145.855C265.185,145.427,276.367,144.837,284.729,144.087C294.994,143.167,317.662,141.335,318.849,140.088C320.983,137.886,324.838,116.467,324.838,112.475C324.838,109.147,323.175,105.821,323.175,100.497C322.841,85.859,322.508,72.218,314.192,58.578C298.887,33.959,271.274,24.643,243.993,22.647Z"/>
<path class="path-19" d="M261.958,87.188C274.269,86.190,302.546,94.175,307.870,106.819"/>
<path class="path-19" d="M307.870,106.819C312.527,117.464,295.893,107.484,293.897,106.819"/>
<path class="path-19" d="M293.897,106.819C292.565,105.821,287.909,103.825,288.907,106.819"/>
<path class="path-19" d="M288.907,106.819C289.905,112.474,299.552,119.127,303.544,122.455"/>
<path class="path-19" d="M303.544,122.455C305.540,123.786,308.535,126.114,308.868,128.777"/>
<path class="path-19" d="M308.868,128.777C310.199,135.097,299.221,134.432,295.893,134.766"/>
<path class="path-19" d="M295.893,134.766C289.240,134.766,282.285,134.572,275.931,134.766"/>
<path class="path-19" d="M275.931,134.766C270.847,135.383,265.760,135.960,260.665,136.485"/>
<path class="path-19" d="M260.665,136.485C252.444,136.689,244.229,136.478,236.007,136.428"/>
<path class="path-19" d="M236.007,136.428C221.369,136.916,206.733,136.478,192.092,136.428"/>
<path class="path-19" d="M192.092,136.428C190.803,136.476,151.170,141.086,144.517,137.427"/>
<path class="path-19" d="M144.517,137.427C135.866,132.769,144.849,126.114,144.517,121.790"/>
<path class="path-19" d="M144.517,121.790C144.517,118.129,136.532,117.132,138.528,110.812"/>
<path class="path-19" d="M138.528,110.812C140.524,104.823,161.816,100.831,168.138,99.499"/>
<path class="path-19" d="M168.138,99.499C180.448,96.838,193.090,93.177,206.065,91.181"/>
<path class="path-19" d="M206.065,91.181C224.364,88.520,243.328,88.853,261.958,87.188"/>
<path class="path-20" d="M261.958,87.188C274.269,86.190,302.546,94.175,307.870,106.819C312.527,117.464,295.893,107.484,293.897,106.819C292.565,105.821,287.909,103.825,288.907,106.819C289.905,112.474,299.552,119.127,303.544,122.455C305.540,123.786,308.535,126.114,308.868,128.777C310.199,135.097,299.221,134.432,295.893,134.766C289.240,134.766,282.285,134.572,275.931,134.766C270.847,135.383,265.760,135.960,260.665,136.485C252.444,136.689,244.229,136.478,236.007,136.428C221.369,136.916,206.733,136.478,192.092,136.428C190.803,136.476,151.170,141.086,144.517,137.427C135.866,132.769,144.849,126.114,144.517,121.790C144.517,118.129,136.532,117.132,138.528,110.812C140.524,104.823,161.816,100.831,168.138,99.499C180.448,96.838,193.090,93.177,206.065,91.181C224.364,88.520,243.328,88.853,261.958,87.188Z"/>
<path class="path-9" d="M218.042,33.292C262.978,33.167,280.588,39.947,295.560,54.919"/>
<path class="path-9" d="M295.560,54.919C300.219,59.242,316.852,80.869,308.203,86.857"/>
<path class="path-9" d="M308.203,86.857C304.876,88.853,298.887,84.861,295.893,83.530"/>
<path class="path-9" d="M295.893,83.530C285.579,79.204,244.264,72.395,186.103,86.857"/>
<path class="path-9" d="M186.103,86.857C175.766,89.428,166.141,91.181,156.160,93.511"/>
<path class="path-9" d="M156.160,93.511C151.835,94.509,146.513,97.169,142.521,94.842"/>
<path class="path-9" d="M142.521,94.842C133.538,89.851,143.185,66.895,147.511,60.907"/>
<path class="path-9" d="M147.511,60.907C161.816,41.610,192.794,33.362,218.042,33.292"/>
<path class="path-10" d="M218.042,33.292C262.978,33.167,280.588,39.947,295.560,54.919C300.219,59.242,316.852,80.869,308.203,86.857C304.876,88.853,298.887,84.861,295.893,83.530C285.579,79.204,244.264,72.395,186.103,86.857C175.766,89.428,166.141,91.181,156.160,93.511C151.835,94.509,146.513,97.169,142.521,94.842C133.538,89.851,143.185,66.895,147.511,60.907C161.816,41.610,192.794,33.362,218.042,33.292Z"/>
</g>
<g id="left_ear">
<path class="path-0" d="M303.230,187.124C302.118,183.284,311.843,159.031,313.462,156.804C318.398,150.012,329.997,160.437,331.006,166.920C332.098,175.025,320.340,182.962,313.706,187.744C308.875,191.115,304.651,192.029,303.230,187.124M339.322,170.912C340.987,158.270,330.034,141.497,317.698,144.297C304.669,147.254,303.392,164.590,299.399,174.904C297.736,179.561,295.075,184.220,294.408,188.877C293.079,197.195,296.405,204.514,305.721,202.517C319.029,199.523,336.995,185.218,339.322,170.912Z"/>
<path class="path-15" d="M313.462,156.804C318.398,150.012,329.997,160.437,331.006,166.920"/>
<path class="path-15" d="M331.006,166.920C332.098,175.025,320.340,182.962,313.706,187.744"/>
<path class="path-15" d="M313.706,187.744C308.875,191.115,304.651,192.029,303.230,187.124"/>
<path class="path-15" d="M303.230,187.124C302.118,183.284,311.843,159.031,313.462,156.804"/>
<path class="path-16" d="M313.462,156.804C318.398,150.012,329.997,160.437,331.006,166.920C332.098,175.025,320.340,182.962,313.706,187.744C308.875,191.115,304.651,192.029,303.230,187.124C302.118,183.284,311.843,159.031,313.462,156.804Z"/>
</g>
<g id="earrings">
<path class="path-0" d="M324.020,204.829C315.097,207.834,313.607,187.986,317.418,188.617C322.671,190.831,326.544,200.903,324.020,204.829M332.571,197.393C325.681,196.111,323.377,187.572,323.192,183.590C330.783,186.004,340.001,192.652,332.571,197.393M340.474,192.322C338.195,184.620,327.366,179.128,319.847,176.352C317.594,175.520,312.432,183.897,312.060,186.396C310.871,190.266,309.453,212.701,322.941,210.971C328.431,210.019,342.317,198.553,340.474,192.322Z"/>
<path class="path-21" d="M323.192,183.590C330.783,186.004,340.001,192.652,332.571,197.393"/>
<path class="path-21" d="M332.571,197.393C325.681,196.111,323.377,187.572,323.192,183.590"/>
<path class="path-22" d="M323.192,183.590C330.783,186.004,340.001,192.652,332.571,197.393C325.681,196.111,323.377,187.572,323.192,183.590Z"/>
<path class="path-21" d="M317.418,188.617C322.671,190.831,326.544,200.903,324.020,204.829"/>
<path class="path-21" d="M324.020,204.829C315.097,207.834,313.607,187.986,317.418,188.617"/>
<path class="path-22" d="M317.418,188.617C322.671,190.831,326.544,200.903,324.020,204.829C315.097,207.834,313.607,187.986,317.418,188.617Z"/>
</g>
</g>
<g id="jacket">
<path class="path-0" d="M202.406,270.837C205.067,275.163,202.406,285.477,202.406,290.134C200.410,307.101,197.434,323.354,197.747,340.038C197.941,344.002,196.702,350.935,194.788,355.134C193.407,358.164,190.876,362.780,188.100,363.993C184.682,365.424,183.260,358.690,182.335,355.842C181.055,351.902,182.193,344.657,182.444,342.034C183.272,336.825,185.842,326.728,185.696,320.076C185.603,313.545,182.090,307.285,181.406,300.115C180.460,294.759,179.024,288.443,177.893,282.483C177.924,279.336,178.455,277.386,178.523,275.162C178.186,269.677,180.854,268.284,186.103,267.842C190.946,267.780,200.741,265.515,202.406,270.837M258.630,280.487C260.295,276.825,286.209,259.286,289.571,257.530C297.900,253.674,302.055,262.954,301.990,268.356C301.998,277.059,287.239,305.737,288.907,311.758C289.484,314.441,291.567,315.751,293.232,317.416C306.207,331.721,300.219,323.071,313.859,329.392C320.181,332.387,332.072,341.144,337.479,345.362C340.816,348.301,348.479,354.753,350.343,358.483C351.437,361.257,352.451,366.397,348.235,367.577C346.754,368.194,330.582,367.236,327.832,367.320C315.507,367.027,302.215,367.651,291.900,359.335C288.573,356.341,285.912,352.015,283.251,348.023C273.602,334.049,266.949,318.413,261.958,302.111C259.962,296.456,256.634,286.475,258.630,280.487M275.230,255.283C272.183,258.419,266.125,263.498,263.954,264.517C256.051,267.722,254.494,258.172,253.973,252.207C253.708,247.057,256.679,239.764,259.756,235.414C262.467,231.581,266.838,226.324,271.938,225.592C278.373,224.434,289.284,231.254,287.908,238.566C287.494,241.924,279.616,250.769,275.230,255.283M193.136,233.676C198.052,237.591,201.611,242.294,200.791,246.769C200.019,250.988,196.955,253.371,189.763,255.866C178.455,259.789,169.485,242.438,172.988,235.284C175.654,229.838,186.815,228.642,193.136,233.676M364.535,364.392C360.620,358.218,358.703,353.558,353.448,348.023C345.428,339.739,335.816,330.391,325.835,324.734C315.854,319.412,307.900,321.012,301.217,310.096C295.344,300.868,299.587,290.545,301.064,280.153C301.429,276.460,302.038,257.588,302.107,254.203C301.656,250.792,302.060,247.348,301.548,244.222C301.042,240.362,301.548,236.237,300.218,232.578C298.222,225.923,291.236,222.929,285.912,219.603C278.592,215.611,272.268,213.715,263.954,215.611C254.842,217.700,251.739,227.853,249.173,234.602C245.263,244.887,247.348,260.257,247.762,271.253C247.999,277.547,249.081,286.270,249.981,292.130C253.108,314.875,276.596,362.995,297.889,371.977C302.546,374.307,333.950,378.532,343.801,378.630C349.928,378.722,353.052,378.574,358.620,380.696C361.340,381.855,368.082,385.306,370.710,382.580C374.644,378.758,366.685,367.784,364.535,364.392M207.065,233.565C203.773,227.822,198.342,218.282,191.571,217.851C185.171,217.649,175.443,218.962,169.647,222.351C166.155,224.393,160.863,228.165,160.487,232.245C159.787,238.326,162.371,245.593,165.457,250.281C167.228,252.972,171.520,254.876,173.609,257.269C174.707,258.596,178.824,265.900,179.562,267.903C183.619,278.046,179.189,290.113,178.598,299.612C178.106,307.515,176.787,318.000,176.153,325.893C175.428,334.919,174.821,346.159,174.126,356.007C173.842,358.279,173.775,363.345,174.012,366.477C174.260,369.758,174.119,375.887,175.789,377.301C176.633,378.016,186.815,379.404,190.981,377.555C195.190,375.686,198.563,375.559,201.074,365.988C203.959,353.823,205.732,342.699,206.065,330.057C206.065,308.433,212.464,279.358,211.720,266.179C211.381,260.167,212.437,256.170,211.191,247.783C210.571,244.324,209.273,237.419,207.065,233.565Z"/>
<path class="path-1" d="M289.571,257.530C297.900,253.674,302.055,262.954,301.990,268.356"/>
<path class="path-1" d="M301.990,268.356C301.998,277.059,287.239,305.737,288.907,311.758"/>
<path class="path-1" d="M288.907,311.758C289.484,314.441,291.567,315.751,293.232,317.416"/>
<path class="path-1" d="M293.232,317.416C306.207,331.721,300.219,323.071,313.859,329.392"/>
<path class="path-1" d="M313.859,329.392C320.181,332.387,332.072,341.144,337.479,345.362"/>
<path class="path-1" d="M337.479,345.362C340.816,348.301,348.479,354.753,350.343,358.483"/>
<path class="path-1" d="M350.343,358.483C351.437,361.257,352.451,366.397,348.235,367.577"/>
<path class="path-1" d="M348.235,367.577C346.754,368.194,330.582,367.236,327.832,367.320"/>
<path class="path-1" d="M327.832,367.320C315.507,367.027,302.215,367.651,291.900,359.335"/>
<path class="path-1" d="M291.900,359.335C288.573,356.341,285.912,352.015,283.251,348.023"/>
<path class="path-1" d="M283.251,348.023C273.602,334.049,266.949,318.413,261.958,302.111"/>
<path class="path-1" d="M261.958,302.111C259.962,296.456,256.634,286.475,258.630,280.487"/>
<path class="path-1" d="M258.630,280.487C260.295,276.825,286.209,259.286,289.571,257.530"/>
<path class="path-2" d="M289.571,257.530C297.900,253.674,302.055,262.954,301.990,268.356C301.998,277.059,287.239,305.737,288.907,311.758C289.484,314.441,291.567,315.751,293.232,317.416C306.207,331.721,300.219,323.071,313.859,329.392C320.181,332.387,332.072,341.144,337.479,345.362C340.816,348.301,348.479,354.753,350.343,358.483C351.437,361.257,352.451,366.397,348.235,367.577C346.754,368.194,330.582,367.236,327.832,367.320C315.507,367.027,302.215,367.651,291.900,359.335C288.573,356.341,285.912,352.015,283.251,348.023C273.602,334.049,266.949,318.413,261.958,302.111C259.962,296.456,256.634,286.475,258.630,280.487C260.295,276.825,286.209,259.286,289.571,257.530Z"/>
<path class="path-1" d="M186.103,267.842C190.946,267.780,200.741,265.515,202.406,270.837"/>
<path class="path-1" d="M202.406,270.837C205.067,275.163,202.406,285.477,202.406,290.134"/>
<path class="path-1" d="M202.406,290.134C200.410,307.101,197.434,323.354,197.747,340.038"/>
<path class="path-1" d="M197.747,340.038C197.941,344.002,196.702,350.935,194.788,355.134"/>
<path class="path-1" d="M194.788,355.134C193.407,358.164,190.876,362.780,188.100,363.993"/>
<path class="path-1" d="M188.100,363.993C184.682,365.424,183.260,358.690,182.335,355.842"/>
<path class="path-1" d="M182.335,355.842C181.055,351.902,182.193,344.657,182.444,342.034"/>
<path class="path-1" d="M182.444,342.034C183.272,336.825,185.842,326.728,185.696,320.076"/>
<path class="path-1" d="M185.696,320.076C185.603,313.545,182.090,307.285,181.406,300.115"/>
<path class="path-1" d="M181.406,300.115C180.460,294.759,179.024,288.443,177.893,282.483"/>
<path class="path-1" d="M177.893,282.483C177.924,279.336,178.455,277.386,178.523,275.162"/>
<path class="path-1" d="M178.523,275.162C178.186,269.677,180.854,268.284,186.103,267.842"/>
<path class="path-2" d="M186.103,267.842C190.946,267.780,200.741,265.515,202.406,270.837C205.067,275.163,202.406,285.477,202.406,290.134C200.410,307.101,197.434,323.354,197.747,340.038C197.941,344.002,196.702,350.935,194.788,355.134C193.407,358.164,190.876,362.780,188.100,363.993C184.682,365.424,183.260,358.690,182.335,355.842C181.055,351.902,182.193,344.657,182.444,342.034C183.272,336.825,185.842,326.728,185.696,320.076C185.603,313.545,182.090,307.285,181.406,300.115C180.460,294.759,179.024,288.443,177.893,282.483C177.924,279.336,178.455,277.386,178.523,275.162C178.186,269.677,180.854,268.284,186.103,267.842Z"/>
<path class="path-1" d="M271.938,225.592C278.373,224.434,289.284,231.254,287.908,238.566"/>
<path class="path-1" d="M287.908,238.566C287.494,241.924,279.616,250.769,275.230,255.283"/>
<path class="path-1" d="M275.230,255.283C272.183,258.419,266.125,263.498,263.954,264.517"/>
<path class="path-1" d="M263.954,264.517C256.051,267.722,254.494,258.172,253.973,252.207"/>
<path class="path-1" d="M253.973,252.207C253.708,247.057,256.679,239.764,259.756,235.414"/>
<path class="path-1" d="M259.756,235.414C262.467,231.581,266.838,226.324,271.938,225.592"/>
<path class="path-2" d="M271.938,225.592C278.373,224.434,289.284,231.254,287.908,238.566C287.494,241.924,279.616,250.769,275.230,255.283C272.183,258.419,266.125,263.498,263.954,264.517C256.051,267.722,254.494,258.172,253.973,252.207C253.708,247.057,256.679,239.764,259.756,235.414C262.467,231.581,266.838,226.324,271.938,225.592Z"/>
<path class="path-1" d="M193.136,233.676C198.052,237.591,201.611,242.294,200.791,246.769"/>
<path class="path-1" d="M200.791,246.769C200.019,250.988,196.955,253.371,189.763,255.866"/>
<path class="path-1" d="M189.763,255.866C178.455,259.789,169.485,242.438,172.988,235.284"/>
<path class="path-1" d="M172.988,235.284C175.654,229.838,186.815,228.642,193.136,233.676"/>
<path class="path-2" d="M193.136,233.676C198.052,237.591,201.611,242.294,200.791,246.769C200.019,250.988,196.955,253.371,189.763,255.866C178.455,259.789,169.485,242.438,172.988,235.284C175.654,229.838,186.815,228.642,193.136,233.676Z"/>
</g>
<g id="left_arm">
<path class="path-0" d="M290.902,459.809C287.575,454.485,286.245,445.502,293.897,443.175C299.221,441.510,323.174,446.834,327.167,450.826C334.153,457.148,330.161,471.786,321.510,475.113C311.529,478.439,296.226,468.127,290.902,459.809M279.516,276.423C280.393,273.226,288.864,263.064,293.897,264.184C296.819,264.834,298.222,269.839,299.220,272.502C301.881,280.818,304.543,289.469,306.872,298.119C313.194,320.741,317.518,343.366,322.177,365.988C323.839,375.305,323.839,387.613,327.167,395.931C331.159,405.579,337.479,402.253,340.474,408.573C341.805,411.567,341.140,417.224,343.136,421.881C346.130,429.201,351.785,433.194,354.446,437.851C356.111,440.512,356.776,443.506,353.117,444.173C351.121,445.171,345.797,444.173,343.801,444.173C337.144,442.402,330.490,440.627,323.840,438.849C314.857,436.852,287.575,435.521,282.918,429.533C275.931,420.218,286.910,409.240,288.242,399.924C288.907,396.930,292.189,352.967,291.567,350.019C290.899,343.164,287.387,337.131,285.841,330.057C284.214,320.430,282.539,310.147,281.179,300.115C280.223,291.877,276.733,285.067,279.516,276.423M305.541,254.536C303.213,249.877,295.893,241.561,289.904,242.890C284.914,244.222,284.249,250.210,283.582,254.203C281.920,264.184,279.924,272.502,279.924,282.149C279.590,289.136,280.257,295.458,280.921,302.111C281.586,311.427,279.590,329.392,279.924,340.038C279.924,349.686,282.253,359.667,281.586,367.985C279.590,387.613,271.273,406.246,271.938,425.874C271.939,435.855,274.600,435.855,276.929,443.840C278.592,449.828,277.263,456.150,279.590,461.805C285.579,476.776,302.880,490.416,319.847,487.091C335.483,484.096,336.150,467.129,344.466,458.146C351.786,450.161,366.424,454.154,368.420,445.835C370.416,438.849,360.769,431.198,357.110,425.874C349.790,415.893,355.445,413.563,351.786,405.912C349.125,400.257,341.471,395.267,337.813,387.947C335.816,384.619,334.819,378.299,333.487,373.973C330.826,363.992,327.831,352.680,326.169,342.034C324.504,329.724,324.173,318.745,320.845,306.103C318.184,295.458,310.200,262.852,305.541,254.536Z"/>
<path class="path-1" d="M293.897,264.184C296.819,264.834,298.222,269.839,299.220,272.502"/>
<path class="path-1" d="M299.220,272.502C301.881,280.818,304.543,289.469,306.872,298.119"/>
<path class="path-1" d="M306.872,298.119C313.194,320.741,317.518,343.366,322.177,365.988"/>
<path class="path-1" d="M322.177,365.988C323.839,375.305,323.839,387.613,327.167,395.931"/>
<path class="path-1" d="M327.167,395.931C331.159,405.579,337.479,402.253,340.474,408.573"/>
<path class="path-1" d="M340.474,408.573C341.805,411.567,341.140,417.224,343.136,421.881"/>
<path class="path-1" d="M343.136,421.881C346.130,429.201,351.785,433.194,354.446,437.851"/>
<path class="path-1" d="M354.446,437.851C356.111,440.512,356.776,443.506,353.117,444.173"/>
<path class="path-1" d="M353.117,444.173C351.121,445.171,345.797,444.173,343.801,444.173"/>
<path class="path-1" d="M343.801,444.173C337.144,442.402,330.490,440.627,323.840,438.849"/>
<path class="path-1" d="M323.840,438.849C314.857,436.852,287.575,435.521,282.918,429.533"/>
<path class="path-1" d="M282.918,429.533C275.931,420.218,286.910,409.240,288.242,399.924"/>
<path class="path-1" d="M288.242,399.924C288.907,396.930,292.189,352.967,291.567,350.019"/>
<path class="path-1" d="M291.567,350.019C290.899,343.164,287.387,337.131,285.841,330.057"/>
<path class="path-1" d="M285.841,330.057C284.214,320.430,282.539,310.147,281.179,300.115"/>
<path class="path-1" d="M281.179,300.115C280.223,291.877,276.733,285.067,279.516,276.423"/>
<path class="path-1" d="M279.516,276.423C280.393,273.226,288.864,263.064,293.897,264.184"/>
<path class="path-2" d="M293.897,264.184C296.819,264.834,298.222,269.839,299.220,272.502C301.881,280.818,304.543,289.469,306.872,298.119C313.194,320.741,317.518,343.366,322.177,365.988C323.839,375.305,323.839,387.613,327.167,395.931C331.159,405.579,337.479,402.253,340.474,408.573C341.805,411.567,341.140,417.224,343.136,421.881C346.130,429.201,351.785,433.194,354.446,437.851C356.111,440.512,356.776,443.506,353.117,444.173C351.121,445.171,345.797,444.173,343.801,444.173C337.144,442.402,330.490,440.627,323.840,438.849C314.857,436.852,287.575,435.521,282.918,429.533C275.931,420.218,286.910,409.240,288.242,399.924C288.907,396.930,292.189,352.967,291.567,350.019C290.899,343.164,287.387,337.131,285.841,330.057C284.214,320.430,282.539,310.147,281.179,300.115C280.223,291.877,276.733,285.067,279.516,276.423C280.393,273.226,288.864,263.064,293.897,264.184Z"/>
<path class="path-15" d="M293.897,443.175C299.221,441.510,323.174,446.834,327.167,450.826"/>
<path class="path-15" d="M327.167,450.826C334.153,457.148,330.161,471.786,321.510,475.113"/>
<path class="path-15" d="M321.510,475.113C311.529,478.439,296.226,468.127,290.902,459.809"/>
<path class="path-15" d="M290.902,459.809C287.575,454.485,286.245,445.502,293.897,443.175"/>
<path class="path-16" d="M293.897,443.175C299.221,441.510,323.174,446.834,327.167,450.826C334.153,457.148,330.161,471.786,321.510,475.113C311.529,478.439,296.226,468.127,290.902,459.809C287.575,454.485,286.245,445.502,293.897,443.175Z"/>
</g>
<g id="bone">
<g id="bone_B20">
<path class="path-23" d="M223.076,133.323C221.083,121.513,219.089,109.703,217.095,97.893"/>
</g>
<g id="bone_">
<path class="path-23" d="M552.381,338.786C552.381,314.804,552.381,290.822,552.381,266.841"/>
</g>
<g id="bone_">
<path class="path-23" d="M496.479,337.308C496.479,313.696,496.479,290.084,496.479,266.472"/>
</g>
<g id="bone_">
<path class="path-23" d="M436.410,337.308C436.410,313.696,436.410,290.084,436.410,266.472"/>
</g>
<g id="bone_">
<path class="path-23" d="M604.616,215.385C604.616,191.773,604.616,168.161,604.616,144.549"/>
</g>
<g id="bone_">
<path class="path-23" d="M436.410,216.411C459.918,214.188,483.425,211.966,506.932,209.744"/>
</g>
<g id="bone_">
<path class="path-23" d="M551.282,215.385C551.282,191.773,551.282,168.161,551.282,144.549"/>
</g>
<g id="bone_">
<path class="path-23" d="M495.897,216.411C495.897,192.799,495.897,169.186,495.897,145.574"/>
</g>
<g id="bone_B18">
<path class="path-23" d="M216.923,386.667C212.820,418.803,208.718,450.940,204.615,483.077"/>
</g>
<g id="bone_B17">
<path class="path-23" d="M263.077,386.667C265.762,419.933,268.447,453.200,271.131,486.467"/>
</g>
<g id="bone_B16">
<path class="path-23" d="M227.342,158.587C231.497,183.199,235.652,207.810,239.807,232.421"/>
</g>
<g id="bone_B14">
<path class="path-23" d="M152.308,382.564C158.462,400.684,164.615,418.804,170.769,436.924"/>
</g>
<g id="bone_B13">
<path class="path-23" d="M177.948,271.795C169.402,308.718,160.855,345.641,152.308,382.564"/>
</g>
<g id="bone_B11">
<path class="path-23" d="M306.154,348.718C308.547,370.599,310.940,392.479,313.333,414.360"/>
</g>
<g id="bone_B9">
<path class="path-23" d="M290.769,257.436C295.897,287.863,301.025,318.291,306.154,348.718"/>
</g>
<g id="bone_B5">
<path class="path-23" d="M236.410,212.299C231.965,185.974,227.521,159.648,223.076,133.323"/>
</g>
<g id="bone_B4">
<path class="path-23" d="M234.359,254.350C235.042,240.333,235.726,226.316,236.410,212.299"/>
</g>
<g id="bone_B3">
<path class="path-23" d="M239.487,327.170C237.778,302.897,236.068,278.623,234.359,254.350"/>
</g>
<g id="bone_B2">
<path class="path-23" d="M239.487,386.667C239.487,366.835,239.487,347.003,239.487,327.170"/>
</g>
<g id="bone_B1">
<path class="path-23" d="M239.487,386.667C251.464,386.667,263.441,386.667,275.418,386.667"/>
</g>
</g>
</g>
<style>
.path-0{fill:#000000;fill-rule:evenodd;stroke:none;}
.path-1{fill:none;stroke:#a60d3f;stroke-width:1;stroke-linecap:butt;stroke-linejoin:round;}
.path-2{fill:#a60d3f;fill-rule:evenodd;stroke:none;}
.path-3{fill:none;stroke:#d88e4b;stroke-width:1;stroke-linecap:butt;stroke-linejoin:round;}
.path-4{fill:#d88e4b;fill-rule:evenodd;stroke:none;}
.path-5{fill:none;stroke:#6e2353;stroke-width:1;stroke-linecap:butt;stroke-linejoin:round;}
.path-6{fill:#6e2353;fill-rule:evenodd;stroke:none;}
.path-7{fill:none;stroke:#392966;stroke-width:1;stroke-linecap:butt;stroke-linejoin:round;}
.path-8{fill:#392966;fill-rule:evenodd;stroke:none;}
.path-9{fill:none;stroke:#cc9bc5;stroke-width:1;stroke-linecap:butt;stroke-linejoin:round;}
.path-10{fill:#cc9bc5;fill-rule:evenodd;stroke:none;}
.path-11{fill:none;stroke:#620527;stroke-width:1;stroke-linecap:butt;stroke-linejoin:round;}
.path-12{fill:#620527;fill-rule:evenodd;stroke:none;}
.path-13{fill:none;stroke:#6a3661;stroke-width:1;stroke-linecap:butt;stroke-linejoin:round;}
.path-14{fill:#6a3661;fill-rule:evenodd;stroke:none;}
.path-15{fill:none;stroke:#f8a087;stroke-width:1;stroke-linecap:butt;stroke-linejoin:round;}
.path-16{fill:#f8a087;fill-rule:evenodd;stroke:none;}
.path-17{fill:none;stroke:#ffffff;stroke-width:1;stroke-linecap:butt;stroke-linejoin:round;}
.path-18{fill:#ffffff;fill-rule:evenodd;stroke:none;}
.path-19{fill:none;stroke:#d89f4a;stroke-width:1;stroke-linecap:butt;stroke-linejoin:round;}
.path-20{fill:#d89f4a;fill-rule:evenodd;stroke:none;}
.path-21{fill:none;stroke:#fafd5b;stroke-width:1;stroke-linecap:butt;stroke-linejoin:round;}
.path-22{fill:#fafd5b;fill-rule:evenodd;stroke:none;}
.path-23{fill:none;stroke:#00ff00;stroke-width:8;stroke-linecap:round;stroke-linejoin:round;}
</style>
</svg>
